<?xml version="1.0" encoding="UTF-8" standalone="no"?>
<!-- Created with Inkscape (http://www.inkscape.org/) -->

<svg
   width="21.05106mm"
   height="41.727322mm"
   viewBox="0 0 21.05106 41.727322"
   version="1.1"
   id="svg1"
   inkscape:version="1.4.2 (f4327f4, 2025-05-13)"
   sodipodi:docname="CaveColumnar1.svg"
   xmlns:inkscape="http://www.inkscape.org/namespaces/inkscape"
   xmlns:sodipodi="http://sodipodi.sourceforge.net/DTD/sodipodi-0.dtd"
   xmlns="http://www.w3.org/2000/svg"
   xmlns:svg="http://www.w3.org/2000/svg">
  <sodipodi:namedview
     id="namedview1"
     pagecolor="#ffffff"
     bordercolor="#000000"
     borderopacity="0.25"
     inkscape:showpageshadow="2"
     inkscape:pageopacity="0.0"
     inkscape:pagecheckerboard="0"
     inkscape:deskcolor="#d1d1d1"
     inkscape:document-units="mm"
     inkscape:zoom="9.2070303"
     inkscape:cx="44.531188"
     inkscape:cy="104.97413"
     inkscape:window-width="3840"
     inkscape:window-height="2054"
     inkscape:window-x="-11"
     inkscape:window-y="-11"
     inkscape:window-maximized="1"
     inkscape:current-layer="layer1" />
  <defs
     id="defs1" />
  <g
     inkscape:label="Ebene 1"
     inkscape:groupmode="layer"
     id="layer1"
     transform="translate(-89.429161,-173.0375)">
    <path
       id="path26-9-81-8"
       style="fill:#000000;fill-opacity:0.504876;stroke:#1f1e20;stroke-width:0;stroke-linecap:round;stroke-linejoin:round;paint-order:fill markers stroke"
       d="m 98.76162,214.76473 c -0.644245,0.001 -1.296566,-0.007 -1.470194,-0.008 -0.525839,-0.005 -3.896787,-0.0213 -4.37441,-0.10067 -0.315415,-0.0524 -1.375378,-0.77297 -1.542025,-0.8828 -0.252346,-0.16633 -1.897075,-1.22691 -1.9451,-1.4157 -8.3e-4,-0.004 -8.19e-4,-0.007 0,-0.0111 v -6.53411 -3e-4 c -8.3e-4,-0.003 -8.19e-4,-0.007 0,-0.0106 v -0.0636 l 0.174149,-0.10308 0.001,-5.8e-4 c 0.334039,-0.24436 1.040011,-0.63891 1.175122,-0.71644 0.118382,-0.0679 0.508519,-0.29592 0.948262,-0.54132 0.0022,-0.001 0.0045,-0.002 0.0067,-0.004 l 0.202572,-0.12026 c -0.419712,-0.21979 -1.2921,-0.68306 -1.322917,-0.77972 -6.47e-4,-0.002 -6.37e-4,-0.005 0,-0.007 v -4.07256 c -6.47e-4,-0.002 -6.37e-4,-0.004 0,-0.007 v -0.0398 l 0.136426,-0.0645 c 0.260846,-0.15229 0.812744,-0.39805 0.91829,-0.44637 0.09244,-0.0423 0.397161,-0.18436 0.740523,-0.33727 l 1.156519,-0.54675 5.520077,0.038 v 0.005 l 0.147278,0.0714 2.661848,-0.87739 5.67562,0.019 v 0.008 l 2.72335,0.97956 v 0.89095 c 9e-5,2.9e-4 4.4e-4,5.8e-4 5.2e-4,0.001 6.7e-4,0.002 2e-4,0.006 -5.2e-4,0.009 l 5.2e-4,1.98715 c 6.2e-4,0.002 5.7e-4,0.005 0,0.008 v 0.0434 l -0.0181,-0.0124 c -0.0716,0.0867 -0.34071,0.26194 -0.58911,0.41443 0.0231,0.0153 0.0462,0.0304 0.0692,0.0458 l 0.72243,0.46687 v 0.0904 c 6.4e-4,0.002 6.3e-4,0.005 0,0.008 l 5.2e-4,5.11059 c 0,1.9e-4 0,4e-4 0,5.8e-4 v 0.0699 l -0.0326,-0.0193 c -0.16392,0.16935 -0.89911,0.59264 -1.02267,0.6658 -0.21361,0.12647 -1.56151,0.94144 -1.89704,1.02688 -0.22159,0.0564 -1.98807,0.0336 -2.2593,0.0313 -0.1673,-0.001 -0.70353,-0.005 -1.30534,-0.0118 l 5.1e-4,3.46191 c 1e-5,3.1e-4 1e-5,0.001 0,0.001 v 0.0892 l -0.0413,-0.0247 c -0.20988,0.21683 -1.15128,0.759 -1.30948,0.85266 -0.27349,0.16193 -1.99971,1.20534 -2.4293,1.31472 -0.14185,0.0361 -0.777896,0.0469 -1.422142,0.0482 z" />
    <path
       sodipodi:type="star"
       style="fill:#874985;fill-opacity:1;stroke:#1f1e20;stroke-width:0;stroke-linecap:round;stroke-linejoin:round;stroke-dasharray:none;stroke-opacity:1;paint-order:fill markers stroke"
       id="path26-9-81"
       inkscape:flatsided="false"
       sodipodi:sides="6"
       sodipodi:cx="11.442985"
       sodipodi:cy="7.4006262"
       sodipodi:r1="7.3865809"
       sodipodi:r2="8.2404566"
       sodipodi:arg1="0.61502305"
       sodipodi:arg2="1.0239934"
       inkscape:rounded="0.12"
       inkscape:randomized="2.7755576e-17"
       d="m 17.47605,11.662516 c -0.188926,0.345509 -1.390782,2.612102 -1.748366,2.777036 -0.541478,0.249754 -4.362931,0.302966 -4.959072,0.316807 -0.393682,0.0091 -2.9575376,0.101599 -3.2791662,-0.125611 C 7.0024135,14.28669 5.0456039,11.003822 4.7355472,10.494469 4.5307905,10.1581 3.168791,7.9839655 3.2047464,7.5918218 3.2591925,6.9980109 5.1238353,3.6619298 5.4099196,3.1387363 5.5988454,2.7932273 6.8007011,0.52663396 7.1582852,0.36170043 7.6997636,0.11194672 11.521216,0.0587342 12.117357,0.04489373 c 0.393682,-0.00914 2.957538,-0.10159905 3.279166,0.12561105 0.487033,0.34405718 2.443842,3.62692572 2.753899,4.13627882 0.204757,0.336369 1.566756,2.5105033 1.530801,2.9026469 -0.05445,0.5938109 -1.919089,3.9298925 -2.205173,4.4530855 z"
       transform="matrix(0.88207205,0,0,0.52822523,86.60296,184.37736)" />
    <path
       sodipodi:type="star"
       style="fill:#e5f4e3;fill-opacity:1;stroke:#1f1e20;stroke-width:0;stroke-linecap:round;stroke-linejoin:round;stroke-dasharray:none;stroke-opacity:1;paint-order:fill markers stroke"
       id="path26-8-8-9"
       inkscape:flatsided="false"
       sodipodi:sides="6"
       sodipodi:cx="11.442985"
       sodipodi:cy="7.4006262"
       sodipodi:r1="7.3865809"
       sodipodi:r2="8.2404566"
       sodipodi:arg1="0.61502305"
       sodipodi:arg2="1.0239934"
       inkscape:rounded="0.12"
       inkscape:randomized="2.7755576e-17"
       d="m 17.47605,11.662516 c -0.188926,0.345509 -1.390782,2.612102 -1.748366,2.777036 -0.541478,0.249754 -4.362931,0.302966 -4.959072,0.316807 -0.393682,0.0091 -2.9575376,0.101599 -3.2791662,-0.125611 C 7.0024135,14.28669 5.0456039,11.003822 4.7355472,10.494469 4.5307905,10.1581 3.168791,7.9839655 3.2047464,7.5918218 3.2591925,6.9980109 5.1238353,3.6619298 5.4099196,3.1387363 5.5988454,2.7932273 6.8007011,0.52663396 7.1582852,0.36170043 7.6997636,0.11194672 11.521216,0.0587342 12.117357,0.04489373 c 0.393682,-0.00914 2.957538,-0.10159905 3.279166,0.12561105 0.487033,0.34405718 2.443842,3.62692572 2.753899,4.13627882 0.204757,0.336369 1.566756,2.5105033 1.530801,2.9026469 -0.05445,0.5938109 -1.919089,3.9298925 -2.205173,4.4530855 z"
       transform="matrix(0.55487734,0,0,0.34288513,90.34705,185.87336)" />
    <path
       sodipodi:type="star"
       style="fill:#874985;fill-opacity:1;stroke:#1f1e20;stroke-width:0;stroke-linecap:round;stroke-linejoin:round;stroke-dasharray:none;stroke-opacity:1;paint-order:fill markers stroke"
       id="path26-8-0-4-89"
       inkscape:flatsided="false"
       sodipodi:sides="6"
       sodipodi:cx="11.442985"
       sodipodi:cy="7.4006262"
       sodipodi:r1="7.3865809"
       sodipodi:r2="8.2404566"
       sodipodi:arg1="0.61502305"
       sodipodi:arg2="1.0239934"
       inkscape:rounded="0.12"
       inkscape:randomized="2.7755576e-17"
       d="m 17.47605,11.662516 c -0.188926,0.345509 -1.390782,2.612102 -1.748366,2.777036 -0.541478,0.249754 -4.362931,0.302966 -4.959072,0.316807 -0.393682,0.0091 -2.9575376,0.101599 -3.2791662,-0.125611 C 7.0024135,14.28669 5.0456039,11.003822 4.7355472,10.494469 4.5307905,10.1581 3.168791,7.9839655 3.2047464,7.5918218 3.2591925,6.9980109 5.1238353,3.6619298 5.4099196,3.1387363 5.5988454,2.7932273 6.8007011,0.52663396 7.1582852,0.36170043 7.6997636,0.11194672 11.521216,0.0587342 12.117357,0.04489373 c 0.393682,-0.00914 2.957538,-0.10159905 3.279166,0.12561105 0.487033,0.34405718 2.443842,3.62692572 2.753899,4.13627882 0.204757,0.336369 1.566756,2.5105033 1.530801,2.9026469 -0.05445,0.5938109 -1.919089,3.9298925 -2.205173,4.4530855 z"
       transform="matrix(0.16633364,0,0,0.10278548,94.66122,188.39783)" />
    <path
       sodipodi:type="star"
       style="fill:#874985;fill-opacity:1;stroke:#1f1e20;stroke-width:0;stroke-linecap:round;stroke-linejoin:round;stroke-dasharray:none;stroke-opacity:1;paint-order:fill markers stroke"
       id="path26-3-1-7"
       inkscape:flatsided="false"
       sodipodi:sides="6"
       sodipodi:cx="11.442985"
       sodipodi:cy="7.4006262"
       sodipodi:r1="7.3865809"
       sodipodi:r2="8.2404566"
       sodipodi:arg1="0.61502305"
       sodipodi:arg2="1.0239934"
       inkscape:rounded="0.12"
       inkscape:randomized="2.7755576e-17"
       d="m 17.47605,11.662516 c -0.188926,0.345509 -1.390782,2.612102 -1.748366,2.777036 -0.541478,0.249754 -4.362931,0.302966 -4.959072,0.316807 -0.393682,0.0091 -2.9575376,0.101599 -3.2791662,-0.125611 C 7.0024135,14.28669 5.0456039,11.003822 4.7355472,10.494469 4.5307905,10.1581 3.168791,7.9839655 3.2047464,7.5918218 3.2591925,6.9980109 5.1238353,3.6619298 5.4099196,3.1387363 5.5988454,2.7932273 6.8007011,0.52663396 7.1582852,0.36170043 7.6997636,0.11194672 11.521216,0.0587342 12.117357,0.04489373 c 0.393682,-0.00914 2.957538,-0.10159905 3.279166,0.12561105 0.487033,0.34405718 2.443842,3.62692572 2.753899,4.13627882 0.204757,0.336369 1.566756,2.5105033 1.530801,2.9026469 -0.05445,0.5938109 -1.919089,3.9298925 -2.205173,4.4530855 z"
       transform="matrix(0.88207205,0,0,0.54507434,86.60296,173.02735)" />
    <path
       sodipodi:type="star"
       style="fill:#e0d3e4;fill-opacity:1;stroke:#1f1e20;stroke-width:0;stroke-linecap:round;stroke-linejoin:round;stroke-dasharray:none;stroke-opacity:1;paint-order:fill markers stroke"
       id="path26-8-5-4-2"
       inkscape:flatsided="false"
       sodipodi:sides="6"
       sodipodi:cx="11.442985"
       sodipodi:cy="7.4006262"
       sodipodi:r1="7.3865809"
       sodipodi:r2="8.2404566"
       sodipodi:arg1="0.61502305"
       sodipodi:arg2="1.0239934"
       inkscape:rounded="0.12"
       inkscape:randomized="2.7755576e-17"
       d="m 17.47605,11.662516 c -0.188926,0.345509 -1.390782,2.612102 -1.748366,2.777036 -0.541478,0.249754 -4.362931,0.302966 -4.959072,0.316807 -0.393682,0.0091 -2.9575376,0.101599 -3.2791662,-0.125611 C 7.0024135,14.28669 5.0456039,11.003822 4.7355472,10.494469 4.5307905,10.1581 3.168791,7.9839655 3.2047464,7.5918218 3.2591925,6.9980109 5.1238353,3.6619298 5.4099196,3.1387363 5.5988454,2.7932273 6.8007011,0.52663396 7.1582852,0.36170043 7.6997636,0.11194672 11.521216,0.0587342 12.117357,0.04489373 c 0.393682,-0.00914 2.957538,-0.10159905 3.279166,0.12561105 0.487033,0.34405718 2.443842,3.62692572 2.753899,4.13627882 0.204757,0.336369 1.566756,2.5105033 1.530801,2.9026469 -0.05445,0.5938109 -1.919089,3.9298925 -2.205173,4.4530855 z"
       transform="matrix(0.55487734,0,0,0.34288513,90.34705,174.52366)" />
    <path
       sodipodi:type="star"
       style="fill:#874985;fill-opacity:1;stroke:#1f1e20;stroke-width:0;stroke-linecap:round;stroke-linejoin:round;stroke-dasharray:none;stroke-opacity:1;paint-order:fill markers stroke"
       id="path26-8-0-1-3-2"
       inkscape:flatsided="false"
       sodipodi:sides="6"
       sodipodi:cx="11.442985"
       sodipodi:cy="7.4006262"
       sodipodi:r1="7.3865809"
       sodipodi:r2="8.2404566"
       sodipodi:arg1="0.61502305"
       sodipodi:arg2="1.0239934"
       inkscape:rounded="0.12"
       inkscape:randomized="2.7755576e-17"
       d="m 17.47605,11.662516 c -0.188926,0.345509 -1.390782,2.612102 -1.748366,2.777036 -0.541478,0.249754 -4.362931,0.302966 -4.959072,0.316807 -0.393682,0.0091 -2.9575376,0.101599 -3.2791662,-0.125611 C 7.0024135,14.28669 5.0456039,11.003822 4.7355472,10.494469 4.5307905,10.1581 3.168791,7.9839655 3.2047464,7.5918218 3.2591925,6.9980109 5.1238353,3.6619298 5.4099196,3.1387363 5.5988454,2.7932273 6.8007011,0.52663396 7.1582852,0.36170043 7.6997636,0.11194672 11.521216,0.0587342 12.117357,0.04489373 c 0.393682,-0.00914 2.957538,-0.10159905 3.279166,0.12561105 0.487033,0.34405718 2.443842,3.62692572 2.753899,4.13627882 0.204757,0.336369 1.566756,2.5105033 1.530801,2.9026469 -0.05445,0.5938109 -1.919089,3.9298925 -2.205173,4.4530855 z"
       transform="matrix(0.16633364,0,0,0.10278548,94.79315,176.30055)" />
    <path
       style="fill:#723d70;fill-opacity:1;stroke:#1f1e20;stroke-width:0;stroke-linecap:round;stroke-linejoin:round;stroke-dasharray:none;stroke-opacity:1;paint-order:fill markers stroke"
       d="m 89.42978,177.16544 v 11.34971 l 3.77941,3.83673 v -11.3497 z"
       id="path27-9-8" />
    <path
       style="fill:#995297;fill-opacity:1;stroke:#1f1e20;stroke-width:0;stroke-linecap:round;stroke-linejoin:round;stroke-dasharray:none;stroke-opacity:1;paint-order:fill markers stroke"
       d="m 103.96384,176.79397 -6.2e-4,11.59039 -3.48731,3.86332 -0.29149,-11.5911 z"
       id="path27-4-8-2"
       sodipodi:nodetypes="ccccc" />
    <path
       style="fill:#8d4b8b;fill-opacity:1;stroke:#1f1e20;stroke-width:0;stroke-linecap:round;stroke-linejoin:round;stroke-dasharray:none;stroke-opacity:1;paint-order:fill markers stroke"
       d="m 93.20919,181.00218 7.26672,-0.1042 v 11.3497 l -7.26672,0.10421 z"
       id="path28-8-8" />
    <path
       sodipodi:type="star"
       style="fill:#874985;fill-opacity:1;stroke:#1f1e20;stroke-width:0;stroke-linecap:round;stroke-linejoin:round;stroke-dasharray:none;stroke-opacity:1;paint-order:fill markers stroke"
       id="path26-9-8-9"
       inkscape:flatsided="false"
       sodipodi:sides="6"
       sodipodi:cx="11.442985"
       sodipodi:cy="7.4006262"
       sodipodi:r1="7.3865809"
       sodipodi:r2="8.2404566"
       sodipodi:arg1="0.61502305"
       sodipodi:arg2="1.0239934"
       inkscape:rounded="0.12"
       inkscape:randomized="2.7755576e-17"
       d="m 17.47605,11.662516 c -0.188926,0.345509 -1.390782,2.612102 -1.748366,2.777036 -0.541478,0.249754 -4.362931,0.302966 -4.959072,0.316807 -0.393682,0.0091 -2.9575376,0.101599 -3.2791662,-0.125611 C 7.0024135,14.28669 5.0456039,11.003822 4.7355472,10.494469 4.5307905,10.1581 3.168791,7.9839655 3.2047464,7.5918218 3.2591925,6.9980109 5.1238353,3.6619298 5.4099196,3.1387363 5.5988454,2.7932273 6.8007011,0.52663396 7.1582852,0.36170043 7.6997636,0.11194672 11.521216,0.0587342 12.117357,0.04489373 c 0.393682,-0.00914 2.957538,-0.10159905 3.279166,0.12561105 0.487033,0.34405718 2.443842,3.62692572 2.753899,4.13627882 0.204757,0.336369 1.566756,2.5105033 1.530801,2.9026469 -0.05445,0.5938109 -1.919089,3.9298925 -2.205173,4.4530855 z"
       transform="matrix(0.68894048,0,0,0.41256918,96.92054,191.71049)" />
    <path
       sodipodi:type="star"
       style="fill:#e5f4e3;fill-opacity:1;stroke:#1f1e20;stroke-width:0;stroke-linecap:round;stroke-linejoin:round;stroke-dasharray:none;stroke-opacity:1;paint-order:fill markers stroke"
       id="path26-8-8-3-07"
       inkscape:flatsided="false"
       sodipodi:sides="6"
       sodipodi:cx="11.442985"
       sodipodi:cy="7.4006262"
       sodipodi:r1="7.3865809"
       sodipodi:r2="8.2404566"
       sodipodi:arg1="0.61502305"
       sodipodi:arg2="1.0239934"
       inkscape:rounded="0.12"
       inkscape:randomized="2.7755576e-17"
       d="m 17.47605,11.662516 c -0.188926,0.345509 -1.390782,2.612102 -1.748366,2.777036 -0.541478,0.249754 -4.362931,0.302966 -4.959072,0.316807 -0.393682,0.0091 -2.9575376,0.101599 -3.2791662,-0.125611 C 7.0024135,14.28669 5.0456039,11.003822 4.7355472,10.494469 4.5307905,10.1581 3.168791,7.9839655 3.2047464,7.5918218 3.2591925,6.9980109 5.1238353,3.6619298 5.4099196,3.1387363 5.5988454,2.7932273 6.8007011,0.52663396 7.1582852,0.36170043 7.6997636,0.11194672 11.521216,0.0587342 12.117357,0.04489373 c 0.393682,-0.00914 2.957538,-0.10159905 3.279166,0.12561105 0.487033,0.34405718 2.443842,3.62692572 2.753899,4.13627882 0.204757,0.336369 1.566756,2.5105033 1.530801,2.9026469 -0.05445,0.5938109 -1.919089,3.9298925 -2.205173,4.4530855 z"
       transform="matrix(0.43338575,0,0,0.26780969,99.87595,192.5058)" />
    <path
       sodipodi:type="star"
       style="fill:#874985;fill-opacity:1;stroke:#1f1e20;stroke-width:0;stroke-linecap:round;stroke-linejoin:round;stroke-dasharray:none;stroke-opacity:1;paint-order:fill markers stroke"
       id="path26-8-0-4-8-8"
       inkscape:flatsided="false"
       sodipodi:sides="6"
       sodipodi:cx="11.442985"
       sodipodi:cy="7.4006262"
       sodipodi:r1="7.3865809"
       sodipodi:r2="8.2404566"
       sodipodi:arg1="0.61502305"
       sodipodi:arg2="1.0239934"
       inkscape:rounded="0.12"
       inkscape:randomized="2.7755576e-17"
       d="m 17.47605,11.662516 c -0.188926,0.345509 -1.390782,2.612102 -1.748366,2.777036 -0.541478,0.249754 -4.362931,0.302966 -4.959072,0.316807 -0.393682,0.0091 -2.9575376,0.101599 -3.2791662,-0.125611 C 7.0024135,14.28669 5.0456039,11.003822 4.7355472,10.494469 4.5307905,10.1581 3.168791,7.9839655 3.2047464,7.5918218 3.2591925,6.9980109 5.1238353,3.6619298 5.4099196,3.1387363 5.5988454,2.7932273 6.8007011,0.52663396 7.1582852,0.36170043 7.6997636,0.11194672 11.521216,0.0587342 12.117357,0.04489373 c 0.393682,-0.00914 2.957538,-0.10159905 3.279166,0.12561105 0.487033,0.34405718 2.443842,3.62692572 2.753899,4.13627882 0.204757,0.336369 1.566756,2.5105033 1.530801,2.9026469 -0.05445,0.5938109 -1.919089,3.9298925 -2.205173,4.4530855 z"
       transform="matrix(0.12991454,0,0,0.08028038,103.34856,193.89364)" />
    <path
       sodipodi:type="star"
       style="fill:#874985;fill-opacity:1;stroke:#1f1e20;stroke-width:0;stroke-linecap:round;stroke-linejoin:round;stroke-dasharray:none;stroke-opacity:1;paint-order:fill markers stroke"
       id="path26-3-1-3-1"
       inkscape:flatsided="false"
       sodipodi:sides="6"
       sodipodi:cx="11.442985"
       sodipodi:cy="7.4006262"
       sodipodi:r1="7.3865809"
       sodipodi:r2="8.2404566"
       sodipodi:arg1="0.61502305"
       sodipodi:arg2="1.0239934"
       inkscape:rounded="0.12"
       inkscape:randomized="2.7755576e-17"
       d="m 17.47605,11.662516 c -0.188926,0.345509 -1.390782,2.612102 -1.748366,2.777036 -0.541478,0.249754 -4.362931,0.302966 -4.959072,0.316807 -0.393682,0.0091 -2.9575376,0.101599 -3.2791662,-0.125611 C 7.0024135,14.28669 5.0456039,11.003822 4.7355472,10.494469 4.5307905,10.1581 3.168791,7.9839655 3.2047464,7.5918218 3.2591925,6.9980109 5.1238353,3.6619298 5.4099196,3.1387363 5.5988454,2.7932273 6.8007011,0.52663396 7.1582852,0.36170043 7.6997636,0.11194672 11.521216,0.0587342 12.117357,0.04489373 c 0.393682,-0.00914 2.957538,-0.10159905 3.279166,0.12561105 0.487033,0.34405718 2.443842,3.62692572 2.753899,4.13627882 0.204757,0.336369 1.566756,2.5105033 1.530801,2.9026469 -0.05445,0.5938109 -1.919089,3.9298925 -2.205173,4.4530855 z"
       transform="matrix(0.68894048,0,0,0.42572914,96.92054,182.84559)" />
    <path
       sodipodi:type="star"
       style="fill:#e0d3e4;fill-opacity:1;stroke:#1f1e20;stroke-width:0;stroke-linecap:round;stroke-linejoin:round;stroke-dasharray:none;stroke-opacity:1;paint-order:fill markers stroke"
       id="path26-8-5-4-7-5"
       inkscape:flatsided="false"
       sodipodi:sides="6"
       sodipodi:cx="11.442985"
       sodipodi:cy="7.4006262"
       sodipodi:r1="7.3865809"
       sodipodi:r2="8.2404566"
       sodipodi:arg1="0.61502305"
       sodipodi:arg2="1.0239934"
       inkscape:rounded="0.12"
       inkscape:randomized="2.7755576e-17"
       d="m 17.47605,11.662516 c -0.188926,0.345509 -1.390782,2.612102 -1.748366,2.777036 -0.541478,0.249754 -4.362931,0.302966 -4.959072,0.316807 -0.393682,0.0091 -2.9575376,0.101599 -3.2791662,-0.125611 C 7.0024135,14.28669 5.0456039,11.003822 4.7355472,10.494469 4.5307905,10.1581 3.168791,7.9839655 3.2047464,7.5918218 3.2591925,6.9980109 5.1238353,3.6619298 5.4099196,3.1387363 5.5988454,2.7932273 6.8007011,0.52663396 7.1582852,0.36170043 7.6997636,0.11194672 11.521216,0.0587342 12.117357,0.04489373 c 0.393682,-0.00914 2.957538,-0.10159905 3.279166,0.12561105 0.487033,0.34405718 2.443842,3.62692572 2.753899,4.13627882 0.204757,0.336369 1.566756,2.5105033 1.530801,2.9026469 -0.05445,0.5938109 -1.919089,3.9298925 -2.205173,4.4530855 z"
       transform="matrix(0.43338575,0,0,0.26780969,99.84485,184.01429)" />
    <path
       sodipodi:type="star"
       style="fill:#874985;fill-opacity:1;stroke:#1f1e20;stroke-width:0;stroke-linecap:round;stroke-linejoin:round;stroke-dasharray:none;stroke-opacity:1;paint-order:fill markers stroke"
       id="path26-8-0-1-3-1-86"
       inkscape:flatsided="false"
       sodipodi:sides="6"
       sodipodi:cx="11.442985"
       sodipodi:cy="7.4006262"
       sodipodi:r1="7.3865809"
       sodipodi:r2="8.2404566"
       sodipodi:arg1="0.61502305"
       sodipodi:arg2="1.0239934"
       inkscape:rounded="0.12"
       inkscape:randomized="2.7755576e-17"
       d="m 17.47605,11.662516 c -0.188926,0.345509 -1.390782,2.612102 -1.748366,2.777036 -0.541478,0.249754 -4.362931,0.302966 -4.959072,0.316807 -0.393682,0.0091 -2.9575376,0.101599 -3.2791662,-0.125611 C 7.0024135,14.28669 5.0456039,11.003822 4.7355472,10.494469 4.5307905,10.1581 3.168791,7.9839655 3.2047464,7.5918218 3.2591925,6.9980109 5.1238353,3.6619298 5.4099196,3.1387363 5.5988454,2.7932273 6.8007011,0.52663396 7.1582852,0.36170043 7.6997636,0.11194672 11.521216,0.0587342 12.117357,0.04489373 c 0.393682,-0.00914 2.957538,-0.10159905 3.279166,0.12561105 0.487033,0.34405718 2.443842,3.62692572 2.753899,4.13627882 0.204757,0.336369 1.566756,2.5105033 1.530801,2.9026469 -0.05445,0.5938109 -1.919089,3.9298925 -2.205173,4.4530855 z"
       transform="matrix(0.12991454,0,0,0.08028038,103.31747,185.40212)" />
    <path
       style="fill:#723d70;fill-opacity:1;stroke:#1f1e20;stroke-width:0;stroke-linecap:round;stroke-linejoin:round;stroke-dasharray:none;stroke-opacity:1;paint-order:fill markers stroke"
       d="m 99.12842,186.07765 v 8.86466 l 2.9519,2.99667 v -8.86465 z"
       id="path27-9-0-1" />
    <path
       style="fill:#995297;fill-opacity:1;stroke:#1f1e20;stroke-width:0;stroke-linecap:round;stroke-linejoin:round;stroke-dasharray:none;stroke-opacity:1;paint-order:fill markers stroke"
       d="m 110.48022,185.7875 -4.9e-4,9.05265 -2.72375,3.01743 -0.22767,-9.0532 z"
       id="path27-4-8-7-2"
       sodipodi:nodetypes="ccccc" />
    <path
       style="fill:#8d4b8b;fill-opacity:1;stroke:#1f1e20;stroke-width:0;stroke-linecap:round;stroke-linejoin:round;stroke-dasharray:none;stroke-opacity:1;paint-order:fill markers stroke"
       d="m 102.08032,189.07432 5.67566,-0.0814 v 8.86466 l -5.67566,0.0814 z"
       id="path28-8-3-4" />
    <path
       sodipodi:type="star"
       style="fill:#874985;fill-opacity:1;stroke:#1f1e20;stroke-width:0;stroke-linecap:round;stroke-linejoin:round;stroke-dasharray:none;stroke-opacity:1;paint-order:fill markers stroke"
       id="path26-9-8-1-2"
       inkscape:flatsided="false"
       sodipodi:sides="6"
       sodipodi:cx="11.442985"
       sodipodi:cy="7.4006262"
       sodipodi:r1="7.3865809"
       sodipodi:r2="8.2404566"
       sodipodi:arg1="0.61502305"
       sodipodi:arg2="1.0239934"
       inkscape:rounded="0.12"
       inkscape:randomized="2.7755576e-17"
       d="m 17.47605,11.662516 c -0.188926,0.345509 -1.390782,2.612102 -1.748366,2.777036 -0.541478,0.249754 -4.362931,0.302966 -4.959072,0.316807 -0.393682,0.0091 -2.9575376,0.101599 -3.2791662,-0.125611 C 7.0024135,14.28669 5.0456039,11.003822 4.7355472,10.494469 4.5307905,10.1581 3.168791,7.9839655 3.2047464,7.5918218 3.2591925,6.9980109 5.1238353,3.6619298 5.4099196,3.1387363 5.5988454,2.7932273 6.8007011,0.52663396 7.1582852,0.36170043 7.6997636,0.11194672 11.521216,0.0587342 12.117357,0.04489373 c 0.393682,-0.00914 2.957538,-0.10159905 3.279166,0.12561105 0.487033,0.34405718 2.443842,3.62692572 2.753899,4.13627882 0.204757,0.336369 1.566756,2.5105033 1.530801,2.9026469 -0.05445,0.5938109 -1.919089,3.9298925 -2.205173,4.4530855 z"
       transform="matrix(0.68894048,0,0,0.32922879,88.4069,196.89344)" />
    <path
       sodipodi:type="star"
       style="fill:#e5f4e3;fill-opacity:1;stroke:#1f1e20;stroke-width:0;stroke-linecap:round;stroke-linejoin:round;stroke-dasharray:none;stroke-opacity:1;paint-order:fill markers stroke"
       id="path26-8-8-3-0-5"
       inkscape:flatsided="false"
       sodipodi:sides="6"
       sodipodi:cx="11.442985"
       sodipodi:cy="7.4006262"
       sodipodi:r1="7.3865809"
       sodipodi:r2="8.2404566"
       sodipodi:arg1="0.61502305"
       sodipodi:arg2="1.0239934"
       inkscape:rounded="0.12"
       inkscape:randomized="2.7755576e-17"
       d="m 17.47605,11.662516 c -0.188926,0.345509 -1.390782,2.612102 -1.748366,2.777036 -0.541478,0.249754 -4.362931,0.302966 -4.959072,0.316807 -0.393682,0.0091 -2.9575376,0.101599 -3.2791662,-0.125611 C 7.0024135,14.28669 5.0456039,11.003822 4.7355472,10.494469 4.5307905,10.1581 3.168791,7.9839655 3.2047464,7.5918218 3.2591925,6.9980109 5.1238353,3.6619298 5.4099196,3.1387363 5.5988454,2.7932273 6.8007011,0.52663396 7.1582852,0.36170043 7.6997636,0.11194672 11.521216,0.0587342 12.117357,0.04489373 c 0.393682,-0.00914 2.957538,-0.10159905 3.279166,0.12561105 0.487033,0.34405718 2.443842,3.62692572 2.753899,4.13627882 0.204757,0.336369 1.566756,2.5105033 1.530801,2.9026469 -0.05445,0.5938109 -1.919089,3.9298925 -2.205173,4.4530855 z"
       transform="matrix(0.43338575,0,0,0.21371121,91.3312,197.82587)" />
    <path
       sodipodi:type="star"
       style="fill:#874985;fill-opacity:1;stroke:#1f1e20;stroke-width:0;stroke-linecap:round;stroke-linejoin:round;stroke-dasharray:none;stroke-opacity:1;paint-order:fill markers stroke"
       id="path26-8-0-4-8-9-8"
       inkscape:flatsided="false"
       sodipodi:sides="6"
       sodipodi:cx="11.442985"
       sodipodi:cy="7.4006262"
       sodipodi:r1="7.3865809"
       sodipodi:r2="8.2404566"
       sodipodi:arg1="0.61502305"
       sodipodi:arg2="1.0239934"
       inkscape:rounded="0.12"
       inkscape:randomized="2.7755576e-17"
       d="m 17.47605,11.662516 c -0.188926,0.345509 -1.390782,2.612102 -1.748366,2.777036 -0.541478,0.249754 -4.362931,0.302966 -4.959072,0.316807 -0.393682,0.0091 -2.9575376,0.101599 -3.2791662,-0.125611 C 7.0024135,14.28669 5.0456039,11.003822 4.7355472,10.494469 4.5307905,10.1581 3.168791,7.9839655 3.2047464,7.5918218 3.2591925,6.9980109 5.1238353,3.6619298 5.4099196,3.1387363 5.5988454,2.7932273 6.8007011,0.52663396 7.1582852,0.36170043 7.6997636,0.11194672 11.521216,0.0587342 12.117357,0.04489373 c 0.393682,-0.00914 2.957538,-0.10159905 3.279166,0.12561105 0.487033,0.34405718 2.443842,3.62692572 2.753899,4.13627882 0.204757,0.336369 1.566756,2.5105033 1.530801,2.9026469 -0.05445,0.5938109 -1.919089,3.9298925 -2.205173,4.4530855 z"
       transform="matrix(0.12991454,0,0,0.06406347,94.80382,198.93335)" />
    <path
       sodipodi:type="star"
       style="fill:#e0d3e4;fill-opacity:1;stroke:#1f1e20;stroke-width:0;stroke-linecap:round;stroke-linejoin:round;stroke-dasharray:none;stroke-opacity:1;paint-order:fill markers stroke"
       id="path26-3-1-3-9-6"
       inkscape:flatsided="false"
       sodipodi:sides="6"
       sodipodi:cx="11.442985"
       sodipodi:cy="7.4006262"
       sodipodi:r1="7.3865809"
       sodipodi:r2="8.2404566"
       sodipodi:arg1="0.61502305"
       sodipodi:arg2="1.0239934"
       inkscape:rounded="0.12"
       inkscape:randomized="2.7755576e-17"
       d="m 17.47605,11.662516 c -0.188926,0.345509 -1.390782,2.612102 -1.748366,2.777036 -0.541478,0.249754 -4.362931,0.302966 -4.959072,0.316807 -0.393682,0.0091 -2.9575376,0.101599 -3.2791662,-0.125611 C 7.0024135,14.28669 5.0456039,11.003822 4.7355472,10.494469 4.5307905,10.1581 3.168791,7.9839655 3.2047464,7.5918218 3.2591925,6.9980109 5.1238353,3.6619298 5.4099196,3.1387363 5.5988454,2.7932273 6.8007011,0.52663396 7.1582852,0.36170043 7.6997636,0.11194672 11.521216,0.0587342 12.117357,0.04489373 c 0.393682,-0.00914 2.957538,-0.10159905 3.279166,0.12561105 0.487033,0.34405718 2.443842,3.62692572 2.753899,4.13627882 0.204757,0.336369 1.566756,2.5105033 1.530801,2.9026469 -0.05445,0.5938109 -1.919089,3.9298925 -2.205173,4.4530855 z"
       transform="matrix(0.68894048,0,0,0.33973039,88.4069,189.81928)" />
    <path
       sodipodi:type="star"
       style="fill:#874985;fill-opacity:1;stroke:#1f1e20;stroke-width:0;stroke-linecap:round;stroke-linejoin:round;stroke-dasharray:none;stroke-opacity:1;paint-order:fill markers stroke"
       id="path26-8-5-4-7-6-2"
       inkscape:flatsided="false"
       sodipodi:sides="6"
       sodipodi:cx="11.442985"
       sodipodi:cy="7.4006262"
       sodipodi:r1="7.3865809"
       sodipodi:r2="8.2404566"
       sodipodi:arg1="0.61502305"
       sodipodi:arg2="1.0239934"
       inkscape:rounded="0.12"
       inkscape:randomized="2.7755576e-17"
       d="m 17.47605,11.662516 c -0.188926,0.345509 -1.390782,2.612102 -1.748366,2.777036 -0.541478,0.249754 -4.362931,0.302966 -4.959072,0.316807 -0.393682,0.0091 -2.9575376,0.101599 -3.2791662,-0.125611 C 7.0024135,14.28669 5.0456039,11.003822 4.7355472,10.494469 4.5307905,10.1581 3.168791,7.9839655 3.2047464,7.5918218 3.2591925,6.9980109 5.1238353,3.6619298 5.4099196,3.1387363 5.5988454,2.7932273 6.8007011,0.52663396 7.1582852,0.36170043 7.6997636,0.11194672 11.521216,0.0587342 12.117357,0.04489373 c 0.393682,-0.00914 2.957538,-0.10159905 3.279166,0.12561105 0.487033,0.34405718 2.443842,3.62692572 2.753899,4.13627882 0.204757,0.336369 1.566756,2.5105033 1.530801,2.9026469 -0.05445,0.5938109 -1.919089,3.9298925 -2.205173,4.4530855 z"
       transform="matrix(0.43338575,0,0,0.21371121,91.3312,190.75191)" />
    <path
       sodipodi:type="star"
       style="fill:#e0d3e4;fill-opacity:1;stroke:#1f1e20;stroke-width:0;stroke-linecap:round;stroke-linejoin:round;stroke-dasharray:none;stroke-opacity:1;paint-order:fill markers stroke"
       id="path26-8-0-1-3-1-8-6"
       inkscape:flatsided="false"
       sodipodi:sides="6"
       sodipodi:cx="11.442985"
       sodipodi:cy="7.4006262"
       sodipodi:r1="7.3865809"
       sodipodi:r2="8.2404566"
       sodipodi:arg1="0.61502305"
       sodipodi:arg2="1.0239934"
       inkscape:rounded="0.12"
       inkscape:randomized="2.7755576e-17"
       d="m 17.47605,11.662516 c -0.188926,0.345509 -1.390782,2.612102 -1.748366,2.777036 -0.541478,0.249754 -4.362931,0.302966 -4.959072,0.316807 -0.393682,0.0091 -2.9575376,0.101599 -3.2791662,-0.125611 C 7.0024135,14.28669 5.0456039,11.003822 4.7355472,10.494469 4.5307905,10.1581 3.168791,7.9839655 3.2047464,7.5918218 3.2591925,6.9980109 5.1238353,3.6619298 5.4099196,3.1387363 5.5988454,2.7932273 6.8007011,0.52663396 7.1582852,0.36170043 7.6997636,0.11194672 11.521216,0.0587342 12.117357,0.04489373 c 0.393682,-0.00914 2.957538,-0.10159905 3.279166,0.12561105 0.487033,0.34405718 2.443842,3.62692572 2.753899,4.13627882 0.204757,0.336369 1.566756,2.5105033 1.530801,2.9026469 -0.05445,0.5938109 -1.919089,3.9298925 -2.205173,4.4530855 z"
       transform="matrix(0.12991454,0,0,0.06406347,94.80382,191.85939)" />
    <path
       style="fill:#9c939f;fill-opacity:1;stroke:#1f1e20;stroke-width:0;stroke-linecap:round;stroke-linejoin:round;stroke-dasharray:none;stroke-opacity:1;paint-order:fill markers stroke"
       d="m 90.61478,192.39846 v 7.07396 l 2.9519,2.39134 v -7.07396 z"
       id="path27-9-0-3-5" />
    <path
       style="fill:#faebfe;fill-opacity:1;stroke:#1f1e20;stroke-width:0;stroke-linecap:round;stroke-linejoin:round;stroke-dasharray:none;stroke-opacity:1;paint-order:fill markers stroke"
       d="m 101.96657,192.16692 -4.8e-4,7.22399 -2.87923,2.40013 -0.0333,-7.03008 z"
       id="path27-4-8-7-4-3"
       sodipodi:nodetypes="ccccc" />
    <path
       style="fill:#c2b6c5;fill-opacity:1;stroke:#1f1e20;stroke-width:0;stroke-linecap:round;stroke-linejoin:round;stroke-dasharray:none;stroke-opacity:1;paint-order:fill markers stroke"
       d="m 93.56668,194.7898 5.52018,-0.065 v 7.07396 l -5.52018,0.065 z"
       id="path28-8-3-8-9" />
    <path
       sodipodi:type="star"
       style="fill:#874985;fill-opacity:1;stroke:#1f1e20;stroke-width:0;stroke-linecap:round;stroke-linejoin:round;stroke-dasharray:none;stroke-opacity:1;paint-order:fill markers stroke"
       id="path26-9-8-5-2"
       inkscape:flatsided="false"
       sodipodi:sides="6"
       sodipodi:cx="11.442985"
       sodipodi:cy="7.4006262"
       sodipodi:r1="7.3865809"
       sodipodi:r2="8.2404566"
       sodipodi:arg1="0.61502305"
       sodipodi:arg2="1.0239934"
       inkscape:rounded="0.12"
       inkscape:randomized="2.7755576e-17"
       d="m 17.47605,11.662516 c -0.188926,0.345509 -1.390782,2.612102 -1.748366,2.777036 -0.541478,0.249754 -4.362931,0.302966 -4.959072,0.316807 -0.393682,0.0091 -2.9575376,0.101599 -3.2791662,-0.125611 C 7.0024135,14.28669 5.0456039,11.003822 4.7355472,10.494469 4.5307905,10.1581 3.168791,7.9839655 3.2047464,7.5918218 3.2591925,6.9980109 5.1238353,3.6619298 5.4099196,3.1387363 5.5988454,2.7932273 6.8007011,0.52663396 7.1582852,0.36170043 7.6997636,0.11194672 11.521216,0.0587342 12.117357,0.04489373 c 0.393682,-0.00914 2.957538,-0.10159905 3.279166,0.12561105 0.487033,0.34405718 2.443842,3.62692572 2.753899,4.13627882 0.204757,0.336369 1.566756,2.5105033 1.530801,2.9026469 -0.05445,0.5938109 -1.919089,3.9298925 -2.205173,4.4530855 z"
       transform="matrix(0.68894048,0,0,0.41256918,96.73584,196.94437)" />
    <path
       sodipodi:type="star"
       style="fill:#e5f4e3;fill-opacity:1;stroke:#1f1e20;stroke-width:0;stroke-linecap:round;stroke-linejoin:round;stroke-dasharray:none;stroke-opacity:1;paint-order:fill markers stroke"
       id="path26-8-8-3-5-4"
       inkscape:flatsided="false"
       sodipodi:sides="6"
       sodipodi:cx="11.442985"
       sodipodi:cy="7.4006262"
       sodipodi:r1="7.3865809"
       sodipodi:r2="8.2404566"
       sodipodi:arg1="0.61502305"
       sodipodi:arg2="1.0239934"
       inkscape:rounded="0.12"
       inkscape:randomized="2.7755576e-17"
       d="m 17.47605,11.662516 c -0.188926,0.345509 -1.390782,2.612102 -1.748366,2.777036 -0.541478,0.249754 -4.362931,0.302966 -4.959072,0.316807 -0.393682,0.0091 -2.9575376,0.101599 -3.2791662,-0.125611 C 7.0024135,14.28669 5.0456039,11.003822 4.7355472,10.494469 4.5307905,10.1581 3.168791,7.9839655 3.2047464,7.5918218 3.2591925,6.9980109 5.1238353,3.6619298 5.4099196,3.1387363 5.5988454,2.7932273 6.8007011,0.52663396 7.1582852,0.36170043 7.6997636,0.11194672 11.521216,0.0587342 12.117357,0.04489373 c 0.393682,-0.00914 2.957538,-0.10159905 3.279166,0.12561105 0.487033,0.34405718 2.443842,3.62692572 2.753899,4.13627882 0.204757,0.336369 1.566756,2.5105033 1.530801,2.9026469 -0.05445,0.5938109 -1.919089,3.9298925 -2.205173,4.4530855 z"
       transform="matrix(0.43338575,0,0,0.26780969,99.66015,198.11282)" />
    <path
       sodipodi:type="star"
       style="fill:#874985;fill-opacity:1;stroke:#1f1e20;stroke-width:0;stroke-linecap:round;stroke-linejoin:round;stroke-dasharray:none;stroke-opacity:1;paint-order:fill markers stroke"
       id="path26-8-0-4-8-3-6"
       inkscape:flatsided="false"
       sodipodi:sides="6"
       sodipodi:cx="11.442985"
       sodipodi:cy="7.4006262"
       sodipodi:r1="7.3865809"
       sodipodi:r2="8.2404566"
       sodipodi:arg1="0.61502305"
       sodipodi:arg2="1.0239934"
       inkscape:rounded="0.12"
       inkscape:randomized="2.7755576e-17"
       d="m 17.47605,11.662516 c -0.188926,0.345509 -1.390782,2.612102 -1.748366,2.777036 -0.541478,0.249754 -4.362931,0.302966 -4.959072,0.316807 -0.393682,0.0091 -2.9575376,0.101599 -3.2791662,-0.125611 C 7.0024135,14.28669 5.0456039,11.003822 4.7355472,10.494469 4.5307905,10.1581 3.168791,7.9839655 3.2047464,7.5918218 3.2591925,6.9980109 5.1238353,3.6619298 5.4099196,3.1387363 5.5988454,2.7932273 6.8007011,0.52663396 7.1582852,0.36170043 7.6997636,0.11194672 11.521216,0.0587342 12.117357,0.04489373 c 0.393682,-0.00914 2.957538,-0.10159905 3.279166,0.12561105 0.487033,0.34405718 2.443842,3.62692572 2.753899,4.13627882 0.204757,0.336369 1.566756,2.5105033 1.530801,2.9026469 -0.05445,0.5938109 -1.919089,3.9298925 -2.205173,4.4530855 z"
       transform="matrix(0.12991454,0,0,0.08028038,103.13277,199.50067)" />
    <path
       sodipodi:type="star"
       style="fill:#874985;fill-opacity:1;stroke:#1f1e20;stroke-width:0;stroke-linecap:round;stroke-linejoin:round;stroke-dasharray:none;stroke-opacity:1;paint-order:fill markers stroke"
       id="path26-3-1-3-3-1"
       inkscape:flatsided="false"
       sodipodi:sides="6"
       sodipodi:cx="11.442985"
       sodipodi:cy="7.4006262"
       sodipodi:r1="7.3865809"
       sodipodi:r2="8.2404566"
       sodipodi:arg1="0.61502305"
       sodipodi:arg2="1.0239934"
       inkscape:rounded="0.12"
       inkscape:randomized="2.7755576e-17"
       d="m 17.47605,11.662516 c -0.188926,0.345509 -1.390782,2.612102 -1.748366,2.777036 -0.541478,0.249754 -4.362931,0.302966 -4.959072,0.316807 -0.393682,0.0091 -2.9575376,0.101599 -3.2791662,-0.125611 C 7.0024135,14.28669 5.0456039,11.003822 4.7355472,10.494469 4.5307905,10.1581 3.168791,7.9839655 3.2047464,7.5918218 3.2591925,6.9980109 5.1238353,3.6619298 5.4099196,3.1387363 5.5988454,2.7932273 6.8007011,0.52663396 7.1582852,0.36170043 7.6997636,0.11194672 11.521216,0.0587342 12.117357,0.04489373 c 0.393682,-0.00914 2.957538,-0.10159905 3.279166,0.12561105 0.487033,0.34405718 2.443842,3.62692572 2.753899,4.13627882 0.204757,0.336369 1.566756,2.5105033 1.530801,2.9026469 -0.05445,0.5938109 -1.919089,3.9298925 -2.205173,4.4530855 z"
       transform="matrix(0.68894048,0,0,0.42572914,96.73584,193.42782)" />
    <path
       sodipodi:type="star"
       style="fill:#e0d3e4;fill-opacity:1;stroke:#1f1e20;stroke-width:0;stroke-linecap:round;stroke-linejoin:round;stroke-dasharray:none;stroke-opacity:1;paint-order:fill markers stroke"
       id="path26-8-5-4-7-3-8"
       inkscape:flatsided="false"
       sodipodi:sides="6"
       sodipodi:cx="11.442985"
       sodipodi:cy="7.4006262"
       sodipodi:r1="7.3865809"
       sodipodi:r2="8.2404566"
       sodipodi:arg1="0.61502305"
       sodipodi:arg2="1.0239934"
       inkscape:rounded="0.12"
       inkscape:randomized="2.7755576e-17"
       d="m 17.47605,11.662516 c -0.188926,0.345509 -1.390782,2.612102 -1.748366,2.777036 -0.541478,0.249754 -4.362931,0.302966 -4.959072,0.316807 -0.393682,0.0091 -2.9575376,0.101599 -3.2791662,-0.125611 C 7.0024135,14.28669 5.0456039,11.003822 4.7355472,10.494469 4.5307905,10.1581 3.168791,7.9839655 3.2047464,7.5918218 3.2591925,6.9980109 5.1238353,3.6619298 5.4099196,3.1387363 5.5988454,2.7932273 6.8007011,0.52663396 7.1582852,0.36170043 7.6997636,0.11194672 11.521216,0.0587342 12.117357,0.04489373 c 0.393682,-0.00914 2.957538,-0.10159905 3.279166,0.12561105 0.487033,0.34405718 2.443842,3.62692572 2.753899,4.13627882 0.204757,0.336369 1.566756,2.5105033 1.530801,2.9026469 -0.05445,0.5938109 -1.919089,3.9298925 -2.205173,4.4530855 z"
       transform="matrix(0.43338575,0,0,0.26780969,99.66015,194.59652)" />
    <path
       sodipodi:type="star"
       style="fill:#874985;fill-opacity:1;stroke:#1f1e20;stroke-width:0;stroke-linecap:round;stroke-linejoin:round;stroke-dasharray:none;stroke-opacity:1;paint-order:fill markers stroke"
       id="path26-8-0-1-3-1-7-2"
       inkscape:flatsided="false"
       sodipodi:sides="6"
       sodipodi:cx="11.442985"
       sodipodi:cy="7.4006262"
       sodipodi:r1="7.3865809"
       sodipodi:r2="8.2404566"
       sodipodi:arg1="0.61502305"
       sodipodi:arg2="1.0239934"
       inkscape:rounded="0.12"
       inkscape:randomized="2.7755576e-17"
       d="m 17.47605,11.662516 c -0.188926,0.345509 -1.390782,2.612102 -1.748366,2.777036 -0.541478,0.249754 -4.362931,0.302966 -4.959072,0.316807 -0.393682,0.0091 -2.9575376,0.101599 -3.2791662,-0.125611 C 7.0024135,14.28669 5.0456039,11.003822 4.7355472,10.494469 4.5307905,10.1581 3.168791,7.9839655 3.2047464,7.5918218 3.2591925,6.9980109 5.1238353,3.6619298 5.4099196,3.1387363 5.5988454,2.7932273 6.8007011,0.52663396 7.1582852,0.36170043 7.6997636,0.11194672 11.521216,0.0587342 12.117357,0.04489373 c 0.393682,-0.00914 2.957538,-0.10159905 3.279166,0.12561105 0.487033,0.34405718 2.443842,3.62692572 2.753899,4.13627882 0.204757,0.336369 1.566756,2.5105033 1.530801,2.9026469 -0.05445,0.5938109 -1.919089,3.9298925 -2.205173,4.4530855 z"
       transform="matrix(0.12991454,0,0,0.08028038,103.13277,195.98435)" />
    <path
       style="fill:#723d70;fill-opacity:1;stroke:#1f1e20;stroke-width:0;stroke-linecap:round;stroke-linejoin:round;stroke-dasharray:none;stroke-opacity:1;paint-order:fill markers stroke"
       d="m 98.94372,196.56984 v 4.93482 l 2.9519,1.6682 v -3.53861 z"
       id="path27-9-0-4-1"
       sodipodi:nodetypes="ccccc" />
    <path
       style="fill:#995297;fill-opacity:1;stroke:#1f1e20;stroke-width:0;stroke-linecap:round;stroke-linejoin:round;stroke-dasharray:none;stroke-opacity:1;paint-order:fill markers stroke"
       d="m 110.29551,196.40834 -4.8e-4,5.03945 -2.72375,1.67975 -0.0337,-3.51162 z"
       id="path27-4-8-7-3-1"
       sodipodi:nodetypes="ccccc" />
    <path
       style="fill:#8d4b8b;fill-opacity:1;stroke:#1f1e20;stroke-width:0;stroke-linecap:round;stroke-linejoin:round;stroke-dasharray:none;stroke-opacity:1;paint-order:fill markers stroke"
       d="m 101.89562,199.61066 5.67566,-0.0327 v 3.5622 l -5.67566,0.0327 z"
       id="path28-8-3-80-9" />
  </g>
</svg>
