<?xml version="1.0" encoding="UTF-8" standalone="no"?>
<!-- Created with Inkscape (http://www.inkscape.org/) -->

<svg
   width="9.51509mm"
   height="28.799681mm"
   viewBox="0 0 9.51509 28.79968"
   version="1.1"
   id="svg1"
   inkscape:version="1.4.2 (f4327f4, 2025-05-13)"
   sodipodi:docname="CaveIce1.svg"
   xmlns:inkscape="http://www.inkscape.org/namespaces/inkscape"
   xmlns:sodipodi="http://sodipodi.sourceforge.net/DTD/sodipodi-0.dtd"
   xmlns="http://www.w3.org/2000/svg"
   xmlns:svg="http://www.w3.org/2000/svg">
  <sodipodi:namedview
     id="namedview1"
     pagecolor="#ffffff"
     bordercolor="#000000"
     borderopacity="0.25"
     inkscape:showpageshadow="2"
     inkscape:pageopacity="0.0"
     inkscape:pagecheckerboard="0"
     inkscape:deskcolor="#d1d1d1"
     inkscape:document-units="mm"
     inkscape:zoom="13.020707"
     inkscape:cx="-3.2256313"
     inkscape:cy="57.254955"
     inkscape:window-width="3840"
     inkscape:window-height="2054"
     inkscape:window-x="-11"
     inkscape:window-y="-11"
     inkscape:window-maximized="1"
     inkscape:current-layer="layer1" />
  <defs
     id="defs1" />
  <g
     inkscape:label="Ebene 1"
     inkscape:groupmode="layer"
     id="layer1"
     transform="translate(-123.03125,-189.70625)">
    <path
       id="path38-0"
       style="fill:#000000;fill-opacity:0.20405102;stroke:#1f1e20;stroke-width:0;stroke-linecap:round;stroke-linejoin:round;stroke-dasharray:none;stroke-opacity:1;paint-order:fill markers stroke"
       d="m 130.0099,218.50593 -0.52865,-0.26811 -1.53582,-2.56752 -0.0501,0.0426 -0.40411,0.26811 -0.52865,-0.19384 -0.33899,-2.315 -0.43615,0.22678 -0.52865,-0.13421 -0.48835,-2.64326 -0.77101,0.23742 -0.52865,-0.0893 -0.83952,-2.05972 4.44654,-0.54716 4.66431,0.71498 0.40411,2.84528 -0.31109,0.10444 -0.55966,-0.2087 -0.12712,-0.0539 0.26717,2.69823 -0.3421,0.0148 -0.31884,-0.11974 0.22324,1.16555 -0.24857,0.11908 -0.77463,-0.11858 0.0594,2.70317 z"
       sodipodi:nodetypes="ccccccccccccccccccccccccccc" />
    <path
       style="fill:#9bd1ff;fill-opacity:0.900975;stroke:#1f1e20;stroke-width:0;stroke-linecap:round;stroke-linejoin:round;stroke-dasharray:none;stroke-opacity:1;paint-order:fill markers stroke"
       d="m 127.89561,195.8009 0.64585,1.1437 0.49472,0.19789 0.3518,-0.37379 0.96414,-0.78123 0.0622,-5.90808 -0.40424,-0.37314 -0.52861,0.55971 z"
       id="path38" />
    <path
       style="fill:#82afd5;fill-opacity:0.900975;stroke:#1f1e20;stroke-width:0;stroke-linecap:round;stroke-linejoin:round;stroke-dasharray:none;stroke-opacity:1;paint-order:fill markers stroke"
       d="m 128.54146,196.9446 0.67641,-1.89519 0.26385,-3.14422 0.42876,-1.4072 0.0996,-0.79173 -0.52861,0.55971 -1.58585,5.53493 z"
       id="path39" />
    <path
       style="fill:#a3d5ff;fill-opacity:0.900975;stroke:#1f1e20;stroke-width:0;stroke-linecap:round;stroke-linejoin:round;stroke-dasharray:none;stroke-opacity:1;paint-order:fill markers stroke"
       d="m 126.58962,200.69837 0.37313,-5.31726 0.52862,-0.40424 0.40424,0.55972 0.64585,1.1437 0.49472,0.19789 0.3518,-0.37379 0.96414,-0.78123 0.77737,-0.24876 0.24876,0.24876 -0.27985,3.04731 -0.23726,0.81217 -1.38521,1.22581 -1.40171,0.37928 z"
       id="path37" />
    <path
       style="fill:#83b0d5;fill-opacity:0.900975;stroke:#1f1e20;stroke-width:0;stroke-linecap:round;stroke-linejoin:round;stroke-dasharray:none;stroke-opacity:1;paint-order:fill markers stroke"
       d="m 126.58961,200.71371 1.48461,0.47402 -0.27454,-1.85662 0.3518,-1.1288 0.38998,-1.25771 -0.46058,-0.87489 -0.58951,-0.8981 -0.52862,0.39156 -0.37314,5.15054"
       id="path40"
       sodipodi:nodetypes="ccccccccc" />
    <path
       style="fill:#9cccf4;fill-opacity:0.900975;stroke:#1f1e20;stroke-width:0;stroke-linecap:round;stroke-linejoin:round;stroke-dasharray:none;stroke-opacity:1;paint-order:fill markers stroke"
       d="m 125.13017,205.99045 2.08684,0.10551 2.15477,-0.32982 2.16397,-1.92125 0.27986,-5.90806 -0.34205,-0.0311 -0.43533,0.34204 -0.23726,0.81217 -1.38521,1.22581 -1.40171,0.37928 -1.0499,-0.26385 -0.4347,-0.22551 -0.34205,-0.43533 -0.52862,0.27985 z"
       id="path36" />
    <path
       style="fill:#739abb;fill-opacity:0.488372;stroke:#1f1e20;stroke-width:0;stroke-linecap:round;stroke-linejoin:round;stroke-dasharray:none;stroke-opacity:1;paint-order:fill markers stroke"
       d="m 126.1874,199.74034 -0.52862,0.27985 -0.52861,5.97026 2.08684,0.10551 1.07738,-0.16491 0.31096,-0.67303 -0.68161,-1.0609 -0.10994,-0.98394 0.31882,-1.28627 -0.39028,-0.65963 0.44525,-0.64313 -0.17354,0.0409 -1.0499,-0.26385 -0.4347,-0.22551 z"
       id="path41" />
    <path
       style="fill:#9dd2ff;fill-opacity:0.952738;stroke:#1f1e20;stroke-width:0;stroke-linecap:round;stroke-linejoin:round;stroke-dasharray:none;stroke-opacity:1;paint-order:fill markers stroke"
       d="m 128.18759,200.62415 -0.73658,0.088 -0.81354,-0.48373 -0.45007,-0.48808 -0.52862,0.2799 0.56642,0.61495 0.81904,0.52771 0.6981,0.10443 1.73359,-0.45883 1.38521,-1.22581 0.23726,-0.81217 0.0162,-0.31414 0.70101,-0.51955 -0.34204,-0.0311 -0.43534,0.34209 -0.23726,0.81217 -1.38521,1.22581 z"
       id="path42"
       sodipodi:nodetypes="cccccccccccccccccc" />
    <path
       style="fill:#93c1e7;fill-opacity:0.900975;stroke:#1f1e20;stroke-width:0;stroke-linecap:round;stroke-linejoin:round;stroke-dasharray:none;stroke-opacity:1;paint-order:fill markers stroke"
       d="m 131.67568,203.4562 -2.16397,1.92125 -2.15478,0.32982 -2.08683,-0.10551 -0.87067,-0.55972 -0.52861,0.18657 -0.83957,4.38441 4.44659,1.05724 4.66426,-1.49256 0.40424,-5.93916 -0.31095,-0.21767 z"
       id="path35" />
    <path
       style="fill:#9ccdf6;fill-opacity:0.976744;stroke:#1f1e20;stroke-width:0;stroke-linecap:round;stroke-linejoin:round;stroke-dasharray:none;stroke-opacity:1;paint-order:fill markers stroke"
       d="m 123.87082,205.22861 0.52861,-0.18657 0.87067,0.55972 2.08683,0.10551 2.15478,-0.32982 2.16397,-1.92125 0.55971,-0.43533 0.31095,0.21767 -1.58839,1.28628 -0.3537,0.76183 -1.18162,0.60247 -1.96676,0.17879 -2.3257,-0.0775 z"
       id="path43" />
    <path
       style="fill:#7599b7;fill-opacity:0.803451;stroke:#1f1e20;stroke-width:0;stroke-linecap:round;stroke-linejoin:round;stroke-dasharray:none;stroke-opacity:1;paint-order:fill markers stroke"
       d="m 123.87082,205.22861 1.25935,0.76184 2.3257,0.0775 -0.39514,1.04806 0.42875,1.02792 0.1869,1.30276 -0.19854,1.22361 -4.44659,-1.05724 z"
       id="path44" />
  </g>
</svg>
