<?xml version="1.0" encoding="UTF-8" standalone="no"?>
<!-- Created with Inkscape (http://www.inkscape.org/) -->

<svg
   width="21.051569mm"
   height="41.559669mm"
   viewBox="0 0 21.051569 41.559671"
   version="1.1"
   id="svg1"
   inkscape:version="1.4.2 (f4327f4, 2025-05-13)"
   sodipodi:docname="CaveColumnar2.svg"
   xmlns:inkscape="http://www.inkscape.org/namespaces/inkscape"
   xmlns:sodipodi="http://sodipodi.sourceforge.net/DTD/sodipodi-0.dtd"
   xmlns="http://www.w3.org/2000/svg"
   xmlns:svg="http://www.w3.org/2000/svg">
  <sodipodi:namedview
     id="namedview1"
     pagecolor="#ffffff"
     bordercolor="#000000"
     borderopacity="0.25"
     inkscape:showpageshadow="2"
     inkscape:pageopacity="0.0"
     inkscape:pagecheckerboard="0"
     inkscape:deskcolor="#d1d1d1"
     inkscape:document-units="mm"
     inkscape:zoom="9.2070303"
     inkscape:cx="42.14171"
     inkscape:cy="98.783209"
     inkscape:window-width="3840"
     inkscape:window-height="2054"
     inkscape:window-x="-11"
     inkscape:window-y="-11"
     inkscape:window-maximized="1"
     inkscape:current-layer="layer1" />
  <defs
     id="defs1" />
  <g
     inkscape:label="Ebene 1"
     inkscape:groupmode="layer"
     id="layer1"
     transform="translate(-89.200802,-173.82929)">
    <path
       id="path26-9-81-8"
       style="fill:#000000;fill-opacity:0.504876;stroke:#1f1e20;stroke-width:0;stroke-linecap:round;stroke-linejoin:round;paint-order:fill markers stroke"
       d="m 98.533819,215.38887 c -0.644245,0.001 -1.296566,-0.007 -1.470194,-0.008 -0.525839,-0.005 -3.896787,-0.0213 -4.37441,-0.10067 -0.315415,-0.0524 -1.375378,-0.77297 -1.542025,-0.8828 -0.252346,-0.16633 -1.897075,-1.22691 -1.945099,-1.4157 -8.3e-4,-0.004 -8.2e-4,-0.007 0,-0.0111 v -6.53411 -3e-4 c -8.3e-4,-0.003 -8.2e-4,-0.007 0,-0.0106 v -0.0636 l 0.174149,-0.10308 0.001,-5.8e-4 c 0.334039,-0.24436 1.040011,-0.63892 1.175122,-0.71645 0.118382,-0.0679 0.508519,-0.29592 0.948262,-0.54132 0.0022,-0.001 0.0045,-0.002 0.0067,-0.004 l 0.202572,-0.12026 c -0.419712,-0.21978 -1.2921,-0.68306 -1.322917,-0.77972 -6.47e-4,-0.002 -6.37e-4,-0.005 0,-0.007 v -4.07256 c -6.47e-4,-0.002 -6.37e-4,-0.004 0,-0.007 v -0.0398 l 0.136426,-0.0645 c 0.260846,-0.15229 0.812743,-0.39805 0.91829,-0.44637 0.09244,-0.0423 0.39716,-0.18436 0.740522,-0.33727 l 1.15652,-0.54675 5.520077,0.038 v 0.005 l 0.147278,0.0714 2.661848,-0.87739 5.67562,0.019 v 0.008 l 2.72335,0.97956 v 0.89095 c 9e-5,2.9e-4 4.4e-4,5.9e-4 5.2e-4,0.001 6.7e-4,0.002 2e-4,0.006 -5.2e-4,0.009 l 5.2e-4,1.98715 c 6.2e-4,0.002 5.7e-4,0.005 0,0.008 v 0.0434 l -0.0181,-0.0124 c -0.0716,0.0867 -0.34071,0.26194 -0.58911,0.41443 0.0231,0.0153 0.0462,0.0304 0.0692,0.0458 l 0.72243,0.46687 v 0.0904 c 6.4e-4,0.002 6.3e-4,0.005 0,0.008 l 5.2e-4,5.11059 c 0,1.9e-4 0,4e-4 0,5.8e-4 v 0.0699 l -0.0326,-0.0193 c -0.16392,0.16935 -0.89911,0.59264 -1.02267,0.6658 -0.21361,0.12647 -1.56151,0.94144 -1.89704,1.02688 -0.22159,0.0564 -1.98807,0.0336 -2.2593,0.0313 -0.1673,-0.001 -0.70353,-0.005 -1.30534,-0.0118 l 5.1e-4,3.46191 c 1e-5,3.1e-4 1e-5,0.001 0,0.001 v 0.0892 l -0.0413,-0.0247 c -0.20988,0.21683 -1.15128,0.759 -1.30948,0.85266 -0.27349,0.16193 -1.99971,1.20534 -2.429301,1.31471 -0.14185,0.0361 -0.777896,0.0469 -1.422142,0.0482 z" />
    <path
       sodipodi:type="star"
       style="fill:#6270ce;fill-opacity:1;stroke:#1f1e20;stroke-width:0;stroke-linecap:round;stroke-linejoin:round;stroke-dasharray:none;stroke-opacity:1;paint-order:fill markers stroke"
       id="path26-3-1"
       inkscape:flatsided="false"
       sodipodi:sides="6"
       sodipodi:cx="11.442985"
       sodipodi:cy="7.4006262"
       sodipodi:r1="7.3865809"
       sodipodi:r2="8.2404566"
       sodipodi:arg1="0.61502305"
       sodipodi:arg2="1.0239934"
       inkscape:rounded="0.12"
       inkscape:randomized="2.7755576e-17"
       d="m 17.47605,11.662516 c -0.188926,0.345509 -1.390782,2.612102 -1.748366,2.777036 -0.541478,0.249754 -4.362931,0.302966 -4.959072,0.316807 -0.393682,0.0091 -2.9575376,0.101599 -3.2791662,-0.125611 C 7.0024135,14.28669 5.0456039,11.003822 4.7355472,10.494469 4.5307905,10.1581 3.168791,7.9839655 3.2047464,7.5918218 3.2591925,6.9980109 5.1238353,3.6619298 5.4099196,3.1387363 5.5988454,2.7932273 6.8007011,0.52663396 7.1582852,0.36170043 7.6997636,0.11194672 11.521216,0.0587342 12.117357,0.04489373 c 0.393682,-0.00914 2.957538,-0.10159905 3.279166,0.12561105 0.487033,0.34405718 2.443842,3.62692572 2.753899,4.13627882 0.204757,0.336369 1.566756,2.5105033 1.530801,2.9026469 -0.05445,0.5938109 -1.919089,3.9298925 -2.205173,4.4530855 z"
       transform="matrix(0.88207205,0,0,0.54507434,86.374601,173.81914)" />
    <path
       sodipodi:type="star"
       style="fill:#d2d9e9;fill-opacity:1;stroke:#1f1e20;stroke-width:0;stroke-linecap:round;stroke-linejoin:round;stroke-dasharray:none;stroke-opacity:1;paint-order:fill markers stroke"
       id="path26-8-5-4"
       inkscape:flatsided="false"
       sodipodi:sides="6"
       sodipodi:cx="11.442985"
       sodipodi:cy="7.4006262"
       sodipodi:r1="7.3865809"
       sodipodi:r2="8.2404566"
       sodipodi:arg1="0.61502305"
       sodipodi:arg2="1.0239934"
       inkscape:rounded="0.12"
       inkscape:randomized="2.7755576e-17"
       d="m 17.47605,11.662516 c -0.188926,0.345509 -1.390782,2.612102 -1.748366,2.777036 -0.541478,0.249754 -4.362931,0.302966 -4.959072,0.316807 -0.393682,0.0091 -2.9575376,0.101599 -3.2791662,-0.125611 C 7.0024135,14.28669 5.0456039,11.003822 4.7355472,10.494469 4.5307905,10.1581 3.168791,7.9839655 3.2047464,7.5918218 3.2591925,6.9980109 5.1238353,3.6619298 5.4099196,3.1387363 5.5988454,2.7932273 6.8007011,0.52663396 7.1582852,0.36170043 7.6997636,0.11194672 11.521216,0.0587342 12.117357,0.04489373 c 0.393682,-0.00914 2.957538,-0.10159905 3.279166,0.12561105 0.487033,0.34405718 2.443842,3.62692572 2.753899,4.13627882 0.204757,0.336369 1.566756,2.5105033 1.530801,2.9026469 -0.05445,0.5938109 -1.919089,3.9298925 -2.205173,4.4530855 z"
       transform="matrix(0.55487734,0,0,0.34288513,90.118684,175.31546)" />
    <path
       sodipodi:type="star"
       style="fill:#6270ce;fill-opacity:1;stroke:#1f1e20;stroke-width:0;stroke-linecap:round;stroke-linejoin:round;stroke-dasharray:none;stroke-opacity:1;paint-order:fill markers stroke"
       id="path26-8-0-1-3"
       inkscape:flatsided="false"
       sodipodi:sides="6"
       sodipodi:cx="11.442985"
       sodipodi:cy="7.4006262"
       sodipodi:r1="7.3865809"
       sodipodi:r2="8.2404566"
       sodipodi:arg1="0.61502305"
       sodipodi:arg2="1.0239934"
       inkscape:rounded="0.12"
       inkscape:randomized="2.7755576e-17"
       d="m 17.47605,11.662516 c -0.188926,0.345509 -1.390782,2.612102 -1.748366,2.777036 -0.541478,0.249754 -4.362931,0.302966 -4.959072,0.316807 -0.393682,0.0091 -2.9575376,0.101599 -3.2791662,-0.125611 C 7.0024135,14.28669 5.0456039,11.003822 4.7355472,10.494469 4.5307905,10.1581 3.168791,7.9839655 3.2047464,7.5918218 3.2591925,6.9980109 5.1238353,3.6619298 5.4099196,3.1387363 5.5988454,2.7932273 6.8007011,0.52663396 7.1582852,0.36170043 7.6997636,0.11194672 11.521216,0.0587342 12.117357,0.04489373 c 0.393682,-0.00914 2.957538,-0.10159905 3.279166,0.12561105 0.487033,0.34405718 2.443842,3.62692572 2.753899,4.13627882 0.204757,0.336369 1.566756,2.5105033 1.530801,2.9026469 -0.05445,0.5938109 -1.919089,3.9298925 -2.205173,4.4530855 z"
       transform="matrix(0.16633364,0,0,0.10278548,94.564785,177.09235)" />
    <path
       style="fill:#4b569e;fill-opacity:1;stroke:#1f1e20;stroke-width:0;stroke-linecap:round;stroke-linejoin:round;stroke-dasharray:none;stroke-opacity:1;paint-order:fill markers stroke"
       d="m 89.201418,177.95724 v 11.3497 l 3.977301,3.96867 -0.197888,-11.48163 z"
       id="path27-9"
       sodipodi:nodetypes="ccccc" />
    <path
       style="fill:#6d7ce4;fill-opacity:1;stroke:#1f1e20;stroke-width:0;stroke-linecap:round;stroke-linejoin:round;stroke-dasharray:none;stroke-opacity:1;paint-order:fill markers stroke"
       d="m 103.73547,177.58576 -6.1e-4,11.59039 -3.48731,3.86331 -0.23321,-11.10093 z"
       id="path27-4-8"
       sodipodi:nodetypes="ccccc" />
    <path
       style="fill:#5a67bd;fill-opacity:1;stroke:#1f1e20;stroke-width:0;stroke-linecap:round;stroke-linejoin:round;stroke-dasharray:none;stroke-opacity:1;paint-order:fill markers stroke"
       d="m 92.980831,181.79398 7.266719,-0.10421 v 11.34969 l -7.266719,0.10422 z"
       id="path28-8" />
    <path
       sodipodi:type="star"
       style="fill:#6270ce;fill-opacity:1;stroke:#1f1e20;stroke-width:0;stroke-linecap:round;stroke-linejoin:round;stroke-dasharray:none;stroke-opacity:1;paint-order:fill markers stroke"
       id="path26-3-1-3"
       inkscape:flatsided="false"
       sodipodi:sides="6"
       sodipodi:cx="11.442985"
       sodipodi:cy="7.4006262"
       sodipodi:r1="7.3865809"
       sodipodi:r2="8.2404566"
       sodipodi:arg1="0.61502305"
       sodipodi:arg2="1.0239934"
       inkscape:rounded="0.12"
       inkscape:randomized="2.7755576e-17"
       d="m 17.47605,11.662516 c -0.188926,0.345509 -1.390782,2.612102 -1.748366,2.777036 -0.541478,0.249754 -4.362931,0.302966 -4.959072,0.316807 -0.393682,0.0091 -2.9575376,0.101599 -3.2791662,-0.125611 C 7.0024135,14.28669 5.0456039,11.003822 4.7355472,10.494469 4.5307905,10.1581 3.168791,7.9839655 3.2047464,7.5918218 3.2591925,6.9980109 5.1238353,3.6619298 5.4099196,3.1387363 5.5988454,2.7932273 6.8007011,0.52663396 7.1582852,0.36170043 7.6997636,0.11194672 11.521216,0.0587342 12.117357,0.04489373 c 0.393682,-0.00914 2.957538,-0.10159905 3.279166,0.12561105 0.487033,0.34405718 2.443842,3.62692572 2.753899,4.13627882 0.204757,0.336369 1.566756,2.5105033 1.530801,2.9026469 -0.05445,0.5938109 -1.919089,3.9298925 -2.205173,4.4530855 z"
       transform="matrix(0.68894048,0,0,0.42572914,96.692181,183.63738)" />
    <path
       sodipodi:type="star"
       style="fill:#d2d9e9;fill-opacity:1;stroke:#1f1e20;stroke-width:0;stroke-linecap:round;stroke-linejoin:round;stroke-dasharray:none;stroke-opacity:1;paint-order:fill markers stroke"
       id="path26-8-5-4-7"
       inkscape:flatsided="false"
       sodipodi:sides="6"
       sodipodi:cx="11.442985"
       sodipodi:cy="7.4006262"
       sodipodi:r1="7.3865809"
       sodipodi:r2="8.2404566"
       sodipodi:arg1="0.61502305"
       sodipodi:arg2="1.0239934"
       inkscape:rounded="0.12"
       inkscape:randomized="2.7755576e-17"
       d="m 17.47605,11.662516 c -0.188926,0.345509 -1.390782,2.612102 -1.748366,2.777036 -0.541478,0.249754 -4.362931,0.302966 -4.959072,0.316807 -0.393682,0.0091 -2.9575376,0.101599 -3.2791662,-0.125611 C 7.0024135,14.28669 5.0456039,11.003822 4.7355472,10.494469 4.5307905,10.1581 3.168791,7.9839655 3.2047464,7.5918218 3.2591925,6.9980109 5.1238353,3.6619298 5.4099196,3.1387363 5.5988454,2.7932273 6.8007011,0.52663396 7.1582852,0.36170043 7.6997636,0.11194672 11.521216,0.0587342 12.117357,0.04489373 c 0.393682,-0.00914 2.957538,-0.10159905 3.279166,0.12561105 0.487033,0.34405718 2.443842,3.62692572 2.753899,4.13627882 0.204757,0.336369 1.566756,2.5105033 1.530801,2.9026469 -0.05445,0.5938109 -1.919089,3.9298925 -2.205173,4.4530855 z"
       transform="matrix(0.43338575,0,0,0.26780969,99.61649,184.80608)" />
    <path
       sodipodi:type="star"
       style="fill:#6270ce;fill-opacity:1;stroke:#1f1e20;stroke-width:0;stroke-linecap:round;stroke-linejoin:round;stroke-dasharray:none;stroke-opacity:1;paint-order:fill markers stroke"
       id="path26-8-0-1-3-1"
       inkscape:flatsided="false"
       sodipodi:sides="6"
       sodipodi:cx="11.442985"
       sodipodi:cy="7.4006262"
       sodipodi:r1="7.3865809"
       sodipodi:r2="8.2404566"
       sodipodi:arg1="0.61502305"
       sodipodi:arg2="1.0239934"
       inkscape:rounded="0.12"
       inkscape:randomized="2.7755576e-17"
       d="m 17.47605,11.662516 c -0.188926,0.345509 -1.390782,2.612102 -1.748366,2.777036 -0.541478,0.249754 -4.362931,0.302966 -4.959072,0.316807 -0.393682,0.0091 -2.9575376,0.101599 -3.2791662,-0.125611 C 7.0024135,14.28669 5.0456039,11.003822 4.7355472,10.494469 4.5307905,10.1581 3.168791,7.9839655 3.2047464,7.5918218 3.2591925,6.9980109 5.1238353,3.6619298 5.4099196,3.1387363 5.5988454,2.7932273 6.8007011,0.52663396 7.1582852,0.36170043 7.6997636,0.11194672 11.521216,0.0587342 12.117357,0.04489373 c 0.393682,-0.00914 2.957538,-0.10159905 3.279166,0.12561105 0.487033,0.34405718 2.443842,3.62692572 2.753899,4.13627882 0.204757,0.336369 1.566756,2.5105033 1.530801,2.9026469 -0.05445,0.5938109 -1.919089,3.9298925 -2.205173,4.4530855 z"
       transform="matrix(0.12991454,0,0,0.08028038,103.0891,186.19392)" />
    <path
       style="fill:#4b569e;fill-opacity:1;stroke:#1f1e20;stroke-width:0;stroke-linecap:round;stroke-linejoin:round;stroke-dasharray:none;stroke-opacity:1;paint-order:fill markers stroke"
       d="m 98.90006,186.86944 v 8.86466 l 2.9519,2.99667 v -8.86465 z"
       id="path27-9-0" />
    <path
       style="fill:#6d7ce4;fill-opacity:1;stroke:#1f1e20;stroke-width:0;stroke-linecap:round;stroke-linejoin:round;stroke-dasharray:none;stroke-opacity:1;paint-order:fill markers stroke"
       d="m 110.25185,186.5793 -4.8e-4,9.05265 -2.72375,3.01743 v -8.86466 z"
       id="path27-4-8-7"
       sodipodi:nodetypes="ccccc" />
    <path
       style="fill:#5a67bd;fill-opacity:1;stroke:#1f1e20;stroke-width:0;stroke-linecap:round;stroke-linejoin:round;stroke-dasharray:none;stroke-opacity:1;paint-order:fill markers stroke"
       d="m 101.85196,189.86612 5.67566,-0.0814 v 8.86465 l -5.67566,0.0814 z"
       id="path28-8-3" />
    <path
       sodipodi:type="star"
       style="fill:#d2d9e9;fill-opacity:1;stroke:#1f1e20;stroke-width:0;stroke-linecap:round;stroke-linejoin:round;stroke-dasharray:none;stroke-opacity:1;paint-order:fill markers stroke"
       id="path26-3-1-3-9"
       inkscape:flatsided="false"
       sodipodi:sides="6"
       sodipodi:cx="11.442985"
       sodipodi:cy="7.4006262"
       sodipodi:r1="7.3865809"
       sodipodi:r2="8.2404566"
       sodipodi:arg1="0.61502305"
       sodipodi:arg2="1.0239934"
       inkscape:rounded="0.12"
       inkscape:randomized="2.7755576e-17"
       d="m 17.47605,11.662516 c -0.188926,0.345509 -1.390782,2.612102 -1.748366,2.777036 -0.541478,0.249754 -4.362931,0.302966 -4.959072,0.316807 -0.393682,0.0091 -2.9575376,0.101599 -3.2791662,-0.125611 C 7.0024135,14.28669 5.0456039,11.003822 4.7355472,10.494469 4.5307905,10.1581 3.168791,7.9839655 3.2047464,7.5918218 3.2591925,6.9980109 5.1238353,3.6619298 5.4099196,3.1387363 5.5988454,2.7932273 6.8007011,0.52663396 7.1582852,0.36170043 7.6997636,0.11194672 11.521216,0.0587342 12.117357,0.04489373 c 0.393682,-0.00914 2.957538,-0.10159905 3.279166,0.12561105 0.487033,0.34405718 2.443842,3.62692572 2.753899,4.13627882 0.204757,0.336369 1.566756,2.5105033 1.530801,2.9026469 -0.05445,0.5938109 -1.919089,3.9298925 -2.205173,4.4530855 z"
       transform="matrix(0.68894048,0,0,0.33973039,88.178535,190.61108)" />
    <path
       sodipodi:type="star"
       style="fill:#6270ce;fill-opacity:1;stroke:#1f1e20;stroke-width:0;stroke-linecap:round;stroke-linejoin:round;stroke-dasharray:none;stroke-opacity:1;paint-order:fill markers stroke"
       id="path26-8-5-4-7-6"
       inkscape:flatsided="false"
       sodipodi:sides="6"
       sodipodi:cx="11.442985"
       sodipodi:cy="7.4006262"
       sodipodi:r1="7.3865809"
       sodipodi:r2="8.2404566"
       sodipodi:arg1="0.61502305"
       sodipodi:arg2="1.0239934"
       inkscape:rounded="0.12"
       inkscape:randomized="2.7755576e-17"
       d="m 17.47605,11.662516 c -0.188926,0.345509 -1.390782,2.612102 -1.748366,2.777036 -0.541478,0.249754 -4.362931,0.302966 -4.959072,0.316807 -0.393682,0.0091 -2.9575376,0.101599 -3.2791662,-0.125611 C 7.0024135,14.28669 5.0456039,11.003822 4.7355472,10.494469 4.5307905,10.1581 3.168791,7.9839655 3.2047464,7.5918218 3.2591925,6.9980109 5.1238353,3.6619298 5.4099196,3.1387363 5.5988454,2.7932273 6.8007011,0.52663396 7.1582852,0.36170043 7.6997636,0.11194672 11.521216,0.0587342 12.117357,0.04489373 c 0.393682,-0.00914 2.957538,-0.10159905 3.279166,0.12561105 0.487033,0.34405718 2.443842,3.62692572 2.753899,4.13627882 0.204757,0.336369 1.566756,2.5105033 1.530801,2.9026469 -0.05445,0.5938109 -1.919089,3.9298925 -2.205173,4.4530855 z"
       transform="matrix(0.43338575,0,0,0.21371121,91.102843,191.5437)" />
    <path
       sodipodi:type="star"
       style="fill:#d2d9e9;fill-opacity:1;stroke:#1f1e20;stroke-width:0;stroke-linecap:round;stroke-linejoin:round;stroke-dasharray:none;stroke-opacity:1;paint-order:fill markers stroke"
       id="path26-8-0-1-3-1-8"
       inkscape:flatsided="false"
       sodipodi:sides="6"
       sodipodi:cx="11.442985"
       sodipodi:cy="7.4006262"
       sodipodi:r1="7.3865809"
       sodipodi:r2="8.2404566"
       sodipodi:arg1="0.61502305"
       sodipodi:arg2="1.0239934"
       inkscape:rounded="0.12"
       inkscape:randomized="2.7755576e-17"
       d="m 17.47605,11.662516 c -0.188926,0.345509 -1.390782,2.612102 -1.748366,2.777036 -0.541478,0.249754 -4.362931,0.302966 -4.959072,0.316807 -0.393682,0.0091 -2.9575376,0.101599 -3.2791662,-0.125611 C 7.0024135,14.28669 5.0456039,11.003822 4.7355472,10.494469 4.5307905,10.1581 3.168791,7.9839655 3.2047464,7.5918218 3.2591925,6.9980109 5.1238353,3.6619298 5.4099196,3.1387363 5.5988454,2.7932273 6.8007011,0.52663396 7.1582852,0.36170043 7.6997636,0.11194672 11.521216,0.0587342 12.117357,0.04489373 c 0.393682,-0.00914 2.957538,-0.10159905 3.279166,0.12561105 0.487033,0.34405718 2.443842,3.62692572 2.753899,4.13627882 0.204757,0.336369 1.566756,2.5105033 1.530801,2.9026469 -0.05445,0.5938109 -1.919089,3.9298925 -2.205173,4.4530855 z"
       transform="matrix(0.12991454,0,0,0.06406347,94.575461,192.65118)" />
    <path
       style="fill:#9196a1;fill-opacity:1;stroke:#1f1e20;stroke-width:0;stroke-linecap:round;stroke-linejoin:round;stroke-dasharray:none;stroke-opacity:1;paint-order:fill markers stroke"
       d="m 90.386414,193.19025 v 7.07397 l 2.951903,2.39133 v -7.07396 z"
       id="path27-9-0-3" />
    <path
       style="fill:#e1e9fa;fill-opacity:1;stroke:#1f1e20;stroke-width:0;stroke-linecap:round;stroke-linejoin:round;stroke-dasharray:none;stroke-opacity:1;paint-order:fill markers stroke"
       d="m 101.73821,192.95872 -4.9e-4,7.22398 -2.879223,2.40012 -0.03332,-7.03007 z"
       id="path27-4-8-7-4"
       sodipodi:nodetypes="ccccc" />
    <path
       style="fill:#b9bfcd;fill-opacity:1;stroke:#1f1e20;stroke-width:0;stroke-linecap:round;stroke-linejoin:round;stroke-dasharray:none;stroke-opacity:1;paint-order:fill markers stroke"
       d="m 93.338317,195.58159 5.52018,-0.065 v 7.07396 l -5.52018,0.065 z"
       id="path28-8-3-8" />
    <path
       sodipodi:type="star"
       style="fill:#6270ce;fill-opacity:1;stroke:#1f1e20;stroke-width:0;stroke-linecap:round;stroke-linejoin:round;stroke-dasharray:none;stroke-opacity:1;paint-order:fill markers stroke"
       id="path26-3-1-3-3"
       inkscape:flatsided="false"
       sodipodi:sides="6"
       sodipodi:cx="11.442985"
       sodipodi:cy="7.4006262"
       sodipodi:r1="7.3865809"
       sodipodi:r2="8.2404566"
       sodipodi:arg1="0.61502305"
       sodipodi:arg2="1.0239934"
       inkscape:rounded="0.12"
       inkscape:randomized="2.7755576e-17"
       d="m 17.47605,11.662516 c -0.188926,0.345509 -1.390782,2.612102 -1.748366,2.777036 -0.541478,0.249754 -4.362931,0.302966 -4.959072,0.316807 -0.393682,0.0091 -2.9575376,0.101599 -3.2791662,-0.125611 C 7.0024135,14.28669 5.0456039,11.003822 4.7355472,10.494469 4.5307905,10.1581 3.168791,7.9839655 3.2047464,7.5918218 3.2591925,6.9980109 5.1238353,3.6619298 5.4099196,3.1387363 5.5988454,2.7932273 6.8007011,0.52663396 7.1582852,0.36170043 7.6997636,0.11194672 11.521216,0.0587342 12.117357,0.04489373 c 0.393682,-0.00914 2.957538,-0.10159905 3.279166,0.12561105 0.487033,0.34405718 2.443842,3.62692572 2.753899,4.13627882 0.204757,0.336369 1.566756,2.5105033 1.530801,2.9026469 -0.05445,0.5938109 -1.919089,3.9298925 -2.205173,4.4530855 z"
       transform="matrix(0.68894048,0,0,0.42572914,96.507481,194.21961)" />
    <path
       sodipodi:type="star"
       style="fill:#d2d9e9;fill-opacity:1;stroke:#1f1e20;stroke-width:0;stroke-linecap:round;stroke-linejoin:round;stroke-dasharray:none;stroke-opacity:1;paint-order:fill markers stroke"
       id="path26-8-5-4-7-3"
       inkscape:flatsided="false"
       sodipodi:sides="6"
       sodipodi:cx="11.442985"
       sodipodi:cy="7.4006262"
       sodipodi:r1="7.3865809"
       sodipodi:r2="8.2404566"
       sodipodi:arg1="0.61502305"
       sodipodi:arg2="1.0239934"
       inkscape:rounded="0.12"
       inkscape:randomized="2.7755576e-17"
       d="m 17.47605,11.662516 c -0.188926,0.345509 -1.390782,2.612102 -1.748366,2.777036 -0.541478,0.249754 -4.362931,0.302966 -4.959072,0.316807 -0.393682,0.0091 -2.9575376,0.101599 -3.2791662,-0.125611 C 7.0024135,14.28669 5.0456039,11.003822 4.7355472,10.494469 4.5307905,10.1581 3.168791,7.9839655 3.2047464,7.5918218 3.2591925,6.9980109 5.1238353,3.6619298 5.4099196,3.1387363 5.5988454,2.7932273 6.8007011,0.52663396 7.1582852,0.36170043 7.6997636,0.11194672 11.521216,0.0587342 12.117357,0.04489373 c 0.393682,-0.00914 2.957538,-0.10159905 3.279166,0.12561105 0.487033,0.34405718 2.443842,3.62692572 2.753899,4.13627882 0.204757,0.336369 1.566756,2.5105033 1.530801,2.9026469 -0.05445,0.5938109 -1.919089,3.9298925 -2.205173,4.4530855 z"
       transform="matrix(0.43338575,0,0,0.26780969,99.431789,195.38832)" />
    <path
       sodipodi:type="star"
       style="fill:#6270ce;fill-opacity:1;stroke:#1f1e20;stroke-width:0;stroke-linecap:round;stroke-linejoin:round;stroke-dasharray:none;stroke-opacity:1;paint-order:fill markers stroke"
       id="path26-8-0-1-3-1-7"
       inkscape:flatsided="false"
       sodipodi:sides="6"
       sodipodi:cx="11.442985"
       sodipodi:cy="7.4006262"
       sodipodi:r1="7.3865809"
       sodipodi:r2="8.2404566"
       sodipodi:arg1="0.61502305"
       sodipodi:arg2="1.0239934"
       inkscape:rounded="0.12"
       inkscape:randomized="2.7755576e-17"
       d="m 17.47605,11.662516 c -0.188926,0.345509 -1.390782,2.612102 -1.748366,2.777036 -0.541478,0.249754 -4.362931,0.302966 -4.959072,0.316807 -0.393682,0.0091 -2.9575376,0.101599 -3.2791662,-0.125611 C 7.0024135,14.28669 5.0456039,11.003822 4.7355472,10.494469 4.5307905,10.1581 3.168791,7.9839655 3.2047464,7.5918218 3.2591925,6.9980109 5.1238353,3.6619298 5.4099196,3.1387363 5.5988454,2.7932273 6.8007011,0.52663396 7.1582852,0.36170043 7.6997636,0.11194672 11.521216,0.0587342 12.117357,0.04489373 c 0.393682,-0.00914 2.957538,-0.10159905 3.279166,0.12561105 0.487033,0.34405718 2.443842,3.62692572 2.753899,4.13627882 0.204757,0.336369 1.566756,2.5105033 1.530801,2.9026469 -0.05445,0.5938109 -1.919089,3.9298925 -2.205173,4.4530855 z"
       transform="matrix(0.12991454,0,0,0.08028038,102.9044,196.77615)" />
    <path
       style="fill:#4b569e;fill-opacity:1;stroke:#1f1e20;stroke-width:0;stroke-linecap:round;stroke-linejoin:round;stroke-dasharray:none;stroke-opacity:1;paint-order:fill markers stroke"
       d="m 98.71536,197.36164 0.143137,5.22118 2.808763,1.99749 v -4.13196 z"
       id="path27-9-0-4"
       sodipodi:nodetypes="ccccc" />
    <path
       style="fill:#6d7ce4;fill-opacity:1;stroke:#1f1e20;stroke-width:0;stroke-linecap:round;stroke-linejoin:round;stroke-dasharray:none;stroke-opacity:1;paint-order:fill markers stroke"
       d="m 110.06715,197.20012 -4.8e-4,5.03947 -2.72375,2.33938 -0.0337,-4.17126 z"
       id="path27-4-8-7-3"
       sodipodi:nodetypes="ccccc" />
    <path
       style="fill:#5a67bd;fill-opacity:1;stroke:#1f1e20;stroke-width:0;stroke-linecap:round;stroke-linejoin:round;stroke-dasharray:none;stroke-opacity:1;paint-order:fill markers stroke"
       d="m 101.66726,200.40246 5.67566,-0.0327 v 4.19984 l -5.67566,0.0107 z"
       id="path28-8-3-80"
       sodipodi:nodetypes="ccccc" />
  </g>
</svg>
