<?xml version="1.0" encoding="UTF-8" standalone="no"?>
<!-- Created with Inkscape (http://www.inkscape.org/) -->

<svg
   width="9.5153599mm"
   height="18.324409mm"
   viewBox="0 0 9.5153599 18.32441"
   version="1.1"
   id="svg1"
   inkscape:version="1.4.2 (f4327f4, 2025-05-13)"
   sodipodi:docname="CaveIce2.svg"
   xmlns:inkscape="http://www.inkscape.org/namespaces/inkscape"
   xmlns:sodipodi="http://sodipodi.sourceforge.net/DTD/sodipodi-0.dtd"
   xmlns="http://www.w3.org/2000/svg"
   xmlns:svg="http://www.w3.org/2000/svg">
  <sodipodi:namedview
     id="namedview1"
     pagecolor="#ffffff"
     bordercolor="#000000"
     borderopacity="0.25"
     inkscape:showpageshadow="2"
     inkscape:pageopacity="0.0"
     inkscape:pagecheckerboard="0"
     inkscape:deskcolor="#d1d1d1"
     inkscape:document-units="mm"
     inkscape:zoom="9.2070303"
     inkscape:cx="20.093341"
     inkscape:cy="60.660167"
     inkscape:window-width="3840"
     inkscape:window-height="2054"
     inkscape:window-x="-11"
     inkscape:window-y="-11"
     inkscape:window-maximized="1"
     inkscape:current-layer="layer1" />
  <defs
     id="defs1" />
  <g
     inkscape:label="Ebene 1"
     inkscape:groupmode="layer"
     id="layer1"
     transform="translate(-108.21458,-192.61666)">
    <path
       id="path38-2-6"
       style="fill:#000000;fill-opacity:0.23555888;stroke:#1f1e20;stroke-width:0;stroke-linecap:round;stroke-linejoin:round;stroke-dasharray:none;stroke-opacity:1;paint-order:fill markers stroke"
       d="m 114.93497,210.94107 -0.52865,-0.1501 -1.31981,-1.23463 -0.26614,0.25237 -0.40411,0.3002 -0.52865,-0.21691 -0.33744,-2.57772 -0.003,8e-4 0.046,0.4202 -0.81701,-0.0672 -0.29765,-0.24165 -0.4532,-2.51257 -0.42634,-0.0466 -0.01,-0.002 -0.006,0.002 -0.52865,-0.0998 -0.82971,-1.46871 4.43673,-1.44839 0.004,8e-4 0.006,-8e-4 5.1e-4,0.002 4.65398,0.79834 0.40411,3.18391 -0.31109,0.1167 -0.004,-0.002 -0.004,0.002 -0.44235,0.054 -0.016,-0.04 0.24856,2.57855 -0.37362,0.0165 -0.74724,-0.15258 0.22325,1.30144 -0.24909,0.1332 -0.75964,-0.13031 0.0444,1.12907 z"
       sodipodi:nodetypes="cccccccccccccccccccccccccccccccccccc" />
    <path
       style="fill:#9bd1ff;fill-opacity:0.900975;stroke:#1f1e20;stroke-width:0;stroke-linecap:round;stroke-linejoin:round;stroke-dasharray:none;stroke-opacity:1;paint-order:fill markers stroke"
       d="m 112.82009,194.66386 0.64585,0.38416 0.49472,0.0664 0.3518,-0.12554 0.96414,-0.26242 0.0622,-1.98447 -0.40424,-0.12533 -0.52861,0.18801 z"
       id="path38-2" />
    <path
       style="fill:#82afd5;fill-opacity:0.900975;stroke:#1f1e20;stroke-width:0;stroke-linecap:round;stroke-linejoin:round;stroke-dasharray:none;stroke-opacity:1;paint-order:fill markers stroke"
       d="m 113.46593,195.04802 0.67642,-0.63658 0.26385,-1.05612 0.42876,-0.47266 0.0996,-0.26594 -0.52861,0.188 -1.58585,1.85914 z"
       id="path39-9" />
    <path
       style="fill:#a3d5ff;fill-opacity:0.900975;stroke:#1f1e20;stroke-width:0;stroke-linecap:round;stroke-linejoin:round;stroke-dasharray:none;stroke-opacity:1;paint-order:fill markers stroke"
       d="m 111.51409,197.50326 0.37314,-3.57204 0.52862,-0.27156 0.40423,0.37601 0.64586,0.76831 0.49472,0.13294 0.3518,-0.2511 0.96414,-0.52482 0.77737,-0.16711 0.24876,0.16711 -0.27985,2.04713 -0.23726,0.5456 -1.38521,0.82348 -1.40171,0.25479 z"
       id="path37-3" />
    <path
       style="fill:#83b0d5;fill-opacity:0.900975;stroke:#1f1e20;stroke-width:0;stroke-linecap:round;stroke-linejoin:round;stroke-dasharray:none;stroke-opacity:1;paint-order:fill markers stroke"
       d="m 111.51409,197.51356 1.48461,0.31844 -0.27454,-1.24724 0.3518,-0.75831 0.38997,-0.84491 -0.46057,-0.58773 -0.58951,-0.60333 -0.52862,0.26304 -0.37314,3.46004"
       id="path40-0"
       sodipodi:nodetypes="ccccccccc" />
    <path
       style="fill:#9cccf4;fill-opacity:0.900975;stroke:#1f1e20;stroke-width:0;stroke-linecap:round;stroke-linejoin:round;stroke-dasharray:none;stroke-opacity:1;paint-order:fill markers stroke"
       d="m 109.90098,201.03162 2.27855,0.0709 2.35274,-0.22157 2.36276,-1.29066 0.30557,-3.96892 -0.37347,-0.0209 -0.47532,0.22977 -0.25906,0.5456 -1.51247,0.82348 -1.53048,0.25479 -1.14635,-0.17725 -0.47464,-0.15149 -0.37347,-0.29245 -0.57718,0.188 z"
       id="path36-7"
       sodipodi:nodetypes="ccccccccccccccc" />
    <path
       style="fill:#739abb;fill-opacity:0.488372;stroke:#1f1e20;stroke-width:0;stroke-linecap:round;stroke-linejoin:round;stroke-dasharray:none;stroke-opacity:1;paint-order:fill markers stroke"
       d="m 111.05534,196.83291 -0.57718,0.18801 -0.57718,4.01071 2.27855,0.0709 1.17637,-0.11079 0.33952,-0.45212 -0.74423,-0.7127 -0.12004,-0.66099 0.34811,-0.86409 -0.42613,-0.44313 0.48615,-0.43204 -0.18948,0.0275 -1.14635,-0.17725 -0.47464,-0.1515 z"
       id="path41-7"
       sodipodi:nodetypes="ccccccccccccccc" />
    <path
       style="fill:#9dd2ff;fill-opacity:0.952738;stroke:#1f1e20;stroke-width:0;stroke-linecap:round;stroke-linejoin:round;stroke-dasharray:none;stroke-opacity:1;paint-order:fill markers stroke"
       d="m 113.23928,197.42664 -0.80425,0.0591 -0.88828,-0.32496 0.0457,-0.52678 -0.81696,0.084 -0.29733,0.30292 0.61846,0.41312 0.89428,0.3545 0.76223,0.0702 1.89286,-0.30824 1.51247,-0.82347 0.25905,-0.5456 0.0177,-0.21104 0.76541,-0.34902 -0.37347,-0.0209 -0.75518,0.19325 -0.21241,0.56126 -1.27926,0.84437 z"
       id="path42-8"
       sodipodi:nodetypes="ccccccccccccccccccc" />
    <path
       style="fill:#93c1e7;fill-opacity:0.900975;stroke:#1f1e20;stroke-width:0;stroke-linecap:round;stroke-linejoin:round;stroke-dasharray:none;stroke-opacity:1;paint-order:fill markers stroke"
       d="m 116.85901,199.16267 -2.16397,1.29066 -2.15477,0.22157 -2.08684,-0.0709 -0.87066,-0.37601 -0.52862,0.12533 -0.83957,2.94537 4.4466,0.71023 4.66426,-1.00267 0.40424,-3.98982 -0.31096,-0.14623 z"
       id="path35-7" />
    <path
       style="fill:#9ccdf6;fill-opacity:0.976744;stroke:#1f1e20;stroke-width:0;stroke-linecap:round;stroke-linejoin:round;stroke-dasharray:none;stroke-opacity:1;paint-order:fill markers stroke"
       d="m 109.07172,200.35337 0.52697,-0.12532 0.43769,-0.0597 -0.0361,0.23495 0.46633,0.20068 2.08034,0.0709 2.14806,-0.22157 2.15723,-1.29066 0.11574,-0.36033 0.44223,0.0679 0.30999,0.14623 -1.58345,0.86409 -0.3526,0.51179 -1.17793,0.40473 -1.96065,0.1201 -2.31845,-0.0521 z"
       id="path43-3"
       sodipodi:nodetypes="ccccccccccccccccc" />
    <path
       style="fill:#7599b7;fill-opacity:0.803451;stroke:#1f1e20;stroke-width:0;stroke-linecap:round;stroke-linejoin:round;stroke-dasharray:none;stroke-opacity:1;paint-order:fill markers stroke"
       d="m 109.06417,200.35332 1.25936,0.51179 2.3257,0.0521 -0.39515,0.70407 0.42876,0.69053 0.18689,0.87517 -0.19853,0.822 -4.44659,-0.71023 z"
       id="path44-0" />
  </g>
</svg>
