<?xml version="1.0" encoding="UTF-8" standalone="no"?>
<!-- Created with Inkscape (http://www.inkscape.org/) -->

<svg
   width="580.52594mm"
   height="328.14438mm"
   viewBox="0 0 1382.2046 781.29615"
   version="1.1"
   id="svg1"
   xml:space="preserve"
   sodipodi:docname="BackGroundMosaik.svg"
   inkscape:version="1.4.2 (f4327f4, 2025-05-13)"
   inkscape:export-filename="UpgrageOverviewPaneltest1.png"
   inkscape:export-xdpi="96"
   inkscape:export-ydpi="96"
   xmlns:inkscape="http://www.inkscape.org/namespaces/inkscape"
   xmlns:sodipodi="http://sodipodi.sourceforge.net/DTD/sodipodi-0.dtd"
   xmlns="http://www.w3.org/2000/svg"
   xmlns:svg="http://www.w3.org/2000/svg"><sodipodi:namedview
     id="namedview1"
     pagecolor="#ffffff"
     bordercolor="#000000"
     borderopacity="0.25"
     inkscape:showpageshadow="2"
     inkscape:pageopacity="0.0"
     inkscape:pagecheckerboard="0"
     inkscape:deskcolor="#d1d1d1"
     inkscape:document-units="mm"
     inkscape:zoom="0.57543939"
     inkscape:cx="894.96827"
     inkscape:cy="563.9169"
     inkscape:window-width="3840"
     inkscape:window-height="2054"
     inkscape:window-x="-11"
     inkscape:window-y="-11"
     inkscape:window-maximized="1"
     inkscape:current-layer="layer3" /><defs
     id="defs1" /><g
     inkscape:groupmode="layer"
     id="layer2"
     inkscape:label="Marker"
     transform="translate(155.05378,223.13417)" /><g
     inkscape:groupmode="layer"
     id="layer19"
     inkscape:label="Special1"
     transform="translate(155.05378,223.13417)" /><g
     inkscape:groupmode="layer"
     id="layer21"
     inkscape:label="Special3"
     transform="translate(155.05378,223.13417)" /><g
     inkscape:groupmode="layer"
     id="layer22"
     inkscape:label="Special4"
     transform="translate(155.05378,223.13417)" /><g
     inkscape:groupmode="layer"
     id="layer20"
     inkscape:label="Special2"
     transform="translate(155.05378,223.13417)" /><g
     inkscape:groupmode="layer"
     id="layer15"
     inkscape:label="Active1"
     transform="translate(155.05378,223.13417)" /><g
     inkscape:groupmode="layer"
     id="layer16"
     inkscape:label="Active2"
     transform="translate(155.05378,223.13417)" /><g
     inkscape:groupmode="layer"
     id="layer18"
     inkscape:label="Active4"
     transform="translate(155.05378,223.13417)" /><g
     inkscape:groupmode="layer"
     id="layer17"
     inkscape:label="Active3"
     transform="translate(155.05378,223.13417)" /><g
     inkscape:groupmode="layer"
     id="layer11"
     inkscape:label="Synergy1"
     transform="translate(155.05378,223.13417)" /><g
     inkscape:groupmode="layer"
     id="layer14"
     inkscape:label="Synergy4"
     transform="translate(155.05378,223.13417)" /><g
     inkscape:groupmode="layer"
     id="layer12"
     inkscape:label="Synergy2"
     transform="translate(155.05378,223.13417)" /><g
     inkscape:groupmode="layer"
     id="layer13"
     inkscape:label="Synergy3"
     transform="translate(155.05378,223.13417)" /><g
     inkscape:groupmode="layer"
     id="layer7"
     inkscape:label="Bodymod1"
     transform="translate(155.05378,223.13417)" /><g
     inkscape:groupmode="layer"
     id="layer8"
     inkscape:label="Bodymod2"
     transform="translate(155.05378,223.13417)" /><g
     inkscape:groupmode="layer"
     id="layer9"
     inkscape:label="Bodymod3"
     transform="translate(155.05378,223.13417)" /><g
     inkscape:groupmode="layer"
     id="layer10"
     inkscape:label="Bodymod4"
     transform="translate(155.05378,223.13417)" /><g
     inkscape:label="Passive1"
     inkscape:groupmode="layer"
     id="layer1"
     transform="translate(238.33879,429.64598)"><path
       style="fill:#000000;fill-opacity:0.268567;stroke:#404040;stroke-width:0;stroke-linecap:round;stroke-dasharray:none;stroke-dashoffset:0;stroke-opacity:0;paint-order:fill markers stroke"
       d="M 856.60374,-35.7738 936.22773,9.0554612 909.44654,-92.45339 Z"
       id="path3" /><path
       style="fill:#000000;fill-opacity:0.268567;stroke:#404040;stroke-width:0;stroke-linecap:round;stroke-dasharray:none;stroke-dashoffset:0;stroke-opacity:0;paint-order:fill markers stroke"
       d="m 845.63427,-169.12639 -111.39916,-35.9079 18.84104,105.064164 z"
       id="path5" /><path
       style="fill:#000000;fill-opacity:0.268567;stroke:#404040;stroke-width:0;stroke-linecap:round;stroke-dasharray:none;stroke-dashoffset:0;stroke-opacity:0;paint-order:fill markers stroke"
       d="m 978.29667,-429.19323 50.07883,138.55404 -69.77118,86.74989 -87.67669,-81.90684 z"
       id="path12"
       sodipodi:nodetypes="ccccc" /><path
       style="fill:#000000;fill-opacity:0.268567;stroke:#404040;stroke-width:0;stroke-linecap:round;stroke-dasharray:none;stroke-dashoffset:0;stroke-opacity:0;paint-order:fill markers stroke"
       d="m 1142.3797,-188.49851 0.8934,322.4133 -89.5241,-111.051653 20.128,-68.072254 22.6751,-105.179203 z"
       id="path16" /><path
       style="fill:#000000;fill-opacity:0.268567;stroke:#404040;stroke-width:0;stroke-linecap:round;stroke-dasharray:none;stroke-dashoffset:0;stroke-opacity:0;paint-order:fill markers stroke"
       d="M 1053.749,22.863137 929.43279,107.124 826.95251,102.10798 871.84785,46.333725 936.22773,9.0554612 l 94.24407,-98.3108622 43.4052,44.046284 z"
       id="path17" /><path
       style="fill:#000000;fill-opacity:0.268567;stroke:#404040;stroke-width:0;stroke-linecap:round;stroke-dasharray:none;stroke-dashoffset:0;stroke-opacity:0;paint-order:fill markers stroke"
       d="m 1058.8093,255.16513 -8.5759,92.92076 -189.03134,0.52375 65.78633,-167.27908 z"
       id="path21" /><path
       style="fill:#000000;fill-opacity:0.268567;stroke:#404040;stroke-width:0;stroke-linecap:round;stroke-dasharray:none;stroke-dashoffset:0;stroke-opacity:0;paint-order:fill markers stroke"
       d="M 789.7134,51.861273 702.301,65.353437 785.93536,-36.461322 Z"
       id="path23" /><path
       style="fill:#000000;fill-opacity:0.268567;stroke:#404040;stroke-width:0;stroke-linecap:round;stroke-dasharray:none;stroke-dashoffset:0;stroke-opacity:0;paint-order:fill markers stroke"
       d="m 763.63708,204.74977 47.03642,79.36947 -74.90347,64.83792 125.43204,-0.34752 -22.5265,-159.96776 z"
       id="path24" /><path
       style="fill:#000000;fill-opacity:0.268567;stroke:#404040;stroke-width:0;stroke-linecap:round;stroke-dasharray:none;stroke-dashoffset:0;stroke-opacity:0;paint-order:fill markers stroke"
       d="M 9.2901263,-426.50841 -103.57316,-362.48557 -21.331152,-211.558 38.001938,-265.82175 70.7656,-396.20383 Z"
       id="path86" /><path
       style="fill:#000000;fill-opacity:0.268567;stroke:#404040;stroke-width:0;stroke-linecap:round;stroke-dasharray:none;stroke-dashoffset:0;stroke-opacity:0;paint-order:fill markers stroke"
       d="m -185.53981,-188.61708 -51.76409,136.308227 -1.03488,-373.513467 58.19432,225.76064 z"
       id="path90" /><path
       style="fill:#000000;fill-opacity:0.268567;stroke:#404040;stroke-width:0;stroke-linecap:round;stroke-dasharray:none;stroke-dashoffset:0;stroke-opacity:0;paint-order:fill markers stroke"
       d="M -130.56665,56.701346 -141.95913,211.01211 -237.3039,-52.308853 -149.8092,82.988923 Z"
       id="path92" /><path
       style="fill:#000000;fill-opacity:0.268567;stroke:#404040;stroke-width:0;stroke-linecap:round;stroke-dasharray:none;stroke-dashoffset:0;stroke-opacity:0;paint-order:fill markers stroke"
       d="M -141.95913,211.01211 -85.355782,351.23225 15.860879,350.95183 96.123493,244.28527 -17.24244,136.96264 Z"
       id="path95" /><path
       style="fill:#000000;fill-opacity:0.268567;stroke:#404040;stroke-width:0;stroke-linecap:round;stroke-dasharray:none;stroke-dashoffset:0;stroke-opacity:0;paint-order:fill markers stroke"
       d="M 132.24108,-365.89924 9.2901263,-426.50841 246.02101,-427.16432 Z"
       id="path77" /><path
       style="fill:#000000;fill-opacity:0.268567;stroke:#404040;stroke-width:0;stroke-linecap:round;stroke-dasharray:none;stroke-dashoffset:0;stroke-opacity:0;paint-order:fill markers stroke"
       d="m 196.9228,-133.09994 -36.3222,119.571148 99.2725,122.507922 44.8293,-79.623978 -39.92828,-64.372528 9.57611,-47.284764 z"
       id="path80" /><path
       style="fill:#000000;fill-opacity:0.268567;stroke:#404040;stroke-width:0;stroke-linecap:round;stroke-dasharray:none;stroke-dashoffset:0;stroke-opacity:0;paint-order:fill markers stroke"
       d="M 125.87215,204.75018 15.860879,350.95183 285.25563,350.2053 246.20739,277.73322 Z"
       id="path82" /><path
       style="fill:#000000;fill-opacity:0.268567;stroke:#404040;stroke-width:0;stroke-linecap:round;stroke-dasharray:none;stroke-dashoffset:0;stroke-opacity:0;paint-order:fill markers stroke"
       d="m 418.65347,-288.95968 66.91325,111.47024 66.46134,-114.48977 -75.89739,24.94355 20.34492,-38.03554 z"
       id="path63" /><path
       style="fill:#000000;fill-opacity:0.268567;stroke:#404040;stroke-width:0;stroke-linecap:round;stroke-dasharray:none;stroke-dashoffset:0;stroke-opacity:0;paint-order:fill markers stroke"
       d="m 426.37635,-179.62472 26.38713,140.626808 113.77466,-60.316345 -45.83237,-47.798593 -66.2617,23.23688 z"
       id="path65" /><path
       style="fill:#000000;fill-opacity:0.268567;stroke:#404040;stroke-width:0;stroke-linecap:round;stroke-dasharray:none;stroke-dashoffset:0;stroke-opacity:0;paint-order:fill markers stroke"
       d="m 377.43674,145.68367 -36.8581,79.67154 123.89301,81.80653 -40.43657,-161.7297 z"
       id="path69" /><path
       style="fill:#000000;fill-opacity:0.268567;stroke:#404040;stroke-width:0;stroke-linecap:round;stroke-dasharray:none;stroke-dashoffset:0;stroke-opacity:0;paint-order:fill markers stroke"
       d="m 284.82694,195.47646 -24.95384,-86.49733 44.8293,-79.623978 -39.92828,-64.372528 94.52549,3.271437 -6.21341,132.272979 z"
       id="path71" /><path
       style="fill:#000000;fill-opacity:0.268567;stroke:#404040;stroke-width:0;stroke-linecap:round;stroke-dasharray:none;stroke-dashoffset:0;stroke-opacity:0;paint-order:fill markers stroke"
       d="m 297.58785,-306.73253 -51.56684,-120.43179 162.53161,-0.45033 45.21108,58.17458 -120.11742,5.63279 z"
       id="path75" /></g><g
     inkscape:groupmode="layer"
     id="layer3"
     inkscape:label="Passive2"
     transform="translate(155.05378,223.13417)"><path
       style="fill:#000000;fill-opacity:0.624906;stroke:#404040;stroke-width:0;stroke-linecap:round;stroke-opacity:0;paint-order:fill markers stroke"
       d="m 992.73155,114.0584 -63.81227,-76.67298 -92.55812,69.15625 32.85918,63.50881 70.66839,0.68752 z"
       id="path1" /><path
       style="fill:#000000;fill-opacity:0.624906;stroke:#404040;stroke-width:0;stroke-linecap:round;stroke-dasharray:none;stroke-dashoffset:0;stroke-opacity:0;paint-order:fill markers stroke"
       d="M 1041.8893,2.6225003 1113.7568,117.25641 1019.5127,215.56726 992.73155,114.0584 Z"
       id="path7" /><path
       style="fill:#000000;fill-opacity:0.624906;stroke:#404040;stroke-width:0;stroke-linecap:round;stroke-dasharray:none;stroke-dashoffset:0;stroke-opacity:0;paint-order:fill markers stroke"
       d="M 1041.8893,2.6225003 954.21263,-79.284331 928.91928,37.38542 Z"
       id="path8" /><path
       style="fill:#000000;fill-opacity:0.624906;stroke:#404040;stroke-width:0;stroke-linecap:round;stroke-dasharray:none;stroke-dashoffset:0;stroke-opacity:0;paint-order:fill markers stroke"
       d="m 1226.5581,340.42659 -84.4638,121.25035 -131.8209,-73.83458 2.4444,-74.20656 124.3162,-84.26086 z"
       id="path18" /><path
       style="fill:#000000;fill-opacity:0.624906;stroke:#404040;stroke-width:0;stroke-linecap:round;stroke-dasharray:none;stroke-dashoffset:0;stroke-opacity:0;paint-order:fill markers stroke"
       d="m 645.53605,-221.52868 -153.69843,0.42583 45.21109,58.17459 -35.11023,80.480385 77.82212,-16.111532 z"
       id="path62" /><path
       style="fill:#000000;fill-opacity:0.624906;stroke:#404040;stroke-width:0;stroke-linecap:round;stroke-dasharray:none;stroke-dashoffset:0;stroke-opacity:0;paint-order:fill markers stroke"
       d="m 511.65825,556.32069 -143.11761,0.39651 -39.04824,-72.47218 38.61954,-82.25682 55.75171,29.87881 123.89301,81.80654 z"
       id="path70" /><path
       style="fill:#000000;fill-opacity:0.624906;stroke:#404040;stroke-width:0;stroke-linecap:round;stroke-dasharray:none;stroke-dashoffset:0;stroke-opacity:0;paint-order:fill markers stroke"
       d="m 436.3712,307.03884 -2.12788,45.29963 26.47844,-0.1429 -36.8581,79.67154 -55.75173,-29.87875 z"
       id="path72" /><path
       style="fill:#000000;fill-opacity:0.624906;stroke:#404040;stroke-width:0;stroke-linecap:round;stroke-dasharray:none;stroke-dashoffset:0;stroke-opacity:0;paint-order:fill markers stroke"
       d="m 348.05912,171.49443 19.15218,-94.569472 110.11889,-114.25478 32.33117,64.216901 15.2977,81.527031 -82.37445,66.35176 z"
       id="path73" /><path
       style="fill:#000000;fill-opacity:0.624906;stroke:#404040;stroke-width:0;stroke-linecap:round;stroke-dasharray:none;stroke-dashoffset:0;stroke-opacity:0;paint-order:fill markers stroke"
       d="m 872.9984,258.37308 -26.07634,152.8885 75.0385,-16.10789 -11.72304,-86.53391 44.89533,-55.77425 z"
       id="path19" /><path
       style="fill:#000000;fill-opacity:0.624906;stroke:#404040;stroke-width:0;stroke-linecap:round;stroke-dasharray:none;stroke-dashoffset:0;stroke-opacity:0;paint-order:fill markers stroke"
       d="m 943.21627,-222.35348 118.36543,-0.32795 -107.36907,143.397099 0.67773,-74.201669 z"
       id="path11" /><path
       style="fill:#000000;fill-opacity:0.624906;stroke:#404040;stroke-width:0;stroke-linecap:round;stroke-dasharray:none;stroke-dashoffset:0;stroke-opacity:0;paint-order:fill markers stroke"
       d="m 154.0506,-189.69203 -32.76366,130.382095 81.49342,81.923969 63.05122,-38.599586 -43.7282,-1.203828 -38.09796,-41.411013 31.52066,-100.787047 z"
       id="path78" /><path
       style="fill:#000000;fill-opacity:0.624906;stroke:#404040;stroke-width:0;stroke-linecap:round;stroke-dasharray:none;stroke-dashoffset:0;stroke-opacity:0;paint-order:fill markers stroke"
       d="m 179.4085,450.79708 -15.57253,-137.45926 82.00562,12.62692 -36.68443,85.29725 z"
       id="path83" /><path
       style="fill:#000000;fill-opacity:0.623529;stroke:#404040;stroke-width:0;stroke-linecap:round;stroke-dasharray:none;stroke-dashoffset:0;stroke-opacity:0;paint-order:fill markers stroke"
       d="M 61.953845,-5.0461898 16.857855,175.59084 118.34347,153.58095 202.78036,22.614034 121.28694,-59.309935 Z"
       id="path87" /><path
       style="fill:#000000;fill-opacity:0.623529;stroke:#404040;stroke-width:0;stroke-linecap:round;stroke-dasharray:none;stroke-dashoffset:0;stroke-opacity:0;paint-order:fill markers stroke"
       d="m -102.25481,17.894721 5.39535,-11.4445992 -58.19432,-225.7606318 247.628913,-0.68611 -112.863288,64.02286 z"
       id="path89" /><path
       style="fill:#000000;fill-opacity:0.623529;stroke:#404040;stroke-width:0;stroke-linecap:round;stroke-dasharray:none;stroke-dashoffset:0;stroke-opacity:0;paint-order:fill markers stroke"
       d="m 690.08971,555.8263 -93.87936,-161.5367 86.12711,-85.92171 65.66456,107.58443 z"
       id="path50" /><path
       style="fill:#000000;fill-opacity:0.623529;stroke:#404040;stroke-width:0;stroke-linecap:round;stroke-dasharray:none;stroke-dashoffset:0;stroke-opacity:0;paint-order:fill markers stroke"
       d="M 869.22038,170.05048 836.36116,106.54167 722.53717,151.90693 785.586,271.86524 Z"
       id="path47" /><path
       style="fill:#000000;fill-opacity:0.623529;stroke:#404040;stroke-width:0;stroke-linecap:round;stroke-dasharray:none;stroke-dashoffset:0;stroke-opacity:0;paint-order:fill markers stroke"
       d="M 635.31307,-85.467411 685.26133,88.410385 773.02828,-58.200227 711.21042,-110.41097 Z"
       id="path55" /><path
       style="fill:#000000;fill-opacity:0.624906;stroke:#404040;stroke-width:0;stroke-linecap:round;stroke-dasharray:none;stroke-dashoffset:0;stroke-opacity:0;paint-order:fill markers stroke"
       d="M -154.0189,154.20296 -66.524197,289.50072 16.857855,175.59084 31.201766,118.13464 -102.25481,17.894721 Z"
       id="path91" /></g><g
     inkscape:groupmode="layer"
     id="layer4"
     inkscape:label="Passive3"
     transform="translate(155.05378,223.13417)"><path
       style="fill:#000000;fill-opacity:0.338335;stroke:#404040;stroke-width:0;stroke-linecap:round;stroke-dasharray:none;stroke-dashoffset:0;stroke-opacity:0;paint-order:fill markers stroke"
       d="M 817.52011,1.4775025 874.6229,-111.74705 954.89036,-153.486 954.21263,-79.284331 928.91928,37.38542 Z"
       id="path9" /><path
       style="fill:#000000;fill-opacity:0.338335;stroke:#404040;stroke-width:0;stroke-linecap:round;stroke-dasharray:none;stroke-dashoffset:0;stroke-opacity:0;paint-order:fill markers stroke"
       d="m 1111.6605,-84.127402 113.567,-138.114278 -163.6458,-0.43975 z"
       id="path13"
       sodipodi:nodetypes="cccc" /><path
       style="fill:#000000;fill-opacity:0.338335;stroke:#404040;stroke-width:0;stroke-linecap:round;stroke-dasharray:none;stroke-dashoffset:0;stroke-opacity:0;paint-order:fill markers stroke"
       d="M 670.25247,36.162061 537.72908,82.635837 635.31307,-85.467411 Z"
       id="path56" /><path
       style="fill:#000000;fill-opacity:0.338335;stroke:#404040;stroke-width:0;stroke-linecap:round;stroke-dasharray:none;stroke-dashoffset:0;stroke-opacity:0;paint-order:fill markers stroke"
       d="m 612.35178,422.06385 -15.80858,92.35784 30.83049,41.57838 62.71602,-0.17377 z"
       id="path61" /><path
       style="fill:#000000;fill-opacity:0.338335;stroke:#404040;stroke-width:0;stroke-linecap:round;stroke-dasharray:none;stroke-dashoffset:0;stroke-opacity:0;paint-order:fill markers stroke"
       d="M 785.586,271.86524 872.9984,258.37308 854.31469,367.9178 748.00202,415.95232 Z"
       id="path48" /><path
       style="fill:#000000;fill-opacity:0.338335;stroke:#404040;stroke-width:0;stroke-linecap:round;stroke-dasharray:none;stroke-dashoffset:0;stroke-opacity:0;paint-order:fill markers stroke"
       d="M 685.26133,88.410385 817.15054,-131.90443 817.52011,1.4775025 836.36116,106.54167 722.53717,151.90693 Z"
       id="path52" /><path
       style="fill:#000000;fill-opacity:0.338335;stroke:#404040;stroke-width:0;stroke-linecap:round;stroke-dasharray:none;stroke-dashoffset:0;stroke-opacity:0;paint-order:fill markers stroke"
       d="m 711.21042,-110.41097 -151.79474,49.887116 86.12037,-161.004826 85.68243,-0.2374 z"
       id="path54" /><path
       style="fill:#000000;fill-opacity:0.338335;stroke:#404040;stroke-width:0;stroke-linecap:round;stroke-dasharray:none;stroke-dashoffset:0;stroke-opacity:0;paint-order:fill markers stroke"
       d="m 595.88186,275.73293 -0.23697,-85.52716 87.81881,33.43785 -1.12629,84.72427 z"
       id="path59" /><path
       style="fill:#000000;fill-opacity:0.338335;stroke:#404040;stroke-width:0;stroke-linecap:round;stroke-dasharray:none;stroke-dashoffset:0;stroke-opacity:0;paint-order:fill markers stroke"
       d="m 545.27781,256.63111 -63.81226,-76.67298 -38.88094,-5.19226 82.37445,-66.35178 11.08942,59.0998 59.59641,22.69188 0.23697,85.52716 z"
       id="path66" /><path
       style="fill:#000000;fill-opacity:0.338335;stroke:#404040;stroke-width:0;stroke-linecap:round;stroke-dasharray:none;stroke-dashoffset:0;stroke-opacity:0;paint-order:fill markers stroke"
       d="M 385.90403,57.530137 344.81444,-43.145979 416.93128,-157.29548 478.4665,-35.072861 Z"
       id="path74" /><path
       style="fill:#000000;fill-opacity:0.338335;stroke:#404040;stroke-width:0;stroke-linecap:round;stroke-dasharray:none;stroke-dashoffset:0;stroke-opacity:0;paint-order:fill markers stroke"
       d="M 1179.8372,56.123489 1157.162,161.30269 1113.7568,117.25641 1041.8893,2.6225003 1076.6595,-41.198702 Z"
       id="path15" /><path
       style="fill:#000000;fill-opacity:0.338335;stroke:#404040;stroke-width:0;stroke-linecap:round;stroke-dasharray:none;stroke-dashoffset:0;stroke-opacity:0;paint-order:fill markers stroke"
       d="M 1010.2734,387.84236 944.48706,555.12145 921.96058,395.15369 910.23752,308.61978 1012.7178,313.6358 Z"
       id="path20" /><path
       style="fill:#000000;fill-opacity:0.338335;stroke:#404040;stroke-width:0;stroke-linecap:round;stroke-dasharray:none;stroke-dashoffset:0;stroke-opacity:0;paint-order:fill markers stroke"
       d="m 1133.5184,554.5977 93.6324,-0.25942 -0.5927,-213.91169 -84.4638,121.25035 z"
       id="path22" /><path
       style="fill:#000000;fill-opacity:0.338335;stroke:#404040;stroke-width:0;stroke-linecap:round;stroke-dasharray:none;stroke-dashoffset:0;stroke-opacity:0;paint-order:fill markers stroke"
       d="m 329.30601,-220.65252 -113.77993,61.26508 -31.52066,100.787047 38.09796,41.411013 87.45639,2.407675 35.25467,-28.364274 36.05842,-57.074741 z"
       id="path76" /><path
       style="fill:#000000;fill-opacity:0.338335;stroke:#404040;stroke-width:0;stroke-linecap:round;stroke-dasharray:none;stroke-dashoffset:0;stroke-opacity:0;paint-order:fill markers stroke"
       d="m 282.52604,240.6675 -73.36888,170.59449 120.33524,72.98303 38.61954,-82.25676 -24.95382,-86.49733 z"
       id="path81" /><path
       style="fill:#000000;fill-opacity:0.338335;stroke:#404040;stroke-width:0;stroke-linecap:round;stroke-dasharray:none;stroke-dashoffset:0;stroke-opacity:0;paint-order:fill markers stroke"
       d="m 202.78036,22.614034 -84.43689,130.966916 46.88715,25.4867 78.65498,13.91537 36.32221,-119.571161 z"
       id="path85" /><path
       style="fill:#000000;fill-opacity:0.338335;stroke:#404040;stroke-width:0;stroke-linecap:round;stroke-dasharray:none;stroke-dashoffset:0;stroke-opacity:0;paint-order:fill markers stroke"
       d="m 163.83597,313.33782 1.39465,-134.27017 78.65498,13.91537 38.64044,47.68448 -36.68445,85.29724 z"
       id="path84" /><path
       style="fill:#000000;fill-opacity:0.338335;stroke:#404040;stroke-width:0;stroke-linecap:round;stroke-dasharray:none;stroke-dashoffset:0;stroke-opacity:0;paint-order:fill markers stroke"
       d="M 202.78036,22.614034 357.63523,124.20968 367.2113,76.92515 385.90403,57.530137 344.81444,-43.145979 309.55977,-14.781705 265.83158,-15.985552 Z"
       id="path79" /><path
       style="fill:#000000;fill-opacity:0.338335;stroke:#404040;stroke-width:0;stroke-linecap:round;stroke-dasharray:none;stroke-dashoffset:0;stroke-opacity:0;paint-order:fill markers stroke"
       d="M 31.201766,118.13464 -102.25481,17.894721 l 81.966655,-173.868481 82.242,150.9275702 z"
       id="path88" /><path
       style="fill:#000000;fill-opacity:0.338335;stroke:#404040;stroke-width:0;stroke-linecap:round;stroke-dasharray:none;stroke-dashoffset:0;stroke-opacity:0;paint-order:fill markers stroke"
       d="M -58.674128,417.52391 66.042559,343.47444 118.34347,153.58095 16.857855,175.59084 -47.281641,263.21315 Z"
       id="path93" /></g><g
     inkscape:groupmode="layer"
     id="layer6"
     inkscape:label="Passive4"
     transform="translate(155.05378,223.13417)"><path
       style="fill:#000000;fill-opacity:0.43886;stroke:#404040;stroke-width:0;stroke-linecap:round;stroke-dasharray:none;stroke-dashoffset:0;stroke-opacity:0;paint-order:fill markers stroke"
       d="m 869.22036,170.05048 3.77803,88.3226 82.13446,-5.52755 64.37985,-37.27827 -79.62397,-44.82926 z"
       id="path4" /><path
       style="fill:#000000;fill-opacity:0.439216;stroke:#404040;stroke-width:0;stroke-linecap:round;stroke-dasharray:none;stroke-dashoffset:0;stroke-opacity:0;paint-order:fill markers stroke"
       d="m 819.05504,555.46897 -128.96533,0.35733 57.91231,-139.87398 106.31267,-48.03452 -7.39261,43.34378 47.03645,79.36947 z"
       id="path49" /><path
       style="fill:#000000;fill-opacity:0.439216;stroke:#404040;stroke-width:0;stroke-linecap:round;stroke-dasharray:none;stroke-dashoffset:0;stroke-opacity:0;paint-order:fill markers stroke"
       d="M 682.33746,308.36789 545.27781,256.63111 596.21035,394.2896 Z"
       id="path58" /><path
       style="fill:#000000;fill-opacity:0.439216;stroke:#404040;stroke-width:0;stroke-linecap:round;stroke-dasharray:none;stroke-dashoffset:0;stroke-opacity:0;paint-order:fill markers stroke"
       d="m 816.90092,-222.00347 -85.68244,0.23739 -20.00806,111.35511 61.81786,52.210743 44.12226,-73.704203 z"
       id="path53" /><path
       style="fill:#000000;fill-opacity:0.439216;stroke:#404040;stroke-width:0;stroke-linecap:round;stroke-dasharray:none;stroke-dashoffset:0;stroke-opacity:0;paint-order:fill markers stroke"
       d="m 682.33746,308.36789 2.92391,-219.957505 37.27584,63.496545 63.04883,119.95831 -37.58398,144.08708 z"
       id="path51" /><path
       style="fill:#000000;fill-opacity:0.439216;stroke:#404040;stroke-width:0;stroke-linecap:round;stroke-dasharray:none;stroke-dashoffset:0;stroke-opacity:0;paint-order:fill markers stroke"
       d="M 685.26133,88.410385 536.04848,167.51389 683.4637,223.64362 Z"
       id="path57" /><path
       style="fill:#000000;fill-opacity:0.439216;stroke:#404040;stroke-width:0;stroke-linecap:round;stroke-dasharray:none;stroke-dashoffset:0;stroke-opacity:0;paint-order:fill markers stroke"
       d="m 507.32009,351.94385 40.43657,161.7297 -36.09841,42.64714 115.71544,-0.32062 -30.83049,-41.57838 15.80858,-92.35784 -16.14143,-27.77431 -15.81356,-42.74025 z"
       id="path68" /><path
       style="fill:#000000;fill-opacity:0.43886;stroke:#404040;stroke-width:0;stroke-linecap:round;stroke-dasharray:none;stroke-dashoffset:0;stroke-opacity:0;paint-order:fill markers stroke"
       d="M 603.99078,59.398959 649.82315,107.19756 685.26133,88.410385 670.25247,36.162061 Z"
       id="path60" /><path
       style="fill:#000000;fill-opacity:0.43886;stroke:#404040;stroke-width:0;stroke-linecap:round;stroke-dasharray:none;stroke-dashoffset:0;stroke-opacity:0;paint-order:fill markers stroke"
       d="m 537.72908,82.635837 -120.7978,-239.931317 120.11743,-5.63278 -35.11023,80.480385 66.91325,111.470255 z"
       id="path64" /><path
       style="fill:#000000;fill-opacity:0.43886;stroke:#404040;stroke-width:0;stroke-linecap:round;stroke-dasharray:none;stroke-dashoffset:0;stroke-opacity:0;paint-order:fill markers stroke"
       d="m 442.58461,174.76587 -8.34129,177.5726 146.15347,-0.78918 -35.11898,-94.91818 -63.81226,-76.67298 z"
       id="path67" /><path
       style="fill:#000000;fill-opacity:0.43886;stroke:#404040;stroke-width:0;stroke-linecap:round;stroke-dasharray:none;stroke-dashoffset:0;stroke-opacity:0;paint-order:fill markers stroke"
       d="M 928.9193,37.385421 1041.8893,2.6225195 992.73155,114.0584 Z"
       id="path6" /><path
       style="fill:#000000;fill-opacity:0.43886;stroke:#404040;stroke-width:0;stroke-linecap:round;stroke-dasharray:none;stroke-dashoffset:0;stroke-opacity:0;paint-order:fill markers stroke"
       d="m 954.89036,-153.486 -11.67409,-68.86748 -126.31535,0.35001 0.61919,223.4809725 57.10279,-113.2245525 z"
       id="path10" /><path
       style="fill:#000000;fill-opacity:0.43886;stroke:#404040;stroke-width:0;stroke-linecap:round;stroke-dasharray:none;stroke-dashoffset:0;stroke-opacity:0;paint-order:fill markers stroke"
       d="m 1224.9966,-223.13417 0.6681,241.147455 -45.8275,38.110204 -103.1777,-97.322191 z"
       id="path14" /><path
       style="fill:#000000;fill-opacity:0.43886;stroke:#404040;stroke-width:0;stroke-linecap:round;stroke-dasharray:none;stroke-dashoffset:0;stroke-opacity:0;paint-order:fill markers stroke"
       d="M 66.042559,343.47444 179.4085,450.79704 163.83597,313.33782 165.23062,179.06765 118.34347,153.58095 Z"
       id="path94" /><path
       style="fill:#000000;fill-opacity:0.43886;stroke:#404040;stroke-width:0;stroke-linecap:round;stroke-dasharray:none;stroke-dashoffset:0;stroke-opacity:0;paint-order:fill markers stroke"
       d="m -2.0707753,557.74405 -150.8288747,0.41791 -1.11925,-403.959 z"
       id="path96" /></g></svg>
