<?xml version="1.0" encoding="UTF-8" standalone="no"?>
<!-- Created with Inkscape (http://www.inkscape.org/) -->

<svg
   width="2000.11"
   height="895.69"
   viewBox="0 0 529.1947 236.98398"
   version="1.1"
   id="svg1"
   inkscape:version="1.4.2 (f4327f4, 2025-05-13)"
   sodipodi:docname="CountDownContainerMaskTailVirus.svg"
   xmlns:inkscape="http://www.inkscape.org/namespaces/inkscape"
   xmlns:sodipodi="http://sodipodi.sourceforge.net/DTD/sodipodi-0.dtd"
   xmlns="http://www.w3.org/2000/svg"
   xmlns:svg="http://www.w3.org/2000/svg">
  <sodipodi:namedview
     id="namedview1"
     pagecolor="#ffffff"
     bordercolor="#000000"
     borderopacity="0.25"
     inkscape:showpageshadow="2"
     inkscape:pageopacity="0.0"
     inkscape:pagecheckerboard="0"
     inkscape:deskcolor="#d1d1d1"
     inkscape:document-units="mm"
     inkscape:zoom="1.1357605"
     inkscape:cx="991.4062"
     inkscape:cy="444.19576"
     inkscape:window-width="3840"
     inkscape:window-height="2054"
     inkscape:window-x="-11"
     inkscape:window-y="-11"
     inkscape:window-maximized="1"
     inkscape:current-layer="layer1"
     showgrid="true">
    <inkscape:grid
       id="grid1"
       units="mm"
       originx="139"
       originy="10.68689"
       spacingx="0.99999999"
       spacingy="0.99999998"
       empcolor="#0099e5"
       empopacity="0.30196078"
       color="#0099e5"
       opacity="0.14901961"
       empspacing="5"
       enabled="true"
       visible="true" />
  </sodipodi:namedview>
  <defs
     id="defs1">
    <inkscape:path-effect
       effect="fillet_chamfer"
       id="path-effect6"
       is_visible="true"
       lpeversion="1"
       nodesatellites_param="F,0,0,1,0,0,0,1 @ F,0,0,1,0,0,0,1 @ F,0,0,1,0,0,0,1 @ F,0,0,1,0,0,0,1 @ F,0,0,1,0,0,0,1 @ F,0,0,1,0,0,0,1 @ F,0,0,1,0,0,0,1 @ F,0,0,1,0,0,0,1 @ F,0,0,1,0,0,0,1"
       radius="0"
       unit="px"
       method="auto"
       mode="F"
       chamfer_steps="1"
       flexible="false"
       use_knot_distance="true"
       apply_no_radius="true"
       apply_with_radius="true"
       only_selected="false"
       hide_knots="false" />
    <inkscape:path-effect
       effect="mirror_symmetry"
       start_point="77.199904,69.000027"
       end_point="77.199904,93.044622"
       center_point="77.199904,81.022324"
       id="path-effect2"
       is_visible="true"
       lpeversion="1.2"
       lpesatellites=""
       mode="free"
       discard_orig_path="false"
       fuse_paths="false"
       oposite_fuse="false"
       split_items="false"
       split_open="false"
       link_styles="false" />
    <inkscape:path-effect
       effect="fillet_chamfer"
       id="path-effect5"
       is_visible="true"
       lpeversion="1"
       nodesatellites_param="F,0,0,1,0,0,0,1 @ F,0,0,1,0,2.0496102,0,1 @ F,0,0,1,0,0,0,1"
       radius="0"
       unit="px"
       method="auto"
       mode="F"
       chamfer_steps="1"
       flexible="false"
       use_knot_distance="true"
       apply_no_radius="true"
       apply_with_radius="true"
       only_selected="false"
       hide_knots="false" />
    <inkscape:path-effect
       effect="fillet_chamfer"
       id="path-effect28"
       is_visible="true"
       lpeversion="1"
       nodesatellites_param="F,0,0,1,0,0,0,1 @ F,0,0,1,0,0,0,1 @ F,0,0,1,0,0,0,1 @ F,0,0,1,0,0,0,1 @ F,0,0,1,0,0,0,1 @ F,0,0,1,0,0,0,1 @ F,0,0,1,0,0,0,1 @ F,0,0,1,0,0,0,1 @ F,0,0,1,0,0,0,1 @ F,0,0,1,0,0,0,1 @ F,0,0,1,0,0,0,1 @ F,0,0,1,0,0,0,1 | F,0,0,1,0,0,0,1 @ F,0,0,1,0,0,0,1 @ F,0,0,1,0,0,0,1 @ F,0,0,1,0,0,0,1 @ F,0,0,1,0,0,0,1 @ F,0,0,1,0,0,0,1 @ F,0,0,1,0,0,0,1 @ F,0,0,1,0,0,0,1 @ F,0,0,1,0,0,0,1 @ F,0,0,1,0,0,0,1 @ F,0,0,1,0,0,0,1"
       radius="0"
       unit="px"
       method="auto"
       mode="F"
       chamfer_steps="1"
       flexible="false"
       use_knot_distance="true"
       apply_no_radius="true"
       apply_with_radius="true"
       only_selected="false"
       hide_knots="false" />
    <inkscape:path-effect
       effect="powerstroke"
       message=""
       id="path-effect4"
       is_visible="true"
       lpeversion="1.3"
       scale_width="1"
       interpolator_type="CentripetalCatmullRom"
       interpolator_beta="0.75"
       start_linecap_type="round"
       end_linecap_type="round"
       offset_points="10.839744,0.43679433"
       linejoin_type="spiro"
       miter_limit="4"
       not_jump="true"
       sort_points="true" />
    <inkscape:path-effect
       effect="simplify"
       id="path-effect3"
       is_visible="true"
       lpeversion="1.3"
       threshold="0.012"
       steps="1"
       smooth_angles="0"
       helper_size="0"
       simplify_individual_paths="false"
       simplify_just_coalesce="false"
       step="1" />
    <inkscape:path-effect
       effect="fillet_chamfer"
       id="path-effect5-4"
       is_visible="true"
       lpeversion="1"
       nodesatellites_param="F,0,0,1,0,0,0,1 @ F,0,0,1,0,2.0496102,0,1 @ F,0,0,1,0,0,0,1"
       radius="0"
       unit="px"
       method="auto"
       mode="F"
       chamfer_steps="1"
       flexible="false"
       use_knot_distance="true"
       apply_no_radius="true"
       apply_with_radius="true"
       only_selected="false"
       hide_knots="false" />
    <inkscape:path-effect
       effect="fillet_chamfer"
       id="path-effect5-4-5"
       is_visible="true"
       lpeversion="1"
       nodesatellites_param="F,0,0,1,0,0,0,1 @ F,0,0,1,0,2.0496102,0,1 @ F,0,0,1,0,0,0,1"
       radius="0"
       unit="px"
       method="auto"
       mode="F"
       chamfer_steps="1"
       flexible="false"
       use_knot_distance="true"
       apply_no_radius="true"
       apply_with_radius="true"
       only_selected="false"
       hide_knots="false" />
    <inkscape:path-effect
       effect="fillet_chamfer"
       id="path-effect6-4"
       is_visible="true"
       lpeversion="1"
       nodesatellites_param="F,0,0,1,0,0,0,1 @ F,0,0,1,0,0,0,1 @ F,0,0,1,0,0,0,1 @ F,0,0,1,0,0.81127076,0,1 @ F,0,0,1,0,0.39996903,0,1 @ F,0,0,1,0,0,0,1"
       radius="0"
       unit="px"
       method="auto"
       mode="F"
       chamfer_steps="1"
       flexible="false"
       use_knot_distance="true"
       apply_no_radius="true"
       apply_with_radius="true"
       only_selected="false"
       hide_knots="false" />
    <inkscape:path-effect
       effect="fillet_chamfer"
       id="path-effect6-1"
       is_visible="true"
       lpeversion="1"
       nodesatellites_param="F,0,0,1,0,0,0,1 @ F,0,0,1,0,0,0,1 @ F,0,0,1,0,0,0,1 @ F,0,0,1,0,0,0,1 @ F,0,0,1,0,0,0,1 @ F,0,0,1,0,0,0,1 @ F,0,0,1,0,0,0,1 @ F,0,0,1,0,0,0,1"
       radius="0"
       unit="px"
       method="auto"
       mode="F"
       chamfer_steps="1"
       flexible="false"
       use_knot_distance="true"
       apply_no_radius="true"
       apply_with_radius="true"
       only_selected="false"
       hide_knots="false" />
    <inkscape:path-effect
       effect="fillet_chamfer"
       id="path-effect6-7"
       is_visible="true"
       lpeversion="1"
       nodesatellites_param="F,0,0,1,0,0,0,1 @ F,0,0,1,0,0,0,1 @ F,0,0,1,0,0,0,1 @ F,0,0,1,0,0,0,1 @ F,0,0,1,0,0,0,1 @ F,0,0,1,0,0,0,1 @ F,0,0,1,0,0,0,1 @ F,0,0,1,0,0,0,1"
       radius="0"
       unit="px"
       method="auto"
       mode="F"
       chamfer_steps="1"
       flexible="false"
       use_knot_distance="true"
       apply_no_radius="true"
       apply_with_radius="true"
       only_selected="false"
       hide_knots="false" />
    <inkscape:path-effect
       effect="fillet_chamfer"
       id="path-effect6-12"
       is_visible="true"
       lpeversion="1"
       nodesatellites_param="F,0,0,1,0,0,0,1 @ F,0,0,1,0,0,0,1 @ F,0,0,1,0,0,0,1 @ F,0,0,1,0,0,0,1 @ F,0,0,1,0,0,0,1 @ F,0,0,1,0,0,0,1 @ F,0,0,1,0,0,0,1 @ F,0,0,1,0,0,0,1"
       radius="0"
       unit="px"
       method="auto"
       mode="F"
       chamfer_steps="1"
       flexible="false"
       use_knot_distance="true"
       apply_no_radius="true"
       apply_with_radius="true"
       only_selected="false"
       hide_knots="false" />
    <inkscape:path-effect
       effect="fillet_chamfer"
       id="path-effect6-2"
       is_visible="true"
       lpeversion="1"
       nodesatellites_param="F,0,0,1,0,0,0,1 @ F,0,0,1,0,0,0,1 @ F,0,0,1,0,0,0,1 @ F,0,0,1,0,0,0,1 @ F,0,0,1,0,0,0,1 @ F,0,0,1,0,0,0,1 @ F,0,0,1,0,0,0,1 @ F,0,0,1,0,0,0,1"
       radius="0"
       unit="px"
       method="auto"
       mode="F"
       chamfer_steps="1"
       flexible="false"
       use_knot_distance="true"
       apply_no_radius="true"
       apply_with_radius="true"
       only_selected="false"
       hide_knots="false" />
    <inkscape:path-effect
       effect="fillet_chamfer"
       id="path-effect6-1-7"
       is_visible="true"
       lpeversion="1"
       nodesatellites_param="F,0,0,1,0,0,0,1 @ F,0,0,1,0,0,0,1 @ F,0,0,1,0,0,0,1 @ F,0,0,1,0,0,0,1 @ F,0,0,1,0,0,0,1 @ F,0,0,1,0,0,0,1 @ F,0,0,1,0,0,0,1 @ F,0,0,1,0,0,0,1"
       radius="0"
       unit="px"
       method="auto"
       mode="F"
       chamfer_steps="1"
       flexible="false"
       use_knot_distance="true"
       apply_no_radius="true"
       apply_with_radius="true"
       only_selected="false"
       hide_knots="false" />
    <inkscape:path-effect
       effect="fillet_chamfer"
       id="path-effect6-7-7"
       is_visible="true"
       lpeversion="1"
       nodesatellites_param="F,0,0,1,0,0,0,1 @ F,0,0,1,0,0,0,1 @ F,0,0,1,0,0,0,1 @ F,0,0,1,0,0,0,1 @ F,0,0,1,0,0,0,1 @ F,0,0,1,0,0,0,1 @ F,0,0,1,0,0,0,1 @ F,0,0,1,0,0,0,1"
       radius="0"
       unit="px"
       method="auto"
       mode="F"
       chamfer_steps="1"
       flexible="false"
       use_knot_distance="true"
       apply_no_radius="true"
       apply_with_radius="true"
       only_selected="false"
       hide_knots="false" />
    <inkscape:path-effect
       effect="fillet_chamfer"
       id="path-effect6-12-9"
       is_visible="true"
       lpeversion="1"
       nodesatellites_param="F,0,0,1,0,0,0,1 @ F,0,0,1,0,0,0,1 @ F,0,0,1,0,0,0,1 @ F,0,0,1,0,0,0,1 @ F,0,0,1,0,0,0,1 @ F,0,0,1,0,0,0,1 @ F,0,0,1,0,0,0,1 @ F,0,0,1,0,0,0,1"
       radius="0"
       unit="px"
       method="auto"
       mode="F"
       chamfer_steps="1"
       flexible="false"
       use_knot_distance="true"
       apply_no_radius="true"
       apply_with_radius="true"
       only_selected="false"
       hide_knots="false" />
    <inkscape:path-effect
       effect="fillet_chamfer"
       id="path-effect6-1-7-9"
       is_visible="true"
       lpeversion="1"
       nodesatellites_param="F,0,0,1,0,0,0,1 @ F,0,0,1,0,0,0,1 @ F,0,0,1,0,0,0,1 @ F,0,0,1,0,0,0,1 @ F,0,0,1,0,0,0,1 @ F,0,0,1,0,0,0,1 @ F,0,0,1,0,0,0,1"
       radius="0"
       unit="px"
       method="auto"
       mode="F"
       chamfer_steps="1"
       flexible="false"
       use_knot_distance="true"
       apply_no_radius="true"
       apply_with_radius="true"
       only_selected="false"
       hide_knots="false" />
    <inkscape:path-effect
       effect="fillet_chamfer"
       id="path-effect6-1-7-9-6"
       is_visible="true"
       lpeversion="1"
       nodesatellites_param="F,0,0,1,0,0,0,1 @ F,0,0,1,0,0,0,1 @ F,0,0,1,0,0,0,1 @ F,0,0,1,0,0,0,1 @ F,0,0,1,0,0,0,1 @ F,0,0,1,0,0,0,1 @ F,0,0,1,0,0,0,1"
       radius="0"
       unit="px"
       method="auto"
       mode="F"
       chamfer_steps="1"
       flexible="false"
       use_knot_distance="true"
       apply_no_radius="true"
       apply_with_radius="true"
       only_selected="false"
       hide_knots="false" />
  </defs>
  <g
     inkscape:label="Ebene 1"
     inkscape:groupmode="layer"
     id="layer1"
     transform="translate(138.80001,10.686892)">
    <path
       d="m 29.30479,55.075918 c -1.142611,0.04801 -2.282651,0.216862 -3.398751,0.504161 l -9.513608,2.445445 0.0021,-0.0017 c -4.405355,1.131052 -8.4240682,4.169825 -11.0897351,8.383529 v 0.0025 l -2.0903067,3.302435 -4.4136734,3.998594 c -3.5234379,3.190299 -6.0074259,7.881107 -6.8636469,12.962833 l -0.0015,0.0072 -2.5021679,14.886755 -1.638655,9.73993 c -0.39892,2.36746 -0.455064,4.81038 -0.163814,7.19877 v 0.002 l 0.692979,5.67374 -0.767393,3.77672 v 0.002 c -0.767881,3.77913 -0.640918,7.79537 0.365351,11.49879 l 2.2928782,8.44214 0.0021,0.004 c 1.1624987,4.27661 3.4999317,8.11409 6.5897627,10.81822 l 7.181457,6.28794 0.00413,0.002 c 0.9760869,0.85386 2.0241228,1.59687 3.1248663,2.2152 l 5.0957998,2.86169 4.89633,5.59899 c 2.709646,3.09758 6.25096,5.20785 10.004017,5.95841 h 0.0021 l 17.517235,3.50101 33.42992,9.78776 0.0057,0.002 c 3.392545,0.99161 7.024539,0.85645 10.355415,-0.38395 l 5.589827,-2.08183 c 0.926229,-0.34422 1.82844,-0.77093 2.697503,-1.27685 l 0.0078,-0.004 4.47672,-2.6105 6.9453,-0.552 c 0,0 2.94671,1.49141 6.74222,2.35094 l 12.30051,2.78694 0.01,0.002 c 1.20117,0.27079 2.42666,0.40674 3.65041,0.40249 l 34.48618,-0.0837 c 1.82158,-0.003 3.64245,-0.31465 5.38674,-0.92221 l 0.006,-0.002 6.59338,-2.30071 8.96326,-1.72958 4.5625,1.46282 0.0114,0.004 c 0.93603,0.29892 1.89095,0.51424 2.85563,0.64231 l 25.76943,3.44898 c 3.22524,0.43207 6.54472,-0.12378 9.53117,-1.59802 l 0.004,-0.002 6.98612,-3.45137 h 0.002 c 5.40917,-2.67437 9.5931,-8.45451 10.92179,-15.08594 l 1.75028,-8.73158 0.008,-0.0406 c 0.0506,-0.24911 0.0976,-0.49958 0.14056,-0.75057 0.004,-0.0212 0.008,-0.0423 0.0119,-0.0635 l 3.46076,-20.77463 0.38085,-0.71227 0.88263,-0.98799 c 4.77854,-5.34767 6.80366,-13.76869 5.09994,-21.20461 v -0.002 l -0.74259,-3.23728 -0.002,-0.009 c -0.50131,-2.18171 -1.29895,-4.27179 -2.35386,-6.17073 l -6.05439,-10.90612 -0.006,-0.009 c -0.53406,-0.962465 -1.13247,-1.877336 -1.79059,-2.730707 l -0.006,-0.0072 -3.90983,-5.063127 c -0.0531,-0.821818 0.0268,-1.652117 -0.10748,-2.461597 -0.0112,-0.07028 -0.0229,-0.140454 -0.0351,-0.210514 l -0.74053,-4.095473 v -0.0025 c -0.79822,-4.420406 -2.82185,-8.533545 -5.69886,-11.584318 l -8.27544,-8.774657 -0.004,-0.0047 c -0.23583,-0.250121 -0.47794,-0.494364 -0.7245,-0.730224 l -0.006,-0.0041 -2.30688,-2.20201 v -0.0025 c -3.33298,-3.18337 -7.63956,-4.973034 -11.961,-4.972824 h -13.99601 -0.004 c -0.53904,-9e-5 -1.07783,0.02781 -1.61488,0.08134 h -0.004 l -34.60142,3.462736 -7.74214,-2.328227 -0.008,-0.0025 c -1.58087,-0.473643 -3.21482,-0.707764 -4.84776,-0.693744 h -0.004 l -10.24793,0.08612 h -0.004 c -0.61349,0.0053 -1.22803,0.04482 -1.83812,0.11961 l -10.95331,1.338446 -8.56225,0.381559 -2.85563,-1.206875 -0.004,-0.0025 c -2.07151,-0.874989 -4.27764,-1.322991 -6.4828,-1.317515 h -0.004 l -34.758017,0.08134 c -1.754941,0.0038 -3.509446,0.293408 -5.195019,0.858805 l -0.0062,0.0025 -5.13981,1.729402 -15.923537,-1.993318 -16.404127,-2.809661 -0.0083,-0.0025 c -1.131165,-0.192862 -2.27681,-0.26511 -3.419421,-0.217094 z m 0.862994,13.154809 c 0.300825,0.0084 0.600931,0.03792 0.898651,0.08851 l 16.624785,2.848534 18.382813,2.300716 7.300829,-2.454416 c 0.666421,-0.223554 1.356665,-0.3377 2.050516,-0.339096 l 34.762152,-0.08134 c 0.87262,-0.0024 1.73875,0.173518 2.55849,0.519709 l 4.96093,2.097377 11.17758,-0.499375 11.33623,-1.383299 c 0.24069,-0.02943 0.48248,-0.0452 0.7245,-0.04725 l 10.25207,-0.08611 c 0.64559,-0.0058 1.28907,0.08611 1.91409,0.273309 l 9.63246,2.895781 36.55065,-3.657105 c 0.21241,-0.02119 0.42552,-0.03176 0.63872,-0.03169 h 14.00015 c 1.72218,-4.95e-4 3.39075,0.693095 4.71908,1.961619 l 2.30631,2.203829 c 0.0979,0.09362 0.19371,0.19014 0.28732,0.28946 l 8.27906,8.779441 c 1.14431,1.213479 1.93058,2.812081 2.24792,4.570339 l 0.74052,4.097858 c 0.25988,1.565864 0.13748,3.184564 -0.35346,4.674388 l 7.06053,9.141244 c 0.2606,0.33781 0.49767,0.69897 0.709,1.0801 l 6.0606,10.91568 c 0.41761,0.75119 0.73128,1.57325 0.92966,2.43648 l 0.74207,3.23906 c 0.68866,3.0044 -0.081,6.20488 -2.01176,8.36559 l -1.89446,2.12069 -2.23448,4.16128 -3.85919,23.16385 c -0.018,0.10447 -0.0376,0.20855 -0.0589,0.31218 l -1.76164,8.79259 c -0.5336,2.66566 -2.13409,4.87673 -4.30826,5.95186 l -6.98663,3.45136 c -1.18514,0.58513 -2.48161,0.8026 -3.76152,0.63095 l -25.77924,-3.45197 c -0.38077,-0.0505 -0.75759,-0.13506 -1.12706,-0.25298 l -6.98664,-2.2397 -12.16409,2.34376 -7.29101,2.54532 c -0.68929,0.23998 -1.40512,0.36248 -2.12493,0.36363 l -34.50375,0.0836 c -0.48305,0.002 -0.96507,-0.0515 -1.43919,-0.15848 l -12.30102,-2.78695 c -1.50941,-0.34181 -2.88955,-1.2186 -3.94911,-2.50883 l -0.39274,-0.48143 -14.599604,1.15724 -6.527231,3.80662 c -0.343024,0.19971 -0.698939,0.36827 -1.064532,0.50416 l -5.59551,2.08362 c -1.322776,0.49295 -2.738659,0.54559 -4.086046,0.15191 L 46.999801,172.26223 29.050553,168.6751 c -1.492259,-0.29839 -2.86973,-1.11863 -3.947037,-2.35035 l -5.898333,-6.74306 1.567859,0.31218 c -0.685308,-0.13709 -1.350534,-0.38512 -1.976102,-0.7368 l -6.711202,-3.77074 c -0.435179,-0.24415 -0.848666,-0.537 -1.234547,-0.87437 L 3.6676674,148.22342 C 2.4390743,147.14804 1.53053,145.65635 1.0683492,143.95575 l -2.2928778,-8.44454 c -0.3994412,-1.46979 -0.4494232,-3.03697 -0.1446937,-4.53684 l 1.25780145,-6.18628 -0.99218515,-8.12158 c -0.1151545,-0.94469 -0.093323,-1.90499 0.064595,-2.84136 l 1.64020595,-9.7423 2.50216685,-14.889154 c 0.3414908,-2.026833 1.3033231,-3.84306 2.708872,-5.115161 l 5.6544212,-5.121739 3.01738,-4.771877 c 1.063224,-1.680436 2.618441,-2.855759 4.375433,-3.306644 l 9.517226,-2.446044 c 0.587744,-0.151125 1.189209,-0.218805 1.7911,-0.201545 z"
       style="fill:#9672e8;stroke:#2f2434;stroke-width:0;stroke-linecap:round;paint-order:fill markers stroke"
       id="path80"
       sodipodi:nodetypes="ccccccccccccccccccccccccccccccccccccccccccccccccccsccccccccccccccscccccccccccccccccccscccccsccscccccscccccccccccccccccccccccccccccccsccccccccccccccccccccccccccccccccccccccccccccccccccccccccc" />
  </g>
</svg>
