<?xml version="1.0" encoding="UTF-8" standalone="no"?>
<!-- Created with Inkscape (http://www.inkscape.org/) -->

<svg
   width="2000.11"
   height="895.69"
   viewBox="0 0 529.1947 236.98398"
   version="1.1"
   id="svg1"
   inkscape:version="1.4.2 (f4327f4, 2025-05-13)"
   sodipodi:docname="CountDownContainerDecoTailVirus.svg"
   xmlns:inkscape="http://www.inkscape.org/namespaces/inkscape"
   xmlns:sodipodi="http://sodipodi.sourceforge.net/DTD/sodipodi-0.dtd"
   xmlns="http://www.w3.org/2000/svg"
   xmlns:svg="http://www.w3.org/2000/svg">
  <sodipodi:namedview
     id="namedview1"
     pagecolor="#ffffff"
     bordercolor="#000000"
     borderopacity="0.25"
     inkscape:showpageshadow="2"
     inkscape:pageopacity="0.0"
     inkscape:pagecheckerboard="0"
     inkscape:deskcolor="#d1d1d1"
     inkscape:document-units="mm"
     inkscape:zoom="1.1357605"
     inkscape:cx="769.52843"
     inkscape:cy="508.46988"
     inkscape:window-width="3840"
     inkscape:window-height="2054"
     inkscape:window-x="-11"
     inkscape:window-y="-11"
     inkscape:window-maximized="1"
     inkscape:current-layer="layer1"
     showgrid="true">
    <inkscape:grid
       id="grid1"
       units="mm"
       originx="139"
       originy="10.68689"
       spacingx="0.99999999"
       spacingy="0.99999998"
       empcolor="#0099e5"
       empopacity="0.30196078"
       color="#0099e5"
       opacity="0.14901961"
       empspacing="5"
       enabled="true"
       visible="true" />
  </sodipodi:namedview>
  <defs
     id="defs1">
    <inkscape:path-effect
       effect="fillet_chamfer"
       id="path-effect6"
       is_visible="true"
       lpeversion="1"
       nodesatellites_param="F,0,0,1,0,0,0,1 @ F,0,0,1,0,0,0,1 @ F,0,0,1,0,0,0,1 @ F,0,0,1,0,0,0,1 @ F,0,0,1,0,0,0,1 @ F,0,0,1,0,0,0,1 @ F,0,0,1,0,0,0,1 @ F,0,0,1,0,0,0,1 @ F,0,0,1,0,0,0,1"
       radius="0"
       unit="px"
       method="auto"
       mode="F"
       chamfer_steps="1"
       flexible="false"
       use_knot_distance="true"
       apply_no_radius="true"
       apply_with_radius="true"
       only_selected="false"
       hide_knots="false" />
    <inkscape:path-effect
       effect="mirror_symmetry"
       start_point="77.199904,69.000027"
       end_point="77.199904,93.044622"
       center_point="77.199904,81.022324"
       id="path-effect2"
       is_visible="true"
       lpeversion="1.2"
       lpesatellites=""
       mode="free"
       discard_orig_path="false"
       fuse_paths="false"
       oposite_fuse="false"
       split_items="false"
       split_open="false"
       link_styles="false" />
    <inkscape:path-effect
       effect="fillet_chamfer"
       id="path-effect5"
       is_visible="true"
       lpeversion="1"
       nodesatellites_param="F,0,0,1,0,0,0,1 @ F,0,0,1,0,2.0496102,0,1 @ F,0,0,1,0,0,0,1"
       radius="0"
       unit="px"
       method="auto"
       mode="F"
       chamfer_steps="1"
       flexible="false"
       use_knot_distance="true"
       apply_no_radius="true"
       apply_with_radius="true"
       only_selected="false"
       hide_knots="false" />
    <inkscape:path-effect
       effect="fillet_chamfer"
       id="path-effect28"
       is_visible="true"
       lpeversion="1"
       nodesatellites_param="F,0,0,1,0,0,0,1 @ F,0,0,1,0,0,0,1 @ F,0,0,1,0,0,0,1 @ F,0,0,1,0,0,0,1 @ F,0,0,1,0,0,0,1 @ F,0,0,1,0,0,0,1 @ F,0,0,1,0,0,0,1 @ F,0,0,1,0,0,0,1 @ F,0,0,1,0,0,0,1 @ F,0,0,1,0,0,0,1 @ F,0,0,1,0,0,0,1 @ F,0,0,1,0,0,0,1 | F,0,0,1,0,0,0,1 @ F,0,0,1,0,0,0,1 @ F,0,0,1,0,0,0,1 @ F,0,0,1,0,0,0,1 @ F,0,0,1,0,0,0,1 @ F,0,0,1,0,0,0,1 @ F,0,0,1,0,0,0,1 @ F,0,0,1,0,0,0,1 @ F,0,0,1,0,0,0,1 @ F,0,0,1,0,0,0,1 @ F,0,0,1,0,0,0,1"
       radius="0"
       unit="px"
       method="auto"
       mode="F"
       chamfer_steps="1"
       flexible="false"
       use_knot_distance="true"
       apply_no_radius="true"
       apply_with_radius="true"
       only_selected="false"
       hide_knots="false" />
    <inkscape:path-effect
       effect="powerstroke"
       message=""
       id="path-effect4"
       is_visible="true"
       lpeversion="1.3"
       scale_width="1"
       interpolator_type="CentripetalCatmullRom"
       interpolator_beta="0.75"
       start_linecap_type="round"
       end_linecap_type="round"
       offset_points="10.839744,0.43679433"
       linejoin_type="spiro"
       miter_limit="4"
       not_jump="true"
       sort_points="true" />
    <inkscape:path-effect
       effect="simplify"
       id="path-effect3"
       is_visible="true"
       lpeversion="1.3"
       threshold="0.012"
       steps="1"
       smooth_angles="0"
       helper_size="0"
       simplify_individual_paths="false"
       simplify_just_coalesce="false"
       step="1" />
    <inkscape:path-effect
       effect="fillet_chamfer"
       id="path-effect5-4"
       is_visible="true"
       lpeversion="1"
       nodesatellites_param="F,0,0,1,0,0,0,1 @ F,0,0,1,0,2.0496102,0,1 @ F,0,0,1,0,0,0,1"
       radius="0"
       unit="px"
       method="auto"
       mode="F"
       chamfer_steps="1"
       flexible="false"
       use_knot_distance="true"
       apply_no_radius="true"
       apply_with_radius="true"
       only_selected="false"
       hide_knots="false" />
    <inkscape:path-effect
       effect="fillet_chamfer"
       id="path-effect5-4-5"
       is_visible="true"
       lpeversion="1"
       nodesatellites_param="F,0,0,1,0,0,0,1 @ F,0,0,1,0,2.0496102,0,1 @ F,0,0,1,0,0,0,1"
       radius="0"
       unit="px"
       method="auto"
       mode="F"
       chamfer_steps="1"
       flexible="false"
       use_knot_distance="true"
       apply_no_radius="true"
       apply_with_radius="true"
       only_selected="false"
       hide_knots="false" />
    <inkscape:path-effect
       effect="fillet_chamfer"
       id="path-effect6-4"
       is_visible="true"
       lpeversion="1"
       nodesatellites_param="F,0,0,1,0,0,0,1 @ F,0,0,1,0,0,0,1 @ F,0,0,1,0,0,0,1 @ F,0,0,1,0,0.81127076,0,1 @ F,0,0,1,0,0.39996903,0,1 @ F,0,0,1,0,0,0,1"
       radius="0"
       unit="px"
       method="auto"
       mode="F"
       chamfer_steps="1"
       flexible="false"
       use_knot_distance="true"
       apply_no_radius="true"
       apply_with_radius="true"
       only_selected="false"
       hide_knots="false" />
    <inkscape:path-effect
       effect="fillet_chamfer"
       id="path-effect6-1"
       is_visible="true"
       lpeversion="1"
       nodesatellites_param="F,0,0,1,0,0,0,1 @ F,0,0,1,0,0,0,1 @ F,0,0,1,0,0,0,1 @ F,0,0,1,0,0,0,1 @ F,0,0,1,0,0,0,1 @ F,0,0,1,0,0,0,1 @ F,0,0,1,0,0,0,1 @ F,0,0,1,0,0,0,1"
       radius="0"
       unit="px"
       method="auto"
       mode="F"
       chamfer_steps="1"
       flexible="false"
       use_knot_distance="true"
       apply_no_radius="true"
       apply_with_radius="true"
       only_selected="false"
       hide_knots="false" />
    <inkscape:path-effect
       effect="fillet_chamfer"
       id="path-effect6-7"
       is_visible="true"
       lpeversion="1"
       nodesatellites_param="F,0,0,1,0,0,0,1 @ F,0,0,1,0,0,0,1 @ F,0,0,1,0,0,0,1 @ F,0,0,1,0,0,0,1 @ F,0,0,1,0,0,0,1 @ F,0,0,1,0,0,0,1 @ F,0,0,1,0,0,0,1 @ F,0,0,1,0,0,0,1"
       radius="0"
       unit="px"
       method="auto"
       mode="F"
       chamfer_steps="1"
       flexible="false"
       use_knot_distance="true"
       apply_no_radius="true"
       apply_with_radius="true"
       only_selected="false"
       hide_knots="false" />
    <inkscape:path-effect
       effect="fillet_chamfer"
       id="path-effect6-12"
       is_visible="true"
       lpeversion="1"
       nodesatellites_param="F,0,0,1,0,0,0,1 @ F,0,0,1,0,0,0,1 @ F,0,0,1,0,0,0,1 @ F,0,0,1,0,0,0,1 @ F,0,0,1,0,0,0,1 @ F,0,0,1,0,0,0,1 @ F,0,0,1,0,0,0,1 @ F,0,0,1,0,0,0,1"
       radius="0"
       unit="px"
       method="auto"
       mode="F"
       chamfer_steps="1"
       flexible="false"
       use_knot_distance="true"
       apply_no_radius="true"
       apply_with_radius="true"
       only_selected="false"
       hide_knots="false" />
    <inkscape:path-effect
       effect="fillet_chamfer"
       id="path-effect6-2"
       is_visible="true"
       lpeversion="1"
       nodesatellites_param="F,0,0,1,0,0,0,1 @ F,0,0,1,0,0,0,1 @ F,0,0,1,0,0,0,1 @ F,0,0,1,0,0,0,1 @ F,0,0,1,0,0,0,1 @ F,0,0,1,0,0,0,1 @ F,0,0,1,0,0,0,1 @ F,0,0,1,0,0,0,1"
       radius="0"
       unit="px"
       method="auto"
       mode="F"
       chamfer_steps="1"
       flexible="false"
       use_knot_distance="true"
       apply_no_radius="true"
       apply_with_radius="true"
       only_selected="false"
       hide_knots="false" />
    <inkscape:path-effect
       effect="fillet_chamfer"
       id="path-effect6-1-7"
       is_visible="true"
       lpeversion="1"
       nodesatellites_param="F,0,0,1,0,0,0,1 @ F,0,0,1,0,0,0,1 @ F,0,0,1,0,0,0,1 @ F,0,0,1,0,0,0,1 @ F,0,0,1,0,0,0,1 @ F,0,0,1,0,0,0,1 @ F,0,0,1,0,0,0,1 @ F,0,0,1,0,0,0,1"
       radius="0"
       unit="px"
       method="auto"
       mode="F"
       chamfer_steps="1"
       flexible="false"
       use_knot_distance="true"
       apply_no_radius="true"
       apply_with_radius="true"
       only_selected="false"
       hide_knots="false" />
    <inkscape:path-effect
       effect="fillet_chamfer"
       id="path-effect6-7-7"
       is_visible="true"
       lpeversion="1"
       nodesatellites_param="F,0,0,1,0,0,0,1 @ F,0,0,1,0,0,0,1 @ F,0,0,1,0,0,0,1 @ F,0,0,1,0,0,0,1 @ F,0,0,1,0,0,0,1 @ F,0,0,1,0,0,0,1 @ F,0,0,1,0,0,0,1 @ F,0,0,1,0,0,0,1"
       radius="0"
       unit="px"
       method="auto"
       mode="F"
       chamfer_steps="1"
       flexible="false"
       use_knot_distance="true"
       apply_no_radius="true"
       apply_with_radius="true"
       only_selected="false"
       hide_knots="false" />
    <inkscape:path-effect
       effect="fillet_chamfer"
       id="path-effect6-12-9"
       is_visible="true"
       lpeversion="1"
       nodesatellites_param="F,0,0,1,0,0,0,1 @ F,0,0,1,0,0,0,1 @ F,0,0,1,0,0,0,1 @ F,0,0,1,0,0,0,1 @ F,0,0,1,0,0,0,1 @ F,0,0,1,0,0,0,1 @ F,0,0,1,0,0,0,1 @ F,0,0,1,0,0,0,1"
       radius="0"
       unit="px"
       method="auto"
       mode="F"
       chamfer_steps="1"
       flexible="false"
       use_knot_distance="true"
       apply_no_radius="true"
       apply_with_radius="true"
       only_selected="false"
       hide_knots="false" />
    <inkscape:path-effect
       effect="fillet_chamfer"
       id="path-effect6-1-7-9"
       is_visible="true"
       lpeversion="1"
       nodesatellites_param="F,0,0,1,0,0,0,1 @ F,0,0,1,0,0,0,1 @ F,0,0,1,0,0,0,1 @ F,0,0,1,0,0,0,1 @ F,0,0,1,0,0,0,1 @ F,0,0,1,0,0,0,1 @ F,0,0,1,0,0,0,1"
       radius="0"
       unit="px"
       method="auto"
       mode="F"
       chamfer_steps="1"
       flexible="false"
       use_knot_distance="true"
       apply_no_radius="true"
       apply_with_radius="true"
       only_selected="false"
       hide_knots="false" />
    <inkscape:path-effect
       effect="fillet_chamfer"
       id="path-effect6-1-7-9-6"
       is_visible="true"
       lpeversion="1"
       nodesatellites_param="F,0,0,1,0,0,0,1 @ F,0,0,1,0,0,0,1 @ F,0,0,1,0,0,0,1 @ F,0,0,1,0,0,0,1 @ F,0,0,1,0,0,0,1 @ F,0,0,1,0,0,0,1 @ F,0,0,1,0,0,0,1"
       radius="0"
       unit="px"
       method="auto"
       mode="F"
       chamfer_steps="1"
       flexible="false"
       use_knot_distance="true"
       apply_no_radius="true"
       apply_with_radius="true"
       only_selected="false"
       hide_knots="false" />
  </defs>
  <g
     inkscape:label="Ebene 1"
     inkscape:groupmode="layer"
     id="layer1"
     transform="translate(138.80001,10.686892)">
    <path
       sodipodi:type="star"
       style="fill:#433f7f;fill-opacity:1;stroke:#3e2f60;stroke-width:0;stroke-linecap:round;stroke-dasharray:none;stroke-opacity:1;paint-order:fill markers stroke"
       id="path80-1"
       inkscape:flatsided="false"
       sodipodi:sides="5"
       sodipodi:cx="136.49623"
       sodipodi:cy="94.027016"
       sodipodi:r1="1.5975889"
       sodipodi:r2="1.7750988"
       sodipodi:arg1="0.85505274"
       sodipodi:arg2="1.4833713"
       inkscape:rounded="0.2"
       inkscape:randomized="2.7755576e-17"
       d="m 137.54453,95.232565 c -0.15934,0.138559 -0.68295,0.544333 -0.89331,0.56277 -0.21035,0.01844 -0.79657,-0.290061 -0.97759,-0.398788 -0.18102,-0.108727 -0.72874,-0.481325 -0.81128,-0.675686 -0.0825,-0.194361 0.0297,-0.847222 0.0772,-1.052978 0.0475,-0.205756 0.23258,-0.841808 0.39192,-0.980367 0.15934,-0.138559 0.81494,-0.233551 1.02529,-0.251988 0.21035,-0.01844 0.87248,-0.03894 1.05349,0.06979 0.18102,0.108727 0.47395,0.70288 0.55649,0.897241 0.0825,0.194361 0.30665,0.817741 0.25918,1.023497 -0.0475,0.205756 -0.52202,0.667954 -0.68137,0.806513 z"
       inkscape:transform-center-x="0.057154832"
       inkscape:transform-center-y="-0.14653643"
       transform="matrix(1.2806157,0,0,1.2806157,-38.041425,-46.241335)" />
    <path
       sodipodi:type="star"
       style="fill:#7265cc;fill-opacity:1;stroke:#3e2f60;stroke-width:0;stroke-linecap:round;stroke-dasharray:none;stroke-opacity:1;paint-order:fill markers stroke"
       id="path80"
       inkscape:flatsided="false"
       sodipodi:sides="5"
       sodipodi:cx="136.49623"
       sodipodi:cy="94.027016"
       sodipodi:r1="1.5975889"
       sodipodi:r2="1.7750988"
       sodipodi:arg1="0.85505274"
       sodipodi:arg2="1.4833713"
       inkscape:rounded="0.2"
       inkscape:randomized="2.7755576e-17"
       d="m 137.54453,95.232565 c -0.15934,0.138559 -0.68295,0.544333 -0.89331,0.56277 -0.21035,0.01844 -0.79657,-0.290061 -0.97759,-0.398788 -0.18102,-0.108727 -0.72874,-0.481325 -0.81128,-0.675686 -0.0825,-0.194361 0.0297,-0.847222 0.0772,-1.052978 0.0475,-0.205756 0.23258,-0.841808 0.39192,-0.980367 0.15934,-0.138559 0.81494,-0.233551 1.02529,-0.251988 0.21035,-0.01844 0.87248,-0.03894 1.05349,0.06979 0.18102,0.108727 0.47395,0.70288 0.55649,0.897241 0.0825,0.194361 0.30665,0.817741 0.25918,1.023497 -0.0475,0.205756 -0.52202,0.667954 -0.68137,0.806513 z"
       inkscape:transform-center-x="0.035749663"
       inkscape:transform-center-y="-0.09165207"
       transform="matrix(0.80095163,0,0,0.80095163,27.061946,-1.4852437)" />
    <path
       sodipodi:type="star"
       style="fill:#433f7f;fill-opacity:1;stroke:#3e2f60;stroke-width:0;stroke-linecap:round;stroke-dasharray:none;stroke-opacity:1;paint-order:fill markers stroke"
       id="path80-1-1"
       inkscape:flatsided="false"
       sodipodi:sides="5"
       sodipodi:cx="136.49623"
       sodipodi:cy="94.027016"
       sodipodi:r1="1.5975889"
       sodipodi:r2="1.7750988"
       sodipodi:arg1="0.85505274"
       sodipodi:arg2="1.4833713"
       inkscape:rounded="0.2"
       inkscape:randomized="2.7755576e-17"
       d="m 137.54453,95.232565 c -0.15934,0.138559 -0.68295,0.544333 -0.89331,0.56277 -0.21035,0.01844 -0.79657,-0.290061 -0.97759,-0.398788 -0.18102,-0.108727 -0.72874,-0.481325 -0.81128,-0.675686 -0.0825,-0.194361 0.0297,-0.847222 0.0772,-1.052978 0.0475,-0.205756 0.23258,-0.841808 0.39192,-0.980367 0.15934,-0.138559 0.81494,-0.233551 1.02529,-0.251988 0.21035,-0.01844 0.87248,-0.03894 1.05349,0.06979 0.18102,0.108727 0.47395,0.70288 0.55649,0.897241 0.0825,0.194361 0.30665,0.817741 0.25918,1.023497 -0.0475,0.205756 -0.52202,0.667954 -0.68137,0.806513 z"
       inkscape:transform-center-x="0.35546344"
       inkscape:transform-center-y="-0.093478866"
       transform="matrix(0.82053205,-0.91789064,0.91789064,0.82053205,-49.324296,121.60258)" />
    <path
       sodipodi:type="star"
       style="fill:#7265cc;fill-opacity:1;stroke:#3e2f60;stroke-width:0;stroke-linecap:round;stroke-dasharray:none;stroke-opacity:1;paint-order:fill markers stroke"
       id="path80-7"
       inkscape:flatsided="false"
       sodipodi:sides="5"
       sodipodi:cx="136.49623"
       sodipodi:cy="94.027016"
       sodipodi:r1="1.5975889"
       sodipodi:r2="1.7750988"
       sodipodi:arg1="0.85505274"
       sodipodi:arg2="1.4833713"
       inkscape:rounded="0.2"
       inkscape:randomized="2.7755576e-17"
       d="m 137.54453,95.232565 c -0.15934,0.138559 -0.68295,0.544333 -0.89331,0.56277 -0.21035,0.01844 -0.79657,-0.290061 -0.97759,-0.398788 -0.18102,-0.108727 -0.72874,-0.481325 -0.81128,-0.675686 -0.0825,-0.194361 0.0297,-0.847222 0.0772,-1.052978 0.0475,-0.205756 0.23258,-0.841808 0.39192,-0.980367 0.15934,-0.138559 0.81494,-0.233551 1.02529,-0.251988 0.21035,-0.01844 0.87248,-0.03894 1.05349,0.06979 0.18102,0.108727 0.47395,0.70288 0.55649,0.897241 0.0825,0.194361 0.30665,0.817741 0.25918,1.023497 -0.0475,0.205756 -0.52202,0.667954 -0.68137,0.806513 z"
       inkscape:transform-center-x="0.22232125"
       inkscape:transform-center-y="-0.058471349"
       transform="matrix(0.51319573,-0.57408794,0.57408794,0.51319573,24.468801,103.61594)" />
    <path
       sodipodi:type="star"
       style="fill:#433f7f;fill-opacity:1;stroke:#3e2f60;stroke-width:0;stroke-linecap:round;stroke-dasharray:none;stroke-opacity:1;paint-order:fill markers stroke"
       id="path80-1-3"
       inkscape:flatsided="false"
       sodipodi:sides="5"
       sodipodi:cx="136.49623"
       sodipodi:cy="94.027016"
       sodipodi:r1="1.5975889"
       sodipodi:r2="1.7750988"
       sodipodi:arg1="0.85505274"
       sodipodi:arg2="1.4833713"
       inkscape:rounded="0.2"
       inkscape:randomized="2.7755576e-17"
       d="m 137.54453,95.232565 c -0.15934,0.138559 -0.68295,0.544333 -0.89331,0.56277 -0.21035,0.01844 -0.79657,-0.290061 -0.97759,-0.398788 -0.18102,-0.108727 -0.72874,-0.481325 -0.81128,-0.675686 -0.0825,-0.194361 0.0297,-0.847222 0.0772,-1.052978 0.0475,-0.205756 0.23258,-0.841808 0.39192,-0.980367 0.15934,-0.138559 0.81494,-0.233551 1.02529,-0.251988 0.21035,-0.01844 0.87248,-0.03894 1.05349,0.06979 0.18102,0.108727 0.47395,0.70288 0.55649,0.897241 0.0825,0.194361 0.30665,0.817741 0.25918,1.023497 -0.0475,0.205756 -0.52202,0.667954 -0.68137,0.806513 z"
       inkscape:transform-center-x="0.085865317"
       inkscape:transform-center-y="-0.30071688"
       transform="matrix(1.1181818,0.567155,-0.567155,1.1181818,-26.793034,-104.92271)" />
    <path
       sodipodi:type="star"
       style="fill:#7265cc;fill-opacity:1;stroke:#3e2f60;stroke-width:0;stroke-linecap:round;stroke-dasharray:none;stroke-opacity:1;paint-order:fill markers stroke"
       id="path80-5"
       inkscape:flatsided="false"
       sodipodi:sides="5"
       sodipodi:cx="136.49623"
       sodipodi:cy="94.027016"
       sodipodi:r1="1.5975889"
       sodipodi:r2="1.7750988"
       sodipodi:arg1="0.85505274"
       sodipodi:arg2="1.4833713"
       inkscape:rounded="0.2"
       inkscape:randomized="2.7755576e-17"
       d="m 137.54453,95.232565 c -0.15934,0.138559 -0.68295,0.544333 -0.89331,0.56277 -0.21035,0.01844 -0.79657,-0.290061 -0.97759,-0.398788 -0.18102,-0.108727 -0.72874,-0.481325 -0.81128,-0.675686 -0.0825,-0.194361 0.0297,-0.847222 0.0772,-1.052978 0.0475,-0.205756 0.23258,-0.841808 0.39192,-0.980367 0.15934,-0.138559 0.81494,-0.233551 1.02529,-0.251988 0.21035,-0.01844 0.87248,-0.03894 1.05349,0.06979 0.18102,0.108727 0.47395,0.70288 0.55649,0.897241 0.0825,0.194361 0.30665,0.817741 0.25918,1.023497 -0.0475,0.205756 -0.52202,0.667954 -0.68137,0.806513 z"
       inkscape:transform-center-x="0.053703331"
       inkscape:transform-center-y="-0.18807916"
       transform="matrix(0.69935856,0.35472291,-0.35472291,0.69935856,10.231164,-37.010716)" />
    <path
       sodipodi:type="star"
       style="fill:#433f7f;fill-opacity:1;stroke:#3e2f60;stroke-width:0;stroke-linecap:round;stroke-dasharray:none;stroke-opacity:1;paint-order:fill markers stroke"
       id="path80-1-8"
       inkscape:flatsided="false"
       sodipodi:sides="5"
       sodipodi:cx="136.49623"
       sodipodi:cy="94.027016"
       sodipodi:r1="1.5975889"
       sodipodi:r2="1.7750988"
       sodipodi:arg1="0.85505274"
       sodipodi:arg2="1.4833713"
       inkscape:rounded="0.2"
       inkscape:randomized="2.7755576e-17"
       d="m 137.54453,95.232565 c -0.15934,0.138559 -0.68295,0.544333 -0.89331,0.56277 -0.21035,0.01844 -0.79657,-0.290061 -0.97759,-0.398788 -0.18102,-0.108727 -0.72874,-0.481325 -0.81128,-0.675686 -0.0825,-0.194361 0.0297,-0.847222 0.0772,-1.052978 0.0475,-0.205756 0.23258,-0.841808 0.39192,-0.980367 0.15934,-0.138559 0.81494,-0.233551 1.02529,-0.251988 0.21035,-0.01844 0.87248,-0.03894 1.05349,0.06979 0.18102,0.108727 0.47395,0.70288 0.55649,0.897241 0.0825,0.194361 0.30665,0.817741 0.25918,1.023497 -0.0475,0.205756 -0.52202,0.667954 -0.68137,0.806513 z"
       inkscape:transform-center-x="0.042903298"
       inkscape:transform-center-y="-0.10999779"
       transform="matrix(0.96129959,0,0,0.96129959,-96.774505,-17.764139)" />
    <path
       sodipodi:type="star"
       style="fill:#7265cc;fill-opacity:1;stroke:#3e2f60;stroke-width:0;stroke-linecap:round;stroke-dasharray:none;stroke-opacity:1;paint-order:fill markers stroke"
       id="path80-2"
       inkscape:flatsided="false"
       sodipodi:sides="5"
       sodipodi:cx="136.49623"
       sodipodi:cy="94.027016"
       sodipodi:r1="1.5975889"
       sodipodi:r2="1.7750988"
       sodipodi:arg1="0.85505274"
       sodipodi:arg2="1.4833713"
       inkscape:rounded="0.2"
       inkscape:randomized="2.7755576e-17"
       d="m 137.54453,95.232565 c -0.15934,0.138559 -0.68295,0.544333 -0.89331,0.56277 -0.21035,0.01844 -0.79657,-0.290061 -0.97759,-0.398788 -0.18102,-0.108727 -0.72874,-0.481325 -0.81128,-0.675686 -0.0825,-0.194361 0.0297,-0.847222 0.0772,-1.052978 0.0475,-0.205756 0.23258,-0.841808 0.39192,-0.980367 0.15934,-0.138559 0.81494,-0.233551 1.02529,-0.251988 0.21035,-0.01844 0.87248,-0.03894 1.05349,0.06979 0.18102,0.108727 0.47395,0.70288 0.55649,0.897241 0.0825,0.194361 0.30665,0.817741 0.25918,1.023497 -0.0475,0.205756 -0.52202,0.667954 -0.68137,0.806513 z"
       inkscape:transform-center-x="0.026835068"
       inkscape:transform-center-y="-0.068798546"
       transform="matrix(0.60123773,0,0,0.60123773,-47.904388,15.832211)" />
    <path
       sodipodi:type="star"
       style="fill:#433f7f;fill-opacity:1;stroke:#3e2f60;stroke-width:0;stroke-linecap:round;stroke-dasharray:none;stroke-opacity:1;paint-order:fill markers stroke"
       id="path80-1-80"
       inkscape:flatsided="false"
       sodipodi:sides="5"
       sodipodi:cx="136.49623"
       sodipodi:cy="94.027016"
       sodipodi:r1="1.5975889"
       sodipodi:r2="1.7750988"
       sodipodi:arg1="0.85505274"
       sodipodi:arg2="1.4833713"
       inkscape:rounded="0.2"
       inkscape:randomized="2.7755576e-17"
       d="m 137.54453,95.232565 c -0.15934,0.138559 -0.68295,0.544333 -0.89331,0.56277 -0.21035,0.01844 -0.79657,-0.290061 -0.97759,-0.398788 -0.18102,-0.108727 -0.72874,-0.481325 -0.81128,-0.675686 -0.0825,-0.194361 0.0297,-0.847222 0.0772,-1.052978 0.0475,-0.205756 0.23258,-0.841808 0.39192,-0.980367 0.15934,-0.138559 0.81494,-0.233551 1.02529,-0.251988 0.21035,-0.01844 0.87248,-0.03894 1.05349,0.06979 0.18102,0.108727 0.47395,0.70288 0.55649,0.897241 0.0825,0.194361 0.30665,0.817741 0.25918,1.023497 -0.0475,0.205756 -0.52202,0.667954 -0.68137,0.806513 z"
       inkscape:transform-center-x="0.058521262"
       inkscape:transform-center-y="-0.26658449"
       transform="matrix(0.92588727,0.50844986,-0.50844986,0.92588727,63.413853,-80.644763)" />
    <path
       sodipodi:type="star"
       style="fill:#7265cc;fill-opacity:1;stroke:#3e2f60;stroke-width:0;stroke-linecap:round;stroke-dasharray:none;stroke-opacity:1;paint-order:fill markers stroke"
       id="path80-12"
       inkscape:flatsided="false"
       sodipodi:sides="5"
       sodipodi:cx="136.49623"
       sodipodi:cy="94.027016"
       sodipodi:r1="1.5975889"
       sodipodi:r2="1.7750988"
       sodipodi:arg1="0.85505274"
       sodipodi:arg2="1.4833713"
       inkscape:rounded="0.2"
       inkscape:randomized="2.7755576e-17"
       d="m 137.54453,95.232565 c -0.15934,0.138559 -0.68295,0.544333 -0.89331,0.56277 -0.21035,0.01844 -0.79657,-0.290061 -0.97759,-0.398788 -0.18102,-0.108727 -0.72874,-0.481325 -0.81128,-0.675686 -0.0825,-0.194361 0.0297,-0.847222 0.0772,-1.052978 0.0475,-0.205756 0.23258,-0.841808 0.39192,-0.980367 0.15934,-0.138559 0.81494,-0.233551 1.02529,-0.251988 0.21035,-0.01844 0.87248,-0.03894 1.05349,0.06979 0.18102,0.108727 0.47395,0.70288 0.55649,0.897241 0.0825,0.194361 0.30665,0.817741 0.25918,1.023497 -0.0475,0.205756 -0.52202,0.667954 -0.68137,0.806513 z"
       inkscape:transform-center-x="0.036602583"
       inkscape:transform-center-y="-0.16673546"
       transform="matrix(0.57908936,0.31800621,-0.31800621,0.57908936,92.713942,-22.437687)" />
    <path
       sodipodi:type="star"
       style="fill:#433f7f;fill-opacity:1;stroke:#3e2f60;stroke-width:0;stroke-linecap:round;stroke-dasharray:none;stroke-opacity:1;paint-order:fill markers stroke"
       id="path80-1-7"
       inkscape:flatsided="false"
       sodipodi:sides="5"
       sodipodi:cx="136.49623"
       sodipodi:cy="94.027016"
       sodipodi:r1="1.5975889"
       sodipodi:r2="1.7750988"
       sodipodi:arg1="0.85505274"
       sodipodi:arg2="1.4833713"
       inkscape:rounded="0.2"
       inkscape:randomized="2.7755576e-17"
       d="m 137.54453,95.232565 c -0.15934,0.138559 -0.68295,0.544333 -0.89331,0.56277 -0.21035,0.01844 -0.79657,-0.290061 -0.97759,-0.398788 -0.18102,-0.108727 -0.72874,-0.481325 -0.81128,-0.675686 -0.0825,-0.194361 0.0297,-0.847222 0.0772,-1.052978 0.0475,-0.205756 0.23258,-0.841808 0.39192,-0.980367 0.15934,-0.138559 0.81494,-0.233551 1.02529,-0.251988 0.21035,-0.01844 0.87248,-0.03894 1.05349,0.06979 0.18102,0.108727 0.47395,0.70288 0.55649,0.897241 0.0825,0.194361 0.30665,0.817741 0.25918,1.023497 -0.0475,0.205756 -0.52202,0.667954 -0.68137,0.806513 z"
       inkscape:transform-center-x="-0.067111999"
       inkscape:transform-center-y="-0.2861599"
       transform="matrix(0.7447958,0.64886578,-0.64886578,0.7447958,165.40441,-85.485969)" />
    <path
       sodipodi:type="star"
       style="fill:#7265cc;fill-opacity:1;stroke:#3e2f60;stroke-width:0;stroke-linecap:round;stroke-dasharray:none;stroke-opacity:1;paint-order:fill markers stroke"
       id="path80-8"
       inkscape:flatsided="false"
       sodipodi:sides="5"
       sodipodi:cx="136.49623"
       sodipodi:cy="94.027016"
       sodipodi:r1="1.5975889"
       sodipodi:r2="1.7750988"
       sodipodi:arg1="0.85505274"
       sodipodi:arg2="1.4833713"
       inkscape:rounded="0.2"
       inkscape:randomized="2.7755576e-17"
       d="m 137.54453,95.232565 c -0.15934,0.138559 -0.68295,0.544333 -0.89331,0.56277 -0.21035,0.01844 -0.79657,-0.290061 -0.97759,-0.398788 -0.18102,-0.108727 -0.72874,-0.481325 -0.81128,-0.675686 -0.0825,-0.194361 0.0297,-0.847222 0.0772,-1.052978 0.0475,-0.205756 0.23258,-0.841808 0.39192,-0.980367 0.15934,-0.138559 0.81494,-0.233551 1.02529,-0.251988 0.21035,-0.01844 0.87248,-0.03894 1.05349,0.06979 0.18102,0.108727 0.47395,0.70288 0.55649,0.897241 0.0825,0.194361 0.30665,0.817741 0.25918,1.023497 -0.0475,0.205756 -0.52202,0.667954 -0.68137,0.806513 z"
       inkscape:transform-center-x="-0.041973293"
       inkscape:transform-center-y="-0.17897908"
       transform="matrix(0.46582703,0.40582831,-0.40582831,0.46582703,180.59087,-26.469437)" />
    <path
       sodipodi:type="star"
       style="fill:#433f7f;fill-opacity:1;stroke:#3e2f60;stroke-width:0;stroke-linecap:round;stroke-dasharray:none;stroke-opacity:1;paint-order:fill markers stroke"
       id="path80-1-0"
       inkscape:flatsided="false"
       sodipodi:sides="5"
       sodipodi:cx="136.49623"
       sodipodi:cy="94.027016"
       sodipodi:r1="1.5975889"
       sodipodi:r2="1.7750988"
       sodipodi:arg1="0.85505274"
       sodipodi:arg2="1.4833713"
       inkscape:rounded="0.2"
       inkscape:randomized="2.7755576e-17"
       d="m 137.54453,95.232565 c -0.15934,0.138559 -0.68295,0.544333 -0.89331,0.56277 -0.21035,0.01844 -0.79657,-0.290061 -0.97759,-0.398788 -0.18102,-0.108727 -0.72874,-0.481325 -0.81128,-0.675686 -0.0825,-0.194361 0.0297,-0.847222 0.0772,-1.052978 0.0475,-0.205756 0.23258,-0.841808 0.39192,-0.980367 0.15934,-0.138559 0.81494,-0.233551 1.02529,-0.251988 0.21035,-0.01844 0.87248,-0.03894 1.05349,0.06979 0.18102,0.108727 0.47395,0.70288 0.55649,0.897241 0.0825,0.194361 0.30665,0.817741 0.25918,1.023497 -0.0475,0.205756 -0.52202,0.667954 -0.68137,0.806513 z"
       inkscape:transform-center-x="0.057154832"
       inkscape:transform-center-y="-0.14653643"
       transform="matrix(1.2806157,0,0,1.2806157,34.075854,-42.979014)" />
    <path
       sodipodi:type="star"
       style="fill:#7265cc;fill-opacity:1;stroke:#3e2f60;stroke-width:0;stroke-linecap:round;stroke-dasharray:none;stroke-opacity:1;paint-order:fill markers stroke"
       id="path80-16"
       inkscape:flatsided="false"
       sodipodi:sides="5"
       sodipodi:cx="136.49623"
       sodipodi:cy="94.027016"
       sodipodi:r1="1.5975889"
       sodipodi:r2="1.7750988"
       sodipodi:arg1="0.85505274"
       sodipodi:arg2="1.4833713"
       inkscape:rounded="0.2"
       inkscape:randomized="2.7755576e-17"
       d="m 137.54453,95.232565 c -0.15934,0.138559 -0.68295,0.544333 -0.89331,0.56277 -0.21035,0.01844 -0.79657,-0.290061 -0.97759,-0.398788 -0.18102,-0.108727 -0.72874,-0.481325 -0.81128,-0.675686 -0.0825,-0.194361 0.0297,-0.847222 0.0772,-1.052978 0.0475,-0.205756 0.23258,-0.841808 0.39192,-0.980367 0.15934,-0.138559 0.81494,-0.233551 1.02529,-0.251988 0.21035,-0.01844 0.87248,-0.03894 1.05349,0.06979 0.18102,0.108727 0.47395,0.70288 0.55649,0.897241 0.0825,0.194361 0.30665,0.817741 0.25918,1.023497 -0.0475,0.205756 -0.52202,0.667954 -0.68137,0.806513 z"
       inkscape:transform-center-x="0.035749663"
       inkscape:transform-center-y="-0.09165207"
       transform="matrix(0.80095163,0,0,0.80095163,99.179225,1.7770774)" />
    <path
       sodipodi:type="star"
       style="fill:#433f7f;fill-opacity:1;stroke:#3e2f60;stroke-width:0;stroke-linecap:round;stroke-dasharray:none;stroke-opacity:1;paint-order:fill markers stroke"
       id="path80-1-89"
       inkscape:flatsided="false"
       sodipodi:sides="5"
       sodipodi:cx="136.49623"
       sodipodi:cy="94.027016"
       sodipodi:r1="1.5975889"
       sodipodi:r2="1.7750988"
       sodipodi:arg1="0.85505274"
       sodipodi:arg2="1.4833713"
       inkscape:rounded="0.2"
       inkscape:randomized="2.7755576e-17"
       d="m 137.54453,95.232565 c -0.15934,0.138559 -0.68295,0.544333 -0.89331,0.56277 -0.21035,0.01844 -0.79657,-0.290061 -0.97759,-0.398788 -0.18102,-0.108727 -0.72874,-0.481325 -0.81128,-0.675686 -0.0825,-0.194361 0.0297,-0.847222 0.0772,-1.052978 0.0475,-0.205756 0.23258,-0.841808 0.39192,-0.980367 0.15934,-0.138559 0.81494,-0.233551 1.02529,-0.251988 0.21035,-0.01844 0.87248,-0.03894 1.05349,0.06979 0.18102,0.108727 0.47395,0.70288 0.55649,0.897241 0.0825,0.194361 0.30665,0.817741 0.25918,1.023497 -0.0475,0.205756 -0.52202,0.667954 -0.68137,0.806513 z"
       inkscape:transform-center-x="0.075642014"
       inkscape:transform-center-y="-0.19392486"
       transform="matrix(1.6947205,0,0,1.6947205,-49.804871,-81.590324)" />
    <path
       sodipodi:type="star"
       style="fill:#7265cc;fill-opacity:1;stroke:#3e2f60;stroke-width:0;stroke-linecap:round;stroke-dasharray:none;stroke-opacity:1;paint-order:fill markers stroke"
       id="path80-84"
       inkscape:flatsided="false"
       sodipodi:sides="5"
       sodipodi:cx="136.49623"
       sodipodi:cy="94.027016"
       sodipodi:r1="1.5975889"
       sodipodi:r2="1.7750988"
       sodipodi:arg1="0.85505274"
       sodipodi:arg2="1.4833713"
       inkscape:rounded="0.2"
       inkscape:randomized="2.7755576e-17"
       d="m 137.54453,95.232565 c -0.15934,0.138559 -0.68295,0.544333 -0.89331,0.56277 -0.21035,0.01844 -0.79657,-0.290061 -0.97759,-0.398788 -0.18102,-0.108727 -0.72874,-0.481325 -0.81128,-0.675686 -0.0825,-0.194361 0.0297,-0.847222 0.0772,-1.052978 0.0475,-0.205756 0.23258,-0.841808 0.39192,-0.980367 0.15934,-0.138559 0.81494,-0.233551 1.02529,-0.251988 0.21035,-0.01844 0.87248,-0.03894 1.05349,0.06979 0.18102,0.108727 0.47395,0.70288 0.55649,0.897241 0.0825,0.194361 0.30665,0.817741 0.25918,1.023497 -0.0475,0.205756 -0.52202,0.667954 -0.68137,0.806513 z"
       inkscape:transform-center-x="0.04731519"
       inkscape:transform-center-y="-0.12129298"
       transform="matrix(1.0599504,0,0,1.0599504,36.350578,-22.36173)" />
    <path
       sodipodi:type="star"
       style="fill:#433f7f;fill-opacity:1;stroke:#3e2f60;stroke-width:0;stroke-linecap:round;stroke-dasharray:none;stroke-opacity:1;paint-order:fill markers stroke"
       id="path80-1-89-3"
       inkscape:flatsided="false"
       sodipodi:sides="5"
       sodipodi:cx="136.49623"
       sodipodi:cy="94.027016"
       sodipodi:r1="1.5975889"
       sodipodi:r2="1.7750988"
       sodipodi:arg1="0.85505274"
       sodipodi:arg2="1.4833713"
       inkscape:rounded="0.2"
       inkscape:randomized="2.7755576e-17"
       d="m 137.54453,95.232565 c -0.15934,0.138559 -0.68295,0.544333 -0.89331,0.56277 -0.21035,0.01844 -0.79657,-0.290061 -0.97759,-0.398788 -0.18102,-0.108727 -0.72874,-0.481325 -0.81128,-0.675686 -0.0825,-0.194361 0.0297,-0.847222 0.0772,-1.052978 0.0475,-0.205756 0.23258,-0.841808 0.39192,-0.980367 0.15934,-0.138559 0.81494,-0.233551 1.02529,-0.251988 0.21035,-0.01844 0.87248,-0.03894 1.05349,0.06979 0.18102,0.108727 0.47395,0.70288 0.55649,0.897241 0.0825,0.194361 0.30665,0.817741 0.25918,1.023497 -0.0475,0.205756 -0.52202,0.667954 -0.68137,0.806513 z"
       inkscape:transform-center-x="-0.21049138"
       inkscape:transform-center-y="-0.1867604"
       transform="matrix(0.54151057,0.84609608,-0.84609608,0.54151057,191.03429,-87.418293)" />
    <path
       sodipodi:type="star"
       style="fill:#7265cc;fill-opacity:1;stroke:#3e2f60;stroke-width:0;stroke-linecap:round;stroke-dasharray:none;stroke-opacity:1;paint-order:fill markers stroke"
       id="path80-84-4"
       inkscape:flatsided="false"
       sodipodi:sides="5"
       sodipodi:cx="136.49623"
       sodipodi:cy="94.027016"
       sodipodi:r1="1.5975889"
       sodipodi:r2="1.7750988"
       sodipodi:arg1="0.85505274"
       sodipodi:arg2="1.4833713"
       inkscape:rounded="0.2"
       inkscape:randomized="2.7755576e-17"
       d="m 137.54453,95.232565 c -0.15934,0.138559 -0.68295,0.544333 -0.89331,0.56277 -0.21035,0.01844 -0.79657,-0.290061 -0.97759,-0.398788 -0.18102,-0.108727 -0.72874,-0.481325 -0.81128,-0.675686 -0.0825,-0.194361 0.0297,-0.847222 0.0772,-1.052978 0.0475,-0.205756 0.23258,-0.841808 0.39192,-0.980367 0.15934,-0.138559 0.81494,-0.233551 1.02529,-0.251988 0.21035,-0.01844 0.87248,-0.03894 1.05349,0.06979 0.18102,0.108727 0.47395,0.70288 0.55649,0.897241 0.0825,0.194361 0.30665,0.817741 0.25918,1.023497 -0.0475,0.205756 -0.52202,0.667954 -0.68137,0.806513 z"
       inkscape:transform-center-x="-0.13165037"
       inkscape:transform-center-y="-0.11681287"
       transform="matrix(0.33868377,0.52918452,-0.52918452,0.33868377,188.99325,-25.479644)" />
    <path
       sodipodi:type="star"
       style="fill:#433f7f;fill-opacity:1;stroke:#3e2f60;stroke-width:0;stroke-linecap:round;stroke-dasharray:none;stroke-opacity:1;paint-order:fill markers stroke"
       id="path80-1-88"
       inkscape:flatsided="false"
       sodipodi:sides="5"
       sodipodi:cx="136.49623"
       sodipodi:cy="94.027016"
       sodipodi:r1="1.5975889"
       sodipodi:r2="1.7750988"
       sodipodi:arg1="0.85505274"
       sodipodi:arg2="1.4833713"
       inkscape:rounded="0.2"
       inkscape:randomized="2.7755576e-17"
       d="m 137.54453,95.232565 c -0.15934,0.138559 -0.68295,0.544333 -0.89331,0.56277 -0.21035,0.01844 -0.79657,-0.290061 -0.97759,-0.398788 -0.18102,-0.108727 -0.72874,-0.481325 -0.81128,-0.675686 -0.0825,-0.194361 0.0297,-0.847222 0.0772,-1.052978 0.0475,-0.205756 0.23258,-0.841808 0.39192,-0.980367 0.15934,-0.138559 0.81494,-0.233551 1.02529,-0.251988 0.21035,-0.01844 0.87248,-0.03894 1.05349,0.06979 0.18102,0.108727 0.47395,0.70288 0.55649,0.897241 0.0825,0.194361 0.30665,0.817741 0.25918,1.023497 -0.0475,0.205756 -0.52202,0.667954 -0.68137,0.806513 z"
       inkscape:transform-center-x="0.057154832"
       inkscape:transform-center-y="-0.14653643"
       transform="matrix(1.2806157,0,0,1.2806157,-73.873885,-44.037345)" />
    <path
       sodipodi:type="star"
       style="fill:#7265cc;fill-opacity:1;stroke:#3e2f60;stroke-width:0;stroke-linecap:round;stroke-dasharray:none;stroke-opacity:1;paint-order:fill markers stroke"
       id="path80-0"
       inkscape:flatsided="false"
       sodipodi:sides="5"
       sodipodi:cx="136.49623"
       sodipodi:cy="94.027016"
       sodipodi:r1="1.5975889"
       sodipodi:r2="1.7750988"
       sodipodi:arg1="0.85505274"
       sodipodi:arg2="1.4833713"
       inkscape:rounded="0.2"
       inkscape:randomized="2.7755576e-17"
       d="m 137.54453,95.232565 c -0.15934,0.138559 -0.68295,0.544333 -0.89331,0.56277 -0.21035,0.01844 -0.79657,-0.290061 -0.97759,-0.398788 -0.18102,-0.108727 -0.72874,-0.481325 -0.81128,-0.675686 -0.0825,-0.194361 0.0297,-0.847222 0.0772,-1.052978 0.0475,-0.205756 0.23258,-0.841808 0.39192,-0.980367 0.15934,-0.138559 0.81494,-0.233551 1.02529,-0.251988 0.21035,-0.01844 0.87248,-0.03894 1.05349,0.06979 0.18102,0.108727 0.47395,0.70288 0.55649,0.897241 0.0825,0.194361 0.30665,0.817741 0.25918,1.023497 -0.0475,0.205756 -0.52202,0.667954 -0.68137,0.806513 z"
       inkscape:transform-center-x="0.035749663"
       inkscape:transform-center-y="-0.09165207"
       transform="matrix(0.80095163,0,0,0.80095163,-8.770514,0.71874637)" />
    <path
       sodipodi:type="star"
       style="fill:#433f7f;fill-opacity:1;stroke:#3e2f60;stroke-width:0;stroke-linecap:round;stroke-dasharray:none;stroke-opacity:1;paint-order:fill markers stroke"
       id="path80-1-38"
       inkscape:flatsided="false"
       sodipodi:sides="5"
       sodipodi:cx="136.49623"
       sodipodi:cy="94.027016"
       sodipodi:r1="1.5975889"
       sodipodi:r2="1.7750988"
       sodipodi:arg1="0.85505274"
       sodipodi:arg2="1.4833713"
       inkscape:rounded="0.2"
       inkscape:randomized="2.7755576e-17"
       d="m 137.54453,95.232565 c -0.15934,0.138559 -0.68295,0.544333 -0.89331,0.56277 -0.21035,0.01844 -0.79657,-0.290061 -0.97759,-0.398788 -0.18102,-0.108727 -0.72874,-0.481325 -0.81128,-0.675686 -0.0825,-0.194361 0.0297,-0.847222 0.0772,-1.052978 0.0475,-0.205756 0.23258,-0.841808 0.39192,-0.980367 0.15934,-0.138559 0.81494,-0.233551 1.02529,-0.251988 0.21035,-0.01844 0.87248,-0.03894 1.05349,0.06979 0.18102,0.108727 0.47395,0.70288 0.55649,0.897241 0.0825,0.194361 0.30665,0.817741 0.25918,1.023497 -0.0475,0.205756 -0.52202,0.667954 -0.68137,0.806513 z"
       inkscape:transform-center-x="0.057154832"
       inkscape:transform-center-y="-0.14653643"
       transform="matrix(1.2806157,0,0,1.2806157,-127.05501,-44.301928)" />
    <path
       sodipodi:type="star"
       style="fill:#7265cc;fill-opacity:1;stroke:#3e2f60;stroke-width:0;stroke-linecap:round;stroke-dasharray:none;stroke-opacity:1;paint-order:fill markers stroke"
       id="path80-3"
       inkscape:flatsided="false"
       sodipodi:sides="5"
       sodipodi:cx="136.49623"
       sodipodi:cy="94.027016"
       sodipodi:r1="1.5975889"
       sodipodi:r2="1.7750988"
       sodipodi:arg1="0.85505274"
       sodipodi:arg2="1.4833713"
       inkscape:rounded="0.2"
       inkscape:randomized="2.7755576e-17"
       d="m 137.54453,95.232565 c -0.15934,0.138559 -0.68295,0.544333 -0.89331,0.56277 -0.21035,0.01844 -0.79657,-0.290061 -0.97759,-0.398788 -0.18102,-0.108727 -0.72874,-0.481325 -0.81128,-0.675686 -0.0825,-0.194361 0.0297,-0.847222 0.0772,-1.052978 0.0475,-0.205756 0.23258,-0.841808 0.39192,-0.980367 0.15934,-0.138559 0.81494,-0.233551 1.02529,-0.251988 0.21035,-0.01844 0.87248,-0.03894 1.05349,0.06979 0.18102,0.108727 0.47395,0.70288 0.55649,0.897241 0.0825,0.194361 0.30665,0.817741 0.25918,1.023497 -0.0475,0.205756 -0.52202,0.667954 -0.68137,0.806513 z"
       inkscape:transform-center-x="0.035749663"
       inkscape:transform-center-y="-0.09165207"
       transform="matrix(0.80095163,0,0,0.80095163,-61.951636,0.45416337)" />
  </g>
</svg>
