<?xml version="1.0" encoding="UTF-8" standalone="no"?>
<!-- Created with Inkscape (http://www.inkscape.org/) -->

<svg
   width="2000.11"
   height="895.69"
   viewBox="0 0 529.1947 236.98398"
   version="1.1"
   id="svg1"
   inkscape:version="1.4.2 (f4327f4, 2025-05-13)"
   sodipodi:docname="CountDownContainerAntiMagnet.svg"
   xml:space="preserve"
   xmlns:inkscape="http://www.inkscape.org/namespaces/inkscape"
   xmlns:sodipodi="http://sodipodi.sourceforge.net/DTD/sodipodi-0.dtd"
   xmlns="http://www.w3.org/2000/svg"
   xmlns:svg="http://www.w3.org/2000/svg"><sodipodi:namedview
     id="namedview1"
     pagecolor="#ffffff"
     bordercolor="#000000"
     borderopacity="0.25"
     inkscape:showpageshadow="2"
     inkscape:pageopacity="0.0"
     inkscape:pagecheckerboard="0"
     inkscape:deskcolor="#d1d1d1"
     inkscape:document-units="mm"
     inkscape:zoom="1.1357605"
     inkscape:cx="1097.0623"
     inkscape:cy="513.75268"
     inkscape:window-width="3840"
     inkscape:window-height="2054"
     inkscape:window-x="-11"
     inkscape:window-y="-11"
     inkscape:window-maximized="1"
     inkscape:current-layer="layer1"
     showgrid="true"><inkscape:grid
       id="grid1"
       units="mm"
       originx="139"
       originy="10.68689"
       spacingx="0.99999999"
       spacingy="0.99999998"
       empcolor="#0099e5"
       empopacity="0.30196078"
       color="#0099e5"
       opacity="0.14901961"
       empspacing="5"
       enabled="true"
       visible="true" /></sodipodi:namedview><defs
     id="defs1"><inkscape:path-effect
       effect="spiro"
       id="path-effect6"
       is_visible="true"
       lpeversion="1" /><inkscape:path-effect
       effect="mirror_symmetry"
       start_point="77.199904,69.000027"
       end_point="77.199904,93.044622"
       center_point="77.199904,81.022324"
       id="path-effect2"
       is_visible="true"
       lpeversion="1.2"
       lpesatellites=""
       mode="free"
       discard_orig_path="false"
       fuse_paths="false"
       oposite_fuse="false"
       split_items="false"
       split_open="false"
       link_styles="false" /><inkscape:path-effect
       effect="fillet_chamfer"
       id="path-effect5"
       is_visible="true"
       lpeversion="1"
       nodesatellites_param="F,0,0,1,0,0,0,1 @ F,0,0,1,0,2.0496102,0,1 @ F,0,0,1,0,0,0,1"
       radius="0"
       unit="px"
       method="auto"
       mode="F"
       chamfer_steps="1"
       flexible="false"
       use_knot_distance="true"
       apply_no_radius="true"
       apply_with_radius="true"
       only_selected="false"
       hide_knots="false" /><inkscape:path-effect
       effect="fillet_chamfer"
       id="path-effect28"
       is_visible="true"
       lpeversion="1"
       nodesatellites_param="F,0,0,1,0,0,0,1 @ F,0,0,1,0,0,0,1 @ F,0,0,1,0,0,0,1 @ F,0,0,1,0,0,0,1 @ F,0,0,1,0,0,0,1 @ F,0,0,1,0,0,0,1 @ F,0,0,1,0,0,0,1 @ F,0,0,1,0,0,0,1 @ F,0,0,1,0,0,0,1 @ F,0,0,1,0,0,0,1 @ F,0,0,1,0,0,0,1 @ F,0,0,1,0,0,0,1 | F,0,0,1,0,0,0,1 @ F,0,0,1,0,0,0,1 @ F,0,0,1,0,0,0,1 @ F,0,0,1,0,0,0,1 @ F,0,0,1,0,0,0,1 @ F,0,0,1,0,0,0,1 @ F,0,0,1,0,0,0,1 @ F,0,0,1,0,0,0,1 @ F,0,0,1,0,0,0,1 @ F,0,0,1,0,0,0,1 @ F,0,0,1,0,0,0,1"
       radius="0"
       unit="px"
       method="auto"
       mode="F"
       chamfer_steps="1"
       flexible="false"
       use_knot_distance="true"
       apply_no_radius="true"
       apply_with_radius="true"
       only_selected="false"
       hide_knots="false" /><inkscape:path-effect
       effect="powerstroke"
       message=""
       id="path-effect4"
       is_visible="true"
       lpeversion="1.3"
       scale_width="1"
       interpolator_type="CentripetalCatmullRom"
       interpolator_beta="0.75"
       start_linecap_type="round"
       end_linecap_type="round"
       offset_points="10.839744,0.43679433"
       linejoin_type="spiro"
       miter_limit="4"
       not_jump="true"
       sort_points="true" /><inkscape:path-effect
       effect="simplify"
       id="path-effect3"
       is_visible="true"
       lpeversion="1.3"
       threshold="0.012"
       steps="1"
       smooth_angles="0"
       helper_size="0"
       simplify_individual_paths="false"
       simplify_just_coalesce="false"
       step="1" /><inkscape:path-effect
       effect="fillet_chamfer"
       id="path-effect5-4"
       is_visible="true"
       lpeversion="1"
       nodesatellites_param="F,0,0,1,0,0,0,1 @ F,0,0,1,0,2.0496102,0,1 @ F,0,0,1,0,0,0,1"
       radius="0"
       unit="px"
       method="auto"
       mode="F"
       chamfer_steps="1"
       flexible="false"
       use_knot_distance="true"
       apply_no_radius="true"
       apply_with_radius="true"
       only_selected="false"
       hide_knots="false" /><inkscape:path-effect
       effect="fillet_chamfer"
       id="path-effect5-4-5"
       is_visible="true"
       lpeversion="1"
       nodesatellites_param="F,0,0,1,0,0,0,1 @ F,0,0,1,0,2.0496102,0,1 @ F,0,0,1,0,0,0,1"
       radius="0"
       unit="px"
       method="auto"
       mode="F"
       chamfer_steps="1"
       flexible="false"
       use_knot_distance="true"
       apply_no_radius="true"
       apply_with_radius="true"
       only_selected="false"
       hide_knots="false" /><inkscape:path-effect
       effect="spiro"
       id="path-effect6-4"
       is_visible="true"
       lpeversion="1" /></defs><g
     inkscape:label="Ebene 1"
     inkscape:groupmode="layer"
     id="layer1"
     transform="translate(138.80001,10.686892)"><path
       id="rect2"
       style="fill:#5f5f5f;stroke:#3e2f60;stroke-width:0;stroke-linecap:round;paint-order:fill markers stroke"
       d="m 214.86434,83.622317 23.96814,26.589243 c 0.45611,0.50599 0.82331,1.46175 0.82331,2.14297 v 71.50792 c 0,1.01067 -5.41301,1.14024 -5.80624,0.58398 l -18.98521,-26.85692 c -0.39322,-0.55626 -0.77116,-1.46375 -0.8233,-2.14297 l -5.52595,-71.984738 c -0.0521,-0.679242 5.51866,-0.760905 6.34925,0.160515 z"
       sodipodi:nodetypes="sssssssss" /><path
       id="rect2-8"
       style="fill:#7b7b7b;stroke:#3e2f60;stroke-width:0;stroke-linecap:round;paint-order:fill markers stroke"
       d="m 209.38018,83.622326 23.96814,26.589244 c 0.45611,0.50598 0.8233,1.46174 0.8233,2.14296 v 71.50792 c 0,0.68122 -0.36719,0.82229 -0.8233,0.31631 l -23.96814,-26.58924 c -0.45611,-0.50599 -0.8233,-1.46176 -0.8233,-2.14297 V 83.938619 c 0,-0.68122 0.36719,-0.822281 0.8233,-0.316293 z"
       sodipodi:nodetypes="sssssssss" /><path
       style="fill:#7b7b7b;fill-opacity:1;stroke:#3e2f60;stroke-width:0.69999831;stroke-linecap:round;paint-order:fill markers stroke;stroke-dasharray:none"
       d="M 228.20743,118.86937 H 22.38346"
       id="path2" /><path
       style="fill:#7b7b7b;fill-opacity:0;stroke:#e69f8a;stroke-width:4.09999;stroke-linecap:round;stroke-dasharray:none;stroke-opacity:1;paint-order:fill markers stroke"
       d="m 199.29818,169.60468 -0.90599,-50.3235 c 0,-3.26347 -19.68464,-19.684646 -19.68464,-19.684646"
       id="path3"
       sodipodi:nodetypes="ccc" /><path
       style="fill:#7b7b7b;fill-opacity:0;stroke:#d49480;stroke-width:4.09999;stroke-linecap:round;stroke-dasharray:none;stroke-opacity:1;paint-order:fill markers stroke"
       d="m 191.22563,169.51792 c 0,0 3.27792,-43.25579 3.5862,-48.17277 0.2042,-3.25707 -18.41433,-20.8778 -18.41433,-20.8778"
       id="path3-4"
       sodipodi:nodetypes="ccc" /><path
       style="fill:#7b7b7b;fill-opacity:0;stroke:#d49480;stroke-width:4.09999;stroke-linecap:round;stroke-dasharray:none;stroke-opacity:1;paint-order:fill markers stroke"
       d="m 165.0343,169.43842 c 0,0 3.7605,-42.73983 4.11415,-47.59816 0.23427,-3.21822 -21.12528,-20.62876 -21.12528,-20.62876"
       id="path3-4-5"
       sodipodi:nodetypes="ccc" /><path
       style="fill:#7b7b7b;fill-opacity:0;stroke:#d49480;stroke-width:4.09999;stroke-linecap:round;stroke-dasharray:none;stroke-opacity:1;paint-order:fill markers stroke"
       d="m 186.38994,170.00971 c 0,0 -0.20563,-43.17342 0.14401,-48.0904 0.23159,-3.25707 -20.88472,-20.87781 -20.88472,-20.87781"
       id="path3-4-7"
       sodipodi:nodetypes="ccc" /><path
       style="fill:#7b7b7b;fill-opacity:0;stroke:#eeb09d;stroke-width:4.09999;stroke-linecap:round;stroke-dasharray:none;stroke-opacity:1;paint-order:fill markers stroke"
       d="m 196.01572,169.50017 c 0,0 -4.37514,-44.57324 -4.63806,-49.49987 -0.17416,-3.26347 -18.90063,-19.68465 -18.90063,-19.68465"
       id="path3-1"
       sodipodi:nodetypes="ccc" /><path
       style="fill:#7b7b7b;fill-opacity:0;stroke:#eeb09d;stroke-width:4.09999;stroke-linecap:round;stroke-dasharray:none;stroke-opacity:1;paint-order:fill markers stroke"
       d="m 169.30909,168.49816 c 0,0 -4.37514,-44.57324 -4.63806,-49.49987 -0.17416,-3.26347 -20.73516,-19.684648 -20.73516,-19.684648"
       id="path3-1-61"
       sodipodi:nodetypes="ccc" /><path
       style="fill:#7b7b7b;fill-opacity:0;stroke:#ee987e;stroke-width:4.09999;stroke-linecap:round;stroke-dasharray:none;stroke-opacity:1;paint-order:fill markers stroke"
       d="m 206.272,169.1718 c 0,0 -2.23371,-44.82033 -2.49663,-49.74696 -0.17416,-3.26347 -20.73516,-19.68465 -20.73516,-19.68465"
       id="path3-1-6"
       sodipodi:nodetypes="ccc" /><path
       style="fill:#7b7b7b;fill-opacity:0;stroke:#ee987e;stroke-width:4.09999;stroke-linecap:round;stroke-dasharray:none;stroke-opacity:1;paint-order:fill markers stroke"
       d="m 180.79111,168.09578 c 0,0 -2.23371,-44.82033 -2.49663,-49.74696 -0.17416,-3.26347 -20.73516,-19.684651 -20.73516,-19.684651"
       id="path3-1-6-0"
       sodipodi:nodetypes="ccc" /><path
       style="fill:#7b7b7b;fill-opacity:0;stroke:#ee987e;stroke-width:4.09999;stroke-linecap:round;stroke-dasharray:none;stroke-opacity:1;paint-order:fill markers stroke"
       d="m 174.99506,166.5761 c 0,0 -2.23371,-44.82033 -2.49663,-49.74696 -0.17416,-3.26347 -17.93968,-17.588037 -17.93968,-17.588037"
       id="path3-1-6-5"
       sodipodi:nodetypes="ccc" /><path
       style="fill:#7b7b7b;fill-opacity:0;stroke:#e4a896;stroke-width:4.09999;stroke-linecap:round;stroke-dasharray:none;stroke-opacity:1;paint-order:fill markers stroke"
       d="m 177.49803,169.50777 -0.90599,-50.3235 c 0,-3.26347 -19.68464,-19.684644 -19.68464,-19.684644"
       id="path3-12"
       sodipodi:nodetypes="ccc" /><path
       style="fill:#7b7b7b;fill-opacity:0;stroke:#d49480;stroke-width:4.09999;stroke-linecap:round;stroke-dasharray:none;stroke-opacity:1;paint-order:fill markers stroke"
       d="m 169.42548,169.42101 c 0,0 3.27792,-43.25579 3.5862,-48.17277 0.2042,-3.25707 -18.41433,-20.8778 -18.41433,-20.8778"
       id="path3-4-3"
       sodipodi:nodetypes="ccc" /><path
       style="fill:#7b7b7b;fill-opacity:0;stroke:#cc826b;stroke-width:4.09999;stroke-linecap:round;stroke-dasharray:none;stroke-opacity:1;paint-order:fill markers stroke"
       d="m 164.60744,169.9128 c 0,0 -0.18131,-43.17342 0.12697,-48.0904 0.2042,-3.25707 -18.41433,-20.87781 -18.41433,-20.87781"
       id="path3-4-7-3"
       sodipodi:nodetypes="ccc" /><path
       style="fill:#7b7b7b;fill-opacity:0;stroke:#ee987e;stroke-width:4.09999;stroke-linecap:round;stroke-dasharray:none;stroke-opacity:1;paint-order:fill markers stroke"
       d="m 196.41926,169.38755 c 0,0 -0.18131,-43.17342 0.12697,-48.0904 0.2042,-3.25707 -18.41433,-20.87781 -18.41433,-20.87781"
       id="path3-4-7-3-44"
       sodipodi:nodetypes="ccc" /><path
       style="fill:#7b7b7b;fill-opacity:0;stroke:#cc826b;stroke-width:4.09999;stroke-linecap:round;stroke-dasharray:none;stroke-opacity:1;paint-order:fill markers stroke"
       d="m 189.05832,169.09876 c 0,0 -0.18131,-43.17342 0.12697,-48.0904 0.2042,-3.25707 -20.27798,-21.431081 -20.27798,-21.431081"
       id="path3-4-7-3-4"
       sodipodi:nodetypes="ccc" /><path
       style="fill:#7b7b7b;fill-opacity:0;stroke:#cc826b;stroke-width:4.09999;stroke-linecap:round;stroke-dasharray:none;stroke-opacity:1;paint-order:fill markers stroke"
       d="m 202.23497,168.79918 c 0,0 -0.18131,-43.17342 0.12697,-48.0904 0.2042,-3.25707 -18.41433,-20.877802 -18.41433,-20.877802"
       id="path3-4-7-3-3"
       sodipodi:nodetypes="ccc" /><path
       style="fill:#7b7b7b;fill-opacity:0;stroke:#eea58f;stroke-width:4.09999;stroke-linecap:round;stroke-dasharray:none;stroke-opacity:1;paint-order:fill markers stroke"
       d="m 174.21557,169.40326 c 0,0 -4.37514,-44.57324 -4.63806,-49.49987 -0.17416,-3.26347 -18.43472,-19.80113 -18.43472,-19.80113"
       id="path3-1-4"
       sodipodi:nodetypes="ccc" /><path
       style="fill:#7b7b7b;fill-opacity:0;stroke:#eea58f;stroke-width:4.09999;stroke-linecap:round;stroke-dasharray:none;stroke-opacity:1;paint-order:fill markers stroke"
       d="m 184.8013,169.32198 c 0,0 -2.23371,-44.82033 -2.49663,-49.74696 -0.17416,-3.26347 -20.73516,-19.684656 -20.73516,-19.684656"
       id="path3-1-6-1"
       sodipodi:nodetypes="ccc" /><path
       style="fill:#7b7b7b;fill-opacity:0;stroke:#e69f8a;stroke-width:4.09999;stroke-linecap:round;stroke-dasharray:none;stroke-opacity:1;paint-order:fill markers stroke"
       d="m 156.11009,170.20382 -0.90599,-50.3235 c 0,-3.26347 -19.68464,-19.68464 -19.68464,-19.68464"
       id="path3-18"
       sodipodi:nodetypes="ccc" /><path
       style="fill:#7b7b7b;fill-opacity:0;stroke:#d49480;stroke-width:4.09999;stroke-linecap:round;stroke-dasharray:none;stroke-opacity:1;paint-order:fill markers stroke"
       d="m 148.03754,170.11706 c 0,0 3.27792,-43.25579 3.5862,-48.17277 0.2042,-3.25707 -18.41433,-20.8778 -18.41433,-20.8778"
       id="path3-4-4"
       sodipodi:nodetypes="ccc" /><path
       style="fill:#7b7b7b;fill-opacity:0;stroke:#d49480;stroke-width:4.09999;stroke-linecap:round;stroke-dasharray:none;stroke-opacity:1;paint-order:fill markers stroke"
       d="m 121.84621,170.03756 c 0,0 3.7605,-42.73983 4.11415,-47.59816 0.23427,-3.21822 -21.12528,-20.62876 -21.12528,-20.62876"
       id="path3-4-5-9"
       sodipodi:nodetypes="ccc" /><path
       style="fill:#7b7b7b;fill-opacity:0;stroke:#d49480;stroke-width:4.09999;stroke-linecap:round;stroke-dasharray:none;stroke-opacity:1;paint-order:fill markers stroke"
       d="m 143.20185,170.60885 c 0,0 -0.20563,-43.17342 0.14401,-48.0904 0.23159,-3.25707 -20.88472,-20.87781 -20.88472,-20.87781"
       id="path3-4-7-6"
       sodipodi:nodetypes="ccc" /><path
       style="fill:#7b7b7b;fill-opacity:0;stroke:#eeb09d;stroke-width:4.09999;stroke-linecap:round;stroke-dasharray:none;stroke-opacity:1;paint-order:fill markers stroke"
       d="m 152.82763,170.09931 c 0,0 -4.37514,-44.57324 -4.63806,-49.49987 -0.17416,-3.26347 -20.73516,-19.68465 -20.73516,-19.68465"
       id="path3-1-3"
       sodipodi:nodetypes="ccc" /><path
       style="fill:#7b7b7b;fill-opacity:0;stroke:#eeb09d;stroke-width:4.09999;stroke-linecap:round;stroke-dasharray:none;stroke-opacity:1;paint-order:fill markers stroke"
       d="m 126.121,169.0973 c 0,0 -4.37514,-44.57324 -4.63806,-49.49987 -0.17416,-3.26347 -20.73516,-19.684636 -20.73516,-19.684636"
       id="path3-1-61-7"
       sodipodi:nodetypes="ccc" /><path
       style="fill:#7b7b7b;fill-opacity:0;stroke:#ee987e;stroke-width:4.09999;stroke-linecap:round;stroke-dasharray:none;stroke-opacity:1;paint-order:fill markers stroke"
       d="m 163.08391,169.77094 c 0,0 -2.23371,-44.82033 -2.49663,-49.74696 -0.17416,-3.26347 -20.73516,-19.68465 -20.73516,-19.68465"
       id="path3-1-6-8"
       sodipodi:nodetypes="ccc" /><path
       style="fill:#7b7b7b;fill-opacity:0;stroke:#ee987e;stroke-width:4.09999;stroke-linecap:round;stroke-dasharray:none;stroke-opacity:1;paint-order:fill markers stroke"
       d="m 137.60302,168.69492 c 0,0 -2.23371,-44.82033 -2.49663,-49.74696 -0.17416,-3.26347 -20.73516,-19.684646 -20.73516,-19.684646"
       id="path3-1-6-0-8"
       sodipodi:nodetypes="ccc" /><path
       style="fill:#7b7b7b;fill-opacity:0;stroke:#ee987e;stroke-width:4.09999;stroke-linecap:round;stroke-dasharray:none;stroke-opacity:1;paint-order:fill markers stroke"
       d="m 131.80697,167.17524 c 0,0 -2.23371,-44.82033 -2.49663,-49.74696 -0.17416,-3.26347 -18.4056,-17.47155 -18.4056,-17.47155"
       id="path3-1-6-5-2"
       sodipodi:nodetypes="ccc" /><path
       style="fill:#7b7b7b;fill-opacity:0;stroke:#e4a896;stroke-width:4.09999;stroke-linecap:round;stroke-dasharray:none;stroke-opacity:1;paint-order:fill markers stroke"
       d="m 134.30994,170.10691 -0.90599,-50.3235 c 0,-3.26347 -19.68464,-19.68464 -19.68464,-19.68464"
       id="path3-12-9"
       sodipodi:nodetypes="ccc" /><path
       style="fill:#7b7b7b;fill-opacity:0;stroke:#d49480;stroke-width:4.09999;stroke-linecap:round;stroke-dasharray:none;stroke-opacity:1;paint-order:fill markers stroke"
       d="m 126.23739,170.02015 c 0,0 3.27792,-43.25579 3.5862,-48.17277 0.2042,-3.25707 -18.41433,-20.8778 -18.41433,-20.8778"
       id="path3-4-3-1"
       sodipodi:nodetypes="ccc" /><path
       style="fill:#7b7b7b;fill-opacity:0;stroke:#cc826b;stroke-width:4.09999;stroke-linecap:round;stroke-dasharray:none;stroke-opacity:1;paint-order:fill markers stroke"
       d="m 121.41935,170.51194 c 0,0 -0.18131,-43.17342 0.12697,-48.0904 0.2042,-3.25707 -20.3071,-23.294733 -20.3071,-23.294733"
       id="path3-4-7-3-35"
       sodipodi:nodetypes="ccc" /><path
       style="fill:#7b7b7b;fill-opacity:0;stroke:#ee987e;stroke-width:4.09999;stroke-linecap:round;stroke-dasharray:none;stroke-opacity:1;paint-order:fill markers stroke"
       d="m 153.23117,169.98669 c 0,0 -0.18131,-43.17342 0.12697,-48.0904 0.2042,-3.25707 -22.72402,-22.945298 -22.72402,-22.945298"
       id="path3-4-7-3-44-9"
       sodipodi:nodetypes="ccc" /><path
       style="fill:#7b7b7b;fill-opacity:0;stroke:#cc826b;stroke-width:4.09999;stroke-linecap:round;stroke-dasharray:none;stroke-opacity:1;paint-order:fill markers stroke"
       d="m 145.87023,169.6979 c 0,0 -0.18131,-43.17342 0.12697,-48.0904 0.2042,-3.25707 -20.27798,-22.042592 -20.27798,-22.042592"
       id="path3-4-7-3-4-8"
       sodipodi:nodetypes="ccc" /><path
       style="fill:#7b7b7b;fill-opacity:0;stroke:#cc826b;stroke-width:4.09999;stroke-linecap:round;stroke-dasharray:none;stroke-opacity:1;paint-order:fill markers stroke"
       d="m 159.04688,169.39832 c 0,0 -0.18131,-43.17342 0.12697,-48.0904 0.2042,-3.25707 -18.41433,-20.8778 -18.41433,-20.8778"
       id="path3-4-7-3-3-4"
       sodipodi:nodetypes="ccc" /><path
       style="fill:#7b7b7b;fill-opacity:0;stroke:#eea58f;stroke-width:4.09999;stroke-linecap:round;stroke-dasharray:none;stroke-opacity:1;paint-order:fill markers stroke"
       d="m 131.02748,170.0024 c 0,0 -4.37514,-44.57324 -4.63806,-49.49987 -0.17416,-3.26347 -20.70604,-21.257106 -20.70604,-21.257106"
       id="path3-1-4-0"
       sodipodi:nodetypes="ccc" /><path
       style="fill:#7b7b7b;fill-opacity:0;stroke:#eea58f;stroke-width:4.09999;stroke-linecap:round;stroke-dasharray:none;stroke-opacity:1;paint-order:fill markers stroke"
       d="m 141.61321,169.92112 c 0,0 -2.23371,-44.82033 -2.49663,-49.74696 -0.17416,-3.26347 -20.73516,-19.68465 -20.73516,-19.68465"
       id="path3-1-6-1-7"
       sodipodi:nodetypes="ccc" /><path
       style="fill:#7b7b7b;fill-opacity:0;stroke:#e69f8a;stroke-width:4.09999;stroke-linecap:round;stroke-dasharray:none;stroke-opacity:1;paint-order:fill markers stroke"
       d="m 114.6624,171.47777 -0.90599,-50.3235 c 0,-3.26347 -19.68464,-19.68465 -19.68464,-19.68465"
       id="path3-5"
       sodipodi:nodetypes="ccc" /><path
       style="fill:#7b7b7b;fill-opacity:0;stroke:#d49480;stroke-width:4.09999;stroke-linecap:round;stroke-dasharray:none;stroke-opacity:1;paint-order:fill markers stroke"
       d="m 106.58985,171.39101 c 0,0 3.27792,-43.25579 3.5862,-48.17277 0.2042,-3.25707 -21.66765,-22.8545 -21.66765,-22.8545"
       id="path3-4-42"
       sodipodi:nodetypes="ccc" /><path
       style="fill:#7b7b7b;fill-opacity:0;stroke:#d49480;stroke-width:4.09999;stroke-linecap:round;stroke-dasharray:none;stroke-opacity:1;paint-order:fill markers stroke"
       d="m 80.39852,171.31151 c 0,0 3.7605,-42.73983 4.11415,-47.59816 0.23427,-3.21822 -21.125281,-20.62876 -21.125281,-20.62876"
       id="path3-4-5-0"
       sodipodi:nodetypes="ccc" /><path
       style="fill:#7b7b7b;fill-opacity:0;stroke:#d49480;stroke-width:4.09999;stroke-linecap:round;stroke-dasharray:none;stroke-opacity:1;paint-order:fill markers stroke"
       d="m 101.75416,171.8828 c 0,0 -0.20563,-43.17342 0.14401,-48.0904 0.23159,-3.25707 -21.749527,-23.63695 -21.749527,-23.63695"
       id="path3-4-7-9"
       sodipodi:nodetypes="ccc" /><path
       style="fill:#7b7b7b;fill-opacity:0;stroke:#eeb09d;stroke-width:4.09999;stroke-linecap:round;stroke-dasharray:none;stroke-opacity:1;paint-order:fill markers stroke"
       d="m 111.37994,171.37326 c 0,0 -4.37514,-44.57324 -4.63806,-49.49987 -0.17416,-3.26347 -20.73516,-19.68465 -20.73516,-19.68465"
       id="path3-1-7"
       sodipodi:nodetypes="ccc" /><path
       style="fill:#7b7b7b;fill-opacity:0;stroke:#eeb09d;stroke-width:4.09999;stroke-linecap:round;stroke-dasharray:none;stroke-opacity:1;paint-order:fill markers stroke"
       d="m 84.67331,170.37125 c 0,0 -4.37514,-44.57324 -4.638061,-49.49987 -0.17416,-3.26347 -20.73516,-19.68465 -20.73516,-19.68465"
       id="path3-1-61-3"
       sodipodi:nodetypes="ccc" /><path
       style="fill:#7b7b7b;fill-opacity:0;stroke:#ee987e;stroke-width:4.09999;stroke-linecap:round;stroke-dasharray:none;stroke-opacity:1;paint-order:fill markers stroke"
       d="m 121.63622,171.04489 c 0,0 -2.23371,-44.82033 -2.49663,-49.74696 -0.17416,-3.26347 -20.73516,-19.68465 -20.73516,-19.68465"
       id="path3-1-6-7"
       sodipodi:nodetypes="ccc" /><path
       style="fill:#7b7b7b;fill-opacity:0;stroke:#ee987e;stroke-width:4.09999;stroke-linecap:round;stroke-dasharray:none;stroke-opacity:1;paint-order:fill markers stroke"
       d="m 96.15533,169.96887 c 0,0 -2.23371,-44.82033 -2.49663,-49.74696 -0.17416,-3.26347 -20.735161,-19.68465 -20.735161,-19.68465"
       id="path3-1-6-0-2"
       sodipodi:nodetypes="ccc" /><path
       style="fill:#7b7b7b;fill-opacity:0;stroke:#ee987e;stroke-width:4.09999;stroke-linecap:round;stroke-dasharray:none;stroke-opacity:1;paint-order:fill markers stroke"
       d="m 90.35928,168.44919 c 0,0 -2.23371,-44.82033 -2.49663,-49.74696 C 87.68849,115.43876 67.127489,99.017584 67.127489,99.017584"
       id="path3-1-6-5-6"
       sodipodi:nodetypes="ccc" /><path
       style="fill:#7b7b7b;fill-opacity:0;stroke:#e4a896;stroke-width:4.09999;stroke-linecap:round;stroke-dasharray:none;stroke-opacity:1;paint-order:fill markers stroke"
       d="m 92.86225,171.38086 -0.90599,-50.3235 c 0,-3.26347 -20.63181,-21.167176 -20.63181,-21.167176"
       id="path3-12-0"
       sodipodi:nodetypes="ccc" /><path
       style="fill:#7b7b7b;fill-opacity:0;stroke:#d49480;stroke-width:4.09999;stroke-linecap:round;stroke-dasharray:none;stroke-opacity:1;paint-order:fill markers stroke"
       d="m 84.7897,171.2941 c 0,0 3.27792,-43.25579 3.5862,-48.17277 0.2042,-3.25707 -21.29702,-22.93686 -21.29702,-22.93686"
       id="path3-4-3-16"
       sodipodi:nodetypes="ccc" /><path
       style="fill:#7b7b7b;fill-opacity:0;stroke:#cc826b;stroke-width:4.09999;stroke-linecap:round;stroke-dasharray:none;stroke-opacity:1;paint-order:fill markers stroke"
       d="m 79.971659,171.78589 c 0,0 -0.18131,-43.17342 0.12697,-48.0904 0.204201,-3.25707 -18.41433,-20.87781 -18.41433,-20.87781"
       id="path3-4-7-3-5"
       sodipodi:nodetypes="ccc" /><path
       style="fill:#7b7b7b;fill-opacity:0;stroke:#ee987e;stroke-width:4.09999;stroke-linecap:round;stroke-dasharray:none;stroke-opacity:1;paint-order:fill markers stroke"
       d="m 111.78348,171.26064 c 0,0 -0.18131,-43.17342 0.12697,-48.0904 0.2042,-3.25707 -19.05496,-23.0909 -19.05496,-23.0909"
       id="path3-4-7-3-44-7"
       sodipodi:nodetypes="ccc" /><path
       style="fill:#7b7b7b;fill-opacity:0;stroke:#cc826b;stroke-width:4.09999;stroke-linecap:round;stroke-dasharray:none;stroke-opacity:1;paint-order:fill markers stroke"
       d="m 104.42254,170.97185 c 0,0 -0.18131,-43.17342 0.12697,-48.0904 0.2042,-3.25707 -20.432212,-22.895688 -20.432212,-22.895688"
       id="path3-4-7-3-4-5"
       sodipodi:nodetypes="ccc" /><path
       style="fill:#7b7b7b;fill-opacity:0;stroke:#cc826b;stroke-width:4.09999;stroke-linecap:round;stroke-dasharray:none;stroke-opacity:1;paint-order:fill markers stroke"
       d="m 117.59919,170.67227 c 0,0 -0.18131,-43.17342 0.12697,-48.0904 0.2042,-3.25707 -20.103264,-22.595854 -20.103264,-22.595854"
       id="path3-4-7-3-3-41"
       sodipodi:nodetypes="ccc" /><path
       style="fill:#7b7b7b;fill-opacity:0;stroke:#eea58f;stroke-width:4.09999;stroke-linecap:round;stroke-dasharray:none;stroke-opacity:1;paint-order:fill markers stroke"
       d="m 89.57979,171.27635 c 0,0 -4.37514,-44.57324 -4.63806,-49.49987 -0.17416,-3.26347 -20.735161,-19.68465 -20.735161,-19.68465"
       id="path3-1-4-2"
       sodipodi:nodetypes="ccc" /><path
       style="fill:#7b7b7b;fill-opacity:0;stroke:#eea58f;stroke-width:4.09999;stroke-linecap:round;stroke-dasharray:none;stroke-opacity:1;paint-order:fill markers stroke"
       d="m 100.16552,171.19507 c 0,0 -2.23371,-44.82033 -2.49663,-49.74696 C 97.49473,118.18464 75.945379,99.704387 75.945379,99.704387"
       id="path3-1-6-1-0"
       sodipodi:nodetypes="ccc" /><path
       style="fill:#7b7b7b;fill-opacity:0;stroke:#e69f8a;stroke-width:4.09999;stroke-linecap:round;stroke-dasharray:none;stroke-opacity:1;paint-order:fill markers stroke"
       d="m 76.6812,170.18553 -0.90599,-50.3235 c 0,-3.26347 -19.68464,-19.68464 -19.68464,-19.68464"
       id="path3-0"
       sodipodi:nodetypes="ccc" /><path
       style="fill:#7b7b7b;fill-opacity:0;stroke:#d49480;stroke-width:4.09999;stroke-linecap:round;stroke-dasharray:none;stroke-opacity:1;paint-order:fill markers stroke"
       d="m 68.60865,170.09877 c 0,0 3.27792,-43.25579 3.5862,-48.17277 0.2042,-3.25707 -19.773312,-21.33079 -19.773312,-21.33079"
       id="path3-4-71"
       sodipodi:nodetypes="ccc" /><path
       style="fill:#7b7b7b;fill-opacity:0;stroke:#d49480;stroke-width:4.09999;stroke-linecap:round;stroke-dasharray:none;stroke-opacity:1;paint-order:fill markers stroke"
       d="m 42.41732,170.01927 c 0,0 3.7605,-42.73983 4.11415,-47.59816 0.23427,-3.21822 -21.12528,-20.62876 -21.12528,-20.62876"
       id="path3-4-5-7"
       sodipodi:nodetypes="ccc" /><path
       style="fill:#7b7b7b;fill-opacity:0;stroke:#d49480;stroke-width:4.09999;stroke-linecap:round;stroke-dasharray:none;stroke-opacity:1;paint-order:fill markers stroke"
       d="m 63.77296,170.59056 c 0,0 -0.20563,-43.17342 0.14401,-48.0904 0.23159,-3.25707 -20.88472,-20.87781 -20.88472,-20.87781"
       id="path3-4-7-7"
       sodipodi:nodetypes="ccc" /><path
       style="fill:#7b7b7b;fill-opacity:0;stroke:#eeb09d;stroke-width:4.09999;stroke-linecap:round;stroke-dasharray:none;stroke-opacity:1;paint-order:fill markers stroke"
       d="m 73.39874,170.08102 c 0,0 -4.37514,-44.57324 -4.63806,-49.49987 C 68.58652,117.31768 48.02552,100.8965 48.02552,100.8965"
       id="path3-1-77"
       sodipodi:nodetypes="ccc" /><path
       style="fill:#7b7b7b;fill-opacity:0;stroke:#eeb09d;stroke-width:4.09999;stroke-linecap:round;stroke-dasharray:none;stroke-opacity:1;paint-order:fill markers stroke"
       d="m 46.69211,169.07901 c 0,0 -4.37514,-44.57324 -4.63806,-49.49987 C 41.87989,116.31567 21.31889,99.894495 21.31889,99.894495"
       id="path3-1-61-33"
       sodipodi:nodetypes="ccc" /><path
       style="fill:#7b7b7b;fill-opacity:0;stroke:#ee987e;stroke-width:4.09999;stroke-linecap:round;stroke-dasharray:none;stroke-opacity:1;paint-order:fill markers stroke"
       d="m 83.65502,169.75265 c 0,0 -2.23371,-44.82033 -2.49663,-49.74696 -0.17416,-3.26347 -20.73516,-19.68465 -20.73516,-19.68465"
       id="path3-1-6-59"
       sodipodi:nodetypes="ccc" /><path
       style="fill:#7b7b7b;fill-opacity:0;stroke:#ee987e;stroke-width:4.09999;stroke-linecap:round;stroke-dasharray:none;stroke-opacity:1;paint-order:fill markers stroke"
       d="m 58.17413,168.67663 c 0,0 -2.23371,-44.82033 -2.49663,-49.74696 C 55.50334,115.6662 34.94234,99.245022 34.94234,99.245022"
       id="path3-1-6-0-9"
       sodipodi:nodetypes="ccc" /><path
       style="fill:#7b7b7b;fill-opacity:0;stroke:#ee987e;stroke-width:4.09999;stroke-linecap:round;stroke-dasharray:none;stroke-opacity:1;paint-order:fill markers stroke"
       d="m 52.37808,167.15695 c 0,0 -2.23371,-44.82033 -2.49663,-49.74696 -0.17416,-3.26347 -18.799641,-16.84313 -18.799641,-16.84313"
       id="path3-1-6-5-8"
       sodipodi:nodetypes="ccc" /><path
       style="fill:#7b7b7b;fill-opacity:0;stroke:#e4a896;stroke-width:4.09999;stroke-linecap:round;stroke-dasharray:none;stroke-opacity:1;paint-order:fill markers stroke"
       d="m 54.88105,170.08862 -0.90599,-50.3235 c 0,-3.26347 -19.68464,-19.68464 -19.68464,-19.68464"
       id="path3-12-1"
       sodipodi:nodetypes="ccc" /><path
       style="fill:#7b7b7b;fill-opacity:0;stroke:#d49480;stroke-width:4.09999;stroke-linecap:round;stroke-dasharray:none;stroke-opacity:1;paint-order:fill markers stroke"
       d="m 46.8085,170.00186 c 0,0 3.27792,-43.25579 3.5862,-48.17277 0.2042,-3.25707 -18.41433,-20.8778 -18.41433,-20.8778"
       id="path3-4-3-8"
       sodipodi:nodetypes="ccc" /><path
       style="fill:#7b7b7b;fill-opacity:0;stroke:#cc826b;stroke-width:4.09999;stroke-linecap:round;stroke-dasharray:none;stroke-opacity:1;paint-order:fill markers stroke"
       d="m 41.99046,170.49365 c 0,0 -0.18131,-43.17342 0.12697,-48.0904 0.2042,-3.25707 -18.41433,-20.87781 -18.41433,-20.87781"
       id="path3-4-7-3-2"
       sodipodi:nodetypes="ccc" /><path
       style="fill:#7b7b7b;fill-opacity:0;stroke:#ee987e;stroke-width:4.09999;stroke-linecap:round;stroke-dasharray:none;stroke-opacity:1;paint-order:fill markers stroke"
       d="m 73.80228,169.9684 c 0,0 -0.18131,-43.17342 0.12697,-48.0904 0.2042,-3.25707 -18.41433,-20.87781 -18.41433,-20.87781"
       id="path3-4-7-3-44-6"
       sodipodi:nodetypes="ccc" /><path
       style="fill:#7b7b7b;fill-opacity:0;stroke:#cc826b;stroke-width:4.09999;stroke-linecap:round;stroke-dasharray:none;stroke-opacity:1;paint-order:fill markers stroke"
       d="m 66.44134,169.67961 c 0,0 -0.18131,-43.17342 0.12697,-48.0904 0.2042,-3.25707 -20.844025,-21.824979 -20.844025,-21.824979"
       id="path3-4-7-3-4-6"
       sodipodi:nodetypes="ccc" /><path
       style="fill:#7b7b7b;fill-opacity:0;stroke:#cc826b;stroke-width:4.09999;stroke-linecap:round;stroke-dasharray:none;stroke-opacity:1;paint-order:fill markers stroke"
       d="m 79.61799,169.38003 c 0,0 -0.18131,-43.17342 0.12697,-48.0904 0.2042,-3.25707 -18.41433,-20.8778 -18.41433,-20.8778"
       id="path3-4-7-3-3-0"
       sodipodi:nodetypes="ccc" /><path
       style="fill:#7b7b7b;fill-opacity:0;stroke:#eea58f;stroke-width:4.09999;stroke-linecap:round;stroke-dasharray:none;stroke-opacity:1;paint-order:fill markers stroke"
       d="m 51.59859,169.98411 c 0,0 -4.37514,-44.57324 -4.63806,-49.49987 -0.17416,-3.26347 -20.73516,-19.68465 -20.73516,-19.68465"
       id="path3-1-4-3"
       sodipodi:nodetypes="ccc" /><path
       style="fill:#7b7b7b;fill-opacity:0;stroke:#eea58f;stroke-width:4.09999;stroke-linecap:round;stroke-dasharray:none;stroke-opacity:1;paint-order:fill markers stroke"
       d="m 62.18432,169.90283 c 0,0 -2.23371,-44.82033 -2.49663,-49.74696 -0.17416,-3.26347 -20.73516,-19.68465 -20.73516,-19.68465"
       id="path3-1-6-1-8"
       sodipodi:nodetypes="ccc" /><path
       style="fill:#7b7b7b;fill-opacity:0;stroke:#e69f8a;stroke-width:4.09999;stroke-linecap:round;stroke-dasharray:none;stroke-opacity:1;paint-order:fill markers stroke"
       d="m 33.855948,171.26352 -0.90599,-50.3235 c 0,-3.26347 -19.68464,-19.68465 -19.68464,-19.68465"
       id="path3-09"
       sodipodi:nodetypes="ccc" /><path
       style="fill:#7b7b7b;fill-opacity:0;stroke:#d49480;stroke-width:4.09999;stroke-linecap:round;stroke-dasharray:none;stroke-opacity:1;paint-order:fill markers stroke"
       d="m 25.783398,171.17676 c 0,0 3.27792,-43.25579 3.5862,-48.17277 0.2042,-3.25707 -18.41433,-20.8778 -18.41433,-20.8778"
       id="path3-4-47"
       sodipodi:nodetypes="ccc" /><path
       style="fill:#7b7b7b;fill-opacity:0;stroke:#ee987e;stroke-width:4.09999;stroke-linecap:round;stroke-dasharray:none;stroke-opacity:1;paint-order:fill markers stroke"
       d="m 40.829768,170.83064 c 0,0 -2.23371,-44.82033 -2.49663,-49.74696 -0.17416,-3.26347 -20.73516,-19.68465 -20.73516,-19.68465"
       id="path3-1-6-01"
       sodipodi:nodetypes="ccc" /><path
       style="fill:#7b7b7b;fill-opacity:0;stroke:#ee987e;stroke-width:4.09999;stroke-linecap:round;stroke-dasharray:none;stroke-opacity:1;paint-order:fill markers stroke"
       d="m 30.977028,171.04639 c 0,0 -0.18131,-43.17342 0.12697,-48.0904 0.2042,-3.25707 -18.41433,-20.87781 -18.41433,-20.87781"
       id="path3-4-7-3-44-8"
       sodipodi:nodetypes="ccc" /><path
       style="fill:#7b7b7b;fill-opacity:0;stroke:#cc826b;stroke-width:4.09999;stroke-linecap:round;stroke-dasharray:none;stroke-opacity:1;paint-order:fill markers stroke"
       d="m 36.792738,170.45802 c 0,0 -0.18131,-43.17342 0.12697,-48.0904 0.2042,-3.25707 -18.41433,-20.87781 -18.41433,-20.87781"
       id="path3-4-7-3-3-1"
       sodipodi:nodetypes="ccc" /><path
       id="rect2-1"
       style="fill:#5f5f5f;stroke:#3e2f60;stroke-width:0;stroke-linecap:round;paint-order:fill markers stroke"
       d="M 9.8853214,84.171546 33.853463,110.76079 c 0.456109,0.50599 0.823303,1.46174 0.823303,2.14296 v 71.50793 c 0,1.01067 -5.41301,1.14024 -5.806236,0.58398 L 9.8853214,158.13874 c -0.39322,-0.55626 -0.771159,-1.46375 -0.823297,-2.14297 l -5.52595,-71.984738 c -0.05216,-0.679242 5.518658,-0.760905 6.349247,0.160514 z"
       sodipodi:nodetypes="sssssssss" /><path
       id="rect2-8-7"
       style="fill:#7b7b7b;stroke:#3e2f60;stroke-width:0;stroke-linecap:round;paint-order:fill markers stroke"
       d="M 4.2846834,84.171556 28.252825,110.7608 c 0.456103,0.50598 0.823297,1.46174 0.823297,2.14296 v 71.50792 c 0,0.68122 -0.367194,0.82229 -0.823297,0.31631 L 4.2846834,158.13875 c -0.45611,-0.50599 -0.823304,-1.46176 -0.823304,-2.14297 V 84.487849 c 0,-0.68122 0.367194,-0.822281 0.823304,-0.316293 z"
       sodipodi:nodetypes="sssssssss" /><path
       style="fill:#7b7b7b;fill-opacity:0;stroke:#d49480;stroke-width:4.09999;stroke-linecap:round;stroke-dasharray:none;stroke-opacity:1;paint-order:fill markers stroke"
       d="m 208.32025,168.00367 c 0,0 3.7605,-42.73983 4.11415,-47.59816 0.23427,-3.21822 -21.12528,-20.628757 -21.12528,-20.628757"
       id="path3-4-5-83"
       sodipodi:nodetypes="ccc" /><path
       style="fill:#7b7b7b;fill-opacity:0;stroke:#d49480;stroke-width:4.09999;stroke-linecap:round;stroke-dasharray:none;stroke-opacity:1;paint-order:fill markers stroke"
       d="m 229.67589,168.57496 c 0,0 -0.20563,-43.17342 0.14401,-48.0904 0.23159,-3.25707 -20.88472,-20.877807 -20.88472,-20.877807"
       id="path3-4-7-8"
       sodipodi:nodetypes="ccc" /><path
       style="fill:#7b7b7b;fill-opacity:0;stroke:#eeb09d;stroke-width:4.09999;stroke-linecap:round;stroke-dasharray:none;stroke-opacity:1;paint-order:fill markers stroke"
       d="m 212.59504,167.06341 c 0,0 -4.37514,-44.57324 -4.63806,-49.49987 -0.17416,-3.26347 -20.73516,-19.684645 -20.73516,-19.684645"
       id="path3-1-61-1"
       sodipodi:nodetypes="ccc" /><path
       style="fill:#7b7b7b;fill-opacity:0;stroke:#ee987e;stroke-width:4.09999;stroke-linecap:round;stroke-dasharray:none;stroke-opacity:1;paint-order:fill markers stroke"
       d="m 224.07706,166.66103 c 0,0 -2.23371,-44.82033 -2.49663,-49.74696 -0.17416,-3.26347 -20.73516,-19.684648 -20.73516,-19.684648"
       id="path3-1-6-0-3"
       sodipodi:nodetypes="ccc" /><path
       style="fill:#7b7b7b;fill-opacity:0;stroke:#ee987e;stroke-width:4.09999;stroke-linecap:round;stroke-dasharray:none;stroke-opacity:1;paint-order:fill markers stroke"
       d="m 218.28101,165.14135 c 0,0 -2.23371,-44.82033 -2.49663,-49.74696 -0.17416,-3.26347 -17.59025,-17.296839 -17.59025,-17.296839"
       id="path3-1-6-5-49"
       sodipodi:nodetypes="ccc" /><path
       style="fill:#7b7b7b;fill-opacity:0;stroke:#e4a896;stroke-width:4.09999;stroke-linecap:round;stroke-dasharray:none;stroke-opacity:1;paint-order:fill markers stroke"
       d="m 220.78398,168.07302 -0.90599,-50.3235 c 0,-3.26347 -19.68464,-19.684641 -19.68464,-19.684641"
       id="path3-12-6"
       sodipodi:nodetypes="ccc" /><path
       style="fill:#7b7b7b;fill-opacity:0;stroke:#d49480;stroke-width:4.09999;stroke-linecap:round;stroke-dasharray:none;stroke-opacity:1;paint-order:fill markers stroke"
       d="m 212.71143,167.98626 c 0,0 3.27792,-43.25579 3.5862,-48.17277 0.2042,-3.25707 -18.41433,-20.877797 -18.41433,-20.877797"
       id="path3-4-3-5"
       sodipodi:nodetypes="ccc" /><path
       style="fill:#7b7b7b;fill-opacity:0;stroke:#cc826b;stroke-width:4.09999;stroke-linecap:round;stroke-dasharray:none;stroke-opacity:1;paint-order:fill markers stroke"
       d="m 207.89339,168.47805 c 0,0 -0.18131,-43.17342 0.12697,-48.0904 0.2042,-3.25707 -18.41433,-20.877807 -18.41433,-20.877807"
       id="path3-4-7-3-1"
       sodipodi:nodetypes="ccc" /><path
       style="fill:#7b7b7b;fill-opacity:0;stroke:#eea58f;stroke-width:4.09999;stroke-linecap:round;stroke-dasharray:none;stroke-opacity:1;paint-order:fill markers stroke"
       d="m 217.50152,167.96851 c 0,0 -4.37514,-44.57324 -4.63806,-49.49987 C 212.6893,115.20517 192.1283,98.783993 192.1283,98.783993"
       id="path3-1-4-6"
       sodipodi:nodetypes="ccc" /><path
       style="fill:#7b7b7b;fill-opacity:0;stroke:#eea58f;stroke-width:4.09999;stroke-linecap:round;stroke-dasharray:none;stroke-opacity:1;paint-order:fill markers stroke"
       d="m 228.08725,167.88723 c 0,0 -2.23371,-44.82033 -2.49663,-49.74696 -0.17416,-3.26347 -20.73516,-19.684653 -20.73516,-19.684653"
       id="path3-1-6-1-83"
       sodipodi:nodetypes="ccc" /></g></svg>
