<?xml version="1.0" encoding="UTF-8" standalone="no"?>
<!-- Created with Inkscape (http://www.inkscape.org/) -->

<svg
   width="2000.11"
   height="895.69"
   viewBox="0 0 529.1947 236.98398"
   version="1.1"
   id="svg1"
   inkscape:version="1.4.2 (f4327f4, 2025-05-13)"
   sodipodi:docname="CountDownContainerDecoAntiMagnet.svg"
   xml:space="preserve"
   xmlns:inkscape="http://www.inkscape.org/namespaces/inkscape"
   xmlns:sodipodi="http://sodipodi.sourceforge.net/DTD/sodipodi-0.dtd"
   xmlns="http://www.w3.org/2000/svg"
   xmlns:svg="http://www.w3.org/2000/svg"><sodipodi:namedview
     id="namedview1"
     pagecolor="#ffffff"
     bordercolor="#000000"
     borderopacity="0.25"
     inkscape:showpageshadow="2"
     inkscape:pageopacity="0.0"
     inkscape:pagecheckerboard="0"
     inkscape:deskcolor="#d1d1d1"
     inkscape:document-units="mm"
     inkscape:zoom="1.1357605"
     inkscape:cx="964.11171"
     inkscape:cy="786.69755"
     inkscape:window-width="3840"
     inkscape:window-height="2054"
     inkscape:window-x="-11"
     inkscape:window-y="-11"
     inkscape:window-maximized="1"
     inkscape:current-layer="layer1"
     showgrid="true"><inkscape:grid
       id="grid1"
       units="mm"
       originx="139"
       originy="10.68689"
       spacingx="0.99999999"
       spacingy="0.99999998"
       empcolor="#0099e5"
       empopacity="0.30196078"
       color="#0099e5"
       opacity="0.14901961"
       empspacing="5"
       enabled="true"
       visible="true" /></sodipodi:namedview><defs
     id="defs1"><inkscape:path-effect
       effect="mirror_symmetry"
       start_point="-17.480005,131.19358"
       end_point="11.635149,147.69626"
       center_point="-2.922428,139.44492"
       id="path-effect163"
       is_visible="true"
       lpeversion="1.2"
       lpesatellites=""
       mode="free"
       discard_orig_path="false"
       fuse_paths="true"
       oposite_fuse="true"
       split_items="false"
       split_open="false"
       link_styles="false" /><inkscape:path-effect
       effect="spiro"
       id="path-effect162"
       is_visible="true"
       lpeversion="1" /><inkscape:path-effect
       effect="spiro"
       id="path-effect6"
       is_visible="true"
       lpeversion="1" /><inkscape:path-effect
       effect="mirror_symmetry"
       start_point="77.199904,69.000027"
       end_point="77.199904,93.044622"
       center_point="77.199904,81.022324"
       id="path-effect2"
       is_visible="true"
       lpeversion="1.2"
       lpesatellites=""
       mode="free"
       discard_orig_path="false"
       fuse_paths="false"
       oposite_fuse="false"
       split_items="false"
       split_open="false"
       link_styles="false" /><inkscape:path-effect
       effect="fillet_chamfer"
       id="path-effect5"
       is_visible="true"
       lpeversion="1"
       nodesatellites_param="F,0,0,1,0,0,0,1 @ F,0,0,1,0,2.0496102,0,1 @ F,0,0,1,0,0,0,1"
       radius="0"
       unit="px"
       method="auto"
       mode="F"
       chamfer_steps="1"
       flexible="false"
       use_knot_distance="true"
       apply_no_radius="true"
       apply_with_radius="true"
       only_selected="false"
       hide_knots="false" /><inkscape:path-effect
       effect="fillet_chamfer"
       id="path-effect28"
       is_visible="true"
       lpeversion="1"
       nodesatellites_param="F,0,0,1,0,0,0,1 @ F,0,0,1,0,0,0,1 @ F,0,0,1,0,0,0,1 @ F,0,0,1,0,0,0,1 @ F,0,0,1,0,0,0,1 @ F,0,0,1,0,0,0,1 @ F,0,0,1,0,0,0,1 @ F,0,0,1,0,0,0,1 @ F,0,0,1,0,0,0,1 @ F,0,0,1,0,0,0,1 @ F,0,0,1,0,0,0,1 @ F,0,0,1,0,0,0,1 | F,0,0,1,0,0,0,1 @ F,0,0,1,0,0,0,1 @ F,0,0,1,0,0,0,1 @ F,0,0,1,0,0,0,1 @ F,0,0,1,0,0,0,1 @ F,0,0,1,0,0,0,1 @ F,0,0,1,0,0,0,1 @ F,0,0,1,0,0,0,1 @ F,0,0,1,0,0,0,1 @ F,0,0,1,0,0,0,1 @ F,0,0,1,0,0,0,1"
       radius="0"
       unit="px"
       method="auto"
       mode="F"
       chamfer_steps="1"
       flexible="false"
       use_knot_distance="true"
       apply_no_radius="true"
       apply_with_radius="true"
       only_selected="false"
       hide_knots="false" /><inkscape:path-effect
       effect="powerstroke"
       message=""
       id="path-effect4"
       is_visible="true"
       lpeversion="1.3"
       scale_width="1"
       interpolator_type="CentripetalCatmullRom"
       interpolator_beta="0.75"
       start_linecap_type="round"
       end_linecap_type="round"
       offset_points="10.839744,0.43679433"
       linejoin_type="spiro"
       miter_limit="4"
       not_jump="true"
       sort_points="true" /><inkscape:path-effect
       effect="simplify"
       id="path-effect3"
       is_visible="true"
       lpeversion="1.3"
       threshold="0.012"
       steps="1"
       smooth_angles="0"
       helper_size="0"
       simplify_individual_paths="false"
       simplify_just_coalesce="false"
       step="1" /><inkscape:path-effect
       effect="fillet_chamfer"
       id="path-effect5-4"
       is_visible="true"
       lpeversion="1"
       nodesatellites_param="F,0,0,1,0,0,0,1 @ F,0,0,1,0,2.0496102,0,1 @ F,0,0,1,0,0,0,1"
       radius="0"
       unit="px"
       method="auto"
       mode="F"
       chamfer_steps="1"
       flexible="false"
       use_knot_distance="true"
       apply_no_radius="true"
       apply_with_radius="true"
       only_selected="false"
       hide_knots="false" /><inkscape:path-effect
       effect="fillet_chamfer"
       id="path-effect5-4-5"
       is_visible="true"
       lpeversion="1"
       nodesatellites_param="F,0,0,1,0,0,0,1 @ F,0,0,1,0,2.0496102,0,1 @ F,0,0,1,0,0,0,1"
       radius="0"
       unit="px"
       method="auto"
       mode="F"
       chamfer_steps="1"
       flexible="false"
       use_knot_distance="true"
       apply_no_radius="true"
       apply_with_radius="true"
       only_selected="false"
       hide_knots="false" /><inkscape:path-effect
       effect="spiro"
       id="path-effect6-4"
       is_visible="true"
       lpeversion="1" /></defs><g
     inkscape:label="Ebene 1"
     inkscape:groupmode="layer"
     id="layer1"
     transform="translate(138.80001,10.686892)"><path
       style="fill:#ffaf98;fill-opacity:0;stroke:#d38066;stroke-width:4.1;stroke-linecap:square;stroke-dasharray:none;stroke-opacity:1;paint-order:fill markers stroke"
       d="M 16.116005,108.58679 C 9.5457814,107.5289 3.3978232,104.02752 -0.86399469,98.916366 -5.1258125,93.805213 -7.4650311,87.128007 -7.324665,80.474641 -7.1842989,73.821275 -4.5655488,67.248667 -0.09195889,62.321805 4.3816311,57.394942 10.67179,54.155974 17.280785,53.376121 c 2.478996,-0.292518 5.005411,-0.249152 7.454607,0.232957 2.880117,0.566933 5.670051,1.763279 7.889381,3.684493 2.219329,1.921214 3.834936,4.597355 4.229245,7.506136 0.197154,1.454391 0.08954,2.953218 -0.34811,4.35414 -0.437652,1.400922 -1.207757,2.701192 -2.251547,3.732998 -1.043791,1.031805 -2.361779,1.790279 -3.787264,2.139731 -1.425484,0.349451 -2.955085,0.284332 -4.333968,-0.218464 -2.166657,-0.790051 -3.850879,-2.614138 -4.840479,-4.697231 -0.9896,-2.083093 -1.346018,-4.413743 -1.449345,-6.717633 -0.301837,-6.730093 1.53256,-13.575269 5.353884,-19.123489 3.821324,-5.54822 9.639866,-9.73678 16.173842,-11.377639 6.533976,-1.640859 13.728418,-0.665236 19.474381,2.851748 5.745963,3.516983 9.923251,9.575923 10.947173,16.234515 0.22001,1.430728 0.300103,2.89015 0.126661,4.327268 -0.173442,1.437117 -0.606278,2.853732 -1.361543,4.088626 -0.755265,1.234894 -1.842526,2.281918 -3.154056,2.894518 -1.311529,0.6126 -2.849304,0.770793 -4.23045,0.337407 -1.348092,-0.423014 -2.495497,-1.390624 -3.244399,-2.588722 -0.748902,-1.198099 -1.113653,-2.613932 -1.160792,-4.026048 -0.09428,-2.824233 1.031846,-5.540549 2.308585,-8.061484 2.944244,-5.81344 6.845081,-11.19509 11.803816,-15.423045 4.958735,-4.227955 11.008577,-7.268293 17.453894,-8.228791 6.445316,-0.960498 13.275309,0.244046 18.753619,3.772904 5.4783,3.528858 9.47191,9.446169 10.22777,15.918675 0.28108,2.406892 0.11393,4.915205 -0.86794,7.130622 -0.49093,1.107709 -1.18339,2.131143 -2.06537,2.961891 -0.88198,0.830747 -1.95575,1.465352 -3.12355,1.788263 -1.58233,0.437532 -3.30681,0.28663 -4.82325,-0.342353 -1.51644,-0.628983 -2.82425,-1.72203 -3.78313,-3.054605 -1.91775,-2.665151 -2.3894,-6.17251 -1.87666,-9.415644 0.89592,-5.666736 4.65622,-10.690987 9.57349,-13.646488 4.91728,-2.955501 10.88091,-3.936551 16.58218,-3.296088 5.70126,0.640463 11.15384,2.830501 16.05929,5.805577 4.90546,2.975076 9.29812,6.723955 13.46162,10.671085 2.08858,1.980038 4.13861,4.029753 5.77042,6.400385 1.63181,2.370633 2.83767,5.096576 3.06552,7.965511 0.22785,2.868936 -0.60302,5.886485 -2.58311,7.975015 -0.99004,1.044265 -2.25099,1.839092 -3.63585,2.230042 -1.38486,0.390951 -2.89124,0.369838 -4.24768,-0.11053 -1.26319,-0.447345 -2.37703,-1.283951 -3.2055,-2.337232 -0.82847,-1.05328 -1.37521,-2.317495 -1.63386,-3.632358 -0.51729,-2.629726 0.11871,-5.391729 1.34502,-7.774838 2.02135,-3.928114 5.60982,-6.941188 9.6822,-8.653385 4.07239,-1.712197 8.60103,-2.179911 12.99999,-1.77363 8.79793,0.812563 16.88496,4.953557 24.8409,8.796321 1.64644,0.795239 3.3027,1.583612 4.83956,2.574179 1.53686,0.990568 2.96072,2.19608 4.00361,3.697924 1.04289,1.501844 1.68611,3.320377 1.5891,5.146232 -0.0485,0.912928 -0.28186,1.818735 -0.70717,2.627996 -0.42531,0.80926 -1.04437,1.51984 -1.80457,2.027663 -1.18261,0.789998 -2.685,1.059878 -4.0836,0.801849 -1.39861,-0.258028 -2.68537,-1.026959 -3.63182,-2.088514 -0.94645,-1.061555 -1.5576,-2.404681 -1.81091,-3.804144 -0.25332,-1.399463 -0.15596,-2.852624 0.20807,-4.22745 0.71452,-2.698507 2.45563,-5.078393 4.69721,-6.742057 2.24159,-1.663663 4.96079,-2.630863 7.73256,-2.96218 5.54354,-0.662634 11.10363,1.153751 16.11084,3.623125 3.03814,1.498302 5.97466,3.26084 8.47385,5.5476 2.49919,2.286761 4.55347,5.127035 5.57979,8.355332 1.02631,3.228298 0.9619,6.859442 -0.52134,9.904965 -0.74162,1.522762 -1.82758,2.882744 -3.17859,3.904302 -1.35101,1.021558 -2.96765,1.698964 -4.64973,1.897511 -1.57808,0.186271 -3.23364,-0.06214 -4.60115,-0.871437 -0.68375,-0.404649 -1.28921,-0.945849 -1.74793,-1.594565 -0.45872,-0.648717 -0.76858,-1.405438 -0.87254,-2.193125 -0.11703,-0.886685 0.0295,-1.803261 0.39504,-2.619535 0.36551,-0.816273 0.94672,-1.531548 1.65621,-2.076095 1.41898,-1.089093 3.32022,-1.461115 5.08483,-1.168229 1.76461,0.292887 3.39079,1.211258 4.69315,2.437426 1.30236,1.226168 2.29705,2.749945 3.07997,4.358257 1.88301,3.868185 2.57373,8.306789 1.95521,12.564253 -0.61852,4.257465 -2.5437,8.316035 -5.44957,11.488495"
       id="path4-2"
       sodipodi:nodetypes="cssssssssssssssssssssc"
       transform="translate(-2.8906489,-0.41009855)"
       inkscape:original-d="m 16.116005,108.58679 c 0.07765,-18.325903 0.621216,-36.884765 1.16478,-55.210669 0.543566,-18.325905 4.892086,0.232957 7.454607,0.232957 2.56252,0 1.16478,13.977385 1.397737,21.199034 0.232957,7.221647 -4.193215,-7.454607 -6.289824,-11.414864 -2.096606,-3.960261 34.399899,-7.532259 51.94928,-11.414865 17.549383,-3.882608 -5.513301,7.609909 -8.619388,11.647819 -3.106084,4.037913 -1.553042,-9.706515 -2.096606,-14.676254 -0.543566,-4.969736 38.748416,-2.484868 58.239099,-3.960257 19.4907,-1.47539 -3.96026,7.687561 -6.05686,11.880776 -2.09661,4.193215 -6.98869,-8.464083 -10.48304,-12.812602 -3.494347,-4.34852 37.11772,-0.232957 55.67658,-0.465914 18.55886,-0.232955 -1.08714,16.151646 -1.6307,24.460423 -0.54356,8.30878 -2.17426,-9.085298 -3.49434,-13.744428 -1.32009,-4.659126 31.52677,-1.08713 47.52309,-1.630694 15.99636,-0.543564 5.28036,10.715996 7.92053,16.073994 2.64019,5.357995 -6.28982,-6.289824 -9.31826,-9.318259 -3.02842,-3.028432 18.44583,-8.643632 28.54061,-6.081112 10.09475,2.562521 4.61686,24.251712 5.70398,29.60971 1.08714,5.357998 -4.96974,-2.87313 -7.22162,-4.659127 -2.25192,-1.785999 9.86181,0.543564 14.9092,0.931824 5.04739,0.388261 2.29073,20.752536 -3.49436,24.052748"
       inkscape:path-effect="#path-effect6-4" /><path
       style="fill:#eea58f;fill-opacity:0;stroke:#ee987e;stroke-width:4.1;stroke-linecap:square;stroke-dasharray:none;stroke-opacity:1;paint-order:fill markers stroke"
       d="M 16.116005,108.58679 C 9.5457814,107.5289 3.3978232,104.02752 -0.86399469,98.916366 -5.1258125,93.805213 -7.4650311,87.128007 -7.324665,80.474641 -7.1842989,73.821275 -4.5655488,67.248667 -0.09195889,62.321805 4.3816311,57.394942 10.67179,54.155974 17.280785,53.376121 c 2.478996,-0.292518 5.005411,-0.249152 7.454607,0.232957 2.880117,0.566933 5.670051,1.763279 7.889381,3.684493 2.219329,1.921214 3.834936,4.597355 4.229245,7.506136 0.197154,1.454391 0.08954,2.953218 -0.34811,4.35414 -0.437652,1.400922 -1.207757,2.701192 -2.251547,3.732998 -1.043791,1.031805 -2.361779,1.790279 -3.787264,2.139731 -1.425484,0.349451 -2.955085,0.284332 -4.333968,-0.218464 -2.166657,-0.790051 -3.850879,-2.614138 -4.840479,-4.697231 -0.9896,-2.083093 -1.346018,-4.413743 -1.449345,-6.717633 -0.301837,-6.730093 1.53256,-13.575269 5.353884,-19.123489 3.821324,-5.54822 9.639866,-9.73678 16.173842,-11.377639 6.533976,-1.640859 13.728418,-0.665236 19.474381,2.851748 5.745963,3.516983 9.923251,9.575923 10.947173,16.234515 0.22001,1.430728 0.300103,2.89015 0.126661,4.327268 -0.173442,1.437117 -0.606278,2.853732 -1.361543,4.088626 -0.755265,1.234894 -1.842526,2.281918 -3.154056,2.894518 -1.311529,0.6126 -2.849304,0.770793 -4.23045,0.337407 -1.348092,-0.423014 -2.495497,-1.390624 -3.244399,-2.588722 -0.748902,-1.198099 -1.113653,-2.613932 -1.160792,-4.026048 -0.09428,-2.824233 1.031846,-5.540549 2.308585,-8.061484 2.944244,-5.81344 6.845081,-11.19509 11.803816,-15.423045 4.958735,-4.227955 11.008577,-7.268293 17.453894,-8.228791 6.445316,-0.960498 13.275309,0.244046 18.753619,3.772904 5.4783,3.528858 9.47191,9.446169 10.22777,15.918675 0.28108,2.406892 0.11393,4.915205 -0.86794,7.130622 -0.49093,1.107709 -1.18339,2.131143 -2.06537,2.961891 -0.88198,0.830747 -1.95575,1.465352 -3.12355,1.788263 -1.58233,0.437532 -3.30681,0.28663 -4.82325,-0.342353 -1.51644,-0.628983 -2.82425,-1.72203 -3.78313,-3.054605 -1.91775,-2.66515 -2.3894,-6.17251 -1.87666,-9.415644 0.89592,-5.666736 4.65622,-10.690987 9.57349,-13.646487 4.91728,-2.9555 10.88091,-3.936549 16.58218,-3.296086 5.70126,0.640463 11.15384,2.830501 16.05929,5.805576 4.90546,2.975076 9.29812,6.723954 13.46162,10.671083 2.08858,1.980038 4.13861,4.029753 5.77042,6.400386 1.63182,2.370633 2.83768,5.096577 3.06553,7.965513 0.22785,2.868937 -0.60302,5.886487 -2.58311,7.975017 -0.99005,1.044265 -2.251,1.839091 -3.63586,2.230041 -1.38486,0.39095 -2.89124,0.369836 -4.24768,-0.110534 -1.26319,-0.447346 -2.37702,-1.283953 -3.20549,-2.337234 -0.82847,-1.05328 -1.37521,-2.317495 -1.63386,-3.632358 -0.51729,-2.629725 0.1187,-5.391726 1.34501,-7.774836 2.02135,-3.928123 5.60981,-6.941211 9.68219,-8.653425 4.07239,-1.712213 8.60103,-2.179943 13,-1.773669 8.79794,0.812547 16.88499,4.953555 24.8409,8.7964 1.64642,0.795248 3.30266,1.583633 4.8395,2.574207 1.53683,0.990574 2.96066,2.196086 4.00354,3.69792 1.04288,1.501834 1.6861,3.320345 1.58911,5.146186 -0.0485,0.912921 -0.28183,1.818723 -0.70712,2.627985 -0.42529,0.809263 -1.04432,1.519852 -1.8045,2.027696 -1.18261,0.790053 -2.68502,1.059984 -4.08366,0.801984 -1.39863,-0.258 -2.68544,-1.026925 -3.63192,-2.088495 -0.94647,-1.06157 -1.55763,-2.404731 -1.81092,-3.804228 -0.25329,-1.399496 -0.15588,-2.852688 0.20824,-4.22752 0.71465,-2.698368 2.45587,-5.078042 4.6975,-6.741487 2.24162,-1.663445 4.96077,-2.630431 7.73245,-2.961644 5.54336,-0.662426 11.10316,1.153697 16.11066,3.622019 3.03928,1.498135 5.97708,3.260384 8.4775,5.547199 2.50041,2.286815 4.55588,5.127542 5.58267,8.356677 1.02679,3.229135 0.96205,6.861529 -0.52259,9.907421 -0.74232,1.522946 -1.82922,2.882863 -3.18122,3.903902 -1.35199,1.021039 -2.96965,1.697456 -4.65238,1.894511 -1.57763,0.184748 -3.23213,-0.06499 -4.59894,-0.874244 -0.68341,-0.404628 -1.28866,-0.94547 -1.74764,-1.593618 -0.45899,-0.648148 -0.76961,-1.404087 -0.87504,-2.191265 -0.11894,-0.888057 0.026,-1.806567 0.39043,-2.625075 0.36447,-0.818507 0.94523,-1.536299 1.65493,-2.08322 1.4194,-1.09384 3.32382,-1.469791 5.09185,-1.177832 1.76803,0.291959 3.39762,1.212325 4.7005,2.442645 1.30288,1.23032 2.29519,2.76021 3.07149,4.375306 1.99184,4.144055 2.59101,8.942838 1.67927,13.449429 -0.91174,4.506591 -3.32915,8.695079 -6.77521,11.738979"
       id="path4"
       sodipodi:nodetypes="cssssssssssssssssssssc"
       inkscape:original-d="m 16.116005,108.58679 c 0.07765,-18.325903 0.621216,-36.884765 1.16478,-55.210669 0.543566,-18.325905 4.892086,0.232957 7.454607,0.232957 2.56252,0 1.16478,13.977385 1.397737,21.199034 0.232957,7.221647 -4.193215,-7.454607 -6.289824,-11.414864 -2.096606,-3.960261 34.399899,-7.532259 51.94928,-11.414865 17.549383,-3.882608 -5.513301,7.609909 -8.619388,11.647819 -3.106084,4.037913 -1.553042,-9.706515 -2.096606,-14.676254 -0.543566,-4.969736 38.748416,-2.484868 58.239099,-3.960257 19.4907,-1.47539 -3.96026,7.687561 -6.05686,11.880776 -2.09661,4.193215 -6.98869,-8.464083 -10.48304,-12.812602 -3.494347,-4.34852 37.11772,-0.232957 55.67658,-0.465914 18.55886,-0.232955 -1.08714,16.151646 -1.6307,24.460423 -0.54356,8.30878 -2.17426,-9.085298 -3.49434,-13.744428 -1.32009,-4.659126 31.52677,-1.08713 47.52309,-1.630694 15.99636,-0.543564 5.28036,10.715996 7.92053,16.073994 2.64019,5.357995 -6.28982,-6.289824 -9.31826,-9.318259 -3.02842,-3.028432 18.44583,-8.643632 28.54061,-6.081112 10.09475,2.562521 4.61686,24.251712 5.70398,29.60971 1.08714,5.357998 -4.96974,-2.87313 -7.22162,-4.659127 -2.25192,-1.785999 9.86181,0.543564 14.9092,0.931824 5.04739,0.388261 -0.59211,15.24894 -5.09594,25.188408"
       inkscape:path-effect="#path-effect6" /></g></svg>
