<?xml version="1.0" encoding="UTF-8" standalone="no"?>
<!-- Created with Inkscape (http://www.inkscape.org/) -->

<svg
   width="172.25642"
   height="148.15593"
   viewBox="0 0 45.576087 39.199479"
   version="1.1"
   id="svg1"
   inkscape:version="1.4.2 (f4327f4, 2025-05-13)"
   sodipodi:docname="CountDownDeco1AntiMagnet.svg"
   xml:space="preserve"
   xmlns:inkscape="http://www.inkscape.org/namespaces/inkscape"
   xmlns:sodipodi="http://sodipodi.sourceforge.net/DTD/sodipodi-0.dtd"
   xmlns="http://www.w3.org/2000/svg"
   xmlns:svg="http://www.w3.org/2000/svg"><sodipodi:namedview
     id="namedview1"
     pagecolor="#ffffff"
     bordercolor="#000000"
     borderopacity="0.25"
     inkscape:showpageshadow="2"
     inkscape:pageopacity="0.0"
     inkscape:pagecheckerboard="0"
     inkscape:deskcolor="#d1d1d1"
     inkscape:document-units="mm"
     inkscape:zoom="4.543042"
     inkscape:cx="99.27269"
     inkscape:cy="67.685925"
     inkscape:window-width="3840"
     inkscape:window-height="2054"
     inkscape:window-x="-11"
     inkscape:window-y="-11"
     inkscape:window-maximized="1"
     inkscape:current-layer="layer1"
     showgrid="true"><inkscape:grid
       id="grid1"
       units="mm"
       originx="26.669775"
       originy="-113.26561"
       spacingx="0.99999999"
       spacingy="0.99999998"
       empcolor="#0099e5"
       empopacity="0.30196078"
       color="#0099e5"
       opacity="0.14901961"
       empspacing="5"
       enabled="true"
       visible="true" /></sodipodi:namedview><defs
     id="defs1"><inkscape:path-effect
       effect="mirror_symmetry"
       start_point="-17.480005,131.19358"
       end_point="11.635149,147.69626"
       center_point="-2.922428,139.44492"
       id="path-effect163"
       is_visible="true"
       lpeversion="1.2"
       lpesatellites=""
       mode="free"
       discard_orig_path="false"
       fuse_paths="true"
       oposite_fuse="true"
       split_items="false"
       split_open="false"
       link_styles="false" /><inkscape:path-effect
       effect="spiro"
       id="path-effect162"
       is_visible="true"
       lpeversion="1" /><inkscape:path-effect
       effect="spiro"
       id="path-effect6"
       is_visible="true"
       lpeversion="1" /><inkscape:path-effect
       effect="mirror_symmetry"
       start_point="77.199904,69.000027"
       end_point="77.199904,93.044622"
       center_point="77.199904,81.022324"
       id="path-effect2"
       is_visible="true"
       lpeversion="1.2"
       lpesatellites=""
       mode="free"
       discard_orig_path="false"
       fuse_paths="false"
       oposite_fuse="false"
       split_items="false"
       split_open="false"
       link_styles="false" /><inkscape:path-effect
       effect="fillet_chamfer"
       id="path-effect5"
       is_visible="true"
       lpeversion="1"
       nodesatellites_param="F,0,0,1,0,0,0,1 @ F,0,0,1,0,2.0496102,0,1 @ F,0,0,1,0,0,0,1"
       radius="0"
       unit="px"
       method="auto"
       mode="F"
       chamfer_steps="1"
       flexible="false"
       use_knot_distance="true"
       apply_no_radius="true"
       apply_with_radius="true"
       only_selected="false"
       hide_knots="false" /><inkscape:path-effect
       effect="fillet_chamfer"
       id="path-effect28"
       is_visible="true"
       lpeversion="1"
       nodesatellites_param="F,0,0,1,0,0,0,1 @ F,0,0,1,0,0,0,1 @ F,0,0,1,0,0,0,1 @ F,0,0,1,0,0,0,1 @ F,0,0,1,0,0,0,1 @ F,0,0,1,0,0,0,1 @ F,0,0,1,0,0,0,1 @ F,0,0,1,0,0,0,1 @ F,0,0,1,0,0,0,1 @ F,0,0,1,0,0,0,1 @ F,0,0,1,0,0,0,1 @ F,0,0,1,0,0,0,1 | F,0,0,1,0,0,0,1 @ F,0,0,1,0,0,0,1 @ F,0,0,1,0,0,0,1 @ F,0,0,1,0,0,0,1 @ F,0,0,1,0,0,0,1 @ F,0,0,1,0,0,0,1 @ F,0,0,1,0,0,0,1 @ F,0,0,1,0,0,0,1 @ F,0,0,1,0,0,0,1 @ F,0,0,1,0,0,0,1 @ F,0,0,1,0,0,0,1"
       radius="0"
       unit="px"
       method="auto"
       mode="F"
       chamfer_steps="1"
       flexible="false"
       use_knot_distance="true"
       apply_no_radius="true"
       apply_with_radius="true"
       only_selected="false"
       hide_knots="false" /><inkscape:path-effect
       effect="powerstroke"
       message=""
       id="path-effect4"
       is_visible="true"
       lpeversion="1.3"
       scale_width="1"
       interpolator_type="CentripetalCatmullRom"
       interpolator_beta="0.75"
       start_linecap_type="round"
       end_linecap_type="round"
       offset_points="10.839744,0.43679433"
       linejoin_type="spiro"
       miter_limit="4"
       not_jump="true"
       sort_points="true" /><inkscape:path-effect
       effect="simplify"
       id="path-effect3"
       is_visible="true"
       lpeversion="1.3"
       threshold="0.012"
       steps="1"
       smooth_angles="0"
       helper_size="0"
       simplify_individual_paths="false"
       simplify_just_coalesce="false"
       step="1" /><inkscape:path-effect
       effect="fillet_chamfer"
       id="path-effect5-4"
       is_visible="true"
       lpeversion="1"
       nodesatellites_param="F,0,0,1,0,0,0,1 @ F,0,0,1,0,2.0496102,0,1 @ F,0,0,1,0,0,0,1"
       radius="0"
       unit="px"
       method="auto"
       mode="F"
       chamfer_steps="1"
       flexible="false"
       use_knot_distance="true"
       apply_no_radius="true"
       apply_with_radius="true"
       only_selected="false"
       hide_knots="false" /><inkscape:path-effect
       effect="fillet_chamfer"
       id="path-effect5-4-5"
       is_visible="true"
       lpeversion="1"
       nodesatellites_param="F,0,0,1,0,0,0,1 @ F,0,0,1,0,2.0496102,0,1 @ F,0,0,1,0,0,0,1"
       radius="0"
       unit="px"
       method="auto"
       mode="F"
       chamfer_steps="1"
       flexible="false"
       use_knot_distance="true"
       apply_no_radius="true"
       apply_with_radius="true"
       only_selected="false"
       hide_knots="false" /><inkscape:path-effect
       effect="spiro"
       id="path-effect6-4"
       is_visible="true"
       lpeversion="1" /></defs><g
     inkscape:label="Ebene 1"
     inkscape:groupmode="layer"
     id="layer1"
     transform="translate(26.46983,-113.26566)"><g
       id="path162-7"
       transform="rotate(158.08562,-1.1501005,135.65822)"><path
         style="baseline-shift:baseline;display:inline;overflow:visible;vector-effect:none;fill:#ffaf98;fill-opacity:0;stroke-linecap:square;paint-order:fill markers stroke;enable-background:accumulate;stop-color:#000000;stop-opacity:1"
         d="M 18.512421,140.07771 7.228754,129.5765 c 0,0 -7.16553952,-6.67137 -16.225417,-1.56489 -2.378097,1.34038 -4.024156,3.14041 -5.158628,5.06644 -1.069709,1.96274 -1.768517,4.29968 -1.696911,7.02857 0.272788,10.3963 9.6775431,13.1171 9.6775431,13.1171 l 14.8061149,4.28666"
         id="path163-2" /><path
         style="baseline-shift:baseline;display:inline;overflow:visible;vector-effect:none;fill:#5b5757;fill-opacity:1;stroke-linecap:square;paint-order:fill markers stroke;enable-background:accumulate;stop-color:#000000;stop-opacity:1"
         d="m -2.875,121.95117 c -2.5691595,0.12794 -5.3715437,0.81737 -8.183594,2.40235 -3.057069,1.72307 -5.259485,4.12294 -6.714843,6.59375 l -0.03711,0.0586 -0.0332,0.0625 c -1.372275,2.5179 -2.299082,5.64042 -2.207031,9.14844 0.169338,6.45371 3.391835,11.03407 6.457031,13.57812 3.065196,2.54405 6.2519531,3.46289 6.2519531,3.46289 l 14.8046875,4.28711 4.0351564,1.16797 2.335937,-8.06836 -4.0351559,-1.16797 -14.8066406,-4.28711 c 0,0 -1.5153242,-0.44199 -3.2207031,-1.85742 -1.7053789,-1.41543 -3.3223314,-3.39335 -3.4257814,-7.33594 -0.05048,-1.92366 0.415068,-3.45507 1.164063,-4.84765 0.8093879,-1.35379 1.8843573,-2.53596 3.5566403,-3.47852 3.4357774,-1.93653 5.96229296,-1.56615 8.0527343,-0.83008 2.0904414,0.73608 3.2480469,1.81055 3.2480469,1.81055 l 11.2832035,10.50195 3.076171,2.86133 5.722657,-6.14844 -3.076172,-2.86132 -11.283203,-10.50196 c 0,0 -2.4243431,-2.26099 -6.1816409,-3.58398 -1.8786489,-0.6615 -4.21404363,-1.09474 -6.7832031,-0.9668 z"
         id="path164-2" /></g><path
       style="fill:#d27461;fill-opacity:1;stroke:#d38066;stroke-width:0;stroke-linecap:square;stroke-dasharray:none;stroke-opacity:1;paint-order:fill markers stroke"
       d="m -20.049193,118.3609 6.443231,-0.65096 -2.932502,-3.08191 -6.443231,0.65096 z"
       id="path165-8"
       sodipodi:nodetypes="ccccc" /><g
       id="path162"
       style="opacity:1"
       transform="rotate(158.08562,0.01781374,137.48304)"><path
         style="baseline-shift:baseline;display:inline;overflow:visible;vector-effect:none;fill:#ffaf98;fill-opacity:0;stroke-linecap:square;paint-order:fill markers stroke;enable-background:accumulate;stop-color:#000000;stop-opacity:1"
         d="M 18.512421,140.07771 7.228754,129.5765 c 0,0 -7.16553952,-6.67137 -16.225417,-1.56489 -2.378097,1.34038 -4.024156,3.14041 -5.158628,5.06644 -1.069709,1.96274 -1.768517,4.29968 -1.696911,7.02857 0.272788,10.3963 9.6775431,13.1171 9.6775431,13.1171 l 14.8061149,4.28666"
         id="path163" /><path
         style="baseline-shift:baseline;display:inline;overflow:visible;vector-effect:none;fill:#3b3838;fill-opacity:1;stroke-linecap:square;paint-order:fill markers stroke;enable-background:accumulate;stop-color:#000000;stop-opacity:1"
         d="m -2.875,121.95117 c -2.5691595,0.12794 -5.3715437,0.81737 -8.183594,2.40235 -3.057069,1.72307 -5.259485,4.12294 -6.714843,6.59375 l -0.03711,0.0586 -0.0332,0.0625 c -1.372275,2.5179 -2.299082,5.64042 -2.207031,9.14844 0.169338,6.45371 3.391835,11.03407 6.457031,13.57812 3.065196,2.54405 6.2519531,3.46289 6.2519531,3.46289 l 14.8046875,4.28711 4.0351564,1.16797 2.335937,-8.06836 -4.0351559,-1.16797 -14.8066406,-4.28711 c 0,0 -1.5153242,-0.44199 -3.2207031,-1.85742 -1.7053789,-1.41543 -3.3223314,-3.39335 -3.4257814,-7.33594 -0.05048,-1.92366 0.415068,-3.45507 1.164063,-4.84765 0.8093879,-1.35379 1.8843573,-2.53596 3.5566403,-3.47852 3.4357774,-1.93653 5.96229296,-1.56615 8.0527343,-0.83008 2.0904414,0.73608 3.2480469,1.81055 3.2480469,1.81055 l 11.2832035,10.50195 3.076171,2.86133 5.722657,-6.14844 -3.076172,-2.86132 -11.283203,-10.50196 c 0,0 -2.4243431,-2.26099 -6.1816409,-3.58398 -1.8786489,-0.6615 -4.21404363,-1.09474 -6.7832031,-0.9668 z"
         id="path164" /></g><path
       style="fill:#eeeeee;fill-opacity:1;stroke:#d38066;stroke-width:0;stroke-linecap:square;stroke-dasharray:none;stroke-opacity:1;paint-order:fill markers stroke"
       d="m -16.538466,114.62803 2.932504,3.08191 1.569972,-0.15849 -2.932502,-3.08191 z"
       id="path167-9"
       sodipodi:nodetypes="ccccc" /><path
       style="fill:#d24426;fill-opacity:1;stroke:#d38066;stroke-width:0;stroke-linecap:square;stroke-dasharray:none;stroke-opacity:1;paint-order:fill markers stroke"
       d="m -19.205067,126.71807 6.503389,-0.65708 -0.904284,-8.35105 -6.443231,0.65096 z"
       id="path165"
       sodipodi:nodetypes="ccccc" /><path
       style="fill:#4866c1;fill-opacity:1;stroke:#d38066;stroke-width:0;stroke-linecap:square;stroke-dasharray:none;stroke-opacity:1;paint-order:fill markers stroke"
       d="m -26.467365,141.31042 11.987079,-2.43717 -2.931433,-3.08476 -6.046151,-2.32014 z"
       id="path165-0-2"
       sodipodi:nodetypes="ccccc" /><path
       style="fill:#ebebeb;fill-opacity:1;stroke:#d38066;stroke-width:0;stroke-linecap:square;stroke-dasharray:none;stroke-opacity:1;paint-order:fill markers stroke"
       d="m -17.41279,135.79134 2.932504,3.08191 1.263452,0.48579 -2.9325,-3.08191 z"
       id="path166-8"
       sodipodi:nodetypes="ccccc" /><path
       style="fill:#2651d2;fill-opacity:1;stroke:#d38066;stroke-width:0;stroke-linecap:square;stroke-dasharray:none;stroke-opacity:1;paint-order:fill markers stroke"
       d="m -23.534863,144.39233 6.102623,2.34174 2.953023,-7.86367 -6.046151,-2.32014 z"
       id="path165-0"
       sodipodi:nodetypes="ccccc" /><path
       style="fill:#ebebeb;fill-opacity:1;stroke:#d38066;stroke-width:0;stroke-linecap:square;stroke-dasharray:none;stroke-opacity:1;paint-order:fill markers stroke"
       d="m -14.480288,138.87325 -2.951954,7.86082 1.291382,0.4997 2.924028,-7.87473 z"
       id="path166" /><path
       style="fill:#eeeeee;fill-opacity:1;stroke:#d38066;stroke-width:0;stroke-linecap:square;stroke-dasharray:none;stroke-opacity:1;paint-order:fill markers stroke"
       d="m -13.605964,117.70994 0.904281,8.35102 1.582815,-0.15983 -0.917121,-8.34967 z"
       id="path167" /><path
       style="fill:#4367d2;fill-opacity:1;stroke:#d38066;stroke-width:0;stroke-linecap:square;stroke-dasharray:none;stroke-opacity:1;paint-order:fill markers stroke"
       d="m -20.525371,136.55026 -2.932501,-3.08191 -3.009494,7.84207 2.930033,3.08087 z"
       id="path168" /><path
       style="fill:#d2674f;fill-opacity:1;stroke:#d38066;stroke-width:0;stroke-linecap:square;stroke-dasharray:none;stroke-opacity:1;paint-order:fill markers stroke"
       d="m -22.981698,115.27899 2.932504,3.08191 0.844123,8.35717 -2.932498,-3.08189 z"
       id="path169" /></g></svg>
