<?xml version="1.0" encoding="UTF-8" standalone="no"?>
<!-- Created with Inkscape (http://www.inkscape.org/) -->

<svg
   width="2000.11"
   height="895.69"
   viewBox="0 0 529.1947 236.98398"
   version="1.1"
   id="svg1"
   inkscape:version="1.4.2 (f4327f4, 2025-05-13)"
   sodipodi:docname="CountDownContainerMaskAntiMagnet.svg"
   xml:space="preserve"
   xmlns:inkscape="http://www.inkscape.org/namespaces/inkscape"
   xmlns:sodipodi="http://sodipodi.sourceforge.net/DTD/sodipodi-0.dtd"
   xmlns="http://www.w3.org/2000/svg"
   xmlns:svg="http://www.w3.org/2000/svg"><sodipodi:namedview
     id="namedview1"
     pagecolor="#ffffff"
     bordercolor="#000000"
     borderopacity="0.25"
     inkscape:showpageshadow="2"
     inkscape:pageopacity="0.0"
     inkscape:pagecheckerboard="0"
     inkscape:deskcolor="#d1d1d1"
     inkscape:document-units="mm"
     inkscape:zoom="1.1357605"
     inkscape:cx="927.13208"
     inkscape:cy="615.00642"
     inkscape:window-width="3840"
     inkscape:window-height="2054"
     inkscape:window-x="-11"
     inkscape:window-y="-11"
     inkscape:window-maximized="1"
     inkscape:current-layer="layer1"
     showgrid="true"><inkscape:grid
       id="grid1"
       units="mm"
       originx="139"
       originy="10.68689"
       spacingx="0.99999999"
       spacingy="0.99999998"
       empcolor="#0099e5"
       empopacity="0.30196078"
       color="#0099e5"
       opacity="0.14901961"
       empspacing="5"
       enabled="true"
       visible="true" /></sodipodi:namedview><defs
     id="defs1"><inkscape:path-effect
       effect="mirror_symmetry"
       start_point="-17.480005,131.19358"
       end_point="11.635149,147.69626"
       center_point="-2.922428,139.44492"
       id="path-effect163"
       is_visible="true"
       lpeversion="1.2"
       lpesatellites=""
       mode="free"
       discard_orig_path="false"
       fuse_paths="true"
       oposite_fuse="true"
       split_items="false"
       split_open="false"
       link_styles="false" /><inkscape:path-effect
       effect="spiro"
       id="path-effect162"
       is_visible="true"
       lpeversion="1" /><inkscape:path-effect
       effect="spiro"
       id="path-effect6"
       is_visible="true"
       lpeversion="1" /><inkscape:path-effect
       effect="mirror_symmetry"
       start_point="77.199904,69.000027"
       end_point="77.199904,93.044622"
       center_point="77.199904,81.022324"
       id="path-effect2"
       is_visible="true"
       lpeversion="1.2"
       lpesatellites=""
       mode="free"
       discard_orig_path="false"
       fuse_paths="false"
       oposite_fuse="false"
       split_items="false"
       split_open="false"
       link_styles="false" /><inkscape:path-effect
       effect="fillet_chamfer"
       id="path-effect5"
       is_visible="true"
       lpeversion="1"
       nodesatellites_param="F,0,0,1,0,0,0,1 @ F,0,0,1,0,2.0496102,0,1 @ F,0,0,1,0,0,0,1"
       radius="0"
       unit="px"
       method="auto"
       mode="F"
       chamfer_steps="1"
       flexible="false"
       use_knot_distance="true"
       apply_no_radius="true"
       apply_with_radius="true"
       only_selected="false"
       hide_knots="false" /><inkscape:path-effect
       effect="fillet_chamfer"
       id="path-effect28"
       is_visible="true"
       lpeversion="1"
       nodesatellites_param="F,0,0,1,0,0,0,1 @ F,0,0,1,0,0,0,1 @ F,0,0,1,0,0,0,1 @ F,0,0,1,0,0,0,1 @ F,0,0,1,0,0,0,1 @ F,0,0,1,0,0,0,1 @ F,0,0,1,0,0,0,1 @ F,0,0,1,0,0,0,1 @ F,0,0,1,0,0,0,1 @ F,0,0,1,0,0,0,1 @ F,0,0,1,0,0,0,1 @ F,0,0,1,0,0,0,1 | F,0,0,1,0,0,0,1 @ F,0,0,1,0,0,0,1 @ F,0,0,1,0,0,0,1 @ F,0,0,1,0,0,0,1 @ F,0,0,1,0,0,0,1 @ F,0,0,1,0,0,0,1 @ F,0,0,1,0,0,0,1 @ F,0,0,1,0,0,0,1 @ F,0,0,1,0,0,0,1 @ F,0,0,1,0,0,0,1 @ F,0,0,1,0,0,0,1"
       radius="0"
       unit="px"
       method="auto"
       mode="F"
       chamfer_steps="1"
       flexible="false"
       use_knot_distance="true"
       apply_no_radius="true"
       apply_with_radius="true"
       only_selected="false"
       hide_knots="false" /><inkscape:path-effect
       effect="powerstroke"
       message=""
       id="path-effect4"
       is_visible="true"
       lpeversion="1.3"
       scale_width="1"
       interpolator_type="CentripetalCatmullRom"
       interpolator_beta="0.75"
       start_linecap_type="round"
       end_linecap_type="round"
       offset_points="10.839744,0.43679433"
       linejoin_type="spiro"
       miter_limit="4"
       not_jump="true"
       sort_points="true" /><inkscape:path-effect
       effect="simplify"
       id="path-effect3"
       is_visible="true"
       lpeversion="1.3"
       threshold="0.012"
       steps="1"
       smooth_angles="0"
       helper_size="0"
       simplify_individual_paths="false"
       simplify_just_coalesce="false"
       step="1" /><inkscape:path-effect
       effect="fillet_chamfer"
       id="path-effect5-4"
       is_visible="true"
       lpeversion="1"
       nodesatellites_param="F,0,0,1,0,0,0,1 @ F,0,0,1,0,2.0496102,0,1 @ F,0,0,1,0,0,0,1"
       radius="0"
       unit="px"
       method="auto"
       mode="F"
       chamfer_steps="1"
       flexible="false"
       use_knot_distance="true"
       apply_no_radius="true"
       apply_with_radius="true"
       only_selected="false"
       hide_knots="false" /><inkscape:path-effect
       effect="fillet_chamfer"
       id="path-effect5-4-5"
       is_visible="true"
       lpeversion="1"
       nodesatellites_param="F,0,0,1,0,0,0,1 @ F,0,0,1,0,2.0496102,0,1 @ F,0,0,1,0,0,0,1"
       radius="0"
       unit="px"
       method="auto"
       mode="F"
       chamfer_steps="1"
       flexible="false"
       use_knot_distance="true"
       apply_no_radius="true"
       apply_with_radius="true"
       only_selected="false"
       hide_knots="false" /><inkscape:path-effect
       effect="spiro"
       id="path-effect6-4"
       is_visible="true"
       lpeversion="1" /></defs><g
     inkscape:label="Ebene 1"
     inkscape:groupmode="layer"
     id="layer1"
     transform="translate(138.80001,10.686892)"><path
       d="m 211.47079,66.109269 c -0.36123,-0.0021 -0.72241,0.01373 -1.0821,0.04703 -0.26612,0.0244 -0.39531,0.04312 -0.44494,0.05684 0.15031,0.0097 0.20932,0.01738 0.21756,0.02274 0,0 5.2e-4,5.16e-4 5.2e-4,5.16e-4 0,0 0,5.17e-4 0,5.17e-4 0,0 5.1e-4,0 5.1e-4,0 0,0 0,5.17e-4 0,5.17e-4 0,0 -5.1e-4,0 -5.1e-4,0 0,0 0,5.17e-4 0,5.17e-4 0,0 -5.2e-4,5.16e-4 -5.2e-4,5.16e-4 0,0 -5.2e-4,0 -5.2e-4,0 -0.0219,0.0088 -0.21733,0.0074 -0.24029,-0.0093 0,0 -5.2e-4,-5.17e-4 -5.2e-4,-5.17e-4 0,0 -5.2e-4,-5.17e-4 -5.2e-4,-5.17e-4 0,0 -5.1e-4,-5.17e-4 -5.1e-4,-5.17e-4 0,0 0,-5.16e-4 0,-5.16e-4 0,0 -5.2e-4,-5.17e-4 -5.2e-4,-5.17e-4 0,0 0,-5.17e-4 0,-5.17e-4 0,0 0,-5.17e-4 0,-5.17e-4 0,0 0,-5.16e-4 0,-5.16e-4 0,0 5.2e-4,-5.17e-4 5.2e-4,-5.17e-4 0,0 0,-5.17e-4 0,-5.17e-4 0.002,-0.0032 0.0104,-0.0069 0.0248,-0.01085 -0.18512,-0.01189 -0.50891,-0.02689 -1.04903,-0.04341 -1.34077,-0.04101 -3.74882,0.437818 -4.60591,0.738454 -0.85708,0.300636 -1.24756,0.479561 -2.0133,0.789098 -0.10088,0.04084 -0.20113,0.08333 -0.30076,0.127123 -0.42118,0.184895 -3.31394,1.645854 -5.23274,3.540861 -2.36025,2.330981 -4.06495,4.85748 -4.73045,8.373112 -1.34882,-0.383649 -2.78002,-0.705852 -4.41368,-0.738454 h -0.0103 c -3.09332,-0.06007 -5.65085,0.774665 -7.91785,1.867065 -0.87161,-0.05451 -1.71447,-0.160821 -2.65616,-0.07597 h -0.002 c -1.18407,0.10671 -2.21264,0.408324 -3.23856,0.703315 -1.74934,-0.518847 -3.69139,-0.902333 -5.99807,-0.763776 h -0.002 c -1.1705,0.07034 -2.12854,0.381467 -3.1352,0.638719 -1.94481,-0.840959 -4.09908,-1.529763 -6.6988,-1.582328 h -0.0103 c -1.86725,-0.03668 -3.47202,0.259223 -4.94336,0.656289 -0.0884,0.0033 -0.17681,0.0076 -0.2651,0.01292 0.0173,-1.88e-4 0.0328,2.71e-4 0.0481,5.17e-4 l 0.21704,-0.01137 c -0.005,0.0015 -0.0101,0.0026 -0.0155,0.0041 -0.10314,0.0093 -0.15079,0.008 -0.19896,0.0072 l -0.23047,0.01189 h -0.0103 c -1.20906,0.130692 -2.35568,0.401831 -3.46076,0.742589 -2.24897,-0.664257 -4.67652,-0.947487 -7.24399,-0.658356 h -0.006 c -1.46019,0.164679 -2.78546,0.515378 -4.00594,0.950844 -0.11208,-0.015 -0.2436,0.0038 -0.35709,-0.0093 -1.68378,-0.699671 -3.55008,-1.271159 -5.77741,-1.394744 -0.79678,-0.04455 -1.60718,-0.03945 -2.42,0.01964 -0.0241,0.0019 -0.0482,0.0037 -0.0724,0.0057 -1.19525,0.09181 -2.32807,0.328154 -3.42562,0.626833 -0.34623,-0.0041 -0.4554,-0.06606 -0.85938,-0.04857 h -0.004 c -1.63615,0.07121 -3.08502,0.40916 -4.43951,0.836122 -2.45032,-0.884066 -5.17331,-1.365939 -8.15039,-1.03921 -0.015,6.36e-4 -0.03,0.0014 -0.045,0.0021 -0.83801,0.09408 -1.45678,0.301833 -2.14663,0.476455 -1.6736,-0.448344 -3.56449,-0.712132 -5.67768,-0.572573 h -0.0114 c -0.48391,0.03226 -0.59401,0.111174 -0.98856,0.162263 -2.74783,-0.315306 -5.51464,0.01917 -8.167961,0.894517 -0.68198,-0.106174 -1.265805,-0.249056 -2.152318,-0.261482 h -0.0057 c -1.581961,-0.02155 -3.053555,0.197987 -4.453464,0.529166 -0.02428,-2.47e-4 -0.04803,0.0022 -0.07235,0.0021 -1.495981,-0.390776 -3.114668,-0.669164 -4.943355,-0.623217 h -0.0057 c -0.974739,0.02473 -1.596984,0.180597 -2.302696,0.306958 -0.619967,-0.05524 -1.064974,-0.159827 -1.914091,-0.127124 h -0.0021 c -0.139879,0.0054 -0.126314,0.02275 -0.257864,0.02945 -1.63291,-0.261205 -3.192777,-0.131398 -4.761455,0.01344 -0.511134,-0.0887 -1.034245,-0.138808 -1.570443,-0.185518 -1.538282,-0.530093 -3.253114,-0.963786 -5.322143,-1.005621 h -0.0098 c -2.629243,-0.05165 -4.88564,0.521861 -6.867264,1.323947 -0.639473,6.92e-4 -0.980652,-0.05165 -2.240168,0.08423 -0.02475,0.0032 -0.04968,0.0065 -0.07441,0.0098 -0.07192,0.0081 -0.06106,0.01706 -0.130741,0.02532 -0.01519,-0.0015 -0.02978,-5.7e-4 -0.04496,-0.0021 -0.002,-1.89e-4 -0.0037,1.88e-4 -0.0057,0 -1.951875,-0.185794 -3.756754,0.1172 -5.543317,0.478522 -0.3527,-0.0027 -0.698072,-0.02402 -1.054714,-0.0078 C 48.060549,80.913649 44.400186,80.782232 40.900215,81.716547 37.298012,80.489671 33.59873,80.412402 30.048708,81.402355 L 22.386661,72.902119 C 20.362277,70.656388 17.670395,68.610549 14.687408,67.67196 11.704421,66.733371 9.7115887,66.780835 11.433351,67.081817 9.5826797,66.758302 7.8805602,66.667304 6.4920627,66.658071 c -1.3355981,-0.0089 -3.0602735,0.05335 -4.9061486,0.365352 -0.3097422,0.05235 -2.7119912,0.523203 -4.613144,1.361153 -0.416411,0.183536 -3.3064023,1.649438 -5.2244747,3.549129 -1.6990057,1.682729 -2.5999934,3.150054 -3.4509434,5.029138 0.01674,-0.03869 0.02119,-0.05063 -0.01395,0.02532 -0.02049,0.04544 -0.04111,0.09123 -0.06098,0.136942 l -0.0057,0.01137 c -0.01179,0.0265 -0.006,0.01878 -0.01757,0.04496 -1.609912,3.631778 -1.407413,4.152451 -0.48059,1.482594 -0.455475,1.344171 -1.089853,2.587656 -1.089853,5.824436 v 71.507606 c 0,4.01225 2.489509,10.45599 5.1541946,13.41207 L 15.75194,195.99818 c 1.493661,1.65701 3.075423,2.74268 4.837936,3.68349 2.169568,1.23066 4.572729,1.82197 4.490155,1.80092 1.365451,0.34797 2.755253,0.51075 3.382731,0.56637 1.607987,0.14249 3.149384,0.12739 4.537179,0.0388 1.208467,-0.0772 3.260017,-0.27418 5.423946,-0.88832 0.532525,-0.15114 3.256351,-1.04377 5.362967,-2.44945 2.714889,-1.81154 5.873916,-5.0138 7.115311,-10.02727 0.776022,0.0393 1.531554,0.12163 2.351788,0.0506 0.67876,0.0718 0.986496,0.21207 1.954915,0.19534 h 0.0217 c 1.070073,-0.0198 1.898373,-0.32404 2.835996,-0.5116 1.680291,0.58306 3.563521,1.02147 5.763459,1.01544 0.0065,-1e-5 0.01312,1e-5 0.01964,0 0.01432,3e-5 0.02857,3e-5 0.04289,0 1.616513,-0.0103 3.068674,-0.24602 4.36148,-0.58756 0.943539,0.0123 1.886519,0.0184 2.775018,-0.10749 0.377508,0.0536 0.808003,8.1e-4 1.199407,0.031 2.251148,1.0959 4.841288,1.87211 7.82431,1.85931 0.0085,1e-5 0.01686,1e-5 0.02532,0 1.461838,-0.008 2.622822,-0.26497 3.722761,-0.52916 h 0.0021 c 0.0946,-0.0227 0.227888,-0.0212 0.319877,-0.045 1.059224,0.033 2.106962,0.0224 3.100061,-0.11886 1.276042,0.18009 2.639629,0.21803 4.056591,0.0915 0.664446,0.0678 0.947194,0.20637 1.882567,0.19172 0.01497,3e-5 0.02999,3e-5 0.04496,0 1.068644,-0.0196 1.894322,-0.32325 2.830311,-0.51005 1.680229,0.58382 3.562219,1.02171 5.759845,1.01751 0.0104,0 0.0208,3e-5 0.031,0 0.0137,2e-5 0.0271,2e-5 0.0408,0 1.4523,-0.009 2.73746,-0.23333 3.92998,-0.51935 0.0547,0.002 0.10911,0.004 0.16381,0.006 0.0176,3e-5 0.0369,3e-5 0.0548,0 l -0.21291,-0.008 c 0.13119,-0.0315 0.29367,-0.0304 0.42168,-0.0641 0.95073,0.013 1.90115,0.0199 2.79724,-0.10749 1.20422,0.16995 2.49729,0.18823 3.82818,0.0879 0.67548,0.0824 1.10026,0.21205 2.12286,0.19534 0.0195,5e-5 0.0389,5e-5 0.0584,0 1.665,-0.0331 3.15887,-0.30497 4.49429,-0.68781 0.96489,0.1297 1.91219,0.28792 3.01944,0.23461 1.35712,-0.0651 2.7009,-0.29293 4.00388,-0.68161 l 0.004,-0.002 c 0.38302,-0.11442 0.6721,-0.34443 1.03921,-0.48059 0.35285,-0.0295 0.72981,0.006 1.07383,-0.0429 1.25245,0.17691 2.59302,0.20719 3.98063,0.0899 0.0379,0.004 0.0707,0.008 0.10955,0.0114 0.001,1.4e-4 0.003,-1.3e-4 0.004,0 0.65807,0.0658 0.93294,0.20227 1.85311,0.18759 0.0202,5e-5 0.0408,5e-5 0.061,0 1.06516,-0.0208 1.88715,-0.32276 2.81997,-0.50953 1.67486,0.58099 3.55262,1.0173 5.74434,1.01337 0.0111,0 0.0222,3e-5 0.0331,0 0.0104,1e-5 0.0206,1e-5 0.031,0 1.45649,-0.008 2.74607,-0.23477 3.94187,-0.52141 h 0.002 c 0.13179,-0.0316 0.29569,-0.0307 0.42426,-0.0646 0.95143,0.0131 1.90207,0.0205 2.79879,-0.10697 1.18701,0.16753 2.46306,0.18033 3.7734,0.0858 0.68847,0.0869 1.14484,0.22005 2.20503,0.20102 0.013,2e-5 0.0258,2e-5 0.0388,0 1.49292,-0.0303 2.85449,-0.25018 4.08915,-0.57361 -0.11326,-0.0526 0.004,-0.0921 0.35191,-0.0956 0.012,-0.003 0.0237,-0.007 0.0357,-0.0103 0.0272,0.004 0.0548,0.007 0.0822,0.0103 -0.0418,-4.6e-4 -0.0811,-3.7e-4 -0.11782,0 -0.11614,0.0329 -0.23345,0.0646 -0.35191,0.0956 0.24958,0.11597 1.61737,0.29439 4.09483,0.28629 0.0163,3e-5 0.0323,3e-5 0.0486,0 1.57225,-0.01 2.8761,-0.2719 4.05866,-0.57619 1.05036,0.0313 2.08974,0.0191 3.07422,-0.12093 1.26367,0.17876 2.61562,0.2134 4.01784,0.092 0.66891,0.0701 0.95785,0.20891 1.90427,0.19533 0.0299,1.2e-4 0.0595,1.2e-4 0.0894,0 1.06249,-0.0207 1.88176,-0.32406 2.81274,-0.51004 1.68733,0.58606 3.57938,1.02591 5.78723,1.01751 0.003,-1e-5 0.007,1e-5 0.01,0 0.0176,4e-5 0.0351,4e-5 0.0527,0 1.44662,-0.0106 2.72158,-0.23693 3.90621,-0.52142 0.0553,0.002 0.11053,0.004 0.16588,0.006 0.0161,3e-5 0.0357,3e-5 0.0527,0 l -0.21084,-0.008 c 0.1351,-0.0325 0.30604,-0.0293 0.4377,-0.0641 0.94861,0.0119 1.8972,0.0182 2.79104,-0.10956 1.17086,0.16459 2.43141,0.17212 3.72276,0.0822 0.0741,0.01 0.15977,0.0124 0.23823,0.0212 l -0.86713,0.0434 c 0.021,4e-5 0.0384,4e-5 0.0584,0 0.27192,-0.004 0.54356,-0.0191 0.81442,-0.0434 0.65187,0.0728 1.02439,0.19965 1.97662,0.18397 0.0215,6e-5 0.0426,6e-5 0.0641,0 1.65311,-0.0336 3.14647,-0.30002 4.48292,-0.68161 0.98362,0.1281 1.95809,0.28113 3.03701,0.22841 0.0143,-6.4e-4 0.0286,-0.001 0.0429,-0.002 2.15566,-0.11079 4.0543,-0.60703 5.703,-1.27743 0.0197,-4.1e-4 0.0392,-0.001 0.0589,-0.002 l 7.84343,8.69919 c 0.82387,0.91393 3.26661,3.42943 7.05072,4.81675 0.26615,0.12985 0.77582,0.44861 2.52542,0.76326 0.032,0.009 0.1129,0.0224 0.34985,0.0646 0.0198,0.004 0.0397,0.009 0.0594,0.0129 0.0121,0.002 0.0244,0.003 0.0377,0.005 0.0145,0.003 0.0223,0.006 0.0243,0.007 0,0 5.1e-4,0 5.1e-4,0 0,0 0,5.1e-4 0,5.1e-4 1.1199,0.23148 2.20651,0.35799 2.8391,0.4067 h 0.002 c 1.54254,0.11872 3.03329,0.0996 4.41626,0.004 1.17137,-0.0813 3.23126,-0.28817 5.39656,-0.91984 0.53555,-0.15623 3.27026,-1.07622 5.37123,-2.50991 3.44133,-2.34832 7.568,-6.67393 7.568,-14.23424 v -71.50968 c 0,-3.98641 -2.46862,-10.4351 -5.15213,-13.412066 L 227.36745,72.353317 c -2.02436,-2.245761 -4.71639,-4.291587 -7.69925,-5.230159 -2.98286,-0.938573 -4.97502,-0.891101 -3.25354,-0.590144 -1.85046,-0.323502 -3.55441,-0.414558 -4.94336,-0.423745 z m -0.0724,11.056662 c 1.00399,0.0066 2.01283,0.0658 3.11143,0.257865 1.09859,0.19206 2.26038,-0.312904 4.64467,2.332152 l 23.96695,26.587462 c 1.84742,2.04945 2.30838,3.2594 2.30838,6.00995 v 71.50968 c 0,2.64862 -1.76483,4.4333 -2.74401,5.10148 -0.97918,0.66819 -1.64319,0.8569 -2.23448,1.02939 -1.18257,0.34498 -2.11109,0.43755 -3.06647,0.50385 -0.95539,0.0664 -1.86743,0.0741 -2.80293,0.002 -0.46775,-0.036 -0.93065,-0.0851 -1.53478,-0.2186 -0.11548,-0.0255 -0.28763,-0.0672 -0.416,-0.0842 -0.0891,-0.0137 -0.16708,-0.0334 -0.25218,-0.0506 -0.17999,-0.0324 -0.36864,-0.11229 -0.60564,-0.20929 -1.35595,-0.46237 -2.19651,-1.3177 -2.71456,-1.89239 l -11.11351,-12.32635 c -0.95118,0.0472 -1.89348,-0.0648 -2.7869,-0.37878 -0.9689,0.35512 -1.9996,0.52786 -3.03908,0.44906 -0.47406,-0.0361 -0.89189,-0.27227 -1.34359,-0.40204 -0.0192,0.006 -0.0335,0.0235 -0.0527,0.0295 -1.2092,0.85624 -2.57026,1.49382 -4.0509,1.56992 h -0.0119 c -1.08346,0.0536 -2.13815,-0.18364 -3.13055,-0.59531 -0.27317,0.0509 -0.5385,0.13118 -0.81649,0.15038 -1.02038,0.50918 -2.11837,0.86305 -3.25974,0.88625 -0.007,1e-5 -0.0147,1e-5 -0.0217,0 -0.59752,0.01 -1.15703,-0.23435 -1.73994,-0.36328 -0.29967,0.0667 -0.58547,0.19017 -0.8909,0.22117 -0.005,1e-5 -0.0105,1e-5 -0.0155,0 -1.06124,0.10507 -2.11297,-0.065 -3.10936,-0.41444 -0.96975,0.35602 -2.00053,0.52838 -3.04115,0.44958 -0.006,1e-5 -0.0126,1e-5 -0.0196,0 -0.35842,-0.0283 -0.68791,-0.18958 -1.03869,-0.26768 -0.98931,0.45519 -2.04082,0.77489 -3.13107,0.78289 -0.008,2e-5 -0.0153,2e-5 -0.0233,0 -1.36976,0.005 -2.6623,-0.47377 -3.85144,-1.15238 -0.43951,-0.14681 -0.82979,-0.35005 -1.23868,-0.57206 -1.1295,0.68397 -2.35717,1.19263 -3.68349,1.21853 -0.0104,3e-5 -0.0206,3e-5 -0.031,0 -0.60544,0.009 -1.1569,-0.28272 -1.74614,-0.41754 -0.3027,0.0683 -0.57357,0.24463 -0.88264,0.27543 l -0.008,0.002 c -1.06064,0.10401 -2.11176,-0.0661 -3.1073,-0.41599 -0.96735,0.35492 -1.99541,0.52728 -3.0334,0.44958 -0.37007,-0.0278 -0.69138,-0.22901 -1.04851,-0.31471 -0.99567,0.45535 -2.04536,0.82292 -3.14089,0.82992 -0.005,1e-5 -0.0105,1e-5 -0.0155,0 -0.29338,9.6e-4 -0.55592,-0.17243 -0.84749,-0.20463 -0.10039,0.009 -0.19646,0.0477 -0.29714,0.0527 -0.009,2e-5 -0.0173,2e-5 -0.0253,0 -1.08138,0.0525 -2.13445,-0.18281 -3.12487,-0.59376 -0.27512,0.0512 -0.54269,0.13282 -0.82269,0.15192 -1.01873,0.50727 -2.1145,0.86005 -3.25354,0.88315 -0.005,1e-5 -0.009,1e-5 -0.0139,0 -0.59939,0.0108 -1.16128,-0.23237 -1.74614,-0.36122 -0.29749,0.0663 -0.58151,0.18533 -0.8847,0.21653 -0.009,0.001 -0.0184,0.003 -0.0274,0.004 -1.06064,0.104 -2.11175,-0.0661 -3.10729,-0.41599 -0.96897,0.35507 -1.99962,0.5259 -3.03909,0.447 h -0.0114 c -0.36052,-0.0281 -0.69258,-0.18867 -1.04541,-0.26717 -0.99352,0.45674 -2.04977,0.77483 -3.1445,0.78083 -0.008,2e-5 -0.0153,2e-5 -0.0233,0 -1.36122,0.002 -2.64564,-0.47323 -3.82818,-1.14618 -0.44251,-0.14713 -0.83433,-0.3529 -1.24591,-0.57619 -1.13005,0.68482 -2.35833,1.19469 -3.68556,1.22059 -0.007,1e-5 -0.0147,1e-5 -0.0217,0 -0.60709,0.01 -1.16084,-0.28136 -1.75183,-0.41599 -0.30201,0.0684 -0.57218,0.24443 -0.88056,0.27543 h -0.0103 c -1.06327,0.10518 -2.11707,-0.065 -3.11504,-0.41599 -0.96851,0.35466 -1.99812,0.5258 -3.03702,0.447 -0.11235,-0.009 -0.20703,-0.0815 -0.31833,-0.0956 -0.59911,0.38749 -1.25045,0.69599 -1.93579,0.90072 -0.44718,0.13339 -0.90899,0.21179 -1.37511,0.23409 -1.0578,0.0509 -2.08375,-0.20019 -3.0644,-0.58601 -0.3047,0.0586 -0.60375,0.13853 -0.91416,0.15813 -1.01128,0.49793 -2.09429,0.8468 -3.22253,0.8692 -0.007,10e-6 -0.0147,10e-6 -0.0217,0 -0.59529,0.01 -1.15137,-0.23321 -1.73219,-0.36122 -0.29902,0.0669 -0.58404,0.18926 -0.88883,0.22066 -0.009,0.001 -0.0179,0.003 -0.0269,0.004 -1.06064,0.10401 -2.11227,-0.0661 -3.10781,-0.41599 -0.96897,0.35506 -1.99963,0.5259 -3.03909,0.447 -0.006,1e-5 -0.0116,1e-5 -0.0176,0 -0.35906,-0.0284 -0.68938,-0.18877 -1.04076,-0.26717 -0.99208,0.45599 -2.04777,0.77383 -3.14088,0.78083 -0.008,2e-5 -0.0153,2e-5 -0.0233,0 -1.36317,0.003 -2.65212,-0.47359 -3.83593,-1.14825 -0.441739,-0.14712 -0.833477,-0.35317 -1.244365,-0.57619 -1.131937,0.68508 -2.362257,1.19413 -3.691239,1.21853 -0.0052,1e-5 -0.0103,1e-5 -0.0155,0 -0.605825,0.009 -1.158423,-0.28178 -1.748209,-0.416 -0.304674,0.069 -0.577697,0.24651 -0.888833,0.27751 l -0.0078,0.002 c -1.060639,0.104 -2.111756,-0.0661 -3.107297,-0.41599 -0.968967,0.35507 -1.999617,0.5259 -3.039083,0.447 h -0.0098 c -0.384825,-0.0299 -0.734763,-0.20221 -1.107423,-0.29301 -0.975493,0.43436 -1.995885,0.80067 -3.064405,0.80667 h -0.0098 c -1.815661,0.008 -3.51013,-0.79312 -4.894263,-1.95853 -0.01044,-0.002 -0.02109,-0.004 -0.03152,-0.006 -0.295583,0.0663 -0.577738,0.18906 -0.879014,0.22066 -0.01237,0.001 -0.02432,0.003 -0.03669,0.004 -1.062105,0.10415 -2.114693,-0.0672 -3.11143,-0.41806 -0.967963,0.35427 -1.997239,0.5256 -3.035466,0.447 -0.363445,-0.0275 -0.698995,-0.18847 -1.054714,-0.26717 -0.992194,0.4567 -2.046876,0.7759 -3.140369,0.7829 -0.0078,2e-5 -0.01545,2e-5 -0.02325,0 -1.363461,0.004 -2.651377,-0.47225 -3.835933,-1.14618 -0.442202,-0.14705 -0.835122,-0.351 -1.246432,-0.57413 -1.131992,0.68548 -2.361983,1.19393 -3.691239,1.21853 h -0.0078 c -0.610832,0.0105 -1.169077,-0.28047 -1.763713,-0.41599 -0.305055,0.0687 -0.579428,0.24483 -0.890899,0.27543 -1.060638,0.104 -2.111755,-0.0661 -3.107296,-0.41599 -0.967751,0.35457 -1.996802,0.5252 -3.03495,0.447 -0.435771,-0.0328 -0.817267,-0.25664 -1.234547,-0.36897 -1.12822,0.70951 -2.430339,1.14307 -3.761518,1.21077 h -0.0078 c -0.262171,0.0129 -0.504043,-0.1097 -0.763776,-0.1266 v 5.89213 c 0,2.70163 -1.817011,4.4829 -2.802923,5.14076 -0.985913,0.65787 -1.649873,0.8406 -2.245852,1.00975 -1.191959,0.33829 -2.137469,0.43038 -3.109363,0.49248 -0.971894,0.0621 -1.89302,0.0657 -2.855633,-0.0196 -0.481306,-0.0427 -0.957381,-0.0945 -1.628837,-0.26561 -0.401578,-0.10234 -1.021053,-0.23094 -1.791101,-0.68937 -0.945147,-0.48227 -1.627829,-1.01116 -2.05465,-1.48466 L -0.00364913,162.00603 c -1.84196747,-2.0434 -2.31096447,-3.24838 -2.31096447,-6.00996 V 84.488464 c 0,-0.22521 0.031135,-0.483932 0.085266,-0.765326 0.022609,-0.532691 0.1047407,-0.997839 0.2330602,-0.92914 0.056727,-0.190249 0.1189615,-0.384941 0.1855179,-0.581358 0.065169,-0.188915 0.050972,-0.406104 0.1291908,-0.581876 7.939e-4,-0.0017 0.00141,-0.0035 0.00207,-0.0052 l 0.00723,-0.03411 c 5.882e-4,-0.01484 -1.725e-4,-0.02886 0.010335,-0.05064 l -0.010335,0.05064 c -3.83e-4,0.0097 -0.0017,0.01962 -0.00672,0.03256 l -5.168e-4,0.0031 c 0.350025,-0.785022 0.80635098,-1.441671 1.2066418,-1.838126 0.82267241,-0.814788 1.43476084,-1.080316 1.9042719,-1.287257 0.9390223,-0.413882 1.4676201,-0.486841 1.9962558,-0.576191 1.0572713,-0.178707 1.9859769,-0.217539 2.9905079,-0.210839 1.003833,0.0067 2.0123656,0.06583 3.1109137,0.257865 1.0985477,0.192038 2.2602217,-0.31301 4.6446667,2.332151 l 11.594613,12.863267 c 1.173565,-0.07558 2.312529,0.143225 3.400818,0.560688 0.196812,-0.07673 0.410653,-0.08176 0.612881,-0.142627 2.506436,-2.185868 6.338251,-2.570373 9.201483,-0.869195 0.939048,0.0041 1.864643,0.181896 2.744012,0.500226 2.52087,-1.439971 5.752512,-1.403154 8.212916,0.146244 0.0268,0.0068 0.05544,6.52e-4 0.08216,0.0078 1.084656,-0.329465 2.190314,-0.420963 3.320203,-0.302307 1.685702,-0.600629 3.533833,-0.736603 5.238427,-0.212906 0.330888,-0.0832 0.62908,-0.272475 0.968414,-0.310575 0.0085,-0.0013 0.01682,-0.0028 0.02532,-0.0041 0.306648,-0.03308 0.603699,0.0983 0.912087,0.101802 0.183502,-0.02052 0.366377,-0.04159 0.55087,-0.04909 0.02408,-0.0015 0.04825,-0.0025 0.07235,-0.0036 0.523295,-0.01466 1.022342,0.173826 1.537371,0.265616 1.371785,-0.986576 2.941627,-1.69358 4.632781,-1.66036 h 0.0036 c 1.171879,0.0237 2.290257,0.405452 3.336222,0.933791 0.05224,-0.0048 0.09803,-0.03971 0.150378,-0.04341 h 0.0036 c 0.98068,-0.06912 1.967217,0.07614 2.904208,0.373103 1.705235,-0.491473 3.504595,-0.494452 5.158329,0.121439 0.342824,-0.06084 0.661551,-0.228972 1.009755,-0.242362 0.65661,-0.02537 1.290206,0.171619 1.931661,0.312642 0.701444,-0.225057 1.404235,-0.469651 2.140949,-0.488341 h 0.0016 c 1.141459,-0.02868 2.254837,0.258049 3.301083,0.714683 0.883809,-0.141469 1.744322,-0.123781 2.626707,0.01395 0.98675,-0.412647 2.043823,-0.649672 3.113497,-0.635102 h 0.0021 c 0.773084,0.01084 1.516651,0.248488 2.252054,0.486274 0.803634,-0.242675 1.615428,-0.425179 2.458758,-0.421679 1.849016,-0.900072 4.006893,-1.065932 5.982563,-0.472838 0.50451,-0.140226 0.98303,-0.374943 1.50585,-0.409793 h 0.004 c 1.41896,-0.09371 2.78917,0.342448 4.05245,0.993735 0.24841,-0.05672 0.46783,-0.208358 0.72089,-0.239778 h 0.004 c 0.36811,-0.04544 0.73124,0.07512 1.10174,0.08372 0.77991,-0.371578 1.59227,-0.69062 2.45101,-0.78703 h 0.002 c 1.78717,-0.200305 3.58187,0.343501 5.09011,1.320329 0.921,0.02884 1.7976,0.186154 2.6541,0.527099 1.22992,-0.876868 2.62456,-1.521776 4.13462,-1.587496 h 0.002 c 0.56949,-0.02464 1.11734,0.162227 1.67793,0.263549 0.92772,-0.478047 1.94138,-0.784481 2.98224,-0.863511 0.006,-7e-4 0.0136,-0.0014 0.0196,-0.0021 0.33523,-0.02437 0.67003,-0.02665 1.00562,-0.0078 1.31962,0.07322 2.56253,0.579837 3.68194,1.281573 0.0217,-0.0022 0.0408,-0.01557 0.0625,-0.01757 1.1063,-0.10057 2.21271,0.08868 3.26181,0.453201 0.31082,-0.07534 0.58985,-0.255815 0.90795,-0.291455 0.31728,-0.0356 0.62593,0.09614 0.94516,0.09974 0.96256,-0.579935 2.01621,-0.999028 3.13313,-1.124993 h 0.004 c 1.86727,-0.210281 3.76095,0.356396 5.30457,1.425749 0.78007,-0.278033 1.58064,-0.516964 2.41225,-0.556554 0.90758,-0.502009 1.90799,-0.835743 2.93935,-0.947227 h 0.004 c 0.27061,-0.02909 0.53674,0.06815 0.80873,0.06821 1.0077,-0.427842 2.08674,-0.708805 3.18171,-0.687295 h 0.004 c 1.37774,0.02786 2.69617,0.516764 3.87313,1.23248 0.0424,1e-4 0.0842,-0.007 0.12661,-0.0062 h 0.004 c 1.13557,0.02185 2.22116,0.379987 3.24217,0.876947 1.0709,-0.635135 2.23148,-1.103143 3.47471,-1.177703 1.30866,-0.07877 2.57581,0.29139 3.76152,0.849558 0.78927,-0.02677 1.55941,0.109748 2.32233,0.302823 0.0978,-0.0244 0.20009,-0.01797 0.29869,-0.03876 0.98326,-0.568724 2.05222,-0.976505 3.18378,-1.078484 h 0.002 c 1.10441,-0.09952 2.20835,0.08932 3.2556,0.453201 0.31225,-0.07561 0.59252,-0.257465 0.91209,-0.293005 0.008,-7e-4 0.0158,-0.0014 0.0238,-0.0021 0.0689,-0.0074 0.13606,0.02927 0.20516,0.02377 1.42772,-1.15225 3.13341,-1.965263 4.97022,-1.929593 h 0.004 c 1.30819,0.02611 2.55628,0.481426 3.69175,1.130678 1.12945,-0.154742 2.2712,-0.09516 3.36103,0.208772 0.74345,-0.41572 1.52204,-0.610595 2.35747,-0.773078 0.97744,-0.599836 2.0454,-1.040421 3.18533,-1.168401 0.005,-7e-4 0.011,-8.9e-4 0.016,-0.0015 0.33317,-0.03652 0.66846,-0.05146 1.00356,-0.04496 h 0.004 c 0.60779,0.0117 1.1971,0.179149 1.78542,0.331762 v -5.515412 l -0.0238,-0.320393 c -5e-5,-7e-4 5e-5,-0.0014 0,-0.0021 -0.15252,-2.000112 0.92964,-3.853892 1.75389,-4.667921 0.82453,-0.814306 1.43677,-1.079053 1.90634,-1.28519 3.14569,-1.271582 0.89681,-0.406875 4.98056,-0.781346 z"
       style="fill:#868686;stroke:#3e2f60;stroke-width:0;stroke-linecap:round;paint-order:fill markers stroke"
       id="path337" /></g></svg>
