<?xml version="1.0" encoding="UTF-8" standalone="no"?>
<!-- Created with Inkscape (http://www.inkscape.org/) -->

<svg
   width="18.890692mm"
   height="17.682859mm"
   viewBox="0 0 18.890692 17.682859"
   version="1.1"
   id="svg1"
   xml:space="preserve"
   inkscape:version="1.4.2 (f4327f4, 2025-05-13)"
   sodipodi:docname="ScaleObstacle.svg"
   xmlns:inkscape="http://www.inkscape.org/namespaces/inkscape"
   xmlns:sodipodi="http://sodipodi.sourceforge.net/DTD/sodipodi-0.dtd"
   xmlns="http://www.w3.org/2000/svg"
   xmlns:svg="http://www.w3.org/2000/svg"><sodipodi:namedview
     id="namedview1"
     pagecolor="#ffffff"
     bordercolor="#000000"
     borderopacity="0.25"
     inkscape:showpageshadow="2"
     inkscape:pageopacity="0.0"
     inkscape:pagecheckerboard="0"
     inkscape:deskcolor="#d1d1d1"
     inkscape:document-units="mm"
     inkscape:zoom="12.863917"
     inkscape:cx="9.7948395"
     inkscape:cy="23.826336"
     inkscape:window-width="3840"
     inkscape:window-height="2054"
     inkscape:window-x="-11"
     inkscape:window-y="-11"
     inkscape:window-maximized="1"
     inkscape:current-layer="layer1" /><defs
     id="defs1" /><g
     inkscape:label="Ebene 1"
     inkscape:groupmode="layer"
     id="layer1"
     transform="translate(16.75403,9.8887939)"><path
       id="path1-7-31-6"
       style="fill:#000000;fill-opacity:0.533383;stroke:#9fe7f9;stroke-width:0;stroke-linecap:round;stroke-opacity:0.995995;paint-order:fill markers stroke"
       d="m -1.8624634,-2.6752454 c -1.1173847,-0.022164 -2.3908406,0.1173433 -3.7311365,0.569005 -1.4134216,0.4763039 -2.3656459,1.24340358 -2.8034378,2.07036073 -0.2225375,-0.32713874 -0.6140092,-0.60702807 -1.1814376,-0.80344845 -2.7721137,-0.95958728 -6.0972217,0.34916213 -6.0972217,0.34916213 0,0 -0.281975,1.34208841 0.619893,2.46123899 -1.883253,1.12674 -2.162234,2.7191686 -1.025126,3.7323227 1.011893,0.9015898 2.844758,1.0752612 4.609586,0.3508307 0.203108,0.7765767 0.989201,1.3762169 2.1337603,1.6240004 C -7.429281,8.0913517 -5.1823675,7.383373 -4.1214871,5.81144 -3.8095556,5.3492411 -3.6175426,4.9035524 -3.5139061,4.4819538 -1.6565532,5.0435685 0.5192844,4.3416211 1.60744,3.1065802 2.570149,2.013918 2.1706469,0.00495653 0.80431037,-0.61142791 1.7661088,-1.7039188 0.56982283,-3.3210986 0.56982283,-3.3210986 c 0,0 0.02596,0.6946144 -2.43228623,0.6458532 z"
       sodipodi:nodetypes="ssccccscsscsccs" /><path
       d="m -6.8031167,-9.1887914 c -0.3171267,3.473e-4 -0.6420937,0.041482 -0.9665309,0.1249308 -1.0378176,0.2669512 -1.8566699,0.9127799 -2.2217425,1.7494282 -0.5805649,-0.3414553 -1.2147329,-0.4975823 -1.8353119,-0.4839093 -0.797889,0.017581 -1.573377,0.3158865 -2.184287,0.8622607 -1.255341,1.1227261 -1.396805,2.6244867 0.05749,3.8426472 0.688504,0.5767127 1.145128,0.6532352 1.909496,0.8511586 -2.590788,1.1132833 -2.448422,4.3767345 -2.448422,4.3767345 0,0 2.535541,1.4011244 5.1784325,0.3498857 0.7362786,-0.2928641 1.2314006,-0.7519394 1.4753758,-1.2773794 0.082962,0.9953551 0.7172961,1.9439722 1.9189021,2.5104795 0.071894,0.033895 0.1435463,0.066178 0.2155967,0.096861 0.058958,0.031092 0.1194441,0.061355 0.1813388,0.090535 3.3550087,1.5817472 6.8917862,-0.2957226 6.8917862,-0.2957226 0,0 -0.301591,-3.33212584 -2.650135,-5.1136781 -0.039485,0.015153 2.434528,-0.2031762 1.7219738,-2.6340174 -0.40796872,-1.3917641 -2.3070361,-2.0864388 -4.0305622,-1.4813806 0.015677,-0.4542115 -0.037986,-0.9348 -0.1900174,-1.4327524 -0.4201156,-1.3759937 -1.6491664,-2.1375893 -3.023382,-2.1360818 z"
       style="fill:#6f89ee;fill-opacity:0;stroke:#06090a;stroke-width:1.4;stroke-linecap:round;stroke-dasharray:none;stroke-opacity:0.995995;paint-order:fill markers stroke"
       id="path1"
       sodipodi:nodetypes="sccccsccscsccccsccs" /><path
       id="path1-7-2-9"
       style="fill:#465695;fill-opacity:1;stroke:#9fe7f9;stroke-width:0;stroke-linecap:round;stroke-opacity:0.995995;paint-order:fill markers stroke"
       d="m -9.1283381,-6.7895443 c 2.4475999,1.9889682 1.6297814,4.7851639 1.6297814,4.7851639 0,0 -3.6426623,0.8279206 -6.1507593,-1.0913259 -1.469161,-1.1242328 -1.356734,-2.7555494 -0.108301,-3.7755741 1.248433,-1.0200248 3.203509,-1.0768694 4.6292789,0.081736 z"
       sodipodi:nodetypes="scsss" /><path
       id="path1-7-31"
       style="fill:#5a70c2;fill-opacity:1;stroke:#9fe7f9;stroke-width:0;stroke-linecap:round;stroke-opacity:0.995995;paint-order:fill markers stroke"
       d="m -9.4252827,-6.7973157 c 2.4083505,1.8736778 1.5695915,4.5328525 1.5695915,4.5328525 0,0 -3.6215228,0.8073607 -6.0905678,-0.999776 -1.446289,-1.0585628 -1.318713,-2.6077943 -0.07028,-3.5834261 1.248433,-0.9756322 3.188349,-1.0410976 4.5912563,0.05035 z"
       sodipodi:nodetypes="scsss" /><path
       d="m -13.774589,-6.8573106 c -1.018537,0.832189 -1.162172,2.123306 -0.04182,2.9806229 0.04608,0.035262 0.09298,0.069294 0.140186,0.1020214 -0.977649,-0.8549292 -0.805921,-2.0760502 0.171454,-2.8746083 0.95909,-0.7836198 2.383223,-0.9057239 3.452096,-0.178067 -0.02457,-0.021068 -0.04953,-0.042349 -0.075,-0.063212 -1.08499,-0.8853851 -2.628345,-0.7989819 -3.646881,0.033207 z"
       style="fill:#96a6d6;fill-opacity:1;stroke:#9fe7f9;stroke-width:0;stroke-linecap:round;stroke-opacity:0.995995;paint-order:fill markers stroke"
       id="path2-98" /><path
       id="path1-7-2"
       style="fill:#465695;fill-opacity:1;stroke:#9fe7f9;stroke-width:0;stroke-linecap:round;stroke-opacity:0.995995;paint-order:fill markers stroke"
       d="m -1.7589725,-1.383286 c -3.0240425,0.88716261 -5.6921584,-0.6958395 -5.6921584,-0.6958395 0,0 0.4741753,-2.7285593 3.4465988,-3.6818448 1.7411508,-0.5584044 3.43332241,0.1227674 4.05341604,1.3316317 0.62009406,1.2088635 -0.04630195,2.5292634 -1.80785644,3.0460526 z"
       sodipodi:nodetypes="scsss" /><path
       id="path1-7"
       style="fill:#5a70c2;fill-opacity:1;stroke:#9fe7f9;stroke-width:0;stroke-linecap:round;stroke-opacity:0.995995;paint-order:fill markers stroke"
       d="m -1.4070541,-1.5169589 c -2.9775267,0.83428307 -5.6208256,-0.6874371 -5.6208256,-0.6874371 0,0 0.4491218,-2.6021229 3.3752662,-3.4997237 1.7140423,-0.5257862 3.38826036,0.1312474 4.00835468,1.2874996 0.62009388,1.1562519 -0.0283369,2.413675 -1.76279528,2.8996612 z"
       sodipodi:nodetypes="scsss" /><path
       d="M 0.04034498,-4.4458114 C -0.46555981,-5.4320657 -1.7845233,-6.0075043 -3.1122885,-5.581677 c -0.054611,0.017513 -0.1082219,0.036031 -0.1605569,0.055235 1.2721763,-0.3318806 2.50629518,0.2362066 2.99175524,1.1826035 0.47637805,0.9286921 0.0767319,1.9205084 -1.09407644,2.3603269 0.03153,-0.0085 0.063427,-0.017175 0.095072,-0.026343 1.34445326,-0.3918916 1.82636965,-1.4496666 1.32046499,-2.4359203 z"
       style="fill:#96a6d6;fill-opacity:1;stroke:#9fe7f9;stroke-width:0;stroke-linecap:round;stroke-opacity:0.995995;paint-order:fill markers stroke"
       id="path2" /><path
       id="path1-7-2-2"
       style="fill:#465695;fill-opacity:1;stroke:#9fe7f9;stroke-width:0;stroke-linecap:round;stroke-opacity:0.995995;paint-order:fill markers stroke"
       d="m -3.7237428,-6.8621255 c 0.8983027,2.6827231 -1.5495907,4.8017911 -1.5495907,4.8017911 0,0 -3.6877387,-0.6919989 -4.6820226,-3.3374446 -0.5824189,-1.549618 0.5279309,-2.9273974 2.2487433,-3.3317651 1.7208114,-0.4043685 3.4595907,0.3046888 3.98287,1.8674186 z"
       sodipodi:nodetypes="scsss" /><path
       id="path1-7-1"
       style="fill:#5a70c2;fill-opacity:1;stroke:#9fe7f9;stroke-width:0;stroke-linecap:round;stroke-opacity:0.995995;paint-order:fill markers stroke"
       d="m -3.8414604,-6.9489742 c 0.8827429,2.5263698 -1.5734516,4.532087 -1.5734516,4.532087 0,0 -3.6793584,-0.6405549 -4.658161,-3.131471 -0.573352,-1.4590993 0.5430037,-2.7616332 2.2638157,-3.1484027 1.7208113,-0.3867692 3.453581,0.2761346 3.9677969,1.7477867 z"
       sodipodi:nodetypes="scsss" /><path
       d="m -7.7300711,-8.7239578 c -1.4039281,0.3299044 -2.3303429,1.399152 -1.8862024,2.5808581 0.018268,0.048604 0.038013,0.096456 0.058834,0.1432871 -0.3212826,-1.1242557 0.5861718,-2.1216136 1.9333632,-2.4381858 1.3219889,-0.3106503 2.6386448,0.1355334 3.118397,1.1842894 -0.00833,-0.027893 -0.016878,-0.05612 -0.026121,-0.084179 -0.3959088,-1.1924415 -1.7942906,-1.7159918 -3.1982181,-1.3860875 z"
       style="fill:#96a6d6;fill-opacity:1;stroke:#9fe7f9;stroke-width:0;stroke-linecap:round;stroke-opacity:0.995995;paint-order:fill markers stroke"
       id="path2-6" /><path
       id="path1-7-2-1"
       style="fill:#465695;fill-opacity:1;stroke:#9fe7f9;stroke-width:0;stroke-linecap:round;stroke-opacity:0.995995;paint-order:fill markers stroke"
       d="m -11.720688,-2.6412063 c 1.206106,-3.2959717 4.7474829,-4.0916058 4.7474829,-4.0916058 0,0 2.5223544,2.8289674 1.4219329,6.14124207 C -6.1958638,1.3486549 -8.103864,2.141493 -9.8075005,1.5755012 -11.511137,1.0095104 -12.423261,-0.72124689 -11.720688,-2.6412063 Z"
       sodipodi:nodetypes="scsss" /><path
       id="path1-7-8"
       style="fill:#657dd8;fill-opacity:1;stroke:#9fe7f9;stroke-width:0;stroke-linecap:round;stroke-opacity:0.995995;paint-order:fill markers stroke"
       d="m -11.850972,-2.2490514 c 1.188885,-3.2441375 4.7210753,-4.0121172 4.7210753,-4.0121172 0,0 2.5316292,2.8010494 1.4483403,6.06175363 C -6.3161117,1.7106017 -8.2174657,2.4834337 -9.9211021,1.9174428 -11.624739,1.351452 -12.543514,-0.35928546 -11.850972,-2.2490514 Z"
       sodipodi:nodetypes="scsss" /><path
       d="m -9.7842225,1.5831401 c 1.3899149,0.4617652 2.9237022,-0.1164788 3.4152547,-1.59605339 0.020218,-0.06085455 0.038678,-0.1217774 0.055521,-0.18225625 C -6.8641256,1.1544931 -8.3303117,1.6690527 -9.6640565,1.2259489 -10.972851,0.79113415 -11.729242,-0.42536612 -11.363157,-1.787478 c -0.01336,0.033695 -0.0268,0.067851 -0.03954,0.1022388 -0.53887,1.46309044 0.228502,2.8066028 1.6184178,3.2683679 z"
       style="fill:#bbc7ee;stroke:#9fe7f9;stroke-width:0;stroke-linecap:round;stroke-opacity:0.995995;paint-order:fill markers stroke"
       id="path2-9" /><path
       id="path1-7-2-4"
       style="fill:#465695;fill-opacity:1;stroke:#9fe7f9;stroke-width:0;stroke-linecap:round;stroke-opacity:0.995995;paint-order:fill markers stroke"
       d="m -2.1896358,-2.4045666 c 3.2987094,1.92751423 3.4684903,5.8749983 3.4684903,5.8749983 0,0 -3.5170742,2.1570584 -6.8536219,0.3396275 -1.954443,-1.064593 -2.4360783,-3.26159071 -1.5012996,-4.977712 0.9347775,-1.7161206 2.9648763,-2.3597199 4.8864312,-1.2369138 z"
       sodipodi:nodetypes="scsss" /><path
       d="m -1.3103378,-1.6349653 c 0.040517,-0.016284 0.080657,-0.033012 0.1199244,-0.050423 -0.2962263,-0.2596215 -0.6280857,-0.502142 -0.9993704,-0.7190925 -0.1058459,-0.061848 -0.2116781,-0.1186481 -0.3179815,-0.169893 0.4601318,0.2778812 0.8560804,0.5970524 1.1974275,0.9394085 z"
       style="fill:#465695;stroke:#9fe7f9;stroke-width:0;stroke-linecap:round;stroke-opacity:0.995995;paint-order:fill markers stroke"
       id="path3" /><path
       id="path1-7-3"
       style="fill:#6f89ee;fill-opacity:1;stroke:#9fe7f9;stroke-width:0;stroke-linecap:round;stroke-opacity:0.995995;paint-order:fill markers stroke"
       d="m -2.5846646,-2.6197403 c 3.24649552,1.89907305 3.38841932,5.8313833 3.38841932,5.8313833 0,0 -3.48895182,2.1723769 -6.77355092,0.3832423 -1.9240136,-1.0480178 -2.3854959,-3.23403841 -1.4507183,-4.9501598 0.9347776,-1.7161207 2.9447098,-2.3707047 4.8358499,-1.2644658 z"
       sodipodi:nodetypes="scsss" /><path
       d="m -7.0887382,-1.1441861 c -0.7626406,1.40010108 -0.4387816,3.1548139 1.0516356,3.9666503 0.0613,0.03339 0.1230127,0.064913 0.1845615,0.094615 -1.3398364,-0.8501405 -1.6084971,-2.52015196 -0.8766769,-3.86367108 0.7181299,-1.31838502 2.167251,-1.89426472 3.5560074,-1.23949232 -0.033524,-0.02081 -0.067528,-0.04179 -0.1019137,-0.062069 -1.4636357,-0.8593527 -3.0509505,-0.2961904 -3.8135909,1.1039098 z"
       style="fill:#bbc7ee;stroke:#9fe7f9;stroke-width:0;stroke-linecap:round;stroke-opacity:0.995995;paint-order:fill markers stroke"
       id="path2-1" /><path
       id="path1-7-2-11"
       style="fill:#465695;fill-opacity:1;stroke:#9fe7f9;stroke-width:0;stroke-linecap:round;stroke-opacity:0.995995;paint-order:fill markers stroke"
       d="m -9.345472,2.1780542 c -2.628349,1.2078755 -5.149716,-0.4019419 -5.149716,-0.4019419 0,0 0.190621,-3.1179192 2.767153,-4.3970841 1.509251,-0.749294 3.0807376,-0.093385 3.7386639,1.2318299 0.6579253,1.32521385 0.1749541,2.8635862 -1.3561009,3.5671961 z"
       sodipodi:nodetypes="scsss"
       inkscape:transform-center-x="0.049030844"
       inkscape:transform-center-y="1.2900784" /><path
       id="path1-7-38"
       style="fill:#6f89ee;fill-opacity:1;stroke:#9fe7f9;stroke-width:0;stroke-linecap:round;stroke-opacity:0.995995;paint-order:fill markers stroke"
       d="m -9.0404257,2.0266085 c -2.5880273,1.1878571 -5.0878823,-0.4326393 -5.0878823,-0.4326393 0,0 0.168904,-3.107138 2.705321,-4.3663872 1.4857515,-0.7376283 3.0416763,-0.073992 3.6996034,1.2512218 0.6579253,1.32521383 0.1905269,2.8558551 -1.3170421,3.5478047 z"
       sodipodi:nodetypes="scsss"
       inkscape:transform-center-x="-0.26932097"
       inkscape:transform-center-y="1.1360317" /><path
       d="m -7.9984163,-1.4071942 c -0.5367701,-1.0811788 -1.7654728,-1.6427539 -2.9163947,-1.0713581 -0.04734,0.023502 -0.09369,0.048072 -0.138853,0.073327 1.1092487,-0.4613873 2.2614496,0.097612 2.7765281,1.1350977 0.505442,1.01807694 0.2329031,2.16679654 -0.7764645,2.7433993 0.027467,-0.01174 0.055244,-0.023715 0.082764,-0.036224 1.168749,-0.53414522 1.5092158,-1.76302602 0.9724457,-2.8442044 z"
       style="fill:#bbc7ee;stroke:#9fe7f9;stroke-width:0;stroke-linecap:round;stroke-opacity:0.995995;paint-order:fill markers stroke"
       id="path2-7"
       inkscape:transform-center-x="-1.6476864"
       inkscape:transform-center-y="0.82831604" /></g></svg>
