<?xml version="1.0" encoding="UTF-8" standalone="no"?>
<!-- Created with Inkscape (http://www.inkscape.org/) -->

<svg
   width="773.4505"
   height="208.34128"
   viewBox="0 0 204.64211 55.123629"
   version="1.1"
   id="svg1"
   inkscape:version="1.4.2 (f4327f4, 2025-05-13)"
   sodipodi:docname="CountDownPanelFG.svg"
   xmlns:inkscape="http://www.inkscape.org/namespaces/inkscape"
   xmlns:sodipodi="http://sodipodi.sourceforge.net/DTD/sodipodi-0.dtd"
   xmlns="http://www.w3.org/2000/svg"
   xmlns:svg="http://www.w3.org/2000/svg">
  <sodipodi:namedview
     id="namedview1"
     pagecolor="#ffffff"
     bordercolor="#000000"
     borderopacity="0.25"
     inkscape:showpageshadow="2"
     inkscape:pageopacity="0.0"
     inkscape:pagecheckerboard="0"
     inkscape:deskcolor="#d1d1d1"
     inkscape:document-units="mm"
     inkscape:zoom="6.4248316"
     inkscape:cx="127.86327"
     inkscape:cy="95.177592"
     inkscape:window-width="3840"
     inkscape:window-height="2054"
     inkscape:window-x="-11"
     inkscape:window-y="-11"
     inkscape:window-maximized="1"
     inkscape:current-layer="layer1"
     showgrid="true">
    <inkscape:grid
       id="grid1"
       units="mm"
       originx="126.40906"
       originy="-17.107709"
       spacingx="0.99999999"
       spacingy="0.99999998"
       empcolor="#0099e5"
       empopacity="0.30196078"
       color="#0099e5"
       opacity="0.14901961"
       empspacing="5"
       enabled="true"
       visible="true" />
  </sodipodi:namedview>
  <defs
     id="defs1">
    <inkscape:path-effect
       effect="fillet_chamfer"
       id="path-effect5"
       is_visible="true"
       lpeversion="1"
       nodesatellites_param="F,0,0,1,0,0,0,1 @ F,0,0,1,0,2.0496102,0,1 @ F,0,0,1,0,0,0,1"
       radius="0"
       unit="px"
       method="auto"
       mode="F"
       chamfer_steps="1"
       flexible="false"
       use_knot_distance="true"
       apply_no_radius="true"
       apply_with_radius="true"
       only_selected="false"
       hide_knots="false" />
    <inkscape:path-effect
       effect="fillet_chamfer"
       id="path-effect28"
       is_visible="true"
       lpeversion="1"
       nodesatellites_param="F,0,0,1,0,0,0,1 @ F,0,0,1,0,0,0,1 @ F,0,0,1,0,0,0,1 @ F,0,0,1,0,0,0,1 @ F,0,0,1,0,0,0,1 @ F,0,0,1,0,0,0,1 @ F,0,0,1,0,0,0,1 @ F,0,0,1,0,0,0,1 @ F,0,0,1,0,0,0,1 @ F,0,0,1,0,0,0,1 @ F,0,0,1,0,0,0,1 @ F,0,0,1,0,0,0,1 | F,0,0,1,0,0,0,1 @ F,0,0,1,0,0,0,1 @ F,0,0,1,0,0,0,1 @ F,0,0,1,0,0,0,1 @ F,0,0,1,0,0,0,1 @ F,0,0,1,0,0,0,1 @ F,0,0,1,0,0,0,1 @ F,0,0,1,0,0,0,1 @ F,0,0,1,0,0,0,1 @ F,0,0,1,0,0,0,1 @ F,0,0,1,0,0,0,1"
       radius="0"
       unit="px"
       method="auto"
       mode="F"
       chamfer_steps="1"
       flexible="false"
       use_knot_distance="true"
       apply_no_radius="true"
       apply_with_radius="true"
       only_selected="false"
       hide_knots="false" />
    <inkscape:path-effect
       effect="powerstroke"
       message=""
       id="path-effect4"
       is_visible="true"
       lpeversion="1.3"
       scale_width="1"
       interpolator_type="CentripetalCatmullRom"
       interpolator_beta="0.75"
       start_linecap_type="round"
       end_linecap_type="round"
       offset_points="10.839744,0.43679433"
       linejoin_type="spiro"
       miter_limit="4"
       not_jump="true"
       sort_points="true" />
    <inkscape:path-effect
       effect="simplify"
       id="path-effect3"
       is_visible="true"
       lpeversion="1.3"
       threshold="0.012"
       steps="1"
       smooth_angles="0"
       helper_size="0"
       simplify_individual_paths="false"
       simplify_just_coalesce="false"
       step="1" />
    <inkscape:path-effect
       effect="fillet_chamfer"
       id="path-effect5-4"
       is_visible="true"
       lpeversion="1"
       nodesatellites_param="F,0,0,1,0,0,0,1 @ F,0,0,1,0,2.0496102,0,1 @ F,0,0,1,0,0,0,1"
       radius="0"
       unit="px"
       method="auto"
       mode="F"
       chamfer_steps="1"
       flexible="false"
       use_knot_distance="true"
       apply_no_radius="true"
       apply_with_radius="true"
       only_selected="false"
       hide_knots="false" />
    <inkscape:path-effect
       effect="fillet_chamfer"
       id="path-effect5-4-5"
       is_visible="true"
       lpeversion="1"
       nodesatellites_param="F,0,0,1,0,0,0,1 @ F,0,0,1,0,2.0496102,0,1 @ F,0,0,1,0,0,0,1"
       radius="0"
       unit="px"
       method="auto"
       mode="F"
       chamfer_steps="1"
       flexible="false"
       use_knot_distance="true"
       apply_no_radius="true"
       apply_with_radius="true"
       only_selected="false"
       hide_knots="false" />
  </defs>
  <g
     inkscape:label="Ebene 1"
     inkscape:groupmode="layer"
     id="layer1"
     transform="translate(126.20907,-17.107708)">
    <path
       id="path6-5"
       style="fill:#ffffff;fill-opacity:1;stroke:#31354a;stroke-width:0;stroke-linecap:round;stroke-opacity:0.839394;paint-order:fill markers stroke"
       d="m -123.86351,17.112747 c -1.44719,0.0892 -2.5112,1.53343 -2.32422,2.935579 v 48.426337 c 0.64707,1.217729 2.53537,2.64812 3.53199,3.613032 0.84368,0.248509 0.6272,-0.181617 1.50626,-0.113327 65.275682,-0.359487 130.5517836,-0.705944 195.827215,-1.073574 1.485152,-0.03012 2.590678,-1.498323 2.437299,-2.925984 0.380691,-15.80662 0.792849,-31.613857 1.153885,-47.420091 -0.18362,-1.330848 -1.106619,-2.512025 -2.192981,-3.262857 -0.883094,-0.326727 -1.880306,-0.05973 -2.807812,-0.146514 -65.6747956,-0.01098 -131.349888,-0.03454 -197.024496,-0.03764 l -0.0999,0.0047 z m 73.537105,2.305163 c 19.602827,0.01635 39.205816,-0.03399 58.8085368,0.02766 15.9727582,0.157747 31.9550472,0.564924 47.8671572,1.899909 5.258079,0.507487 10.554066,0.953406 15.712277,2.198924 0.923281,0.3062 2.060313,0.45387 2.721404,1.208088 -0.01042,12.852641 0.02084,25.713119 -0.01563,38.560863 -1.076747,0.904707 -2.569723,1.081053 -3.893826,1.439179 -6.52406,1.323108 -13.143806,1.807457 -19.76902,2.328592 -19.90189,1.381634 -39.892514,1.568404 -59.8484823,1.512299 -16.5273107,-0.01942 -33.0548667,0.04126 -49.5820117,-0.03513 -15.748414,-0.164719 -31.505403,-0.574433 -47.19371,-1.894138 -5.22623,-0.497039 -10.48508,-0.955767 -15.61592,-2.170455 -0.95395,-0.31675 -1.744,-0.376295 -2.42651,-1.156391 0.0104,-12.851985 -2.1e-4,-25.732451 0.0362,-38.579506 1.07629,-0.904889 2.15986,-1.138007 3.48202,-1.499004 6.22833,-1.270854 12.54699,-1.754458 18.87156,-2.261139 16.90358,-1.207898 33.88952,-1.550973 50.84594,-1.579752 z"
       sodipodi:nodetypes="cccccccccccccscccccccccccccccss" />
    <path
       d="m -121.77395,19.314584 c -1.12254,0 -2.02623,0.903693 -2.02623,2.026233 v 48.864201 c 0,1.122539 0.90369,2.026233 2.02623,2.026233 H 76.406721 c 1.12254,0 2.026233,-0.903694 2.026233,-2.026233 V 21.340817 c 0,-1.12254 -0.903693,-2.026233 -2.026233,-2.026233 z m 73.303539,1.263489 H 3.0148186 c 41.0821704,0 74.1551634,2.604265 74.1551634,5.839437 v 38.710815 c 0,3.235172 -33.072993,5.839954 -74.1551634,5.839954 H -48.470411 c -41.082168,0 -74.155679,-2.604782 -74.155679,-5.839954 V 26.41751 c 0,-3.235172 33.073511,-5.839437 74.155679,-5.839437 z"
       style="fill:#d3d3d3;fill-opacity:1;stroke:#31354a;stroke-width:0;stroke-linecap:round;stroke-opacity:0.839394;paint-order:fill markers stroke"
       id="path6" />
    <path
       d="m -48.470625,20.577859 c -41.082168,0 -74.155675,2.604264 -74.155675,5.839436 v 38.710816 c 0,3.235172 33.073507,5.839953 74.155675,5.839953 H 3.014604 c 41.08217,0 74.155164,-2.604781 74.155164,-5.839953 V 26.417295 c 0,-3.235172 -33.072994,-5.839436 -74.155164,-5.839436 z m 1.328084,8.140071 H 1.686003 c 38.962377,0 70.329557,1.762783 70.329557,3.952731 v 26.204085 c 0,2.189947 -31.36718,3.953247 -70.329557,3.953247 h -48.828544 c -38.962382,0 -70.329039,-1.7633 -70.329039,-3.953247 V 32.670661 c 0,-2.189948 31.366657,-3.952731 70.329039,-3.952731 z"
       style="fill:#979797;fill-opacity:1;stroke:#212532;stroke-width:2.52655;stroke-linejoin:round;stroke-miterlimit:8.2;stroke-opacity:0"
       id="path2" />
    <path
       id="path2-5"
       style="fill:#616161;fill-opacity:1;stroke:#101118;stroke-width:2.52655;stroke-linejoin:round;stroke-miterlimit:8.2;stroke-opacity:0"
       d="M 72.662247,29.445749 C 71.196439,26.839223 40.1765,24.771098 1.867085,24.771098 h -49.190279 c -39.250727,0 -70.849426,2.170662 -70.849426,4.867404 v 32.268314 c 0,0.08196 0.0291,0.163491 0.0868,0.24443 l 4.88136,-5.336625 c -0.029,-0.03997 -0.0434,-0.08008 -0.0434,-0.120406 V 34.851103 c 0,-1.825474 29.968383,-3.294889 67.193829,-3.294889 H 0.5973951 c 36.0754549,0 65.3361919,1.38021 67.1095989,3.126941 z" />
    <path
       id="path5"
       style="fill:#bebebe;fill-opacity:1;stroke:#101118;stroke-width:2.527;stroke-linejoin:round;stroke-miterlimit:8.2;stroke-dasharray:none;stroke-opacity:0"
       d="m 72.662247,29.445749 -4.955253,5.237406 c 0.05653,0.05568 0.08475,0.111555 0.08475,0.167948 v 21.843112 c 0,1.825474 -29.968914,3.295406 -67.1943479,3.295406 H -46.054021 c -36.403116,0 -65.866479,-1.405749 -67.150419,-3.175 l -4.88136,5.336625 c 1.84081,2.582344 32.704727,4.62349 70.762606,4.62349 H 1.867085 c 39.250727,0 70.849422,-2.171178 70.849422,-4.86792 V 29.638502 c 0,-0.06467 -0.01824,-0.128708 -0.05426,-0.192753 z" />
  </g>
</svg>
