<?xml version="1.0" encoding="UTF-8" standalone="no"?>
<svg
   width="26.952246"
   height="30.001942"
   version="1.1"
   id="svg6"
   sodipodi:docname="char4.svg"
   inkscape:version="1.4.2 (f4327f4, 2025-05-13)"
   xml:space="preserve"
   xmlns:inkscape="http://www.inkscape.org/namespaces/inkscape"
   xmlns:sodipodi="http://sodipodi.sourceforge.net/DTD/sodipodi-0.dtd"
   xmlns:xlink="http://www.w3.org/1999/xlink"
   xmlns="http://www.w3.org/2000/svg"
   xmlns:svg="http://www.w3.org/2000/svg"><defs
     id="defs6"><inkscape:path-effect
       effect="mirror_symmetry"
       start_point="40.827876,25.335335"
       end_point="40.827876,58.444409"
       center_point="40.827876,41.889872"
       id="path-effect24"
       is_visible="true"
       lpeversion="1.2"
       lpesatellites=""
       mode="free"
       discard_orig_path="false"
       fuse_paths="true"
       oposite_fuse="false"
       split_items="false"
       split_open="false"
       link_styles="false" /><linearGradient
       id="linearGradient23"
       inkscape:collect="always"><stop
         style="stop-color:#e7d681;stop-opacity:0.98795202;"
         offset="0.33063704"
         id="stop23" /><stop
         style="stop-color:#afa15f;stop-opacity:1;"
         offset="0.86450958"
         id="stop24" /></linearGradient><linearGradient
       id="linearGradient18"
       inkscape:collect="always"><stop
         style="stop-color:#e7d681;stop-opacity:0.98795202;"
         offset="0.24266934"
         id="stop18" /><stop
         style="stop-color:#e1d17d;stop-opacity:0.98823529;"
         offset="0.45803839"
         id="stop20" /><stop
         style="stop-color:#b9b065;stop-opacity:1;"
         offset="1"
         id="stop19" /></linearGradient><inkscape:path-effect
       effect="mirror_symmetry"
       start_point="43.029281,-0.86014799"
       end_point="43.029281,30.655124"
       center_point="43.029281,14.897488"
       id="path-effect18"
       is_visible="true"
       lpeversion="1.2"
       lpesatellites=""
       mode="free"
       discard_orig_path="false"
       fuse_paths="true"
       oposite_fuse="false"
       split_items="false"
       split_open="false"
       link_styles="false" /><inkscape:path-effect
       effect="mirror_symmetry"
       start_point="39.794334,36.602812"
       end_point="39.794334,79.80053"
       center_point="39.794334,58.201671"
       id="path-effect1"
       is_visible="true"
       lpeversion="1.2"
       lpesatellites=""
       mode="free"
       discard_orig_path="false"
       fuse_paths="true"
       oposite_fuse="true"
       split_items="false"
       split_open="false"
       link_styles="false" /><linearGradient
       inkscape:collect="always"
       xlink:href="#linearGradient23"
       id="linearGradient24"
       x1="56.363052"
       y1="22.086334"
       x2="59.190636"
       y2="34.333935"
       gradientUnits="userSpaceOnUse"
       gradientTransform="matrix(0.40544219,0.13303958,-0.07330147,0.2252604,0.06402889,-2.1177464)" /><inkscape:path-effect
       effect="mirror_symmetry"
       start_point="40.168387,24.168747"
       end_point="40.168387,57.277821"
       center_point="40.168387,40.723284"
       id="path-effect24-4"
       is_visible="true"
       lpeversion="1.2"
       lpesatellites=""
       mode="free"
       discard_orig_path="false"
       fuse_paths="true"
       oposite_fuse="false"
       split_items="false"
       split_open="false"
       link_styles="false" /><inkscape:path-effect
       effect="mirror_symmetry"
       start_point="40.168387,24.168747"
       end_point="40.168387,57.277821"
       center_point="40.168387,40.723284"
       id="path-effect24-4-2"
       is_visible="true"
       lpeversion="1.2"
       lpesatellites=""
       mode="free"
       discard_orig_path="false"
       fuse_paths="true"
       oposite_fuse="false"
       split_items="false"
       split_open="false"
       link_styles="false" /><inkscape:path-effect
       effect="mirror_symmetry"
       start_point="40.827876,25.335335"
       end_point="40.827876,58.444409"
       center_point="40.827876,41.889872"
       id="path-effect24-3"
       is_visible="true"
       lpeversion="1.2"
       lpesatellites=""
       mode="free"
       discard_orig_path="false"
       fuse_paths="true"
       oposite_fuse="false"
       split_items="false"
       split_open="false"
       link_styles="false" /><linearGradient
       inkscape:collect="always"
       xlink:href="#linearGradient18"
       id="linearGradient19-3"
       x1="43.168621"
       y1="8.3130026"
       x2="41.672302"
       y2="23.506233"
       gradientUnits="userSpaceOnUse" /><inkscape:path-effect
       effect="mirror_symmetry"
       start_point="43.80859,0.71626709"
       end_point="43.857297,31.110533"
       center_point="43.832943,15.9134"
       id="path-effect18-3"
       is_visible="true"
       lpeversion="1.2"
       lpesatellites=""
       mode="free"
       discard_orig_path="false"
       fuse_paths="true"
       oposite_fuse="false"
       split_items="false"
       split_open="false"
       link_styles="false" /><inkscape:path-effect
       effect="mirror_symmetry"
       start_point="39.794334,36.602812"
       end_point="39.794334,79.80053"
       center_point="39.794334,58.201671"
       id="path-effect1-8"
       is_visible="true"
       lpeversion="1.2"
       lpesatellites=""
       mode="free"
       discard_orig_path="false"
       fuse_paths="true"
       oposite_fuse="true"
       split_items="false"
       split_open="false"
       link_styles="false" /><linearGradient
       inkscape:collect="always"
       xlink:href="#linearGradient23"
       id="linearGradient25"
       gradientUnits="userSpaceOnUse"
       gradientTransform="matrix(-0.37142794,0.12187834,0.06715191,0.20636236,25.938672,-0.72373908)"
       x1="56.363052"
       y1="22.086334"
       x2="59.190636"
       y2="34.333935" /></defs><sodipodi:namedview
     id="namedview6"
     pagecolor="#ffffff"
     bordercolor="#000000"
     borderopacity="0.25"
     inkscape:showpageshadow="2"
     inkscape:pageopacity="0.0"
     inkscape:pagecheckerboard="0"
     inkscape:deskcolor="#d1d1d1"
     inkscape:zoom="7.0898438"
     inkscape:cx="-0.42314049"
     inkscape:cy="13.046832"
     inkscape:window-width="3840"
     inkscape:window-height="2054"
     inkscape:window-x="-11"
     inkscape:window-y="-11"
     inkscape:window-maximized="1"
     inkscape:current-layer="svg6"
     showgrid="false"
     showguides="false"><sodipodi:guide
       position="-4.793443,127.98968"
       orientation="0,128"
       id="guide7"
       inkscape:locked="false" /><sodipodi:guide
       position="123.20656,127.98968"
       orientation="128,0"
       id="guide8"
       inkscape:locked="false" /><sodipodi:guide
       position="123.20656,-0.010316018"
       orientation="0,-128"
       id="guide9"
       inkscape:locked="false" /><sodipodi:guide
       position="-4.793443,-0.010316018"
       orientation="-128,0"
       id="guide10"
       inkscape:locked="false" /><inkscape:grid
       id="grid1"
       units="px"
       originx="-4.793443"
       originy="0.010316018"
       spacingx="1"
       spacingy="1"
       empcolor="#0099e5"
       empopacity="0.30196078"
       color="#0099e5"
       opacity="0.14901961"
       empspacing="5"
       enabled="true"
       visible="false" /></sodipodi:namedview><path
     style="fill:#c2a08d;fill-opacity:1;stroke:#1a6366;stroke-width:3.92949;stroke-linecap:round;stroke-linejoin:round;stroke-dasharray:none;stroke-opacity:1"
     d="m 37.808594,5.1113281 c -3.586384,-0.00772 -5.546207,3.2566271 -9.126953,9.1718749 -5.183264,8.562546 -8.570707,21.158036 -10.894532,23.978516 -3.42793,4.160558 -3.844548,5.759178 -4.435546,7.080078 -1.769377,3.954612 -8.7881199,23.516926 -2.244141,32.246094 5.394632,7.196027 25.140181,7.409062 29.060547,7.378906 3.920365,0.03016 23.665915,-0.182879 29.060547,-7.378906 6.543978,-8.729168 -0.472812,-28.291482 -2.242188,-32.246094 -0.590998,-1.3209 -1.00957,-2.91952 -4.4375,-7.080078 C 60.225003,35.441239 56.837561,22.845749 51.654297,14.283203 48.073551,8.3679552 46.113728,5.1036084 42.527344,5.1113281 41.734812,5.113034 40.945139,5.270544 40.167969,5.5605469 39.390798,5.270544 38.601126,5.113034 37.808594,5.1113281 Z"
     id="path18-1-4"
     sodipodi:nodetypes="ssssccas"
     transform="matrix(0.31270139,0,0,0.32544211,0.77296239,0.43999991)"
     inkscape:original-d="m 13.35122,45.341208 c 0.590998,-1.3209 1.008148,-2.919724 4.436078,-7.080282 2.323825,-2.82048 5.711117,-15.416012 10.894381,-23.978558 3.580746,-5.9152479 5.541409,-9.177826 9.127793,-9.1701063 8.777811,0.018894 17.148413,18.9832763 13.260871,28.9209533 L 40.847715,84.957296 c 0,0 -23.741121,0.632979 -29.739541,-7.368456 -6.5439788,-8.729168 0.47367,-28.29302 2.243046,-32.247632 z"
     inkscape:path-effect="#path-effect24-4-2" /><path
     style="fill:#74eed8;fill-opacity:1;stroke:#1a6366;stroke-width:3.92949;stroke-linecap:round;stroke-linejoin:round;stroke-dasharray:none;stroke-opacity:1"
     d="m 40.828125,5.1875 c -3.537005,0.028152 -5.957254,2.169776 -9.507813,8.035156 -5.183264,8.562546 -11.209378,22.218583 -13.533203,25.039063 -3.42793,4.160558 -8.8191579,1.634178 -9.4101559,2.955078 -1.7693756,3.954612 -5.1153767,27.083252 2.7304689,36.371094 6.478608,7.669319 28.958971,7.381153 29.720703,7.36914 0.761732,0.01201 23.240142,0.300179 29.71875,-7.36914 7.845845,-9.287842 4.501797,-32.416482 2.732422,-36.371094 -0.590998,-1.3209 -5.982226,1.20548 -9.410156,-2.955078 C 61.545316,35.441239 55.519201,21.785202 50.335937,13.222656 46.785379,7.357276 44.36513,5.2156524 40.828125,5.1875 Z"
     id="path18-2"
     sodipodi:nodetypes="ssssccas"
     inkscape:path-effect="#path-effect24-3"
     inkscape:original-d="m 8.3770395,41.216698 c 0.590998,-1.3209 5.9823285,1.204786 9.4102585,-2.955772 2.323825,-2.82048 8.349075,-16.476546 13.532339,-25.039092 3.580746,-5.9152481 6.012314,-8.0423009 9.598698,-8.0345812 8.777811,0.018894 14.03955,18.9082852 10.152008,28.8459622 L 40.847715,84.957296 c 0,0 -23.148996,0.433373 -29.739541,-7.368456 C 3.2623285,68.300998 6.6076639,45.17131 8.3770395,41.216698 Z"
     transform="matrix(0.2890003,0,0,0.30077534,1.6540713,1.2483234)" /><g
     id="path2-1-7"
     style="display:inline;stroke-width:2.89571"
     transform="matrix(0.34461807,0,0,0.34605895,-0.23772341,0.38876285)"><path
       style="baseline-shift:baseline;display:inline;overflow:visible;vector-effect:none;fill:#a0eec1;stroke-width:2.89571;stroke-linecap:round;stroke-linejoin:round;enable-background:accumulate;stop-color:#000000;stop-opacity:1"
       d="m 58.995831,50.494766 c 0,5.219167 3.260367,7.301605 5.632559,9.047131 1.501014,1.104488 5.689166,4.41006 7.00455,3.200733 1.877666,-1.726274 3.019089,-9.178744 3.019089,-12.247864 0,-5.219167 -3.504759,-9.450138 -7.828099,-9.450138 -4.32334,0 -7.828099,4.230971 -7.828099,9.450138 z"
       id="path6-7" /></g><path
     d="m 25.155648,20.408138 a 3.5062748,4.2098137 0 0 1 -1.813955,0.606955 3.5062748,4.2098137 0 0 1 -3.185702,-2.451476 c 0.247454,1.305816 1.176148,1.910821 1.878576,2.429847 0.517275,0.382218 1.960367,1.526293 2.413671,1.107794 0.291378,-0.269004 0.531676,-0.939939 0.70741,-1.69312 z"
     style="baseline-shift:baseline;display:inline;overflow:visible;vector-effect:none;fill:#a0eec1;stroke-width:1;stroke-linecap:round;stroke-linejoin:round;enable-background:accumulate;stop-color:#000000"
     id="path10-9" /><ellipse
     style="fill:#1a6366;fill-opacity:1;stroke:#1a6366;stroke-width:0;stroke-linecap:round;stroke-linejoin:round;stroke-dasharray:none"
     id="path3-5-3"
     cx="-16.805397"
     cy="-23.341858"
     rx="0.22494335"
     ry="0.94331449"
     transform="matrix(0,-1,-1,0,0,0)" /><g
     id="path2-19"
     transform="matrix(0.34461807,0,0,0.34605895,-0.23772341,0.38876285)"
     style="stroke-width:2.89571"><path
       style="baseline-shift:baseline;display:inline;overflow:visible;vector-effect:none;fill:#a0eec1;stroke-width:2.89571;stroke-linecap:round;stroke-linejoin:round;enable-background:accumulate;stop-color:#000000;stop-opacity:1"
       d="m 20.592837,50.494766 c 0,5.219167 -3.260367,7.301605 -5.632559,9.047131 -1.501014,1.104488 -5.6891655,4.41006 -7.0045498,3.200733 -1.8776664,-1.726274 -3.0190894,-9.178744 -3.0190894,-12.247864 0,-5.219167 3.5047594,-9.450138 7.8280992,-9.450138 4.32334,0 7.828099,4.230971 7.828099,9.450138 z"
       id="path4-8" /></g><path
     d="M 6.722621,18.869122 A 3.5062748,4.2098137 0 0 1 4.1090409,20.272958 3.5062748,4.2098137 0 0 1 1.5398855,18.928601 c 0.1437506,1.195977 0.483799,2.729463 0.9638555,3.172657 0.4533037,0.418499 1.8970673,-0.725576 2.4143462,-1.107794 0.6452038,-0.476747 1.4808618,-1.02601 1.8045338,-2.124342 z"
     style="baseline-shift:baseline;display:inline;overflow:visible;vector-effect:none;fill:#a0eec1;stroke-width:1;stroke-linecap:round;stroke-linejoin:round;enable-background:accumulate;stop-color:#000000"
     id="path13-6" /><ellipse
     style="fill:#1a6366;fill-opacity:0;stroke:#87c9a4;stroke-width:1;stroke-linecap:round;stroke-linejoin:round;stroke-dasharray:none;stroke-opacity:1"
     id="path3-7-5"
     cx="4.1087546"
     cy="16.063345"
     rx="1.2244302"
     ry="1.4701138" /><path
     d="M 2.3435452,15.446383 A 1.8385193,2.2074207 0 0 0 2.2701792,16.063476 1.8385193,2.2074207 0 0 0 4.1090406,18.270954 1.8385193,2.2074207 0 0 0 5.94723,16.063476 1.8385193,2.2074207 0 0 0 5.832803,15.295658 C 5.373265,14.85544 4.7927142,14.592725 4.1615431,14.592725 c -0.7002777,0 -1.3384793,0.323268 -1.8179979,0.853658 z"
     style="fill:#1a6366;fill-opacity:0;stroke:#87c9a4;stroke-width:1.83188;stroke-linecap:round;stroke-linejoin:round"
     id="path16-0" /><path
     d="M 1.5957516,16.850219 A 2.5973383,3.1184978 0 0 0 4.1090409,19.182062 2.5973383,3.1184978 0 0 0 6.662041,16.634608 C 6.484897,16.105136 6.197082,15.644618 5.832803,15.295658 a 1.8385193,2.2074207 0 0 1 0.114427,0.767818 1.8385193,2.2074207 0 0 1 -1.8381891,2.207478 1.8385193,2.2074207 0 0 1 -1.8388614,-2.207478 1.8385193,2.2074207 0 0 1 0.073366,-0.617093 c -0.3409996,0.377175 -0.6016066,0.859268 -0.7477939,1.403836 z"
     style="fill:#1a6366;fill-opacity:0;stroke:#87c9a4;stroke-width:1.83188;stroke-linecap:round;stroke-linejoin:round"
     id="path15-2" /><path
     d="m 6.722621,18.869122 c 0.08643,-0.293294 0.136634,-0.625754 0.136634,-1.00641 0,-0.434469 -0.07032,-0.848832 -0.197214,-1.228104 A 2.5973383,3.1184978 0 0 1 4.1090409,19.182062 2.5973383,3.1184978 0 0 1 1.5957516,16.850219 c -0.08561,0.318917 -0.1319232,0.658954 -0.1319232,1.012493 0,0.274148 0.026053,0.649778 0.076057,1.065889 a 3.5062748,4.2098137 0 0 0 2.5691554,1.344357 3.5062748,4.2098137 0 0 0 2.6135802,-1.403836 z"
     style="fill:#1a6366;fill-opacity:0;stroke:#87c9a4;stroke-width:1.83188;stroke-linecap:round;stroke-linejoin:round"
     id="path14-8" /><path
     style="baseline-shift:baseline;display:inline;overflow:visible;vector-effect:none;fill:#1a6366;stroke-width:1;stroke-linecap:round;stroke-linejoin:round;enable-background:accumulate;stop-color:#000000"
     d="m 4.1615434,14.189215 c -1.7521762,0 -3.1002186,1.68664 -3.1002186,3.673497 0,0.581091 0.1016933,1.497289 0.2867325,2.377128 0.09252,0.439918 0.2054544,0.867428 0.343946,1.238241 0.1384883,0.370814 0.2868912,0.687071 0.5398133,0.920572 0.2587393,0.238874 0.60069,0.221305 0.8696196,0.150724 0.2689296,-0.07058 0.5293678,-0.202133 0.7875075,-0.352818 0.5162826,-0.301368 1.0192144,-0.693918 1.2674118,-0.877313 0.3994055,-0.295121 0.9225875,-0.647439 1.3528985,-1.188226 0.430308,-0.540787 0.751833,-1.28118 0.751833,-2.268308 0,-1.986857 -1.347371,-3.673497 -3.0995436,-3.673497 z m 0,0.80702 c 1.2276256,0 2.2952076,1.241055 2.2952076,2.866477 0,0.819011 -0.240302,1.342681 -0.576156,1.764766 -0.335858,0.422084 -0.7826834,0.731947 -1.2007804,1.04088 -0.2690778,0.198824 -0.7467012,0.569154 -1.194722,0.830677 -0.2240086,0.130761 -0.4415763,0.230859 -0.5869259,0.269007 -0.1453495,0.03815 -0.1539168,0.0069 -0.1218294,0.0365 C 2.7057216,21.739343 2.5617643,21.508836 2.444508,21.194881 2.3272551,20.880926 2.2209232,20.485159 2.1342173,20.072893 1.9608089,19.248362 1.8656599,18.343717 1.8656599,17.862712 c 0,-1.625422 1.068254,-2.866477 2.2958835,-2.866477 z"
     id="path5-6" /><path
     style="fill:url(#linearGradient19-3);stroke:#66521a;stroke-width:3.92949;stroke-linecap:round;stroke-linejoin:round;stroke-dasharray:none;stroke-opacity:1"
     d="m 43.810547,1.9082031 c -0.133467,0.013232 -0.274694,0.023301 -0.423828,0.029297 -2.110507,0.084857 -1.607648,2.9030387 -2.121094,4.4160156 -0.664145,1.9570404 -0.815279,3.9856524 -1.224609,5.9785154 -0.369882,1.800812 -0.585545,3.621999 -1.113282,5.402344 -0.82574,2.785672 -3.203125,8.228516 -3.203125,8.228516 0,0 2.391606,4.131467 4.464844,4.886718 1.057795,0.38534 2.417262,0.629442 3.667969,0.541016 1.250983,0.08442 2.609461,-0.164006 3.666015,-0.552734 2.070807,-0.761892 4.449219,-4.902344 4.449219,-4.902344 0,0 -2.393852,-5.433786 -3.228515,-8.216797 -0.533441,-1.778644 -0.755208,-3.59882 -1.13086,-5.398437 -0.415715,-1.991541 -0.573727,-4.0197081 -1.24414,-5.9746099 -0.518293,-1.5113235 -0.024,-4.3320642 -2.134766,-4.4101562 -0.149153,-0.00552 -0.29032,-0.014539 -0.423828,-0.027344 z"
     id="path17-27-0"
     sodipodi:nodetypes="caaascsaaaaac"
     inkscape:path-effect="#path-effect18-3"
     inkscape:original-d="m 35.724656,25.962502 c 0,0 2.377578,-5.442697 3.203318,-8.228369 0.527737,-1.780345 0.743001,-3.60128 1.112883,-5.402092 0.40933,-1.992863 0.560263,-4.0219306 1.224408,-5.978971 0.513446,-1.5129769 0.01023,-4.3313303 2.120737,-4.4161869 0.992682,-0.039912 1.664664,-0.2720025 1.664664,-0.2720025 0,0 -0.03619,-0.3407686 0.01107,0.6589244 0.133316,2.820058 0.04295,4.168564 -0.07675,6.247919 -0.08898,1.545568 -0.351678,3.076793 -0.476259,4.619899 -0.163982,2.031126 -0.549662,4.0742 -0.356769,6.102785 0.34735,3.652946 4.760359,7.63365 2.70214,10.671479 -1.256986,1.855248 -4.558975,1.650739 -6.664586,0.883694 -2.073238,-0.755251 -4.464857,-4.887079 -4.464857,-4.887079 z"
     transform="matrix(0.24948896,0,0,0.34833346,2.3298983,0.01969512)" /><path
     style="fill:url(#linearGradient24);stroke:#66521a;stroke-width:1.24931;stroke-linecap:round;stroke-linejoin:round;stroke-dasharray:none;stroke-opacity:1"
     d="m 23.065841,14.601053 c 0,0 -0.792723,-1.202929 -1.050713,-1.801891 -0.25053,-0.581641 -0.35819,-1.153132 -0.474879,-1.721565 -0.09867,-0.480635 -0.136835,-0.951889 -0.189863,-1.4251276 -0.04543,-0.4054239 0.0081,-0.7953559 -0.109885,-1.2114218 -0.05605,-0.1976776 -0.28157,-0.601528 -0.28157,-0.601528 0,0 -0.578384,0.2536632 -0.664503,0.474796 -0.24293,0.6237985 -0.296443,0.942045 -0.386935,1.4302288 -0.06726,0.3628626 -0.06294,0.7449606 -0.115564,1.1118736 -0.06926,0.482952 -0.08961,0.982707 -0.263386,1.433494 -0.193238,0.501252 -0.567596,0.934049 -0.860319,1.397372 -0.220877,0.34961 -0.676072,1.043196 -0.676072,1.043196 z"
     id="path17-8"
     sodipodi:nodetypes="caaaacsaaaacc"
     inkscape:transform-center-x="0.065663147"
     inkscape:transform-center-y="-0.74729032" /><path
     style="fill:url(#linearGradient25);stroke:#66521a;stroke-width:1.1445;stroke-linecap:round;stroke-linejoin:round;stroke-dasharray:none;stroke-opacity:1"
     d="m 4.8665775,14.592451 c 0,0 0.7262175,-1.10201 0.9625645,-1.650723 0.229513,-0.532845 0.328139,-1.056392 0.435039,-1.577137 0.09039,-0.440312 0.125355,-0.87203 0.173934,-1.305567 C 6.479735,9.6876137 6.430715,9.3303942 6.538782,8.9492341 6.590132,8.76814 6.79673,8.3981705 6.79673,8.3981705 c 0,0 0.529862,0.2323824 0.608755,0.4349632 0.22255,0.5714658 0.271573,0.8630125 0.354473,1.3102403 0.06162,0.332422 0.05766,0.682463 0.10587,1.018595 0.06346,0.442435 0.08209,0.900263 0.241289,1.313232 0.177026,0.4592 0.519978,0.855687 0.788142,1.28014 0.202348,0.32028 0.619354,0.955678 0.619354,0.955678 z"
     id="path17-8-8"
     sodipodi:nodetypes="caaaacsaaaacc"
     inkscape:transform-center-x="-0.060154021"
     inkscape:transform-center-y="-0.68459712" /><path
     style="fill:#74eed8;fill-opacity:1;stroke:#1a6366;stroke-width:6.75571;stroke-linecap:round;stroke-linejoin:round"
     d="m 48.413729,44.160562 c 0,0 10.832989,-8.27173 16.912808,-7.35828 1.212409,0.182156 2.964078,1.179677 2.792585,2.39364 -0.291338,2.06232 -4.148592,1.186778 -5.684905,2.593115 -2.086552,1.910024 -4.238978,4.552084 -4.188877,7.380402 0.0719,4.059073 2.810861,8.443543 6.38305,10.372458 3.61441,1.951713 8.915889,2.953053 9.797031,6.475698 0.541339,2.164177 1.092294,3.589617 1.095572,7.488112 0.0028,3.279653 -2.46923,6.125447 -3.888158,7.584292 C 68.781757,84.021284 57.593325,80.21009 50.56388,80.017914 49.002551,79.975229 49.368864,79.982257 45.878178,80 43.905231,80.010029 41.762737,79.515564 39.794334,78.858666 37.825931,79.515564 35.683437,80.010029 33.71049,80 c -3.490686,-0.01774 -3.124373,-0.02477 -4.685702,0.01791 -7.029445,0.192176 -18.217877,4.00337 -21.068955,1.072085 -1.418928,-1.458845 -3.890958,-4.304639 -3.888158,-7.584292 0.00328,-3.898495 0.554233,-5.323935 1.095572,-7.488112 0.881142,-3.522645 6.182621,-4.523985 9.797031,-6.475698 3.572189,-1.928915 6.31115,-6.313385 6.38305,-10.372458 0.0501,-2.828318 -2.102325,-5.470378 -4.188877,-7.380402 -1.536313,-1.406337 -5.393567,-0.530795 -5.684905,-2.593115 -0.171493,-1.213963 1.580176,-2.211484 2.792585,-2.39364 6.079819,-0.91345 16.912808,7.35828 16.912808,7.35828"
     id="path1-2"
     sodipodi:nodetypes="caaaassssascc"
     inkscape:path-effect="#path-effect1-8"
     inkscape:original-d="m 48.413729,44.160562 c 0,0 10.832989,-8.27173 16.912808,-7.35828 1.212409,0.182156 2.964078,1.179677 2.792585,2.39364 -0.291338,2.06232 -4.148592,1.186778 -5.684905,2.593115 -2.086552,1.910024 -4.238978,4.552084 -4.188877,7.380402 0.0719,4.059073 2.810861,8.443543 6.38305,10.372458 3.61441,1.951713 8.915889,2.953053 9.797031,6.475698 0.541339,2.164177 1.092294,3.589617 1.095572,7.488112 0.0028,3.279653 -2.46923,6.125447 -3.888158,7.584292 C 68.781757,84.021284 57.593325,80.21009 50.56388,80.017914 49.002551,79.975229 49.368864,79.982257 45.878178,80 40.07816,80.029482 32.812871,75.698999 32.812871,75.698999 l 1.994704,-12.167691"
     transform="matrix(0.34461807,0,0,0.34605895,-0.23772341,0.38876285)" /><ellipse
     style="fill:#1a6366;fill-opacity:1;stroke:#1a6366;stroke-width:0;stroke-linecap:round;stroke-linejoin:round;stroke-dasharray:none"
     id="path3-4"
     cx="16.063345"
     cy="-4.1087546"
     rx="0.26611897"
     ry="0.8573882"
     transform="rotate(90)" /><ellipse
     style="fill:#1a6366;fill-opacity:0;stroke:#87c9a4;stroke-width:1;stroke-linecap:round;stroke-linejoin:round;stroke-dasharray:none;stroke-opacity:1"
     id="path3-7-16-8"
     cx="23.341858"
     cy="16.805397"
     rx="1.2244302"
     ry="1.4701138" /><ellipse
     style="fill:#1a6366;fill-opacity:0;stroke:#87c9a4;stroke-width:1.102;stroke-linecap:round;stroke-linejoin:round;stroke-dasharray:none;stroke-opacity:1"
     id="path3-7-1-8-6"
     cx="23.341858"
     cy="16.805397"
     rx="1.8385193"
     ry="2.2074206" /><path
     d="m 21.028982,15.386903 a 2.5973383,3.1184978 0 0 0 -0.284713,1.418707 2.5973383,3.1184978 0 0 0 2.597424,3.118586 2.5973383,3.1184978 0 0 0 2.102708,-1.287583 c 0.02919,-0.298553 0.04442,-0.565627 0.04442,-0.773901 0,-1.806139 -1.20781,-3.269987 -2.697711,-3.269987 -0.673522,0 -1.289423,0.299424 -1.762129,0.794178 z"
     style="fill:#1a6366;fill-opacity:0;stroke:#87c9a4;stroke-width:1.83188;stroke-linecap:round;stroke-linejoin:round"
     id="path12-5" /><path
     d="m 25.155648,20.408138 c 0.138,-0.591452 0.236099,-1.233166 0.288753,-1.771525 a 2.5973383,3.1184978 0 0 1 -2.102708,1.287583 2.5973383,3.1184978 0 0 1 -2.597424,-3.118586 2.5973383,3.1184978 0 0 1 0.284713,-1.418707 c -0.572973,0.599695 -0.935587,1.48615 -0.935587,2.475809 0,0.254239 0.02205,0.48698 0.06259,0.700905 a 3.5062748,4.2098137 0 0 0 3.185702,2.451476 3.5062748,4.2098137 0 0 0 1.813956,-0.606955 z"
     style="fill:#1a6366;fill-opacity:0;stroke:#87c9a4;stroke-width:1.83188;stroke-linecap:round;stroke-linejoin:round"
     id="path11-0" /><path
     style="baseline-shift:baseline;display:inline;overflow:visible;vector-effect:none;fill:#1a6366;stroke-width:1;stroke-linecap:round;stroke-linejoin:round;enable-background:accumulate;stop-color:#000000"
     d="m 22.79111,14.189215 c -1.752173,0 -3.099543,1.68664 -3.099543,3.673497 0,0.987128 0.321522,1.727521 0.751833,2.268308 0.430307,0.540787 0.953489,0.893105 1.352895,1.188226 0.248197,0.183395 0.750457,0.575945 1.266739,0.877313 0.258143,0.150685 0.51925,0.282238 0.78818,0.352818 0.26893,0.07058 0.610209,0.08815 0.868951,-0.150724 0.252919,-0.233501 0.401322,-0.549758 0.53981,-0.920572 0.138491,-0.370813 0.252098,-0.798323 0.344618,-1.238241 0.185039,-0.879839 0.28606,-1.796037 0.28606,-2.377128 0,-1.986857 -1.34737,-3.673497 -3.099543,-3.673497 z m 0,0.80702 c 1.22763,0 2.295884,1.241055 2.295884,2.866477 0,0.481005 -0.09583,1.38565 -0.269233,2.210181 -0.0867,0.412266 -0.193038,0.808033 -0.310291,1.121988 -0.117256,0.313955 -0.260538,0.544462 -0.331157,0.609659 0.03208,-0.02962 0.02354,0.0017 -0.12183,-0.0365 -0.145345,-0.03815 -0.362917,-0.138246 -0.586926,-0.269007 -0.44802,-0.261522 -0.92564,-0.631853 -1.194721,-0.830677 -0.418095,-0.308933 -0.865594,-0.618796 -1.201453,-1.04088 -0.335854,-0.422085 -0.576156,-0.945754 -0.576156,-1.764766 0,-1.625421 1.068254,-2.866477 2.295883,-2.866477 z"
     id="path7-9" /></svg>
