<?xml version="1.0" encoding="UTF-8" standalone="no"?>
<svg
   width="27.788807"
   height="30.004646"
   version="1.1"
   id="svg6"
   sodipodi:docname="char3.svg"
   inkscape:version="1.4.2 (f4327f4, 2025-05-13)"
   xml:space="preserve"
   xmlns:inkscape="http://www.inkscape.org/namespaces/inkscape"
   xmlns:sodipodi="http://sodipodi.sourceforge.net/DTD/sodipodi-0.dtd"
   xmlns="http://www.w3.org/2000/svg"
   xmlns:svg="http://www.w3.org/2000/svg"><defs
     id="defs6"><inkscape:path-effect
       effect="mirror_symmetry"
       start_point="37.377411,7.1933889"
       end_point="37.377411,61.073279"
       center_point="37.377411,34.133334"
       id="path-effect1"
       is_visible="true"
       lpeversion="1.2"
       lpesatellites=""
       mode="free"
       discard_orig_path="false"
       fuse_paths="true"
       oposite_fuse="false"
       split_items="false"
       split_open="false"
       link_styles="false" /></defs><sodipodi:namedview
     id="namedview6"
     pagecolor="#ffffff"
     bordercolor="#000000"
     borderopacity="0.25"
     inkscape:showpageshadow="2"
     inkscape:pageopacity="0.0"
     inkscape:pagecheckerboard="0"
     inkscape:deskcolor="#d1d1d1"
     inkscape:zoom="5.0132764"
     inkscape:cx="80.785492"
     inkscape:cy="117.58777"
     inkscape:window-width="3840"
     inkscape:window-height="2054"
     inkscape:window-x="-11"
     inkscape:window-y="-11"
     inkscape:window-maximized="1"
     inkscape:current-layer="svg6"
     showgrid="false"
     showguides="false"><sodipodi:guide
       position="-3.4276863,292.00762"
       orientation="0,128"
       id="guide7"
       inkscape:locked="false" /><sodipodi:guide
       position="124.57231,292.00762"
       orientation="128,0"
       id="guide8"
       inkscape:locked="false" /><sodipodi:guide
       position="124.57231,164.00762"
       orientation="0,-128"
       id="guide9"
       inkscape:locked="false" /><sodipodi:guide
       position="-3.4276863,164.00762"
       orientation="-128,0"
       id="guide10"
       inkscape:locked="false" /><inkscape:grid
       id="grid1"
       units="px"
       originx="-3.4276863"
       originy="-4.0076236"
       spacingx="80"
       spacingy="80"
       empcolor="#0099e5"
       empopacity="0.30196078"
       color="#0099e5"
       opacity="0.14901961"
       empspacing="5"
       enabled="true"
       visible="true" /></sodipodi:namedview><path
     d="M 9.9069507,15.912359 H 6.411994 c 0.1112563,1.431935 0.2109677,2.864074 0.2408347,4.298988 0.0427,2.051165 2.778046,5.73759 2.778046,5.73759 L 6.566612,29.991994 h 3.3403387 z"
     style="fill:#ef5f52;stroke:#212532;stroke-width:0"
     id="path12"
     sodipodi:nodetypes="ccscccc" /><path
     d="m 16.517799,15.912359 h -4.483948 v 14.079635 h 4.483948 z"
     style="fill:#ef5f52;stroke:#212532;stroke-width:0"
     id="path10" /><path
     d="m 22.613488,15.912359 h -3.968789 v 14.079635 h 3.352451 l -2.791239,-4.027877 c 0,0 3.382225,-5.174149 3.441778,-7.2138 0.02999,-1.027354 0.0072,-1.918638 -0.0342,-2.837958 z"
     style="fill:#ef5f52;stroke:#212532;stroke-width:0"
     id="path8"
     sodipodi:nodetypes="cccccsc" /><path
     d="m 18.644699,15.912359 h -2.1269 l -0.395217,14.092287 3.000358,-0.01265 z"
     style="fill:#f2f358;stroke:#5b5728;stroke-width:0;stroke-linecap:round;stroke-linejoin:round"
     id="path9"
     sodipodi:nodetypes="ccccc" /><path
     d="M 12.033851,15.912359 H 9.9069507 l -0.394941,14.092287 h 3.0003573 z"
     style="fill:#f2f358;stroke:#5b5728;stroke-width:0;stroke-linecap:round;stroke-linejoin:round"
     id="path11"
     sodipodi:nodetypes="ccccc" /><path
     style="fill:#ef5f52;fill-opacity:1;stroke:#582727;stroke-width:8.85061;stroke-linecap:round;stroke-linejoin:round;stroke-dasharray:none;stroke-opacity:1"
     d="m 37.376953,9.3164063 c -1.377036,0.491698 -3.033297,1.0053407 -5.228516,1.2597657 -3.830835,3.076311 -6.099994,7.615999 -8.605468,11.75 -2.30734,3.636014 -3.494144,7.991161 -6.482422,11.160156 -4.664944,3.414479 -10.8651437,5.963778 -12.8242189,11.914063 -1.6812618,4.621447 -0.7666892,9.826332 1.9550781,13.857421 2.8811854,3.742073 5.4039168,7.978369 9.3261718,10.740235 6.552237,4.125806 14.379136,3.6476 21.859375,4.052734 7.480239,-0.405134 15.309092,0.07307 21.861328,-4.052734 3.922255,-2.761866 6.443034,-6.998163 9.324219,-10.740235 2.721767,-4.031088 3.63634,-9.235974 1.955078,-13.857421 -1.959075,-5.950285 -8.157322,-8.499584 -12.822266,-11.914063 -2.988278,-3.168995 -4.175081,-7.524142 -6.482421,-11.160156 -2.505474,-4.134001 -4.774634,-8.673689 -8.605469,-11.75 -2.195218,-0.254425 -3.853433,-0.7680677 -5.230469,-1.2597657 z"
     id="path1"
     inkscape:path-effect="#path-effect1"
     inkscape:original-d="M 40.903582,74.331681 C 32.41203,73.377913 23.108591,74.777509 15.517239,69.997394 11.594984,67.235528 9.0726349,62.999833 6.1914495,59.257761 3.4696822,55.226672 2.5555655,50.022348 4.2368273,45.400901 6.1959025,39.450616 12.395127,36.899955 17.060071,33.485476 c 2.988278,-3.168995 4.174993,-7.524091 6.482333,-11.160105 2.505474,-4.134001 4.774237,-8.67358 8.605072,-11.749891 6.642088,-0.7698165 8.363073,-3.908852 12.278895,-1.6524501 4.295126,5.3119621 2.755864,12.5085681 3.778592,18.7676581 0.434048,14.737961 0.629725,29.931465 -4.20873,44.046193 -0.615589,1.222003 -1.643915,2.438142 -3.092651,2.5948 z"
     transform="matrix(0.33392777,0,0,0.38188146,1.8672103,-1.8678314)"
     sodipodi:nodetypes="ccccccccccc" /><path
     style="fill:#f2f358;fill-opacity:1;stroke:#582727;stroke-width:0;stroke-linecap:round;stroke-linejoin:round;stroke-dasharray:none;stroke-opacity:1"
     d="m 18.35251,9.2836694 c 0,0 -1.774692,-1.834952 -2.035412,-1.536002 -0.260721,0.298951 1.198561,1.802047 1.198561,1.802047 l 0.19151,1.9820646 c 0,0 -0.01382,1.04826 -0.01658,1.572426 -0.0059,1.11484 0.07147,2.232215 0,3.344569 -0.07293,1.135174 -0.446762,2.244897 -0.436619,3.382575 0.0074,0.833125 0.363849,2.47042 0.363849,2.47042 l 1.528165,1.672284 1.426586,0.847035 c 0,0 0.321728,-0.05204 0.945176,-0.62835 0.542603,-0.501572 1.5064,-1.636874 1.5064,-1.636874 L 21.930701,21.592993 21.09793,19.606168 c 0,0 -1.225012,-1.857778 -1.478942,-2.929355 -0.183592,-0.774754 0.141672,-1.610111 0,-2.394407 -0.111081,-0.614943 -0.48734,-1.147488 -0.65493,-1.748298 -0.295709,-1.060121 -0.611544,-3.2504386 -0.611544,-3.2504386 z"
     id="path6-7"
     sodipodi:nodetypes="czccaaacccscccaaac" /><ellipse
     style="fill:#efcfcc;fill-opacity:1;stroke:#582727;stroke-width:3.3;stroke-linecap:round;stroke-linejoin:round;stroke-dasharray:none;stroke-opacity:1"
     id="path2-7"
     cx="-23.154358"
     cy="17.593094"
     rx="2.9844484"
     ry="4.4880633"
     transform="scale(-1,1)" /><ellipse
     style="fill:#120f0f;fill-opacity:1;stroke:#582727;stroke-width:0;stroke-linecap:round;stroke-linejoin:round;stroke-dasharray:none;stroke-opacity:1"
     id="path4-0"
     cx="22.748043"
     cy="17.654663"
     rx="1.1083883"
     ry="1.6959974" /><path
     id="path3-2"
     style="fill:#953b33;stroke:#582727;stroke-width:0;stroke-linecap:round;stroke-linejoin:round"
     d="m 20.752066,17.38406 c -0.0369,3.200345 1.766937,4.104935 2.243602,4.104935 0.476664,0 -0.383428,-1.682131 -0.383428,-3.932489 0,-2.250358 0.555937,-3.700627 0.07927,-3.700627 -0.476665,0 -1.908462,0.840789 -1.939446,3.528181 z"
     sodipodi:nodetypes="sssss" /><ellipse
     style="fill:#120f0f;fill-opacity:1;stroke:#582727;stroke-width:0;stroke-linecap:round;stroke-linejoin:round;stroke-dasharray:none;stroke-opacity:1"
     id="path5"
     cx="13.707894"
     cy="0.71052301"
     rx="0.63238716"
     ry="1.2727261"
     transform="matrix(0.96044374,0.27847411,-0.25681719,0.96646,0,0)" /><ellipse
     style="fill:#120f0f;fill-opacity:1;stroke:#582727;stroke-width:0;stroke-linecap:round;stroke-linejoin:round;stroke-dasharray:none;stroke-opacity:1"
     id="path5-6"
     cx="-13.905917"
     cy="8.6671171"
     rx="0.63238716"
     ry="1.2727261"
     transform="matrix(-0.96044374,0.27847411,0.25681719,0.96646,0,0)"
     inkscape:transform-center-x="0.10291145"
     inkscape:transform-center-y="-0.080625237" /><path
     style="fill:#f2f358;fill-opacity:1;stroke:#582727;stroke-width:0;stroke-linecap:round;stroke-linejoin:round;stroke-dasharray:none;stroke-opacity:1"
     d="m 10.567512,7.7661444 c 0,0 1.879453,-1.544702 2.086868,-1.24038 0.207416,0.304322 -1.250018,1.506426 -1.250018,1.506426 l 0.400235,2.5464316 c 0,0 -0.755353,1.576991 -0.909623,2.432414 -0.197582,1.095586 0.131921,2.238262 0,3.344569 -0.112477,0.943242 -0.608465,1.816082 -0.669685,2.764459 -0.04524,0.700962 0.316674,1.397768 0.227895,2.094175 -0.120855,0.948014 -1.0136053,2.666645 -1.0136053,2.666645 l -1.426586,0.847035 c 0,0 -0.321728,-0.05204 -0.945176,-0.628351 C 6.525214,23.597997 5.5614162,22.462695 5.5614162,22.462695 l 1.0934455,-0.962871 0.832771,-1.986825 c 0,0 1.225012,-1.857778 1.478942,-2.929355 0.183592,-0.774754 -0.200319,-1.624189 0,-2.394407 0.268631,-1.032872 1.5554083,-2.769534 1.5554083,-2.769534 z"
     id="path6"
     sodipodi:nodetypes="czccaaaaccscccaacc" /><ellipse
     style="fill:#efcfcc;fill-opacity:1;stroke:#582727;stroke-width:3.3;stroke-linecap:round;stroke-linejoin:round;stroke-dasharray:none;stroke-opacity:1"
     id="path2"
     cx="4.6344485"
     cy="18.196608"
     rx="2.9844484"
     ry="4.4880633" /><ellipse
     style="fill:#120f0f;fill-opacity:1;stroke:#582727;stroke-width:0;stroke-linecap:round;stroke-linejoin:round;stroke-dasharray:none;stroke-opacity:1"
     id="path4"
     cx="5.0918965"
     cy="18.275948"
     rx="1.1083883"
     ry="1.6959974" /><path
     id="path3"
     style="fill:#953b33;stroke:#582727;stroke-width:0;stroke-linecap:round;stroke-linejoin:round"
     d="m 7.0367397,17.987572 c 0.0369,3.200344 -1.7669373,4.104935 -2.2436021,4.104935 -0.4766648,0 0.3834276,-1.682131 0.3834276,-3.932489 0,-2.250359 -0.5559373,-3.700627 -0.079272,-3.700627 0.4766647,0 1.9084615,0.840788 1.9394465,3.528181 z"
     sodipodi:nodetypes="sssss" /></svg>
