<?xml version="1.0" encoding="UTF-8" standalone="no"?>
<!-- Created with Inkscape (http://www.inkscape.org/) -->

<svg
   width="30.000006"
   height="30.106949"
   viewBox="0 0 15.155131 15.209155"
   version="1.1"
   id="svg1"
   inkscape:export-filename="Rastergrafik.png"
   inkscape:export-xdpi="96"
   inkscape:export-ydpi="96"
   inkscape:version="1.4.2 (f4327f4, 2025-05-13)"
   sodipodi:docname="char1.svg"
   xmlns:inkscape="http://www.inkscape.org/namespaces/inkscape"
   xmlns:sodipodi="http://sodipodi.sourceforge.net/DTD/sodipodi-0.dtd"
   xmlns="http://www.w3.org/2000/svg"
   xmlns:svg="http://www.w3.org/2000/svg">
  <sodipodi:namedview
     id="namedview1"
     pagecolor="#ffffff"
     bordercolor="#000000"
     borderopacity="0.25"
     inkscape:showpageshadow="2"
     inkscape:pageopacity="0.0"
     inkscape:pagecheckerboard="0"
     inkscape:deskcolor="#d1d1d1"
     inkscape:document-units="mm"
     inkscape:zoom="6.4675925"
     inkscape:cx="-3.865426"
     inkscape:cy="63.934145"
     inkscape:window-width="3840"
     inkscape:window-height="2054"
     inkscape:window-x="-11"
     inkscape:window-y="-11"
     inkscape:window-maximized="1"
     inkscape:current-layer="layer1" />
  <defs
     id="defs1">
    <marker
       markerWidth="318.07428"
       markerHeight="293.58423"
       refX="159.03716"
       refY="146.79211"
       orient="auto"
       id="marker1">
      <path
         id="path1"
         style="fill:#000000;fill-opacity:0.184314;stroke:#000000;stroke-width:1.88976"
         d="M 317.12941,146.79211 A 158.09227,145.84723 0 0 1 159.03714,292.63935 158.09227,145.84723 0 0 1 0.94487997,146.79211 158.09227,145.84723 0 0 1 159.03714,0.94487997 158.09227,145.84723 0 0 1 317.12941,146.79211 Z" />
    </marker>
  </defs>
  <g
     inkscape:label="Ebene 1"
     inkscape:groupmode="layer"
     id="layer1"
     transform="translate(-73.689536,-59.728285)">
    <path
       d="M 86.262229,61.116703 H 76.102634 c -0.306043,1.159409 -1.645977,9.081926 0,13.820737 h 10.159595 c 1.266415,-1.843016 -0.126438,-12.194801 0,-13.820737 z"
       style="fill:#363d52;stroke:#212532;stroke-width:0"
       id="path17" />
    <g
       fill="#ffffff"
       transform="matrix(0.01597609,0,0,-0.01697228,73.087344,76.050015)"
       id="g4"
       style="stroke:#1f4d6b;stroke-width:19.3397;stroke-dasharray:none;stroke-opacity:1">
      <path
         d="m 105,673 v 33 q 407,354 814,0 v -33 z"
         id="path1-8"
         style="stroke:#1f4d6b;stroke-width:19.3397;stroke-dasharray:none;stroke-opacity:1" />
      <path
         fill="#478cbf"
         d="m 105,673 152,14 c 8,0.66667 13,5.33333 15,14 l 4,67 132,10 8,-61 c 1.33333,-7.33333 6.33333,-12.33333 15,-15 h 162 c 8.66667,2.66667 13.66667,7.66667 15,15 l 8,61 132,-10 4,-67 c 2,-8.66667 7,-13.33333 15,-14 L 919,673 V 427 c 20,-26 38.66667,-53 56,-81 -23.33333,-39.33333 -51,-75.33333 -83,-108 -28.66667,13.33333 -56,29 -82,47 -26.66667,-24.66667 -56,-46 -88,-64 4.66667,-34 7.33333,-68 8,-102 -39.33333,-18.66667 -80.33333,-32.666667 -123,-42 -17.33333,28.66667 -32.66667,58.33333 -46,89 -32.66667,-4.66667 -65.33333,-4.66667 -98,0 -13.33333,-30.66667 -28.66667,-60.33333 -46,-89 -42.66667,9.333333 -83.66667,23.33333 -123,42 0.66667,34 3.33333,68 8,102 -32,18 -61.33333,39.33333 -88,64 -26,-18 -53.33333,-33.66667 -82,-47 -32,32.66667 -59.666667,68.66667 -83,108 17.333333,28 36,55 56,81 z m 0,33 v 39 c 0,276 813,276 814,0 v -39 l -134,12 -5,69 c -1.33333,6.66667 -6,11 -14,13 l -162,11 c -8,0 -13.33333,-3.66667 -16,-11 L 578,735 H 446 l -10,65 c -2.66667,7.33333 -8,11 -16,11 L 258,800 c -8,-2 -12.66667,-6.33333 -14,-13 l -5,-69 z"
         id="path2-8"
         sodipodi:nodetypes="ccccccccccccccccccccccccccccccccsccccccccccccccc"
         style="stroke:#1f4d6b;stroke-width:19.3397;stroke-dasharray:none;stroke-opacity:1" />
      <path
         d="m 483,600 c 0,34 58,34 58,0 v -86 c 0,-34 -58,-34 -58,0 z"
         id="path3"
         style="stroke:#1f4d6b;stroke-width:19.3397;stroke-dasharray:none;stroke-opacity:1" />
      <circle
         cx="725"
         cy="526"
         r="90"
         id="circle3"
         style="stroke:#1f4d6b;stroke-width:19.3397;stroke-dasharray:none;stroke-opacity:1" />
      <circle
         cx="299"
         cy="526"
         r="90"
         id="circle4"
         style="stroke:#1f4d6b;stroke-width:19.3397;stroke-dasharray:none;stroke-opacity:1" />
    </g>
    <g
       fill="#414042"
       transform="matrix(0.01649017,0,0,-0.01726756,72.862803,76.267047)"
       id="g6"
       style="stroke-width:1.40362">
      <ellipse
         id="circle5"
         cy="532"
         cx="307"
         rx="14.362846"
         ry="60"
         style="stroke-width:1.40362" />
      <ellipse
         cx="717"
         cy="532"
         id="circle6"
         rx="11.230885"
         ry="60"
         style="stroke-width:1.40362" />
    </g>
    <path
       id="rect1"
       style="fill:#ff798f;stroke:#212532;stroke-width:0;stroke-opacity:0.786775"
       d="m 80.866004,63.451496 h 0.925628 c 0,0 -0.834889,-0.271478 -0.02554,-1.316797 0.865518,-1.117867 0.527339,-2.003581 0.527339,-2.003581 l -0.41561,0.786847 -0.510021,-0.786847 c 0,0 0.239937,1.069572 -0.286976,1.898907 -0.871474,1.371655 -0.214823,1.421471 -0.214822,1.421471 z"
       sodipodi:nodetypes="ccscccsc" />
  </g>
</svg>
