<?xml version="1.0" encoding="UTF-8" standalone="no"?>
<!-- Created with Inkscape (http://www.inkscape.org/) -->

<svg
   width="29.999998"
   height="30.015013"
   viewBox="0 0 7.9374994 7.941472"
   version="1.1"
   id="svg1"
   inkscape:version="1.4.2 (f4327f4, 2025-05-13)"
   sodipodi:docname="EdgeWrapIcon.svg"
   xmlns:inkscape="http://www.inkscape.org/namespaces/inkscape"
   xmlns:sodipodi="http://sodipodi.sourceforge.net/DTD/sodipodi-0.dtd"
   xmlns="http://www.w3.org/2000/svg"
   xmlns:svg="http://www.w3.org/2000/svg">
  <sodipodi:namedview
     id="namedview1"
     pagecolor="#ffffff"
     bordercolor="#000000"
     borderopacity="0.25"
     inkscape:showpageshadow="2"
     inkscape:pageopacity="0.0"
     inkscape:pagecheckerboard="0"
     inkscape:deskcolor="#d1d1d1"
     inkscape:document-units="mm"
     inkscape:zoom="9.086084"
     inkscape:cx="11.996367"
     inkscape:cy="14.802857"
     inkscape:window-width="3840"
     inkscape:window-height="2054"
     inkscape:window-x="-11"
     inkscape:window-y="-11"
     inkscape:window-maximized="1"
     inkscape:current-layer="layer1" />
  <defs
     id="defs1">
    <inkscape:path-effect
       effect="spiro"
       id="path-effect10"
       is_visible="true"
       lpeversion="1" />
    <inkscape:path-effect
       effect="spiro"
       id="path-effect11"
       is_visible="true"
       lpeversion="1" />
  </defs>
  <g
     inkscape:label="Ebene 1"
     inkscape:groupmode="layer"
     id="layer1"
     transform="translate(-3.3762173,-3.485352)">
    <path
       d="M 9.6344799,9.7026217 C 9.2929405,10.03585 9.1865932,10.803056 9.1865932,11.061601 l 0.584424,-0.08956 c 0,0 0.081325,-0.509326 0.2488958,-0.685614 0.244603,-0.257327 0.981713,-0.4142062 0.981713,-0.4142062 V 9.2884152 c 0,0 -1.0264655,0.081816 -1.3671461,0.4142065 z"
       style="fill:#a119df;fill-opacity:1;stroke:#212532;stroke-width:0.624182;stroke-opacity:0.995995"
       id="path13"
       sodipodi:nodetypes="accacca" />
    <path
       d="m 9.1116251,3.8426666 c -0.016312,0.5020581 -0.4488062,2.4529512 0.3464241,3.14837 0.3862393,0.3377613 1.5395668,-0.035678 1.5395668,-0.035678 V 6.3715508 c 0,0 -0.880874,0.3891937 -1.1834458,0.1325184 C 9.1567396,5.9463632 9.6820036,3.922668 9.6820036,3.922668 Z"
       style="fill:#a119df;fill-opacity:1;stroke:#212532;stroke-width:0.624182;stroke-opacity:0.995995"
       id="path12"
       sodipodi:nodetypes="caccacc" />
    <path
       d="m 3.6883485,9.1231479 v 0.5838075 c 0,0 1.2735746,-0.5732624 1.781945,-0.2548428 0.4887956,0.306159 0.5255303,1.6473494 0.5255303,1.6473494 l 0.5844237,0.0094 C 6.524656,10.732922 6.4156544,9.3406972 5.7562427,8.929467 5.1689682,8.5632238 3.6883485,9.1231479 3.6883485,9.1231479 Z"
       style="fill:#a119df;fill-opacity:1;stroke:#212532;stroke-width:0.624182;stroke-opacity:0.995995"
       id="path14"
       sodipodi:nodetypes="ccaccac" />
    <path
       d="m 5.9958238,3.8125811 c 0,0 0.8387554,2.4879752 0.1062274,3.3180861 C 5.5676576,7.7362497 3.6883083,7.3575261 3.6883083,7.3575261 V 7.9413339 C 5.2207153,8.2474715 6.0828585,8.0777475 6.712605,7.2591613 7.4156772,6.3452613 6.5802475,3.8038966 6.5802475,3.8038966 Z"
       style="fill:#a119df;fill-opacity:1;stroke:#212532;stroke-width:0.624182;stroke-opacity:0.995995"
       id="path5"
       sodipodi:nodetypes="caccacc" />
    <path
       d="M 3.7184404,6.2840563 V 6.8678641 C 4.7971215,6.6240428 5.2874737,6.5732525 5.7698548,6.3761675 6.0733308,6.2521771 5.9298881,5.6587397 5.517307,5.7597955 4.9106568,5.9083855 3.7184404,6.2840563 3.7184404,6.2840563 Z"
       style="fill:#a119df;fill-opacity:1;stroke:#212532;stroke-width:0.624182;stroke-opacity:0.995995"
       id="path6"
       sodipodi:nodetypes="ccssc" />
    <path
       d="M 7.6768745,6.5025364 C 7.4120245,6.4923238 7.1980407,6.5463259 7.1110179,6.6969685 6.878956,7.0986819 7.6374655,8.0355838 8.2324868,8.3936439 8.681752,8.6639938 8.9093807,8.5270848 9.0940126,8.2709726 9.3516955,8.3647846 9.6465681,8.4614556 9.8561709,8.498407 10.232283,8.564713 11.001585,8.525525 11.001585,8.525525 V 7.9429964 c 0,0 -0.672489,0.045224 -1.0017413,-0.010617 C 9.8314795,7.9038249 9.6081988,7.8358512 9.3935232,7.7614844 9.5357216,7.4696106 9.5481538,7.2242614 9.0730121,6.9386019 8.7010358,6.7149665 8.1182909,6.5195606 7.6768745,6.5025365 Z"
       style="fill:#a119df;fill-opacity:1;stroke:#212532;stroke-width:0.624182;stroke-opacity:0.995995"
       id="path18" />
    <path
       style="fill:#d696f4;fill-opacity:1;stroke:#000000;stroke-width:0.478426;stroke-dasharray:none;stroke-opacity:1"
       id="path21-9"
       sodipodi:type="arc"
       sodipodi:cx="8.7355223"
       sodipodi:cy="7.1040902"
       sodipodi:rx="0.29933062"
       sodipodi:ry="0.2990151"
       sodipodi:start="6.2613533"
       sodipodi:end="6.2601406"
       sodipodi:open="true"
       sodipodi:arc-type="arc"
       d="M 9.0347816,7.0975626 A 0.29933062,0.2990151 0 0 1 8.7421475,7.4030321 0.29933062,0.2990151 0 0 1 8.436267,7.1107991 0.29933062,0.2990151 0 0 1 8.7287156,6.8051524 0.29933062,0.2990151 0 0 1 9.0347734,7.0972001" />
    <path
       sodipodi:type="spiral"
       style="fill:none;fill-rule:evenodd;stroke:#000000;stroke-width:1.03703;stroke-dasharray:none"
       id="path22-1"
       sodipodi:cx="19.661737"
       sodipodi:cy="17.758387"
       sodipodi:expansion="1"
       sodipodi:revolution="2.7902846"
       sodipodi:radius="1.1345215"
       sodipodi:argument="-16.59215"
       sodipodi:t0="0.21885763"
       d="m 19.905624,17.711787 c 0.07361,0.154843 -0.0277,0.331665 -0.17821,0.390329 -0.210189,0.08192 -0.4389,-0.05434 -0.509249,-0.258976 -0.09112,-0.265044 0.0809,-0.546612 0.339742,-0.628169 0.319704,-0.100732 0.654577,0.107395 0.747089,0.420508 0.110582,0.374268 -0.133861,0.762693 -0.501274,0.86601 -0.428778,0.120573 -0.870905,-0.160307 -0.98493,-0.582041 -0.130658,-0.483256 0.186737,-0.979185 0.662807,-1.10385 0.537713,-0.140807 1.087512,0.213156 1.22277,0.743573 0.104228,0.408732 -0.04899,0.848661 -0.373253,1.115224"
       transform="matrix(0.25303002,0,0,0.2527633,3.7573592,2.6392762)" />
    <path
       d="M 9.0244674,8.2791435 A 1.7431249,0.84415947 37.450229 0 0 8.2270071,7.47163 1.7431249,0.84415947 37.450229 0 0 7.1283584,6.9728093 c 0.093967,0.4570303 0.673677,1.1118176 1.1381353,1.3875682 0.3918575,0.2326472 0.6002161,0.1351909 0.7579737,-0.081234 z"
       style="fill:#540f75;fill-opacity:1;stroke:#000000;stroke-width:0.249777;stroke-opacity:0"
       id="path24" />
    <path
       style="fill:#d696f4;fill-opacity:1;stroke:#000000;stroke-width:0.478426;stroke-dasharray:none;stroke-opacity:1"
       id="path21-9-3"
       sodipodi:type="arc"
       sodipodi:cx="8.3071251"
       sodipodi:cy="7.747623"
       sodipodi:rx="0.29933062"
       sodipodi:ry="0.2990151"
       sodipodi:start="6.2613533"
       sodipodi:end="6.2601406"
       sodipodi:open="true"
       sodipodi:arc-type="arc"
       d="M 8.6063844,7.7410954 A 0.29933062,0.2990151 0 0 1 8.3137503,8.0465648 0.29933062,0.2990151 0 0 1 8.0078698,7.7543318 0.29933062,0.2990151 0 0 1 8.3003184,7.4486852 0.29933062,0.2990151 0 0 1 8.6063762,7.7407329" />
    <path
       sodipodi:type="spiral"
       style="fill:#d696f4;fill-opacity:1;fill-rule:evenodd;stroke:#000000;stroke-width:1.03703;stroke-dasharray:none"
       id="path22-1-9"
       sodipodi:cx="19.661737"
       sodipodi:cy="17.758387"
       sodipodi:expansion="1"
       sodipodi:revolution="2.7902846"
       sodipodi:radius="1.1345215"
       sodipodi:argument="-16.59215"
       sodipodi:t0="0.21885763"
       d="m 19.905624,17.711787 c 0.07361,0.154843 -0.0277,0.331665 -0.17821,0.390329 -0.210189,0.08192 -0.4389,-0.05434 -0.509249,-0.258976 -0.09112,-0.265044 0.0809,-0.546612 0.339742,-0.628169 0.319704,-0.100732 0.654577,0.107395 0.747089,0.420508 0.110582,0.374268 -0.133861,0.762693 -0.501274,0.86601 -0.428778,0.120573 -0.870905,-0.160307 -0.98493,-0.582041 -0.130658,-0.483256 0.186737,-0.979185 0.662807,-1.10385 0.537713,-0.140807 1.087512,0.213156 1.22277,0.743573 0.104228,0.408732 -0.04899,0.848661 -0.373253,1.115224"
       transform="matrix(0.25303002,0,0,0.2527633,3.3289615,3.2828088)" />
  </g>
</svg>
