<?xml version="1.0" encoding="UTF-8" standalone="no"?>
<!-- Created with Inkscape (http://www.inkscape.org/) -->

<svg
   width="130"
   height="130"
   viewBox="0 0 34.395833 34.395833"
   version="1.1"
   id="svg1"
   inkscape:version="1.4.2 (f4327f4, 2025-05-13)"
   sodipodi:docname="SymbolBodymod.svg"
   xmlns:inkscape="http://www.inkscape.org/namespaces/inkscape"
   xmlns:sodipodi="http://sodipodi.sourceforge.net/DTD/sodipodi-0.dtd"
   xmlns:xlink="http://www.w3.org/1999/xlink"
   xmlns="http://www.w3.org/2000/svg"
   xmlns:svg="http://www.w3.org/2000/svg">
  <sodipodi:namedview
     id="namedview1"
     pagecolor="#ffffff"
     bordercolor="#000000"
     borderopacity="0.25"
     inkscape:showpageshadow="2"
     inkscape:pageopacity="0.0"
     inkscape:pagecheckerboard="0"
     inkscape:deskcolor="#d1d1d1"
     inkscape:document-units="mm"
     inkscape:zoom="9.086084"
     inkscape:cx="57.780668"
     inkscape:cy="51.892543"
     inkscape:window-width="3840"
     inkscape:window-height="2054"
     inkscape:window-x="-11"
     inkscape:window-y="-11"
     inkscape:window-maximized="1"
     inkscape:current-layer="layer1" />
  <defs
     id="defs1">
    <inkscape:path-effect
       effect="fillet_chamfer"
       id="path-effect28"
       is_visible="true"
       lpeversion="1"
       nodesatellites_param="F,0,0,1,0,0,0,1 @ F,0,0,1,0,0,0,1 @ F,0,0,1,0,0,0,1 @ F,0,0,1,0,0,0,1 @ F,0,0,1,0,0,0,1 @ F,0,0,1,0,0,0,1 @ F,0,0,1,0,0,0,1 @ F,0,0,1,0,0,0,1 @ F,0,0,1,0,0,0,1 @ F,0,0,1,0,0,0,1 @ F,0,0,1,0,0,0,1 @ F,0,0,1,0,0,0,1 | F,0,0,1,0,0,0,1 @ F,0,0,1,0,0,0,1 @ F,0,0,1,0,0,0,1 @ F,0,0,1,0,0,0,1 @ F,0,0,1,0,0,0,1 @ F,0,0,1,0,0,0,1 @ F,0,0,1,0,0,0,1 @ F,0,0,1,0,0,0,1 @ F,0,0,1,0,0,0,1 @ F,0,0,1,0,0,0,1 @ F,0,0,1,0,0,0,1"
       radius="0"
       unit="px"
       method="auto"
       mode="F"
       chamfer_steps="1"
       flexible="false"
       use_knot_distance="true"
       apply_no_radius="true"
       apply_with_radius="true"
       only_selected="false"
       hide_knots="false" />
    <linearGradient
       id="linearGradient13"
       inkscape:collect="always">
      <stop
         style="stop-color:#94f0b4;stop-opacity:1;"
         offset="0"
         id="stop13" />
      <stop
         style="stop-color:#51a351;stop-opacity:1;"
         offset="1"
         id="stop14" />
    </linearGradient>
    <inkscape:path-effect
       effect="powerstroke"
       message=""
       id="path-effect4"
       is_visible="true"
       lpeversion="1.3"
       scale_width="1"
       interpolator_type="CentripetalCatmullRom"
       interpolator_beta="0.75"
       start_linecap_type="round"
       end_linecap_type="round"
       offset_points="10.839744,0.43679433"
       linejoin_type="spiro"
       miter_limit="4"
       not_jump="true"
       sort_points="true" />
    <inkscape:path-effect
       effect="simplify"
       id="path-effect3"
       is_visible="true"
       lpeversion="1.3"
       threshold="0.012"
       steps="1"
       smooth_angles="0"
       helper_size="0"
       simplify_individual_paths="false"
       simplify_just_coalesce="false"
       step="1" />
    <linearGradient
       inkscape:collect="always"
       xlink:href="#linearGradient13"
       id="linearGradient14"
       x1="6.1236198"
       y1="16.681654"
       x2="26.722703"
       y2="16.681654"
       gradientUnits="userSpaceOnUse"
       gradientTransform="matrix(1.5664582,0,0,1.7228092,-8.5273624,-11.60398)" />
    <linearGradient
       inkscape:collect="always"
       xlink:href="#linearGradient13"
       id="linearGradient15"
       gradientUnits="userSpaceOnUse"
       x1="6.1236198"
       y1="16.681654"
       x2="26.722703"
       y2="16.681654"
       gradientTransform="matrix(1.5664582,0,0,-1.7228092,-8.5273645,44.077013)" />
  </defs>
  <g
     inkscape:label="Ebene 1"
     inkscape:groupmode="layer"
     id="layer1">
    <path
       d="m 24.091442,12.063698 c 4.717095,0.160016 8.409786,5.280288 8.409786,5.280288 l -1.705592,-0.01344 c 0,0 -3.274242,-3.023152 -6.63215,-3.10888 -2.909563,-0.07428 -5.254016,2.211089 -5.886073,2.856152 l -0.361359,0.414773 C 9.3176869,28.278618 1.8620484,17.204129 1.8620484,17.204129 l 1.7055952,0.01344 c 0,0 3.273433,3.023153 6.6313404,3.10888 3.096252,0.07904 5.3959,-2.203675 5.798153,-2.630396 l 0.700981,-0.778487 c 2.649918,-4.08709 4.922465,-4.937684 7.393324,-4.853865 z"
       style="fill:url(#linearGradient14);fill-opacity:1;stroke:#212532;stroke-width:0.837814;stroke-opacity:0.995995"
       id="path9-3"
       sodipodi:nodetypes="scccccccsccs" />
    <path
       d="m 24.091442,20.409336 c 4.717095,-0.160015 8.409786,-5.280288 8.409786,-5.280288 l -1.705592,0.01344 c 0,0 -3.274242,3.023153 -6.63215,3.10888 -2.909563,0.07427 -5.254016,-2.211088 -5.886073,-2.856151 L 17.916054,14.980442 C 9.3176869,4.1944162 1.8620484,15.268906 1.8620484,15.268906 l 1.7055952,-0.01344 c 0,0 3.273433,-3.023153 6.6313404,-3.10888 3.096252,-0.07904 5.3959,2.203675 5.798153,2.630396 l 0.700981,0.778487 c 2.649918,4.08709 4.922465,4.937683 7.393324,4.853864 z"
       style="fill:url(#linearGradient15);fill-opacity:1;stroke:#212532;stroke-width:0.837814;stroke-opacity:0.995995"
       id="path9-3-3"
       sodipodi:nodetypes="scccccccsccs" />
    <path
       d="m 24.091834,12.063394 c -2.039172,-0.06917 -3.83084,0.339294 -5.923473,2.83707 0.501914,0.251496 0.822552,0.777125 1.151531,1.227086 1.092387,-0.882204 2.833694,-1.957418 4.843988,-1.906104 3.357907,0.08573 6.632149,3.10888 6.632149,3.10888 l 1.705596,0.01344 c 0,0 -3.692697,-5.120274 -8.409791,-5.280288 z"
       style="fill:#63b166;fill-opacity:1;stroke:#212532;stroke-width:0.837814;stroke-opacity:0.995995"
       id="path18"
       sodipodi:nodetypes="cccccccc" />
    <path
       id="rect18"
       style="fill:#3e6f40;fill-opacity:1;stroke:#212532;stroke-width:0.50926;stroke-opacity:0.995995"
       d="M 6.7535512,13.128624 8.2588335,12.551696 8.3500628,20.001578 6.7535512,19.3494 Z"
       sodipodi:nodetypes="ccccc" />
    <path
       id="rect18-0"
       style="fill:#63b166;stroke:#212532;stroke-width:0.50926;stroke-opacity:0.995995"
       d="m 10.222734,12.19581 1.505284,0.175584 v 7.738345 l -1.505284,0.150506 z"
       sodipodi:nodetypes="ccccc" />
    <path
       id="rect18-2"
       style="fill:#3e6f40;fill-opacity:1;stroke:#212532;stroke-width:0.537782;stroke-opacity:0.995995"
       d="m 13.596343,12.953818 1.589587,1.059546 v 4.463337 l -1.589587,1.046302 z"
       sodipodi:nodetypes="ccccc" />
    <path
       id="rect18-5"
       style="fill:#3e6f40;fill-opacity:1;stroke:#212532;stroke-width:0.50926;stroke-opacity:0.995995"
       d="m 21.953329,14.606605 1.505282,-0.288464 v 4.038488 L 21.953329,17.95529 Z"
       sodipodi:nodetypes="ccccc" />
    <path
       id="rect18-20"
       style="fill:#63b166;stroke:#212532;stroke-width:0.50926;stroke-opacity:0.995995"
       d="m 25.78022,14.485165 1.505284,0.539302 v 2.408041 l -1.505284,0.551844 z"
       sodipodi:nodetypes="ccccc" />
  </g>
</svg>
