<?xml version="1.0" encoding="UTF-8" standalone="no"?>
<!-- Created with Inkscape (http://www.inkscape.org/) -->

<svg
   width="130"
   height="130"
   viewBox="0 0 34.395833 34.395833"
   version="1.1"
   id="svg1"
   inkscape:version="1.4.2 (f4327f4, 2025-05-13)"
   sodipodi:docname="SymbolSynergy.svg"
   xmlns:inkscape="http://www.inkscape.org/namespaces/inkscape"
   xmlns:sodipodi="http://sodipodi.sourceforge.net/DTD/sodipodi-0.dtd"
   xmlns="http://www.w3.org/2000/svg"
   xmlns:svg="http://www.w3.org/2000/svg">
  <sodipodi:namedview
     id="namedview1"
     pagecolor="#ffffff"
     bordercolor="#000000"
     borderopacity="0.25"
     inkscape:showpageshadow="2"
     inkscape:pageopacity="0.0"
     inkscape:pagecheckerboard="0"
     inkscape:deskcolor="#d1d1d1"
     inkscape:document-units="mm"
     inkscape:zoom="8"
     inkscape:cx="86.25"
     inkscape:cy="69.5625"
     inkscape:window-width="3840"
     inkscape:window-height="2054"
     inkscape:window-x="-11"
     inkscape:window-y="-11"
     inkscape:window-maximized="1"
     inkscape:current-layer="layer1" />
  <defs
     id="defs1" />
  <g
     inkscape:label="Ebene 1"
     inkscape:groupmode="layer"
     id="layer1">
    <path
       d="M 4.5361158,10.149897 V 22.039461 H 14.906664 v -3.303295 a 3.9973606,2.8963483 0 0 1 -0.709067,0.04615 3.9973606,2.8963483 0 0 1 -3.99672,-2.896155 3.9973606,2.8963483 0 0 1 3.99672,-2.896156 3.9973606,2.8963483 0 0 1 0.709067,0.04616 v -2.886261 z"
       style="fill:#4d4daa;fill-opacity:1;stroke:#332d21;stroke-width:0;stroke-dasharray:none"
       id="path3" />
    <path
       d="m 19.480718,10.143344 0.03069,2.823918 c -0.837301,0.07647 -3.560672,0.688121 -3.560501,2.91231 6.5e-5,1.468528 1.51696,2.704612 3.52982,2.876375 0,0 0.01237,2.81193 -0.0094,1.01891 l 0.0094,2.257746 H 29.85129 V 10.143118 Z"
       style="fill:#437db4;fill-opacity:1;stroke:#332d21;stroke-width:0;stroke-dasharray:none"
       id="path4"
       sodipodi:nodetypes="ccccccccc" />
  </g>
</svg>
