<?xml version="1.0" encoding="UTF-8" standalone="no"?>
<!-- Created with Inkscape (http://www.inkscape.org/) -->

<svg
   width="130"
   height="130"
   viewBox="0 0 34.395833 34.395833"
   version="1.1"
   id="svg1"
   inkscape:version="1.4.2 (f4327f4, 2025-05-13)"
   sodipodi:docname="SymbolBodymod.svg"
   xmlns:inkscape="http://www.inkscape.org/namespaces/inkscape"
   xmlns:sodipodi="http://sodipodi.sourceforge.net/DTD/sodipodi-0.dtd"
   xmlns="http://www.w3.org/2000/svg"
   xmlns:svg="http://www.w3.org/2000/svg">
  <sodipodi:namedview
     id="namedview1"
     pagecolor="#ffffff"
     bordercolor="#000000"
     borderopacity="0.25"
     inkscape:showpageshadow="2"
     inkscape:pageopacity="0.0"
     inkscape:pagecheckerboard="0"
     inkscape:deskcolor="#d1d1d1"
     inkscape:document-units="mm"
     inkscape:zoom="9.086084"
     inkscape:cx="57.780668"
     inkscape:cy="51.892542"
     inkscape:window-width="3840"
     inkscape:window-height="2054"
     inkscape:window-x="-11"
     inkscape:window-y="-11"
     inkscape:window-maximized="1"
     inkscape:current-layer="layer1" />
  <defs
     id="defs1">
    <inkscape:path-effect
       effect="fillet_chamfer"
       id="path-effect28"
       is_visible="true"
       lpeversion="1"
       nodesatellites_param="F,0,0,1,0,0,0,1 @ F,0,0,1,0,0,0,1 @ F,0,0,1,0,0,0,1 @ F,0,0,1,0,0,0,1 @ F,0,0,1,0,0,0,1 @ F,0,0,1,0,0,0,1 @ F,0,0,1,0,0,0,1 @ F,0,0,1,0,0,0,1 @ F,0,0,1,0,0,0,1 @ F,0,0,1,0,0,0,1 @ F,0,0,1,0,0,0,1 @ F,0,0,1,0,0,0,1 | F,0,0,1,0,0,0,1 @ F,0,0,1,0,0,0,1 @ F,0,0,1,0,0,0,1 @ F,0,0,1,0,0,0,1 @ F,0,0,1,0,0,0,1 @ F,0,0,1,0,0,0,1 @ F,0,0,1,0,0,0,1 @ F,0,0,1,0,0,0,1 @ F,0,0,1,0,0,0,1 @ F,0,0,1,0,0,0,1 @ F,0,0,1,0,0,0,1"
       radius="0"
       unit="px"
       method="auto"
       mode="F"
       chamfer_steps="1"
       flexible="false"
       use_knot_distance="true"
       apply_no_radius="true"
       apply_with_radius="true"
       only_selected="false"
       hide_knots="false" />
    <inkscape:path-effect
       effect="powerstroke"
       message=""
       id="path-effect4"
       is_visible="true"
       lpeversion="1.3"
       scale_width="1"
       interpolator_type="CentripetalCatmullRom"
       interpolator_beta="0.75"
       start_linecap_type="round"
       end_linecap_type="round"
       offset_points="10.839744,0.43679433"
       linejoin_type="spiro"
       miter_limit="4"
       not_jump="true"
       sort_points="true" />
    <inkscape:path-effect
       effect="simplify"
       id="path-effect3"
       is_visible="true"
       lpeversion="1.3"
       threshold="0.012"
       steps="1"
       smooth_angles="0"
       helper_size="0"
       simplify_individual_paths="false"
       simplify_just_coalesce="false"
       step="1" />
  </defs>
  <g
     inkscape:label="Ebene 1"
     inkscape:groupmode="layer"
     id="layer1">
    <path
       id="rect18"
       style="fill:#38653a;fill-opacity:1;stroke:#212532;stroke-width:0;stroke-dasharray:none;stroke-opacity:0.995995"
       d="m 9.1383659,12.67984 1.1610431,-0.660466 0.07037,8.528603 -1.2314101,-0.746612 z"
       sodipodi:nodetypes="ccccc" />
    <path
       id="rect18-0"
       style="fill:#1d381e;stroke:#212532;stroke-width:0;stroke-dasharray:none;stroke-opacity:0.995995;fill-opacity:1"
       d="m 11.814191,11.611957 1.161045,0.201008 V 20.6718 l -1.161045,0.172299 z"
       sodipodi:nodetypes="ccccc" />
    <path
       id="rect18-2"
       style="fill:#38653a;fill-opacity:1;stroke:#212532;stroke-width:0;stroke-dasharray:none;stroke-opacity:0.995995"
       d="m 14.416299,12.479722 1.226069,1.212965 v 5.109615 l -1.226069,1.197804 z"
       sodipodi:nodetypes="ccccc" />
    <path
       id="rect18-5"
       style="fill:#38653a;fill-opacity:1;stroke:#212532;stroke-width:0;stroke-dasharray:none;stroke-opacity:0.995995"
       d="m 20.86215,14.371828 1.161043,-0.330233 v 4.623249 L 20.86215,18.205393 Z"
       sodipodi:nodetypes="ccccc" />
    <path
       id="rect18-20"
       style="fill:#1d381e;stroke:#212532;stroke-width:0;stroke-dasharray:none;stroke-opacity:0.995995;fill-opacity:1"
       d="m 23.81388,14.232804 1.161045,0.617391 v 2.756718 l -1.161045,0.631749 z"
       sodipodi:nodetypes="ccccc" />
    <path
       d="m 22.511304,13.016027 c 3.638356,0.123422 6.486576,4.072754 6.486576,4.072754 l -1.315545,-0.01037 c 0,0 -2.525465,-2.331796 -5.115462,-2.397919 -2.244184,-0.05729 -4.052491,1.705442 -4.540004,2.202987 l -0.278721,0.31992 C 11.116117,25.522803 5.3654868,16.980907 5.3654868,16.980907 l 1.3155475,0.01037 c 0,0 2.524841,2.331796 5.1148387,2.397919 2.388179,0.06096 4.161927,-1.699723 4.47219,-2.028858 l 0.540675,-0.600458 c 2.043916,-3.152425 3.796761,-3.808499 5.702566,-3.743848 z"
       style="fill:#5bbb5d;fill-opacity:1;stroke:#212532;stroke-width:0;stroke-dasharray:none;stroke-opacity:0.995995"
       id="path9-3"
       sodipodi:nodetypes="scccccccsccs" />
    <path
       d="m 22.511304,19.453125 c 3.638356,-0.123422 6.486576,-4.072754 6.486576,-4.072754 l -1.315545,0.01037 c 0,0 -2.525465,2.331797 -5.115462,2.397919 -2.244184,0.05729 -4.052491,-1.70544 -4.540004,-2.202986 L 17.748148,15.265749 C 11.116117,6.9463483 5.3654868,15.488245 5.3654868,15.488245 l 1.3155475,-0.01037 c 0,0 2.524841,-2.331796 5.1148387,-2.397919 2.388179,-0.06096 4.161927,1.699723 4.47219,2.028858 l 0.540675,0.600458 c 2.043916,3.152425 3.796761,3.808498 5.702566,3.743847 z"
       style="fill:#5bbb5d;fill-opacity:1;stroke:#212532;stroke-width:0;stroke-dasharray:none;stroke-opacity:0.995995"
       id="path9-3-3"
       sodipodi:nodetypes="scccccccsccs" />
    <path
       d="m 22.511607,13.015792 c -1.57284,-0.05335 -2.954777,0.261702 -4.568851,2.188269 0.387132,0.193982 0.634445,0.599406 0.88819,0.946467 0.842572,-0.680455 2.185665,-1.509782 3.736231,-1.470203 2.589996,0.06612 5.115461,2.39792 5.115461,2.39792 l 1.315549,0.01037 c 0,0 -2.848225,-3.949333 -6.48658,-4.072754 z"
       style="fill:#5bbb5d;fill-opacity:1;stroke:#212532;stroke-width:0;stroke-dasharray:none;stroke-opacity:0.995995"
       id="path18"
       sodipodi:nodetypes="cccccccc" />
  </g>
</svg>
