<?xml version="1.0" encoding="UTF-8" standalone="no"?>
<!-- Created with Inkscape (http://www.inkscape.org/) -->

<svg
   width="130"
   height="130"
   viewBox="0 0 34.395833 34.395833"
   version="1.1"
   id="svg1"
   inkscape:version="1.4.2 (f4327f4, 2025-05-13)"
   sodipodi:docname="Anchor.svg"
   xml:space="preserve"
   xmlns:inkscape="http://www.inkscape.org/namespaces/inkscape"
   xmlns:sodipodi="http://sodipodi.sourceforge.net/DTD/sodipodi-0.dtd"
   xmlns:xlink="http://www.w3.org/1999/xlink"
   xmlns="http://www.w3.org/2000/svg"
   xmlns:svg="http://www.w3.org/2000/svg"><sodipodi:namedview
     id="namedview1"
     pagecolor="#ffffff"
     bordercolor="#000000"
     borderopacity="0.25"
     inkscape:showpageshadow="2"
     inkscape:pageopacity="0.0"
     inkscape:pagecheckerboard="0"
     inkscape:deskcolor="#d1d1d1"
     inkscape:document-units="mm"
     inkscape:zoom="4.543042"
     inkscape:cx="70.657502"
     inkscape:cy="32.687349"
     inkscape:window-width="3840"
     inkscape:window-height="2054"
     inkscape:window-x="-11"
     inkscape:window-y="-11"
     inkscape:window-maximized="1"
     inkscape:current-layer="layer1" /><defs
     id="defs1"><linearGradient
       id="linearGradient56"
       inkscape:collect="always"><stop
         style="stop-color:#9f25d4;stop-opacity:1;"
         offset="0"
         id="stop56" /><stop
         style="stop-color:#721b97;stop-opacity:1;"
         offset="1"
         id="stop57" /></linearGradient><linearGradient
       id="linearGradient53"
       inkscape:collect="always"><stop
         style="stop-color:#7514a4;stop-opacity:1;"
         offset="0"
         id="stop53" /><stop
         style="stop-color:#a81ae9;stop-opacity:1;"
         offset="1"
         id="stop54" /></linearGradient><linearGradient
       id="linearGradient51"
       inkscape:collect="always"><stop
         style="stop-color:#7d16ad;stop-opacity:1;"
         offset="0"
         id="stop51" /><stop
         style="stop-color:#9f25d4;stop-opacity:1;"
         offset="0.64509606"
         id="stop52" /></linearGradient><linearGradient
       id="linearGradient49"
       inkscape:collect="always"><stop
         style="stop-color:#7d16ad;stop-opacity:1;"
         offset="0"
         id="stop49" /><stop
         style="stop-color:#450a60;stop-opacity:1;"
         offset="1"
         id="stop50" /></linearGradient><linearGradient
       id="linearGradient47"
       inkscape:collect="always"><stop
         style="stop-color:#7d16ad;stop-opacity:1;"
         offset="0"
         id="stop47" /><stop
         style="stop-color:#2d093e;stop-opacity:1;"
         offset="1"
         id="stop48" /></linearGradient><linearGradient
       id="linearGradient45"
       inkscape:collect="always"><stop
         style="stop-color:#7d16ad;stop-opacity:1;"
         offset="0"
         id="stop45" /><stop
         style="stop-color:#4b0e68;stop-opacity:1;"
         offset="1"
         id="stop46" /></linearGradient><inkscape:path-effect
       effect="spiro"
       id="path-effect12"
       is_visible="true"
       lpeversion="1" /><inkscape:path-effect
       effect="spiro"
       id="path-effect11"
       is_visible="true"
       lpeversion="1" /><inkscape:path-effect
       effect="spiro"
       id="path-effect10"
       is_visible="true"
       lpeversion="1" /><linearGradient
       id="linearGradient9"
       inkscape:collect="always"><stop
         style="stop-color:#be73e2;stop-opacity:1;"
         offset="0"
         id="stop9" /><stop
         style="stop-color:#644074;stop-opacity:1;"
         offset="1"
         id="stop10" /></linearGradient><inkscape:path-effect
       effect="mirror_symmetry"
       start_point="-29.69177,2.388521"
       end_point="-29.69177,40.440103"
       center_point="-29.69177,21.414312"
       id="path-effect2"
       is_visible="true"
       lpeversion="1.2"
       lpesatellites=""
       mode="free"
       discard_orig_path="false"
       fuse_paths="true"
       oposite_fuse="false"
       split_items="false"
       split_open="false"
       link_styles="false" /><linearGradient
       id="linearGradient139"
       inkscape:collect="always"><stop
         style="stop-color:#e9a0fc;stop-opacity:1;"
         offset="0"
         id="stop140" /><stop
         style="stop-color:#9b4ebc;stop-opacity:1;"
         offset="1"
         id="stop141" /></linearGradient><inkscape:path-effect
       effect="bspline"
       id="path-effect9"
       is_visible="true"
       lpeversion="1.3"
       weight="33.333333"
       steps="2"
       helper_size="0"
       apply_no_weight="true"
       apply_with_weight="true"
       only_selected="false"
       uniform="false" /><inkscape:path-effect
       effect="spiro"
       id="path-effect8"
       is_visible="true"
       lpeversion="1" /><inkscape:path-effect
       effect="mirror_symmetry"
       start_point="17.255329,9.2448751"
       end_point="17.255329,29.300879"
       center_point="17.255329,19.272877"
       id="path-effect5"
       is_visible="true"
       lpeversion="1.2"
       lpesatellites=""
       mode="free"
       discard_orig_path="false"
       fuse_paths="true"
       oposite_fuse="false"
       split_items="false"
       split_open="false"
       link_styles="false" /><inkscape:path-effect
       effect="mirror_symmetry"
       start_point="27.030316,8.4102839"
       end_point="27.030316,28.182973"
       center_point="27.030316,18.296628"
       id="path-effect3"
       is_visible="true"
       lpeversion="1.2"
       lpesatellites=""
       mode="free"
       discard_orig_path="false"
       fuse_paths="false"
       oposite_fuse="false"
       split_items="false"
       split_open="false"
       link_styles="false" /><inkscape:path-effect
       effect="spiro"
       id="path-effect8-8"
       is_visible="true"
       lpeversion="1" /><inkscape:path-effect
       effect="spiro"
       id="path-effect8-0"
       is_visible="true"
       lpeversion="1" /><inkscape:path-effect
       effect="spiro"
       id="path-effect8-0-9"
       is_visible="true"
       lpeversion="1" /><inkscape:path-effect
       effect="spiro"
       id="path-effect8-8-6"
       is_visible="true"
       lpeversion="1" /><inkscape:path-effect
       effect="spiro"
       id="path-effect8-3"
       is_visible="true"
       lpeversion="1" /><radialGradient
       inkscape:collect="always"
       xlink:href="#linearGradient139"
       id="radialGradient141"
       cx="16.595394"
       cy="1.9469649"
       fx="16.595394"
       fy="1.9469649"
       r="7.5771537"
       gradientTransform="matrix(0.8607372,0.49820685,-0.15359434,0.26536041,2.984526,-5.6800979)"
       gradientUnits="userSpaceOnUse" /><linearGradient
       inkscape:collect="always"
       xlink:href="#linearGradient9"
       id="linearGradient10"
       x1="6.6231565"
       y1="15.337888"
       x2="17.461329"
       y2="30.255352"
       gradientUnits="userSpaceOnUse"
       gradientTransform="matrix(1.1505536,0,0,1.2024811,-0.36923694,-6.4426017)" /><linearGradient
       inkscape:collect="always"
       xlink:href="#linearGradient45"
       id="linearGradient46"
       x1="13.777764"
       y1="20.263753"
       x2="19.610493"
       y2="20.263753"
       gradientUnits="userSpaceOnUse"
       gradientTransform="matrix(1.1505536,0,0,1.2024811,-0.36923694,-6.4426017)" /><linearGradient
       inkscape:collect="always"
       xlink:href="#linearGradient47"
       id="linearGradient48"
       x1="11.730468"
       y1="25.778419"
       x2="16.713014"
       y2="25.778419"
       gradientUnits="userSpaceOnUse" /><linearGradient
       inkscape:collect="always"
       xlink:href="#linearGradient49"
       id="linearGradient50"
       x1="11.520898"
       y1="28.819866"
       x2="15.168495"
       y2="28.819866"
       gradientUnits="userSpaceOnUse" /><linearGradient
       inkscape:collect="always"
       xlink:href="#linearGradient51"
       id="linearGradient52"
       x1="2.5153096"
       y1="24.998732"
       x2="12.84417"
       y2="23.913126"
       gradientUnits="userSpaceOnUse"
       gradientTransform="matrix(1.1505536,0,0,1.2024811,-0.36923694,-6.4426017)" /><linearGradient
       inkscape:collect="always"
       xlink:href="#linearGradient53"
       id="linearGradient54"
       x1="20.21158"
       y1="17.621996"
       x2="12.115814"
       y2="17.621996"
       gradientUnits="userSpaceOnUse"
       gradientTransform="matrix(1.1505536,0,0,1.2024811,-0.36923694,-6.4426017)" /><linearGradient
       inkscape:collect="always"
       xlink:href="#linearGradient56"
       id="linearGradient57"
       x1="20.267401"
       y1="11.067692"
       x2="29.8834"
       y2="11.067692"
       gradientUnits="userSpaceOnUse"
       gradientTransform="matrix(1.1505536,0,0,1.2024811,-3.8635916,-3.7344768)" /></defs><g
     inkscape:label="Ebene 1"
     inkscape:groupmode="layer"
     id="layer1"><rect
       style="fill:#ba7ad9;stroke:#212532;stroke-width:0.835;stroke-linejoin:round;stroke-miterlimit:8.2;stroke-opacity:0.995995;stroke-dasharray:none;fill-opacity:1"
       id="rect1"
       width="33.160828"
       height="33.160831"
       x="0.61750245"
       y="0.61750251"
       ry="3.8429754"
       rx="12.307843" /><rect
       style="fill:#e5c5f4;stroke:#212532;stroke-width:0.443;stroke-linejoin:round;stroke-miterlimit:8.2;stroke-dasharray:none;stroke-opacity:0.995995;fill-opacity:1"
       id="rect1-8"
       width="29.513771"
       height="29.513775"
       x="2.4410326"
       y="2.4410312"
       ry="3.4203215"
       rx="10.954216" /><path
       id="path17"
       style="opacity:1;fill:url(#radialGradient141);fill-opacity:1;stroke:#13061b;stroke-width:0.342284;stroke-dasharray:none"
       d="m 20.785612,0.50292113 c -1.223926,0 -2.663385,0.88657697 -3.653293,1.62797257 -0.984442,-0.7229275 -2.363026,-1.54514297 -3.541623,-1.54514297 -2.103484,0 -3.808554,1.17250207 -3.808554,2.61855997 0,1.4460584 1.70507,2.6182237 3.808554,2.6182237 1.22393,0 2.663385,-0.8863344 3.653293,-1.6276352 0.984442,0.7228322 2.363029,1.5448056 3.541623,1.5448056 2.103484,0 3.808553,-1.1721652 3.808553,-2.6182236 0,-1.4460575 -1.705069,-2.61856007 -3.808553,-2.61856007 z m 0.072,1.41046007 c 0.985238,0 1.783791,0.5320356 1.783791,1.1882345 0,0.6561988 -0.798553,1.1878975 -1.783791,1.1878975 -0.985237,0 -2.268676,-1.1878975 -2.268676,-1.1878975 0,0 1.283439,-1.1882345 2.268676,-1.1882345 z m -7.338912,0.08283 c 0.985237,0 2.268676,1.188234 2.268676,1.188234 0,0 -1.283439,1.187898 -2.268676,1.187898 -0.985238,0 -1.783791,-0.5316992 -1.783791,-1.187898 0,-0.6561993 0.798553,-1.188234 1.783791,-1.188234 z" /><path
       id="path18"
       style="opacity:1;fill:#9b4ebc;fill-opacity:1;stroke:#13061b;stroke-width:0.342284"
       d="m 22.609545,1.1683043 c 0.12099,0.6439463 0.164864,1.2208777 -0.905468,1.3581976 -1.070332,0.1373198 -2.849556,-0.2169721 -2.970546,-0.8609184 -0.120989,-0.6439463 1.462072,-1.33369837 2.532404,-1.47101817 1.070331,-0.1373199 1.222621,0.3297927 1.34361,0.97373897 z"
       sodipodi:nodetypes="sssss" /><ellipse
       style="opacity:1;fill:#f0cff9;fill-opacity:1;stroke:#13061b;stroke-width:0;stroke-dasharray:none;stroke-opacity:1"
       id="path19"
       cx="21.589043"
       cy="0.82788777"
       rx="0.69388413"
       ry="0.085296676" /><ellipse
       style="fill:#f0cff9;fill-opacity:1;stroke:#13061b;stroke-width:0;stroke-dasharray:none;stroke-opacity:1"
       id="path19-2"
       cx="21.63266"
       cy="1.5677791"
       rx="0.69388413"
       ry="0.085296676" /><path
       id="rect19"
       style="opacity:1;fill:#9b4ebc;fill-opacity:1;stroke:#13061b;stroke-width:0"
       d="M 22.349928,0.92094876 22.812191,1.0885281 22.989954,2.0036142 22.569803,2.431514 22.290207,2.1560941 Z"
       sodipodi:nodetypes="cccccc" /><path
       id="rect20"
       style="opacity:1;fill:#e5c5f4;stroke:#13061b;stroke-width:0.294801"
       d="M 16.894063,1.9773394 17.32153,2.299045 18.648856,3.1829466 M 17.315578,4.2151786 15.692667,3.0759244"
       sodipodi:nodetypes="ccccc" /><path
       d="m 28.840617,4.258138 c -1.340474,0.079698 -3.254191,1.2137429 -4.252454,2.3197551 -0.91247,1.0109617 -0.823343,1.735731 -0.336413,2.4112223 -0.464308,0.5959869 -1.309152,1.0987106 -1.831413,1.6448606 -0.02102,0.02092 -0.04216,0.04158 -0.06304,0.06201 0.741084,0.412586 1.309401,1.010022 1.603519,1.71049 0.489018,-0.438473 0.83551,-0.814984 1.543575,-1.436605 0.06693,-0.05877 0.276989,-0.331573 0.42168,-0.430465 0.616041,0.29121 1.537596,0.684766 2.492871,-0.37362 C 29.749953,8.6911062 30.992838,5.5605396 29.935124,4.5697469 29.670695,4.3220488 29.287441,4.231572 28.840617,4.258138 Z"
       style="opacity:1;fill:url(#linearGradient57);stroke:#13061b;stroke-width:0.3811"
       id="path58" /><path
       d="m 22.359797,10.519114 c -0.642497,-0.01388 -1.362448,0.263697 -1.962066,0.817762 -0.7129,0.658721 -1.103088,1.576151 -1.015516,2.386173 l -1.453117,1.193086 -2.064925,-2.032597 c 0.111948,-0.517152 -0.03521,-1.081611 -0.391224,-1.502543 -0.58599,-0.692626 -1.554015,-0.797802 -2.162432,-0.235511 -0.608494,0.562203 -0.626962,1.579161 -0.04103,2.271837 0.321032,0.379469 0.77571,0.59897 1.236695,0.597164 l 1.600569,2.161848 -8.9838781,8.351607 c 0,0 -1.2750598,-1.494483 -1.4846289,-2.498025 -0.1545333,-0.740105 0.2021521,-2.4334 0.2021521,-2.4334 l 0.7580705,0.821491 c 0,0 0.1964674,-2.140094 0.5119205,-3.21885 0.125918,-0.430608 0.4167901,-0.777992 0.4167901,-0.777992 0,0 -0.2721855,-0.02201 -0.3305782,-0.128629 -0.087459,-0.159722 0.091563,-0.544345 0.091563,-0.544345 0,0 -0.4446409,0.291243 -0.5957541,0.147893 -0.1865319,-0.176949 0.2518103,-0.879485 0.2039357,-0.956955 -2.427e-4,-3.32e-4 -9.253e-4,-0.0016 -0.00119,-0.0019 -5.705e-4,-5.54e-4 -0.00231,-0.002 -0.00297,-0.0025 -0.011931,-0.0066 -0.037132,0.0031 -0.079078,0.03356 -0.5148111,0.372983 -0.8119769,0.830323 -1.5839212,1.55909 C 4.3088084,17.396276 3.0162132,19.8587 3.0162132,19.8587 l 0.8954149,-0.203819 c 0,0 -0.6807593,1.838989 -0.7384498,2.729807 -0.060341,0.931733 0.2595069,1.747682 0.4185738,2.609256 0.1534472,0.831135 0.4691004,1.597144 0.5166771,2.468198 0.027811,0.509179 -0.1119201,1.510504 -0.1486413,1.761045 0.2424146,-0.0073 1.2096408,-0.03034 1.6897539,0.06089 0.8213321,0.156063 1.5102962,0.577279 2.2807516,0.838268 0.7986705,0.270544 1.5348405,0.702821 2.4270146,0.754379 0.852996,0.04929 2.682083,-0.431873 2.682083,-0.431873 l -0.302634,0.904758 c 0,0 2.180033,-1.109187 3.117899,-1.957408 1.750487,-1.583162 2.553658,-2.809968 2.553658,-2.809968 0,0 -1.765104,0.684976 -2.644626,0.846346 -1.063041,0.195043 -3.119682,0.136086 -3.119682,0.136086 L 13.33252,28.4526 c 0,0 -1.652765,0.162097 -2.336641,-0.08886 C 10.06854,28.023534 8.8060911,26.517661 8.8060911,26.517661 l 9.0314429,-8.29568 1.950174,2.022033 c -0.04932,0.470149 0.103872,0.957206 0.418573,1.329172 0.585905,0.692528 1.554579,0.798202 2.163029,0.236132 0.608494,-0.562203 0.626367,-1.579781 0.04043,-2.272457 -0.367067,-0.433815 -0.904859,-0.654661 -1.4222,-0.584116 l -1.730185,-2.466955 1.286046,-1.334766 c 0.767702,0.221195 1.717439,-0.06734 2.450796,-0.745057 1.066051,-0.985113 1.349062,-2.470898 0.632023,-3.318273 -0.313642,-0.370731 -0.766704,-0.557785 -1.266423,-0.56858 z m -0.460789,1.035251 a 1.1209016,1.2775306 33.969424 0 1 0.661751,0.292058 1.1209016,1.2775306 33.969424 0 1 -0.06778,1.734947 1.1209016,1.2775306 33.969424 0 1 -1.656459,0.139194 1.1209016,1.2775306 33.969424 0 1 0.06778,-1.734947 1.1209016,1.2775306 33.969424 0 1 0.994708,-0.431252 z"
       style="opacity:1;fill:url(#linearGradient10);stroke:#13061b;stroke-width:0.498722;stroke-dasharray:none"
       id="path9"
       inkscape:transform-center-x="-0.31760462"
       inkscape:transform-center-y="0.21180923" /><path
       style="fill:#9a72ac;fill-opacity:0;stroke:#13061b;stroke-width:0.346024;stroke-dasharray:none"
       d="m 17.746919,25.660489 0.971629,0.506912 c 0,0 0.09999,0.653489 0.284745,0.898139 0.309434,0.409749 1.26349,0.800299 1.26349,0.800299"
       id="path6-1"
       sodipodi:nodetypes="ccac" /><path
       style="opacity:1;fill:#9a72ac;fill-opacity:0;stroke:#13061b;stroke-width:0.183138;stroke-dasharray:none"
       d="m 6.8704521,15.010321 0.15865,-0.383437 c 0,0 -0.6363986,0.0082 -0.8428302,-0.202077 -0.090426,-0.0921 -0.094199,-0.383442 -0.094199,-0.383442"
       id="path5"
       sodipodi:nodetypes="ccac" /><path
       style="opacity:1;fill:#9a72ac;fill-opacity:0;stroke:#13061b;stroke-width:0.183138;stroke-dasharray:none"
       d="m 7.5149694,16.44562 0.565192,-0.145084 c 0,0 0.2475742,0.226022 0.401747,0.257841 0.2582144,0.05329 0.7794176,-0.132118 0.7794176,-0.132118"
       id="path6"
       sodipodi:nodetypes="ccac" /><path
       style="opacity:1;fill:#9a72ac;fill-opacity:0;stroke:#13061b;stroke-width:0.0846769;stroke-dasharray:none"
       d="m 9.4286897,14.932598 c 0,0 -0.7698587,0.09791 -1.0907216,-0.0829 -0.2676669,-0.150844 -0.5552762,-0.756515 -0.5552762,-0.756515 0,0 -0.4784195,0.06523 -0.6643484,-0.06218 C 6.8759139,13.864863 6.701886,13.233038 6.701886,13.233038"
       id="path7"
       sodipodi:nodetypes="cacac" /><path
       style="opacity:1;fill:url(#linearGradient50);stroke:#13061b;stroke-width:0.324001;stroke-dasharray:none"
       d="m 14.713632,27.914933 c 0.152027,0.458165 0.218184,0.944665 0.194022,1.426789 -0.01825,0.364176 -0.08778,0.725746 -0.205907,1.070716 -0.06007,0.100971 -0.144535,0.187314 -0.244162,0.249586 -0.202481,0.126561 -0.452346,0.148025 -0.691125,0.147237 -0.48536,-0.0016 -0.970376,-0.08155 -1.430572,-0.235809 -0.01276,-0.47841 -0.01065,-0.957216 0.0063,-1.435495 0.01418,-0.39999 0.03852,-0.803559 -0.02912,-1.198043 -0.06694,-0.390376 -0.22468,-0.764892 -0.457207,-1.085526 0.706695,0.04967 1.403248,0.239689 2.037265,0.555771 0.287765,0.143462 0.562719,0.31261 0.820524,0.504773 z"
       id="path10"
       inkscape:path-effect="#path-effect10"
       inkscape:original-d="m 14.713632,27.914933 c 0.240251,0.151736 -0.06679,0.932614 0.194022,1.426789 0.260815,0.494176 -0.28827,1.413894 -0.205907,1.070716 -0.102954,0.343178 -0.08843,0.150084 -0.244162,0.249586 -0.28512,0.182171 -0.368537,-0.0038 -0.691125,0.147237 -0.322588,0.150998 -1.650205,-0.613303 -1.430572,-0.235809 -0.219633,-0.356904 0.287688,-0.769729 0.0063,-1.435495 -0.281406,-0.665763 -0.03602,-1.047043 -0.02912,-1.198043 0.0069,-0.150998 -0.457207,-1.085526 -0.457207,-1.085526 0,0 1.391396,0.275888 2.037265,0.555771 0.294643,0.127682 0.446767,0.268717 0.820524,0.504773 z"
       sodipodi:nodetypes="sscsscsscass"
       transform="matrix(1.1505536,0,0,1.2024811,-4.3896794,-5.6022226)" /><path
       style="opacity:1;fill:url(#linearGradient48);stroke:#13061b;stroke-width:0.324001;stroke-dasharray:none"
       d="m 11.999479,28.129909 c -0.151377,-0.430433 -0.141318,-0.915553 0.02777,-1.339341 0.169091,-0.423788 0.495752,-0.782585 0.901861,-0.990583 0.387162,-0.198294 0.829003,-0.258423 1.237584,-0.407675 0.457917,-0.167274 0.872189,-0.44782 1.208465,-0.800789 0.28127,-0.295232 0.509095,-0.641227 0.66917,-1.016261 0.344845,0.447964 0.526796,1.018616 0.504901,1.583514 -0.0052,0.133731 -0.02139,0.267033 -0.0484,0.39811 -0.152214,0.37814 -0.40296,0.716124 -0.720711,0.971454 -0.31775,0.255331 -0.70179,0.427434 -1.103833,0.494671 -0.140259,0.02346 -0.282837,0.03445 -0.420884,0.0686 -0.138047,0.03414 -0.27431,0.09417 -0.370341,0.199055 -0.06354,0.0694 -0.107167,0.156843 -0.124398,0.249351 -0.01723,0.09251 -0.008,0.18979 0.02628,0.277417 0.0343,0.08763 0.09356,0.16532 0.169007,0.221556 0.07545,0.05624 0.166833,0.09084 0.260605,0.09867 -0.302047,-0.0062 -0.604137,-0.01022 -0.906241,-0.01221 -0.436946,-0.0029 -0.873921,-0.0014 -1.310837,0.0045 z"
       id="path11"
       inkscape:path-effect="#path-effect11"
       inkscape:original-d="m 11.999479,28.129909 c 0,0 0.68697,-1.951369 0.929633,-2.329924 0.242664,-0.378555 0.834763,-0.271783 1.237584,-0.407675 0.402822,-0.135891 0.970655,-0.538713 1.208465,-0.800789 0.23781,-0.262077 0.66917,-1.016261 0.66917,-1.016261 0,0 0.452988,1.031932 0.504901,1.583514 0.01253,0.133092 0.140879,0.883437 -0.0484,0.39811 0.189278,0.470767 -1.436282,0.951677 -1.824544,1.466125 -0.388261,0.514446 -0.490322,0.09779 -0.791225,0.267652 -0.300903,0.169865 0.331494,0.846994 0.331494,0.846994 l -0.906241,-0.01221 z"
       sodipodi:nodetypes="cssscacssccc"
       transform="matrix(1.1505536,0,0,1.2024811,-0.36923694,-6.4426017)" /><path
       style="opacity:1;fill:url(#linearGradient52);stroke:#13061b;stroke-width:0.3811;stroke-dasharray:none"
       d="m 3.9366595,28.307349 c 0,0 -0.8742076,-0.624269 -1.0573986,-1.11001 -0.3480984,-0.923004 -0.1900906,-2.027464 0.091889,-2.974798 0.1714568,-0.576024 0.470331,-1.165979 0.9357822,-1.522734 0.4850651,-0.371788 1.1579719,-0.341586 1.7412651,-0.495198 0.7114191,-0.187355 1.5725304,-0.03912 2.1440069,-0.519958 0.7387743,-0.621602 0.6650653,-1.882651 1.2200701,-2.68645 0.3774985,-0.54672 0.7872216,-1.181193 1.3977508,-1.398935 1.164973,-0.415481 3.672056,0.408537 3.672056,0.408537 0,0 -1.551964,1.527738 -1.895256,1.696053 -0.311731,0.152841 -0.710763,-0.05917 -1.030544,0.07428 -0.247429,0.103257 -0.449859,0.314624 -0.615957,0.532337 -0.399614,0.523791 -0.477193,1.261465 -0.8647104,1.795093 C 9.1686856,22.803628 8.5609142,23.473782 7.815895,23.8759 7.0582704,24.284822 5.9720352,23.875428 5.3165278,24.445377 4.4934706,25.161006 4.3794375,26.46829 4.0727668,27.540366 4.0015038,27.789492 3.93666,28.307349 3.9366595,28.307349 Z"
       id="path12"
       sodipodi:nodetypes="caaaaaaacsaaaaaac" /><path
       style="opacity:1;fill:url(#linearGradient46);stroke:#13061b;stroke-width:0.3811;stroke-dasharray:none"
       d="m 17.718599,18.366824 c 0.319616,-0.244539 0.87997,0.234687 1.30299,0.123803 0.362217,-0.09495 0.840814,-0.266299 0.935781,-0.643758 0.125293,-0.497994 -0.675184,-1.374175 -0.675184,-1.374175 l 1.172688,-1.225616 c 0,0 1.259751,1.16636 1.480668,1.968414 0.144989,0.526396 0.05601,1.13787 -0.165835,1.634154 -0.278939,0.624001 -0.781206,1.184846 -1.374059,1.485593 -0.806927,0.409344 -1.783273,0.36365 -2.677048,0.28474 -0.649086,-0.05731 -1.883409,-0.544719 -1.883409,-0.544719 0,0 1.534013,-1.441111 1.883408,-1.708436 z"
       id="path13"
       sodipodi:nodetypes="saaccaaaacs" /><path
       style="opacity:1;fill:#7d16ad;fill-opacity:1;stroke:#13061b;stroke-width:0.3811;stroke-dasharray:none"
       d="m 18.559619,14.355719 -1.231916,-0.222839 0.66334,0.792317 z"
       id="path14" /><path
       style="opacity:1;fill:url(#linearGradient54);stroke:#13061b;stroke-width:0.3811;stroke-dasharray:none"
       d="m 14.743736,14.509514 c -0.645164,0.03989 -1.128052,1.281317 -0.945944,2.000316 0.180475,0.712547 1.062933,1.086375 1.75311,1.237995 0.864019,0.189811 1.812127,-0.09134 2.605975,-0.495197 1.186979,-0.60385 1.968042,-1.839563 2.961337,-2.74835 0.315284,-0.288461 0.667943,-0.53611 0.951692,-0.858358 0.239536,-0.272039 0.59035,-0.528859 0.624334,-0.896849 0.03377,-0.365628 -0.143261,-0.811703 -0.445812,-0.998634 -0.239893,-0.148218 -0.561744,-0.0032 -0.834184,0.05802 -0.243992,0.05488 -0.477157,0.159306 -0.7014,0.273817 -0.520607,0.265851 -1.014671,0.591859 -1.480565,0.951905 -0.571171,0.441405 -1.095386,0.937111 -1.59947,1.471819 -0.316374,0.335594 -0.740988,0.861135 -1.430268,1.15449 -0.387015,-0.116184 -1.056844,-1.175821 -1.458805,-1.15097 z"
       id="path15"
       sodipodi:nodetypes="caaaaaaaaaascc" /><ellipse
       style="opacity:1;fill:#cf67ff;fill-opacity:1;stroke:#13061b;stroke-width:0;stroke-dasharray:none"
       id="path20"
       cx="25.103567"
       cy="10.780725"
       rx="1.1767298"
       ry="0.41252214"
       transform="matrix(0.99186192,-0.1273182,0.13523544,0.99081349,0,0)" /><ellipse
       style="fill:#cf67ff;fill-opacity:1;stroke:#13061b;stroke-width:0;stroke-dasharray:none"
       id="path20-1"
       cx="6.1968417"
       cy="-28.619728"
       rx="1.2564424"
       ry="0.38636804"
       transform="matrix(-0.10361929,0.99461703,-0.99582972,-0.09123141,0,0)" /><ellipse
       style="opacity:1;fill:#cf67ff;fill-opacity:0;stroke:#13061b;stroke-width:0.189373;stroke-dasharray:none"
       id="path22"
       cx="29.386021"
       cy="5.7867503"
       rx="0.12932843"
       ry="0.13384914" /><ellipse
       style="fill:#cf67ff;fill-opacity:0;stroke:#13061b;stroke-width:0.189373;stroke-dasharray:none"
       id="path22-7"
       cx="28.983089"
       cy="5.4466033"
       rx="0.12932843"
       ry="0.13384914" /></g><script
     id="mesh_polyfill"
     type="text/javascript">
!function(){const t=&quot;http://www.w3.org/2000/svg&quot;,e=&quot;http://www.w3.org/1999/xlink&quot;,s=&quot;http://www.w3.org/1999/xhtml&quot;,r=2;if(document.createElementNS(t,&quot;meshgradient&quot;).x)return;const n=(t,e,s,r)=&gt;{let n=new x(.5*(e.x+s.x),.5*(e.y+s.y)),o=new x(.5*(t.x+e.x),.5*(t.y+e.y)),i=new x(.5*(s.x+r.x),.5*(s.y+r.y)),a=new x(.5*(n.x+o.x),.5*(n.y+o.y)),h=new x(.5*(n.x+i.x),.5*(n.y+i.y)),l=new x(.5*(a.x+h.x),.5*(a.y+h.y));return[[t,o,a,l],[l,h,i,r]]},o=t=&gt;{let e=t[0].distSquared(t[1]),s=t[2].distSquared(t[3]),r=.25*t[0].distSquared(t[2]),n=.25*t[1].distSquared(t[3]),o=e&gt;s?e:s,i=r&gt;n?r:n;return 18*(o&gt;i?o:i)},i=(t,e)=&gt;Math.sqrt(t.distSquared(e)),a=(t,e)=&gt;t.scale(2/3).add(e.scale(1/3)),h=t=&gt;{let e,s,r,n,o,i,a,h=new g;return t.match(/(\w+\(\s*[^)]+\))+/g).forEach(t=&gt;{let l=t.match(/[\w.-]+/g),d=l.shift();switch(d){case&quot;translate&quot;:2===l.length?e=new g(1,0,0,1,l[0],l[1]):(console.error(&quot;mesh.js: translate does not have 2 arguments!&quot;),e=new g(1,0,0,1,0,0)),h=h.append(e);break;case&quot;scale&quot;:1===l.length?s=new g(l[0],0,0,l[0],0,0):2===l.length?s=new g(l[0],0,0,l[1],0,0):(console.error(&quot;mesh.js: scale does not have 1 or 2 arguments!&quot;),s=new g(1,0,0,1,0,0)),h=h.append(s);break;case&quot;rotate&quot;:if(3===l.length&amp;&amp;(e=new g(1,0,0,1,l[1],l[2]),h=h.append(e)),l[0]){r=l[0]*Math.PI/180;let t=Math.cos(r),e=Math.sin(r);Math.abs(t)&lt;1e-16&amp;&amp;(t=0),Math.abs(e)&lt;1e-16&amp;&amp;(e=0),a=new g(t,e,-e,t,0,0),h=h.append(a)}else console.error(&quot;math.js: No argument to rotate transform!&quot;);3===l.length&amp;&amp;(e=new g(1,0,0,1,-l[1],-l[2]),h=h.append(e));break;case&quot;skewX&quot;:l[0]?(r=l[0]*Math.PI/180,n=Math.tan(r),o=new g(1,0,n,1,0,0),h=h.append(o)):console.error(&quot;math.js: No argument to skewX transform!&quot;);break;case&quot;skewY&quot;:l[0]?(r=l[0]*Math.PI/180,n=Math.tan(r),i=new g(1,n,0,1,0,0),h=h.append(i)):console.error(&quot;math.js: No argument to skewY transform!&quot;);break;case&quot;matrix&quot;:6===l.length?h=h.append(new g(...l)):console.error(&quot;math.js: Incorrect number of arguments for matrix!&quot;);break;default:console.error(&quot;mesh.js: Unhandled transform type: &quot;+d)}}),h},l=t=&gt;{let e=[],s=t.split(/[ ,]+/);for(let t=0,r=s.length-1;t&lt;r;t+=2)e.push(new x(parseFloat(s[t]),parseFloat(s[t+1])));return e},d=(t,e)=&gt;{for(let s in e)t.setAttribute(s,e[s])},c=(t,e,s,r,n)=&gt;{let o,i,a=[0,0,0,0];for(let h=0;h&lt;3;++h)e[h]&lt;t[h]&amp;&amp;e[h]&lt;s[h]||t[h]&lt;e[h]&amp;&amp;s[h]&lt;e[h]?a[h]=0:(a[h]=.5*((e[h]-t[h])/r+(s[h]-e[h])/n),o=Math.abs(3*(e[h]-t[h])/r),i=Math.abs(3*(s[h]-e[h])/n),a[h]&gt;o?a[h]=o:a[h]&gt;i&amp;&amp;(a[h]=i));return a},u=[[1,0,0,0,0,0,0,0,0,0,0,0,0,0,0,0],[0,0,0,0,1,0,0,0,0,0,0,0,0,0,0,0],[-3,3,0,0,-2,-1,0,0,0,0,0,0,0,0,0,0],[2,-2,0,0,1,1,0,0,0,0,0,0,0,0,0,0],[0,0,0,0,0,0,0,0,1,0,0,0,0,0,0,0],[0,0,0,0,0,0,0,0,0,0,0,0,1,0,0,0],[0,0,0,0,0,0,0,0,-3,3,0,0,-2,-1,0,0],[0,0,0,0,0,0,0,0,2,-2,0,0,1,1,0,0],[-3,0,3,0,0,0,0,0,-2,0,-1,0,0,0,0,0],[0,0,0,0,-3,0,3,0,0,0,0,0,-2,0,-1,0],[9,-9,-9,9,6,3,-6,-3,6,-6,3,-3,4,2,2,1],[-6,6,6,-6,-3,-3,3,3,-4,4,-2,2,-2,-2,-1,-1],[2,0,-2,0,0,0,0,0,1,0,1,0,0,0,0,0],[0,0,0,0,2,0,-2,0,0,0,0,0,1,0,1,0],[-6,6,6,-6,-4,-2,4,2,-3,3,-3,3,-2,-1,-2,-1],[4,-4,-4,4,2,2,-2,-2,2,-2,2,-2,1,1,1,1]],f=t=&gt;{let e=[];for(let s=0;s&lt;16;++s){e[s]=0;for(let r=0;r&lt;16;++r)e[s]+=u[s][r]*t[r]}return e},p=(t,e,s)=&gt;{const r=e*e,n=s*s,o=e*e*e,i=s*s*s;return t[0]+t[1]*e+t[2]*r+t[3]*o+t[4]*s+t[5]*s*e+t[6]*s*r+t[7]*s*o+t[8]*n+t[9]*n*e+t[10]*n*r+t[11]*n*o+t[12]*i+t[13]*i*e+t[14]*i*r+t[15]*i*o},y=t=&gt;{let e=[],s=[],r=[];for(let s=0;s&lt;4;++s)e[s]=[],e[s][0]=n(t[0][s],t[1][s],t[2][s],t[3][s]),e[s][1]=[],e[s][1].push(...n(...e[s][0][0])),e[s][1].push(...n(...e[s][0][1])),e[s][2]=[],e[s][2].push(...n(...e[s][1][0])),e[s][2].push(...n(...e[s][1][1])),e[s][2].push(...n(...e[s][1][2])),e[s][2].push(...n(...e[s][1][3]));for(let t=0;t&lt;8;++t){s[t]=[];for(let r=0;r&lt;4;++r)s[t][r]=[],s[t][r][0]=n(e[0][2][t][r],e[1][2][t][r],e[2][2][t][r],e[3][2][t][r]),s[t][r][1]=[],s[t][r][1].push(...n(...s[t][r][0][0])),s[t][r][1].push(...n(...s[t][r][0][1])),s[t][r][2]=[],s[t][r][2].push(...n(...s[t][r][1][0])),s[t][r][2].push(...n(...s[t][r][1][1])),s[t][r][2].push(...n(...s[t][r][1][2])),s[t][r][2].push(...n(...s[t][r][1][3]))}for(let t=0;t&lt;8;++t){r[t]=[];for(let e=0;e&lt;8;++e)r[t][e]=[],r[t][e][0]=s[t][0][2][e],r[t][e][1]=s[t][1][2][e],r[t][e][2]=s[t][2][2][e],r[t][e][3]=s[t][3][2][e]}return r};class x{constructor(t,e){this.x=t||0,this.y=e||0}toString(){return`(x=${this.x}, y=${this.y})`}clone(){return new x(this.x,this.y)}add(t){return new x(this.x+t.x,this.y+t.y)}scale(t){return void 0===t.x?new x(this.x*t,this.y*t):new x(this.x*t.x,this.y*t.y)}distSquared(t){let e=this.x-t.x,s=this.y-t.y;return e*e+s*s}transform(t){let e=this.x*t.a+this.y*t.c+t.e,s=this.x*t.b+this.y*t.d+t.f;return new x(e,s)}}class g{constructor(t,e,s,r,n,o){void 0===t?(this.a=1,this.b=0,this.c=0,this.d=1,this.e=0,this.f=0):(this.a=t,this.b=e,this.c=s,this.d=r,this.e=n,this.f=o)}toString(){return`affine: ${this.a} ${this.c} ${this.e} \n       ${this.b} ${this.d} ${this.f}`}append(t){t instanceof g||console.error(&quot;mesh.js: argument to Affine.append is not affine!&quot;);let e=this.a*t.a+this.c*t.b,s=this.b*t.a+this.d*t.b,r=this.a*t.c+this.c*t.d,n=this.b*t.c+this.d*t.d,o=this.a*t.e+this.c*t.f+this.e,i=this.b*t.e+this.d*t.f+this.f;return new g(e,s,r,n,o,i)}}class w{constructor(t,e){this.nodes=t,this.colors=e}paintCurve(t,e){if(o(this.nodes)&gt;r){const s=n(...this.nodes);let r=[[],[]],o=[[],[]];for(let t=0;t&lt;4;++t)r[0][t]=this.colors[0][t],r[1][t]=(this.colors[0][t]+this.colors[1][t])/2,o[0][t]=r[1][t],o[1][t]=this.colors[1][t];let i=new w(s[0],r),a=new w(s[1],o);i.paintCurve(t,e),a.paintCurve(t,e)}else{let s=Math.round(this.nodes[0].x);if(s&gt;=0&amp;&amp;s&lt;e){let r=4*(~~this.nodes[0].y*e+s);t[r]=Math.round(this.colors[0][0]),t[r+1]=Math.round(this.colors[0][1]),t[r+2]=Math.round(this.colors[0][2]),t[r+3]=Math.round(this.colors[0][3])}}}}class m{constructor(t,e){this.nodes=t,this.colors=e}split(){let t=[[],[],[],[]],e=[[],[],[],[]],s=[[[],[]],[[],[]]],r=[[[],[]],[[],[]]];for(let s=0;s&lt;4;++s){const r=n(this.nodes[0][s],this.nodes[1][s],this.nodes[2][s],this.nodes[3][s]);t[0][s]=r[0][0],t[1][s]=r[0][1],t[2][s]=r[0][2],t[3][s]=r[0][3],e[0][s]=r[1][0],e[1][s]=r[1][1],e[2][s]=r[1][2],e[3][s]=r[1][3]}for(let t=0;t&lt;4;++t)s[0][0][t]=this.colors[0][0][t],s[0][1][t]=this.colors[0][1][t],s[1][0][t]=(this.colors[0][0][t]+this.colors[1][0][t])/2,s[1][1][t]=(this.colors[0][1][t]+this.colors[1][1][t])/2,r[0][0][t]=s[1][0][t],r[0][1][t]=s[1][1][t],r[1][0][t]=this.colors[1][0][t],r[1][1][t]=this.colors[1][1][t];return[new m(t,s),new m(e,r)]}paint(t,e){let s,n=!1;for(let t=0;t&lt;4;++t)if((s=o([this.nodes[0][t],this.nodes[1][t],this.nodes[2][t],this.nodes[3][t]]))&gt;r){n=!0;break}if(n){let s=this.split();s[0].paint(t,e),s[1].paint(t,e)}else{new w([...this.nodes[0]],[...this.colors[0]]).paintCurve(t,e)}}}class b{constructor(t){this.readMesh(t),this.type=t.getAttribute(&quot;type&quot;)||&quot;bilinear&quot;}readMesh(t){let e=[[]],s=[[]],r=Number(t.getAttribute(&quot;x&quot;)),n=Number(t.getAttribute(&quot;y&quot;));e[0][0]=new x(r,n);let o=t.children;for(let t=0,r=o.length;t&lt;r;++t){e[3*t+1]=[],e[3*t+2]=[],e[3*t+3]=[],s[t+1]=[];let r=o[t].children;for(let n=0,o=r.length;n&lt;o;++n){let o=r[n].children;for(let r=0,i=o.length;r&lt;i;++r){let i=r;0!==t&amp;&amp;++i;let h,d=o[r].getAttribute(&quot;path&quot;),c=&quot;l&quot;;null!=d&amp;&amp;(c=(h=d.match(/\s*([lLcC])\s*(.*)/))[1]);let u=l(h[2]);switch(c){case&quot;l&quot;:0===i?(e[3*t][3*n+3]=u[0].add(e[3*t][3*n]),e[3*t][3*n+1]=a(e[3*t][3*n],e[3*t][3*n+3]),e[3*t][3*n+2]=a(e[3*t][3*n+3],e[3*t][3*n])):1===i?(e[3*t+3][3*n+3]=u[0].add(e[3*t][3*n+3]),e[3*t+1][3*n+3]=a(e[3*t][3*n+3],e[3*t+3][3*n+3]),e[3*t+2][3*n+3]=a(e[3*t+3][3*n+3],e[3*t][3*n+3])):2===i?(0===n&amp;&amp;(e[3*t+3][3*n+0]=u[0].add(e[3*t+3][3*n+3])),e[3*t+3][3*n+1]=a(e[3*t+3][3*n],e[3*t+3][3*n+3]),e[3*t+3][3*n+2]=a(e[3*t+3][3*n+3],e[3*t+3][3*n])):(e[3*t+1][3*n]=a(e[3*t][3*n],e[3*t+3][3*n]),e[3*t+2][3*n]=a(e[3*t+3][3*n],e[3*t][3*n]));break;case&quot;L&quot;:0===i?(e[3*t][3*n+3]=u[0],e[3*t][3*n+1]=a(e[3*t][3*n],e[3*t][3*n+3]),e[3*t][3*n+2]=a(e[3*t][3*n+3],e[3*t][3*n])):1===i?(e[3*t+3][3*n+3]=u[0],e[3*t+1][3*n+3]=a(e[3*t][3*n+3],e[3*t+3][3*n+3]),e[3*t+2][3*n+3]=a(e[3*t+3][3*n+3],e[3*t][3*n+3])):2===i?(0===n&amp;&amp;(e[3*t+3][3*n+0]=u[0]),e[3*t+3][3*n+1]=a(e[3*t+3][3*n],e[3*t+3][3*n+3]),e[3*t+3][3*n+2]=a(e[3*t+3][3*n+3],e[3*t+3][3*n])):(e[3*t+1][3*n]=a(e[3*t][3*n],e[3*t+3][3*n]),e[3*t+2][3*n]=a(e[3*t+3][3*n],e[3*t][3*n]));break;case&quot;c&quot;:0===i?(e[3*t][3*n+1]=u[0].add(e[3*t][3*n]),e[3*t][3*n+2]=u[1].add(e[3*t][3*n]),e[3*t][3*n+3]=u[2].add(e[3*t][3*n])):1===i?(e[3*t+1][3*n+3]=u[0].add(e[3*t][3*n+3]),e[3*t+2][3*n+3]=u[1].add(e[3*t][3*n+3]),e[3*t+3][3*n+3]=u[2].add(e[3*t][3*n+3])):2===i?(e[3*t+3][3*n+2]=u[0].add(e[3*t+3][3*n+3]),e[3*t+3][3*n+1]=u[1].add(e[3*t+3][3*n+3]),0===n&amp;&amp;(e[3*t+3][3*n+0]=u[2].add(e[3*t+3][3*n+3]))):(e[3*t+2][3*n]=u[0].add(e[3*t+3][3*n]),e[3*t+1][3*n]=u[1].add(e[3*t+3][3*n]));break;case&quot;C&quot;:0===i?(e[3*t][3*n+1]=u[0],e[3*t][3*n+2]=u[1],e[3*t][3*n+3]=u[2]):1===i?(e[3*t+1][3*n+3]=u[0],e[3*t+2][3*n+3]=u[1],e[3*t+3][3*n+3]=u[2]):2===i?(e[3*t+3][3*n+2]=u[0],e[3*t+3][3*n+1]=u[1],0===n&amp;&amp;(e[3*t+3][3*n+0]=u[2])):(e[3*t+2][3*n]=u[0],e[3*t+1][3*n]=u[1]);break;default:console.error(&quot;mesh.js: &quot;+c+&quot; invalid path type.&quot;)}if(0===t&amp;&amp;0===n||r&gt;0){let e=window.getComputedStyle(o[r]).stopColor.match(/^rgb\s*\(\s*(\d+)\s*,\s*(\d+)\s*,\s*(\d+)\s*\)$/i),a=window.getComputedStyle(o[r]).stopOpacity,h=255;a&amp;&amp;(h=Math.floor(255*a)),e&amp;&amp;(0===i?(s[t][n]=[],s[t][n][0]=Math.floor(e[1]),s[t][n][1]=Math.floor(e[2]),s[t][n][2]=Math.floor(e[3]),s[t][n][3]=h):1===i?(s[t][n+1]=[],s[t][n+1][0]=Math.floor(e[1]),s[t][n+1][1]=Math.floor(e[2]),s[t][n+1][2]=Math.floor(e[3]),s[t][n+1][3]=h):2===i?(s[t+1][n+1]=[],s[t+1][n+1][0]=Math.floor(e[1]),s[t+1][n+1][1]=Math.floor(e[2]),s[t+1][n+1][2]=Math.floor(e[3]),s[t+1][n+1][3]=h):3===i&amp;&amp;(s[t+1][n]=[],s[t+1][n][0]=Math.floor(e[1]),s[t+1][n][1]=Math.floor(e[2]),s[t+1][n][2]=Math.floor(e[3]),s[t+1][n][3]=h))}}e[3*t+1][3*n+1]=new x,e[3*t+1][3*n+2]=new x,e[3*t+2][3*n+1]=new x,e[3*t+2][3*n+2]=new x,e[3*t+1][3*n+1].x=(-4*e[3*t][3*n].x+6*(e[3*t][3*n+1].x+e[3*t+1][3*n].x)+-2*(e[3*t][3*n+3].x+e[3*t+3][3*n].x)+3*(e[3*t+3][3*n+1].x+e[3*t+1][3*n+3].x)+-1*e[3*t+3][3*n+3].x)/9,e[3*t+1][3*n+2].x=(-4*e[3*t][3*n+3].x+6*(e[3*t][3*n+2].x+e[3*t+1][3*n+3].x)+-2*(e[3*t][3*n].x+e[3*t+3][3*n+3].x)+3*(e[3*t+3][3*n+2].x+e[3*t+1][3*n].x)+-1*e[3*t+3][3*n].x)/9,e[3*t+2][3*n+1].x=(-4*e[3*t+3][3*n].x+6*(e[3*t+3][3*n+1].x+e[3*t+2][3*n].x)+-2*(e[3*t+3][3*n+3].x+e[3*t][3*n].x)+3*(e[3*t][3*n+1].x+e[3*t+2][3*n+3].x)+-1*e[3*t][3*n+3].x)/9,e[3*t+2][3*n+2].x=(-4*e[3*t+3][3*n+3].x+6*(e[3*t+3][3*n+2].x+e[3*t+2][3*n+3].x)+-2*(e[3*t+3][3*n].x+e[3*t][3*n+3].x)+3*(e[3*t][3*n+2].x+e[3*t+2][3*n].x)+-1*e[3*t][3*n].x)/9,e[3*t+1][3*n+1].y=(-4*e[3*t][3*n].y+6*(e[3*t][3*n+1].y+e[3*t+1][3*n].y)+-2*(e[3*t][3*n+3].y+e[3*t+3][3*n].y)+3*(e[3*t+3][3*n+1].y+e[3*t+1][3*n+3].y)+-1*e[3*t+3][3*n+3].y)/9,e[3*t+1][3*n+2].y=(-4*e[3*t][3*n+3].y+6*(e[3*t][3*n+2].y+e[3*t+1][3*n+3].y)+-2*(e[3*t][3*n].y+e[3*t+3][3*n+3].y)+3*(e[3*t+3][3*n+2].y+e[3*t+1][3*n].y)+-1*e[3*t+3][3*n].y)/9,e[3*t+2][3*n+1].y=(-4*e[3*t+3][3*n].y+6*(e[3*t+3][3*n+1].y+e[3*t+2][3*n].y)+-2*(e[3*t+3][3*n+3].y+e[3*t][3*n].y)+3*(e[3*t][3*n+1].y+e[3*t+2][3*n+3].y)+-1*e[3*t][3*n+3].y)/9,e[3*t+2][3*n+2].y=(-4*e[3*t+3][3*n+3].y+6*(e[3*t+3][3*n+2].y+e[3*t+2][3*n+3].y)+-2*(e[3*t+3][3*n].y+e[3*t][3*n+3].y)+3*(e[3*t][3*n+2].y+e[3*t+2][3*n].y)+-1*e[3*t][3*n].y)/9}}this.nodes=e,this.colors=s}paintMesh(t,e){let s=(this.nodes.length-1)/3,r=(this.nodes[0].length-1)/3;if(&quot;bilinear&quot;===this.type||s&lt;2||r&lt;2){let n;for(let o=0;o&lt;s;++o)for(let s=0;s&lt;r;++s){let r=[];for(let t=3*o,e=3*o+4;t&lt;e;++t)r.push(this.nodes[t].slice(3*s,3*s+4));let i=[];i.push(this.colors[o].slice(s,s+2)),i.push(this.colors[o+1].slice(s,s+2)),(n=new m(r,i)).paint(t,e)}}else{let n,o,a,h,l,d,u;const x=s,g=r;s++,r++;let w=new Array(s);for(let t=0;t&lt;s;++t){w[t]=new Array(r);for(let e=0;e&lt;r;++e)w[t][e]=[],w[t][e][0]=this.nodes[3*t][3*e],w[t][e][1]=this.colors[t][e]}for(let t=0;t&lt;s;++t)for(let e=0;e&lt;r;++e)0!==t&amp;&amp;t!==x&amp;&amp;(n=i(w[t-1][e][0],w[t][e][0]),o=i(w[t+1][e][0],w[t][e][0]),w[t][e][2]=c(w[t-1][e][1],w[t][e][1],w[t+1][e][1],n,o)),0!==e&amp;&amp;e!==g&amp;&amp;(n=i(w[t][e-1][0],w[t][e][0]),o=i(w[t][e+1][0],w[t][e][0]),w[t][e][3]=c(w[t][e-1][1],w[t][e][1],w[t][e+1][1],n,o));for(let t=0;t&lt;r;++t){w[0][t][2]=[],w[x][t][2]=[];for(let e=0;e&lt;4;++e)n=i(w[1][t][0],w[0][t][0]),o=i(w[x][t][0],w[x-1][t][0]),w[0][t][2][e]=n&gt;0?2*(w[1][t][1][e]-w[0][t][1][e])/n-w[1][t][2][e]:0,w[x][t][2][e]=o&gt;0?2*(w[x][t][1][e]-w[x-1][t][1][e])/o-w[x-1][t][2][e]:0}for(let t=0;t&lt;s;++t){w[t][0][3]=[],w[t][g][3]=[];for(let e=0;e&lt;4;++e)n=i(w[t][1][0],w[t][0][0]),o=i(w[t][g][0],w[t][g-1][0]),w[t][0][3][e]=n&gt;0?2*(w[t][1][1][e]-w[t][0][1][e])/n-w[t][1][3][e]:0,w[t][g][3][e]=o&gt;0?2*(w[t][g][1][e]-w[t][g-1][1][e])/o-w[t][g-1][3][e]:0}for(let s=0;s&lt;x;++s)for(let r=0;r&lt;g;++r){let n=i(w[s][r][0],w[s+1][r][0]),o=i(w[s][r+1][0],w[s+1][r+1][0]),c=i(w[s][r][0],w[s][r+1][0]),x=i(w[s+1][r][0],w[s+1][r+1][0]),g=[[],[],[],[]];for(let t=0;t&lt;4;++t){(d=[])[0]=w[s][r][1][t],d[1]=w[s+1][r][1][t],d[2]=w[s][r+1][1][t],d[3]=w[s+1][r+1][1][t],d[4]=w[s][r][2][t]*n,d[5]=w[s+1][r][2][t]*n,d[6]=w[s][r+1][2][t]*o,d[7]=w[s+1][r+1][2][t]*o,d[8]=w[s][r][3][t]*c,d[9]=w[s+1][r][3][t]*x,d[10]=w[s][r+1][3][t]*c,d[11]=w[s+1][r+1][3][t]*x,d[12]=0,d[13]=0,d[14]=0,d[15]=0,u=f(d);for(let e=0;e&lt;9;++e){g[t][e]=[];for(let s=0;s&lt;9;++s)g[t][e][s]=p(u,e/8,s/8),g[t][e][s]&gt;255?g[t][e][s]=255:g[t][e][s]&lt;0&amp;&amp;(g[t][e][s]=0)}}h=[];for(let t=3*s,e=3*s+4;t&lt;e;++t)h.push(this.nodes[t].slice(3*r,3*r+4));l=y(h);for(let s=0;s&lt;8;++s)for(let r=0;r&lt;8;++r)(a=new m(l[s][r],[[[g[0][s][r],g[1][s][r],g[2][s][r],g[3][s][r]],[g[0][s][r+1],g[1][s][r+1],g[2][s][r+1],g[3][s][r+1]]],[[g[0][s+1][r],g[1][s+1][r],g[2][s+1][r],g[3][s+1][r]],[g[0][s+1][r+1],g[1][s+1][r+1],g[2][s+1][r+1],g[3][s+1][r+1]]]])).paint(t,e)}}}transform(t){if(t instanceof x)for(let e=0,s=this.nodes.length;e&lt;s;++e)for(let s=0,r=this.nodes[0].length;s&lt;r;++s)this.nodes[e][s]=this.nodes[e][s].add(t);else if(t instanceof g)for(let e=0,s=this.nodes.length;e&lt;s;++e)for(let s=0,r=this.nodes[0].length;s&lt;r;++s)this.nodes[e][s]=this.nodes[e][s].transform(t)}scale(t){for(let e=0,s=this.nodes.length;e&lt;s;++e)for(let s=0,r=this.nodes[0].length;s&lt;r;++s)this.nodes[e][s]=this.nodes[e][s].scale(t)}}document.querySelectorAll(&quot;rect,circle,ellipse,path,text&quot;).forEach((r,n)=&gt;{let o=r.getAttribute(&quot;id&quot;);o||(o=&quot;patchjs_shape&quot;+n,r.setAttribute(&quot;id&quot;,o));const i=r.style.fill.match(/^url\(\s*&quot;?\s*#([^\s&quot;]+)&quot;?\s*\)/),a=r.style.stroke.match(/^url\(\s*&quot;?\s*#([^\s&quot;]+)&quot;?\s*\)/);if(i&amp;&amp;i[1]){const a=document.getElementById(i[1]);if(a&amp;&amp;&quot;meshgradient&quot;===a.nodeName){const i=r.getBBox();let l=document.createElementNS(s,&quot;canvas&quot;);d(l,{width:i.width,height:i.height});const c=l.getContext(&quot;2d&quot;);let u=c.createImageData(i.width,i.height);const f=new b(a);&quot;objectBoundingBox&quot;===a.getAttribute(&quot;gradientUnits&quot;)&amp;&amp;f.scale(new x(i.width,i.height));const p=a.getAttribute(&quot;gradientTransform&quot;);null!=p&amp;&amp;f.transform(h(p)),&quot;userSpaceOnUse&quot;===a.getAttribute(&quot;gradientUnits&quot;)&amp;&amp;f.transform(new x(-i.x,-i.y)),f.paintMesh(u.data,l.width),c.putImageData(u,0,0);const y=document.createElementNS(t,&quot;image&quot;);d(y,{width:i.width,height:i.height,x:i.x,y:i.y});let g=l.toDataURL();y.setAttributeNS(e,&quot;xlink:href&quot;,g),r.parentNode.insertBefore(y,r),r.style.fill=&quot;none&quot;;const w=document.createElementNS(t,&quot;use&quot;);w.setAttributeNS(e,&quot;xlink:href&quot;,&quot;#&quot;+o);const m=&quot;patchjs_clip&quot;+n,M=document.createElementNS(t,&quot;clipPath&quot;);M.setAttribute(&quot;id&quot;,m),M.appendChild(w),r.parentElement.insertBefore(M,r),y.setAttribute(&quot;clip-path&quot;,&quot;url(#&quot;+m+&quot;)&quot;),u=null,l=null,g=null}}if(a&amp;&amp;a[1]){const o=document.getElementById(a[1]);if(o&amp;&amp;&quot;meshgradient&quot;===o.nodeName){const i=parseFloat(r.style.strokeWidth.slice(0,-2))*(parseFloat(r.style.strokeMiterlimit)||parseFloat(r.getAttribute(&quot;stroke-miterlimit&quot;))||1),a=r.getBBox(),l=Math.trunc(a.width+i),c=Math.trunc(a.height+i),u=Math.trunc(a.x-i/2),f=Math.trunc(a.y-i/2);let p=document.createElementNS(s,&quot;canvas&quot;);d(p,{width:l,height:c});const y=p.getContext(&quot;2d&quot;);let g=y.createImageData(l,c);const w=new b(o);&quot;objectBoundingBox&quot;===o.getAttribute(&quot;gradientUnits&quot;)&amp;&amp;w.scale(new x(l,c));const m=o.getAttribute(&quot;gradientTransform&quot;);null!=m&amp;&amp;w.transform(h(m)),&quot;userSpaceOnUse&quot;===o.getAttribute(&quot;gradientUnits&quot;)&amp;&amp;w.transform(new x(-u,-f)),w.paintMesh(g.data,p.width),y.putImageData(g,0,0);const M=document.createElementNS(t,&quot;image&quot;);d(M,{width:l,height:c,x:0,y:0});let S=p.toDataURL();M.setAttributeNS(e,&quot;xlink:href&quot;,S);const k=&quot;pattern_clip&quot;+n,A=document.createElementNS(t,&quot;pattern&quot;);d(A,{id:k,patternUnits:&quot;userSpaceOnUse&quot;,width:l,height:c,x:u,y:f}),A.appendChild(M),o.parentNode.appendChild(A),r.style.stroke=&quot;url(#&quot;+k+&quot;)&quot;,g=null,p=null,S=null}}})}();
</script></svg>
