<?xml version="1.0" encoding="UTF-8" standalone="no"?>
<!-- Created with Inkscape (http://www.inkscape.org/) -->

<svg
   width="200"
   height="201.17665"
   viewBox="0 0 52.916666 53.227988"
   version="1.1"
   id="svg1"
   inkscape:version="1.4.2 (f4327f4, 2025-05-13)"
   sodipodi:docname="CornerPhasing.svg"
   xmlns:inkscape="http://www.inkscape.org/namespaces/inkscape"
   xmlns:sodipodi="http://sodipodi.sourceforge.net/DTD/sodipodi-0.dtd"
   xmlns:xlink="http://www.w3.org/1999/xlink"
   xmlns="http://www.w3.org/2000/svg"
   xmlns:svg="http://www.w3.org/2000/svg">
  <sodipodi:namedview
     id="namedview1"
     pagecolor="#ffffff"
     bordercolor="#000000"
     borderopacity="0.25"
     inkscape:showpageshadow="2"
     inkscape:pageopacity="0.0"
     inkscape:pagecheckerboard="0"
     inkscape:deskcolor="#d1d1d1"
     inkscape:document-units="mm"
     inkscape:zoom="4.543042"
     inkscape:cx="11.666192"
     inkscape:cy="133.28074"
     inkscape:window-width="3840"
     inkscape:window-height="2054"
     inkscape:window-x="-11"
     inkscape:window-y="-11"
     inkscape:window-maximized="1"
     inkscape:current-layer="layer1"
     showgrid="true">
    <inkscape:grid
       id="grid1"
       units="mm"
       originx="0"
       originy="0"
       spacingx="0.99999999"
       spacingy="0.99999998"
       empcolor="#0099e5"
       empopacity="0.30196078"
       color="#0099e5"
       opacity="0.14901961"
       empspacing="5"
       enabled="true"
       visible="true" />
  </sodipodi:namedview>
  <defs
     id="defs1">
    <linearGradient
       id="linearGradient23"
       inkscape:collect="always">
      <stop
         style="stop-color:#0b6c04;stop-opacity:0.4623656;"
         offset="0"
         id="stop22" />
      <stop
         style="stop-color:#9ef38e;stop-opacity:0.28434888;"
         offset="0.55106169"
         id="stop23" />
    </linearGradient>
    <linearGradient
       id="linearGradient21"
       inkscape:collect="always">
      <stop
         style="stop-color:#0b6c04;stop-opacity:0.4623656;"
         offset="0"
         id="stop20" />
      <stop
         style="stop-color:#9ef38e;stop-opacity:0.34647551;"
         offset="0.55106169"
         id="stop21" />
    </linearGradient>
    <linearGradient
       id="linearGradient17"
       inkscape:collect="always">
      <stop
         style="stop-color:#0b6c04;stop-opacity:0.4623656;"
         offset="0"
         id="stop18" />
      <stop
         style="stop-color:#9ef38e;stop-opacity:0.32019114;"
         offset="0.55106169"
         id="stop19" />
    </linearGradient>
    <linearGradient
       id="linearGradient8"
       inkscape:collect="always">
      <stop
         style="stop-color:#669c6a;stop-opacity:1;"
         offset="0"
         id="stop8" />
      <stop
         style="stop-color:#436146;stop-opacity:1;"
         offset="1"
         id="stop9" />
    </linearGradient>
    <inkscape:path-effect
       effect="fillet_chamfer"
       id="path-effect5"
       is_visible="true"
       lpeversion="1"
       nodesatellites_param="F,0,0,1,0,0,0,1 @ F,0,0,1,0,2.0496102,0,1 @ F,0,0,1,0,0,0,1"
       radius="0"
       unit="px"
       method="auto"
       mode="F"
       chamfer_steps="1"
       flexible="false"
       use_knot_distance="true"
       apply_no_radius="true"
       apply_with_radius="true"
       only_selected="false"
       hide_knots="false" />
    <inkscape:path-effect
       effect="fillet_chamfer"
       id="path-effect28"
       is_visible="true"
       lpeversion="1"
       nodesatellites_param="F,0,0,1,0,0,0,1 @ F,0,0,1,0,0,0,1 @ F,0,0,1,0,0,0,1 @ F,0,0,1,0,0,0,1 @ F,0,0,1,0,0,0,1 @ F,0,0,1,0,0,0,1 @ F,0,0,1,0,0,0,1 @ F,0,0,1,0,0,0,1 @ F,0,0,1,0,0,0,1 @ F,0,0,1,0,0,0,1 @ F,0,0,1,0,0,0,1 @ F,0,0,1,0,0,0,1 | F,0,0,1,0,0,0,1 @ F,0,0,1,0,0,0,1 @ F,0,0,1,0,0,0,1 @ F,0,0,1,0,0,0,1 @ F,0,0,1,0,0,0,1 @ F,0,0,1,0,0,0,1 @ F,0,0,1,0,0,0,1 @ F,0,0,1,0,0,0,1 @ F,0,0,1,0,0,0,1 @ F,0,0,1,0,0,0,1 @ F,0,0,1,0,0,0,1"
       radius="0"
       unit="px"
       method="auto"
       mode="F"
       chamfer_steps="1"
       flexible="false"
       use_knot_distance="true"
       apply_no_radius="true"
       apply_with_radius="true"
       only_selected="false"
       hide_knots="false" />
    <linearGradient
       id="linearGradient13"
       inkscape:collect="always">
      <stop
         style="stop-color:#94f0b4;stop-opacity:1;"
         offset="0"
         id="stop13" />
      <stop
         style="stop-color:#51a351;stop-opacity:1;"
         offset="1"
         id="stop14" />
    </linearGradient>
    <inkscape:path-effect
       effect="powerstroke"
       message=""
       id="path-effect4"
       is_visible="true"
       lpeversion="1.3"
       scale_width="1"
       interpolator_type="CentripetalCatmullRom"
       interpolator_beta="0.75"
       start_linecap_type="round"
       end_linecap_type="round"
       offset_points="10.839744,0.43679433"
       linejoin_type="spiro"
       miter_limit="4"
       not_jump="true"
       sort_points="true" />
    <inkscape:path-effect
       effect="simplify"
       id="path-effect3"
       is_visible="true"
       lpeversion="1.3"
       threshold="0.012"
       steps="1"
       smooth_angles="0"
       helper_size="0"
       simplify_individual_paths="false"
       simplify_just_coalesce="false"
       step="1" />
    <linearGradient
       inkscape:collect="always"
       xlink:href="#linearGradient13"
       id="linearGradient14"
       x1="6.12362"
       y1="16.681654"
       x2="26.722704"
       y2="16.681654"
       gradientUnits="userSpaceOnUse"
       gradientTransform="matrix(1.161292,0,0,1.2772027,7.586893,-15.899273)" />
    <linearGradient
       inkscape:collect="always"
       xlink:href="#linearGradient13"
       id="linearGradient15"
       gradientUnits="userSpaceOnUse"
       x1="6.12362"
       y1="16.681654"
       x2="26.722704"
       y2="16.681654"
       gradientTransform="matrix(1.161292,0,0,-1.2772027,7.5868915,25.379768)" />
    <inkscape:path-effect
       effect="fillet_chamfer"
       id="path-effect5-4"
       is_visible="true"
       lpeversion="1"
       nodesatellites_param="F,0,0,1,0,0,0,1 @ F,0,0,1,0,2.0496102,0,1 @ F,0,0,1,0,0,0,1"
       radius="0"
       unit="px"
       method="auto"
       mode="F"
       chamfer_steps="1"
       flexible="false"
       use_knot_distance="true"
       apply_no_radius="true"
       apply_with_radius="true"
       only_selected="false"
       hide_knots="false" />
    <inkscape:path-effect
       effect="fillet_chamfer"
       id="path-effect5-4-5"
       is_visible="true"
       lpeversion="1"
       nodesatellites_param="F,0,0,1,0,0,0,1 @ F,0,0,1,0,2.0496102,0,1 @ F,0,0,1,0,0,0,1"
       radius="0"
       unit="px"
       method="auto"
       mode="F"
       chamfer_steps="1"
       flexible="false"
       use_knot_distance="true"
       apply_no_radius="true"
       apply_with_radius="true"
       only_selected="false"
       hide_knots="false" />
    <linearGradient
       inkscape:collect="always"
       xlink:href="#linearGradient8"
       id="linearGradient9"
       x1="35.733089"
       y1="42.329052"
       x2="46.220989"
       y2="42.329052"
       gradientUnits="userSpaceOnUse" />
    <radialGradient
       inkscape:collect="always"
       xlink:href="#linearGradient23"
       id="radialGradient19"
       cx="32.218514"
       cy="22.47473"
       fx="32.218514"
       fy="22.47473"
       r="3.3356905"
       gradientTransform="matrix(1.2149837,0,0,1.1512345,-6.9264563,-3.3989551)"
       gradientUnits="userSpaceOnUse" />
    <filter
       inkscape:collect="always"
       style="color-interpolation-filters:sRGB"
       id="filter19"
       x="-0.11291425"
       y="-0.11916684"
       width="1.2258285"
       height="1.2383337">
      <feGaussianBlur
         inkscape:collect="always"
         stdDeviation="0.15218331"
         id="feGaussianBlur19" />
    </filter>
    <radialGradient
       inkscape:collect="always"
       xlink:href="#linearGradient21"
       id="radialGradient19-2"
       cx="32.218513"
       cy="22.47473"
       fx="32.218513"
       fy="22.47473"
       r="3.3356905"
       gradientTransform="matrix(1.2149837,0,0,1.1512345,-6.9264563,-3.3989551)"
       gradientUnits="userSpaceOnUse" />
    <filter
       inkscape:collect="always"
       style="color-interpolation-filters:sRGB"
       id="filter19-2"
       x="-0.11291425"
       y="-0.11916684"
       width="1.2258285"
       height="1.2383337">
      <feGaussianBlur
         inkscape:collect="always"
         stdDeviation="0.15218331"
         id="feGaussianBlur19-1" />
    </filter>
    <radialGradient
       inkscape:collect="always"
       xlink:href="#linearGradient17"
       id="radialGradient19-1"
       cx="32.218513"
       cy="22.47473"
       fx="32.218513"
       fy="22.47473"
       r="3.3356905"
       gradientTransform="matrix(1.2149837,0,0,1.1512345,-6.9264563,-3.3989551)"
       gradientUnits="userSpaceOnUse" />
    <filter
       inkscape:collect="always"
       style="color-interpolation-filters:sRGB"
       id="filter19-27"
       x="-0.11291425"
       y="-0.11916684"
       width="1.2258285"
       height="1.2383337">
      <feGaussianBlur
         inkscape:collect="always"
         stdDeviation="0.15218331"
         id="feGaussianBlur19-9" />
    </filter>
  </defs>
  <g
     inkscape:label="Ebene 1"
     inkscape:groupmode="layer"
     id="layer1"
     transform="translate(-0.20000279)">
    <path
       id="path5"
       style="fill:#c6f4ce;fill-opacity:0;stroke:#213222;stroke-width:1.4;stroke-linecap:round;stroke-linejoin:round"
       d="m 46.199999,45.000004 a 4.2418885,5 0 0 1 -4.241888,5 4.2418885,5 0 0 1 -4.241889,-5 4.2418885,5 0 0 1 4.241889,-5 4.2418885,5 0 0 1 4.241888,5 z" />
    <rect
       style="fill:#7ad97e;fill-opacity:1;stroke:#212532;stroke-width:1.29973;stroke-linejoin:round;stroke-miterlimit:8.2;stroke-dasharray:none;stroke-opacity:0.995995"
       id="rect1"
       width="51.616936"
       height="51.616943"
       x="0.84986776"
       y="0.96118188"
       ry="5.9818354"
       rx="19.15794" />
    <rect
       style="fill:#c6f4ce;fill-opacity:1;stroke:#212532;stroke-width:0.689558;stroke-linejoin:round;stroke-miterlimit:8.2;stroke-dasharray:none;stroke-opacity:0.995995"
       id="rect1-8"
       width="45.94006"
       height="45.940067"
       x="3.6883085"
       y="3.7996202"
       ry="5.3239479"
       rx="17.050934" />
    <path
       d="m 31.768804,1.646733 c 3.497013,0.1186272 6.234585,3.9145352 6.234585,3.9145352 l -1.264438,-0.00996 c 0,0 -2.427355,-2.2412109 -4.916736,-2.3047646 -2.157002,-0.05506 -3.895059,1.6391875 -4.363635,2.1174042 L 27.190688,5.6714373 C 20.816299,13.667645 15.28907,5.457585 15.28907,5.457585 l 1.264441,0.00996 c 0,0 2.426755,2.2412111 4.916136,2.3047646 2.295402,0.058598 4.000244,-1.6336916 4.298454,-1.9500407 l 0.519671,-0.5771306 c 1.964514,-3.029959 3.649264,-3.6605458 5.481032,-3.5984073 z"
       style="fill:url(#linearGradient14);fill-opacity:1;stroke:#212532;stroke-width:0.621112;stroke-opacity:0.995995"
       id="path9-3"
       sodipodi:nodetypes="scccccccsccs" />
    <path
       d="m 31.768804,7.8337617 c 3.497013,-0.1186273 6.234585,-3.9145353 6.234585,-3.9145353 l -1.264438,0.00996 c 0,0 -2.427355,2.2412109 -4.916736,2.3047646 C 29.665213,6.289011 27.927156,4.5947635 27.45858,4.1165469 L 27.190688,3.8090574 C 20.816299,-4.1871501 15.28907,4.0229096 15.28907,4.0229096 l 1.264441,-0.00996 c 0,0 2.426755,-2.2412111 4.916136,-2.3047646 2.295402,-0.058598 4.000244,1.6336916 4.298454,1.9500407 l 0.519671,0.5771308 c 1.964514,3.0299589 3.649264,3.6605458 5.481032,3.5984072 z"
       style="fill:url(#linearGradient15);fill-opacity:1;stroke:#212532;stroke-width:0.621112;stroke-opacity:0.995995"
       id="path9-3-3"
       sodipodi:nodetypes="scccccccsccs" />
    <path
       d="m 31.769095,1.6465068 c -1.511737,-0.051279 -2.839989,0.2515361 -4.39136,2.103259 0.372094,0.186446 0.609798,0.5761205 0.853687,0.9096991 0.809839,-0.654021 2.100755,-1.4511295 3.591084,-1.413088 2.489381,0.063554 4.916736,2.3047645 4.916736,2.3047645 l 1.264442,0.00996 c 0,0 -2.737577,-3.7959088 -6.234589,-3.9145354 z"
       style="fill:#63b166;fill-opacity:1;stroke:#212532;stroke-width:0.621112;stroke-opacity:0.995995"
       id="path18"
       sodipodi:nodetypes="cccccccc" />
    <path
       id="rect18"
       style="fill:#3e6f40;fill-opacity:1;stroke:#212532;stroke-width:0.37754;stroke-opacity:0.995995"
       d="M 18.91538,2.4362141 20.031319,2.0085095 20.098952,7.5314708 18.91538,7.0479794 Z"
       sodipodi:nodetypes="ccccc" />
    <path
       id="rect18-0"
       style="fill:#63b166;stroke:#212532;stroke-width:0.37754;stroke-opacity:0.995995"
       d="m 21.487254,1.744674 1.115941,0.1301691 v 5.7368125 l -1.115941,0.1115776 z"
       sodipodi:nodetypes="ccccc" />
    <path
       id="rect18-2"
       style="fill:#3e6f40;fill-opacity:1;stroke:#212532;stroke-width:0.398684;stroke-opacity:0.995995"
       d="m 23.988275,2.3066227 1.178438,0.7854924 v 3.3088897 l -1.178438,0.7756746 z"
       sodipodi:nodetypes="ccccc" />
    <path
       id="rect18-5"
       style="fill:#3e6f40;fill-opacity:1;stroke:#212532;stroke-width:0.37754;stroke-opacity:0.995995"
       d="M 30.183717,3.5319134 31.299656,3.318061 V 6.3119901 L 30.183717,6.0144569 Z"
       sodipodi:nodetypes="ccccc" />
    <path
       id="rect18-20"
       style="fill:#63b166;stroke:#212532;stroke-width:0.37754;stroke-opacity:0.995995"
       d="m 33.020778,3.4418846 1.115941,0.3998105 v 1.7851984 l -1.115941,0.4091084 z"
       sodipodi:nodetypes="ccccc" />
    <path
       style="fill:#3e6f40;fill-opacity:1;stroke:none;stroke-width:1.17165;stroke-dasharray:none;stroke-opacity:0.995995"
       d="M 50.489298,39.566 45.619213,51.204677"
       id="path24" />
    <g
       id="g5"
       transform="matrix(0.92953657,0,0,0.92953657,-1.2235925,1.6439199)">
      <g
         id="path1"
         style="opacity:1">
        <path
           style="baseline-shift:baseline;display:inline;overflow:visible;vector-effect:none;fill:#c6f4ce;stroke-linecap:round;stroke-linejoin:round;enable-background:accumulate;stop-color:#000000;stop-opacity:1"
           d="M 45.200003,41.999999 V 32 H 35.200004 V 22 h 9.999999 V 12 h -9.999999 l -10e-7,10 H 25.200004 V 12 h -10 v 20 h 20 v 9.999999 h -20 V 32 H 9.2000041"
           id="path2" />
        <path
           style="baseline-shift:baseline;display:inline;overflow:visible;fill:#669c6a;stroke:#213222;stroke-width:1.4;stroke-linecap:round;stroke-linejoin:round;stroke-dasharray:none;stroke-opacity:1;enable-background:accumulate;stop-color:#000000;stop-opacity:1"
           d="M 15.199219,9.9492188 A 2.050205,2.050205 0 0 0 13.150391,12 V 29.949219 H 9.1992188 A 2.05,2.05 0 0 0 7.1503906,32 2.05,2.05 0 0 0 9.1992188,34.050781 H 13.150391 V 42 a 2.050205,2.050205 0 0 0 2.048828,2.050781 h 20 A 2.050205,2.050205 0 0 0 37.25,42 v -7.949219 h 5.900391 V 42 A 2.05,2.05 0 0 0 45.199219,44.050781 2.05,2.05 0 0 0 47.25,42 V 32 A 2.050205,2.050205 0 0 0 45.199219,29.949219 H 37.25 v -5.898438 h 7.949219 A 2.050205,2.050205 0 0 0 47.25,22 V 12 A 2.050205,2.050205 0 0 0 45.199219,9.9492188 h -10 A 2.050205,2.050205 0 0 0 33.150391,12 v 7.949219 H 27.25 V 12 A 2.050205,2.050205 0 0 0 25.199219,9.9492188 Z M 17.25,14.050781 h 5.900391 V 22 a 2.050205,2.050205 0 0 0 2.048828,2.050781 h 7.951172 v 5.898438 H 17.25 Z m 20,0 h 5.900391 v 5.898438 H 37.25 Z m -20,20 h 15.900391 v 5.898438 H 17.25 Z"
           id="path3" />
      </g>
      <path
         style="fill:#c6f4ce;fill-opacity:0;stroke:#213222;stroke-width:1.4;stroke-linecap:round;stroke-linejoin:round;stroke-dasharray:none;stroke-opacity:1"
         d="m 33.200003,24 -0.02451,-2.001324 a 2.0246623,2.0246623 134.64917 0 1 2.02451,-2.049457 h 2.050001"
         id="path4"
         transform="rotate(-90,40.238063,27)" />
      <path
         style="fill:#c6f4ce;fill-opacity:0;stroke:#213222;stroke-width:1.4;stroke-linecap:round;stroke-linejoin:round;stroke-dasharray:none;stroke-opacity:1"
         d="m 33.200003,24 -0.02451,-2.001324 a 2.0246623,2.0246623 134.64917 0 1 2.02451,-2.049457 h 2.050001"
         id="path4-2" />
      <path
         style="fill:#c6f4ce;fill-opacity:0;stroke:#213222;stroke-width:1.4;stroke-linecap:round;stroke-linejoin:round;stroke-dasharray:none;stroke-opacity:1"
         d="m 33.200003,24 -0.02451,-2.001324 a 2.0246623,2.0246623 134.64917 0 1 2.02451,-2.049457 h 2.050001"
         id="path4-2-1"
         transform="rotate(-90,30.225394,36.97461)" />
    </g>
    <path
       id="path6"
       style="fill:url(#linearGradient9);fill-opacity:1;stroke:#213222;stroke-width:0.953445;stroke-linecap:round;stroke-linejoin:round"
       d="m 45.744266,40.626471 c 0,2.820929 -2.134361,6.810324 -4.767227,6.810324 -2.632866,0 -4.767226,-3.989395 -4.767227,-6.810324 0,-2.400241 2.134361,-3.405162 4.767227,-3.405162 2.632866,0 4.767227,1.032968 4.767227,3.405162 z"
       sodipodi:nodetypes="sssss" />
    <ellipse
       style="fill:#a4faaa;fill-opacity:1;stroke:#b8ffbd;stroke-width:0.752743;stroke-linecap:round;stroke-linejoin:round;stroke-dasharray:none;stroke-opacity:1"
       id="path7"
       cx="10.131082"
       cy="52.504059"
       rx="0.14870349"
       ry="0.84073895"
       transform="matrix(0.94692456,-0.32145587,0.55524068,0.83168972,0,0)" />
    <ellipse
       style="fill:#a4faaa;fill-opacity:1;stroke:#b8ffbd;stroke-width:0.752743;stroke-linecap:round;stroke-linejoin:round;stroke-dasharray:none;stroke-opacity:1"
       id="path7-6"
       cx="-60.352989"
       cy="25.241688"
       rx="0.14870349"
       ry="0.84073895"
       transform="matrix(-0.94692456,-0.32145587,-0.55524068,0.83168972,0,0)" />
    <rect
       style="mix-blend-mode:normal;fill:url(#radialGradient19);stroke:#b8ffbd;stroke-width:1.1;stroke-linecap:round;stroke-linejoin:round;stroke-dasharray:4.4, 4.4;stroke-dashoffset:0;stroke-opacity:1;filter:url(#filter19)"
       id="rect12"
       width="8.1056194"
       height="7.6803241"
       x="28.165705"
       y="18.634567"
       ry="1.7762315"
       transform="matrix(1.0042119,0,0,1.0042119,-0.46515092,-0.25938593)" />
    <rect
       style="mix-blend-mode:normal;fill:url(#radialGradient19-2);stroke:#b8ffbd;stroke-width:1.1;stroke-linecap:round;stroke-linejoin:round;stroke-dasharray:4.4, 4.4;stroke-dashoffset:0;stroke-opacity:1;filter:url(#filter19-2)"
       id="rect12-5"
       width="8.1056194"
       height="7.6803241"
       x="28.165705"
       y="18.634567"
       ry="1.7762315"
       transform="matrix(1.0042119,0,0,1.0042119,-19.420739,8.7284403)" />
    <rect
       style="mix-blend-mode:normal;fill:url(#radialGradient19-1);stroke:#b8ffbd;stroke-width:1.1;stroke-linecap:round;stroke-linejoin:round;stroke-dasharray:4.4, 4.4;stroke-dashoffset:0;stroke-opacity:1;filter:url(#filter19-27)"
       id="rect12-3"
       width="8.1056194"
       height="7.6803241"
       x="28.165705"
       y="18.634567"
       ry="1.7762315"
       transform="matrix(1.0042119,0,0,1.0042119,-0.6075704,8.6406872)" />
  </g>
</svg>
