<?xml version="1.0" encoding="UTF-8" standalone="no"?>
<!-- Created with Inkscape (http://www.inkscape.org/) -->

<svg
   width="200"
   height="201.17665"
   viewBox="0 0 52.916666 53.227988"
   version="1.1"
   id="svg1"
   inkscape:version="1.4.2 (f4327f4, 2025-05-13)"
   sodipodi:docname="Diet1.svg"
   xmlns:inkscape="http://www.inkscape.org/namespaces/inkscape"
   xmlns:sodipodi="http://sodipodi.sourceforge.net/DTD/sodipodi-0.dtd"
   xmlns:xlink="http://www.w3.org/1999/xlink"
   xmlns="http://www.w3.org/2000/svg"
   xmlns:svg="http://www.w3.org/2000/svg">
  <sodipodi:namedview
     id="namedview1"
     pagecolor="#ffffff"
     bordercolor="#000000"
     borderopacity="0.25"
     inkscape:showpageshadow="2"
     inkscape:pageopacity="0.0"
     inkscape:pagecheckerboard="0"
     inkscape:deskcolor="#d1d1d1"
     inkscape:document-units="mm"
     inkscape:zoom="4.543042"
     inkscape:cx="46.774826"
     inkscape:cy="54.038682"
     inkscape:window-width="3840"
     inkscape:window-height="2054"
     inkscape:window-x="-11"
     inkscape:window-y="-11"
     inkscape:window-maximized="1"
     inkscape:current-layer="layer2" />
  <defs
     id="defs1">
    <inkscape:path-effect
       effect="spiro"
       id="path-effect8"
       is_visible="true"
       lpeversion="1" />
    <inkscape:path-effect
       effect="mirror_symmetry"
       start_point="17.255329,9.2448751"
       end_point="17.255329,29.300879"
       center_point="17.255329,19.272877"
       id="path-effect5"
       is_visible="true"
       lpeversion="1.2"
       lpesatellites=""
       mode="free"
       discard_orig_path="false"
       fuse_paths="true"
       oposite_fuse="false"
       split_items="false"
       split_open="false"
       link_styles="false" />
    <inkscape:path-effect
       effect="mirror_symmetry"
       start_point="27.030316,8.4102839"
       end_point="27.030316,28.182973"
       center_point="27.030316,18.296628"
       id="path-effect3"
       is_visible="true"
       lpeversion="1.2"
       lpesatellites=""
       mode="free"
       discard_orig_path="false"
       fuse_paths="false"
       oposite_fuse="false"
       split_items="false"
       split_open="false"
       link_styles="false" />
    <linearGradient
       inkscape:collect="always"
       xlink:href="#linearGradient33"
       id="linearGradient34"
       x1="9.157506"
       y1="0.65352297"
       x2="9.5236139"
       y2="7.639287"
       gradientUnits="userSpaceOnUse" />
    <linearGradient
       id="linearGradient33"
       inkscape:collect="always">
      <stop
         style="stop-color:#ffd1a8;stop-opacity:1;"
         offset="0"
         id="stop33" />
      <stop
         style="stop-color:#a06c34;stop-opacity:1;"
         offset="0.69575757"
         id="stop34" />
    </linearGradient>
    <inkscape:path-effect
       effect="spiro"
       id="path-effect8-8"
       is_visible="true"
       lpeversion="1" />
    <inkscape:path-effect
       effect="spiro"
       id="path-effect8-0"
       is_visible="true"
       lpeversion="1" />
    <inkscape:path-effect
       effect="spiro"
       id="path-effect8-0-9"
       is_visible="true"
       lpeversion="1" />
    <inkscape:path-effect
       effect="spiro"
       id="path-effect8-8-6"
       is_visible="true"
       lpeversion="1" />
    <inkscape:path-effect
       effect="spiro"
       id="path-effect8-3"
       is_visible="true"
       lpeversion="1" />
  </defs>
  <g
     inkscape:label="Ebene 1"
     inkscape:groupmode="layer"
     id="layer1"
     transform="translate(-0.20000279)">
    <rect
       style="fill:#d9a87a;fill-opacity:1;stroke:#212532;stroke-width:1.29973;stroke-linejoin:round;stroke-miterlimit:8.2;stroke-dasharray:none;stroke-opacity:0.995995"
       id="rect1"
       width="51.616936"
       height="51.616943"
       x="0.84986776"
       y="0.96118194"
       ry="5.9818354"
       rx="19.15794" />
    <rect
       style="fill:#f4e9de;fill-opacity:1;stroke:#212532;stroke-width:0.689558;stroke-linejoin:round;stroke-miterlimit:8.2;stroke-dasharray:none;stroke-opacity:0.995995"
       id="rect1-8"
       width="45.94006"
       height="45.940067"
       x="3.6883085"
       y="3.7996202"
       ry="5.3239479"
       rx="17.050934" />
    <path
       sodipodi:type="star"
       style="fill:url(#linearGradient34);fill-opacity:1;fill-rule:nonzero;stroke:#322d21;stroke-width:0.443;stroke-linejoin:round;stroke-miterlimit:8.2;stroke-opacity:0.995995"
       id="path1-5"
       inkscape:flatsided="false"
       sodipodi:sides="5"
       sodipodi:cx="9.3473988"
       sodipodi:cy="4.4553022"
       sodipodi:r1="3.4362388"
       sodipodi:r2="2.3474281"
       sodipodi:arg1="0.9357696"
       sodipodi:arg2="1.5640882"
       inkscape:rounded="0.12173243"
       inkscape:randomized="0"
       d="M 11.385772,7.2216663 C 11.183344,7.3708242 9.6145864,6.8009908 9.3631455,6.8026775 9.1117046,6.8043642 7.5507336,7.3951928 7.3463222,7.2487642 7.1419108,7.1023355 7.1990819,5.4342704 7.1197782,5.1956571 7.0404745,4.9570438 5.9961966,3.6550483 6.0722919,3.4153926 6.1483873,3.1757368 7.7524783,2.7146493 7.9549068,2.5654914 8.1573353,2.4163336 9.0729071,1.0208275 9.324348,1.0191408 c 0.2514409,-0.00169 1.185653,1.3814106 1.390064,1.5278393 0.204411,0.1464286 1.814544,0.585954 1.893847,0.8245673 0.0793,0.2386133 -0.947412,1.5545019 -1.023508,1.7941577 -0.0761,0.2396557 0.0034,1.9068034 -0.198979,2.0559612 z"
       inkscape:transform-center-x="0.082178329"
       inkscape:transform-center-y="-1.0343217"
       transform="matrix(1.2232888,0,0,1.2232888,15.232364,-0.97573803)" />
  </g>
  <g
     inkscape:groupmode="layer"
     id="layer2"
     inkscape:label="Äpfel">
    <g
       id="g19"
       transform="translate(0.29119622)">
      <path
         d="m 39.173836,14.874544 a 10.309234,10.309234 0 0 1 -5.990849,-0.146244 10.309234,10.309234 0 0 1 -5.01003,-3.600814 8.9001138,11.008165 18.293942 0 0 0.08062,-0.04031 l -0.754993,-0.03462 1.576648,1.680518 c 0,0 1.858203,1.354557 1.901693,1.380277 0.04348,0.02573 2.79156,1.208195 2.79156,1.208195 l 2.724382,0.47284 3.822506,-0.373621 z"
         style="fill:#d17b23;stroke:#392c20;stroke-width:1.0315;stroke-linecap:round;stroke-linejoin:round"
         id="path11" />
      <path
         d="m 39.016223,14.560868 -0.175183,-0.348299 -0.936377,0.03669 c 0,0 -1.428049,-0.767081 -1.474329,-0.782381 -0.04628,-0.0153 -0.546219,-1.143082 -0.546219,-1.143082 l -1.397848,0.230993 -1.539441,-0.740006 -0.885217,-1.165821 -1.008207,0.565341 -2.799313,-0.127124 h -5.16e-4 a 8.9001138,11.008165 18.293942 0 1 -0.08062,0.04031 10.309234,10.309234 0 0 0 5.01003,3.600814 10.309234,10.309234 0 0 0 5.990849,0.146244 z"
         style="fill:#d17b23;stroke:#392c20;stroke-width:1.0315;stroke-linecap:round;stroke-linejoin:round"
         id="path10" />
      <path
         d="m 39.1573,4.2338501 c -0.503349,-0.06781 -1.019296,-0.1281655 -1.546676,-0.1808675 -0.447297,1.08564 -0.827737,2.2059003 -1.031978,3.3584513 0,0 0,0 0,0 0.204241,-1.152551 0.584681,-2.2728113 1.031978,-3.3584513 -0.449097,-0.044879 -0.906805,-0.083955 -1.371492,-0.1173055 -0.233735,0.7616986 -0.514132,1.5080455 -0.868681,2.2179525 0,0 0,0 0,0 C 35.725,5.4437226 36.005397,4.6973757 36.239132,3.9356771 35.536965,3.8852833 34.818178,3.8481642 34.085258,3.8256063 a 8.9001138,11.008165 18.293942 0 1 -0.0646,0.1999878 8.9001138,11.008165 18.293942 0 1 -5.766573,7.0615849 l 2.799313,0.127124 1.008207,-0.565341 0.885217,1.165821 1.539441,0.740006 1.397848,-0.230993 c 0,0 0.49994,1.127781 0.546219,1.143082 0.04628,0.0153 1.474329,0.782381 1.474329,0.782381 l 0.936377,-0.03669 0.175183,0.348299 A 8.9001138,11.008165 18.293942 0 1 38.643119,5.5536662 8.9001138,11.008165 18.293942 0 1 39.1573,4.2338501 Z"
         style="opacity:1;fill:#cea882;stroke:#392c20;stroke-width:0.981712;stroke-linecap:round;stroke-linejoin:round"
         id="path9" />
    </g>
    <g
       id="g6"
       transform="translate(-0.05823924,-0.29119622)">
      <path
         d="m 25.895844,18.082667 a 8.9001138,11.008165 18.293942 0 1 0.3765,9.014421 8.9001138,11.008165 18.293942 0 1 -5.847758,7.102088 10.309234,10.309234 0 0 0 5.01008,3.6005 10.309234,10.309234 0 0 0 5.990615,0.146258 8.9001138,11.008165 18.293942 0 1 -0.530578,-9.320689 8.9001138,11.008165 18.293942 0 1 5.804725,-7.080437 10.309234,10.309234 0 0 0 -4.792815,-3.321433 10.309234,10.309234 0 0 0 -6.010769,-0.140708 z"
         style="fill:#cea882;fill-opacity:1;stroke:#392c20;stroke-width:0.981712;stroke-linecap:round;stroke-linejoin:round"
         id="path3-6" />
      <path
         style="fill:#d17b23;fill-opacity:1;stroke:#392c20;stroke-width:1.17172;stroke-linecap:round;stroke-linejoin:round;stroke-dasharray:none;stroke-opacity:1"
         d="m 24.846618,17.75882 2.95024,1.988945 0.472723,1.054696 1.405524,-0.408077 1.67707,0.323421 0.985151,1.018753 c 0,0 1.073631,-0.607642 1.119911,-0.592342 0.04628,0.0153 1.649914,0.25027 1.649914,0.25027 l 0.729762,0.587791 0.661981,-0.33303 1.242361,0.241817 -2.846802,-2.578675 -2.469325,-1.244098 c 0,0 -2.911208,-0.688791 -2.961458,-0.694048 -0.05025,-0.0052 -2.349529,-0.02507 -2.349529,-0.02507 z"
         id="path4-8" />
      <path
         style="fill:#d17b23;fill-opacity:1;stroke:#392c20;stroke-width:1.0315;stroke-linecap:round;stroke-linejoin:round;stroke-dasharray:none;stroke-opacity:1"
         d="m 19.750253,34.124328 3.554396,0.161495 1.008226,-0.565092 0.885321,1.165433 1.53937,0.739936 1.398254,-0.230797 c 0,0 0.499877,1.127846 0.546156,1.143146 0.04628,0.0153 1.473963,0.782488 1.473963,0.782488 l 0.936313,-0.03698 0.333029,0.661983 1.141682,0.54635 -3.822855,0.373679 -2.724278,-0.472914 c 0,0 -2.748093,-1.182178 -2.791575,-1.207909 -0.04349,-0.02572 -1.901478,-1.380325 -1.901478,-1.380325 z"
         id="path4-1-5" />
      <path
         style="fill:#cea882;fill-opacity:1;stroke:#392c20;stroke-width:0.540645;stroke-linecap:round;stroke-linejoin:round;stroke-dasharray:none;stroke-opacity:1"
         d="m 31.911737,23.307958 c 0,0 -1.302707,2.089395 -1.793652,3.213644 -0.555684,1.272499 -1.045863,2.594203 -1.288148,3.961438 -0.212734,1.200471 -0.133063,3.655103 -0.133063,3.655103"
         id="path5-7"
         sodipodi:nodetypes="caac" />
      <path
         style="fill:#cea882;fill-opacity:1;stroke:#392c20;stroke-width:0.540645;stroke-linecap:round;stroke-linejoin:round;stroke-dasharray:none;stroke-opacity:1"
         d="m 29.424045,21.626898 c 0,0 -0.199396,2.454151 -0.475309,3.64949 -0.312297,1.352963 -0.706518,2.706389 -1.326925,3.948617 -0.544734,1.090714 -2.071801,3.014156 -2.071801,3.014156"
         id="path5-2-6"
         sodipodi:nodetypes="caac" />
      <path
         style="fill:#d17b23;fill-opacity:0;stroke:#2e241a;stroke-width:0.899732;stroke-linecap:round;stroke-linejoin:round;stroke-dasharray:none;stroke-opacity:1"
         d="m 31.530678,18.922466 c 0,0 0.598259,-1.067755 1.033728,-1.393197 0.636259,-0.475499 2.103499,-0.665186 2.103499,-0.665186 l 0.320302,0.687481 -1.747654,0.351791 z"
         id="path6-1"
         sodipodi:nodetypes="cac" />
    </g>
    <g
       id="g18"
       transform="translate(0.9471721,-0.45299506)">
      <path
         d="m 24.582479,41.285335 0.523482,-0.312125 1.747697,-0.3514 -0.320394,-0.687813 c 0,0 -1.466971,0.189576 -2.103231,0.665075 -0.136547,0.102048 -0.288986,0.277525 -0.434082,0.469739 0.181894,0.04299 0.294556,0.06925 0.294556,0.06925 z"
         style="fill:#d17b23;fill-opacity:0;stroke:#2e241a;stroke-width:0.899732;stroke-linecap:round;stroke-linejoin:round"
         id="path18" />
      <path
         d="m 18.004586,41.700297 1.65778,1.117245 0.472839,1.054715 1.405599,-0.407727 1.6769,0.323495 0.98547,1.018542 c 0,0 1.065766,-0.602623 1.119828,-0.592212 0.04628,0.0153 1.649512,0.250114 1.649512,0.250114 l 0.730188,0.588078 0.661975,-0.333313 a 8.9001138,11.008165 18.293942 0 1 0.200504,-0.104386 10.309234,10.309234 0 0 0 -4.295861,-3.142961 l -0.872815,0.520382 c 0,0 0.185676,-0.331902 0.425814,-0.682129 a 10.309234,10.309234 0 0 0 -0.05013,-0.01654 10.309234,10.309234 0 0 0 -6.011002,-0.141077 8.9001138,11.008165 18.293942 0 1 0.243396,0.54777 z"
         style="fill:#d17b23;stroke:#392c20;stroke-width:1.17172;stroke-linecap:round;stroke-linejoin:round"
         id="path14" />
      <path
         d="m 23.581506,49.7396 a 8.9001138,11.008165 18.293942 0 1 4.783171,-5.020366 l -0.661975,0.333313 -0.730188,-0.588078 c 0,0 -1.603232,-0.234814 -1.649512,-0.250114 -0.05406,-0.01041 -1.119828,0.592212 -1.119828,0.592212 l -0.98547,-1.018542 -1.6769,-0.323495 -1.405599,0.407727 -0.472839,-1.054715 -1.65778,-1.117245 a 8.9001138,11.008165 18.293942 0 1 0.280086,7.993827 c 0.710809,0.02907 1.435789,0.0444 2.17196,0.04548 0.132851,-0.461421 0.250068,-0.927328 0.357601,-1.393197 0,0 0,0 0,0 -0.107533,0.465869 -0.22475,0.931776 -0.357601,1.393197 0.0275,4e-5 0.05516,0 0.08268,0 h 1.380277 c 0.02131,-0.04943 0.04256,-0.09852 0.06408,-0.147795 0,0 0,0 0,0 -0.02152,0.04928 -0.04277,0.09837 -0.06408,0.147795 z"
         style="fill:#cea882;stroke:#392c20;stroke-width:0.981712;stroke-linecap:round;stroke-linejoin:round"
         id="path12" />
    </g>
  </g>
</svg>
