<?xml version="1.0" encoding="UTF-8" standalone="no"?>
<!-- Created with Inkscape (http://www.inkscape.org/) -->

<svg
   width="130"
   height="130"
   viewBox="0 0 34.395833 34.395833"
   version="1.1"
   id="svg1"
   inkscape:version="1.4.2 (f4327f4, 2025-05-13)"
   sodipodi:docname="DoubleFruit1.svg"
   xmlns:inkscape="http://www.inkscape.org/namespaces/inkscape"
   xmlns:sodipodi="http://sodipodi.sourceforge.net/DTD/sodipodi-0.dtd"
   xmlns:xlink="http://www.w3.org/1999/xlink"
   xmlns="http://www.w3.org/2000/svg"
   xmlns:svg="http://www.w3.org/2000/svg">
  <sodipodi:namedview
     id="namedview1"
     pagecolor="#ffffff"
     bordercolor="#000000"
     borderopacity="0.25"
     inkscape:showpageshadow="2"
     inkscape:pageopacity="0.0"
     inkscape:pagecheckerboard="0"
     inkscape:deskcolor="#d1d1d1"
     inkscape:document-units="mm"
     inkscape:zoom="6.4248316"
     inkscape:cx="50.118045"
     inkscape:cy="55.643482"
     inkscape:window-width="3840"
     inkscape:window-height="2054"
     inkscape:window-x="-11"
     inkscape:window-y="-11"
     inkscape:window-maximized="1"
     inkscape:current-layer="layer1" />
  <defs
     id="defs1">
    <inkscape:path-effect
       effect="spiro"
       id="path-effect8"
       is_visible="true"
       lpeversion="1" />
    <inkscape:path-effect
       effect="mirror_symmetry"
       start_point="17.255329,9.2448751"
       end_point="17.255329,29.300879"
       center_point="17.255329,19.272877"
       id="path-effect5"
       is_visible="true"
       lpeversion="1.2"
       lpesatellites=""
       mode="free"
       discard_orig_path="false"
       fuse_paths="true"
       oposite_fuse="false"
       split_items="false"
       split_open="false"
       link_styles="false" />
    <inkscape:path-effect
       effect="mirror_symmetry"
       start_point="27.030316,8.4102839"
       end_point="27.030316,28.182973"
       center_point="27.030316,18.296628"
       id="path-effect3"
       is_visible="true"
       lpeversion="1.2"
       lpesatellites=""
       mode="free"
       discard_orig_path="false"
       fuse_paths="false"
       oposite_fuse="false"
       split_items="false"
       split_open="false"
       link_styles="false" />
    <linearGradient
       inkscape:collect="always"
       xlink:href="#linearGradient33"
       id="linearGradient34"
       x1="9.157506"
       y1="0.65352297"
       x2="9.5236139"
       y2="7.639287"
       gradientUnits="userSpaceOnUse" />
    <linearGradient
       id="linearGradient33"
       inkscape:collect="always">
      <stop
         style="stop-color:#ffd1a8;stop-opacity:1;"
         offset="0"
         id="stop33" />
      <stop
         style="stop-color:#a06c34;stop-opacity:1;"
         offset="0.69575757"
         id="stop34" />
    </linearGradient>
    <inkscape:path-effect
       effect="spiro"
       id="path-effect8-8"
       is_visible="true"
       lpeversion="1" />
    <inkscape:path-effect
       effect="spiro"
       id="path-effect8-0"
       is_visible="true"
       lpeversion="1" />
    <inkscape:path-effect
       effect="spiro"
       id="path-effect8-0-9"
       is_visible="true"
       lpeversion="1" />
    <inkscape:path-effect
       effect="spiro"
       id="path-effect8-8-6"
       is_visible="true"
       lpeversion="1" />
    <inkscape:path-effect
       effect="spiro"
       id="path-effect8-3"
       is_visible="true"
       lpeversion="1" />
  </defs>
  <g
     inkscape:label="Ebene 1"
     inkscape:groupmode="layer"
     id="layer1">
    <rect
       style="fill:#d9a87a;stroke:#212532;stroke-width:0.835;stroke-linejoin:round;stroke-miterlimit:8.2;stroke-opacity:0.995995;stroke-dasharray:none;fill-opacity:1"
       id="rect1"
       width="33.160828"
       height="33.160831"
       x="0.61750245"
       y="0.61750251"
       ry="3.8429754"
       rx="12.307843" />
    <rect
       style="fill:#f4e9de;stroke:#212532;stroke-width:0.443;stroke-linejoin:round;stroke-miterlimit:8.2;stroke-dasharray:none;stroke-opacity:0.995995;fill-opacity:1"
       id="rect1-8"
       width="29.513771"
       height="29.513775"
       x="2.4410326"
       y="2.4410312"
       ry="3.4203215"
       rx="10.954216" />
    <path
       style="fill:#d97a7a;fill-opacity:0;stroke:#322d21;stroke-width:0.513933;stroke-linejoin:round;stroke-miterlimit:8.2;stroke-opacity:0.995995"
       d="m 8.5116052,13.528523 c 0,0 -0.1528771,-0.328577 -0.2262942,-1.284732 -0.07342,-0.956154 0.5475333,-1.217921 0.5475333,-1.217921"
       id="path9-6-5"
       sodipodi:nodetypes="czc" />
    <path
       id="path8"
       style="fill:#d9a6a6;stroke:#322d21;stroke-width:0.367605;stroke-linejoin:round;stroke-miterlimit:8.2;stroke-opacity:0.995995;fill-opacity:1"
       d="m 29.81858,18.594163 c -0.583559,2.06034 -2.66307,3.50695 -4.644718,3.231095 -1.981648,-0.275852 -3.115021,-2.169713 -2.531462,-4.23005 0.454034,-1.60303 1.980127,-2.692445 3.263057,-2.33823 0.365993,0.101049 0.835867,0.722479 0.835867,0.722479 0,0 0.790885,-0.446784 1.295509,-0.443194 1.55283,0.01104 2.257431,1.378432 1.781747,3.0579 z"
       sodipodi:nodetypes="sssscss" />
    <path
       id="path8-2"
       style="fill:#d6d994;fill-opacity:1;stroke:#322d21;stroke-width:0.367605;stroke-linejoin:round;stroke-miterlimit:8.2;stroke-opacity:0.995995"
       d="m 14.796837,11.557046 c 0.583559,2.06034 2.66307,3.50695 4.644718,3.231095 1.981648,-0.275852 3.115021,-2.169713 2.531462,-4.23005 -0.823422,-2.8739362 -2.613028,-2.7533492 -4.222468,-2.4805596 -1.499989,0.254239 -3.611018,0.466034 -2.953712,3.4795146 z"
       sodipodi:nodetypes="sssas" />
    <path
       style="fill:#d97a7a;fill-opacity:0;stroke:#322d21;stroke-width:0.336275;stroke-linejoin:round;stroke-miterlimit:8.2;stroke-opacity:0.995995"
       d="m 26.796482,15.852751 c 0,0 0.10003,-0.214993 0.148068,-0.840621 0.04804,-0.625627 -0.35826,-0.796906 -0.35826,-0.796906"
       id="path9"
       sodipodi:nodetypes="czc" />
    <path
       id="path8-5"
       style="fill:#a47f5c;stroke:#322d21;stroke-width:0.367605;stroke-linejoin:round;stroke-miterlimit:8.2;stroke-opacity:0.995995;fill-opacity:1"
       d="m 30.759214,21.257263 c -0.583559,2.06034 -2.66307,3.50695 -4.644718,3.231095 -1.981648,-0.275852 -3.115021,-2.169713 -2.531462,-4.23005 0.454034,-1.60303 1.980127,-2.692445 3.263057,-2.33823 0.365993,0.101049 0.835867,0.722479 0.835867,0.722479 0,0 0.790885,-0.446784 1.295509,-0.443194 1.55283,0.01104 2.257431,1.378432 1.781747,3.0579 z"
       sodipodi:nodetypes="sssscss" />
    <path
       style="fill:#d97a7a;fill-opacity:0;stroke:#322d21;stroke-width:0.336275;stroke-linejoin:round;stroke-miterlimit:8.2;stroke-opacity:0.995995"
       d="m 27.737116,18.515851 c 0,0 0.10003,-0.214993 0.148068,-0.840621 0.04804,-0.625627 -0.35826,-0.796906 -0.35826,-0.796906"
       id="path9-7"
       sodipodi:nodetypes="czc" />
    <path
       style="fill:#d97a7a;fill-opacity:0;stroke:#322d21;stroke-width:0.513933;stroke-linejoin:round;stroke-miterlimit:8.2;stroke-opacity:0.995995"
       d="m 7.6015154,15.41115 c 0,0 -0.1528771,-0.328577 -0.2262942,-1.284732 -0.07342,-0.956154 0.5475333,-1.217921 0.5475333,-1.217921"
       id="path9-6"
       sodipodi:nodetypes="czc" />
    <path
       sodipodi:type="star"
       style="fill:url(#linearGradient34);fill-opacity:1;fill-rule:nonzero;stroke:#322d21;stroke-width:0.443;stroke-linejoin:round;stroke-miterlimit:8.2;stroke-opacity:0.995995"
       id="path1-5"
       inkscape:flatsided="false"
       sodipodi:sides="5"
       sodipodi:cx="9.3473988"
       sodipodi:cy="4.4553022"
       sodipodi:r1="3.4362388"
       sodipodi:r2="2.3474281"
       sodipodi:arg1="0.9357696"
       sodipodi:arg2="1.5640882"
       inkscape:rounded="0.12173243"
       inkscape:randomized="0"
       d="M 11.385772,7.2216663 C 11.183344,7.3708242 9.6145864,6.8009908 9.3631455,6.8026775 9.1117046,6.8043642 7.5507336,7.3951928 7.3463222,7.2487642 7.1419108,7.1023355 7.1990819,5.4342704 7.1197782,5.1956571 7.0404745,4.9570438 5.9961966,3.6550483 6.0722919,3.4153926 6.1483873,3.1757368 7.7524783,2.7146493 7.9549068,2.5654914 8.1573353,2.4163336 9.0729071,1.0208275 9.324348,1.0191408 c 0.2514409,-0.00169 1.185653,1.3814106 1.390064,1.5278393 0.204411,0.1464286 1.814544,0.585954 1.893847,0.8245673 0.0793,0.2386133 -0.947412,1.5545019 -1.023508,1.7941577 -0.0761,0.2396557 0.0034,1.9068034 -0.198979,2.0559612 z"
       inkscape:transform-center-x="0.052794712"
       inkscape:transform-center-y="-0.66449047"
       transform="matrix(0.78589069,0,0,0.78589069,9.8574053,-0.62685396)" />
    <path
       id="path1"
       style="fill:#ceb0d9;fill-opacity:1;stroke:#332d21;stroke-width:0.405003;stroke-dasharray:none;stroke-opacity:1"
       d="M 9.7318668,13.606029 A 1.3796205,1.3796205 0 0 0 8.4192567,14.678547 1.3796205,1.3796205 0 0 0 7.757423,14.52375 1.3796205,1.3796205 0 0 0 6.5680183,15.259824 1.3796205,1.3796205 0 0 0 5.4252102,14.698291 a 1.3796205,1.3796205 0 0 0 -1.3473603,1.409754 1.3796205,1.3796205 0 0 0 0.5196736,1.044875 1.3796205,1.3796205 0 0 0 -0.1468987,0.645248 1.3796205,1.3796205 0 0 0 1.4097528,1.348151 1.3796205,1.3796205 0 0 0 0.078188,-0.0039 1.3796205,1.3796205 0 0 0 -0.1003018,0.548895 1.3796205,1.3796205 0 0 0 1.4097529,1.348151 1.3796205,1.3796205 0 0 0 0.1832283,-0.01659 1.3796205,1.3796205 0 0 0 -0.030801,0.322229 1.3796205,1.3796205 0 0 0 1.4097528,1.348149 1.3796205,1.3796205 0 0 0 1.3489392,-1.409752 v -0.0016 a 1.3796205,1.3796205 0 0 0 -0.132682,-0.559164 1.3796205,1.3796205 0 0 0 0.81663,-1.289706 v -0.0016 a 1.3796205,1.3796205 0 0 0 -0.663413,-1.144388 1.3796205,1.3796205 0 0 1 7.89e-4,-7.89e-4 1.3796205,1.3796205 0 0 0 0.662624,-1.209939 v -0.0016 a 1.3796205,1.3796205 0 0 0 -0.370406,-0.905875 1.3796205,1.3796205 0 0 0 0.669731,-1.213887 v -0.0016 A 1.3796205,1.3796205 0 0 0 9.7318668,13.606029 Z" />
    <path
       id="path7"
       style="fill:#85ba88;stroke:#332d21;stroke-width:0.264999;fill-opacity:1"
       d="m 22.173904,25.463109 c 0.06577,2.142636 -2.383097,4.427357 -5.395271,4.474792 -3.012174,0.04744 -5.231693,-1.432304 -5.299292,-3.574912 -0.0676,-2.142608 2.042308,-4.137087 5.054442,-4.185821 3.012133,-0.04873 5.570548,1.099645 5.639973,3.242223 z"
       sodipodi:nodetypes="cssscc" />
    <path
       id="path10"
       style="fill:#a6e7a8;fill-opacity:1;stroke:#332d21;stroke-width:0;stroke-dasharray:none"
       d="m 16.884497,29.096172 c -2.933676,0.0055 -5.263593,-2.519812 -5.329429,-2.768972 -0.06584,-0.24916 2.144834,-2.925869 5.078469,-2.931536 2.933635,-0.0057 5.318837,1.797273 5.423404,2.146704 0.101011,0.349438 -2.238767,3.548288 -5.172444,3.553804 z"
       sodipodi:nodetypes="ssscs" />
    <path
       id="path10-6"
       style="fill:#87ba89;fill-opacity:1;stroke:#332d21;stroke-width:0;stroke-dasharray:none"
       d="m 16.884497,27.932803 c -2.933676,0.0033 -5.263594,-1.46392 -5.32943,-1.614898 -0.06584,-0.150979 2.103654,-1.611304 5.037289,-1.614738 2.933635,-0.0035 5.370313,0.710923 5.47488,0.922661 0.101011,0.211741 -2.249062,2.303632 -5.182739,2.306975 z"
       sodipodi:nodetypes="ssscs" />
    <path
       id="path10-65"
       style="fill:#a7e7a9;fill-opacity:1;stroke:#332d21;stroke-width:0;stroke-dasharray:none"
       d="m 16.884497,27.119475 c -2.933676,0.0014 -5.201822,-0.77752 -5.267658,-0.841868 -0.06584,-0.06435 2.041882,-0.533151 4.975517,-0.534615 2.933635,-0.0015 5.349722,-0.214313 5.454289,-0.124069 0.101011,0.09024 -2.228471,1.499127 -5.162148,1.500552 z"
       sodipodi:nodetypes="ssscs" />
    <path
       id="path7-0"
       style="fill:#ba9068;fill-opacity:1;stroke:#332d21;stroke-width:0.264999"
       d="m 20.441127,26.770613 c 0.06577,2.142636 -2.383097,4.427357 -5.395271,4.474792 -3.012174,0.04744 -5.2316929,-1.432304 -5.2992919,-3.574912 -0.0676,-2.142608 2.0423079,-4.137087 5.0544419,-4.185821 3.012133,-0.04873 5.570548,1.099645 5.639973,3.242223 z"
       sodipodi:nodetypes="cssscc" />
    <path
       id="path10-0"
       style="fill:#e7b281;fill-opacity:1;stroke:#332d21;stroke-width:0;stroke-dasharray:none"
       d="m 15.15172,30.403676 c -2.933676,0.0055 -5.2635929,-2.519812 -5.3294289,-2.768972 -0.06584,-0.24916 2.1448339,-2.925869 5.0784689,-2.931536 2.933635,-0.0057 5.318837,1.797273 5.423404,2.146704 0.101011,0.349438 -2.238767,3.548288 -5.172444,3.553804 z"
       sodipodi:nodetypes="ssscs" />
    <path
       id="path10-6-1"
       style="fill:#ba9068;fill-opacity:1;stroke:#332d21;stroke-width:0;stroke-dasharray:none"
       d="m 15.15172,29.240307 c -2.933676,0.0033 -5.2635939,-1.46392 -5.3294299,-1.614898 -0.06584,-0.150979 2.1036539,-1.611304 5.0372889,-1.614738 2.933635,-0.0035 5.370313,0.710923 5.47488,0.922661 0.101011,0.211741 -2.249062,2.303632 -5.182739,2.306975 z"
       sodipodi:nodetypes="ssscs" />
    <path
       id="path10-65-4"
       style="fill:#e7b281;fill-opacity:1;stroke:#332d21;stroke-width:0;stroke-dasharray:none"
       d="m 15.15172,28.426979 c -2.933676,0.0014 -5.2018219,-0.77752 -5.2676579,-0.841868 -0.06584,-0.06435 2.0418819,-0.533151 4.9755169,-0.534615 2.933635,-0.0015 5.349722,-0.214313 5.454289,-0.124069 0.101011,0.09024 -2.228471,1.499127 -5.162148,1.500552 z"
       sodipodi:nodetypes="ssscs" />
    <path
       id="path11"
       style="fill:#e2d7e6;stroke:#332d21;stroke-width:0"
       d="m 10.32032,15.553598 c -0.163664,0.0066 0.02335,-0.278145 -0.0041,-0.585067 -0.0328,-0.366343 -0.23622,-0.488394 -0.122362,-0.575379 0.145453,-0.111139 0.426143,0.138128 0.443502,0.531507 0.01717,0.393395 -0.153341,0.62246 -0.317006,0.628939 z"
       sodipodi:nodetypes="ssscs" />
    <path
       id="path11-6"
       style="fill:#e2d7e6;stroke:#332d21;stroke-width:0"
       d="m 10.093956,17.533654 c -0.1421896,0.0057 0.02029,-0.241649 -0.0036,-0.5083 -0.0285,-0.318274 -0.2052251,-0.42431 -0.1063069,-0.499882 0.1263669,-0.09656 0.3702279,0.120003 0.3853089,0.461767 0.01492,0.341777 -0.133221,0.540786 -0.275411,0.546415 z"
       sodipodi:nodetypes="ssscs" />
    <path
       id="path11-3"
       style="fill:#e2d7e6;stroke:#332d21;stroke-width:0"
       d="m 10.049085,19.967146 c -0.1421897,0.0057 0.02029,-0.241649 -0.0036,-0.5083 -0.0285,-0.318274 -0.2052242,-0.42431 -0.106306,-0.499882 0.126367,-0.09656 0.370228,0.120003 0.385309,0.461768 0.01492,0.341776 -0.133221,0.540786 -0.275411,0.546414 z"
       sodipodi:nodetypes="ssscs" />
    <path
       id="path11-66"
       style="fill:#e2d7e6;stroke:#332d21;stroke-width:0"
       d="m 9.5222913,21.411 c -0.1003719,0.004 0.01432,-0.17058 -0.00254,-0.35881 -0.020119,-0.224671 -0.1448687,-0.299522 -0.075042,-0.352867 0.089203,-0.06816 0.2613447,0.08471 0.2719908,0.325963 0.01053,0.241259 -0.094042,0.381742 -0.1944121,0.385714 z"
       sodipodi:nodetypes="ssscs" />
    <path
       id="path11-63"
       style="fill:#e2d7e6;stroke:#332d21;stroke-width:0"
       d="m 7.8534373,19.837865 c -0.1421896,0.0037 0.020287,-0.158229 -0.00359,-0.33283 -0.0285,-0.208404 -0.2052246,-0.277835 -0.1063064,-0.327319 0.126367,-0.06323 0.3702279,0.07857 0.3853093,0.302362 0.014916,0.223792 -0.1332215,0.3541 -0.2754114,0.357787 z"
       sodipodi:nodetypes="ssscs" />
    <path
       id="path11-9"
       style="fill:#e2d7e6;stroke:#332d21;stroke-width:0"
       d="m 8.6498779,17.927642 c -0.1207153,0.0047 0.017223,-0.205153 -0.00306,-0.431531 -0.024196,-0.270206 -0.1742296,-0.360228 -0.090251,-0.424385 0.1072814,-0.08198 0.3143129,0.101877 0.3271165,0.392026 0.01267,0.290159 -0.1131012,0.459113 -0.2338164,0.46389 z"
       sodipodi:nodetypes="ssscs" />
    <path
       id="path11-8"
       style="fill:#e2d7e6;stroke:#332d21;stroke-width:0"
       d="m 8.3020545,16.190728 c -0.123182,0.0049 0.017574,-0.209346 -0.00312,-0.440351 -0.02469,-0.275726 -0.17779,-0.367588 -0.092095,-0.433056 0.1094745,-0.08364 0.3207355,0.103956 0.3338009,0.400037 0.01293,0.296088 -0.1154121,0.468494 -0.2385942,0.47337 z"
       sodipodi:nodetypes="ssscs" />
    <path
       id="path11-36"
       style="fill:#e2d7e6;stroke:#332d21;stroke-width:0"
       d="m 6.1434414,16.331651 c -0.1155786,0.0046 0.01649,-0.196423 -0.00292,-0.41317 -0.023166,-0.258708 -0.1668161,-0.344899 -0.086411,-0.406328 0.1027164,-0.07849 0.3009387,0.09755 0.3131976,0.375348 0.012119,0.277812 -0.1082886,0.439574 -0.2238677,0.44415 z"
       sodipodi:nodetypes="ssscs" />
    <path
       id="path11-0"
       style="fill:#e2d7e6;stroke:#332d21;stroke-width:0"
       d="m 6.606594,18.038173 c -0.1421897,0.0046 0.020287,-0.194726 -0.00359,-0.409599 -0.0285,-0.256472 -0.2052245,-0.341917 -0.1063063,-0.402816 0.126367,-0.07781 0.3702279,0.0967 0.3853093,0.372103 0.014916,0.27541 -0.1332215,0.435776 -0.2754114,0.440312 z"
       sodipodi:nodetypes="ssscs" />
    <path
       style="fill:#d99f7a;fill-opacity:1;stroke:#332d21;stroke-width:0.397512;stroke-dasharray:none;stroke-opacity:1"
       id="path12"
       sodipodi:type="arc"
       sodipodi:cx="-17.903774"
       sodipodi:cy="8.9929247"
       sodipodi:rx="0.26667103"
       sodipodi:ry="0.16318011"
       sodipodi:start="6.2613533"
       sodipodi:end="6.2601406"
       sodipodi:open="true"
       sodipodi:arc-type="arc"
       d="m -17.637167,8.9893624 a 0.26667103,0.16318011 0 0 1 -0.260705,0.1667024 0.26667103,0.16318011 0 0 1 -0.272506,-0.1594789 0.26667103,0.16318011 0 0 1 0.26054,-0.1667991 0.26667103,0.16318011 0 0 1 0.272664,0.1593778"
       transform="scale(-1,1)" />
    <path
       id="path8-2-7"
       style="fill:#f4bc89;fill-opacity:1;stroke:#322d21;stroke-width:0.367605;stroke-linejoin:round;stroke-miterlimit:8.2;stroke-opacity:0.995995"
       d="m 13.952368,13.86424 c 0.583559,2.06034 2.66307,3.50695 4.644718,3.231095 1.981648,-0.275852 3.115021,-2.169713 2.531462,-4.23005 -0.823422,-2.8739366 -2.613028,-2.75335 -4.222468,-2.48056 -1.499989,0.254239 -3.611018,0.466034 -2.953712,3.479515 z"
       sodipodi:nodetypes="sssas" />
    <path
       style="fill:#d99f7a;fill-opacity:1;stroke:#332d21;stroke-width:0.397512;stroke-dasharray:none;stroke-opacity:1"
       id="path12-7"
       sodipodi:type="arc"
       sodipodi:cx="-17.059305"
       sodipodi:cy="11.300118"
       sodipodi:rx="0.26667103"
       sodipodi:ry="0.16318011"
       sodipodi:start="6.2613533"
       sodipodi:end="6.2601406"
       sodipodi:open="true"
       sodipodi:arc-type="arc"
       d="m -16.792698,11.296556 a 0.26667103,0.16318011 0 0 1 -0.260705,0.166703 0.26667103,0.16318011 0 0 1 -0.272506,-0.159479 0.26667103,0.16318011 0 0 1 0.26054,-0.166799 0.26667103,0.16318011 0 0 1 0.272664,0.159377"
       transform="scale(-1,1)" />
    <path
       id="path1-9"
       style="fill:#d9a87a;fill-opacity:1;stroke:#332d21;stroke-width:0.405003;stroke-dasharray:none;stroke-opacity:1"
       d="m 10.917551,11.455486 a 1.3796205,1.3796205 0 0 0 -1.3126099,1.072518 1.3796205,1.3796205 0 0 0 -0.6618336,-0.154797 1.3796205,1.3796205 0 0 0 -1.1894047,0.736074 1.3796205,1.3796205 0 0 0 -1.1428081,-0.561533 1.3796205,1.3796205 0 0 0 -1.3473603,1.409754 1.3796205,1.3796205 0 0 0 0.5196736,1.044875 1.3796205,1.3796205 0 0 0 -0.1468987,0.645248 1.3796205,1.3796205 0 0 0 1.4097528,1.348151 1.3796205,1.3796205 0 0 0 0.078188,-0.0039 1.3796205,1.3796205 0 0 0 -0.1003018,0.548895 1.3796205,1.3796205 0 0 0 1.4097529,1.348151 1.3796205,1.3796205 0 0 0 0.1832283,-0.01659 1.3796205,1.3796205 0 0 0 -0.030801,0.322229 1.3796205,1.3796205 0 0 0 1.4097526,1.348149 1.3796205,1.3796205 0 0 0 1.3489389,-1.409752 v -0.0016 a 1.3796205,1.3796205 0 0 0 -0.132682,-0.559164 1.3796205,1.3796205 0 0 0 0.81663,-1.289706 v -0.0016 a 1.3796205,1.3796205 0 0 0 -0.663413,-1.144388 1.3796205,1.3796205 0 0 1 7.89e-4,-7.89e-4 1.3796205,1.3796205 0 0 0 0.662624,-1.209939 v -0.0016 a 1.3796205,1.3796205 0 0 0 -0.370406,-0.905875 1.3796205,1.3796205 0 0 0 0.669731,-1.213887 v -0.0016 a 1.3796205,1.3796205 0 0 0 -1.410542,-1.347324 z" />
    <path
       id="path11-98"
       style="fill:#e2d7e6;stroke:#332d21;stroke-width:0"
       d="m 11.506004,13.403055 c -0.163664,0.0066 0.02335,-0.278145 -0.0041,-0.585067 -0.0328,-0.366343 -0.23622,-0.488394 -0.122362,-0.575379 0.145453,-0.111139 0.426143,0.138128 0.443502,0.531507 0.01717,0.393395 -0.153341,0.62246 -0.317006,0.628939 z"
       sodipodi:nodetypes="ssscs" />
    <path
       id="path11-6-1"
       style="fill:#e2d7e6;stroke:#332d21;stroke-width:0"
       d="m 11.27964,15.383111 c -0.142189,0.0057 0.02029,-0.241649 -0.0036,-0.5083 -0.0285,-0.318274 -0.205225,-0.42431 -0.106307,-0.499882 0.126367,-0.09656 0.370228,0.120003 0.385309,0.461767 0.01492,0.341777 -0.133221,0.540786 -0.275411,0.546415 z"
       sodipodi:nodetypes="ssscs" />
    <path
       id="path11-3-8"
       style="fill:#e2d7e6;stroke:#332d21;stroke-width:0"
       d="m 11.234769,17.816603 c -0.14219,0.0057 0.02029,-0.241649 -0.0036,-0.5083 -0.0285,-0.318274 -0.205224,-0.42431 -0.106306,-0.499882 0.126367,-0.09656 0.370228,0.120003 0.385309,0.461768 0.01492,0.341776 -0.133221,0.540786 -0.275411,0.546414 z"
       sodipodi:nodetypes="ssscs" />
    <path
       id="path11-66-2"
       style="fill:#e2d7e6;stroke:#332d21;stroke-width:0"
       d="m 10.707976,19.260457 c -0.100372,0.004 0.01432,-0.17058 -0.0025,-0.35881 -0.02012,-0.224671 -0.144869,-0.299522 -0.07504,-0.352867 0.0892,-0.06816 0.261344,0.08471 0.27199,0.325963 0.01053,0.241259 -0.09404,0.381742 -0.194412,0.385714 z"
       sodipodi:nodetypes="ssscs" />
    <path
       id="path11-63-6"
       style="fill:#e2d7e6;stroke:#332d21;stroke-width:0"
       d="m 9.0391218,17.687322 c -0.1421896,0.0037 0.020287,-0.158229 -0.00359,-0.33283 -0.0285,-0.208404 -0.2052246,-0.277835 -0.1063064,-0.327319 0.126367,-0.06323 0.3702279,0.07857 0.3853093,0.302362 0.014916,0.223792 -0.1332215,0.3541 -0.2754114,0.357787 z"
       sodipodi:nodetypes="ssscs" />
    <path
       id="path11-9-6"
       style="fill:#e2d7e6;stroke:#332d21;stroke-width:0"
       d="m 9.8355621,15.777099 c -0.120715,0.0047 0.01722,-0.205153 -0.0031,-0.431531 -0.0242,-0.270206 -0.17423,-0.360228 -0.09025,-0.424385 0.107281,-0.08198 0.3143129,0.101877 0.3271169,0.392026 0.01267,0.290159 -0.1131019,0.459113 -0.2338169,0.46389 z"
       sodipodi:nodetypes="ssscs" />
    <path
       id="path11-8-0"
       style="fill:#e2d7e6;stroke:#332d21;stroke-width:0"
       d="m 9.4877391,14.040185 c -0.1231821,0.0049 0.01757,-0.209346 -0.0031,-0.440351 -0.02469,-0.275726 -0.1777901,-0.367588 -0.092095,-0.433056 0.1094741,-0.08364 0.3207351,0.103956 0.3338011,0.400037 0.01293,0.296088 -0.115412,0.468494 -0.238594,0.47337 z"
       sodipodi:nodetypes="ssscs" />
    <path
       id="path11-36-3"
       style="fill:#e2d7e6;stroke:#332d21;stroke-width:0"
       d="m 7.3291259,14.181108 c -0.1155786,0.0046 0.01649,-0.196423 -0.00292,-0.41317 -0.023166,-0.258708 -0.1668161,-0.344899 -0.086411,-0.406328 0.1027164,-0.07849 0.3009387,0.09755 0.3131976,0.375348 0.012119,0.277812 -0.1082886,0.439574 -0.2238677,0.44415 z"
       sodipodi:nodetypes="ssscs" />
    <path
       id="path11-0-8"
       style="fill:#e2d7e6;stroke:#332d21;stroke-width:0"
       d="m 7.7922785,15.88763 c -0.1421897,0.0046 0.020287,-0.194726 -0.00359,-0.409599 -0.0285,-0.256472 -0.2052245,-0.341917 -0.1063063,-0.402816 0.126367,-0.07781 0.3702279,0.0967 0.3853093,0.372103 0.014916,0.27541 -0.1332215,0.435776 -0.2754114,0.440312 z"
       sodipodi:nodetypes="ssscs" />
  </g>
</svg>
