<?xml version="1.0" encoding="UTF-8" standalone="no"?>
<!-- Created with Inkscape (http://www.inkscape.org/) -->

<svg
   width="200"
   height="201.17665"
   viewBox="0 0 52.916666 53.227988"
   version="1.1"
   id="svg1"
   inkscape:version="1.4.2 (f4327f4, 2025-05-13)"
   sodipodi:docname="DoubleFruit2.svg"
   xmlns:inkscape="http://www.inkscape.org/namespaces/inkscape"
   xmlns:sodipodi="http://sodipodi.sourceforge.net/DTD/sodipodi-0.dtd"
   xmlns:xlink="http://www.w3.org/1999/xlink"
   xmlns="http://www.w3.org/2000/svg"
   xmlns:svg="http://www.w3.org/2000/svg">
  <sodipodi:namedview
     id="namedview1"
     pagecolor="#ffffff"
     bordercolor="#000000"
     borderopacity="0.25"
     inkscape:showpageshadow="2"
     inkscape:pageopacity="0.0"
     inkscape:pagecheckerboard="0"
     inkscape:deskcolor="#d1d1d1"
     inkscape:document-units="mm"
     inkscape:zoom="3.2124158"
     inkscape:cx="-24.280792"
     inkscape:cy="72.375438"
     inkscape:window-width="3840"
     inkscape:window-height="2054"
     inkscape:window-x="-11"
     inkscape:window-y="-11"
     inkscape:window-maximized="1"
     inkscape:current-layer="layer1" />
  <defs
     id="defs1">
    <inkscape:path-effect
       effect="spiro"
       id="path-effect8"
       is_visible="true"
       lpeversion="1" />
    <inkscape:path-effect
       effect="mirror_symmetry"
       start_point="17.255329,9.2448751"
       end_point="17.255329,29.300879"
       center_point="17.255329,19.272877"
       id="path-effect5"
       is_visible="true"
       lpeversion="1.2"
       lpesatellites=""
       mode="free"
       discard_orig_path="false"
       fuse_paths="true"
       oposite_fuse="false"
       split_items="false"
       split_open="false"
       link_styles="false" />
    <inkscape:path-effect
       effect="mirror_symmetry"
       start_point="27.030316,8.4102839"
       end_point="27.030316,28.182973"
       center_point="27.030316,18.296628"
       id="path-effect3"
       is_visible="true"
       lpeversion="1.2"
       lpesatellites=""
       mode="free"
       discard_orig_path="false"
       fuse_paths="false"
       oposite_fuse="false"
       split_items="false"
       split_open="false"
       link_styles="false" />
    <linearGradient
       id="linearGradient33"
       inkscape:collect="always">
      <stop
         style="stop-color:#ffd1a8;stop-opacity:1;"
         offset="0"
         id="stop33" />
      <stop
         style="stop-color:#a06c34;stop-opacity:1;"
         offset="0.69575757"
         id="stop34" />
    </linearGradient>
    <inkscape:path-effect
       effect="spiro"
       id="path-effect8-8"
       is_visible="true"
       lpeversion="1" />
    <inkscape:path-effect
       effect="spiro"
       id="path-effect8-0"
       is_visible="true"
       lpeversion="1" />
    <inkscape:path-effect
       effect="spiro"
       id="path-effect8-0-9"
       is_visible="true"
       lpeversion="1" />
    <inkscape:path-effect
       effect="spiro"
       id="path-effect8-8-6"
       is_visible="true"
       lpeversion="1" />
    <inkscape:path-effect
       effect="spiro"
       id="path-effect8-3"
       is_visible="true"
       lpeversion="1" />
    <linearGradient
       inkscape:collect="always"
       xlink:href="#linearGradient33"
       id="linearGradient12"
       gradientUnits="userSpaceOnUse"
       x1="9.157506"
       y1="0.65352297"
       x2="9.5236139"
       y2="7.639287" />
    <linearGradient
       inkscape:collect="always"
       xlink:href="#linearGradient33"
       id="linearGradient13"
       gradientUnits="userSpaceOnUse"
       x1="9.157506"
       y1="0.65352297"
       x2="9.5236139"
       y2="7.639287" />
    <linearGradient
       inkscape:collect="always"
       xlink:href="#linearGradient33"
       id="linearGradient14"
       gradientUnits="userSpaceOnUse"
       x1="9.157506"
       y1="0.65352297"
       x2="9.5236139"
       y2="7.639287" />
  </defs>
  <g
     inkscape:label="Ebene 1"
     inkscape:groupmode="layer"
     id="layer1"
     transform="translate(-0.20000279)">
    <rect
       style="fill:#d9a87a;fill-opacity:1;stroke:#212532;stroke-width:1.29973;stroke-linejoin:round;stroke-miterlimit:8.2;stroke-dasharray:none;stroke-opacity:0.995995"
       id="rect1"
       width="51.616936"
       height="51.616943"
       x="0.84986776"
       y="0.96118194"
       ry="5.9818354"
       rx="19.15794" />
    <rect
       style="fill:#f4a65c;fill-opacity:1;stroke:#212532;stroke-width:0.689558;stroke-linejoin:round;stroke-miterlimit:8.2;stroke-dasharray:none;stroke-opacity:0.995995"
       id="rect1-8"
       width="45.94006"
       height="45.940067"
       x="3.6883085"
       y="3.7996202"
       ry="5.3239479"
       rx="17.050934" />
    <path
       style="fill:#d97a7a;fill-opacity:0;stroke:#322d21;stroke-width:0.799969;stroke-linejoin:round;stroke-miterlimit:8.2;stroke-opacity:0.995995"
       d="m 13.13754,21.058006 c 0,0 -0.237962,-0.511451 -0.352241,-1.999767 -0.114283,-1.488314 0.852271,-1.895771 0.852271,-1.895771"
       id="path9-6-5"
       sodipodi:nodetypes="czc" />
    <path
       id="path8"
       style="fill:#d9a6a6;fill-opacity:1;stroke:#322d21;stroke-width:0.572201;stroke-linejoin:round;stroke-miterlimit:8.2;stroke-opacity:0.995995"
       d="m 46.303201,28.942997 c -0.908347,3.20705 -4.145238,5.45879 -7.229799,5.029404 -3.084561,-0.429381 -4.848728,-3.377296 -3.940381,-6.584341 0.706733,-2.495218 3.082193,-4.190962 5.079155,-3.639604 0.569692,0.157289 1.301081,1.124585 1.301081,1.124585 0,0 1.231062,-0.695448 2.016542,-0.68986 2.417078,0.01718 3.513835,2.145617 2.773402,4.759816 z"
       sodipodi:nodetypes="sssscss" />
    <path
       id="path8-2"
       style="fill:#d6d994;fill-opacity:1;stroke:#322d21;stroke-width:0.572201;stroke-linejoin:round;stroke-miterlimit:8.2;stroke-opacity:0.995995"
       d="m 22.920903,17.989277 c 0.908347,3.20705 4.145238,5.45879 7.229799,5.029404 3.084561,-0.429381 4.848728,-3.377296 3.940382,-6.584341 -1.281709,-4.473465 -4.067345,-4.285763 -6.57254,-3.861149 -2.334828,0.395739 -5.620779,0.725412 -4.597641,5.416086 z"
       sodipodi:nodetypes="sssas" />
    <path
       style="fill:#d97a7a;fill-opacity:0;stroke:#322d21;stroke-width:0.523433;stroke-linejoin:round;stroke-miterlimit:8.2;stroke-opacity:0.995995"
       d="m 41.599113,24.675815 c 0,0 0.155704,-0.334651 0.230478,-1.30848 0.07478,-0.973829 -0.557655,-1.240435 -0.557655,-1.240435"
       id="path9"
       sodipodi:nodetypes="czc" />
    <path
       id="path8-5"
       style="fill:#a47f5c;fill-opacity:1;stroke:#322d21;stroke-width:0.572201;stroke-linejoin:round;stroke-miterlimit:8.2;stroke-opacity:0.995995"
       d="m 47.767358,33.088281 c -0.908347,3.20705 -4.145238,5.458791 -7.229799,5.029405 -3.084561,-0.429381 -4.848728,-3.377296 -3.940382,-6.584342 0.706733,-2.495218 3.082194,-4.190962 5.079156,-3.639603 0.569691,0.157289 1.30108,1.124584 1.30108,1.124584 0,0 1.231063,-0.695448 2.016542,-0.68986 2.417079,0.01718 3.513835,2.145617 2.773403,4.759816 z"
       sodipodi:nodetypes="sssscss" />
    <path
       style="fill:#d97a7a;fill-opacity:0;stroke:#322d21;stroke-width:0.523433;stroke-linejoin:round;stroke-miterlimit:8.2;stroke-opacity:0.995995"
       d="m 43.06327,28.821099 c 0,0 0.155703,-0.33465 0.230477,-1.30848 0.07478,-0.973828 -0.557654,-1.240435 -0.557654,-1.240435"
       id="path9-7"
       sodipodi:nodetypes="czc" />
    <path
       style="fill:#d97a7a;fill-opacity:0;stroke:#322d21;stroke-width:0.799969;stroke-linejoin:round;stroke-miterlimit:8.2;stroke-opacity:0.995995"
       d="m 11.720928,23.988435 c 0,0 -0.237963,-0.511451 -0.352241,-1.999767 -0.114283,-1.488315 0.85227,-1.895772 0.85227,-1.895772"
       id="path9-6"
       sodipodi:nodetypes="czc" />
    <path
       sodipodi:type="star"
       style="fill:url(#linearGradient12);fill-opacity:1;fill-rule:nonzero;stroke:#322d21;stroke-width:0.443;stroke-linejoin:round;stroke-miterlimit:8.2;stroke-opacity:0.995995"
       id="path1-5-7"
       inkscape:flatsided="false"
       sodipodi:sides="5"
       sodipodi:cx="9.3473988"
       sodipodi:cy="4.4553022"
       sodipodi:r1="3.4362388"
       sodipodi:r2="2.3474281"
       sodipodi:arg1="0.9357696"
       sodipodi:arg2="1.5640882"
       inkscape:rounded="0.12173243"
       inkscape:randomized="0"
       d="M 11.385772,7.2216663 C 11.183344,7.3708242 9.6145864,6.8009908 9.3631455,6.8026775 9.1117046,6.8043642 7.5507336,7.3951928 7.3463222,7.2487642 7.1419108,7.1023355 7.1990819,5.4342704 7.1197782,5.1956571 7.0404745,4.9570438 5.9961966,3.6550483 6.0722919,3.4153926 6.1483873,3.1757368 7.7524783,2.7146493 7.9549068,2.5654914 8.1573353,2.4163336 9.0729071,1.0208275 9.324348,1.0191408 c 0.2514409,-0.00169 1.185653,1.3814106 1.390064,1.5278393 0.204411,0.1464286 1.814544,0.585954 1.893847,0.8245673 0.0793,0.2386133 -0.947412,1.5545019 -1.023508,1.7941577 -0.0761,0.2396557 0.0034,1.9068034 -0.198979,2.0559612 z"
       inkscape:transform-center-x="-0.33505956"
       inkscape:transform-center-y="-0.73490863"
       transform="matrix(1.1339459,0.26297713,-0.26297713,1.1339459,23.356735,-2.2168166)" />
    <path
       sodipodi:type="star"
       style="fill:url(#linearGradient13);fill-opacity:1;fill-rule:nonzero;stroke:#322d21;stroke-width:0.443;stroke-linejoin:round;stroke-miterlimit:8.2;stroke-opacity:0.995995"
       id="path1-5-7-0"
       inkscape:flatsided="false"
       sodipodi:sides="5"
       sodipodi:cx="9.3473988"
       sodipodi:cy="4.4553022"
       sodipodi:r1="3.4362388"
       sodipodi:r2="2.3474281"
       sodipodi:arg1="0.9357696"
       sodipodi:arg2="1.5640882"
       inkscape:rounded="0.12173243"
       inkscape:randomized="0"
       d="M 11.385772,7.2216663 C 11.183344,7.3708242 9.6145864,6.8009908 9.3631455,6.8026775 9.1117046,6.8043642 7.5507336,7.3951928 7.3463222,7.2487642 7.1419108,7.1023355 7.1990819,5.4342704 7.1197782,5.1956571 7.0404745,4.9570438 5.9961966,3.6550483 6.0722919,3.4153926 6.1483873,3.1757368 7.7524783,2.7146493 7.9549068,2.5654914 8.1573353,2.4163336 9.0729071,1.0208275 9.324348,1.0191408 c 0.2514409,-0.00169 1.185653,1.3814106 1.390064,1.5278393 0.204411,0.1464286 1.814544,0.585954 1.893847,0.8245673 0.0793,0.2386133 -0.947412,1.5545019 -1.023508,1.7941577 -0.0761,0.2396557 0.0034,1.9068034 -0.198979,2.0559612 z"
       inkscape:transform-center-x="0.33505959"
       inkscape:transform-center-y="-0.73490863"
       transform="matrix(-1.1339459,0.26297713,0.26297713,1.1339459,29.973607,-2.2168166)" />
    <path
       sodipodi:type="star"
       style="fill:url(#linearGradient14);fill-opacity:1;fill-rule:nonzero;stroke:#322d21;stroke-width:0.443;stroke-linejoin:round;stroke-miterlimit:8.2;stroke-opacity:0.995995"
       id="path1-5-4"
       inkscape:flatsided="false"
       sodipodi:sides="5"
       sodipodi:cx="9.3473988"
       sodipodi:cy="4.4553022"
       sodipodi:r1="3.4362388"
       sodipodi:r2="2.3474281"
       sodipodi:arg1="0.9357696"
       sodipodi:arg2="1.5640882"
       inkscape:rounded="0.12173243"
       inkscape:randomized="0"
       d="M 11.385772,7.2216663 C 11.183344,7.3708242 9.6145864,6.8009908 9.3631455,6.8026775 9.1117046,6.8043642 7.5507336,7.3951928 7.3463222,7.2487642 7.1419108,7.1023355 7.1990819,5.4342704 7.1197782,5.1956571 7.0404745,4.9570438 5.9961966,3.6550483 6.0722919,3.4153926 6.1483873,3.1757368 7.7524783,2.7146493 7.9549068,2.5654914 8.1573353,2.4163336 9.0729071,1.0208275 9.324348,1.0191408 c 0.2514409,-0.00169 1.185653,1.3814106 1.390064,1.5278393 0.204411,0.1464286 1.814544,0.585954 1.893847,0.8245673 0.0793,0.2386133 -0.947412,1.5545019 -1.023508,1.7941577 -0.0761,0.2396557 0.0034,1.9068034 -0.198979,2.0559612 z"
       inkscape:transform-center-x="0.10400073"
       inkscape:transform-center-y="-1.3089876"
       transform="matrix(1.5481355,0,0,1.5481355,12.105743,-1.2348471)" />
    <path
       id="path1"
       style="fill:#ceb0d9;fill-opacity:1;stroke:#332d21;stroke-width:0.630413;stroke-dasharray:none;stroke-opacity:1"
       d="m 15.036955,21.178649 a 2.147467,2.147467 0 0 0 -2.043161,1.669442 2.147467,2.147467 0 0 0 -1.030186,-0.240951 2.147467,2.147467 0 0 0 -1.851384,1.145746 2.147467,2.147467 0 0 0 -1.7788535,-0.874062 2.147467,2.147467 0 0 0 -2.097252,2.194372 2.147467,2.147467 0 0 0 0.808905,1.626414 2.147467,2.147467 0 0 0 -0.2286572,1.00437 2.147467,2.147467 0 0 0 2.1943699,2.098483 2.147467,2.147467 0 0 0 0.1217046,-0.0061 2.147467,2.147467 0 0 0 -0.1561262,0.85439 2.147467,2.147467 0 0 0 2.1943704,2.098483 2.147467,2.147467 0 0 0 0.285206,-0.02582 2.147467,2.147467 0 0 0 -0.04794,0.50157 2.147467,2.147467 0 0 0 2.19437,2.09848 2.147467,2.147467 0 0 0 2.09971,-2.194369 v -0.0025 a 2.147467,2.147467 0 0 0 -0.206528,-0.870375 2.147467,2.147467 0 0 0 1.271136,-2.007509 v -0.0025 a 2.147467,2.147467 0 0 0 -1.032644,-1.781313 2.147467,2.147467 0 0 1 0.0012,-0.0012 2.147467,2.147467 0 0 0 1.031416,-1.883347 v -0.0025 a 2.147467,2.147467 0 0 0 -0.57656,-1.410052 2.147467,2.147467 0 0 0 1.042479,-1.889492 v -0.0025 a 2.147467,2.147467 0 0 0 -2.195599,-2.097195 z" />
    <path
       id="path7"
       style="fill:#85ba88;fill-opacity:1;stroke:#332d21;stroke-width:0.412488"
       d="m 34.403777,39.634948 c 0.102375,3.335149 -3.709442,6.891462 -8.398082,6.965298 -4.688641,0.07384 -8.143463,-2.229472 -8.248685,-5.564578 -0.105224,-3.335105 3.178982,-6.439639 7.86756,-6.515496 4.688577,-0.07585 8.670912,1.711667 8.778977,5.046726 z"
       sodipodi:nodetypes="cssscc" />
    <path
       id="path10"
       style="fill:#a6e7a8;fill-opacity:1;stroke:#332d21;stroke-width:0;stroke-dasharray:none"
       d="m 26.170479,45.290041 c -4.566453,0.0086 -8.193117,-3.922247 -8.295595,-4.310081 -0.102484,-0.387833 3.33857,-4.554301 7.90496,-4.563122 4.566389,-0.0089 8.279107,2.79757 8.441873,3.341481 0.15723,0.543923 -3.484783,5.523136 -8.051238,5.531722 z"
       sodipodi:nodetypes="ssscs" />
    <path
       id="path10-6"
       style="fill:#87ba89;fill-opacity:1;stroke:#332d21;stroke-width:0;stroke-dasharray:none"
       d="m 26.170479,43.479183 c -4.566453,0.0051 -8.193119,-2.278684 -8.295597,-2.513691 -0.102484,-0.235008 3.274471,-2.508097 7.840861,-2.513442 4.566389,-0.0054 8.359233,1.106597 8.521998,1.43618 0.157231,0.329589 -3.500807,3.58575 -8.067262,3.590953 z"
       sodipodi:nodetypes="ssscs" />
    <path
       id="path10-65"
       style="fill:#a7e7a9;fill-opacity:1;stroke:#332d21;stroke-width:0;stroke-dasharray:none"
       d="m 26.170479,42.213187 c -4.566453,0.0022 -8.096967,-1.21026 -8.199445,-1.310421 -0.102484,-0.100165 3.178319,-0.829884 7.744709,-0.832163 4.566389,-0.0023 8.327182,-0.333591 8.489947,-0.193121 0.15723,0.140464 -3.468756,2.333487 -8.035211,2.335705 z"
       sodipodi:nodetypes="ssscs" />
    <path
       id="path7-0"
       style="fill:#ba9068;fill-opacity:1;stroke:#332d21;stroke-width:0.412488"
       d="m 31.706599,41.670161 c 0.102376,3.335149 -3.709442,6.891462 -8.398082,6.965298 -4.68864,0.07384 -8.143462,-2.229472 -8.248685,-5.564578 -0.105223,-3.335105 3.178983,-6.439639 7.867561,-6.515496 4.688576,-0.07585 8.670912,1.711667 8.778976,5.046726 z"
       sodipodi:nodetypes="cssscc" />
    <path
       id="path10-0"
       style="fill:#e7b281;fill-opacity:1;stroke:#332d21;stroke-width:0;stroke-dasharray:none"
       d="m 23.473301,47.325254 c -4.566453,0.0086 -8.193117,-3.922247 -8.295595,-4.310081 -0.102484,-0.387833 3.338571,-4.554301 7.90496,-4.563122 4.566389,-0.0089 8.279108,2.79757 8.441873,3.341482 0.15723,0.543922 -3.484783,5.523135 -8.051238,5.531721 z"
       sodipodi:nodetypes="ssscs" />
    <path
       id="path10-6-1"
       style="fill:#ba9068;fill-opacity:1;stroke:#332d21;stroke-width:0;stroke-dasharray:none"
       d="m 23.473301,45.514397 c -4.566453,0.0051 -8.193118,-2.278685 -8.295596,-2.513692 -0.102484,-0.235008 3.274471,-2.508097 7.84086,-2.513442 4.56639,-0.0054 8.359234,1.106597 8.521999,1.43618 0.15723,0.329589 -3.500808,3.58575 -8.067263,3.590954 z"
       sodipodi:nodetypes="ssscs" />
    <path
       id="path10-65-4"
       style="fill:#e7b281;fill-opacity:1;stroke:#332d21;stroke-width:0;stroke-dasharray:none"
       d="m 23.473301,44.2484 c -4.566453,0.0022 -8.096966,-1.210259 -8.199444,-1.310421 -0.102484,-0.100165 3.178319,-0.829884 7.744708,-0.832162 4.56639,-0.0023 8.327183,-0.333592 8.489948,-0.193122 0.15723,0.140465 -3.468757,2.333487 -8.035212,2.335705 z"
       sodipodi:nodetypes="ssscs" />
    <path
       id="path11"
       style="fill:#e2d7e6;stroke:#332d21;stroke-width:0"
       d="m 15.95292,24.210164 c -0.254753,0.01027 0.03635,-0.43295 -0.0064,-0.910694 -0.05105,-0.570236 -0.367691,-0.760216 -0.190464,-0.895614 0.226407,-0.172995 0.663319,0.215005 0.690339,0.827324 0.02673,0.612345 -0.238685,0.968899 -0.49344,0.978984 z"
       sodipodi:nodetypes="ssscs" />
    <path
       id="path11-6"
       style="fill:#e2d7e6;stroke:#332d21;stroke-width:0"
       d="m 15.60057,27.292247 c -0.221327,0.0089 0.03158,-0.376142 -0.0056,-0.791201 -0.04436,-0.495414 -0.319445,-0.660466 -0.165473,-0.778098 0.196698,-0.150302 0.576283,0.186792 0.599758,0.718769 0.02322,0.531998 -0.207367,0.841768 -0.428695,0.85053 z"
       sodipodi:nodetypes="ssscs" />
    <path
       id="path11-3"
       style="fill:#e2d7e6;stroke:#332d21;stroke-width:0"
       d="m 15.530726,31.080132 c -0.221328,0.0089 0.03158,-0.376142 -0.0056,-0.791201 -0.04436,-0.495414 -0.319445,-0.660466 -0.165472,-0.778098 0.196698,-0.150302 0.576283,0.186792 0.599758,0.718771 0.02322,0.531996 -0.207367,0.841768 -0.428695,0.850528 z"
       sodipodi:nodetypes="ssscs" />
    <path
       id="path11-66"
       style="fill:#e2d7e6;stroke:#332d21;stroke-width:0"
       d="m 14.710738,33.327583 c -0.156236,0.0062 0.02229,-0.265519 -0.004,-0.558511 -0.03132,-0.349715 -0.225497,-0.466225 -0.116808,-0.54926 0.13885,-0.106095 0.4068,0.131857 0.423371,0.507382 0.01639,0.375535 -0.146382,0.594206 -0.302615,0.600389 z"
       sodipodi:nodetypes="ssscs" />
    <path
       id="path11-63"
       style="fill:#e2d7e6;stroke:#332d21;stroke-width:0"
       d="m 12.11306,30.878898 c -0.221327,0.0058 0.03158,-0.246294 -0.0056,-0.518071 -0.04436,-0.324394 -0.319445,-0.432468 -0.165472,-0.509493 0.196698,-0.09842 0.576283,0.122299 0.599758,0.470646 0.02322,0.348346 -0.207368,0.551179 -0.428695,0.556918 z"
       sodipodi:nodetypes="ssscs" />
    <path
       id="path11-9"
       style="fill:#e2d7e6;stroke:#332d21;stroke-width:0"
       d="m 13.352771,27.905514 c -0.187901,0.0073 0.02681,-0.319333 -0.0048,-0.671705 -0.03766,-0.420593 -0.2712,-0.560718 -0.140482,-0.660582 0.166991,-0.127607 0.489248,0.158578 0.509178,0.610213 0.01972,0.451651 -0.176049,0.714639 -0.36395,0.722074 z"
       sodipodi:nodetypes="ssscs" />
    <path
       id="path11-8"
       style="fill:#e2d7e6;stroke:#332d21;stroke-width:0"
       d="m 12.811361,25.201897 c -0.19174,0.0076 0.02736,-0.32586 -0.0049,-0.685434 -0.03843,-0.429185 -0.276741,-0.572174 -0.143352,-0.674079 0.170404,-0.130191 0.499245,0.161814 0.519583,0.622683 0.02013,0.46088 -0.179647,0.729241 -0.371387,0.73683 z"
       sodipodi:nodetypes="ssscs" />
    <path
       id="path11-36"
       style="fill:#e2d7e6;stroke:#332d21;stroke-width:0"
       d="m 9.451343,25.421253 c -0.1799055,0.0072 0.025668,-0.305745 -0.00455,-0.643125 -0.036059,-0.402696 -0.2596599,-0.536858 -0.1345042,-0.632476 0.1598846,-0.122174 0.4684302,0.151843 0.487512,0.584253 0.018864,0.432432 -0.1685581,0.684225 -0.3484643,0.691348 z"
       sodipodi:nodetypes="ssscs" />
    <path
       id="path11-0"
       style="fill:#e2d7e6;stroke:#332d21;stroke-width:0"
       d="m 10.172269,28.077563 c -0.2213269,0.0072 0.03158,-0.303104 -0.0056,-0.637567 -0.04436,-0.399215 -0.3194446,-0.532216 -0.165472,-0.627009 0.196698,-0.121116 0.576283,0.15052 0.599758,0.579202 0.02322,0.428693 -0.207367,0.678313 -0.428695,0.685374 z"
       sodipodi:nodetypes="ssscs" />
    <path
       style="fill:#d99f7a;fill-opacity:1;stroke:#332d21;stroke-width:0.618753;stroke-dasharray:none;stroke-opacity:1"
       id="path12"
       sodipodi:type="arc"
       sodipodi:cx="-27.75705"
       sodipodi:cy="13.998059"
       sodipodi:rx="0.41509041"
       sodipodi:ry="0.25400022"
       sodipodi:start="6.2613533"
       sodipodi:end="6.2601406"
       sodipodi:open="true"
       sodipodi:arc-type="arc"
       d="m -27.342058,13.992514 a 0.41509041,0.25400022 0 0 1 -0.405804,0.259483 0.41509041,0.25400022 0 0 1 -0.424173,-0.248239 0.41509041,0.25400022 0 0 1 0.405546,-0.259633 0.41509041,0.25400022 0 0 1 0.42442,0.248081"
       transform="scale(-1,1)" />
    <path
       id="path8-2-7"
       style="fill:#f4cda9;fill-opacity:1;stroke:#322d21;stroke-width:0.572201;stroke-linejoin:round;stroke-miterlimit:8.2;stroke-opacity:0.995995"
       d="m 21.606434,21.580571 c 0.908346,3.20705 4.145237,5.45879 7.229798,5.029405 3.084561,-0.429382 4.848729,-3.377297 3.940382,-6.584342 -1.281709,-4.473465 -4.067344,-4.285764 -6.57254,-3.861149 -2.334828,0.395739 -5.620779,0.725411 -4.59764,5.416086 z"
       sodipodi:nodetypes="sssas" />
    <path
       style="fill:#d99f7a;fill-opacity:1;stroke:#332d21;stroke-width:0.618753;stroke-dasharray:none;stroke-opacity:1"
       id="path12-7"
       sodipodi:type="arc"
       sodipodi:cx="-26.442579"
       sodipodi:cy="17.589354"
       sodipodi:rx="0.41509041"
       sodipodi:ry="0.25400022"
       sodipodi:start="6.2613533"
       sodipodi:end="6.2601406"
       sodipodi:open="true"
       sodipodi:arc-type="arc"
       d="m -26.027588,17.583809 a 0.41509041,0.25400022 0 0 1 -0.405804,0.259483 0.41509041,0.25400022 0 0 1 -0.424173,-0.24824 0.41509041,0.25400022 0 0 1 0.405547,-0.259633 0.41509041,0.25400022 0 0 1 0.424419,0.248082"
       transform="scale(-1,1)" />
    <path
       id="path1-9"
       style="fill:#d9a87a;fill-opacity:1;stroke:#332d21;stroke-width:0.630413;stroke-dasharray:none;stroke-opacity:1"
       d="m 16.882548,17.831192 a 2.147467,2.147467 0 0 0 -2.043161,1.669443 2.147467,2.147467 0 0 0 -1.030186,-0.240952 2.147467,2.147467 0 0 0 -1.851384,1.145746 2.147467,2.147467 0 0 0 -1.778853,-0.874062 2.147467,2.147467 0 0 0 -2.0972522,2.194372 2.147467,2.147467 0 0 0 0.808905,1.626414 2.147467,2.147467 0 0 0 -0.2286572,1.00437 2.147467,2.147467 0 0 0 2.1943694,2.098483 2.147467,2.147467 0 0 0 0.121705,-0.0061 2.147467,2.147467 0 0 0 -0.156126,0.85439 2.147467,2.147467 0 0 0 2.19437,2.098483 2.147467,2.147467 0 0 0 0.285206,-0.02582 2.147467,2.147467 0 0 0 -0.04794,0.50157 2.147467,2.147467 0 0 0 2.194369,2.09848 2.147467,2.147467 0 0 0 2.099709,-2.194369 v -0.0025 a 2.147467,2.147467 0 0 0 -0.206528,-0.870374 2.147467,2.147467 0 0 0 1.271137,-2.00751 v -0.0025 a 2.147467,2.147467 0 0 0 -1.032645,-1.781313 2.147467,2.147467 0 0 1 0.0012,-0.0012 2.147467,2.147467 0 0 0 1.031416,-1.883347 v -0.0025 a 2.147467,2.147467 0 0 0 -0.576561,-1.410052 2.147467,2.147467 0 0 0 1.042479,-1.889492 v -0.0025 a 2.147467,2.147467 0 0 0 -2.195598,-2.097196 z" />
    <path
       id="path11-98"
       style="fill:#e2d7e6;stroke:#332d21;stroke-width:0"
       d="m 17.798513,20.862707 c -0.254754,0.01027 0.03635,-0.43295 -0.0064,-0.910694 -0.05106,-0.570236 -0.367692,-0.760216 -0.190465,-0.895614 0.226407,-0.172995 0.663319,0.215005 0.690339,0.827325 0.02673,0.612344 -0.238685,0.968898 -0.49344,0.978983 z"
       sodipodi:nodetypes="ssscs" />
    <path
       id="path11-6-1"
       style="fill:#e2d7e6;stroke:#332d21;stroke-width:0"
       d="m 17.446163,23.94479 c -0.221327,0.0089 0.03158,-0.376142 -0.0056,-0.791201 -0.04436,-0.495414 -0.319446,-0.660466 -0.165474,-0.778098 0.196699,-0.150302 0.576284,0.186792 0.599758,0.718769 0.02322,0.531998 -0.207367,0.841768 -0.428694,0.85053 z"
       sodipodi:nodetypes="ssscs" />
    <path
       id="path11-3-8"
       style="fill:#e2d7e6;stroke:#332d21;stroke-width:0"
       d="m 17.376318,27.732675 c -0.221328,0.0089 0.03158,-0.376142 -0.0056,-0.791201 -0.04436,-0.495414 -0.319444,-0.660466 -0.165472,-0.778098 0.196699,-0.150302 0.576284,0.186792 0.599758,0.718771 0.02322,0.531996 -0.207367,0.841768 -0.428694,0.850528 z"
       sodipodi:nodetypes="ssscs" />
    <path
       id="path11-66-2"
       style="fill:#e2d7e6;stroke:#332d21;stroke-width:0"
       d="m 16.556331,29.980126 c -0.156235,0.0062 0.02229,-0.265519 -0.0039,-0.558511 -0.03132,-0.349715 -0.225498,-0.466225 -0.116805,-0.54926 0.138846,-0.106095 0.406799,0.131857 0.42337,0.507382 0.01639,0.375535 -0.146379,0.594206 -0.302615,0.600389 z"
       sodipodi:nodetypes="ssscs" />
    <path
       id="path11-63-6"
       style="fill:#e2d7e6;stroke:#332d21;stroke-width:0"
       d="m 13.958654,27.531441 c -0.221328,0.0058 0.03158,-0.246293 -0.0056,-0.518071 -0.04436,-0.324394 -0.319446,-0.432468 -0.165473,-0.509493 0.196698,-0.09842 0.576283,0.122299 0.599758,0.470646 0.02322,0.348346 -0.207367,0.551179 -0.428695,0.556918 z"
       sodipodi:nodetypes="ssscs" />
    <path
       id="path11-9-6"
       style="fill:#e2d7e6;stroke:#332d21;stroke-width:0"
       d="m 15.198364,24.558057 c -0.187901,0.0073 0.0268,-0.319333 -0.0048,-0.671705 -0.03767,-0.420593 -0.2712,-0.560718 -0.14048,-0.660582 0.16699,-0.127607 0.489248,0.158578 0.509179,0.610213 0.01972,0.451651 -0.176051,0.714639 -0.363951,0.722074 z"
       sodipodi:nodetypes="ssscs" />
    <path
       id="path11-8-0"
       style="fill:#e2d7e6;stroke:#332d21;stroke-width:0"
       d="m 14.656955,21.85444 c -0.191741,0.0076 0.02735,-0.32586 -0.0048,-0.685434 -0.03843,-0.429185 -0.276742,-0.572174 -0.143352,-0.674079 0.170403,-0.130191 0.499244,0.161814 0.519582,0.622683 0.02013,0.46088 -0.179646,0.729241 -0.371386,0.73683 z"
       sodipodi:nodetypes="ssscs" />
    <path
       id="path11-36-3"
       style="fill:#e2d7e6;stroke:#332d21;stroke-width:0"
       d="m 11.296936,22.073796 c -0.179905,0.0072 0.02567,-0.305745 -0.0045,-0.643125 -0.03606,-0.402696 -0.25966,-0.536858 -0.134504,-0.632476 0.159884,-0.122174 0.46843,0.151843 0.487512,0.584253 0.01886,0.432432 -0.168558,0.684225 -0.348464,0.691348 z"
       sodipodi:nodetypes="ssscs" />
    <path
       id="path11-0-8"
       style="fill:#e2d7e6;stroke:#332d21;stroke-width:0"
       d="m 12.017863,24.730106 c -0.221328,0.0072 0.03158,-0.303103 -0.0056,-0.637567 -0.04436,-0.399215 -0.319445,-0.532215 -0.165473,-0.627009 0.196698,-0.121116 0.576283,0.15052 0.599759,0.579202 0.02322,0.428694 -0.207368,0.678313 -0.428696,0.685374 z"
       sodipodi:nodetypes="ssscs" />
  </g>
</svg>
