<?xml version="1.0" encoding="UTF-8" standalone="no"?>
<!-- Created with Inkscape (http://www.inkscape.org/) -->

<svg
   width="200"
   height="201.17665"
   viewBox="0 0 52.916666 53.227988"
   version="1.1"
   id="svg1"
   inkscape:version="1.4.2 (f4327f4, 2025-05-13)"
   sodipodi:docname="FruitMagnet3.svg"
   xmlns:inkscape="http://www.inkscape.org/namespaces/inkscape"
   xmlns:sodipodi="http://sodipodi.sourceforge.net/DTD/sodipodi-0.dtd"
   xmlns:xlink="http://www.w3.org/1999/xlink"
   xmlns="http://www.w3.org/2000/svg"
   xmlns:svg="http://www.w3.org/2000/svg">
  <sodipodi:namedview
     id="namedview1"
     pagecolor="#ffffff"
     bordercolor="#000000"
     borderopacity="0.25"
     inkscape:showpageshadow="2"
     inkscape:pageopacity="0.0"
     inkscape:pagecheckerboard="0"
     inkscape:deskcolor="#d1d1d1"
     inkscape:document-units="mm"
     inkscape:zoom="3.2124158"
     inkscape:cx="-16.809779"
     inkscape:cy="41.246217"
     inkscape:window-width="3840"
     inkscape:window-height="2054"
     inkscape:window-x="-11"
     inkscape:window-y="-11"
     inkscape:window-maximized="1"
     inkscape:current-layer="layer1" />
  <defs
     id="defs1">
    <inkscape:path-effect
       effect="spiro"
       id="path-effect8"
       is_visible="true"
       lpeversion="1" />
    <inkscape:path-effect
       effect="mirror_symmetry"
       start_point="17.255329,9.2448751"
       end_point="17.255329,29.300879"
       center_point="17.255329,19.272877"
       id="path-effect5"
       is_visible="true"
       lpeversion="1.2"
       lpesatellites=""
       mode="free"
       discard_orig_path="false"
       fuse_paths="true"
       oposite_fuse="false"
       split_items="false"
       split_open="false"
       link_styles="false" />
    <inkscape:path-effect
       effect="mirror_symmetry"
       start_point="27.030316,8.4102839"
       end_point="27.030316,28.182973"
       center_point="27.030316,18.296628"
       id="path-effect3"
       is_visible="true"
       lpeversion="1.2"
       lpesatellites=""
       mode="free"
       discard_orig_path="false"
       fuse_paths="false"
       oposite_fuse="false"
       split_items="false"
       split_open="false"
       link_styles="false" />
    <linearGradient
       inkscape:collect="always"
       xlink:href="#linearGradient33"
       id="linearGradient34"
       x1="9.157506"
       y1="0.65352297"
       x2="9.5236139"
       y2="7.639287"
       gradientUnits="userSpaceOnUse" />
    <linearGradient
       id="linearGradient33"
       inkscape:collect="always">
      <stop
         style="stop-color:#ffd1a8;stop-opacity:1;"
         offset="0"
         id="stop33" />
      <stop
         style="stop-color:#a06c34;stop-opacity:1;"
         offset="0.69575757"
         id="stop34" />
    </linearGradient>
    <inkscape:path-effect
       effect="spiro"
       id="path-effect8-8"
       is_visible="true"
       lpeversion="1" />
    <inkscape:path-effect
       effect="spiro"
       id="path-effect8-0"
       is_visible="true"
       lpeversion="1" />
    <inkscape:path-effect
       effect="spiro"
       id="path-effect8-0-9"
       is_visible="true"
       lpeversion="1" />
    <inkscape:path-effect
       effect="spiro"
       id="path-effect8-8-6"
       is_visible="true"
       lpeversion="1" />
    <inkscape:path-effect
       effect="spiro"
       id="path-effect8-3"
       is_visible="true"
       lpeversion="1" />
    <linearGradient
       inkscape:collect="always"
       xlink:href="#linearGradient33"
       id="linearGradient34-5"
       x1="9.157506"
       y1="0.65352297"
       x2="9.5236139"
       y2="7.639287"
       gradientUnits="userSpaceOnUse" />
    <linearGradient
       inkscape:collect="always"
       xlink:href="#linearGradient33"
       id="linearGradient34-5-6"
       x1="9.157506"
       y1="0.65352297"
       x2="9.5236139"
       y2="7.639287"
       gradientUnits="userSpaceOnUse" />
    <linearGradient
       inkscape:collect="always"
       xlink:href="#linearGradient33"
       id="linearGradient1"
       gradientUnits="userSpaceOnUse"
       x1="9.157506"
       y1="0.65352297"
       x2="9.5236139"
       y2="7.639287" />
    <linearGradient
       inkscape:collect="always"
       xlink:href="#linearGradient33"
       id="linearGradient2"
       gradientUnits="userSpaceOnUse"
       x1="9.157506"
       y1="0.65352297"
       x2="9.5236139"
       y2="7.639287" />
  </defs>
  <g
     inkscape:label="Ebene 1"
     inkscape:groupmode="layer"
     id="layer1"
     transform="translate(-0.20000279)">
    <rect
       style="fill:#d9a87a;fill-opacity:1;stroke:#212532;stroke-width:1.29973;stroke-linejoin:round;stroke-miterlimit:8.2;stroke-dasharray:none;stroke-opacity:0.995995"
       id="rect1"
       width="51.616936"
       height="51.616943"
       x="0.84986776"
       y="0.96118188"
       ry="5.9818354"
       rx="19.15794" />
    <rect
       style="fill:#ed7d26;fill-opacity:1;stroke:#212532;stroke-width:0.689558;stroke-linejoin:round;stroke-miterlimit:8.2;stroke-dasharray:none;stroke-opacity:0.995995"
       id="rect1-8"
       width="45.94006"
       height="45.940067"
       x="3.6883085"
       y="3.7996202"
       ry="5.3239479"
       rx="17.050934" />
    <path
       d="m 20.167019,26.488891 c -0.977362,-0.118766 -2.150133,-0.26496 -3.41297,-0.427125 -1.917343,-0.246209 -3.624332,-0.474462 -4.75467,-0.633848 -1.054782,4.729799 -1.823978,11.302949 0.596847,15.517228 3.187777,5.549422 10.250326,6.454291 14.1522,6.503384 3.901875,-0.0491 10.961207,-0.953962 14.148984,-6.503384 C 45.035193,33.741912 39.85735,19.64606 39.85735,19.64606 l -8.858598,0.0917 c 0,0 6.643264,12.503344 -0.987775,18.012404 -0.990086,0.714771 -2.129566,0.995433 -3.262551,1.06419 -1.132985,-0.06875 -2.271658,-0.349419 -3.261746,-1.06419 -3.878636,-2.800096 -4.069575,-7.407398 -3.319661,-11.261272 z"
       style="fill:#d9a87a;stroke:#322d21;stroke-width:0.496197;stroke-linejoin:round;stroke-miterlimit:8.2;stroke-opacity:0.995995"
       id="path5" />
    <path
       d="m 20.167019,26.488891 c 0.725505,-3.728447 2.331083,-6.751133 2.331083,-6.751133 l -8.8586,-0.0917 c 0,0 -0.892024,2.427271 -1.640123,5.781859 1.130338,0.159386 2.837327,0.387638 4.75467,0.633848 1.262837,0.162164 2.435608,0.308363 3.41297,0.427123 z"
       style="fill:#9b7756;fill-opacity:1;stroke:#322d21;stroke-width:0.689558;stroke-linejoin:round;stroke-miterlimit:8.2;stroke-opacity:0.995995"
       id="path6" />
    <path
       d="M 33.331625,26.585569 C 32.60612,22.857123 31.000542,19.834437 31.000542,19.834437 l 8.8586,-0.0917 c 0,0 0.892024,2.427271 1.640123,5.781859 -1.130338,0.159386 -2.837328,0.387639 -4.75467,0.633848 -1.262837,0.162164 -2.435608,0.308363 -3.41297,0.427123 z"
       style="fill:#9b7756;fill-opacity:1;stroke:#322d21;stroke-width:0.689558;stroke-linejoin:round;stroke-miterlimit:8.2;stroke-opacity:0.995995"
       id="path6-6" />
    <path
       style="fill:#9b7756;fill-opacity:0;stroke:#322d21;stroke-width:0.443;stroke-linejoin:round;stroke-miterlimit:8.2;stroke-opacity:0.995995"
       d="m 11.139559,4.2622713 c -0.265076,0.1947902 -0.469016,0.4715649 -0.57654,0.7824459 -0.127008,0.3672137 -0.118909,0.7706351 -0.0382,1.1507181 0.08071,0.380083 0.23097,0.7414209 0.385445,1.097952 0.154475,0.3565311 0.314609,0.712577 0.416701,1.0874826 0.102092,0.3749057 0.144372,0.773401 0.05968,1.152616 -0.05875,0.2630498 -0.178645,0.5126591 -0.350041,0.7206741 -0.06183,0.07504 -0.13031,0.14476 -0.205907,0.205906 -0.03856,0.03119 -0.07915,0.06025 -0.123544,0.08236 -0.03899,0.01941 -0.08071,0.03332 -0.123545,0.04118"
       id="path8"
       inkscape:path-effect="#path-effect8"
       inkscape:original-d="m 11.139559,4.2622713 c -0.314348,0.2043263 -0.419146,0.433932 -0.57654,0.7824459 -1.0943347,2.1667256 0.833604,2.9494321 0.823625,4.4887687 -0.02179,0.3704222 -0.08667,0.4812441 -0.350041,0.7206741 -0.07182,0.06529 -0.130782,0.144443 -0.205907,0.205906 -0.03831,0.03134 -0.07849,0.06188 -0.123544,0.08236 -0.164958,0.07498 -0.06365,-0.01871 -0.123545,0.04118"
       sodipodi:nodetypes="csssssc"
       transform="matrix(1.5565636,0,0,1.5565636,-1.7430696,1.1680447)" />
    <path
       style="fill:#9b7756;fill-opacity:0;stroke:#322d21;stroke-width:0.443;stroke-linejoin:round;stroke-miterlimit:8.2;stroke-opacity:0.995995"
       d="m 11.139559,4.2622713 c -0.265076,0.1947902 -0.469016,0.4715649 -0.57654,0.7824459 -0.127008,0.3672137 -0.118909,0.7706351 -0.0382,1.1507181 0.08071,0.380083 0.23097,0.7414209 0.385445,1.097952 0.154475,0.3565311 0.314609,0.712577 0.416701,1.0874826 0.102092,0.3749057 0.144372,0.773401 0.05968,1.152616 -0.05875,0.2630498 -0.178645,0.5126591 -0.350041,0.7206741 -0.06183,0.07504 -0.13031,0.14476 -0.205907,0.205906 -0.03856,0.03119 -0.07915,0.06025 -0.123544,0.08236 -0.03899,0.01941 -0.08071,0.03332 -0.123545,0.04118"
       id="path8-4"
       inkscape:path-effect="#path-effect8-8"
       inkscape:original-d="m 11.139559,4.2622713 c -0.314348,0.2043263 -0.419146,0.433932 -0.57654,0.7824459 -1.0943347,2.1667256 0.833604,2.9494321 0.823625,4.4887687 -0.02179,0.3704222 -0.08667,0.4812441 -0.350041,0.7206741 -0.07182,0.06529 -0.130782,0.144443 -0.205907,0.205906 -0.03831,0.03134 -0.07849,0.06188 -0.123544,0.08236 -0.164958,0.07498 -0.06365,-0.01871 -0.123545,0.04118"
       sodipodi:nodetypes="csssssc"
       transform="matrix(1.5565636,0,0,1.5565636,0.45141663,1.1680447)" />
    <path
       style="fill:#9b7756;fill-opacity:0;stroke:#322d21;stroke-width:0.443;stroke-linejoin:round;stroke-miterlimit:8.2;stroke-opacity:0.995995"
       d="m 11.139559,4.2622713 c -0.265076,0.1947902 -0.469016,0.4715649 -0.57654,0.7824459 -0.127008,0.3672137 -0.118909,0.7706351 -0.0382,1.1507181 0.08071,0.380083 0.23097,0.7414209 0.385445,1.097952 0.154475,0.3565311 0.314609,0.712577 0.416701,1.0874826 0.102092,0.3749057 0.144372,0.773401 0.05968,1.152616 -0.05875,0.2630498 -0.178645,0.5126591 -0.350041,0.7206741 -0.06183,0.07504 -0.13031,0.14476 -0.205907,0.205906 -0.03856,0.03119 -0.07915,0.06025 -0.123544,0.08236 -0.03899,0.01941 -0.08071,0.03332 -0.123545,0.04118"
       id="path8-1"
       inkscape:path-effect="#path-effect8-0"
       inkscape:original-d="m 11.139559,4.2622713 c -0.314348,0.2043263 -0.419146,0.433932 -0.57654,0.7824459 -1.0943347,2.1667256 0.833604,2.9494321 0.823625,4.4887687 -0.02179,0.3704222 -0.08667,0.4812441 -0.350041,0.7206741 -0.07182,0.06529 -0.130782,0.144443 -0.205907,0.205906 -0.03831,0.03134 -0.07849,0.06188 -0.123544,0.08236 -0.164958,0.07498 -0.06365,-0.01871 -0.123545,0.04118"
       sodipodi:nodetypes="csssssc"
       transform="matrix(1.5565636,0,0,1.5565636,2.6459029,1.1680447)" />
    <path
       style="fill:#9b7756;fill-opacity:0;stroke:#322d21;stroke-width:0.443;stroke-linejoin:round;stroke-miterlimit:8.2;stroke-opacity:0.995995"
       d="m 11.139559,4.2622713 c -0.265076,0.1947902 -0.469016,0.4715649 -0.57654,0.7824459 -0.127008,0.3672137 -0.118909,0.7706351 -0.0382,1.1507181 0.08071,0.380083 0.23097,0.7414209 0.385445,1.097952 0.154475,0.3565311 0.314609,0.712577 0.416701,1.0874826 0.102092,0.3749057 0.144372,0.773401 0.05968,1.152616 -0.05875,0.2630498 -0.178645,0.5126591 -0.350041,0.7206741 -0.06183,0.07504 -0.13031,0.14476 -0.205907,0.205906 -0.03856,0.03119 -0.07915,0.06025 -0.123544,0.08236 -0.03899,0.01941 -0.08071,0.03332 -0.123545,0.04118"
       id="path8-8"
       inkscape:path-effect="#path-effect8-3"
       inkscape:original-d="m 11.139559,4.2622713 c -0.314348,0.2043263 -0.419146,0.433932 -0.57654,0.7824459 -1.0943347,2.1667256 0.833604,2.9494321 0.823625,4.4887687 -0.02179,0.3704222 -0.08667,0.4812441 -0.350041,0.7206741 -0.07182,0.06529 -0.130782,0.144443 -0.205907,0.205906 -0.03831,0.03134 -0.07849,0.06188 -0.123544,0.08236 -0.164958,0.07498 -0.06365,-0.01871 -0.123545,0.04118"
       sodipodi:nodetypes="csssssc"
       transform="matrix(1.5565636,0,0,1.5565636,16.128284,1.3290076)" />
    <path
       sodipodi:type="star"
       style="fill:url(#linearGradient1);fill-opacity:1;fill-rule:nonzero;stroke:#322d21;stroke-width:0.443;stroke-linejoin:round;stroke-miterlimit:8.2;stroke-opacity:0.995995"
       id="path1-5-7-01"
       inkscape:flatsided="false"
       sodipodi:sides="5"
       sodipodi:cx="9.3473988"
       sodipodi:cy="4.4553022"
       sodipodi:r1="3.4362388"
       sodipodi:r2="2.3474281"
       sodipodi:arg1="0.9357696"
       sodipodi:arg2="1.5640882"
       inkscape:rounded="0.12173243"
       inkscape:randomized="0"
       d="M 11.385772,7.2216663 C 11.183344,7.3708242 9.6145864,6.8009908 9.3631455,6.8026775 9.1117046,6.8043642 7.5507336,7.3951928 7.3463222,7.2487642 7.1419108,7.1023355 7.1990819,5.4342704 7.1197782,5.1956571 7.0404745,4.9570438 5.9961966,3.6550483 6.0722919,3.4153926 6.1483873,3.1757368 7.7524783,2.7146493 7.9549068,2.5654914 8.1573353,2.4163336 9.0729071,1.0208275 9.324348,1.0191408 c 0.2514409,-0.00169 1.185653,1.3814106 1.390064,1.5278393 0.204411,0.1464286 1.814544,0.585954 1.893847,0.8245673 0.0793,0.2386133 -0.947412,1.5545019 -1.023508,1.7941577 -0.0761,0.2396557 0.0034,1.9068034 -0.198979,2.0559612 z"
       inkscape:transform-center-x="-0.22750046"
       inkscape:transform-center-y="-0.58914029"
       transform="matrix(-0.83003047,-0.10965987,-0.10965987,0.83003047,44.575579,0.36370502)" />
    <path
       sodipodi:type="star"
       style="fill:url(#linearGradient2);fill-opacity:1;fill-rule:nonzero;stroke:#322d21;stroke-width:0.443;stroke-linejoin:round;stroke-miterlimit:8.2;stroke-opacity:0.995995"
       id="path1-5-7-01-0"
       inkscape:flatsided="false"
       sodipodi:sides="5"
       sodipodi:cx="9.3473988"
       sodipodi:cy="4.4553022"
       sodipodi:r1="3.4362388"
       sodipodi:r2="2.3474281"
       sodipodi:arg1="0.9357696"
       sodipodi:arg2="1.5640882"
       inkscape:rounded="0.12173243"
       inkscape:randomized="0"
       d="M 11.385772,7.2216663 C 11.183344,7.3708242 9.6145864,6.8009908 9.3631455,6.8026775 9.1117046,6.8043642 7.5507336,7.3951928 7.3463222,7.2487642 7.1419108,7.1023355 7.1990819,5.4342704 7.1197782,5.1956571 7.0404745,4.9570438 5.9961966,3.6550483 6.0722919,3.4153926 6.1483873,3.1757368 7.7524783,2.7146493 7.9549068,2.5654914 8.1573353,2.4163336 9.0729071,1.0208275 9.324348,1.0191408 c 0.2514409,-0.00169 1.185653,1.3814106 1.390064,1.5278393 0.204411,0.1464286 1.814544,0.585954 1.893847,0.8245673 0.0793,0.2386133 -0.947412,1.5545019 -1.023508,1.7941577 -0.0761,0.2396557 0.0034,1.9068034 -0.198979,2.0559612 z"
       inkscape:transform-center-x="0.22750046"
       inkscape:transform-center-y="-0.58914029"
       transform="matrix(0.83003047,-0.10965987,0.10965987,0.83003047,8.752035,0.36370502)" />
    <path
       style="fill:#9b7756;fill-opacity:0;stroke:#322d21;stroke-width:0.443;stroke-linejoin:round;stroke-miterlimit:8.2;stroke-opacity:0.995995"
       d="m 11.139559,4.2622713 c -0.265076,0.1947902 -0.469016,0.4715649 -0.57654,0.7824459 -0.127008,0.3672137 -0.118909,0.7706351 -0.0382,1.1507181 0.08071,0.380083 0.23097,0.7414209 0.385445,1.097952 0.154475,0.3565311 0.314609,0.712577 0.416701,1.0874826 0.102092,0.3749057 0.144372,0.773401 0.05968,1.152616 -0.05875,0.2630498 -0.178645,0.5126591 -0.350041,0.7206741 -0.06183,0.07504 -0.13031,0.14476 -0.205907,0.205906 -0.03856,0.03119 -0.07915,0.06025 -0.123544,0.08236 -0.03899,0.01941 -0.08071,0.03332 -0.123545,0.04118"
       id="path8-4-2"
       inkscape:path-effect="#path-effect8-8-6"
       inkscape:original-d="m 11.139559,4.2622713 c -0.314348,0.2043263 -0.419146,0.433932 -0.57654,0.7824459 -1.0943347,2.1667256 0.833604,2.9494321 0.823625,4.4887687 -0.02179,0.3704222 -0.08667,0.4812441 -0.350041,0.7206741 -0.07182,0.06529 -0.130782,0.144443 -0.205907,0.205906 -0.03831,0.03134 -0.07849,0.06188 -0.123544,0.08236 -0.164958,0.07498 -0.06365,-0.01871 -0.123545,0.04118"
       sodipodi:nodetypes="csssssc"
       transform="matrix(1.5565636,0,0,1.5565636,18.322771,1.3290076)" />
    <path
       sodipodi:type="star"
       style="fill:url(#linearGradient34-5);fill-opacity:1;fill-rule:nonzero;stroke:#322d21;stroke-width:0.443;stroke-linejoin:round;stroke-miterlimit:8.2;stroke-opacity:0.995995"
       id="path1-5-7"
       inkscape:flatsided="false"
       sodipodi:sides="5"
       sodipodi:cx="9.3473988"
       sodipodi:cy="4.4553022"
       sodipodi:r1="3.4362388"
       sodipodi:r2="2.3474281"
       sodipodi:arg1="0.9357696"
       sodipodi:arg2="1.5640882"
       inkscape:rounded="0.12173243"
       inkscape:randomized="0"
       d="M 11.385772,7.2216663 C 11.183344,7.3708242 9.6145864,6.8009908 9.3631455,6.8026775 9.1117046,6.8043642 7.5507336,7.3951928 7.3463222,7.2487642 7.1419108,7.1023355 7.1990819,5.4342704 7.1197782,5.1956571 7.0404745,4.9570438 5.9961966,3.6550483 6.0722919,3.4153926 6.1483873,3.1757368 7.7524783,2.7146493 7.9549068,2.5654914 8.1573353,2.4163336 9.0729071,1.0208275 9.324348,1.0191408 c 0.2514409,-0.00169 1.185653,1.3814106 1.390064,1.5278393 0.204411,0.1464286 1.814544,0.585954 1.893847,0.8245673 0.0793,0.2386133 -0.947412,1.5545019 -1.023508,1.7941577 -0.0761,0.2396557 0.0034,1.9068034 -0.198979,2.0559612 z"
       inkscape:transform-center-x="-0.35624274"
       inkscape:transform-center-y="-0.78137341"
       transform="matrix(1.2056398,0.27960391,-0.27960391,1.2056398,23.239929,-2.4282795)" />
    <path
       style="fill:#9b7756;fill-opacity:0;stroke:#322d21;stroke-width:0.443;stroke-linejoin:round;stroke-miterlimit:8.2;stroke-opacity:0.995995"
       d="m 11.139559,4.2622713 c -0.265076,0.1947902 -0.469016,0.4715649 -0.57654,0.7824459 -0.127008,0.3672137 -0.118909,0.7706351 -0.0382,1.1507181 0.08071,0.380083 0.23097,0.7414209 0.385445,1.097952 0.154475,0.3565311 0.314609,0.712577 0.416701,1.0874826 0.102092,0.3749057 0.144372,0.773401 0.05968,1.152616 -0.05875,0.2630498 -0.178645,0.5126591 -0.350041,0.7206741 -0.06183,0.07504 -0.13031,0.14476 -0.205907,0.205906 -0.03856,0.03119 -0.07915,0.06025 -0.123544,0.08236 -0.03899,0.01941 -0.08071,0.03332 -0.123545,0.04118"
       id="path8-1-9"
       inkscape:path-effect="#path-effect8-0-9"
       inkscape:original-d="m 11.139559,4.2622713 c -0.314348,0.2043263 -0.419146,0.433932 -0.57654,0.7824459 -1.0943347,2.1667256 0.833604,2.9494321 0.823625,4.4887687 -0.02179,0.3704222 -0.08667,0.4812441 -0.350041,0.7206741 -0.07182,0.06529 -0.130782,0.144443 -0.205907,0.205906 -0.03831,0.03134 -0.07849,0.06188 -0.123544,0.08236 -0.164958,0.07498 -0.06365,-0.01871 -0.123545,0.04118"
       sodipodi:nodetypes="csssssc"
       transform="matrix(1.5565636,0,0,1.5565636,20.517256,1.3290076)" />
    <path
       sodipodi:type="star"
       style="fill:url(#linearGradient34-5-6);fill-opacity:1;fill-rule:nonzero;stroke:#322d21;stroke-width:0.443;stroke-linejoin:round;stroke-miterlimit:8.2;stroke-opacity:0.995995"
       id="path1-5-7-0"
       inkscape:flatsided="false"
       sodipodi:sides="5"
       sodipodi:cx="9.3473988"
       sodipodi:cy="4.4553022"
       sodipodi:r1="3.4362388"
       sodipodi:r2="2.3474281"
       sodipodi:arg1="0.9357696"
       sodipodi:arg2="1.5640882"
       inkscape:rounded="0.12173243"
       inkscape:randomized="0"
       d="M 11.385772,7.2216663 C 11.183344,7.3708242 9.6145864,6.8009908 9.3631455,6.8026775 9.1117046,6.8043642 7.5507336,7.3951928 7.3463222,7.2487642 7.1419108,7.1023355 7.1990819,5.4342704 7.1197782,5.1956571 7.0404745,4.9570438 5.9961966,3.6550483 6.0722919,3.4153926 6.1483873,3.1757368 7.7524783,2.7146493 7.9549068,2.5654914 8.1573353,2.4163336 9.0729071,1.0208275 9.324348,1.0191408 c 0.2514409,-0.00169 1.185653,1.3814106 1.390064,1.5278393 0.204411,0.1464286 1.814544,0.585954 1.893847,0.8245673 0.0793,0.2386133 -0.947412,1.5545019 -1.023508,1.7941577 -0.0761,0.2396557 0.0034,1.9068034 -0.198979,2.0559612 z"
       inkscape:transform-center-x="0.35624208"
       inkscape:transform-center-y="-0.78137341"
       transform="matrix(-1.2056398,0.27960391,0.27960391,1.2056398,30.275156,-2.4282795)" />
    <path
       sodipodi:type="star"
       style="fill:url(#linearGradient34);fill-opacity:1;fill-rule:nonzero;stroke:#322d21;stroke-width:0.443;stroke-linejoin:round;stroke-miterlimit:8.2;stroke-opacity:0.995995"
       id="path1-5"
       inkscape:flatsided="false"
       sodipodi:sides="5"
       sodipodi:cx="9.3473988"
       sodipodi:cy="4.4553022"
       sodipodi:r1="3.4362388"
       sodipodi:r2="2.3474281"
       sodipodi:arg1="0.9357696"
       sodipodi:arg2="1.5640882"
       inkscape:rounded="0.12173243"
       inkscape:randomized="0"
       d="M 11.385772,7.2216663 C 11.183344,7.3708242 9.6145864,6.8009908 9.3631455,6.8026775 9.1117046,6.8043642 7.5507336,7.3951928 7.3463222,7.2487642 7.1419108,7.1023355 7.1990819,5.4342704 7.1197782,5.1956571 7.0404745,4.9570438 5.9961966,3.6550483 6.0722919,3.4153926 6.1483873,3.1757368 7.7524783,2.7146493 7.9549068,2.5654914 8.1573353,2.4163336 9.0729071,1.0208275 9.324348,1.0191408 c 0.2514409,-0.00169 1.185653,1.3814106 1.390064,1.5278393 0.204411,0.1464286 1.814544,0.585954 1.893847,0.8245673 0.0793,0.2386133 -0.947412,1.5545019 -1.023508,1.7941577 -0.0761,0.2396557 0.0034,1.9068034 -0.198979,2.0559612 z"
       inkscape:transform-center-x="0.1245751"
       inkscape:transform-center-y="-1.5679452"
       transform="matrix(1.8544039,0,0,1.8544039,9.3373954,-1.4791375)" />
  </g>
</svg>
