<?xml version="1.0" encoding="UTF-8" standalone="no"?>
<!-- Created with Inkscape (http://www.inkscape.org/) -->

<svg
   width="130"
   height="130"
   viewBox="0 0 34.395833 34.395833"
   version="1.1"
   id="svg1"
   inkscape:version="1.4.2 (f4327f4, 2025-05-13)"
   sodipodi:docname="Headlight.svg"
   xml:space="preserve"
   xmlns:inkscape="http://www.inkscape.org/namespaces/inkscape"
   xmlns:sodipodi="http://sodipodi.sourceforge.net/DTD/sodipodi-0.dtd"
   xmlns:xlink="http://www.w3.org/1999/xlink"
   xmlns="http://www.w3.org/2000/svg"
   xmlns:svg="http://www.w3.org/2000/svg"><sodipodi:namedview
     id="namedview1"
     pagecolor="#ffffff"
     bordercolor="#000000"
     borderopacity="0.25"
     inkscape:showpageshadow="2"
     inkscape:pageopacity="0.0"
     inkscape:pagecheckerboard="0"
     inkscape:deskcolor="#d1d1d1"
     inkscape:document-units="mm"
     inkscape:zoom="6.4248316"
     inkscape:cx="32.374389"
     inkscape:cy="65.137894"
     inkscape:window-width="3840"
     inkscape:window-height="2054"
     inkscape:window-x="-11"
     inkscape:window-y="-11"
     inkscape:window-maximized="1"
     inkscape:current-layer="layer3" /><defs
     id="defs1"><linearGradient
       id="linearGradient24"
       inkscape:collect="always"><stop
         style="stop-color:#ceff78;stop-opacity:1;"
         offset="0.37108189"
         id="stop24" /><stop
         style="stop-color:#e6ffb2;stop-opacity:1;"
         offset="1"
         id="stop25" /></linearGradient><linearGradient
       id="linearGradient22"
       inkscape:collect="always"><stop
         style="stop-color:#5ab55e;stop-opacity:1;"
         offset="0.57836199"
         id="stop22" /><stop
         style="stop-color:#326934;stop-opacity:1;"
         offset="0.68048531"
         id="stop23" /></linearGradient><linearGradient
       id="linearGradient20"
       inkscape:collect="always"><stop
         style="stop-color:#5ab55e;stop-opacity:1;"
         offset="0"
         id="stop20" /><stop
         style="stop-color:#234725;stop-opacity:1;"
         offset="1"
         id="stop21" /></linearGradient><inkscape:path-effect
       effect="mirror_symmetry"
       start_point="19.481026,5.008575"
       end_point="17.530012,18.403601"
       center_point="18.505519,11.706088"
       id="path-effect8"
       is_visible="true"
       lpeversion="1.2"
       lpesatellites=""
       mode="free"
       discard_orig_path="false"
       fuse_paths="true"
       oposite_fuse="true"
       split_items="false"
       split_open="false"
       link_styles="false" /><inkscape:path-effect
       effect="mirror_symmetry"
       start_point="17.064098,17.976842"
       end_point="17.084658,28.040667"
       center_point="17.074378,23.008755"
       id="path-effect1"
       is_visible="true"
       lpeversion="1.2"
       lpesatellites=""
       mode="free"
       discard_orig_path="false"
       fuse_paths="true"
       oposite_fuse="false"
       split_items="false"
       split_open="false"
       link_styles="false" /><inkscape:path-effect
       effect="fillet_chamfer"
       id="path-effect28"
       is_visible="true"
       lpeversion="1"
       nodesatellites_param="F,0,0,1,0,0,0,1 @ F,0,0,1,0,0,0,1 @ F,0,0,1,0,0,0,1 @ F,0,0,1,0,0,0,1 @ F,0,0,1,0,0,0,1 @ F,0,0,1,0,0,0,1 @ F,0,0,1,0,0,0,1 @ F,0,0,1,0,0,0,1 @ F,0,0,1,0,0,0,1 @ F,0,0,1,0,0,0,1 @ F,0,0,1,0,0,0,1 @ F,0,0,1,0,0,0,1 | F,0,0,1,0,0,0,1 @ F,0,0,1,0,0,0,1 @ F,0,0,1,0,0,0,1 @ F,0,0,1,0,0,0,1 @ F,0,0,1,0,0,0,1 @ F,0,0,1,0,0,0,1 @ F,0,0,1,0,0,0,1 @ F,0,0,1,0,0,0,1 @ F,0,0,1,0,0,0,1 @ F,0,0,1,0,0,0,1 @ F,0,0,1,0,0,0,1"
       radius="0"
       unit="px"
       method="auto"
       mode="F"
       chamfer_steps="1"
       flexible="false"
       use_knot_distance="true"
       apply_no_radius="true"
       apply_with_radius="true"
       only_selected="false"
       hide_knots="false" /><linearGradient
       id="linearGradient13"
       inkscape:collect="always"><stop
         style="stop-color:#94f0b4;stop-opacity:1;"
         offset="0"
         id="stop13" /><stop
         style="stop-color:#51a351;stop-opacity:1;"
         offset="1"
         id="stop14" /></linearGradient><inkscape:path-effect
       effect="powerstroke"
       message=""
       id="path-effect4"
       is_visible="true"
       lpeversion="1.3"
       scale_width="1"
       interpolator_type="CentripetalCatmullRom"
       interpolator_beta="0.75"
       start_linecap_type="round"
       end_linecap_type="round"
       offset_points="10.839744,0.43679433"
       linejoin_type="spiro"
       miter_limit="4"
       not_jump="true"
       sort_points="true" /><inkscape:path-effect
       effect="simplify"
       id="path-effect3"
       is_visible="true"
       lpeversion="1.3"
       threshold="0.012"
       steps="1"
       smooth_angles="0"
       helper_size="0"
       simplify_individual_paths="false"
       simplify_just_coalesce="false"
       step="1" /><linearGradient
       inkscape:collect="always"
       xlink:href="#linearGradient13"
       id="linearGradient14"
       x1="6.1236198"
       y1="16.681654"
       x2="26.722703"
       y2="16.681654"
       gradientUnits="userSpaceOnUse"
       gradientTransform="matrix(0.74606137,0,0,0.82052713,4.9456425,-10.214342)" /><linearGradient
       inkscape:collect="always"
       xlink:href="#linearGradient13"
       id="linearGradient15"
       gradientUnits="userSpaceOnUse"
       x1="6.1236198"
       y1="16.681654"
       x2="26.722703"
       y2="16.681654"
       gradientTransform="matrix(0.74606137,0,0,-0.82052713,4.9456415,16.304999)" /><linearGradient
       inkscape:collect="always"
       xlink:href="#linearGradient20"
       id="linearGradient21"
       x1="15.871179"
       y1="33.807083"
       x2="18.18671"
       y2="26.680607"
       gradientUnits="userSpaceOnUse" /><linearGradient
       inkscape:collect="always"
       xlink:href="#linearGradient22"
       id="linearGradient23"
       x1="16.533585"
       y1="29.744438"
       x2="18.584682"
       y2="13.039583"
       gradientUnits="userSpaceOnUse" /><linearGradient
       inkscape:collect="always"
       xlink:href="#linearGradient24"
       id="linearGradient25"
       x1="9.0675859"
       y1="15.443898"
       x2="27.113455"
       y2="8.8757391"
       gradientUnits="userSpaceOnUse" /></defs><g
     inkscape:label="Ebene 1"
     inkscape:groupmode="layer"
     id="layer1"><rect
       style="fill:#7ad97e;stroke:#212532;stroke-width:0.835;stroke-linejoin:round;stroke-miterlimit:8.2;stroke-opacity:0.995995;stroke-dasharray:none;fill-opacity:1"
       id="rect1"
       width="33.160828"
       height="33.160831"
       x="0.61750245"
       y="0.61750251"
       ry="3.8429754"
       rx="12.307843" /><path
       d="m 13.395048,2.4411947 c -6.0686357,0 -10.9538533,1.5250882 -10.9538533,3.4199463 v 22.673551 c 0,1.894858 4.8852176,3.419947 10.9538533,3.419947 h 0.267684 c 0.481254,-0.807097 0.988804,-1.798278 1.092956,-2.533179 0.170107,-1.200284 -0.691701,-3.569392 -0.69298,-3.572909 l 6.46007,-0.37052 c 0,0 0.457806,2.403085 0.20774,3.567741 -0.180257,0.83954 -0.788939,1.990161 -1.33687,2.908867 h 1.607137 c 6.068636,0 10.953854,-1.525089 10.953854,-3.419947 V 5.861141 c 0,-1.8948581 -4.885218,-3.4199463 -10.953854,-3.4199463 z"
       style="fill:#c6f4ce;stroke:#212532;stroke-width:0.443;stroke-linejoin:round;stroke-miterlimit:8.2;stroke-opacity:0.995995"
       id="path13" /><path
       d="m 20.48109,1.0579285 c 2.246624,0.076211 4.005352,2.5148573 4.005352,2.5148573 l -0.812327,-0.0064 c 0,0 -1.559432,-1.4398454 -3.158712,-1.4806749 -1.385746,-0.035373 -2.502345,1.053081 -2.803377,1.3603069 L 17.539921,3.6435629 C 13.444753,8.7806532 9.8938355,3.5061755 9.8938355,3.5061755 l 0.8123285,0.0064 c 0,0 1.559047,1.4398455 3.158327,1.4806749 1.47466,0.037646 2.56992,-1.0495502 2.761502,-1.2527858 L 16.959851,3.3696923 C 18.221935,1.4231229 19.304287,1.0180082 20.48109,1.0579285 Z"
       style="fill:url(#linearGradient14);fill-opacity:1;stroke:#212532;stroke-width:0.399028;stroke-opacity:0.995995"
       id="path9-3"
       sodipodi:nodetypes="scccccccsccs" /><path
       d="m 20.48109,5.0327284 c 2.246624,-0.076211 4.005352,-2.5148573 4.005352,-2.5148573 l -0.812327,0.0064 c 0,0 -1.559432,1.4398454 -3.158712,1.4806749 C 19.129657,4.040319 18.013058,2.951865 17.712026,2.6446391 L 17.539921,2.447094 C 13.444753,-2.6899962 9.8938355,2.5844814 9.8938355,2.5844814 l 0.8123285,-0.0064 c 0,0 1.559047,-1.4398455 3.158327,-1.4806749 1.47466,-0.037646 2.56992,1.0495502 2.761502,1.2527858 l 0.333858,0.3707724 c 1.262084,1.9465693 2.344436,2.3516841 3.521239,2.3117637 z"
       style="fill:url(#linearGradient15);fill-opacity:1;stroke:#212532;stroke-width:0.399028;stroke-opacity:0.995995"
       id="path9-3-3"
       sodipodi:nodetypes="scccccccsccs" /><path
       d="m 20.481277,1.0577832 c -0.971202,-0.032944 -1.824525,0.1615971 -2.821189,1.3512195 0.239048,0.1197805 0.391759,0.3701233 0.548443,0.5844278 0.520274,-0.4201698 1.349611,-0.9322648 2.307059,-0.9078254 1.59928,0.04083 3.158712,1.4806748 3.158712,1.4806748 l 0.812329,0.0064 c 0,0 -1.758731,-2.4386468 -4.005354,-2.5148574 z"
       style="fill:#63b166;fill-opacity:1;stroke:#212532;stroke-width:0.399028;stroke-opacity:0.995995"
       id="path18"
       sodipodi:nodetypes="cccccccc" /><path
       id="rect18"
       style="fill:#3e6f40;fill-opacity:1;stroke:#212532;stroke-width:0.242547;stroke-opacity:0.995995"
       d="M 12.223525,1.5651234 12.94045,1.2903485 12.9839,4.8385244 12.223525,4.5279098 Z"
       sodipodi:nodetypes="ccccc" /><path
       id="rect18-0"
       style="fill:#63b166;stroke:#212532;stroke-width:0.242547;stroke-opacity:0.995995"
       d="m 13.875802,1.1208498 0.716926,0.083626 v 3.6855626 l -0.716926,0.071682 z"
       sodipodi:nodetypes="ccccc" /><path
       id="rect18-2"
       style="fill:#3e6f40;fill-opacity:1;stroke:#212532;stroke-width:0.256131;stroke-opacity:0.995995"
       d="M 15.48256,1.4818686 16.239637,1.986501 V 4.1122669 L 15.48256,4.6105919 Z"
       sodipodi:nodetypes="ccccc" /><path
       id="rect18-5"
       style="fill:#3e6f40;fill-opacity:1;stroke:#212532;stroke-width:0.242547;stroke-opacity:0.995995"
       d="M 19.462765,2.2690454 20.17969,2.1316579 V 4.0550802 L 19.462765,3.8639327 Z"
       sodipodi:nodetypes="ccccc" /><path
       id="rect18-20"
       style="fill:#63b166;stroke:#212532;stroke-width:0.242547;stroke-opacity:0.995995"
       d="m 21.285409,2.2112072 0.716926,0.2568546 v 1.1468844 l -0.716926,0.2628279 z"
       sodipodi:nodetypes="ccccc" /><path
       style="fill:#3e6f40;stroke:none;stroke-width:1.17165354;stroke-opacity:0.99599499;fill-opacity:1;stroke-dasharray:none"
       d="M 50.489298,39.566 45.619213,51.204677"
       id="path24" /></g><g
     inkscape:groupmode="layer"
     id="layer2"
     inkscape:label="Ebene 2"
     style="display:inline"
     transform="translate(0.20590682,-0.94717139)"><path
       id="path5"
       style="display:inline;opacity:1;fill:url(#linearGradient23);fill-opacity:1;stroke:#000000;stroke-width:0.355;stroke-linecap:round;stroke-linejoin:round;stroke-dasharray:none"
       d="m 25.796786,20.543892 c 0,3.415726 -3.688123,6.184719 -8.237652,6.184719 -4.54953,0 -8.2376529,-2.768993 -8.2376532,-6.184719 -2e-7,-1.978287 0.8003432,-3.215482 2.7254552,-4.347588 1.398802,-0.822597 1.262311,2.035778 5.948992,1.919299 4.686681,-0.116478 4.021126,-2.462499 5.011023,-1.993558 2.096663,0.993244 2.789835,2.382281 2.789835,4.421847 z"
       sodipodi:nodetypes="sssszss" /><path
       style="display:inline;opacity:1;fill:#89f08d;fill-opacity:1;stroke:#000000;stroke-width:0.480712;stroke-linecap:round;stroke-linejoin:round;stroke-dasharray:none"
       d="m 25.330078,19.025391 c -0.476696,-0.01632 -1.115587,0.933366 -1.675781,1.126953 -0.808006,0.279225 -1.550647,0.527246 -2.501953,0.564453 -0.5704,0.02231 -2.275963,0.146752 -4.082032,0.285156 -1.806619,-0.131023 -3.511545,-0.249552 -4.082031,-0.269531 -0.95145,-0.03332 -1.696719,-0.276814 -2.505859,-0.552735 -0.6904376,-0.235442 -1.5039477,-1.615064 -1.9804689,-0.93164 -1.7954617,2.575041 0.1687638,5.548678 0.9902344,6.259765 1.3131425,1.136693 2.1776535,2.206194 3.4570315,2.738282 0.951785,0.395843 1.987539,0.246514 2.984375,0.273437 0.363186,0.0098 1.089843,-0.04102 1.089843,-0.04102 l 0.0625,-0.08203 0.0625,0.08203 c 0,0 0.726701,0.04839 1.089844,0.03711 0.996718,-0.031 2.032262,0.112619 2.982422,-0.287109 1.277193,-0.537311 2.136826,-1.607951 3.445313,-2.75 0.818558,-0.714439 2.770811,-3.697942 0.964843,-6.265625 -0.08987,-0.127776 -0.190774,-0.183735 -0.300781,-0.1875 z"
       id="path1"
       sodipodi:nodetypes="ccsassaac"
       transform="matrix(1.0015041,0,0,0.75136118,0.23640928,6.2500021)"
       inkscape:original-d="m 17.022978,28.47914 5.391083,-7.077273 c 0,0 -8.04471,-0.620297 -9.42671,-0.668697 -0.95145,-0.03332 -1.695148,-0.277352 -2.504288,-0.553273 -0.6904375,-0.235442 -1.5036133,-1.61525 -1.9801345,-0.931826 -1.7954617,2.575041 0.1685965,5.54963 0.9900671,6.260718 1.3131424,1.136693 2.1772174,2.205231 3.4565954,2.737319 0.951785,0.395843 1.987206,0.247197 2.984042,0.27412 0.363186,0.0098 1.089345,-0.04109 1.089345,-0.04109 z"
       inkscape:path-effect="#path-effect1" /><ellipse
       style="display:inline;opacity:1;fill:#9ffba3;fill-opacity:1;stroke:#000000;stroke-width:0.34;stroke-linecap:round;stroke-linejoin:round;stroke-dasharray:none"
       id="path3"
       cx="12.157444"
       cy="19.087912"
       rx="1.1661485"
       ry="1.3788157" /><ellipse
       style="display:inline;opacity:1;fill:#182b19;fill-opacity:1;stroke:#000000;stroke-width:0.150933;stroke-linecap:round;stroke-linejoin:round"
       id="path2"
       cx="12.157443"
       cy="19.114496"
       rx="0.36330655"
       ry="1.1696699" /><ellipse
       style="display:inline;fill:#9ffba3;fill-opacity:1;stroke:#000000;stroke-width:0.34;stroke-linecap:round;stroke-linejoin:round;stroke-dasharray:none"
       id="path3-1"
       cx="23.217915"
       cy="18.913948"
       rx="1.1661485"
       ry="1.3788157" /><ellipse
       style="display:inline;fill:#182b19;fill-opacity:1;stroke:#000000;stroke-width:0.150933;stroke-linecap:round;stroke-linejoin:round"
       id="path2-5"
       cx="23.217913"
       cy="18.940533"
       rx="0.36330655"
       ry="1.1696699" /><path
       style="display:inline;opacity:1;fill:#d4f0d5;fill-opacity:1;stroke:#000000;stroke-width:0.248744;stroke-linecap:round;stroke-linejoin:round;stroke-dasharray:none"
       d="m 14.85531,24.768649 c 0,0 -0.04207,0.69188 0.03987,1.023236 0.07203,0.291427 0.151868,0.627695 0.388413,0.812528 0.07861,0.06142 0.29321,0.05995 0.29321,0.05995 0,0 -0.02098,-0.457454 -0.02416,-0.68636 -0.0052,-0.373791 0.0084,-1.121452 0.0084,-1.121452 z"
       id="path6"
       sodipodi:nodetypes="caacacc" /><path
       style="display:inline;fill:#d4f0d5;fill-opacity:1;stroke:#000000;stroke-width:0.248744;stroke-linecap:round;stroke-linejoin:round;stroke-dasharray:none"
       d="m 19.933787,24.864845 c 0,0 0.04207,0.69188 -0.03987,1.023236 -0.07203,0.291427 -0.151868,0.627695 -0.388413,0.812528 -0.07861,0.06142 -0.29321,0.05995 -0.29321,0.05995 0,0 0.02098,-0.457454 0.02416,-0.68636 0.0052,-0.373791 -0.0084,-1.121452 -0.0084,-1.121452 z"
       id="path6-4"
       sodipodi:nodetypes="caacacc" /><path
       id="path7"
       style="display:inline;opacity:1;fill:#5ab55e;fill-opacity:1;stroke:#000000;stroke-width:0.349;stroke-linecap:round;stroke-linejoin:round;stroke-dasharray:none"
       d="m 9.3617025,21.635889 -0.1307414,0.858862 c 0,0 0.1307414,-0.611345 0.1307414,-0.858862 z m -0.1891358,0.917256 -0.6258016,0.262 z" /><path
       id="path7-1"
       style="display:inline;fill:#5ab55e;fill-opacity:1;stroke:#000000;stroke-width:0.349;stroke-linecap:round;stroke-linejoin:round;stroke-dasharray:none"
       d="m 24.995041,21.179051 0.130741,0.858862 c 0,0 -0.130741,-0.611345 -0.130741,-0.858862 z m 0.189136,0.917256 0.625801,0.262 z" /><path
       style="opacity:1;fill:#89f08d;fill-opacity:1;stroke:#000000;stroke-width:0.351;stroke-linecap:round;stroke-linejoin:round;stroke-dasharray:none"
       d="m 9.318279,22.51671 c 1.195457,0.925429 2.565354,1.649979 4.05971,1.936404 2.363875,0.564837 4.869596,0.795268 7.251007,0.196466 1.380657,-0.321833 2.719716,-0.913348 3.770246,-1.882567 0.236764,-0.201539 0.468737,-0.408599 0.701872,-0.614298"
       id="path4" /><path
       d="m 20.499806,27.645283 c -0.658901,0.05697 -1.336896,0.01507 -1.997811,0.03049 -0.363689,0.0085 -1.091406,-0.0279 -1.091406,-0.0279 l -0.06253,-0.06201 -0.06253,0.06201 c 0,0 -0.727674,0.03785 -1.091406,0.03049 -0.681933,-0.01382 -1.382293,0.03406 -2.061373,-0.02894 0.235798,0.800205 0.52166,1.980926 0.417029,2.719214 -0.104153,0.734901 -0.611703,1.726083 -1.092957,2.533179 h 5.730916 c 0.547931,-0.918706 1.156613,-2.069327 1.33687,-2.908866 0.132215,-0.615777 0.06646,-1.57771 -0.02481,-2.347661 z"
       style="opacity:1;fill:url(#linearGradient21);stroke:#000000;stroke-width:0.349001;stroke-linecap:round;stroke-linejoin:round"
       id="path19" /><path
       style="opacity:1;fill:#51a355;fill-opacity:1;stroke:#000000;stroke-width:0.349001;stroke-linecap:round;stroke-linejoin:round;stroke-dasharray:none"
       d="m 2.2983806,7.1787705 c 0,0 2.6058465,-0.7637244 3.7564314,-0.2620769 1.1832347,0.5158825 2.0874009,1.7697815 2.4314882,3.0138808 0.2704166,0.9777316 0.018681,2.1002746 -0.4222345,3.0138816 -0.4714936,0.976966 -2.2422108,2.358689 -2.2422108,2.358689 0,0 0.089835,-3.114126 -1.0483063,-3.712752 -0.7484415,-0.393657 -2.4023688,0.81535 -2.4023688,0.81535 z"
       id="path20"
       sodipodi:nodetypes="caaacacc" /></g><g
     inkscape:groupmode="layer"
     id="layer3"
     inkscape:label="Ebene 3"><path
       style="opacity:1;fill:url(#linearGradient25);fill-opacity:1;stroke:#000000;stroke-width:0.349;stroke-linecap:round;stroke-linejoin:round;stroke-dasharray:none"
       d="m 17.778524,16.697395 8.516494,2.259479 1.223024,-3.028441 -1.834535,0.698871 L 25.42143,15.083964 23.179219,9.4347574 21.402922,8.2699727 21.257324,7.3963839 20.849649,7.2507858 20.587573,5.7074458 19.398908,5.5723703 18.221099,5.3627638 17.529669,6.7672237 17.0974,6.7904821 16.708658,7.5862431 14.673904,8.1959401 10.9134,12.970839 10.221969,14.375298 8.6630098,13.182157 8.9713489,16.433645 Z"
       id="path8"
       sodipodi:nodetypes="cccccccccccc"
       inkscape:path-effect="#path-effect8"
       inkscape:original-d="m 17.73385,16.685543 8.561168,2.271331 1.223024,-3.028441 -1.834535,0.698871 L 25.42143,15.083964 23.179219,9.4347574 21.402922,8.2699727 21.257324,7.3963839 20.849649,7.2507858 20.587573,5.7074458 19.306309,5.5618477 17.73385,16.627304"
       transform="translate(0.53243107,-0.17799946)" /><ellipse
       style="fill:#799647;fill-opacity:1;stroke:#000000;stroke-width:0.448;stroke-linecap:round;stroke-linejoin:round;stroke-dasharray:none"
       id="path9-9"
       cx="21.134323"
       cy="7.8185806"
       rx="1.8345362"
       ry="2.0092537"
       transform="rotate(13.882114)" /><path
       style="opacity:1;fill:#799647;fill-opacity:0;stroke:#000000;stroke-width:0.349;stroke-linecap:round;stroke-linejoin:round;stroke-dasharray:none"
       d="m 10.760699,14.192535 7.833177,0.232956 7.600222,1.951014"
       id="path10"
       sodipodi:nodetypes="ccc" /><ellipse
       style="opacity:1;fill:#ffffff;fill-opacity:1;stroke:#000000;stroke-width:0.548;stroke-linecap:round;stroke-linejoin:round;stroke-dasharray:none"
       id="path9"
       cx="21.071922"
       cy="8.5180969"
       rx="1.8345362"
       ry="2.0092537"
       transform="rotate(13.882114)" /><path
       style="opacity:1;fill:#799647;fill-opacity:0;stroke:#000000;stroke-width:0.34;stroke-linecap:round;stroke-linejoin:round;stroke-dasharray:none"
       d="m 17.234401,7.4950083 4.571131,0.7000833"
       id="path11" /><path
       style="opacity:1;fill:#799647;fill-opacity:0;stroke:#000000;stroke-width:0.24;stroke-linecap:round;stroke-linejoin:round;stroke-dasharray:none"
       d="m 20.83777,9.306988 1.544301,1.008944 1.029534,4.179908 -0.123544,1.008944"
       id="path12" /><path
       style="fill:#799647;fill-opacity:0;stroke:#000000;stroke-width:0.24;stroke-linecap:round;stroke-linejoin:round;stroke-dasharray:none"
       d="m 17.950699,8.7749325 -1.756995,0.5619605 -2.10398,3.755641 -0.1492,1.00547"
       id="path12-4" /></g></svg>
