<?xml version="1.0" encoding="UTF-8" standalone="no"?>
<!-- Created with Inkscape (http://www.inkscape.org/) -->

<svg
   width="200"
   height="201.17665"
   viewBox="0 0 52.916666 53.227988"
   version="1.1"
   id="svg1"
   inkscape:version="1.4.2 (f4327f4, 2025-05-13)"
   sodipodi:docname="ItemReload.svg"
   xmlns:inkscape="http://www.inkscape.org/namespaces/inkscape"
   xmlns:sodipodi="http://sodipodi.sourceforge.net/DTD/sodipodi-0.dtd"
   xmlns:xlink="http://www.w3.org/1999/xlink"
   xmlns="http://www.w3.org/2000/svg"
   xmlns:svg="http://www.w3.org/2000/svg">
  <sodipodi:namedview
     id="namedview1"
     pagecolor="#ffffff"
     bordercolor="#000000"
     borderopacity="0.25"
     inkscape:showpageshadow="2"
     inkscape:pageopacity="0.0"
     inkscape:pagecheckerboard="0"
     inkscape:deskcolor="#d1d1d1"
     inkscape:document-units="mm"
     inkscape:zoom="8"
     inkscape:cx="68"
     inkscape:cy="61.8125"
     inkscape:window-width="3840"
     inkscape:window-height="2054"
     inkscape:window-x="-11"
     inkscape:window-y="-11"
     inkscape:window-maximized="1"
     inkscape:current-layer="layer1" />
  <defs
     id="defs1">
    <linearGradient
       id="linearGradient6"
       inkscape:collect="always">
      <stop
         style="stop-color:#8080d5;stop-opacity:1;"
         offset="0"
         id="stop6" />
      <stop
         style="stop-color:#3f3fa8;stop-opacity:1;"
         offset="1"
         id="stop7" />
    </linearGradient>
    <linearGradient
       id="linearGradient4"
       inkscape:collect="always">
      <stop
         style="stop-color:#6ca8e2;stop-opacity:1;"
         offset="0"
         id="stop4" />
      <stop
         style="stop-color:#254465;stop-opacity:1;"
         offset="1"
         id="stop5" />
    </linearGradient>
    <linearGradient
       inkscape:collect="always"
       xlink:href="#linearGradient4"
       id="linearGradient5"
       x1="19.683516"
       y1="1.3110757"
       x2="18.781071"
       y2="5.2199874"
       gradientUnits="userSpaceOnUse"
       gradientTransform="matrix(2.4581979,0,0,2.0915215,-16.878342,-2.587344)" />
    <linearGradient
       inkscape:collect="always"
       xlink:href="#linearGradient6"
       id="linearGradient7"
       x1="14.302386"
       y1="2.0970953"
       x2="16.232031"
       y2="4.4800081"
       gradientUnits="userSpaceOnUse"
       gradientTransform="matrix(2.4581979,0,0,2.0915215,-15.7733,-2.6310436)" />
  </defs>
  <g
     inkscape:label="Ebene 1"
     inkscape:groupmode="layer"
     id="layer1"
     transform="translate(-0.20000279)">
    <rect
       style="fill:#7a96d9;fill-opacity:1;stroke:#212532;stroke-width:1.29973;stroke-linejoin:round;stroke-miterlimit:8.2;stroke-dasharray:none;stroke-opacity:0.995995"
       id="rect1"
       width="51.616936"
       height="51.616943"
       x="0.84986776"
       y="0.96118194"
       ry="5.9818354"
       rx="19.15794" />
    <rect
       style="fill:#c7d9f4;fill-opacity:1;stroke:#212532;stroke-width:0.689558;stroke-linejoin:round;stroke-miterlimit:8.2;stroke-dasharray:none;stroke-opacity:0.995995"
       id="rect1-8"
       width="45.94006"
       height="45.940067"
       x="3.6883085"
       y="3.7675693"
       ry="5.3239479"
       rx="17.050934" />
    <path
       d="m 18.356545,0.3490419 v 7.7959814 h 6.799963 V 5.9790541 A 2.6210673,1.8991341 0 0 1 24.691574,6.0093181 2.6210673,1.8991341 0 0 1 22.070926,4.1103106 2.6210673,1.8991341 0 0 1 24.691574,2.211303 2.6210673,1.8991341 0 0 1 25.156508,2.241567 V 0.3490461 Z"
       style="fill:url(#linearGradient7);stroke:#332d21;stroke-width:0.680238"
       id="path3" />
    <path
       d="M 28.155714,0.34474516 V 2.2199741 a 2.6210673,1.8991341 0 0 1 0.306146,-0.012982 2.6210673,1.8991341 0 0 1 0.06987,0.00313 2.6210673,1.8991341 0 0 0 -0.376014,0.027022 v -0.017357 a 2.6210673,1.8991341 0 0 0 -2.314501,1.8862052 2.6210673,1.8991341 0 0 0 2.314501,1.8860379 v -0.017346 a 2.6210673,1.8991341 0 0 0 0.398877,0.028088 2.6210673,1.8991341 0 0 1 -0.09272,0.00209 2.6210673,1.8991341 0 0 1 -0.306142,-0.012982 v 2.1486766 h 6.799961 V 0.34459869 Z"
       style="fill:url(#linearGradient5);stroke:#332d21;stroke-width:0.689183"
       id="path4" />
    <rect
       style="fill:#5089be;fill-opacity:1;stroke:#332d21;stroke-width:0.55106;stroke-dasharray:none"
       id="rect7-5"
       width="5.7194037"
       height="8.1989946"
       x="-9.7733402"
       y="22.690472"
       transform="matrix(-0.96323284,0.26866801,0.28427717,0.95874214,0,0)" />
    <rect
       style="fill:#5089be;fill-opacity:1;stroke:#332d21;stroke-width:0.619553;stroke-dasharray:none"
       id="rect7"
       width="6.7049184"
       height="9.6117687"
       x="23.740019"
       y="14.340993"
       transform="matrix(0.96323284,0.26866801,-0.28427717,0.95874214,0,0)" />
    <path
       id="path7"
       style="fill:#5089be;stroke:#332d21;stroke-width:0.619512;stroke-dasharray:none"
       d="m 21.661404,22.084634 c -1.731164,-0.468133 -3.018675,-1.392204 -2.876187,-2.014283 0.142487,-0.622082 1.54784,-0.565439 3.279066,-0.09761 1.731228,0.467836 3.350774,1.282364 3.184463,1.956157 -0.166909,0.708225 -1.856199,0.623946 -3.587342,0.155738 z"
       sodipodi:nodetypes="ssscs" />
    <path
       id="rect8"
       style="fill:#83a9cb;fill-opacity:1;stroke:#332d21;stroke-width:0;stroke-dasharray:none;stroke-opacity:1"
       d="m 18.226315,23.128827 c 0,0 1.191953,0.799546 2.807404,1.247013 1.61543,0.447537 3.054137,0.405794 3.054137,0.405794 l -0.684681,2.334391 c 0,0 -1.694625,-0.02245 -3.054135,-0.405793 -1.359514,-0.383349 -2.807404,-1.247014 -2.807404,-1.247014 z"
       sodipodi:nodetypes="czcczcc" />
    <path
       id="rect8-6"
       style="fill:#83a9cb;fill-opacity:1;stroke:#332d21;stroke-width:0;stroke-dasharray:none;stroke-opacity:1"
       d="m 16.343719,21.655112 c 0,0 -1.015925,0.682377 -2.392814,1.064267 -1.376867,0.381953 -2.603108,0.346329 -2.603108,0.346329 l 0.583569,1.992294 c 0,0 1.444365,-0.01918 2.603108,-0.346324 1.158746,-0.327174 2.392816,-1.064271 2.392816,-1.064271 z"
       sodipodi:nodetypes="czcczcc" />
    <path
       style="fill:#83a9cb;fill-opacity:1;stroke:#332d21;stroke-width:0.309076;stroke-dasharray:none;stroke-opacity:1"
       id="path8"
       sodipodi:type="arc"
       sodipodi:cx="27.030144"
       sodipodi:cy="14.340993"
       sodipodi:rx="0.69104111"
       sodipodi:ry="0.53513068"
       sodipodi:start="3.1091225"
       sodipodi:end="0.032405595"
       sodipodi:arc-type="arc"
       d="m 26.339467,14.358366 a 0.69104111,0.53513068 0 0 1 0.338686,-0.477881 0.69104111,0.53513068 0 0 1 0.703943,-1.8e-5 0.69104111,0.53513068 0 0 1 0.338726,0.477864"
       sodipodi:open="true"
       transform="matrix(0.96323284,0.26866801,-0.28427717,0.95874214,0,0)" />
    <path
       style="fill:#0069cb;fill-opacity:1;stroke:#332d21;stroke-width:0;stroke-dasharray:none;stroke-opacity:1"
       d="m 19.707456,25.879371 0.952699,-0.388807 0.16029,2.166759 0.52311,-3.070829 -0.899415,0.512508 -0.0017,-1.882019 z"
       id="path9"
       sodipodi:nodetypes="ccccccc" />
    <path
       id="path7-7"
       style="fill:#5089be;stroke:#332d21;stroke-width:0.551023;stroke-dasharray:none"
       d="m 13.410953,20.846743 c 1.47671,-0.399329 2.574977,-1.187576 2.453431,-1.718217 -0.121552,-0.530647 -1.320331,-0.48233 -2.797095,-0.08326 -1.476765,0.399069 -2.858264,1.093878 -2.716398,1.668633 0.142378,0.604127 1.583369,0.532239 3.060062,0.132853 z"
       sodipodi:nodetypes="ssscs" />
    <path
       style="fill:#83a9cb;fill-opacity:1;stroke:#332d21;stroke-width:0.263646;stroke-dasharray:none;stroke-opacity:1"
       id="path8-1"
       sodipodi:type="arc"
       sodipodi:cx="-6.9668083"
       sodipodi:cy="22.690472"
       sodipodi:rx="0.58946919"
       sodipodi:ry="0.45647514"
       sodipodi:start="3.1091225"
       sodipodi:end="0.032405595"
       sodipodi:arc-type="arc"
       d="m -7.5559668,22.705291 a 0.58946919,0.45647514 0 0 1 0.2889051,-0.40764 0.58946919,0.45647514 0 0 1 0.6004741,-1.5e-5 0.58946919,0.45647514 0 0 1 0.288939,0.407625"
       sodipodi:open="true"
       transform="matrix(-0.96323284,0.26866801,0.28427717,0.95874214,0,0)" />
    <path
       style="fill:#0069cb;fill-opacity:1;stroke:#332d21;stroke-width:0;stroke-dasharray:none;stroke-opacity:1"
       d="m 15.08208,24.034967 -0.812668,-0.331659 -0.136729,1.848281 -0.446221,-2.619468 0.767216,0.43718 0.0015,-1.605395 z"
       id="path9-8"
       sodipodi:nodetypes="ccccccc" />
    <rect
       style="fill:#5089be;fill-opacity:1;stroke:#332d21;stroke-width:0.473569;stroke-dasharray:none"
       id="rect7-5-8"
       width="4.3319345"
       height="7.0031576"
       x="34.900738"
       y="17.715155"
       transform="matrix(0.999984,0.00565682,0.05050608,0.99872375,0,0)" />
    <path
       id="rect8-6-8"
       style="fill:#83a9cb;fill-opacity:1;stroke:#332d21;stroke-width:0;stroke-dasharray:none;stroke-opacity:1"
       d="m 36.119661,20.081967 c 0,0 0.90797,0.33408 1.999412,0.334631 1.091444,6.03e-4 1.967185,-0.311867 1.967185,-0.311867 l 0.08944,1.794014 c 0,0 -1.047186,0.317142 -1.967188,0.311867 -0.920005,-0.0054 -1.999413,-0.33463 -1.999413,-0.33463 z"
       sodipodi:nodetypes="czcczcc" />
    <path
       id="path7-7-2"
       style="fill:#5089be;stroke:#332d21;stroke-width:0.473195;stroke-dasharray:none"
       d="m 37.974015,18.712665 c -1.157924,0.0037 -2.145304,-0.397743 -2.194762,-0.861834 -0.04944,-0.464097 0.819669,-0.69419 1.977564,-0.698179 1.157897,-0.0039 2.323687,0.256853 2.369952,0.761826 0.05344,0.529261 -0.994826,0.794476 -2.15275,0.798198 z"
       sodipodi:nodetypes="ssscs" />
    <path
       style="fill:#83a9cb;fill-opacity:1;stroke:#332d21;stroke-width:0.212058;stroke-dasharray:none;stroke-opacity:1"
       id="path8-1-9"
       sodipodi:type="arc"
       sodipodi:cx="37.026436"
       sodipodi:cy="17.715155"
       sodipodi:rx="0.44647002"
       sodipodi:ry="0.38989747"
       sodipodi:start="3.1091225"
       sodipodi:end="0.032405595"
       sodipodi:arc-type="arc"
       d="m 36.580201,17.727812 a 0.44647002,0.38989747 0 0 1 0.21882,-0.348184 0.44647002,0.38989747 0 0 1 0.454805,-1.3e-5 0.44647002,0.38989747 0 0 1 0.218845,0.348172"
       sodipodi:open="true"
       transform="matrix(0.999984,0.00565682,0.05050608,0.99872375,0,0)" />
    <path
       style="fill:#0069cb;fill-opacity:1;stroke:#332d21;stroke-width:0;stroke-dasharray:none;stroke-opacity:1"
       d="m 37.61444,21.751966 0.495572,-0.455902 0.572537,1.490394 -0.354039,-2.256326 -0.435981,0.532517 -0.413474,-1.32094 z"
       id="path9-8-1"
       sodipodi:nodetypes="ccccccc" />
    <rect
       style="fill:#5089be;fill-opacity:1;stroke:#332d21;stroke-width:0.445307;stroke-dasharray:none"
       id="rect7-5-4"
       width="4.5240755"
       height="5.5545053"
       x="-49.391068"
       y="-3.1925216"
       transform="matrix(-0.87206475,-0.48939052,-0.45931505,0.88827343,0,0)" />
    <path
       id="rect8-6-0"
       style="fill:#83a9cb;fill-opacity:1;stroke:#332d21;stroke-width:0;stroke-dasharray:none;stroke-opacity:1"
       d="m 43.525543,22.79969 c 0,0 -0.918094,-0.224948 -1.897347,-0.781907 -0.97927,-0.556923 -1.667959,-1.227405 -1.667959,-1.227405 l -0.636545,1.23626 c 0,0 0.841028,0.761369 1.667959,1.227404 0.826933,0.466035 1.897346,0.781905 1.897346,0.781905 z"
       sodipodi:nodetypes="czcczcc" />
    <path
       id="path7-7-7"
       style="fill:#5089be;stroke:#332d21;stroke-width:0.445177;stroke-dasharray:none"
       d="m 42.268886,20.835273 c 1.051298,0.599368 2.076785,0.814411 2.269694,0.500418 0.192904,-0.314 -0.523733,-0.930115 -1.574939,-1.529637 -1.051202,-0.59952 -2.194012,-1.009375 -2.397052,-0.663837 -0.217317,0.359605 0.650973,1.093727 1.702287,1.693062 z"
       sodipodi:nodetypes="ssscs" />
    <path
       style="fill:#83a9cb;fill-opacity:1;stroke:#332d21;stroke-width:0.192997;stroke-dasharray:none;stroke-opacity:1"
       id="path8-1-6"
       sodipodi:type="arc"
       sodipodi:cx="-47.171089"
       sodipodi:cy="-3.1925216"
       sodipodi:rx="0.46627301"
       sodipodi:ry="0.30924454"
       sodipodi:start="3.1091225"
       sodipodi:end="0.032405595"
       sodipodi:arc-type="arc"
       d="m -47.637116,-3.1824821 a 0.46627301,0.30924454 0 0 1 0.228525,-0.2761605 0.46627301,0.30924454 0 0 1 0.474978,-1.02e-5 0.46627301,0.30924454 0 0 1 0.228552,0.2761507"
       sodipodi:open="true"
       transform="matrix(-0.87206475,-0.48939052,-0.45931505,0.88827343,0,0)" />
    <path
       style="fill:#0069cb;fill-opacity:1;stroke:#332d21;stroke-width:0;stroke-dasharray:none;stroke-opacity:1"
       d="m 41.653497,23.223175 -0.305112,-0.588825 -0.99555,0.7952 1.041128,-1.468043 0.226524,0.614164 0.796942,-0.753213 z"
       id="path9-8-3"
       sodipodi:nodetypes="ccccccc" />
    <rect
       style="fill:#5089be;fill-opacity:1;stroke:#332d21;stroke-width:0.499859;stroke-dasharray:none"
       id="rect7-1"
       width="5.0479159"
       height="7.0330577"
       x="-26.82539"
       y="28.367538"
       transform="matrix(-0.95581727,0.29396146,0.33212128,0.94323669,0,0)" />
    <path
       id="path7-4"
       style="fill:#5089be;stroke:#332d21;stroke-width:0.499657;stroke-dasharray:none"
       d="m 32.948692,20.414656 c 1.293736,-0.387037 2.238924,-1.09404 2.112937,-1.542985 -0.125988,-0.448947 -1.185781,-0.370117 -2.479576,0.01672 -1.293796,0.386819 -2.493002,1.022979 -2.347499,1.508924 0.146971,0.51099 1.420419,0.404451 2.714138,0.01736 z"
       sodipodi:nodetypes="ssscs" />
    <path
       id="rect8-2"
       style="fill:#83a9cb;fill-opacity:1;stroke:#332d21;stroke-width:0;stroke-dasharray:none;stroke-opacity:1"
       d="m 35.585939,21.062072 c 0,0 -0.875155,0.596153 -2.079798,0.954688 -1.204625,0.358588 -2.290293,0.366876 -2.290293,0.366876 l 0.58412,1.631193 c 0,0 1.276702,-0.06035 2.290289,-0.366874 1.013589,-0.306518 2.079801,-0.954689 2.079801,-0.954689 z"
       sodipodi:nodetypes="czcczcc" />
    <path
       style="fill:#83a9cb;fill-opacity:1;stroke:#332d21;stroke-width:0.2294;stroke-dasharray:none;stroke-opacity:1"
       id="path8-3"
       sodipodi:type="arc"
       sodipodi:cx="-24.348356"
       sodipodi:cy="28.367538"
       sodipodi:rx="0.52026242"
       sodipodi:ry="0.39156222"
       sodipodi:start="3.1091225"
       sodipodi:end="0.032405595"
       sodipodi:arc-type="arc"
       d="m -24.868344,28.38025 a 0.52026242,0.39156222 0 0 1 0.254986,-0.349671 0.52026242,0.39156222 0 0 1 0.529975,-1.3e-5 0.52026242,0.39156222 0 0 1 0.255016,0.349659"
       sodipodi:open="true"
       transform="matrix(-0.95581727,0.29396146,0.33212128,0.94323669,0,0)" />
    <path
       style="fill:#0069cb;fill-opacity:1;stroke:#332d21;stroke-width:0;stroke-dasharray:none;stroke-opacity:1"
       d="m 34.538726,23.082499 -0.731054,-0.257485 -0.05713,1.581286 -0.485756,-2.220993 0.694462,0.348944 -0.05426,-1.369807 z"
       id="path9-2"
       sodipodi:nodetypes="ccccccc" />
    <rect
       style="fill:#7cbbf2;fill-opacity:1;stroke:#212532;stroke-width:0.904363;stroke-linejoin:round;stroke-miterlimit:8.2;stroke-dasharray:none;stroke-opacity:0.995995"
       id="rect1-8-5"
       width="19.073145"
       height="18.498846"
       x="8.5939465"
       y="25.222218"
       ry="2.1438127"
       rx="7.0791144" />
    <ellipse
       style="fill:#e4edf5;fill-opacity:1;stroke:#332d21;stroke-width:0.154528;stroke-dasharray:none;stroke-opacity:1"
       id="path10"
       cy="29.889236"
       cx="12.994951"
       rx="1.0788049"
       ry="1.0463216" />
    <ellipse
       style="fill:#e4edf5;fill-opacity:1;stroke:#332d21;stroke-width:0.154528;stroke-dasharray:none;stroke-opacity:1"
       id="path10-3"
       cy="29.889236"
       cx="16.212385"
       rx="1.0788049"
       ry="1.0463216" />
    <ellipse
       style="fill:#e4edf5;fill-opacity:1;stroke:#332d21;stroke-width:0.154528;stroke-dasharray:none;stroke-opacity:1"
       id="path10-7"
       cy="29.889236"
       cx="19.600864"
       rx="1.0788049"
       ry="1.0463216" />
    <ellipse
       style="fill:#e4edf5;fill-opacity:1;stroke:#332d21;stroke-width:0.154528;stroke-dasharray:none;stroke-opacity:1"
       id="path10-7-6"
       cy="29.889236"
       cx="22.989346"
       rx="1.0788049"
       ry="1.0463216" />
    <ellipse
       style="fill:#e4edf5;fill-opacity:0.451268;stroke:#332d21;stroke-width:0.154528;stroke-dasharray:none;stroke-opacity:1"
       id="path10-6"
       cy="35.289406"
       cx="12.994949"
       rx="1.0788049"
       ry="1.0463216" />
    <ellipse
       style="fill:#e4edf5;fill-opacity:0.451268;stroke:#332d21;stroke-width:0.154528;stroke-dasharray:none;stroke-opacity:1"
       id="path10-3-0"
       cy="35.289406"
       cx="16.212385"
       rx="1.0788049"
       ry="1.0463216" />
    <ellipse
       style="fill:#e4edf5;fill-opacity:0.451268;stroke:#332d21;stroke-width:0.154528;stroke-dasharray:none;stroke-opacity:1"
       id="path10-7-2"
       cy="35.289406"
       cx="19.600864"
       rx="1.0788049"
       ry="1.0463216" />
    <ellipse
       style="fill:#e4edf5;fill-opacity:0.451268;stroke:#332d21;stroke-width:0.154528;stroke-dasharray:none;stroke-opacity:1"
       id="path10-7-6-4"
       cy="35.289406"
       cx="22.989346"
       rx="1.0788049"
       ry="1.0463216" />
    <rect
       style="fill:#5794cc;fill-opacity:1;stroke:#212532;stroke-width:1.00865;stroke-linejoin:round;stroke-miterlimit:8.2;stroke-dasharray:none;stroke-opacity:0.995995"
       id="rect1-8-5-9"
       width="16.234859"
       height="14.572423"
       x="29.461266"
       y="23.679235"
       ry="1.6887832"
       rx="6.0256672" />
    <ellipse
       style="fill:#e4edf5;fill-opacity:1;stroke:#332d21;stroke-width:0.126535;stroke-dasharray:none;stroke-opacity:1"
       id="path10-0"
       cy="27.355667"
       cx="33.207359"
       rx="0.91826725"
       ry="0.82423735" />
    <ellipse
       style="fill:#e4edf5;fill-opacity:1;stroke:#332d21;stroke-width:0.126535;stroke-dasharray:none;stroke-opacity:1"
       id="path10-7-1"
       cy="27.355667"
       cx="37.470066"
       rx="0.91826725"
       ry="0.82423735" />
    <ellipse
       style="fill:#e4edf5;fill-opacity:1;stroke:#332d21;stroke-width:0.126535;stroke-dasharray:none;stroke-opacity:1"
       id="path10-7-6-3"
       cy="27.355667"
       cx="41.714478"
       rx="0.91826725"
       ry="0.82423735" />
    <ellipse
       style="fill:#e4edf5;fill-opacity:0.451268;stroke:#332d21;stroke-width:0.126535;stroke-dasharray:none;stroke-opacity:1"
       id="path10-6-8"
       cy="31.60964"
       cx="33.207359"
       rx="0.91826725"
       ry="0.82423735" />
    <ellipse
       style="fill:#e4edf5;fill-opacity:0.451268;stroke:#332d21;stroke-width:0.126535;stroke-dasharray:none;stroke-opacity:1"
       id="path10-7-2-3"
       cy="31.60964"
       cx="37.470066"
       rx="0.91826725"
       ry="0.82423735" />
    <ellipse
       style="fill:#e4edf5;fill-opacity:0.451268;stroke:#332d21;stroke-width:0.126535;stroke-dasharray:none;stroke-opacity:1"
       id="path10-7-6-4-4"
       cy="31.60964"
       cx="41.714478"
       rx="0.91826725"
       ry="0.82423735" />
    <path
       style="fill:#2c90f5;fill-opacity:0.451268;stroke:#332d21;stroke-width:0.154528;stroke-dasharray:none;stroke-opacity:1"
       d="M 12.528263,18.48585 9.9428522,16.31721 11.008042,15.866806 9.2768788,14.090734 12.275718,16.231227 11.096596,16.623445 Z"
       id="path12"
       sodipodi:nodetypes="ccccccc" />
    <path
       style="fill:#2c90f5;fill-opacity:0.451268;stroke:#332d21;stroke-width:0.18723;stroke-dasharray:none;stroke-opacity:1"
       d="m 13.133581,18.069346 -0.432136,-3.994932 1.326352,0.458088 -0.01245,-2.961318 0.821607,4.302366 -1.377335,-0.601095 z"
       id="path12-2"
       sodipodi:nodetypes="ccccccc" />
    <path
       style="fill:#2c90f5;fill-opacity:0.451268;stroke:#332d21;stroke-width:0.137175;stroke-dasharray:none;stroke-opacity:1"
       d="m 22.787176,19.796997 2.14628,-2.058588 -0.884265,-0.42755 1.437124,-1.685942 -2.489487,2.031872 0.978846,0.372316 z"
       id="path12-7"
       sodipodi:nodetypes="ccccccc" />
    <path
       style="fill:#2c90f5;fill-opacity:0.451268;stroke:#332d21;stroke-width:0.194304;stroke-dasharray:none;stroke-opacity:1"
       d="m 22.191641,19.339986 0.432138,-4.302534 -1.326353,0.49336 0.01261,-3.189332 -0.821607,4.633638 1.377336,-0.647376 z"
       id="path12-2-2"
       sodipodi:nodetypes="ccccccc" />
    <path
       style="fill:#2c90f5;fill-opacity:0.451268;stroke:#332d21;stroke-width:0.108201;stroke-dasharray:none;stroke-opacity:1"
       d="m 31.837116,18.742752 -1.95293,-1.407593 0.804608,-0.292341 -1.307662,-1.152793 2.265221,1.389325 -0.890669,0.254576 z"
       id="path12-5"
       sodipodi:nodetypes="ccccccc" />
    <path
       style="fill:#2c90f5;fill-opacity:0.451268;stroke:#332d21;stroke-width:0.1311;stroke-dasharray:none;stroke-opacity:1"
       d="m 32.294352,18.472414 -0.326421,-2.592981 1.00188,0.29733 -0.0095,-1.922095 0.620612,2.792525 -1.04039,-0.390151 z"
       id="path12-2-7"
       sodipodi:nodetypes="ccccccc" />
    <path
       style="fill:#2c90f5;fill-opacity:0.451268;stroke:#332d21;stroke-width:0.146622;stroke-dasharray:none;stroke-opacity:1"
       d="m 37.849906,16.83301 -1.714477,-2.681039 1.169803,0.0047 -1.036273,-2.060323 2.117932,2.802926 -1.258247,-0.09235 z"
       id="path12-5-0"
       sodipodi:nodetypes="ccccccc" />
    <path
       style="fill:#2c90f5;fill-opacity:0.451268;stroke:#332d21;stroke-width:0.112156;stroke-dasharray:none;stroke-opacity:1"
       d="m 43.640397,19.743813 2.039965,-1.375757 -0.771971,-0.376592 1.382453,-1.148615 -2.347068,1.332548 0.859967,0.342209 z"
       id="path12-5-7"
       sodipodi:nodetypes="ccccccc" />
    <path
       style="fill:#2c90f5;fill-opacity:0.451268;stroke:#332d21;stroke-width:0.155418;stroke-dasharray:none;stroke-opacity:1"
       d="m 43.06657,19.320251 0.723421,-2.644409 -1.393192,0.234345 0.220407,-1.97682 -1.144638,2.828695 1.455533,-0.327092 z"
       id="path12-2-7-1"
       sodipodi:nodetypes="ccccccc" />
    <path
       style="fill:#2c90f5;fill-opacity:0.451268;stroke:#332d21;stroke-width:0.170492;stroke-dasharray:none;stroke-opacity:1"
       d="m 38.182183,16.836419 0.965455,-3.152648 1.104519,0.77399 1.008597,-2.237528 -0.700718,3.510341 -1.10376,-0.898318 z"
       id="path12-2-7-0"
       sodipodi:nodetypes="ccccccc" />
  </g>
</svg>
