<?xml version="1.0" encoding="UTF-8" standalone="no"?>
<!-- Created with Inkscape (http://www.inkscape.org/) -->

<svg
   width="130"
   height="130"
   viewBox="0 0 34.395833 34.395833"
   version="1.1"
   id="svg1"
   inkscape:version="1.4.2 (f4327f4, 2025-05-13)"
   sodipodi:docname="ItemReload.svg"
   xmlns:inkscape="http://www.inkscape.org/namespaces/inkscape"
   xmlns:sodipodi="http://sodipodi.sourceforge.net/DTD/sodipodi-0.dtd"
   xmlns:xlink="http://www.w3.org/1999/xlink"
   xmlns="http://www.w3.org/2000/svg"
   xmlns:svg="http://www.w3.org/2000/svg">
  <sodipodi:namedview
     id="namedview1"
     pagecolor="#ffffff"
     bordercolor="#000000"
     borderopacity="0.25"
     inkscape:showpageshadow="2"
     inkscape:pageopacity="0.0"
     inkscape:pagecheckerboard="0"
     inkscape:deskcolor="#d1d1d1"
     inkscape:document-units="mm"
     inkscape:zoom="8"
     inkscape:cx="6.5"
     inkscape:cy="65.0625"
     inkscape:window-width="3840"
     inkscape:window-height="2054"
     inkscape:window-x="-11"
     inkscape:window-y="-11"
     inkscape:window-maximized="1"
     inkscape:current-layer="layer1" />
  <defs
     id="defs1">
    <linearGradient
       id="linearGradient6"
       inkscape:collect="always">
      <stop
         style="stop-color:#8080d5;stop-opacity:1;"
         offset="0"
         id="stop6" />
      <stop
         style="stop-color:#3f3fa8;stop-opacity:1;"
         offset="1"
         id="stop7" />
    </linearGradient>
    <linearGradient
       id="linearGradient4"
       inkscape:collect="always">
      <stop
         style="stop-color:#6ca8e2;stop-opacity:1;"
         offset="0"
         id="stop4" />
      <stop
         style="stop-color:#254465;stop-opacity:1;"
         offset="1"
         id="stop5" />
    </linearGradient>
    <linearGradient
       inkscape:collect="always"
       xlink:href="#linearGradient4"
       id="linearGradient5"
       x1="19.683516"
       y1="1.3110757"
       x2="18.781071"
       y2="5.2199874"
       gradientUnits="userSpaceOnUse"
       gradientTransform="matrix(1.5792467,0,0,1.3436788,-10.771823,-1.6622154)" />
    <linearGradient
       inkscape:collect="always"
       xlink:href="#linearGradient6"
       id="linearGradient7"
       x1="14.302386"
       y1="2.0970953"
       x2="16.232031"
       y2="4.4800081"
       gradientUnits="userSpaceOnUse"
       gradientTransform="matrix(1.5792467,0,0,1.3436788,-10.061899,-1.6902898)" />
  </defs>
  <g
     inkscape:label="Ebene 1"
     inkscape:groupmode="layer"
     id="layer1">
    <rect
       style="fill:#7a96d9;stroke:#212532;stroke-width:0.835;stroke-linejoin:round;stroke-miterlimit:8.2;stroke-opacity:0.995995;stroke-dasharray:none;fill-opacity:1"
       id="rect1"
       width="33.160828"
       height="33.160831"
       x="0.61750245"
       y="0.61750251"
       ry="3.8429754"
       rx="12.307843" />
    <rect
       style="fill:#c7d9f4;fill-opacity:1;stroke:#212532;stroke-width:0.443;stroke-linejoin:round;stroke-miterlimit:8.2;stroke-dasharray:none;stroke-opacity:0.995995"
       id="rect1-8"
       width="29.513771"
       height="29.513775"
       x="2.4410326"
       y="2.4204404"
       ry="3.4203215"
       rx="10.954216" />
    <path
       d="M 11.864507,0.22423877 V 5.2326956 h 4.368574 V 3.8411885 a 1.6838807,1.2200813 0 0 1 -0.298693,0.019443 1.6838807,1.2200813 0 0 1 -1.683611,-1.22 1.6838807,1.2200813 0 0 1 1.683611,-1.22 1.6838807,1.2200813 0 0 1 0.298693,0.019443 V 0.22424147 Z"
       style="fill:url(#linearGradient7);stroke:#332d21;stroke-width:0.437013"
       id="path3" />
    <path
       d="M 18.159893,0.22147837 V 1.426202 a 1.6838807,1.2200813 0 0 1 0.196681,-0.00834 1.6838807,1.2200813 0 0 1 0.04489,0.00201 1.6838807,1.2200813 0 0 0 -0.241567,0.01736 V 1.426081 a 1.6838807,1.2200813 0 0 0 -1.48693,1.2117752 1.6838807,1.2200813 0 0 0 1.48693,1.2116678 V 3.83838 a 1.6838807,1.2200813 0 0 0 0.256255,0.018045 1.6838807,1.2200813 0 0 1 -0.05957,0.00134 1.6838807,1.2200813 0 0 1 -0.196678,-0.00834 v 1.3803976 h 4.368573 V 0.22138427 Z"
       style="fill:url(#linearGradient5);stroke:#332d21;stroke-width:0.442759"
       id="path4" />
    <rect
       style="fill:#5089be;fill-opacity:1;stroke:#332d21;stroke-width:0.254066"
       id="rect7-5"
       width="3.6743786"
       height="5.2673688"
       x="-6.3473639"
       y="14.596501"
       transform="matrix(-0.96323284,0.26866801,0.28427717,0.95874214,0,0)" />
    <rect
       style="fill:#5089be;fill-opacity:1;stroke:#332d21;stroke-width:0.297844"
       id="rect7"
       width="4.3075132"
       height="6.174993"
       x="15.320128"
       y="9.1940241"
       transform="matrix(0.96323284,0.26866801,-0.28427717,0.95874214,0,0)" />
    <path
       id="path7"
       style="fill:#5089be;stroke:#332d21;stroke-width:0.297825"
       d="m 13.987683,14.188071 c -1.11217,-0.300748 -1.93932,-0.894409 -1.84778,-1.294058 0.09154,-0.399651 0.994396,-0.363261 2.106606,-0.06271 1.112212,0.300557 2.152674,0.823843 2.045829,1.256715 -0.107229,0.454993 -1.192498,0.400849 -2.304655,0.100053 z"
       sodipodi:nodetypes="ssscs" />
    <path
       id="rect8"
       style="fill:#83a9cb;fill-opacity:1;stroke:#332d21;stroke-width:0;stroke-dasharray:none;stroke-opacity:1"
       d="m 11.741542,14.826747 c 0,0 0.783856,0.520109 1.846216,0.811189 1.062345,0.291125 2.008472,0.263972 2.008472,0.263972 l -0.450262,1.518534 c 0,0 -1.114425,-0.0146 -2.008472,-0.263971 -0.894048,-0.24937 -1.846215,-0.81119 -1.846215,-0.81119 z"
       sodipodi:nodetypes="czcczcc" />
    <path
       id="rect8-6"
       style="fill:#83a9cb;fill-opacity:1;stroke:#332d21;stroke-width:0;stroke-dasharray:none;stroke-opacity:1"
       d="m 10.606062,13.906281 c 0,0 -0.6686405,0.443663 -1.5748515,0.691958 -0.9061974,0.248335 -1.7132582,0.225173 -1.7132582,0.225173 l 0.3840808,1.295335 c 0,0 0.9506214,-0.01246 1.7132584,-0.225171 0.7626385,-0.212719 1.5748525,-0.69196 1.5748525,-0.69196 z"
       sodipodi:nodetypes="czcczcc" />
    <path
       style="fill:#83a9cb;fill-opacity:1;stroke:#332d21;stroke-width:0.198563;stroke-dasharray:none;stroke-opacity:1"
       id="path8"
       sodipodi:type="arc"
       sodipodi:cx="17.43384"
       sodipodi:cy="9.1940241"
       sodipodi:rx="0.44395304"
       sodipodi:ry="0.34378982"
       sodipodi:start="3.1091225"
       sodipodi:end="0.032405595"
       sodipodi:arc-type="arc"
       d="m 16.990121,9.205185 a 0.44395304,0.34378982 0 0 1 0.217586,-0.30701 0.44395304,0.34378982 0 0 1 0.452241,-1.13e-5 0.44395304,0.34378982 0 0 1 0.217612,0.3069991"
       sodipodi:open="true"
       transform="matrix(0.96323284,0.26866801,-0.28427717,0.95874214,0,0)" />
    <path
       style="fill:#0069cb;fill-opacity:1;stroke:#332d21;stroke-width:0;stroke-dasharray:none;stroke-opacity:1"
       d="m 12.732387,16.625965 0.612053,-0.249786 0.102977,1.392015 0.336067,-1.972826 -0.577821,0.329256 -0.0011,-1.209086 z"
       id="path9"
       sodipodi:nodetypes="ccccccc" />
    <path
       id="path7-7"
       style="fill:#5089be;stroke:#332d21;stroke-width:0.254049"
       d="m 8.6872565,13.392799 c 0.948699,-0.256545 1.6542705,-0.762947 1.5761845,-1.103853 -0.07809,-0.340909 -0.8482345,-0.309868 -1.7969683,-0.05349 -0.9487341,0.256378 -1.8362656,0.702752 -1.7451247,1.071998 0.091469,0.388116 1.0172206,0.341932 1.9659085,0.08535 z"
       sodipodi:nodetypes="ssscs" />
    <path
       style="fill:#83a9cb;fill-opacity:1;stroke:#332d21;stroke-width:0.169377;stroke-dasharray:none;stroke-opacity:1"
       id="path8-1"
       sodipodi:type="arc"
       sodipodi:cx="-4.5443335"
       sodipodi:cy="14.596501"
       sodipodi:rx="0.37869909"
       sodipodi:ry="0.29325828"
       sodipodi:start="3.1091225"
       sodipodi:end="0.032405595"
       sodipodi:arc-type="arc"
       d="m -4.9228329,14.606022 a 0.37869909,0.29325828 0 0 1 0.1856044,-0.261885 0.37869909,0.29325828 0 0 1 0.3857691,-9e-6 0.37869909,0.29325828 0 0 1 0.1856262,0.261875"
       sodipodi:open="true"
       transform="matrix(-0.96323284,0.26866801,0.28427717,0.95874214,0,0)" />
    <path
       style="fill:#0069cb;fill-opacity:1;stroke:#332d21;stroke-width:0;stroke-dasharray:none;stroke-opacity:1"
       d="m 9.7608565,15.441044 -0.522091,-0.213071 -0.08784,1.187411 -0.286671,-1.682853 0.492891,0.280862 9.38e-4,-1.031371 z"
       id="path9-8"
       sodipodi:nodetypes="ccccccc" />
    <rect
       style="fill:#5089be;fill-opacity:1;stroke:#332d21;stroke-width:0.204351"
       id="rect7-5-8"
       width="2.7830117"
       height="4.4991145"
       x="22.493195"
       y="11.380533"
       transform="matrix(0.999984,0.00565682,0.05050608,0.99872375,0,0)" />
    <path
       id="rect8-6-8"
       style="fill:#83a9cb;fill-opacity:1;stroke:#332d21;stroke-width:0;stroke-dasharray:none;stroke-opacity:1"
       d="m 23.238256,12.901476 c 0,0 0.591824,0.214626 1.303237,0.21498 0.711414,3.88e-4 1.282231,-0.200356 1.282231,-0.200356 l 0.0583,1.152548 c 0,0 -0.682566,0.203745 -1.282233,0.200356 -0.599669,-0.0035 -1.303238,-0.21498 -1.303238,-0.21498 z"
       sodipodi:nodetypes="czcczcc" />
    <path
       id="path7-7-2"
       style="fill:#5089be;stroke:#332d21;stroke-width:0.20419"
       d="m 24.467571,12.02178 c -0.743898,0.0024 -1.378231,-0.255526 -1.410005,-0.553677 -0.03176,-0.298155 0.526589,-0.445976 1.270468,-0.448539 0.74388,-0.0025 1.492831,0.165013 1.522554,0.489428 0.03433,0.340019 -0.639117,0.510404 -1.383015,0.512795 z"
       sodipodi:nodetypes="ssscs" />
    <path
       style="fill:#83a9cb;fill-opacity:1;stroke:#332d21;stroke-width:0.136235;stroke-dasharray:none;stroke-opacity:1"
       id="path8-1-9"
       sodipodi:type="arc"
       sodipodi:cx="23.858829"
       sodipodi:cy="11.380533"
       sodipodi:rx="0.28683057"
       sodipodi:ry="0.25048605"
       sodipodi:start="3.1091225"
       sodipodi:end="0.032405595"
       sodipodi:arc-type="arc"
       d="m 23.57215,11.388665 a 0.28683057,0.25048605 0 0 1 0.140579,-0.223688 0.28683057,0.25048605 0 0 1 0.292185,-8e-6 0.28683057,0.25048605 0 0 1 0.140595,0.22368"
       sodipodi:open="true"
       transform="matrix(0.999984,0.00565682,0.05050608,0.99872375,0,0)" />
    <path
       style="fill:#0069cb;fill-opacity:1;stroke:#332d21;stroke-width:0;stroke-dasharray:none;stroke-opacity:1"
       d="m 24.236565,13.974351 0.318376,-0.29289 0.367821,0.95749 -0.227449,-1.449556 -0.280092,0.342111 -0.265633,-0.848626 z"
       id="path9-8-1"
       sodipodi:nodetypes="ccccccc" />
    <rect
       style="fill:#5089be;fill-opacity:1;stroke:#332d21;stroke-width:0.185985"
       id="rect7-5-4"
       width="2.906451"
       height="3.5684412"
       x="-31.794397"
       y="-2.0860243"
       transform="matrix(-0.87206475,-0.48939052,-0.45931505,0.88827343,0,0)" />
    <path
       id="rect8-6-0"
       style="fill:#83a9cb;fill-opacity:1;stroke:#332d21;stroke-width:0;stroke-dasharray:none;stroke-opacity:1"
       d="m 28.080871,14.649097 c 0,0 -0.606363,-0.14794 -1.25312,-0.51423 -0.646768,-0.366268 -1.101619,-0.807218 -1.101619,-0.807218 l -0.420413,0.813041 c 0,0 0.555466,0.500724 1.10162,0.807217 0.546155,0.306494 1.25312,0.51423 1.25312,0.51423 z"
       sodipodi:nodetypes="czcczcc" />
    <path
       id="path7-7-7"
       style="fill:#5089be;stroke:#332d21;stroke-width:0.18593"
       d="m 27.226771,13.38543 c 0.675397,0.385059 1.334212,0.523211 1.458144,0.321489 0.12393,-0.201726 -0.336467,-0.597544 -1.011805,-0.982701 -0.675335,-0.385156 -1.409523,-0.648464 -1.539964,-0.426476 -0.139613,0.231025 0.418212,0.702655 1.093619,1.087692 z"
       sodipodi:nodetypes="ssscs" />
    <path
       style="fill:#83a9cb;fill-opacity:1;stroke:#332d21;stroke-width:0.123989;stroke-dasharray:none;stroke-opacity:1"
       id="path8-1-6"
       sodipodi:type="arc"
       sodipodi:cx="-30.368193"
       sodipodi:cy="-2.0860243"
       sodipodi:rx="0.29955283"
       sodipodi:ry="0.19867133"
       sodipodi:start="3.1091225"
       sodipodi:end="0.032405595"
       sodipodi:arc-type="arc"
       d="m -30.667588,-2.0795745 a 0.29955283,0.19867133 0 0 1 0.146814,-0.1774168 0.29955283,0.19867133 0 0 1 0.305146,-6.6e-6 0.29955283,0.19867133 0 0 1 0.146831,0.1774106"
       sodipodi:open="true"
       transform="matrix(-0.87206475,-0.48939052,-0.45931505,0.88827343,0,0)" />
    <path
       style="fill:#0069cb;fill-opacity:1;stroke:#332d21;stroke-width:0;stroke-dasharray:none;stroke-opacity:1"
       d="m 26.83142,14.919516 -0.196016,-0.378285 -0.639582,0.510869 0.668863,-0.943131 0.145528,0.394564 0.511988,-0.483895 z"
       id="path9-8-3"
       sodipodi:nodetypes="ccccccc" />
    <rect
       style="fill:#5089be;fill-opacity:1;stroke:#332d21;stroke-width:0.221065"
       id="rect7-1"
       width="3.2429874"
       height="4.5183234"
       x="-17.301233"
       y="18.245504"
       transform="matrix(-0.95581727,0.29396146,0.33212128,0.94323669,0,0)" />
    <path
       id="path7-4"
       style="fill:#5089be;stroke:#332d21;stroke-width:0.220975"
       d="m 21.239098,13.115209 c 0.831149,-0.248649 1.438376,-0.702856 1.357437,-0.991277 -0.08094,-0.288422 -0.761794,-0.237778 -1.592981,0.01074 -0.831187,0.248508 -1.601606,0.657203 -1.508129,0.969394 0.09442,0.328281 0.912535,0.259836 1.743673,0.01115 z"
       sodipodi:nodetypes="ssscs" />
    <path
       id="rect8-2"
       style="fill:#83a9cb;fill-opacity:1;stroke:#332d21;stroke-width:0;stroke-dasharray:none;stroke-opacity:1"
       d="m 22.955879,13.493133 c 0,0 -0.576695,0.399518 -1.37051,0.639795 -0.793801,0.240311 -1.509216,0.245865 -1.509216,0.245865 l 0.384913,1.093163 c 0,0 0.841298,-0.04045 1.509215,-0.245865 0.667917,-0.205417 1.37051,-0.639795 1.37051,-0.639795 z"
       sodipodi:nodetypes="czcczcc" />
    <path
       style="fill:#83a9cb;fill-opacity:1;stroke:#332d21;stroke-width:0.147376;stroke-dasharray:none;stroke-opacity:1"
       id="path8-3"
       sodipodi:type="arc"
       sodipodi:cx="-15.709887"
       sodipodi:cy="18.245504"
       sodipodi:rx="0.33423784"
       sodipodi:ry="0.25155556"
       sodipodi:start="3.1091225"
       sodipodi:end="0.032405595"
       sodipodi:arc-type="arc"
       d="m -16.043948,18.253671 a 0.33423784,0.25155556 0 0 1 0.163813,-0.224643 0.33423784,0.25155556 0 0 1 0.340478,-9e-6 0.33423784,0.25155556 0 0 1 0.163833,0.224636"
       sodipodi:open="true"
       transform="matrix(-0.95581727,0.29396146,0.33212128,0.94323669,0,0)" />
    <path
       style="fill:#0069cb;fill-opacity:1;stroke:#332d21;stroke-width:0;stroke-dasharray:none;stroke-opacity:1"
       d="m 22.260601,14.82914 -0.469659,-0.165419 -0.0367,1.015883 -0.31207,-1.426857 0.446151,0.224176 -0.03486,-0.88002 z"
       id="path9-2"
       sodipodi:nodetypes="ccccccc" />
    <rect
       style="fill:#7cbbf2;fill-opacity:1;stroke:#212532;stroke-width:0.181132;stroke-linejoin:round;stroke-miterlimit:8.2;stroke-dasharray:none;stroke-opacity:0.995995"
       id="rect1-8-5"
       width="12.253367"
       height="11.884415"
       x="5.5926147"
       y="16.203783"
       ry="1.3772728"
       rx="4.5479121" />
    <ellipse
       style="fill:#e4edf5;fill-opacity:1;stroke:#332d21;stroke-width:0.0992749;stroke-dasharray:none;stroke-opacity:1"
       id="path10"
       cy="19.202066"
       cx="8.4200001"
       rx="0.69306833"
       ry="0.67219973" />
    <ellipse
       style="fill:#e4edf5;fill-opacity:1;stroke:#332d21;stroke-width:0.0992749;stroke-dasharray:none;stroke-opacity:1"
       id="path10-3"
       cy="19.202066"
       cx="10.487011"
       rx="0.69306833"
       ry="0.67219973" />
    <ellipse
       style="fill:#e4edf5;fill-opacity:1;stroke:#332d21;stroke-width:0.0992749;stroke-dasharray:none;stroke-opacity:1"
       id="path10-7"
       cy="19.202066"
       cx="12.663909"
       rx="0.69306833"
       ry="0.67219973" />
    <ellipse
       style="fill:#e4edf5;fill-opacity:1;stroke:#332d21;stroke-width:0.0992749;stroke-dasharray:none;stroke-opacity:1"
       id="path10-7-6"
       cy="19.202066"
       cx="14.840807"
       rx="0.69306833"
       ry="0.67219973" />
    <ellipse
       style="fill:#e4edf5;fill-opacity:0.451268;stroke:#332d21;stroke-width:0.0992749;stroke-dasharray:none;stroke-opacity:1"
       id="path10-6"
       cy="22.671356"
       cx="8.4199991"
       rx="0.69306833"
       ry="0.67219973" />
    <ellipse
       style="fill:#e4edf5;fill-opacity:0.451268;stroke:#332d21;stroke-width:0.0992749;stroke-dasharray:none;stroke-opacity:1"
       id="path10-3-0"
       cy="22.671356"
       cx="10.487011"
       rx="0.69306833"
       ry="0.67219973" />
    <ellipse
       style="fill:#e4edf5;fill-opacity:0.451268;stroke:#332d21;stroke-width:0.0992749;stroke-dasharray:none;stroke-opacity:1"
       id="path10-7-2"
       cy="22.671356"
       cx="12.663909"
       rx="0.69306833"
       ry="0.67219973" />
    <ellipse
       style="fill:#e4edf5;fill-opacity:0.451268;stroke:#332d21;stroke-width:0.0992749;stroke-dasharray:none;stroke-opacity:1"
       id="path10-7-6-4"
       cy="22.671356"
       cx="14.840807"
       rx="0.69306833"
       ry="0.67219973" />
    <rect
       style="fill:#5794cc;fill-opacity:1;stroke:#212532;stroke-width:0.148321;stroke-linejoin:round;stroke-miterlimit:8.2;stroke-dasharray:none;stroke-opacity:0.995995"
       id="rect1-8-5-9"
       width="10.429936"
       height="9.3619194"
       x="18.998632"
       y="15.212507"
       ry="1.0849433"
       rx="3.8711345" />
    <ellipse
       style="fill:#e4edf5;fill-opacity:1;stroke:#332d21;stroke-width:0.0812914;stroke-dasharray:none;stroke-opacity:1"
       id="path10-0"
       cy="17.574398"
       cx="21.405275"
       rx="0.58993238"
       ry="0.52952373" />
    <ellipse
       style="fill:#e4edf5;fill-opacity:1;stroke:#332d21;stroke-width:0.0812914;stroke-dasharray:none;stroke-opacity:1"
       id="path10-7-1"
       cy="17.574398"
       cx="24.143812"
       rx="0.58993238"
       ry="0.52952373" />
    <ellipse
       style="fill:#e4edf5;fill-opacity:1;stroke:#332d21;stroke-width:0.0812914;stroke-dasharray:none;stroke-opacity:1"
       id="path10-7-6-3"
       cy="17.574398"
       cx="26.870596"
       rx="0.58993238"
       ry="0.52952373" />
    <ellipse
       style="fill:#e4edf5;fill-opacity:0.451268;stroke:#332d21;stroke-width:0.0812914;stroke-dasharray:none;stroke-opacity:1"
       id="path10-6-8"
       cy="20.307323"
       cx="21.405275"
       rx="0.58993238"
       ry="0.52952373" />
    <ellipse
       style="fill:#e4edf5;fill-opacity:0.451268;stroke:#332d21;stroke-width:0.0812914;stroke-dasharray:none;stroke-opacity:1"
       id="path10-7-2-3"
       cy="20.307323"
       cx="24.143812"
       rx="0.58993238"
       ry="0.52952373" />
    <ellipse
       style="fill:#e4edf5;fill-opacity:0.451268;stroke:#332d21;stroke-width:0.0812914;stroke-dasharray:none;stroke-opacity:1"
       id="path10-7-6-4-4"
       cy="20.307323"
       cx="26.870596"
       rx="0.58993238"
       ry="0.52952373" />
    <path
       style="fill:#2c90f5;fill-opacity:0.451268;stroke:#332d21;stroke-width:0.0992749;stroke-dasharray:none;stroke-opacity:1"
       d="M 8.1201804,11.876065 6.459207,10.482842 7.1435285,10.193484 6.0313585,9.052463 7.957935,10.427603 7.2004193,10.67958 Z"
       id="path12"
       sodipodi:nodetypes="ccccccc" />
    <path
       style="fill:#2c90f5;fill-opacity:0.451268;stroke:#332d21;stroke-width:0.120284;stroke-dasharray:none;stroke-opacity:1"
       d="M 8.5090614,11.608486 8.2314397,9.041978 9.0835425,9.336273 9.0755425,7.4338012 9.6033765,10.197817 8.7185205,9.811649 Z"
       id="path12-2"
       sodipodi:nodetypes="ccccccc" />
    <path
       style="fill:#2c90f5;fill-opacity:0.451268;stroke:#332d21;stroke-width:0.0881266;stroke-dasharray:none;stroke-opacity:1"
       d="m 14.710925,12.718399 1.378858,-1.322521 -0.568088,-0.274675 0.923267,-1.083118 -1.599348,1.305357 0.628851,0.239191 z"
       id="path12-7"
       sodipodi:nodetypes="ccccccc" />
    <path
       style="fill:#2c90f5;fill-opacity:0.451268;stroke:#332d21;stroke-width:0.124829;stroke-dasharray:none;stroke-opacity:1"
       d="m 14.328329,12.424797 0.277623,-2.764124 -0.852103,0.316955 0.0081,-2.048957 -0.527834,2.976838 0.884857,-0.415901 z"
       id="path12-2-2"
       sodipodi:nodetypes="ccccccc" />
    <path
       style="fill:#2c90f5;fill-opacity:0.451268;stroke:#332d21;stroke-width:0.0695126;stroke-dasharray:none;stroke-opacity:1"
       d="m 20.524976,12.041109 -1.254642,-0.904295 0.516913,-0.187812 -0.840095,-0.740601 1.45527,0.892559 -0.572202,0.16355 z"
       id="path12-5"
       sodipodi:nodetypes="ccccccc" />
    <path
       style="fill:#2c90f5;fill-opacity:0.451268;stroke:#332d21;stroke-width:0.0842239;stroke-dasharray:none;stroke-opacity:1"
       d="m 20.818723,11.867433 -0.209706,-1.665837 0.643649,0.191017 -0.0061,-1.234832 0.398706,1.794032 -0.668389,-0.250649 z"
       id="path12-2-7"
       sodipodi:nodetypes="ccccccc" />
    <path
       style="fill:#2c90f5;fill-opacity:0.451268;stroke:#332d21;stroke-width:0.0941959;stroke-dasharray:none;stroke-opacity:1"
       d="m 24.387838,10.814213 -1.10145,-1.722409 0.751529,0.003 -0.665744,-1.3236355 1.360646,1.8007145 -0.808349,-0.05933 z"
       id="path12-5-0"
       sodipodi:nodetypes="ccccccc" />
    <path
       style="fill:#2c90f5;fill-opacity:0.451268;stroke:#332d21;stroke-width:0.0720533;stroke-dasharray:none;stroke-opacity:1"
       d="m 28.107886,12.684232 1.310557,-0.883843 -0.495946,-0.241938 0.888144,-0.737917 -1.507852,0.856083 0.552478,0.219849 z"
       id="path12-5-7"
       sodipodi:nodetypes="ccccccc" />
    <path
       style="fill:#2c90f5;fill-opacity:0.451268;stroke:#332d21;stroke-width:0.0998466;stroke-dasharray:none;stroke-opacity:1"
       d="m 27.739236,12.412118 0.464755,-1.698876 -0.895043,0.150553 0.141598,-1.26999 -0.735362,1.817269 0.935094,-0.210137 z"
       id="path12-2-7-1"
       sodipodi:nodetypes="ccccccc" />
    <path
       style="fill:#2c90f5;fill-opacity:0.451268;stroke:#332d21;stroke-width:0.109531;stroke-dasharray:none;stroke-opacity:1"
       d="m 24.601306,10.816403 0.620248,-2.02539 0.709588,0.497243 0.647964,-1.4374794 -0.45017,2.2551864 -0.7091,-0.577116 z"
       id="path12-2-7-0"
       sodipodi:nodetypes="ccccccc" />
  </g>
</svg>
