<?xml version="1.0" encoding="UTF-8" standalone="no"?>
<!-- Created with Inkscape (http://www.inkscape.org/) -->

<svg
   width="200"
   height="201.17665"
   viewBox="0 0 52.916666 53.227988"
   version="1.1"
   id="svg1"
   inkscape:version="1.4.2 (f4327f4, 2025-05-13)"
   sodipodi:docname="KnotAttractor.svg"
   xmlns:inkscape="http://www.inkscape.org/namespaces/inkscape"
   xmlns:sodipodi="http://sodipodi.sourceforge.net/DTD/sodipodi-0.dtd"
   xmlns:xlink="http://www.w3.org/1999/xlink"
   xmlns="http://www.w3.org/2000/svg"
   xmlns:svg="http://www.w3.org/2000/svg">
  <sodipodi:namedview
     id="namedview1"
     pagecolor="#ffffff"
     bordercolor="#000000"
     borderopacity="0.25"
     inkscape:showpageshadow="2"
     inkscape:pageopacity="0.0"
     inkscape:pagecheckerboard="0"
     inkscape:deskcolor="#d1d1d1"
     inkscape:document-units="mm"
     inkscape:zoom="4"
     inkscape:cx="-18.25"
     inkscape:cy="53.625"
     inkscape:window-width="3840"
     inkscape:window-height="2054"
     inkscape:window-x="-11"
     inkscape:window-y="-11"
     inkscape:window-maximized="1"
     inkscape:current-layer="layer1" />
  <defs
     id="defs1">
    <linearGradient
       id="linearGradient30"
       inkscape:collect="always">
      <stop
         style="stop-color:#74abff;stop-opacity:0;"
         offset="0"
         id="stop30" />
      <stop
         style="stop-color:#74abff;stop-opacity:0;"
         offset="1"
         id="stop31" />
    </linearGradient>
    <linearGradient
       id="linearGradient6"
       inkscape:collect="always">
      <stop
         style="stop-color:#8080d5;stop-opacity:1;"
         offset="0"
         id="stop6" />
      <stop
         style="stop-color:#3f3fa8;stop-opacity:1;"
         offset="1"
         id="stop7" />
    </linearGradient>
    <linearGradient
       id="linearGradient4"
       inkscape:collect="always">
      <stop
         style="stop-color:#6ca8e2;stop-opacity:1;"
         offset="0"
         id="stop4" />
      <stop
         style="stop-color:#254465;stop-opacity:1;"
         offset="1"
         id="stop5" />
    </linearGradient>
    <linearGradient
       inkscape:collect="always"
       xlink:href="#linearGradient4"
       id="linearGradient5"
       x1="19.683516"
       y1="1.3110757"
       x2="18.781071"
       y2="5.2199874"
       gradientUnits="userSpaceOnUse"
       gradientTransform="matrix(2.4581979,0,0,2.0915215,-16.878342,-2.587344)" />
    <linearGradient
       inkscape:collect="always"
       xlink:href="#linearGradient6"
       id="linearGradient7"
       x1="14.302386"
       y1="2.0970953"
       x2="16.232031"
       y2="4.4800081"
       gradientUnits="userSpaceOnUse"
       gradientTransform="matrix(2.4581979,0,0,2.0915215,-15.7733,-2.6310436)" />
    <linearGradient
       inkscape:collect="always"
       xlink:href="#linearGradient30"
       id="linearGradient31"
       x1="27.790754"
       y1="6.3495178"
       x2="28.924282"
       y2="6.3495178"
       gradientUnits="userSpaceOnUse"
       gradientTransform="matrix(-0.26958242,-0.42408438,0.42198657,-0.27092259,38.556931,27.56064)" />
    <linearGradient
       inkscape:collect="always"
       xlink:href="#linearGradient30"
       id="linearGradient32"
       gradientUnits="userSpaceOnUse"
       gradientTransform="matrix(0.43984336,0.41272715,-0.38014167,0.47494546,35.256009,0.12380432)"
       x1="27.790754"
       y1="6.3495178"
       x2="28.924282"
       y2="6.3495178" />
    <linearGradient
       inkscape:collect="always"
       xlink:href="#linearGradient30"
       id="linearGradient33"
       gradientUnits="userSpaceOnUse"
       gradientTransform="matrix(-0.13571701,-0.82991037,0.8263766,-0.06966078,42.688181,31.445664)"
       x1="27.790754"
       y1="6.3495178"
       x2="28.924282"
       y2="6.3495178" />
    <linearGradient
       inkscape:collect="always"
       xlink:href="#linearGradient30"
       id="linearGradient34"
       gradientUnits="userSpaceOnUse"
       gradientTransform="matrix(0.34885514,-0.06441809,0.09135039,0.35147345,30.058676,21.373919)"
       x1="27.790754"
       y1="6.3495178"
       x2="28.924282"
       y2="6.3495178" />
  </defs>
  <g
     inkscape:label="Ebene 1"
     inkscape:groupmode="layer"
     id="layer1"
     transform="translate(-0.20000279)">
    <rect
       style="fill:#7a96d9;fill-opacity:1;stroke:#212532;stroke-width:1.29973;stroke-linejoin:round;stroke-miterlimit:8.2;stroke-dasharray:none;stroke-opacity:0.995995"
       id="rect1"
       width="51.616936"
       height="51.616943"
       x="0.84986776"
       y="0.96118194"
       ry="5.9818354"
       rx="19.15794" />
    <path
       d="m 20.73893,3.7676996 c -9.446218,0 -17.0503694,2.3747012 -17.0503694,5.3241681 V 20.193872 C 4.858043,18.212648 6.2268624,16.46144 7.1329008,15.645123 9.7091177,13.324019 15.588493,12.02948 15.985065,12.552296 c 0.39657,0.522814 -2.016475,4.588378 -2.746142,5.435172 -0.804155,0.933236 -4.827034,6.785134 -5.4786084,10.675685 -0.531347,3.172667 0.5323847,5.073798 1.6256449,7.615033 0.4761248,1.106727 1.9873485,3.049001 2.5160895,3.340575 l 12.294896,6.779286 c 1.091149,0.601711 1.619303,1.817903 1.389963,2.975388 h -5.952387 c -1.730176,0 -3.398233,-0.07937 -4.969438,-0.227638 L 8.5180373,45.756154 C 8.1885999,45.574486 6.1089083,43.963309 5.4010782,42.689066 4.7813993,41.573514 4.2036948,40.387672 3.6885606,39.159463 v 5.224425 c 0,2.949467 7.6041514,5.323363 17.0503694,5.323363 h 11.838813 c 9.446217,0 17.05037,-2.373896 17.05037,-5.323363 V 9.0918677 c 0,-2.9494669 -7.604153,-5.3241681 -17.05037,-5.3241681 z"
       style="fill:#c7d9f4;stroke:#212532;stroke-width:0.689558;stroke-linejoin:round;stroke-miterlimit:8.2;stroke-opacity:0.995995"
       id="path24" />
    <path
       id="path8"
       style="fill:#74abff;fill-opacity:1;stroke:#322d21;stroke-width:0.324707;stroke-linejoin:round;stroke-miterlimit:8.2;stroke-opacity:0.995995"
       d="m 35.098902,9.4330361 c 1.60989,-0.372418 3.286854,0.9069719 3.745611,2.8575979 0.458756,1.950625 -0.474419,3.833822 -2.084306,4.206239 -1.25256,0.289758 -2.502375,-0.636863 -2.678432,-1.977357 -0.05023,-0.382415 0.223901,-1.090763 0.223901,-1.090763 0,0 -0.566586,-0.532295 -0.729306,-0.999553 -0.500737,-1.437834 0.210251,-2.6925934 1.522537,-2.9961673 z"
       sodipodi:nodetypes="sssscss" />
    <path
       style="fill:url(#linearGradient31);stroke:#322d21;stroke-width:0.297031;stroke-linejoin:round;stroke-miterlimit:8.2;stroke-opacity:0.995995"
       d="m 34.200362,13.433873 c 0,0 -0.180798,0.0027 -0.627363,0.235021 -0.446566,0.232272 -0.431509,0.682934 -0.431509,0.682934"
       id="path9"
       sodipodi:nodetypes="czc" />
    <path
       id="path8-8"
       style="fill:#74abff;fill-opacity:1;stroke:#322d21;stroke-width:0.391216;stroke-linejoin:round;stroke-miterlimit:8.2;stroke-opacity:0.995995"
       d="m 45.083497,20.633684 c -1.668356,1.019038 -3.956243,0.08102 -5.110147,-2.095157 -1.153904,-2.176158 -0.736862,-4.766376 0.931491,-5.785412 1.298048,-0.792855 2.994305,-0.125997 3.632395,1.418983 0.182042,0.440749 0.110719,1.387703 0.110719,1.387703 0,0 0.805993,0.436894 1.14118,0.939393 1.031452,1.54627 0.654309,3.303836 -0.705634,4.134494 z"
       sodipodi:nodetypes="sssscss" />
    <path
       style="fill:url(#linearGradient32);stroke:#322d21;stroke-width:0.357871;stroke-linejoin:round;stroke-miterlimit:8.2;stroke-opacity:0.995995"
       d="m 44.76343,15.516214 c 0,0 0.200258,-0.06757 0.620493,-0.504915 0.420239,-0.437333 0.254822,-0.972433 0.254822,-0.972433"
       id="path9-6"
       sodipodi:nodetypes="czc" />
    <path
       id="path8-8-1"
       style="fill:#74abff;fill-opacity:1;stroke:#322d21;stroke-width:0.23187;stroke-linejoin:round;stroke-miterlimit:8.2;stroke-opacity:0.995995"
       d="m 43.185524,23.949584 c -0.102359,1.163603 -1.345934,1.928628 -2.777636,1.708727 -1.431696,-0.219897 -2.509346,-1.341443 -2.406997,-2.505046 0.07963,-0.90533 0.988128,-1.482695 1.941197,-1.239599 0.271896,0.06935 0.694264,0.440394 0.694264,0.440394 0,0 0.48838,-0.231649 0.843024,-0.21388 1.091309,0.05467 1.789589,0.860895 1.706159,1.809393 z"
       sodipodi:nodetypes="sssscss" />
    <path
       style="fill:url(#linearGradient34);stroke:#322d21;stroke-width:0.212107;stroke-linejoin:round;stroke-miterlimit:8.2;stroke-opacity:0.995995"
       d="m 40.65616,22.283118 c 0,0 0.03815,-0.120198 -0.02142,-0.477552 -0.05955,-0.35735 -0.370199,-0.468238 -0.370199,-0.468238"
       id="path9-6-9"
       sodipodi:nodetypes="czc" />
    <path
       d="M 49.628113,13.770122 V 9.0918677 c 0,-1.4217231 -1.766624,-2.7100923 -4.654927,-3.6631306 -0.05685,0.8103071 0.464125,2.029442 0.464125,2.029442 0,0 -0.886997,0.8240461 -1.060974,1.422942 -0.609883,2.0993069 0.702698,4.4253839 2.817732,4.9718509 0.835769,0.215941 1.666762,0.173262 2.434044,-0.08285 z"
       style="fill:#74abff;stroke:#322d21;stroke-width:0.539354;stroke-linejoin:round;stroke-miterlimit:8.2;stroke-opacity:0.995995"
       id="path33" />
    <path
       style="fill:url(#linearGradient33);stroke:#322d21;stroke-width:0.493384;stroke-linejoin:round;stroke-miterlimit:8.2;stroke-opacity:0.995995"
       d="m 45.271986,7.3836684 c 0,0 -0.279623,-0.1361106 -1.118387,-0.14208 -0.83876,-0.00598 -1.111612,0.6655806 -1.111612,0.6655806"
       id="path9-6-2"
       sodipodi:nodetypes="czc" />
    <path
       d="m 18.356545,0.3490419 v 7.7959814 h 6.799963 V 5.9790541 A 2.6210673,1.8991341 0 0 1 24.691574,6.0093181 2.6210673,1.8991341 0 0 1 22.070926,4.1103106 2.6210673,1.8991341 0 0 1 24.691574,2.211303 2.6210673,1.8991341 0 0 1 25.156508,2.241567 V 0.3490461 Z"
       style="fill:url(#linearGradient7);stroke:#332d21;stroke-width:0.680238"
       id="path3" />
    <path
       d="M 28.155714,0.34474516 V 2.2199741 a 2.6210673,1.8991341 0 0 1 0.306146,-0.012982 2.6210673,1.8991341 0 0 1 0.06987,0.00313 2.6210673,1.8991341 0 0 0 -0.376014,0.027022 v -0.017357 a 2.6210673,1.8991341 0 0 0 -2.314501,1.8862052 2.6210673,1.8991341 0 0 0 2.314501,1.8860379 v -0.017346 a 2.6210673,1.8991341 0 0 0 0.398877,0.028088 2.6210673,1.8991341 0 0 1 -0.09272,0.00209 2.6210673,1.8991341 0 0 1 -0.306142,-0.012982 v 2.1486766 h 6.799961 V 0.34459869 Z"
       style="fill:url(#linearGradient5);stroke:#332d21;stroke-width:0.689183"
       id="path4" />
    <path
       id="path1"
       style="fill:#458cf4;fill-opacity:1;stroke:#332d21;stroke-width:0.778282"
       d="m 32.378755,33.416328 c -1.354382,2.285654 -5.607913,1.136807 -9.366125,1.29251 -1.426482,0.0591 -2.920831,1.247352 -3.954314,1.504377 -3.756312,0.934182 -5.105017,-1.296381 -5.635368,-3.85301 -0.530353,-2.556629 -0.538192,-4.932657 2.879431,-7.49952 1.339349,-1.005933 3.425913,-2.069056 5.318241,-3.516114 2.936342,-2.245427 5.203766,-3.134381 6.853479,-2.576496 l -2.51332,1.720562 -3.719596,7.568073 6.081931,4.492925 z"
       sodipodi:nodetypes="csssssccccc" />
    <path
       id="path5"
       style="fill:#458cf4;stroke:#222633;stroke-width:0.778282;stroke-opacity:1"
       d="m 27.48041,18.606034 c -1.530064,-0.0151 -3.474106,0.914492 -5.859883,2.738901 -1.892329,1.447058 -3.97919,2.509998 -5.318538,3.51593 -3.417624,2.566864 -3.409216,4.942574 -2.878864,7.499203 0.218797,1.054741 0.576697,2.053996 1.185651,2.798426 l 0.07787,14.009431 6.691767,0.411011 -0.0064,-14.420442 c 0.537054,-0.238492 1.094027,-0.426988 1.640927,-0.449647 3.758213,-0.155703 8.011779,0.99302 9.366161,-1.292634 l -4.055667,-0.866313 -6.081891,-4.493246 3.719437,-7.56838 2.512871,-1.720561 c -0.30932,-0.104601 -0.640313,-0.158211 -0.993405,-0.161679 z"
       sodipodi:nodetypes="cccsccccsccccccc" />
    <ellipse
       style="fill:#b7d0f4;fill-opacity:1;stroke:#222633;stroke-width:0.77828;stroke-dasharray:none;stroke-opacity:1"
       id="path2"
       cx="0.61025053"
       cy="32.832932"
       rx="1.1466607"
       ry="1.3650721"
       transform="rotate(-33.770157)" />
    <path
       style="fill:#b7d0f4;fill-opacity:0;stroke:#222633;stroke-width:0.77828;stroke-dasharray:none;stroke-opacity:1"
       d="m 22.241558,28.056654 c 0,0 1.982444,-1.145331 3.088107,-1.323406 0.78644,-0.126658 1.575831,0.438688 2.380993,0.204073 0.464564,-0.135359 -0.980744,-1.444142 -0.607413,-2.051979 0.409253,-0.666321 2.307403,-0.423248 2.307403,-0.423248"
       id="path6"
       sodipodi:nodetypes="casac" />
    <path
       style="fill:#b7d0f4;fill-opacity:0;stroke:#222633;stroke-width:0.77828;stroke-dasharray:none;stroke-opacity:1"
       d="m 30.921327,22.878611 -1.510679,1.583483 1.510679,1.128459"
       id="path7" />
    <rect
       style="fill:#458cf4;fill-opacity:1;stroke:#222633;stroke-width:1.12884;stroke-dasharray:none;stroke-opacity:1"
       id="rect7"
       width="19.610949"
       height="7.0087786"
       x="23.930836"
       y="17.049839"
       transform="rotate(28.874458)"
       rx="2.7855375"
       ry="2.7855375" />
    <rect
       style="fill:#458cf4;fill-opacity:1;stroke:#222633;stroke-width:1.12884;stroke-dasharray:none;stroke-opacity:1"
       id="rect7-1"
       width="19.610949"
       height="7.0087786"
       x="25.977257"
       y="22.579218"
       transform="rotate(28.874458)"
       rx="2.7855375"
       ry="2.7855375" />
    <path
       d="m 3.8838191,39.01827 c 0.5151341,1.22821 1.0928387,2.414051 1.7125175,3.529603 0.7078302,1.274243 2.7875218,2.88542 3.1169591,3.067088 l 6.1470453,3.389643 c 1.571205,0.148263 3.239262,0.227638 4.969439,0.227638 h 5.952386 c 0.229341,-1.157485 -0.298814,-2.373677 -1.389963,-2.975388 L 12.097308,39.477568 C 11.568566,39.185994 10.057343,37.243721 9.581218,36.136993 8.4879578,33.595758 7.424226,31.694627 7.955573,28.52196 c 0.6515744,-3.890551 4.674454,-9.742449 5.478608,-10.675685 0.729668,-0.846794 3.142712,-4.912357 2.746142,-5.435171 -0.396572,-0.522815 -6.2759469,0.771723 -8.8521637,3.092827 -0.9060385,0.816316 -2.2748579,2.567525 -3.4443402,4.548748 z"
       style="fill:#458cf4;stroke:#222633;stroke-width:1.12884"
       id="path25" />
    <path
       style="fill:#458cf4;fill-opacity:0;stroke:#222633;stroke-width:0.723911;stroke-dasharray:none;stroke-opacity:1"
       d="m 30.734798,29.00002 c 9.612714,0.367536 9.287015,2.573353 9.287015,2.573353"
       id="path26" />
    <path
       style="fill:#458cf4;fill-opacity:0;stroke:#222633;stroke-width:0.77828;stroke-dasharray:none;stroke-opacity:1"
       d="m 31.27107,26.858366 c 0,0 8.590853,-1.528882 9.68291,0.436823"
       id="path27" />
    <path
       style="fill:#458cf4;fill-opacity:0;stroke:#222633;stroke-width:0.77828;stroke-dasharray:none;stroke-opacity:1"
       d="m 33.227292,24.096717 c 0,0 3.686666,-2.8453 4.30785,-1.686255"
       id="path28" />
    <path
       style="fill:#458cf4;fill-opacity:0;stroke:#222633;stroke-width:0.77828;stroke-dasharray:none;stroke-opacity:1"
       d="m 29.183192,22.455476 c 0,0 2.728444,-6.306311 0.41184,-5.585589"
       id="path29" />
    <path
       style="fill:#458cf4;fill-opacity:0;stroke:#222633;stroke-width:0.77828;stroke-dasharray:none;stroke-opacity:1"
       d="m 31.468539,22.325637 c 0,0 3.912486,-3.655087 3.114545,-4.787649"
       id="path30" />
  </g>
</svg>
