<?xml version="1.0" encoding="UTF-8" standalone="no"?>
<!-- Created with Inkscape (http://www.inkscape.org/) -->

<svg
   width="200"
   height="201.17665"
   viewBox="0 0 52.916666 53.227988"
   version="1.1"
   id="svg1"
   inkscape:version="1.4.2 (f4327f4, 2025-05-13)"
   sodipodi:docname="PiggyBank.svg"
   xml:space="preserve"
   xmlns:inkscape="http://www.inkscape.org/namespaces/inkscape"
   xmlns:sodipodi="http://sodipodi.sourceforge.net/DTD/sodipodi-0.dtd"
   xmlns:xlink="http://www.w3.org/1999/xlink"
   xmlns="http://www.w3.org/2000/svg"
   xmlns:svg="http://www.w3.org/2000/svg"><sodipodi:namedview
     id="namedview1"
     pagecolor="#ffffff"
     bordercolor="#000000"
     borderopacity="0.25"
     inkscape:showpageshadow="2"
     inkscape:pageopacity="0.0"
     inkscape:pagecheckerboard="0"
     inkscape:deskcolor="#d1d1d1"
     inkscape:document-units="mm"
     inkscape:zoom="4"
     inkscape:cx="12.5"
     inkscape:cy="114.375"
     inkscape:window-width="3840"
     inkscape:window-height="2054"
     inkscape:window-x="-11"
     inkscape:window-y="-11"
     inkscape:window-maximized="1"
     inkscape:current-layer="svg1" /><defs
     id="defs1"><linearGradient
       id="linearGradient10"
       inkscape:collect="always"><stop
         style="stop-color:#edeff4;stop-opacity:1;"
         offset="0"
         id="stop10" /><stop
         style="stop-color:#8ab5f4;stop-opacity:0.99761051;"
         offset="0.7633974"
         id="stop11" /></linearGradient><linearGradient
       inkscape:collect="always"
       xlink:href="#linearGradient6"
       id="linearGradient7"
       x1="14.302386"
       y1="2.0970953"
       x2="16.232031"
       y2="4.4800081"
       gradientUnits="userSpaceOnUse"
       gradientTransform="matrix(2.4581979,0,0,2.0915215,-15.773298,-2.631046)" /><linearGradient
       id="linearGradient6"
       inkscape:collect="always"><stop
         style="stop-color:#8080d5;stop-opacity:1;"
         offset="0"
         id="stop6" /><stop
         style="stop-color:#3f3fa8;stop-opacity:1;"
         offset="1"
         id="stop7" /></linearGradient><linearGradient
       inkscape:collect="always"
       xlink:href="#linearGradient4"
       id="linearGradient5"
       x1="19.683516"
       y1="1.3110757"
       x2="18.781071"
       y2="5.2199874"
       gradientUnits="userSpaceOnUse"
       gradientTransform="matrix(2.4581979,0,0,2.0915215,-16.87834,-2.587346)" /><linearGradient
       id="linearGradient4"
       inkscape:collect="always"><stop
         style="stop-color:#6ca8e2;stop-opacity:1;"
         offset="0"
         id="stop4" /><stop
         style="stop-color:#254465;stop-opacity:1;"
         offset="1"
         id="stop5" /></linearGradient><radialGradient
       inkscape:collect="always"
       xlink:href="#linearGradient10"
       id="radialGradient11"
       cx="18.678091"
       cy="31.70039"
       fx="18.678091"
       fy="31.70039"
       r="15.334562"
       gradientTransform="matrix(1,0,0,0.79339037,13.012969,6.2923101)"
       gradientUnits="userSpaceOnUse" /></defs><g
     inkscape:label="Ebene 1"
     inkscape:groupmode="layer"
     id="layer1"
     transform="translate(-0.20000279)"><rect
       style="fill:#7a96d9;fill-opacity:1;stroke:#212532;stroke-width:1.29973;stroke-linejoin:round;stroke-miterlimit:8.2;stroke-dasharray:none;stroke-opacity:0.995995"
       id="rect1"
       width="51.616936"
       height="51.616943"
       x="0.84986877"
       y="0.96118057"
       ry="5.9818354"
       rx="19.15794" /><rect
       style="fill:#c7d9f4;fill-opacity:1;stroke:#212532;stroke-width:0.689558;stroke-linejoin:round;stroke-miterlimit:8.2;stroke-dasharray:none;stroke-opacity:0.995995"
       id="rect1-8"
       width="45.94006"
       height="45.940067"
       x="3.6883106"
       y="3.7675676"
       ry="5.3239479"
       rx="17.050934" /></g><g
     inkscape:groupmode="layer"
     id="layer2"
     inkscape:label="Ebene 2" /><g
     inkscape:groupmode="layer"
     id="layer3"
     inkscape:label="Layer 1"><path
       id="path2"
       style="opacity:1;fill:#8eb7f4;fill-opacity:1;stroke:#333f5b;stroke-width:1.52816;stroke-linecap:round;stroke-linejoin:round"
       d="m 37.696027,22.635833 3.758684,-1.672085 2.595938,-0.696516 -0.01768,2.602232 -0.857308,3.724378"
       sodipodi:nodetypes="ccccc" /><path
       style="opacity:1;fill:#a1bfeb;fill-opacity:1;stroke:#333f5b;stroke-width:0.533;stroke-linecap:round;stroke-linejoin:round;stroke-dasharray:none;stroke-opacity:1"
       d="m 21.475217,40.309864 -0.159772,4.511225 2.513542,0.132292 1.788008,-3.621751 z"
       id="path11" /><path
       style="fill:#a1bfeb;fill-opacity:1;stroke:#333f5b;stroke-width:0.533;stroke-linecap:round;stroke-linejoin:round;stroke-dasharray:none;stroke-opacity:1"
       d="m 37.165767,41.151905 0.159772,4.511225 -2.513542,0.132292 -1.788008,-3.621751 z"
       id="path11-2" /><path
       id="path1"
       style="opacity:1;fill:url(#radialGradient11);stroke:#333f5b;stroke-width:1.433;stroke-linecap:round;stroke-linejoin:round"
       d="m 46.309122,31.443094 c 0,6.323547 -6.544729,11.449794 -14.618062,11.449794 -3.818035,0 -7.294194,-1.146499 -9.897922,-3.023934 -1.728177,-1.246112 -7.661325,-6.696342 -9.166736,-11.309606 -0.742321,-2.274807 -0.475849,-4.927659 0.360728,-7.169517 1.131173,-3.031318 6.953543,-4.557673 5.982183,-7.643917 -0.508426,-1.615389 -3.229489,-1.950208 -4.858242,-1.486371 -2.631139,0.749296 -4.4650863,3.606594 -5.4056867,6.175565 -0.8799634,2.403358 -0.3003655,4.962012 0.1309853,7.677046 0.3958425,2.491533 2.0104564,6.808068 1.4825134,6.575892 C 7.2618822,31.343655 6.8179475,28.575177 5.986615,26.074278 4.9155779,22.852276 4.3477608,19.149913 5.35613,15.907752 6.3394002,12.74629 8.3359374,9.1136462 11.485113,8.0917106 c 4.021943,-1.3051564 9.33433,0.372294 12.197443,3.4838924 1.015916,1.104086 1.198447,2.951171 0.872539,4.41571 -0.755553,3.395245 -7.389172,5.154329 -6.173056,8.413104 0.265183,0.710601 1.463936,0.577541 2.218848,0.504174 4.024579,-0.391135 6.249734,-4.915289 11.090173,-4.915289 8.073333,0 14.618062,5.126247 14.618062,11.449794 z"
       sodipodi:nodetypes="sssaaaaassaaaaaaasss" /><path
       style="opacity:1;fill:#c7d9f4;fill-opacity:1;stroke:#333f5b;stroke-width:0.733;stroke-linecap:round;stroke-linejoin:round;stroke-dasharray:none;stroke-opacity:1"
       d="m 28.101377,22.944452 c 0,0 0.761856,-0.813225 2.689258,-1.297326 0.45989,-0.11551 1.418055,-0.112621 1.418055,-0.112621"
       id="path8"
       sodipodi:nodetypes="csc" /><path
       id="path2-1"
       style="opacity:1;fill:#97bcf4;fill-opacity:1;stroke:#333f5b;stroke-width:1.32151;stroke-linecap:round;stroke-linejoin:round"
       d="m 31.336006,24.983305 0.872684,-3.4488 0.914256,-2.136919 1.759406,1.403095 2.073345,2.573692"
       sodipodi:nodetypes="ccccc" /><ellipse
       style="opacity:1;fill:#5b83c0;fill-opacity:1;stroke:#333f5b;stroke-width:1.05053;stroke-linecap:round;stroke-linejoin:round;stroke-dasharray:none;stroke-opacity:1"
       id="path5"
       cx="41.100483"
       cy="33.196495"
       rx="5.3998756"
       ry="2.6286252" /><path
       style="opacity:1;fill:#c7d9f4;fill-opacity:1;stroke:#333f5b;stroke-width:1.433;stroke-linecap:round;stroke-linejoin:round;stroke-dasharray:none;stroke-opacity:1"
       d="M 39.953738,32.413062 V 34.09686"
       id="path6" /><path
       style="opacity:1;fill:#c7d9f4;fill-opacity:1;stroke:#333f5b;stroke-width:1.433;stroke-linecap:round;stroke-linejoin:round;stroke-dasharray:none;stroke-opacity:1"
       d="m 42.222188,32.296132 -0.07016,1.660411"
       id="path7" /><ellipse
       style="opacity:1;fill:#c7d9f4;fill-opacity:1;stroke:#333f5b;stroke-width:0.732999;stroke-linecap:round;stroke-linejoin:round;stroke-dasharray:none;stroke-opacity:1"
       id="path9"
       cx="25.623148"
       cy="36.826923"
       rx="0.60803819"
       ry="2.291836"
       transform="rotate(-17.060415)" /><ellipse
       style="opacity:1;fill:#c7d9f4;fill-opacity:1;stroke:#333f5b;stroke-width:0.708086;stroke-linecap:round;stroke-linejoin:round;stroke-dasharray:none;stroke-opacity:1"
       id="path9-6"
       cx="53.47937"
       cy="41.999981"
       rx="0.63618934"
       ry="2.0440588"
       transform="matrix(0.9667096,-0.25587606,-0.20794746,0.97814,0,0)" /><path
       style="opacity:1;fill:#6fa4f4;fill-opacity:1;stroke:#333f5b;stroke-width:0.533;stroke-linecap:round;stroke-linejoin:round;stroke-dasharray:none;stroke-opacity:1"
       d="m 40.049311,35.774834 c 0.01492,0.797068 0.02983,1.594136 0.04474,2.391206 0.01492,0.797068 1.42449,-0.356815 2.14702,-0.318894 0.861742,0.04523 1.792749,0.161778 2.506811,0.646298 0.613739,0.416447 1.312256,1.796917 1.312256,1.796917 l 0.561266,-1.426551 1.592403,-0.1817 c 0,0 -1.714477,-0.507793 -2.555044,-0.81089 -0.964849,-0.347912 -1.829663,-1.071744 -2.851928,-1.155118 -0.542998,-0.04429 -1.594265,0.35999 -1.594265,0.35999 l -0.112086,-1.250971 z"
       id="path10"
       sodipodi:nodetypes="ccaacccaaccc" /><path
       style="fill:#a1bfeb;fill-opacity:1;stroke:#333f5b;stroke-width:0.616296;stroke-linecap:round;stroke-linejoin:round;stroke-dasharray:none;stroke-opacity:1"
       d="m 24.574994,41.280638 -0.184741,5.216225 2.906351,0.152966 2.067432,-4.187747 z"
       id="path11-5" /><path
       style="fill:#a1bfeb;fill-opacity:1;stroke:#333f5b;stroke-width:0.601577;stroke-linecap:round;stroke-linejoin:round;stroke-dasharray:none;stroke-opacity:1"
       d="m 39.274264,41.683846 0.180329,5.091647 -2.836939,0.149313 -2.018056,-4.087732 z"
       id="path11-9" /></g><path
     d="m 28.155716,0.344743 v 1.875229 a 2.6210673,1.8991341 0 0 1 0.306146,-0.01298 2.6210673,1.8991341 0 0 1 0.06987,0.0031 2.6210673,1.8991341 0 0 0 -0.376014,0.02702 v -0.01736 a 2.6210673,1.8991341 0 0 0 -2.314501,1.886205 2.6210673,1.8991341 0 0 0 2.314501,1.886038 v -0.01735 a 2.6210673,1.8991341 0 0 0 0.398877,0.02809 2.6210673,1.8991341 0 0 1 -0.09272,0.0021 2.6210673,1.8991341 0 0 1 -0.306142,-0.01298 v 2.148677 h 6.799961 V 0.344574 Z"
     style="fill:url(#linearGradient5);stroke:#332d21;stroke-width:0.689183"
     id="path4"
     transform="translate(-0.20000279)" /><path
     d="M 18.356547,0.34904 V 8.145021 H 25.15651 V 5.979052 a 2.6210673,1.8991341 0 0 1 -0.464934,0.03026 2.6210673,1.8991341 0 0 1 -2.620648,-1.899007 2.6210673,1.8991341 0 0 1 2.620648,-1.899008 2.6210673,1.8991341 0 0 1 0.464934,0.03026 V 0.349036 Z"
     style="fill:url(#linearGradient7);stroke:#332d21;stroke-width:0.680238"
     id="path3"
     transform="translate(-0.20000279)" /></svg>
