<?xml version="1.0" encoding="UTF-8" standalone="no"?>
<!-- Created with Inkscape (http://www.inkscape.org/) -->

<svg
   width="200"
   height="201.17665"
   viewBox="0 0 52.916666 53.227988"
   version="1.1"
   id="svg1"
   inkscape:version="1.4.2 (f4327f4, 2025-05-13)"
   sodipodi:docname="sale.svg"
   xml:space="preserve"
   xmlns:inkscape="http://www.inkscape.org/namespaces/inkscape"
   xmlns:sodipodi="http://sodipodi.sourceforge.net/DTD/sodipodi-0.dtd"
   xmlns:xlink="http://www.w3.org/1999/xlink"
   xmlns="http://www.w3.org/2000/svg"
   xmlns:svg="http://www.w3.org/2000/svg"><sodipodi:namedview
     id="namedview1"
     pagecolor="#ffffff"
     bordercolor="#000000"
     borderopacity="0.25"
     inkscape:showpageshadow="2"
     inkscape:pageopacity="0.0"
     inkscape:pagecheckerboard="0"
     inkscape:deskcolor="#d1d1d1"
     inkscape:document-units="mm"
     inkscape:zoom="4"
     inkscape:cx="51"
     inkscape:cy="50.875"
     inkscape:window-width="3840"
     inkscape:window-height="2054"
     inkscape:window-x="-11"
     inkscape:window-y="-11"
     inkscape:window-maximized="1"
     inkscape:current-layer="svg1" /><defs
     id="defs1"><linearGradient
       id="linearGradient21"
       inkscape:collect="always"><stop
         style="stop-color:#acc6eb;stop-opacity:0.94982082;"
         offset="0"
         id="stop21" /><stop
         style="stop-color:#6a9feb;stop-opacity:0.32974911;"
         offset="1"
         id="stop22" /></linearGradient><linearGradient
       id="linearGradient19"
       inkscape:collect="always"><stop
         style="stop-color:#3b84eb;stop-opacity:1;"
         offset="0"
         id="stop19" /><stop
         style="stop-color:#679bdd;stop-opacity:1;"
         offset="1"
         id="stop20" /></linearGradient><linearGradient
       id="linearGradient17"
       inkscape:collect="always"><stop
         style="stop-color:#9cbff5;stop-opacity:1;"
         offset="0"
         id="stop17" /><stop
         style="stop-color:#558ede;stop-opacity:1;"
         offset="1"
         id="stop18" /></linearGradient><linearGradient
       inkscape:collect="always"
       xlink:href="#linearGradient6"
       id="linearGradient7"
       x1="14.302386"
       y1="2.0970953"
       x2="16.232031"
       y2="4.4800081"
       gradientUnits="userSpaceOnUse"
       gradientTransform="matrix(2.4581979,0,0,2.0915215,-15.773298,-2.631046)" /><linearGradient
       id="linearGradient6"
       inkscape:collect="always"><stop
         style="stop-color:#8080d5;stop-opacity:1;"
         offset="0"
         id="stop6" /><stop
         style="stop-color:#3f3fa8;stop-opacity:1;"
         offset="1"
         id="stop7" /></linearGradient><linearGradient
       inkscape:collect="always"
       xlink:href="#linearGradient4"
       id="linearGradient5"
       x1="19.683516"
       y1="1.3110757"
       x2="18.781071"
       y2="5.2199874"
       gradientUnits="userSpaceOnUse"
       gradientTransform="matrix(2.4581979,0,0,2.0915215,-16.87834,-2.587346)" /><linearGradient
       id="linearGradient4"
       inkscape:collect="always"><stop
         style="stop-color:#6ca8e2;stop-opacity:1;"
         offset="0"
         id="stop4" /><stop
         style="stop-color:#254465;stop-opacity:1;"
         offset="1"
         id="stop5" /></linearGradient><linearGradient
       inkscape:collect="always"
       xlink:href="#linearGradient17"
       id="linearGradient18"
       x1="10.782739"
       y1="38.564603"
       x2="48.828761"
       y2="38.564603"
       gradientUnits="userSpaceOnUse" /><linearGradient
       inkscape:collect="always"
       xlink:href="#linearGradient19"
       id="linearGradient20"
       x1="19.563179"
       y1="19.807969"
       x2="37.704468"
       y2="19.807969"
       gradientUnits="userSpaceOnUse"
       gradientTransform="translate(5.5191157,-0.56126601)" /><radialGradient
       inkscape:collect="always"
       xlink:href="#linearGradient21"
       id="radialGradient22"
       cx="27.737593"
       cy="18.505346"
       fx="27.737593"
       fy="18.505346"
       r="1.737463"
       gradientTransform="matrix(1,0,0,1.0190352,4.196199,-0.84737307)"
       gradientUnits="userSpaceOnUse" /></defs><g
     inkscape:label="Ebene 1"
     inkscape:groupmode="layer"
     id="layer1"
     transform="translate(-0.20000279)"><rect
       style="fill:#7a96d9;fill-opacity:1;stroke:#212532;stroke-width:1.29973;stroke-linejoin:round;stroke-miterlimit:8.2;stroke-dasharray:none;stroke-opacity:0.995995"
       id="rect1"
       width="51.616936"
       height="51.616943"
       x="0.84986877"
       y="0.96118057"
       ry="5.9818354"
       rx="19.15794" /><path
       d="m 20.752237,3.7930501 c -9.446218,0 -17.0511559,2.3742389 -17.0511559,5.3237061 V 44.409176 c 0,2.11751 3.9195998,3.938732 9.6262859,4.79764 0.152136,-0.867802 0.238,-1.721697 0.169499,-2.38125 -0.194489,-1.872615 -1.939222,-2.774075 -2.163176,-5.217253 -0.119169,-1.300044 1.074107,-7.694302 4.135665,-9.883118 0.932498,-0.666676 6.601558,-3.15791 10.053133,-2.757454 3.406444,0.395219 5.813929,3.742751 9.034591,4.92063 1.518279,0.555274 3.156449,1.241157 4.751131,0.975651 2.719699,-0.452816 5.445494,-2.01317 7.125663,-4.199227 0.688828,-0.89623 0.912089,-3.266467 0.912089,-3.266467 0,0 1.425243,2.093536 1.336353,3.266467 -0.226687,2.990959 -2.232575,5.90866 -4.623491,7.719942 -1.036196,0.78499 -5.642554,2.064348 -8.80153,1.505851 -1.95765,-0.346106 -6.102791,-4.694465 -9.650057,-4.517553 -2.482394,0.123804 -5.851081,2.75466 -6.405293,3.817338 -1.155853,2.2163 1.494691,5.554757 1.505851,7.274491 0.006,0.931964 -0.192446,2.128219 -0.444934,3.265951 0.162457,0.0014 0.325784,0.0021 0.489376,0.0021 h 11.838037 c 9.446217,0 17.051155,-2.374239 17.051155,-5.323706 V 9.1167562 c 0,-2.9494672 -7.604938,-5.3237061 -17.051155,-5.3237061 z"
       style="fill:#c7d9f4;stroke:#212532;stroke-width:0.689558;stroke-linejoin:round;stroke-miterlimit:8.2;stroke-opacity:0.995995"
       id="path16" /></g><path
     d="m 28.155716,0.344743 v 1.875229 a 2.6210673,1.8991341 0 0 1 0.306146,-0.01298 2.6210673,1.8991341 0 0 1 0.06987,0.0031 2.6210673,1.8991341 0 0 0 -0.376014,0.02702 v -0.01736 a 2.6210673,1.8991341 0 0 0 -2.314501,1.886205 2.6210673,1.8991341 0 0 0 2.314501,1.886038 v -0.01735 a 2.6210673,1.8991341 0 0 0 0.398877,0.02809 2.6210673,1.8991341 0 0 1 -0.09272,0.0021 2.6210673,1.8991341 0 0 1 -0.306142,-0.01298 v 2.148677 h 6.799961 V 0.344574 Z"
     style="fill:url(#linearGradient5);stroke:#332d21;stroke-width:0.689183"
     id="path4"
     transform="translate(-0.20000279)" /><path
     d="M 18.356547,0.34904 V 8.145021 H 25.15651 V 5.979052 a 2.6210673,1.8991341 0 0 1 -0.464934,0.03026 2.6210673,1.8991341 0 0 1 -2.620648,-1.899007 2.6210673,1.8991341 0 0 1 2.620648,-1.899008 2.6210673,1.8991341 0 0 1 0.464934,0.03026 V 0.349036 Z"
     style="fill:url(#linearGradient7);stroke:#332d21;stroke-width:0.680238"
     id="path3"
     transform="translate(-0.20000279)" /><path
     style="opacity:1;fill:#598bd5;fill-opacity:1;stroke:#333f5b;stroke-width:0.984001;stroke-linecap:round;stroke-linejoin:round;stroke-dasharray:none;stroke-opacity:1"
     d="m 26.598407,22.041539 -0.640229,3.127923 c 0,0 -0.741805,2.695835 -0.547746,4.041345 0.475606,3.297626 4.086548,9.121677 4.086548,9.121677 0,0 3.374714,5.005245 3.472656,7.871354 0.04272,1.250266 -1.276923,3.529077 -1.276923,3.529077 l 6.804186,-0.34905 c 0,0 1.654906,-3.127842 1.682633,-4.833673 0.02646,-1.628139 -1.455208,-4.663281 -1.455208,-4.663281 0,0 -5.082346,-6.862882 -5.915366,-10.917084 -0.18844,-0.917113 0.255976,-2.797128 0.255976,-2.797128 l -3.84318,-0.828724 z"
     id="path23"
     sodipodi:nodetypes="ccacaccacaccc" /><path
     d="m 20.062858,49.730815 c 0.252489,-1.137732 0.450978,-2.333987 0.444934,-3.265951 -0.01116,-1.719734 -2.661704,-5.058191 -1.505851,-7.274491 0.554212,-1.062678 3.9229,-3.693534 6.405294,-3.817338 3.547266,-0.176912 7.692407,4.171447 9.650057,4.517553 3.158976,0.558497 7.765334,-0.720861 8.80153,-1.505851 2.390916,-1.811282 4.396803,-4.728983 4.62349,-7.719942 0.08889,-1.172931 -1.336353,-3.266467 -1.336353,-3.266467 0,0 -0.223261,2.370237 -0.912089,3.266467 -1.680169,2.186057 -4.405964,3.746411 -7.125663,4.199227 -1.594682,0.265506 -3.232852,-0.420377 -4.751131,-0.975651 -3.220662,-1.177879 -5.628147,-4.525411 -9.034591,-4.92063 -3.451575,-0.400456 -9.120635,2.090778 -10.053133,2.757454 -3.061558,2.188816 -4.254834,8.583074 -4.135665,9.883118 0.223954,2.443178 1.968687,3.344638 2.163176,5.217253 0.0685,0.659553 -0.01736,1.513448 -0.169499,2.38125 2.104464,0.31674 4.451932,0.502367 6.935494,0.523999 z"
     style="opacity:1;fill:url(#linearGradient18);stroke:#333f5b;stroke-width:0.984;stroke-linecap:round;stroke-linejoin:round;fill-opacity:1;stroke-dasharray:none"
     id="path17" /><path
     style="opacity:1;fill:#4186eb;fill-opacity:1;stroke:#333f5b;stroke-width:0.427086;stroke-linecap:round;stroke-linejoin:round;stroke-dasharray:none;stroke-opacity:1"
     d="m 19.882818,34.835596 c 0,0 0.701333,0.57135 0.935201,0.948872 0.239965,0.387365 0.444393,1.292762 0.444393,1.292762 l 1.833676,-1.055063 c 0,0 -0.168908,-0.974029 -0.396939,-1.403373 -0.27228,-0.512662 -1.122942,-1.331023 -1.122942,-1.331023 l -0.468377,1.075726 z"
     id="path13"
     sodipodi:nodetypes="caccaccc" /><ellipse
     style="opacity:1;fill:#536379;fill-opacity:1;stroke:#333f5b;stroke-width:0.430731;stroke-linecap:round;stroke-linejoin:round;stroke-dasharray:none;stroke-opacity:1"
     id="path12"
     cx="13.40631"
     cy="33.400826"
     rx="2.0333426"
     ry="2.0317004"
     transform="matrix(1,0,0.18278425,0.98315305,0,0)" /><ellipse
     style="fill:#d3e0f0;fill-opacity:1;stroke:#333f5b;stroke-width:0.430731;stroke-linecap:round;stroke-linejoin:round;stroke-dasharray:none;stroke-opacity:1"
     id="path12-5"
     cx="13.368649"
     cy="32.768391"
     rx="2.0333426"
     ry="2.0317004"
     transform="matrix(1,0,0.18278425,0.98315305,0,0)" /><path
     style="opacity:1;fill:#4186eb;fill-opacity:0;stroke:#333f5b;stroke-width:0.427086;stroke-linecap:round;stroke-linejoin:round;stroke-dasharray:none;stroke-opacity:1"
     d="m 18.617873,31.275561 0.749843,0.989792 1.049779,0.119969"
     id="path14" /><path
     style="fill:#4186eb;fill-opacity:1;stroke:#333f5b;stroke-width:0.427086;stroke-linecap:round;stroke-linejoin:round;stroke-dasharray:none;stroke-opacity:1"
     d="m 42.472326,36.670482 c 0,0 0.338516,0.614079 0.431448,0.948872 0.107555,0.387473 0.138154,1.198434 0.138154,1.198434 0,0 0.69123,-0.354186 1.005888,-0.579378 0.354993,-0.254059 0.984787,-0.863304 0.984787,-0.863304 0,0 0.357948,-0.590567 0.371154,-0.921427 0.01855,-0.464499 -0.416309,-1.331022 -0.416309,-1.331022 l -1.039474,1.075725 z"
     id="path13-9"
     sodipodi:nodetypes="cacacaccc" /><ellipse
     style="fill:#536379;fill-opacity:1;stroke:#333f5b;stroke-width:0.439264;stroke-linecap:round;stroke-linejoin:round;stroke-dasharray:none;stroke-opacity:1"
     id="path12-3"
     cx="55.122921"
     cy="36.678272"
     rx="2.0333426"
     ry="2.112993"
     transform="matrix(1,0,-0.32611971,0.94532848,0,0)" /><ellipse
     style="fill:#d3e0f0;fill-opacity:1;stroke:#333f5b;stroke-width:0.439264;stroke-linecap:round;stroke-linejoin:round;stroke-dasharray:none;stroke-opacity:1"
     id="path12-5-1"
     cx="55.085258"
     cy="36.020523"
     rx="2.0333426"
     ry="2.112993"
     transform="matrix(1,0,-0.32611971,0.94532848,0,0)" /><path
     style="fill:#4186eb;fill-opacity:0;stroke:#333f5b;stroke-width:0.427086;stroke-linecap:round;stroke-linejoin:round;stroke-dasharray:none;stroke-opacity:1"
     d="m 43.097392,33.110446 0.224365,0.989793 0.986089,0.119969"
     id="path14-9"
     sodipodi:nodetypes="ccc" /><path
     style="opacity:1;fill:#0d2e5e;fill-opacity:1;stroke:#333f5b;stroke-width:0.427086;stroke-linecap:round;stroke-linejoin:round;stroke-dasharray:none;stroke-opacity:1"
     d="m 27.733895,36.995129 -0.822319,-0.163047 c 0,0 -0.425769,-0.378931 -0.486261,-0.639912 -0.056,-0.241559 0.143606,-0.729894 0.143606,-0.729894 l 2.550377,0.962338 z"
     id="path15"
     sodipodi:nodetypes="ccaccc" /><path
     style="fill:#164c9c;fill-opacity:1;stroke:#333f5b;stroke-width:0.427086;stroke-linecap:round;stroke-linejoin:round;stroke-dasharray:none;stroke-opacity:1"
     d="m 29.64358,34.875159 c 0,0 0.04939,0.983838 -0.254398,1.307762 -0.584028,0.622731 -2.477606,0.649161 -2.477606,0.649161 0,0 0.821315,0.792476 1.33755,1.001694 0.554786,0.224843 1.2007,0.373676 1.781319,0.227989 0.54917,-0.137798 1.058792,-0.521657 1.383444,-0.985529 0.332843,-0.475577 0.4636,-1.6786 0.4636,-1.6786 l -1.152185,0.221436 z"
     id="path13-3"
     sodipodi:nodetypes="cacaaaccc" /><ellipse
     style="fill:#536379;fill-opacity:1;stroke:#333f5b;stroke-width:0.430731;stroke-linecap:round;stroke-linejoin:round;stroke-dasharray:none;stroke-opacity:1"
     id="path12-8"
     cx="46.407341"
     cy="-6.8631539"
     rx="2.0333426"
     ry="2.0317004"
     transform="matrix(0.56507471,0.82503974,-0.70785358,0.70635919,0,0)" /><ellipse
     style="fill:#d3e0f0;fill-opacity:1;stroke:#333f5b;stroke-width:0.430731;stroke-linecap:round;stroke-linejoin:round;stroke-dasharray:none;stroke-opacity:1"
     id="path12-5-7"
     cx="46.369682"
     cy="-7.4955907"
     rx="2.0333426"
     ry="2.0317004"
     transform="matrix(0.56507471,0.82503974,-0.70785358,0.70635919,0,0)" /><path
     style="fill:#4186eb;fill-opacity:0;stroke:#333f5b;stroke-width:0.427086;stroke-linecap:round;stroke-linejoin:round;stroke-dasharray:none;stroke-opacity:1"
     d="m 31.865963,31.819843 -0.392902,1.177957 0.494225,0.933902"
     id="path14-4" /><path
     style="opacity:1;fill:url(#linearGradient20);stroke:#333f5b;stroke-width:0.933;stroke-linecap:round;stroke-linejoin:round;stroke-dasharray:none;stroke-opacity:1"
     d="m 30.224584,10.584307 c 2.779213,-0.202765 6.578356,0.726901 8.069792,2.182812 0.865276,0.844666 0.938299,4.515508 1.785938,6.647656 0.712488,1.792191 3.033414,3.186286 2.745052,5.09323 -0.25643,1.695771 -1.98403,3.296384 -3.671094,3.604947 -1.184774,0.216695 -2.170614,-1.056951 -3.307292,-1.455208 -2.4328,-0.852378 -5.73019,-0.08634 -7.474479,-1.984375 -2.825682,-3.074738 -4.158865,-8.657378 -2.182812,-12.336197 0.693898,-1.291832 2.572384,-1.646163 4.034895,-1.752865 z"
     id="path18"
     sodipodi:nodetypes="asaaaaaaa" /><ellipse
     style="opacity:1;fill:#acc6eb;fill-opacity:1;stroke:#333f5b;stroke-width:0.558526;stroke-linecap:round;stroke-linejoin:round;stroke-dasharray:none;stroke-opacity:1"
     id="path19"
     cx="36.905926"
     cy="10.810809"
     rx="0.6433816"
     ry="2.234694"
     transform="matrix(0.99164976,0.12896028,-0.0679168,0.99769099,0,0)" /><ellipse
     style="fill:#acc6eb;fill-opacity:1;stroke:#333f5b;stroke-width:0.561312;stroke-linecap:round;stroke-linejoin:round;stroke-dasharray:none;stroke-opacity:1"
     id="path19-0"
     cx="15.649268"
     cy="34.124432"
     rx="0.69532531"
     ry="2.1952837"
     transform="matrix(0.70637049,-0.70784231,0.59148317,0.80631734,0,0)" /><ellipse
     style="opacity:1;fill:url(#radialGradient22);stroke:#333f5b;stroke-width:0.433;stroke-linecap:round;stroke-linejoin:round;stroke-dasharray:none;stroke-opacity:1"
     id="path20"
     cx="31.93379"
     cy="18.010227"
     rx="1.5709635"
     ry="1.6040365" /><ellipse
     style="opacity:1;fill:#acc6eb;fill-opacity:0.559693;stroke:#333f5b;stroke-width:0.332999;stroke-linecap:round;stroke-linejoin:round;stroke-dasharray:none;stroke-opacity:1"
     id="path22"
     cx="31.581085"
     cy="34.777882"
     rx="0.39687499"
     ry="1.008724"
     transform="rotate(-18.022191)" /><ellipse
     style="fill:#acc6eb;fill-opacity:0.559693;stroke:#333f5b;stroke-width:0.332999;stroke-linecap:round;stroke-linejoin:round;stroke-dasharray:none;stroke-opacity:1"
     id="path22-0"
     cx="18.054569"
     cy="42.342861"
     rx="0.39687499"
     ry="1.008724"
     transform="rotate(-34.359444)" /></svg>
