<?xml version="1.0" encoding="UTF-8" standalone="no"?>
<!-- Created with Inkscape (http://www.inkscape.org/) -->

<svg
   width="200"
   height="201.17665"
   viewBox="0 0 52.916666 53.227988"
   version="1.1"
   id="svg1"
   inkscape:version="1.4.2 (f4327f4, 2025-05-13)"
   sodipodi:docname="SteelHelmet.svg"
   xml:space="preserve"
   xmlns:inkscape="http://www.inkscape.org/namespaces/inkscape"
   xmlns:sodipodi="http://sodipodi.sourceforge.net/DTD/sodipodi-0.dtd"
   xmlns:xlink="http://www.w3.org/1999/xlink"
   xmlns="http://www.w3.org/2000/svg"
   xmlns:svg="http://www.w3.org/2000/svg"><sodipodi:namedview
     id="namedview1"
     pagecolor="#ffffff"
     bordercolor="#000000"
     borderopacity="0.25"
     inkscape:showpageshadow="2"
     inkscape:pageopacity="0.0"
     inkscape:pagecheckerboard="0"
     inkscape:deskcolor="#d1d1d1"
     inkscape:document-units="mm"
     inkscape:zoom="1.6062079"
     inkscape:cx="110.19744"
     inkscape:cy="170.27684"
     inkscape:window-width="3840"
     inkscape:window-height="2054"
     inkscape:window-x="-11"
     inkscape:window-y="-11"
     inkscape:window-maximized="1"
     inkscape:current-layer="layer1"
     showgrid="true"><inkscape:grid
       id="grid1"
       units="mm"
       originx="0"
       originy="0"
       spacingx="0.99999999"
       spacingy="0.99999998"
       empcolor="#0099e5"
       empopacity="0.30196078"
       color="#0099e5"
       opacity="0.14901961"
       empspacing="5"
       enabled="true"
       visible="true" /></sodipodi:namedview><defs
     id="defs1"><inkscape:path-effect
       effect="spiro"
       id="path-effect45"
       is_visible="true"
       lpeversion="1" /><inkscape:path-effect
       effect="spiro"
       id="path-effect44"
       is_visible="true"
       lpeversion="1" /><inkscape:path-effect
       effect="spiro"
       id="path-effect43"
       is_visible="true"
       lpeversion="1" /><inkscape:path-effect
       effect="spiro"
       id="path-effect42"
       is_visible="true"
       lpeversion="1" /><inkscape:path-effect
       effect="spiro"
       id="path-effect41"
       is_visible="true"
       lpeversion="1" /><inkscape:path-effect
       effect="spiro"
       id="path-effect40"
       is_visible="true"
       lpeversion="1" /><linearGradient
       id="linearGradient32"
       inkscape:collect="always"><stop
         style="stop-color:#7caf7e;stop-opacity:1;"
         offset="0.32962587"
         id="stop32" /><stop
         style="stop-color:#4d6b4e;stop-opacity:1;"
         offset="1"
         id="stop33" /></linearGradient><linearGradient
       id="linearGradient25"
       inkscape:collect="always"><stop
         style="stop-color:#394639;stop-opacity:1;"
         offset="0"
         id="stop25" /><stop
         style="stop-color:#7a957a;stop-opacity:1;"
         offset="1"
         id="stop26" /></linearGradient><linearGradient
       id="linearGradient22"
       inkscape:collect="always"><stop
         style="stop-color:#475348;stop-opacity:1;"
         offset="0.59453994"
         id="stop22" /><stop
         style="stop-color:#667c66;stop-opacity:1;"
         offset="0.84024268"
         id="stop23" /></linearGradient><linearGradient
       id="linearGradient20"
       inkscape:collect="always"><stop
         style="stop-color:#3a443a;stop-opacity:1;"
         offset="0.49140546"
         id="stop20" /><stop
         style="stop-color:#6a7a6a;stop-opacity:1;"
         offset="1"
         id="stop21" /></linearGradient><inkscape:path-effect
       effect="fillet_chamfer"
       id="path-effect5"
       is_visible="true"
       lpeversion="1"
       nodesatellites_param="F,0,0,1,0,0,0,1 @ F,0,0,1,0,2.0496102,0,1 @ F,0,0,1,0,0,0,1"
       radius="0"
       unit="px"
       method="auto"
       mode="F"
       chamfer_steps="1"
       flexible="false"
       use_knot_distance="true"
       apply_no_radius="true"
       apply_with_radius="true"
       only_selected="false"
       hide_knots="false" /><inkscape:path-effect
       effect="fillet_chamfer"
       id="path-effect28"
       is_visible="true"
       lpeversion="1"
       nodesatellites_param="F,0,0,1,0,0,0,1 @ F,0,0,1,0,0,0,1 @ F,0,0,1,0,0,0,1 @ F,0,0,1,0,0,0,1 @ F,0,0,1,0,0,0,1 @ F,0,0,1,0,0,0,1 @ F,0,0,1,0,0,0,1 @ F,0,0,1,0,0,0,1 @ F,0,0,1,0,0,0,1 @ F,0,0,1,0,0,0,1 @ F,0,0,1,0,0,0,1 @ F,0,0,1,0,0,0,1 | F,0,0,1,0,0,0,1 @ F,0,0,1,0,0,0,1 @ F,0,0,1,0,0,0,1 @ F,0,0,1,0,0,0,1 @ F,0,0,1,0,0,0,1 @ F,0,0,1,0,0,0,1 @ F,0,0,1,0,0,0,1 @ F,0,0,1,0,0,0,1 @ F,0,0,1,0,0,0,1 @ F,0,0,1,0,0,0,1 @ F,0,0,1,0,0,0,1"
       radius="0"
       unit="px"
       method="auto"
       mode="F"
       chamfer_steps="1"
       flexible="false"
       use_knot_distance="true"
       apply_no_radius="true"
       apply_with_radius="true"
       only_selected="false"
       hide_knots="false" /><linearGradient
       id="linearGradient13"
       inkscape:collect="always"><stop
         style="stop-color:#94f0b4;stop-opacity:1;"
         offset="0"
         id="stop13" /><stop
         style="stop-color:#51a351;stop-opacity:1;"
         offset="1"
         id="stop14" /></linearGradient><inkscape:path-effect
       effect="powerstroke"
       message=""
       id="path-effect4"
       is_visible="true"
       lpeversion="1.3"
       scale_width="1"
       interpolator_type="CentripetalCatmullRom"
       interpolator_beta="0.75"
       start_linecap_type="round"
       end_linecap_type="round"
       offset_points="10.839744,0.43679433"
       linejoin_type="spiro"
       miter_limit="4"
       not_jump="true"
       sort_points="true" /><inkscape:path-effect
       effect="simplify"
       id="path-effect3"
       is_visible="true"
       lpeversion="1.3"
       threshold="0.012"
       steps="1"
       smooth_angles="0"
       helper_size="0"
       simplify_individual_paths="false"
       simplify_just_coalesce="false"
       step="1" /><linearGradient
       inkscape:collect="always"
       xlink:href="#linearGradient13"
       id="linearGradient14"
       x1="6.12362"
       y1="16.681654"
       x2="26.722704"
       y2="16.681654"
       gradientUnits="userSpaceOnUse"
       gradientTransform="matrix(1.161292,0,0,1.2772027,7.586893,-15.899273)" /><linearGradient
       inkscape:collect="always"
       xlink:href="#linearGradient13"
       id="linearGradient15"
       gradientUnits="userSpaceOnUse"
       x1="6.12362"
       y1="16.681654"
       x2="26.722704"
       y2="16.681654"
       gradientTransform="matrix(1.161292,0,0,-1.2772027,7.5868915,25.379768)" /><inkscape:path-effect
       effect="fillet_chamfer"
       id="path-effect5-4"
       is_visible="true"
       lpeversion="1"
       nodesatellites_param="F,0,0,1,0,0,0,1 @ F,0,0,1,0,2.0496102,0,1 @ F,0,0,1,0,0,0,1"
       radius="0"
       unit="px"
       method="auto"
       mode="F"
       chamfer_steps="1"
       flexible="false"
       use_knot_distance="true"
       apply_no_radius="true"
       apply_with_radius="true"
       only_selected="false"
       hide_knots="false" /><inkscape:path-effect
       effect="fillet_chamfer"
       id="path-effect5-4-5"
       is_visible="true"
       lpeversion="1"
       nodesatellites_param="F,0,0,1,0,0,0,1 @ F,0,0,1,0,2.0496102,0,1 @ F,0,0,1,0,0,0,1"
       radius="0"
       unit="px"
       method="auto"
       mode="F"
       chamfer_steps="1"
       flexible="false"
       use_knot_distance="true"
       apply_no_radius="true"
       apply_with_radius="true"
       only_selected="false"
       hide_knots="false" /><linearGradient
       inkscape:collect="always"
       xlink:href="#linearGradient20"
       id="linearGradient21"
       x1="-61.742193"
       y1="65.264848"
       x2="-43.384236"
       y2="65.264848"
       gradientUnits="userSpaceOnUse"
       gradientTransform="matrix(0.36732307,0,0,0.32815537,63.559728,25.728434)" /><linearGradient
       inkscape:collect="always"
       xlink:href="#linearGradient22"
       id="linearGradient23"
       x1="-106.21356"
       y1="60.284088"
       x2="-48.213936"
       y2="31.995781"
       gradientUnits="userSpaceOnUse"
       gradientTransform="matrix(0.36732307,0,0,0.32815537,63.559728,25.728434)" /><linearGradient
       inkscape:collect="always"
       xlink:href="#linearGradient25"
       id="linearGradient26"
       x1="-119.479"
       y1="11.999986"
       x2="-48.120996"
       y2="11.999986"
       gradientUnits="userSpaceOnUse"
       gradientTransform="matrix(0.36732307,0,0,0.32815537,63.559728,25.728434)" /><linearGradient
       inkscape:collect="always"
       xlink:href="#linearGradient32"
       id="linearGradient33"
       x1="-119.36857"
       y1="-50.200275"
       x2="-198.64563"
       y2="37.845825"
       gradientUnits="userSpaceOnUse"
       gradientTransform="matrix(0.34597271,0,0,0.3090816,61.001964,25.50492)" /></defs><g
     inkscape:label="Ebene 1"
     inkscape:groupmode="layer"
     id="layer1"
     transform="translate(-0.20000279)"><path
       id="path5"
       style="fill:#c6f4ce;fill-opacity:0;stroke:#213222;stroke-width:1.4;stroke-linecap:round;stroke-linejoin:round"
       d="m 46.199999,45.000004 a 4.2418885,5 0 0 1 -4.241888,5 4.2418885,5 0 0 1 -4.241889,-5 4.2418885,5 0 0 1 4.241889,-5 4.2418885,5 0 0 1 4.241888,5 z" /><rect
       style="fill:#7ad97e;fill-opacity:1;stroke:#212532;stroke-width:1.29973;stroke-linejoin:round;stroke-miterlimit:8.2;stroke-dasharray:none;stroke-opacity:0.995995"
       id="rect1"
       width="51.616936"
       height="51.616943"
       x="0.84986776"
       y="0.96118188"
       ry="5.9818354"
       rx="19.15794" /><rect
       style="fill:#c6f4ce;fill-opacity:1;stroke:#212532;stroke-width:0.689558;stroke-linejoin:round;stroke-miterlimit:8.2;stroke-dasharray:none;stroke-opacity:0.995995"
       id="rect1-8"
       width="45.94006"
       height="45.940067"
       x="3.6883085"
       y="3.7996202"
       ry="5.3239479"
       rx="17.050934" /><path
       d="m 31.768804,1.646733 c 3.497013,0.1186272 6.234585,3.9145352 6.234585,3.9145352 l -1.264438,-0.00996 c 0,0 -2.427355,-2.2412109 -4.916736,-2.3047646 -2.157002,-0.05506 -3.895059,1.6391875 -4.363635,2.1174042 L 27.190688,5.6714373 C 20.816299,13.667645 15.28907,5.457585 15.28907,5.457585 l 1.264441,0.00996 c 0,0 2.426755,2.2412111 4.916136,2.3047646 2.295402,0.058598 4.000244,-1.6336916 4.298454,-1.9500407 l 0.519671,-0.5771306 c 1.964514,-3.029959 3.649264,-3.6605458 5.481032,-3.5984073 z"
       style="fill:url(#linearGradient14);fill-opacity:1;stroke:#212532;stroke-width:0.621112;stroke-opacity:0.995995"
       id="path9-3"
       sodipodi:nodetypes="scccccccsccs" /><path
       d="m 31.768804,7.8337617 c 3.497013,-0.1186273 6.234585,-3.9145353 6.234585,-3.9145353 l -1.264438,0.00996 c 0,0 -2.427355,2.2412109 -4.916736,2.3047646 C 29.665213,6.289011 27.927156,4.5947635 27.45858,4.1165469 L 27.190688,3.8090574 C 20.816299,-4.1871501 15.28907,4.0229096 15.28907,4.0229096 l 1.264441,-0.00996 c 0,0 2.426755,-2.2412111 4.916136,-2.3047646 2.295402,-0.058598 4.000244,1.6336916 4.298454,1.9500407 l 0.519671,0.5771308 c 1.964514,3.0299589 3.649264,3.6605458 5.481032,3.5984072 z"
       style="fill:url(#linearGradient15);fill-opacity:1;stroke:#212532;stroke-width:0.621112;stroke-opacity:0.995995"
       id="path9-3-3"
       sodipodi:nodetypes="scccccccsccs" /><path
       d="m 31.769095,1.6465068 c -1.511737,-0.051279 -2.839989,0.2515361 -4.39136,2.103259 0.372094,0.186446 0.609798,0.5761205 0.853687,0.9096991 0.809839,-0.654021 2.100755,-1.4511295 3.591084,-1.413088 2.489381,0.063554 4.916736,2.3047645 4.916736,2.3047645 l 1.264442,0.00996 c 0,0 -2.737577,-3.7959088 -6.234589,-3.9145354 z"
       style="fill:#63b166;fill-opacity:1;stroke:#212532;stroke-width:0.621112;stroke-opacity:0.995995"
       id="path18"
       sodipodi:nodetypes="cccccccc" /><path
       id="rect18"
       style="fill:#3e6f40;fill-opacity:1;stroke:#212532;stroke-width:0.37754;stroke-opacity:0.995995"
       d="M 18.91538,2.4362141 20.031319,2.0085095 20.098952,7.5314708 18.91538,7.0479794 Z"
       sodipodi:nodetypes="ccccc" /><path
       id="rect18-0"
       style="fill:#63b166;stroke:#212532;stroke-width:0.37754;stroke-opacity:0.995995"
       d="m 21.487254,1.744674 1.115941,0.1301691 v 5.7368125 l -1.115941,0.1115776 z"
       sodipodi:nodetypes="ccccc" /><path
       id="rect18-2"
       style="fill:#3e6f40;fill-opacity:1;stroke:#212532;stroke-width:0.398684;stroke-opacity:0.995995"
       d="m 23.988275,2.3066227 1.178438,0.7854924 v 3.3088897 l -1.178438,0.7756746 z"
       sodipodi:nodetypes="ccccc" /><path
       id="rect18-5"
       style="fill:#3e6f40;fill-opacity:1;stroke:#212532;stroke-width:0.37754;stroke-opacity:0.995995"
       d="M 30.183717,3.5319134 31.299656,3.318061 V 6.3119901 L 30.183717,6.0144569 Z"
       sodipodi:nodetypes="ccccc" /><path
       id="rect18-20"
       style="fill:#63b166;stroke:#212532;stroke-width:0.37754;stroke-opacity:0.995995"
       d="m 33.020778,3.4418846 1.115941,0.3998105 v 1.7851984 l -1.115941,0.4091084 z"
       sodipodi:nodetypes="ccccc" /><path
       style="fill:#3e6f40;fill-opacity:1;stroke:none;stroke-width:1.17165;stroke-dasharray:none;stroke-opacity:0.995995"
       d="M 50.489298,39.566 45.619213,51.204677"
       id="path24" /><path
       d="m 3.688162,19.416386 9.225793,6.445085 11.797213,9.622668 1.196826,-7.026445 0.342098,-4.480346 -15.55874,-7.942151 -7.00319,-2.894914 z"
       style="opacity:1;fill:url(#linearGradient33);stroke:#303b32;stroke-width:0.444076;stroke-linecap:round;stroke-linejoin:round"
       id="path35" /><path
       style="opacity:1;fill:#8fc292;fill-opacity:1;stroke:#303b32;stroke-width:0.47148;stroke-linecap:round;stroke-linejoin:round;stroke-dasharray:none;stroke-dashoffset:0;stroke-opacity:1"
       d="m 23.594977,27.697367 c 0.685936,-0.321075 1.439554,-0.545495 2.203938,-0.656311 1.329461,-0.192737 2.698293,-0.09924 4.040555,0 0.742242,0.05488 1.495666,0.122395 2.203938,0.328154 1.822563,0.529472 3.555528,1.337208 5.142523,2.297089 2.441781,1.476887 4.933057,3.084728 6.611815,5.250486 0.970901,1.252553 1.644927,2.752115 1.836616,4.26602 0.09731,0.768567 0.187429,1.703253 -0.367323,2.297086 -0.99237,1.06228 -2.879105,1.09099 -4.407875,1.312621 -2.296341,0.33291 -4.662161,0.186644 -6.979141,0 -2.726801,-0.219658 -5.72227,-0.07093 -8.081108,-1.312621 -1.499298,-0.789226 -2.313419,-2.332687 -3.305908,-3.60971 -0.970126,-1.248249 -2.253832,-2.444931 -2.571261,-3.937863 -0.300532,-1.413464 -0.0933,-3.031982 0.734647,-4.266019 0.629485,-0.938222 1.854025,-1.461269 2.938584,-1.968932 z"
       id="path12"
       sodipodi:nodetypes="aaaaaaaaaaaaaaa" /><ellipse
       style="opacity:1;fill:#62c256;fill-opacity:1;stroke:#303b32;stroke-width:0.493518;stroke-linecap:round;stroke-linejoin:round;stroke-dasharray:none;stroke-dashoffset:0;stroke-opacity:1"
       id="path13"
       cx="15.895447"
       cy="36.818764"
       rx="1.4692906"
       ry="2.6966028"
       transform="matrix(1,0,0.40865002,0.91269116,0,0)" /><ellipse
       style="fill:#62c256;fill-opacity:1;stroke:#303b32;stroke-width:0.503351;stroke-linecap:round;stroke-linejoin:round;stroke-dasharray:none;stroke-dashoffset:0;stroke-opacity:1"
       id="path13-1"
       cx="4.7477703"
       cy="46.537472"
       rx="1.3043636"
       ry="3.1597826"
       transform="matrix(1,0,0.72240337,0.69147189,0,0)" /><path
       d="m 46.732563,47.392456 c 0.118681,-1.238383 0.05415,-3.048573 0.0036,-4.271574 -0.06835,-1.654171 -0.235675,-3.32847 -0.734322,-4.922697 -0.575474,-1.839849 -2.571419,-5.250325 -2.571419,-5.250325 l -3.305741,5.250325 -16.529741,-2.297017 0.36742,3.937744 c 0,0 4.607667,3.885884 7.346321,5.250842 1.589575,0.792251 3.393935,1.190016 5.142839,1.640727 1.970822,0.507904 4.989366,1.304372 7.186641,1.743563 1.182129,-0.314112 2.224744,-0.678245 3.094385,-1.081588 z"
       style="opacity:1;fill:url(#linearGradient23);stroke:#303b32;stroke-width:0.47148;stroke-linecap:round;stroke-linejoin:round"
       id="path39" /><path
       style="opacity:1;fill:#556456;fill-opacity:0;stroke:#303b32;stroke-width:0.47148;stroke-linecap:round;stroke-linejoin:round;stroke-dasharray:none;stroke-dashoffset:0;stroke-opacity:1"
       d="m 27.268208,38.854648 5.877169,4.922331 9.5504,2.625243"
       id="path15"
       sodipodi:nodetypes="ccc" /><path
       style="opacity:1;fill:#556456;fill-opacity:0;stroke:#303b32;stroke-width:0.47148;stroke-linecap:round;stroke-linejoin:round;stroke-dasharray:none;stroke-dashoffset:0;stroke-opacity:1"
       d="m 33.512701,39.182805 3.305907,3.281552 6.541534,3.150278"
       id="path16"
       sodipodi:nodetypes="ccc" /><path
       style="opacity:1;fill:#556456;fill-opacity:0;stroke:#303b32;stroke-width:0.47148;stroke-linecap:round;stroke-linejoin:round;stroke-dasharray:none;stroke-dashoffset:0;stroke-opacity:1"
       d="m 41.961132,37.542027 1.469291,3.281554 0.734647,4.26602"
       id="path17"
       sodipodi:nodetypes="ccc" /><path
       style="opacity:1;fill:#556456;fill-opacity:0;stroke:#303b32;stroke-width:0.47148;stroke-linecap:round;stroke-linejoin:round;stroke-dasharray:none;stroke-dashoffset:0;stroke-opacity:1"
       d="m 43.063101,34.916785 2.203938,5.906796 V 45.0896"
       id="path19" /><path
       d="m 47.374384,47.070512 v -1.804024 c 0,0 -2.415061,-0.397668 -3.489709,0 -0.47993,0.177598 -0.761383,0.633843 -1.101742,0.984436 -0.601676,0.619766 -1.653129,1.968872 -1.653129,1.968872 l 1.787488,0.435632 c 1.803389,-0.428721 3.322592,-0.967707 4.457092,-1.584916 z"
       style="opacity:1;fill:url(#linearGradient21);stroke:#303b32;stroke-width:0.47148;stroke-linecap:round;stroke-linejoin:round"
       id="path37" /><path
       style="opacity:1;fill:url(#linearGradient26);fill-opacity:1;stroke:#303b32;stroke-width:0.47148;stroke-linecap:round;stroke-linejoin:round;stroke-dasharray:none;stroke-dashoffset:0;stroke-opacity:1"
       d="m 23.9623,35.90125 8.448431,-6.234951 H 44.16507 l 0.734645,0.328154 0.734647,-0.984465 -1.10197,-3.60971 -11.754338,-3.281553 -8.448431,2.625242 -4.407877,3.937865 0.734647,8.53204 z"
       id="path23"
       sodipodi:nodetypes="ccccccccccc" /><path
       style="opacity:1;fill:#586c58;fill-opacity:1;stroke:#303b32;stroke-width:0.47148;stroke-linecap:round;stroke-linejoin:round;stroke-dasharray:none;stroke-dashoffset:0;stroke-opacity:1"
       d="m 43.430423,32.947852 1.155701,-1.047874 -3.006412,-1.452922 z"
       id="path28"
       sodipodi:nodetypes="cccc" /><path
       d="m 36.341755,22.963417 -4.008175,0.328136 -2.809312,1.31254 -2.377349,1.968983 -2.37735,1.968981 -1.481142,3.609657 0.928733,1.968983 3.164841,2.296947 4.019928,-3.937794 3.41461,-2.625253 3.208932,-0.984404 1.901335,0.656271 4.634062,2.297116 1.248003,-3.022821 -1.124215,-3.367319 -2.033768,-1.813752 -2.603615,-0.328135 z m 2.247953,0.463629 c 0.04637,1.6e-5 0.09775,0.0084 0.152892,0.02594 0.294119,0.0934 0.585331,0.411164 0.652916,0.712402 l 0.9759,4.349869 c 0.06759,0.301237 -0.114803,0.468675 -0.408921,0.375279 -0.294119,-0.0934 -0.58533,-0.411166 -0.652917,-0.712402 L 38.333663,23.8281 c -0.05492,-0.244755 0.05507,-0.401124 0.256045,-0.401055 z m -3.877318,0.226728 c 0.316482,0.0079 0.659481,0.20993 0.791208,0.474481 l 2.029084,4.074983 c 0.140509,0.282187 -0.01431,0.525468 -0.34699,0.545366 l -0.121352,0.0071 c -0.332676,0.0199 -0.713605,-0.191107 -0.854111,-0.473295 L 34.181143,24.20744 c -0.140508,-0.282188 0.01412,-0.525467 0.346801,-0.545367 l 0.121542,-0.0071 c 0.0208,-0.0013 0.04181,-0.0017 0.0629,-0.0012 z m 6.534184,0.457014 c 0.04878,-0.0029 0.1034,0.0031 0.16277,0.01832 0.316622,0.0814 0.647388,0.401597 0.741734,0.717997 l 1.362504,4.568965 c 0.09435,0.3164 -0.08465,0.505523 -0.401266,0.424117 -0.316621,-0.0814 -0.647385,-0.401598 -0.741732,-0.717997 l -1.362503,-4.568966 c -0.07665,-0.257075 0.02705,-0.430223 0.238493,-0.442432 z m -10.687969,0.686117 c 0.29682,-0.0152 0.656462,0.120501 0.856997,0.334919 l 3.309543,3.538603 c 0.229181,0.24505 0.161233,0.497371 -0.152319,0.565716 -0.313552,0.06834 -0.750576,-0.07394 -0.979758,-0.318978 l -3.309354,-3.538604 c -0.22918,-0.245049 -0.161405,-0.4972 0.152146,-0.565547 0.0392,-0.0086 0.08034,-0.01394 0.122745,-0.01611 z m -2.627349,1.722244 c 0.295097,-0.0152 0.670159,0.120501 0.894959,0.334918 l 3.709874,3.538605 c 0.256914,0.245049 0.217466,0.497371 -0.08836,0.565715 -0.305816,0.06834 -0.758719,-0.07394 -1.015631,-0.318977 l -3.710065,-3.538606 c -0.256914,-0.245048 -0.217466,-0.497369 0.08836,-0.565714 0.03823,-0.0086 0.0787,-0.01377 0.120863,-0.01594 z m -2.512428,2.461099 c 0.295092,-0.0152 0.669982,0.120671 0.894779,0.335089 l 3.710065,3.538605 c 0.256915,0.245048 0.21745,0.497199 -0.08837,0.565546 -0.305817,0.06834 -0.758892,-0.07376 -1.015807,-0.318809 l -3.709873,-3.538604 c -0.256912,-0.24505 -0.217657,-0.497371 0.08817,-0.565715 0.03823,-0.0085 0.07887,-0.01394 0.121037,-0.01611 z"
       style="opacity:1;fill:#667c66;stroke:#303b32;stroke-width:0.47148;stroke-linecap:round;stroke-linejoin:round"
       id="path29"
       sodipodi:nodetypes="ccccccccccccccccccssccsccssccccccccssssccsccssccsccsssccsccsssccsccsss" /><path
       style="opacity:1;fill:#586c58;fill-opacity:1;stroke:#303b32;stroke-width:0.47148;stroke-linecap:round;stroke-linejoin:round;stroke-dasharray:none;stroke-dashoffset:0;stroke-opacity:1"
       d="m 24.329623,33.604163 -1.101969,3.281553 4.407877,0.656311 -2.571262,-1.640777 z"
       id="path27" /><path
       style="opacity:1;fill:#586c58;fill-opacity:1;stroke:#303b32;stroke-width:0.345257;stroke-linecap:round;stroke-linejoin:round;stroke-dasharray:none;stroke-dashoffset:0;stroke-opacity:1"
       d="M 31.536383,34.717072 30.805291,32.935793"
       id="path30"
       sodipodi:nodetypes="cc" /><path
       style="opacity:1;fill:#586c58;fill-opacity:1;stroke:#303b32;stroke-width:0.374223;stroke-linecap:round;stroke-linejoin:round;stroke-dasharray:none;stroke-dashoffset:0;stroke-opacity:1"
       d="M 39.108749,32.93391 38.028164,32.054359 37.127676,31.206985"
       id="path31"
       sodipodi:nodetypes="ccc" /><path
       style="opacity:1;fill:#7caf7e;fill-opacity:0;stroke:#27312a;stroke-width:1.358;stroke-linecap:round;stroke-linejoin:round;stroke-dasharray:none;stroke-dashoffset:0;stroke-opacity:1"
       d="M 39.04558,21.024367 C 34.50625,18.13175 29.485328,15.996871 24.25281,14.734529 20.12967,13.739824 15.812779,13.260342 12.022569,11.356653 11.039192,10.862738 10.101972,10.276975 9.2270857,9.6094753"
       id="path40"
       inkscape:path-effect="#path-effect40"
       inkscape:original-d="M 39.04558,21.024367 C 34.192309,18.96658 29.222558,16.850555 24.25281,14.734529 19.283062,12.618503 16.079903,12.463198 12.022569,11.356653 7.9652354,10.250107 10.178327,10.211281 9.2270857,9.6094753"
       transform="matrix(-0.76995993,-0.01024855,0.01024855,-0.76995993,35.958645,54.402774)" /><path
       style="opacity:1;fill:#7caf7e;fill-opacity:0;stroke:#27312a;stroke-width:1.158;stroke-linecap:round;stroke-linejoin:round;stroke-dasharray:none;stroke-dashoffset:0;stroke-opacity:1"
       d="M 16.681709,38.554379 C 15.708825,36.712576 14.274598,35.116746 12.546723,33.953479 11.042556,32.94082 9.3101124,32.241144 8.0040614,30.983277 7.6056694,30.599583 7.2529618,30.168496 6.955755,29.702014"
       id="path41"
       inkscape:path-effect="#path-effect41"
       inkscape:original-d="M 16.681709,38.554379 C 15.322793,37.040158 13.905638,35.4677 12.546723,33.953479 11.187807,32.439258 9.5571079,32.01217 8.0040614,30.983277 6.4510149,29.954384 7.2857775,30.109689 6.955755,29.702014"
       transform="rotate(176.23466,22.259437,26.606043)" /><path
       style="opacity:1;fill:#7caf7e;fill-opacity:0;stroke:#27312a;stroke-width:0.658;stroke-linecap:round;stroke-linejoin:round;stroke-dasharray:none;stroke-dashoffset:0;stroke-opacity:1"
       d="M 25.359356,19.859582 C 24.108391,19.586097 22.892079,19.154502 21.748523,18.578319 20.731797,18.066039 19.772622,17.43964 18.8948,16.714663"
       id="path42"
       inkscape:path-effect="#path-effect42"
       inkscape:original-d="M 25.359356,19.859582 C 24.155745,19.451907 22.952134,18.985993 21.748523,18.578319 20.544912,18.170644 19.846041,17.355295 18.8948,16.714663"
       transform="rotate(176.23466,22.909492,28.114116)" /><path
       style="opacity:1;fill:#7caf7e;fill-opacity:0;stroke:#27312a;stroke-width:0.55799989;stroke-linecap:round;stroke-linejoin:round;stroke-dasharray:none;stroke-dashoffset:0;stroke-opacity:1"
       d="M 12.022569,30.167929 C 11.536478,28.517037 10.55016,27.017011 9.2270857,25.916463 8.3034302,25.148156 7.2327018,24.578957 6.2568841,23.87809 5.3507901,23.227301 4.526868,22.46223 3.8108358,21.606759"
       id="path43"
       inkscape:path-effect="#path-effect43"
       inkscape:original-d="M 12.022569,30.167929 C 11.090741,28.770185 10.158914,27.314205 9.2270857,25.916463 8.2952576,24.518722 7.2275382,24.538135 6.2568841,23.87809 5.28623,23.218045 4.6455983,22.402696 3.8108358,21.606759"
       transform="rotate(176.23466,15.825256,22.14838)" /><path
       style="opacity:1;fill:#7caf7e;fill-opacity:0;stroke:#27312a;stroke-width:0.958;stroke-linecap:round;stroke-linejoin:round;stroke-dasharray:none;stroke-dashoffset:0;stroke-opacity:1"
       d="m 15.130882,34.570148 c 2.796874,1.587648 5.309155,3.674956 7.382376,6.133591 1.867986,2.215247 3.397031,4.742994 5.583342,6.644766 0.68388,0.594876 1.426318,1.122398 2.213092,1.572461"
       id="path44"
       inkscape:path-effect="#path-effect44"
       inkscape:original-d="m 15.130882,34.570148 c 5.141903,0.879942 2.4844,5.036369 7.382376,6.133591 2.077323,0.465353 3.642035,5.945895 5.583342,6.644766 1.941309,0.69887 1.514221,1.048308 2.213092,1.572461"
       transform="rotate(176.23466,22.909492,28.114116)"
       sodipodi:nodetypes="cssc" /><path
       style="opacity:1;fill:#7caf7e;fill-opacity:0;stroke:#27312a;stroke-width:1.358;stroke-linecap:round;stroke-linejoin:round;stroke-dasharray:none;stroke-dashoffset:0;stroke-opacity:1"
       d="m 47.140832,21.024367 c -1.095173,-0.104616 -2.169527,-0.422944 -3.144917,-0.931828 -1.396658,-0.72867 -2.56061,-1.823994 -3.728963,-2.880671 -1.168353,-1.056677 -2.387512,-2.105585 -3.842139,-2.710296 -1.969999,-0.81896 -4.177447,-0.749324 -6.289839,-1.048307 -0.54822,-0.07759 -1.092825,-0.180728 -1.631456,-0.308956"
       id="path45"
       inkscape:path-effect="#path-effect45"
       inkscape:original-d="M 47.140832,21.024367 C 36.424813,14.501572 46.539027,21.975608 43.995915,20.092539 41.452801,18.20947 38.948514,16.365228 36.424813,14.501572 33.901112,12.637916 32.192761,13.783288 30.134974,13.453265 28.077188,13.123243 28.930605,13.066656 28.503518,13.144309"
       transform="matrix(-0.92047032,0.06057826,-0.06057826,-0.92047032,48.568985,57.598425)"
       sodipodi:nodetypes="csssc" /><path
       style="opacity:1;fill:#7caf7e;fill-opacity:0;stroke:#27312a;stroke-width:0.758;stroke-linecap:round;stroke-linejoin:round;stroke-dasharray:none;stroke-dashoffset:0;stroke-opacity:1"
       d="m 27.348304,9.6916808 c 0,0 3.036114,3.1281382 4.784533,4.4127052 0.84611,0.621638 2.729845,1.571298 2.729845,1.571298 m -6.335756,-3.985543"
       id="path46"
       sodipodi:nodetypes="cac" /><path
       style="fill:#7caf7e;fill-opacity:0;stroke:#27312a;stroke-width:0.758;stroke-linecap:round;stroke-linejoin:round;stroke-dasharray:none;stroke-dashoffset:0;stroke-opacity:1"
       d="m 11.881241,36.985068 c 0,0 3.733847,2.249804 5.752181,3.045674 0.976731,0.385144 3.040439,0.822659 3.040439,0.822659 m -7.143043,-2.236806"
       id="path46-8"
       sodipodi:nodetypes="cac" /><path
       style="fill:#7caf7e;fill-opacity:0;stroke:#27312a;stroke-width:0.558;stroke-linecap:round;stroke-linejoin:round;stroke-dasharray:none;stroke-dashoffset:0;stroke-opacity:1"
       d="m 18.63204,32.557751 c 0,0 -3.733847,-2.249804 -5.752181,-3.045674 -0.976731,-0.385144 -3.0404393,-0.822659 -3.0404393,-0.822659 m 7.1430433,2.236806"
       id="path46-8-0"
       sodipodi:nodetypes="cac" /><path
       style="fill:#7caf7e;fill-opacity:0;stroke:#27312a;stroke-width:0.758;stroke-linecap:round;stroke-linejoin:round;stroke-dasharray:none;stroke-dashoffset:0;stroke-opacity:1"
       d="m 29.788495,45.326029 c 0,0 3.787764,2.157795 5.824963,2.904054 0.985858,0.361136 3.059651,0.748042 3.059651,0.748042 M 31.477488,46.91672"
       id="path46-86"
       sodipodi:nodetypes="cac" /></g></svg>
