<?xml version="1.0" encoding="UTF-8" standalone="no"?>
<!-- Created with Inkscape (http://www.inkscape.org/) -->

<svg
   width="130"
   height="130"
   viewBox="0 0 34.395833 34.395833"
   version="1.1"
   id="svg1"
   inkscape:version="1.4.2 (f4327f4, 2025-05-13)"
   sodipodi:docname="TailCut.svg"
   xmlns:inkscape="http://www.inkscape.org/namespaces/inkscape"
   xmlns:sodipodi="http://sodipodi.sourceforge.net/DTD/sodipodi-0.dtd"
   xmlns:xlink="http://www.w3.org/1999/xlink"
   xmlns="http://www.w3.org/2000/svg"
   xmlns:svg="http://www.w3.org/2000/svg">
  <sodipodi:namedview
     id="namedview1"
     pagecolor="#ffffff"
     bordercolor="#000000"
     borderopacity="0.25"
     inkscape:showpageshadow="2"
     inkscape:pageopacity="0.0"
     inkscape:pagecheckerboard="0"
     inkscape:deskcolor="#d1d1d1"
     inkscape:document-units="mm"
     inkscape:zoom="1.6062079"
     inkscape:cx="99.613506"
     inkscape:cy="245.60955"
     inkscape:window-width="2880"
     inkscape:window-height="1514"
     inkscape:window-x="5749"
     inkscape:window-y="1600"
     inkscape:window-maximized="1"
     inkscape:current-layer="layer1" />
  <defs
     id="defs1">
    <inkscape:path-effect
       effect="fillet_chamfer"
       id="path-effect28"
       is_visible="true"
       lpeversion="1"
       nodesatellites_param="F,0,0,1,0,0,0,1 @ F,0,0,1,0,0,0,1 @ F,0,0,1,0,0,0,1 @ F,0,0,1,0,0,0,1 @ F,0,0,1,0,0,0,1 @ F,0,0,1,0,0,0,1 @ F,0,0,1,0,0,0,1 @ F,0,0,1,0,0,0,1 @ F,0,0,1,0,0,0,1 @ F,0,0,1,0,0,0,1 @ F,0,0,1,0,0,0,1 @ F,0,0,1,0,0,0,1 | F,0,0,1,0,0,0,1 @ F,0,0,1,0,0,0,1 @ F,0,0,1,0,0,0,1 @ F,0,0,1,0,0,0,1 @ F,0,0,1,0,0,0,1 @ F,0,0,1,0,0,0,1 @ F,0,0,1,0,0,0,1 @ F,0,0,1,0,0,0,1 @ F,0,0,1,0,0,0,1 @ F,0,0,1,0,0,0,1 @ F,0,0,1,0,0,0,1"
       radius="0"
       unit="px"
       method="auto"
       mode="F"
       chamfer_steps="1"
       flexible="false"
       use_knot_distance="true"
       apply_no_radius="true"
       apply_with_radius="true"
       only_selected="false"
       hide_knots="false" />
    <linearGradient
       id="linearGradient13"
       inkscape:collect="always">
      <stop
         style="stop-color:#94f0b4;stop-opacity:1;"
         offset="0"
         id="stop13" />
      <stop
         style="stop-color:#51a351;stop-opacity:1;"
         offset="1"
         id="stop14" />
    </linearGradient>
    <inkscape:path-effect
       effect="powerstroke"
       message=""
       id="path-effect4"
       is_visible="true"
       lpeversion="1.3"
       scale_width="1"
       interpolator_type="CentripetalCatmullRom"
       interpolator_beta="0.75"
       start_linecap_type="round"
       end_linecap_type="round"
       offset_points="10.839744,0.43679433"
       linejoin_type="spiro"
       miter_limit="4"
       not_jump="true"
       sort_points="true" />
    <inkscape:path-effect
       effect="simplify"
       id="path-effect3"
       is_visible="true"
       lpeversion="1.3"
       threshold="0.012"
       steps="1"
       smooth_angles="0"
       helper_size="0"
       simplify_individual_paths="false"
       simplify_just_coalesce="false"
       step="1" />
    <linearGradient
       inkscape:collect="always"
       xlink:href="#linearGradient13"
       id="linearGradient14"
       x1="6.1236198"
       y1="16.681654"
       x2="26.722703"
       y2="16.681654"
       gradientUnits="userSpaceOnUse"
       gradientTransform="matrix(0.74606137,0,0,0.82052713,4.9456425,-10.214342)" />
    <linearGradient
       inkscape:collect="always"
       xlink:href="#linearGradient13"
       id="linearGradient15"
       gradientUnits="userSpaceOnUse"
       x1="6.1236198"
       y1="16.681654"
       x2="26.722703"
       y2="16.681654"
       gradientTransform="matrix(0.74606137,0,0,-0.82052713,4.9456415,16.304999)" />
  </defs>
  <g
     inkscape:label="Ebene 1"
     inkscape:groupmode="layer"
     id="layer1">
    <rect
       style="fill:#7ad97e;stroke:#212532;stroke-width:0.835;stroke-linejoin:round;stroke-miterlimit:8.2;stroke-opacity:0.995995;stroke-dasharray:none;fill-opacity:1"
       id="rect1"
       width="33.160828"
       height="33.160831"
       x="0.61750245"
       y="0.61750251"
       ry="3.8429754"
       rx="12.307843" />
    <rect
       style="fill:#c6f4ce;stroke:#212532;stroke-width:0.443;stroke-linejoin:round;stroke-miterlimit:8.2;stroke-dasharray:none;stroke-opacity:0.995995;fill-opacity:1"
       id="rect1-8"
       width="29.513771"
       height="29.513775"
       x="2.4410326"
       y="2.4410312"
       ry="3.4203215"
       rx="10.954216" />
    <path
       d="m 20.48109,1.0579285 c 2.246624,0.076211 4.005352,2.5148573 4.005352,2.5148573 l -0.812327,-0.0064 c 0,0 -1.559432,-1.4398454 -3.158712,-1.4806749 -1.385746,-0.035373 -2.502345,1.053081 -2.803377,1.3603069 L 17.539921,3.6435629 C 13.444753,8.7806532 9.8938355,3.5061755 9.8938355,3.5061755 l 0.8123285,0.0064 c 0,0 1.559047,1.4398455 3.158327,1.4806749 1.47466,0.037646 2.56992,-1.0495502 2.761502,-1.2527858 L 16.959851,3.3696923 C 18.221935,1.4231229 19.304287,1.0180082 20.48109,1.0579285 Z"
       style="fill:url(#linearGradient14);fill-opacity:1;stroke:#212532;stroke-width:0.399028;stroke-opacity:0.995995"
       id="path9-3"
       sodipodi:nodetypes="scccccccsccs" />
    <path
       d="m 20.48109,5.0327284 c 2.246624,-0.076211 4.005352,-2.5148573 4.005352,-2.5148573 l -0.812327,0.0064 c 0,0 -1.559432,1.4398454 -3.158712,1.4806749 C 19.129657,4.040319 18.013058,2.951865 17.712026,2.6446391 L 17.539921,2.447094 C 13.444753,-2.6899962 9.8938355,2.5844814 9.8938355,2.5844814 l 0.8123285,-0.0064 c 0,0 1.559047,-1.4398455 3.158327,-1.4806749 1.47466,-0.037646 2.56992,1.0495502 2.761502,1.2527858 l 0.333858,0.3707724 c 1.262084,1.9465693 2.344436,2.3516841 3.521239,2.3117637 z"
       style="fill:url(#linearGradient15);fill-opacity:1;stroke:#212532;stroke-width:0.399028;stroke-opacity:0.995995"
       id="path9-3-3"
       sodipodi:nodetypes="scccccccsccs" />
    <path
       d="m 20.481277,1.0577832 c -0.971202,-0.032944 -1.824525,0.1615971 -2.821189,1.3512195 0.239048,0.1197805 0.391759,0.3701233 0.548443,0.5844278 0.520274,-0.4201698 1.349611,-0.9322648 2.307059,-0.9078254 1.59928,0.04083 3.158712,1.4806748 3.158712,1.4806748 l 0.812329,0.0064 c 0,0 -1.758731,-2.4386468 -4.005354,-2.5148574 z"
       style="fill:#63b166;fill-opacity:1;stroke:#212532;stroke-width:0.399028;stroke-opacity:0.995995"
       id="path18"
       sodipodi:nodetypes="cccccccc" />
    <path
       id="rect18"
       style="fill:#3e6f40;fill-opacity:1;stroke:#212532;stroke-width:0.242547;stroke-opacity:0.995995"
       d="M 12.223525,1.5651234 12.94045,1.2903485 12.9839,4.8385244 12.223525,4.5279098 Z"
       sodipodi:nodetypes="ccccc" />
    <path
       id="rect18-0"
       style="fill:#63b166;stroke:#212532;stroke-width:0.242547;stroke-opacity:0.995995"
       d="m 13.875802,1.1208498 0.716926,0.083626 v 3.6855626 l -0.716926,0.071682 z"
       sodipodi:nodetypes="ccccc" />
    <path
       id="rect18-2"
       style="fill:#3e6f40;fill-opacity:1;stroke:#212532;stroke-width:0.256131;stroke-opacity:0.995995"
       d="M 15.48256,1.4818686 16.239637,1.986501 V 4.1122669 L 15.48256,4.6105919 Z"
       sodipodi:nodetypes="ccccc" />
    <path
       id="rect18-5"
       style="fill:#3e6f40;fill-opacity:1;stroke:#212532;stroke-width:0.242547;stroke-opacity:0.995995"
       d="M 19.462765,2.2690454 20.17969,2.1316579 V 4.0550802 L 19.462765,3.8639327 Z"
       sodipodi:nodetypes="ccccc" />
    <path
       id="rect18-20"
       style="fill:#63b166;stroke:#212532;stroke-width:0.242547;stroke-opacity:0.995995"
       d="m 21.285409,2.2112072 0.716926,0.2568546 v 1.1468844 l -0.716926,0.2628279 z"
       sodipodi:nodetypes="ccccc" />
    <path
       style="fill:#3e6f40;stroke:none;stroke-width:1.17165354;stroke-opacity:0.99599499;fill-opacity:1;stroke-dasharray:none"
       d="M 50.489298,39.566 45.619213,51.204677"
       id="path24" />
    <path
       d="m 19.272725,8.6775065 v 3.8075195 h 2.803447 c 2.502529,0 4.517554,2.014507 4.517554,4.517037 v 4.229716 c 0,2.50253 -2.015025,4.517554 -4.517554,4.517554 h -4.229716 c -2.50253,0 -4.517037,-2.015024 -4.517037,-4.517554 v -4.229716 c 0,-0.609945 0.119689,-1.190964 0.33693,-1.720825 H 9.5394694 c -0.011683,0.167393 -0.01757,0.336483 -0.01757,0.506946 v 6.657991 c 0,3.939176 3.1715016,7.11016 7.1106766,7.11016 h 6.657992 c 3.939175,0 7.11016,-3.170984 7.11016,-7.11016 v -6.657991 c 0,-3.939176 -3.170985,-7.1106775 -7.11016,-7.1106775 z"
       style="fill:#3e6f40;stroke:#212532;stroke-width:0.402;stroke-opacity:0.995995;stroke-dasharray:none"
       id="path33" />
    <path
       d="m 12.236979,9.7187866 c -0.093,-0.00654 -0.193691,-0.015037 -0.303857,-0.025321 C 11.196871,9.6247318 11.042434,9.9178173 9.7611613,9.1405273 8.6340207,8.4567422 5.3107869,9.9714844 5.3107869,9.9714844 c 0,0 -2.4664273,1.1000456 -2.2133015,2.0804936 0.1673016,0.64802 1.9456176,0.49506 1.9456176,0.49506 l 6.972184,-0.02791 c 0.430185,-0.450013 0.675928,-0.972255 0.675928,-1.530139 0,-0.453476 -0.162456,-0.883481 -0.454236,-1.2702064 z"
       style="fill:#ceff78;stroke:#212532;stroke-width:0.359;stroke-opacity:0.995995;fill-opacity:1;stroke-dasharray:none"
       id="path36" />
    <path
       id="path22"
       style="fill:#3e6f40;stroke:#212532;stroke-width:0.341;stroke-opacity:0.995995;stroke-dasharray:none"
       d="m 16.626706,11.011958 c 0.270817,1.399183 -0.353584,2.908986 -1.955605,3.653452 -1.602021,0.744464 -3.846489,1.800543 -4.8811488,0.756322 C 8.7552931,14.377512 8.8530238,11.443618 9.9617188,10.201269 11.070414,8.9589193 12.982434,8.4598765 14.545721,8.9117425 l -1.331025,3.3065195 z"
       sodipodi:nodetypes="csssccc" />
    <path
       id="rect34"
       style="fill:#3e6f40;stroke:#212532;stroke-width:0.401;stroke-dasharray:none;stroke-opacity:0.995995"
       d="m 19.688401,12.479878 -6.635563,0.0071 1.350766,-3.0488401 c 0,0 1.064893,-0.3807392 1.61473,-0.5070286 0.548717,-0.1260321 1.109314,-0.2055764 1.670728,-0.2478691 0.620889,-0.046773 1.867936,-0.00578 1.867936,-0.00578"
       sodipodi:nodetypes="cccaac" />
    <path
       id="rect35"
       style="fill:#3e6f40;stroke:#212532;stroke-width:0;stroke-opacity:0.995995"
       d="m 9.6303663,14.732633 4.2803827,-0.267679 -0.916285,1.717031 -3.2508489,-0.01801 z"
       sodipodi:nodetypes="ccccc" />
    <path
       style="fill:#70c974;fill-opacity:1;stroke:#212532;stroke-width:0.158;stroke-dasharray:none;stroke-opacity:0.995995"
       id="path35"
       sodipodi:type="arc"
       sodipodi:cx="10.851054"
       sodipodi:cy="11.294253"
       sodipodi:rx="0.59231824"
       sodipodi:ry="0.91457093"
       sodipodi:start="6.2613533"
       sodipodi:end="6.2601406"
       sodipodi:open="true"
       sodipodi:arc-type="arc"
       d="m 11.443231,11.274288 a 0.59231824,0.91457093 0 0 1 -0.579067,0.934312 0.59231824,0.91457093 0 0 1 -0.605279,-0.893827 0.59231824,0.91457093 0 0 1 0.5787,-0.934854 0.59231824,0.91457093 0 0 1 0.60563,0.89326" />
  </g>
</svg>
