<?xml version="1.0" encoding="UTF-8" standalone="no"?>
<!-- Created with Inkscape (http://www.inkscape.org/) -->

<svg
   width="200"
   height="201.17665"
   viewBox="0 0 52.916666 53.227988"
   version="1.1"
   id="svg1"
   inkscape:version="1.4.2 (f4327f4, 2025-05-13)"
   sodipodi:docname="TailCut.svg"
   xmlns:inkscape="http://www.inkscape.org/namespaces/inkscape"
   xmlns:sodipodi="http://sodipodi.sourceforge.net/DTD/sodipodi-0.dtd"
   xmlns:xlink="http://www.w3.org/1999/xlink"
   xmlns="http://www.w3.org/2000/svg"
   xmlns:svg="http://www.w3.org/2000/svg">
  <sodipodi:namedview
     id="namedview1"
     pagecolor="#ffffff"
     bordercolor="#000000"
     borderopacity="0.25"
     inkscape:showpageshadow="2"
     inkscape:pageopacity="0.0"
     inkscape:pagecheckerboard="0"
     inkscape:deskcolor="#d1d1d1"
     inkscape:document-units="mm"
     inkscape:zoom="3.2124158"
     inkscape:cx="-47.627707"
     inkscape:cy="89.185217"
     inkscape:window-width="3840"
     inkscape:window-height="2054"
     inkscape:window-x="-11"
     inkscape:window-y="-11"
     inkscape:window-maximized="1"
     inkscape:current-layer="layer1" />
  <defs
     id="defs1">
    <inkscape:path-effect
       effect="fillet_chamfer"
       id="path-effect28"
       is_visible="true"
       lpeversion="1"
       nodesatellites_param="F,0,0,1,0,0,0,1 @ F,0,0,1,0,0,0,1 @ F,0,0,1,0,0,0,1 @ F,0,0,1,0,0,0,1 @ F,0,0,1,0,0,0,1 @ F,0,0,1,0,0,0,1 @ F,0,0,1,0,0,0,1 @ F,0,0,1,0,0,0,1 @ F,0,0,1,0,0,0,1 @ F,0,0,1,0,0,0,1 @ F,0,0,1,0,0,0,1 @ F,0,0,1,0,0,0,1 | F,0,0,1,0,0,0,1 @ F,0,0,1,0,0,0,1 @ F,0,0,1,0,0,0,1 @ F,0,0,1,0,0,0,1 @ F,0,0,1,0,0,0,1 @ F,0,0,1,0,0,0,1 @ F,0,0,1,0,0,0,1 @ F,0,0,1,0,0,0,1 @ F,0,0,1,0,0,0,1 @ F,0,0,1,0,0,0,1 @ F,0,0,1,0,0,0,1"
       radius="0"
       unit="px"
       method="auto"
       mode="F"
       chamfer_steps="1"
       flexible="false"
       use_knot_distance="true"
       apply_no_radius="true"
       apply_with_radius="true"
       only_selected="false"
       hide_knots="false" />
    <linearGradient
       id="linearGradient13"
       inkscape:collect="always">
      <stop
         style="stop-color:#94f0b4;stop-opacity:1;"
         offset="0"
         id="stop13" />
      <stop
         style="stop-color:#51a351;stop-opacity:1;"
         offset="1"
         id="stop14" />
    </linearGradient>
    <inkscape:path-effect
       effect="powerstroke"
       message=""
       id="path-effect4"
       is_visible="true"
       lpeversion="1.3"
       scale_width="1"
       interpolator_type="CentripetalCatmullRom"
       interpolator_beta="0.75"
       start_linecap_type="round"
       end_linecap_type="round"
       offset_points="10.839744,0.43679433"
       linejoin_type="spiro"
       miter_limit="4"
       not_jump="true"
       sort_points="true" />
    <inkscape:path-effect
       effect="simplify"
       id="path-effect3"
       is_visible="true"
       lpeversion="1.3"
       threshold="0.012"
       steps="1"
       smooth_angles="0"
       helper_size="0"
       simplify_individual_paths="false"
       simplify_just_coalesce="false"
       step="1" />
    <linearGradient
       inkscape:collect="always"
       xlink:href="#linearGradient13"
       id="linearGradient14"
       x1="6.12362"
       y1="16.681654"
       x2="26.722704"
       y2="16.681654"
       gradientUnits="userSpaceOnUse"
       gradientTransform="matrix(1.161292,0,0,1.2772027,7.586893,-15.899273)" />
    <linearGradient
       inkscape:collect="always"
       xlink:href="#linearGradient13"
       id="linearGradient15"
       gradientUnits="userSpaceOnUse"
       x1="6.12362"
       y1="16.681654"
       x2="26.722704"
       y2="16.681654"
       gradientTransform="matrix(1.161292,0,0,-1.2772027,7.5868915,25.379768)" />
  </defs>
  <g
     inkscape:label="Ebene 1"
     inkscape:groupmode="layer"
     id="layer1"
     transform="translate(-0.20000279)">
    <rect
       style="fill:#7ad97e;fill-opacity:1;stroke:#212532;stroke-width:1.29973;stroke-linejoin:round;stroke-miterlimit:8.2;stroke-dasharray:none;stroke-opacity:0.995995"
       id="rect1"
       width="51.616936"
       height="51.616943"
       x="0.84986776"
       y="0.96118188"
       ry="5.9818354"
       rx="19.15794" />
    <rect
       style="fill:#c6f4ce;fill-opacity:1;stroke:#212532;stroke-width:0.689558;stroke-linejoin:round;stroke-miterlimit:8.2;stroke-dasharray:none;stroke-opacity:0.995995"
       id="rect1-8"
       width="45.94006"
       height="45.940067"
       x="3.6883085"
       y="3.7996202"
       ry="5.3239479"
       rx="17.050934" />
    <path
       d="m 31.768804,1.646733 c 3.497013,0.1186272 6.234585,3.9145352 6.234585,3.9145352 l -1.264438,-0.00996 c 0,0 -2.427355,-2.2412109 -4.916736,-2.3047646 -2.157002,-0.05506 -3.895059,1.6391875 -4.363635,2.1174042 L 27.190688,5.6714373 C 20.816299,13.667645 15.28907,5.457585 15.28907,5.457585 l 1.264441,0.00996 c 0,0 2.426755,2.2412111 4.916136,2.3047646 2.295402,0.058598 4.000244,-1.6336916 4.298454,-1.9500407 l 0.519671,-0.5771306 c 1.964514,-3.029959 3.649264,-3.6605458 5.481032,-3.5984073 z"
       style="fill:url(#linearGradient14);fill-opacity:1;stroke:#212532;stroke-width:0.621112;stroke-opacity:0.995995"
       id="path9-3"
       sodipodi:nodetypes="scccccccsccs" />
    <path
       d="m 31.768804,7.8337617 c 3.497013,-0.1186273 6.234585,-3.9145353 6.234585,-3.9145353 l -1.264438,0.00996 c 0,0 -2.427355,2.2412109 -4.916736,2.3047646 C 29.665213,6.289011 27.927156,4.5947635 27.45858,4.1165469 L 27.190688,3.8090574 C 20.816299,-4.1871501 15.28907,4.0229096 15.28907,4.0229096 l 1.264441,-0.00996 c 0,0 2.426755,-2.2412111 4.916136,-2.3047646 2.295402,-0.058598 4.000244,1.6336916 4.298454,1.9500407 l 0.519671,0.5771308 c 1.964514,3.0299589 3.649264,3.6605458 5.481032,3.5984072 z"
       style="fill:url(#linearGradient15);fill-opacity:1;stroke:#212532;stroke-width:0.621112;stroke-opacity:0.995995"
       id="path9-3-3"
       sodipodi:nodetypes="scccccccsccs" />
    <path
       d="m 31.769095,1.6465068 c -1.511737,-0.051279 -2.839989,0.2515361 -4.39136,2.103259 0.372094,0.186446 0.609798,0.5761205 0.853687,0.9096991 0.809839,-0.654021 2.100755,-1.4511295 3.591084,-1.413088 2.489381,0.063554 4.916736,2.3047645 4.916736,2.3047645 l 1.264442,0.00996 c 0,0 -2.737577,-3.7959088 -6.234589,-3.9145354 z"
       style="fill:#63b166;fill-opacity:1;stroke:#212532;stroke-width:0.621112;stroke-opacity:0.995995"
       id="path18"
       sodipodi:nodetypes="cccccccc" />
    <path
       id="rect18"
       style="fill:#3e6f40;fill-opacity:1;stroke:#212532;stroke-width:0.37754;stroke-opacity:0.995995"
       d="M 18.91538,2.4362141 20.031319,2.0085095 20.098952,7.5314708 18.91538,7.0479794 Z"
       sodipodi:nodetypes="ccccc" />
    <path
       id="rect18-0"
       style="fill:#63b166;stroke:#212532;stroke-width:0.37754;stroke-opacity:0.995995"
       d="m 21.487254,1.744674 1.115941,0.1301691 v 5.7368125 l -1.115941,0.1115776 z"
       sodipodi:nodetypes="ccccc" />
    <path
       id="rect18-2"
       style="fill:#3e6f40;fill-opacity:1;stroke:#212532;stroke-width:0.398684;stroke-opacity:0.995995"
       d="m 23.988275,2.3066227 1.178438,0.7854924 v 3.3088897 l -1.178438,0.7756746 z"
       sodipodi:nodetypes="ccccc" />
    <path
       id="rect18-5"
       style="fill:#3e6f40;fill-opacity:1;stroke:#212532;stroke-width:0.37754;stroke-opacity:0.995995"
       d="M 30.183717,3.5319134 31.299656,3.318061 V 6.3119901 L 30.183717,6.0144569 Z"
       sodipodi:nodetypes="ccccc" />
    <path
       id="rect18-20"
       style="fill:#63b166;stroke:#212532;stroke-width:0.37754;stroke-opacity:0.995995"
       d="m 33.020778,3.4418846 1.115941,0.3998105 v 1.7851984 l -1.115941,0.4091084 z"
       sodipodi:nodetypes="ccccc" />
    <path
       style="fill:#3e6f40;fill-opacity:1;stroke:none;stroke-width:1.17165;stroke-dasharray:none;stroke-opacity:0.995995"
       d="M 50.489298,39.566 45.619213,51.204677"
       id="path24" />
    <path
       d="m 29.887907,13.50709 v 5.926647 h 4.363744 c 3.895345,0 7.03186,3.135708 7.03186,7.031055 v 6.583822 c 0,3.895347 -3.136515,7.03186 -7.03186,7.03186 h -6.583822 c -3.895347,0 -7.031055,-3.136513 -7.031055,-7.03186 v -6.583822 c 0,-0.949418 0.186303,-1.853811 0.524453,-2.678574 h -6.423751 c -0.01818,0.260558 -0.02735,0.523757 -0.02735,0.789094 v 10.363586 c 0,6.131578 4.936643,11.067416 11.06822,11.067416 h 10.363588 c 6.131576,0 11.067416,-4.935838 11.067416,-11.067416 V 24.575312 c 0,-6.131578 -4.93584,-11.068222 -11.067416,-11.068222 z"
       style="fill:#3e6f40;stroke:#212532;stroke-width:0.625739;stroke-dasharray:none;stroke-opacity:0.995995"
       id="path33" />
    <path
       d="m 18.936322,15.127909 c -0.144761,-0.01018 -0.301493,-0.02341 -0.472973,-0.03941 -1.146022,-0.106988 -1.386413,0.349218 -3.380795,-0.860683 -1.754466,-1.064355 -6.9272907,1.293437 -6.9272907,1.293437 0,0 -3.8391509,1.712291 -3.4451445,3.238421 0.2604156,1.008684 3.0284775,0.770592 3.0284775,0.770592 l 10.8526477,-0.04344 c 0.66961,-0.700474 1.052125,-1.513377 1.052125,-2.381759 0,-0.705864 -0.252873,-1.375194 -0.707047,-1.977157 z"
       style="fill:#ceff78;fill-opacity:1;stroke:#212532;stroke-width:0.558806;stroke-dasharray:none;stroke-opacity:0.995995"
       id="path36" />
    <path
       id="path22"
       style="fill:#3e6f40;stroke:#212532;stroke-width:0.530788;stroke-dasharray:none;stroke-opacity:0.995995"
       d="m 25.769211,17.140813 c 0.421544,2.177917 -0.550376,4.528021 -3.044024,5.68683 -2.493647,1.158805 -5.987304,2.80266 -7.597818,1.177263 -1.610513,-1.625395 -1.458389,-6.192187 0.267365,-8.125982 1.725755,-1.933797 4.701936,-2.710588 7.135291,-2.00723 L 20.4582,19.018501 Z"
       sodipodi:nodetypes="csssccc" />
    <path
       id="rect34"
       style="fill:#3e6f40;stroke:#212532;stroke-width:0.624182;stroke-dasharray:none;stroke-opacity:0.995995"
       d="m 30.534934,19.425723 -10.328676,0.01105 2.102553,-4.745713 c 0,0 1.657574,-0.592645 2.51343,-0.789223 0.854113,-0.196177 1.726718,-0.319992 2.600594,-0.385824 0.966454,-0.0728 2.907561,-0.009 2.907561,-0.009"
       sodipodi:nodetypes="cccaac" />
    <path
       id="rect35"
       style="fill:#3e6f40;stroke:#212532;stroke-width:0;stroke-opacity:0.995995"
       d="m 14.878963,22.93228 6.662688,-0.41666 -1.426256,2.672668 -5.060153,-0.02803 z"
       sodipodi:nodetypes="ccccc" />
    <path
       style="fill:#70c974;fill-opacity:1;stroke:#212532;stroke-width:0.245937;stroke-dasharray:none;stroke-opacity:0.995995"
       id="path35"
       sodipodi:type="arc"
       sodipodi:cx="16.779041"
       sodipodi:cy="17.580223"
       sodipodi:rx="0.92198098"
       sodipodi:ry="1.4235878"
       sodipodi:start="6.2613533"
       sodipodi:end="6.2601406"
       sodipodi:open="true"
       sodipodi:arc-type="arc"
       d="m 17.700803,17.549146 a 0.92198098,1.4235878 0 0 1 -0.901355,1.454316 0.92198098,1.4235878 0 0 1 -0.942156,-1.391299 0.92198098,1.4235878 0 0 1 0.900784,-1.45516 0.92198098,1.4235878 0 0 1 0.942701,1.390417" />
  </g>
</svg>
