<?xml version="1.0" encoding="UTF-8" standalone="no"?>
<!-- Created with Inkscape (http://www.inkscape.org/) -->

<svg
   width="510.14313mm"
   height="285.81903mm"
   viewBox="0 0 510.14313 285.81903"
   version="1.1"
   id="svg1"
   xml:space="preserve"
   inkscape:version="1.4.2 (f4327f4, 2025-05-13)"
   sodipodi:docname="Background.svg"
   xmlns:inkscape="http://www.inkscape.org/namespaces/inkscape"
   xmlns:sodipodi="http://sodipodi.sourceforge.net/DTD/sodipodi-0.dtd"
   xmlns:xlink="http://www.w3.org/1999/xlink"
   xmlns="http://www.w3.org/2000/svg"
   xmlns:svg="http://www.w3.org/2000/svg"><sodipodi:namedview
     id="namedview1"
     pagecolor="#ffffff"
     bordercolor="#000000"
     borderopacity="0.25"
     inkscape:showpageshadow="2"
     inkscape:pageopacity="0.0"
     inkscape:pagecheckerboard="0"
     inkscape:deskcolor="#d1d1d1"
     inkscape:document-units="mm"
     inkscape:zoom="1.1370204"
     inkscape:cx="230.42682"
     inkscape:cy="1003.9398"
     inkscape:window-width="3840"
     inkscape:window-height="2054"
     inkscape:window-x="-11"
     inkscape:window-y="-11"
     inkscape:window-maximized="1"
     inkscape:current-layer="layer1" /><defs
     id="defs1"><radialGradient
       inkscape:collect="always"
       xlink:href="#linearGradient1"
       id="radialGradient2"
       cx="91.148834"
       cy="135.3775"
       fx="91.148834"
       fy="135.3775"
       r="94.668037"
       gradientTransform="matrix(6.1688432,0.04858584,-0.04346961,5.1249098,-548.29122,-498.7541)"
       gradientUnits="userSpaceOnUse" /><linearGradient
       id="linearGradient1"
       inkscape:collect="always"><stop
         style="stop-color:#2c4985;stop-opacity:1;"
         offset="0.16121212"
         id="stop1" /><stop
         style="stop-color:#12071f;stop-opacity:1;"
         offset="1"
         id="stop2" /></linearGradient></defs><g
     inkscape:label="Ebene 1"
     inkscape:groupmode="layer"
     id="layer1"
     transform="translate(125.97618,-53.543619)"><path
       d="M 39.833181,342.8644 V 50.041584 H -125.97618 V 342.8644 Z"
       style="fill:url(#radialGradient2);stroke:#000000;stroke-width:1.30676;stroke-opacity:0"
       id="path1" /><path
       id="rect2"
       style="opacity:1;fill:#171717;stroke:#7583c0;stroke-width:2.10866;stroke-linecap:round;stroke-linejoin:round;stroke-opacity:1"
       d="M 41.45055,51.085859 V 341.82043 m -5.706776,0 V 51.085859"
       sodipodi:nodetypes="cccc" /><path
       id="rect2-2"
       style="fill:#26283d;fill-opacity:1;stroke:#3b3b3b;stroke-width:0;stroke-linecap:round;stroke-linejoin:round;stroke-dasharray:none;stroke-opacity:1"
       d="M 35.614822,342.86441 V 50.041586 h 5.697286 V 342.86441 Z"
       sodipodi:nodetypes="ccccc" /><path
       style="opacity:0.539474;fill:#000000;fill-opacity:0.268567;stroke:#404040;stroke-width:0;stroke-linecap:round;stroke-dasharray:none;stroke-dashoffset:0;stroke-opacity:0;paint-order:fill markers stroke"
       d="M -69.684383,303.67899 -57.47859,323.448 -85.116693,316.79878 Z"
       id="path3" /><path
       style="opacity:0.539474;fill:#000000;fill-opacity:0.268567;stroke:#404040;stroke-width:0;stroke-linecap:round;stroke-dasharray:none;stroke-dashoffset:0;stroke-opacity:0;paint-order:fill markers stroke"
       d="m -105.99268,300.95549 -9.77674,-27.65812 28.606123,4.67784 z"
       id="path5" /><path
       style="opacity:0.539474;fill:#000000;fill-opacity:0.268567;stroke:#404040;stroke-width:0;stroke-linecap:round;stroke-dasharray:none;stroke-dashoffset:0;stroke-opacity:0;paint-order:fill markers stroke"
       d="m -176.80182,333.89285 37.72451,12.43355 23.61964,-17.32276 -22.30101,-21.76833 z"
       id="path12"
       sodipodi:nodetypes="ccccc" /><path
       style="opacity:0.539474;fill:#000000;fill-opacity:0.268567;stroke:#404040;stroke-width:0;stroke-linecap:round;stroke-dasharray:none;stroke-dashoffset:0;stroke-opacity:0;paint-order:fill markers stroke"
       d="m -111.26718,374.63131 87.784401,0.22181 -30.236352,-22.227 -18.534231,4.99737 -28.637448,5.62976 z"
       id="path16" /><path
       style="opacity:0.539474;fill:#000000;fill-opacity:0.268567;stroke:#404040;stroke-width:0;stroke-linecap:round;stroke-dasharray:none;stroke-dashoffset:0;stroke-opacity:0;paint-order:fill markers stroke"
       d="m -53.719131,352.62612 22.941952,-30.86517 -1.36573,-25.44376 -15.185822,11.1466 -10.149859,15.98421 -26.76738,23.39887 11.992608,10.77662 z"
       id="path17" /><path
       style="opacity:0.539474;fill:#000000;fill-opacity:0.268567;stroke:#404040;stroke-width:0;stroke-linecap:round;stroke-dasharray:none;stroke-dashoffset:0;stroke-opacity:0;paint-order:fill markers stroke"
       d="m 9.530411,353.88249 25.2998,-2.12922 0.1426,-46.93262 -45.54555,16.3334 z"
       id="path21" /><path
       style="opacity:0.539474;fill:#000000;fill-opacity:0.268567;stroke:#404040;stroke-width:0;stroke-linecap:round;stroke-dasharray:none;stroke-dashoffset:0;stroke-opacity:0;paint-order:fill markers stroke"
       d="m -45.823723,287.07149 3.673545,-21.70271 -27.721399,20.7647 z"
       id="path23" /><path
       style="opacity:0.539474;fill:#000000;fill-opacity:0.268567;stroke:#404040;stroke-width:0;stroke-linecap:round;stroke-dasharray:none;stroke-dashoffset:0;stroke-opacity:0;paint-order:fill markers stroke"
       d="m -4.196329,280.59727 21.61016,11.67818 17.6536,-18.597 -0.0946,31.14221 -43.55488,-5.59287 z"
       id="path24" /><path
       style="opacity:0.539474;fill:#000000;fill-opacity:0.268567;stroke:#404040;stroke-width:0;stroke-linecap:round;stroke-dasharray:none;stroke-dashoffset:0;stroke-opacity:0;paint-order:fill markers stroke"
       d="m -176.07082,93.308363 17.43169,-28.021644 41.09348,20.419014 -14.77455,14.731177 -35.4995,8.13455 z"
       id="path86" /><path
       style="opacity:0.539474;fill:#000000;fill-opacity:0.268567;stroke:#404040;stroke-width:0;stroke-linecap:round;stroke-dasharray:none;stroke-dashoffset:0;stroke-opacity:0;paint-order:fill markers stroke"
       d="m -111.29946,44.93608 37.113032,-12.851965 -101.697582,-0.25694 61.46849,14.448455 z"
       id="path90" /><path
       style="opacity:0.539474;fill:#000000;fill-opacity:0.268567;stroke:#404040;stroke-width:0;stroke-linecap:round;stroke-dasharray:none;stroke-dashoffset:0;stroke-opacity:0;paint-order:fill markers stroke"
       d="m -44.505903,58.584791 42.014644,-2.828524 -71.695169,-23.672152 36.837919,21.72314 z"
       id="path92" /><path
       style="opacity:0.539474;fill:#000000;fill-opacity:0.268567;stroke:#404040;stroke-width:0;stroke-linecap:round;stroke-dasharray:none;stroke-dashoffset:0;stroke-opacity:0;paint-order:fill markers stroke"
       d="m -2.491259,55.756267 38.17814,14.053455 -0.0763,25.130021 -29.04241,19.927567 -29.22105,-28.146437 z"
       id="path95" /><path
       style="opacity:0.539474;fill:#000000;fill-opacity:0.268567;stroke:#404040;stroke-width:0;stroke-linecap:round;stroke-dasharray:none;stroke-dashoffset:0;stroke-opacity:0;paint-order:fill markers stroke"
       d="m -159.56858,123.83456 -16.50224,-30.526197 -0.17859,58.775437 z"
       id="path77" /><path
       style="opacity:0.539474;fill:#000000;fill-opacity:0.268567;stroke:#404040;stroke-width:0;stroke-linecap:round;stroke-dasharray:none;stroke-dashoffset:0;stroke-opacity:0;paint-order:fill markers stroke"
       d="m -96.183652,139.89371 32.555986,-9.01806 33.355587,24.64733 -21.679456,11.1302 -17.526893,-9.91337 -12.874358,2.37755 z"
       id="path80" /><path
       style="opacity:0.539474;fill:#000000;fill-opacity:0.268567;stroke:#404040;stroke-width:0;stroke-linecap:round;stroke-dasharray:none;stroke-dashoffset:0;stroke-opacity:0;paint-order:fill markers stroke"
       d="m -4.196219,122.25329 39.80675,-27.313547 -0.20326,66.885207 -19.73218,-9.69488 z"
       id="path82" /><path
       style="opacity:0.539474;fill:#000000;fill-opacity:0.268567;stroke:#404040;stroke-width:0;stroke-linecap:round;stroke-dasharray:none;stroke-dashoffset:0;stroke-opacity:0;paint-order:fill markers stroke"
       d="m -138.62003,194.9449 30.35032,16.61319 -31.17246,16.50099 6.79146,-18.84377 -10.35605,5.05123 z"
       id="path63" /><path
       style="opacity:0.539474;fill:#000000;fill-opacity:0.268567;stroke:#404040;stroke-width:0;stroke-linecap:round;stroke-dasharray:none;stroke-dashoffset:0;stroke-opacity:0;paint-order:fill markers stroke"
       d="m -108.85108,196.86233 38.288864,6.55139 -16.422508,28.24791 -13.014262,-11.37923 6.326772,-16.45143 z"
       id="path65" /><path
       style="opacity:0.539474;fill:#000000;fill-opacity:0.268567;stroke:#404040;stroke-width:0;stroke-linecap:round;stroke-dasharray:none;stroke-dashoffset:0;stroke-opacity:0;paint-order:fill markers stroke"
       d="m -20.278429,184.71163 21.69241,-9.15111 22.27369,30.7601 -44.03461,-10.03958 z"
       id="path69" /><path
       style="opacity:0.539474;fill:#000000;fill-opacity:0.268567;stroke:#404040;stroke-width:0;stroke-linecap:round;stroke-dasharray:none;stroke-dashoffset:0;stroke-opacity:0;paint-order:fill markers stroke"
       d="m -6.721199,161.71851 -23.55088,-6.19553 -21.679456,11.1302 -17.526893,-9.91337 0.890728,23.46874 36.014351,-1.54266 z"
       id="path71" /><path
       style="opacity:0.539474;fill:#000000;fill-opacity:0.268567;stroke:#404040;stroke-width:0;stroke-linecap:round;stroke-dasharray:none;stroke-dashoffset:0;stroke-opacity:0;paint-order:fill markers stroke"
       d="m -143.4591,164.88678 -32.79031,-12.80298 -0.12261,40.35326 15.83937,11.22499 1.53365,-29.8227 z"
       id="path75" /><path
       style="opacity:0.539474;fill:#000000;fill-opacity:0.624906;stroke:#404040;stroke-width:0;stroke-linecap:round;stroke-opacity:0;paint-order:fill markers stroke"
       d="m -85.116699,316.79877 -20.875971,-15.84328 18.829367,-22.98028 17.291726,8.15825 0.187194,17.54552 z"
       id="path1-8" /><path
       style="opacity:0.539474;fill:#000000;fill-opacity:0.624906;stroke:#404040;stroke-width:0;stroke-linecap:round;stroke-dasharray:none;stroke-dashoffset:0;stroke-opacity:0;paint-order:fill markers stroke"
       d="m -115.45767,329.00364 31.2117,17.84323 26.76738,-23.39888 -27.638109,-6.64922 z"
       id="path7" /><path
       style="opacity:0.539474;fill:#000000;fill-opacity:0.624906;stroke:#404040;stroke-width:0;stroke-linecap:round;stroke-dasharray:none;stroke-dashoffset:0;stroke-opacity:0;paint-order:fill markers stroke"
       d="m -115.45767,329.00364 -22.30101,-21.76833 31.76601,-6.27982 z"
       id="path8" /><path
       style="opacity:0.539474;fill:#000000;fill-opacity:0.624906;stroke:#404040;stroke-width:0;stroke-linecap:round;stroke-dasharray:none;stroke-dashoffset:0;stroke-opacity:0;paint-order:fill markers stroke"
       d="m -23.482779,374.85311 33.01319,-20.97062 -20.10315,-32.72844 -20.20444,0.6069 -22.941952,30.86516 z"
       id="path18" /><path
       style="opacity:0.539474;fill:#000000;fill-opacity:0.624906;stroke:#404040;stroke-width:0;stroke-linecap:round;stroke-dasharray:none;stroke-dashoffset:0;stroke-opacity:0;paint-order:fill markers stroke"
       d="m -176.48796,230.59724 0.11594,-38.16018 15.83937,11.22499 21.91262,-8.71715 -4.38673,19.32164 z"
       id="path62" /><path
       style="opacity:0.539474;fill:#000000;fill-opacity:0.624906;stroke:#404040;stroke-width:0;stroke-linecap:round;stroke-dasharray:none;stroke-dashoffset:0;stroke-opacity:0;paint-order:fill markers stroke"
       d="m 35.299341,197.35812 0.10796,-35.53318 -19.73222,-9.69488 -22.3963,9.58845 8.1352,13.84201 22.2737,30.76009 z"
       id="path70" /><path
       style="opacity:0.539474;fill:#000000;fill-opacity:0.624906;stroke:#404040;stroke-width:0;stroke-linecap:round;stroke-dasharray:none;stroke-dashoffset:0;stroke-opacity:0;paint-order:fill markers stroke"
       d="m -32.573349,178.66588 12.33386,-0.5283 -0.0389,6.57405 21.6924,-9.15111 -8.13517,-13.84202 z"
       id="path72" /><path
       style="opacity:0.539474;fill:#000000;fill-opacity:0.624906;stroke:#404040;stroke-width:0;stroke-linecap:round;stroke-dasharray:none;stroke-dashoffset:0;stroke-opacity:0;paint-order:fill markers stroke"
       d="m -69.478428,156.7398 -25.748704,4.7551 -31.108478,27.34026 17.48452,8.02717 22.197605,3.79811 18.065785,-20.45189 z"
       id="path73" /><path
       style="opacity:0.539474;fill:#000000;fill-opacity:0.624906;stroke:#404040;stroke-width:0;stroke-linecap:round;stroke-dasharray:none;stroke-dashoffset:0;stroke-opacity:0;paint-order:fill markers stroke"
       d="m -45.823723,287.07148 41.627394,-6.47422 -4.38574,18.63052 -23.56084,-2.91059 -15.185815,11.1466 z"
       id="path19" /><path
       style="opacity:0.539474;fill:#000000;fill-opacity:0.624906;stroke:#404040;stroke-width:0;stroke-linecap:round;stroke-dasharray:none;stroke-dashoffset:0;stroke-opacity:0;paint-order:fill markers stroke"
       d="m -176.71253,304.50514 -0.0893,29.38772 39.04314,-26.65755 -20.2031,0.16827 z"
       id="path11" /><path
       style="opacity:0.539474;fill:#000000;fill-opacity:0.624906;stroke:#404040;stroke-width:0;stroke-linecap:round;stroke-dasharray:none;stroke-dashoffset:0;stroke-opacity:0;paint-order:fill markers stroke"
       d="m -167.8197,108.57145 35.4995,-8.13454 22.30568,20.23315 -10.50962,15.65433 -0.32777,-10.85682 -11.2751,-9.45894 -27.44158,7.82593 z"
       id="path78" /><path
       style="opacity:0.539474;fill:#000000;fill-opacity:0.624906;stroke:#404040;stroke-width:0;stroke-linecap:round;stroke-dasharray:none;stroke-dashoffset:0;stroke-opacity:0;paint-order:fill markers stroke"
       d="m 6.568121,114.8673 -37.42643,-3.86634 3.43796,20.36032 23.22413,-9.10799 z"
       id="path83" /><path
       style="opacity:0.539474;fill:#000000;fill-opacity:0.623529;stroke:#404040;stroke-width:0;stroke-linecap:round;stroke-dasharray:none;stroke-dashoffset:0;stroke-opacity:0;paint-order:fill markers stroke"
       d="M -117.54565,85.705723 -68.363088,74.50931 -74.355781,99.706113 -110.01452,120.67006 -132.3202,100.43691 Z"
       id="path87" /><path
       style="opacity:0.539474;fill:#000000;fill-opacity:0.623529;stroke:#404040;stroke-width:0;stroke-linecap:round;stroke-dasharray:none;stroke-dashoffset:0;stroke-opacity:0;paint-order:fill markers stroke"
       d="m -111.29946,44.936074 -3.11606,1.339556 -61.46849,-14.448461 -0.18681,61.481194 17.43169,-28.02165 z"
       id="path89" /><path
       style="opacity:0.539474;fill:#000000;fill-opacity:0.623529;stroke:#404040;stroke-width:0;stroke-linecap:round;stroke-dasharray:none;stroke-dashoffset:0;stroke-opacity:0;paint-order:fill markers stroke"
       d="m 35.164731,241.659 -43.98207,-23.30833 -23.39415,21.3836 29.29232,16.30317 z"
       id="path50" /><path
       style="opacity:0.539474;fill:#000000;fill-opacity:0.623529;stroke:#404040;stroke-width:0;stroke-linecap:round;stroke-dasharray:none;stroke-dashoffset:0;stroke-opacity:0;paint-order:fill markers stroke"
       d="m -69.871577,286.13348 -17.291726,-8.15827 12.35173,-28.26017 32.661395,15.65373 z"
       id="path47" /><path
       style="opacity:0.539474;fill:#000000;fill-opacity:0.623529;stroke:#404040;stroke-width:0;stroke-linecap:round;stroke-dasharray:none;stroke-dashoffset:0;stroke-opacity:0;paint-order:fill markers stroke"
       d="m -139.44217,228.05908 47.342209,12.40113 -39.918099,21.79074 -14.21556,-15.34812 z"
       id="path55" /><path
       style="opacity:0.539474;fill:#000000;fill-opacity:0.624906;stroke:#404040;stroke-width:0;stroke-linecap:round;stroke-dasharray:none;stroke-dashoffset:0;stroke-opacity:0;paint-order:fill markers stroke"
       d="M -74.186428,32.084109 -37.348509,53.807255 -68.363088,74.50931 -84.00685,78.070608 -111.29946,44.936074 Z"
       id="path91" /><path
       style="opacity:0.539474;fill:#000000;fill-opacity:0.338335;stroke:#404040;stroke-width:0;stroke-linecap:round;stroke-dasharray:none;stroke-dashoffset:0;stroke-opacity:0;paint-order:fill markers stroke"
       d="m -115.76943,273.29735 -30.82797,14.17746 -11.36438,19.92877 20.2031,-0.16827 31.76601,-6.27982 z"
       id="path9" /><path
       style="opacity:0.539474;fill:#000000;fill-opacity:0.338335;stroke:#404040;stroke-width:0;stroke-linecap:round;stroke-dasharray:none;stroke-dashoffset:0;stroke-opacity:0;paint-order:fill markers stroke"
       d="m -139.07732,346.32639 -37.60477,28.19637 -0.11973,-40.6299 z"
       id="path13"
       sodipodi:nodetypes="cccc" /><path
       style="opacity:0.539474;fill:#000000;fill-opacity:0.338335;stroke:#404040;stroke-width:0;stroke-linecap:round;stroke-dasharray:none;stroke-dashoffset:0;stroke-opacity:0;paint-order:fill markers stroke"
       d="m -106.32576,236.73381 12.653546,-32.90284 -45.769956,24.22811 z"
       id="path56" /><path
       style="opacity:0.539474;fill:#000000;fill-opacity:0.338335;stroke:#404040;stroke-width:0;stroke-linecap:round;stroke-dasharray:none;stroke-dashoffset:0;stroke-opacity:0;paint-order:fill markers stroke"
       d="m -1.255159,222.35826 25.14653,-3.92495 11.32067,7.65458 -0.0473,15.57111 z"
       id="path61" /><path
       style="opacity:0.539474;fill:#000000;fill-opacity:0.338335;stroke:#404040;stroke-width:0;stroke-linecap:round;stroke-dasharray:none;stroke-dashoffset:0;stroke-opacity:0;paint-order:fill markers stroke"
       d="m -42.150178,265.36877 -3.673545,21.70271 29.826064,-4.63878 13.07849,-26.39526 z"
       id="path48" /><path
       style="opacity:0.539474;fill:#000000;fill-opacity:0.338335;stroke:#404040;stroke-width:0;stroke-linecap:round;stroke-dasharray:none;stroke-dashoffset:0;stroke-opacity:0;paint-order:fill markers stroke"
       d="m -92.099961,240.46021 -59.985749,32.74539 36.31628,0.0917 28.606127,4.67786 12.35173,-28.26017 z"
       id="path52" /><path
       style="opacity:0.539474;fill:#000000;fill-opacity:0.338335;stroke:#404040;stroke-width:0;stroke-linecap:round;stroke-dasharray:none;stroke-dashoffset:0;stroke-opacity:0;paint-order:fill markers stroke"
       d="m -146.23362,246.90283 13.58291,-37.68752 -43.83725,21.38193 -0.0646,21.27319 z"
       id="path54" /><path
       style="opacity:0.539474;fill:#000000;fill-opacity:0.338335;stroke:#404040;stroke-width:0;stroke-linecap:round;stroke-dasharray:none;stroke-dashoffset:0;stroke-opacity:0;paint-order:fill markers stroke"
       d="m -41.097109,218.26912 -23.286724,-0.0588 9.104216,21.80361 23.068128,-0.27963 z"
       id="path59" /><path
       style="opacity:0.539474;fill:#000000;fill-opacity:0.338335;stroke:#404040;stroke-width:0;stroke-linecap:round;stroke-dasharray:none;stroke-dashoffset:0;stroke-opacity:0;paint-order:fill markers stroke"
       d="m -46.298016,205.70517 -20.875972,-15.84328 -1.413712,-9.65334 -18.065792,20.45189 16.091276,2.75327 6.178383,14.79657 23.286724,0.0588 z"
       id="path66" /><path
       style="opacity:0.539474;fill:#000000;fill-opacity:0.338335;stroke:#404040;stroke-width:0;stroke-linecap:round;stroke-dasharray:none;stroke-dashoffset:0;stroke-opacity:0;paint-order:fill markers stroke"
       d="m -100.50781,166.13592 -27.41138,-10.20171 -31.07981,17.90514 33.2779,15.27793 z"
       id="path74" /><path
       style="opacity:0.539474;fill:#000000;fill-opacity:0.338335;stroke:#404040;stroke-width:0;stroke-linecap:round;stroke-dasharray:none;stroke-dashoffset:0;stroke-opacity:0;paint-order:fill markers stroke"
       d="m -100.8908,363.25328 28.637438,-5.62979 -11.992608,-10.77662 -31.2117,-17.84323 -11.93133,8.63272 z"
       id="path15" /><path
       style="opacity:0.539474;fill:#000000;fill-opacity:0.338335;stroke:#404040;stroke-width:0;stroke-linecap:round;stroke-dasharray:none;stroke-dashoffset:0;stroke-opacity:0;paint-order:fill markers stroke"
       d="m -10.572739,321.15405 45.54555,-16.3334 -43.55488,-5.59286 -23.56084,-2.9106 1.36573,25.44376 z"
       id="path20" /><path
       style="opacity:0.539474;fill:#000000;fill-opacity:0.338335;stroke:#404040;stroke-width:0;stroke-linecap:round;stroke-dasharray:none;stroke-dashoffset:0;stroke-opacity:0;paint-order:fill markers stroke"
       d="m 34.830211,351.75326 -0.0706,23.24701 -58.24236,-0.14716 33.01319,-20.97062 z"
       id="path22" /><path
       style="opacity:0.539474;fill:#000000;fill-opacity:0.338335;stroke:#404040;stroke-width:0;stroke-linecap:round;stroke-dasharray:none;stroke-dashoffset:0;stroke-opacity:0;paint-order:fill markers stroke"
       d="m -176.24941,152.08379 16.68082,-28.24923 27.44158,-7.82593 11.2751,9.45894 0.65554,21.71363 -7.72282,8.75301 -15.5399,8.95257 z"
       id="path76" /><path
       style="opacity:0.539474;fill:#000000;fill-opacity:0.338335;stroke:#404040;stroke-width:0;stroke-linecap:round;stroke-dasharray:none;stroke-dashoffset:0;stroke-opacity:0;paint-order:fill markers stroke"
       d="m -50.644476,140.46928 46.448257,-18.21599 19.8713,29.87677 -22.39628,9.58845 -23.55088,-6.19553 z"
       id="path81" /><path
       style="opacity:0.539474;fill:#000000;fill-opacity:0.338335;stroke:#404040;stroke-width:0;stroke-linecap:round;stroke-dasharray:none;stroke-dashoffset:0;stroke-opacity:0;paint-order:fill markers stroke"
       d="m -110.01452,120.67006 35.658739,-20.963947 6.939334,11.641117 3.788781,19.52842 -32.555986,9.01806 z"
       id="path85" /><path
       style="opacity:0.539474;fill:#000000;fill-opacity:0.338335;stroke:#404040;stroke-width:0;stroke-linecap:round;stroke-dasharray:none;stroke-dashoffset:0;stroke-opacity:0;paint-order:fill markers stroke"
       d="m -30.858309,111.00096 -36.558138,0.34627 3.788781,19.52842 12.98319,9.59363 23.224127,-9.108 z"
       id="path84" /><path
       style="opacity:0.539474;fill:#000000;fill-opacity:0.338335;stroke:#404040;stroke-width:0;stroke-linecap:round;stroke-dasharray:none;stroke-dashoffset:0;stroke-opacity:0;paint-order:fill markers stroke"
       d="m -110.01452,120.67006 27.661741,38.44729 -12.874301,2.37755 -5.28073,4.64102 -27.41138,-10.20171 7.72282,-8.75301 -0.32777,-10.85681 z"
       id="path79" /><path
       style="opacity:0.539474;fill:#000000;fill-opacity:0.338335;stroke:#404040;stroke-width:0;stroke-linecap:round;stroke-dasharray:none;stroke-dashoffset:0;stroke-opacity:0;paint-order:fill markers stroke"
       d="m -84.00685,78.070608 -27.29261,-33.134534 -47.33967,20.350639 41.09348,20.41901 z"
       id="path88" /><path
       style="opacity:0.539474;fill:#000000;fill-opacity:0.338335;stroke:#404040;stroke-width:0;stroke-linecap:round;stroke-dasharray:none;stroke-dashoffset:0;stroke-opacity:0;paint-order:fill markers stroke"
       d="m -2.491259,55.756267 -20.16167,30.964596 -51.702852,12.98525 5.992693,-25.196803 23.857185,-15.924524 z"
       id="path93" /><path
       style="opacity:0.539474;fill:#000000;fill-opacity:0.43886;stroke:#404040;stroke-width:0;stroke-linecap:round;stroke-dasharray:none;stroke-dashoffset:0;stroke-opacity:0;paint-order:fill markers stroke"
       d="m -69.871577,286.13347 24.047854,0.93801 -1.505001,20.39231 -10.149866,15.9842 -12.205793,-19.76901 z"
       id="path4" /><path
       style="opacity:0.539474;fill:#000000;fill-opacity:0.439216;stroke:#404040;stroke-width:0;stroke-linecap:round;stroke-dasharray:none;stroke-dashoffset:0;stroke-opacity:0;paint-order:fill markers stroke"
       d="m 35.067431,273.67845 0.0973,-32.01945 -38.0839,14.37844 -13.07849,26.39526 11.80133,-1.83544 21.61016,11.67819 z"
       id="path49" /><path
       style="opacity:0.539474;fill:#000000;fill-opacity:0.439216;stroke:#404040;stroke-width:0;stroke-linecap:round;stroke-dasharray:none;stroke-dashoffset:0;stroke-opacity:0;paint-order:fill markers stroke"
       d="m -32.211489,239.73427 -14.086527,-34.0291 37.480677,12.6455 z"
       id="path58" /><path
       style="opacity:0.539474;fill:#000000;fill-opacity:0.439216;stroke:#404040;stroke-width:0;stroke-linecap:round;stroke-dasharray:none;stroke-dashoffset:0;stroke-opacity:0;paint-order:fill markers stroke"
       d="m -176.61723,273.14363 0.0646,-21.2732 30.31897,-4.9676 14.21557,15.34812 -20.06765,10.95465 z"
       id="path53" /><path
       style="opacity:0.539474;fill:#000000;fill-opacity:0.439216;stroke:#404040;stroke-width:0;stroke-linecap:round;stroke-dasharray:none;stroke-dashoffset:0;stroke-opacity:0;paint-order:fill markers stroke"
       d="m -32.211489,239.73427 -59.888472,0.72595 17.288388,9.25483 32.661395,15.65373 39.231009,-9.33133 z"
       id="path51" /><path
       style="opacity:0.539474;fill:#000000;fill-opacity:0.439216;stroke:#404040;stroke-width:0;stroke-linecap:round;stroke-dasharray:none;stroke-dashoffset:0;stroke-opacity:0;paint-order:fill markers stroke"
       d="m -92.099961,240.46021 21.537745,-37.0465 15.282599,36.60018 z"
       id="path57" /><path
       style="opacity:0.539474;fill:#000000;fill-opacity:0.439216;stroke:#404040;stroke-width:0;stroke-linecap:round;stroke-dasharray:none;stroke-dashoffset:0;stroke-opacity:0;paint-order:fill markers stroke"
       d="m -20.346939,196.28104 44.03462,10.03957 11.61166,-8.96249 -0.0873,28.72977 -11.32067,-7.65458 -25.14653,3.92495 -7.5622,-4.00759 -11.637,-3.92618 z"
       id="path68" /><path
       style="opacity:0.539474;fill:#000000;fill-opacity:0.43886;stroke:#404040;stroke-width:0;stroke-linecap:round;stroke-dasharray:none;stroke-dashoffset:0;stroke-opacity:0;paint-order:fill markers stroke"
       d="m -99.998986,220.28239 13.014268,11.37924 -5.115243,8.79858 -14.225799,-3.7264 z"
       id="path60" /><path
       style="opacity:0.539474;fill:#000000;fill-opacity:0.43886;stroke:#404040;stroke-width:0;stroke-linecap:round;stroke-dasharray:none;stroke-dashoffset:0;stroke-opacity:0;paint-order:fill markers stroke"
       d="m -93.672214,203.83097 -65.326786,-29.99162 -1.53365,29.8227 21.91262,-8.71715 30.35033,16.61319 z"
       id="path64" /><path
       style="opacity:0.539474;fill:#000000;fill-opacity:0.43886;stroke:#404040;stroke-width:0;stroke-linecap:round;stroke-dasharray:none;stroke-dashoffset:0;stroke-opacity:0;paint-order:fill markers stroke"
       d="m -68.5877,180.20855 48.348211,-2.07097 -0.21487,36.28691 -25.843657,-8.71932 -20.875972,-15.84328 z"
       id="path67" /><path
       style="opacity:0.539474;fill:#000000;fill-opacity:0.43886;stroke:#404040;stroke-width:0;stroke-linecap:round;stroke-dasharray:none;stroke-dashoffset:0;stroke-opacity:0;paint-order:fill markers stroke"
       d="m -105.99267,300.9555 -9.465,28.04814 30.340971,-12.20487 z"
       id="path6" /><path
       style="opacity:0.539474;fill:#000000;fill-opacity:0.43886;stroke:#404040;stroke-width:0;stroke-linecap:round;stroke-dasharray:none;stroke-dashoffset:0;stroke-opacity:0;paint-order:fill markers stroke"
       d="m -157.96178,307.40358 -18.75075,-2.89844 0.0953,-31.36151 60.84781,0.15372 -30.82798,14.17746 z"
       id="path10" /><path
       style="opacity:0.539474;fill:#000000;fill-opacity:0.43886;stroke:#404040;stroke-width:0;stroke-linecap:round;stroke-dasharray:none;stroke-dashoffset:0;stroke-opacity:0;paint-order:fill markers stroke"
       d="m -176.92509,374.46543 65.65791,0.16588 10.37638,-11.37803 -26.4982,-25.61692 z"
       id="path14" /><path
       style="opacity:0.539474;fill:#000000;fill-opacity:0.43886;stroke:#404040;stroke-width:0;stroke-linecap:round;stroke-dasharray:none;stroke-dashoffset:0;stroke-opacity:0;paint-order:fill markers stroke"
       d="m -22.652929,86.720863 29.22104,28.146437 -37.42642,-3.86634 -36.558138,0.34627 -6.939334,-11.641117 z"
       id="path94" /><path
       style="opacity:0.539474;fill:#000000;fill-opacity:0.43886;stroke:#404040;stroke-width:0;stroke-linecap:round;stroke-dasharray:none;stroke-dashoffset:0;stroke-opacity:0;paint-order:fill markers stroke"
       d="M 35.686881,69.809716 35.800671,32.361998 -74.186428,32.084109 Z"
       id="path96" /></g></svg>
