<?xml version="1.0" encoding="UTF-8" standalone="no"?>
<!-- Created with Inkscape (http://www.inkscape.org/) -->

<svg
   width="166.91833"
   height="162.71597"
   viewBox="0 0 44.16381 43.051934"
   version="1.1"
   id="svg1"
   inkscape:version="1.4.2 (f4327f4, 2025-05-13)"
   sodipodi:docname="HighlightBuy.svg"
   xml:space="preserve"
   xmlns:inkscape="http://www.inkscape.org/namespaces/inkscape"
   xmlns:sodipodi="http://sodipodi.sourceforge.net/DTD/sodipodi-0.dtd"
   xmlns="http://www.w3.org/2000/svg"
   xmlns:svg="http://www.w3.org/2000/svg"><sodipodi:namedview
     id="namedview1"
     pagecolor="#ffffff"
     bordercolor="#000000"
     borderopacity="0.25"
     inkscape:showpageshadow="2"
     inkscape:pageopacity="0.0"
     inkscape:pagecheckerboard="0"
     inkscape:deskcolor="#d1d1d1"
     inkscape:document-units="mm"
     inkscape:zoom="8"
     inkscape:cx="56.125"
     inkscape:cy="65.8125"
     inkscape:window-width="3840"
     inkscape:window-height="2054"
     inkscape:window-x="-11"
     inkscape:window-y="-11"
     inkscape:window-maximized="1"
     inkscape:current-layer="layer4" /><defs
     id="defs1"><inkscape:path-effect
       effect="spiro"
       id="path-effect9"
       is_visible="true"
       lpeversion="1" /><inkscape:path-effect
       effect="spiro"
       id="path-effect8"
       is_visible="true"
       lpeversion="1" /><inkscape:path-effect
       effect="mirror_symmetry"
       start_point="17.255329,9.2448751"
       end_point="17.255329,29.300879"
       center_point="17.255329,19.272877"
       id="path-effect5"
       is_visible="true"
       lpeversion="1.2"
       lpesatellites=""
       mode="free"
       discard_orig_path="false"
       fuse_paths="true"
       oposite_fuse="false"
       split_items="false"
       split_open="false"
       link_styles="false" /><inkscape:path-effect
       effect="mirror_symmetry"
       start_point="27.030316,8.4102839"
       end_point="27.030316,28.182973"
       center_point="27.030316,18.296628"
       id="path-effect3"
       is_visible="true"
       lpeversion="1.2"
       lpesatellites=""
       mode="free"
       discard_orig_path="false"
       fuse_paths="false"
       oposite_fuse="false"
       split_items="false"
       split_open="false"
       link_styles="false" /><inkscape:path-effect
       effect="spiro"
       id="path-effect8-8"
       is_visible="true"
       lpeversion="1" /><inkscape:path-effect
       effect="spiro"
       id="path-effect8-0"
       is_visible="true"
       lpeversion="1" /><inkscape:path-effect
       effect="spiro"
       id="path-effect8-0-9"
       is_visible="true"
       lpeversion="1" /><inkscape:path-effect
       effect="spiro"
       id="path-effect8-8-6"
       is_visible="true"
       lpeversion="1" /><inkscape:path-effect
       effect="spiro"
       id="path-effect8-3"
       is_visible="true"
       lpeversion="1" /></defs><g
     inkscape:groupmode="layer"
     id="layer4"
     inkscape:label="Ebene 4"
     transform="translate(-2.7759691,3.8754204)"><path
       id="path9-2"
       style="fill:#000000;fill-opacity:0.455641;stroke:#322d21;stroke-width:0;stroke-linejoin:round;stroke-miterlimit:8.2;stroke-dasharray:none;stroke-opacity:0.995995"
       d="m 14.330146,4.2088108 c -1.10287,-0.021652 -1.851471,1.1844178 -1.638062,2.1995319 0.03706,1.5668351 -0.09233,3.1466553 0.09076,4.7042743 0.616057,1.40339 3.040675,1.285968 3.443045,-0.222055 0.04194,-0.9983605 -0.01118,-2.001369 0.0248,-3.001296 1.223774,-0.032628 2.462534,0.076076 3.676054,-0.078033 1.48356,-0.5047803 1.589943,-2.9920851 0.09315,-3.5494921 -0.928117,-0.1079354 -1.883561,-0.027863 -2.82216,-0.055202 -0.955864,3.835e-4 -1.911729,0.00159 -2.867592,0.00232 z" /><path
       id="path9-1-2"
       style="fill:#000000;fill-opacity:0.455641;stroke:#322d21;stroke-width:0;stroke-linejoin:round;stroke-miterlimit:8.2;stroke-dasharray:none;stroke-opacity:0.995995"
       d="m 40.848279,26.502122 c -0.930903,2.5e-4 -1.833057,0.884425 -1.61719,1.843833 -0.0023,0.791365 0.01189,1.582987 -0.0095,2.374162 -1.228383,0.03271 -2.471788,-0.07626 -3.689886,0.07829 -1.487573,0.50711 -1.59381,3.000568 -0.09224,3.559374 0.915015,0.106334 1.857297,0.02517 2.782823,0.05867 1.12846,-0.01789 2.268844,0.03566 3.389305,-0.07852 0.940895,-0.266192 1.333351,-1.359063 1.178345,-2.250955 -0.03554,-1.539296 0.09166,-3.091576 -0.09203,-4.621553 -0.306452,-0.703457 -1.125519,-1.010516 -1.849475,-0.96328 z" /><path
       id="path9-7-1"
       style="fill:#000000;fill-opacity:0.455641;stroke:#322d21;stroke-width:0;stroke-linejoin:round;stroke-miterlimit:8.2;stroke-dasharray:none;stroke-opacity:0.995995"
       d="m 40.884236,4.2028095 c -1.660726,0.073911 -3.335611,-0.088636 -4.987313,0.1029381 -1.391599,0.6285703 -1.268746,3.0494244 0.236646,3.4514817 1.000514,0.04201 2.005686,-0.011174 3.007769,0.02485 0.03018,1.2259452 -0.07674,2.4668637 0.077,3.6825337 0.505672,1.486176 2.997359,1.592746 3.555751,0.09332 0.106176,-0.913779 0.02511,-1.8547883 0.05856,-2.7790616 -0.01799,-1.1300667 0.03584,-2.2717472 -0.0789,-3.394011 -0.230219,-0.784366 -1.083661,-1.2451799 -1.869506,-1.182045 z" /><path
       id="path9-1-1-6"
       style="fill:#000000;fill-opacity:0.455641;stroke:#322d21;stroke-width:0;stroke-linejoin:round;stroke-miterlimit:8.2;stroke-dasharray:none;stroke-opacity:0.995995"
       d="m 14.458623,25.782063 c -0.946743,0.0084 -1.862401,0.904709 -1.637945,1.882187 0.04177,1.867297 -0.09721,3.748189 0.08947,5.606305 0.289923,0.975022 1.434177,1.324442 2.34976,1.177318 1.560752,-0.03675 3.134985,0.09428 4.686092,-0.09348 1.450438,-0.634452 1.327068,-3.138112 -0.229148,-3.553019 -1.030645,-0.04512 -2.066213,0.01472 -3.098383,-0.02681 -0.0292,-1.261178 0.07497,-2.535902 -0.0758,-3.787745 -0.275745,-0.850272 -1.243367,-1.27285 -2.084044,-1.204775 z" /><path
       id="path9"
       style="fill:#f8f7c7;fill-opacity:1;stroke:#322d21;stroke-width:0;stroke-linejoin:round;stroke-miterlimit:8.2;stroke-dasharray:none;stroke-opacity:0.995995"
       d="M 13.25595 5.8397489 L 10.143478 2.7159085 C 9.7622594 3.1553016 9.5773664 3.7872182 9.6975104 4.3587023 C 9.7345694 5.9255379 9.605368 7.5051887 9.788461 9.062808 C 10.404518 10.466198 12.829292 10.349139 13.231662 8.8411161 C 13.273602 7.8427557 13.21998 6.8396752 13.25595 5.8397489 z " /><path
       id="path3"
       style="fill:#eeeca4;fill-opacity:1;stroke:#322d21;stroke-width:0;stroke-linejoin:round;stroke-miterlimit:8.2;stroke-dasharray:none;stroke-opacity:0.995995"
       d="M 15.618079 2.1541857 C 15.145878 2.1572929 14.672478 2.1704325 14.203179 2.1567695 C 13.247316 2.1571518 12.291517 2.1586234 11.335653 2.1593534 C 10.853672 2.1498909 10.439409 2.3748183 10.143478 2.7159085 L 13.25595 5.8397489 C 14.479724 5.8071209 15.718691 5.9158265 16.932211 5.7617175 C 18.41577 5.2569378 18.522012 2.7694704 17.025229 2.2120633 C 16.561169 2.1580956 16.09028 2.1510785 15.618079 2.1541857 z " /><path
       id="path9-7"
       style="fill:#7da8ee;fill-opacity:1;stroke:#322d21;stroke-width:0;stroke-linejoin:round;stroke-miterlimit:8.2;stroke-dasharray:none;stroke-opacity:0.995995"
       d="m 37.884474,2.1495988 c -1.660726,0.07391 -3.335613,-0.088636 -4.987314,0.1029381 -1.391598,0.6285691 -1.268745,3.0494238 0.236648,3.4514809 1.000512,0.042011 2.005684,-0.011174 3.007768,0.02485 0.03018,1.2259451 -0.07674,2.4668644 0.077,3.6825335 0.50567,1.4861747 2.99736,1.5927467 3.55575,0.093316 0.106189,-0.9137777 0.02513,-1.8547876 0.05858,-2.7790616 -0.018,-1.1300654 0.03583,-2.2717451 -0.0789,-3.3940096 C 39.523788,2.5472805 38.670347,2.086466 37.884501,2.1496009 Z" /><path
       id="path9-77"
       style="fill:#f8f7c7;fill-opacity:1;stroke:#322d21;stroke-width:0;stroke-linejoin:round;stroke-miterlimit:8.2;stroke-dasharray:none;stroke-opacity:0.995995"
       d="m 36.135175,5.7283068 3.12384,-3.112472 c -0.439393,-0.381219 -1.07131,-0.566112 -1.642794,-0.445968 -1.566835,0.03706 -3.146486,-0.09214 -4.704105,0.09095 -1.40339,0.616057 -1.286331,3.040831 0.221692,3.443201 0.99836,0.04194 2.00144,-0.01168 3.001367,0.02429 z" /><path
       id="path3-9"
       style="fill:#eeeca4;fill-opacity:1;stroke:#322d21;stroke-width:0;stroke-linejoin:round;stroke-miterlimit:8.2;stroke-dasharray:none;stroke-opacity:0.995995"
       d="m 39.820738,8.0904353 c -0.0031,-0.4722005 -0.01625,-0.9456005 -0.0026,-1.4148995 -3.82e-4,-0.955863 -0.0019,-1.911662 -0.0026,-2.867526 0.0095,-0.481981 -0.215465,-0.896244 -0.556555,-1.192175 l -3.123841,3.112472 c 0.03263,1.223774 -0.07608,2.4627405 0.07803,3.6762605 0.50478,1.4835587 2.992248,1.5898007 3.549655,0.09302 0.05397,-0.46406 0.06099,-0.934949 0.05788,-1.40715 z" /><path
       id="path4"
       style="fill:#f8f7c7;fill-opacity:1;stroke:#322d21;stroke-width:0;stroke-linejoin:round;stroke-miterlimit:8.2;stroke-dasharray:none;stroke-opacity:0.995995"
       d="M 12.833886,28.517433 9.7214136,31.641274 C 9.340195,31.201881 9.155302,30.569964 9.275446,29.99848 c 0.037059,-1.566836 -0.092142,-3.146486 0.090951,-4.704106 0.616057,-1.40339 3.0408314,-1.286331 3.4432014,0.221692 0.04194,0.998361 -0.01168,2.001441 0.02429,3.001367 z" /><path
       id="path5"
       style="fill:#eeeca4;fill-opacity:1;stroke:#322d21;stroke-width:0;stroke-linejoin:round;stroke-miterlimit:8.2;stroke-dasharray:none;stroke-opacity:0.995995"
       d="m 15.196015,32.202997 c -0.472201,-0.0031 -0.945601,-0.01625 -1.4149,-0.0026 -0.955863,-3.82e-4 -1.911662,-0.0019 -2.867526,-0.0026 -0.481981,0.0095 -0.896244,-0.215465 -1.1921754,-0.556555 l 3.1124724,-3.123809 c 1.223774,0.03263 2.462741,-0.07608 3.676261,0.07803 1.483559,0.50478 1.589801,2.992247 0.09302,3.549654 -0.46406,0.05397 -0.934949,0.06098 -1.40715,0.05788 z" /><path
       id="path6"
       style="fill:#f8f7c7;fill-opacity:1;stroke:#322d21;stroke-width:0;stroke-linejoin:round;stroke-miterlimit:8.2;stroke-dasharray:none;stroke-opacity:0.995995"
       d="m 36.131137,28.765644 3.12384,3.112473 c -0.439393,0.381219 -1.07131,0.566112 -1.642794,0.445968 -1.566835,-0.03706 -3.146486,0.09214 -4.704105,-0.09095 -1.40339,-0.616058 -1.286331,-3.040832 0.221692,-3.443202 0.99836,-0.04194 2.00144,0.01168 3.001367,-0.02429 z" /><path
       id="path7"
       style="fill:#eeeca4;fill-opacity:1;stroke:#322d21;stroke-width:0;stroke-linejoin:round;stroke-miterlimit:8.2;stroke-dasharray:none;stroke-opacity:0.995995"
       d="m 39.8167,26.403516 c -0.0031,0.4722 -0.01625,0.9456 -0.0026,1.414899 -3.82e-4,0.955863 -0.0019,1.911662 -0.0026,2.867526 0.0095,0.481981 -0.215465,0.896244 -0.556555,1.192176 l -3.123841,-3.112473 c 0.03263,-1.223774 -0.07608,-2.46274 0.07803,-3.67626 0.50478,-1.483559 2.992248,-1.589801 3.549655,-0.09302 0.05397,0.46406 0.06099,0.934949 0.05788,1.40715 z" /></g></svg>
