<?xml version="1.0" encoding="UTF-8" standalone="no"?>
<!-- Created with Inkscape (http://www.inkscape.org/) -->

<svg
   width="93.330315mm"
   height="11.064895mm"
   viewBox="0 0 93.330312 11.064895"
   version="1.1"
   id="svg1"
   inkscape:version="1.4.2 (f4327f4, 2025-05-13)"
   sodipodi:docname="ItemnameUnderline.svg"
   xmlns:inkscape="http://www.inkscape.org/namespaces/inkscape"
   xmlns:sodipodi="http://sodipodi.sourceforge.net/DTD/sodipodi-0.dtd"
   xmlns="http://www.w3.org/2000/svg"
   xmlns:svg="http://www.w3.org/2000/svg">
  <sodipodi:namedview
     id="namedview1"
     pagecolor="#ffffff"
     bordercolor="#000000"
     borderopacity="0.25"
     inkscape:showpageshadow="2"
     inkscape:pageopacity="0.0"
     inkscape:pagecheckerboard="0"
     inkscape:deskcolor="#d1d1d1"
     inkscape:document-units="mm"
     inkscape:zoom="1.6079896"
     inkscape:cx="18.967784"
     inkscape:cy="86.754291"
     inkscape:window-width="3840"
     inkscape:window-height="2054"
     inkscape:window-x="-11"
     inkscape:window-y="-11"
     inkscape:window-maximized="1"
     inkscape:current-layer="layer1" />
  <defs
     id="defs1">
    <inkscape:path-effect
       effect="mirror_symmetry"
       start_point="86.467311,31.485528"
       end_point="86.467311,39.078947"
       center_point="86.467311,35.282238"
       id="path-effect1"
       is_visible="true"
       lpeversion="1.2"
       lpesatellites=""
       mode="free"
       discard_orig_path="false"
       fuse_paths="true"
       oposite_fuse="false"
       split_items="false"
       split_open="false"
       link_styles="false" />
  </defs>
  <g
     inkscape:label="Ebene 1"
     inkscape:groupmode="layer"
     id="layer1"
     transform="translate(-41.529458,-26.698261)">
    <g
       id="path1"
       style="opacity:1">
      <path
         style="baseline-shift:baseline;display:inline;overflow:visible;vector-effect:none;fill:#b2e6ad;fill-opacity:0;stroke-linecap:round;stroke-linejoin:round;paint-order:fill markers stroke;enable-background:accumulate;stop-color:#000000;stop-opacity:1"
         d="m 28.465927,38.173961 c 29.512636,10.948106 5.380404,-6.634913 19.909695,-6.663989 27.484288,-0.055 38.091689,0 38.091689,0 0,0 10.607401,-0.055 38.091689,0 14.52929,0.02908 -9.60294,17.612095 19.90969,6.663989"
         id="path2" />
      <path
         style="baseline-shift:baseline;display:inline;overflow:visible;opacity:0.425439;fill:#ffffff;stroke:#000000;stroke-width:1.30001;stroke-linecap:round;stroke-linejoin:round;stroke-dasharray:none;stroke-opacity:1;paint-order:fill markers stroke;enable-background:accumulate;stop-color:#000000;stop-opacity:1"
         d="m 63.67554,28.230113 c -1.977961,0.0026 -3.458846,0.185039 -4.623047,0.63567 -1.164201,0.450631 -1.863481,1.236847 -2.042969,1.962452 -0.358976,1.451213 0.539828,2.737191 0.75586,3.556141 0.108015,0.409474 0.01404,0.609944 0.05078,0.567331 0.03674,-0.04261 0.154259,0.01772 -0.611328,0.04384 -1.531176,0.05223 -5.566973,-0.509115 -12.88086,-2.300273 -0.828426,-0.202933 -1.749195,0.07589 -2.05664,0.622775 -0.307201,0.547266 0.116131,1.155288 0.945312,1.35773 7.442431,1.822637 11.45775,2.52127 14.15625,2.429212 1.34925,-0.04603 2.62688,-0.409836 3.228516,-1.107588 0.601636,-0.697751 0.476205,-1.384376 0.320312,-1.975345 -0.311785,-1.18194 -0.874863,-2.348646 -0.75,-2.853423 0.06243,-0.252388 0.09156,-0.320044 0.503907,-0.479653 0.412348,-0.15961 1.355403,-0.34466 3.009765,-0.346846 27.48133,-0.0363 22.777585,4.127788 22.777585,4.127788 0.0059,2.1e-5 0.01172,2.1e-5 0.01758,0 0,0 -1.248342,-5.045739 26.232987,-5.009436 1.65436,0.0022 2.59742,0.187237 3.00977,0.346847 0.41234,0.159608 0.44147,0.227264 0.5039,0.479653 0.12487,0.504776 -0.44017,1.671482 -0.75195,2.853421 -0.15589,0.59097 -0.27937,1.277596 0.32227,1.975346 0.60163,0.697752 1.87731,1.061559 3.22656,1.107588 2.6985,0.09206 6.71577,-0.606575 14.1582,-2.429213 0.82841,-0.202965 1.25075,-0.810828 0.94336,-1.357729 -0.30745,-0.546888 -1.22822,-0.825708 -2.05664,-0.622775 -7.31389,1.791158 -11.34773,2.352509 -12.87891,2.300273 -0.76558,-0.02612 -0.64807,-0.08645 -0.61133,-0.04384 0.0367,0.04261 -0.0592,-0.157858 0.0488,-0.567332 0.21603,-0.81895 1.11679,-2.104928 0.75782,-3.55614 -0.17949,-0.725606 -0.87877,-1.511822 -2.04297,-1.962453 -1.1642,-0.450631 -2.64509,-0.633057 -4.62305,-0.63567 -27.474566,-0.0363 -26.229055,5.009403 -26.238847,5.009436 0,0 4.686224,-4.164104 -22.801022,-4.127788 z"
         id="path3"
         sodipodi:nodetypes="cssssccccssssscccsssssscccsccsssccc" />
    </g>
  </g>
</svg>
