<?xml version="1.0" encoding="UTF-8" standalone="no"?>
<!-- Created with Inkscape (http://www.inkscape.org/) -->

<svg
   width="42.848801"
   height="39.527973"
   viewBox="0 0 11.337078 10.458442"
   version="1.1"
   id="svg1"
   inkscape:version="1.4.2 (f4327f4, 2025-05-13)"
   sodipodi:docname="KeywordGhostFruitSymbol.svg"
   xmlns:inkscape="http://www.inkscape.org/namespaces/inkscape"
   xmlns:sodipodi="http://sodipodi.sourceforge.net/DTD/sodipodi-0.dtd"
   xmlns="http://www.w3.org/2000/svg"
   xmlns:svg="http://www.w3.org/2000/svg">
  <sodipodi:namedview
     id="namedview1"
     pagecolor="#ffffff"
     bordercolor="#000000"
     borderopacity="0.25"
     inkscape:showpageshadow="2"
     inkscape:pageopacity="0.0"
     inkscape:pagecheckerboard="0"
     inkscape:deskcolor="#d1d1d1"
     inkscape:document-units="mm"
     inkscape:zoom="2.271521"
     inkscape:cx="32.797408"
     inkscape:cy="59.651661"
     inkscape:window-width="3840"
     inkscape:window-height="2054"
     inkscape:window-x="-11"
     inkscape:window-y="-11"
     inkscape:window-maximized="1"
     inkscape:current-layer="layer1" />
  <defs
     id="defs1">
    <inkscape:path-effect
       effect="spiro"
       id="path-effect9"
       is_visible="true"
       lpeversion="1" />
    <inkscape:path-effect
       effect="spiro"
       id="path-effect8"
       is_visible="true"
       lpeversion="1" />
    <inkscape:path-effect
       effect="mirror_symmetry"
       start_point="17.255329,9.2448751"
       end_point="17.255329,29.300879"
       center_point="17.255329,19.272877"
       id="path-effect5"
       is_visible="true"
       lpeversion="1.2"
       lpesatellites=""
       mode="free"
       discard_orig_path="false"
       fuse_paths="true"
       oposite_fuse="false"
       split_items="false"
       split_open="false"
       link_styles="false" />
    <inkscape:path-effect
       effect="mirror_symmetry"
       start_point="27.030316,8.4102839"
       end_point="27.030316,28.182973"
       center_point="27.030316,18.296628"
       id="path-effect3"
       is_visible="true"
       lpeversion="1.2"
       lpesatellites=""
       mode="free"
       discard_orig_path="false"
       fuse_paths="false"
       oposite_fuse="false"
       split_items="false"
       split_open="false"
       link_styles="false" />
    <inkscape:path-effect
       effect="spiro"
       id="path-effect8-8"
       is_visible="true"
       lpeversion="1" />
    <inkscape:path-effect
       effect="spiro"
       id="path-effect8-0"
       is_visible="true"
       lpeversion="1" />
    <inkscape:path-effect
       effect="spiro"
       id="path-effect8-0-9"
       is_visible="true"
       lpeversion="1" />
    <inkscape:path-effect
       effect="spiro"
       id="path-effect8-8-6"
       is_visible="true"
       lpeversion="1" />
    <inkscape:path-effect
       effect="spiro"
       id="path-effect8-3"
       is_visible="true"
       lpeversion="1" />
  </defs>
  <g
     inkscape:label="Ebene 1"
     inkscape:groupmode="layer"
     id="layer1"
     transform="translate(-75.755799,-55.932139)">
    <path
       id="path8"
       style="fill:#8a96db;fill-opacity:1;stroke:#000000;stroke-width:0.711932;stroke-linejoin:round;stroke-miterlimit:8.2;stroke-dasharray:none;stroke-opacity:0.997998"
       d="m 83.599,60.503702 c -0.10306,2.035023 -1.861623,3.576407 -3.927859,3.442776 -2.066236,-0.133628 -3.657704,-1.89167 -3.554643,-3.926692 0.08018,-1.583333 1.364185,-2.741427 2.743325,-2.484801 0.39344,0.07321 1.014591,0.643469 1.014591,0.643469 0,0 0.693222,-0.486072 1.203655,-0.516609 1.570708,-0.09397 2.60494,1.183023 2.520931,2.841857 z"
       sodipodi:nodetypes="sssscss" />
    <g
       id="path9"
       style="opacity:1;fill:#8a96db;fill-opacity:1;stroke:#000000;stroke-width:0.859204;stroke-dasharray:none;stroke-opacity:0.997998"
       transform="matrix(0.35757222,0,0,0.62766005,73.215776,49.011996)">
      <path
         style="baseline-shift:baseline;display:inline;overflow:visible;fill:#8a96db;fill-opacity:1;stroke:#000000;stroke-width:0.859204;stroke-linecap:round;stroke-linejoin:round;stroke-miterlimit:8.2;stroke-dasharray:none;stroke-opacity:0.997998;enable-background:accumulate;stop-color:#000000;stop-opacity:1"
         d="m 16.794207,11.454907 c -0.225446,0 -0.440981,0.07486 -0.498047,0.292969 -0.05733,0.218995 -0.290098,0.777837 0.03089,0.747517 0,0 1.205652,-0.03938 1.428092,1.109905 0.127967,0.661127 0.158623,1.097556 0.158203,1.357422 -4.2e-4,0.259866 -0.01953,0.300781 -0.01953,0.300781 -0.06161,0.218513 0.06631,0.445441 0.285157,0.505859 0.217887,0.06035 1.156889,-0.06729 1.217337,-0.285156 0,0 0.04831,-0.199145 0.04883,-0.521484 5.21e-4,-0.32234 -0.03558,-0.80954 -0.171875,-1.513672 -0.30604,-1.581236 -2.479056,-1.994141 -2.479056,-1.994141 z"
         id="path4"
         sodipodi:nodetypes="scccscccsccs" />
    </g>
    <path
       style="fill:#ffffff;fill-opacity:1;stroke:#000000;stroke-width:0.711932;stroke-linecap:round;stroke-linejoin:round;stroke-dasharray:none;stroke-opacity:0.997998"
       d="m 81.523583,58.61138 c 0,0 0.46334,0.04128 0.849729,0.606434 0.386388,0.565155 0.316717,0.983158 0.316717,0.983158"
       id="path1"
       sodipodi:nodetypes="czc" />
    <path
       style="fill:#ffffff;fill-opacity:1;stroke:#000000;stroke-width:0.711932;stroke-linecap:round;stroke-linejoin:round;stroke-dasharray:none;stroke-opacity:0.997998"
       d="m 82.627116,60.880859 -0.02503,0.138808"
       id="path2"
       sodipodi:nodetypes="cc" />
    <path
       style="fill:#8a96db;fill-opacity:1;stroke:#000000;stroke-width:0.76797;stroke-linecap:round;stroke-linejoin:round;stroke-dasharray:none;stroke-opacity:0.997998;paint-order:fill markers stroke"
       d="m 76.929444,62.541707 c 0.744982,0.833013 1.174913,1.134792 1.874649,1.358605 1.166622,0.373147 1.527053,-0.189814 2.727714,0.775775 1.200661,0.965589 2.52492,1.94906 4.131688,0.858302 1.606768,-1.090758 0.882838,-2.36033 0.882838,-2.36033 l -1.571454,1.162283 c 0,0 -0.550116,0.341267 -1.059407,-0.607963 -0.22917,-0.427135 -0.441571,-1.145827 -1.130185,-1.288877"
       id="path3"
       sodipodi:nodetypes="csssccsc" />
  </g>
</svg>
