<?xml version="1.0" encoding="UTF-8" standalone="no"?>
<!-- Created with Inkscape (http://www.inkscape.org/) -->

<svg
   width="169.97189mm"
   height="301.75809mm"
   viewBox="0 0 404.69498 718.47164"
   version="1.1"
   id="svg1"
   xml:space="preserve"
   sodipodi:docname="UpgrageOverviewPanel19.svg"
   inkscape:version="1.4.2 (f4327f4, 2025-05-13)"
   inkscape:export-filename="UpgrageOverviewPaneltest1.png"
   inkscape:export-xdpi="96"
   inkscape:export-ydpi="96"
   xmlns:inkscape="http://www.inkscape.org/namespaces/inkscape"
   xmlns:sodipodi="http://sodipodi.sourceforge.net/DTD/sodipodi-0.dtd"
   xmlns="http://www.w3.org/2000/svg"
   xmlns:svg="http://www.w3.org/2000/svg"><sodipodi:namedview
     id="namedview1"
     pagecolor="#ffffff"
     bordercolor="#000000"
     borderopacity="0.25"
     inkscape:showpageshadow="2"
     inkscape:pageopacity="0.0"
     inkscape:pagecheckerboard="0"
     inkscape:deskcolor="#d1d1d1"
     inkscape:document-units="mm"
     inkscape:zoom="1.1508788"
     inkscape:cx="149.45101"
     inkscape:cy="627.78114"
     inkscape:window-width="3840"
     inkscape:window-height="2054"
     inkscape:window-x="-11"
     inkscape:window-y="-11"
     inkscape:window-maximized="1"
     inkscape:current-layer="layer4" /><defs
     id="defs1" /><g
     inkscape:groupmode="layer"
     id="layer2"
     inkscape:label="Marker"
     transform="translate(0,0.11887)" /><g
     inkscape:groupmode="layer"
     id="layer19"
     inkscape:label="Special1"
     transform="translate(0,0.11887)"><path
       id="path95"
       style="fill:#865ccc;fill-opacity:1;stroke:#404040;stroke-width:0;stroke-linecap:round;stroke-dasharray:none;stroke-dashoffset:0;stroke-opacity:0;paint-order:fill markers stroke"
       d="m 349.75,610.52148 c 0.38932,0.66016 0.77865,1.32032 1.16797,1.98047 2.63802,-1.05859 5.27604,-2.11718 7.91406,-3.17578 -1.54036,-1.16406 -3.08073,-2.32812 -4.62109,-3.49219 -1.48698,1.5625 -2.97396,3.125 -4.46094,4.6875 z" /></g><g
     inkscape:groupmode="layer"
     id="layer21"
     inkscape:label="Special3"
     transform="translate(0,0.11887)" /><g
     inkscape:groupmode="layer"
     id="layer22"
     inkscape:label="Special4"
     transform="translate(0,0.11887)" /><g
     inkscape:groupmode="layer"
     id="layer20"
     inkscape:label="Special2"
     transform="translate(0,0.11887)"><path
       id="path91"
       style="fill:#9970df;fill-opacity:1;stroke:#404040;stroke-width:0;stroke-linecap:round;stroke-dasharray:none;stroke-dashoffset:0;stroke-opacity:0;paint-order:fill markers stroke"
       d="m 190.30273,670.58008 c 0.20861,0.45934 0.27084,1.57784 1.00007,1.17131 0.51819,-0.29181 0.10627,-1.10449 -0.21427,-1.41768 -0.46387,-0.31565 -0.60897,-0.31583 -0.7858,0.24637 z" /></g><g
     inkscape:groupmode="layer"
     id="layer15"
     inkscape:label="Active1"
     transform="translate(0,0.11887)" /><g
     inkscape:groupmode="layer"
     id="layer16"
     inkscape:label="Active2"
     transform="translate(0,0.11887)"><path
       id="path83"
       style="fill:#e58f7d;fill-opacity:1;stroke:#404040;stroke-width:0;stroke-linecap:round;stroke-dasharray:none;stroke-dashoffset:0;stroke-opacity:0;paint-order:fill markers stroke"
       d="m 297.29102,533.68945 c -0.90442,0.23596 -0.29142,1.54401 0.48437,1.37891 0.67715,-0.15516 0.74292,-1.15578 0.041,-1.33789 -0.17453,-0.0563 -0.34415,-0.0672 -0.52539,-0.041 z" /></g><g
     inkscape:groupmode="layer"
     id="layer18"
     inkscape:label="Active4"
     transform="translate(0,0.11887)" /><g
     inkscape:groupmode="layer"
     id="layer17"
     inkscape:label="Active3"
     transform="translate(0,0.11887)" /><g
     inkscape:groupmode="layer"
     id="layer11"
     inkscape:label="Synergy1"
     transform="translate(0,0.11887)"><path
       id="path63"
       style="fill:#85b8e4;fill-opacity:1;stroke:#404040;stroke-width:0;stroke-linecap:round;stroke-dasharray:none;stroke-dashoffset:0;stroke-opacity:0;paint-order:fill markers stroke"
       d="m 79.814453,357.22266 c -0.874368,0.38824 -0.131764,1.88164 0.696199,1.35859 0.690047,-0.29242 0.517193,-1.42382 -0.264807,-1.40689 -0.149334,-0.0273 -0.288654,0.007 -0.431392,0.0483 z" /></g><g
     inkscape:groupmode="layer"
     id="layer14"
     inkscape:label="Synergy4"
     transform="translate(0,0.11887)" /><g
     inkscape:groupmode="layer"
     id="layer12"
     inkscape:label="Synergy2"
     transform="translate(0,0.11887)"><path
       id="path73"
       style="fill:#94c4ed;fill-opacity:1;stroke:#404040;stroke-width:0;stroke-linecap:round;stroke-dasharray:none;stroke-dashoffset:0;stroke-opacity:0;paint-order:fill markers stroke"
       d="m 157.38672,402.6543 c -0.6395,0.23061 0.29013,0.98827 0.50586,0.40039 0.30884,-0.38301 -0.24227,-0.47881 -0.50586,-0.40039 z" /><path
       id="path62"
       style="fill:#94c4ed;fill-opacity:1;stroke:#404040;stroke-width:0;stroke-linecap:round;stroke-dasharray:none;stroke-dashoffset:0;stroke-opacity:0;paint-order:fill markers stroke"
       d="m 21.560547,336.73828 c -0.603936,0.0803 -0.960598,0.7171 -0.63883,1.25425 -0.05222,0.63348 0.520113,0.92904 1.054845,0.65005 0.805017,-0.42548 0.620768,-1.99082 -0.416015,-1.9043 z" /></g><g
     inkscape:groupmode="layer"
     id="layer13"
     inkscape:label="Synergy3"
     transform="translate(0,0.11887)"><path
       id="path66"
       style="fill:#74a4ce;fill-opacity:1;stroke:#404040;stroke-width:0;stroke-linecap:round;stroke-dasharray:none;stroke-dashoffset:0;stroke-opacity:0;paint-order:fill markers stroke"
       d="m 199.3457,374.49023 c -0.82219,0.35819 0.21515,1.54752 0.72472,0.84899 0.52265,-0.51513 -0.18949,-1.06393 -0.72472,-0.84899 z" /></g><g
     inkscape:groupmode="layer"
     id="layer7"
     inkscape:label="Bodymod1"
     transform="translate(0,0.11887)" /><g
     inkscape:groupmode="layer"
     id="layer8"
     inkscape:label="Bodymod2"
     transform="translate(0,0.11887)"><path
       id="path52"
       style="fill:#a6d68e;fill-opacity:1;stroke:#404040;stroke-width:0;stroke-linecap:round;stroke-dasharray:none;stroke-dashoffset:0;stroke-opacity:0;paint-order:fill markers stroke"
       d="m 150.47266,237.48438 c -0.52946,0.42988 -0.39779,1.16644 -0.0352,1.65904 0.37631,0.39125 1.1151,0.60719 1.40124,-0.0397 0.5668,-0.31103 0.58543,-1.06831 0.0572,-1.42269 -0.29606,-0.40494 -1.00927,-0.4228 -1.42322,-0.19667 z" /></g><g
     inkscape:groupmode="layer"
     id="layer9"
     inkscape:label="Bodymod3"
     transform="translate(0,0.11887)" /><g
     inkscape:groupmode="layer"
     id="layer10"
     inkscape:label="Bodymod4"
     transform="translate(0,0.11887)"><path
       id="path60"
       style="fill:#90b57f;fill-opacity:1;stroke:#404040;stroke-width:0;stroke-linecap:round;stroke-dasharray:none;stroke-dashoffset:0;stroke-opacity:0;paint-order:fill markers stroke"
       d="m 151.8457,297.53906 c -0.9564,0.58855 0.27216,2.24152 1.0899,1.46702 0.81733,-0.7154 -0.21841,-1.84941 -1.0899,-1.46702 z" /><path
       id="path58"
       style="fill:#90b57f;fill-opacity:1;stroke:#404040;stroke-width:0;stroke-linecap:round;stroke-dasharray:none;stroke-dashoffset:0;stroke-opacity:0;paint-order:fill markers stroke"
       d="m 283.40625,319.74023 c -0.42544,0.11724 -0.32177,0.7645 0.14147,0.61753 0.43757,0.0326 0.6618,-0.74258 0.0734,-0.66245 -0.0716,0.015 -0.14323,0.0299 -0.21484,0.0449 z" /></g><g
     inkscape:label="Passive1"
     inkscape:groupmode="layer"
     id="layer1"
     transform="translate(83.28501,206.63068)" /><g
     inkscape:groupmode="layer"
     id="layer3"
     inkscape:label="Passive2"
     transform="translate(0,0.11887)"><path
       id="path19"
       style="fill:#e2bf97;fill-opacity:1;stroke:#404040;stroke-width:0;stroke-linecap:round;stroke-dasharray:none;stroke-dashoffset:0;stroke-opacity:0;paint-order:fill markers stroke"
       d="m 263.10742,171.0625 c -0.59814,0.28841 -0.78293,1.09867 -0.25556,1.55028 0.26405,0.80356 1.43526,0.26471 1.49017,-0.40634 0.19022,-0.67861 -0.53477,-1.48933 -1.23461,-1.14394 z" /><path
       id="path8"
       style="fill:#e2bf97;fill-opacity:1;stroke:#404040;stroke-width:0;stroke-linecap:round;stroke-dasharray:none;stroke-dashoffset:0;stroke-opacity:0;paint-order:fill markers stroke"
       d="m 108.58008,129.54102 c -0.76068,0.31262 -0.16629,1.75467 0.58185,1.18397 0.59118,-0.32877 0.42667,-1.41224 -0.35334,-1.24452 -0.0762,0.0202 -0.15234,0.0404 -0.22851,0.0606 z" /></g><g
     inkscape:groupmode="layer"
     id="layer4"
     inkscape:label="Passive3"
     transform="translate(0,0.11887)"><path
       id="path13"
       style="fill:#d0aa7e;fill-opacity:1;stroke:#404040;stroke-width:0;stroke-linecap:round;stroke-dasharray:none;stroke-dashoffset:0;stroke-opacity:0;paint-order:fill markers stroke"
       d="m 24.273438,49.669922 c -0.883317,0.134818 -1.228805,1.35631 -0.50586,1.912109 0.810196,0.357067 1.79552,-0.502219 1.392578,-1.355469 -0.155362,-0.343777 -0.492116,-0.615173 -0.886718,-0.55664 z" /></g><g
     inkscape:groupmode="layer"
     id="layer6"
     inkscape:label="Passive4"
     transform="translate(0,0.11887)"><path
       id="path6"
       style="fill:#d6b186;fill-opacity:1;stroke:#404040;stroke-width:0;stroke-linecap:round;stroke-dasharray:none;stroke-dashoffset:0;stroke-opacity:0;paint-order:fill markers stroke"
       d="m 143.18359,125.20508 c -0.87358,0.48032 0.48675,1.66438 0.95241,0.85496 0.47301,-0.56988 -0.47308,-1.09374 -0.95241,-0.85496 z" /></g></svg>
