<?xml version="1.0" encoding="UTF-8" standalone="no"?>
<!-- Created with Inkscape (http://www.inkscape.org/) -->

<svg
   width="169.97189mm"
   height="301.75809mm"
   viewBox="0 0 404.69498 718.47164"
   version="1.1"
   id="svg1"
   xml:space="preserve"
   sodipodi:docname="UpgrageOverviewPanel7.svg"
   inkscape:version="1.4.2 (f4327f4, 2025-05-13)"
   inkscape:export-filename="UpgrageOverviewPaneltest1.png"
   inkscape:export-xdpi="96"
   inkscape:export-ydpi="96"
   xmlns:inkscape="http://www.inkscape.org/namespaces/inkscape"
   xmlns:sodipodi="http://sodipodi.sourceforge.net/DTD/sodipodi-0.dtd"
   xmlns="http://www.w3.org/2000/svg"
   xmlns:svg="http://www.w3.org/2000/svg"><sodipodi:namedview
     id="namedview1"
     pagecolor="#ffffff"
     bordercolor="#000000"
     borderopacity="0.25"
     inkscape:showpageshadow="2"
     inkscape:pageopacity="0.0"
     inkscape:pagecheckerboard="0"
     inkscape:deskcolor="#d1d1d1"
     inkscape:document-units="mm"
     inkscape:zoom="1.1508788"
     inkscape:cx="149.45101"
     inkscape:cy="627.78114"
     inkscape:window-width="3840"
     inkscape:window-height="2054"
     inkscape:window-x="-11"
     inkscape:window-y="-11"
     inkscape:window-maximized="1"
     inkscape:current-layer="layer4" /><defs
     id="defs1" /><g
     inkscape:groupmode="layer"
     id="layer2"
     inkscape:label="Marker"
     transform="translate(0,0.11887)" /><g
     inkscape:groupmode="layer"
     id="layer19"
     inkscape:label="Special1"
     transform="translate(0,0.11887)"><path
       id="path86"
       style="fill:#865ccc;fill-opacity:1;stroke:#404040;stroke-width:0;stroke-linecap:round;stroke-dasharray:none;stroke-dashoffset:0;stroke-opacity:0;paint-order:fill markers stroke"
       d="m 8.5546875,589.23242 c 9.1829425,16.29297 18.3658855,32.58594 27.5488285,48.87891 21.21875,-11.48568 42.4375,-22.97136 63.65625,-34.45703 -6.714844,-7.38347 -13.429688,-14.76693 -20.144532,-22.15039 -19.898437,-5.05795 -39.796875,-10.11589 -59.695312,-15.17383 -3.788412,7.63411 -7.576823,15.26823 -11.3652345,22.90234 z" /><path
       id="path90"
       style="fill:#865ccc;fill-opacity:1;stroke:#404040;stroke-width:0;stroke-linecap:round;stroke-dasharray:none;stroke-dashoffset:0;stroke-opacity:0;paint-order:fill markers stroke"
       d="m 60.269531,710.79492 c 31.098959,0 62.197919,0 93.296879,0 -11.36401,-4.36506 -22.74733,-8.68344 -34.07521,-13.1385 -0.92619,-0.39144 -1.83453,-0.96659 -2.7717,-1.24501 -18.816655,4.7945 -37.633312,9.58901 -56.449969,14.38351 z" /><path
       id="path92"
       style="fill:#865ccc;fill-opacity:1;stroke:#404040;stroke-width:0;stroke-linecap:round;stroke-dasharray:none;stroke-dashoffset:0;stroke-opacity:0;paint-order:fill markers stroke"
       d="m 278.29883,673.42773 c -7.96743,5.12409 -15.9363,10.24594 -23.9043,15.36915 13.79818,-4.95313 27.59636,-9.90626 41.39453,-14.85938 -6.24935,-0.47852 -12.4987,-0.95703 -18.74804,-1.43555 0.41927,0.3086 0.83854,0.61719 1.25781,0.92578 z" /><path
       id="path95"
       style="fill:#865ccc;fill-opacity:1;stroke:#404040;stroke-width:0;stroke-linecap:round;stroke-dasharray:none;stroke-dashoffset:0;stroke-opacity:0;paint-order:fill markers stroke"
       d="m 302.68164,605.15039 c 10.72201,18.17318 21.44401,36.34635 32.16602,54.51953 20.76302,-8.3164 41.52604,-16.63281 62.28906,-24.94922 0,-14.60481 0,-29.20963 0,-43.81445 -15.67578,-11.86003 -31.35156,-23.72005 -47.02734,-35.58008 -15.80925,16.60807 -31.61849,33.21615 -47.42774,49.82422 z" /></g><g
     inkscape:groupmode="layer"
     id="layer21"
     inkscape:label="Special3"
     transform="translate(0,0.11887)"><path
       id="path88"
       style="fill:#a381dc;fill-opacity:1;stroke:#404040;stroke-width:0;stroke-linecap:round;stroke-dasharray:none;stroke-dashoffset:0;stroke-opacity:0;paint-order:fill markers stroke"
       d="m 49.861328,647.84961 c 23.788412,11.29362 47.576823,22.58724 71.365232,33.88086 13.92904,-18.43555 27.85808,-36.8711 41.78711,-55.30664 -16.72135,-4.22266 -33.44271,-8.44531 -50.16406,-12.66797 -20.996094,11.36458 -41.992188,22.72917 -62.988282,34.09375 z" /><path
       id="path93"
       style="fill:#a381dc;fill-opacity:1;stroke:#404040;stroke-width:0;stroke-linecap:round;stroke-dasharray:none;stroke-dashoffset:0;stroke-opacity:0;paint-order:fill markers stroke"
       d="m 212.59961,625.06641 c 13.81706,10.17122 27.63411,20.34244 41.45117,30.51367 21.22982,1.6263 42.45964,3.2526 63.68945,4.8789 -9.81575,-16.64127 -19.63151,-33.28255 -29.44726,-49.92382 -27.93099,-7.77474 -55.86198,-15.54948 -83.79297,-23.32422 2.69987,12.61849 5.39974,25.23698 8.09961,37.85547 z" /></g><g
     inkscape:groupmode="layer"
     id="layer22"
     inkscape:label="Special4"
     transform="translate(0,0.11887)"><path
       id="path94"
       style="fill:#724eaf;fill-opacity:1;stroke:#404040;stroke-width:0;stroke-linecap:round;stroke-dasharray:none;stroke-dashoffset:0;stroke-opacity:0;paint-order:fill markers stroke"
       d="m 278.54688,560.64258 c -22.08901,-0.20209 -44.17869,-0.53143 -66.26758,-0.8125 -2.19466,4.00976 -4.38933,8.01953 -6.58399,12.0293 28.40755,7.90755 56.81511,15.8151 85.22266,23.72265 12.8737,-13.52409 25.74739,-27.04818 38.62109,-40.57226 -16.99739,1.8776 -33.99479,3.7552 -50.99218,5.63281 z" /><path
       id="path96"
       style="fill:#724eaf;fill-opacity:1;stroke:#404040;stroke-width:0;stroke-linecap:round;stroke-dasharray:none;stroke-dashoffset:0;stroke-opacity:0;paint-order:fill markers stroke"
       d="m 236.27148,710.79492 c 53.62175,0 107.24349,0 160.86524,0 0,-20.02213 0,-40.04427 0,-60.0664 -53.62175,20.02213 -107.24349,40.04427 -160.86524,60.0664 z" /></g><g
     inkscape:groupmode="layer"
     id="layer20"
     inkscape:label="Special2"
     transform="translate(0,0.11887)"><path
       id="path87"
       style="fill:#9970df;fill-opacity:1;stroke:#404040;stroke-width:0;stroke-linecap:round;stroke-dasharray:none;stroke-dashoffset:0;stroke-opacity:0;paint-order:fill markers stroke"
       d="m 94.158203,575.02344 c 7.249997,7.9733 14.499997,15.94661 21.749997,23.91992 26.65235,6.73112 53.30469,13.46224 79.95703,20.19336 -2.70377,-12.63802 -5.40755,-25.27604 -8.11132,-37.91406 -20.10482,-13.04167 -40.20964,-26.08334 -60.31446,-39.125 -11.09375,10.97526 -22.1875,21.95052 -33.281247,32.92578 z" /><path
       id="path89"
       style="fill:#9970df;fill-opacity:1;stroke:#404040;stroke-width:0;stroke-linecap:round;stroke-dasharray:none;stroke-dashoffset:0;stroke-opacity:0;paint-order:fill markers stroke"
       d="M 7.5585938,708.62695 C 36.851562,701.16211 66.144531,693.69727 95.4375,686.23242 72.874392,675.52009 50.310942,664.80848 27.748047,654.0957 21.019173,642.15377 14.288254,630.21298 7.5585938,618.27148 c -10e-8,30.11849 0,60.23698 0,90.35547 z" /><path
       id="path91"
       style="fill:#9970df;fill-opacity:1;stroke:#404040;stroke-width:0;stroke-linecap:round;stroke-dasharray:none;stroke-dashoffset:0;stroke-opacity:0;paint-order:fill markers stroke"
       d="m 135.64062,687.75391 c 19.30144,7.39127 38.60287,14.78255 57.9043,22.17382 19.36849,-12.45182 38.73698,-24.90364 58.10547,-37.35546 -16.3763,-12.05795 -32.7526,-24.11589 -49.12891,-36.17383 -7.86393,-1.98503 -15.72786,-3.97005 -23.59179,-5.95508 -14.42969,19.10351 -28.85938,38.20703 -43.28907,57.31055 z" /></g><g
     inkscape:groupmode="layer"
     id="layer15"
     inkscape:label="Active1"
     transform="translate(0,0.11887)"><path
       id="path77"
       style="fill:#d67965;fill-opacity:1;stroke:#404040;stroke-width:0;stroke-linecap:round;stroke-dasharray:none;stroke-dashoffset:0;stroke-opacity:0;paint-order:fill markers stroke"
       d="M 7.5585938,557.21875 C 12.778646,546.70378 17.998698,536.1888 23.21875,525.67383 17.998698,515.91406 12.778646,506.1543 7.5585938,496.39453 c -10e-8,20.27474 0,40.54948 0,60.82422 z" /><path
       id="path80"
       style="fill:#d67965;fill-opacity:1;stroke:#404040;stroke-width:0;stroke-linecap:round;stroke-dasharray:none;stroke-dashoffset:0;stroke-opacity:0;paint-order:fill markers stroke"
       d="m 208.26758,463.38086 c -2.18107,1.61913 -5.10156,1.34242 -7.57227,0.66016 -5.88867,-1.20704 -11.77734,-2.41407 -17.66601,-3.6211 -6.05404,9.17513 -12.10808,18.35026 -18.16211,27.52539 16.23307,4.98112 32.46614,9.96224 48.69922,14.94336 17.37369,-14.00195 34.74739,-28.0039 52.12109,-42.00586 -9.27018,-5.2539 -18.54036,-10.50781 -27.81055,-15.76172 -9.86979,6.08659 -19.73958,12.17318 -29.60937,18.25977 z" /><path
       id="path82"
       style="fill:#d67965;fill-opacity:1;stroke:#404040;stroke-width:0;stroke-linecap:round;stroke-dasharray:none;stroke-dashoffset:0;stroke-opacity:0;paint-order:fill markers stroke"
       d="m 372.30664,472.8457 c -11.17838,18.3125 -22.35677,36.625 -33.53516,54.9375 19.45508,14.72461 38.91016,29.44922 58.36524,44.17383 0,-37.46875 0,-74.9375 0,-112.40625 -8.27669,4.43164 -16.55339,8.86328 -24.83008,13.29492 z" /></g><g
     inkscape:groupmode="layer"
     id="layer16"
     inkscape:label="Active2"
     transform="translate(0,0.11887)"><path
       id="path78"
       style="fill:#e58f7d;fill-opacity:1;stroke:#404040;stroke-width:0;stroke-linecap:round;stroke-dasharray:none;stroke-dashoffset:0;stroke-opacity:0;paint-order:fill markers stroke"
       d="m 112.94141,524.83789 c -0.7287,1.98844 -2.34875,3.42616 -3.92854,4.74599 -7.6611,7.01055 -15.322926,14.02031 -22.983573,21.03135 -16.800266,-5.30555 -33.600238,-10.61205 -50.400391,-15.91796 -2.94401,5.92903 -5.888021,11.85807 -8.832031,17.78711 18.19987,4.6263 36.39974,9.2526 54.599609,13.8789 11.828125,-11.70182 23.656246,-23.40364 35.484376,-35.10547 -1.31622,-2.12889 -2.60703,-4.34638 -3.93945,-6.41992 z" /><path
       id="path83"
       style="fill:#e58f7d;fill-opacity:1;stroke:#404040;stroke-width:0;stroke-linecap:round;stroke-dasharray:none;stroke-dashoffset:0;stroke-opacity:0;paint-order:fill markers stroke"
       d="m 286.71484,544.5293 c 14.29297,-1.57683 28.58594,-3.15365 42.87891,-4.73047 -1.73293,-1.2774 -3.42152,-2.63896 -5.246,-3.77681 -11.32946,-4.91099 -22.65892,-9.82197 -33.98837,-14.73296 -1.21485,7.74675 -2.42969,15.49349 -3.64454,23.24024 z" /></g><g
     inkscape:groupmode="layer"
     id="layer18"
     inkscape:label="Active4"
     transform="translate(0,0.11887)"><path
       id="path84"
       style="fill:#ce6954;fill-opacity:1;stroke:#404040;stroke-width:0;stroke-linecap:round;stroke-dasharray:none;stroke-dashoffset:0;stroke-opacity:0;paint-order:fill markers stroke"
       d="m 222.12109,515.4043 c -1.75781,9.78906 -3.51562,19.57812 -5.27343,29.36718 18.14062,0.23959 36.28125,0.47917 54.42187,0.71875 1.58985,-10.13606 3.17969,-20.27213 4.76953,-30.4082 -11.5983,-5.02734 -23.19661,-10.05469 -34.79492,-15.08203 -6.37435,5.13477 -12.7487,10.26953 -19.12305,15.4043 z" /><path
       id="path79"
       style="fill:#ce6954;fill-opacity:1;stroke:#404040;stroke-width:0;stroke-linecap:round;stroke-dasharray:none;stroke-dashoffset:0;stroke-opacity:0;paint-order:fill markers stroke"
       d="m 104.66406,461.61328 c 3.3698,4.21288 6.73953,8.42583 10.10938,12.63867 -0.23379,7.7702 -0.46885,15.54036 -0.70313,23.31055 4.21029,6.92318 8.42058,13.84635 12.63086,20.76953 13.46354,-20.39779 26.92709,-40.79557 40.39063,-61.19336 -5.27341,-1.08282 -10.54705,-2.16451 -15.82032,-3.24805 -2.70338,-2.62019 -5.40761,-5.23951 -8.11132,-7.85937 -12.83203,5.19401 -25.66407,10.38802 -38.4961,15.58203 z" /></g><g
     inkscape:groupmode="layer"
     id="layer17"
     inkscape:label="Active3"
     transform="translate(0,0.11887)"><path
       id="path76"
       style="fill:#e3a395;fill-opacity:1;stroke:#404040;stroke-width:0;stroke-linecap:round;stroke-dasharray:none;stroke-dashoffset:0;stroke-opacity:0;paint-order:fill markers stroke"
       d="m 10.570312,469.95703 c 8.790365,16.43555 17.58073,32.87109 26.371094,49.30664 15.104818,4.77084 30.209636,9.54167 45.314453,14.3125 5.34375,-4.88737 10.6875,-9.77474 16.03125,-14.66211 0.401693,-13.18424 0.803386,-26.36849 1.205079,-39.55273 -4.069011,-5.08399 -8.138021,-10.16797 -12.207032,-15.25195 -8.404948,-5.34636 -16.809896,-10.69271 -25.214844,-16.03907 -17.166666,7.29558 -34.333333,14.59115 -51.5,21.88672 z" /><path
       id="path81"
       style="fill:#e3a395;fill-opacity:1;stroke:#404040;stroke-width:0;stroke-linecap:round;stroke-dasharray:none;stroke-dashoffset:0;stroke-opacity:0;paint-order:fill markers stroke"
       d="m 282.64453,466.63672 c -9.36654,7.54687 -18.73307,15.09375 -28.09961,22.64062 23.72787,10.28451 47.45573,20.56901 71.1836,30.85352 10.11588,-16.58203 20.23177,-33.16406 30.34765,-49.74609 -10.86328,-5.13477 -21.72656,-10.26954 -32.58984,-15.4043 -13.61393,3.88542 -27.22787,7.77083 -40.8418,11.65625 z" /><path
       id="path85"
       style="fill:#e3a395;fill-opacity:1;stroke:#404040;stroke-width:0;stroke-linecap:round;stroke-dasharray:none;stroke-dashoffset:0;stroke-opacity:0;paint-order:fill markers stroke"
       d="m 136.94336,530.25 c 18.27539,11.85352 36.55078,23.70703 54.82617,35.56055 2.94596,-5.38412 5.89193,-10.76823 8.83789,-16.15235 1.98373,-11.03515 3.96745,-22.07031 5.95117,-33.10547 -16.79166,-5.15299 -33.58333,-10.30599 -50.375,-15.45898 -6.41341,9.71875 -12.82682,19.4375 -19.24023,29.15625 z" /></g><g
     inkscape:groupmode="layer"
     id="layer11"
     inkscape:label="Synergy1"
     transform="translate(0,0.11887)"><path
       id="path63"
       style="fill:#85b8e4;fill-opacity:1;stroke:#404040;stroke-width:0;stroke-linecap:round;stroke-dasharray:none;stroke-dashoffset:0;stroke-opacity:0;paint-order:fill markers stroke"
       d="m 90.865234,344.33984 c 1.117839,3.43099 2.235677,6.86198 3.353516,10.29297 7.07617,-4.22005 14.15234,-8.4401 21.22852,-12.66015 -10.43555,-6.09701 -20.871098,-12.19401 -31.306645,-18.29102 2.241536,6.88607 4.483073,13.77214 6.724609,20.6582 z m -13.404296,20.28907 c 3.73177,-2.22592 7.463541,-4.45183 11.195312,-6.67774 -4.701823,-2.53255 -9.403646,-5.0651 -14.105469,-7.59765 0.970052,4.75846 1.940104,9.51692 2.910157,14.27539 z" /><path
       id="path65"
       style="fill:#85b8e4;fill-opacity:1;stroke:#404040;stroke-width:0;stroke-linecap:round;stroke-dasharray:none;stroke-dashoffset:0;stroke-opacity:0;paint-order:fill markers stroke"
       d="m 154.90039,325.77148 c 3.75521,10.80144 7.51042,21.60287 11.26563,32.4043 8.23632,-1.52213 16.47265,-3.04427 24.70898,-4.5664 -7.26237,-13.78907 -14.52474,-27.57813 -21.78711,-41.36719 -4.72917,4.50976 -9.45833,9.01953 -14.1875,13.52929 z" /><path
       id="path69"
       style="fill:#85b8e4;fill-opacity:1;stroke:#404040;stroke-width:0;stroke-linecap:round;stroke-dasharray:none;stroke-dashoffset:0;stroke-opacity:0;paint-order:fill markers stroke"
       d="m 305.87695,380.31445 c 0.013,4.50326 0.026,9.00651 0.0391,13.50977 10.39192,4.84375 20.78385,9.6875 31.17578,14.53125 9.47265,-14.25781 18.94531,-28.51563 28.41797,-42.77344 -19.87761,4.91081 -39.75521,9.82162 -59.63282,14.73242 z" /><path
       id="path71"
       style="fill:#85b8e4;fill-opacity:1;stroke:#404040;stroke-width:0;stroke-linecap:round;stroke-dasharray:none;stroke-dashoffset:0;stroke-opacity:0;paint-order:fill markers stroke"
       d="m 212.23438,443.16992 c 8.43806,-5.20131 16.87682,-10.4015 25.31445,-15.60351 14.17276,8.03084 28.34501,16.06256 42.51758,24.09375 9.01627,-2.57292 18.03255,-5.14584 27.04882,-7.71875 -11.63671,-8.41667 -23.27343,-16.83334 -34.91015,-25.25 -19.64714,-0.97787 -39.29427,-1.95573 -58.94141,-2.9336 -0.3431,9.13737 -0.6862,18.27474 -1.02929,27.41211 z" /><path
       id="path75"
       style="fill:#85b8e4;fill-opacity:1;stroke:#404040;stroke-width:0;stroke-linecap:round;stroke-dasharray:none;stroke-dashoffset:0;stroke-opacity:0;paint-order:fill markers stroke"
       d="m 7.5585938,385.33203 c -10e-8,23.15755 0,46.31511 0,69.47266 13.0052082,-5.52604 26.0104162,-11.05209 39.0156252,-16.57813 -6.95066,-4.41644 -13.900198,-8.83466 -20.851563,-13.25 -0.756797,-17.30481 -1.520024,-34.60935 -2.279297,-51.91406 -5.294921,4.08984 -10.589843,8.17969 -15.8847652,12.26953 z" /></g><g
     inkscape:groupmode="layer"
     id="layer14"
     inkscape:label="Synergy4"
     transform="translate(0,0.11887)"><path
       id="path64"
       style="fill:#acd0ef;fill-opacity:1;stroke:#404040;stroke-width:0;stroke-linecap:round;stroke-dasharray:none;stroke-dashoffset:0;stroke-opacity:0;paint-order:fill markers stroke"
       d="m 76.533203,382.77734 c -2.419625,1.95834 -5.983194,1.71327 -8.562246,0.20194 -9.846439,-4.32903 -19.692878,-8.65806 -29.539316,-12.98709 0.568359,12.91797 1.136718,25.83593 1.705078,38.7539 34.055338,-17.02734 68.110681,-34.05468 102.166011,-51.08203 -3.98697,-2.32812 -7.97395,-4.65625 -11.96093,-6.98437 -17.9362,10.69922 -35.872399,21.39844 -53.808597,32.09765 z" /><path
       id="path67"
       style="fill:#acd0ef;fill-opacity:1;stroke:#404040;stroke-width:0;stroke-linecap:round;stroke-dasharray:none;stroke-dashoffset:0;stroke-opacity:0;paint-order:fill markers stroke"
       d="m 252.55664,361.15625 c -12.24023,10.12891 -24.48047,20.25781 -36.7207,30.38672 -0.41537,3.05208 -0.83073,6.10417 -1.2461,9.15625 25.41146,1.26367 50.82292,2.52734 76.23438,3.79101 -0.0514,-19.10546 -0.10287,-38.21093 -0.1543,-57.3164 -12.70443,4.66081 -25.40885,9.32161 -38.11328,13.98242 z" /></g><g
     inkscape:groupmode="layer"
     id="layer12"
     inkscape:label="Synergy2"
     transform="translate(0,0.11887)"><path
       id="path62"
       style="fill:#94c4ed;fill-opacity:1;stroke:#404040;stroke-width:0;stroke-linecap:round;stroke-dasharray:none;stroke-dashoffset:0;stroke-opacity:0;paint-order:fill markers stroke"
       d="m 7.5585938,366.23828 c 7.2402272,-5.59636 14.4805122,-11.19265 21.7207032,-16.78906 10.859729,4.77281 21.720101,9.54416 32.580078,14.3164 -1.549479,-7.58203 -3.098958,-15.16406 -4.648437,-22.74609 -16.550782,-8.91276 -33.101563,-17.82552 -49.6523442,-26.73828 0,17.31901 0,34.63802 0,51.95703 z" /><path
       id="path70"
       style="fill:#acd0ef;fill-opacity:1;stroke:#404040;stroke-width:0;stroke-linecap:round;stroke-dasharray:none;stroke-dashoffset:0;stroke-opacity:0;paint-order:fill markers stroke"
       d="m 346.30273,421.80859 c -3.90234,7.23308 -7.80468,14.46615 -11.70703,21.69922 10.70313,5.06055 21.40625,10.1211 32.10938,15.18164 10.14388,-5.42903 20.28776,-10.85807 30.43164,-16.28711 0,-22.15885 0,-44.3177 0,-66.47656 -4.33529,-3.6901 -8.67057,-7.38021 -13.00586,-11.07031 -12.60938,18.98437 -25.21875,37.96875 -37.82813,56.95312 z" /><path
       id="path72"
       style="fill:#94c4ed;fill-opacity:1;stroke:#404040;stroke-width:0;stroke-linecap:round;stroke-dasharray:none;stroke-dashoffset:0;stroke-opacity:0;paint-order:fill markers stroke"
       d="m 305.96484,412.21875 c 0.39681,3.04653 -1.24373,6.5064 -4.30938,7.45057 -0.57344,0.20969 -1.17948,0.32627 -1.78827,0.36388 7.24414,5.23894 14.48828,10.47787 21.73242,15.7168 2.57422,-4.77604 5.14844,-9.55208 7.72266,-14.32812 -7.78711,-3.62956 -15.57422,-7.25912 -23.36133,-10.88868 0.001,0.56185 0.003,1.1237 0.004,1.68555 z" /><path
       id="path73"
       style="fill:#94c4ed;fill-opacity:1;stroke:#404040;stroke-width:0;stroke-linecap:round;stroke-dasharray:none;stroke-dashoffset:0;stroke-opacity:0;paint-order:fill markers stroke"
       d="m 131.54688,379.93945 c -7.66537,3.83269 -15.33073,7.66537 -22.9961,11.49805 16.69336,16.17708 33.38672,32.35417 50.08008,48.53125 12.76367,2.6224 25.52734,5.24479 38.29102,7.86719 0.46744,-12.49284 0.93489,-24.98568 1.40234,-37.47852 -9.94271,-12.41471 -19.88542,-24.82943 -29.82813,-37.24414 -12.3164,2.27539 -24.63281,4.55078 -36.94921,6.82617 z" /></g><g
     inkscape:groupmode="layer"
     id="layer13"
     inkscape:label="Synergy3"
     transform="translate(0,0.11887)"><path
       id="path66"
       style="fill:#74a4ce;fill-opacity:1;stroke:#404040;stroke-width:0;stroke-linecap:round;stroke-dasharray:none;stroke-dashoffset:0;stroke-opacity:0;paint-order:fill markers stroke"
       d="m 209.61328,361.33008 c -0.70235,3.21967 -3.93051,5.35709 -7.1081,5.49863 -5.71462,1.0558 -11.42923,2.11159 -17.14385,3.16738 5.17252,6.45769 10.34505,12.91537 15.51758,19.37305 0.2591,-1.9043 0.51829,-3.80858 0.77734,-5.71289 13.58103,-11.23323 27.16,-22.46894 40.74023,-33.70313 1.80144,-4.73567 3.60287,-9.47135 5.4043,-14.20703 -9.45508,0 -18.91015,0 -28.36523,0 -3.27409,8.528 -6.54818,17.05599 -9.82227,25.58399 z" /><path
       id="path68"
       style="fill:#74a4ce;fill-opacity:1;stroke:#404040;stroke-width:0;stroke-linecap:round;stroke-dasharray:none;stroke-dashoffset:0;stroke-opacity:0;paint-order:fill markers stroke"
       d="m 387.80078,334.04297 c -2.0594,1.9414 -5.16815,1.98923 -7.75868,1.29928 -14.56156,-2.5314 -29.12312,-5.0628 -43.68468,-7.5942 -4.51184,2.56332 -8.93309,5.29708 -13.56069,7.64574 -5.67378,2.07967 -11.34756,4.15935 -17.02134,6.23902 0.0221,7.70638 0.0443,15.41276 0.0664,23.11914 26.21735,-6.48152 52.43549,-12.95984 78.65234,-19.44336 4.21337,3.58951 8.42852,7.17693 12.64258,10.76563 0,-9.63672 0,-19.27344 0,-28.91016 -3.11198,2.29297 -6.22396,4.58594 -9.33594,6.87891 z" /><path
       id="path74"
       style="fill:#74a4ce;fill-opacity:1;stroke:#404040;stroke-width:0;stroke-linecap:round;stroke-dasharray:none;stroke-dashoffset:0;stroke-opacity:0;paint-order:fill markers stroke"
       d="m 48.425781,421.49609 c 14.917969,9.48568 29.835938,18.97136 44.753907,28.45703 12.773442,-5.17382 25.546872,-10.34765 38.320312,-15.52148 -12.06185,-12.125 -24.1237,-24.25 -36.185547,-36.375 -15.629557,7.81315 -31.259114,15.6263 -46.888672,23.43945 z" /></g><g
     inkscape:groupmode="layer"
     id="layer7"
     inkscape:label="Bodymod1"
     transform="translate(0,0.11887)"><path
       id="path47"
       style="fill:#9fc88c;fill-opacity:1;stroke:#404040;stroke-width:0;stroke-linecap:round;stroke-dasharray:none;stroke-dashoffset:0;stroke-opacity:0;paint-order:fill markers stroke"
       d="m 180.59375,206.36719 c 5.94661,15.04166 11.89323,30.08333 17.83984,45.125 14.99675,-7.82813 29.99349,-15.65625 44.99024,-23.48438 -13.41602,-11.08398 -26.83203,-22.16797 -40.24805,-33.25195 -7.52734,3.87044 -15.05469,7.74088 -22.58203,11.61133 z" /><path
       id="path55"
       style="fill:#9fc88c;fill-opacity:1;stroke:#404040;stroke-width:0;stroke-linecap:round;stroke-dasharray:none;stroke-dashoffset:0;stroke-opacity:0;paint-order:fill markers stroke"
       d="m 66.429688,269.28711 c 3.104166,9.53255 6.208333,19.0651 9.3125,28.59766 22.274739,-6.33269 44.549482,-12.66537 66.824222,-18.99805 -18.58724,-11.19727 -37.17448,-22.39453 -55.761722,-33.5918 -6.791667,7.9974 -13.583334,15.99479 -20.375,23.99219 z" /><path
       id="path59"
       style="fill:#9fc88c;fill-opacity:1;stroke:#404040;stroke-width:0;stroke-linecap:round;stroke-dasharray:none;stroke-dashoffset:0;stroke-opacity:0;paint-order:fill markers stroke"
       d="m 225.23633,320.62891 c 9.4375,0 18.875,0 28.3125,0 3.80924,-10.00456 7.61849,-20.00912 11.42773,-30.01368 -9.34765,-0.15039 -18.69531,-0.30078 -28.04297,-0.45117 -3.89908,10.15495 -7.79817,20.3099 -11.69726,30.46485 z" /></g><g
     inkscape:groupmode="layer"
     id="layer8"
     inkscape:label="Bodymod2"
     transform="translate(0,0.11887)"><path
       id="path48"
       style="fill:#a6d68e;fill-opacity:1;stroke:#404040;stroke-width:0;stroke-linecap:round;stroke-dasharray:none;stroke-dashoffset:0;stroke-opacity:0;paint-order:fill markers stroke"
       d="m 263.75586,223.39062 c 18.27734,4.82097 36.55469,9.64193 54.83203,14.4629 -5.57357,-12.43034 -11.14713,-24.86068 -16.7207,-37.29102 -14.23112,-2.46615 -28.46224,-4.93229 -42.69336,-7.39844 1.52734,10.07552 3.05469,20.15104 4.58203,30.22656 z" /><path
       id="path50"
       style="fill:#a6d68e;fill-opacity:1;stroke:#404040;stroke-width:0;stroke-linecap:round;stroke-dasharray:none;stroke-dashoffset:0;stroke-opacity:0;paint-order:fill markers stroke"
       d="m 288.00586,284.72852 c 11.24154,11.33268 22.48307,22.66536 33.72461,33.99804 21.98307,-12.69401 43.96614,-25.38802 65.94922,-38.08203 -18.35482,-7.6582 -36.70964,-15.3164 -55.06446,-22.97461 -14.86979,9.01953 -29.73958,18.03906 -44.60937,27.0586 z" /><path
       id="path52"
       style="fill:#a6d68e;fill-opacity:1;stroke:#404040;stroke-width:0;stroke-linecap:round;stroke-dasharray:none;stroke-dashoffset:0;stroke-opacity:0;paint-order:fill markers stroke"
       d="m 117.64062,219.86523 c -13.69837,0.21593 -27.404687,0.0828 -41.106245,0.11719 -0.808333,0 -1.616667,0 -2.425,0 29.115885,17.54102 58.231775,35.08203 87.347655,52.62305 7.8724,-4.59375 15.74479,-9.1875 23.61719,-13.78125 -6.26432,-15.84766 -12.52865,-31.69531 -18.79297,-47.54297 -16.21354,2.86133 -32.42708,5.72266 -48.64063,8.58398 z" /><path
       id="path54"
       style="fill:#a6d68e;fill-opacity:1;stroke:#404040;stroke-width:0;stroke-linecap:round;stroke-dasharray:none;stroke-dashoffset:0;stroke-opacity:0;paint-order:fill markers stroke"
       d="M 7.5585938,297.11328 C 28.590495,308.4375 49.622396,319.76172 70.654297,331.08594 64.484375,312.13477 58.314453,293.18359 52.144531,274.23242 37.282552,271.52018 22.420573,268.80794 7.5585938,266.0957 c -10e-8,10.3392 0,20.67839 0,31.01758 z" /><path
       id="path57"
       style="fill:#a6d68e;fill-opacity:1;stroke:#404040;stroke-width:0;stroke-linecap:round;stroke-dasharray:none;stroke-dashoffset:0;stroke-opacity:0;paint-order:fill markers stroke"
       d="m 201.26953,340.89453 c 6.52474,-16.99609 13.04948,-33.99219 19.57422,-50.98828 -15.60807,-0.25065 -31.21615,-0.5013 -46.82422,-0.75195 9.08333,17.24674 18.16667,34.49349 27.25,51.74023 z" /></g><g
     inkscape:groupmode="layer"
     id="layer9"
     inkscape:label="Bodymod3"
     transform="translate(0,0.11887)"><path
       id="path53"
       style="fill:#b2e09d;fill-opacity:1;stroke:#404040;stroke-width:0;stroke-linecap:round;stroke-dasharray:none;stroke-dashoffset:0;stroke-opacity:0;paint-order:fill markers stroke"
       d="m 7.5585938,250.7207 c 15.8111982,2.88412 31.6223962,5.76823 47.4335942,8.65235 6.22526,-7.32943 12.45052,-14.65886 18.675781,-21.98828 -9.626302,-5.80079 -19.252604,-11.60157 -28.878907,-17.40235 -12.410156,0 -24.820312,0 -37.2304682,0 0,10.2461 -10e-8,20.49219 0,30.73828 z" /><path
       id="path51"
       style="fill:#b2e09d;fill-opacity:1;stroke:#404040;stroke-width:0;stroke-linecap:round;stroke-dasharray:none;stroke-dashoffset:0;stroke-opacity:0;paint-order:fill markers stroke"
       d="m 198.03125,268.77344 c -3.14428,1.82971 -6.28628,3.66445 -9.42969,5.49609 28.40039,0.45638 56.80078,0.91276 85.20117,1.36914 13.00261,-7.88802 26.00521,-15.77604 39.00782,-23.66406 -18.29427,-4.82487 -36.58854,-9.64974 -54.88282,-14.47461 -19.96549,10.42448 -39.93099,20.84896 -59.89648,31.27344 z" /><path
       id="path56"
       style="fill:#b2e09d;fill-opacity:1;stroke:#404040;stroke-width:0;stroke-linecap:round;stroke-dasharray:none;stroke-dashoffset:0;stroke-opacity:0;paint-order:fill markers stroke"
       d="m 89.929688,309.55664 c 18.129552,10.5905 36.259112,21.18099 54.388672,31.77148 -4.98047,-14.32877 -9.96094,-28.65755 -14.94141,-42.98632 -13.14909,3.73828 -26.29817,7.47656 -39.447262,11.21484 z" /><path
       id="path61"
       style="fill:#b2e09d;fill-opacity:1;stroke:#404040;stroke-width:0;stroke-linecap:round;stroke-dasharray:none;stroke-dashoffset:0;stroke-opacity:0;paint-order:fill markers stroke"
       d="m 356.80078,315.94727 c 8.11068,1.41211 16.22136,2.82421 24.33203,4.23632 5.33464,-3.93489 10.66927,-7.86979 16.00391,-11.80468 0,-5.24089 0,-10.48177 0,-15.72266 -13.44531,7.76367 -26.89063,15.52734 -40.33594,23.29102 z" /></g><g
     inkscape:groupmode="layer"
     id="layer10"
     inkscape:label="Bodymod4"
     transform="translate(0,0.11887)"><path
       id="path49"
       style="fill:#90b57f;fill-opacity:1;stroke:#404040;stroke-width:0;stroke-linecap:round;stroke-dasharray:none;stroke-dashoffset:0;stroke-opacity:0;paint-order:fill markers stroke"
       d="m 333.68359,204.11914 c -2.16742,1.56516 -5.01238,1.21963 -7.46093,0.66211 -2.12631,-0.36719 -4.25261,-0.73438 -6.37891,-1.10156 5.93685,13.23893 11.8737,26.47786 17.81055,39.71679 19.82747,8.27149 39.65494,16.54297 59.48242,24.81446 0,-17.65821 0,-35.31641 0,-52.97461 -9.22982,-10.72526 -18.45964,-21.45052 -27.68945,-32.17578 -11.92123,7.01953 -23.84245,14.03906 -35.76368,21.05859 z" /><path
       id="path58"
       style="fill:#90b57f;fill-opacity:1;stroke:#404040;stroke-width:0;stroke-linecap:round;stroke-dasharray:none;stroke-dashoffset:0;stroke-opacity:0;paint-order:fill markers stroke"
       d="m 261.71289,341.68945 c 15.0332,-5.51627 30.06641,-11.03255 45.09961,-16.54883 -9.34701,-9.42057 -18.69401,-18.84114 -28.04102,-28.26171 -5.68619,14.93685 -11.37239,29.87369 -17.05859,44.81054 z" /><path
       id="path60"
       style="fill:#90b57f;fill-opacity:1;stroke:#404040;stroke-width:0;stroke-linecap:round;stroke-dasharray:none;stroke-dashoffset:0;stroke-opacity:0;paint-order:fill markers stroke"
       d="m 143.93164,294.20508 c 1.83984,5.29297 3.67969,10.58594 5.51953,15.8789 4.10417,-3.91341 8.20834,-7.82682 12.3125,-11.74023 -1.40625,-2.66927 -2.8125,-5.33854 -4.21875,-8.00781 -4.53776,1.28971 -9.07552,2.57942 -13.61328,3.86914 z" /></g><g
     inkscape:label="Passive1"
     inkscape:groupmode="layer"
     id="layer1"
     transform="translate(83.28501,206.63068)"><path
       id="path3"
       style="fill:#e2b584;fill-opacity:1;stroke:#404040;stroke-width:0;stroke-linecap:round;stroke-dasharray:none;stroke-dashoffset:0;stroke-opacity:0;paint-order:fill markers stroke"
       d="m 107.06055,-81.271484 c 4.14062,3.883463 8.28125,7.766927 12.42187,11.65039 3.30078,-5.82487 6.60156,-11.649739 9.90235,-17.474609 -7.44141,1.941406 -14.88282,3.882812 -22.32422,5.824219 z" /><path
       id="path5"
       style="fill:#e2b584;fill-opacity:1;stroke:#404040;stroke-width:0;stroke-linecap:round;stroke-dasharray:none;stroke-dashoffset:0;stroke-opacity:0;paint-order:fill markers stroke"
       d="M 44.121094,-3.7207031 C 54.209635,-5.500651 64.298177,-7.280599 74.386719,-9.0605469 67.77474,-17.962891 61.16276,-26.865234 54.550781,-35.767578 51.074219,-25.085286 47.597656,-14.402995 44.121094,-3.7207031 Z" /><path
       id="path12"
       style="fill:#e2b584;fill-opacity:1;stroke:#404040;stroke-width:0;stroke-linecap:round;stroke-dasharray:none;stroke-dashoffset:0;stroke-opacity:0;paint-order:fill markers stroke"
       d="m -67.546875,-119.05859 c 19.29362,14.52994 38.58724,29.059892 57.8808594,43.58984 10.8476562,-11.548177 21.6953126,-23.096354 32.5429686,-34.64453 -11.807292,-9.54948 -23.61458321,-19.09896 -35.421875,-28.64844 -18.333984,6.56771 -36.667969,13.13542 -55.001953,19.70313 z" /><path
       id="path16"
       style="fill:#e2b584;fill-opacity:1;stroke:#404040;stroke-width:0;stroke-linecap:round;stroke-dasharray:none;stroke-dashoffset:0;stroke-opacity:0;paint-order:fill markers stroke"
       d="m 66.169922,-189.43555 c 17.799419,3.90713 35.618268,7.73436 53.392818,11.74862 10.31242,3.07859 20.62484,6.15717 30.93726,9.23576 12.6862,-10.16732 25.3724,-20.33464 38.05859,-30.50195 -43.42057,0 -86.84114,-10e-6 -130.261715,0 2.624349,3.17252 5.248698,6.34505 7.873047,9.51757 z" /><path
       id="path17"
       style="fill:#e2b584;fill-opacity:1;stroke:#404040;stroke-width:0;stroke-linecap:round;stroke-dasharray:none;stroke-dashoffset:0;stroke-opacity:0;paint-order:fill markers stroke"
       d="m 104.58789,-148.15625 c 15.40319,14.8455 30.8048,29.69265 46.20899,44.53711 6.38084,11.095153 12.76454,22.188676 19.14648,33.283202 5.44271,4.40625 10.88542,8.812501 16.32812,13.21875 0.6211,-11.997395 1.24219,-23.994791 1.86329,-35.992187 -13.5879,-20.164715 -27.17579,-40.329425 -40.76368,-60.494145 -9.51106,-2.84179 -19.02213,-5.68359 -28.5332,-8.52539 -4.75,4.65756 -9.5,9.31511 -14.25,13.97266 z" /><path
       id="path21"
       style="fill:#e2b584;fill-opacity:1;stroke:#404040;stroke-width:0;stroke-linecap:round;stroke-dasharray:none;stroke-dashoffset:0;stroke-opacity:0;paint-order:fill markers stroke"
       d="m 245.27148,-97.697266 c 22.86003,9.0625 45.72006,18.125 68.58008,27.1875 0,-26.796224 0,-53.592444 0,-80.388674 -12.20833,-1.16015 -24.41666,-2.32031 -36.625,-3.48047 -10.65169,18.89388 -21.30338,37.78776 -31.95508,56.681644 z" /><path
       id="path23"
       style="fill:#e2b584;fill-opacity:1;stroke:#404040;stroke-width:0;stroke-linecap:round;stroke-dasharray:none;stroke-dashoffset:0;stroke-opacity:0;paint-order:fill markers stroke"
       d="m 140.92578,-13.986328 c 7.45768,6.1614582 14.91537,12.3229165 22.37305,18.4843749 -0.97266,-6.421224 -1.94531,-12.8424479 -2.91797,-19.2636719 -6.48503,0.259766 -12.97005,0.519531 -19.45508,0.779297 z" /><path
       id="path24"
       style="fill:#e2b584;fill-opacity:1;stroke:#404040;stroke-width:0;stroke-linecap:round;stroke-dasharray:none;stroke-dashoffset:0;stroke-opacity:0;paint-order:fill markers stroke"
       d="m 247.18945,-41.507812 c 1.47071,6.953124 2.94141,13.90625 4.41211,20.859374 12.59054,-7.412031 25.18071,-14.824692 37.77149,-22.236328 8.16112,9.475169 16.31874,18.953355 24.47851,28.429688 0,-12.083333 0,-24.166667 0,-36.25 -22.2207,3.065755 -44.4414,6.13151 -66.66211,9.197266 z" /></g><g
     inkscape:groupmode="layer"
     id="layer3"
     inkscape:label="Passive2"
     transform="translate(0,0.11887)"><path
       id="path1"
       style="fill:#e2bf97;fill-opacity:1;stroke:#404040;stroke-width:0;stroke-linecap:round;stroke-opacity:0;paint-order:fill markers stroke"
       d="m 145.52734,155.73242 c 9.25521,12.46029 18.51042,24.92057 27.76563,37.38086 7.78515,-4.00325 15.57031,-8.00651 23.35547,-12.00976 0.11849,-9.63217 0.23698,-19.26433 0.35547,-28.89649 -7.37956,-6.91862 -14.75912,-13.83724 -22.13868,-20.75586 -9.77929,8.09375 -19.55859,16.1875 -29.33789,24.28125 z" /><path
       id="path7"
       style="fill:#e2bf97;fill-opacity:1;stroke:#404040;stroke-width:0;stroke-linecap:round;stroke-dasharray:none;stroke-dashoffset:0;stroke-opacity:0;paint-order:fill markers stroke"
       d="m 133.33789,94.523438 c 14.16276,6.293622 28.32552,12.587242 42.48828,18.880862 12.42643,-3.24219 24.85287,-6.48438 37.2793,-9.72657 -12.36003,-11.914709 -24.72005,-23.829423 -37.08008,-35.744136 -14.22917,8.863281 -28.45833,17.726562 -42.6875,26.589844 z" /><path
       id="path8"
       style="fill:#e2bf97;fill-opacity:1;stroke:#404040;stroke-width:0;stroke-linecap:round;stroke-dasharray:none;stroke-dashoffset:0;stroke-opacity:0;paint-order:fill markers stroke"
       d="m 89.111328,136.63281 c 11.692062,2.56901 23.384112,5.13802 35.076172,7.70703 -3.45378,-11.33724 -6.90755,-22.67448 -10.36133,-34.01172 -8.23828,8.76823 -16.476561,17.53646 -24.714842,26.30469 z" /><path
       id="path18"
       style="fill:#e2bf97;fill-opacity:1;stroke:#404040;stroke-width:0;stroke-linecap:round;stroke-dasharray:none;stroke-dashoffset:0;stroke-opacity:0;paint-order:fill markers stroke"
       d="m 245.5625,47.986328 c 12.54883,18.621745 25.09766,37.24349 37.64648,55.865232 10.0612,0.35808 20.1224,0.71615 30.1836,1.07422 10.99935,-19.511717 21.9987,-39.023436 32.99804,-58.535155 C 328.8112,34.071615 311.23177,21.752604 293.65234,9.4335938 277.6224,22.284505 261.59245,35.135417 245.5625,47.986328 Z" /><path
       id="path19"
       style="fill:#e2bf97;fill-opacity:1;stroke:#404040;stroke-width:0;stroke-linecap:round;stroke-dasharray:none;stroke-dashoffset:0;stroke-opacity:0;paint-order:fill markers stroke"
       d="m 257.28711,177.48438 c 20.89323,3.62109 41.78646,7.24218 62.67969,10.86328 -1.50391,-7.10157 -3.00782,-14.20313 -4.51172,-21.30469 -13.78186,1.82846 -27.56408,3.65422 -41.3457,5.48437 -6.02709,-4.87987 -12.05474,-9.75906 -18.08204,-14.63867 0.41993,6.5319 0.83985,13.0638 1.25977,19.59571 z" /><path
       id="path11"
       style="fill:#e2bf97;fill-opacity:1;stroke:#404040;stroke-width:0;stroke-linecap:round;stroke-dasharray:none;stroke-dashoffset:0;stroke-opacity:0;paint-order:fill markers stroke"
       d="m 7.5585938,137.75586 c 9.4637992,-1.55321 18.9089852,-3.24288 28.3984372,-4.61719 5.188802,0.0619 10.377604,0.1237 15.566407,0.18555 C 36.86849,122.28776 22.213542,111.2513 7.5585938,100.21484 c 0,12.51368 -10e-8,25.02735 0,37.54102 z" /></g><g
     inkscape:groupmode="layer"
     id="layer4"
     inkscape:label="Passive3"
     transform="translate(0,0.11887)"><path
       id="path9"
       style="fill:#d0aa7e;fill-opacity:1;stroke:#404040;stroke-width:0;stroke-linecap:round;stroke-dasharray:none;stroke-dashoffset:0;stroke-opacity:0;paint-order:fill markers stroke"
       d="m 63.076172,176.90039 c 16.266276,8.26302 32.532552,16.52604 48.798828,24.78906 4.51432,-13.86979 9.02865,-27.73958 13.54297,-41.60937 -17.26237,-3.79232 -34.524741,-7.58464 -51.787111,-11.37696 -8.42513,-0.0983 -16.85026,-0.19661 -25.27539,-0.29492 4.906901,9.4974 9.813802,18.99479 14.720703,28.49219 z" /><path
       id="path13"
       style="fill:#d0aa7e;fill-opacity:1;stroke:#404040;stroke-width:0;stroke-linecap:round;stroke-dasharray:none;stroke-dashoffset:0;stroke-opacity:0;paint-order:fill markers stroke"
       d="M 7.6171875,74.304688 C 24.126953,68.389323 40.636719,62.473958 57.146484,56.558594 40.744141,42.994141 24.341797,29.429688 7.9394531,15.865234 7.8320313,35.345052 7.7246094,54.82487 7.6171875,74.304688 Z" /><path
       id="path15"
       style="fill:#d0aa7e;fill-opacity:1;stroke:#404040;stroke-width:0;stroke-linecap:round;stroke-dasharray:none;stroke-dashoffset:0;stroke-opacity:0;paint-order:fill markers stroke"
       d="m 105.63281,76.701172 c 4.04753,3.229818 8.09505,6.459635 12.14258,9.689453 18.17839,-11.324219 36.35677,-22.648438 54.53516,-33.972656 4.13541,-4.053386 8.27083,-8.106771 12.40625,-12.160157 -12.28907,-2.684244 -24.57813,-5.368489 -36.86719,-8.052734 -14.07227,14.832031 -28.14453,29.664063 -42.2168,44.496094 z" /><path
       id="path20"
       style="fill:#d0aa7e;fill-opacity:1;stroke:#404040;stroke-width:0;stroke-linecap:round;stroke-dasharray:none;stroke-dashoffset:0;stroke-opacity:0;paint-order:fill markers stroke"
       d="m 284.35156,155.91602 c 30.29345,-3.97903 60.57677,-8.15331 90.84961,-12.3418 -19.68815,-7.80469 -39.3763,-15.60938 -59.06445,-23.41406 -9.96029,-0.35417 -19.92057,-0.70834 -29.88086,-1.0625 -0.63477,12.27278 -1.26953,24.54557 -1.9043,36.81836 z" /><path
       id="path22"
       style="fill:#d0aa7e;fill-opacity:1;stroke:#404040;stroke-width:0;stroke-linecap:round;stroke-dasharray:none;stroke-dashoffset:0;stroke-opacity:0;paint-order:fill markers stroke"
       d="m 359.03516,36.804688 c 12.70052,1.208333 25.40104,2.416666 38.10156,3.625 0,-10.957032 0,-21.914063 0,-32.8710942 -26.61198,0 -53.22396,-10e-8 -79.83594,0 13.91146,9.7486982 27.82292,19.4973962 41.73438,29.2460942 z" /></g><g
     inkscape:groupmode="layer"
     id="layer6"
     inkscape:label="Passive4"
     transform="translate(0,0.11887)"><path
       id="path4"
       style="fill:#d6b186;fill-opacity:1;stroke:#404040;stroke-width:0;stroke-linecap:round;stroke-dasharray:none;stroke-dashoffset:0;stroke-opacity:0;paint-order:fill markers stroke"
       d="m 212.14258,151 c -0.11198,8.96029 -0.22396,17.92057 -0.33594,26.88086 10.0918,-0.40495 20.18359,-0.8099 30.27539,-1.21484 -0.71419,-11.0905 -1.42838,-22.18099 -2.14258,-33.27149 -3.94466,-6.85351 -7.88932,-13.70703 -11.83398,-20.56055 -5.32096,9.38868 -10.64193,18.77735 -15.96289,28.16602 z" /><path
       id="path6"
       style="fill:#d6b186;fill-opacity:1;stroke:#404040;stroke-width:0;stroke-linecap:round;stroke-dasharray:none;stroke-dashoffset:0;stroke-opacity:0;paint-order:fill markers stroke"
       d="m 139.10547,141.43555 c 7.28711,-6.03256 14.57422,-12.06511 21.86133,-18.09766 -10.55469,-4.69075 -21.10938,-9.38151 -31.66407,-14.07227 3.26758,10.72331 6.53516,21.44662 9.80274,32.16993 z" /><path
       id="path10"
       style="fill:#d6b186;fill-opacity:1;stroke:#404040;stroke-width:0;stroke-linecap:round;stroke-dasharray:none;stroke-dashoffset:0;stroke-opacity:0;paint-order:fill markers stroke"
       d="m 7.5585938,153.07227 c 0,17.26432 -10e-8,34.52864 0,51.79296 25.7298172,0 51.4596352,0 77.1894532,0 -10.958449,-5.56357 -21.915972,-11.12897 -32.875,-16.6914 -6.732697,-13.04123 -13.46903,-26.08059 -20.203125,-39.1211 -8.03711,1.33985 -16.074219,2.67969 -24.1113282,4.01954 z" /><path
       id="path14"
       style="fill:#d6b186;fill-opacity:1;stroke:#404040;stroke-width:0;stroke-linecap:round;stroke-dasharray:none;stroke-dashoffset:0;stroke-opacity:0;paint-order:fill markers stroke"
       d="m 93.84375,67.173828 c 13.78711,-14.535156 27.57422,-29.070312 41.36133,-43.605469 -4.41276,-5.336588 -8.82552,-10.673177 -13.23828,-16.0097652 -33.608727,0 -67.217451,-10e-8 -100.826175,0 C 45.375,27.430339 69.609375,47.302083 93.84375,67.173828 Z" /></g></svg>
