<?xml version="1.0" encoding="UTF-8" standalone="no"?>
<!-- Created with Inkscape (http://www.inkscape.org/) -->

<svg
   width="169.97189mm"
   height="301.75809mm"
   viewBox="0 0 404.69498 718.47164"
   version="1.1"
   id="svg1"
   xml:space="preserve"
   sodipodi:docname="UpgrageOverviewPanel14.svg"
   inkscape:version="1.4.2 (f4327f4, 2025-05-13)"
   inkscape:export-filename="UpgrageOverviewPaneltest1.png"
   inkscape:export-xdpi="96"
   inkscape:export-ydpi="96"
   xmlns:inkscape="http://www.inkscape.org/namespaces/inkscape"
   xmlns:sodipodi="http://sodipodi.sourceforge.net/DTD/sodipodi-0.dtd"
   xmlns="http://www.w3.org/2000/svg"
   xmlns:svg="http://www.w3.org/2000/svg"><sodipodi:namedview
     id="namedview1"
     pagecolor="#ffffff"
     bordercolor="#000000"
     borderopacity="0.25"
     inkscape:showpageshadow="2"
     inkscape:pageopacity="0.0"
     inkscape:pagecheckerboard="0"
     inkscape:deskcolor="#d1d1d1"
     inkscape:document-units="mm"
     inkscape:zoom="1.1508788"
     inkscape:cx="149.45101"
     inkscape:cy="627.78114"
     inkscape:window-width="3840"
     inkscape:window-height="2054"
     inkscape:window-x="-11"
     inkscape:window-y="-11"
     inkscape:window-maximized="1"
     inkscape:current-layer="layer4" /><defs
     id="defs1" /><g
     inkscape:groupmode="layer"
     id="layer2"
     inkscape:label="Marker"
     transform="translate(0,0.11887)" /><g
     inkscape:groupmode="layer"
     id="layer19"
     inkscape:label="Special1"
     transform="translate(0,0.11887)"><path
       id="path95"
       style="fill:#865ccc;fill-opacity:1;stroke:#404040;stroke-width:0;stroke-linecap:round;stroke-dasharray:none;stroke-dashoffset:0;stroke-opacity:0;paint-order:fill markers stroke"
       d="m 326.2207,607.83008 c 5.55664,9.41862 11.11328,18.83724 16.66992,28.25586 11.78321,-4.72266 23.56641,-9.44531 35.34961,-14.16797 0,-7.20638 0,-14.41276 0,-21.61914 -8.69335,-6.57292 -17.38671,-13.14584 -26.08007,-19.71875 -8.64649,9.08333 -17.29297,18.16666 -25.93946,27.25 z" /><path
       id="path86"
       style="fill:#865ccc;fill-opacity:1;stroke:#404040;stroke-width:0;stroke-linecap:round;stroke-dasharray:none;stroke-dashoffset:0;stroke-opacity:0;paint-order:fill markers stroke"
       d="m 29.941406,588.67578 c 4.505209,7.99219 9.010417,15.98438 13.515625,23.97656 8.701823,-4.71028 17.403646,-9.42057 26.105469,-14.13086 -0.749467,-0.39593 -1.672234,-0.44407 -2.484237,-0.71428 -12.333379,-3.13495 -24.666759,-6.26991 -37.000138,-9.40486 -0.04557,0.0911 -0.09115,0.1823 -0.136719,0.27344 z" /></g><g
     inkscape:groupmode="layer"
     id="layer21"
     inkscape:label="Special3"
     transform="translate(0,0.11887)"><path
       id="path88"
       style="fill:#a381dc;fill-opacity:1;stroke:#404040;stroke-width:0;stroke-linecap:round;stroke-dasharray:none;stroke-dashoffset:0;stroke-opacity:0;paint-order:fill markers stroke"
       d="m 91.609375,646.73633 c 7.938802,3.76953 15.877605,7.53906 23.816405,11.30859 5.10938,-6.76107 10.21875,-13.52213 15.32813,-20.2832 -5.12826,-1.29297 -10.25651,-2.58594 -15.38477,-3.87891 -7.91992,4.28451 -15.839843,8.56901 -23.759765,12.85352 z" /><path
       id="path93"
       style="fill:#a381dc;fill-opacity:1;stroke:#404040;stroke-width:0;stroke-linecap:round;stroke-dasharray:none;stroke-dashoffset:0;stroke-opacity:0;paint-order:fill markers stroke"
       d="m 229.5918,614.10547 c 10.43815,7.68229 20.8763,15.36458 31.31445,23.04687 7.38086,0.56576 14.76172,1.13151 22.14258,1.69727 -2.39258,-4.05729 -4.78516,-8.11458 -7.17774,-12.17188 -15.44987,-4.29817 -30.89974,-8.59635 -46.34961,-12.89453 0.0234,0.10743 0.0469,0.21485 0.0703,0.32227 z" /></g><g
     inkscape:groupmode="layer"
     id="layer22"
     inkscape:label="Special4"
     transform="translate(0,0.11887)"><path
       id="path96"
       style="fill:#724eaf;fill-opacity:1;stroke:#404040;stroke-width:0;stroke-linecap:round;stroke-dasharray:none;stroke-dashoffset:0;stroke-opacity:0;paint-order:fill markers stroke"
       d="m 340.88086,691.89844 c 12.45312,0 24.90625,0 37.35937,0 0,-4.65104 0,-9.30209 0,-13.95313 -12.45312,4.65104 -24.90625,9.30209 -37.35937,13.95313 z" /></g><g
     inkscape:groupmode="layer"
     id="layer20"
     inkscape:label="Special2"
     transform="translate(0,0.11887)"><path
       id="path87"
       style="fill:#9970df;fill-opacity:1;stroke:#404040;stroke-width:0;stroke-linecap:round;stroke-dasharray:none;stroke-dashoffset:0;stroke-opacity:0;paint-order:fill markers stroke"
       d="m 120.33789,575.72656 c 1.91211,2.10417 3.82422,4.20834 5.73633,6.3125 14.98568,3.7819 29.97135,7.5638 44.95703,11.34571 0.019,-0.83203 -0.93985,-0.99129 -1.46557,-1.44855 -13.212,-8.56598 -26.42399,-17.13196 -39.63599,-25.69794 -3.19727,3.16276 -6.39453,6.32552 -9.5918,9.48828 z" /><path
       id="path89"
       style="fill:#9970df;fill-opacity:1;stroke:#404040;stroke-width:0;stroke-linecap:round;stroke-dasharray:none;stroke-dashoffset:0;stroke-opacity:0;paint-order:fill markers stroke"
       d="m 26.455078,684.31055 c 4.522136,-1.15235 9.044271,-2.30469 13.566406,-3.45703 -4.522135,-2.14649 -9.04427,-4.29297 -13.566406,-6.43946 0,3.29883 0,6.59766 0,9.89649 z" /><path
       id="path91"
       style="fill:#9970df;fill-opacity:1;stroke:#404040;stroke-width:0;stroke-linecap:round;stroke-dasharray:none;stroke-dashoffset:0;stroke-opacity:0;paint-order:fill markers stroke"
       d="m 165.875,679.11133 c 8.49089,3.25065 16.98177,6.5013 25.47266,9.75195 9,-5.78906 18,-11.57812 27,-17.36719 -8.00326,-5.89192 -16.00651,-11.78385 -24.00977,-17.67578 -2.61979,-0.66015 -5.23958,-1.32031 -7.85937,-1.98047 -6.86784,9.0905 -13.73568,18.18099 -20.60352,27.27149 z" /></g><g
     inkscape:groupmode="layer"
     id="layer15"
     inkscape:label="Active1"
     transform="translate(0,0.11887)"><path
       id="path82"
       style="fill:#d67965;fill-opacity:1;stroke:#404040;stroke-width:0;stroke-linecap:round;stroke-dasharray:none;stroke-dashoffset:0;stroke-opacity:0;paint-order:fill markers stroke"
       d="m 363.82031,523.04297 c 4.80664,3.63867 9.61328,7.27734 14.41992,10.91601 0,-11.51367 0,-23.02734 0,-34.54101 -4.80664,7.875 -9.61328,15.75 -14.41992,23.625 z" /></g><g
     inkscape:groupmode="layer"
     id="layer16"
     inkscape:label="Active2"
     transform="translate(0,0.11887)"><path
       id="path83"
       style="fill:#e58f7d;fill-opacity:1;stroke:#404040;stroke-width:0;stroke-linecap:round;stroke-dasharray:none;stroke-dashoffset:0;stroke-opacity:0;paint-order:fill markers stroke"
       d="m 297.45508,533.88672 c -0.62215,0.0964 -0.50603,1.27882 0.20004,0.93843 0.53814,-0.0712 0.63909,-0.951 -0.005,-0.94234 l -0.1,0.002 z" /></g><g
     inkscape:groupmode="layer"
     id="layer18"
     inkscape:label="Active4"
     transform="translate(0,0.11887)"><path
       id="path84"
       style="fill:#ce6954;fill-opacity:1;stroke:#404040;stroke-width:0;stroke-linecap:round;stroke-dasharray:none;stroke-dashoffset:0;stroke-opacity:0;paint-order:fill markers stroke"
       d="m 239.46484,525.69141 c -0.36461,0.83005 0.83948,0.36149 1.31589,0.49532 4.58676,0.0615 9.17352,0.12291 13.76029,0.18436 -3.44727,-1.49544 -6.89454,-2.99088 -10.3418,-4.48632 -1.57813,1.26888 -3.15625,2.53776 -4.73438,3.80664 z" /><path
       id="path79"
       style="fill:#ce6954;fill-opacity:1;stroke:#404040;stroke-width:0;stroke-linecap:round;stroke-dasharray:none;stroke-dashoffset:0;stroke-opacity:0;paint-order:fill markers stroke"
       d="m 133.81445,470.20312 c -0.0132,1.0816 -0.11375,2.15997 -0.10937,3.24219 0.95917,-1.44982 1.9124,-2.90339 2.86523,-4.35742 -0.91862,0.37175 -1.83724,0.74349 -2.75586,1.11523 z" /></g><g
     inkscape:groupmode="layer"
     id="layer17"
     inkscape:label="Active3"
     transform="translate(0,0.11887)"><path
       id="path76"
       style="fill:#e3a395;fill-opacity:1;stroke:#404040;stroke-width:0;stroke-linecap:round;stroke-dasharray:none;stroke-dashoffset:0;stroke-opacity:0;paint-order:fill markers stroke"
       d="m 36.990234,479.27344 c 4.329427,8.0957 8.658855,16.1914 12.988282,24.28711 9.186849,2.90494 18.373698,5.80989 27.560546,8.71484 0.695313,-0.63737 1.390626,-1.27474 2.085938,-1.91211 0.255208,-8.20182 0.510417,-16.40364 0.765625,-24.60547 -2.153182,-2.60336 -4.022074,-5.35941 -6.428096,-7.74317 -4.540244,-2.8916 -9.080488,-5.7832 -13.620732,-8.6748 -7.783854,3.3112 -15.567708,6.6224 -23.351563,9.9336 z" /><path
       id="path81"
       style="fill:#e3a395;fill-opacity:1;stroke:#404040;stroke-width:0;stroke-linecap:round;stroke-dasharray:none;stroke-dashoffset:0;stroke-opacity:0;paint-order:fill markers stroke"
       d="m 291.52148,483.74609 c -0.74225,0.42837 -0.8672,0.77307 0.0601,0.97514 8.85625,3.83902 17.71251,7.67803 26.56877,11.51705 3.60872,-5.91601 7.21745,-11.83203 10.82617,-17.74805 -2.38672,-1.1276 -4.77343,-2.2552 -7.16015,-3.38281 -10.09831,2.87956 -20.19662,5.75912 -30.29493,8.63867 z" /><path
       id="path85"
       style="fill:#e3a395;fill-opacity:1;stroke:#404040;stroke-width:0;stroke-linecap:round;stroke-dasharray:none;stroke-dashoffset:0;stroke-opacity:0;paint-order:fill markers stroke"
       d="m 163.19336,524.75781 c 6.77344,4.39323 13.54687,8.78646 20.32031,13.17969 0.48806,-2.7444 0.98124,-5.48771 1.47852,-8.23047 -6.94662,-2.13411 -13.89323,-4.26823 -20.83985,-6.40234 -0.31966,0.48437 -0.63932,0.96875 -0.95898,1.45312 z" /></g><g
     inkscape:groupmode="layer"
     id="layer11"
     inkscape:label="Synergy1"
     transform="translate(0,0.11887)"><path
       id="path63"
       style="fill:#85b8e4;fill-opacity:1;stroke:#404040;stroke-width:0;stroke-linecap:round;stroke-dasharray:none;stroke-dashoffset:0;stroke-opacity:0;paint-order:fill markers stroke"
       d="m 80.185547,357.50586 c -0.780663,0.0514 -0.935458,1.25679 -0.166016,1.47266 0.219372,-0.43252 1.075642,-0.94996 0.490235,-1.41407 -0.09479,-0.0617 -0.215269,-0.0649 -0.324219,-0.0586 z" /></g><g
     inkscape:groupmode="layer"
     id="layer14"
     inkscape:label="Synergy4"
     transform="translate(0,0.11887)"><path
       id="path67"
       style="fill:#acd0ef;fill-opacity:1;stroke:#404040;stroke-width:0;stroke-linecap:round;stroke-dasharray:none;stroke-dashoffset:0;stroke-opacity:0;paint-order:fill markers stroke"
       d="m 262.07812,377.79688 c -2.4108,1.99479 -4.82161,3.98958 -7.23242,5.98437 5.67448,0.2819 11.34896,0.5638 17.02344,0.8457 -0.009,-3.4707 -0.0182,-6.9414 -0.0273,-10.41211 -3.25456,1.19401 -6.50912,2.38802 -9.76368,3.58204 z" /></g><g
     inkscape:groupmode="layer"
     id="layer12"
     inkscape:label="Synergy2"
     transform="translate(0,0.11887)"><path
       id="path73"
       style="fill:#94c4ed;fill-opacity:1;stroke:#404040;stroke-width:0;stroke-linecap:round;stroke-dasharray:none;stroke-dashoffset:0;stroke-opacity:0;paint-order:fill markers stroke"
       d="m 141.71289,397.26367 c 8.70508,8.43425 17.41016,16.86849 26.11523,25.30274 3.67709,0.75586 7.35417,1.51172 11.03126,2.26757 0.10156,-2.71614 0.20312,-5.43229 0.30468,-8.14843 -6.12435,-7.64909 -12.2487,-15.29818 -18.37304,-22.94727 -6.35938,1.17513 -12.71875,2.35026 -19.07813,3.52539 z" /><path
       id="path62"
       style="fill:#94c4ed;fill-opacity:1;stroke:#404040;stroke-width:0;stroke-linecap:round;stroke-dasharray:none;stroke-dashoffset:0;stroke-opacity:0;paint-order:fill markers stroke"
       d="m 21.394531,337.57031 c -0.190523,0.21257 0.0053,0.63346 0.257813,0.32227 0.368977,-0.22387 -0.102287,-0.47581 -0.257813,-0.32227 z" /><path
       id="path70"
       style="fill:#acd0ef;fill-opacity:1;stroke:#404040;stroke-width:0;stroke-linecap:round;stroke-dasharray:none;stroke-dashoffset:0;stroke-opacity:0;paint-order:fill markers stroke"
       d="m 362.5918,431.44727 c -0.63086,1.16796 -1.26172,2.33593 -1.89258,3.5039 1.82552,0.86198 3.65104,1.72396 5.47656,2.58594 4.02149,-2.15169 8.04297,-4.30339 12.06445,-6.45508 0,-7.73633 0,-15.47265 0,-23.20898 -5.21614,7.85807 -10.43229,15.71614 -15.64843,23.57422 z" /></g><g
     inkscape:groupmode="layer"
     id="layer13"
     inkscape:label="Synergy3"
     transform="translate(0,0.11887)"><path
       id="path66"
       style="fill:#74a4ce;fill-opacity:1;stroke:#404040;stroke-width:0;stroke-linecap:round;stroke-dasharray:none;stroke-dashoffset:0;stroke-opacity:0;paint-order:fill markers stroke"
       d="m 199.39258,374.34961 c -0.86062,0.25042 -0.22898,1.7293 0.52539,1.29687 0.63464,-0.35265 0.39465,-1.50882 -0.40344,-1.3163 l -0.0988,0.0157 z" /><path
       id="path68"
       style="fill:#74a4ce;fill-opacity:1;stroke:#404040;stroke-width:0;stroke-linecap:round;stroke-dasharray:none;stroke-dashoffset:0;stroke-opacity:0;paint-order:fill markers stroke"
       d="m 338.65625,342.32812 c -0.6627,0.11504 0.61589,0.11426 0,0 z" /><path
       id="path74"
       style="fill:#74a4ce;fill-opacity:1;stroke:#404040;stroke-width:0;stroke-linecap:round;stroke-dasharray:none;stroke-dashoffset:0;stroke-opacity:0;paint-order:fill markers stroke"
       d="m 86.716797,423.4668 c 2.789062,1.77409 5.578125,3.54817 8.367187,5.32226 0.986329,-0.39909 1.972657,-0.79817 2.958985,-1.19726 -2.167318,-2.17904 -4.334636,-4.35808 -6.501953,-6.53711 -1.608073,0.80403 -3.216146,1.60807 -4.824219,2.41211 z" /></g><g
     inkscape:groupmode="layer"
     id="layer7"
     inkscape:label="Bodymod1"
     transform="translate(0,0.11887)"><path
       id="path47"
       style="fill:#9fc88c;fill-opacity:1;stroke:#404040;stroke-width:0;stroke-linecap:round;stroke-dasharray:none;stroke-dashoffset:0;stroke-opacity:0;paint-order:fill markers stroke"
       d="m 208.29492,225.02539 c 0.43427,-0.30251 1.62143,-0.5255 0.67415,-0.97394 -0.52354,-0.43251 -1.04709,-0.86503 -1.57063,-1.29754 0.29883,0.75716 0.59765,1.51432 0.89648,2.27148 z" /><path
       id="path55"
       style="fill:#9fc88c;fill-opacity:1;stroke:#404040;stroke-width:0;stroke-linecap:round;stroke-dasharray:none;stroke-dashoffset:0;stroke-opacity:0;paint-order:fill markers stroke"
       d="m 87.669922,273.48828 c 0.265379,0.42867 0.141072,1.58775 0.887216,1.11531 2.321449,-0.65953 4.642898,-1.31906 6.964346,-1.97859 -1.570312,-0.94596 -3.140625,-1.89193 -4.710937,-2.83789 -1.046875,1.23372 -2.09375,2.46745 -3.140625,3.70117 z" /></g><g
     inkscape:groupmode="layer"
     id="layer8"
     inkscape:label="Bodymod2"
     transform="translate(0,0.11887)"><path
       id="path52"
       style="fill:#a6d68e;fill-opacity:1;stroke:#404040;stroke-width:0;stroke-linecap:round;stroke-dasharray:none;stroke-dashoffset:0;stroke-opacity:0;paint-order:fill markers stroke"
       d="m 136.79492,235.66992 c 8.23177,4.95899 16.46354,9.91797 24.69531,14.87696 -2.36979,-5.99349 -4.73958,-11.98698 -7.10937,-17.98047 -5.86198,1.0345 -11.72396,2.06901 -17.58594,3.10351 z" /><path
       id="path50"
       style="fill:#a6d68e;fill-opacity:1;stroke:#404040;stroke-width:0;stroke-linecap:round;stroke-dasharray:none;stroke-dashoffset:0;stroke-opacity:0;paint-order:fill markers stroke"
       d="m 318.32812,288.47266 c 2.18099,2.19921 4.36198,4.39843 6.54297,6.59765 6.75651,-3.90039 13.51302,-7.80078 20.26953,-11.70117 -3.63541,-1.51562 -7.27083,-3.03125 -10.90624,-4.54687 -5.30209,3.21679 -10.60417,6.43359 -15.90626,9.65039 z" /><path
       id="path54"
       style="fill:#a6d68e;fill-opacity:1;stroke:#404040;stroke-width:0;stroke-linecap:round;stroke-dasharray:none;stroke-dashoffset:0;stroke-opacity:0;paint-order:fill markers stroke"
       d="m 38.087891,292.0918 c -0.27188,-0.49089 -0.140355,-1.4434 -0.907899,-1.36708 -0.821065,-0.14977 -1.64213,-0.29955 -2.463195,-0.44933 1.123698,0.60547 2.247396,1.21094 3.371094,1.81641 z" /></g><g
     inkscape:groupmode="layer"
     id="layer9"
     inkscape:label="Bodymod3"
     transform="translate(0,0.11887)" /><g
     inkscape:groupmode="layer"
     id="layer10"
     inkscape:label="Bodymod4"
     transform="translate(0,0.11887)"><path
       id="path49"
       style="fill:#90b57f;fill-opacity:1;stroke:#404040;stroke-width:0;stroke-linecap:round;stroke-dasharray:none;stroke-dashoffset:0;stroke-opacity:0;paint-order:fill markers stroke"
       d="m 347.06836,218.16211 c 1.59831,3.56771 3.19661,7.13542 4.79492,10.70312 8.79232,3.66732 17.58464,7.33464 26.37695,11.00196 0,-5.86654 0,-11.73308 0,-17.59961 -4.27539,-4.9694 -8.55078,-9.9388 -12.82617,-14.9082 -6.11523,3.60091 -12.23047,7.20182 -18.3457,10.80273 z" /><path
       id="path58"
       style="fill:#90b57f;fill-opacity:1;stroke:#404040;stroke-width:0;stroke-linecap:round;stroke-dasharray:none;stroke-dashoffset:0;stroke-opacity:0;paint-order:fill markers stroke"
       d="m 283.25195,319.15039 c -1.07917,0.28439 -0.48083,2.14658 0.56317,1.78664 1.1848,-0.20265 0.47399,-2.08072 -0.56317,-1.78664 z" /><path
       id="path60"
       style="fill:#90b57f;fill-opacity:1;stroke:#404040;stroke-width:0;stroke-linecap:round;stroke-dasharray:none;stroke-dashoffset:0;stroke-opacity:0;paint-order:fill markers stroke"
       d="m 152.25781,298.11914 c -0.42698,0.094 -0.27906,0.80586 0.14844,0.51953 0.36891,-0.23446 0.43323,-0.68843 -0.14844,-0.51953 z" /></g><g
     inkscape:label="Passive1"
     inkscape:groupmode="layer"
     id="layer1"
     transform="translate(83.28501,206.63068)"><path
       id="path21"
       style="fill:#e2b584;fill-opacity:1;stroke:#404040;stroke-width:0;stroke-linecap:round;stroke-dasharray:none;stroke-dashoffset:0;stroke-opacity:0;paint-order:fill markers stroke"
       d="m 272.37109,-107.29297 c 7.528,2.98373 15.05599,5.96745 22.58399,8.951173 0,-11.787763 0,-23.575523 0,-35.363283 -2.43294,-0.23112 -4.86589,-0.46224 -7.29883,-0.69336 -5.09505,9.03516 -10.1901,18.07031 -15.28516,27.10547 z" /><path
       id="path12"
       style="fill:#e2b584;fill-opacity:1;stroke:#404040;stroke-width:0;stroke-linecap:round;stroke-dasharray:none;stroke-dashoffset:0;stroke-opacity:0;paint-order:fill markers stroke"
       d="m -28.203125,-113.08203 c 5.45638,4.11002 10.91276,8.22005 16.369141,12.33008 2.3320309,-2.48438 4.6640621,-4.96875 6.9960934,-7.45313 -3.7832032,-3.05989 -7.5664064,-6.11979 -11.3496094,-9.17969 -4.005208,1.43425 -8.010417,2.86849 -12.015625,4.30274 z" /></g><g
     inkscape:groupmode="layer"
     id="layer3"
     inkscape:label="Passive2"
     transform="translate(0,0.11887)"><path
       id="path1"
       style="fill:#e2bf97;fill-opacity:1;stroke:#404040;stroke-width:0;stroke-linecap:round;stroke-opacity:0;paint-order:fill markers stroke"
       d="m 171.39648,158.83984 c 2.17513,2.93099 4.35026,5.86198 6.5254,8.79297 0.0299,-2.4414 0.0599,-4.88281 0.0898,-7.32422 -1.31185,-1.22981 -2.6237,-2.45963 -3.93555,-3.68945 -0.89323,0.74024 -1.78646,1.48047 -2.67969,2.2207 z" /><path
       id="path18"
       style="fill:#e2bf97;fill-opacity:1;stroke:#404040;stroke-width:0;stroke-linecap:round;stroke-dasharray:none;stroke-dashoffset:0;stroke-opacity:0;paint-order:fill markers stroke"
       d="m 270.95898,51.853516 c 7.51107,11.149088 15.02214,22.298177 22.53321,33.447265 3.02995,0.10612 6.05989,0.21224 9.08984,0.31836 6.31185,-11.201172 12.6237,-22.402344 18.93555,-33.603516 -9.0319,-6.324219 -18.0638,-12.648437 -27.0957,-18.972656 -7.82097,6.270182 -15.64193,12.540364 -23.4629,18.810547 z" /><path
       id="path8"
       style="fill:#e2bf97;fill-opacity:1;stroke:#404040;stroke-width:0;stroke-linecap:round;stroke-dasharray:none;stroke-dashoffset:0;stroke-opacity:0;paint-order:fill markers stroke"
       d="m 108.7207,129.57031 c -0.61866,0.20124 -0.50545,1.37616 0.24805,1.16797 0.76907,-0.13066 0.4737,-1.38403 -0.24805,-1.16797 z" /><path
       id="path19"
       style="fill:#e2bf97;fill-opacity:1;stroke:#404040;stroke-width:0;stroke-linecap:round;stroke-dasharray:none;stroke-dashoffset:0;stroke-opacity:0;paint-order:fill markers stroke"
       d="m 263.24805,171.86523 c -0.36827,0.22385 0.38026,0.62125 0.39453,0.21289 -0.0897,-0.12251 -0.22391,-0.27269 -0.39453,-0.21289 z" /></g><g
     inkscape:groupmode="layer"
     id="layer4"
     inkscape:label="Passive3"
     transform="translate(0,0.11887)"><path
       id="path13"
       style="fill:#d0aa7e;fill-opacity:1;stroke:#404040;stroke-width:0;stroke-linecap:round;stroke-dasharray:none;stroke-dashoffset:0;stroke-opacity:0;paint-order:fill markers stroke"
       d="m 24.119141,50.537109 c -0.270581,0.194819 0.403931,0.648602 0.363281,0.257813 -0.05907,-0.136835 -0.206432,-0.2689 -0.363281,-0.257813 z" /><path
       id="path9"
       style="fill:#d0aa7e;fill-opacity:1;stroke:#404040;stroke-width:0;stroke-linecap:round;stroke-dasharray:none;stroke-dashoffset:0;stroke-opacity:0;paint-order:fill markers stroke"
       d="m 100.74414,174.8457 c 0.49502,-0.75698 0.0191,-0.95714 -0.72079,-1.00585 -0.73695,-0.16211 -1.4739,-0.32422 -2.21085,-0.48633 0.977214,0.49739 1.954427,0.99479 2.93164,1.49218 z" /></g><g
     inkscape:groupmode="layer"
     id="layer6"
     inkscape:label="Passive4"
     transform="translate(0,0.11887)"><path
       id="path10"
       style="fill:#d6b186;fill-opacity:1;stroke:#404040;stroke-width:0;stroke-linecap:round;stroke-dasharray:none;stroke-dashoffset:0;stroke-opacity:0;paint-order:fill markers stroke"
       d="m 26.455078,185.96875 c 1.002604,0 2.005208,0 3.007813,0 -1.002605,-1.94336 -2.005209,-3.88672 -3.007813,-5.83008 0,1.94336 0,3.88672 0,5.83008 z" /><path
       id="path6"
       style="fill:#d6b186;fill-opacity:1;stroke:#404040;stroke-width:0;stroke-linecap:round;stroke-dasharray:none;stroke-dashoffset:0;stroke-opacity:0;paint-order:fill markers stroke"
       d="m 143.51758,125.1582 c -0.78006,0.01 -0.69677,1.57845 0.13353,1.1666 0.68101,-0.15735 0.74837,-1.3355 -0.13353,-1.1666 z" /><path
       id="path14"
       style="fill:#d6b186;fill-opacity:1;stroke:#404040;stroke-width:0;stroke-linecap:round;stroke-dasharray:none;stroke-dashoffset:0;stroke-opacity:0;paint-order:fill markers stroke"
       d="m 92.232422,41.419922 c 4.732422,-4.988281 9.464848,-9.976563 14.197268,-14.964844 -10.812503,0 -21.625002,0 -32.437502,0 6.080078,4.988281 12.160156,9.976563 18.240234,14.964844 z" /></g></svg>
