<?xml version="1.0" encoding="UTF-8" standalone="no"?>
<!-- Created with Inkscape (http://www.inkscape.org/) -->

<svg
   width="169.97189mm"
   height="301.75809mm"
   viewBox="0 0 404.69498 718.47164"
   version="1.1"
   id="svg1"
   xml:space="preserve"
   sodipodi:docname="UpgrageOverviewPanel6.svg"
   inkscape:version="1.4.2 (f4327f4, 2025-05-13)"
   inkscape:export-filename="UpgrageOverviewPaneltest1.png"
   inkscape:export-xdpi="96"
   inkscape:export-ydpi="96"
   xmlns:inkscape="http://www.inkscape.org/namespaces/inkscape"
   xmlns:sodipodi="http://sodipodi.sourceforge.net/DTD/sodipodi-0.dtd"
   xmlns="http://www.w3.org/2000/svg"
   xmlns:svg="http://www.w3.org/2000/svg"><sodipodi:namedview
     id="namedview1"
     pagecolor="#ffffff"
     bordercolor="#000000"
     borderopacity="0.25"
     inkscape:showpageshadow="2"
     inkscape:pageopacity="0.0"
     inkscape:pagecheckerboard="0"
     inkscape:deskcolor="#d1d1d1"
     inkscape:document-units="mm"
     inkscape:zoom="1.1508788"
     inkscape:cx="149.45101"
     inkscape:cy="627.78114"
     inkscape:window-width="3840"
     inkscape:window-height="2054"
     inkscape:window-x="-11"
     inkscape:window-y="-11"
     inkscape:window-maximized="1"
     inkscape:current-layer="layer4" /><defs
     id="defs1" /><g
     inkscape:groupmode="layer"
     id="layer2"
     inkscape:label="Marker"
     transform="translate(0,0.11887)" /><g
     inkscape:groupmode="layer"
     id="layer19"
     inkscape:label="Special1"
     transform="translate(0,0.11887)"><path
       id="path86"
       style="fill:#865ccc;fill-opacity:1;stroke:#404040;stroke-width:0;stroke-linecap:round;stroke-dasharray:none;stroke-dashoffset:0;stroke-opacity:0;paint-order:fill markers stroke"
       d="m 7.1289062,589.26953 c 9.4947918,16.84636 18.9895838,33.69271 28.4843748,50.53906 22.053386,-11.9375 44.106771,-23.875 66.160159,-35.8125 C 94.613281,596.12305 87.453125,588.25 80.292969,580.37695 59.942708,575.20378 39.592448,570.0306 19.242188,564.85742 c -4.037761,8.13737 -8.075521,16.27474 -12.1132818,24.41211 z" /><path
       id="path90"
       style="fill:#865ccc;fill-opacity:1;stroke:#404040;stroke-width:0;stroke-linecap:round;stroke-dasharray:none;stroke-dashoffset:0;stroke-opacity:0;paint-order:fill markers stroke"
       d="m 50.224609,712.05469 c 36.716146,0 73.432291,0 110.148441,0 -13.39028,-5.14161 -26.79908,-10.23945 -40.16118,-15.45093 -1.08885,-0.51636 -2.17771,-1.03272 -3.26656,-1.54907 -22.240232,5.66666 -44.480466,11.33333 -66.720701,17 z" /><path
       id="path92"
       style="fill:#865ccc;fill-opacity:1;stroke:#404040;stroke-width:0;stroke-linecap:round;stroke-dasharray:none;stroke-dashoffset:0;stroke-opacity:0;paint-order:fill markers stroke"
       d="m 273.12891,671.18555 c 0.9824,0.72476 1.9661,1.44798 2.94921,2.17187 -10.55781,6.78897 -21.11731,13.57533 -31.67578,20.36328 19.1198,-6.86263 38.23959,-13.72526 57.35938,-20.58789 -9.66927,-0.74088 -19.33854,-1.48177 -29.00781,-2.22265 0.125,0.0918 0.25,0.18359 0.375,0.27539 z" /><path
       id="path95"
       style="fill:#865ccc;fill-opacity:1;stroke:#404040;stroke-width:0;stroke-linecap:round;stroke-dasharray:none;stroke-dashoffset:0;stroke-opacity:0;paint-order:fill markers stroke"
       d="m 301.11133,604.97266 c 11.0664,18.75651 22.13281,37.51302 33.19922,56.26953 21.36198,-8.55599 42.72396,-17.11198 64.08593,-25.66797 0,-15.09766 0,-30.19531 0,-45.29297 -16.14127,-12.21289 -32.28255,-24.42578 -48.42382,-36.63867 -16.28711,17.11002 -32.57422,34.22005 -48.86133,51.33008 z" /></g><g
     inkscape:groupmode="layer"
     id="layer21"
     inkscape:label="Special3"
     transform="translate(0,0.11887)"><path
       id="path88"
       style="fill:#a381dc;fill-opacity:1;stroke:#404040;stroke-width:0;stroke-linecap:round;stroke-dasharray:none;stroke-dashoffset:0;stroke-opacity:0;paint-order:fill markers stroke"
       d="m 47.078125,647.92383 c 24.845052,11.79557 49.690104,23.59114 74.535155,35.38672 14.51693,-19.2142 29.03386,-38.42839 43.55078,-57.64258 -17.49414,-4.41797 -34.98828,-8.83594 -52.48242,-13.25391 -21.867838,11.83659 -43.735676,23.67318 -65.603515,35.50977 z" /><path
       id="path93"
       style="fill:#a381dc;fill-opacity:1;stroke:#404040;stroke-width:0;stroke-linecap:round;stroke-dasharray:none;stroke-dashoffset:0;stroke-opacity:0;paint-order:fill markers stroke"
       d="m 211.4668,625.79492 c 14.04297,10.33789 28.08593,20.67578 42.1289,31.01367 22.15235,1.69727 44.30469,3.39453 66.45703,5.0918 -10.31054,-17.48047 -20.62109,-34.96094 -30.93164,-52.44141 -28.76302,-8.00651 -57.52604,-16.01302 -86.28906,-24.01953 2.87826,13.45183 5.75651,26.90365 8.63477,40.35547 z" /></g><g
     inkscape:groupmode="layer"
     id="layer22"
     inkscape:label="Special4"
     transform="translate(0,0.11887)"><path
       id="path94"
       style="fill:#724eaf;fill-opacity:1;stroke:#404040;stroke-width:0;stroke-linecap:round;stroke-dasharray:none;stroke-dashoffset:0;stroke-opacity:0;paint-order:fill markers stroke"
       d="m 278.4082,559.39062 c -22.29006,-0.21808 -44.58099,-0.54567 -66.87109,-0.83007 -2.56966,4.69531 -5.13932,9.39062 -7.70899,14.08593 29.16016,8.11719 58.32032,16.23438 87.48047,24.35157 13.8405,-14.53972 27.68099,-29.07943 41.52149,-43.61914 -18.14063,2.0039 -36.28125,4.00781 -54.42188,6.01171 z" /><path
       id="path96"
       style="fill:#724eaf;fill-opacity:1;stroke:#404040;stroke-width:0;stroke-linecap:round;stroke-dasharray:none;stroke-dashoffset:0;stroke-opacity:0;paint-order:fill markers stroke"
       d="m 229.29688,712.05469 c 56.36653,0 112.73307,0 169.0996,0 0,-21.04688 0,-42.09375 0,-63.14063 -56.36653,21.04688 -112.73307,42.09375 -169.0996,63.14063 z" /></g><g
     inkscape:groupmode="layer"
     id="layer20"
     inkscape:label="Special2"
     transform="translate(0,0.11887)"><path
       id="path87"
       style="fill:#9970df;fill-opacity:1;stroke:#404040;stroke-width:0;stroke-linecap:round;stroke-dasharray:none;stroke-dashoffset:0;stroke-opacity:0;paint-order:fill markers stroke"
       d="m 92.412109,574.97656 c 7.606121,8.36459 15.212241,16.72917 22.818361,25.09375 27.43034,6.92774 54.86068,13.85547 82.29101,20.78321 -2.88151,-13.4681 -5.76302,-26.9362 -8.64453,-40.4043 -20.5345,-13.32031 -41.06901,-26.64063 -61.60351,-39.96094 -11.62045,11.4961 -23.24089,22.99219 -34.861331,34.48828 z" /><path
       id="path89"
       style="fill:#9970df;fill-opacity:1;stroke:#404040;stroke-width:0;stroke-linecap:round;stroke-dasharray:none;stroke-dashoffset:0;stroke-opacity:0;paint-order:fill markers stroke"
       d="M 6.2988281,710.24805 C 37.242839,702.36263 68.186849,694.47721 99.130859,686.5918 75.637412,675.43741 52.143629,664.28373 28.650391,653.12891 21.200817,639.90832 13.749191,626.68889 6.2988281,613.46875 c 0,32.25977 0,64.51953 0,96.7793 z" /><path
       id="path91"
       style="fill:#9970df;fill-opacity:1;stroke:#404040;stroke-width:0;stroke-linecap:round;stroke-dasharray:none;stroke-dashoffset:0;stroke-opacity:0;paint-order:fill markers stroke"
       d="m 133.625,688.33008 c 20.02214,7.66732 40.04427,15.33463 60.06641,23.00195 20.05989,-12.89583 40.11979,-25.79167 60.17968,-38.6875 -16.93424,-12.46875 -33.86849,-24.9375 -50.80273,-37.40625 -8.21419,-2.07357 -16.42839,-4.14713 -24.64258,-6.2207 -14.93359,19.77083 -29.86719,39.54166 -44.80078,59.3125 z" /></g><g
     inkscape:groupmode="layer"
     id="layer15"
     inkscape:label="Active1"
     transform="translate(0,0.11887)"><path
       id="path77"
       style="fill:#d67965;fill-opacity:1;stroke:#404040;stroke-width:0;stroke-linecap:round;stroke-dasharray:none;stroke-dashoffset:0;stroke-opacity:0;paint-order:fill markers stroke"
       d="m 6.2988281,562.58984 c 6.1126299,-12.3125 12.2252609,-24.625 18.3378909,-36.9375 -6.11263,-11.42838 -12.225261,-22.85677 -18.3378909,-34.28515 0,23.74088 0,47.48177 0,71.22265 z" /><path
       id="path80"
       style="fill:#d67965;fill-opacity:1;stroke:#404040;stroke-width:0;stroke-linecap:round;stroke-dasharray:none;stroke-dashoffset:0;stroke-opacity:0;paint-order:fill markers stroke"
       d="m 207.58984,462.31836 c -1.90141,1.44401 -4.44884,1.07162 -6.59601,0.49749 -6.18153,-1.26739 -12.36307,-2.53478 -18.54461,-3.80218 -6.52018,9.88086 -13.04037,19.76172 -19.56055,29.64258 16.98242,5.21094 33.96485,10.42188 50.94727,15.63281 18.02864,-14.52929 36.05729,-29.05859 54.08594,-43.58789 -10.02409,-5.68099 -20.04818,-11.36198 -30.07227,-17.04297 -10.08659,6.22006 -20.17318,12.44011 -30.25977,18.66016 z" /><path
       id="path82"
       style="fill:#d67965;fill-opacity:1;stroke:#404040;stroke-width:0;stroke-linecap:round;stroke-dasharray:none;stroke-dashoffset:0;stroke-opacity:0;paint-order:fill markers stroke"
       d="m 371.4082,471.89648 c -11.43554,18.73438 -22.87109,37.46875 -34.30664,56.20313 20.43164,15.46354 40.86328,30.92708 61.29492,46.39062 0,-39.01432 0,-78.02864 0,-117.04296 -8.99609,4.8164 -17.99218,9.63281 -26.98828,14.44921 z" /></g><g
     inkscape:groupmode="layer"
     id="layer16"
     inkscape:label="Active2"
     transform="translate(0,0.11887)"><path
       id="path78"
       style="fill:#e58f7d;fill-opacity:1;stroke:#404040;stroke-width:0;stroke-linecap:round;stroke-dasharray:none;stroke-dashoffset:0;stroke-opacity:0;paint-order:fill markers stroke"
       d="m 112.06055,522.21484 c 0.23763,2.45627 -1.51222,4.51685 -3.33355,5.92493 -7.67062,7.01862 -15.342027,14.03638 -23.012156,21.05554 -16.912241,-5.34073 -33.824197,-10.68236 -50.736328,-16.02343 -3.334636,6.71614 -6.669271,13.43229 -10.003907,20.14843 18.934245,4.81315 37.86849,9.6263 56.802735,14.43946 12.232422,-12.10157 24.464846,-24.20313 36.697266,-36.30469 -2.12565,-3.49219 -4.2513,-6.98438 -6.37695,-10.47656 -0.0124,0.4121 -0.0247,0.82421 -0.0371,1.23632 z" /><path
       id="path83"
       style="fill:#e58f7d;fill-opacity:1;stroke:#404040;stroke-width:0;stroke-linecap:round;stroke-dasharray:none;stroke-dashoffset:0;stroke-opacity:0;paint-order:fill markers stroke"
       d="m 285.21484,545.96289 c 15.88933,-1.75325 31.77865,-3.50651 47.66797,-5.25977 -2.5653,-1.92817 -5.11963,-3.92091 -7.73628,-5.70969 -11.92645,-5.16968 -23.85289,-10.33937 -35.77934,-15.50905 -1.38412,8.82617 -2.76823,17.65234 -4.15235,26.47851 z" /></g><g
     inkscape:groupmode="layer"
     id="layer18"
     inkscape:label="Active4"
     transform="translate(0,0.11887)"><path
       id="path84"
       style="fill:#ce6954;fill-opacity:1;stroke:#404040;stroke-width:0;stroke-linecap:round;stroke-dasharray:none;stroke-dashoffset:0;stroke-opacity:0;paint-order:fill markers stroke"
       d="m 220.96484,514.71875 c -1.87304,10.43099 -3.74609,20.86198 -5.61914,31.29297 18.99935,0.25065 37.9987,0.5013 56.99805,0.75195 1.69661,-10.81706 3.39323,-21.63411 5.08984,-32.45117 -12.1289,-5.25716 -24.25781,-10.51432 -36.38671,-15.77148 -6.69402,5.39257 -13.38803,10.78515 -20.08204,16.17773 z" /><path
       id="path79"
       style="fill:#ce6954;fill-opacity:1;stroke:#404040;stroke-width:0;stroke-linecap:round;stroke-dasharray:none;stroke-dashoffset:0;stroke-opacity:0;paint-order:fill markers stroke"
       d="m 102.62305,461.08008 c 3.62565,4.53255 7.25126,9.06513 10.87695,13.59765 -0.2331,7.73961 -0.46755,15.47917 -0.70117,23.21875 4.61979,7.59571 9.23958,15.19141 13.85937,22.78711 14.16992,-21.4681 28.33985,-42.93619 42.50977,-64.40429 -5.76104,-1.18308 -11.52231,-2.36505 -17.2832,-3.54883 -2.81213,-2.72565 -5.62507,-5.45046 -8.4375,-8.17578 -13.60808,5.50846 -27.21615,11.01692 -40.82422,16.52539 z" /></g><g
     inkscape:groupmode="layer"
     id="layer17"
     inkscape:label="Active3"
     transform="translate(0,0.11887)"><path
       id="path76"
       style="fill:#e3a395;fill-opacity:1;stroke:#404040;stroke-width:0;stroke-linecap:round;stroke-dasharray:none;stroke-dashoffset:0;stroke-opacity:0;paint-order:fill markers stroke"
       d="m 8.8085938,469.33594 c 9.0878902,16.99153 18.1757812,33.98307 27.2636722,50.97461 15.499349,4.89518 30.998698,9.79036 46.498046,14.68554 5.653646,-5.17057 11.307292,-10.34114 16.960938,-15.51171 0.411458,-13.51628 0.82292,-27.03256 1.23437,-40.54883 -4.208328,-5.25847 -8.416662,-10.51693 -12.624995,-15.77539 -8.651693,-5.50261 -17.303385,-11.00521 -25.955078,-16.50782 -17.792318,7.5612 -35.584636,15.1224 -53.3769532,22.6836 z" /><path
       id="path81"
       style="fill:#e3a395;fill-opacity:1;stroke:#404040;stroke-width:0;stroke-linecap:round;stroke-dasharray:none;stroke-dashoffset:0;stroke-opacity:0;paint-order:fill markers stroke"
       d="m 282.05273,465.49609 c -9.97395,8.03646 -19.94791,16.07292 -29.92187,24.10938 24.70052,10.70573 49.40104,21.41146 74.10156,32.11719 10.55013,-17.29232 21.10026,-34.58464 31.65039,-51.87696 -11.42838,-5.40234 -22.85677,-10.80468 -34.28515,-16.20703 -13.84831,3.95248 -27.69662,7.90495 -41.54493,11.85742 z" /><path
       id="path85"
       style="fill:#e3a395;fill-opacity:1;stroke:#404040;stroke-width:0;stroke-linecap:round;stroke-dasharray:none;stroke-dashoffset:0;stroke-opacity:0;paint-order:fill markers stroke"
       d="m 135.19336,530.61523 c 19.00977,12.33008 38.01953,24.66016 57.0293,36.99024 3.19596,-5.8405 6.39192,-11.68099 9.58789,-17.52149 2.06185,-11.4694 4.12369,-22.9388 6.18554,-34.4082 -17.44791,-5.35417 -34.89583,-10.70833 -52.34375,-16.0625 -6.81966,10.33399 -13.63932,20.66797 -20.45898,31.00195 z" /></g><g
     inkscape:groupmode="layer"
     id="layer11"
     inkscape:label="Synergy1"
     transform="translate(0,0.11887)"><path
       id="path63"
       style="fill:#85b8e4;fill-opacity:1;stroke:#404040;stroke-width:0;stroke-linecap:round;stroke-dasharray:none;stroke-dashoffset:0;stroke-opacity:0;paint-order:fill markers stroke"
       d="m 89.667969,344.73047 c 1.280599,3.93034 2.561198,7.86068 3.841797,11.79101 8.138024,-4.85351 16.276044,-9.70703 24.414064,-14.56054 -12.0013,-7.01237 -24.002606,-14.02474 -36.003908,-21.03711 2.582682,7.93554 5.165364,15.87109 7.748047,23.80664 z m -13.085938,21.88867 c 4.875651,-2.9082 9.751302,-5.81641 14.626953,-8.72461 -6.14388,-3.30859 -12.28776,-6.61719 -18.43164,-9.92578 1.268229,6.2168 2.536458,12.43359 3.804687,18.65039 z" /><path
       id="path65"
       style="fill:#85b8e4;fill-opacity:1;stroke:#404040;stroke-width:0;stroke-linecap:round;stroke-dasharray:none;stroke-dashoffset:0;stroke-opacity:0;paint-order:fill markers stroke"
       d="m 153.44531,325.41797 c 3.96224,11.39779 7.92448,22.79557 11.88672,34.19336 9.15169,-1.69141 18.30339,-3.38281 27.45508,-5.07422 C 185,339.7513 177.21289,324.96549 169.42578,310.17969 c -5.32682,5.07942 -10.65364,10.15885 -15.98047,15.23828 z" /><path
       id="path69"
       style="fill:#85b8e4;fill-opacity:1;stroke:#404040;stroke-width:0;stroke-linecap:round;stroke-dasharray:none;stroke-dashoffset:0;stroke-opacity:0;paint-order:fill markers stroke"
       d="m 304.61523,379.32812 c 0.0143,5.10027 0.0287,10.20053 0.043,15.30079 10.96094,5.10872 21.92188,10.21744 32.88282,15.32617 10.26953,-15.45768 20.53906,-30.91537 30.80859,-46.37305 -21.24479,5.2487 -42.48958,10.4974 -63.73438,15.74609 z" /><path
       id="path71"
       style="fill:#85b8e4;fill-opacity:1;stroke:#404040;stroke-width:0;stroke-linecap:round;stroke-dasharray:none;stroke-dashoffset:0;stroke-opacity:0;paint-order:fill markers stroke"
       d="m 210.88672,445.48047 c 8.89658,-5.48357 17.79238,-10.9684 26.68945,-16.45117 14.10961,7.99503 28.21871,15.99095 42.32813,23.98632 10.01692,-2.85872 20.03385,-5.71744 30.05078,-8.57617 -12.4375,-8.99544 -24.875,-17.99088 -37.3125,-26.98633 -20.19662,-1.0052 -40.39323,-2.01041 -60.58985,-3.01562 -0.38867,10.34766 -0.77734,20.69531 -1.16601,31.04297 z" /><path
       id="path75"
       style="fill:#85b8e4;fill-opacity:1;stroke:#404040;stroke-width:0;stroke-linecap:round;stroke-dasharray:none;stroke-dashoffset:0;stroke-opacity:0;paint-order:fill markers stroke"
       d="m 6.2988281,384.71484 c 0,23.99805 0,47.9961 0,71.99414 14.3248699,-6.08658 28.6497399,-12.17317 42.9746099,-18.25976 -7.440244,-4.72765 -14.879361,-9.45707 -22.320313,-14.1836 -0.783433,-17.89466 -1.57342,-35.78904 -2.359375,-53.68359 -6.098307,4.71094 -12.196615,9.42188 -18.2949219,14.13281 z" /></g><g
     inkscape:groupmode="layer"
     id="layer14"
     inkscape:label="Synergy4"
     transform="translate(0,0.11887)"><path
       id="path64"
       style="fill:#acd0ef;fill-opacity:1;stroke:#404040;stroke-width:0;stroke-linecap:round;stroke-dasharray:none;stroke-dashoffset:0;stroke-opacity:0;paint-order:fill markers stroke"
       d="m 75.820312,381.73633 c -2.027453,1.69658 -5.047188,1.42369 -7.21459,0.1453 -10.507246,-4.6194 -21.014492,-9.2388 -31.521738,-13.85819 0.626953,14.23893 1.253907,28.47786 1.88086,42.71679 35.327474,-17.66341 70.654946,-35.32682 105.982426,-52.99023 -4.87045,-2.8444 -9.74089,-5.6888 -14.61133,-8.5332 -18.17188,10.83984 -36.343752,21.67968 -54.515628,32.51953 z" /><path
       id="path67"
       style="fill:#acd0ef;fill-opacity:1;stroke:#404040;stroke-width:0;stroke-linecap:round;stroke-dasharray:none;stroke-dashoffset:0;stroke-opacity:0;paint-order:fill markers stroke"
       d="m 251.92188,360.04688 c -12.42253,10.27994 -24.84506,20.55989 -37.26758,30.83984 -0.49935,3.66732 -0.9987,7.33463 -1.49805,11.00195 26.31055,1.3086 52.62109,2.61719 78.93164,3.92578 -0.054,-20.14778 -0.10807,-40.29557 -0.16211,-60.44336 -13.33463,4.89193 -26.66927,9.78386 -40.0039,14.67579 z" /></g><g
     inkscape:groupmode="layer"
     id="layer12"
     inkscape:label="Synergy2"
     transform="translate(0,0.11887)"><path
       id="path62"
       style="fill:#94c4ed;fill-opacity:1;stroke:#404040;stroke-width:0;stroke-linecap:round;stroke-dasharray:none;stroke-dashoffset:0;stroke-opacity:0;paint-order:fill markers stroke"
       d="m 6.2988281,368.80469 c 7.7193949,-5.96681 15.4388409,-11.93355 23.1582029,-17.90039 11.374687,4.99876 22.750052,9.99597 34.125,14.99414 -1.751302,-8.56966 -3.502604,-17.13933 -5.253906,-25.70899 -17.343099,-9.33919 -34.686198,-18.67838 -52.0292969,-28.01757 0,18.8776 0,37.7552 0,56.63281 z" /><path
       id="path70"
       style="fill:#acd0ef;fill-opacity:1;stroke:#404040;stroke-width:0;stroke-linecap:round;stroke-dasharray:none;stroke-dashoffset:0;stroke-opacity:0;paint-order:fill markers stroke"
       d="m 345.2168,421.16602 c -4.12045,7.63737 -8.24089,15.27474 -12.36133,22.9121 11.29492,5.3405 22.58984,10.68099 33.88476,16.02149 10.55209,-5.64714 21.10417,-11.29427 31.65625,-16.94141 0,-22.60481 0,-45.20963 0,-67.81445 -4.84309,-4.1224 -9.68619,-8.24479 -14.52929,-12.36719 -12.88347,19.39649 -25.76693,38.79297 -38.65039,58.18946 z" /><path
       id="path72"
       style="fill:#94c4ed;fill-opacity:1;stroke:#404040;stroke-width:0;stroke-linecap:round;stroke-dasharray:none;stroke-dashoffset:0;stroke-opacity:0;paint-order:fill markers stroke"
       d="m 304.70508,412.28125 c 0.3307,2.47204 -0.85781,5.34619 -3.36604,6.1644 -1.79848,0.70513 -3.73354,0.12509 -5.59295,0.16373 8.75977,6.33463 17.51954,12.66927 26.2793,19.0039 3.01367,-5.58984 6.02734,-11.17969 9.04102,-16.76953 -8.79037,-4.09701 -17.58073,-8.19401 -26.3711,-12.29102 0.003,1.24284 0.007,2.48568 0.01,3.72852 z" /><path
       id="path73"
       style="fill:#94c4ed;fill-opacity:1;stroke:#404040;stroke-width:0;stroke-linecap:round;stroke-dasharray:none;stroke-dashoffset:0;stroke-opacity:0;paint-order:fill markers stroke"
       d="m 131.13867,378.73438 c -8.24674,4.12369 -16.49349,8.24739 -24.74023,12.37109 17.20638,16.67448 34.41276,33.34896 51.61914,50.02344 13.36914,2.74674 26.73828,5.49349 40.10742,8.24023 0.49219,-13.14453 0.98438,-26.28906 1.47656,-39.43359 -10.19726,-12.73243 -20.39453,-25.46485 -30.59179,-38.19727 -12.6237,2.33203 -25.2474,4.66406 -37.8711,6.9961 z" /></g><g
     inkscape:groupmode="layer"
     id="layer13"
     inkscape:label="Synergy3"
     transform="translate(0,0.11887)"><path
       id="path66"
       style="fill:#74a4ce;fill-opacity:1;stroke:#404040;stroke-width:0;stroke-linecap:round;stroke-dasharray:none;stroke-dashoffset:0;stroke-opacity:0;paint-order:fill markers stroke"
       d="m 208.41016,360.94922 c -0.54232,2.73063 -3.3017,4.50543 -5.96748,4.60997 -6.46006,1.19381 -12.92012,2.38762 -19.38018,3.58143 6.22266,7.76889 12.44531,15.53777 18.66797,23.30665 0.36911,-2.71095 0.73845,-5.42186 1.10742,-8.13282 13.54003,-11.2 27.07796,-22.40254 40.61719,-33.60351 2.05729,-5.40821 4.11458,-10.81641 6.17187,-16.22461 -10.35221,0 -20.70442,0 -31.05664,0 -3.38672,8.82096 -6.77343,17.64193 -10.16015,26.46289 z" /><path
       id="path68"
       style="fill:#74a4ce;fill-opacity:1;stroke:#404040;stroke-width:0;stroke-linecap:round;stroke-dasharray:none;stroke-dashoffset:0;stroke-opacity:0;paint-order:fill markers stroke"
       d="m 387,333.06836 c -1.74267,1.68618 -4.40761,1.63384 -6.60438,1.05709 -14.75687,-2.56591 -29.51375,-5.13181 -44.27062,-7.69772 -4.54971,2.59161 -9.02622,5.32748 -13.66811,7.74731 -5.98107,2.1923 -11.96215,4.38461 -17.94322,6.57691 0.0241,8.53581 0.0482,17.07162 0.0723,25.60743 26.52789,-6.5577 53.05659,-13.11216 79.58398,-19.67188 4.74133,4.03877 9.48452,8.07536 14.22656,12.11328 0,-11.37695 0,-22.7539 0,-34.13086 -3.79882,2.79948 -7.59765,5.59896 -11.39648,8.39844 z" /><path
       id="path74"
       style="fill:#74a4ce;fill-opacity:1;stroke:#404040;stroke-width:0;stroke-linecap:round;stroke-dasharray:none;stroke-dashoffset:0;stroke-opacity:0;paint-order:fill markers stroke"
       d="m 45.873047,421.36523 c 15.726562,9.99935 31.453125,19.9987 47.179687,29.99805 13.559246,-5.49219 27.118486,-10.98437 40.677736,-16.47656 -12.72201,-12.78776 -25.44401,-25.57552 -38.166017,-38.36328 -16.563802,8.2806 -33.127604,16.5612 -49.691406,24.84179 z" /></g><g
     inkscape:groupmode="layer"
     id="layer7"
     inkscape:label="Bodymod1"
     transform="translate(0,0.11887)"><path
       id="path47"
       style="fill:#9fc88c;fill-opacity:1;stroke:#404040;stroke-width:0;stroke-linecap:round;stroke-dasharray:none;stroke-dashoffset:0;stroke-opacity:0;paint-order:fill markers stroke"
       d="m 179.00195,205.76758 c 6.25782,15.82943 12.51563,31.65885 18.77344,47.48828 15.97135,-8.33659 31.94271,-16.67318 47.91406,-25.00977 -14.11718,-11.66341 -28.23437,-23.32682 -42.35156,-34.99023 -8.11198,4.17057 -16.22396,8.34115 -24.33594,12.51172 z" /><path
       id="path55"
       style="fill:#9fc88c;fill-opacity:1;stroke:#404040;stroke-width:0;stroke-linecap:round;stroke-dasharray:none;stroke-dashoffset:0;stroke-opacity:0;paint-order:fill markers stroke"
       d="m 65.013672,269.00586 c 3.302083,10.14062 6.604167,20.28125 9.90625,30.42187 23.594401,-6.70768 47.188798,-13.41536 70.783198,-20.12304 -19.722,-11.88086 -39.44401,-23.76172 -59.166011,-35.64258 -7.174479,8.44792 -14.348958,16.89583 -21.523437,25.34375 z" /><path
       id="path59"
       style="fill:#9fc88c;fill-opacity:1;stroke:#404040;stroke-width:0;stroke-linecap:round;stroke-dasharray:none;stroke-dashoffset:0;stroke-opacity:0;paint-order:fill markers stroke"
       d="m 223.4043,321.88867 c 10.33789,0 20.67578,0 31.01367,0 4.125,-10.83463 8.25,-21.66927 12.375,-32.5039 -10.23958,-0.16472 -20.47917,-0.32943 -30.71875,-0.49415 -4.22331,10.99935 -8.44662,21.9987 -12.66992,32.99805 z" /></g><g
     inkscape:groupmode="layer"
     id="layer8"
     inkscape:label="Bodymod2"
     transform="translate(0,0.11887)"><path
       id="path48"
       style="fill:#a6d68e;fill-opacity:1;stroke:#404040;stroke-width:0;stroke-linecap:round;stroke-dasharray:none;stroke-dashoffset:0;stroke-opacity:0;paint-order:fill markers stroke"
       d="m 262.63477,224.39844 c 19.39453,5.11588 38.78906,10.23177 58.18359,15.34765 -6.02539,-13.43685 -12.05078,-26.87369 -18.07617,-40.31054 -15.02539,-2.60417 -30.05078,-5.20834 -45.07617,-7.8125 1.65625,10.92513 3.3125,21.85026 4.96875,32.77539 z" /><path
       id="path50"
       style="fill:#a6d68e;fill-opacity:1;stroke:#404040;stroke-width:0;stroke-linecap:round;stroke-dasharray:none;stroke-dashoffset:0;stroke-opacity:0;paint-order:fill markers stroke"
       d="m 285.98438,284.47852 c 11.8457,11.9414 23.6914,23.88281 35.5371,35.82421 22.99805,-13.27994 45.9961,-26.55989 68.99414,-39.83984 -19.33593,-8.06771 -38.67187,-16.13542 -58.00781,-24.20312 -15.50781,9.40625 -31.01562,18.8125 -46.52343,28.21875 z" /><path
       id="path52"
       style="fill:#a6d68e;fill-opacity:1;stroke:#404040;stroke-width:0;stroke-linecap:round;stroke-dasharray:none;stroke-dashoffset:0;stroke-opacity:0;paint-order:fill markers stroke"
       d="m 117.42188,218.625 c -13.39162,0.1805 -26.792035,0.0711 -40.187114,0.0977 -2.553516,0 -5.107032,0 -7.660547,0 30.623701,18.44921 61.247391,36.89843 91.871091,55.34765 8.39974,-4.90104 16.79948,-9.80208 25.19922,-14.70312 -6.52344,-16.5013 -13.04687,-33.00261 -19.57031,-49.50391 -16.55078,2.92057 -33.10156,5.84115 -49.65234,8.76172 z" /><path
       id="path54"
       style="fill:#a6d68e;fill-opacity:1;stroke:#404040;stroke-width:0;stroke-linecap:round;stroke-dasharray:none;stroke-dashoffset:0;stroke-opacity:0;paint-order:fill markers stroke"
       d="m 6.2988281,297.86523 c 22.1751299,11.94011 44.3502609,23.88021 66.5253909,35.82032 -6.571615,-20.1862 -13.143229,-40.3724 -19.714844,-60.5586 -15.603516,-2.84765 -31.207031,-5.69531 -46.8105469,-8.54297 0,11.09375 0,22.1875 0,33.28125 z" /><path
       id="path57"
       style="fill:#a6d68e;fill-opacity:1;stroke:#404040;stroke-width:0;stroke-linecap:round;stroke-dasharray:none;stroke-dashoffset:0;stroke-opacity:0;paint-order:fill markers stroke"
       d="m 201.44922,343.94141 c 7.07226,-18.42188 14.14453,-36.84375 21.2168,-55.26563 -16.91732,-0.27213 -33.83464,-0.54427 -50.75196,-0.8164 9.84505,18.69401 19.69011,37.38802 29.53516,56.08203 z" /></g><g
     inkscape:groupmode="layer"
     id="layer9"
     inkscape:label="Bodymod3"
     transform="translate(0,0.11887)"><path
       id="path53"
       style="fill:#b2e09d;fill-opacity:1;stroke:#404040;stroke-width:0;stroke-linecap:round;stroke-dasharray:none;stroke-dashoffset:0;stroke-opacity:0;paint-order:fill markers stroke"
       d="m 6.2988281,251.77148 c 16.3945309,2.99089 32.7890629,5.98178 49.1835939,8.97266 6.702474,-7.89128 13.404948,-15.78255 20.107422,-23.67383 -10.14974,-6.11588 -20.299479,-12.23177 -30.449219,-18.34765 -12.947266,0 -25.894531,0 -38.8417969,0 0,11.01627 0,22.03255 0,33.04882 z" /><path
       id="path51"
       style="fill:#b2e09d;fill-opacity:1;stroke:#404040;stroke-width:0;stroke-linecap:round;stroke-dasharray:none;stroke-dashoffset:0;stroke-opacity:0;paint-order:fill markers stroke"
       d="m 197.44141,267.6582 c -4.46004,2.5973 -8.9178,5.19961 -13.37696,7.79883 30.028,0.48242 60.05599,0.96485 90.08399,1.44727 13.95182,-8.46354 27.90364,-16.92709 41.85547,-25.39063 -19.40886,-5.11914 -38.81771,-10.23828 -58.22657,-15.35742 -20.11198,10.50065 -40.22395,21.0013 -60.33593,31.50195 z" /><path
       id="path56"
       style="fill:#b2e09d;fill-opacity:1;stroke:#404040;stroke-width:0;stroke-linecap:round;stroke-dasharray:none;stroke-dashoffset:0;stroke-opacity:0;paint-order:fill markers stroke"
       d="m 86.742188,309.1543 c 19.961592,11.6608 39.923172,23.32161 59.884762,34.98242 -5.48372,-15.77669 -10.96744,-31.55339 -16.45117,-47.33008 -14.47786,4.11589 -28.95573,8.23177 -43.433592,12.34766 z" /><path
       id="path61"
       style="fill:#b2e09d;fill-opacity:1;stroke:#404040;stroke-width:0;stroke-linecap:round;stroke-dasharray:none;stroke-dashoffset:0;stroke-opacity:0;paint-order:fill markers stroke"
       d="m 353.16016,316.59375 c 9.42838,1.64128 18.85677,3.28255 28.28515,4.92383 5.65039,-4.16732 11.30078,-8.33464 16.95117,-12.50196 0,-6.18098 0,-12.36197 0,-18.54296 -15.07877,8.70703 -30.15755,17.41406 -45.23632,26.12109 z" /></g><g
     inkscape:groupmode="layer"
     id="layer10"
     inkscape:label="Bodymod4"
     transform="translate(0,0.11887)"><path
       id="path49"
       style="fill:#90b57f;fill-opacity:1;stroke:#404040;stroke-width:0;stroke-linecap:round;stroke-dasharray:none;stroke-dashoffset:0;stroke-opacity:0;paint-order:fill markers stroke"
       d="m 333.01367,203.05273 c -1.90247,1.39914 -4.3967,0.95057 -6.53711,0.49415 -2.91732,-0.50391 -5.83463,-1.00782 -8.75195,-1.51172 6.32747,14.11002 12.65495,28.22005 18.98242,42.33007 20.56315,8.57878 41.1263,17.15756 61.68945,25.73633 0,-18.44466 0,-36.88932 0,-55.33398 -9.56054,-11.10873 -19.12109,-22.21745 -28.68164,-33.32617 -12.23372,7.20377 -24.46744,14.40755 -36.70117,21.61132 z" /><path
       id="path58"
       style="fill:#90b57f;fill-opacity:1;stroke:#404040;stroke-width:0;stroke-linecap:round;stroke-dasharray:none;stroke-dashoffset:0;stroke-opacity:0;paint-order:fill markers stroke"
       d="m 259.55273,343.82422 c 16.51237,-6.0586 33.02474,-12.11719 49.53711,-18.17578 -10.26692,-10.34766 -20.53385,-20.69531 -30.80078,-31.04297 -6.24544,16.40625 -12.49088,32.8125 -18.73633,49.21875 z" /><path
       id="path60"
       style="fill:#90b57f;fill-opacity:1;stroke:#404040;stroke-width:0;stroke-linecap:round;stroke-dasharray:none;stroke-dashoffset:0;stroke-opacity:0;paint-order:fill markers stroke"
       d="m 142.30469,293.35938 c 2.19987,6.32877 4.39974,12.65755 6.59961,18.98632 4.80599,-4.58268 9.61198,-9.16536 14.41797,-13.74804 -1.7129,-3.25065 -3.42579,-6.50131 -5.13868,-9.75196 -5.29296,1.50456 -10.58593,3.00912 -15.8789,4.51368 z" /></g><g
     inkscape:label="Passive1"
     inkscape:groupmode="layer"
     id="layer1"
     transform="translate(83.28501,206.63068)"><path
       id="path3"
       style="fill:#e2b584;fill-opacity:1;stroke:#404040;stroke-width:0;stroke-linecap:round;stroke-dasharray:none;stroke-dashoffset:0;stroke-opacity:0;paint-order:fill markers stroke"
       d="m 104.5332,-81.914062 c 5.08529,4.76888 10.17058,9.53776 15.25586,14.30664 4.05339,-7.152995 8.10677,-14.305989 12.16016,-21.458984 -9.13867,2.384114 -18.27734,4.768229 -27.41602,7.152344 z" /><path
       id="path5"
       style="fill:#e2b584;fill-opacity:1;stroke:#404040;stroke-width:0;stroke-linecap:round;stroke-dasharray:none;stroke-dashoffset:0;stroke-opacity:0;paint-order:fill markers stroke"
       d="M 42.273438,-2.1152344 C 53.720703,-4.1347656 65.167969,-6.1542969 76.615234,-8.1738281 69.113281,-18.27474 61.611328,-28.375651 54.109375,-38.476562 50.164062,-26.35612 46.21875,-14.235677 42.273438,-2.1152344 Z" /><path
       id="path12"
       style="fill:#e2b584;fill-opacity:1;stroke:#404040;stroke-width:0;stroke-linecap:round;stroke-dasharray:none;stroke-dashoffset:0;stroke-opacity:0;paint-order:fill markers stroke"
       d="m -70.169922,-119.45703 c 20.216146,15.22461 40.432292,30.449218 60.6484376,45.673827 11.4153646,-12.152344 22.8307294,-24.304688 34.2460934,-36.457027 -12.342448,-9.98243 -24.68489546,-19.96485 -37.027343,-29.94727 -19.289063,6.91016 -38.578125,13.82031 -57.867188,20.73047 z" /><path
       id="path16"
       style="fill:#e2b584;fill-opacity:1;stroke:#404040;stroke-width:0;stroke-linecap:round;stroke-dasharray:none;stroke-dashoffset:0;stroke-opacity:0;paint-order:fill markers stroke"
       d="m 65.476562,-188.29688 c 17.846063,3.91191 35.705818,7.7665 53.533318,11.75908 10.5872,3.16104 21.1744,6.32208 31.7616,9.48311 13.79037,-11.05273 27.58073,-22.10547 41.3711,-33.1582 -45.50781,0 -91.01563,0 -136.523439,0 3.285807,3.972 6.571614,7.94401 9.857421,11.91601 z" /><path
       id="path17"
       style="fill:#e2b584;fill-opacity:1;stroke:#404040;stroke-width:0;stroke-linecap:round;stroke-dasharray:none;stroke-dashoffset:0;stroke-opacity:0;paint-order:fill markers stroke"
       d="m 102.7793,-148.14844 c 15.67142,15.10396 31.34125,30.20958 47.01367,45.3125 6.38996,11.110783 12.78277,22.219929 19.17383,33.330081 6.14453,4.974609 12.28906,9.949218 18.43359,14.923828 0.67122,-12.960938 1.34245,-25.921875 2.01367,-38.882813 -13.75,-20.405596 -27.5,-40.811196 -41.25,-61.216796 -9.89323,-2.95573 -19.78646,-5.91146 -29.67968,-8.86719 -5.23503,5.13347 -10.47006,10.26693 -15.70508,15.40039 z" /><path
       id="path21"
       style="fill:#e2b584;fill-opacity:1;stroke:#404040;stroke-width:0;stroke-linecap:round;stroke-dasharray:none;stroke-dashoffset:0;stroke-opacity:0;paint-order:fill markers stroke"
       d="m 243.46484,-97.058594 c 23.88217,9.468099 47.76433,18.936198 71.64649,28.404297 0,-27.796875 0,-55.593753 0,-83.390623 -12.86003,-1.22201 -25.72005,-2.44401 -38.58008,-3.66602 -11.02214,19.55078 -22.04427,39.10156 -33.06641,58.652346 z" /><path
       id="path23"
       style="fill:#e2b584;fill-opacity:1;stroke:#404040;stroke-width:0;stroke-linecap:round;stroke-dasharray:none;stroke-dashoffset:0;stroke-opacity:0;paint-order:fill markers stroke"
       d="m 137.58203,-15.113281 c 9.15234,7.5611977 18.30469,15.12239558 27.45703,22.6835935 -1.19336,-7.88020833 -2.38672,-15.7604167 -3.58008,-23.6406245 -7.95898,0.31901 -15.91796,0.63802 -23.87695,0.957031 z" /><path
       id="path24"
       style="fill:#e2b584;fill-opacity:1;stroke:#404040;stroke-width:0;stroke-linecap:round;stroke-dasharray:none;stroke-dashoffset:0;stroke-opacity:0;paint-order:fill markers stroke"
       d="m 245.67773,-42.570312 c 1.6849,7.965494 3.3698,15.930989 5.05469,23.896484 12.79107,-7.530513 25.58173,-15.061719 38.37305,-22.591797 8.67027,10.066932 17.33697,20.136954 26.00586,30.205078 0,-13.696614 0,-27.393229 0,-41.089844 -23.14453,3.19336 -46.28906,6.386719 -69.4336,9.580079 z" /></g><g
     inkscape:groupmode="layer"
     id="layer3"
     inkscape:label="Passive2"
     transform="translate(0,0.11887)"><path
       id="path1"
       style="fill:#e2bf97;fill-opacity:1;stroke:#404040;stroke-width:0;stroke-linecap:round;stroke-opacity:0;paint-order:fill markers stroke"
       d="m 143.80273,155.52539 c 9.70508,13.06576 19.41016,26.13151 29.11524,39.19727 8.32682,-4.28125 16.65364,-8.5625 24.98047,-12.84375 0.1237,-10.07032 0.24739,-20.14063 0.37109,-30.21094 -7.78385,-7.29818 -15.56771,-14.59636 -23.35156,-21.89453 -10.37175,8.58398 -20.74349,17.16797 -31.11524,25.75195 z" /><path
       id="path7"
       style="fill:#e2bf97;fill-opacity:1;stroke:#404040;stroke-width:0;stroke-linecap:round;stroke-dasharray:none;stroke-dashoffset:0;stroke-opacity:0;paint-order:fill markers stroke"
       d="m 130.65625,94.708984 c 15.02083,6.675126 30.04167,13.350256 45.0625,20.025396 13.29297,-3.4681 26.58594,-6.9362 39.87891,-10.4043 -13.13542,-12.662111 -26.27084,-25.324221 -39.40625,-37.98633 -15.17839,9.455078 -30.35677,18.910156 -45.53516,28.365234 z" /><path
       id="path8"
       style="fill:#e2bf97;fill-opacity:1;stroke:#404040;stroke-width:0;stroke-linecap:round;stroke-dasharray:none;stroke-dashoffset:0;stroke-opacity:0;paint-order:fill markers stroke"
       d="m 86.673828,137.38672 c 13.115234,2.88216 26.230472,5.76432 39.345702,8.64648 -3.87435,-12.7181 -7.7487,-25.43619 -11.62305,-38.15429 -9.24088,9.83593 -18.481766,19.67187 -27.722652,29.50781 z" /><path
       id="path18"
       style="fill:#e2bf97;fill-opacity:1;stroke:#404040;stroke-width:0;stroke-linecap:round;stroke-dasharray:none;stroke-dashoffset:0;stroke-opacity:0;paint-order:fill markers stroke"
       d="m 243.87109,47.728516 c 12.88412,19.119791 25.76823,38.239583 38.65235,57.359374 10.52995,0.375 21.05989,0.75 31.58984,1.125 11.31185,-20.065755 22.6237,-40.13151 33.93555,-60.197265 C 329.89974,33.297526 311.75065,20.579427 293.60156,7.8613281 277.02474,21.150391 260.44792,34.439453 243.87109,47.728516 Z" /><path
       id="path19"
       style="fill:#e2bf97;fill-opacity:1;stroke:#404040;stroke-width:0;stroke-linecap:round;stroke-dasharray:none;stroke-dashoffset:0;stroke-opacity:0;paint-order:fill markers stroke"
       d="m 256.09375,178.55664 c 21.83008,3.78385 43.66016,7.56771 65.49023,11.35156 -1.71289,-8.08919 -3.42578,-16.17838 -5.13867,-24.26758 -13.98823,1.85581 -27.97683,3.70891 -41.96484,5.56641 -6.63186,-5.36886 -13.26437,-10.73692 -19.89649,-16.10547 0.50326,7.81836 1.00651,15.63672 1.50977,23.45508 z" /><path
       id="path11"
       style="fill:#e2bf97;fill-opacity:1;stroke:#404040;stroke-width:0;stroke-linecap:round;stroke-dasharray:none;stroke-dashoffset:0;stroke-opacity:0;paint-order:fill markers stroke"
       d="m 6.2988281,139.24219 c 9.8795159,-1.62232 19.7413869,-3.37326 29.6425779,-4.84375 6.470052,0.0775 12.940104,0.15495 19.410156,0.23242 -16.350911,-12.3138 -32.701822,-24.6276 -49.0527339,-36.941407 0,13.850907 0,27.701827 0,41.552737 z" /></g><g
     inkscape:groupmode="layer"
     id="layer4"
     inkscape:label="Passive3"
     transform="translate(0,0.11887)"><path
       id="path9"
       style="fill:#d0aa7e;fill-opacity:1;stroke:#404040;stroke-width:0;stroke-linecap:round;stroke-dasharray:none;stroke-dashoffset:0;stroke-opacity:0;paint-order:fill markers stroke"
       d="m 62.142578,177.83984 c 16.82487,8.54623 33.64974,17.09245 50.474612,25.63868 4.80924,-14.7767 9.61849,-29.55339 14.42773,-44.33008 -17.75716,-3.90104 -35.514321,-7.80209 -53.271482,-11.70313 -9.166667,-0.10742 -18.333334,-0.21484 -27.5,-0.32226 5.289713,10.23893 10.579427,20.47786 15.86914,30.71679 z" /><path
       id="path13"
       style="fill:#d0aa7e;fill-opacity:1;stroke:#404040;stroke-width:0;stroke-linecap:round;stroke-dasharray:none;stroke-dashoffset:0;stroke-opacity:0;paint-order:fill markers stroke"
       d="M 6.3476562,76.097656 C 24.116536,69.73112 41.885417,63.364583 59.654297,56.998047 42.001302,42.399089 24.348307,27.80013 6.6953125,13.201172 6.5794271,34.166667 6.4635417,55.132161 6.3476562,76.097656 Z" /><path
       id="path15"
       style="fill:#d0aa7e;fill-opacity:1;stroke:#404040;stroke-width:0;stroke-linecap:round;stroke-dasharray:none;stroke-dashoffset:0;stroke-opacity:0;paint-order:fill markers stroke"
       d="m 103.77539,76.830078 c 4.63737,3.700521 9.27474,7.401042 13.91211,11.101563 18.4694,-11.50586 36.9388,-23.011719 55.4082,-34.517579 4.72331,-4.629557 9.44662,-9.259114 14.16992,-13.888671 -13.28059,-2.901042 -26.56119,-5.802084 -39.84179,-8.703125 -14.54948,15.335937 -29.09896,30.671875 -43.64844,46.007812 z" /><path
       id="path20"
       style="fill:#d0aa7e;fill-opacity:1;stroke:#404040;stroke-width:0;stroke-linecap:round;stroke-dasharray:none;stroke-dashoffset:0;stroke-opacity:0;paint-order:fill markers stroke"
       d="m 283.01562,157.36328 c 31.61109,-4.14065 63.1998,-8.50199 94.78561,-12.87776 0.77134,-0.1065 1.54267,-0.213 2.314,-0.3195 -21.23893,-8.41928 -42.47786,-16.83855 -63.71679,-25.25782 -10.44531,-0.37174 -20.89063,-0.74349 -31.33594,-1.11523 -0.68229,13.1901 -1.36458,26.38021 -2.04688,39.57031 z" /><path
       id="path22"
       style="fill:#d0aa7e;fill-opacity:1;stroke:#404040;stroke-width:0;stroke-linecap:round;stroke-dasharray:none;stroke-dashoffset:0;stroke-opacity:0;paint-order:fill markers stroke"
       d="m 358.58594,38.027344 c 13.27018,1.26237 26.54036,2.524739 39.81054,3.787109 0,-11.838542 0,-23.677083 0,-35.5156249 -28.36263,0 -56.72526,0 -85.08789,0 15.09245,10.5761719 30.1849,21.1523439 45.27735,31.7285159 z" /></g><g
     inkscape:groupmode="layer"
     id="layer6"
     inkscape:label="Passive4"
     transform="translate(0,0.11887)"><path
       id="path4"
       style="fill:#d6b186;fill-opacity:1;stroke:#404040;stroke-width:0;stroke-linecap:round;stroke-dasharray:none;stroke-dashoffset:0;stroke-opacity:0;paint-order:fill markers stroke"
       d="m 210.88672,150.66211 c -0.11914,9.51042 -0.23828,19.02083 -0.35742,28.53125 10.96484,-0.4401 21.92968,-0.88021 32.89453,-1.32031 -0.7487,-11.61719 -1.4974,-23.23438 -2.2461,-34.85157 -4.36002,-7.57552 -8.72005,-15.15104 -13.08007,-22.72656 -5.73698,10.1224 -11.47396,20.24479 -17.21094,30.36719 z" /><path
       id="path6"
       style="fill:#d6b186;fill-opacity:1;stroke:#404040;stroke-width:0;stroke-linecap:round;stroke-dasharray:none;stroke-dashoffset:0;stroke-opacity:0;paint-order:fill markers stroke"
       d="m 138.45117,143.61133 c 8.29492,-6.86654 16.58985,-13.73307 24.88477,-20.59961 -12.01433,-5.33919 -24.02865,-10.67839 -36.04297,-16.01758 3.7194,12.20573 7.4388,24.41146 11.1582,36.61719 z" /><path
       id="path10"
       style="fill:#d6b186;fill-opacity:1;stroke:#404040;stroke-width:0;stroke-linecap:round;stroke-dasharray:none;stroke-dashoffset:0;stroke-opacity:0;paint-order:fill markers stroke"
       d="m 6.2988281,152.00586 c 0,18.03971 0,36.07943 0,54.11914 27.9042969,0 55.8085939,0 83.7128909,0 -12.40181,-6.29664 -24.802686,-12.59513 -37.205078,-18.89062 -6.810817,-13.19228 -13.625281,-26.38267 -20.4375,-39.57422 -8.690105,1.44856 -17.380209,2.89713 -26.0703129,4.3457 z" /><path
       id="path14"
       style="fill:#d6b186;fill-opacity:1;stroke:#404040;stroke-width:0;stroke-linecap:round;stroke-dasharray:none;stroke-dashoffset:0;stroke-opacity:0;paint-order:fill markers stroke"
       d="M 93.951172,68.890625 C 108.26302,53.802083 122.57487,38.713542 136.88672,23.625 132.11133,17.849609 127.33594,12.074219 122.56055,6.2988281 c -34.981123,0 -69.962243,0 -104.943362,0 C 43.061849,27.16276 68.50651,48.026693 93.951172,68.890625 Z" /></g></svg>
