<?xml version="1.0" encoding="UTF-8" standalone="no"?>
<!-- Created with Inkscape (http://www.inkscape.org/) -->

<svg
   width="169.97189mm"
   height="301.75809mm"
   viewBox="0 0 404.69498 718.47164"
   version="1.1"
   id="svg1"
   xml:space="preserve"
   sodipodi:docname="UpgrageOverviewPanel13.svg"
   inkscape:version="1.4.2 (f4327f4, 2025-05-13)"
   inkscape:export-filename="UpgrageOverviewPaneltest1.png"
   inkscape:export-xdpi="96"
   inkscape:export-ydpi="96"
   xmlns:inkscape="http://www.inkscape.org/namespaces/inkscape"
   xmlns:sodipodi="http://sodipodi.sourceforge.net/DTD/sodipodi-0.dtd"
   xmlns="http://www.w3.org/2000/svg"
   xmlns:svg="http://www.w3.org/2000/svg"><sodipodi:namedview
     id="namedview1"
     pagecolor="#ffffff"
     bordercolor="#000000"
     borderopacity="0.25"
     inkscape:showpageshadow="2"
     inkscape:pageopacity="0.0"
     inkscape:pagecheckerboard="0"
     inkscape:deskcolor="#d1d1d1"
     inkscape:document-units="mm"
     inkscape:zoom="1.1508788"
     inkscape:cx="149.45101"
     inkscape:cy="627.78114"
     inkscape:window-width="3840"
     inkscape:window-height="2054"
     inkscape:window-x="-11"
     inkscape:window-y="-11"
     inkscape:window-maximized="1"
     inkscape:current-layer="layer4" /><defs
     id="defs1" /><g
     inkscape:groupmode="layer"
     id="layer2"
     inkscape:label="Marker"
     transform="translate(0,0.11887)" /><g
     inkscape:groupmode="layer"
     id="layer19"
     inkscape:label="Special1"
     transform="translate(0,0.11887)"><path
       id="path95"
       style="fill:#865ccc;fill-opacity:1;stroke:#404040;stroke-width:0;stroke-linecap:round;stroke-dasharray:none;stroke-dashoffset:0;stroke-opacity:0;paint-order:fill markers stroke"
       d="m 321.51562,607.29102 c 6.58985,11.17057 13.17969,22.34114 19.76954,33.51171 13.57812,-5.4414 27.15625,-10.88281 40.73437,-16.32421 0,-8.68685 0,-17.3737 0,-26.06055 -10.08984,-7.62956 -20.17969,-15.25912 -30.26953,-22.88867 -10.07813,10.58724 -20.15625,21.17448 -30.23438,31.76172 z" /><path
       id="path86"
       style="fill:#865ccc;fill-opacity:1;stroke:#404040;stroke-width:0;stroke-linecap:round;stroke-dasharray:none;stroke-dashoffset:0;stroke-opacity:0;paint-order:fill markers stroke"
       d="m 25.664062,588.78711 c 5.440756,9.65234 10.881511,19.30469 16.322266,28.95703 11.203125,-6.0638 22.40625,-12.1276 33.609375,-18.19141 -1.371094,-1.50846 -2.742187,-3.01692 -4.113281,-4.52539 -14.479167,-3.68033 -28.958333,-7.36067 -43.4375,-11.04101 -0.79362,1.60026 -1.58724,3.20052 -2.38086,4.80078 z" /></g><g
     inkscape:groupmode="layer"
     id="layer21"
     inkscape:label="Special3"
     transform="translate(0,0.11887)"><path
       id="path88"
       style="fill:#a381dc;fill-opacity:1;stroke:#404040;stroke-width:0;stroke-linecap:round;stroke-dasharray:none;stroke-dashoffset:0;stroke-opacity:0;paint-order:fill markers stroke"
       d="m 83.259766,646.95898 c 11.108724,5.27409 22.217444,10.54818 33.326174,15.82227 6.87435,-9.0957 13.7487,-18.19141 20.62304,-27.28711 -7.44791,-1.87891 -14.89583,-3.75781 -22.34375,-5.63672 -10.53515,5.70052 -21.070308,11.40104 -31.605464,17.10156 z" /><path
       id="path93"
       style="fill:#a381dc;fill-opacity:1;stroke:#404040;stroke-width:0;stroke-linecap:round;stroke-dasharray:none;stroke-dashoffset:0;stroke-opacity:0;paint-order:fill markers stroke"
       d="m 226.19336,616.30078 c 11.11393,8.17904 22.22786,16.35807 33.3418,24.53711 10.15104,0.778 20.30208,1.55599 30.45312,2.33399 -3.8776,-6.57422 -7.75521,-13.14844 -11.63281,-19.72266 -17.94662,-4.99349 -35.89323,-9.98698 -53.83985,-14.98047 0.55925,2.61068 1.11849,5.22135 1.67774,7.83203 z" /></g><g
     inkscape:groupmode="layer"
     id="layer22"
     inkscape:label="Special4"
     transform="translate(0,0.11887)"><path
       id="path94"
       style="fill:#724eaf;fill-opacity:1;stroke:#404040;stroke-width:0;stroke-linecap:round;stroke-dasharray:none;stroke-dashoffset:0;stroke-opacity:0;paint-order:fill markers stroke"
       d="m 280.21094,575.66602 c -1.50109,0.0152 -3.00406,-0.005 -4.50586,-0.004 3.50521,0.97591 7.01041,1.95182 10.51562,2.92773 1.27214,-1.33658 2.54427,-2.67317 3.81641,-4.00976 -3.27539,0.36198 -6.55078,0.72396 -9.82617,1.08594 z" /><path
       id="path96"
       style="fill:#724eaf;fill-opacity:1;stroke:#404040;stroke-width:0;stroke-linecap:round;stroke-dasharray:none;stroke-dashoffset:0;stroke-opacity:0;paint-order:fill markers stroke"
       d="m 319.96289,695.67773 c 20.68555,0 41.37109,0 62.05664,0 0,-7.72526 0,-15.45052 0,-23.17578 -20.68555,7.72526 -41.37109,15.45052 -62.05664,23.17578 z" /></g><g
     inkscape:groupmode="layer"
     id="layer20"
     inkscape:label="Special2"
     transform="translate(0,0.11887)"><path
       id="path87"
       style="fill:#9970df;fill-opacity:1;stroke:#404040;stroke-width:0;stroke-linecap:round;stroke-dasharray:none;stroke-dashoffset:0;stroke-opacity:0;paint-order:fill markers stroke"
       d="m 115.10156,575.58594 c 2.97982,3.27799 5.95964,6.55599 8.93946,9.83398 17.3177,4.37175 34.63541,8.74349 51.95312,13.11524 -0.57226,-2.68099 -1.14453,-5.36198 -1.7168,-8.04297 -14.94856,-9.69401 -29.89713,-19.38802 -44.8457,-29.08203 -4.77669,4.72526 -9.55338,9.45052 -14.33008,14.17578 z" /><path
       id="path89"
       style="fill:#9970df;fill-opacity:1;stroke:#404040;stroke-width:0;stroke-linecap:round;stroke-dasharray:none;stroke-dashoffset:0;stroke-opacity:0;paint-order:fill markers stroke"
       d="m 22.675781,689.17383 c 9.477214,-2.41472 18.954427,-4.82943 28.431641,-7.24414 -9.477214,-4.49935 -18.954427,-8.9987 -28.431641,-13.49805 0,6.91406 0,13.82813 0,20.74219 z" /><path
       id="path91"
       style="fill:#9970df;fill-opacity:1;stroke:#404040;stroke-width:0;stroke-linecap:round;stroke-dasharray:none;stroke-dashoffset:0;stroke-opacity:0;paint-order:fill markers stroke"
       d="m 159.82812,680.83984 c 10.653,4.07878 21.30599,8.15756 31.95899,12.23633 11.07357,-7.12239 22.14713,-14.24479 33.2207,-21.36719 -9.68034,-7.12695 -19.36067,-14.2539 -29.04101,-21.38086 -3.66472,-0.92382 -7.32943,-1.84765 -10.99414,-2.77148 -8.38151,11.0944 -16.76302,22.1888 -25.14454,33.2832 z" /></g><g
     inkscape:groupmode="layer"
     id="layer15"
     inkscape:label="Active1"
     transform="translate(0,0.11887)"><path
       id="path82"
       style="fill:#d67965;fill-opacity:1;stroke:#404040;stroke-width:0;stroke-linecap:round;stroke-dasharray:none;stroke-dashoffset:0;stroke-opacity:0;paint-order:fill markers stroke"
       d="m 358.81055,523.99023 c 7.73632,5.85612 15.47265,11.71224 23.20898,17.56836 0,-18.52994 0,-37.05989 0,-55.58984 -7.73633,12.67383 -15.47265,25.34766 -23.20898,38.02148 z" /><path
       id="path80"
       style="fill:#d67965;fill-opacity:1;stroke:#404040;stroke-width:0;stroke-linecap:round;stroke-dasharray:none;stroke-dashoffset:0;stroke-opacity:0;paint-order:fill markers stroke"
       d="m 216.47852,476.07812 c -5.64985,3.7906 -12.97873,4.39722 -19.44532,2.6504 -2.3431,-0.48047 -4.68619,-0.96094 -7.02929,-1.44141 -0.46745,0.70898 -0.9349,1.41797 -1.40235,2.12695 7.24349,2.22331 14.48698,4.44662 21.73047,6.66992 9.51888,-7.67382 19.03776,-15.34765 28.55664,-23.02148 -0.55216,-0.58185 -1.08603,-0.19791 -1.6198,0.19079 -6.93012,4.27495 -13.86024,8.54989 -20.79035,12.82483 z" /></g><g
     inkscape:groupmode="layer"
     id="layer16"
     inkscape:label="Active2"
     transform="translate(0,0.11887)"><path
       id="path83"
       style="fill:#e58f7d;fill-opacity:1;stroke:#404040;stroke-width:0;stroke-linecap:round;stroke-dasharray:none;stroke-dashoffset:0;stroke-opacity:0;paint-order:fill markers stroke"
       d="m 297.24414,533.64258 c -0.77399,0.35786 -0.2683,1.85477 0.58313,1.40539 0.98672,-0.28406 0.2154,-1.68134 -0.58313,-1.40539 z" /></g><g
     inkscape:groupmode="layer"
     id="layer18"
     inkscape:label="Active4"
     transform="translate(0,0.11887)"><path
       id="path84"
       style="fill:#ce6954;fill-opacity:1;stroke:#404040;stroke-width:0;stroke-linecap:round;stroke-dasharray:none;stroke-dashoffset:0;stroke-opacity:0;paint-order:fill markers stroke"
       d="m 235.99609,523.63086 c -0.37435,2.08594 -0.74869,4.17187 -1.12304,6.25781 7.83528,0.10547 15.67057,0.21094 23.50586,0.31641 0.30794,-1.96289 0.61588,-3.92578 0.92382,-5.88867 -5.23046,-2.26954 -10.46093,-4.53907 -15.6914,-6.8086 -2.53841,2.04102 -5.07682,4.08203 -7.61524,6.12305 z" /><path
       id="path79"
       style="fill:#ce6954;fill-opacity:1;stroke:#404040;stroke-width:0;stroke-linecap:round;stroke-dasharray:none;stroke-dashoffset:0;stroke-opacity:0;paint-order:fill markers stroke"
       d="m 129.15625,468.00977 c 0.46649,0.61557 1.07035,1.26467 0.86895,2.09513 -0.164,5.5054 -0.328,11.0108 -0.492,16.51619 4.39128,-6.65364 8.78256,-13.30729 13.17383,-19.96093 -1.01538,-0.95537 -1.96635,-1.97638 -2.99414,-2.91993 -3.51888,1.42318 -7.03776,2.84636 -10.55664,4.26954 z" /></g><g
     inkscape:groupmode="layer"
     id="layer17"
     inkscape:label="Active3"
     transform="translate(0,0.11887)"><path
       id="path76"
       style="fill:#e3a395;fill-opacity:1;stroke:#404040;stroke-width:0;stroke-linecap:round;stroke-dasharray:none;stroke-dashoffset:0;stroke-opacity:0;paint-order:fill markers stroke"
       d="m 31.707031,477.41016 c 5.221354,9.76367 10.442709,19.52734 15.664063,29.29101 10.370442,3.27865 20.740885,6.55729 31.111328,9.83594 1.625,-1.48763 3.25,-2.97526 4.875,-4.46289 0.284505,-9.20117 0.56901,-18.40235 0.853516,-27.60352 -2.544154,-3.08423 -4.838626,-6.3 -7.549202,-9.21581 -5.324745,-3.38965 -10.649491,-6.7793 -15.974236,-10.16895 -9.660156,4.10807 -19.320312,8.21614 -28.980469,12.32422 z" /><path
       id="path81"
       style="fill:#e3a395;fill-opacity:1;stroke:#404040;stroke-width:0;stroke-linecap:round;stroke-dasharray:none;stroke-dashoffset:0;stroke-opacity:0;paint-order:fill markers stroke"
       d="m 289.74609,480.32422 c -2.07747,1.67383 -4.15494,3.34766 -6.23242,5.02148 12.05078,5.22396 24.10156,10.44792 36.15235,15.67188 4.91015,-8.05013 9.82031,-16.10026 14.73046,-24.15039 -4.08203,-1.92839 -8.16406,-3.85677 -12.24609,-5.78516 -10.80143,3.08073 -21.60286,6.16146 -32.4043,9.24219 z" /><path
       id="path85"
       style="fill:#e3a395;fill-opacity:1;stroke:#404040;stroke-width:0;stroke-linecap:round;stroke-dasharray:none;stroke-dashoffset:0;stroke-opacity:0;paint-order:fill markers stroke"
       d="m 157.94336,525.85547 c 9.41732,6.10872 18.83463,12.21745 28.25195,18.32617 0.46436,-1.98153 0.69956,-4.01023 1.11269,-6.00421 0.66686,-3.70042 1.33373,-7.40084 2.00059,-11.10126 -8.91666,-2.73828 -17.83333,-5.47656 -26.75,-8.21484 -1.53841,2.33138 -3.07682,4.66276 -4.61523,6.99414 z" /></g><g
     inkscape:groupmode="layer"
     id="layer11"
     inkscape:label="Synergy1"
     transform="translate(0,0.11887)"><path
       id="path63"
       style="fill:#85b8e4;fill-opacity:1;stroke:#404040;stroke-width:0;stroke-linecap:round;stroke-dasharray:none;stroke-dashoffset:0;stroke-opacity:0;paint-order:fill markers stroke"
       d="m 79.527344,357.84375 c -0.220818,0.68427 0.853767,1.3704 1.193359,0.5957 0.14922,-0.52622 -0.481363,-0.95976 -0.938281,-0.65477 -0.08503,0.0197 -0.170052,0.0394 -0.255078,0.0591 z" /></g><g
     inkscape:groupmode="layer"
     id="layer14"
     inkscape:label="Synergy4"
     transform="translate(0,0.11887)"><path
       id="path67"
       style="fill:#acd0ef;fill-opacity:1;stroke:#404040;stroke-width:0;stroke-linecap:round;stroke-dasharray:none;stroke-dashoffset:0;stroke-opacity:0;paint-order:fill markers stroke"
       d="m 260.17383,374.46875 c -5.07813,4.20117 -10.15625,8.40234 -15.23438,12.60352 10.24024,0.50911 20.48047,1.01822 30.72071,1.52734 -0.0176,-6.59766 -0.0352,-13.19531 -0.0527,-19.79297 -5.14453,1.88737 -10.28906,3.77474 -15.43359,5.66211 z" /></g><g
     inkscape:groupmode="layer"
     id="layer12"
     inkscape:label="Synergy2"
     transform="translate(0,0.11887)"><path
       id="path73"
       style="fill:#94c4ed;fill-opacity:1;stroke:#404040;stroke-width:0;stroke-linecap:round;stroke-dasharray:none;stroke-dashoffset:0;stroke-opacity:0;paint-order:fill markers stroke"
       d="m 136.42188,394.40039 c -0.68099,0.3405 -1.36198,0.68099 -2.04297,1.02149 10.53645,10.20833 21.07291,20.41666 31.60937,30.625 5.49414,1.12955 10.98828,2.25911 16.48242,3.38867 0.17513,-4.67188 0.35026,-9.34375 0.52539,-14.01563 -6.88802,-8.60221 -13.77604,-17.20443 -20.66406,-25.80664 -8.63672,1.5957 -17.27344,3.19141 -25.91015,4.78711 z" /><path
       id="path62"
       style="fill:#94c4ed;fill-opacity:1;stroke:#404040;stroke-width:0;stroke-linecap:round;stroke-dasharray:none;stroke-dashoffset:0;stroke-opacity:0;paint-order:fill markers stroke"
       d="m 20.787109,336.99219 c -0.737026,0.73427 0.113202,2.17032 1.106936,1.71487 0.432534,-0.0974 1.088222,-0.97291 0.449587,-1.17253 -0.489372,-0.10749 -1.121595,-0.81842 -1.556523,-0.54234 z" /><path
       id="path70"
       style="fill:#acd0ef;fill-opacity:1;stroke:#404040;stroke-width:0;stroke-linecap:round;stroke-dasharray:none;stroke-dashoffset:0;stroke-opacity:0;paint-order:fill markers stroke"
       d="m 359.33398,429.51953 c -1.28515,2.38151 -2.57031,4.76302 -3.85546,7.14453 3.60156,1.70117 7.20312,3.40235 10.80468,5.10352 5.24545,-2.80729 10.49089,-5.61459 15.73633,-8.42188 0,-12.66601 0,-25.33203 0,-37.99804 -7.56185,11.39062 -15.1237,22.78125 -22.68555,34.17187 z" /></g><g
     inkscape:groupmode="layer"
     id="layer13"
     inkscape:label="Synergy3"
     transform="translate(0,0.11887)"><path
       id="path66"
       style="fill:#74a4ce;fill-opacity:1;stroke:#404040;stroke-width:0;stroke-linecap:round;stroke-dasharray:none;stroke-dashoffset:0;stroke-opacity:0;paint-order:fill markers stroke"
       d="m 199.30078,374.57031 c -0.73697,0.34247 0.20747,1.44533 0.69117,0.80564 0.38805,-0.26545 0.27747,-0.89984 -0.25376,-0.85828 -0.1518,-0.0364 -0.29224,0.0145 -0.43741,0.0526 z" /><path
       id="path68"
       style="fill:#74a4ce;fill-opacity:1;stroke:#404040;stroke-width:0;stroke-linecap:round;stroke-dasharray:none;stroke-dashoffset:0;stroke-opacity:0;paint-order:fill markers stroke"
       d="m 338.17578,341.32422 c 0.27083,0.73307 0.54167,1.46614 0.8125,2.19922 0.77287,-0.0494 -0.0863,-1.02058 -0.0917,-1.50956 -0.222,-0.37725 -0.10161,-1.23587 -0.72082,-0.68966 z" /><path
       id="path74"
       style="fill:#74a4ce;fill-opacity:1;stroke:#404040;stroke-width:0;stroke-linecap:round;stroke-dasharray:none;stroke-dashoffset:0;stroke-opacity:0;paint-order:fill markers stroke"
       d="m 79.058594,423.07031 c 5.214844,3.31771 10.429687,6.63542 15.644531,9.95313 3.34375,-1.35417 6.687505,-2.70834 10.031255,-4.0625 -4.14714,-4.16862 -8.294276,-8.33724 -12.441411,-12.50586 -4.411459,2.20508 -8.822917,4.41015 -13.234375,6.61523 z" /></g><g
     inkscape:groupmode="layer"
     id="layer7"
     inkscape:label="Bodymod1"
     transform="translate(0,0.11887)"><path
       id="path47"
       style="fill:#9fc88c;fill-opacity:1;stroke:#404040;stroke-width:0;stroke-linecap:round;stroke-dasharray:none;stroke-dashoffset:0;stroke-opacity:0;paint-order:fill markers stroke"
       d="m 199.69531,213.54688 c 2.20899,5.59049 4.41797,11.18098 6.62696,16.77148 3.30208,-1.72331 6.60416,-3.44662 9.90625,-5.16992 -4.99935,-4.13086 -9.9987,-8.26172 -14.99805,-12.39258 -0.51172,0.26367 -1.02344,0.52734 -1.53516,0.79102 z" /><path
       id="path55"
       style="fill:#9fc88c;fill-opacity:1;stroke:#404040;stroke-width:0;stroke-linecap:round;stroke-dasharray:none;stroke-dashoffset:0;stroke-opacity:0;paint-order:fill markers stroke"
       d="m 83.421875,272.65039 c 0.729167,2.23958 1.458333,4.47917 2.1875,6.71875 6.440104,-1.83138 12.880208,-3.66276 19.320315,-5.49414 -4.97331,-2.99544 -9.946617,-5.99089 -14.919924,-8.98633 -2.195964,2.58724 -4.391927,5.17448 -6.587891,7.76172 z" /></g><g
     inkscape:groupmode="layer"
     id="layer8"
     inkscape:label="Bodymod2"
     transform="translate(0,0.11887)"><path
       id="path48"
       style="fill:#a6d68e;fill-opacity:1;stroke:#404040;stroke-width:0;stroke-linecap:round;stroke-dasharray:none;stroke-dashoffset:0;stroke-opacity:0;paint-order:fill markers stroke"
       d="m 291.83008,215.15234 c -0.25574,-0.56579 -0.38704,-1.29179 -1.16635,-1.18361 -3.21082,-0.55468 -6.42165,-1.10936 -9.63248,-1.66404 3.59961,0.94922 7.19922,1.89843 10.79883,2.84765 z" /><path
       id="path50"
       style="fill:#a6d68e;fill-opacity:1;stroke:#404040;stroke-width:0;stroke-linecap:round;stroke-dasharray:none;stroke-dashoffset:0;stroke-opacity:0;paint-order:fill markers stroke"
       d="m 312.26367,287.72266 c 3.99219,4.02604 7.98438,8.05208 11.97656,12.07812 9.80274,-5.65885 19.60547,-11.31771 29.40821,-16.97656 -6.58073,-2.74414 -13.16146,-5.48828 -19.74219,-8.23242 -7.21419,4.37695 -14.42839,8.7539 -21.64258,13.13086 z" /><path
       id="path52"
       style="fill:#a6d68e;fill-opacity:1;stroke:#404040;stroke-width:0;stroke-linecap:round;stroke-dasharray:none;stroke-dashoffset:0;stroke-opacity:0;paint-order:fill markers stroke"
       d="m 126.20117,233.70117 c 11.79883,7.10873 23.59766,14.21745 35.39649,21.32617 1.55078,-0.90625 3.10156,-1.8125 4.65234,-2.71875 -3.16341,-8.00065 -6.32682,-16.0013 -9.49023,-24.00195 -10.1862,1.79818 -20.3724,3.59635 -30.5586,5.39453 z" /><path
       id="path54"
       style="fill:#a6d68e;fill-opacity:1;stroke:#404040;stroke-width:0;stroke-linecap:round;stroke-dasharray:none;stroke-dashoffset:0;stroke-opacity:0;paint-order:fill markers stroke"
       d="m 22.675781,288.08594 c 7.308594,3.93489 14.617188,7.86979 21.925781,11.80468 -1.345052,-4.13085 -2.690104,-8.26171 -4.035156,-12.39257 -5.963541,-1.08724 -11.927083,-2.17448 -17.890625,-3.26172 0,1.2832 0,2.5664 0,3.84961 z" /></g><g
     inkscape:groupmode="layer"
     id="layer9"
     inkscape:label="Bodymod3"
     transform="translate(0,0.11887)"><path
       id="path53"
       style="fill:#b2e09d;fill-opacity:1;stroke:#404040;stroke-width:0;stroke-linecap:round;stroke-dasharray:none;stroke-dashoffset:0;stroke-opacity:0;paint-order:fill markers stroke"
       d="m 22.675781,238.09766 c 8.811198,1.60742 17.622396,3.21484 26.433594,4.82226 0.501953,-0.59049 1.003906,-1.18099 1.505859,-1.77148 -3.345052,-2.01628 -6.690104,-4.03255 -10.035156,-6.04883 -5.968099,0 -11.936198,0 -17.904297,0 0,0.99935 0,1.9987 0,2.99805 z" /><path
       id="path51"
       style="fill:#b2e09d;fill-opacity:1;stroke:#404040;stroke-width:0;stroke-linecap:round;stroke-dasharray:none;stroke-dashoffset:0;stroke-opacity:0;paint-order:fill markers stroke"
       d="m 247.34961,260.09375 c 7.4362,0.11914 14.8724,0.23828 22.30859,0.35742 1.61459,-0.97916 3.22917,-1.95833 4.84375,-2.9375 -4.91992,-1.29622 -9.83984,-2.59245 -14.75976,-3.88867 -4.13086,2.15625 -8.26172,4.3125 -12.39258,6.46875 z" /></g><g
     inkscape:groupmode="layer"
     id="layer10"
     inkscape:label="Bodymod4"
     transform="translate(0,0.11887)"><path
       id="path49"
       style="fill:#90b57f;fill-opacity:1;stroke:#404040;stroke-width:0;stroke-linecap:round;stroke-dasharray:none;stroke-dashoffset:0;stroke-opacity:0;paint-order:fill markers stroke"
       d="m 342.23633,216.62109 c 2.24592,5.0565 4.52608,10.0992 6.78515,15.15039 10.99935,4.58789 21.9987,9.17579 32.99805,13.76368 0,-8.22461 0,-16.44922 0,-24.67383 -5.26627,-6.12044 -10.53255,-12.24089 -15.79883,-18.36133 -7.99479,4.70703 -15.98958,9.41406 -23.98437,14.12109 z" /><path
       id="path58"
       style="fill:#90b57f;fill-opacity:1;stroke:#404040;stroke-width:0;stroke-linecap:round;stroke-dasharray:none;stroke-dashoffset:0;stroke-opacity:0;paint-order:fill markers stroke"
       d="m 283.55664,319.75586 c -0.77502,0.35821 -0.1837,0.98141 0.31445,0.375 0.1459,-0.18291 -0.11463,-0.49446 -0.31445,-0.375 z" /><path
       id="path60"
       style="fill:#90b57f;fill-opacity:1;stroke:#404040;stroke-width:0;stroke-linecap:round;stroke-dasharray:none;stroke-dashoffset:0;stroke-opacity:0;paint-order:fill markers stroke"
       d="m 151.93945,297.46875 c -0.87558,0.30363 -0.51766,1.60896 0.24054,1.8269 0.89398,0.36657 1.49607,-1.03077 0.75946,-1.57104 -0.29324,-0.21939 -0.63183,-0.34279 -1,-0.25586 z" /></g><g
     inkscape:label="Passive1"
     inkscape:groupmode="layer"
     id="layer1"
     transform="translate(83.28501,206.63068)"><path
       id="path21"
       style="fill:#e2b584;fill-opacity:1;stroke:#404040;stroke-width:0;stroke-linecap:round;stroke-dasharray:none;stroke-dashoffset:0;stroke-opacity:0;paint-order:fill markers stroke"
       d="m 266.95117,-105.375 c 10.5944,4.19987 21.1888,8.39974 31.78321,12.599609 -10e-6,-14.789709 0,-29.579429 0,-44.369139 -4.38803,-0.41667 -8.77605,-0.83333 -13.16407,-1.25 -6.20638,11.00651 -12.41276,22.01302 -18.61914,33.01953 z" /><path
       id="path12"
       style="fill:#e2b584;fill-opacity:1;stroke:#404040;stroke-width:0;stroke-linecap:round;stroke-dasharray:none;stroke-dashoffset:0;stroke-opacity:0;paint-order:fill markers stroke"
       d="m -36.072266,-114.27734 c 8.223959,6.19401 16.447917,12.38802 24.671875,18.582028 4.0351566,-4.298178 8.0703129,-8.596358 12.10546912,-12.894528 -5.38802082,-4.35677 -10.77604212,-8.71355 -16.16406212,-13.07032 -6.871094,2.46094 -13.742188,4.92188 -20.613282,7.38282 z" /><path
       id="path17"
       style="fill:#e2b584;fill-opacity:1;stroke:#404040;stroke-width:0;stroke-linecap:round;stroke-dasharray:none;stroke-dashoffset:0;stroke-opacity:0;paint-order:fill markers stroke"
       d="m 144.71289,-130.49219 c -2.28581,-3.39127 -4.57161,-6.78255 -6.85742,-10.17383 -1.78776,-0.53515 -3.57552,-1.07031 -5.36328,-1.60546 4.07357,3.92643 8.14713,7.85286 12.2207,11.77929 z" /></g><g
     inkscape:groupmode="layer"
     id="layer3"
     inkscape:label="Passive2"
     transform="translate(0,0.11887)"><path
       id="path1"
       style="fill:#e2bf97;fill-opacity:1;stroke:#404040;stroke-width:0;stroke-linecap:round;stroke-opacity:0;paint-order:fill markers stroke"
       d="m 166.22266,158.2168 c 3.85677,5.19466 7.71354,10.38932 11.57031,15.58398 1.28515,-0.66081 2.57031,-1.32161 3.85547,-1.98242 0.0534,-4.37695 0.10677,-8.75391 0.16015,-13.13086 -2.52539,-2.36784 -5.05078,-4.73568 -7.57617,-7.10352 -2.66992,2.21094 -5.33984,4.42188 -8.00976,6.63282 z" /><path
       id="path7"
       style="fill:#e2bf97;fill-opacity:1;stroke:#404040;stroke-width:0;stroke-linecap:round;stroke-dasharray:none;stroke-dashoffset:0;stroke-opacity:0;paint-order:fill markers stroke"
       d="m 165.53906,92.292969 c 3.86133,1.716797 7.72266,3.433593 11.58399,5.15039 2.0306,-0.529948 4.06119,-1.059895 6.09179,-1.589843 -3.06054,-2.94987 -6.12109,-5.89974 -9.18164,-8.84961 -2.83138,1.763021 -5.66276,3.526042 -8.49414,5.289063 z" /><path
       id="path8"
       style="fill:#e2bf97;fill-opacity:1;stroke:#404040;stroke-width:0;stroke-linecap:round;stroke-dasharray:none;stroke-dashoffset:0;stroke-opacity:0;paint-order:fill markers stroke"
       d="m 108.83008,129.48828 c -0.63977,0.006 -1.00667,1.03637 -0.24362,1.18542 0.41827,0.21929 1.15064,0.0305 0.91745,-0.57018 -0.096,-0.28301 -0.32162,-0.66754 -0.67383,-0.61524 z" /><path
       id="path18"
       style="fill:#e2bf97;fill-opacity:1;stroke:#404040;stroke-width:0;stroke-linecap:round;stroke-dasharray:none;stroke-dashoffset:0;stroke-opacity:0;paint-order:fill markers stroke"
       d="m 265.87891,51.080078 c 8.51888,12.644531 17.03776,25.289063 25.55664,37.933594 4.43619,0.155599 8.87239,0.311198 13.30859,0.466797 7.24935,-12.863281 14.4987,-25.726563 21.74805,-38.589844 -10.74284,-7.523437 -21.48568,-15.046875 -32.22852,-22.570313 -9.46159,7.586589 -18.92318,15.173178 -28.38476,22.759766 z" /><path
       id="path19"
       style="fill:#e2bf97;fill-opacity:1;stroke:#404040;stroke-width:0;stroke-linecap:round;stroke-dasharray:none;stroke-dashoffset:0;stroke-opacity:0;paint-order:fill markers stroke"
       d="m 262.79297,171.22656 c -0.69953,0.5111 -0.51612,1.7968 0.42011,1.87166 0.9712,0.1716 1.57314,-1.11485 0.92559,-1.80916 -0.36887,-0.41211 -0.9173,-0.31912 -1.3457,-0.0625 z" /></g><g
     inkscape:groupmode="layer"
     id="layer4"
     inkscape:label="Passive3"
     transform="translate(0,0.11887)"><path
       id="path22"
       style="fill:#d0aa7e;fill-opacity:1;stroke:#404040;stroke-width:0;stroke-linecap:round;stroke-dasharray:none;stroke-dashoffset:0;stroke-opacity:0;paint-order:fill markers stroke"
       d="m 382.01953,23.8125 c 0.004,-0.61626 0.20179,-1.426265 -0.7,-1.136719 -3.73542,0 -7.47083,0 -11.20625,0 3.96875,0.378907 7.9375,0.757813 11.90625,1.136719 z" /><path
       id="path9"
       style="fill:#d0aa7e;fill-opacity:1;stroke:#404040;stroke-width:0;stroke-linecap:round;stroke-dasharray:none;stroke-dashoffset:0;stroke-opacity:0;paint-order:fill markers stroke"
       d="m 74.279297,165.62695 c 9.563151,4.86328 19.126302,9.72657 28.689453,14.58985 0.97266,-2.98568 1.94531,-5.97136 2.91797,-8.95703 -10.788039,-2.36726 -21.571245,-4.75595 -32.365236,-7.09571 0.252605,0.48763 0.505209,0.97526 0.757813,1.46289 z" /><path
       id="path13"
       style="fill:#d0aa7e;fill-opacity:1;stroke:#404040;stroke-width:0;stroke-linecap:round;stroke-dasharray:none;stroke-dashoffset:0;stroke-opacity:0;paint-order:fill markers stroke"
       d="m 22.851562,52.789062 c 1.400391,-0.501302 2.800782,-1.002604 4.201172,-1.503906 -1.391276,-1.15039 -2.782552,-2.300781 -4.173828,-3.451172 -0.0091,1.651693 -0.01823,3.303386 -0.02734,4.955078 z" /><path
       id="path20"
       style="fill:#d0aa7e;fill-opacity:1;stroke:#404040;stroke-width:0;stroke-linecap:round;stroke-dasharray:none;stroke-dashoffset:0;stroke-opacity:0;paint-order:fill markers stroke"
       d="m 300.38281,138.52148 c 5.23177,-0.70703 10.46354,-1.41406 15.69531,-2.12109 -1.15509,-0.39883 -2.27183,-1.01342 -3.46778,-1.23134 -4.01139,-0.14229 -8.02278,-0.28457 -12.03417,-0.42686 -0.0644,1.25976 -0.1289,2.51953 -0.19336,3.77929 z" /></g><g
     inkscape:groupmode="layer"
     id="layer6"
     inkscape:label="Passive4"
     transform="translate(0,0.11887)"><path
       id="path10"
       style="fill:#d6b186;fill-opacity:1;stroke:#404040;stroke-width:0;stroke-linecap:round;stroke-dasharray:none;stroke-dashoffset:0;stroke-opacity:0;paint-order:fill markers stroke"
       d="m 22.675781,165.86914 c 0,7.95964 0,15.91927 0,23.87891 4.330729,0 8.661459,0 12.992188,0 -4.126302,-7.99414 -8.252604,-15.98828 -12.378907,-23.98243 -0.204427,0.0345 -0.408854,0.069 -0.613281,0.10352 z" /><path
       id="path6"
       style="fill:#d6b186;fill-opacity:1;stroke:#404040;stroke-width:0;stroke-linecap:round;stroke-dasharray:none;stroke-dashoffset:0;stroke-opacity:0;paint-order:fill markers stroke"
       d="m 143.2832,125.14258 c -0.79507,0.26241 -0.08,1.65202 0.61524,1.16015 0.78339,-0.38424 -0.002,-1.26303 -0.61524,-1.16015 z" /><path
       id="path14"
       style="fill:#d6b186;fill-opacity:1;stroke:#404040;stroke-width:0;stroke-linecap:round;stroke-dasharray:none;stroke-dashoffset:0;stroke-opacity:0;paint-order:fill markers stroke"
       d="m 92.554688,46.572266 c 7.492192,-7.897787 14.984372,-15.795573 22.476562,-23.69336 -0.41911,-0.437519 -1.20043,-0.09406 -1.77188,-0.203125 -16.612495,0 -33.224995,0 -49.837495,0 9.710937,7.965495 19.421875,15.93099 29.132813,23.896485 z" /></g></svg>
