<?xml version="1.0" encoding="UTF-8" standalone="no"?>
<!-- Created with Inkscape (http://www.inkscape.org/) -->

<svg
   width="169.97189mm"
   height="301.75809mm"
   viewBox="0 0 404.69498 718.47164"
   version="1.1"
   id="svg1"
   xml:space="preserve"
   sodipodi:docname="UpgrageOverviewPanel10.svg"
   inkscape:version="1.4.2 (f4327f4, 2025-05-13)"
   inkscape:export-filename="UpgrageOverviewPaneltest1.png"
   inkscape:export-xdpi="96"
   inkscape:export-ydpi="96"
   xmlns:inkscape="http://www.inkscape.org/namespaces/inkscape"
   xmlns:sodipodi="http://sodipodi.sourceforge.net/DTD/sodipodi-0.dtd"
   xmlns="http://www.w3.org/2000/svg"
   xmlns:svg="http://www.w3.org/2000/svg"><sodipodi:namedview
     id="namedview1"
     pagecolor="#ffffff"
     bordercolor="#000000"
     borderopacity="0.25"
     inkscape:showpageshadow="2"
     inkscape:pageopacity="0.0"
     inkscape:pagecheckerboard="0"
     inkscape:deskcolor="#d1d1d1"
     inkscape:document-units="mm"
     inkscape:zoom="1.1508788"
     inkscape:cx="149.45101"
     inkscape:cy="627.78114"
     inkscape:window-width="3840"
     inkscape:window-height="2054"
     inkscape:window-x="-11"
     inkscape:window-y="-11"
     inkscape:window-maximized="1"
     inkscape:current-layer="layer4" /><defs
     id="defs1" /><g
     inkscape:groupmode="layer"
     id="layer2"
     inkscape:label="Marker"
     transform="translate(0,0.11887)" /><g
     inkscape:groupmode="layer"
     id="layer19"
     inkscape:label="Special1"
     transform="translate(0,0.11887)"><path
       id="path95"
       style="fill:#865ccc;fill-opacity:1;stroke:#404040;stroke-width:0;stroke-linecap:round;stroke-dasharray:none;stroke-dashoffset:0;stroke-opacity:0;paint-order:fill markers stroke"
       d="m 310.5293,606.04102 c 9.0013,15.25585 18.0026,30.51171 27.0039,45.76757 17.76823,-7.11849 35.53646,-14.23698 53.30469,-21.35547 0,-12.14062 0,-24.28124 0,-36.42187 -13.34831,-10.0957 -26.69661,-20.19141 -40.04492,-30.28711 -13.42123,14.09896 -26.84245,28.19792 -40.26367,42.29688 z" /><path
       id="path86"
       style="fill:#865ccc;fill-opacity:1;stroke:#404040;stroke-width:0;stroke-linecap:round;stroke-dasharray:none;stroke-dashoffset:0;stroke-opacity:0;paint-order:fill markers stroke"
       d="m 15.683594,589.04688 c 7.623698,13.52604 15.247396,27.05208 22.871094,40.57812 17.045572,-9.22656 34.091145,-18.45312 51.136718,-27.67969 -4.488281,-4.93554 -8.976562,-9.87109 -13.464844,-14.80664 -17.639973,-4.48372 -35.279947,-8.96745 -52.919921,-13.45117 -2.541016,5.11979 -5.082032,10.23958 -7.623047,15.35938 z" /><path
       id="path90"
       style="fill:#865ccc;fill-opacity:1;stroke:#404040;stroke-width:0;stroke-linecap:round;stroke-dasharray:none;stroke-dashoffset:0;stroke-opacity:0;paint-order:fill markers stroke"
       d="m 110.50195,704.49609 c 3.08138,0 6.16276,0 9.24414,0 -1.18808,-0.46957 -2.36674,-0.96203 -3.54687,-1.45117 -1.89909,0.48373 -3.79818,0.96745 -5.69727,1.45117 z" /></g><g
     inkscape:groupmode="layer"
     id="layer21"
     inkscape:label="Special3"
     transform="translate(0,0.11887)"><path
       id="path88"
       style="fill:#a381dc;fill-opacity:1;stroke:#404040;stroke-width:0;stroke-linecap:round;stroke-dasharray:none;stroke-dashoffset:0;stroke-opacity:0;paint-order:fill markers stroke"
       d="m 63.777344,647.47852 c 18.505208,8.78515 37.010416,17.57031 55.515626,26.35546 10.98958,-14.54362 21.97917,-29.08724 32.96875,-43.63086 -12.85742,-3.24609 -25.71485,-6.49218 -38.57227,-9.73828 -16.637367,9.00456 -33.274736,18.00912 -49.912106,27.01368 z" /><path
       id="path93"
       style="fill:#a381dc;fill-opacity:1;stroke:#404040;stroke-width:0;stroke-linecap:round;stroke-dasharray:none;stroke-dashoffset:0;stroke-opacity:0;paint-order:fill markers stroke"
       d="m 218.26367,621.41406 c 12.69076,9.34115 25.38151,18.68229 38.07227,28.02344 16.61393,1.27279 33.22786,2.54557 49.84179,3.81836 -7.34179,-12.44662 -14.68359,-24.89323 -22.02539,-37.33984 -23.77083,-6.61589 -47.54166,-13.23178 -71.3125,-19.84766 1.80795,8.44857 3.61589,16.89713 5.42383,25.3457 z" /></g><g
     inkscape:groupmode="layer"
     id="layer22"
     inkscape:label="Special4"
     transform="translate(0,0.11887)"><path
       id="path94"
       style="fill:#724eaf;fill-opacity:1;stroke:#404040;stroke-width:0;stroke-linecap:round;stroke-dasharray:none;stroke-dashoffset:0;stroke-opacity:0;paint-order:fill markers stroke"
       d="m 279.24023,566.90234 c -21.08345,-0.13678 -42.16712,-0.45905 -63.25,-0.72461 -0.31901,0.58204 -0.63802,1.16407 -0.95703,1.7461 24.64258,6.85937 49.28516,13.71875 73.92774,20.57812 8.04036,-8.44596 16.08073,-16.89192 24.12109,-25.33789 -11.2806,1.2461 -22.5612,2.49219 -33.8418,3.73828 z" /><path
       id="path96"
       style="fill:#724eaf;fill-opacity:1;stroke:#404040;stroke-width:0;stroke-linecap:round;stroke-dasharray:none;stroke-dashoffset:0;stroke-opacity:0;paint-order:fill markers stroke"
       d="m 271.14453,704.49609 c 39.89779,0 79.79557,0 119.69336,0 0,-14.89843 0,-29.79687 0,-44.69531 -39.89779,14.89844 -79.79557,29.79688 -119.69336,44.69531 z" /></g><g
     inkscape:groupmode="layer"
     id="layer20"
     inkscape:label="Special2"
     transform="translate(0,0.11887)"><path
       id="path87"
       style="fill:#9970df;fill-opacity:1;stroke:#404040;stroke-width:0;stroke-linecap:round;stroke-dasharray:none;stroke-dashoffset:0;stroke-opacity:0;paint-order:fill markers stroke"
       d="m 102.88672,575.25781 c 5.47005,6.01693 10.9401,12.03386 16.41016,18.05078 22.76236,5.74805 45.52473,11.4961 68.2871,17.24414 -1.8151,-8.48763 -3.6302,-16.97526 -5.44531,-25.46289 -17.95638,-11.64843 -35.91276,-23.29687 -53.86914,-34.94531 -8.46094,8.3711 -16.92187,16.74219 -25.38281,25.11328 z" /><path
       id="path89"
       style="fill:#9970df;fill-opacity:1;stroke:#404040;stroke-width:0;stroke-linecap:round;stroke-dasharray:none;stroke-dashoffset:0;stroke-opacity:0;paint-order:fill markers stroke"
       d="M 13.857422,700.52148 C 34.89388,695.16081 55.930339,689.80013 76.966797,684.43945 59.056683,675.93611 41.14623,667.43348 23.236328,658.92969 20.110932,653.381 16.983574,647.83342 13.857422,642.28516 c 0,19.41211 0,38.82421 0,58.23632 z" /><path
       id="path91"
       style="fill:#9970df;fill-opacity:1;stroke:#404040;stroke-width:0;stroke-linecap:round;stroke-dasharray:none;stroke-dashoffset:0;stroke-opacity:0;paint-order:fill markers stroke"
       d="m 145.71875,684.87305 c 15.69792,6.01106 31.39583,12.02213 47.09375,18.0332 15.91146,-10.23177 31.82292,-20.46354 47.73438,-30.69531 -13.58659,-10.00391 -27.17318,-20.00781 -40.75977,-30.01172 -6.11263,-1.54232 -12.22526,-3.08464 -18.33789,-4.62695 -11.91016,15.76692 -23.82031,31.53385 -35.73047,47.30078 z" /></g><g
     inkscape:groupmode="layer"
     id="layer15"
     inkscape:label="Active1"
     transform="translate(0,0.11887)"><path
       id="path77"
       style="fill:#d67965;fill-opacity:1;stroke:#404040;stroke-width:0;stroke-linecap:round;stroke-dasharray:none;stroke-dashoffset:0;stroke-opacity:0;paint-order:fill markers stroke"
       d="m 13.857422,530.35742 c 0.757161,-1.52539 1.514323,-3.05078 2.271484,-4.57617 -0.757161,-1.41667 -1.514323,-2.83333 -2.271484,-4.25 0,2.94206 0,5.88411 0,8.82617 z" /><path
       id="path80"
       style="fill:#d67965;fill-opacity:1;stroke:#404040;stroke-width:0;stroke-linecap:round;stroke-dasharray:none;stroke-dashoffset:0;stroke-opacity:0;paint-order:fill markers stroke"
       d="m 211.64453,468.69922 c -3.67091,2.53306 -8.48875,2.60263 -12.65625,1.42773 -4.35286,-0.89192 -8.70573,-1.78385 -13.05859,-2.67578 -3.72461,5.64649 -7.44922,11.29297 -11.17383,16.93945 12.48763,3.83204 24.97526,7.66407 37.46289,11.4961 14.10156,-11.36524 28.20312,-22.73047 42.30469,-34.0957 -5.50326,-3.11849 -11.00651,-6.23698 -16.50977,-9.35547 -8.78971,5.42122 -17.57943,10.84244 -26.36914,16.26367 z" /><path
       id="path82"
       style="fill:#d67965;fill-opacity:1;stroke:#404040;stroke-width:0;stroke-linecap:round;stroke-dasharray:none;stroke-dashoffset:0;stroke-opacity:0;paint-order:fill markers stroke"
       d="m 376.79492,477.5918 c -9.89127,16.20312 -19.78255,32.40625 -29.67383,48.60937 14.57227,11.02995 29.14454,22.0599 43.7168,33.08985 0,-29.73959 0,-59.47917 0,-89.21875 -4.68099,2.50651 -9.36198,5.01302 -14.04297,7.51953 z" /></g><g
     inkscape:groupmode="layer"
     id="layer16"
     inkscape:label="Active2"
     transform="translate(0,0.11887)"><path
       id="path78"
       style="fill:#e58f7d;fill-opacity:1;stroke:#404040;stroke-width:0;stroke-linecap:round;stroke-dasharray:none;stroke-dashoffset:0;stroke-opacity:0;paint-order:fill markers stroke"
       d="m 35.908203,548.30469 c 14.527995,3.69205 29.05599,7.38411 43.583985,11.07617 1.079427,-1.06771 2.158854,-2.13542 3.238281,-3.20313 -14.617188,-4.61783 -29.234375,-9.23567 -43.851563,-13.85351 -0.990234,1.99349 -1.980469,3.98698 -2.970703,5.98047 z" /><path
       id="path83"
       style="fill:#e58f7d;fill-opacity:1;stroke:#404040;stroke-width:0;stroke-linecap:round;stroke-dasharray:none;stroke-dashoffset:0;stroke-opacity:0;paint-order:fill markers stroke"
       d="m 294.21484,537.36523 c 4.62175,-0.50976 9.24349,-1.01953 13.86524,-1.52929 -4.25326,-1.84245 -8.50651,-3.6849 -12.75977,-5.52735 -0.36849,2.35222 -0.73698,4.70443 -1.10547,7.05664 z" /></g><g
     inkscape:groupmode="layer"
     id="layer18"
     inkscape:label="Active4"
     transform="translate(0,0.11887)"><path
       id="path84"
       style="fill:#ce6954;fill-opacity:1;stroke:#404040;stroke-width:0;stroke-linecap:round;stroke-dasharray:none;stroke-dashoffset:0;stroke-opacity:0;paint-order:fill markers stroke"
       d="m 227.90234,518.83203 c -1.18164,6.57943 -2.36328,13.15886 -3.54492,19.73828 13.84701,0.18425 27.69401,0.36849 41.54102,0.55274 1.05599,-6.73112 2.11198,-13.46224 3.16797,-20.19336 -8.94532,-3.87826 -17.89063,-7.75651 -26.83594,-11.63477 -4.77604,3.84571 -9.55208,7.69141 -14.32813,11.53711 z" /><path
       id="path79"
       style="fill:#ce6954;fill-opacity:1;stroke:#404040;stroke-width:0;stroke-linecap:round;stroke-dasharray:none;stroke-dashoffset:0;stroke-opacity:0;paint-order:fill markers stroke"
       d="m 114.86914,464.2793 c 2.09053,2.61455 4.18079,5.22933 6.27148,7.84375 -0.2372,7.92319 -0.47533,15.84635 -0.71289,23.76953 2.16472,3.56055 4.32943,7.12109 6.49415,10.68164 9.92968,-15.04557 19.85937,-30.09115 29.78906,-45.13672 -2.83526,-0.58218 -5.67076,-1.16317 -8.50586,-1.74609 -2.15985,-2.09407 -4.32036,-4.18745 -6.48047,-6.28125 -8.95182,3.62304 -17.90365,7.24609 -26.85547,10.86914 z" /></g><g
     inkscape:groupmode="layer"
     id="layer17"
     inkscape:label="Active3"
     transform="translate(0,0.11887)"><path
       id="path76"
       style="fill:#e3a395;fill-opacity:1;stroke:#404040;stroke-width:0;stroke-linecap:round;stroke-dasharray:none;stroke-dashoffset:0;stroke-opacity:0;paint-order:fill markers stroke"
       d="m 19.378906,473.0625 c 7.302735,13.6556 14.605469,27.3112 21.908203,40.9668 13.132162,4.14909 26.264323,8.29817 39.396485,12.44726 3.794271,-3.4707 7.588541,-6.9414 11.382812,-10.41211 0.352865,-11.52474 0.705729,-23.04948 1.058594,-34.57422 -3.372396,-4.21484 -6.744792,-8.42968 -10.117188,-12.64453 -7.171223,-4.56185 -14.342447,-9.12369 -21.513671,-13.68554 -14.038412,5.96744 -28.076823,11.93489 -42.115235,17.90234 z" /><path
       id="path81"
       style="fill:#e3a395;fill-opacity:1;stroke:#404040;stroke-width:0;stroke-linecap:round;stroke-dasharray:none;stroke-dashoffset:0;stroke-opacity:0;paint-order:fill markers stroke"
       d="m 285.60352,472.33984 c -6.32943,5.09896 -12.65886,10.19792 -18.98829,15.29688 18.86133,8.17773 37.72266,16.35547 56.58399,24.5332 7.94792,-13.02864 15.89583,-26.05729 23.84375,-39.08594 -8.03776,-3.79817 -16.07552,-7.59635 -24.11328,-11.39453 -12.44206,3.55013 -24.88412,7.10026 -37.32617,10.65039 z" /><path
       id="path85"
       style="fill:#e3a395;fill-opacity:1;stroke:#404040;stroke-width:0;stroke-linecap:round;stroke-dasharray:none;stroke-dashoffset:0;stroke-opacity:0;paint-order:fill markers stroke"
       d="m 145.69336,528.41992 c 14.60156,9.47136 29.20312,18.94271 43.80469,28.41406 1.70986,-3.19075 3.56033,-6.32192 5.14074,-9.57303 1.57743,-8.77448 3.15487,-17.54897 4.7323,-26.32345 -13.51041,-4.14714 -27.02083,-8.29427 -40.53125,-12.44141 -4.38216,6.64128 -8.76432,13.28256 -13.14648,19.92383 z" /></g><g
     inkscape:groupmode="layer"
     id="layer11"
     inkscape:label="Synergy1"
     transform="translate(0,0.11887)"><path
       id="path63"
       style="fill:#85b8e4;fill-opacity:1;stroke:#404040;stroke-width:0;stroke-linecap:round;stroke-dasharray:none;stroke-dashoffset:0;stroke-opacity:0;paint-order:fill markers stroke"
       d="m 96.851562,342.38672 c 0.304037,0.93424 0.608073,1.86849 0.91211,2.80273 1.764974,-1.05273 3.529948,-2.10547 5.294918,-3.1582 -2.60221,-1.52018 -5.204423,-3.04036 -7.806637,-4.56055 0.533203,1.63867 1.066406,3.27735 1.599609,4.91602 z m -16.998046,15.21094 c -0.32251,0.24152 -0.537713,1.48236 0.09497,1.17237 0.479617,-0.0183 1.255099,-0.68128 0.620782,-1.0503 -0.190298,-0.13611 -0.507666,-0.24387 -0.715747,-0.12207 z" /><path
       id="path65"
       style="fill:#85b8e4;fill-opacity:1;stroke:#404040;stroke-width:0;stroke-linecap:round;stroke-dasharray:none;stroke-dashoffset:0;stroke-opacity:0;paint-order:fill markers stroke"
       d="m 162.17578,327.5332 c 2.72005,7.82162 5.44011,15.64323 8.16016,23.46485 3.6582,-0.67578 7.3164,-1.35157 10.97461,-2.02735 -4.63737,-8.80534 -9.27474,-17.61067 -13.91211,-26.41601 -1.74089,1.6595 -3.48177,3.31901 -5.22266,4.97851 z" /><path
       id="path69"
       style="fill:#85b8e4;fill-opacity:1;stroke:#404040;stroke-width:0;stroke-linecap:round;stroke-dasharray:none;stroke-dashoffset:0;stroke-opacity:0;paint-order:fill markers stroke"
       d="m 312.19141,385.24609 c 0.005,1.51823 0.009,3.03646 0.0137,4.55469 7.54687,3.51888 15.09375,7.03776 22.64062,10.55664 5.48828,-8.25846 10.97657,-16.51693 16.46485,-24.77539 -13.03972,3.22136 -26.07943,6.44271 -39.11914,9.66406 z" /><path
       id="path71"
       style="fill:#85b8e4;fill-opacity:1;stroke:#404040;stroke-width:0;stroke-linecap:round;stroke-dasharray:none;stroke-dashoffset:0;stroke-opacity:0;paint-order:fill markers stroke"
       d="m 218.97266,431.61719 c 4.64127,-2.86003 9.28255,-5.72005 13.92382,-8.58008 -4.52539,-0.22591 -9.05078,-0.45182 -13.57617,-0.67773 -0.11588,3.08593 -0.23177,6.17187 -0.34765,9.25781 z m 61.90429,13.26562 c 4.01302,-1.14518 8.02604,-2.29036 12.03907,-3.43554 -7.63282,-5.52149 -15.26563,-11.04297 -22.89844,-16.56446 -8.92774,-0.44401 -17.85547,-0.88802 -26.7832,-1.33203 12.54752,7.11068 25.09505,14.22136 37.64257,21.33203 z" /><path
       id="path75"
       style="fill:#85b8e4;fill-opacity:1;stroke:#404040;stroke-width:0;stroke-linecap:round;stroke-dasharray:none;stroke-dashoffset:0;stroke-opacity:0;paint-order:fill markers stroke"
       d="m 13.857422,388.42773 c 0,18.95183 0,37.90365 0,56.85547 6.406901,-2.7233 12.813802,-5.44661 19.220703,-8.16992 -4.502734,-2.86047 -9.00441,-5.72261 -13.507813,-8.58203 -0.626047,-14.35299 -1.258287,-28.70571 -1.886718,-43.05859 -1.275391,0.98502 -2.550781,1.97005 -3.826172,2.95507 z" /></g><g
     inkscape:groupmode="layer"
     id="layer14"
     inkscape:label="Synergy4"
     transform="translate(0,0.11887)"><path
       id="path64"
       style="fill:#acd0ef;fill-opacity:1;stroke:#404040;stroke-width:0;stroke-linecap:round;stroke-dasharray:none;stroke-dashoffset:0;stroke-opacity:0;paint-order:fill markers stroke"
       d="m 45.996094,398.77539 c 6.568359,-3.2845 13.136718,-6.56901 19.705078,-9.85351 -4.302014,-2.02405 -8.699087,-3.84292 -13.038339,-5.78802 -2.498939,-1.09866 -4.997878,-2.19731 -7.496817,-3.29597 0.276692,6.3125 0.553385,12.625 0.830078,18.9375 z" /><path
       id="path67"
       style="fill:#acd0ef;fill-opacity:1;stroke:#404040;stroke-width:0;stroke-linecap:round;stroke-dasharray:none;stroke-dashoffset:0;stroke-opacity:0;paint-order:fill markers stroke"
       d="m 255.73047,366.70312 c -11.30078,9.35092 -22.60156,18.70183 -33.90235,28.05274 20.89258,1.03776 41.78516,2.07552 62.67774,3.11328 -0.0378,-13.89388 -0.0755,-27.78776 -0.11328,-41.68164 -9.55404,3.50521 -19.10807,7.01042 -28.66211,10.51562 z" /></g><g
     inkscape:groupmode="layer"
     id="layer12"
     inkscape:label="Synergy2"
     transform="translate(0,0.11887)"><path
       id="path62"
       style="fill:#94c4ed;fill-opacity:1;stroke:#404040;stroke-width:0;stroke-linecap:round;stroke-dasharray:none;stroke-dashoffset:0;stroke-opacity:0;paint-order:fill markers stroke"
       d="m 13.857422,353.4082 c 4.8444,-3.74479 9.688809,-7.48957 14.533203,-11.23437 8.285488,3.64135 16.571667,7.28113 24.857422,10.92187 -0.540365,-2.64192 -1.080729,-5.28385 -1.621094,-7.92578 -12.589844,-6.7806 -25.179687,-13.5612 -37.769531,-20.3418 0,9.5267 0,19.05339 0,28.58008 z" /><path
       id="path70"
       style="fill:#acd0ef;fill-opacity:1;stroke:#404040;stroke-width:0;stroke-linecap:round;stroke-dasharray:none;stroke-dashoffset:0;stroke-opacity:0;paint-order:fill markers stroke"
       d="m 351.73242,425.02148 c -2.81185,5.21159 -5.6237,10.42318 -8.43554,15.63477 7.74414,3.66081 15.48828,7.32161 23.23242,10.98242 8.10286,-4.33659 16.20573,-8.67318 24.30859,-13.00976 0,-19.93099 0,-39.86198 0,-59.79297 -1.79622,-1.52865 -3.59245,-3.05729 -5.38867,-4.58594 -11.23893,16.92383 -22.47787,33.84766 -33.7168,50.77148 z" /><path
       id="path72"
       style="fill:#94c4ed;fill-opacity:1;stroke:#404040;stroke-width:0;stroke-linecap:round;stroke-dasharray:none;stroke-dashoffset:0;stroke-opacity:0;paint-order:fill markers stroke"
       d="m 310.50977,419.95508 c 2.98437,2.15885 5.96875,4.31771 8.95312,6.47656 0.38086,-0.70638 0.76172,-1.41276 1.14258,-2.11914 -3.31445,-1.54427 -6.62891,-3.08854 -9.94336,-4.63281 -0.0508,0.0918 -0.10156,0.18359 -0.15234,0.27539 z" /><path
       id="path73"
       style="fill:#94c4ed;fill-opacity:1;stroke:#404040;stroke-width:0;stroke-linecap:round;stroke-dasharray:none;stroke-dashoffset:0;stroke-opacity:0;paint-order:fill markers stroke"
       d="m 133.57617,385.96484 c -4.75456,2.37761 -9.50911,4.75521 -14.26367,7.13282 14.12826,13.6901 28.25651,27.3802 42.38477,41.07031 9.73437,2.00065 19.46875,4.0013 29.20312,6.00195 0.3457,-9.23437 0.69141,-18.46875 1.03711,-27.70312 -8.66992,-10.82618 -17.33984,-21.65235 -26.00977,-32.47852 -10.78385,1.99219 -21.5677,3.98438 -32.35156,5.97656 z" /></g><g
     inkscape:groupmode="layer"
     id="layer13"
     inkscape:label="Synergy3"
     transform="translate(0,0.11887)"><path
       id="path66"
       style="fill:#74a4ce;fill-opacity:1;stroke:#404040;stroke-width:0;stroke-linecap:round;stroke-dasharray:none;stroke-dashoffset:0;stroke-opacity:0;paint-order:fill markers stroke"
       d="m 215.625,363.24414 c -0.18204,0.59633 -0.44587,1.21848 0.25417,0.47563 7.07335,-5.85362 14.14819,-11.70546 21.22435,-17.55571 0.52213,-1.37304 1.04427,-2.74609 1.5664,-4.11914 -4.9694,0 -9.9388,0 -14.9082,0 -2.71224,7.06641 -5.42448,14.13281 -8.13672,21.19922 z m -10.97266,9.68164 c -2.61814,0.31956 -5.19834,0.89363 -7.79687,1.34766 0.82747,1.03385 1.65495,2.06771 2.48242,3.10156 1.81185,-1.49154 3.6237,-2.98307 5.43555,-4.47461 l -0.0979,0.0205 z" /><path
       id="path68"
       style="fill:#74a4ce;fill-opacity:1;stroke:#404040;stroke-width:0;stroke-linecap:round;stroke-dasharray:none;stroke-dashoffset:0;stroke-opacity:0;paint-order:fill markers stroke"
       d="m 336.14258,335.14453 c -4.89813,2.79686 -9.70359,5.89375 -15.11987,7.61343 -2.97957,1.09175 -5.95915,2.1835 -8.93873,3.27524 0.0111,3.56055 0.0221,7.1211 0.0332,10.68164 21.21224,-5.24544 42.42448,-10.49088 63.63672,-15.73632 -12.74939,-2.17961 -25.48883,-4.42421 -38.23438,-6.62891 -0.45898,0.26497 -0.91797,0.52995 -1.37695,0.79492 z m 54.24023,4.78516 c -0.48441,0.304 -0.97405,0.60211 -1.48828,0.85351 0.64779,0.55209 1.29557,1.10417 1.94336,1.65625 0,-0.93815 0,-1.8763 0,-2.81445 -0.15169,0.10156 -0.30338,0.20313 -0.45508,0.30469 z" /><path
       id="path74"
       style="fill:#74a4ce;fill-opacity:1;stroke:#404040;stroke-width:0;stroke-linecap:round;stroke-dasharray:none;stroke-dashoffset:0;stroke-opacity:0;paint-order:fill markers stroke"
       d="m 61.189453,422.15039 c 10.875,6.91667 21.75,13.83333 32.625,20.75 8.844397,-3.58203 17.688807,-7.16406 26.533207,-10.74609 -8.76433,-8.81055 -17.52865,-17.6211 -26.292972,-26.43164 -10.955079,5.47591 -21.910157,10.95182 -32.865235,16.42773 z" /></g><g
     inkscape:groupmode="layer"
     id="layer7"
     inkscape:label="Bodymod1"
     transform="translate(0,0.11887)"><path
       id="path47"
       style="fill:#9fc88c;fill-opacity:1;stroke:#404040;stroke-width:0;stroke-linecap:round;stroke-dasharray:none;stroke-dashoffset:0;stroke-opacity:0;paint-order:fill markers stroke"
       d="m 188.55273,209.36328 c 4.38933,11.10221 8.77865,22.20443 13.16797,33.30664 10.1237,-5.2845 20.2474,-10.56901 30.3711,-15.85351 -9.90886,-8.18685 -19.81771,-16.3737 -29.72657,-24.56055 -4.60416,2.36914 -9.20833,4.73828 -13.8125,7.10742 z" /><path
       id="path55"
       style="fill:#9fc88c;fill-opacity:1;stroke:#404040;stroke-width:0;stroke-linecap:round;stroke-dasharray:none;stroke-dashoffset:0;stroke-opacity:0;paint-order:fill markers stroke"
       d="m 73.509766,270.69336 c 2.114583,6.49219 4.229166,12.98437 6.34375,19.47656 15.677083,-4.45768 31.354164,-8.91536 47.031254,-13.37304 -12.91407,-7.7793 -25.82813,-15.5586 -38.742192,-23.3379 -4.877604,5.7448 -9.755208,11.48959 -14.632812,17.23438 z" /><path
       id="path59"
       style="fill:#9fc88c;fill-opacity:1;stroke:#404040;stroke-width:0;stroke-linecap:round;stroke-dasharray:none;stroke-dashoffset:0;stroke-opacity:0;paint-order:fill markers stroke"
       d="m 234.39648,314.33008 c 4.93555,0 9.8711,0 14.80664,0 2.22917,-5.85417 4.45834,-11.70834 6.6875,-17.5625 -4.88671,-0.0788 -9.77343,-0.15755 -14.66015,-0.23633 -2.278,5.93294 -4.55599,11.86589 -6.83399,17.79883 z" /></g><g
     inkscape:groupmode="layer"
     id="layer8"
     inkscape:label="Bodymod2"
     transform="translate(0,0.11887)"><path
       id="path48"
       style="fill:#a6d68e;fill-opacity:1;stroke:#404040;stroke-width:0;stroke-linecap:round;stroke-dasharray:none;stroke-dashoffset:0;stroke-opacity:0;paint-order:fill markers stroke"
       d="m 269.36328,218.35156 c 12.69076,3.34701 25.38151,6.69401 38.07227,10.04102 -3.31641,-7.39844 -6.63282,-14.79688 -9.94922,-22.19531 -10.25781,-1.77605 -20.51563,-3.55209 -30.77344,-5.32813 0.88346,5.82747 1.76693,11.65495 2.65039,17.48242 z" /><path
       id="path50"
       style="fill:#a6d68e;fill-opacity:1;stroke:#404040;stroke-width:0;stroke-linecap:round;stroke-dasharray:none;stroke-dashoffset:0;stroke-opacity:0;paint-order:fill markers stroke"
       d="m 298.11328,285.97656 c 8.2207,8.28841 16.44141,16.57683 24.66211,24.86524 16.9082,-9.76302 33.81641,-19.52604 50.72461,-29.28907 -13.44922,-5.61067 -26.89844,-11.22135 -40.34766,-16.83203 -11.67968,7.08529 -23.35937,14.17058 -35.03906,21.25586 z" /><path
       id="path52"
       style="fill:#a6d68e;fill-opacity:1;stroke:#404040;stroke-width:0;stroke-linecap:round;stroke-dasharray:none;stroke-dashoffset:0;stroke-opacity:0;paint-order:fill markers stroke"
       d="m 118.73438,226.06641 c -7.30922,0.24894 -14.6291,0.21025 -21.943364,0.2207 21.574874,12.99805 43.149744,25.99609 64.724604,38.99414 5.23764,-3.05729 10.47527,-6.11458 15.7129,-9.17187 -4.97266,-12.57748 -9.94532,-25.15495 -14.91797,-37.73243 -14.52539,2.56315 -29.05078,5.12631 -43.57617,7.68946 z" /><path
       id="path54"
       style="fill:#a6d68e;fill-opacity:1;stroke:#404040;stroke-width:0;stroke-linecap:round;stroke-dasharray:none;stroke-dashoffset:0;stroke-opacity:0;paint-order:fill markers stroke"
       d="m 13.857422,293.35352 c 15.313802,8.24479 30.627604,16.48958 45.941406,24.73437 -4.159505,-12.77604 -8.31901,-25.55208 -12.478516,-38.32812 -11.154296,-2.03516 -22.308593,-4.07032 -33.46289,-6.10547 0,6.5664 0,13.13281 0,19.69922 z" /><path
       id="path57"
       style="fill:#a6d68e;fill-opacity:1;stroke:#404040;stroke-width:0;stroke-linecap:round;stroke-dasharray:none;stroke-dashoffset:0;stroke-opacity:0;paint-order:fill markers stroke"
       d="m 200.37109,325.66016 c 3.78711,-9.86719 7.57422,-19.73438 11.36133,-29.60157 -9.0612,-0.14583 -18.12239,-0.29166 -27.18359,-0.4375 5.27409,10.01302 10.54818,20.02605 15.82226,30.03907 z" /></g><g
     inkscape:groupmode="layer"
     id="layer9"
     inkscape:label="Bodymod3"
     transform="translate(0,0.11887)"><path
       id="path53"
       style="fill:#b2e09d;fill-opacity:1;stroke:#404040;stroke-width:0;stroke-linecap:round;stroke-dasharray:none;stroke-dashoffset:0;stroke-opacity:0;paint-order:fill markers stroke"
       d="m 13.857422,245.46094 c 12.894531,2.35221 25.789062,4.70442 38.683594,7.05664 3.840494,-4.52149 7.680989,-9.04297 11.521484,-13.56446 -7.009115,-4.22395 -14.018229,-8.44791 -21.027344,-12.67187 -9.725911,0 -19.451823,0 -29.177734,0 0,6.39323 0,12.78646 0,19.17969 z" /><path
       id="path51"
       style="fill:#b2e09d;fill-opacity:1;stroke:#404040;stroke-width:0;stroke-linecap:round;stroke-dasharray:none;stroke-dashoffset:0;stroke-opacity:0;paint-order:fill markers stroke"
       d="m 212.46094,268.35156 c 19.87109,0.31966 39.74219,0.63933 59.61328,0.95899 8.25846,-5.01042 16.51693,-10.02084 24.77539,-15.03125 -12.72331,-3.35352 -25.44662,-6.70703 -38.16992,-10.06055 -15.40625,8.04427 -30.8125,16.08854 -46.21875,24.13281 z" /><path
       id="path56"
       style="fill:#b2e09d;fill-opacity:1;stroke:#404040;stroke-width:0;stroke-linecap:round;stroke-dasharray:none;stroke-dashoffset:0;stroke-opacity:0;paint-order:fill markers stroke"
       d="m 105.86133,311.56836 c 8.97135,5.24088 17.94271,10.48177 26.91406,15.72266 -2.46419,-7.09115 -4.92838,-14.1823 -7.39258,-21.27344 -6.50716,1.85026 -13.01432,3.70052 -19.52148,5.55078 z" /><path
       id="path61"
       style="fill:#b2e09d;fill-opacity:1;stroke:#404040;stroke-width:0;stroke-linecap:round;stroke-dasharray:none;stroke-dashoffset:0;stroke-opacity:0;paint-order:fill markers stroke"
       d="m 374.99609,312.71875 c 1.52344,0.26563 3.04688,0.53125 4.57032,0.79687 3.75716,-2.77343 7.51432,-5.54687 11.27148,-8.32031 -0.11212,-0.41285 0.22733,-1.60777 -0.17321,-1.52111 -5.22286,3.01485 -10.44573,6.0297 -15.66859,9.04455 z" /></g><g
     inkscape:groupmode="layer"
     id="layer10"
     inkscape:label="Bodymod4"
     transform="translate(0,0.11887)"><path
       id="path49"
       style="fill:#90b57f;fill-opacity:1;stroke:#404040;stroke-width:0;stroke-linecap:round;stroke-dasharray:none;stroke-dashoffset:0;stroke-opacity:0;paint-order:fill markers stroke"
       d="m 337.04492,209.44727 c -1.98379,1.35434 -4.38771,1.99486 -6.77148,2.08007 4.03906,9.00847 8.07812,18.01693 12.11718,27.02539 16.14909,6.73633 32.29818,13.47266 48.44727,20.20899 0,-13.72721 0,-27.45443 0,-41.18164 -7.57747,-8.80664 -15.15495,-17.61328 -22.73242,-26.41992 -10.35352,6.0957 -20.70703,12.1914 -31.06055,18.28711 z" /><path
       id="path58"
       style="fill:#90b57f;fill-opacity:1;stroke:#404040;stroke-width:0;stroke-linecap:round;stroke-dasharray:none;stroke-dashoffset:0;stroke-opacity:0;paint-order:fill markers stroke"
       d="m 272.52148,331.00781 c 7.63477,-2.80208 15.26954,-5.60416 22.9043,-8.40625 -4.74739,-4.78255 -9.49479,-9.5651 -14.24219,-14.34765 -2.88737,7.58463 -5.77474,15.16927 -8.66211,22.7539 z" /><path
       id="path60"
       style="fill:#90b57f;fill-opacity:1;stroke:#404040;stroke-width:0;stroke-linecap:round;stroke-dasharray:none;stroke-dashoffset:0;stroke-opacity:0;paint-order:fill markers stroke"
       d="m 152.07031,298.44336 c 0.034,0.82091 1.27579,-0.7968 0,0 z" /></g><g
     inkscape:label="Passive1"
     inkscape:groupmode="layer"
     id="layer1"
     transform="translate(83.28501,206.63068)"><path
       id="path24"
       style="fill:#e2b584;fill-opacity:1;stroke:#404040;stroke-width:0;stroke-linecap:round;stroke-dasharray:none;stroke-dashoffset:0;stroke-opacity:0;paint-order:fill markers stroke"
       d="m 298.27734,-42.197266 c 3.0918,3.589844 6.1836,7.179688 9.27539,10.769532 0,-4.016927 0,-8.033855 0,-12.050782 -3.09179,0.427084 -6.18359,0.854167 -9.27539,1.28125 z m -43.52929,6.001954 c 0.39974,1.891276 0.79948,3.782552 1.19922,5.673828 4.31901,-2.541667 8.63802,-5.083334 12.95703,-7.625 -4.71875,0.65039 -9.4375,1.300781 -14.15625,1.951172 z" /><path
       id="path12"
       style="fill:#e2b584;fill-opacity:1;stroke:#404040;stroke-width:0;stroke-linecap:round;stroke-dasharray:none;stroke-dashoffset:0;stroke-opacity:0;paint-order:fill markers stroke"
       d="m -54.431641,-117.06641 c 14.68099,11.05664 29.36198,22.113285 44.042969,33.169926 8.0091147,-8.527344 16.0182293,-17.054686 24.027344,-25.582036 -9.1315105,-7.38476 -18.263021,-14.76953 -27.394531,-22.15429 -13.558594,4.85547 -27.117188,9.71093 -40.675782,14.5664 z" /><path
       id="path5"
       style="fill:#e2b584;fill-opacity:1;stroke:#404040;stroke-width:0;stroke-linecap:round;stroke-dasharray:none;stroke-dashoffset:0;stroke-opacity:0;paint-order:fill markers stroke"
       d="m 53.353516,-11.744141 c 3.296875,-0.582031 6.59375,-1.164062 9.890625,-1.746093 -2.160157,-2.909506 -4.320313,-5.819011 -6.480469,-8.728516 -1.136719,3.491536 -2.273438,6.983073 -3.410156,10.474609 z" /><path
       id="path16"
       style="fill:#e2b584;fill-opacity:1;stroke:#404040;stroke-width:0;stroke-linecap:round;stroke-dasharray:none;stroke-dashoffset:0;stroke-opacity:0;paint-order:fill markers stroke"
       d="m 95.144531,-189.55469 c 9.032189,2.01042 18.084209,3.93698 27.082389,6.09166 8.97189,2.67778 17.94377,5.35556 26.91566,8.03334 7.16471,-5.74153 14.32943,-11.48307 21.49414,-17.22461 -29.89323,0 -59.78646,0 -89.679689,0 4.729167,1.03321 9.458334,2.06641 14.1875,3.09961 z" /><path
       id="path17"
       style="fill:#e2b584;fill-opacity:1;stroke:#404040;stroke-width:0;stroke-linecap:round;stroke-dasharray:none;stroke-dashoffset:0;stroke-opacity:0;paint-order:fill markers stroke"
       d="m 113.63086,-148.19531 c 14.06205,13.55317 28.1225,27.10802 42.18555,40.66015 6.33528,11.017025 12.67339,22.032432 19.00976,33.048832 1.93229,1.564453 3.86459,3.128906 5.79688,4.693359 0.37174,-7.179687 0.74349,-14.359375 1.11523,-21.539062 -12.77734,-18.960289 -25.55469,-37.920569 -38.33203,-56.880859 -7.60221,-2.27214 -15.20443,-4.54427 -22.80664,-6.81641 -2.32292,2.278 -4.64583,4.55599 -6.96875,6.83399 z" /><path
       id="path21"
       style="fill:#e2b584;fill-opacity:1;stroke:#404040;stroke-width:0;stroke-linecap:round;stroke-dasharray:none;stroke-dashoffset:0;stroke-opacity:0;paint-order:fill markers stroke"
       d="m 254.30469,-100.89648 c 17.74935,7.036454 35.4987,14.072912 53.24804,21.109371 0,-21.793621 0,-43.587241 0,-65.380861 -8.94987,-0.85026 -17.89974,-1.70052 -26.84961,-2.55078 -8.79947,15.60742 -17.59895,31.21484 -26.39843,46.82227 z" /></g><g
     inkscape:groupmode="layer"
     id="layer3"
     inkscape:label="Passive2"
     transform="translate(0,0.11887)"><path
       id="path1"
       style="fill:#e2bf97;fill-opacity:1;stroke:#404040;stroke-width:0;stroke-linecap:round;stroke-opacity:0;paint-order:fill markers stroke"
       d="m 154.15039,156.76758 c 7.00586,9.43294 14.01172,18.86588 21.01758,28.29883 5.07682,-2.61068 10.15364,-5.22136 15.23047,-7.83203 0.0911,-7.44336 0.18229,-14.88672 0.27344,-22.33008 -5.35678,-5.02149 -10.71355,-10.04297 -16.07032,-15.06446 -6.81705,5.64258 -13.63411,11.28516 -20.45117,16.92774 z" /><path
       id="path7"
       style="fill:#e2bf97;fill-opacity:1;stroke:#404040;stroke-width:0;stroke-linecap:round;stroke-dasharray:none;stroke-dashoffset:0;stroke-opacity:0;paint-order:fill markers stroke"
       d="m 146.75391,93.591797 c 9.87239,4.38737 19.74479,8.774743 29.61718,13.162113 8.09245,-2.11263 16.1849,-4.22526 24.27735,-6.33789 -8.48438,-8.177739 -16.96875,-16.355473 -25.45313,-24.533208 -9.48047,5.902995 -18.96093,11.80599 -28.4414,17.708985 z" /><path
       id="path8"
       style="fill:#e2bf97;fill-opacity:1;stroke:#404040;stroke-width:0;stroke-linecap:round;stroke-dasharray:none;stroke-dashoffset:0;stroke-opacity:0;paint-order:fill markers stroke"
       d="m 101.29883,132.86328 c 4.57617,1.00586 9.15234,2.01172 13.72851,3.01758 -1.35156,-4.4375 -2.70312,-8.875 -4.05468,-13.3125 -3.22461,3.43164 -6.44922,6.86328 -9.67383,10.29492 z" /><path
       id="path18"
       style="fill:#e2bf97;fill-opacity:1;stroke:#404040;stroke-width:0;stroke-linecap:round;stroke-dasharray:none;stroke-dashoffset:0;stroke-opacity:0;paint-order:fill markers stroke"
       d="m 254.02539,49.275391 c 10.87044,16.13151 21.74089,32.26302 32.61133,48.394531 7.71745,0.273437 15.43489,0.546875 23.15234,0.820312 9.43685,-16.741536 18.8737,-33.483073 28.31055,-50.224609 C 323.36849,37.94401 308.63737,27.622396 293.90625,17.300781 280.61263,27.958984 267.31901,38.617187 254.02539,49.275391 Z" /><path
       id="path19"
       style="fill:#e2bf97;fill-opacity:1;stroke:#404040;stroke-width:0;stroke-linecap:round;stroke-dasharray:none;stroke-dashoffset:0;stroke-opacity:0;paint-order:fill markers stroke"
       d="m 263.25391,172.12305 c 0.99604,0.51914 -0.2528,-0.71775 0,0 z m 26.80078,4.64062 c 7.27409,1.26042 14.54817,2.52084 21.82226,3.78125 -0.45768,-2.16341 -0.91536,-4.32682 -1.37304,-6.49023 -6.81641,0.90299 -13.63282,1.80599 -20.44922,2.70898 z" /><path
       id="path11"
       style="fill:#e2bf97;fill-opacity:1;stroke:#404040;stroke-width:0;stroke-linecap:round;stroke-dasharray:none;stroke-dashoffset:0;stroke-opacity:0;paint-order:fill markers stroke"
       d="m 13.857422,130.32227 c 6.370565,-1.04803 12.725307,-2.19454 19.121094,-3.08008 -6.373698,-4.80013 -12.747396,-9.60026 -19.121094,-14.40039 0,5.82682 0,11.65364 0,17.48047 z" /></g><g
     inkscape:groupmode="layer"
     id="layer4"
     inkscape:label="Passive3"
     transform="translate(0,0.11887)"><path
       id="path9"
       style="fill:#d0aa7e;fill-opacity:1;stroke:#404040;stroke-width:0;stroke-linecap:round;stroke-dasharray:none;stroke-dashoffset:0;stroke-opacity:0;paint-order:fill markers stroke"
       d="m 67.744141,172.20312 c 13.473307,6.84701 26.946614,13.69402 40.419919,20.54102 3.03972,-9.33529 6.07943,-18.67057 9.11914,-28.00586 -14.78841,-3.2487 -29.57682,-6.49739 -44.365231,-9.74609 -4.717448,-0.0547 -9.434896,-0.10938 -14.152344,-0.16407 2.992839,5.79167 5.985677,11.58334 8.978516,17.375 z" /><path
       id="path13"
       style="fill:#d0aa7e;fill-opacity:1;stroke:#404040;stroke-width:0;stroke-linecap:round;stroke-dasharray:none;stroke-dashoffset:0;stroke-opacity:0;paint-order:fill markers stroke"
       d="M 13.964844,65.339844 C 24.179036,61.680339 34.393229,58.020833 44.607422,54.361328 34.459635,45.969401 24.311849,37.577474 14.164062,29.185547 14.097656,41.236979 14.03125,53.288411 13.964844,65.339844 Z" /><path
       id="path15"
       style="fill:#d0aa7e;fill-opacity:1;stroke:#404040;stroke-width:0;stroke-linecap:round;stroke-dasharray:none;stroke-dashoffset:0;stroke-opacity:0;paint-order:fill markers stroke"
       d="m 114.92188,76.058594 c 1.09765,0.875651 2.19531,1.751302 3.29296,2.626953 16.72331,-10.416016 33.44662,-20.832031 50.16993,-31.248047 1.19596,-1.172526 2.39192,-2.345052 3.58789,-3.517578 -7.33138,-1.600261 -14.66276,-3.200521 -21.99414,-4.800781 -11.68555,12.313151 -23.3711,24.626302 -35.05664,36.939453 z" /><path
       id="path20"
       style="fill:#d0aa7e;fill-opacity:1;stroke:#404040;stroke-width:0;stroke-linecap:round;stroke-dasharray:none;stroke-dashoffset:0;stroke-opacity:0;paint-order:fill markers stroke"
       d="m 291.03125,148.67578 c 19.86437,-2.64414 39.72229,-5.33634 59.57422,-8.07226 -11.92578,-4.72787 -23.85156,-9.45573 -35.77735,-14.1836 -7.53515,-0.26758 -15.07031,-0.53515 -22.60546,-0.80273 -0.39714,7.6862 -0.79427,15.37239 -1.19141,23.05859 z" /><path
       id="path22"
       style="fill:#d0aa7e;fill-opacity:1;stroke:#404040;stroke-width:0;stroke-linecap:round;stroke-dasharray:none;stroke-dashoffset:0;stroke-opacity:0;paint-order:fill markers stroke"
       d="m 361.28125,30.691406 c 9.85221,0.938151 19.70443,1.876302 29.55664,2.814453 0,-6.549479 0,-13.098958 0,-19.648437 -17.85872,0 -35.71745,0 -53.57617,0 8.00651,5.611328 16.01302,11.222656 24.01953,16.833984 z" /></g><g
     inkscape:groupmode="layer"
     id="layer6"
     inkscape:label="Passive4"
     transform="translate(0,0.11887)"><path
       id="path4"
       style="fill:#d6b186;fill-opacity:1;stroke:#404040;stroke-width:0;stroke-linecap:round;stroke-dasharray:none;stroke-dashoffset:0;stroke-opacity:0;paint-order:fill markers stroke"
       d="m 218.42188,152.68945 c -0.0775,6.20964 -0.15495,12.41927 -0.23243,18.62891 5.73112,-0.22982 11.46224,-0.45964 17.19336,-0.68945 -0.54492,-8.45638 -1.08984,-16.91276 -1.63476,-25.36914 -1.86784,-3.24349 -3.73568,-6.48698 -5.60352,-9.73047 -3.24088,5.72005 -6.48177,11.4401 -9.72265,17.16015 z" /><path
       id="path6"
       style="fill:#d6b186;fill-opacity:1;stroke:#404040;stroke-width:0;stroke-linecap:round;stroke-dasharray:none;stroke-dashoffset:0;stroke-opacity:0;paint-order:fill markers stroke"
       d="m 142.37695,130.55664 c 2.25,-1.86263 4.5,-3.72526 6.75,-5.58789 -3.25911,-1.44857 -6.51823,-2.89714 -9.77734,-4.3457 1.00911,3.31119 2.01823,6.62239 3.02734,9.93359 z" /><path
       id="path10"
       style="fill:#d6b186;fill-opacity:1;stroke:#404040;stroke-width:0;stroke-linecap:round;stroke-dasharray:none;stroke-dashoffset:0;stroke-opacity:0;paint-order:fill markers stroke"
       d="m 13.857422,158.4043 c 0,13.38737 0,26.77474 0,40.16211 14.856771,0 29.713542,0 44.570312,0 -3.740989,-1.89824 -7.481136,-3.79813 -11.222656,-5.69532 -6.3421,-12.286 -12.687775,-24.57017 -19.03125,-36.85547 -4.772135,0.79623 -9.544271,1.59245 -14.316406,2.38868 z" /><path
       id="path14"
       style="fill:#d6b186;fill-opacity:1;stroke:#404040;stroke-width:0;stroke-linecap:round;stroke-dasharray:none;stroke-dashoffset:0;stroke-opacity:0;paint-order:fill markers stroke"
       d="M 93.306641,58.589844 C 104.47005,46.821615 115.63346,35.053385 126.79688,23.285156 124.19857,20.142578 121.60026,17 119.00195,13.857422 c -26.748044,0 -53.496091,0 -80.244138,0 18.182943,14.910807 36.365886,29.821614 54.548829,44.732422 z" /></g></svg>
