<?xml version="1.0" encoding="UTF-8" standalone="no"?>
<!-- Created with Inkscape (http://www.inkscape.org/) -->

<svg
   width="169.97189mm"
   height="301.75809mm"
   viewBox="0 0 404.69498 718.47164"
   version="1.1"
   id="svg1"
   xml:space="preserve"
   sodipodi:docname="UpgrageOverviewPanel11.svg"
   inkscape:version="1.4.2 (f4327f4, 2025-05-13)"
   inkscape:export-filename="UpgrageOverviewPaneltest1.png"
   inkscape:export-xdpi="96"
   inkscape:export-ydpi="96"
   xmlns:inkscape="http://www.inkscape.org/namespaces/inkscape"
   xmlns:sodipodi="http://sodipodi.sourceforge.net/DTD/sodipodi-0.dtd"
   xmlns="http://www.w3.org/2000/svg"
   xmlns:svg="http://www.w3.org/2000/svg"><sodipodi:namedview
     id="namedview1"
     pagecolor="#ffffff"
     bordercolor="#000000"
     borderopacity="0.25"
     inkscape:showpageshadow="2"
     inkscape:pageopacity="0.0"
     inkscape:pagecheckerboard="0"
     inkscape:deskcolor="#d1d1d1"
     inkscape:document-units="mm"
     inkscape:zoom="1.1508788"
     inkscape:cx="149.45101"
     inkscape:cy="627.78114"
     inkscape:window-width="3840"
     inkscape:window-height="2054"
     inkscape:window-x="-11"
     inkscape:window-y="-11"
     inkscape:window-maximized="1"
     inkscape:current-layer="layer4" /><defs
     id="defs1" /><g
     inkscape:groupmode="layer"
     id="layer2"
     inkscape:label="Marker"
     transform="translate(0,0.11887)" /><g
     inkscape:groupmode="layer"
     id="layer19"
     inkscape:label="Special1"
     transform="translate(0,0.11887)"><path
       id="path95"
       style="fill:#865ccc;fill-opacity:1;stroke:#404040;stroke-width:0;stroke-linecap:round;stroke-dasharray:none;stroke-dashoffset:0;stroke-opacity:0;paint-order:fill markers stroke"
       d="m 313.66797,606.39844 c 8.3125,14.08854 16.625,28.17708 24.9375,42.26562 16.57096,-6.63932 33.14193,-13.27864 49.71289,-19.91797 0,-11.15429 0,-22.30859 0,-33.46289 -12.41732,-9.39062 -24.83464,-18.78125 -37.25195,-28.17187 -12.46615,13.0957 -24.9323,26.1914 -37.39844,39.28711 z" /><path
       id="path86"
       style="fill:#865ccc;fill-opacity:1;stroke:#404040;stroke-width:0;stroke-linecap:round;stroke-dasharray:none;stroke-dashoffset:0;stroke-opacity:0;paint-order:fill markers stroke"
       d="m 18.535156,588.97266 c 7,12.41927 14,24.83854 21,37.25781 15.376302,-8.32292 30.752604,-16.64583 46.128906,-24.96875 -3.597656,-3.95638 -7.195312,-7.91276 -10.792968,-11.86914 -16.736979,-4.25456 -33.473959,-8.50912 -50.210938,-12.76367 -2.041666,4.11458 -4.083333,8.22916 -6.125,12.34375 z" /></g><g
     inkscape:groupmode="layer"
     id="layer21"
     inkscape:label="Special3"
     transform="translate(0,0.11887)"><path
       id="path88"
       style="fill:#a381dc;fill-opacity:1;stroke:#404040;stroke-width:0;stroke-linecap:round;stroke-dasharray:none;stroke-dashoffset:0;stroke-opacity:0;paint-order:fill markers stroke"
       d="m 69.34375,647.33008 c 16.391927,7.7819 32.78385,15.5638 49.17578,23.3457 9.8138,-12.98698 19.62761,-25.97396 29.44141,-38.96094 -11.31185,-2.85546 -22.6237,-5.71093 -33.93555,-8.5664 -14.89388,8.06054 -29.78776,16.12109 -44.68164,24.18164 z" /><path
       id="path93"
       style="fill:#a381dc;fill-opacity:1;stroke:#404040;stroke-width:0;stroke-linecap:round;stroke-dasharray:none;stroke-dashoffset:0;stroke-opacity:0;paint-order:fill markers stroke"
       d="m 220.5293,619.95312 c 12.24023,9.00912 24.48047,18.01823 36.7207,27.02735 14.76693,1.13151 29.53385,2.26302 44.30078,3.39453 -6.35156,-10.76888 -12.70312,-21.53776 -19.05469,-32.30664 -22.10677,-6.15234 -44.21354,-12.30469 -66.32031,-18.45703 1.45117,6.7806 2.90234,13.5612 4.35352,20.34179 z" /></g><g
     inkscape:groupmode="layer"
     id="layer22"
     inkscape:label="Special4"
     transform="translate(0,0.11887)"><path
       id="path94"
       style="fill:#724eaf;fill-opacity:1;stroke:#404040;stroke-width:0;stroke-linecap:round;stroke-dasharray:none;stroke-dashoffset:0;stroke-opacity:0;paint-order:fill markers stroke"
       d="m 279.51758,569.40625 c -17.25523,-0.0816 -34.51097,-0.33983 -51.76563,-0.55664 20.14193,5.60677 40.28386,11.21354 60.42578,16.82031 6.10678,-6.41471 12.21355,-12.82943 18.32032,-19.24414 -8.99349,0.99349 -17.98698,1.98698 -26.98047,2.98047 z" /><path
       id="path96"
       style="fill:#724eaf;fill-opacity:1;stroke:#404040;stroke-width:0;stroke-linecap:round;stroke-dasharray:none;stroke-dashoffset:0;stroke-opacity:0;paint-order:fill markers stroke"
       d="m 285.09375,701.97656 c 34.4082,0 68.81641,0 103.22461,0 0,-12.84896 0,-25.69791 0,-38.54687 -34.4082,12.84896 -68.81641,25.69791 -103.22461,38.54687 z" /></g><g
     inkscape:groupmode="layer"
     id="layer20"
     inkscape:label="Special2"
     transform="translate(0,0.11887)"><path
       id="path87"
       style="fill:#9970df;fill-opacity:1;stroke:#404040;stroke-width:0;stroke-linecap:round;stroke-dasharray:none;stroke-dashoffset:0;stroke-opacity:0;paint-order:fill markers stroke"
       d="m 106.37695,575.35156 c 4.75847,5.23438 9.51693,10.46875 14.27539,15.70313 21.20638,5.35482 42.41276,10.70963 63.61914,16.06445 -1.45963,-6.82812 -2.91927,-13.65625 -4.3789,-20.48437 -17.09701,-11.0905 -34.19401,-22.18099 -51.29102,-33.27149 -7.4082,7.32943 -14.8164,14.65886 -22.22461,21.98828 z" /><path
       id="path89"
       style="fill:#9970df;fill-opacity:1;stroke:#404040;stroke-width:0;stroke-linecap:round;stroke-dasharray:none;stroke-dashoffset:0;stroke-opacity:0;paint-order:fill markers stroke"
       d="m 16.376953,697.2793 c 17.733724,-4.51888 35.467448,-9.03776 53.201172,-13.55664 -16.048786,-7.61988 -32.097907,-15.23906 -48.146484,-22.85938 -1.684055,-2.99136 -3.369928,-5.98169 -5.054688,-8.97266 0,15.12956 0,30.25912 0,45.38868 z" /><path
       id="path91"
       style="fill:#9970df;fill-opacity:1;stroke:#404040;stroke-width:0;stroke-linecap:round;stroke-dasharray:none;stroke-dashoffset:0;stroke-opacity:0;paint-order:fill markers stroke"
       d="m 149.75,683.7207 c 14.25651,5.45899 28.51302,10.91797 42.76953,16.37696 14.52865,-9.34375 29.05729,-18.6875 43.58594,-28.03125 -12.4707,-9.1823 -24.94141,-18.36459 -37.41211,-27.54688 -5.41211,-1.36523 -10.82422,-2.73047 -16.23633,-4.0957 -10.90234,14.43229 -21.80469,28.86458 -32.70703,43.29687 z" /></g><g
     inkscape:groupmode="layer"
     id="layer15"
     inkscape:label="Active1"
     transform="translate(0,0.11887)"><path
       id="path82"
       style="fill:#d67965;fill-opacity:1;stroke:#404040;stroke-width:0;stroke-linecap:round;stroke-dasharray:none;stroke-dashoffset:0;stroke-opacity:0;paint-order:fill markers stroke"
       d="m 378.58984,479.49023 c -9.3763,15.35938 -18.7526,30.71875 -28.1289,46.07813 12.61914,9.55208 25.23828,19.10417 37.85742,28.65625 0,-26.64779 0,-53.29557 0,-79.94336 -3.24284,1.73633 -6.48568,3.47266 -9.72852,5.20898 z" /><path
       id="path80"
       style="fill:#d67965;fill-opacity:1;stroke:#404040;stroke-width:0;stroke-linecap:round;stroke-dasharray:none;stroke-dashoffset:0;stroke-opacity:0;paint-order:fill markers stroke"
       d="m 213.03125,470.80273 c -4.22823,2.8847 -9.76255,3.13204 -14.58008,1.78711 -3.78646,-0.77604 -7.57291,-1.55208 -11.35937,-2.32812 -2.79362,4.23568 -5.58724,8.47135 -8.38086,12.70703 10.98958,3.3724 21.97916,6.74479 32.96875,10.11719 12.79232,-10.31055 25.58463,-20.6211 38.37695,-30.93164 -3.99609,-2.26433 -7.99219,-4.52865 -11.98828,-6.79297 -8.3457,5.14713 -16.69141,10.29427 -25.03711,15.4414 z" /></g><g
     inkscape:groupmode="layer"
     id="layer16"
     inkscape:label="Active2"
     transform="translate(0,0.11887)"><path
       id="path78"
       style="fill:#e58f7d;fill-opacity:1;stroke:#404040;stroke-width:0;stroke-linecap:round;stroke-dasharray:none;stroke-dashoffset:0;stroke-opacity:0;paint-order:fill markers stroke"
       d="m 39.552734,546.63281 c 7.835287,1.99089 15.670573,3.98177 23.50586,5.97266 -7.626953,-2.41016 -15.253907,-4.82031 -22.88086,-7.23047 -0.208333,0.41927 -0.416666,0.83854 -0.625,1.25781 z" /><path
       id="path83"
       style="fill:#e58f7d;fill-opacity:1;stroke:#404040;stroke-width:0;stroke-linecap:round;stroke-dasharray:none;stroke-dashoffset:0;stroke-opacity:0;paint-order:fill markers stroke"
       d="m 297.21289,534.5 c 0.61399,-0.0682 1.63037,-0.0758 0.50993,-0.40498 -0.53847,-0.34277 -0.41886,-0.0617 -0.50993,0.40498 z" /></g><g
     inkscape:groupmode="layer"
     id="layer18"
     inkscape:label="Active4"
     transform="translate(0,0.11887)"><path
       id="path84"
       style="fill:#ce6954;fill-opacity:1;stroke:#404040;stroke-width:0;stroke-linecap:round;stroke-dasharray:none;stroke-dashoffset:0;stroke-opacity:0;paint-order:fill markers stroke"
       d="m 230.21484,520.20312 c -0.95117,5.29558 -1.90234,10.59115 -2.85351,15.88672 12.12956,0.16211 24.25911,0.32422 36.38867,0.48633 0.84245,-5.36914 1.6849,-10.73828 2.52734,-16.10742 -7.88411,-3.41862 -15.76823,-6.83724 -23.65234,-10.25586 -4.13672,3.33008 -8.27344,6.66016 -12.41016,9.99023 z" /><path
       id="path79"
       style="fill:#ce6954;fill-opacity:1;stroke:#404040;stroke-width:0;stroke-linecap:round;stroke-dasharray:none;stroke-dashoffset:0;stroke-opacity:0;paint-order:fill markers stroke"
       d="m 118.95117,465.3457 c 1.57883,1.97522 3.15722,3.95079 4.73633,5.92578 -0.23857,7.98439 -0.47793,15.96875 -0.7168,23.95313 1.34636,2.21549 2.69271,4.43099 4.03907,6.64648 8.51627,-12.90429 17.03255,-25.80859 25.54882,-38.71289 -1.86,-0.38228 -3.72021,-0.76354 -5.58007,-1.14648 -1.94238,-1.88315 -3.88547,-3.76557 -5.82813,-5.64844 -7.39974,2.99414 -14.79948,5.98828 -22.19922,8.98242 z" /></g><g
     inkscape:groupmode="layer"
     id="layer17"
     inkscape:label="Active3"
     transform="translate(0,0.11887)"><path
       id="path76"
       style="fill:#e3a395;fill-opacity:1;stroke:#404040;stroke-width:0;stroke-linecap:round;stroke-dasharray:none;stroke-dashoffset:0;stroke-opacity:0;paint-order:fill markers stroke"
       d="m 22.902344,474.30469 c 6.707682,12.54362 13.415364,25.08724 20.123047,37.63086 12.343099,3.90039 24.686198,7.80078 37.029297,11.70117 3.174479,-2.9043 6.348958,-5.8086 9.523437,-8.71289 0.333333,-10.86068 0.666667,-21.72136 1,-32.58203 -3.09375,-3.86719 -6.1875,-7.73438 -9.28125,-11.60157 -6.677734,-4.24804 -13.355469,-8.49609 -20.033203,-12.74414 -12.787109,5.4362 -25.574219,10.8724 -38.361328,16.3086 z" /><path
       id="path81"
       style="fill:#e3a395;fill-opacity:1;stroke:#404040;stroke-width:0;stroke-linecap:round;stroke-dasharray:none;stroke-dashoffset:0;stroke-opacity:0;paint-order:fill markers stroke"
       d="m 286.78711,474.62109 c -5.11458,4.12045 -10.22917,8.24089 -15.34375,12.36133 16.91536,7.33334 33.83073,14.66667 50.74609,22 7.08008,-11.60612 14.16016,-23.21224 21.24024,-34.81836 -6.90755,-3.26367 -13.81511,-6.52734 -20.72266,-9.79101 -11.97331,3.41601 -23.94661,6.83203 -35.91992,10.24804 z" /><path
       id="path85"
       style="fill:#e3a395;fill-opacity:1;stroke:#404040;stroke-width:0;stroke-linecap:round;stroke-dasharray:none;stroke-dashoffset:0;stroke-opacity:0;paint-order:fill markers stroke"
       d="m 149.19336,527.6875 c 13.13216,8.51888 26.26432,17.03776 39.39648,25.55664 1.25786,-2.33831 2.61977,-4.5763 3.66419,-6.96951 1.41402,-7.86108 2.82804,-15.72215 4.24206,-23.58322 -12.19791,-3.7448 -24.39583,-7.48959 -36.59375,-11.23438 -3.56966,5.41016 -7.13932,10.82031 -10.70898,16.23047 z" /></g><g
     inkscape:groupmode="layer"
     id="layer11"
     inkscape:label="Synergy1"
     transform="translate(0,0.11887)"><path
       id="path63"
       style="fill:#85b8e4;fill-opacity:1;stroke:#404040;stroke-width:0;stroke-linecap:round;stroke-dasharray:none;stroke-dashoffset:0;stroke-opacity:0;paint-order:fill markers stroke"
       d="m 79.875,357.5918 c -0.364784,0.21924 -0.598264,1.22111 0,1.24023 0.348243,-0.15256 1.119674,-0.4809 0.869141,-0.98242 -0.199715,-0.25879 -0.561829,-0.35178 -0.869141,-0.25781 z" /><path
       id="path65"
       style="fill:#85b8e4;fill-opacity:1;stroke:#404040;stroke-width:0;stroke-linecap:round;stroke-dasharray:none;stroke-dashoffset:0;stroke-opacity:0;paint-order:fill markers stroke"
       d="m 165.08789,328.23828 c 2.30534,6.62956 4.61068,13.25912 6.91602,19.88867 1.82682,-0.33724 3.65364,-0.67448 5.48047,-1.01172 -3.58724,-6.81119 -7.17448,-13.62239 -10.76172,-20.43359 -0.54493,0.51888 -1.08985,1.03776 -1.63477,1.55664 z" /><path
       id="path69"
       style="fill:#85b8e4;fill-opacity:1;stroke:#404040;stroke-width:0;stroke-linecap:round;stroke-dasharray:none;stroke-dashoffset:0;stroke-opacity:0;paint-order:fill markers stroke"
       d="m 314.7168,387.21875 c -0.13614,0.71293 0.0699,1.20693 0.81956,1.35306 6.13697,2.86213 12.27394,5.72426 18.41091,8.58639 3.89388,-5.85872 7.78776,-11.71744 11.68164,-17.57617 -10.30404,2.54557 -20.60808,5.09115 -30.91211,7.63672 z" /><path
       id="path71"
       style="fill:#85b8e4;fill-opacity:1;stroke:#404040;stroke-width:0;stroke-linecap:round;stroke-dasharray:none;stroke-dashoffset:0;stroke-opacity:0;paint-order:fill markers stroke"
       d="m 221.66797,426.99609 c 1,-0.61588 2,-1.23177 3,-1.84765 -0.97461,-0.0488 -1.94922,-0.0977 -2.92383,-0.14649 -0.0254,0.66472 -0.0508,1.32943 -0.0762,1.99414 z m 59.5332,15.17579 c 2.01172,-0.57422 4.02344,-1.14844 6.03516,-1.72266 -6.03125,-4.36328 -12.0625,-8.72656 -18.09375,-13.08984 -5.14323,-0.25521 -10.28646,-0.51042 -15.42969,-0.76563 9.16276,5.19271 18.32552,10.38542 27.48828,15.57813 z" /><path
       id="path75"
       style="fill:#85b8e4;fill-opacity:1;stroke:#404040;stroke-width:0;stroke-linecap:round;stroke-dasharray:none;stroke-dashoffset:0;stroke-opacity:0;paint-order:fill markers stroke"
       d="m 16.376953,441.47461 c 3.768229,-1.60221 7.536458,-3.20443 11.304688,-4.80664 -3.5242,-2.23811 -7.04748,-4.47766 -10.572266,-6.71485 -0.241359,-5.5841 -0.488733,-11.16794 -0.732422,-16.75195 0,9.42448 0,18.84896 0,28.27344 z" /></g><g
     inkscape:groupmode="layer"
     id="layer14"
     inkscape:label="Synergy4"
     transform="translate(0,0.11887)"><path
       id="path64"
       style="fill:#acd0ef;fill-opacity:1;stroke:#404040;stroke-width:0;stroke-linecap:round;stroke-dasharray:none;stroke-dashoffset:0;stroke-opacity:0;paint-order:fill markers stroke"
       d="m 48.339844,394.7832 c 3.830078,-1.91471 7.660156,-3.82942 11.490234,-5.74414 -3.986466,-1.76456 -7.982403,-3.50768 -11.972656,-5.26367 0.160807,3.66927 0.321614,7.33854 0.482422,11.00781 z" /><path
       id="path67"
       style="fill:#acd0ef;fill-opacity:1;stroke:#404040;stroke-width:0;stroke-linecap:round;stroke-dasharray:none;stroke-dashoffset:0;stroke-opacity:0;paint-order:fill markers stroke"
       d="m 257,368.92188 c -9.52344,7.87955 -19.04687,15.75911 -28.57031,23.63867 17.84961,0.88672 35.69922,1.77343 53.54883,2.66015 -0.0319,-11.80924 -0.0638,-23.61849 -0.0957,-35.42773 -8.29427,3.04297 -16.58854,6.08594 -24.88281,9.12891 z" /></g><g
     inkscape:groupmode="layer"
     id="layer12"
     inkscape:label="Synergy2"
     transform="translate(0,0.11887)"><path
       id="path73"
       style="fill:#94c4ed;fill-opacity:1;stroke:#404040;stroke-width:0;stroke-linecap:round;stroke-dasharray:none;stroke-dashoffset:0;stroke-opacity:0;paint-order:fill markers stroke"
       d="m 134.38867,388.375 c -3.59049,1.79557 -7.18099,3.59115 -10.77148,5.38672 13.10221,12.69531 26.20442,25.39062 39.30664,38.08594 8.52278,1.75195 17.04557,3.5039 25.56836,5.25586 0.29687,-7.93099 0.59375,-15.86198 0.89062,-23.79297 -8.1608,-10.19076 -16.32161,-20.38151 -24.48242,-30.57227 -10.17057,1.87891 -20.34115,3.75781 -30.51172,5.63672 z" /><path
       id="path62"
       style="fill:#94c4ed;fill-opacity:1;stroke:#404040;stroke-width:0;stroke-linecap:round;stroke-dasharray:none;stroke-dashoffset:0;stroke-opacity:0;paint-order:fill markers stroke"
       d="m 16.376953,348.27539 c 3.886065,-3.00391 7.772155,-6.00779 11.658203,-9.01172 7.256193,3.18739 14.511664,6.37643 21.767578,9.56445 -0.190824,-0.66293 -0.190965,-1.46759 -0.496245,-2.04546 -10.976512,-5.91193 -21.953024,-11.82386 -32.929536,-17.73578 0,6.4095 0,12.81901 0,19.22851 z" /><path
       id="path70"
       style="fill:#acd0ef;fill-opacity:1;stroke:#404040;stroke-width:0;stroke-linecap:round;stroke-dasharray:none;stroke-dashoffset:0;stroke-opacity:0;paint-order:fill markers stroke"
       d="m 353.9043,426.30664 c -2.37565,4.403 -4.75131,8.80599 -7.12696,13.20898 6.56055,3.10092 13.1211,6.20183 19.68164,9.30274 7.28646,-3.89974 14.57292,-7.79948 21.85938,-11.69922 0,-19.03971 0,-38.07943 0,-57.11914 -0.7806,-0.66406 -1.5612,-1.32812 -2.3418,-1.99219 -10.69075,16.09961 -21.38151,32.19922 -32.07226,48.29883 z" /></g><g
     inkscape:groupmode="layer"
     id="layer13"
     inkscape:label="Synergy3"
     transform="translate(0,0.11887)"><path
       id="path66"
       style="fill:#74a4ce;fill-opacity:1;stroke:#404040;stroke-width:0;stroke-linecap:round;stroke-dasharray:none;stroke-dashoffset:0;stroke-opacity:0;paint-order:fill markers stroke"
       d="m 221.0293,356.19141 c 4.65234,-3.84766 9.30468,-7.69532 13.95703,-11.54297 -0.34901,-0.19517 -1.21859,-0.0286 -1.76875,-0.084 -2.57513,0 -5.15026,0 -7.72539,0 -1.48763,3.87565 -2.97526,7.75131 -4.46289,11.62696 z m -21.73828,18.07226 c -0.32847,0.26375 -0.39689,1.26305 0.11408,1.42878 0.40102,0.46344 0.97277,-0.68645 0.86928,-0.99978 -0.20075,-0.3236 -0.6151,-0.48047 -0.98336,-0.429 z" /><path
       id="path68"
       style="fill:#74a4ce;fill-opacity:1;stroke:#404040;stroke-width:0;stroke-linecap:round;stroke-dasharray:none;stroke-dashoffset:0;stroke-opacity:0;paint-order:fill markers stroke"
       d="m 337.4082,337.32422 c -5.25795,3.04899 -10.49737,6.28248 -16.3404,8.10056 -2.15346,0.7894 -4.30692,1.57879 -6.46038,2.36819 0.006,1.90234 0.0117,3.80469 0.0176,5.70703 16.28646,-4.02734 32.57292,-8.05469 48.85938,-12.08203 -8.50017,-1.47132 -16.99907,-2.9495 -25.49805,-4.42774 -0.19271,0.11133 -0.38542,0.22266 -0.57813,0.33399 z" /><path
       id="path74"
       style="fill:#74a4ce;fill-opacity:1;stroke:#404040;stroke-width:0;stroke-linecap:round;stroke-dasharray:none;stroke-dashoffset:0;stroke-opacity:0;paint-order:fill markers stroke"
       d="m 66.294922,422.41211 c 9.257812,5.88867 18.515625,11.77734 27.773437,17.66601 7.272791,-2.94531 14.545571,-5.89062 21.818361,-8.83593 -7.44531,-7.48438 -14.89063,-14.96875 -22.335939,-22.45313 -9.085286,4.54102 -18.170573,9.08203 -27.255859,13.62305 z" /></g><g
     inkscape:groupmode="layer"
     id="layer7"
     inkscape:label="Bodymod1"
     transform="translate(0,0.11887)"><path
       id="path47"
       style="fill:#9fc88c;fill-opacity:1;stroke:#404040;stroke-width:0;stroke-linecap:round;stroke-dasharray:none;stroke-dashoffset:0;stroke-opacity:0;paint-order:fill markers stroke"
       d="m 191.73633,210.55859 c 3.76627,9.52735 7.53255,19.05469 11.29883,28.58203 8.17448,-4.26692 16.34895,-8.53385 24.52343,-12.80078 -8.50586,-7.02799 -17.01171,-14.05599 -25.51757,-21.08398 -3.4349,1.76758 -6.8698,3.53516 -10.30469,5.30273 z" /><path
       id="path55"
       style="fill:#9fc88c;fill-opacity:1;stroke:#404040;stroke-width:0;stroke-linecap:round;stroke-dasharray:none;stroke-dashoffset:0;stroke-opacity:0;paint-order:fill markers stroke"
       d="m 76.341797,271.25391 c 1.71875,5.27669 3.4375,10.55338 5.15625,15.83007 13.038411,-3.70768 26.076823,-7.41536 39.115233,-11.12304 -10.64583,-6.41211 -21.291665,-12.82422 -31.937499,-19.23633 -4.111328,4.8431 -8.222656,9.6862 -12.333984,14.5293 z" /><path
       id="path59"
       style="fill:#9fc88c;fill-opacity:1;stroke:#404040;stroke-width:0;stroke-linecap:round;stroke-dasharray:none;stroke-dashoffset:0;stroke-opacity:0;paint-order:fill markers stroke"
       d="m 238.06055,311.81055 c 3.13476,0 6.26953,0 9.40429,0 1.59701,-4.19401 3.19401,-8.38802 4.79102,-12.58203 -3.10221,-0.0501 -6.20443,-0.10026 -9.30664,-0.1504 -1.62956,4.24415 -3.25912,8.48829 -4.88867,12.73243 z" /></g><g
     inkscape:groupmode="layer"
     id="layer8"
     inkscape:label="Bodymod2"
     transform="translate(0,0.11887)"><path
       id="path48"
       style="fill:#a6d68e;fill-opacity:1;stroke:#404040;stroke-width:0;stroke-linecap:round;stroke-dasharray:none;stroke-dashoffset:0;stroke-opacity:0;paint-order:fill markers stroke"
       d="m 271.60742,216.33594 c 10.45638,2.75781 20.91276,5.51562 31.36914,8.27344 -2.41471,-5.38607 -4.82942,-10.77214 -7.24414,-16.15821 -8.66797,-1.5 -17.33594,-3 -26.0039,-4.5 0.6263,4.12826 1.2526,8.25651 1.8789,12.38477 z" /><path
       id="path50"
       style="fill:#a6d68e;fill-opacity:1;stroke:#404040;stroke-width:0;stroke-linecap:round;stroke-dasharray:none;stroke-dashoffset:0;stroke-opacity:0;paint-order:fill markers stroke"
       d="m 302.15625,286.47461 c 7.01237,7.07096 14.02474,14.14193 21.03711,21.21289 14.87825,-8.59049 29.75651,-17.18099 44.63476,-25.77148 -11.48697,-4.79167 -22.97395,-9.58334 -34.46093,-14.375 -10.40365,6.31119 -20.80729,12.62239 -31.21094,18.93359 z" /><path
       id="path52"
       style="fill:#a6d68e;fill-opacity:1;stroke:#404040;stroke-width:0;stroke-linecap:round;stroke-dasharray:none;stroke-dashoffset:0;stroke-opacity:0;paint-order:fill markers stroke"
       d="m 119.17188,228.54688 c -4.44096,0.20499 -8.89172,0.2148 -13.3379,0.24414 18.56836,11.18684 37.13672,22.37369 55.70508,33.56054 4.18425,-2.44271 8.36849,-4.88541 12.55274,-7.32812 -4.45573,-11.27018 -8.91146,-22.54037 -13.36719,-33.81055 -13.85091,2.44466 -27.70182,4.88932 -41.55273,7.33399 z" /><path
       id="path54"
       style="fill:#a6d68e;fill-opacity:1;stroke:#404040;stroke-width:0;stroke-linecap:round;stroke-dasharray:none;stroke-dashoffset:0;stroke-opacity:0;paint-order:fill markers stroke"
       d="m 16.376953,291.84961 c 13.026693,7.01302 26.053386,14.02604 39.080078,21.03906 -3.355468,-10.30599 -6.710937,-20.61198 -10.066406,-30.91797 -9.671224,-1.76432 -19.342448,-3.52864 -29.013672,-5.29297 0,5.0573 0,10.11459 0,15.17188 z" /><path
       id="path57"
       style="fill:#a6d68e;fill-opacity:1;stroke:#404040;stroke-width:0;stroke-linecap:round;stroke-dasharray:none;stroke-dashoffset:0;stroke-opacity:0;paint-order:fill markers stroke"
       d="m 200.01172,319.56641 c 2.69206,-7.01563 5.38411,-14.03125 8.07617,-21.04688 -6.44206,-0.10351 -12.88411,-0.20703 -19.32617,-0.31055 3.75,7.11915 7.5,14.23829 11.25,21.35743 z" /></g><g
     inkscape:groupmode="layer"
     id="layer9"
     inkscape:label="Bodymod3"
     transform="translate(0,0.11887)"><path
       id="path53"
       style="fill:#b2e09d;fill-opacity:1;stroke:#404040;stroke-width:0;stroke-linecap:round;stroke-dasharray:none;stroke-dashoffset:0;stroke-opacity:0;paint-order:fill markers stroke"
       d="m 16.376953,243.35742 c 11.727865,2.13932 23.455729,4.27865 35.183594,6.41797 2.886719,-3.39844 5.773437,-6.79687 8.660156,-10.19531 -5.962239,-3.5931 -11.924479,-7.1862 -17.886719,-10.7793 -8.652343,0 -17.304687,0 -25.957031,0 0,4.85221 0,9.70443 0,14.55664 z" /><path
       id="path51"
       style="fill:#b2e09d;fill-opacity:1;stroke:#404040;stroke-width:0;stroke-linecap:round;stroke-dasharray:none;stroke-dashoffset:0;stroke-opacity:0;paint-order:fill markers stroke"
       d="m 222.42773,265.99219 c 16.31836,0.26237 32.63672,0.52474 48.95508,0.78711 6.36068,-3.85938 12.72136,-7.71875 19.08203,-11.57813 -10.49349,-2.76497 -20.98698,-5.52995 -31.48046,-8.29492 -12.18555,6.36198 -24.3711,12.72396 -36.55665,19.08594 z" /><path
       id="path56"
       style="fill:#b2e09d;fill-opacity:1;stroke:#404040;stroke-width:0;stroke-linecap:round;stroke-dasharray:none;stroke-dashoffset:0;stroke-opacity:0;paint-order:fill markers stroke"
       d="m 112.23242,312.37305 c 5.3086,3.10156 10.61719,6.20312 15.92578,9.30468 -1.45768,-4.19661 -2.91536,-8.39322 -4.37304,-12.58984 -3.85092,1.09505 -7.70183,2.1901 -11.55274,3.28516 z" /></g><g
     inkscape:groupmode="layer"
     id="layer10"
     inkscape:label="Bodymod4"
     transform="translate(0,0.11887)"><path
       id="path49"
       style="fill:#90b57f;fill-opacity:1;stroke:#404040;stroke-width:0;stroke-linecap:round;stroke-dasharray:none;stroke-dashoffset:0;stroke-opacity:0;paint-order:fill markers stroke"
       d="m 338.4082,211.56641 c -1.36155,0.91064 -2.88458,1.56839 -4.4707,1.97265 3.44922,7.69206 6.89844,15.38412 10.34766,23.07617 14.67773,6.1224 29.35546,12.2448 44.0332,18.36719 0,-12.15495 0,-24.30989 0,-36.46484 -6.91732,-8.03972 -13.83464,-16.07943 -20.75195,-24.11914 -9.7194,5.72265 -19.43881,11.44531 -29.15821,17.16797 z" /><path
       id="path58"
       style="fill:#90b57f;fill-opacity:1;stroke:#404040;stroke-width:0;stroke-linecap:round;stroke-dasharray:none;stroke-dashoffset:0;stroke-opacity:0;paint-order:fill markers stroke"
       d="m 276.84375,326.73633 c 4.67578,-1.71615 9.35156,-3.43229 14.02734,-5.14844 -2.90755,-2.92904 -5.8151,-5.85807 -8.72265,-8.78711 -1.76823,4.64518 -3.53646,9.29037 -5.30469,13.93555 z" /><path
       id="path60"
       style="fill:#90b57f;fill-opacity:1;stroke:#404040;stroke-width:0;stroke-linecap:round;stroke-dasharray:none;stroke-dashoffset:0;stroke-opacity:0;paint-order:fill markers stroke"
       d="m 152.37695,298.17578 c -0.6444,-0.0104 -0.23103,0.87973 0.15235,0.32422 0.19379,-0.18692 0.16658,-0.41724 -0.15235,-0.32422 z" /></g><g
     inkscape:label="Passive1"
     inkscape:groupmode="layer"
     id="layer1"
     transform="translate(83.28501,206.63068)"><path
       id="path24"
       style="fill:#e2b584;fill-opacity:1;stroke:#404040;stroke-width:0;stroke-linecap:round;stroke-dasharray:none;stroke-dashoffset:0;stroke-opacity:0;paint-order:fill markers stroke"
       d="m 303.20703,-40.333984 c 0.60873,0.70638 1.21745,1.41276 1.82617,2.11914 0,-0.791015 0,-1.582031 0,-2.373047 -0.60872,0.08464 -1.21744,0.169271 -1.82617,0.253907 z" /><path
       id="path12"
       style="fill:#e2b584;fill-opacity:1;stroke:#404040;stroke-width:0;stroke-linecap:round;stroke-dasharray:none;stroke-dashoffset:0;stroke-opacity:0;paint-order:fill markers stroke"
       d="m -49.185547,-116.26953 c 12.835938,9.66732 25.671875,19.334634 38.507813,29.001952 6.8736975,-7.319011 13.7473955,-14.638022 20.6210934,-21.957032 -8.061849,-6.51953 -16.1236979,-13.03906 -24.1855474,-19.55859 -11.647786,4.17122 -23.295572,8.34244 -34.943359,12.51367 z" /><path
       id="path5"
       style="fill:#e2b584;fill-opacity:1;stroke:#404040;stroke-width:0;stroke-linecap:round;stroke-dasharray:none;stroke-dashoffset:0;stroke-opacity:0;paint-order:fill markers stroke"
       d="m 57.046875,-14.953125 c 0.505459,-0.151669 1.441794,-0.131969 1.682596,-0.388899 -0.360344,-0.485601 -0.720689,-0.971203 -1.081033,-1.456804 -0.200521,0.615234 -0.401042,1.230469 -0.601563,1.845703 z" /><path
       id="path16"
       style="fill:#e2b584;fill-opacity:1;stroke:#404040;stroke-width:0;stroke-linecap:round;stroke-dasharray:none;stroke-dashoffset:0;stroke-opacity:0;paint-order:fill markers stroke"
       d="m 109.43164,-188.98242 c 4.83097,1.0977 9.68022,2.13053 14.47154,3.39163 8.23214,2.45735 16.46428,4.91469 24.69643,7.37204 4.95573,-3.97201 9.91146,-7.94401 14.86719,-11.91602 -19.75586,0 -39.51172,0 -59.26758,0 1.74414,0.38412 3.48828,0.76823 5.23242,1.15235 z" /><path
       id="path17"
       style="fill:#e2b584;fill-opacity:1;stroke:#404040;stroke-width:0;stroke-linecap:round;stroke-dasharray:none;stroke-dashoffset:0;stroke-opacity:0;paint-order:fill markers stroke"
       d="m 117.24805,-148.21094 c 13.52559,13.03625 27.04958,26.07417 40.57617,39.10938 6.31706,10.985766 12.63693,21.969926 18.95508,32.955076 0.52799,0.427734 1.05599,0.855468 1.58398,1.283203 0.27214,-5.251953 0.54427,-10.503907 0.81641,-15.75586 -12.45313,-18.479169 -24.90625,-36.958329 -37.35938,-55.437499 -6.83854,-2.04427 -13.67708,-4.08854 -20.51562,-6.13281 -1.35222,1.32617 -2.70443,2.65234 -4.05664,3.97851 z" /><path
       id="path21"
       style="fill:#e2b584;fill-opacity:1;stroke:#404040;stroke-width:0;stroke-linecap:round;stroke-dasharray:none;stroke-dashoffset:0;stroke-opacity:0;paint-order:fill markers stroke"
       d="m 257.91797,-102.17578 c 15.70508,6.22591 31.41016,12.451822 47.11523,18.677733 0,-19.792313 0,-39.584633 0,-59.376953 -7.64648,-0.72656 -15.29297,-1.45313 -22.93945,-2.17969 -8.05859,14.29297 -16.11719,28.58594 -24.17578,42.87891 z" /></g><g
     inkscape:groupmode="layer"
     id="layer3"
     inkscape:label="Passive2"
     transform="translate(0,0.11887)"><path
       id="path1"
       style="fill:#e2bf97;fill-opacity:1;stroke:#404040;stroke-width:0;stroke-linecap:round;stroke-opacity:0;paint-order:fill markers stroke"
       d="m 157.59961,157.18164 c 6.10612,8.22201 12.21224,16.44401 18.31836,24.66602 3.99349,-2.05339 7.98698,-4.10677 11.98047,-6.16016 0.0807,-6.56771 0.16146,-13.13542 0.24218,-19.70312 -4.54817,-4.26303 -9.09635,-8.52605 -13.64453,-12.78907 -5.63216,4.66211 -11.26432,9.32422 -16.89648,13.98633 z" /><path
       id="path7"
       style="fill:#e2bf97;fill-opacity:1;stroke:#404040;stroke-width:0;stroke-linecap:round;stroke-dasharray:none;stroke-dashoffset:0;stroke-opacity:0;paint-order:fill markers stroke"
       d="m 152.12109,93.220703 c 8.15495,3.624349 16.3099,7.248697 24.46485,10.873047 6.36067,-1.66081 12.72135,-3.32161 19.08203,-4.982422 -6.9349,-6.683594 -13.86979,-13.367187 -20.80469,-20.050781 -7.58073,4.720052 -15.16146,9.440104 -22.74219,14.160156 z" /><path
       id="path8"
       style="fill:#e2bf97;fill-opacity:1;stroke:#404040;stroke-width:0;stroke-linecap:round;stroke-dasharray:none;stroke-dashoffset:0;stroke-opacity:0;paint-order:fill markers stroke"
       d="m 106.17383,131.35547 c 1.72982,0.38021 3.45963,0.76042 5.18945,1.14062 -0.51107,-1.67773 -1.02213,-3.35547 -1.5332,-5.0332 -1.21875,1.29753 -2.4375,2.59505 -3.65625,3.89258 z" /><path
       id="path18"
       style="fill:#e2bf97;fill-opacity:1;stroke:#404040;stroke-width:0;stroke-linecap:round;stroke-dasharray:none;stroke-dashoffset:0;stroke-opacity:0;paint-order:fill markers stroke"
       d="m 257.41211,49.791016 c 10.19857,15.135416 20.39713,30.270833 30.5957,45.40625 6.77995,0.239583 13.5599,0.479166 20.33985,0.71875 8.81185,-15.633464 17.62369,-31.266927 26.43554,-46.900391 -13.59179,-9.522135 -27.18359,-19.044271 -40.77539,-28.566406 -12.19857,9.780599 -24.39713,19.561198 -36.5957,29.341797 z" /><path
       id="path19"
       style="fill:#e2bf97;fill-opacity:1;stroke:#404040;stroke-width:0;stroke-linecap:round;stroke-dasharray:none;stroke-dashoffset:0;stroke-opacity:0;paint-order:fill markers stroke"
       d="m 263.19922,171.9707 c 0.36178,0.88316 0.59021,-0.37366 0,0 z m 43.53125,5.12305 c 0.63672,0.11003 1.27344,0.22005 1.91015,0.33008 0.0858,-0.91603 -0.85451,-0.38304 -1.40796,-0.39634 -0.1674,0.0221 -0.3348,0.0442 -0.50219,0.0663 z" /><path
       id="path11"
       style="fill:#e2bf97;fill-opacity:1;stroke:#404040;stroke-width:0;stroke-linecap:round;stroke-dasharray:none;stroke-dashoffset:0;stroke-opacity:0;paint-order:fill markers stroke"
       d="m 16.376953,127.3457 c 3.430726,-0.5723 6.857358,-1.16104 10.292969,-1.70117 -3.43099,-2.58398 -6.861979,-5.16797 -10.292969,-7.75195 0,3.15104 0,6.30208 0,9.45312 z" /></g><g
     inkscape:groupmode="layer"
     id="layer4"
     inkscape:label="Passive3"
     transform="translate(0,0.11887)"><path
       id="path9"
       style="fill:#d0aa7e;fill-opacity:1;stroke:#404040;stroke-width:0;stroke-linecap:round;stroke-dasharray:none;stroke-dashoffset:0;stroke-opacity:0;paint-order:fill markers stroke"
       d="m 69.611328,170.32422 c 12.35612,6.2806 24.71224,12.5612 37.068362,18.8418 2.44922,-7.52149 4.89843,-15.04297 7.34765,-22.56446 -13.79817,-3.03125 -27.59635,-6.0625 -41.394528,-9.09375 -3.234374,-0.0378 -6.46875,-0.0755 -9.703124,-0.11328 2.227213,4.3099 4.454427,8.61979 6.68164,12.92969 z" /><path
       id="path13"
       style="fill:#d0aa7e;fill-opacity:1;stroke:#404040;stroke-width:0;stroke-linecap:round;stroke-dasharray:none;stroke-dashoffset:0;stroke-opacity:0;paint-order:fill markers stroke"
       d="M 16.503906,61.753906 C 24.19987,58.996745 31.895833,56.239583 39.591797,53.482422 31.945964,47.159505 24.30013,40.836589 16.654297,34.513672 16.604167,43.59375 16.554036,52.673828 16.503906,61.753906 Z" /><path
       id="path15"
       style="fill:#d0aa7e;fill-opacity:1;stroke:#404040;stroke-width:0;stroke-linecap:round;stroke-dasharray:none;stroke-dashoffset:0;stroke-opacity:0;paint-order:fill markers stroke"
       d="m 119.45703,74.939453 c 15.78581,-9.83138 31.57162,-19.66276 47.35742,-29.494141 -0.27855,-0.23238 -1.17943,-0.282222 -1.69809,-0.444173 -4.7621,-1.038791 -9.52419,-2.077582 -14.28628,-3.116373 -10.45768,11.018229 -20.91537,22.036458 -31.37305,33.054687 z" /><path
       id="path20"
       style="fill:#d0aa7e;fill-opacity:1;stroke:#404040;stroke-width:0;stroke-linecap:round;stroke-dasharray:none;stroke-dashoffset:0;stroke-opacity:0;paint-order:fill markers stroke"
       d="m 293.70312,145.77734 c 15.68574,-2.10194 31.3696,-4.21729 47.04883,-6.36718 -8.81575,-3.49545 -17.63151,-6.99089 -26.44726,-10.48633 -6.56511,-0.23307 -13.13021,-0.46615 -19.69531,-0.69922 -0.30209,5.85091 -0.60417,11.70182 -0.90626,17.55273 z" /><path
       id="path22"
       style="fill:#d0aa7e;fill-opacity:1;stroke:#404040;stroke-width:0;stroke-linecap:round;stroke-dasharray:none;stroke-dashoffset:0;stroke-opacity:0;paint-order:fill markers stroke"
       d="m 362.17969,28.246094 c 8.71289,0.830078 17.42578,1.660156 26.13867,2.490234 0,-4.786458 0,-9.572917 0,-14.359375 -14.35742,0 -28.71484,0 -43.07227,0 5.64453,3.95638 11.28907,7.912761 16.9336,11.869141 z" /></g><g
     inkscape:groupmode="layer"
     id="layer6"
     inkscape:label="Passive4"
     transform="translate(0,0.11887)"><path
       id="path4"
       style="fill:#d6b186;fill-opacity:1;stroke:#404040;stroke-width:0;stroke-linecap:round;stroke-dasharray:none;stroke-dashoffset:0;stroke-opacity:0;paint-order:fill markers stroke"
       d="m 220.93359,153.36523 c -0.0638,5.10938 -0.1276,10.21875 -0.1914,15.32813 3.98633,-0.16016 7.97265,-0.32031 11.95898,-0.48047 -0.47656,-7.40234 -0.95312,-14.80469 -1.42969,-22.20703 -1.03645,-1.79948 -2.07291,-3.59896 -3.10937,-5.39844 -2.40951,4.25261 -4.81901,8.50521 -7.22852,12.75781 z" /><path
       id="path6"
       style="fill:#d6b186;fill-opacity:1;stroke:#404040;stroke-width:0;stroke-linecap:round;stroke-dasharray:none;stroke-dashoffset:0;stroke-opacity:0;paint-order:fill markers stroke"
       d="m 143.68555,126.20508 c 0.76138,-0.42809 0.75087,-0.74903 -0.11761,-0.95088 -0.4763,-0.39321 0.16702,0.83781 0.11761,0.95088 z" /><path
       id="path10"
       style="fill:#d6b186;fill-opacity:1;stroke:#404040;stroke-width:0;stroke-linecap:round;stroke-dasharray:none;stroke-dashoffset:0;stroke-opacity:0;paint-order:fill markers stroke"
       d="m 16.376953,160.53711 c 0,11.83659 0,23.67318 0,35.50977 10.505859,-10e-6 21.011719,0 31.517578,0 -0.850975,-0.47847 -1.824122,-0.83474 -2.602321,-1.38584 -6.170411,-11.95404 -12.343446,-23.90673 -18.514866,-35.86026 -3.466797,0.57878 -6.933594,1.15755 -10.400391,1.73633 z" /><path
       id="path14"
       style="fill:#d6b186;fill-opacity:1;stroke:#404040;stroke-width:0;stroke-linecap:round;stroke-dasharray:none;stroke-dashoffset:0;stroke-opacity:0;paint-order:fill markers stroke"
       d="M 93.091797,55.15625 C 103.20573,44.494792 113.31966,33.833333 123.43359,23.171875 c -1.87304,-2.264974 -3.74609,-4.529948 -5.61914,-6.794922 -24.003252,0 -48.006507,0 -72.009762,0 15.762369,12.926432 31.524739,25.852865 47.287109,38.779297 z" /></g></svg>
