<?xml version="1.0" encoding="UTF-8" standalone="no"?>
<!-- Created with Inkscape (http://www.inkscape.org/) -->

<svg
   width="169.97189mm"
   height="301.75809mm"
   viewBox="0 0 404.69498 718.47164"
   version="1.1"
   id="svg1"
   xml:space="preserve"
   sodipodi:docname="UpgrageOverviewPaneltest1.svg"
   inkscape:version="1.4.2 (f4327f4, 2025-05-13)"
   inkscape:export-filename="UpgrageOverviewPaneltest1.png"
   inkscape:export-xdpi="96"
   inkscape:export-ydpi="96"
   xmlns:inkscape="http://www.inkscape.org/namespaces/inkscape"
   xmlns:sodipodi="http://sodipodi.sourceforge.net/DTD/sodipodi-0.dtd"
   xmlns="http://www.w3.org/2000/svg"
   xmlns:svg="http://www.w3.org/2000/svg"><sodipodi:namedview
     id="namedview1"
     pagecolor="#ffffff"
     bordercolor="#000000"
     borderopacity="0.25"
     inkscape:showpageshadow="2"
     inkscape:pageopacity="0.0"
     inkscape:pagecheckerboard="0"
     inkscape:deskcolor="#d1d1d1"
     inkscape:document-units="mm"
     inkscape:zoom="0.81379419"
     inkscape:cx="378.47407"
     inkscape:cy="972.60463"
     inkscape:window-width="3840"
     inkscape:window-height="2054"
     inkscape:window-x="-11"
     inkscape:window-y="-11"
     inkscape:window-maximized="1"
     inkscape:current-layer="svg1" /><defs
     id="defs1" /><path
     style="fill:#9970df;fill-opacity:1;stroke:#404040;stroke-width:0;stroke-linecap:round;stroke-dasharray:none;stroke-dashoffset:0;stroke-opacity:0;paint-order:fill markers stroke"
     d="M -53.916269,523.83624 467.1831,533.68895 423.66692,769.60681 -56.926822,736.49074 Z"
     id="path101" /><path
     style="fill:#d67965;fill-opacity:1;stroke:#404040;stroke-width:0;stroke-linecap:round;stroke-dasharray:none;stroke-dashoffset:0;stroke-opacity:0;paint-order:fill markers stroke"
     d="m -36.67401,416.55107 490.44647,15.87383 -41.87406,165.30673 -64.04268,-51.1794 -68.69535,9.30534 -69.79009,-1.36844 -14.50539,25.72655 -68.14797,-44.61092 -41.32669,45.15829 -68.147972,-19.97912 -29.28447,49.81097 z"
     id="path100" /><path
     style="fill:#e2b584;fill-opacity:1;stroke:#404040;stroke-width:0;stroke-linecap:round;stroke-dasharray:none;stroke-dashoffset:0;stroke-opacity:0;paint-order:fill markers stroke"
     d="m -32.021337,218.94932 483.330607,3.55792 -19.97912,-240.296872 -478.130566,3.557927 z"
     id="path99" /><path
     style="fill:#85b8e4;fill-opacity:1;stroke:#404040;stroke-width:0;stroke-linecap:round;stroke-dasharray:none;stroke-dashoffset:0;stroke-opacity:0;paint-order:fill markers stroke"
     d="m -29.028852,299.19071 471.815612,-13.15976 -29.80296,163.72273 -47.60732,22.83603 -42.57564,-24.38423 -44.89796,14.12737 -40.44687,-24.57776 -32.31879,21.67487 -53.41308,-9.8698 -8.90219,-9.67629 -51.671356,21.67488 -29.415902,-21.28782 -79.152003,38.12455 z"
     id="path98" /><path
     style="fill:#a6d68e;fill-opacity:1;stroke:#404040;stroke-width:0;stroke-linecap:round;stroke-dasharray:none;stroke-dashoffset:0;stroke-opacity:0;paint-order:fill markers stroke"
     d="m -18.965517,209.66297 135.855027,-0.7741 54.57424,-8.12808 34.83463,-17.80436 43.34975,36.38282 -2.32231,-38.70514 83.21604,14.70796 42.1886,-24.38424 41.80155,42.57565 -1.54821,91.73117 -29.02885,27.48065 -47.99437,-10.06333 -31.54468,14.51442 -61.54117,21.8684 11.61154,-27.28712 -38.12456,-1.16115 -13.93385,31.73821 -32.70584,-59.79943 -20.32019,20.32019 11.61154,38.89866 -87.280082,-51.09078 13.546792,41.60802 -96.9563641,-52.44545 z"
     id="path97"
     transform="translate(0,0.11887)" /><g
     inkscape:groupmode="layer"
     id="layer2"
     inkscape:label="Marker"
     transform="translate(0,0.11887)" /><g
     inkscape:groupmode="layer"
     id="layer19"
     inkscape:label="Special1"
     transform="translate(0,0.11887)"><path
       style="fill:#865ccc;fill-opacity:1;stroke:#404040;stroke-width:0;stroke-linecap:round;stroke-dasharray:none;stroke-dashoffset:0;stroke-opacity:0;paint-order:fill markers stroke"
       d="M 0,589.45536 33.162562,648.29557 111.84236,605.70443 83.682429,574.74196 15.862878,557.4997 Z"
       id="path86" /><path
       style="fill:#865ccc;fill-opacity:1;stroke:#404040;stroke-width:0;stroke-linecap:round;stroke-dasharray:none;stroke-dashoffset:0;stroke-opacity:0;paint-order:fill markers stroke"
       d="m 123.5468,691.21181 70.87684,27.14095 H 0 L 117.59741,688.3869 Z"
       id="path90" /><path
       style="fill:#865ccc;fill-opacity:1;stroke:#404040;stroke-width:0;stroke-linecap:round;stroke-dasharray:none;stroke-dashoffset:0;stroke-opacity:0;paint-order:fill markers stroke"
       d="m 251.31983,662.95084 80.30579,6.15259 -137.20198,49.24933 70.55172,-45.34783 z"
       id="path92" /><path
       style="fill:#865ccc;fill-opacity:1;stroke:#404040;stroke-width:0;stroke-linecap:round;stroke-dasharray:none;stroke-dashoffset:0;stroke-opacity:0;paint-order:fill markers stroke"
       d="m 331.62562,669.10343 73.06937,-29.26109 v -52.68595 l -55.40658,-41.93233 -56.02734,58.85474 z"
       id="path95" /></g><g
     inkscape:groupmode="layer"
     id="layer21"
     inkscape:label="Special3"
     transform="translate(0,0.11887)"><path
       style="fill:#a381dc;fill-opacity:1;stroke:#404040;stroke-width:0;stroke-linecap:round;stroke-dasharray:none;stroke-dashoffset:0;stroke-opacity:0;paint-order:fill markers stroke"
       d="M 175.9164,621.88923 123.5468,691.21181 33.162562,648.29557 111.84236,605.70443 Z"
       id="path88" /><path
       style="fill:#a381dc;fill-opacity:1;stroke:#404040;stroke-width:0;stroke-linecap:round;stroke-dasharray:none;stroke-dashoffset:0;stroke-opacity:0;paint-order:fill markers stroke"
       d="m 331.62562,669.10343 -38.36455,-65.02463 -98.76839,-27.49767 11.31027,52.85729 45.51688,33.51242 z"
       id="path93" /></g><g
     inkscape:groupmode="layer"
     id="layer22"
     inkscape:label="Special4"
     transform="translate(0,0.11887)"><path
       style="fill:#724eaf;fill-opacity:1;stroke:#404040;stroke-width:0;stroke-linecap:round;stroke-dasharray:none;stroke-dashoffset:0;stroke-opacity:0;paint-order:fill markers stroke"
       d="m 293.26107,604.0788 56.02732,-58.85474 -71.57307,7.90761 -69.88863,-0.91959 -13.33401,24.36905 z"
       id="path94" /><path
       style="fill:#724eaf;fill-opacity:1;stroke:#404040;stroke-width:0;stroke-linecap:round;stroke-dasharray:none;stroke-dashoffset:0;stroke-opacity:0;paint-order:fill markers stroke"
       d="m 404.69499,639.84234 v 78.51042 H 194.42364 Z"
       id="path96" /></g><g
     inkscape:groupmode="layer"
     id="layer20"
     inkscape:label="Special2"
     transform="translate(0,0.11887)"><path
       style="fill:#9970df;fill-opacity:1;stroke:#404040;stroke-width:0;stroke-linecap:round;stroke-dasharray:none;stroke-dashoffset:0;stroke-opacity:0;paint-order:fill markers stroke"
       d="m 111.84236,605.70443 93.96059,23.73399 -11.31027,-52.85729 -68.04945,-44.14017 -42.760801,42.301 z"
       id="path87" /><path
       style="fill:#9970df;fill-opacity:1;stroke:#404040;stroke-width:0;stroke-linecap:round;stroke-dasharray:none;stroke-dashoffset:0;stroke-opacity:0;paint-order:fill markers stroke"
       d="M 123.5468,691.21181 117.59741,688.3869 0,718.35276 v -128.8974 l 33.162562,58.84021 z"
       id="path89" /><path
       style="fill:#9970df;fill-opacity:1;stroke:#404040;stroke-width:0;stroke-linecap:round;stroke-dasharray:none;stroke-dashoffset:0;stroke-opacity:0;paint-order:fill markers stroke"
       d="m 194.42364,718.35276 70.55172,-45.34783 -59.17241,-43.56651 -29.88655,-7.54919 -52.3696,69.32258 z"
       id="path91" /></g><g
     inkscape:groupmode="layer"
     id="layer15"
     inkscape:label="Active1"
     transform="translate(0,0.11887)"><path
       style="fill:#d67965;fill-opacity:1;stroke:#404040;stroke-width:0;stroke-linecap:round;stroke-dasharray:none;stroke-dashoffset:0;stroke-opacity:0;paint-order:fill markers stroke"
       d="M 31.725756,525.54404 0,589.45536 V 466.23067 Z"
       id="path77" /><path
       style="fill:#d67965;fill-opacity:1;stroke:#404040;stroke-width:0;stroke-linecap:round;stroke-dasharray:none;stroke-dashoffset:0;stroke-opacity:0;paint-order:fill markers stroke"
       d="m 152.9963,492.21149 62.18709,19.07897 63.9113,-51.49689 -41.38142,-23.44949 -33.56493,20.69073 -24.59897,-5.05277 z"
       id="path80" /><path
       style="fill:#d67965;fill-opacity:1;stroke:#404040;stroke-width:0;stroke-linecap:round;stroke-dasharray:none;stroke-dashoffset:0;stroke-opacity:0;paint-order:fill markers stroke"
       d="m 328.75241,529.6822 75.94258,57.47419 -5e-5,-140.2271 -37.77967,20.22097 z"
       id="path82" /></g><g
     inkscape:groupmode="layer"
     id="layer16"
     inkscape:label="Active2"
     transform="translate(0,0.11887)"><path
       style="fill:#e58f7d;fill-opacity:1;stroke:#404040;stroke-width:0;stroke-linecap:round;stroke-dasharray:none;stroke-dashoffset:0;stroke-opacity:0;paint-order:fill markers stroke"
       d="m 15.862878,557.4997 67.819551,17.24226 42.760801,-42.301 -20.00102,-32.87525 -0.68969,22.75978 -21.610298,19.77112 -52.416466,-16.55257 z"
       id="path78" /><path
       style="fill:#e58f7d;fill-opacity:1;stroke:#404040;stroke-width:0;stroke-linecap:round;stroke-dasharray:none;stroke-dashoffset:0;stroke-opacity:0;paint-order:fill markers stroke"
       d="m 349.28841,545.22406 -71.57309,7.90761 6.69086,-42.66756 44.34623,19.21809 z"
       id="path83" /></g><g
     inkscape:groupmode="layer"
     id="layer18"
     inkscape:label="Active4"
     transform="translate(0,0.11887)"><path
       style="fill:#ce6954;fill-opacity:1;stroke:#404040;stroke-width:0;stroke-linecap:round;stroke-dasharray:none;stroke-dashoffset:0;stroke-opacity:0;paint-order:fill markers stroke"
       d="m 277.71532,553.13167 -69.88863,-0.91959 7.3567,-40.92162 24.87657,-20.04444 44.34622,19.21809 z"
       id="path84" /><path
       style="fill:#ce6954;fill-opacity:1;stroke:#404040;stroke-width:0;stroke-linecap:round;stroke-dasharray:none;stroke-dashoffset:0;stroke-opacity:0;paint-order:fill markers stroke"
       d="m 126.44323,532.44096 53.10615,-80.45892 -24.59885,-5.05275 -10.06858,-9.75796 -52.463445,21.24286 14.713395,18.39175 -0.68969,22.75977 z"
       id="path79" /></g><g
     inkscape:groupmode="layer"
     id="layer17"
     inkscape:label="Active3"
     transform="translate(0,0.11887)"><path
       style="fill:#e3a395;fill-opacity:1;stroke:#404040;stroke-width:0;stroke-linecap:round;stroke-dasharray:none;stroke-dashoffset:0;stroke-opacity:0;paint-order:fill markers stroke"
       d="m 0,466.23067 31.725756,59.31337 52.416466,16.55257 21.610298,-19.77112 1.37938,-45.51955 -14.713395,-18.39175 -29.656683,-18.85153 z"
       id="path76" /><path
       style="fill:#e3a395;fill-opacity:1;stroke:#404040;stroke-width:0;stroke-linecap:round;stroke-dasharray:none;stroke-dashoffset:0;stroke-opacity:0;paint-order:fill markers stroke"
       d="m 240.05996,491.24602 88.69245,38.43618 38.16286,-62.53194 -42.76079,-20.22097 -45.05979,12.86428 z"
       id="path81" /><path
       style="fill:#e3a395;fill-opacity:1;stroke:#404040;stroke-width:0;stroke-linecap:round;stroke-dasharray:none;stroke-dashoffset:0;stroke-opacity:0;paint-order:fill markers stroke"
       d="m 126.44323,532.44096 68.04945,44.14017 13.33401,-24.36905 7.3567,-40.92162 -62.18709,-19.07897 z"
       id="path85" /></g><g
     inkscape:groupmode="layer"
     id="layer11"
     inkscape:label="Synergy1"
     transform="translate(0,0.11887)"><path
       style="fill:#85b8e4;fill-opacity:1;stroke:#404040;stroke-width:0;stroke-linecap:round;stroke-dasharray:none;stroke-dashoffset:0;stroke-opacity:0;paint-order:fill markers stroke"
       d="m 72.18759,376.57092 58.11927,-34.66909 -59.498651,-34.75974 12.87422,39.54227 -19.769013,-10.64485 z"
       id="path63" /><path
       style="fill:#85b8e4;fill-opacity:1;stroke:#404040;stroke-width:0;stroke-linecap:round;stroke-dasharray:none;stroke-dashoffset:0;stroke-opacity:0;paint-order:fill markers stroke"
       d="m 129.11003,372.70867 73.23747,-13.53228 -31.23193,-59.30926 -24.94634,23.78784 11.99976,34.52421 z"
       id="path65" /><path
       style="fill:#85b8e4;fill-opacity:1;stroke:#404040;stroke-width:0;stroke-linecap:round;stroke-dasharray:none;stroke-dashoffset:0;stroke-opacity:0;paint-order:fill markers stroke"
       d="m 298.36977,398.65199 41.41767,19.30037 42.76082,-64.37111 -84.24225,20.8149 z"
       id="path69" /><path
       style="fill:#85b8e4;fill-opacity:1;stroke:#404040;stroke-width:0;stroke-linecap:round;stroke-dasharray:none;stroke-dashoffset:0;stroke-opacity:0;paint-order:fill markers stroke"
       d="m 324.15448,446.92929 -45.05979,12.86428 -41.38142,-23.44949 -33.56493,20.69073 1.83918,-49.19792 68.84209,3.42498 z"
       id="path71" /><path
       style="fill:#85b8e4;fill-opacity:1;stroke:#404040;stroke-width:0;stroke-linecap:round;stroke-dasharray:none;stroke-dashoffset:0;stroke-opacity:0;paint-order:fill markers stroke"
       d="M 62.761822,439.56266 0,466.23067 v -84.602 l 30.346374,-23.44949 2.758763,62.53194 z"
       id="path75" /></g><g
     inkscape:groupmode="layer"
     id="layer14"
     inkscape:label="Synergy4"
     transform="translate(0,0.11887)"><path
       style="fill:#acd0ef;fill-opacity:1;stroke:#404040;stroke-width:0;stroke-linecap:round;stroke-dasharray:none;stroke-dashoffset:0;stroke-opacity:0;paint-order:fill markers stroke"
       d="M 158.16899,358.17918 33.105137,420.71112 30.346374,358.17918 72.18759,376.57092 130.30686,341.90183 Z"
       id="path64" /><path
       style="fill:#acd0ef;fill-opacity:1;stroke:#404040;stroke-width:0;stroke-linecap:round;stroke-dasharray:none;stroke-dashoffset:0;stroke-opacity:0;paint-order:fill markers stroke"
       d="m 205.98752,407.83689 92.4185,4.59793 -0.2,-76.07731 -49.4577,18.14333 -40.00204,33.10514 z"
       id="path67" /></g><g
     inkscape:groupmode="layer"
     id="layer12"
     inkscape:label="Synergy2"
     transform="translate(0,0.11887)"><path
       style="fill:#94c4ed;fill-opacity:1;stroke:#404040;stroke-width:0;stroke-linecap:round;stroke-dasharray:none;stroke-dashoffset:0;stroke-opacity:0;paint-order:fill markers stroke"
       d="m 0,301.62457 v 80.0041 l 30.346374,-23.44949 41.841216,18.39174 -8.274174,-40.53141 z"
       id="path62" /><path
       style="fill:#acd0ef;fill-opacity:1;stroke:#404040;stroke-width:0;stroke-linecap:round;stroke-dasharray:none;stroke-dashoffset:0;stroke-opacity:0;paint-order:fill markers stroke"
       d="m 404.69499,372.43279 v 74.4965 l -37.77972,20.22097 -42.76082,-20.22097 15.63299,-28.97693 42.76082,-64.37111 z"
       id="path70" /><path
       style="fill:#94c4ed;fill-opacity:1;stroke:#404040;stroke-width:0;stroke-linecap:round;stroke-dasharray:none;stroke-dashoffset:0;stroke-opacity:0;paint-order:fill markers stroke"
       d="m 274.82961,411.26187 23.57641,1.17295 -0.0362,-13.78283 41.41767,19.30037 -15.63296,28.97693 z"
       id="path72" /><path
       style="fill:#94c4ed;fill-opacity:1;stroke:#404040;stroke-width:0;stroke-linecap:round;stroke-dasharray:none;stroke-dashoffset:0;stroke-opacity:0;paint-order:fill markers stroke"
       d="m 204.14834,457.03481 -49.19791,-10.10552 -59.313367,-57.48414 33.472967,-16.73648 42.45871,-7.84522 34.41878,42.97344 z"
       id="path73" /></g><g
     inkscape:groupmode="layer"
     id="layer13"
     inkscape:label="Synergy3"
     transform="translate(0,0.11887)"><path
       style="fill:#74a4ce;fill-opacity:1;stroke:#404040;stroke-width:0;stroke-linecap:round;stroke-dasharray:none;stroke-dashoffset:0;stroke-opacity:0;paint-order:fill markers stroke"
       d="m 248.74832,354.50084 -40.00204,33.10514 -2.75876,20.23091 -34.41879,-42.97344 30.77877,-5.68706 11.89758,-30.98855 h 44.51915 z"
       id="path66" /><path
       style="fill:#74a4ce;fill-opacity:1;stroke:#404040;stroke-width:0;stroke-linecap:round;stroke-dasharray:none;stroke-dashoffset:0;stroke-opacity:0;paint-order:fill markers stroke"
       d="m 298.30601,374.39615 84.24225,-20.8149 22.14673,18.85154 v -60.23295 l -21.68694,15.988 -48.05153,-8.36192 -14.48044,8.36192 -22.27006,8.16967 z"
       id="path68" /><path
       style="fill:#74a4ce;fill-opacity:1;stroke:#404040;stroke-width:0;stroke-linecap:round;stroke-dasharray:none;stroke-dashoffset:0;stroke-opacity:0;paint-order:fill markers stroke"
       d="M 144.88195,437.17133 92.418507,458.41419 33.105137,420.71112 96.813496,388.85693 Z"
       id="path74" /></g><g
     inkscape:groupmode="layer"
     id="layer7"
     inkscape:label="Bodymod1"
     transform="translate(0,0.11887)"><path
       style="fill:#9fc88c;fill-opacity:1;stroke:#404040;stroke-width:0;stroke-linecap:round;stroke-dasharray:none;stroke-dashoffset:0;stroke-opacity:0;paint-order:fill markers stroke"
       d="m 204.14835,185.75659 -33.10515,17.01237 23.44948,59.31337 62.53192,-32.64534 z"
       id="path47" /><path
       style="fill:#9fc88c;fill-opacity:1;stroke:#404040;stroke-width:0;stroke-linecap:round;stroke-dasharray:none;stroke-dashoffset:0;stroke-opacity:0;paint-order:fill markers stroke"
       d="M 70.808209,307.14209 161.38754,281.39366 85.200005,235.49756 57.933989,267.59984 Z"
       id="path55" /><path
       style="fill:#9fc88c;fill-opacity:1;stroke:#404040;stroke-width:0;stroke-linecap:round;stroke-dasharray:none;stroke-dashoffset:0;stroke-opacity:0;paint-order:fill markers stroke"
       d="m 258.76423,328.18784 h -44.51915 l 17.5318,-45.66343 44.09926,0.70842 z"
       id="path59" /></g><g
     inkscape:groupmode="layer"
     id="layer8"
     inkscape:label="Bodymod2"
     transform="translate(0,0.11887)"><path
       style="fill:#a6d68e;fill-opacity:1;stroke:#404040;stroke-width:0;stroke-linecap:round;stroke-dasharray:none;stroke-dashoffset:0;stroke-opacity:0;paint-order:fill markers stroke"
       d="m 257.0246,229.43699 -6.8969,-45.51957 56.99354,9.88328 24.84972,55.40741 z"
       id="path48" /><path
       style="fill:#a6d68e;fill-opacity:1;stroke:#404040;stroke-width:0;stroke-linecap:round;stroke-dasharray:none;stroke-dashoffset:0;stroke-opacity:0;paint-order:fill markers stroke"
       d="m 404.69499,279.55449 -84.21888,48.63335 -44.59997,-44.95501 56.09482,-34.02472 z"
       id="path50" /><path
       style="fill:#a6d68e;fill-opacity:1;stroke:#404040;stroke-width:0;stroke-linecap:round;stroke-dasharray:none;stroke-dashoffset:0;stroke-opacity:0;paint-order:fill markers stroke"
       d="m 161.38754,281.39366 -114.488597,-68.96903 69.428827,-1e-5 54.71543,-9.65566 23.44948,59.31337 z"
       id="path52" /><path
       style="fill:#a6d68e;fill-opacity:1;stroke:#404040;stroke-width:0;stroke-linecap:round;stroke-dasharray:none;stroke-dashoffset:0;stroke-opacity:0;paint-order:fill markers stroke"
       d="M 57.933989,267.59984 83.682429,346.68436 0,301.62457 V 257.0246 Z"
       id="path54" /><path
       style="fill:#a6d68e;fill-opacity:1;stroke:#404040;stroke-width:0;stroke-linecap:round;stroke-dasharray:none;stroke-dashoffset:0;stroke-opacity:0;paint-order:fill markers stroke"
       d="m 161.38754,281.39366 40.95996,77.78273 29.42938,-76.65198 z"
       id="path57" /></g><g
     inkscape:groupmode="layer"
     id="layer9"
     inkscape:label="Bodymod3"
     transform="translate(0,0.11887)"><path
       style="fill:#b2e09d;fill-opacity:1;stroke:#404040;stroke-width:0;stroke-linecap:round;stroke-dasharray:none;stroke-dashoffset:0;stroke-opacity:0;paint-order:fill markers stroke"
       d="M 0,212.42462 V 257.0246 L 57.933989,267.59984 85.200007,235.49756 46.898943,212.42463 Z"
       id="path53" /><path
       style="fill:#b2e09d;fill-opacity:1;stroke:#404040;stroke-width:0;stroke-linecap:round;stroke-dasharray:none;stroke-dashoffset:0;stroke-opacity:0;paint-order:fill markers stroke"
       d="m 275.87614,283.23283 -114.4886,-1.83917 33.10514,-19.31133 62.53192,-32.64534 74.94636,19.77112 z"
       id="path51" /><path
       style="fill:#b2e09d;fill-opacity:1;stroke:#404040;stroke-width:0;stroke-linecap:round;stroke-dasharray:none;stroke-dashoffset:0;stroke-opacity:0;paint-order:fill markers stroke"
       d="m 134.16947,289.13076 23.99952,69.04842 -87.360781,-51.03709 z"
       id="path56" /><path
       style="fill:#b2e09d;fill-opacity:1;stroke:#404040;stroke-width:0;stroke-linecap:round;stroke-dasharray:none;stroke-dashoffset:0;stroke-opacity:0;paint-order:fill markers stroke"
       d="m 334.95652,319.82592 48.05153,8.36192 21.68694,-15.988 v -32.64535 z"
       id="path61" /></g><g
     inkscape:groupmode="layer"
     id="layer10"
     inkscape:label="Bodymod4"
     transform="translate(0,0.11887)"><path
       style="fill:#90b57f;fill-opacity:1;stroke:#404040;stroke-width:0;stroke-linecap:round;stroke-dasharray:none;stroke-dashoffset:0;stroke-opacity:0;paint-order:fill markers stroke"
       d="m 404.69499,212.42463 v 67.12986 l -72.72403,-30.34638 -24.84972,-55.40741 22.55075,3.91053 41.38142,-24.36906 z"
       id="path49" /><path
       style="fill:#90b57f;fill-opacity:1;stroke:#404040;stroke-width:0;stroke-linecap:round;stroke-dasharray:none;stroke-dashoffset:0;stroke-opacity:0;paint-order:fill markers stroke"
       d="m 275.87614,283.23283 -27.12782,71.26801 71.72779,-26.313 z"
       id="path58" /><path
       style="fill:#90b57f;fill-opacity:1;stroke:#404040;stroke-width:0;stroke-linecap:round;stroke-dasharray:none;stroke-dashoffset:0;stroke-opacity:0;paint-order:fill markers stroke"
       d="m 146.16923,323.65497 24.94635,-23.78784 -9.72804,-18.47347 -27.21807,7.7371 z"
       id="path60" /></g><g
     inkscape:label="Passive1"
     inkscape:groupmode="layer"
     id="layer1"
     transform="translate(83.28501,206.63068)"><path
       style="fill:#e2b584;fill-opacity:1;stroke:#404040;stroke-width:0;stroke-linecap:round;stroke-dasharray:none;stroke-dashoffset:0;stroke-opacity:0;paint-order:fill markers stroke"
       d="m 204.60814,148.97311 23.44947,-41.38142 -52.87626,13.79381 z"
       id="path3"
       transform="translate(-83.28501,-206.51181)" /><path
       style="fill:#e2b584;fill-opacity:1;stroke:#404040;stroke-width:0;stroke-linecap:round;stroke-dasharray:none;stroke-dashoffset:0;stroke-opacity:0;paint-order:fill markers stroke"
       d="M 51.894296,-52.021175 33.042763,5.9128164 87.758191,-3.7428506 Z"
       id="path5" /><path
       style="fill:#e2b584;fill-opacity:1;stroke:#404040;stroke-width:0;stroke-linecap:round;stroke-dasharray:none;stroke-dashoffset:0;stroke-opacity:0;paint-order:fill markers stroke"
       d="m -83.28501,-121.45 72.192706,-25.86731 45.054648,36.44256 -42.7607966,45.519562 z"
       id="path12"
       sodipodi:nodetypes="ccccc" /><path
       style="fill:#e2b584;fill-opacity:1;stroke:#404040;stroke-width:0;stroke-linecap:round;stroke-dasharray:none;stroke-dashoffset:0;stroke-opacity:0;paint-order:fill markers stroke"
       d="M 42.238635,-206.51181 H 210.06329 l -57.93399,46.43915 -35.40411,-10.57525 -54.715436,-11.95463 z"
       id="path16" /><path
       style="fill:#e2b584;fill-opacity:1;stroke:#404040;stroke-width:0;stroke-linecap:round;stroke-dasharray:none;stroke-dashoffset:0;stroke-opacity:0;paint-order:fill markers stroke"
       d="m 152.1293,-160.07266 43.68038,64.830893 -2.75875,53.336055 -28.967,-23.449476 -19.31133,-33.564935 -51.037091,-49.197907 22.989681,-22.52988 z"
       id="path17" /><path
       style="fill:#e2b584;fill-opacity:1;stroke:#404040;stroke-width:0;stroke-linecap:round;stroke-dasharray:none;stroke-dashoffset:0;stroke-opacity:0;paint-order:fill markers stroke"
       d="m 273.055,-162.37163 48.35498,4.59794 v 98.395818 l -86.97764,-34.484513 z"
       id="path21" /><path
       style="fill:#e2b584;fill-opacity:1;stroke:#404040;stroke-width:0;stroke-linecap:round;stroke-dasharray:none;stroke-dashoffset:0;stroke-opacity:0;paint-order:fill markers stroke"
       d="m 166.84269,-22.594386 6.8969,45.519567 -52.87625,-43.680396 z"
       id="path23" /><path
       style="fill:#e2b584;fill-opacity:1;stroke:#404040;stroke-width:0;stroke-linecap:round;stroke-dasharray:none;stroke-dashoffset:0;stroke-opacity:0;paint-order:fill markers stroke"
       d="M 246.38698,-8.8005805 287.7684,-33.169637 321.40998,5.9128164 V -59.377875 l -83.2993,11.494842 z"
       id="path24" /></g><g
     inkscape:groupmode="layer"
     id="layer3"
     inkscape:label="Passive2"
     transform="translate(0,0.11887)"><path
       style="fill:#e2bf97;fill-opacity:1;stroke:#404040;stroke-width:0;stroke-linecap:round;stroke-opacity:0;paint-order:fill markers stroke"
       d="m 91.896338,-85.12631 -40.002041,33.105137 35.863897,48.2783254 33.105146,-17.0123614 0.45979,-36.783487 z"
       id="path1"
       transform="translate(83.28501,206.51181)" /><path
       style="fill:#e2bf97;fill-opacity:1;stroke:#404040;stroke-width:0;stroke-linecap:round;stroke-dasharray:none;stroke-dashoffset:0;stroke-opacity:0;paint-order:fill markers stroke"
       d="m 33.962346,-110.87475 59.773166,-37.24328 51.037088,49.197907 -52.876265,13.793811 z"
       id="path7"
       transform="translate(83.28501,206.51181)" /><path
       style="fill:#e2bf97;fill-opacity:1;stroke:#404040;stroke-width:0;stroke-linecap:round;stroke-dasharray:none;stroke-dashoffset:0;stroke-opacity:0;paint-order:fill markers stroke"
       d="m 33.962344,-110.87475 -42.7607966,45.519565 60.6927486,13.33401 z"
       id="path8"
       transform="translate(83.28501,206.51181)" /><path
       style="fill:#e2bf97;fill-opacity:1;stroke:#404040;stroke-width:0;stroke-linecap:round;stroke-dasharray:none;stroke-dashoffset:0;stroke-opacity:0;paint-order:fill markers stroke"
       d="m 210.06329,-206.51181 62.99171,44.14018 -38.62266,68.509245 -38.62266,-1.379384 -43.68038,-64.830891 z"
       id="path18"
       transform="translate(83.28501,206.51181)" /><path
       style="fill:#e2bf97;fill-opacity:1;stroke:#404040;stroke-width:0;stroke-linecap:round;stroke-dasharray:none;stroke-dashoffset:0;stroke-opacity:0;paint-order:fill markers stroke"
       d="m 166.84269,-22.594386 79.54429,13.7938081 -8.2763,-39.0824531 -45.05975,5.977316 -28.967,-23.449476 z"
       id="path19"
       transform="translate(83.28501,206.51181)" /><path
       style="fill:#e2bf97;fill-opacity:1;stroke:#404040;stroke-width:0;stroke-linecap:round;stroke-dasharray:none;stroke-dashoffset:0;stroke-opacity:0;paint-order:fill markers stroke"
       d="M -83.28501,-59.837665 V -121.45 l 74.4865574,56.094812 -38.6226604,-0.459795 z"
       id="path11"
       transform="translate(83.28501,206.51181)" /></g><g
     inkscape:groupmode="layer"
     id="layer4"
     inkscape:label="Passive3"
     transform="translate(0,0.11887)"><path
       style="fill:#d0aa7e;fill-opacity:1;stroke:#404040;stroke-width:0;stroke-linecap:round;stroke-dasharray:none;stroke-dashoffset:0;stroke-opacity:0;paint-order:fill markers stroke"
       d="m 33.04276,5.9128138 -58.853574,-29.8865788 -21.610299,-41.841213 38.6226604,0.45979 60.6927486,13.334013 z"
       id="path9"
       transform="translate(83.28501,206.51181)" /><path
       style="fill:#d0aa7e;fill-opacity:1;stroke:#404040;stroke-width:0;stroke-linecap:round;stroke-dasharray:none;stroke-dashoffset:0;stroke-opacity:0;paint-order:fill markers stroke"
       d="M -11.092304,-147.31731 -82.820101,-206.63068 -83.28501,-121.45 Z"
       id="path13"
       sodipodi:nodetypes="cccc"
       transform="translate(83.28501,206.51181)" /><path
       style="fill:#d0aa7e;fill-opacity:1;stroke:#404040;stroke-width:0;stroke-linecap:round;stroke-dasharray:none;stroke-dashoffset:0;stroke-opacity:0;paint-order:fill markers stroke"
       d="m 62.009754,-182.60254 54.715436,11.95463 -22.989681,22.52988 -59.773165,37.24328 -22.759781,-18.16185 z"
       id="path15"
       transform="translate(83.28501,206.51181)" /><path
       style="fill:#d0aa7e;fill-opacity:1;stroke:#404040;stroke-width:0;stroke-linecap:round;stroke-dasharray:none;stroke-dashoffset:0;stroke-opacity:0;paint-order:fill markers stroke"
       d="m 234.43234,-93.862385 86.97764,34.484516 -83.2993,11.494836 -45.05975,5.977315 2.75875,-53.336051 z"
       id="path20"
       transform="translate(83.28501,206.51181)" /><path
       style="fill:#d0aa7e;fill-opacity:1;stroke:#404040;stroke-width:0;stroke-linecap:round;stroke-dasharray:none;stroke-dashoffset:0;stroke-opacity:0;paint-order:fill markers stroke"
       d="m 321.40998,-157.77369 v -48.73812 H 210.06329 l 62.99171,44.14018 z"
       id="path22"
       transform="translate(83.28501,206.51181)" /></g><g
     inkscape:groupmode="layer"
     id="layer6"
     inkscape:label="Passive4"
     transform="translate(0,0.11887)"><path
       style="fill:#d6b186;fill-opacity:1;stroke:#404040;stroke-width:0;stroke-linecap:round;stroke-dasharray:none;stroke-dashoffset:0;stroke-opacity:0;paint-order:fill markers stroke"
       d="m 120.86334,-20.755212 45.97935,-1.839172 -2.75876,-42.760801 -19.31133,-33.564936 -23.44947,41.381423 z"
       id="path4"
       transform="translate(83.28501,206.51181)" /><path
       style="fill:#d6b186;fill-opacity:1;stroke:#404040;stroke-width:0;stroke-linecap:round;stroke-dasharray:none;stroke-dashoffset:0;stroke-opacity:0;paint-order:fill markers stroke"
       d="M 51.894294,-52.021178 33.962349,-110.87475 91.896335,-85.126312 Z"
       id="path6"
       transform="translate(83.28501,206.51181)" /><path
       style="fill:#d6b186;fill-opacity:1;stroke:#404040;stroke-width:0;stroke-linecap:round;stroke-dasharray:none;stroke-dashoffset:0;stroke-opacity:0;paint-order:fill markers stroke"
       d="m -47.421113,-65.814981 -35.863897,5.977319 V 5.9128164 l 116.327768,-5.2e-6 -58.853572,-29.8865792 z"
       id="path10"
       transform="translate(83.28501,206.51181)" /><path
       style="fill:#d6b186;fill-opacity:1;stroke:#404040;stroke-width:0;stroke-linecap:round;stroke-dasharray:none;stroke-dashoffset:0;stroke-opacity:0;paint-order:fill markers stroke"
       d="M -83.28501,-206.51181 H 42.238635 l 19.771121,23.90927 -50.807191,53.56594 z"
       id="path14"
       transform="translate(83.28501,206.51181)" /></g></svg>
