<?xml version="1.0" encoding="UTF-8" standalone="no"?>
<!-- Created with Inkscape (http://www.inkscape.org/) -->

<svg
   width="169.97189mm"
   height="301.75809mm"
   viewBox="0 0 404.69498 718.47164"
   version="1.1"
   id="svg1"
   xml:space="preserve"
   sodipodi:docname="UpgrageOverviewPanel5.svg"
   inkscape:version="1.4.2 (f4327f4, 2025-05-13)"
   inkscape:export-filename="UpgrageOverviewPaneltest1.png"
   inkscape:export-xdpi="96"
   inkscape:export-ydpi="96"
   xmlns:inkscape="http://www.inkscape.org/namespaces/inkscape"
   xmlns:sodipodi="http://sodipodi.sourceforge.net/DTD/sodipodi-0.dtd"
   xmlns="http://www.w3.org/2000/svg"
   xmlns:svg="http://www.w3.org/2000/svg"><sodipodi:namedview
     id="namedview1"
     pagecolor="#ffffff"
     bordercolor="#000000"
     borderopacity="0.25"
     inkscape:showpageshadow="2"
     inkscape:pageopacity="0.0"
     inkscape:pagecheckerboard="0"
     inkscape:deskcolor="#d1d1d1"
     inkscape:document-units="mm"
     inkscape:zoom="1.1508788"
     inkscape:cx="149.45101"
     inkscape:cy="627.78114"
     inkscape:window-width="3840"
     inkscape:window-height="2054"
     inkscape:window-x="-11"
     inkscape:window-y="-11"
     inkscape:window-maximized="1"
     inkscape:current-layer="layer4" /><defs
     id="defs1" /><g
     inkscape:groupmode="layer"
     id="layer2"
     inkscape:label="Marker"
     transform="translate(0,0.11887)" /><g
     inkscape:groupmode="layer"
     id="layer19"
     inkscape:label="Special1"
     transform="translate(0,0.11887)"><path
       id="path86"
       style="fill:#865ccc;fill-opacity:1;stroke:#404040;stroke-width:0;stroke-linecap:round;stroke-dasharray:none;stroke-dashoffset:0;stroke-opacity:0;paint-order:fill markers stroke"
       d="m 5.703125,589.30664 c 9.806641,17.39974 19.613281,34.79948 29.419922,52.19922 C 58.011068,629.11654 80.899089,616.72721 103.78711,604.33789 96.181641,595.97526 88.576172,587.61263 80.970703,579.25 60.169271,573.96224 39.367839,568.67448 18.566406,563.38672 c -4.28776,8.63997 -8.5755206,17.27995 -12.863281,25.91992 z" /><path
       id="path90"
       style="fill:#865ccc;fill-opacity:1;stroke:#404040;stroke-width:0;stroke-linecap:round;stroke-dasharray:none;stroke-dashoffset:0;stroke-opacity:0;paint-order:fill markers stroke"
       d="m 40.179688,713.31445 c 42.333333,0 84.666662,0 127.000002,0 -15.41856,-5.91141 -30.8472,-11.80129 -46.24516,-17.76345 -1.28612,-0.6101 -2.57224,-1.2202 -3.85836,-1.8303 -25.63216,6.53125 -51.264321,13.0625 -76.896482,19.59375 z" /><path
       id="path92"
       style="fill:#865ccc;fill-opacity:1;stroke:#404040;stroke-width:0;stroke-linecap:round;stroke-dasharray:none;stroke-dashoffset:0;stroke-opacity:0;paint-order:fill markers stroke"
       d="m 272.38281,672.20117 c 0.49154,0.36198 0.98308,0.72396 1.47461,1.08594 -13.14892,8.45439 -26.29961,16.90604 -39.44922,25.35937 24.44206,-8.77343 48.88412,-17.54687 73.32618,-26.32031 -13.08985,-1.0026 -26.17969,-2.00521 -39.26954,-3.00781 1.30599,0.96094 2.61198,1.92187 3.91797,2.88281 z" /><path
       id="path95"
       style="fill:#865ccc;fill-opacity:1;stroke:#404040;stroke-width:0;stroke-linecap:round;stroke-dasharray:none;stroke-dashoffset:0;stroke-opacity:0;paint-order:fill markers stroke"
       d="m 299.54102,604.79492 c 11.4108,19.33985 22.82161,38.67969 34.23242,58.01953 21.96093,-8.79557 43.92187,-17.59114 65.88281,-26.38672 0,-15.59049 0,-31.18099 0,-46.77148 -16.60677,-12.56576 -33.21354,-25.13151 -49.82031,-37.69727 -16.76498,17.61198 -33.52995,35.22396 -50.29492,52.83594 z" /></g><g
     inkscape:groupmode="layer"
     id="layer21"
     inkscape:label="Special3"
     transform="translate(0,0.11887)"><path
       id="path88"
       style="fill:#a381dc;fill-opacity:1;stroke:#404040;stroke-width:0;stroke-linecap:round;stroke-dasharray:none;stroke-dashoffset:0;stroke-opacity:0;paint-order:fill markers stroke"
       d="M 44.294922,647.99805 C 70.196615,660.29557 96.098307,672.5931 122,684.89062 c 15.10482,-19.99283 30.20964,-39.98567 45.31445,-59.97851 -18.26692,-4.61328 -36.53385,-9.22656 -54.80078,-13.83984 -22.739581,12.30859 -45.479165,24.61718 -68.218748,36.92578 z" /><path
       id="path93"
       style="fill:#a381dc;fill-opacity:1;stroke:#404040;stroke-width:0;stroke-linecap:round;stroke-dasharray:none;stroke-dashoffset:0;stroke-opacity:0;paint-order:fill markers stroke"
       d="m 210.33398,626.52344 c 14.26888,10.50455 28.53776,21.00911 42.80664,31.51367 23.07553,1.76758 46.15105,3.53516 69.22657,5.30273 -10.80599,-18.31901 -21.61198,-36.63802 -32.41797,-54.95703 -29.59505,-8.23828 -59.19011,-16.47656 -88.78516,-24.71484 3.05664,14.28515 6.11328,28.57031 9.16992,42.85547 z" /></g><g
     inkscape:groupmode="layer"
     id="layer22"
     inkscape:label="Special4"
     transform="translate(0,0.11887)"><path
       id="path94"
       style="fill:#724eaf;fill-opacity:1;stroke:#404040;stroke-width:0;stroke-linecap:round;stroke-dasharray:none;stroke-dashoffset:0;stroke-opacity:0;paint-order:fill markers stroke"
       d="m 278.26953,558.13867 c -22.49112,-0.23408 -44.98331,-0.55989 -67.47461,-0.84765 -2.94466,5.38086 -5.88932,10.76171 -8.83398,16.14257 29.91276,8.32683 59.82552,16.65365 89.73828,24.98047 14.80729,-15.55534 29.61458,-31.11067 44.42187,-46.66601 -19.28385,2.13021 -38.5677,4.26041 -57.85156,6.39062 z" /><path
       id="path96"
       style="fill:#724eaf;fill-opacity:1;stroke:#404040;stroke-width:0;stroke-linecap:round;stroke-dasharray:none;stroke-dashoffset:0;stroke-opacity:0;paint-order:fill markers stroke"
       d="m 222.32227,713.31445 c 59.11132,0 118.22265,0 177.33398,0 0,-22.07161 0,-44.14323 0,-66.21484 -59.11133,22.07161 -118.22266,44.14323 -177.33398,66.21484 z" /></g><g
     inkscape:groupmode="layer"
     id="layer20"
     inkscape:label="Special2"
     transform="translate(0,0.11887)"><path
       id="path87"
       style="fill:#9970df;fill-opacity:1;stroke:#404040;stroke-width:0;stroke-linecap:round;stroke-dasharray:none;stroke-dashoffset:0;stroke-opacity:0;paint-order:fill markers stroke"
       d="m 90.666016,574.92969 c 7.962239,8.75586 15.924474,17.51172 23.886714,26.26758 28.20834,7.12434 56.41667,14.24869 84.625,21.37304 -3.05924,-14.29817 -6.11849,-28.59635 -9.17773,-42.89453 -20.96419,-13.59896 -41.92839,-27.19792 -62.89258,-40.79687 -12.14713,12.01692 -24.29427,24.03385 -36.441404,36.05078 z" /><path
       id="path89"
       style="fill:#9970df;fill-opacity:1;stroke:#404040;stroke-width:0;stroke-linecap:round;stroke-dasharray:none;stroke-dashoffset:0;stroke-opacity:0;paint-order:fill markers stroke"
       d="M 5.0390625,711.86914 C 37.634115,703.5625 70.229167,695.25586 102.82422,686.94922 78.400433,675.35343 53.976307,663.75835 29.552734,652.16211 21.38246,637.66288 13.210128,623.1648 5.0390625,608.66602 c 0,34.40104 0,68.80208 0,103.20312 z" /><path
       id="path91"
       style="fill:#9970df;fill-opacity:1;stroke:#404040;stroke-width:0;stroke-linecap:round;stroke-dasharray:none;stroke-dashoffset:0;stroke-opacity:0;paint-order:fill markers stroke"
       d="m 131.60938,688.90625 c 20.74283,7.94336 41.48567,15.88672 62.22851,23.83008 20.7513,-13.33985 41.5026,-26.67969 62.25391,-40.01953 -17.49219,-12.87956 -34.98438,-25.75912 -52.47657,-38.63868 -8.5638,-2.1621 -17.1276,-4.32421 -25.6914,-6.48632 -15.43815,20.43815 -30.8763,40.8763 -46.31445,61.31445 z" /></g><g
     inkscape:groupmode="layer"
     id="layer15"
     inkscape:label="Active1"
     transform="translate(0,0.11887)"><path
       id="path77"
       style="fill:#d67965;fill-opacity:1;stroke:#404040;stroke-width:0;stroke-linecap:round;stroke-dasharray:none;stroke-dashoffset:0;stroke-opacity:0;paint-order:fill markers stroke"
       d="M 5.0390625,567.96289 C 12.044271,553.85221 19.049479,539.74154 26.054688,525.63086 19.049479,512.53385 12.044271,499.43685 5.0390625,486.33984 c 0,27.20769 0,54.41537 0,81.62305 z" /><path
       id="path80"
       style="fill:#d67965;fill-opacity:1;stroke:#404040;stroke-width:0;stroke-linecap:round;stroke-dasharray:none;stroke-dashoffset:0;stroke-opacity:0;paint-order:fill markers stroke"
       d="m 206.9043,461.25977 c -1.59227,1.23892 -3.71776,0.80747 -5.51233,0.35238 -6.50761,-1.33491 -13.01522,-2.66982 -19.52283,-4.00473 -6.98633,10.58659 -13.97266,21.17318 -20.95898,31.75977 17.73177,5.44075 35.46354,10.88151 53.19531,16.32226 18.68359,-15.05664 37.36719,-30.11328 56.05078,-45.16992 -10.77799,-6.10807 -21.55599,-12.21614 -32.33398,-18.32422 -10.30599,6.35482 -20.61198,12.70964 -30.91797,19.06446 z" /><path
       id="path82"
       style="fill:#d67965;fill-opacity:1;stroke:#404040;stroke-width:0;stroke-linecap:round;stroke-dasharray:none;stroke-dashoffset:0;stroke-opacity:0;paint-order:fill markers stroke"
       d="m 370.50977,470.94727 c -11.69271,19.15625 -23.38542,38.3125 -35.07813,57.46875 21.4082,16.20247 42.81641,32.40494 64.22461,48.60742 0,-40.5599 0,-81.11979 0,-121.67969 -9.71549,5.20117 -19.43099,10.40234 -29.14648,15.60352 z" /></g><g
     inkscape:groupmode="layer"
     id="layer16"
     inkscape:label="Active2"
     transform="translate(0,0.11887)"><path
       id="path78"
       style="fill:#e58f7d;fill-opacity:1;stroke:#404040;stroke-width:0;stroke-linecap:round;stroke-dasharray:none;stroke-dashoffset:0;stroke-opacity:0;paint-order:fill markers stroke"
       d="m 110.79883,522.23438 c 0.23191,2.05036 -1.31277,3.69529 -2.8023,4.86633 -7.53195,6.89167 -15.064688,13.78247 -22.596139,20.67468 -17.024215,-5.3759 -34.048156,-10.75267 -51.072266,-16.12891 -3.72526,7.50326 -7.450521,15.00651 -11.175781,22.50977 19.66862,5 39.337239,10 59.005859,15 12.636719,-12.5013 25.273437,-25.0026 37.910157,-37.50391 -3.03451,-4.98567 -6.06901,-9.97135 -9.10352,-14.95703 -0.0553,1.84636 -0.11067,3.69271 -0.16601,5.53907 z" /><path
       id="path83"
       style="fill:#e58f7d;fill-opacity:1;stroke:#404040;stroke-width:0;stroke-linecap:round;stroke-dasharray:none;stroke-dashoffset:0;stroke-opacity:0;paint-order:fill markers stroke"
       d="m 283.71484,547.39648 c 17.48308,-1.92968 34.96615,-3.85937 52.44922,-5.78906 -3.42383,-2.57562 -6.80838,-5.2166 -10.30855,-7.68234 -12.4935,-5.41513 -24.98701,-10.83026 -37.48051,-16.24539 -1.55339,9.9056 -3.10677,19.8112 -4.66016,29.71679 z" /></g><g
     inkscape:groupmode="layer"
     id="layer18"
     inkscape:label="Active4"
     transform="translate(0,0.11887)"><path
       id="path84"
       style="fill:#ce6954;fill-opacity:1;stroke:#404040;stroke-width:0;stroke-linecap:round;stroke-dasharray:none;stroke-dashoffset:0;stroke-opacity:0;paint-order:fill markers stroke"
       d="m 219.80859,514.0332 c -1.98893,11.07292 -3.97786,22.14584 -5.96679,33.21875 19.85872,0.26172 39.71744,0.52344 59.57617,0.78516 1.80338,-11.49805 3.60677,-22.99609 5.41015,-34.49414 -12.6595,-5.48698 -25.31901,-10.97396 -37.97851,-16.46094 -7.01367,5.65039 -14.02734,11.30078 -21.04102,16.95117 z" /><path
       id="path79"
       style="fill:#ce6954;fill-opacity:1;stroke:#404040;stroke-width:0;stroke-linecap:round;stroke-dasharray:none;stroke-dashoffset:0;stroke-opacity:0;paint-order:fill markers stroke"
       d="m 100.58203,460.54688 c 3.88152,4.85221 7.763,9.70444 11.64453,14.55664 -0.23229,7.709 -0.46627,15.41796 -0.69922,23.12695 5.0293,8.26823 10.0586,16.53646 15.08789,24.80469 14.87631,-22.53842 29.75261,-45.07683 44.62891,-67.61524 -6.24867,-1.28334 -12.49756,-2.56559 -18.74609,-3.84961 -2.92086,-2.8311 -5.84251,-5.66139 -8.76367,-8.49219 -14.38412,5.82292 -28.76823,11.64584 -43.15235,17.46876 z" /></g><g
     inkscape:groupmode="layer"
     id="layer17"
     inkscape:label="Active3"
     transform="translate(0,0.11887)"><path
       id="path76"
       style="fill:#e3a395;fill-opacity:1;stroke:#404040;stroke-width:0;stroke-linecap:round;stroke-dasharray:none;stroke-dashoffset:0;stroke-opacity:0;paint-order:fill markers stroke"
       d="m 7.046875,468.71484 c 9.385417,17.54753 18.770833,35.09506 28.15625,52.64258 15.89388,5.01953 31.78776,10.03906 47.681641,15.0586 5.963541,-5.45443 11.927083,-10.90886 17.890624,-16.36329 0.42122,-13.84765 0.84245,-27.69531 1.26367,-41.54296 -4.347654,-5.43295 -8.69531,-10.86589 -13.042966,-16.29883 -8.898438,-5.65886 -17.796875,-11.31771 -26.695313,-16.97656 -18.417969,7.82682 -36.835937,15.65364 -55.253906,23.48046 z" /><path
       id="path81"
       style="fill:#e3a395;fill-opacity:1;stroke:#404040;stroke-width:0;stroke-linecap:round;stroke-dasharray:none;stroke-dashoffset:0;stroke-opacity:0;paint-order:fill markers stroke"
       d="m 281.46094,464.35547 c -10.58138,8.52604 -21.16276,17.05208 -31.74414,25.57812 25.67317,11.12696 51.34635,22.25391 77.01953,33.38086 10.98437,-18.0026 21.96875,-36.00521 32.95312,-54.00781 -11.99349,-5.66992 -23.98698,-11.33984 -35.98047,-17.00976 -14.08268,4.01953 -28.16536,8.03906 -42.24804,12.05859 z" /><path
       id="path85"
       style="fill:#e3a395;fill-opacity:1;stroke:#404040;stroke-width:0;stroke-linecap:round;stroke-dasharray:none;stroke-dashoffset:0;stroke-opacity:0;paint-order:fill markers stroke"
       d="m 133.44336,530.98047 c 19.74414,12.80664 39.48828,25.61328 59.23242,38.41992 3.44596,-6.29687 6.89193,-12.59375 10.33789,-18.89062 2.13998,-11.90365 4.27995,-23.8073 6.41992,-35.71094 -18.10416,-5.55534 -36.20833,-11.11068 -54.3125,-16.66602 -7.22591,10.94922 -14.45182,21.89844 -21.67773,32.84766 z" /></g><g
     inkscape:groupmode="layer"
     id="layer11"
     inkscape:label="Synergy1"
     transform="translate(0,0.11887)"><path
       id="path63"
       style="fill:#85b8e4;fill-opacity:1;stroke:#404040;stroke-width:0;stroke-linecap:round;stroke-dasharray:none;stroke-dashoffset:0;stroke-opacity:0;paint-order:fill markers stroke"
       d="m 88.470703,345.12109 c 1.29949,3.98893 2.599233,7.97778 3.898438,11.9668 -7.120596,-3.83621 -14.242243,-7.67047 -21.363282,-11.50586 1.565756,7.67578 3.131511,15.35156 4.697266,23.02735 14.899089,-8.88672 29.798175,-17.77344 44.697265,-26.66016 -13.56706,-7.92708 -27.134114,-15.85417 -40.701171,-23.78125 2.923828,8.98437 5.847656,17.96875 8.771484,26.95312 z" /><path
       id="path65"
       style="fill:#85b8e4;fill-opacity:1;stroke:#404040;stroke-width:0;stroke-linecap:round;stroke-dasharray:none;stroke-dashoffset:0;stroke-opacity:0;paint-order:fill markers stroke"
       d="m 151.99023,325.06641 c 4.13002,11.88157 8.26157,23.76262 12.39063,35.64453 -0.32996,0.19663 -1.67863,0.73604 -0.64505,0.47747 10.32114,-1.90785 20.64227,-3.81571 30.96341,-5.72357 -8.31185,-15.78255 -16.6237,-31.5651 -24.93555,-47.34765 -5.92448,5.64974 -11.84896,11.29948 -17.77344,16.94922 z" /><path
       id="path69"
       style="fill:#85b8e4;fill-opacity:1;stroke:#404040;stroke-width:0;stroke-linecap:round;stroke-dasharray:none;stroke-dashoffset:0;stroke-opacity:0;paint-order:fill markers stroke"
       d="m 303.35352,378.3418 c 0.0156,5.69726 0.0312,11.39453 0.0469,17.09179 11.52995,5.3737 23.0599,10.7474 34.58984,16.1211 11.06641,-16.65755 22.13282,-33.31511 33.19922,-49.97266 -22.61198,5.58659 -45.22396,11.17318 -67.83593,16.75977 z" /><path
       id="path71"
       style="fill:#85b8e4;fill-opacity:1;stroke:#404040;stroke-width:0;stroke-linecap:round;stroke-dasharray:none;stroke-dashoffset:0;stroke-opacity:0;paint-order:fill markers stroke"
       d="m 209.53906,447.79297 c 9.35492,-5.76676 18.70901,-11.53487 28.06446,-17.30078 14.04645,7.95923 28.09241,15.91934 42.13867,23.8789 11.01758,-3.14453 22.03515,-6.28906 33.05273,-9.43359 -13.23828,-9.57422 -26.47656,-19.14844 -39.71484,-28.72266 -20.74675,-1.03255 -41.49349,-2.0651 -62.24024,-3.09765 -0.43359,11.55859 -0.86718,23.11719 -1.30078,34.67578 z" /><path
       id="path75"
       style="fill:#85b8e4;fill-opacity:1;stroke:#404040;stroke-width:0;stroke-linecap:round;stroke-dasharray:none;stroke-dashoffset:0;stroke-opacity:0;paint-order:fill markers stroke"
       d="m 5.0390625,384.09766 c 0,24.83854 0,49.67708 0,74.51562 15.6445315,-6.64713 31.2890625,-13.29427 46.9335935,-19.9414 -7.929829,-5.03884 -15.858521,-10.07948 -23.789062,-15.11719 -0.810071,-18.48451 -1.626815,-36.96873 -2.439453,-55.45313 -6.901693,5.33203 -13.803386,10.66406 -20.7050785,15.9961 z" /></g><g
     inkscape:groupmode="layer"
     id="layer14"
     inkscape:label="Synergy4"
     transform="translate(0,0.11887)"><path
       id="path64"
       style="fill:#acd0ef;fill-opacity:1;stroke:#404040;stroke-width:0;stroke-linecap:round;stroke-dasharray:none;stroke-dashoffset:0;stroke-opacity:0;paint-order:fill markers stroke"
       d="m 75.099609,380.69922 c -1.633984,1.43002 -4.099287,1.12716 -5.853263,0.0867 -11.170006,-4.91042 -22.340012,-9.82083 -33.510018,-14.73124 0.685547,15.55989 1.371094,31.11979 2.056641,46.67969 36.599609,-18.29948 73.199221,-36.59896 109.798831,-54.89844 -5.75391,-3.36068 -11.50782,-6.72136 -17.26172,-10.08203 -18.41016,10.98177 -36.820314,21.96354 -55.230471,32.94531 z" /><path
       id="path67"
       style="fill:#acd0ef;fill-opacity:1;stroke:#404040;stroke-width:0;stroke-linecap:round;stroke-dasharray:none;stroke-dashoffset:0;stroke-opacity:0;paint-order:fill markers stroke"
       d="m 251.28711,358.9375 c -12.60482,10.43099 -25.20964,20.86198 -37.81445,31.29297 -0.58334,4.28255 -1.16667,8.5651 -1.75,12.84765 27.20963,1.35352 54.41927,2.70704 81.6289,4.06055 -0.0566,-21.1901 -0.11328,-42.38021 -0.16992,-63.57031 -13.96484,5.12305 -27.92969,10.24609 -41.89453,15.36914 z" /></g><g
     inkscape:groupmode="layer"
     id="layer12"
     inkscape:label="Synergy2"
     transform="translate(0,0.11887)"><path
       id="path62"
       style="fill:#94c4ed;fill-opacity:1;stroke:#404040;stroke-width:0;stroke-linecap:round;stroke-dasharray:none;stroke-dashoffset:0;stroke-opacity:0;paint-order:fill markers stroke"
       d="m 5.0390625,371.37109 c 8.1983145,-6.33756 16.3986645,-12.6725 24.5957035,-19.01171 11.889649,5.22321 23.778591,10.44803 35.667968,15.67187 -1.952474,-9.55729 -3.904948,-19.11458 -5.857422,-28.67187 -18.135416,-9.76563 -36.270833,-19.53126 -54.4062495,-29.29688 0,20.4362 0,40.8724 0,61.30859 z" /><path
       id="path70"
       style="fill:#acd0ef;fill-opacity:1;stroke:#404040;stroke-width:0;stroke-linecap:round;stroke-dasharray:none;stroke-dashoffset:0;stroke-opacity:0;paint-order:fill markers stroke"
       d="m 344.13086,420.52344 c -4.33854,8.04166 -8.67708,16.08333 -13.01563,24.125 11.88672,5.62044 23.77344,11.24088 35.66016,16.86133 10.96029,-5.86589 21.92057,-11.73178 32.88086,-17.59766 0,-23.05013 0,-46.10026 0,-69.15039 -5.35091,-4.55469 -10.70182,-9.10938 -16.05273,-13.66406 -13.15756,19.80859 -26.31511,39.61718 -39.47266,59.42578 z" /><path
       id="path72"
       style="fill:#94c4ed;fill-opacity:1;stroke:#404040;stroke-width:0;stroke-linecap:round;stroke-dasharray:none;stroke-dashoffset:0;stroke-opacity:0;paint-order:fill markers stroke"
       d="m 303.44531,412.3457 c 0.24698,1.87903 -0.4617,4.13582 -2.37711,4.85375 -1.59659,0.69753 -3.34736,0.10295 -5.01537,0.16399 -1.49678,-0.0749 -2.99355,-0.14984 -4.49033,-0.22477 10.29622,7.44597 20.59245,14.89193 30.88867,22.33789 3.45313,-6.40364 6.90625,-12.80729 10.35938,-19.21094 -9.79297,-4.5638 -19.58594,-9.1276 -29.37891,-13.6914 0.005,1.92383 0.009,3.84765 0.0137,5.77148 z" /><path
       id="path73"
       style="fill:#94c4ed;fill-opacity:1;stroke:#404040;stroke-width:0;stroke-linecap:round;stroke-dasharray:none;stroke-dashoffset:0;stroke-opacity:0;paint-order:fill markers stroke"
       d="m 130.73438,377.5293 c -8.82943,4.41471 -17.65886,8.82942 -26.48829,13.24414 17.7194,17.17187 35.43881,34.34375 53.15821,51.51562 13.97526,2.8711 27.95052,5.74219 41.92578,8.61328 0.51627,-13.79557 1.03255,-27.59114 1.54883,-41.38672 -10.45248,-13.05078 -20.90495,-26.10156 -31.35743,-39.15234 -12.92903,2.38867 -25.85807,4.77734 -38.7871,7.16602 z" /></g><g
     inkscape:groupmode="layer"
     id="layer13"
     inkscape:label="Synergy3"
     transform="translate(0,0.11887)"><path
       id="path66"
       style="fill:#74a4ce;fill-opacity:1;stroke:#404040;stroke-width:0;stroke-linecap:round;stroke-dasharray:none;stroke-dashoffset:0;stroke-opacity:0;paint-order:fill markers stroke"
       d="m 207.20312,360.58203 c -0.39139,2.23901 -2.67065,3.63458 -4.82294,3.70957 -7.2055,1.33119 -14.41101,2.66237 -21.61651,3.99356 7.27279,9.08007 14.54557,18.16015 21.81836,27.24023 0.47913,-3.51758 0.95855,-7.03513 1.4375,-10.55273 13.49904,-11.16678 26.99593,-22.33614 40.49414,-33.50391 2.31315,-6.08073 4.6263,-12.16146 6.93945,-18.24219 -11.24934,0 -22.49869,0 -33.74804,0 -3.50065,9.11849 -7.0013,18.23698 -10.50196,27.35547 z" /><path
       id="path68"
       style="fill:#74a4ce;fill-opacity:1;stroke:#404040;stroke-width:0;stroke-linecap:round;stroke-dasharray:none;stroke-dashoffset:0;stroke-opacity:0;paint-order:fill markers stroke"
       d="m 386.20312,332.0918 c -1.44139,1.43945 -3.666,1.27585 -5.48328,0.81099 -14.94307,-2.59846 -29.88614,-5.19691 -44.82922,-7.79537 -4.58597,2.62408 -9.11928,5.35376 -13.77357,7.84888 -6.28837,2.30558 -12.57673,4.61116 -18.8651,6.91675 0.026,9.36458 0.0521,18.72916 0.0781,28.09375 26.83844,-6.63387 53.67769,-13.26448 80.51562,-19.90039 5.26929,4.48802 10.54051,8.97378 15.81055,13.46093 0,-13.11718 0,-26.23437 0,-39.35156 -4.48437,3.30534 -8.96875,6.61068 -13.45313,9.91602 z" /><path
       id="path74"
       style="fill:#74a4ce;fill-opacity:1;stroke:#404040;stroke-width:0;stroke-linecap:round;stroke-dasharray:none;stroke-dashoffset:0;stroke-opacity:0;paint-order:fill markers stroke"
       d="m 43.320312,421.23438 c 16.535157,10.51302 33.070313,21.02604 49.605469,31.53906 14.345049,-5.8099 28.690109,-11.61979 43.035159,-17.42969 -13.38216,-13.45117 -26.76433,-26.90234 -40.146487,-40.35352 -17.498047,8.74805 -34.996094,17.4961 -52.494141,26.24415 z" /></g><g
     inkscape:groupmode="layer"
     id="layer7"
     inkscape:label="Bodymod1"
     transform="translate(0,0.11887)"><path
       id="path47"
       style="fill:#9fc88c;fill-opacity:1;stroke:#404040;stroke-width:0;stroke-linecap:round;stroke-dasharray:none;stroke-dashoffset:0;stroke-opacity:0;paint-order:fill markers stroke"
       d="m 177.41016,205.16797 c 6.56966,16.61784 13.13932,33.23568 19.70898,49.85351 16.94596,-8.8457 33.89193,-17.6914 50.83789,-26.5371 C 233.13802,216.24154 218.31901,203.9987 203.5,191.75586 c -8.69661,4.4707 -17.39323,8.94141 -26.08984,13.41211 z" /><path
       id="path55"
       style="fill:#9fc88c;fill-opacity:1;stroke:#404040;stroke-width:0;stroke-linecap:round;stroke-dasharray:none;stroke-dashoffset:0;stroke-opacity:0;paint-order:fill markers stroke"
       d="m 63.597656,268.72461 c 3.5,10.7487 7,21.4974 10.5,32.24609 24.914063,-7.08268 49.828124,-14.16536 74.742184,-21.24804 C 127.98307,267.1582 107.1263,254.59375 86.269531,242.0293 78.71224,250.92773 71.154948,259.82617 63.597656,268.72461 Z" /><path
       id="path59"
       style="fill:#9fc88c;fill-opacity:1;stroke:#404040;stroke-width:0;stroke-linecap:round;stroke-dasharray:none;stroke-dashoffset:0;stroke-opacity:0;paint-order:fill markers stroke"
       d="m 221.57227,323.14844 c 11.23828,0 22.47656,0 33.71484,0 4.44075,-11.66472 8.88151,-23.32943 13.32227,-34.99414 -11.13152,-0.17904 -22.26303,-0.35808 -33.39454,-0.53711 -4.54752,11.84375 -9.09505,23.6875 -13.64257,35.53125 z" /></g><g
     inkscape:groupmode="layer"
     id="layer8"
     inkscape:label="Bodymod2"
     transform="translate(0,0.11887)"><path
       id="path48"
       style="fill:#a6d68e;fill-opacity:1;stroke:#404040;stroke-width:0;stroke-linecap:round;stroke-dasharray:none;stroke-dashoffset:0;stroke-opacity:0;paint-order:fill markers stroke"
       d="m 261.51172,225.40625 c 20.51237,5.41081 41.02474,10.82161 61.53711,16.23242 -6.47656,-14.44336 -12.95313,-28.88672 -19.42969,-43.33008 -15.82031,-2.74218 -31.64062,-5.48437 -47.46094,-8.22656 1.78451,11.77474 3.56901,23.54948 5.35352,35.32422 z" /><path
       id="path50"
       style="fill:#a6d68e;fill-opacity:1;stroke:#404040;stroke-width:0;stroke-linecap:round;stroke-dasharray:none;stroke-dashoffset:0;stroke-opacity:0;paint-order:fill markers stroke"
       d="m 283.96289,284.22852 c 12.44987,12.55078 24.89974,25.10156 37.34961,37.65234 24.01302,-13.86654 48.02604,-27.73307 72.03906,-41.59961 -20.31705,-8.47721 -40.63411,-16.95443 -60.95117,-25.43164 -16.14583,9.79297 -32.29167,19.58594 -48.4375,29.37891 z" /><path
       id="path52"
       style="fill:#a6d68e;fill-opacity:1;stroke:#404040;stroke-width:0;stroke-linecap:round;stroke-dasharray:none;stroke-dashoffset:0;stroke-opacity:0;paint-order:fill markers stroke"
       d="m 117.20312,217.38477 c -13.58229,0.14767 -27.173015,0.0569 -40.758589,0.0781 -3.801823,0 -7.603646,0 -11.405469,0 32.131511,19.35742 64.263018,38.71484 96.394528,58.07227 8.92644,-5.20834 17.85287,-10.41667 26.7793,-15.625 -6.78125,-17.1556 -13.5625,-34.3112 -20.34375,-51.4668 -16.88867,2.98047 -33.77734,5.96094 -50.66602,8.94141 z" /><path
       id="path54"
       style="fill:#a6d68e;fill-opacity:1;stroke:#404040;stroke-width:0;stroke-linecap:round;stroke-dasharray:none;stroke-dashoffset:0;stroke-opacity:0;paint-order:fill markers stroke"
       d="M 5.0390625,298.61719 C 28.358073,311.17318 51.677083,323.72917 74.996094,336.28516 68.022135,314.86393 61.048177,293.44271 54.074219,272.02148 37.729167,269.03841 21.384115,266.05534 5.0390625,263.07227 c 0,11.8483 0,23.69661 0,35.54492 z" /><path
       id="path57"
       style="fill:#a6d68e;fill-opacity:1;stroke:#404040;stroke-width:0;stroke-linecap:round;stroke-dasharray:none;stroke-dashoffset:0;stroke-opacity:0;paint-order:fill markers stroke"
       d="m 201.62891,346.98828 c 7.61979,-19.84766 15.23958,-39.69531 22.85937,-59.54297 -18.22656,-0.29297 -36.45312,-0.58593 -54.67969,-0.8789 10.60677,20.14062 21.21355,40.28125 31.82032,60.42187 z" /></g><g
     inkscape:groupmode="layer"
     id="layer9"
     inkscape:label="Bodymod3"
     transform="translate(0,0.11887)"><path
       id="path53"
       style="fill:#b2e09d;fill-opacity:1;stroke:#404040;stroke-width:0;stroke-linecap:round;stroke-dasharray:none;stroke-dashoffset:0;stroke-opacity:0;paint-order:fill markers stroke"
       d="m 5.0390625,252.82227 c 16.9778645,3.09765 33.9557295,6.19531 50.9335935,9.29296 7.179688,-8.45312 14.359375,-16.90625 21.539063,-25.35937 -10.673177,-6.43099 -21.346354,-12.86198 -32.019531,-19.29297 -13.484376,0 -26.968751,0 -40.4531255,0 0,11.78646 0,23.57292 0,35.35938 z" /><path
       id="path51"
       style="fill:#b2e09d;fill-opacity:1;stroke:#404040;stroke-width:0;stroke-linecap:round;stroke-dasharray:none;stroke-dashoffset:0;stroke-opacity:0;paint-order:fill markers stroke"
       d="m 196.85156,266.54297 c -5.77579,3.36487 -11.5493,6.73476 -17.32422,10.10156 31.6556,0.50846 63.3112,1.01693 94.9668,1.52539 14.90104,-9.03906 29.80208,-18.07812 44.70313,-27.11719 -20.52344,-5.41341 -41.04688,-10.82682 -61.57032,-16.24023 -20.25846,10.57682 -40.51692,21.15365 -60.77539,31.73047 z" /><path
       id="path56"
       style="fill:#b2e09d;fill-opacity:1;stroke:#404040;stroke-width:0;stroke-linecap:round;stroke-dasharray:none;stroke-dashoffset:0;stroke-opacity:0;paint-order:fill markers stroke"
       d="m 83.554688,308.75195 c 21.793622,12.73112 43.587242,25.46224 65.380862,38.19336 -5.98698,-17.22461 -11.97396,-34.44922 -17.96094,-51.67383 -15.80664,4.49349 -31.613282,8.98698 -47.419922,13.48047 z" /><path
       id="path61"
       style="fill:#b2e09d;fill-opacity:1;stroke:#404040;stroke-width:0;stroke-linecap:round;stroke-dasharray:none;stroke-dashoffset:0;stroke-opacity:0;paint-order:fill markers stroke"
       d="m 349.51953,317.24023 c 10.74609,1.87045 21.49219,3.74089 32.23828,5.61133 5.96615,-4.39974 11.93229,-8.79948 17.89844,-13.19922 0,-7.12109 0,-14.24218 0,-21.36328 -16.71224,9.65039 -33.42448,19.30078 -50.13672,28.95117 z" /></g><g
     inkscape:groupmode="layer"
     id="layer10"
     inkscape:label="Bodymod4"
     transform="translate(0,0.11887)"><path
       id="path49"
       style="fill:#90b57f;fill-opacity:1;stroke:#404040;stroke-width:0;stroke-linecap:round;stroke-dasharray:none;stroke-dashoffset:0;stroke-opacity:0;paint-order:fill markers stroke"
       d="m 332.33984,201.98828 c -1.64168,1.23853 -3.87215,0.6549 -5.6266,0.3207 -3.70291,-0.63826 -7.40583,-1.27644 -11.10777,-1.92031 6.7181,14.98177 13.4362,29.96354 20.1543,44.94531 21.29882,8.88607 42.59765,17.77214 63.89648,26.65821 0,-19.23112 0,-38.46224 0,-57.69336 -9.89128,-11.49284 -19.78255,-22.98568 -29.67383,-34.47852 -12.54752,7.38933 -25.09505,14.77865 -37.64258,22.16797 z" /><path
       id="path58"
       style="fill:#90b57f;fill-opacity:1;stroke:#404040;stroke-width:0;stroke-linecap:round;stroke-dasharray:none;stroke-dashoffset:0;stroke-opacity:0;paint-order:fill markers stroke"
       d="m 257.39062,345.96094 c 17.99219,-6.60157 35.98438,-13.20313 53.97657,-19.80469 -11.18685,-11.27539 -22.3737,-22.55078 -33.56055,-33.82617 -6.80534,17.87695 -13.61068,35.7539 -20.41602,53.63086 z" /><path
       id="path60"
       style="fill:#90b57f;fill-opacity:1;stroke:#404040;stroke-width:0;stroke-linecap:round;stroke-dasharray:none;stroke-dashoffset:0;stroke-opacity:0;paint-order:fill markers stroke"
       d="m 140.67773,292.51367 c 2.5599,7.36459 5.1198,14.72917 7.67969,22.09375 5.50781,-5.25195 11.01563,-10.5039 16.52344,-15.75586 -2.01888,-3.83203 -4.03776,-7.66406 -6.05664,-11.49609 -6.04883,1.7194 -12.09766,3.4388 -18.14649,5.1582 z" /></g><g
     inkscape:label="Passive1"
     inkscape:groupmode="layer"
     id="layer1"
     transform="translate(83.28501,206.63068)"><path
       id="path3"
       style="fill:#e2b584;fill-opacity:1;stroke:#404040;stroke-width:0;stroke-linecap:round;stroke-dasharray:none;stroke-dashoffset:0;stroke-opacity:0;paint-order:fill markers stroke"
       d="m 102.00586,-82.556641 c 6.02995,5.654297 12.0599,11.308594 18.08984,16.962891 4.80599,-8.48112 9.61198,-16.96224 14.41797,-25.443359 -10.83594,2.826823 -21.67187,5.653645 -32.50781,8.480468 z" /><path
       id="path5"
       style="fill:#e2b584;fill-opacity:1;stroke:#404040;stroke-width:0;stroke-linecap:round;stroke-dasharray:none;stroke-dashoffset:0;stroke-opacity:0;paint-order:fill markers stroke"
       d="M 40.427734,-0.50976562 C 53.233073,-2.7688802 66.038411,-5.0279948 78.84375,-7.2871094 70.451172,-18.586589 62.058594,-29.886068 53.666016,-41.185547 49.253255,-27.626953 44.840495,-14.068359 40.427734,-0.50976562 Z" /><path
       id="path12"
       style="fill:#e2b584;fill-opacity:1;stroke:#404040;stroke-width:0;stroke-linecap:round;stroke-dasharray:none;stroke-dashoffset:0;stroke-opacity:0;paint-order:fill markers stroke"
       d="m -72.792969,-119.85547 c 21.138672,15.91927 42.277344,31.838543 63.4160159,47.757814 11.9830729,-12.756511 23.9661461,-25.513021 35.9492191,-38.269534 -12.877605,-10.41536 -25.75520871,-20.83073 -38.632813,-31.24609 -20.24414,7.2526 -40.488281,14.50521 -60.732422,21.75781 z" /><path
       id="path16"
       style="fill:#e2b584;fill-opacity:1;stroke:#404040;stroke-width:0;stroke-linecap:round;stroke-dasharray:none;stroke-dashoffset:0;stroke-opacity:0;paint-order:fill markers stroke"
       d="m 64.783203,-187.1582 c 17.92415,3.92792 35.860737,7.80434 53.769647,11.79814 10.83004,3.23395 21.66008,6.4679 32.49012,9.70186 14.89453,-11.93815 29.78906,-23.87631 44.68359,-35.81446 -47.59505,0 -95.1901,0 -142.785154,0 3.947266,4.77149 7.894531,9.54297 11.841797,14.31446 z" /><path
       id="path17"
       style="fill:#e2b584;fill-opacity:1;stroke:#404040;stroke-width:0;stroke-linecap:round;stroke-dasharray:none;stroke-dashoffset:0;stroke-opacity:0;paint-order:fill markers stroke"
       d="m 100.9707,-148.14258 c 15.93966,15.36307 31.87771,30.72781 47.81836,46.08985 6.39907,11.126403 12.801,22.251172 19.20117,33.376949 6.84636,5.542969 13.69271,11.085937 20.53907,16.628906 0.72135,-13.924479 1.44271,-27.848958 2.16406,-41.773437 -13.91211,-20.646488 -27.82422,-41.292968 -41.73633,-61.939458 -10.27474,-3.06966 -20.54948,-6.13932 -30.82422,-9.20898 -5.7207,5.60872 -11.4414,11.21745 -17.16211,16.82617 z" /><path
       id="path21"
       style="fill:#e2b584;fill-opacity:1;stroke:#404040;stroke-width:0;stroke-linecap:round;stroke-dasharray:none;stroke-dashoffset:0;stroke-opacity:0;paint-order:fill markers stroke"
       d="m 241.6582,-96.417969 c 24.9043,9.873047 49.8086,19.746094 74.71289,29.619141 0,-28.797526 0,-57.595052 0,-86.392582 -13.51172,-1.28385 -27.02343,-2.5677 -40.53515,-3.85156 -11.39258,20.20833 -22.78516,40.41667 -34.17774,60.625001 z" /><path
       id="path23"
       style="fill:#e2b584;fill-opacity:1;stroke:#404040;stroke-width:0;stroke-linecap:round;stroke-dasharray:none;stroke-dashoffset:0;stroke-opacity:0;paint-order:fill markers stroke"
       d="m 134.23828,-16.242188 c 10.84701,8.960938 21.69401,17.9218755 32.54102,26.882813 -1.41407,-9.3385417 -2.82813,-18.6770833 -4.24219,-28.015625 -9.43294,0.377604 -18.86589,0.755208 -28.29883,1.132812 z" /><path
       id="path24"
       style="fill:#e2b584;fill-opacity:1;stroke:#404040;stroke-width:0;stroke-linecap:round;stroke-dasharray:none;stroke-dashoffset:0;stroke-opacity:0;paint-order:fill markers stroke"
       d="m 244.16602,-43.632812 c 1.89908,8.977864 3.79817,17.955729 5.69726,26.933593 12.99159,-7.648995 25.98274,-15.298744 38.97461,-22.947265 9.17943,10.658699 18.35519,21.320552 27.5332,31.9804684 0,-15.3098954 0,-30.6197914 0,-45.9296874 -24.06836,3.320963 -48.13671,6.641927 -72.20507,9.962891 z" /></g><g
     inkscape:groupmode="layer"
     id="layer3"
     inkscape:label="Passive2"
     transform="translate(0,0.11887)"><path
       id="path1"
       style="fill:#e2bf97;fill-opacity:1;stroke:#404040;stroke-width:0;stroke-linecap:round;stroke-opacity:0;paint-order:fill markers stroke"
       d="m 142.07812,155.31836 c 10.15495,13.67122 20.3099,27.34245 30.46485,41.01367 8.86849,-4.55924 17.73698,-9.11849 26.60547,-13.67773 0.12955,-10.50847 0.25911,-21.01693 0.38867,-31.52539 -8.1888,-7.67774 -16.3776,-15.35547 -24.56641,-23.03321 -10.96419,9.07422 -21.92838,18.14844 -32.89258,27.22266 z" /><path
       id="path7"
       style="fill:#e2bf97;fill-opacity:1;stroke:#404040;stroke-width:0;stroke-linecap:round;stroke-dasharray:none;stroke-dashoffset:0;stroke-opacity:0;paint-order:fill markers stroke"
       d="m 127.97461,94.894531 c 15.87891,7.056639 31.75781,14.113279 47.63672,21.169919 14.1595,-3.69401 28.31901,-7.38802 42.47851,-11.08203 -13.9108,-13.409503 -27.82161,-26.819009 -41.73242,-40.228514 -16.1276,10.046875 -32.25521,20.09375 -48.38281,30.140625 z" /><path
       id="path8"
       style="fill:#e2bf97;fill-opacity:1;stroke:#404040;stroke-width:0;stroke-linecap:round;stroke-dasharray:none;stroke-dashoffset:0;stroke-opacity:0;paint-order:fill markers stroke"
       d="m 84.236328,138.14062 c 14.538412,3.19467 29.076822,6.38933 43.615232,9.58399 -4.29492,-14.09766 -8.58984,-28.19531 -12.88476,-42.29297 -10.24349,10.903 -20.486982,21.80599 -30.730472,32.70898 z" /><path
       id="path18"
       style="fill:#e2bf97;fill-opacity:1;stroke:#404040;stroke-width:0;stroke-linecap:round;stroke-dasharray:none;stroke-dashoffset:0;stroke-opacity:0;paint-order:fill markers stroke"
       d="m 242.17969,47.470703 c 13.2194,19.617839 26.4388,39.235677 39.6582,58.853517 10.9987,0.39193 21.9974,0.78385 32.99609,1.17578 11.62435,-20.619792 23.2487,-41.239583 34.87305,-61.859375 C 330.98828,32.523438 312.26953,19.40625 293.55078,6.2890625 276.42708,20.016276 259.30339,33.74349 242.17969,47.470703 Z" /><path
       id="path19"
       style="fill:#e2bf97;fill-opacity:1;stroke:#404040;stroke-width:0;stroke-linecap:round;stroke-dasharray:none;stroke-dashoffset:0;stroke-opacity:0;paint-order:fill markers stroke"
       d="m 254.90039,179.62891 c 22.76693,3.94661 45.53385,7.89323 68.30078,11.83984 -1.92187,-9.07682 -3.84375,-18.15365 -5.76562,-27.23047 -14.19462,1.88315 -28.3896,3.76359 -42.58399,5.64844 -7.23605,-5.85841 -14.4727,-11.71609 -21.70898,-17.57422 0.58594,9.10547 1.17187,18.21094 1.75781,27.31641 z" /><path
       id="path11"
       style="fill:#e2bf97;fill-opacity:1;stroke:#404040;stroke-width:0;stroke-linecap:round;stroke-dasharray:none;stroke-dashoffset:0;stroke-opacity:0;paint-order:fill markers stroke"
       d="m 5.0390625,140.72852 c 10.2950325,-1.69221 20.5750395,-3.50188 30.8867185,-5.07032 7.750651,0.0925 15.501302,0.1849 23.251953,0.27735 C 41.13151,122.34505 23.085286,108.75456 5.0390625,95.164062 c 0,15.188148 0,30.376298 0,45.564458 z" /></g><g
     inkscape:groupmode="layer"
     id="layer4"
     inkscape:label="Passive3"
     transform="translate(0,0.11887)"><path
       id="path9"
       style="fill:#d0aa7e;fill-opacity:1;stroke:#404040;stroke-width:0;stroke-linecap:round;stroke-dasharray:none;stroke-dashoffset:0;stroke-opacity:0;paint-order:fill markers stroke"
       d="m 61.208984,178.7793 c 17.383464,8.82942 34.766927,17.65885 52.150396,26.48828 5.10416,-15.6836 10.20833,-31.36719 15.3125,-47.05078 -18.25196,-4.00977 -36.503911,-8.01953 -54.755864,-12.0293 -9.908204,-0.11654 -19.816407,-0.23307 -29.72461,-0.34961 5.672526,10.98047 11.345052,21.96094 17.017578,32.94141 z" /><path
       id="path13"
       style="fill:#d0aa7e;fill-opacity:1;stroke:#404040;stroke-width:0;stroke-linecap:round;stroke-dasharray:none;stroke-dashoffset:0;stroke-opacity:0;paint-order:fill markers stroke"
       d="M 5.078125,77.890625 C 24.10612,71.072917 43.134115,64.255208 62.162109,57.4375 43.257812,41.804036 24.353516,26.170573 5.4492188,10.537109 5.3255208,32.988281 5.2018229,55.439453 5.078125,77.890625 Z" /><path
       id="path15"
       style="fill:#d0aa7e;fill-opacity:1;stroke:#404040;stroke-width:0;stroke-linecap:round;stroke-dasharray:none;stroke-dashoffset:0;stroke-opacity:0;paint-order:fill markers stroke"
       d="m 101.91797,76.958984 c 5.22721,4.171224 10.45443,8.342448 15.68164,12.513672 18.76042,-11.6875 37.52083,-23.375 56.28125,-35.0625 5.3112,-5.205729 10.6224,-10.411458 15.93359,-15.617187 -14.27213,-3.117839 -28.54427,-6.235677 -42.8164,-9.353516 -15.0267,15.839844 -30.05339,31.679688 -45.08008,47.519531 z" /><path
       id="path20"
       style="fill:#d0aa7e;fill-opacity:1;stroke:#404040;stroke-width:0;stroke-linecap:round;stroke-dasharray:none;stroke-dashoffset:0;stroke-opacity:0;paint-order:fill markers stroke"
       d="m 281.67969,158.8125 c 27.3213,-3.58447 54.63144,-7.29743 81.93017,-11.09585 7.14046,-0.98563 14.28093,-1.97126 21.42139,-2.95688 -22.78971,-9.03451 -45.57943,-18.06901 -68.36914,-27.10352 -10.93099,-0.38932 -21.86198,-0.77865 -32.79297,-1.16797 -0.72982,14.10807 -1.45963,28.21615 -2.18945,42.32422 z" /><path
       id="path22"
       style="fill:#d0aa7e;fill-opacity:1;stroke:#404040;stroke-width:0;stroke-linecap:round;stroke-dasharray:none;stroke-dashoffset:0;stroke-opacity:0;paint-order:fill markers stroke"
       d="m 358.13672,39.25 c 13.83984,1.316406 27.67969,2.632813 41.51953,3.949219 0,-12.720052 0,-25.440104 0,-38.1601565 -30.11328,0 -60.22656,0 -90.33984,0 C 325.58984,16.442708 341.86328,27.846354 358.13672,39.25 Z" /></g><g
     inkscape:groupmode="layer"
     id="layer6"
     inkscape:label="Passive4"
     transform="translate(0,0.11887)"><path
       id="path4"
       style="fill:#d6b186;fill-opacity:1;stroke:#404040;stroke-width:0;stroke-linecap:round;stroke-dasharray:none;stroke-dashoffset:0;stroke-opacity:0;paint-order:fill markers stroke"
       d="m 209.63086,150.32422 c -0.12565,10.06055 -0.2513,20.12109 -0.37695,30.18164 11.83658,-0.47461 23.67317,-0.94922 35.50976,-1.42383 -0.78255,-12.14453 -1.5651,-24.28906 -2.34765,-36.43359 -4.77539,-8.29753 -9.55079,-16.59505 -14.32618,-24.89258 -6.15299,10.85612 -12.30599,21.71224 -18.45898,32.56836 z" /><path
       id="path6"
       style="fill:#d6b186;fill-opacity:1;stroke:#404040;stroke-width:0;stroke-linecap:round;stroke-dasharray:none;stroke-dashoffset:0;stroke-opacity:0;paint-order:fill markers stroke"
       d="m 137.79688,145.78711 c 9.30273,-7.69987 18.60546,-15.39974 27.9082,-23.09961 -13.47331,-5.98828 -26.94662,-11.97656 -40.41992,-17.96484 4.17057,13.68815 8.34114,27.3763 12.51172,41.06445 z" /><path
       id="path10"
       style="fill:#d6b186;fill-opacity:1;stroke:#404040;stroke-width:0;stroke-linecap:round;stroke-dasharray:none;stroke-dashoffset:0;stroke-opacity:0;paint-order:fill markers stroke"
       d="m 5.0390625,150.93945 c 0,18.81511 0,37.63021 0,56.44532 30.0787765,0 60.1575525,0 90.2363285,0 C 81.430221,200.35505 67.58599,193.32348 53.740234,186.29492 46.851298,172.9516 39.958703,159.61017 33.068359,146.26758 c -9.343099,1.55729 -18.686198,3.11458 -28.0292965,4.67187 z" /><path
       id="path14"
       style="fill:#d6b186;fill-opacity:1;stroke:#404040;stroke-width:0;stroke-linecap:round;stroke-dasharray:none;stroke-dashoffset:0;stroke-opacity:0;paint-order:fill markers stroke"
       d="M 94.058594,70.607422 C 108.89518,54.965495 123.73177,39.323568 138.56836,23.681641 133.42969,17.467448 128.29102,11.253255 123.15234,5.0390625 c -36.352861,0 -72.705725,0 -109.05859,0 C 40.748698,26.895182 67.403646,48.751302 94.058594,70.607422 Z" /></g></svg>
