<?xml version="1.0" encoding="UTF-8" standalone="no"?>
<!-- Created with Inkscape (http://www.inkscape.org/) -->

<svg
   width="169.97189mm"
   height="301.75809mm"
   viewBox="0 0 404.69498 718.47164"
   version="1.1"
   id="svg1"
   xml:space="preserve"
   sodipodi:docname="UpgrageOverviewPanel16.svg"
   inkscape:version="1.4.2 (f4327f4, 2025-05-13)"
   inkscape:export-filename="UpgrageOverviewPaneltest1.png"
   inkscape:export-xdpi="96"
   inkscape:export-ydpi="96"
   xmlns:inkscape="http://www.inkscape.org/namespaces/inkscape"
   xmlns:sodipodi="http://sodipodi.sourceforge.net/DTD/sodipodi-0.dtd"
   xmlns="http://www.w3.org/2000/svg"
   xmlns:svg="http://www.w3.org/2000/svg"><sodipodi:namedview
     id="namedview1"
     pagecolor="#ffffff"
     bordercolor="#000000"
     borderopacity="0.25"
     inkscape:showpageshadow="2"
     inkscape:pageopacity="0.0"
     inkscape:pagecheckerboard="0"
     inkscape:deskcolor="#d1d1d1"
     inkscape:document-units="mm"
     inkscape:zoom="1.1508788"
     inkscape:cx="149.45101"
     inkscape:cy="627.78114"
     inkscape:window-width="3840"
     inkscape:window-height="2054"
     inkscape:window-x="-11"
     inkscape:window-y="-11"
     inkscape:window-maximized="1"
     inkscape:current-layer="layer4" /><defs
     id="defs1" /><g
     inkscape:groupmode="layer"
     id="layer2"
     inkscape:label="Marker"
     transform="translate(0,0.11887)" /><g
     inkscape:groupmode="layer"
     id="layer19"
     inkscape:label="Special1"
     transform="translate(0,0.11887)"><path
       id="path95"
       style="fill:#865ccc;fill-opacity:1;stroke:#404040;stroke-width:0;stroke-linecap:round;stroke-dasharray:none;stroke-dashoffset:0;stroke-opacity:0;paint-order:fill markers stroke"
       d="m 335.63281,608.90625 c 3.48959,5.91536 6.97917,11.83073 10.46875,17.74609 8.19336,-3.28515 16.38672,-6.57031 24.58008,-9.85546 0,-4.24545 0,-8.49089 0,-12.73633 -5.90039,-4.45964 -11.80078,-8.91927 -17.70117,-13.37891 -5.78255,6.07487 -11.56511,12.14974 -17.34766,18.22461 z" /><path
       id="path86"
       style="fill:#865ccc;fill-opacity:1;stroke:#404040;stroke-width:0;stroke-linecap:round;stroke-dasharray:none;stroke-dashoffset:0;stroke-opacity:0;paint-order:fill markers stroke"
       d="m 46.398438,602.46875 c 0.888671,-0.48112 1.777343,-0.96224 2.666015,-1.44336 -1.354167,-0.3444 -2.708333,-0.6888 -4.0625,-1.0332 0.465495,0.82552 0.93099,1.65104 1.396485,2.47656 z" /></g><g
     inkscape:groupmode="layer"
     id="layer21"
     inkscape:label="Special3"
     transform="translate(0,0.11887)"><path
       id="path88"
       style="fill:#a381dc;fill-opacity:1;stroke:#404040;stroke-width:0;stroke-linecap:round;stroke-dasharray:none;stroke-dashoffset:0;stroke-opacity:0;paint-order:fill markers stroke"
       d="m 108.30859,646.29102 c 1.59896,0.75911 3.19792,1.51822 4.79688,2.27734 1.57812,-2.08789 3.15625,-4.17578 4.73437,-6.26367 -0.67244,-0.0789 -1.40464,-0.63628 -1.99851,-0.0858 -2.51091,1.35737 -5.02183,2.71473 -7.53274,4.0721 z" /></g><g
     inkscape:groupmode="layer"
     id="layer22"
     inkscape:label="Special4"
     transform="translate(0,0.11887)" /><g
     inkscape:groupmode="layer"
     id="layer20"
     inkscape:label="Special2"
     transform="translate(0,0.11887)"><path
       id="path91"
       style="fill:#9970df;fill-opacity:1;stroke:#404040;stroke-width:0;stroke-linecap:round;stroke-dasharray:none;stroke-dashoffset:0;stroke-opacity:0;paint-order:fill markers stroke"
       d="m 177.96875,675.6543 c 4.16667,1.5944 8.33333,3.1888 12.5,4.7832 4.85286,-3.12174 9.70573,-6.24349 14.55859,-9.36523 -4.64908,-3.42253 -9.29817,-6.84506 -13.94726,-10.26758 -0.54826,-0.0181 -1.28383,-0.56828 -1.71041,-0.24082 -3.8003,5.03014 -7.60061,10.06029 -11.40092,15.09043 z" /></g><g
     inkscape:groupmode="layer"
     id="layer15"
     inkscape:label="Active1"
     transform="translate(0,0.11887)" /><g
     inkscape:groupmode="layer"
     id="layer16"
     inkscape:label="Active2"
     transform="translate(0,0.11887)"><path
       id="path83"
       style="fill:#e58f7d;fill-opacity:1;stroke:#404040;stroke-width:0;stroke-linecap:round;stroke-dasharray:none;stroke-dashoffset:0;stroke-opacity:0;paint-order:fill markers stroke"
       d="m 297.46484,533.87109 c -0.64562,0.0887 -0.48595,1.33245 0.21368,0.95833 0.59749,-0.22618 0.57369,-1.13464 -0.21368,-0.95833 z" /></g><g
     inkscape:groupmode="layer"
     id="layer18"
     inkscape:label="Active4"
     transform="translate(0,0.11887)" /><g
     inkscape:groupmode="layer"
     id="layer17"
     inkscape:label="Active3"
     transform="translate(0,0.11887)"><path
       id="path76"
       style="fill:#e3a395;fill-opacity:1;stroke:#404040;stroke-width:0;stroke-linecap:round;stroke-dasharray:none;stroke-dashoffset:0;stroke-opacity:0;paint-order:fill markers stroke"
       d="m 47.556641,483 c 2.545573,4.75977 5.091145,9.51953 7.636718,14.2793 5.700521,1.80338 11.401042,3.60677 17.101563,5.41015 0.151042,-4.79036 0.302083,-9.58073 0.453125,-14.37109 -1.620809,-2.05126 -3.080881,-4.39969 -5.48938,-5.61817 -2.536092,-1.61491 -5.072184,-3.22981 -7.608276,-4.84472 -4.03125,1.71484 -8.0625,3.42969 -12.09375,5.14453 z" /><path
       id="path81"
       style="fill:#e3a395;fill-opacity:1;stroke:#404040;stroke-width:0;stroke-linecap:round;stroke-dasharray:none;stroke-dashoffset:0;stroke-opacity:0;paint-order:fill markers stroke"
       d="m 312.60742,485.59375 c 0.83724,0.36263 1.67448,0.72526 2.51172,1.08789 0.44466,-0.72851 0.88932,-1.45703 1.33398,-2.18555 -1.2819,0.36589 -2.5638,0.73177 -3.8457,1.09766 z" /></g><g
     inkscape:groupmode="layer"
     id="layer11"
     inkscape:label="Synergy1"
     transform="translate(0,0.11887)"><path
       id="path63"
       style="fill:#85b8e4;fill-opacity:1;stroke:#404040;stroke-width:0;stroke-linecap:round;stroke-dasharray:none;stroke-dashoffset:0;stroke-opacity:0;paint-order:fill markers stroke"
       d="m 80.126953,357.46289 c -0.732646,0.16797 -0.761466,1.236 -0.146484,1.56836 0.07749,-0.49467 0.701836,-1.10913 0.404297,-1.52344 -0.07708,-0.0429 -0.170162,-0.0635 -0.257813,-0.0449 z" /></g><g
     inkscape:groupmode="layer"
     id="layer14"
     inkscape:label="Synergy4"
     transform="translate(0,0.11887)" /><g
     inkscape:groupmode="layer"
     id="layer12"
     inkscape:label="Synergy2"
     transform="translate(0,0.11887)"><path
       id="path73"
       style="fill:#94c4ed;fill-opacity:1;stroke:#404040;stroke-width:0;stroke-linecap:round;stroke-dasharray:none;stroke-dashoffset:0;stroke-opacity:0;paint-order:fill markers stroke"
       d="m 157.49219,402.0293 c 0.24016,0.20633 1.33472,1.35042 0.92743,0.84613 -0.31139,-0.22501 -0.49676,-0.97251 -0.92743,-0.84613 z" /><path
       id="path62"
       style="fill:#94c4ed;fill-opacity:1;stroke:#404040;stroke-width:0;stroke-linecap:round;stroke-dasharray:none;stroke-dashoffset:0;stroke-opacity:0;paint-order:fill markers stroke"
       d="m 21.386719,337.55273 c -0.416737,0.23728 0.288101,0.71035 0.433593,0.26758 0.196948,-0.19436 -0.320555,-0.39686 -0.433593,-0.26758 z" /></g><g
     inkscape:groupmode="layer"
     id="layer13"
     inkscape:label="Synergy3"
     transform="translate(0,0.11887)"><path
       id="path66"
       style="fill:#74a4ce;fill-opacity:1;stroke:#404040;stroke-width:0;stroke-linecap:round;stroke-dasharray:none;stroke-dashoffset:0;stroke-opacity:0;paint-order:fill markers stroke"
       d="m 199.32422,374.375 c -0.82675,0.34668 -0.0312,1.77068 0.67578,1.19727 0.55346,-0.39312 0.28026,-1.38952 -0.45508,-1.25196 -0.0736,0.0182 -0.14713,0.0365 -0.2207,0.0547 z" /></g><g
     inkscape:groupmode="layer"
     id="layer7"
     inkscape:label="Bodymod1"
     transform="translate(0,0.11887)" /><g
     inkscape:groupmode="layer"
     id="layer8"
     inkscape:label="Bodymod2"
     transform="translate(0,0.11887)"><path
       id="path52"
       style="fill:#a6d68e;fill-opacity:1;stroke:#404040;stroke-width:0;stroke-linecap:round;stroke-dasharray:none;stroke-dashoffset:0;stroke-opacity:0;paint-order:fill markers stroke"
       d="m 151.24609,238.47461 c 0.34981,-0.15594 -0.47386,-0.34882 0,0 z" /></g><g
     inkscape:groupmode="layer"
     id="layer9"
     inkscape:label="Bodymod3"
     transform="translate(0,0.11887)" /><g
     inkscape:groupmode="layer"
     id="layer10"
     inkscape:label="Bodymod4"
     transform="translate(0,0.11887)"><path
       id="path49"
       style="fill:#90b57f;fill-opacity:1;stroke:#404040;stroke-width:0;stroke-linecap:round;stroke-dasharray:none;stroke-dashoffset:0;stroke-opacity:0;paint-order:fill markers stroke"
       d="m 356.73633,221.24414 c 0.31834,0.59784 0.4987,1.33732 0.90284,1.84709 4.34749,1.81334 8.69498,3.62668 13.04247,5.44002 0,-1.15039 0,-2.30078 0,-3.45117 -2.29362,-2.66537 -4.58724,-5.33073 -6.88086,-7.9961 -2.35482,1.38672 -4.70963,2.77344 -7.06445,4.16016 z" /><path
       id="path58"
       style="fill:#90b57f;fill-opacity:1;stroke:#404040;stroke-width:0;stroke-linecap:round;stroke-dasharray:none;stroke-dashoffset:0;stroke-opacity:0;paint-order:fill markers stroke"
       d="m 283.28906,319.13477 c -1.05525,0.31731 -0.52048,1.95876 0.48047,1.8457 0.96432,-0.25013 0.76686,-1.72952 -0.17872,-1.83044 -0.0966,-0.0431 -0.20125,-0.008 -0.30175,-0.0153 z" /><path
       id="path60"
       style="fill:#90b57f;fill-opacity:1;stroke:#404040;stroke-width:0;stroke-linecap:round;stroke-dasharray:none;stroke-dashoffset:0;stroke-opacity:0;paint-order:fill markers stroke"
       d="m 152.33398,298.04297 c -0.48661,0.01 -0.48273,0.84159 0.0552,0.6256 0.36479,-0.12463 0.54763,-0.78611 -0.0552,-0.6256 z" /></g><g
     inkscape:label="Passive1"
     inkscape:groupmode="layer"
     id="layer1"
     transform="translate(83.28501,206.63068)"><path
       id="path21"
       style="fill:#e2b584;fill-opacity:1;stroke:#404040;stroke-width:0;stroke-linecap:round;stroke-dasharray:none;stroke-dashoffset:0;stroke-opacity:0;paint-order:fill markers stroke"
       d="m 283.21484,-111.13281 c 1.39388,0.55273 2.78776,1.10547 4.18164,1.6582 0,-3.02474 0,-6.04948 0,-9.07422 -1.39388,2.47201 -2.78776,4.94401 -4.18164,7.41602 z" /></g><g
     inkscape:groupmode="layer"
     id="layer3"
     inkscape:label="Passive2"
     transform="translate(0,0.11887)"><path
       id="path19"
       style="fill:#e2bf97;fill-opacity:1;stroke:#404040;stroke-width:0;stroke-linecap:round;stroke-dasharray:none;stroke-dashoffset:0;stroke-opacity:0;paint-order:fill markers stroke"
       d="m 263.29883,171.83203 c -0.51164,0.16753 0.26991,0.67159 0.39258,0.26563 -0.0439,-0.16652 -0.21947,-0.29336 -0.39258,-0.26563 z" /><path
       id="path18"
       style="fill:#e2bf97;fill-opacity:1;stroke:#404040;stroke-width:0;stroke-linecap:round;stroke-dasharray:none;stroke-dashoffset:0;stroke-opacity:0;paint-order:fill markers stroke"
       d="m 281.11523,53.400391 c 5.49675,8.158203 10.99349,16.316406 16.49024,24.474609 0.76573,0.284331 0.9201,-0.518222 1.24142,-1.023979 4.24049,-7.525861 8.48098,-15.051722 12.72147,-22.577583 -5.61263,-3.929688 -11.22526,-7.859376 -16.83789,-11.789063 -4.53841,3.638672 -9.07682,7.277344 -13.61524,10.916016 z" /><path
       id="path8"
       style="fill:#e2bf97;fill-opacity:1;stroke:#404040;stroke-width:0;stroke-linecap:round;stroke-dasharray:none;stroke-dashoffset:0;stroke-opacity:0;paint-order:fill markers stroke"
       d="m 108.61914,129.60547 c -0.79666,0.31131 0.0506,1.64886 0.62633,0.97516 0.5202,-0.46566 -0.0177,-1.16782 -0.62633,-0.97516 z" /></g><g
     inkscape:groupmode="layer"
     id="layer4"
     inkscape:label="Passive3"
     transform="translate(0,0.11887)"><path
       id="path13"
       style="fill:#d0aa7e;fill-opacity:1;stroke:#404040;stroke-width:0;stroke-linecap:round;stroke-dasharray:none;stroke-dashoffset:0;stroke-opacity:0;paint-order:fill markers stroke"
       d="m 24.142578,50.5 c -0.400713,0.176426 0.32661,0.720187 0.388672,0.271484 C 24.46087,50.633742 24.312554,50.467406 24.142578,50.5 Z" /></g><g
     inkscape:groupmode="layer"
     id="layer6"
     inkscape:label="Passive4"
     transform="translate(0,0.11887)"><path
       id="path14"
       style="fill:#d6b186;fill-opacity:1;stroke:#404040;stroke-width:0;stroke-linecap:round;stroke-dasharray:none;stroke-dashoffset:0;stroke-opacity:0;paint-order:fill markers stroke"
       d="m 91.103516,31.738281 c -0.533601,0.488807 -0.634369,1.006259 -0.131449,1.563664 0.08704,0.588743 0.810647,0.970352 1.215128,0.491022 0.09823,-0.556145 0.499557,-1.198925 0.421207,-1.704596 -0.396291,-0.582424 -0.909683,-0.376884 -1.504886,-0.35009 z" /><path
       id="path6"
       style="fill:#d6b186;fill-opacity:1;stroke:#404040;stroke-width:0;stroke-linecap:round;stroke-dasharray:none;stroke-dashoffset:0;stroke-opacity:0;paint-order:fill markers stroke"
       d="m 143.43359,125.15234 c -0.75179,0.13915 -0.47758,1.62752 0.29239,1.13418 0.60727,-0.17656 0.57448,-1.40231 -0.20469,-1.15264 z" /></g></svg>
