<?xml version="1.0" encoding="UTF-8" standalone="no"?>
<!-- Created with Inkscape (http://www.inkscape.org/) -->

<svg
   width="169.97189mm"
   height="301.75809mm"
   viewBox="0 0 404.69498 718.47164"
   version="1.1"
   id="svg1"
   xml:space="preserve"
   sodipodi:docname="UpgrageOverviewPanel9.svg"
   inkscape:version="1.4.2 (f4327f4, 2025-05-13)"
   inkscape:export-filename="UpgrageOverviewPaneltest1.png"
   inkscape:export-xdpi="96"
   inkscape:export-ydpi="96"
   xmlns:inkscape="http://www.inkscape.org/namespaces/inkscape"
   xmlns:sodipodi="http://sodipodi.sourceforge.net/DTD/sodipodi-0.dtd"
   xmlns="http://www.w3.org/2000/svg"
   xmlns:svg="http://www.w3.org/2000/svg"><sodipodi:namedview
     id="namedview1"
     pagecolor="#ffffff"
     bordercolor="#000000"
     borderopacity="0.25"
     inkscape:showpageshadow="2"
     inkscape:pageopacity="0.0"
     inkscape:pagecheckerboard="0"
     inkscape:deskcolor="#d1d1d1"
     inkscape:document-units="mm"
     inkscape:zoom="1.1508788"
     inkscape:cx="149.45101"
     inkscape:cy="627.78114"
     inkscape:window-width="3840"
     inkscape:window-height="2054"
     inkscape:window-x="-11"
     inkscape:window-y="-11"
     inkscape:window-maximized="1"
     inkscape:current-layer="layer4" /><defs
     id="defs1" /><g
     inkscape:groupmode="layer"
     id="layer2"
     inkscape:label="Marker"
     transform="translate(0,0.11887)" /><g
     inkscape:groupmode="layer"
     id="layer19"
     inkscape:label="Special1"
     transform="translate(0,0.11887)"><path
       id="path95"
       style="fill:#865ccc;fill-opacity:1;stroke:#404040;stroke-width:0;stroke-linecap:round;stroke-dasharray:none;stroke-dashoffset:0;stroke-opacity:0;paint-order:fill markers stroke"
       d="m 307.39062,605.68555 c 9.68946,16.42252 19.37891,32.84505 29.06836,49.26757 18.96615,-7.59765 37.9323,-15.19531 56.89844,-22.79296 0,-13.12631 0,-26.25261 0,-39.37891 -14.27929,-10.80143 -28.55859,-21.60286 -42.83789,-32.4043 -14.3763,15.10287 -28.7526,30.20573 -43.12891,45.3086 z" /><path
       id="path86"
       style="fill:#865ccc;fill-opacity:1;stroke:#404040;stroke-width:0;stroke-linecap:round;stroke-dasharray:none;stroke-dashoffset:0;stroke-opacity:0;paint-order:fill markers stroke"
       d="m 12.832031,589.12109 c 8.247396,14.63282 16.494792,29.26563 24.742188,43.89844 18.714843,-10.13021 37.429687,-20.26042 56.144531,-30.39062 -5.378906,-5.91472 -10.757812,-11.82943 -16.136719,-17.74414 -18.54362,-4.71355 -37.087239,-9.42709 -55.630859,-14.14063 -3.039714,6.12565 -6.079427,12.2513 -9.119141,18.37695 z" /><path
       id="path90"
       style="fill:#865ccc;fill-opacity:1;stroke:#404040;stroke-width:0;stroke-linecap:round;stroke-dasharray:none;stroke-dashoffset:0;stroke-opacity:0;paint-order:fill markers stroke"
       d="m 116.42188,700.38867 c -8.67129,2.20873 -17.342442,4.41801 -26.013677,6.62695 14.254557,10e-6 28.509117,0 42.763677,0 -5.42763,-2.1025 -10.88324,-4.14632 -16.25069,-6.39294 -0.16512,-0.0476 -0.33444,-0.24103 -0.49931,-0.23401 z" /></g><g
     inkscape:groupmode="layer"
     id="layer21"
     inkscape:label="Special3"
     transform="translate(0,0.11887)"><path
       id="path88"
       style="fill:#a381dc;fill-opacity:1;stroke:#404040;stroke-width:0;stroke-linecap:round;stroke-dasharray:none;stroke-dashoffset:0;stroke-opacity:0;paint-order:fill markers stroke"
       d="m 58.210938,647.62695 c 20.618489,9.78776 41.236979,19.57552 61.855472,29.36328 12.16536,-16.09961 24.33073,-32.19921 36.49609,-48.29882 -14.40299,-3.63672 -28.80599,-7.27344 -43.20898,-10.91016 -18.380864,9.94857 -36.761723,19.89714 -55.142582,29.8457 z" /><path
       id="path93"
       style="fill:#a381dc;fill-opacity:1;stroke:#404040;stroke-width:0;stroke-linecap:round;stroke-dasharray:none;stroke-dashoffset:0;stroke-opacity:0;paint-order:fill markers stroke"
       d="m 215.99805,622.875 c 13.14127,9.67318 26.28255,19.34635 39.42383,29.01953 18.46028,1.41406 36.92057,2.82813 55.38085,4.24219 -8.33138,-14.12435 -16.66276,-28.2487 -24.99414,-42.37305 -25.43489,-7.07943 -50.86979,-14.15885 -76.30468,-21.23828 2.16471,10.11654 4.32942,20.23307 6.49414,30.34961 z" /></g><g
     inkscape:groupmode="layer"
     id="layer22"
     inkscape:label="Special4"
     transform="translate(0,0.11887)"><path
       id="path94"
       style="fill:#724eaf;fill-opacity:1;stroke:#404040;stroke-width:0;stroke-linecap:round;stroke-dasharray:none;stroke-dashoffset:0;stroke-opacity:0;paint-order:fill markers stroke"
       d="m 278.96289,564.39844 c -21.48572,-0.16119 -42.97179,-0.48515 -64.45703,-0.75977 -1.06966,1.95313 -2.13932,3.90625 -3.20898,5.85938 26.14908,7.27864 52.29817,14.55729 78.44726,21.83593 9.97396,-10.47721 19.94792,-20.95442 29.92188,-31.43164 -13.56771,1.4987 -27.13542,2.9974 -40.70313,4.4961 z" /><path
       id="path96"
       style="fill:#724eaf;fill-opacity:1;stroke:#404040;stroke-width:0;stroke-linecap:round;stroke-dasharray:none;stroke-dashoffset:0;stroke-opacity:0;paint-order:fill markers stroke"
       d="m 257.19531,707.01562 c 45.38737,10e-6 90.77474,0 136.16211,0 0,-16.94791 0,-33.89583 0,-50.84374 -45.38737,16.94791 -90.77474,33.89583 -136.16211,50.84374 z" /></g><g
     inkscape:groupmode="layer"
     id="layer20"
     inkscape:label="Special2"
     transform="translate(0,0.11887)"><path
       id="path87"
       style="fill:#9970df;fill-opacity:1;stroke:#404040;stroke-width:0;stroke-linecap:round;stroke-dasharray:none;stroke-dashoffset:0;stroke-opacity:0;paint-order:fill markers stroke"
       d="m 99.396484,575.16406 c 6.181646,6.79948 12.363286,13.59896 18.544926,20.39844 24.31836,6.14128 48.63672,12.28255 72.95507,18.42383 -2.17057,-10.14779 -4.34114,-20.29557 -6.51171,-30.44336 -18.81576,-12.20573 -37.63151,-24.41146 -56.44727,-36.61719 -9.51367,9.41276 -19.02734,18.82552 -28.541016,28.23828 z" /><path
       id="path89"
       style="fill:#9970df;fill-opacity:1;stroke:#404040;stroke-width:0;stroke-linecap:round;stroke-dasharray:none;stroke-dashoffset:0;stroke-opacity:0;paint-order:fill markers stroke"
       d="m 11.337891,703.76367 c 24.339192,-6.20247 48.678385,-12.40495 73.017578,-18.60742 -19.771442,-9.38681 -39.543227,-18.77289 -59.314453,-28.16016 -4.56678,-8.10599 -9.135571,-16.21085 -13.703125,-24.3164 0,23.69466 0,47.38932 0,71.08398 z" /><path
       id="path91"
       style="fill:#9970df;fill-opacity:1;stroke:#404040;stroke-width:0;stroke-linecap:round;stroke-dasharray:none;stroke-dashoffset:0;stroke-opacity:0;paint-order:fill markers stroke"
       d="m 141.6875,686.02539 c 17.13932,6.56315 34.27865,13.1263 51.41797,19.68945 17.29427,-11.11979 34.58854,-22.23958 51.88281,-33.35937 -14.70247,-10.82552 -29.40495,-21.65104 -44.10742,-32.47656 -6.81315,-1.7194 -13.6263,-3.43881 -20.43945,-5.15821 -12.91797,17.10157 -25.83594,34.20313 -38.75391,51.30469 z" /></g><g
     inkscape:groupmode="layer"
     id="layer15"
     inkscape:label="Active1"
     transform="translate(0,0.11887)"><path
       id="path77"
       style="fill:#d67965;fill-opacity:1;stroke:#404040;stroke-width:0;stroke-linecap:round;stroke-dasharray:none;stroke-dashoffset:0;stroke-opacity:0;paint-order:fill markers stroke"
       d="m 11.337891,541.10156 c 2.542317,-5.12109 5.084635,-10.24219 7.626953,-15.36328 -2.542318,-4.75391 -5.084636,-9.50781 -7.626953,-14.26172 0,9.875 0,19.75 0,29.625 z" /><path
       id="path80"
       style="fill:#d67965;fill-opacity:1;stroke:#404040;stroke-width:0;stroke-linecap:round;stroke-dasharray:none;stroke-dashoffset:0;stroke-opacity:0;paint-order:fill markers stroke"
       d="m 210.32031,466.55469 c -3.08051,2.18868 -7.16221,2.1247 -10.66406,1.13476 -4.96224,-1.01692 -9.92448,-2.03385 -14.88672,-3.05078 -4.6556,7.05794 -9.3112,14.11589 -13.9668,21.17383 13.98503,4.29167 27.97006,8.58333 41.95508,12.875 15.41016,-12.41992 30.82031,-24.83984 46.23047,-37.25977 -7.00976,-3.97265 -14.01953,-7.94531 -21.0293,-11.91796 -9.21289,5.68164 -18.42578,11.36328 -27.63867,17.04492 z" /><path
       id="path82"
       style="fill:#d67965;fill-opacity:1;stroke:#404040;stroke-width:0;stroke-linecap:round;stroke-dasharray:none;stroke-dashoffset:0;stroke-opacity:0;paint-order:fill markers stroke"
       d="m 375,475.69336 c -10.40625,17.04687 -20.8125,34.09375 -31.21875,51.14062 16.52539,12.50782 33.05078,25.01563 49.57617,37.52344 0,-32.83138 0,-65.66276 0,-98.49414 -6.11914,3.27669 -12.23828,6.55339 -18.35742,9.83008 z" /></g><g
     inkscape:groupmode="layer"
     id="layer16"
     inkscape:label="Active2"
     transform="translate(0,0.11887)"><path
       id="path78"
       style="fill:#e58f7d;fill-opacity:1;stroke:#404040;stroke-width:0;stroke-linecap:round;stroke-dasharray:none;stroke-dashoffset:0;stroke-opacity:0;paint-order:fill markers stroke"
       d="m 32.263672,549.97656 c 15.996745,4.06576 31.993489,8.13151 47.990234,12.19727 5.16211,-5.10742 10.324219,-10.21485 15.486328,-15.32227 -2.922445,2.67457 -5.845572,5.34839 -8.767578,8.02344 -16.464344,-5.20004 -32.92836,-10.40112 -49.392578,-15.60156 -1.772135,3.56771 -3.544271,7.13541 -5.316406,10.70312 z" /><path
       id="path83"
       style="fill:#e58f7d;fill-opacity:1;stroke:#404040;stroke-width:0;stroke-linecap:round;stroke-dasharray:none;stroke-dashoffset:0;stroke-opacity:0;paint-order:fill markers stroke"
       d="m 291.21484,540.23047 c 8.86263,-0.97787 17.72526,-1.95573 26.58789,-2.93359 -8.1613,-3.51845 -16.31132,-7.06306 -24.46679,-10.59571 -0.70703,4.50977 -1.41406,9.01953 -2.1211,13.5293 z" /></g><g
     inkscape:groupmode="layer"
     id="layer18"
     inkscape:label="Active4"
     transform="translate(0,0.11887)"><path
       id="path84"
       style="fill:#ce6954;fill-opacity:1;stroke:#404040;stroke-width:0;stroke-linecap:round;stroke-dasharray:none;stroke-dashoffset:0;stroke-opacity:0;paint-order:fill markers stroke"
       d="m 225.58984,517.46094 c -1.41211,7.86328 -2.82421,15.72656 -4.23632,23.58984 15.56445,0.20638 31.1289,0.41276 46.69336,0.61914 1.26953,-8.0931 2.53906,-16.1862 3.80859,-24.2793 -10.00651,-4.33789 -20.01302,-8.67578 -30.01953,-13.01367 -5.41537,4.36133 -10.83073,8.72266 -16.2461,13.08399 z" /><path
       id="path79"
       style="fill:#ce6954;fill-opacity:1;stroke:#404040;stroke-width:0;stroke-linecap:round;stroke-dasharray:none;stroke-dashoffset:0;stroke-opacity:0;paint-order:fill markers stroke"
       d="m 110.78711,463.21289 c 2.60223,3.25389 5.2043,6.50792 7.80664,9.76172 -0.23583,7.86199 -0.47274,15.72396 -0.70898,23.58594 2.98242,4.9056 5.96484,9.81119 8.94726,14.71679 11.34375,-17.18685 22.6875,-34.37369 34.03125,-51.56054 -3.81051,-0.78206 -7.62129,-1.56286 -11.43164,-2.34571 -2.37725,-2.3044 -4.75527,-4.60801 -7.13281,-6.91211 -10.50391,4.25131 -21.00781,8.50261 -31.51172,12.75391 z" /></g><g
     inkscape:groupmode="layer"
     id="layer17"
     inkscape:label="Active3"
     transform="translate(0,0.11887)"><path
       id="path76"
       style="fill:#e3a395;fill-opacity:1;stroke:#404040;stroke-width:0;stroke-linecap:round;stroke-dasharray:none;stroke-dashoffset:0;stroke-opacity:0;paint-order:fill markers stroke"
       d="m 15.855469,471.82031 c 7.897786,14.76758 15.795573,29.53516 23.693359,44.30274 13.921224,4.39778 27.842448,8.79557 41.763672,13.19336 4.414062,-4.03711 8.828125,-8.07422 13.242188,-12.11133 0.372395,-12.1888 0.744791,-24.37761 1.117187,-36.56641 -3.651042,-4.5625 -7.302083,-9.125 -10.953125,-13.6875 -7.664714,-4.87565 -15.329427,-9.7513 -22.994141,-14.62695 -15.289713,6.4987 -30.579427,12.99739 -45.86914,19.49609 z" /><path
       id="path81"
       style="fill:#e3a395;fill-opacity:1;stroke:#404040;stroke-width:0;stroke-linecap:round;stroke-dasharray:none;stroke-dashoffset:0;stroke-opacity:0;paint-order:fill markers stroke"
       d="m 284.41992,470.05859 c -7.54427,6.07813 -15.08854,12.15625 -22.63281,18.23438 20.80794,9.02083 41.61588,18.04167 62.42383,27.0625 8.8151,-14.45117 17.63021,-28.90234 26.44531,-43.35352 -9.16797,-4.33203 -18.33594,-8.66406 -27.50391,-12.99609 -12.9108,3.68424 -25.82161,7.36849 -38.73242,11.05273 z" /><path
       id="path85"
       style="fill:#e3a395;fill-opacity:1;stroke:#404040;stroke-width:0;stroke-linecap:round;stroke-dasharray:none;stroke-dashoffset:0;stroke-opacity:0;paint-order:fill markers stroke"
       d="m 142.19336,529.15234 c 16.07096,10.42448 32.14193,20.84896 48.21289,31.27344 2.193,-4.05137 4.46704,-8.07413 6.60949,-12.14334 1.74345,-9.69962 3.4869,-19.39923 5.23035,-29.09885 -14.82291,-4.54948 -29.64583,-9.09895 -44.46875,-13.64843 -5.19466,7.87239 -10.38932,15.74479 -15.58398,23.61718 z" /></g><g
     inkscape:groupmode="layer"
     id="layer11"
     inkscape:label="Synergy1"
     transform="translate(0,0.11887)"><path
       id="path63"
       style="fill:#85b8e4;fill-opacity:1;stroke:#404040;stroke-width:0;stroke-linecap:round;stroke-dasharray:none;stroke-dashoffset:0;stroke-opacity:0;paint-order:fill markers stroke"
       d="m 94.457031,343.16797 c 0.629558,1.93294 1.259115,3.86588 1.888672,5.79883 3.889327,-2.31966 7.778647,-4.63933 11.667967,-6.95899 -5.73568,-3.35091 -11.471352,-6.70182 -17.207029,-10.05273 1.216797,3.73763 2.433593,7.47526 3.65039,11.21289 z m -14.357422,15.48828 c 0.673113,-0.31791 1.181612,-0.63234 0.194412,-0.91509 -0.808657,-0.64987 -0.165782,0.52406 -0.194412,0.91509 z" /><path
       id="path65"
       style="fill:#85b8e4;fill-opacity:1;stroke:#404040;stroke-width:0;stroke-linecap:round;stroke-dasharray:none;stroke-dashoffset:0;stroke-opacity:0;paint-order:fill markers stroke"
       d="m 159.26562,326.82812 c 3.13412,9.01368 6.26823,18.02735 9.40235,27.04102 5.48958,-1.01432 10.97917,-2.02865 16.46875,-3.04297 -5.6875,-10.79883 -11.375,-21.59765 -17.0625,-32.39648 -2.9362,2.79948 -5.8724,5.59896 -8.8086,8.39843 z" /><path
       id="path69"
       style="fill:#85b8e4;fill-opacity:1;stroke:#404040;stroke-width:0;stroke-linecap:round;stroke-dasharray:none;stroke-dashoffset:0;stroke-opacity:0;paint-order:fill markers stroke"
       d="m 309.66406,383.27344 c 0.008,2.71224 0.0169,5.42448 0.0254,8.13672 8.6849,4.04882 17.36979,8.09765 26.05469,12.14648 7.08203,-10.6582 14.16406,-21.31641 21.24609,-31.97461 -15.77539,3.89714 -31.55078,7.79427 -47.32617,11.69141 z" /><path
       id="path71"
       style="fill:#85b8e4;fill-opacity:1;stroke:#404040;stroke-width:0;stroke-linecap:round;stroke-dasharray:none;stroke-dashoffset:0;stroke-opacity:0;paint-order:fill markers stroke"
       d="m 216.27734,436.23828 c 7.06307,-4.35366 14.12684,-8.70617 21.18946,-13.06055 14.36221,8.13826 28.72392,16.27742 43.08593,24.41602 6.01433,-1.71615 12.02865,-3.43229 18.04297,-5.14844 -9.23437,-6.67968 -18.46875,-13.35937 -27.70312,-20.03906 -17.99805,-0.89583 -35.9961,-1.79167 -53.99414,-2.6875 -0.20703,5.50651 -0.41406,11.01302 -0.6211,16.51953 z" /><path
       id="path75"
       style="fill:#85b8e4;fill-opacity:1;stroke:#404040;stroke-width:0;stroke-linecap:round;stroke-dasharray:none;stroke-dashoffset:0;stroke-opacity:0;paint-order:fill markers stroke"
       d="m 11.337891,387.18945 c 0,20.63412 0,41.26823 0,61.90235 9.046224,-3.8444 18.092448,-7.68881 27.138671,-11.53321 -5.481906,-3.48286 -10.962719,-6.96744 -16.445312,-10.44921 -0.678103,-15.53333 -1.362459,-31.06639 -2.042969,-46.59961 -2.883463,2.22656 -5.766927,4.45312 -8.65039,6.67968 z" /></g><g
     inkscape:groupmode="layer"
     id="layer14"
     inkscape:label="Synergy4"
     transform="translate(0,0.11887)"><path
       id="path64"
       style="fill:#acd0ef;fill-opacity:1;stroke:#404040;stroke-width:0;stroke-linecap:round;stroke-dasharray:none;stroke-dashoffset:0;stroke-opacity:0;paint-order:fill markers stroke"
       d="m 85.373047,381.9043 c 16.332033,-8.16602 32.664063,-16.33203 48.996093,-24.49805 -1.33594,-0.7793 -2.67187,-1.55859 -4.00781,-2.33789 -14.9961,8.94531 -29.99219,17.89062 -44.988283,26.83594 z m -41.720703,20.85937 c 9.911458,-4.95573 19.822916,-9.91146 29.734375,-14.86719 -2.639564,0.26281 -5.287473,-0.46912 -7.586865,-1.74109 -7.775082,-3.41898 -15.550163,-6.83797 -23.325245,-10.25695 0.392578,8.95508 0.785157,17.91015 1.177735,26.86523 z" /><path
       id="path67"
       style="fill:#acd0ef;fill-opacity:1;stroke:#404040;stroke-width:0;stroke-linecap:round;stroke-dasharray:none;stroke-dashoffset:0;stroke-opacity:0;paint-order:fill markers stroke"
       d="m 254.46094,364.48438 c -11.69336,9.67578 -23.38672,19.35156 -35.08008,29.02734 -0.16341,1.20638 -0.32682,2.41276 -0.49024,3.61914 22.7142,1.12891 45.42839,2.25781 68.14258,3.38672 -0.043,-15.97852 -0.0859,-31.95703 -0.1289,-47.93555 -10.81446,3.96745 -21.62891,7.9349 -32.44336,11.90235 z" /></g><g
     inkscape:groupmode="layer"
     id="layer12"
     inkscape:label="Synergy2"
     transform="translate(0,0.11887)"><path
       id="path62"
       style="fill:#94c4ed;fill-opacity:1;stroke:#404040;stroke-width:0;stroke-linecap:round;stroke-dasharray:none;stroke-dashoffset:0;stroke-opacity:0;paint-order:fill markers stroke"
       d="m 11.337891,358.54102 c 5.802488,-4.486 11.606973,-8.96941 17.408203,-13.45704 9.315443,4.09233 18.630152,8.18633 27.945312,12.2793 -0.943359,-4.61784 -1.886718,-9.23568 -2.830078,-13.85351 -14.174479,-7.63347 -28.348958,-15.26693 -42.523437,-22.90039 0,12.64388 0,25.28776 0,37.93164 z" /><path
       id="path70"
       style="fill:#acd0ef;fill-opacity:1;stroke:#404040;stroke-width:0;stroke-linecap:round;stroke-dasharray:none;stroke-dashoffset:0;stroke-opacity:0;paint-order:fill markers stroke"
       d="m 349.56055,423.73633 c -3.24805,6.02018 -6.4961,12.04036 -9.74414,18.06055 8.92773,4.2207 17.85547,8.4414 26.7832,12.6621 8.91927,-4.77343 17.83854,-9.54687 26.75781,-14.32031 0,-20.82226 0,-41.64453 0,-62.46679 -2.81185,-2.39323 -5.6237,-4.78646 -8.43554,-7.17969 -11.78711,17.74804 -23.57422,35.49609 -35.36133,53.24414 z" /><path
       id="path72"
       style="fill:#94c4ed;fill-opacity:1;stroke:#404040;stroke-width:0;stroke-linecap:round;stroke-dasharray:none;stroke-dashoffset:0;stroke-opacity:0;paint-order:fill markers stroke"
       d="m 309.3418,416.30664 c -0.4574,1.55593 -1.24504,3.01998 -2.33008,4.22852 4.43489,3.20833 8.86979,6.41666 13.30469,9.625 1.25781,-2.33464 2.51562,-4.66927 3.77343,-7.00391 -4.91406,-2.29036 -9.82812,-4.58073 -14.74218,-6.87109 z" /><path
       id="path73"
       style="fill:#94c4ed;fill-opacity:1;stroke:#404040;stroke-width:0;stroke-linecap:round;stroke-dasharray:none;stroke-dashoffset:0;stroke-opacity:0;paint-order:fill markers stroke"
       d="m 132.76367,383.55469 c -5.91862,2.95963 -11.83724,5.91927 -17.75586,8.8789 15.1543,14.6849 30.3086,29.3698 45.46289,44.05469 10.94597,2.24935 21.89193,4.4987 32.83789,6.74805 0.39454,-10.53776 0.78907,-21.07552 1.1836,-31.61328 -9.17904,-11.46159 -18.35808,-22.92318 -27.53711,-34.38477 -11.39714,2.10547 -22.79427,4.21094 -34.19141,6.31641 z" /></g><g
     inkscape:groupmode="layer"
     id="layer13"
     inkscape:label="Synergy3"
     transform="translate(0,0.11887)"><path
       id="path66"
       style="fill:#74a4ce;fill-opacity:1;stroke:#404040;stroke-width:0;stroke-linecap:round;stroke-dasharray:none;stroke-dashoffset:0;stroke-opacity:0;paint-order:fill markers stroke"
       d="m 213.22852,362.45898 c -1.16571,4.64773 -5.75371,7.88769 -10.43037,8.1549 -3.51345,0.64954 -7.02689,1.29908 -10.54034,1.94862 2.23503,2.79102 4.47005,5.58203 6.70508,8.37305 3.70519,-2.96212 7.32453,-6.04402 10.99674,-9.05215 9.75369,-8.06791 19.50738,-16.13581 29.26107,-24.20371 1.03386,-2.7181 2.06771,-5.4362 3.10157,-8.1543 -6.76368,0 -13.52735,0 -20.29102,0 -2.93424,7.64453 -5.86849,15.28906 -8.80273,22.93359 z" /><path
       id="path68"
       style="fill:#74a4ce;fill-opacity:1;stroke:#404040;stroke-width:0;stroke-linecap:round;stroke-dasharray:none;stroke-dashoffset:0;stroke-opacity:0;paint-order:fill markers stroke"
       d="m 334.88477,332.96094 c -3.86614,2.1808 -7.61974,4.61341 -11.72535,6.32825 -4.53296,1.66077 -9.06591,3.32153 -13.59887,4.98229 0.0163,5.21941 0.0326,10.43881 0.0488,15.65821 25.28571,-6.25299 50.57218,-12.5029 75.85742,-18.75781 2.6296,2.24159 5.26051,4.48165 7.89062,6.72265 0,-4.41862 0,-8.83724 0,-13.25586 -1.81148,1.29557 -3.51615,2.76969 -5.4668,3.85156 -3.01857,1.44889 -6.50344,1.14093 -9.66167,0.37487 -13.72475,-2.38537 -27.44951,-4.77074 -41.17426,-7.15612 -0.72331,0.41732 -1.44662,0.83464 -2.16992,1.25196 z" /><path
       id="path74"
       style="fill:#74a4ce;fill-opacity:1;stroke:#404040;stroke-width:0;stroke-linecap:round;stroke-dasharray:none;stroke-dashoffset:0;stroke-opacity:0;paint-order:fill markers stroke"
       d="m 56.083984,421.88867 c 12.492188,7.94466 24.984375,15.88932 37.476563,23.83399 10.416013,-4.2194 20.832033,-8.43881 31.248043,-12.65821 -10.08333,-10.13606 -20.16666,-20.27213 -30.249996,-30.4082 -12.82487,6.41081 -25.64974,12.82161 -38.47461,19.23242 z" /></g><g
     inkscape:groupmode="layer"
     id="layer7"
     inkscape:label="Bodymod1"
     transform="translate(0,0.11887)"><path
       id="path47"
       style="fill:#9fc88c;fill-opacity:1;stroke:#404040;stroke-width:0;stroke-linecap:round;stroke-dasharray:none;stroke-dashoffset:0;stroke-opacity:0;paint-order:fill markers stroke"
       d="m 185.36914,208.16602 c 5.01172,12.67708 10.02344,25.35416 15.03516,38.03125 12.07291,-6.30144 24.14583,-12.60287 36.21875,-18.9043 -11.3112,-9.3457 -22.6224,-18.69141 -33.9336,-28.03711 -5.77343,2.97005 -11.54687,5.9401 -17.32031,8.91016 z" /><path
       id="path55"
       style="fill:#9fc88c;fill-opacity:1;stroke:#404040;stroke-width:0;stroke-linecap:round;stroke-dasharray:none;stroke-dashoffset:0;stroke-opacity:0;paint-order:fill markers stroke"
       d="m 70.677734,270.13086 c 2.510417,7.70833 5.020834,15.41667 7.53125,23.125 18.316407,-5.20768 36.632816,-10.41537 54.949216,-15.62305 -15.18359,-9.14648 -30.36718,-18.29297 -45.550778,-27.43945 -5.643229,6.64583 -11.286458,13.29167 -16.929688,19.9375 z" /><path
       id="path59"
       style="fill:#9fc88c;fill-opacity:1;stroke:#404040;stroke-width:0;stroke-linecap:round;stroke-dasharray:none;stroke-dashoffset:0;stroke-opacity:0;paint-order:fill markers stroke"
       d="m 230.73242,316.84961 c 6.73633,0 13.47266,0 20.20899,0 2.86067,-7.51432 5.72135,-15.02865 8.58203,-22.54297 -6.67058,-0.10742 -13.34115,-0.21484 -20.01172,-0.32226 -2.92643,7.62174 -5.85287,15.24348 -8.7793,22.86523 z" /></g><g
     inkscape:groupmode="layer"
     id="layer8"
     inkscape:label="Bodymod2"
     transform="translate(0,0.11887)"><path
       id="path48"
       style="fill:#a6d68e;fill-opacity:1;stroke:#404040;stroke-width:0;stroke-linecap:round;stroke-dasharray:none;stroke-dashoffset:0;stroke-opacity:0;paint-order:fill markers stroke"
       d="m 267.11914,220.36719 c 14.92578,3.9362 29.85156,7.87239 44.77734,11.80859 -4.2194,-9.41081 -8.4388,-18.82161 -12.6582,-28.23242 -11.847,-2.05208 -23.69401,-4.10417 -35.54101,-6.15625 1.14062,7.52669 2.28125,15.05338 3.42187,22.58008 z" /><path
       id="path50"
       style="fill:#a6d68e;fill-opacity:1;stroke:#404040;stroke-width:0;stroke-linecap:round;stroke-dasharray:none;stroke-dashoffset:0;stroke-opacity:0;paint-order:fill markers stroke"
       d="m 294.07031,285.47656 c 9.42904,9.50651 18.85808,19.01302 28.28711,28.51953 18.93815,-10.93554 37.8763,-21.87109 56.81446,-32.80664 -15.41146,-6.42968 -30.82292,-12.85937 -46.23438,-19.28906 -12.95573,7.85872 -25.91146,15.71745 -38.86719,23.57617 z" /><path
       id="path52"
       style="fill:#a6d68e;fill-opacity:1;stroke:#404040;stroke-width:0;stroke-linecap:round;stroke-dasharray:none;stroke-dashoffset:0;stroke-opacity:0;paint-order:fill markers stroke"
       d="m 118.29688,223.58594 c -10.18943,0.25789 -20.388434,0.16698 -30.582036,0.17773 24.592446,14.81576 49.184896,29.63151 73.777346,44.44727 6.29166,-3.67188 12.58333,-7.34375 18.875,-11.01563 -5.48959,-13.88541 -10.97917,-27.77083 -16.46875,-41.65625 -15.20052,2.68229 -30.40104,5.36459 -45.60156,8.04688 z" /><path
       id="path54"
       style="fill:#a6d68e;fill-opacity:1;stroke:#404040;stroke-width:0;stroke-linecap:round;stroke-dasharray:none;stroke-dashoffset:0;stroke-opacity:0;paint-order:fill markers stroke"
       d="m 11.337891,294.85742 c 17.600911,9.47656 35.201823,18.95313 52.802734,28.42969 C 59.177083,308.04102 54.213542,292.79492 49.25,277.54883 c -12.63737,-2.30599 -25.27474,-4.61198 -37.912109,-6.91797 0,8.07552 0,16.15104 0,24.22656 z" /><path
       id="path57"
       style="fill:#a6d68e;fill-opacity:1;stroke:#404040;stroke-width:0;stroke-linecap:round;stroke-dasharray:none;stroke-dashoffset:0;stroke-opacity:0;paint-order:fill markers stroke"
       d="m 200.73047,331.75391 c 4.88216,-12.71875 9.76432,-25.4375 14.64648,-38.15625 -11.68034,-0.1875 -23.36067,-0.375 -35.04101,-0.5625 6.79817,12.90625 13.59635,25.8125 20.39453,38.71875 z" /></g><g
     inkscape:groupmode="layer"
     id="layer9"
     inkscape:label="Bodymod3"
     transform="translate(0,0.11887)"><path
       id="path53"
       style="fill:#b2e09d;fill-opacity:1;stroke:#404040;stroke-width:0;stroke-linecap:round;stroke-dasharray:none;stroke-dashoffset:0;stroke-opacity:0;paint-order:fill markers stroke"
       d="m 11.337891,247.56445 c 14.061198,2.56511 28.122395,5.13021 42.183593,7.69532 4.794271,-5.64454 9.588542,-11.28907 14.382813,-16.9336 -8.05599,-4.85482 -16.111979,-9.70963 -24.167969,-14.56445 -10.799479,0 -21.598958,0 -32.398437,0 0,7.93424 0,15.86849 0,23.80273 z" /><path
       id="path51"
       style="fill:#b2e09d;fill-opacity:1;stroke:#404040;stroke-width:0;stroke-linecap:round;stroke-dasharray:none;stroke-dashoffset:0;stroke-opacity:0;paint-order:fill markers stroke"
       d="m 202.49219,270.71094 c 23.42448,0.37695 46.84896,0.7539 70.27343,1.13086 10.15626,-6.16146 20.3125,-12.32292 30.46876,-18.48438 -14.95183,-3.94206 -29.90365,-7.88411 -44.85547,-11.82617 -18.62891,9.72656 -37.25782,19.45313 -55.88672,29.17969 z" /><path
       id="path56"
       style="fill:#b2e09d;fill-opacity:1;stroke:#404040;stroke-width:0;stroke-linecap:round;stroke-dasharray:none;stroke-dashoffset:0;stroke-opacity:0;paint-order:fill markers stroke"
       d="m 99.490234,310.76367 c 12.634116,7.38021 25.268226,14.76042 37.902346,22.14063 -3.4707,-9.98568 -6.94141,-19.97136 -10.41211,-29.95703 -9.16341,2.60546 -18.32682,5.21093 -27.490236,7.8164 z" /><path
       id="path61"
       style="fill:#b2e09d;fill-opacity:1;stroke:#404040;stroke-width:0;stroke-linecap:round;stroke-dasharray:none;stroke-dashoffset:0;stroke-opacity:0;paint-order:fill markers stroke"
       d="m 367.72266,314.00781 c 4.15755,0.72461 8.3151,1.44922 12.47265,2.17383 4.38737,-3.23763 8.77474,-6.47526 13.16211,-9.71289 0,-2.42057 0,-4.84115 0,-7.26172 -8.54492,4.93359 -17.08984,9.86719 -25.63476,14.80078 z" /></g><g
     inkscape:groupmode="layer"
     id="layer10"
     inkscape:label="Bodymod4"
     transform="translate(0,0.11887)"><path
       id="path49"
       style="fill:#90b57f;fill-opacity:1;stroke:#404040;stroke-width:0;stroke-linecap:round;stroke-dasharray:none;stroke-dashoffset:0;stroke-opacity:0;paint-order:fill markers stroke"
       d="m 335.70703,207.3125 c -2.74831,1.90863 -6.3158,1.9965 -9.48828,1.33789 4.75911,10.61328 9.51823,21.22656 14.27734,31.83984 17.62045,7.35026 35.24089,14.70053 52.86133,22.05079 0,-15.29948 0,-30.59896 0,-45.89844 -8.23763,-9.57422 -16.47526,-19.14844 -24.71289,-28.72266 -10.97917,6.46419 -21.95833,12.92839 -32.9375,19.39258 z" /><path
       id="path58"
       style="fill:#90b57f;fill-opacity:1;stroke:#404040;stroke-width:0;stroke-linecap:round;stroke-dasharray:none;stroke-dashoffset:0;stroke-opacity:0;paint-order:fill markers stroke"
       d="m 268.19922,335.2793 c 10.59375,-3.88737 21.1875,-7.77474 31.78125,-11.66211 -6.58724,-6.63737 -13.17448,-13.27474 -19.76172,-19.91211 -4.00651,10.52474 -8.01302,21.04948 -12.01953,31.57422 z" /><path
       id="path60"
       style="fill:#90b57f;fill-opacity:1;stroke:#404040;stroke-width:0;stroke-linecap:round;stroke-dasharray:none;stroke-dashoffset:0;stroke-opacity:0;paint-order:fill markers stroke"
       d="m 148.81641,296.74805 c 0.75846,2.18359 1.51692,4.36718 2.27539,6.55078 1.99869,-1.9056 3.99739,-3.8112 5.99609,-5.7168 -0.48633,-0.92318 -0.97266,-1.84635 -1.45898,-2.76953 -2.27084,0.64518 -4.54167,1.29036 -6.8125,1.93555 z" /></g><g
     inkscape:label="Passive1"
     inkscape:groupmode="layer"
     id="layer1"
     transform="translate(83.28501,206.63068)"><path
       id="path3"
       style="fill:#e2b584;fill-opacity:1;stroke:#404040;stroke-width:0;stroke-linecap:round;stroke-dasharray:none;stroke-dashoffset:0;stroke-opacity:0;paint-order:fill markers stroke"
       d="m 114.64062,-79.34375 c 1.3073,1.226562 2.61459,2.453125 3.92188,3.679688 1.04297,-1.839844 2.08594,-3.679688 3.12891,-5.519532 -2.35026,0.613282 -4.70052,1.226563 -7.05079,1.839844 z" /><path
       id="path5"
       style="fill:#e2b584;fill-opacity:1;stroke:#404040;stroke-width:0;stroke-linecap:round;stroke-dasharray:none;stroke-dashoffset:0;stroke-opacity:0;paint-order:fill markers stroke"
       d="m 49.660156,-8.5351562 c 6.013672,-1.061198 12.027344,-2.1223958 18.041016,-3.1835938 -3.940755,-5.306641 -7.881511,-10.613281 -11.822266,-15.919922 -2.072916,6.367839 -4.145833,12.735677 -6.21875,19.1035158 z" /><path
       id="path12"
       style="fill:#e2b584;fill-opacity:1;stroke:#404040;stroke-width:0;stroke-linecap:round;stroke-dasharray:none;stroke-dashoffset:0;stroke-opacity:0;paint-order:fill markers stroke"
       d="m -59.677734,-117.86328 c 16.526041,12.44596 33.052083,24.891926 49.578125,37.337889 9.14453088,-9.735677 18.2890621,-19.471354 27.433593,-29.207029 -10.2018225,-8.25065 -20.4036455,-16.5013 -30.605468,-24.75196 -15.46875,5.54037 -30.9375,11.08073 -46.40625,16.6211 z" /><path
       id="path16"
       style="fill:#e2b584;fill-opacity:1;stroke:#404040;stroke-width:0;stroke-linecap:round;stroke-dasharray:none;stroke-dashoffset:0;stroke-opacity:0;paint-order:fill markers stroke"
       d="m 68.25,-192.85156 c 17.565102,3.85621 35.15343,7.62237 52.68176,11.63016 9.5846,2.86091 19.16919,5.72182 28.75379,8.58273 9.37304,-7.51172 18.74609,-15.02344 28.11914,-22.53516 -37.15886,0 -74.31771,0 -111.476565,0 0.640625,0.77409 1.28125,1.54818 1.921875,2.32227 z" /><path
       id="path17"
       style="fill:#e2b584;fill-opacity:1;stroke:#404040;stroke-width:0;stroke-linecap:round;stroke-dasharray:none;stroke-dashoffset:0;stroke-opacity:0;paint-order:fill markers stroke"
       d="m 110.01367,-148.17969 c 14.59851,14.07011 29.19542,28.14188 43.79492,42.21094 6.35351,11.048274 12.70986,22.094927 19.06446,33.142578 3.33659,2.701172 6.67317,5.402344 10.00976,8.103516 0.47136,-9.106771 0.94271,-18.213542 1.41407,-27.320313 -13.10157,-19.442061 -26.20313,-38.884111 -39.30469,-58.326171 -8.36589,-2.5 -16.73177,-5 -25.09766,-7.5 -3.29362,3.22982 -6.58724,6.45963 -9.88086,9.68945 z" /><path
       id="path21"
       style="fill:#e2b584;fill-opacity:1;stroke:#404040;stroke-width:0;stroke-linecap:round;stroke-dasharray:none;stroke-dashoffset:0;stroke-opacity:0;paint-order:fill markers stroke"
       d="m 250.69141,-99.617188 c 19.79362,7.847006 39.58724,15.694011 59.38086,23.541016 0,-23.794922 0,-47.589848 0,-71.384768 -10.25326,-0.97396 -20.50651,-1.94791 -30.75977,-2.92187 -9.54036,16.92187 -19.08073,33.84375 -28.62109,50.765622 z" /><path
       id="path23"
       style="fill:#e2b584;fill-opacity:1;stroke:#404040;stroke-width:0;stroke-linecap:round;stroke-dasharray:none;stroke-dashoffset:0;stroke-opacity:0;paint-order:fill markers stroke"
       d="m 150.95508,-10.603516 c 2.37435,1.9615889 4.7487,3.9231775 7.12304,5.884766 -0.30924,-2.0442708 -0.61848,-4.0885417 -0.92773,-6.132812 -2.0651,0.08268 -4.13021,0.165364 -6.19531,0.248046 z" /><path
       id="path24"
       style="fill:#e2b584;fill-opacity:1;stroke:#404040;stroke-width:0;stroke-linecap:round;stroke-dasharray:none;stroke-dashoffset:0;stroke-opacity:0;paint-order:fill markers stroke"
       d="m 293.34766,-44.060547 c 5.57487,6.473958 11.14974,12.947917 16.72461,19.421875 0,-7.243489 0,-14.486979 0,-21.730469 -5.57487,0.769532 -11.14974,1.539063 -16.72461,2.308594 z m -41.62305,5.740235 c 0.82812,3.916015 1.65625,7.832031 2.48437,11.748046 8.94271,-5.263672 17.88542,-10.527343 26.82813,-15.791015 -9.77083,1.347656 -19.54167,2.695312 -29.3125,4.042969 z" /></g><g
     inkscape:groupmode="layer"
     id="layer3"
     inkscape:label="Passive2"
     transform="translate(0,0.11887)"><path
       id="path1"
       style="fill:#e2bf97;fill-opacity:1;stroke:#404040;stroke-width:0;stroke-linecap:round;stroke-opacity:0;paint-order:fill markers stroke"
       d="m 150.70117,156.35352 c 7.9056,10.64388 15.8112,21.28776 23.7168,31.93164 6.16015,-3.16732 12.32031,-6.33464 18.48047,-9.50196 0.10221,-8.31966 0.20442,-16.63932 0.30664,-24.95898 -6.16602,-5.77995 -12.33203,-11.5599 -18.49805,-17.33984 -8.00195,6.62304 -16.0039,13.24609 -24.00586,19.86914 z" /><path
       id="path7"
       style="fill:#e2bf97;fill-opacity:1;stroke:#404040;stroke-width:0;stroke-linecap:round;stroke-dasharray:none;stroke-dashoffset:0;stroke-opacity:0;paint-order:fill markers stroke"
       d="m 141.38477,93.964844 c 11.58919,5.149739 23.17838,10.299476 34.76757,15.449216 9.82552,-2.56445 19.65105,-5.1289 29.47657,-7.69336 -10.03386,-9.672523 -20.06771,-19.345049 -30.10157,-29.017575 -11.38086,7.08724 -22.76172,14.174479 -34.14257,21.261719 z" /><path
       id="path8"
       style="fill:#e2bf97;fill-opacity:1;stroke:#404040;stroke-width:0;stroke-linecap:round;stroke-dasharray:none;stroke-dashoffset:0;stroke-opacity:0;paint-order:fill markers stroke"
       d="m 96.423828,134.37109 c 7.422522,1.63086 14.845052,3.26172 22.267582,4.89258 -2.19206,-7.19726 -4.38412,-14.39453 -6.57618,-21.59179 -5.23046,5.5664 -10.46093,11.13281 -15.691402,16.69921 z" /><path
       id="path18"
       style="fill:#e2bf97;fill-opacity:1;stroke:#404040;stroke-width:0;stroke-linecap:round;stroke-dasharray:none;stroke-dashoffset:0;stroke-opacity:0;paint-order:fill markers stroke"
       d="m 250.63867,48.759766 c 11.54232,17.127604 23.08464,34.255208 34.62695,51.382814 8.65495,0.30729 17.3099,0.61458 25.96485,0.92187 10.06185,-17.849606 20.1237,-35.699216 30.18555,-53.548825 C 325.54557,36.394531 309.67513,25.273438 293.80469,14.152344 279.41602,25.688151 265.02734,37.223958 250.63867,48.759766 Z" /><path
       id="path19"
       style="fill:#e2bf97;fill-opacity:1;stroke:#404040;stroke-width:0;stroke-linecap:round;stroke-dasharray:none;stroke-dashoffset:0;stroke-opacity:0;paint-order:fill markers stroke"
       d="m 260.86719,174.26758 c 3.98047,0.68945 7.96093,1.3789 11.9414,2.06836 -4.15261,-3.36099 -8.30464,-6.72272 -12.45703,-10.08399 0.17188,2.67188 0.34375,5.34375 0.51563,8.01563 z m 12.66601,2.14844 c -0.0791,0.0913 1.11327,0.20846 1.52661,0.30977 13.35115,2.31341 26.70231,4.62682 40.05347,6.94023 -0.8763,-4.13868 -1.7526,-8.27735 -2.6289,-12.41602 -12.98373,1.72201 -25.96745,3.44401 -38.95118,5.16602 z" /><path
       id="path11"
       style="fill:#e2bf97;fill-opacity:1;stroke:#404040;stroke-width:0;stroke-linecap:round;stroke-dasharray:none;stroke-dashoffset:0;stroke-opacity:0;paint-order:fill markers stroke"
       d="m 11.337891,133.29492 c 8.21607,-1.34677 16.413126,-2.84139 24.666015,-3.93554 1.346354,0.0163 2.692709,0.0326 4.039063,0.0488 -9.56836,-7.20573 -19.136719,-14.41146 -28.705078,-21.61718 0,8.5013 0,17.0026 0,25.5039 z" /></g><g
     inkscape:groupmode="layer"
     id="layer4"
     inkscape:label="Passive3"
     transform="translate(0,0.11887)"><path
       id="path9"
       style="fill:#d0aa7e;fill-opacity:1;stroke:#404040;stroke-width:0;stroke-linecap:round;stroke-dasharray:none;stroke-dashoffset:0;stroke-opacity:0;paint-order:fill markers stroke"
       d="m 65.876953,174.08203 c 14.590495,7.41341 29.18099,14.82682 43.771487,22.24024 3.62955,-11.14909 7.25911,-22.29818 10.88867,-33.44727 -15.778,-3.46615 -31.55599,-6.93229 -47.333985,-10.39844 -6.200521,-0.0723 -12.401042,-0.14453 -18.601563,-0.21679 3.758464,7.27408 7.516928,14.54817 11.275391,21.82226 z" /><path
       id="path13"
       style="fill:#d0aa7e;fill-opacity:1;stroke:#404040;stroke-width:0;stroke-linecap:round;stroke-dasharray:none;stroke-dashoffset:0;stroke-opacity:0;paint-order:fill markers stroke"
       d="M 11.425781,68.925781 C 24.158203,64.363932 36.890625,59.802083 49.623047,55.240234 36.973307,44.779297 24.323568,34.318359 11.673828,23.857422 11.591146,38.880208 11.508464,53.902995 11.425781,68.925781 Z" /><path
       id="path15"
       style="fill:#d0aa7e;fill-opacity:1;stroke:#404040;stroke-width:0;stroke-linecap:round;stroke-dasharray:none;stroke-dashoffset:0;stroke-opacity:0;paint-order:fill markers stroke"
       d="m 111.20508,76.314453 c 2.27799,1.817708 4.55599,3.635417 6.83398,5.453125 17.30534,-10.779297 34.61068,-21.558594 51.91602,-32.33789 2.37174,-2.32487 4.74349,-4.64974 7.11523,-6.97461 -9.31445,-2.033854 -18.6289,-4.067708 -27.94336,-6.101562 -12.64062,13.320312 -25.28125,26.640625 -37.92187,39.960937 z" /><path
       id="path20"
       style="fill:#d0aa7e;fill-opacity:1;stroke:#404040;stroke-width:0;stroke-linecap:round;stroke-dasharray:none;stroke-dashoffset:0;stroke-opacity:0;paint-order:fill markers stroke"
       d="m 288.35938,151.57422 c 24.03941,-3.18481 48.0662,-6.46368 72.08789,-9.7793 -15.03191,-5.95963 -30.06381,-11.91927 -45.09571,-17.8789 -8.50521,-0.30144 -17.01041,-0.60287 -25.51562,-0.9043 -0.49219,9.52083 -0.98438,19.04167 -1.47656,28.5625 z" /><path
       id="path22"
       style="fill:#d0aa7e;fill-opacity:1;stroke:#404040;stroke-width:0;stroke-linecap:round;stroke-dasharray:none;stroke-dashoffset:0;stroke-opacity:0;paint-order:fill markers stroke"
       d="m 360.38281,33.136719 c 10.99154,1.046224 21.98308,2.092448 32.97461,3.138672 0,-8.3125 0,-16.625 0,-24.9375 -21.36002,0 -42.72005,0 -64.08008,0 10.36849,7.266276 20.73698,14.532552 31.10547,21.798828 z" /></g><g
     inkscape:groupmode="layer"
     id="layer6"
     inkscape:label="Passive4"
     transform="translate(0,0.11887)"><path
       id="path4"
       style="fill:#d6b186;fill-opacity:1;stroke:#404040;stroke-width:0;stroke-linecap:round;stroke-dasharray:none;stroke-dashoffset:0;stroke-opacity:0;paint-order:fill markers stroke"
       d="m 215.91016,152.01367 c -0.0911,7.3099 -0.1823,14.61979 -0.27344,21.92969 7.47526,-0.30013 14.95052,-0.60026 22.42578,-0.90039 -0.61263,-9.50977 -1.22526,-19.01953 -1.83789,-28.5293 -2.69857,-4.6875 -5.39714,-9.375 -8.0957,-14.0625 -4.07292,7.1875 -8.14584,14.375 -12.21875,21.5625 z" /><path
       id="path6"
       style="fill:#d6b186;fill-opacity:1;stroke:#404040;stroke-width:0;stroke-linecap:round;stroke-dasharray:none;stroke-dashoffset:0;stroke-opacity:0;paint-order:fill markers stroke"
       d="m 141.06836,134.9082 c 4.26432,-3.5306 8.52865,-7.06119 12.79297,-10.59179 -6.17643,-2.74545 -12.35287,-5.49089 -18.5293,-8.23633 1.91211,6.27604 3.82422,12.55208 5.73633,18.82812 z" /><path
       id="path10"
       style="fill:#d6b186;fill-opacity:1;stroke:#404040;stroke-width:0;stroke-linecap:round;stroke-dasharray:none;stroke-dashoffset:0;stroke-opacity:0;paint-order:fill markers stroke"
       d="m 11.337891,156.27148 c 0,14.93816 0,29.87631 0,44.81446 19.20638,0 38.41276,0 57.61914,0 -6.628365,-3.36437 -13.255845,-6.73048 -19.884765,-10.09375 -6.498339,-12.5881 -13.000277,-25.17434 -19.5,-37.76172 -6.078125,1.01367 -12.15625,2.02734 -18.234375,3.04101 z" /><path
       id="path14"
       style="fill:#d6b186;fill-opacity:1;stroke:#404040;stroke-width:0;stroke-linecap:round;stroke-dasharray:none;stroke-dashoffset:0;stroke-opacity:0;paint-order:fill markers stroke"
       d="m 93.521484,62.023438 c 12.212896,-12.875 24.425786,-25.750001 36.638676,-38.625 -3.32422,-4.020183 -6.64844,-8.040365 -9.97266,-12.060547 -29.492188,0 -58.984375,0 -88.476562,0 20.603515,16.895182 41.207031,33.790364 61.810546,50.685547 z" /></g></svg>
