<?xml version="1.0" encoding="UTF-8" standalone="no"?>
<!-- Created with Inkscape (http://www.inkscape.org/) -->

<svg
   width="169.97189mm"
   height="301.75809mm"
   viewBox="0 0 404.69498 718.47164"
   version="1.1"
   id="svg1"
   xml:space="preserve"
   sodipodi:docname="UpgrageOverviewPanel2.svg"
   inkscape:version="1.4.2 (f4327f4, 2025-05-13)"
   inkscape:export-filename="UpgrageOverviewPaneltest1.png"
   inkscape:export-xdpi="96"
   inkscape:export-ydpi="96"
   xmlns:inkscape="http://www.inkscape.org/namespaces/inkscape"
   xmlns:sodipodi="http://sodipodi.sourceforge.net/DTD/sodipodi-0.dtd"
   xmlns="http://www.w3.org/2000/svg"
   xmlns:svg="http://www.w3.org/2000/svg"><sodipodi:namedview
     id="namedview1"
     pagecolor="#ffffff"
     bordercolor="#000000"
     borderopacity="0.25"
     inkscape:showpageshadow="2"
     inkscape:pageopacity="0.0"
     inkscape:pagecheckerboard="0"
     inkscape:deskcolor="#d1d1d1"
     inkscape:document-units="mm"
     inkscape:zoom="1.1508788"
     inkscape:cx="149.45101"
     inkscape:cy="627.78114"
     inkscape:window-width="3840"
     inkscape:window-height="2054"
     inkscape:window-x="-11"
     inkscape:window-y="-11"
     inkscape:window-maximized="1"
     inkscape:current-layer="layer4" /><defs
     id="defs1" /><g
     inkscape:groupmode="layer"
     id="layer2"
     inkscape:label="Marker"
     transform="translate(0,0.11887)" /><g
     inkscape:groupmode="layer"
     id="layer19"
     inkscape:label="Special1"
     transform="translate(0,0.11887)"><path
       id="path86"
       style="fill:#865ccc;fill-opacity:1;stroke:#404040;stroke-width:0;stroke-linecap:round;stroke-dasharray:none;stroke-dashoffset:0;stroke-opacity:0;paint-order:fill markers stroke"
       d="M 1.4257812,589.41797 C 12.167969,608.47786 22.910156,627.53776 33.652344,646.59766 59.044271,632.85286 84.436198,619.10807 109.82812,605.36328 100.88672,595.5319 91.945312,585.70052 83.003906,575.86914 60.848958,570.23633 38.69401,564.60352 16.539062,558.9707 11.501302,569.11979 6.4635417,579.26888 1.4257812,589.41797 Z" /><path
       id="path90"
       style="fill:#865ccc;fill-opacity:1;stroke:#404040;stroke-width:0;stroke-linecap:round;stroke-dasharray:none;stroke-dashoffset:0;stroke-opacity:0;paint-order:fill markers stroke"
       d="m 10.044922,717.09375 c 59.189453,0 118.378908,0 177.568358,0 -21.56459,-8.26549 -43.13983,-16.50577 -64.69776,-24.78702 -1.81624,-0.86201 -3.63248,-1.72402 -5.44872,-2.58603 -35.807295,9.12435 -71.614586,18.2487 -107.421878,27.37305 z" /><path
       id="path92"
       style="fill:#865ccc;fill-opacity:1;stroke:#404040;stroke-width:0;stroke-linecap:round;stroke-dasharray:none;stroke-dashoffset:0;stroke-opacity:0;paint-order:fill markers stroke"
       d="m 265.72266,671.99219 c 0.49088,0.36133 0.98177,0.72265 1.47265,1.08398 -20.92421,13.45129 -41.85041,26.89951 -62.77539,40.34961 40.41081,-14.50586 80.82162,-29.01172 121.23242,-43.51758 -23.34895,-1.78841 -46.69791,-3.57682 -70.04687,-5.36523 3.37239,2.48307 6.74479,4.96614 10.11719,7.44922 z" /><path
       id="path95"
       style="fill:#865ccc;fill-opacity:1;stroke:#404040;stroke-width:0;stroke-linecap:round;stroke-dasharray:none;stroke-dashoffset:0;stroke-opacity:0;paint-order:fill markers stroke"
       d="m 294.83203,604.25781 c 12.44336,21.09115 24.88672,42.18229 37.33008,63.27344 23.75781,-9.51432 47.51562,-19.02865 71.27344,-28.54297 0,-17.06901 0,-34.13802 0,-51.20703 -18.00326,-13.62435 -36.00651,-27.2487 -54.00977,-40.87305 -18.19792,19.11654 -36.39583,38.23308 -54.59375,57.34961 z" /></g><g
     inkscape:groupmode="layer"
     id="layer21"
     inkscape:label="Special3"
     transform="translate(0,0.11887)"><path
       id="path88"
       style="fill:#a381dc;fill-opacity:1;stroke:#404040;stroke-width:0;stroke-linecap:round;stroke-dasharray:none;stroke-dashoffset:0;stroke-opacity:0;paint-order:fill markers stroke"
       d="m 35.945312,648.2207 c 29.071615,13.80339 58.14323,27.60677 87.214848,41.41016 16.86849,-22.32878 33.73698,-44.65755 50.60546,-66.98633 -20.58528,-5.19922 -41.17057,-10.39844 -61.75585,-15.59765 -25.354822,13.7246 -50.70964,27.44921 -76.064458,41.17382 z" /><path
       id="path93"
       style="fill:#a381dc;fill-opacity:1;stroke:#404040;stroke-width:0;stroke-linecap:round;stroke-dasharray:none;stroke-dashoffset:0;stroke-opacity:0;paint-order:fill markers stroke"
       d="m 206.93555,628.70898 c 14.94661,11.00456 29.89323,22.00912 44.83984,33.01368 25.84505,1.97981 51.6901,3.95963 77.53516,5.93945 -12.29232,-20.83594 -24.58464,-41.67188 -36.87696,-62.50781 -32.09114,-8.9336 -64.18229,-17.86719 -96.27343,-26.80078 3.59179,16.78515 7.18359,33.57031 10.77539,50.35546 z" /></g><g
     inkscape:groupmode="layer"
     id="layer22"
     inkscape:label="Special4"
     transform="translate(0,0.11887)"><path
       id="path94"
       style="fill:#724eaf;fill-opacity:1;stroke:#404040;stroke-width:0;stroke-linecap:round;stroke-dasharray:none;stroke-dashoffset:0;stroke-opacity:0;paint-order:fill markers stroke"
       d="m 277.85352,554.38281 c -23.09382,-0.28043 -46.19032,-0.60354 -69.28516,-0.90039 -4.06966,7.4375 -8.13932,14.875 -12.20898,22.3125 32.17057,8.95573 64.34114,17.91146 96.51171,26.86719 17.70834,-18.60221 35.41667,-37.20443 53.125,-55.80664 -22.71419,2.50911 -45.42838,5.01823 -68.14257,7.52734 z" /><path
       id="path96"
       style="fill:#724eaf;fill-opacity:1;stroke:#404040;stroke-width:0;stroke-linecap:round;stroke-dasharray:none;stroke-dashoffset:0;stroke-opacity:0;paint-order:fill markers stroke"
       d="m 201.39844,717.09375 c 67.3457,0 134.6914,0 202.03711,0 0,-25.14583 0,-50.29167 0,-75.4375 -67.34571,25.14583 -134.69141,50.29167 -202.03711,75.4375 z" /></g><g
     inkscape:groupmode="layer"
     id="layer20"
     inkscape:label="Special2"
     transform="translate(0,0.11887)"><path
       id="path87"
       style="fill:#9970df;fill-opacity:1;stroke:#404040;stroke-width:0;stroke-linecap:round;stroke-dasharray:none;stroke-dashoffset:0;stroke-opacity:0;paint-order:fill markers stroke"
       d="m 85.427734,574.78906 c 9.030599,9.92969 18.061196,19.85938 27.091796,29.78906 30.54232,7.7142 61.08464,15.42839 91.62695,23.14258 -3.59244,-16.78841 -7.18489,-33.57682 -10.77734,-50.36523 -22.25325,-14.4349 -44.50651,-28.86979 -66.75976,-43.30469 -13.72722,13.57943 -27.454432,27.15886 -41.181646,40.73828 z" /><path
       id="path89"
       style="fill:#9970df;fill-opacity:1;stroke:#404040;stroke-width:0;stroke-linecap:round;stroke-dasharray:none;stroke-dashoffset:0;stroke-opacity:0;paint-order:fill markers stroke"
       d="M 1.2597656,716.73242 C 38.807943,707.16406 76.35612,697.5957 113.9043,688.02734 86.689494,675.10538 59.474366,662.18411 32.259766,649.26172 21.927388,630.92655 11.59294,612.59254 1.2597656,594.25781 c 0,40.82487 0,81.64974 0,122.47461 z" /><path
       id="path91"
       style="fill:#9970df;fill-opacity:1;stroke:#404040;stroke-width:0;stroke-linecap:round;stroke-dasharray:none;stroke-dashoffset:0;stroke-opacity:0;paint-order:fill markers stroke"
       d="m 125.5625,690.63477 c 22.90495,8.77148 45.8099,17.54296 68.71484,26.31445 22.82552,-14.67188 45.65105,-29.34375 68.47657,-44.01563 -19.16602,-14.11198 -38.33203,-28.22395 -57.49805,-42.33593 -9.61263,-2.42774 -19.22526,-4.85547 -28.83789,-7.28321 -16.95182,22.44011 -33.90365,44.88021 -50.85547,67.32032 z" /></g><g
     inkscape:groupmode="layer"
     id="layer15"
     inkscape:label="Active1"
     transform="translate(0,0.11887)"><path
       id="path77"
       style="fill:#d67965;fill-opacity:1;stroke:#404040;stroke-width:0;stroke-linecap:round;stroke-dasharray:none;stroke-dashoffset:0;stroke-opacity:0;paint-order:fill markers stroke"
       d="M 1.2597656,584.08203 C 10.942708,564.57682 20.625651,545.07161 30.308594,525.56641 20.625651,507.46354 10.942708,489.36068 1.2597656,471.25781 c 0,37.60808 0,75.21615 0,112.82422 z" /><path
       id="path80"
       style="fill:#d67965;fill-opacity:1;stroke:#404040;stroke-width:0;stroke-linecap:round;stroke-dasharray:none;stroke-dashoffset:0;stroke-opacity:0;paint-order:fill markers stroke"
       d="m 204.81055,458.10742 c -0.60127,0.51791 -1.39455,-0.0521 -2.09148,-0.0793 -7.53006,-1.54648 -15.06011,-3.09297 -22.59016,-4.63945 -8.38477,12.70378 -16.76954,25.40755 -25.1543,38.11133 19.97982,6.13021 39.95963,12.26042 59.93945,18.39062 20.64844,-16.63867 41.29688,-33.27734 61.94532,-49.91601 -13.03972,-7.38932 -26.07943,-14.77865 -39.11915,-22.16797 -10.97656,6.76693 -21.95312,13.53385 -32.92968,20.30078 z" /><path
       id="path82"
       style="fill:#d67965;fill-opacity:1;stroke:#404040;stroke-width:0;stroke-linecap:round;stroke-dasharray:none;stroke-dashoffset:0;stroke-opacity:0;paint-order:fill markers stroke"
       d="m 367.81445,468.09961 c -12.46419,20.42187 -24.92838,40.84375 -37.39257,61.26562 24.33789,18.41928 48.67578,36.83855 73.01367,55.25782 0,-45.19662 0,-90.39323 0,-135.58985 -11.8737,6.35547 -23.7474,12.71094 -35.6211,19.06641 z" /></g><g
     inkscape:groupmode="layer"
     id="layer16"
     inkscape:label="Active2"
     transform="translate(0,0.11887)"><path
       id="path78"
       style="fill:#e58f7d;fill-opacity:1;stroke:#404040;stroke-width:0;stroke-linecap:round;stroke-dasharray:none;stroke-dashoffset:0;stroke-opacity:0;paint-order:fill markers stroke"
       d="m 107.01172,522.36523 c 0.15682,0.76929 -0.74732,1.05148 -1.14798,1.56563 -7.135462,6.52837 -14.271775,13.05581 -21.406709,19.58476 -17.360137,-5.48141 -34.720033,-10.9636 -52.080078,-16.44531 -4.897135,9.86459 -9.794271,19.72917 -14.691406,29.59375 21.871745,5.56055 43.743489,11.1211 65.615234,16.68164 C 97.150391,559.64518 111,545.94466 124.84961,532.24414 c -5.75912,-9.46484 -11.51823,-18.92969 -17.27734,-28.39453 -0.18685,6.17187 -0.3737,12.34375 -0.56055,18.51562 z" /><path
       id="path83"
       style="fill:#e58f7d;fill-opacity:1;stroke:#404040;stroke-width:0;stroke-linecap:round;stroke-dasharray:none;stroke-dashoffset:0;stroke-opacity:0;paint-order:fill markers stroke"
       d="m 279.21484,551.69727 c 22.26433,-2.45899 44.52865,-4.91797 66.79297,-7.37696 -5.99879,-4.52005 -11.96551,-9.09504 -17.98433,-13.58078 -14.20835,-6.15731 -28.4167,-12.31463 -42.62504,-18.47195 -2.0612,13.14323 -4.1224,26.28646 -6.1836,39.42969 z" /></g><g
     inkscape:groupmode="layer"
     id="layer18"
     inkscape:label="Active4"
     transform="translate(0,0.11887)"><path
       id="path84"
       style="fill:#ce6954;fill-opacity:1;stroke:#404040;stroke-width:0;stroke-linecap:round;stroke-dasharray:none;stroke-dashoffset:0;stroke-opacity:0;paint-order:fill markers stroke"
       d="m 216.33984,511.97656 c -2.33658,12.9987 -4.67317,25.9974 -7.00976,38.9961 22.43685,0.29492 44.8737,0.58984 67.31054,0.88476 2.1237,-13.54101 4.2474,-27.08203 6.3711,-40.62304 -14.2513,-6.17644 -28.50261,-12.35287 -42.75391,-18.5293 -7.97265,6.42383 -15.94531,12.84765 -23.91797,19.27148 z" /><path
       id="path79"
       style="fill:#ce6954;fill-opacity:1;stroke:#404040;stroke-width:0;stroke-linecap:round;stroke-dasharray:none;stroke-dashoffset:0;stroke-opacity:0;paint-order:fill markers stroke"
       d="m 94.458984,458.94727 c 4.649087,5.81119 9.298186,11.62238 13.947266,17.43359 -0.23024,7.61721 -0.46239,15.23437 -0.69336,22.85156 6.25781,10.28581 12.51563,20.57162 18.77344,30.85742 16.99544,-25.74935 33.99088,-51.49869 50.98633,-77.24804 -7.71157,-1.58412 -15.42334,-3.16719 -23.13477,-4.75196 -3.24706,-3.14748 -6.49485,-6.29421 -9.74219,-9.4414 -16.71224,6.76627 -33.42448,13.53255 -50.136716,20.29883 z" /></g><g
     inkscape:groupmode="layer"
     id="layer17"
     inkscape:label="Active3"
     transform="translate(0,0.11887)"><path
       id="path76"
       style="fill:#e3a395;fill-opacity:1;stroke:#404040;stroke-width:0;stroke-linecap:round;stroke-dasharray:none;stroke-dashoffset:0;stroke-opacity:0;paint-order:fill markers stroke"
       d="m 1.7617188,466.85156 c 10.2779952,19.2155 20.5559892,38.43099 30.8339842,57.64649 17.077474,5.39257 34.154948,10.78515 51.232422,16.17773 6.893229,-6.30599 13.786458,-12.61198 20.679685,-18.91797 0.45052,-14.84179 0.90104,-29.68359 1.35157,-44.52539 -4.76563,-5.95638 -9.531255,-11.91276 -14.29688,-17.86914 -9.638672,-6.1276 -19.277344,-12.25521 -28.916016,-18.38281 -20.294921,8.6237 -40.589843,17.24739 -60.8847652,25.87109 z" /><path
       id="path81"
       style="fill:#e3a395;fill-opacity:1;stroke:#404040;stroke-width:0;stroke-linecap:round;stroke-dasharray:none;stroke-dashoffset:0;stroke-opacity:0;paint-order:fill markers stroke"
       d="m 279.68555,460.93359 c -12.40365,9.9948 -24.80729,19.98959 -37.21094,29.98438 28.59115,12.39062 57.18229,24.78125 85.77344,37.17187 12.28711,-20.13346 24.57422,-40.26692 36.86133,-60.40039 -13.68881,-6.47265 -27.37761,-12.94531 -41.06641,-19.41797 -14.78581,4.22071 -29.57162,8.44141 -44.35742,12.66211 z" /><path
       id="path85"
       style="fill:#e3a395;fill-opacity:1;stroke:#404040;stroke-width:0;stroke-linecap:round;stroke-dasharray:none;stroke-dashoffset:0;stroke-opacity:0;paint-order:fill markers stroke"
       d="m 128.19336,532.07617 c 21.94792,14.23698 43.89583,28.47396 65.84375,42.71094 4.19531,-7.66667 8.39062,-15.33333 12.58594,-23 2.37435,-13.20638 4.74869,-26.41276 7.12304,-39.61914 -20.07291,-6.15886 -40.14583,-12.31771 -60.21875,-18.47656 -8.44466,12.79492 -16.88932,25.58984 -25.33398,38.38476 z" /></g><g
     inkscape:groupmode="layer"
     id="layer11"
     inkscape:label="Synergy1"
     transform="translate(0,0.11887)"><path
       id="path63"
       style="fill:#85b8e4;fill-opacity:1;stroke:#404040;stroke-width:0;stroke-linecap:round;stroke-dasharray:none;stroke-dashoffset:0;stroke-opacity:0;paint-order:fill markers stroke"
       d="m 84.878906,346.29297 c 0.32487,0.99674 0.64974,1.99349 0.97461,2.99023 -6.722777,-3.6177 -13.44393,-7.23843 -20.166016,-10.85742 2.459635,12.05143 4.919271,24.10287 7.378906,36.1543 18.254558,-10.88867 36.509114,-21.77735 54.763674,-32.66602 -18.26628,-10.67122 -36.532554,-21.34245 -54.79883,-32.01367 3.949219,12.13086 7.898438,24.26172 11.847656,36.39258 z" /><path
       id="path65"
       style="fill:#85b8e4;fill-opacity:1;stroke:#404040;stroke-width:0;stroke-linecap:round;stroke-dasharray:none;stroke-dashoffset:0;stroke-opacity:0;paint-order:fill markers stroke"
       d="m 147.625,324.00781 c 4.03237,11.60163 8.0662,23.20275 12.09766,34.80469 -7.36142,3.67821 -14.72124,7.35961 -22.08204,11.03906 20.93165,-3.86784 41.86329,-7.73567 62.79493,-11.60351 -9.88607,-18.77279 -19.77214,-37.54558 -29.65821,-56.31836 -7.71744,7.35937 -15.43489,14.71875 -23.15234,22.07812 z" /><path
       id="path69"
       style="fill:#85b8e4;fill-opacity:1;stroke:#404040;stroke-width:0;stroke-linecap:round;stroke-dasharray:none;stroke-dashoffset:0;stroke-opacity:0;paint-order:fill markers stroke"
       d="m 299.56836,375.38281 c 0.0195,7.48828 0.0391,14.97656 0.0586,22.46485 13.23698,6.16862 26.47396,12.33724 39.71094,18.50586 13.45703,-20.25717 26.91406,-40.51433 40.37109,-60.77149 -26.71354,6.60026 -53.42708,13.20052 -80.14062,19.80078 z" /><path
       id="path71"
       style="fill:#85b8e4;fill-opacity:1;stroke:#404040;stroke-width:0;stroke-linecap:round;stroke-dasharray:none;stroke-dashoffset:0;stroke-opacity:0;paint-order:fill markers stroke"
       d="m 205.49609,454.72461 c 10.72992,-6.61442 21.45901,-13.23018 32.18946,-19.84375 13.857,7.85181 27.7135,15.70449 41.57031,23.55664 14.01953,-4.00195 28.03906,-8.00391 42.05859,-12.00586 C 305.67383,435.12109 290.0332,423.81055 274.39258,412.5 c -22.39714,-1.11458 -44.79427,-2.22917 -67.19141,-3.34375 -0.56836,15.18945 -1.13672,30.37891 -1.70508,45.56836 z" /><path
       id="path75"
       style="fill:#85b8e4;fill-opacity:1;stroke:#404040;stroke-width:0;stroke-linecap:round;stroke-dasharray:none;stroke-dashoffset:0;stroke-opacity:0;paint-order:fill markers stroke"
       d="m 1.2597656,382.24609 c 0,27.36003 0,54.72006 0,82.08008 C 20.861328,455.9974 40.462891,447.66862 60.064453,439.33984 50.667814,433.36743 41.272417,427.39306 31.875,421.42188 30.984994,401.16783 30.088005,380.91409 29.195312,360.66016 19.883464,367.85547 10.571615,375.05078 1.2597656,382.24609 Z" /></g><g
     inkscape:groupmode="layer"
     id="layer14"
     inkscape:label="Synergy4"
     transform="translate(0,0.11887)"><path
       id="path64"
       style="fill:#acd0ef;fill-opacity:1;stroke:#404040;stroke-width:0;stroke-linecap:round;stroke-dasharray:none;stroke-dashoffset:0;stroke-opacity:0;paint-order:fill markers stroke"
       d="m 72.832031,377.65234 c -0.498014,0.56821 -1.063309,0.0873 -1.610076,-0.12893 -13.176199,-5.79166 -26.352397,-11.58331 -39.528596,-17.37497 0.861328,19.52278 1.722657,39.04557 2.583985,58.56836 40.416015,-20.20769 80.832026,-40.41537 121.248046,-60.62305 -8.4043,-4.90951 -16.80859,-9.81901 -25.21289,-14.72852 -19.16016,11.42904 -38.320312,22.85808 -57.480469,34.28711 z" /><path
       id="path67"
       style="fill:#acd0ef;fill-opacity:1;stroke:#404040;stroke-width:0;stroke-linecap:round;stroke-dasharray:none;stroke-dashoffset:0;stroke-opacity:0;paint-order:fill markers stroke"
       d="m 249.38281,355.60938 c -13.15169,10.88411 -26.30338,21.76822 -39.45508,32.65234 -0.83528,6.12825 -1.67057,12.25651 -2.50585,18.38476 29.9069,1.48829 59.8138,2.97657 89.7207,4.46485 -0.0645,-24.31706 -0.12891,-48.63412 -0.19336,-72.95117 -15.85547,5.8164 -31.71094,11.63281 -47.56641,17.44922 z" /></g><g
     inkscape:groupmode="layer"
     id="layer12"
     inkscape:label="Synergy2"
     transform="translate(0,0.11887)"><path
       id="path62"
       style="fill:#94c4ed;fill-opacity:1;stroke:#404040;stroke-width:0;stroke-linecap:round;stroke-dasharray:none;stroke-dashoffset:0;stroke-opacity:0;paint-order:fill markers stroke"
       d="m 1.2597656,379.06445 c 9.6357984,-7.44696 19.2737654,-14.89112 28.9082034,-22.33984 13.433324,5.90278 26.865822,11.80744 40.298828,17.71094 -2.556641,-12.52214 -5.113281,-25.04427 -7.669922,-37.56641 -20.51237,-11.04492 -41.02474,-22.08984 -61.5371094,-33.13476 0,25.11002 0,50.22005 0,75.33007 z" /><path
       id="path70"
       style="fill:#acd0ef;fill-opacity:1;stroke:#404040;stroke-width:0;stroke-linecap:round;stroke-dasharray:none;stroke-dashoffset:0;stroke-opacity:0;paint-order:fill markers stroke"
       d="m 340.87305,418.5957 c -4.99284,9.25456 -9.98568,18.50912 -14.97852,27.76368 13.66211,6.46028 27.32422,12.92057 40.98633,19.38085 12.1849,-6.52148 24.36979,-13.04296 36.55469,-19.56445 0,-24.38672 0,-48.77344 0,-73.16016 -6.87435,-5.85156 -13.7487,-11.70312 -20.62305,-17.55468 -13.97982,21.04492 -27.95964,42.08984 -41.93945,63.13476 z" /><path
       id="path72"
       style="fill:#94c4ed;fill-opacity:1;stroke:#404040;stroke-width:0;stroke-linecap:round;stroke-dasharray:none;stroke-dashoffset:0;stroke-opacity:0;paint-order:fill markers stroke"
       d="m 299.66602,412.43164 c -0.11893,0.48284 0.36032,1.59269 -0.49547,1.30312 -6.71959,-0.3352 -13.43923,-0.66946 -20.15883,-1.00429 14.9056,10.77864 29.8112,21.55729 44.7168,32.33594 4.77148,-8.84506 9.54296,-17.69011 14.31445,-26.53516 -12.80274,-5.96615 -25.60547,-11.93229 -38.4082,-17.89844 0.0104,3.93295 0.0208,7.86589 0.0312,11.79883 z" /><path
       id="path73"
       style="fill:#94c4ed;fill-opacity:1;stroke:#404040;stroke-width:0;stroke-linecap:round;stroke-dasharray:none;stroke-dashoffset:0;stroke-opacity:0;paint-order:fill markers stroke"
       d="m 129.51367,373.91406 c -10.57487,5.28776 -21.14974,10.57552 -31.724608,15.86328 19.258468,18.66407 38.516928,37.32813 57.775388,55.99219 15.79297,3.24414 31.58594,6.48828 47.37891,9.73242 0.58919,-15.74869 1.17838,-31.49739 1.76758,-47.24609 -11.2181,-14.00586 -22.4362,-28.01172 -33.6543,-42.01758 -13.84766,2.55859 -27.69531,5.11719 -41.54297,7.67578 z" /></g><g
     inkscape:groupmode="layer"
     id="layer13"
     inkscape:label="Synergy3"
     transform="translate(0,0.11887)"><path
       id="path66"
       style="fill:#74a4ce;fill-opacity:1;stroke:#404040;stroke-width:0;stroke-linecap:round;stroke-dasharray:none;stroke-dashoffset:0;stroke-opacity:0;paint-order:fill markers stroke"
       d="m 203.52344,359.62695 c -0.0339,0.73817 -0.65787,0.76514 -1.24227,0.84162 -9.47133,1.75006 -18.94266,3.50012 -28.41398,5.25018 10.42317,13.01367 20.84635,26.02734 31.26953,39.04102 0.8092,-5.93751 1.61878,-11.87497 2.42773,-17.8125 13.37605,-11.06709 26.74983,-22.13693 40.125,-33.20508 3.08203,-8.09831 6.16407,-16.19662 9.2461,-24.29492 -13.94206,0 -27.88412,0 -41.82617,0 -3.86198,10.05989 -7.72396,20.11979 -11.58594,30.17968 z" /><path
       id="path68"
       style="fill:#74a4ce;fill-opacity:1;stroke:#404040;stroke-width:0;stroke-linecap:round;stroke-dasharray:none;stroke-dashoffset:0;stroke-opacity:0;paint-order:fill markers stroke"
       d="m 383.75586,329.20117 c -0.51148,0.60491 -1.29451,0.0625 -1.95004,0.0571 -15.53814,-2.70392 -31.07628,-5.40785 -46.61441,-8.11177 -4.76325,2.73573 -9.50399,5.51767 -14.28125,8.22461 -7.14779,2.62175 -14.29558,5.24349 -21.44336,7.86524 0.0319,11.85091 0.0638,23.70182 0.0957,35.55273 27.77008,-6.8624 55.54099,-13.72143 83.31055,-20.58594 6.85321,5.83576 13.70849,11.66909 20.5625,17.50391 0,-18.33789 0,-36.67578 0,-55.01367 -6.5599,4.83594 -13.11979,9.67187 -19.67969,14.50781 z" /><path
       id="path74"
       style="fill:#74a4ce;fill-opacity:1;stroke:#404040;stroke-width:0;stroke-linecap:round;stroke-dasharray:none;stroke-dashoffset:0;stroke-opacity:0;paint-order:fill markers stroke"
       d="m 35.660156,420.8418 c 18.961589,12.05403 37.923177,24.10807 56.884766,36.16211 16.702478,-6.76302 33.404948,-13.52605 50.107418,-20.28907 -15.36263,-15.4414 -30.72526,-30.88281 -46.087887,-46.32422 -20.301432,10.1504 -40.602864,20.30079 -60.904297,30.45118 z" /></g><g
     inkscape:groupmode="layer"
     id="layer7"
     inkscape:label="Bodymod1"
     transform="translate(0,0.11887)"><path
       id="path47"
       style="fill:#9fc88c;fill-opacity:1;stroke:#404040;stroke-width:0;stroke-linecap:round;stroke-dasharray:none;stroke-dashoffset:0;stroke-opacity:0;paint-order:fill markers stroke"
       d="m 172.63477,203.36914 c 7.50455,18.98242 15.00911,37.96484 22.51367,56.94727 19.86979,-10.3724 39.73958,-20.7448 59.60937,-31.11719 -16.92383,-13.98112 -33.84765,-27.96224 -50.77148,-41.94336 -10.45052,5.37109 -20.90104,10.74219 -31.35156,16.11328 z" /><path
       id="path55"
       style="fill:#9fc88c;fill-opacity:1;stroke:#404040;stroke-width:0;stroke-linecap:round;stroke-dasharray:none;stroke-dashoffset:0;stroke-opacity:0;paint-order:fill markers stroke"
       d="m 59.349609,267.88086 c 4.09375,12.57292 8.1875,25.14583 12.28125,37.71875 28.873051,-8.20768 57.746091,-16.41537 86.619141,-24.62305 -24.26107,-14.61523 -48.52214,-29.23047 -72.783203,-43.8457 -8.705729,10.25 -17.411458,20.5 -26.117188,30.75 z" /><path
       id="path59"
       style="fill:#9fc88c;fill-opacity:1;stroke:#404040;stroke-width:0;stroke-linecap:round;stroke-dasharray:none;stroke-dashoffset:0;stroke-opacity:0;paint-order:fill markers stroke"
       d="m 216.07617,326.92773 c 13.93946,0 27.87891,0 41.81836,0 5.38867,-14.15494 10.77734,-28.30989 16.16602,-42.46484 -13.80795,-0.222 -27.61589,-0.44401 -41.42383,-0.66601 -5.52018,14.37695 -11.04037,28.7539 -16.56055,43.13085 z" /></g><g
     inkscape:groupmode="layer"
     id="layer8"
     inkscape:label="Bodymod2"
     transform="translate(0,0.11887)"><path
       id="path48"
       style="fill:#a6d68e;fill-opacity:1;stroke:#404040;stroke-width:0;stroke-linecap:round;stroke-dasharray:none;stroke-dashoffset:0;stroke-opacity:0;paint-order:fill markers stroke"
       d="m 258.14844,228.42969 c 23.86393,6.29557 47.72786,12.59114 71.59179,18.88672 -7.83138,-17.46289 -15.66276,-34.92578 -23.49414,-52.38868 -18.20377,-3.15625 -36.40755,-6.3125 -54.61132,-9.46875 2.17122,14.32357 4.34244,28.64714 6.51367,42.97071 z" /><path
       id="path50"
       style="fill:#a6d68e;fill-opacity:1;stroke:#404040;stroke-width:0;stroke-linecap:round;stroke-dasharray:none;stroke-dashoffset:0;stroke-opacity:0;paint-order:fill markers stroke"
       d="m 277.89844,283.48047 c 14.26237,14.37695 28.52474,28.75391 42.78711,43.13086 27.05794,-15.625 54.11588,-31.25 81.17383,-46.875 -23.26042,-9.70573 -46.52084,-19.41146 -69.78126,-29.11719 -18.05989,10.95378 -36.11979,21.90755 -54.17968,32.86133 z" /><path
       id="path52"
       style="fill:#a6d68e;fill-opacity:1;stroke:#404040;stroke-width:0;stroke-linecap:round;stroke-dasharray:none;stroke-dashoffset:0;stroke-opacity:0;paint-order:fill markers stroke"
       d="m 116.54688,213.66406 c -12.46946,0.0456 -24.946417,0.006 -37.418755,0.0195 -9.23151,0 -18.463021,0 -27.694531,0 36.654948,22.08203 73.309896,44.16407 109.964846,66.2461 10.50781,-6.13021 21.01562,-12.26042 31.52344,-18.39063 -7.5573,-19.11718 -15.11459,-38.23437 -22.67188,-57.35156 -17.90104,3.15885 -35.80208,6.31771 -53.70312,9.47656 z" /><path
       id="path54"
       style="fill:#a6d68e;fill-opacity:1;stroke:#404040;stroke-width:0;stroke-linecap:round;stroke-dasharray:none;stroke-dashoffset:0;stroke-opacity:0;paint-order:fill markers stroke"
       d="m 1.2597656,300.87305 c 26.7500004,14.40364 53.5000004,28.80729 80.2500004,43.21093 -8.180339,-25.1263 -16.360677,-50.2526 -24.541016,-75.3789 -18.569661,-3.38932 -37.139323,-6.77865 -55.7089844,-10.16797 0,14.11198 0,28.22396 0,42.33594 z" /><path
       id="path57"
       style="fill:#a6d68e;fill-opacity:1;stroke:#404040;stroke-width:0;stroke-linecap:round;stroke-dasharray:none;stroke-dashoffset:0;stroke-opacity:0;paint-order:fill markers stroke"
       d="m 202.16797,356.12891 c 9.26237,-24.125 18.52474,-48.25 27.78711,-72.375 -22.1543,-0.35547 -44.3086,-0.71094 -66.46289,-1.06641 12.89192,24.48047 25.78385,48.96094 38.67578,73.44141 z" /></g><g
     inkscape:groupmode="layer"
     id="layer9"
     inkscape:label="Bodymod3"
     transform="translate(0,0.11887)"><path
       id="path53"
       style="fill:#b2e09d;fill-opacity:1;stroke:#404040;stroke-width:0;stroke-linecap:round;stroke-dasharray:none;stroke-dashoffset:0;stroke-opacity:0;paint-order:fill markers stroke"
       d="m 1.2597656,255.97461 c 18.7278644,3.41797 37.4557294,6.83594 56.1835934,10.25391 8.611328,-10.13868 17.222657,-20.27735 25.833985,-30.41602 -12.24349,-7.3763 -24.486979,-14.7526 -36.730469,-22.12891 -15.095703,0 -30.191406,0 -45.2871094,0 0,14.09701 0,28.19401 0,42.29102 z" /><path
       id="path51"
       style="fill:#b2e09d;fill-opacity:1;stroke:#404040;stroke-width:0;stroke-linecap:round;stroke-dasharray:none;stroke-dashoffset:0;stroke-opacity:0;paint-order:fill markers stroke"
       d="m 195.08203,263.19727 c -9.7211,5.6676 -19.43993,11.34023 -29.16015,17.00976 36.53645,0.58659 73.07291,1.17318 109.60937,1.75977 17.7487,-10.76563 35.4974,-21.53125 53.24609,-32.29688 -23.86718,-6.29622 -47.73437,-12.59245 -71.60156,-18.88867 -20.69792,10.80534 -41.39583,21.61068 -62.09375,32.41602 z" /><path
       id="path56"
       style="fill:#b2e09d;fill-opacity:1;stroke:#404040;stroke-width:0;stroke-linecap:round;stroke-dasharray:none;stroke-dashoffset:0;stroke-opacity:0;paint-order:fill markers stroke"
       d="m 73.994141,307.54492 c 27.289059,15.94206 54.578129,31.88412 81.867189,47.82617 -7.49675,-21.56836 -14.99349,-43.13672 -22.49024,-64.70507 -19.79231,5.6263 -39.584632,11.2526 -59.376949,16.8789 z" /><path
       id="path61"
       style="fill:#b2e09d;fill-opacity:1;stroke:#404040;stroke-width:0;stroke-linecap:round;stroke-dasharray:none;stroke-dashoffset:0;stroke-opacity:0;paint-order:fill markers stroke"
       d="m 338.59766,319.17969 c 14.69922,2.55794 29.39843,5.11588 44.09765,7.67383 6.91341,-5.09701 13.82683,-10.19401 20.74024,-15.29102 0,-9.94141 0,-19.88281 0,-29.82422 -21.61263,12.48047 -43.22526,24.96094 -64.83789,37.44141 z" /></g><g
     inkscape:groupmode="layer"
     id="layer10"
     inkscape:label="Bodymod4"
     transform="translate(0,0.11887)"><path
       id="path49"
       style="fill:#90b57f;fill-opacity:1;stroke:#404040;stroke-width:0;stroke-linecap:round;stroke-dasharray:none;stroke-dashoffset:0;stroke-opacity:0;paint-order:fill markers stroke"
       d="m 330.31055,198.79688 c -0.58959,0.47287 -1.35916,-0.0417 -2.03587,-0.0488 -6.34416,-1.10027 -12.68833,-2.20054 -19.03249,-3.3008 7.89192,17.59765 15.78385,35.19531 23.67578,52.79296 23.50586,9.80795 47.01172,19.61589 70.51758,29.42383 0,-21.59049 0,-43.18099 0,-64.77148 -10.88347,-12.64388 -21.76693,-25.28776 -32.65039,-37.93164 -13.49154,7.94531 -26.98308,15.89062 -40.47461,23.83594 z" /><path
       id="path58"
       style="fill:#90b57f;fill-opacity:1;stroke:#404040;stroke-width:0;stroke-linecap:round;stroke-dasharray:none;stroke-dashoffset:0;stroke-opacity:0;paint-order:fill markers stroke"
       d="m 250.9082,352.36523 c 22.43034,-8.22851 44.86068,-16.45703 67.29102,-24.68554 -13.94662,-14.05729 -27.89323,-28.11459 -41.83984,-42.17188 -8.48373,22.28581 -16.96745,44.57162 -25.45118,66.85742 z" /><path
       id="path60"
       style="fill:#90b57f;fill-opacity:1;stroke:#404040;stroke-width:0;stroke-linecap:round;stroke-dasharray:none;stroke-dashoffset:0;stroke-opacity:0;paint-order:fill markers stroke"
       d="m 135.79688,289.97656 c 3.63997,10.47201 7.27994,20.94401 10.91992,31.41602 7.61328,-7.25977 15.22656,-14.51953 22.83984,-21.7793 -2.93685,-5.57617 -5.8737,-11.15234 -8.81055,-16.72851 -8.3164,2.36393 -16.63281,4.72786 -24.94921,7.09179 z" /></g><g
     inkscape:label="Passive1"
     inkscape:groupmode="layer"
     id="layer1"
     transform="translate(83.28501,206.63068)"><path
       id="path3"
       style="fill:#e2b584;fill-opacity:1;stroke:#404040;stroke-width:0;stroke-linecap:round;stroke-dasharray:none;stroke-dashoffset:0;stroke-opacity:0;paint-order:fill markers stroke"
       d="m 94.42397,-84.48447 c 8.86394,8.31055 17.72787,16.6211 26.5918,24.93164 7.0638,-12.46549 14.12761,-24.93099 21.19141,-37.39648 -15.92774,4.15495 -31.85547,8.3099 -47.78321,12.46484 z" /><path
       id="path5"
       style="fill:#e2b584;fill-opacity:1;stroke:#404040;stroke-width:0;stroke-linecap:round;stroke-dasharray:none;stroke-dashoffset:0;stroke-opacity:0;paint-order:fill markers stroke"
       d="M 34.888672,4.3066406 C 51.76888,1.328776 68.649089,-1.6490885 85.529297,-4.6269531 74.465495,-19.522135 63.401693,-34.417318 52.337891,-49.3125 46.521484,-31.439453 40.705078,-13.566406 34.888672,4.3066406 Z" /><path
       id="path12"
       style="fill:#e2b584;fill-opacity:1;stroke:#404040;stroke-width:0;stroke-linecap:round;stroke-dasharray:none;stroke-dashoffset:0;stroke-opacity:0;paint-order:fill markers stroke"
       d="m -80.662109,-121.05078 c 23.90625,18.00325 47.8125,36.006509 71.7187496,54.009764 13.6861979,-14.56901 27.3723954,-29.13802 41.0585934,-43.707034 -14.483073,-11.71419 -28.9661455,-23.42838 -43.449218,-35.14257 -23.109375,8.27994 -46.21875,16.55989 -69.328125,24.83984 z" /><path
       id="path16"
       style="fill:#e2b584;fill-opacity:1;stroke:#404040;stroke-width:0;stroke-linecap:round;stroke-dasharray:none;stroke-dashoffset:0;stroke-opacity:0;paint-order:fill markers stroke"
       d="m 62.703125,-183.74219 c 18.158644,3.97528 36.324478,7.92261 54.478625,11.91534 11.55856,3.4527 23.11712,6.9054 34.67567,10.3581 18.20703,-14.5944 36.41406,-29.1888 54.6211,-43.7832 -53.85482,0 -107.70964,0 -161.564458,0 5.929688,7.16992 11.859375,14.33984 17.789063,21.50976 z" /><path
       id="path17"
       style="fill:#e2b584;fill-opacity:1;stroke:#404040;stroke-width:0;stroke-linecap:round;stroke-dasharray:none;stroke-dashoffset:0;stroke-opacity:0;paint-order:fill markers stroke"
       d="m 95.544922,-148.12305 c 16.744338,16.13977 33.487078,32.28121 50.232418,48.419925 6.42641,11.173286 12.85569,22.344925 19.28321,33.517578 8.95312,7.248047 17.90625,14.496094 26.85937,21.744141 0.87044,-16.815104 1.74089,-33.630209 2.61133,-50.445313 -14.39844,-21.369141 -28.79687,-42.738281 -43.19531,-64.107421 -11.41992,-3.41146 -22.83985,-6.82292 -34.25977,-10.23438 -7.17708,7.03516 -14.35416,14.07032 -21.531248,21.10547 z" /><path
       id="path21"
       style="fill:#e2b584;fill-opacity:1;stroke:#404040;stroke-width:0;stroke-linecap:round;stroke-dasharray:none;stroke-dashoffset:0;stroke-opacity:0;paint-order:fill markers stroke"
       d="m 236.23828,-94.501953 c 27.9707,11.089844 55.94141,22.179687 83.91211,33.269531 0,-31.798828 0,-63.597658 0,-95.396488 -15.4668,-1.47005 -30.93359,-2.9401 -46.40039,-4.41015 -12.50391,22.17903 -25.00781,44.35807 -37.51172,66.537107 z" /><path
       id="path23"
       style="fill:#e2b584;fill-opacity:1;stroke:#404040;stroke-width:0;stroke-linecap:round;stroke-dasharray:none;stroke-dashoffset:0;stroke-opacity:0;paint-order:fill markers stroke"
       d="M 124.20703,-19.626953 C 140.13802,-6.4667969 156.06901,6.6933594 172,19.853516 c -2.07813,-13.7141931 -4.15625,-27.4283858 -6.23438,-41.142578 -13.85286,0.554036 -27.70572,1.108072 -41.55859,1.662109 z" /><path
       id="path24"
       style="fill:#e2b584;fill-opacity:1;stroke:#404040;stroke-width:0;stroke-linecap:round;stroke-dasharray:none;stroke-dashoffset:0;stroke-opacity:0;paint-order:fill markers stroke"
       d="m 239.625,-46.820312 c 2.54362,12.014973 5.08724,24.029947 7.63086,36.044921 13.59317,-8.004442 27.18579,-16.00981 40.7793,-24.013671 10.70685,12.434019 21.40986,24.8713458 32.11523,37.3066401 0,-20.1497391 0,-40.2994791 0,-60.4492191 -26.8418,3.703776 -53.68359,7.407552 -80.52539,11.111329 z" /></g><g
     inkscape:groupmode="layer"
     id="layer3"
     inkscape:label="Passive2"
     transform="translate(0,0.11887)"><path
       id="path1"
       style="fill:#e2bf97;fill-opacity:1;stroke:#404040;stroke-width:0;stroke-linecap:round;stroke-opacity:0;paint-order:fill markers stroke"
       d="m 136.90415,154.69736 c 11.50456,15.48763 23.00911,30.97526 34.51367,46.46289 10.49349,-5.39323 20.98698,-10.78646 31.48047,-16.17969 0.14714,-11.82292 0.29427,-23.64583 0.44141,-35.46875 -9.40365,-8.81641 -18.80729,-17.63281 -28.21094,-26.44922 -12.74154,10.54492 -25.48307,21.08984 -38.22461,31.63477 z" /><path
       id="path7"
       style="fill:#e2bf97;fill-opacity:1;stroke:#404040;stroke-width:0;stroke-linecap:round;stroke-dasharray:none;stroke-dashoffset:0;stroke-opacity:0;paint-order:fill markers stroke"
       d="m 119.92954,95.45126 c 18.45313,8.20117 36.90625,16.40235 55.35938,24.60352 16.75911,-4.37175 33.51823,-8.74349 50.27734,-13.11524 C 209.32928,91.28785 193.0923,75.63616 176.85532,59.98447 157.88006,71.80673 138.9048,83.629 119.92954,95.45126 Z" /><path
       id="path8"
       style="fill:#e2bf97;fill-opacity:1;stroke:#404040;stroke-width:0;stroke-linecap:round;stroke-dasharray:none;stroke-dashoffset:0;stroke-opacity:0;paint-order:fill markers stroke"
       d="m 76.923682,140.40243 c 18.807943,4.13217 37.615888,8.26433 56.423828,12.39649 -5.55664,-18.23763 -11.11328,-36.47526 -16.66992,-54.71289 -13.2513,14.10547 -26.502606,28.21094 -39.753908,42.3164 z" /><path
       id="path18"
       style="fill:#e2bf97;fill-opacity:1;stroke:#404040;stroke-width:0;stroke-linecap:round;stroke-dasharray:none;stroke-dashoffset:0;stroke-opacity:0;paint-order:fill markers stroke"
       d="m 237.10532,46.69736 c 14.22526,21.11198 28.45052,42.22396 42.67578,63.33593 12.40495,0.44271 24.8099,0.88542 37.21485,1.32813 12.56185,-22.2819 25.1237,-44.5638 37.68554,-66.8457 -20.42773,-14.31446 -40.85546,-28.62891 -61.2832,-42.94336 -18.76432,15.04166 -37.52864,30.08333 -56.29297,45.125 z" /><path
       id="path19"
       style="fill:#e2bf97;fill-opacity:1;stroke:#404040;stroke-width:0;stroke-linecap:round;stroke-dasharray:none;stroke-dashoffset:0;stroke-opacity:0;paint-order:fill markers stroke"
       d="m 251.32017,182.84579 c 25.57747,4.4349 51.15494,8.8698 76.73242,13.30469 -2.54883,-12.03971 -5.09766,-24.07943 -7.64649,-36.11914 -14.81375,1.96518 -29.62787,3.92765 -44.4414,5.89453 -9.05051,-7.32716 -18.10161,-14.65359 -27.15235,-21.98047 0.83594,12.9668 1.67188,25.9336 2.50782,38.90039 z" /><path
       id="path11"
       style="fill:#e2bf97;fill-opacity:1;stroke:#404040;stroke-width:0;stroke-linecap:round;stroke-dasharray:none;stroke-dashoffset:0;stroke-opacity:0;paint-order:fill markers stroke"
       d="m 1.259619,145.18759 c 11.54015,-1.91021 23.076814,-3.87198 34.619141,-5.75 11.59375,0.13802 23.1875,0.27604 34.78125,0.41406 C 47.526546,122.43043 24.393083,105.00921 1.259619,87.58798 c 0,19.19987 0,38.39974 0,57.59961 z" /></g><g
     inkscape:groupmode="layer"
     id="layer4"
     inkscape:label="Passive3"
     transform="translate(0,0.11887)"><path
       id="path9"
       style="fill:#d0aa7e;fill-opacity:1;stroke:#404040;stroke-width:0;stroke-linecap:round;stroke-dasharray:none;stroke-dashoffset:0;stroke-opacity:0;paint-order:fill markers stroke"
       d="m 58.408057,181.59775 c 19.059245,9.67903 38.118489,19.35807 57.177733,29.03711 5.98893,-18.4043 11.97787,-36.8086 17.9668,-55.21289 -19.73633,-4.33594 -39.472658,-8.67188 -59.208986,-13.00782 -12.132813,-0.14388 -24.265625,-0.28776 -36.398438,-0.43164 6.820964,13.20508 13.641927,26.41016 20.462891,39.61524 z" /><path
       id="path13"
       style="fill:#d0aa7e;fill-opacity:1;stroke:#404040;stroke-width:0;stroke-linecap:round;stroke-dasharray:none;stroke-dashoffset:0;stroke-opacity:0;paint-order:fill markers stroke"
       d="M 1.269385,83.26962 C 24.074724,75.0984 46.880062,66.92717 69.685401,58.75595 47.027198,40.01897 24.368994,21.28199 1.710791,2.54501 1.563656,29.45322 1.41652,56.36142 1.269385,83.26962 Z" /><path
       id="path15"
       style="fill:#d0aa7e;fill-opacity:1;stroke:#404040;stroke-width:0;stroke-linecap:round;stroke-dasharray:none;stroke-dashoffset:0;stroke-opacity:0;paint-order:fill markers stroke"
       d="m 96.345557,77.34579 c 6.996743,5.58334 13.993493,11.16667 20.990233,16.75 19.63346,-12.23242 39.26693,-24.46484 58.90039,-36.69726 7.07487,-6.93425 14.14974,-13.86849 21.22461,-20.80274 C 180.21405,32.82757 162.9673,29.05934 145.72056,25.29111 129.26222,42.64267 112.80389,59.99423 96.345557,77.34579 Z" /><path
       id="path20"
       style="fill:#d0aa7e;fill-opacity:1;stroke:#404040;stroke-width:0;stroke-linecap:round;stroke-dasharray:none;stroke-dashoffset:0;stroke-opacity:0;paint-order:fill markers stroke"
       d="m 277.67173,163.15829 c 20.5312,-2.74097 41.07473,-5.39025 61.58773,-8.26538 20.17323,-2.78394 40.34646,-5.56787 60.51969,-8.3518 -27.44206,-10.88021 -54.88411,-21.76042 -82.32617,-32.64063 -12.38802,-0.44206 -24.77604,-0.88411 -37.16406,-1.32617 -0.8724,16.86133 -1.7448,33.72266 -2.61719,50.58398 z" /><path
       id="path22"
       style="fill:#d0aa7e;fill-opacity:1;stroke:#404040;stroke-width:0;stroke-linecap:round;stroke-dasharray:none;stroke-dashoffset:0;stroke-opacity:0;paint-order:fill markers stroke"
       d="m 356.78892,42.91806 c 15.54882,1.47852 31.09765,2.95703 46.64648,4.43555 0,-15.36459 0,-30.72917 0,-46.09375 -35.36523,0 -70.73047,0 -106.0957,0 19.8164,13.88606 39.63281,27.77213 59.44922,41.6582 z" /></g><g
     inkscape:groupmode="layer"
     id="layer6"
     inkscape:label="Passive4"
     transform="translate(0,0.11887)"><path
       id="path4"
       style="fill:#d6b186;fill-opacity:1;stroke:#404040;stroke-width:0;stroke-linecap:round;stroke-dasharray:none;stroke-dashoffset:0;stroke-opacity:0;paint-order:fill markers stroke"
       d="m 205.86313,149.31064 c -0.14648,11.71094 -0.29296,23.42187 -0.43945,35.13281 14.45378,-0.57812 28.90755,-1.15625 43.36133,-1.73437 -0.88477,-13.72657 -1.76953,-27.45313 -2.6543,-41.17969 -6.02148,-10.4655 -12.04297,-20.93099 -18.06445,-31.39649 -7.40104,13.05925 -14.80208,26.11849 -22.20313,39.17774 z" /><path
       id="path6"
       style="fill:#d6b186;fill-opacity:1;stroke:#404040;stroke-width:0;stroke-linecap:round;stroke-dasharray:none;stroke-dashoffset:0;stroke-opacity:0;paint-order:fill markers stroke"
       d="m 135.83384,152.31454 c 12.32617,-10.20182 24.65234,-20.40364 36.97851,-30.60546 -17.85221,-7.9336 -35.70442,-15.86719 -53.55664,-23.80079 5.52605,18.13542 11.05209,36.27084 16.57813,54.40625 z" /><path
       id="path10"
       style="fill:#d6b186;fill-opacity:1;stroke:#404040;stroke-width:0;stroke-linecap:round;stroke-dasharray:none;stroke-dashoffset:0;stroke-opacity:0;paint-order:fill markers stroke"
       d="m 1.259619,147.74033 c 0,21.14127 0,42.28255 0,63.42382 36.602214,0 73.204427,0 109.806641,0 -18.175249,-9.22893 -36.349549,-18.45973 -54.525391,-27.6875 -7.123297,-13.79645 -14.250284,-27.591 -21.375,-41.38672 -11.302083,1.88347 -22.604166,3.76693 -33.90625,5.6504 z" /><path
       id="path14"
       style="fill:#d6b186;fill-opacity:1;stroke:#404040;stroke-width:0;stroke-linecap:round;stroke-dasharray:none;stroke-dashoffset:0;stroke-opacity:0;paint-order:fill markers stroke"
       d="M 94.380713,75.7579 C 110.79152,58.45582 127.20233,41.15374 143.61313,23.85165 137.38592,16.32105 131.15871,8.79046 124.93149,1.25986 c -40.469397,0 -80.938798,0 -121.408199,0 30.285808,24.83268 60.571615,49.66536 90.857422,74.49804 z" /></g></svg>
