<?xml version="1.0" encoding="UTF-8" standalone="no"?>
<!-- Created with Inkscape (http://www.inkscape.org/) -->

<svg
   width="169.97189mm"
   height="301.75809mm"
   viewBox="0 0 404.69498 718.47164"
   version="1.1"
   id="svg1"
   xml:space="preserve"
   sodipodi:docname="UpgrageOverviewPanel3.svg"
   inkscape:version="1.4.2 (f4327f4, 2025-05-13)"
   inkscape:export-filename="UpgrageOverviewPaneltest1.png"
   inkscape:export-xdpi="96"
   inkscape:export-ydpi="96"
   xmlns:inkscape="http://www.inkscape.org/namespaces/inkscape"
   xmlns:sodipodi="http://sodipodi.sourceforge.net/DTD/sodipodi-0.dtd"
   xmlns="http://www.w3.org/2000/svg"
   xmlns:svg="http://www.w3.org/2000/svg"><sodipodi:namedview
     id="namedview1"
     pagecolor="#ffffff"
     bordercolor="#000000"
     borderopacity="0.25"
     inkscape:showpageshadow="2"
     inkscape:pageopacity="0.0"
     inkscape:pagecheckerboard="0"
     inkscape:deskcolor="#d1d1d1"
     inkscape:document-units="mm"
     inkscape:zoom="1.1508788"
     inkscape:cx="149.45101"
     inkscape:cy="627.78114"
     inkscape:window-width="3840"
     inkscape:window-height="2054"
     inkscape:window-x="-11"
     inkscape:window-y="-11"
     inkscape:window-maximized="1"
     inkscape:current-layer="layer4" /><defs
     id="defs1" /><g
     inkscape:groupmode="layer"
     id="layer2"
     inkscape:label="Marker"
     transform="translate(0,0.11887)" /><g
     inkscape:groupmode="layer"
     id="layer19"
     inkscape:label="Special1"
     transform="translate(0,0.11887)"><path
       id="path86"
       style="fill:#865ccc;fill-opacity:1;stroke:#404040;stroke-width:0;stroke-linecap:round;stroke-dasharray:none;stroke-dashoffset:0;stroke-opacity:0;paint-order:fill markers stroke"
       d="M 2.8515625,589.38086 C 13.281901,607.88737 23.71224,626.39388 34.142578,644.90039 58.69987,631.60742 83.257161,618.31445 107.81445,605.02148 99.318359,595.67969 90.822266,586.33789 82.326172,576.99609 60.622396,571.47852 38.91862,565.96094 17.214844,560.44336 c -4.787761,9.64583 -9.5755211,19.29167 -14.3632815,28.9375 z" /><path
       id="path90"
       style="fill:#865ccc;fill-opacity:1;stroke:#404040;stroke-width:0;stroke-linecap:round;stroke-dasharray:none;stroke-dashoffset:0;stroke-opacity:0;paint-order:fill markers stroke"
       d="m 20.089844,715.83398 c 53.570312,0 107.140626,0 160.710936,0 -19.50704,-7.47249 -39.0206,-14.9306 -58.51613,-22.43153 -1.64957,-0.78259 -3.29914,-1.56518 -4.94871,-2.34776 -32.415367,8.25976 -64.830732,16.51953 -97.246096,24.77929 z" /><path
       id="path92"
       style="fill:#865ccc;fill-opacity:1;stroke:#404040;stroke-width:0;stroke-linecap:round;stroke-dasharray:none;stroke-dashoffset:0;stroke-opacity:0;paint-order:fill markers stroke"
       d="m 266.46875,670.97852 c 0.97942,0.71629 1.9655,1.44618 2.94727,2.16796 -18.33241,11.7853 -36.66682,23.56748 -55,35.35157 35.08789,-12.5944 70.17578,-25.18881 105.26367,-37.78321 -19.93034,-1.52669 -39.86068,-3.05338 -59.79102,-4.58007 2.19336,1.61458 4.38672,3.22916 6.58008,4.84375 z" /><path
       id="path95"
       style="fill:#865ccc;fill-opacity:1;stroke:#404040;stroke-width:0;stroke-linecap:round;stroke-dasharray:none;stroke-dashoffset:0;stroke-opacity:0;paint-order:fill markers stroke"
       d="m 296.40234,604.4375 c 12.09896,20.50716 24.19792,41.01432 36.29688,61.52148 23.15885,-9.27474 46.31771,-18.54947 69.47656,-27.82421 0,-16.57618 0,-33.15235 0,-49.72852 -17.53776,-13.27148 -35.07552,-26.54297 -52.61328,-39.81445 -17.72005,18.61523 -35.4401,37.23047 -53.16016,55.8457 z" /></g><g
     inkscape:groupmode="layer"
     id="layer21"
     inkscape:label="Special3"
     transform="translate(0,0.11887)"><path
       id="path88"
       style="fill:#a381dc;fill-opacity:1;stroke:#404040;stroke-width:0;stroke-linecap:round;stroke-dasharray:none;stroke-dashoffset:0;stroke-opacity:0;paint-order:fill markers stroke"
       d="m 38.728516,648.14648 c 28.014974,13.30144 56.029948,26.60287 84.044924,39.9043 16.2806,-21.55013 32.5612,-43.10026 48.84179,-64.65039 -19.8125,-5.00391 -39.625,-10.00781 -59.4375,-15.01172 -24.483069,13.25261 -48.966141,26.50521 -73.449214,39.75781 z" /><path
       id="path93"
       style="fill:#a381dc;fill-opacity:1;stroke:#404040;stroke-width:0;stroke-linecap:round;stroke-dasharray:none;stroke-dashoffset:0;stroke-opacity:0;paint-order:fill markers stroke"
       d="m 208.06836,627.98047 c 14.7207,10.83789 29.44141,21.67578 44.16211,32.51367 24.92187,1.90951 49.84375,3.81901 74.76562,5.72852 -11.79687,-19.9974 -23.59375,-39.9948 -35.39062,-59.99219 -31.25912,-8.70182 -62.51823,-17.40365 -93.77735,-26.10547 3.41342,15.95182 6.82683,31.90365 10.24024,47.85547 z" /></g><g
     inkscape:groupmode="layer"
     id="layer22"
     inkscape:label="Special4"
     transform="translate(0,0.11887)"><path
       id="path94"
       style="fill:#724eaf;fill-opacity:1;stroke:#404040;stroke-width:0;stroke-linecap:round;stroke-dasharray:none;stroke-dashoffset:0;stroke-opacity:0;paint-order:fill markers stroke"
       d="m 277.99219,555.63477 c -22.89273,-0.2677 -45.78807,-0.5844 -68.68164,-0.88282 -3.69466,6.75196 -7.38933,13.50391 -11.08399,20.25586 31.41797,8.7461 62.83594,17.49219 94.25391,26.23828 16.74088,-17.58658 33.48177,-35.17317 50.22265,-52.75976 -21.57031,2.38281 -43.14062,4.76562 -64.71093,7.14844 z" /><path
       id="path96"
       style="fill:#724eaf;fill-opacity:1;stroke:#404040;stroke-width:0;stroke-linecap:round;stroke-dasharray:none;stroke-dashoffset:0;stroke-opacity:0;paint-order:fill markers stroke"
       d="m 208.37305,715.83398 c 64.60091,0 129.20182,0 193.80273,0 0,-24.12109 0,-48.24218 0,-72.36328 -64.60091,24.1211 -129.20182,48.24219 -193.80273,72.36328 z" /></g><g
     inkscape:groupmode="layer"
     id="layer20"
     inkscape:label="Special2"
     transform="translate(0,0.11887)"><path
       id="path87"
       style="fill:#9970df;fill-opacity:1;stroke:#404040;stroke-width:0;stroke-linecap:round;stroke-dasharray:none;stroke-dashoffset:0;stroke-opacity:0;paint-order:fill markers stroke"
       d="m 87.173828,574.83594 c 8.674479,9.53841 17.348962,19.07682 26.023442,28.61523 29.76432,7.51758 59.52864,15.03516 89.29296,22.55274 -3.41471,-15.95834 -6.82942,-31.91667 -10.24414,-47.875 -21.82356,-14.15625 -43.64713,-28.3125 -65.4707,-42.46875 -13.20052,13.05859 -26.40104,26.11718 -39.601562,39.17578 z" /><path
       id="path89"
       style="fill:#9970df;fill-opacity:1;stroke:#404040;stroke-width:0;stroke-linecap:round;stroke-dasharray:none;stroke-dashoffset:0;stroke-opacity:0;paint-order:fill markers stroke"
       d="M 2.5195312,715.11133 C 38.416667,705.96354 74.313802,696.81576 110.21094,687.66797 83.926473,675.18806 57.64168,662.70885 31.357422,650.22852 21.745745,633.17199 12.132003,616.11663 2.5195312,599.06055 c 1e-7,38.68359 0,77.36718 0,116.05078 z" /><path
       id="path91"
       style="fill:#9970df;fill-opacity:1;stroke:#404040;stroke-width:0;stroke-linecap:round;stroke-dasharray:none;stroke-dashoffset:0;stroke-opacity:0;paint-order:fill markers stroke"
       d="m 127.57812,690.05859 c 22.18425,8.49545 44.36849,16.99089 66.55274,25.48633 22.13411,-14.22786 44.26823,-28.45573 66.40234,-42.68359 -18.60807,-13.70117 -37.21614,-27.40235 -55.82422,-41.10352 -9.26302,-2.33919 -18.52604,-4.67838 -27.78906,-7.01758 -16.44726,21.77279 -32.89453,43.54558 -49.3418,65.31836 z" /></g><g
     inkscape:groupmode="layer"
     id="layer15"
     inkscape:label="Active1"
     transform="translate(0,0.11887)"><path
       id="path77"
       style="fill:#d67965;fill-opacity:1;stroke:#404040;stroke-width:0;stroke-linecap:round;stroke-dasharray:none;stroke-dashoffset:0;stroke-opacity:0;paint-order:fill markers stroke"
       d="M 2.5195312,578.70898 C 11.309896,561.00195 20.10026,543.29492 28.890625,525.58789 20.10026,509.15365 11.309896,492.7194 2.5195312,476.28516 c 1e-7,34.14127 1e-7,68.28255 0,102.42382 z" /><path
       id="path80"
       style="fill:#d67965;fill-opacity:1;stroke:#404040;stroke-width:0;stroke-linecap:round;stroke-dasharray:none;stroke-dashoffset:0;stroke-opacity:0;paint-order:fill markers stroke"
       d="m 205.50586,459.16016 c -1.05399,0.84031 -2.37531,0.16131 -3.5308,10e-4 -7.08869,-1.45541 -14.17738,-2.91083 -21.26608,-4.36624 -7.91862,11.99805 -15.83724,23.9961 -23.75586,35.99414 19.23047,5.90039 38.46094,11.80078 57.69141,17.70117 19.99349,-16.11132 39.98698,-32.22265 59.98047,-48.33398 -12.28581,-6.96224 -24.57161,-13.92448 -36.85742,-20.88672 -10.75391,6.63021 -21.50781,13.26042 -32.26172,19.89063 z" /><path
       id="path82"
       style="fill:#d67965;fill-opacity:1;stroke:#404040;stroke-width:0;stroke-linecap:round;stroke-dasharray:none;stroke-dashoffset:0;stroke-opacity:0;paint-order:fill markers stroke"
       d="m 368.71289,469.04883 c -12.20703,20 -24.41406,40 -36.62109,60 23.36133,17.68034 46.72265,35.36068 70.08398,53.04101 0,-43.65104 0,-87.30208 0,-130.95312 -11.1543,5.9707 -22.30859,11.9414 -33.46289,17.91211 z" /></g><g
     inkscape:groupmode="layer"
     id="layer16"
     inkscape:label="Active2"
     transform="translate(0,0.11887)"><path
       id="path78"
       style="fill:#e58f7d;fill-opacity:1;stroke:#404040;stroke-width:0;stroke-linecap:round;stroke-dasharray:none;stroke-dashoffset:0;stroke-opacity:0;paint-order:fill markers stroke"
       d="m 108.27539,522.30664 c 0.17836,1.11121 -0.76361,1.89355 -1.52539,2.52148 -7.326807,6.70178 -14.652852,13.4044 -21.978516,20.10743 -17.248163,-5.44625 -34.496074,-10.89329 -51.74414,-16.33985 -4.506511,9.07748 -9.013021,18.15495 -13.519532,27.23242 21.13737,5.3737 42.27474,10.7474 63.41211,16.1211 13.445312,-13.30078 26.890628,-26.60156 40.335938,-39.90234 -4.85091,-7.97201 -9.70182,-15.94402 -14.55274,-23.91602 -0.14257,4.72526 -0.28515,9.45052 -0.42773,14.17578 z" /><path
       id="path83"
       style="fill:#e58f7d;fill-opacity:1;stroke:#404040;stroke-width:0;stroke-linecap:round;stroke-dasharray:none;stroke-dashoffset:0;stroke-opacity:0;paint-order:fill markers stroke"
       d="m 280.71484,550.26367 c 20.67058,-2.28255 41.34115,-4.5651 62.01172,-6.84765 -5.14366,-3.87366 -10.24201,-7.80643 -15.42964,-11.61594 -13.63543,-5.90993 -27.27086,-11.81985 -40.9063,-17.72977 -1.89192,12.06446 -3.78385,24.12891 -5.67578,36.19336 z" /></g><g
     inkscape:groupmode="layer"
     id="layer18"
     inkscape:label="Active4"
     transform="translate(0,0.11887)"><path
       id="path84"
       style="fill:#ce6954;fill-opacity:1;stroke:#404040;stroke-width:0;stroke-linecap:round;stroke-dasharray:none;stroke-dashoffset:0;stroke-opacity:0;paint-order:fill markers stroke"
       d="m 217.49609,512.66211 c -2.2207,12.35677 -4.4414,24.71354 -6.66211,37.07031 21.57748,0.28386 43.15495,0.56771 64.73243,0.85156 2.01692,-12.86002 4.03385,-25.72005 6.05078,-38.58007 -13.72071,-5.94662 -27.44141,-11.89323 -41.16211,-17.83985 -7.653,6.16602 -15.30599,12.33203 -22.95899,18.49805 z" /><path
       id="path79"
       style="fill:#ce6954;fill-opacity:1;stroke:#404040;stroke-width:0;stroke-linecap:round;stroke-dasharray:none;stroke-dashoffset:0;stroke-opacity:0;paint-order:fill markers stroke"
       d="m 96.5,459.48047 c 4.39323,5.49154 8.78646,10.98307 13.17969,16.47461 -0.23093,7.64781 -0.46368,15.29557 -0.69531,22.94336 5.8483,9.61328 11.69661,19.22656 17.54492,28.83984 16.28906,-24.67904 32.57812,-49.35807 48.86718,-74.03711 -7.22393,-1.48385 -14.44808,-2.96665 -21.67187,-4.45117 -3.13833,-3.04202 -6.2774,-6.08327 -9.41602,-9.125 C 128.3724,446.57682 112.4362,453.02865 96.5,459.48047 Z" /></g><g
     inkscape:groupmode="layer"
     id="layer17"
     inkscape:label="Active3"
     transform="translate(0,0.11887)"><path
       id="path76"
       style="fill:#e3a395;fill-opacity:1;stroke:#404040;stroke-width:0;stroke-linecap:round;stroke-dasharray:none;stroke-dashoffset:0;stroke-opacity:0;paint-order:fill markers stroke"
       d="m 3.5234375,467.47266 c 9.9804685,18.6595 19.9609375,37.31901 29.9414065,55.97851 16.682942,5.26823 33.365885,10.53646 50.048828,15.80469 6.583333,-6.02214 13.166667,-12.04427 19.749998,-18.06641 0.44076,-14.51041 0.88151,-29.02083 1.32227,-43.53125 -4.626305,-5.7819 -9.252607,-11.5638 -13.878909,-17.3457 -9.391927,-5.97135 -18.783854,-11.94271 -28.175781,-17.91406 -19.669271,8.35807 -39.338542,16.71614 -59.0078125,25.07422 z" /><path
       id="path81"
       style="fill:#e3a395;fill-opacity:1;stroke:#404040;stroke-width:0;stroke-linecap:round;stroke-dasharray:none;stroke-dashoffset:0;stroke-opacity:0;paint-order:fill markers stroke"
       d="m 280.27734,462.07422 c -11.79622,9.50521 -23.59244,19.01042 -35.38867,28.51562 27.61849,11.9694 55.23698,23.93881 82.85547,35.90821 11.85287,-19.42318 23.70573,-38.84636 35.55859,-58.26953 -13.12369,-6.20508 -26.24739,-12.41016 -39.37109,-18.61524 -14.55143,4.15365 -29.10286,8.30729 -43.6543,12.46094 z" /><path
       id="path85"
       style="fill:#e3a395;fill-opacity:1;stroke:#404040;stroke-width:0;stroke-linecap:round;stroke-dasharray:none;stroke-dashoffset:0;stroke-opacity:0;paint-order:fill markers stroke"
       d="m 129.94336,531.71094 c 21.21354,13.76041 42.42708,27.52083 63.64062,41.28125 3.94532,-7.21029 7.89063,-14.42058 11.83594,-21.63086 2.29623,-12.77214 4.59245,-25.54427 6.88867,-38.31641 -19.41666,-5.95768 -38.83333,-11.91536 -58.25,-17.87304 -8.03841,12.17968 -16.07682,24.35937 -24.11523,36.53906 z" /></g><g
     inkscape:groupmode="layer"
     id="layer11"
     inkscape:label="Synergy1"
     transform="translate(0,0.11887)"><path
       id="path63"
       style="fill:#85b8e4;fill-opacity:1;stroke:#404040;stroke-width:0;stroke-linecap:round;stroke-dasharray:none;stroke-dashoffset:0;stroke-opacity:0;paint-order:fill markers stroke"
       d="m 86.076172,345.90234 c 0.650041,1.99405 1.29978,3.98819 1.949219,5.98243 -6.854156,-3.69264 -13.709707,-7.38268 -20.564453,-11.07422 2.161458,10.5931 4.322916,21.18619 6.484374,31.77929 17.136068,-10.22135 34.272138,-20.4427 51.408208,-30.66406 -16.69987,-9.75651 -33.399744,-19.51302 -50.099614,-29.26953 3.607422,11.08203 7.214844,22.16406 10.822266,33.24609 z" /><path
       id="path65"
       style="fill:#85b8e4;fill-opacity:1;stroke:#404040;stroke-width:0;stroke-linecap:round;stroke-dasharray:none;stroke-dashoffset:0;stroke-opacity:0;paint-order:fill markers stroke"
       d="m 149.08008,324.36133 c 4.06492,11.69472 8.13134,23.38893 12.19531,35.08398 -5.03516,2.51496 -10.06891,5.03276 -15.10351,7.54883 17.45052,-3.22461 34.90104,-6.44922 52.35156,-9.67383 -9.36133,-17.77604 -18.72266,-35.55208 -28.08399,-53.32812 -7.11979,6.78971 -14.23958,13.57942 -21.35937,20.36914 z" /><path
       id="path69"
       style="fill:#85b8e4;fill-opacity:1;stroke:#404040;stroke-width:0;stroke-linecap:round;stroke-dasharray:none;stroke-dashoffset:0;stroke-opacity:0;paint-order:fill markers stroke"
       d="m 300.83008,376.36914 c 0.0182,6.89128 0.0365,13.78255 0.0547,20.67383 12.66796,5.90364 25.33593,11.80729 38.0039,17.71094 12.66016,-19.0573 25.32031,-38.11459 37.98047,-57.17188 -25.34635,6.26237 -50.69271,12.52474 -76.03906,18.78711 z" /><path
       id="path71"
       style="fill:#85b8e4;fill-opacity:1;stroke:#404040;stroke-width:0;stroke-linecap:round;stroke-dasharray:none;stroke-dashoffset:0;stroke-opacity:0;paint-order:fill markers stroke"
       d="m 206.84375,452.41406 c 10.27159,-6.33186 20.54234,-12.66508 30.81445,-18.99609 13.92015,7.88761 27.83981,15.77611 41.75977,23.66406 13.01888,-3.71614 26.03776,-7.43229 39.05664,-11.14844 -14.83984,-10.73177 -29.67969,-21.46354 -44.51953,-32.19531 -21.84701,-1.08724 -43.69401,-2.17448 -65.54102,-3.26172 -0.52343,13.97917 -1.04687,27.95834 -1.57031,41.9375 z" /><path
       id="path75"
       style="fill:#85b8e4;fill-opacity:1;stroke:#404040;stroke-width:0;stroke-linecap:round;stroke-dasharray:none;stroke-dashoffset:0;stroke-opacity:0;paint-order:fill markers stroke"
       d="m 2.5195312,382.86328 c 1e-7,26.51953 0,53.03906 0,79.5586 18.2825518,-7.76823 36.5651038,-15.53646 54.8476568,-23.30469 -8.907704,-5.66122 -17.814195,-11.32435 -26.722657,-16.98438 -0.863358,-19.6642 -1.733601,-39.3281 -2.599609,-58.99219 -8.508464,6.57422 -17.016927,13.14844 -25.5253908,19.72266 z" /></g><g
     inkscape:groupmode="layer"
     id="layer14"
     inkscape:label="Synergy4"
     transform="translate(0,0.11887)"><path
       id="path64"
       style="fill:#acd0ef;fill-opacity:1;stroke:#404040;stroke-width:0;stroke-linecap:round;stroke-dasharray:none;stroke-dashoffset:0;stroke-opacity:0;paint-order:fill markers stroke"
       d="m 73.611328,378.6543 c -0.792858,0.8049 -2.024681,0.54472 -2.896484,0.0234 -12.557943,-5.52018 -25.115886,-11.04036 -37.673828,-16.56054 0.802734,18.20182 1.605468,36.40364 2.408203,54.60547 39.14388,-19.57162 78.287761,-39.14323 117.431641,-58.71485 -7.52083,-4.39323 -15.04167,-8.78646 -22.5625,-13.17969 -18.90234,11.2754 -37.804688,22.55079 -56.707032,33.82618 z" /><path
       id="path67"
       style="fill:#acd0ef;fill-opacity:1;stroke:#404040;stroke-width:0;stroke-linecap:round;stroke-dasharray:none;stroke-dashoffset:0;stroke-opacity:0;paint-order:fill markers stroke"
       d="m 250.01758,356.71875 c -12.9694,10.73307 -25.9388,21.46615 -38.9082,32.19922 -0.75131,5.51302 -1.50261,11.02604 -2.25391,16.53906 29.00781,1.44336 58.01562,2.88672 87.02344,4.33008 -0.0618,-23.27474 -0.1237,-46.54948 -0.18555,-69.82422 -15.22526,5.58529 -30.45052,11.17057 -45.67578,16.75586 z" /></g><g
     inkscape:groupmode="layer"
     id="layer12"
     inkscape:label="Synergy2"
     transform="translate(0,0.11887)"><path
       id="path62"
       style="fill:#94c4ed;fill-opacity:1;stroke:#404040;stroke-width:0;stroke-linecap:round;stroke-dasharray:none;stroke-dashoffset:0;stroke-opacity:0;paint-order:fill markers stroke"
       d="m 2.5195312,376.5 c 9.1566368,-7.07716 18.3154018,-14.15158 27.4707028,-21.23047 12.918981,5.67626 25.83718,11.3543 38.75586,17.03125 -2.355469,-11.53385 -4.710938,-23.06771 -7.066406,-34.60156 -19.720053,-10.61849 -39.440105,-21.23698 -59.1601568,-31.85547 1e-7,23.55208 0,47.10417 0,70.65625 z" /><path
       id="path70"
       style="fill:#acd0ef;fill-opacity:1;stroke:#404040;stroke-width:0;stroke-linecap:round;stroke-dasharray:none;stroke-dashoffset:0;stroke-opacity:0;paint-order:fill markers stroke"
       d="m 341.95898,419.23828 c -4.77474,8.85026 -9.54947,17.70052 -14.32421,26.55078 13.07031,6.18034 26.14062,12.36068 39.21093,18.54102 11.7767,-6.30274 23.55339,-12.60547 35.33008,-18.9082 0,-23.94141 0,-47.88282 0,-71.82422 -6.36654,-5.41927 -12.73307,-10.83855 -19.09961,-16.25782 -13.70573,20.63282 -27.41146,41.26563 -41.11719,61.89844 z" /><path
       id="path72"
       style="fill:#94c4ed;fill-opacity:1;stroke:#404040;stroke-width:0;stroke-linecap:round;stroke-dasharray:none;stroke-dashoffset:0;stroke-opacity:0;paint-order:fill markers stroke"
       d="m 300.92578,412.42773 c 0.0259,0.83985 0.16569,1.93955 -0.73242,2.40235 -0.76561,0.44306 -1.6818,0.0165 -2.51714,0.0915 -4.82697,-0.24078 -9.65394,-0.48156 -14.48091,-0.72234 13.36914,9.66797 26.73828,19.33594 40.10742,29.0039 4.33204,-8.03124 8.66407,-16.0625 12.9961,-24.09374 -11.79948,-5.4987 -23.59896,-10.9974 -35.39844,-16.4961 0.008,3.27149 0.0169,6.54297 0.0254,9.81445 z" /><path
       id="path73"
       style="fill:#94c4ed;fill-opacity:1;stroke:#404040;stroke-width:0;stroke-linecap:round;stroke-dasharray:none;stroke-dashoffset:0;stroke-opacity:0;paint-order:fill markers stroke"
       d="m 129.92188,375.11914 c -9.99349,4.99675 -19.98698,9.99349 -29.980474,14.99024 18.745444,18.16666 37.490884,36.33333 56.236324,54.5 15.18685,3.11979 30.3737,6.23958 45.56055,9.35937 0.56511,-15.09766 1.13021,-30.19531 1.69531,-45.29297 -10.96289,-13.6875 -21.92578,-27.375 -32.88867,-41.0625 -13.54101,2.50195 -27.08203,5.00391 -40.62304,7.50586 z" /></g><g
     inkscape:groupmode="layer"
     id="layer13"
     inkscape:label="Synergy3"
     transform="translate(0,0.11887)"><path
       id="path66"
       style="fill:#74a4ce;fill-opacity:1;stroke:#404040;stroke-width:0;stroke-linecap:round;stroke-dasharray:none;stroke-dashoffset:0;stroke-opacity:0;paint-order:fill markers stroke"
       d="m 204.75977,359.91797 c -0.1114,1.18976 -1.32414,1.78833 -2.40303,1.817 -8.73024,1.61308 -17.46048,3.22616 -26.19072,4.83925 9.37304,11.70247 18.74609,23.40495 28.11914,35.10742 0.69917,-5.13086 1.39871,-10.26168 2.09765,-15.39258 13.41705,-11.10031 26.83186,-22.20333 40.24805,-33.30468 2.82552,-7.42579 5.65104,-14.85157 8.47656,-22.27735 -13.04427,0 -26.08854,0 -39.13281,0 -3.73828,9.73698 -7.47656,19.47396 -11.21484,29.21094 z" /><path
       id="path68"
       style="fill:#74a4ce;fill-opacity:1;stroke:#404040;stroke-width:0;stroke-linecap:round;stroke-dasharray:none;stroke-dashoffset:0;stroke-opacity:0;paint-order:fill markers stroke"
       d="m 384.57812,330.16016 c -0.7542,0.82484 -1.93465,0.57776 -2.88867,0.35156 -15.42265,-2.67066 -30.84221,-5.36511 -46.26367,-8.04492 -4.69315,2.69748 -9.36014,5.44593 -14.08203,8.08789 -6.87174,2.52018 -13.74349,5.04036 -20.61523,7.56054 0.0299,11.02214 0.0599,22.04428 0.0898,33.06641 27.45953,-6.78622 54.91989,-13.56911 82.37891,-20.35742 6.32523,5.38652 12.65249,10.77065 18.97851,16.15625 0,-16.59766 0,-33.19531 0,-49.79297 -5.86588,4.32422 -11.73177,8.64844 -17.59766,12.97266 z" /><path
       id="path74"
       style="fill:#74a4ce;fill-opacity:1;stroke:#404040;stroke-width:0;stroke-linecap:round;stroke-dasharray:none;stroke-dashoffset:0;stroke-opacity:0;paint-order:fill markers stroke"
       d="m 38.214844,420.97266 c 18.152343,11.54036 36.304687,23.08073 54.457031,34.62109 15.916665,-6.44531 31.833335,-12.89062 47.750005,-19.33594 -14.70248,-14.77799 -29.40495,-29.55599 -44.107427,-44.33398 -19.366536,9.68294 -38.733073,19.36588 -58.099609,29.04883 z" /></g><g
     inkscape:groupmode="layer"
     id="layer7"
     inkscape:label="Bodymod1"
     transform="translate(0,0.11887)"><path
       id="path47"
       style="fill:#9fc88c;fill-opacity:1;stroke:#404040;stroke-width:0;stroke-linecap:round;stroke-dasharray:none;stroke-dashoffset:0;stroke-opacity:0;paint-order:fill markers stroke"
       d="m 174.22656,203.96875 c 7.19271,18.19401 14.38542,36.38802 21.57813,54.58203 18.89518,-9.86328 37.79036,-19.72656 56.68554,-29.58984 -16.222,-13.4017 -32.44401,-26.80339 -48.66601,-40.20508 -9.86589,5.07096 -19.73177,10.14193 -29.59766,15.21289 z" /><path
       id="path55"
       style="fill:#9fc88c;fill-opacity:1;stroke:#404040;stroke-width:0;stroke-linecap:round;stroke-dasharray:none;stroke-dashoffset:0;stroke-opacity:0;paint-order:fill markers stroke"
       d="m 60.765625,268.16211 c 3.895833,11.96484 7.791667,23.92969 11.6875,35.89453 27.553385,-7.83268 55.106775,-15.66536 82.660155,-23.49805 -23.1263,-13.93164 -46.2526,-27.86328 -69.378905,-41.79492 -8.322917,9.79948 -16.645833,19.59896 -24.96875,29.39844 z" /><path
       id="path59"
       style="fill:#9fc88c;fill-opacity:1;stroke:#404040;stroke-width:0;stroke-linecap:round;stroke-dasharray:none;stroke-dashoffset:0;stroke-opacity:0;paint-order:fill markers stroke"
       d="m 217.9082,325.66797 c 13.03907,0 26.07813,0 39.11719,0 5.07292,-13.32487 10.14583,-26.64974 15.21875,-39.97461 -12.91602,-0.20768 -25.83203,-0.41537 -38.74805,-0.62305 -5.19596,13.53255 -10.39192,27.06511 -15.58789,40.59766 z" /></g><g
     inkscape:groupmode="layer"
     id="layer8"
     inkscape:label="Bodymod2"
     transform="translate(0,0.11887)"><path
       id="path48"
       style="fill:#a6d68e;fill-opacity:1;stroke:#404040;stroke-width:0;stroke-linecap:round;stroke-dasharray:none;stroke-dashoffset:0;stroke-opacity:0;paint-order:fill markers stroke"
       d="m 259.26953,227.42188 c 22.74675,6.00065 45.49349,12.0013 68.24024,18.00195 -7.37956,-16.45638 -14.75912,-32.91276 -22.13868,-49.36914 -17.4095,-3.01823 -34.81901,-6.03646 -52.22851,-9.05469 2.04232,13.47396 4.08463,26.94792 6.12695,40.42188 z" /><path
       id="path50"
       style="fill:#a6d68e;fill-opacity:1;stroke:#404040;stroke-width:0;stroke-linecap:round;stroke-dasharray:none;stroke-dashoffset:0;stroke-opacity:0;paint-order:fill markers stroke"
       d="m 279.91992,283.73047 c 13.65821,13.76823 27.31641,27.53646 40.97461,41.30469 26.04297,-15.03907 52.08594,-30.07813 78.12891,-45.11719 -22.2793,-9.29623 -44.5586,-18.59245 -66.83789,-27.88867 -17.42188,10.56705 -34.84375,21.13411 -52.26563,31.70117 z" /><path
       id="path52"
       style="fill:#a6d68e;fill-opacity:1;stroke:#404040;stroke-width:0;stroke-linecap:round;stroke-dasharray:none;stroke-dashoffset:0;stroke-opacity:0;paint-order:fill markers stroke"
       d="m 116.76562,214.9043 c -13.44202,0.0814 -26.891727,0.0225 -40.336714,0.0391 -6.820052,0 -13.640104,0 -20.460156,0 35.147135,21.17383 70.29427,42.34766 105.44141,63.52148 9.98046,-5.82291 19.96093,-11.64583 29.9414,-17.46875 -7.29817,-18.46354 -14.59635,-36.92708 -21.89453,-55.39062 -17.5638,3.09961 -35.1276,6.19922 -52.69141,9.29883 z" /><path
       id="path54"
       style="fill:#a6d68e;fill-opacity:1;stroke:#404040;stroke-width:0;stroke-linecap:round;stroke-dasharray:none;stroke-dashoffset:0;stroke-opacity:0;paint-order:fill markers stroke"
       d="m 2.5195312,300.12109 c 25.6061198,13.78776 51.2122398,27.57552 76.8183598,41.36329 -7.777995,-23.89128 -15.55599,-47.78256 -23.333985,-71.67383 -17.828125,-3.25391 -35.65625,-6.50782 -53.4843748,-9.76172 1e-7,13.35742 0,26.71484 0,40.07226 z" /><path
       id="path57"
       style="fill:#a6d68e;fill-opacity:1;stroke:#404040;stroke-width:0;stroke-linecap:round;stroke-dasharray:none;stroke-dashoffset:0;stroke-opacity:0;paint-order:fill markers stroke"
       d="m 201.98828,353.08203 c 8.71484,-22.69922 17.42969,-45.39844 26.14453,-68.09765 -20.84505,-0.33464 -41.6901,-0.66928 -62.53515,-1.00391 12.1302,23.03385 24.26041,46.06771 36.39062,69.10156 z" /></g><g
     inkscape:groupmode="layer"
     id="layer9"
     inkscape:label="Bodymod3"
     transform="translate(0,0.11887)"><path
       id="path53"
       style="fill:#b2e09d;fill-opacity:1;stroke:#404040;stroke-width:0;stroke-linecap:round;stroke-dasharray:none;stroke-dashoffset:0;stroke-opacity:0;paint-order:fill markers stroke"
       d="m 2.5195312,254.92383 c 18.1445308,3.3112 36.2890628,6.62239 54.4335938,9.93359 8.134115,-9.57682 16.268229,-19.15364 24.402344,-28.73047 -11.720052,-7.06119 -23.440104,-14.12239 -35.160157,-21.18359 -14.558593,0 -29.117187,0 -43.6757808,0 1e-7,13.32682 0,26.65365 0,39.98047 z" /><path
       id="path51"
       style="fill:#b2e09d;fill-opacity:1;stroke:#404040;stroke-width:0;stroke-linecap:round;stroke-dasharray:none;stroke-dashoffset:0;stroke-opacity:0;paint-order:fill markers stroke"
       d="m 195.67188,264.3125 c -8.406,4.90003 -16.80973,9.80507 -25.21485,14.70703 34.90951,0.56055 69.81901,1.12109 104.72852,1.68164 16.79948,-10.1901 33.59896,-20.38021 50.39843,-30.57031 -22.7526,-6.00195 -45.5052,-12.00391 -68.25781,-18.00586 -20.55143,10.72917 -41.10286,21.45833 -61.65429,32.1875 z" /><path
       id="path56"
       style="fill:#b2e09d;fill-opacity:1;stroke:#404040;stroke-width:0;stroke-linecap:round;stroke-dasharray:none;stroke-dashoffset:0;stroke-opacity:0;paint-order:fill markers stroke"
       d="m 77.181641,307.94727 c 25.457029,14.87174 50.914059,29.74349 76.371089,44.61523 -6.99349,-20.12044 -13.98697,-40.24089 -20.98046,-60.36133 -18.46355,5.2487 -36.927088,10.4974 -55.390629,15.7461 z" /><path
       id="path61"
       style="fill:#b2e09d;fill-opacity:1;stroke:#404040;stroke-width:0;stroke-linecap:round;stroke-dasharray:none;stroke-dashoffset:0;stroke-opacity:0;paint-order:fill markers stroke"
       d="m 342.23828,318.5332 c 13.38151,2.32878 26.76302,4.65756 40.14453,6.98633 6.59766,-4.86458 13.19531,-9.72917 19.79297,-14.59375 0,-9.0013 0,-18.0026 0,-27.0039 -19.97917,11.5371 -39.95833,23.07421 -59.9375,34.61132 z" /></g><g
     inkscape:groupmode="layer"
     id="layer10"
     inkscape:label="Bodymod4"
     transform="translate(0,0.11887)"><path
       id="path49"
       style="fill:#90b57f;fill-opacity:1;stroke:#404040;stroke-width:0;stroke-linecap:round;stroke-dasharray:none;stroke-dashoffset:0;stroke-opacity:0;paint-order:fill markers stroke"
       d="m 330.98633,199.86133 c -1.08796,0.80937 -2.42534,0.10271 -3.61548,0.009 -5.33586,-0.92561 -10.67171,-1.85123 -16.00757,-2.77684 7.50065,16.72591 15.0013,33.45182 22.50195,50.17773 22.77019,9.50066 45.54037,19.00131 68.31055,28.50196 0,-20.80404 0,-41.60808 0,-62.41211 -10.55273,-12.26042 -21.10547,-24.52084 -31.6582,-36.78125 -13.17709,7.76041 -26.35417,15.52083 -39.53125,23.28125 z" /><path
       id="path58"
       style="fill:#90b57f;fill-opacity:1;stroke:#404040;stroke-width:0;stroke-linecap:round;stroke-dasharray:none;stroke-dashoffset:0;stroke-opacity:0;paint-order:fill markers stroke"
       d="m 253.07031,350.23047 c 20.95052,-7.6862 41.90104,-15.3724 62.85157,-23.05859 -13.0267,-13.12956 -26.05339,-26.25912 -39.08008,-39.38868 -7.92383,20.81576 -15.84766,41.63151 -23.77149,62.44727 z" /><path
       id="path60"
       style="fill:#90b57f;fill-opacity:1;stroke:#404040;stroke-width:0;stroke-linecap:round;stroke-dasharray:none;stroke-dashoffset:0;stroke-opacity:0;paint-order:fill markers stroke"
       d="m 137.42383,290.82227 c 3.27995,9.43619 6.55989,18.87239 9.83984,28.30859 6.91146,-6.5905 13.82292,-13.18099 20.73438,-19.77148 -2.63086,-4.9948 -5.26172,-9.98959 -7.89258,-14.98438 -7.56055,2.14909 -15.12109,4.29818 -22.68164,6.44727 z" /></g><g
     inkscape:label="Passive1"
     inkscape:groupmode="layer"
     id="layer1"
     transform="translate(83.28501,206.63068)"><path
       id="path3"
       style="fill:#e2b584;fill-opacity:1;stroke:#404040;stroke-width:0;stroke-linecap:round;stroke-dasharray:none;stroke-dashoffset:0;stroke-opacity:0;paint-order:fill markers stroke"
       d="m 96.951172,-83.841797 c 7.919268,7.42513 15.838538,14.850261 23.757808,22.275391 6.3112,-11.13737 12.6224,-22.27474 18.9336,-33.41211 -14.23047,3.71224 -28.46094,7.42448 -42.691408,11.136719 z" /><path
       id="path5"
       style="fill:#e2b584;fill-opacity:1;stroke:#404040;stroke-width:0;stroke-linecap:round;stroke-dasharray:none;stroke-dashoffset:0;stroke-opacity:0;paint-order:fill markers stroke"
       d="M 36.734375,2.7011719 C 52.25651,-0.03710937 67.778646,-2.7753906 83.300781,-5.5136719 73.127604,-19.210286 62.954427,-32.906901 52.78125,-46.603516 47.432292,-30.16862 42.083333,-13.733724 36.734375,2.7011719 Z" /><path
       id="path12"
       style="fill:#e2b584;fill-opacity:1;stroke:#404040;stroke-width:0;stroke-linecap:round;stroke-dasharray:none;stroke-dashoffset:0;stroke-opacity:0;paint-order:fill markers stroke"
       d="m -78.039062,-120.65234 c 22.983723,17.30859 45.967447,34.617184 68.9511714,51.925778 C 4.030599,-82.691406 17.149089,-96.65625 30.267578,-110.62109 c -13.947917,-11.28125 -27.8958332,-22.5625 -41.84375,-33.84375 -22.154297,7.9375 -44.308594,15.875 -66.46289,23.8125 z" /><path
       id="path16"
       style="fill:#e2b584;fill-opacity:1;stroke:#404040;stroke-width:0;stroke-linecap:round;stroke-dasharray:none;stroke-dashoffset:0;stroke-opacity:0;paint-order:fill markers stroke"
       d="m 63.396484,-184.88086 c 18.081333,3.9555 36.168369,7.89033 54.242306,11.87628 11.31571,3.37978 22.63143,6.75956 33.94715,10.13935 17.10286,-13.70899 34.20573,-27.41797 51.30859,-41.12696 -51.76823,0 -103.536457,0 -155.304686,0 5.26888,6.37045 10.53776,12.74089 15.80664,19.11133 z" /><path
       id="path17"
       style="fill:#e2b584;fill-opacity:1;stroke:#404040;stroke-width:0;stroke-linecap:round;stroke-dasharray:none;stroke-dashoffset:0;stroke-opacity:0;paint-order:fill markers stroke"
       d="m 97.353516,-148.12891 c 16.476114,15.88065 32.950624,31.76298 49.427734,47.64258 6.41729,11.157662 12.83746,22.313678 19.25586,33.470705 8.25065,6.679688 16.5013,13.359375 24.75195,20.039063 0.82097,-15.851563 1.64193,-31.703126 2.46289,-47.554688 -14.23632,-21.12826 -28.47265,-42.25651 -42.70898,-63.38477 -11.03841,-3.29752 -22.07682,-6.59505 -33.11524,-9.89257 -6.6914,6.55989 -13.38281,13.11979 -20.074214,19.67968 z" /><path
       id="path21"
       style="fill:#e2b584;fill-opacity:1;stroke:#404040;stroke-width:0;stroke-linecap:round;stroke-dasharray:none;stroke-dashoffset:0;stroke-opacity:0;paint-order:fill markers stroke"
       d="m 238.04492,-95.140625 c 26.94857,10.684245 53.89714,21.36849 80.8457,32.052734 0,-30.798828 10e-6,-61.597659 0,-92.396489 -14.8151,-1.40755 -29.6302,-2.8151 -44.44531,-4.22265 -12.13346,21.52213 -24.26692,43.04427 -36.40039,64.566405 z" /><path
       id="path23"
       style="fill:#e2b584;fill-opacity:1;stroke:#404040;stroke-width:0;stroke-linecap:round;stroke-dasharray:none;stroke-dashoffset:0;stroke-opacity:0;paint-order:fill markers stroke"
       d="m 127.55078,-18.498047 c 14.23633,11.7597657 28.47266,23.5195314 42.70899,35.279297 -1.85678,-12.2552083 -3.71355,-24.5104167 -5.57032,-36.765625 -12.37955,0.495443 -24.75911,0.990885 -37.13867,1.486328 z" /><path
       id="path24"
       style="fill:#e2b584;fill-opacity:1;stroke:#404040;stroke-width:0;stroke-linecap:round;stroke-dasharray:none;stroke-dashoffset:0;stroke-opacity:0;paint-order:fill markers stroke"
       d="m 241.13867,-45.757812 c 2.32878,11.002604 4.65755,22.005208 6.98633,33.007812 13.39264,-7.88596 26.78477,-15.77279 40.17773,-23.658203 10.19772,11.842244 20.39164,23.687749 30.58789,35.53124988 10e-6,-18.53645788 0,-37.07291688 0,-55.60937488 -25.91731,3.576172 -51.83463,7.152344 -77.75195,10.728516 z" /></g><g
     inkscape:groupmode="layer"
     id="layer3"
     inkscape:label="Passive2"
     transform="translate(0,0.11887)"><path
       id="path1"
       style="fill:#e2bf97;fill-opacity:1;stroke:#404040;stroke-width:0;stroke-linecap:round;stroke-opacity:0;paint-order:fill markers stroke"
       d="m 138.62891,154.9043 c 11.05468,14.88216 22.10937,29.76432 33.16406,44.64648 9.95182,-5.11523 19.90364,-10.23047 29.85547,-15.3457 0.14127,-11.38477 0.28255,-22.76953 0.42383,-34.1543 -8.9987,-8.43685 -17.9974,-16.8737 -26.9961,-25.31055 -12.14909,10.05469 -24.29818,20.10938 -36.44726,30.16407 z" /><path
       id="path7"
       style="fill:#e2bf97;fill-opacity:1;stroke:#404040;stroke-width:0;stroke-linecap:round;stroke-dasharray:none;stroke-dashoffset:0;stroke-opacity:0;paint-order:fill markers stroke"
       d="m 122.61133,95.265625 c 17.59505,7.819665 35.1901,15.639325 52.78515,23.458985 15.89258,-4.14583 31.78516,-8.29167 47.67774,-12.4375 C 207.61263,91.382813 192.15104,76.478516 176.68945,61.574219 158.66341,72.804687 140.63737,84.035156 122.61133,95.265625 Z" /><path
       id="path8"
       style="fill:#e2bf97;fill-opacity:1;stroke:#404040;stroke-width:0;stroke-linecap:round;stroke-dasharray:none;stroke-dashoffset:0;stroke-opacity:0;paint-order:fill markers stroke"
       d="m 79.361328,139.64844 c 17.384766,3.81966 34.769532,7.63932 52.154292,11.45898 -5.13606,-16.85742 -10.27213,-33.71484 -15.4082,-50.57226 -12.2487,13.03776 -24.497394,26.07552 -36.746092,39.11328 z" /><path
       id="path18"
       style="fill:#e2bf97;fill-opacity:1;stroke:#404040;stroke-width:0;stroke-linecap:round;stroke-dasharray:none;stroke-dashoffset:0;stroke-opacity:0;paint-order:fill markers stroke"
       d="m 238.79688,46.955078 c 13.88997,20.613932 27.77994,41.227865 41.66992,61.841802 11.93619,0.42578 23.87239,0.85156 35.80859,1.27734 12.24935,-21.727866 24.4987,-43.45573 36.74805,-65.183595 C 333.16536,30.97526 313.30729,17.059896 293.44922,3.1445312 275.23177,17.748047 257.01432,32.351562 238.79688,46.955078 Z" /><path
       id="path19"
       style="fill:#e2bf97;fill-opacity:1;stroke:#404040;stroke-width:0;stroke-linecap:round;stroke-dasharray:none;stroke-dashoffset:0;stroke-opacity:0;paint-order:fill markers stroke"
       d="m 252.51367,181.77344 c 24.64063,4.27213 49.28125,8.54427 73.92188,12.8164 -2.33985,-11.05208 -4.67969,-22.10416 -7.01953,-33.15625 -14.60738,1.93784 -29.21512,3.87297 -43.82227,5.8125 -8.44569,-6.83758 -16.89197,-13.67442 -25.33789,-20.51171 0.7526,11.67968 1.50521,23.35937 2.25781,35.03906 z" /><path
       id="path11"
       style="fill:#e2bf97;fill-opacity:1;stroke:#404040;stroke-width:0;stroke-linecap:round;stroke-dasharray:none;stroke-dashoffset:0;stroke-opacity:0;paint-order:fill markers stroke"
       d="m 2.5195312,143.70117 c 11.1261418,-1.83765 22.2428838,-3.75163 33.3749998,-5.52344 10.313151,0.12305 20.626302,0.2461 30.939453,0.36915 C 45.395833,122.40234 23.957682,106.25781 2.5195312,90.113281 c 0,17.862629 1e-7,35.725259 0,53.587889 z" /></g><g
     inkscape:groupmode="layer"
     id="layer4"
     inkscape:label="Passive3"
     transform="translate(0,0.11887)"><path
       id="path9"
       style="fill:#d0aa7e;fill-opacity:1;stroke:#404040;stroke-width:0;stroke-linecap:round;stroke-dasharray:none;stroke-dashoffset:0;stroke-opacity:0;paint-order:fill markers stroke"
       d="m 59.341797,180.6582 c 18.500651,9.39584 37.001302,18.79167 55.501953,28.1875 5.69401,-17.49739 11.38802,-34.99479 17.08203,-52.49218 -19.24154,-4.22722 -38.483072,-8.45443 -57.724608,-12.68164 -11.391276,-0.13477 -22.782552,-0.26954 -34.173828,-0.4043 6.438151,12.46354 12.876302,24.92708 19.314453,37.39062 z" /><path
       id="path13"
       style="fill:#d0aa7e;fill-opacity:1;stroke:#404040;stroke-width:0;stroke-linecap:round;stroke-dasharray:none;stroke-dashoffset:0;stroke-opacity:0;paint-order:fill markers stroke"
       d="M 2.5390625,81.476562 C 24.085286,73.75651 45.63151,66.036458 67.177734,58.316406 45.770833,40.613932 24.363932,22.911458 2.9570312,5.2089844 2.8177083,30.63151 2.6783854,56.054036 2.5390625,81.476562 Z" /><path
       id="path15"
       style="fill:#d0aa7e;fill-opacity:1;stroke:#404040;stroke-width:0;stroke-linecap:round;stroke-dasharray:none;stroke-dashoffset:0;stroke-opacity:0;paint-order:fill markers stroke"
       d="m 98.203125,77.216797 c 6.406905,5.11263 12.813805,10.22526 19.220705,15.337891 19.34245,-12.050782 38.68489,-24.101563 58.02734,-36.152344 6.48698,-6.358073 12.97396,-12.716146 19.46094,-19.074219 C 178.6569,33.776693 162.40169,30.22526 146.14648,26.673828 130.16536,43.521484 114.18424,60.369141 98.203125,77.216797 Z" /><path
       id="path20"
       style="fill:#d0aa7e;fill-opacity:1;stroke:#404040;stroke-width:0;stroke-linecap:round;stroke-dasharray:none;stroke-dashoffset:0;stroke-opacity:0;paint-order:fill markers stroke"
       d="m 279.00781,161.71094 c 22.90671,-3.03168 45.81539,-6.04947 68.6984,-9.25578 15.71902,-2.1693 31.43805,-4.3386 47.15707,-6.50789 -25.89127,-10.26498 -51.78255,-20.52995 -77.67383,-30.79493 -11.90234,-0.42448 -23.80468,-0.84895 -35.70703,-1.27343 -0.82487,15.94401 -1.64974,31.88802 -2.47461,47.83203 z" /><path
       id="path22"
       style="fill:#d0aa7e;fill-opacity:1;stroke:#404040;stroke-width:0;stroke-linecap:round;stroke-dasharray:none;stroke-dashoffset:0;stroke-opacity:0;paint-order:fill markers stroke"
       d="m 357.23828,41.695312 c 14.97917,1.42448 29.95833,2.848959 44.9375,4.273438 0,-14.483073 0,-28.966146 0,-43.4492188 -33.61458,1e-7 -67.22917,0 -100.84375,0 18.63542,13.0585938 37.27083,26.1171878 55.90625,39.1757808 z" /></g><g
     inkscape:groupmode="layer"
     id="layer6"
     inkscape:label="Passive4"
     transform="translate(0,0.11887)"><path
       id="path4"
       style="fill:#d6b186;fill-opacity:1;stroke:#404040;stroke-width:0;stroke-linecap:round;stroke-dasharray:none;stroke-dashoffset:0;stroke-opacity:0;paint-order:fill markers stroke"
       d="m 207.11914,149.64844 c -0.13932,11.1608 -0.27865,22.32161 -0.41797,33.48242 13.58073,-0.54362 27.16146,-1.08724 40.74219,-1.63086 -0.85026,-13.19922 -1.70052,-26.39844 -2.55078,-39.59766 -5.60612,-9.74283 -11.21224,-19.48567 -16.81836,-29.22851 -6.98503,12.32487 -13.97005,24.64974 -20.95508,36.97461 z" /><path
       id="path6"
       style="fill:#d6b186;fill-opacity:1;stroke:#404040;stroke-width:0;stroke-linecap:round;stroke-dasharray:none;stroke-dashoffset:0;stroke-opacity:0;paint-order:fill markers stroke"
       d="m 136.48828,150.13867 c 11.31836,-9.36784 22.63672,-18.73568 33.95508,-28.10351 -16.39258,-7.28516 -32.78516,-14.57032 -49.17774,-21.85547 5.07422,16.65299 10.14844,33.30599 15.22266,49.95898 z" /><path
       id="path10"
       style="fill:#d6b186;fill-opacity:1;stroke:#404040;stroke-width:0;stroke-linecap:round;stroke-dasharray:none;stroke-dashoffset:0;stroke-opacity:0;paint-order:fill markers stroke"
       d="m 2.5195312,148.80664 c 1e-7,20.36589 0,40.73177 0,61.09766 34.4277348,0 68.8554688,0 103.2831988,0 C 89.070845,201.40844 72.339902,192.91071 55.607422,184.41602 48.562245,170.77061 41.513389,157.1271 34.466797,143.48242 23.817708,145.25716 13.16862,147.0319 2.5195312,148.80664 Z" /><path
       id="path14"
       style="fill:#d6b186;fill-opacity:1;stroke:#404040;stroke-width:0;stroke-linecap:round;stroke-dasharray:none;stroke-dashoffset:0;stroke-opacity:0;paint-order:fill markers stroke"
       d="M 94.273438,74.041016 C 110.15951,57.292318 126.04557,40.54362 141.93164,23.794922 136.06706,16.703125 130.20247,9.6113281 124.33789,2.5195312 c -39.097005,0 -78.19401,0 -117.291015,0 C 36.122396,26.360026 65.197917,50.200521 94.273438,74.041016 Z" /></g></svg>
