<?xml version="1.0" encoding="UTF-8" standalone="no"?>
<!-- Created with Inkscape (http://www.inkscape.org/) -->

<svg
   width="169.97189mm"
   height="301.75809mm"
   viewBox="0 0 404.69498 718.47164"
   version="1.1"
   id="svg1"
   xml:space="preserve"
   sodipodi:docname="UpgrageOverviewPanel12.svg"
   inkscape:version="1.4.2 (f4327f4, 2025-05-13)"
   inkscape:export-filename="UpgrageOverviewPaneltest1.png"
   inkscape:export-xdpi="96"
   inkscape:export-ydpi="96"
   xmlns:inkscape="http://www.inkscape.org/namespaces/inkscape"
   xmlns:sodipodi="http://sodipodi.sourceforge.net/DTD/sodipodi-0.dtd"
   xmlns="http://www.w3.org/2000/svg"
   xmlns:svg="http://www.w3.org/2000/svg"><sodipodi:namedview
     id="namedview1"
     pagecolor="#ffffff"
     bordercolor="#000000"
     borderopacity="0.25"
     inkscape:showpageshadow="2"
     inkscape:pageopacity="0.0"
     inkscape:pagecheckerboard="0"
     inkscape:deskcolor="#d1d1d1"
     inkscape:document-units="mm"
     inkscape:zoom="1.1508788"
     inkscape:cx="149.45101"
     inkscape:cy="627.78114"
     inkscape:window-width="3840"
     inkscape:window-height="2054"
     inkscape:window-x="-11"
     inkscape:window-y="-11"
     inkscape:window-maximized="1"
     inkscape:current-layer="layer4" /><defs
     id="defs1" /><g
     inkscape:groupmode="layer"
     id="layer2"
     inkscape:label="Marker"
     transform="translate(0,0.11887)" /><g
     inkscape:groupmode="layer"
     id="layer19"
     inkscape:label="Special1"
     transform="translate(0,0.11887)"><path
       id="path95"
       style="fill:#865ccc;fill-opacity:1;stroke:#404040;stroke-width:0;stroke-linecap:round;stroke-dasharray:none;stroke-dashoffset:0;stroke-opacity:0;paint-order:fill markers stroke"
       d="m 316.80664,606.75586 c 7.6237,12.92122 15.2474,25.84245 22.87109,38.76367 15.3737,-6.16015 30.7474,-12.32031 46.1211,-18.48047 0,-10.16732 0,-20.33463 0,-30.50195 -11.48633,-8.6862 -22.97266,-17.3724 -34.45899,-26.05859 -11.51106,12.09244 -23.02213,24.18489 -34.5332,36.27734 z" /><path
       id="path86"
       style="fill:#865ccc;fill-opacity:1;stroke:#404040;stroke-width:0;stroke-linecap:round;stroke-dasharray:none;stroke-dashoffset:0;stroke-opacity:0;paint-order:fill markers stroke"
       d="m 21.386719,588.89844 c 6.376302,11.3125 12.752604,22.625 19.128906,33.9375 13.707031,-7.41927 27.414063,-14.83854 41.121094,-22.25782 -2.707032,-2.97721 -5.414063,-5.95442 -8.121094,-8.93164 -15.833984,-4.02474 -31.667969,-8.04947 -47.501953,-12.07421 -1.542318,3.10872 -3.084636,6.21744 -4.626953,9.32617 z" /></g><g
     inkscape:groupmode="layer"
     id="layer21"
     inkscape:label="Special3"
     transform="translate(0,0.11887)"><path
       id="path88"
       style="fill:#a381dc;fill-opacity:1;stroke:#404040;stroke-width:0;stroke-linecap:round;stroke-dasharray:none;stroke-dashoffset:0;stroke-opacity:0;paint-order:fill markers stroke"
       d="m 74.910156,647.18164 c 14.278646,6.77865 28.557294,13.55729 42.835934,20.33594 8.63802,-11.43034 17.27605,-22.86068 25.91407,-34.29102 -9.76628,-2.46484 -19.53256,-4.92969 -29.29883,-7.39453 -13.15039,7.11654 -26.300783,14.23307 -39.451174,21.34961 z" /><path
       id="path93"
       style="fill:#a381dc;fill-opacity:1;stroke:#404040;stroke-width:0;stroke-linecap:round;stroke-dasharray:none;stroke-dashoffset:0;stroke-opacity:0;paint-order:fill markers stroke"
       d="m 222.79492,618.49219 c 11.78972,8.67708 23.57943,17.35416 35.36914,26.03125 12.92058,0.99023 25.84115,1.98047 38.76172,2.9707 -5.36198,-9.09115 -10.72396,-18.18229 -16.08594,-27.27344 -20.4427,-5.6888 -40.88541,-11.3776 -61.32812,-17.0664 1.0944,5.11263 2.1888,10.22526 3.2832,15.33789 z" /></g><g
     inkscape:groupmode="layer"
     id="layer22"
     inkscape:label="Special4"
     transform="translate(0,0.11887)"><path
       id="path94"
       style="fill:#724eaf;fill-opacity:1;stroke:#404040;stroke-width:0;stroke-linecap:round;stroke-dasharray:none;stroke-dashoffset:0;stroke-opacity:0;paint-order:fill markers stroke"
       d="m 279.79492,571.91016 c -10.91169,-0.0337 -21.82477,-0.16314 -32.73633,-0.30078 13.44532,3.74283 26.89063,7.48567 40.33594,11.22851 4.17318,-4.38346 8.34636,-8.76693 12.51953,-13.15039 -6.70638,0.74089 -13.41276,1.48177 -20.11914,2.22266 z" /><path
       id="path96"
       style="fill:#724eaf;fill-opacity:1;stroke:#404040;stroke-width:0;stroke-linecap:round;stroke-dasharray:none;stroke-dashoffset:0;stroke-opacity:0;paint-order:fill markers stroke"
       d="m 299.04297,699.45703 c 28.91862,0 57.83724,0 86.75586,0 0,-10.79948 0,-21.59896 0,-32.39844 -28.91862,10.79948 -57.83724,21.59896 -86.75586,32.39844 z" /></g><g
     inkscape:groupmode="layer"
     id="layer20"
     inkscape:label="Special2"
     transform="translate(0,0.11887)"><path
       id="path87"
       style="fill:#9970df;fill-opacity:1;stroke:#404040;stroke-width:0;stroke-linecap:round;stroke-dasharray:none;stroke-dashoffset:0;stroke-opacity:0;paint-order:fill markers stroke"
       d="m 109.86719,575.44531 c 4.04687,4.45183 8.09375,8.90365 12.14062,13.35547 19.65039,4.96159 39.30078,9.92318 58.95117,14.88477 -1.10416,-5.16927 -2.20833,-10.33854 -3.3125,-15.50782 -16.23763,-10.5319 -32.47526,-21.0638 -48.71289,-31.5957 -6.35547,6.28776 -12.71093,12.57552 -19.0664,18.86328 z" /><path
       id="path89"
       style="fill:#9970df;fill-opacity:1;stroke:#404040;stroke-width:0;stroke-linecap:round;stroke-dasharray:none;stroke-dashoffset:0;stroke-opacity:0;paint-order:fill markers stroke"
       d="m 18.896484,694.03711 c 14.43099,-3.67773 28.86198,-7.35547 43.292969,-11.0332 -14.187457,-6.73577 -28.375258,-13.47081 -42.5625,-20.20703 -0.235313,-0.27142 -0.796698,-1.77785 -0.730469,-0.89688 0,10.71237 0,21.42474 0,32.13711 z" /><path
       id="path91"
       style="fill:#9970df;fill-opacity:1;stroke:#404040;stroke-width:0;stroke-linecap:round;stroke-dasharray:none;stroke-dashoffset:0;stroke-opacity:0;paint-order:fill markers stroke"
       d="m 153.78125,682.56836 c 12.8151,4.9069 25.63021,9.8138 38.44531,14.7207 13.14649,-8.45573 26.29297,-16.91146 39.43946,-25.36718 -11.35547,-8.36068 -22.71094,-16.72136 -34.06641,-25.08204 -4.71159,-1.18815 -9.42318,-2.3763 -14.13477,-3.56445 -9.89453,13.09766 -19.78906,26.19531 -29.68359,39.29297 z" /></g><g
     inkscape:groupmode="layer"
     id="layer15"
     inkscape:label="Active1"
     transform="translate(0,0.11887)"><path
       id="path82"
       style="fill:#d67965;fill-opacity:1;stroke:#404040;stroke-width:0;stroke-linecap:round;stroke-dasharray:none;stroke-dashoffset:0;stroke-opacity:0;paint-order:fill markers stroke"
       d="m 380.38477,481.38867 c -8.86133,14.51693 -17.72266,29.03386 -26.58399,43.55078 10.66602,8.07292 21.33203,16.14584 31.99805,24.21875 0,-23.55599 0,-47.11198 0,-70.66797 -1.80469,0.96615 -3.60938,1.9323 -5.41406,2.89844 z" /><path
       id="path80"
       style="fill:#d67965;fill-opacity:1;stroke:#404040;stroke-width:0;stroke-linecap:round;stroke-dasharray:none;stroke-dashoffset:0;stroke-opacity:0;paint-order:fill markers stroke"
       d="m 214.41602,472.9082 c -4.78714,3.24031 -11.03053,3.64736 -16.5,2.14453 -3.21941,-0.6595 -6.43881,-1.31901 -9.65821,-1.97851 -1.86328,2.82422 -3.72656,5.64844 -5.58984,8.47266 9.49088,2.91276 18.98177,5.82552 28.47265,8.73828 11.48308,-9.25586 22.96615,-18.51172 34.44922,-27.76758 -2.48893,-1.41016 -4.97786,-2.82031 -7.46679,-4.23047 -7.90235,4.8737 -15.80469,9.7474 -23.70703,14.62109 z" /></g><g
     inkscape:groupmode="layer"
     id="layer16"
     inkscape:label="Active2"
     transform="translate(0,0.11887)"><path
       id="path83"
       style="fill:#e58f7d;fill-opacity:1;stroke:#404040;stroke-width:0;stroke-linecap:round;stroke-dasharray:none;stroke-dashoffset:0;stroke-opacity:0;paint-order:fill markers stroke"
       d="m 297.36719,533.92188 c -0.59784,0.40092 -0.3652,1.18682 0.36741,0.85498 0.70634,-0.17864 0.32743,-0.99796 -0.30115,-0.85966 z" /></g><g
     inkscape:groupmode="layer"
     id="layer18"
     inkscape:label="Active4"
     transform="translate(0,0.11887)"><path
       id="path84"
       style="fill:#ce6954;fill-opacity:1;stroke:#404040;stroke-width:0;stroke-linecap:round;stroke-dasharray:none;stroke-dashoffset:0;stroke-opacity:0;paint-order:fill markers stroke"
       d="m 232.52734,521.57422 c -0.72005,4.01172 -1.4401,8.02344 -2.16015,12.03516 10.41146,0.13997 20.82291,0.27994 31.23437,0.41992 0.62891,-4.00716 1.25781,-8.01433 1.88672,-12.02149 -6.82292,-2.95898 -13.64583,-5.91797 -20.46875,-8.87695 -3.49739,2.81445 -6.99479,5.62891 -10.49219,8.44336 z" /><path
       id="path79"
       style="fill:#ce6954;fill-opacity:1;stroke:#404040;stroke-width:0;stroke-linecap:round;stroke-dasharray:none;stroke-dashoffset:0;stroke-opacity:0;paint-order:fill markers stroke"
       d="m 123.03125,466.41211 c 1.06776,1.3359 2.13505,2.67216 3.20313,4.00781 -0.23993,8.04558 -0.48052,16.09115 -0.72071,24.13672 0.52865,0.86979 1.05729,1.73958 1.58594,2.60938 7.10156,-10.76172 14.20312,-21.52344 21.30469,-32.28516 -0.94502,-0.2134 -1.9518,-0.33589 -2.8317,-0.72377 -1.66603,-1.61364 -3.33086,-3.22852 -4.99643,-4.84264 -5.84831,2.36589 -11.69661,4.73177 -17.54492,7.09766 z" /></g><g
     inkscape:groupmode="layer"
     id="layer17"
     inkscape:label="Active3"
     transform="translate(0,0.11887)"><path
       id="path76"
       style="fill:#e3a395;fill-opacity:1;stroke:#404040;stroke-width:0;stroke-linecap:round;stroke-dasharray:none;stroke-dashoffset:0;stroke-opacity:0;paint-order:fill markers stroke"
       d="m 26.425781,475.54688 c 6.11263,11.43164 12.225261,22.86328 18.337891,34.29492 11.554036,3.65169 23.108073,7.30338 34.662109,10.95508 2.554688,-2.33724 5.109375,-4.67448 7.664063,-7.01172 0.313802,-10.19792 0.627604,-20.39584 0.941406,-30.59375 -2.894338,-3.55949 -5.656315,-7.18978 -8.60976,-10.65916 -6.129429,-3.90007 -12.258858,-7.80014 -18.388287,-11.70022 -11.535807,4.90495 -23.071614,9.8099 -34.607422,14.71485 z" /><path
       id="path81"
       style="fill:#e3a395;fill-opacity:1;stroke:#404040;stroke-width:0;stroke-linecap:round;stroke-dasharray:none;stroke-dashoffset:0;stroke-opacity:0;paint-order:fill markers stroke"
       d="m 287.9707,476.90234 c -3.89974,3.14128 -7.79948,6.28256 -11.69922,9.42383 14.96941,6.49024 29.93881,12.98047 44.90821,19.47071 6.21224,-10.1836 12.42448,-20.36719 18.63672,-30.55079 -5.77735,-2.72981 -11.55469,-5.45963 -17.33203,-8.18945 -11.50456,3.2819 -23.00912,6.5638 -34.51368,9.8457 z" /><path
       id="path85"
       style="fill:#e3a395;fill-opacity:1;stroke:#404040;stroke-width:0;stroke-linecap:round;stroke-dasharray:none;stroke-dashoffset:0;stroke-opacity:0;paint-order:fill markers stroke"
       d="m 152.69336,526.95508 c 11.66471,7.56706 23.32943,15.13411 34.99414,22.70117 0.97266,-1.8511 2.24521,-3.65029 2.43763,-5.79072 1.16532,-6.47341 2.33064,-12.94681 3.49596,-19.42022 -10.88541,-3.34245 -21.77083,-6.68489 -32.65625,-10.02734 -2.75716,4.17904 -5.51432,8.35807 -8.27148,12.53711 z" /></g><g
     inkscape:groupmode="layer"
     id="layer11"
     inkscape:label="Synergy1"
     transform="translate(0,0.11887)"><path
       id="path63"
       style="fill:#85b8e4;fill-opacity:1;stroke:#404040;stroke-width:0;stroke-linecap:round;stroke-dasharray:none;stroke-dashoffset:0;stroke-opacity:0;paint-order:fill markers stroke"
       d="m 79.957031,357.57617 c -0.519898,0.12014 -0.685907,1.19073 -0.06055,1.26367 0.303857,-0.29035 1.154058,-0.51137 0.808594,-1.05859 -0.183453,-0.20817 -0.48647,-0.26317 -0.748047,-0.20508 z" /><path
       id="path71"
       style="fill:#85b8e4;fill-opacity:1;stroke:#404040;stroke-width:0;stroke-linecap:round;stroke-dasharray:none;stroke-dashoffset:0;stroke-opacity:0;paint-order:fill markers stroke"
       d="m 281.52539,439.46094 c -0.95425,-0.76588 -2.15909,-1.57264 -3.20966,-2.35423 -3.34938,-2.42294 -6.69877,-4.84588 -10.04815,-7.26882 -1.36003,-0.0677 -2.72005,-0.13542 -4.08008,-0.20312 5.7793,3.27539 11.55859,6.55078 17.33789,9.82617 z" /><path
       id="path69"
       style="fill:#85b8e4;fill-opacity:1;stroke:#404040;stroke-width:0;stroke-linecap:round;stroke-dasharray:none;stroke-dashoffset:0;stroke-opacity:0;paint-order:fill markers stroke"
       d="m 320.89258,388.28906 c 4.05208,1.88998 8.10416,3.77995 12.15625,5.66992 2.29883,-3.45898 4.59765,-6.91796 6.89648,-10.37695 -6.35091,1.56901 -12.70182,3.13802 -19.05273,4.70703 z" /><path
       id="path75"
       style="fill:#85b8e4;fill-opacity:1;stroke:#404040;stroke-width:0;stroke-linecap:round;stroke-dasharray:none;stroke-dashoffset:0;stroke-opacity:0;paint-order:fill markers stroke"
       d="m 18.896484,437.66602 c 1.128907,-0.48047 2.257813,-0.96094 3.386719,-1.44141 -1.128906,-0.7168 -2.257812,-1.43359 -3.386719,-2.15039 0,1.19726 0,2.39453 0,3.5918 z" /></g><g
     inkscape:groupmode="layer"
     id="layer14"
     inkscape:label="Synergy4"
     transform="translate(0,0.11887)"><path
       id="path64"
       style="fill:#acd0ef;fill-opacity:1;stroke:#404040;stroke-width:0;stroke-linecap:round;stroke-dasharray:none;stroke-dashoffset:0;stroke-opacity:0;paint-order:fill markers stroke"
       d="m 50.685547,390.79492 c 1.072917,-0.53646 2.145833,-1.07291 3.21875,-1.60937 -1.11849,-0.49154 -2.236979,-0.98308 -3.355469,-1.47461 0.04557,1.02799 0.09115,2.05599 0.136719,3.08398 z" /><path
       id="path67"
       style="fill:#acd0ef;fill-opacity:1;stroke:#404040;stroke-width:0;stroke-linecap:round;stroke-dasharray:none;stroke-dashoffset:0;stroke-opacity:0;paint-order:fill markers stroke"
       d="m 258.26953,371.14062 c -7.74544,6.40821 -15.49088,12.81641 -23.23633,19.22461 14.80599,0.73568 29.61198,1.47136 44.41797,2.20704 -0.026,-9.72461 -0.0521,-19.44922 -0.0781,-29.17383 -7.03451,2.58073 -14.06901,5.16146 -21.10352,7.74218 z" /></g><g
     inkscape:groupmode="layer"
     id="layer12"
     inkscape:label="Synergy2"
     transform="translate(0,0.11887)"><path
       id="path73"
       style="fill:#94c4ed;fill-opacity:1;stroke:#404040;stroke-width:0;stroke-linecap:round;stroke-dasharray:none;stroke-dashoffset:0;stroke-opacity:0;paint-order:fill markers stroke"
       d="m 135.20117,390.78516 c -2.42643,1.21354 -4.85286,2.42708 -7.27929,3.64062 12.07617,11.70052 24.15234,23.40104 36.22851,35.10156 7.3112,1.50326 14.6224,3.00651 21.93359,4.50977 0.24805,-6.6276 0.4961,-13.25521 0.74414,-19.88281 -7.65169,-9.55534 -15.30338,-19.11068 -22.95507,-28.66602 -9.55729,1.76563 -19.11459,3.53125 -28.67188,5.29688 z" /><path
       id="path62"
       style="fill:#94c4ed;fill-opacity:1;stroke:#404040;stroke-width:0;stroke-linecap:round;stroke-dasharray:none;stroke-dashoffset:0;stroke-opacity:0;paint-order:fill markers stroke"
       d="m 18.896484,343.14258 c 2.509766,-1.94011 5.019532,-3.88021 7.529297,-5.82031 -2.509765,-1.35222 -5.019531,-2.70443 -7.529297,-4.05665 0,3.29232 0,6.58464 0,9.87696 z" /><path
       id="path70"
       style="fill:#acd0ef;fill-opacity:1;stroke:#404040;stroke-width:0;stroke-linecap:round;stroke-dasharray:none;stroke-dashoffset:0;stroke-opacity:0;paint-order:fill markers stroke"
       d="m 356.07617,427.5918 c -1.93945,3.5944 -3.8789,7.1888 -5.81836,10.7832 5.37696,2.54102 10.75391,5.08203 16.13086,7.62305 6.47005,-3.46289 12.94011,-6.92578 19.41016,-10.38867 0,-17.59441 0,-35.18881 0,-52.78321 -9.90755,14.92188 -19.81511,29.84375 -29.72266,44.76563 z" /></g><g
     inkscape:groupmode="layer"
     id="layer13"
     inkscape:label="Synergy3"
     transform="translate(0,0.11887)"><path
       id="path66"
       style="fill:#74a4ce;fill-opacity:1;stroke:#404040;stroke-width:0;stroke-linecap:round;stroke-dasharray:none;stroke-dashoffset:0;stroke-opacity:0;paint-order:fill markers stroke"
       d="m 226.82031,348.13281 c 0.252,-0.31221 1.40195,-0.94775 1.06758,-1.04883 -0.86626,-0.23151 -0.7836,0.45841 -1.06758,1.04883 z m -27.74609,26.4336 c -0.27307,0.50845 0.24022,1.57383 0.84375,1.07226 0.4591,-0.289 0.58183,-1.3332 -0.19035,-1.19218 -0.22731,0.0294 -0.58891,-0.2206 -0.6534,0.11992 z" /><path
       id="path68"
       style="fill:#74a4ce;fill-opacity:1;stroke:#404040;stroke-width:0;stroke-linecap:round;stroke-dasharray:none;stroke-dashoffset:0;stroke-opacity:0;paint-order:fill markers stroke"
       d="m 336.63867,340.69141 c -4.94012,2.89692 -10.00228,5.69165 -15.4986,7.38963 -1.33641,0.48991 -2.67281,0.97983 -4.00921,1.46974 -0.26955,0.96184 0.44888,0.65471 1.07174,0.47032 11.01255,-2.72318 22.02509,-5.44636 33.03763,-8.16954 -4.26171,-0.74023 -8.52343,-1.48047 -12.78515,-2.2207 -0.60547,0.35352 -1.21094,0.70703 -1.81641,1.06055 z" /><path
       id="path74"
       style="fill:#74a4ce;fill-opacity:1;stroke:#404040;stroke-width:0;stroke-linecap:round;stroke-dasharray:none;stroke-dashoffset:0;stroke-opacity:0;paint-order:fill markers stroke"
       d="m 71.400391,422.67578 c 7.640625,4.86003 15.28125,9.72005 22.921875,14.58008 5.701174,-2.30859 11.402344,-4.61719 17.103514,-6.92578 -6.1263,-6.15821 -12.252603,-12.31641 -18.378905,-18.47461 -7.215495,3.60677 -14.43099,7.21354 -21.646484,10.82031 z" /></g><g
     inkscape:groupmode="layer"
     id="layer7"
     inkscape:label="Bodymod1"
     transform="translate(0,0.11887)"><path
       id="path47"
       style="fill:#9fc88c;fill-opacity:1;stroke:#404040;stroke-width:0;stroke-linecap:round;stroke-dasharray:none;stroke-dashoffset:0;stroke-opacity:0;paint-order:fill markers stroke"
       d="m 194.91992,211.75391 c 3.14323,7.95247 6.28646,15.90494 9.42969,23.85742 6.22526,-3.24935 12.45052,-6.4987 18.67578,-9.74805 -7.10286,-5.86914 -14.20573,-11.73828 -21.30859,-17.60742 -2.26563,1.16601 -4.53125,2.33203 -6.79688,3.49805 z" /><path
       id="path55"
       style="fill:#9fc88c;fill-opacity:1;stroke:#404040;stroke-width:0;stroke-linecap:round;stroke-dasharray:none;stroke-dashoffset:0;stroke-opacity:0;paint-order:fill markers stroke"
       d="m 79.173828,271.8125 c 1.322917,4.06185 2.645833,8.1237 3.96875,12.18555 10.399089,-2.95703 20.798182,-5.91407 31.197262,-8.8711 -8.37695,-5.04557 -16.753903,-10.09114 -25.130856,-15.13672 -3.345052,3.94076 -6.690104,7.88151 -10.035156,11.82227 z" /><path
       id="path59"
       style="fill:#9fc88c;fill-opacity:1;stroke:#404040;stroke-width:0;stroke-linecap:round;stroke-dasharray:none;stroke-dashoffset:0;stroke-opacity:0;paint-order:fill markers stroke"
       d="m 241.72461,309.29102 c 1.33398,0 2.66797,0 4.00195,0 0.96485,-2.53386 1.92969,-5.06771 2.89453,-7.60157 -1.3177,-0.0215 -2.63541,-0.043 -3.95312,-0.0645 -0.98112,2.55534 -1.96224,5.11068 -2.94336,7.66602 z" /></g><g
     inkscape:groupmode="layer"
     id="layer8"
     inkscape:label="Bodymod2"
     transform="translate(0,0.11887)"><path
       id="path48"
       style="fill:#a6d68e;fill-opacity:1;stroke:#404040;stroke-width:0;stroke-linecap:round;stroke-dasharray:none;stroke-dashoffset:0;stroke-opacity:0;paint-order:fill markers stroke"
       d="m 273.84961,214.32031 c 8.22266,2.16862 16.44531,4.33724 24.66797,6.50586 -1.51237,-3.3737 -3.02474,-6.74739 -4.53711,-10.12109 -7.07878,-1.22396 -14.15755,-2.44792 -21.23633,-3.67188 0.36849,2.42904 0.73698,4.85808 1.10547,7.28711 z" /><path
       id="path50"
       style="fill:#a6d68e;fill-opacity:1;stroke:#404040;stroke-width:0;stroke-linecap:round;stroke-dasharray:none;stroke-dashoffset:0;stroke-opacity:0;paint-order:fill markers stroke"
       d="m 306.19922,286.97461 c 5.80404,5.85221 11.60807,11.70443 17.41211,17.55664 12.84831,-7.41732 25.69661,-14.83464 38.54492,-22.25195 -9.52474,-3.97266 -19.04948,-7.94532 -28.57422,-11.91797 -9.1276,5.53776 -18.25521,11.07552 -27.38281,16.61328 z" /><path
       id="path52"
       style="fill:#a6d68e;fill-opacity:1;stroke:#404040;stroke-width:0;stroke-linecap:round;stroke-dasharray:none;stroke-dashoffset:0;stroke-opacity:0;paint-order:fill markers stroke"
       d="m 119.60938,231.02734 c -1.61969,0.10253 -3.24553,0.14808 -4.86915,0.18555 15.60743,9.403 31.21485,18.80599 46.82227,28.20899 3.13086,-1.82813 6.26172,-3.65626 9.39258,-5.48438 -3.9388,-9.96224 -7.87761,-19.92448 -11.81641,-29.88672 -13.17643,2.32552 -26.35286,4.65104 -39.52929,6.97656 z" /><path
       id="path54"
       style="fill:#a6d68e;fill-opacity:1;stroke:#404040;stroke-width:0;stroke-linecap:round;stroke-dasharray:none;stroke-dashoffset:0;stroke-opacity:0;paint-order:fill markers stroke"
       d="m 18.896484,290.3457 c 10.739584,5.78125 21.479167,11.5625 32.21875,17.34375 -2.551432,-7.83593 -5.102864,-15.67187 -7.654296,-23.50781 -8.188152,-1.49349 -16.376303,-2.98698 -24.564454,-4.48047 0,3.54818 0,7.09636 0,10.64453 z" /><path
       id="path57"
       style="fill:#a6d68e;fill-opacity:1;stroke:#404040;stroke-width:0;stroke-linecap:round;stroke-dasharray:none;stroke-dashoffset:0;stroke-opacity:0;paint-order:fill markers stroke"
       d="m 199.65234,313.47266 c 1.59831,-4.16407 3.19662,-8.32813 4.79493,-12.49219 -3.82422,-0.0612 -7.64844,-0.1224 -11.47266,-0.18359 2.22591,4.22526 4.45182,8.45052 6.67773,12.67578 z" /></g><g
     inkscape:groupmode="layer"
     id="layer9"
     inkscape:label="Bodymod3"
     transform="translate(0,0.11887)"><path
       id="path53"
       style="fill:#b2e09d;fill-opacity:1;stroke:#404040;stroke-width:0;stroke-linecap:round;stroke-dasharray:none;stroke-dashoffset:0;stroke-opacity:0;paint-order:fill markers stroke"
       d="m 18.896484,241.25391 c 10.561198,1.92643 21.122396,3.85286 31.683594,5.77929 1.932943,-2.27539 3.865886,-4.55078 5.798828,-6.82617 -4.915364,-2.96224 -9.830729,-5.92448 -14.746094,-8.88672 -7.578776,0 -15.157552,0 -22.736328,0 0,3.3112 0,6.6224 0,9.9336 z" /><path
       id="path51"
       style="fill:#b2e09d;fill-opacity:1;stroke:#404040;stroke-width:0;stroke-linecap:round;stroke-dasharray:none;stroke-dashoffset:0;stroke-opacity:0;paint-order:fill markers stroke"
       d="m 232.39648,263.63281 c 12.76498,0.20508 25.52995,0.41016 38.29493,0.61524 4.46224,-2.70769 8.92448,-5.41537 13.38671,-8.12305 -8.26367,-2.17708 -16.52734,-4.35417 -24.79101,-6.53125 -8.96354,4.67969 -17.92708,9.35937 -26.89063,14.03906 z" /><path
       id="path56"
       style="fill:#b2e09d;fill-opacity:1;stroke:#404040;stroke-width:0;stroke-linecap:round;stroke-dasharray:none;stroke-dashoffset:0;stroke-opacity:0;paint-order:fill markers stroke"
       d="m 118.60352,313.17773 c 1.64583,0.96224 3.29166,1.92448 4.9375,2.88672 -0.45183,-1.30143 -0.90365,-2.60286 -1.35547,-3.90429 -1.19401,0.33919 -2.38802,0.67838 -3.58203,1.01757 z" /></g><g
     inkscape:groupmode="layer"
     id="layer10"
     inkscape:label="Bodymod4"
     transform="translate(0,0.11887)"><path
       id="path49"
       style="fill:#90b57f;fill-opacity:1;stroke:#404040;stroke-width:0;stroke-linecap:round;stroke-dasharray:none;stroke-dashoffset:0;stroke-opacity:0;paint-order:fill markers stroke"
       d="m 339.74805,213.70117 c -0.76456,0.48998 -1.55627,0.94008 -2.39063,1.30078 2.94076,6.5586 5.88151,13.11719 8.82227,19.67578 13.20638,5.50847 26.41276,11.01693 39.61914,16.52539 0,-10.58268 0,-21.16536 0,-31.74804 -6.25716,-7.27214 -12.51432,-14.54427 -18.77149,-21.81641 -9.0931,5.35417 -18.18619,10.70834 -27.27929,16.0625 z" /><path
       id="path58"
       style="fill:#90b57f;fill-opacity:1;stroke:#404040;stroke-width:0;stroke-linecap:round;stroke-dasharray:none;stroke-dashoffset:0;stroke-opacity:0;paint-order:fill markers stroke"
       d="m 281.16602,322.46484 c 1.71679,-0.6302 3.43359,-1.26041 5.15039,-1.89062 -1.06771,-1.07552 -2.13542,-2.15104 -3.20313,-3.22656 -0.64909,1.70573 -1.29818,3.41145 -1.94726,5.11718 z" /><path
       id="path60"
       style="fill:#90b57f;fill-opacity:1;stroke:#404040;stroke-width:0;stroke-linecap:round;stroke-dasharray:none;stroke-dashoffset:0;stroke-opacity:0;paint-order:fill markers stroke"
       d="m 152.3418,298.14648 c -0.33206,0.0134 -0.47448,0.54064 -0.0488,0.5293 0.28785,-0.0549 0.63228,-0.66995 0.0488,-0.5293 z" /></g><g
     inkscape:label="Passive1"
     inkscape:groupmode="layer"
     id="layer1"
     transform="translate(83.28501,206.63068)"><path
       id="path16"
       style="fill:#e2b584;fill-opacity:1;stroke:#404040;stroke-width:0;stroke-linecap:round;stroke-dasharray:none;stroke-dashoffset:0;stroke-opacity:0;paint-order:fill markers stroke"
       d="m 125.96484,-187.61133 c 7.36038,2.21078 14.72768,4.40185 22.0918,6.60156 2.7474,-2.20182 5.49479,-4.40364 8.24219,-6.60546 -10.10677,0.003 -20.25,-0.005 -30.33399,0.004 z" /><path
       id="path12"
       style="fill:#e2b584;fill-opacity:1;stroke:#404040;stroke-width:0;stroke-linecap:round;stroke-dasharray:none;stroke-dashoffset:0;stroke-opacity:0;paint-order:fill markers stroke"
       d="m -43.939453,-115.47266 c 10.990885,8.278 21.981771,16.555993 32.972656,24.833988 5.7382814,-6.110677 11.47656262,-12.221358 17.2148439,-18.332028 -6.99218753,-5.6543 -13.984375,-11.3086 -20.9765629,-16.96289 -9.736979,3.48698 -19.473958,6.97395 -29.210937,10.46093 z" /><path
       id="path17"
       style="fill:#e2b584;fill-opacity:1;stroke:#404040;stroke-width:0;stroke-linecap:round;stroke-dasharray:none;stroke-dashoffset:0;stroke-opacity:0;paint-order:fill markers stroke"
       d="m 120.86523,-148.22656 c 12.98914,12.51932 25.97667,25.04031 38.9668,37.55859 5.46096,9.49878 10.92469,18.995973 16.38672,28.494142 0.13411,-2.577474 0.26823,-5.154948 0.40234,-7.732422 -12.1289,-17.99805 -24.25781,-35.99609 -36.38671,-53.99414 -6.07487,-1.81641 -12.14974,-3.63281 -18.22461,-5.44922 -0.38151,0.37435 -0.76303,0.7487 -1.14454,1.12305 z" /><path
       id="path21"
       style="fill:#e2b584;fill-opacity:1;stroke:#404040;stroke-width:0;stroke-linecap:round;stroke-dasharray:none;stroke-dashoffset:0;stroke-opacity:0;paint-order:fill markers stroke"
       d="m 261.53125,-103.45508 c 13.66081,5.415366 27.32161,10.830731 40.98242,16.246096 0,-17.791016 0,-35.582036 0,-53.373046 -6.3431,-0.60287 -12.6862,-1.20573 -19.02929,-1.80859 -7.31771,12.97851 -14.63542,25.95703 -21.95313,38.93554 z" /></g><g
     inkscape:groupmode="layer"
     id="layer3"
     inkscape:label="Passive2"
     transform="translate(0,0.11887)"><path
       id="path1"
       style="fill:#e2bf97;fill-opacity:1;stroke:#404040;stroke-width:0;stroke-linecap:round;stroke-opacity:0;paint-order:fill markers stroke"
       d="m 161.04883,157.5957 c 5.20638,7.01107 10.41276,14.02214 15.61914,21.03321 2.91015,-1.49675 5.82031,-2.99349 8.73047,-4.49024 0.0697,-5.69075 0.13932,-11.38151 0.20898,-17.07226 -3.73893,-3.50521 -7.47786,-7.01042 -11.2168,-10.51563 -4.44726,3.68164 -8.89453,7.36328 -13.34179,11.04492 z" /><path
       id="path7"
       style="fill:#e2bf97;fill-opacity:1;stroke:#404040;stroke-width:0;stroke-linecap:round;stroke-dasharray:none;stroke-dashoffset:0;stroke-opacity:0;paint-order:fill markers stroke"
       d="m 157.48828,92.849609 c 6.4375,2.861329 12.875,5.722657 19.3125,8.583981 4.62826,-1.20833 9.25651,-2.416663 13.88477,-3.624996 -5.38477,-5.190104 -10.76953,-10.380209 -16.1543,-15.570313 -5.68099,3.53711 -11.36198,7.074219 -17.04297,10.611328 z" /><path
       id="path8"
       style="fill:#e2bf97;fill-opacity:1;stroke:#404040;stroke-width:0;stroke-linecap:round;stroke-dasharray:none;stroke-dashoffset:0;stroke-opacity:0;paint-order:fill markers stroke"
       d="m 109.00195,129.52734 c -0.40943,0.0482 -1.17496,0.95323 -0.49325,1.03213 0.87712,0.41049 0.92333,-0.002 0.61297,-0.76861 -0.0557,-0.0492 -2e-4,-0.31825 -0.11972,-0.26352 z" /><path
       id="path18"
       style="fill:#e2bf97;fill-opacity:1;stroke:#404040;stroke-width:0;stroke-linecap:round;stroke-dasharray:none;stroke-dashoffset:0;stroke-opacity:0;paint-order:fill markers stroke"
       d="m 260.79883,50.306641 c 9.52669,14.139323 19.05338,28.278645 28.58008,42.417968 5.84244,0.20573 11.68489,0.411459 17.52734,0.617188 8.18685,-14.525391 16.3737,-29.050781 24.56055,-43.576172 -12.45248,-8.722656 -24.90495,-17.445312 -37.35742,-26.167969 -11.10352,8.902995 -22.20704,17.80599 -33.31055,26.708985 z" /><path
       id="path19"
       style="fill:#e2bf97;fill-opacity:1;stroke:#404040;stroke-width:0;stroke-linecap:round;stroke-dasharray:none;stroke-dashoffset:0;stroke-opacity:0;paint-order:fill markers stroke"
       d="m 263.24023,171.92969 c -0.27605,0.2237 0.47776,0.55253 0.33008,0.0781 -0.0742,-0.14291 -0.19992,-0.10177 -0.33008,-0.0781 z" /><path
       id="path11"
       style="fill:#e2bf97;fill-opacity:1;stroke:#404040;stroke-width:0;stroke-linecap:round;stroke-dasharray:none;stroke-dashoffset:0;stroke-opacity:0;paint-order:fill markers stroke"
       d="m 18.896484,124.36914 c 0.515353,-0.0866 1.032526,-0.17291 1.546875,-0.25976 -0.515625,-0.38868 -1.03125,-0.77735 -1.546875,-1.16602 0,0.47526 0,0.95052 0,1.42578 z" /></g><g
     inkscape:groupmode="layer"
     id="layer4"
     inkscape:label="Passive3"
     transform="translate(0,0.11887)"><path
       id="path9"
       style="fill:#d0aa7e;fill-opacity:1;stroke:#404040;stroke-width:0;stroke-linecap:round;stroke-dasharray:none;stroke-dashoffset:0;stroke-opacity:0;paint-order:fill markers stroke"
       d="m 71.478516,168.44531 c 11.238932,5.7142 22.477864,11.42839 33.716794,17.14258 1.85873,-5.70768 3.71745,-11.41536 5.57617,-17.12305 -12.807938,-2.8138 -25.615881,-5.6276 -38.423824,-8.4414 -1.751302,-0.0202 -3.502604,-0.0404 -5.253906,-0.0606 1.461589,2.82747 2.923177,5.65495 4.384766,8.48242 z" /><path
       id="path13"
       style="fill:#d0aa7e;fill-opacity:1;stroke:#404040;stroke-width:0;stroke-linecap:round;stroke-dasharray:none;stroke-dashoffset:0;stroke-opacity:0;paint-order:fill markers stroke"
       d="m 19.042969,58.167969 c 5.177734,-1.854818 10.355468,-3.709636 15.533203,-5.564453 -5.14388,-4.253907 -10.287761,-8.507813 -15.431641,-12.761719 -0.03385,6.108724 -0.06771,12.217448 -0.101562,18.326172 z" /><path
       id="path15"
       style="fill:#d0aa7e;fill-opacity:1;stroke:#404040;stroke-width:0;stroke-linecap:round;stroke-dasharray:none;stroke-dashoffset:0;stroke-opacity:0;paint-order:fill markers stroke"
       d="m 134.84961,62.382812 c 8.48437,-5.284505 16.96875,-10.56901 25.45312,-15.853515 -2.87369,-0.626953 -5.74739,-1.253906 -8.62109,-1.880859 -5.61068,5.911458 -11.22135,11.822916 -16.83203,17.734374 z" /><path
       id="path20"
       style="fill:#d0aa7e;fill-opacity:1;stroke:#404040;stroke-width:0;stroke-linecap:round;stroke-dasharray:none;stroke-dashoffset:0;stroke-opacity:0;paint-order:fill markers stroke"
       d="m 296.375,142.875 c 11.50379,-1.54671 23.00698,-3.09747 34.50781,-4.66602 -5.70052,-2.26041 -11.40104,-4.52083 -17.10156,-6.78125 -5.59505,-0.19856 -11.1901,-0.39713 -16.78516,-0.5957 -0.20703,4.01432 -0.41406,8.02865 -0.62109,12.04297 z" /><path
       id="path22"
       style="fill:#d0aa7e;fill-opacity:1;stroke:#404040;stroke-width:0;stroke-linecap:round;stroke-dasharray:none;stroke-dashoffset:0;stroke-opacity:0;paint-order:fill markers stroke"
       d="m 363.07812,25.800781 c 7.57357,0.722005 15.14714,1.444011 22.72071,2.166016 0,-3.023438 0,-6.046875 0,-9.070313 -10.85677,0 -21.71354,0 -32.57031,0 3.2832,2.301433 6.5664,4.602865 9.8496,6.904297 z" /></g><g
     inkscape:groupmode="layer"
     id="layer6"
     inkscape:label="Passive4"
     transform="translate(0,0.11887)"><path
       id="path4"
       style="fill:#d6b186;fill-opacity:1;stroke:#404040;stroke-width:0;stroke-linecap:round;stroke-dasharray:none;stroke-dashoffset:0;stroke-opacity:0;paint-order:fill markers stroke"
       d="m 223.44531,154.04102 c -0.0501,4.00911 -0.10026,8.01822 -0.15039,12.02734 2.24219,-0.0898 4.48438,-0.17969 6.72656,-0.26953 -0.40885,-6.34896 -0.8177,-12.69792 -1.22656,-19.04688 -0.30457,-0.41269 -0.61206,-1.57645 -0.91102,-0.54438 -1.47953,2.61115 -2.95906,5.2223 -4.43859,7.83345 z" /><path
       id="path6"
       style="fill:#d6b186;fill-opacity:1;stroke:#404040;stroke-width:0;stroke-linecap:round;stroke-dasharray:none;stroke-dashoffset:0;stroke-opacity:0;paint-order:fill markers stroke"
       d="m 143.33789,125.17578 c -0.44815,0.22057 -0.53177,1.4221 0.16797,1.21094 0.38988,-0.20397 1.0949,-0.78341 0.42742,-1.12092 -0.17429,-0.10442 -0.398,-0.12666 -0.59539,-0.09 z" /><path
       id="path10"
       style="fill:#d6b186;fill-opacity:1;stroke:#404040;stroke-width:0;stroke-linecap:round;stroke-dasharray:none;stroke-dashoffset:0;stroke-opacity:0;paint-order:fill markers stroke"
       d="m 18.896484,162.66992 c 0,10.28581 0,20.57162 0,30.85742 7.658855,0 15.317709,0 22.976563,0 -5.496745,-10.64713 -10.99349,-21.29427 -16.490235,-31.9414 -2.162109,0.36133 -4.324218,0.72265 -6.486328,1.08398 z" /><path
       id="path14"
       style="fill:#d6b186;fill-opacity:1;stroke:#404040;stroke-width:0;stroke-linecap:round;stroke-dasharray:none;stroke-dashoffset:0;stroke-opacity:0;paint-order:fill markers stroke"
       d="m 92.876953,51.722656 c 9.064457,-9.555338 18.128907,-19.110677 27.193357,-28.666015 -1.14713,-1.386719 -2.29427,-2.773438 -3.4414,-4.160157 -21.259118,0 -42.518233,0 -63.777348,0 13.341797,10.942058 26.683594,21.884115 40.025391,32.826172 z" /></g></svg>
