<?xml version="1.0" encoding="UTF-8" standalone="no"?>
<!-- Created with Inkscape (http://www.inkscape.org/) -->

<svg
   width="169.97189mm"
   height="301.75809mm"
   viewBox="0 0 404.69498 718.47164"
   version="1.1"
   id="svg1"
   xml:space="preserve"
   sodipodi:docname="UpgrageOverviewPanel15.svg"
   inkscape:version="1.4.2 (f4327f4, 2025-05-13)"
   inkscape:export-filename="UpgrageOverviewPaneltest1.png"
   inkscape:export-xdpi="96"
   inkscape:export-ydpi="96"
   xmlns:inkscape="http://www.inkscape.org/namespaces/inkscape"
   xmlns:sodipodi="http://sodipodi.sourceforge.net/DTD/sodipodi-0.dtd"
   xmlns="http://www.w3.org/2000/svg"
   xmlns:svg="http://www.w3.org/2000/svg"><sodipodi:namedview
     id="namedview1"
     pagecolor="#ffffff"
     bordercolor="#000000"
     borderopacity="0.25"
     inkscape:showpageshadow="2"
     inkscape:pageopacity="0.0"
     inkscape:pagecheckerboard="0"
     inkscape:deskcolor="#d1d1d1"
     inkscape:document-units="mm"
     inkscape:zoom="1.1508788"
     inkscape:cx="149.45101"
     inkscape:cy="627.78114"
     inkscape:window-width="3840"
     inkscape:window-height="2054"
     inkscape:window-x="-11"
     inkscape:window-y="-11"
     inkscape:window-maximized="1"
     inkscape:current-layer="layer4" /><defs
     id="defs1" /><g
     inkscape:groupmode="layer"
     id="layer2"
     inkscape:label="Marker"
     transform="translate(0,0.11887)" /><g
     inkscape:groupmode="layer"
     id="layer19"
     inkscape:label="Special1"
     transform="translate(0,0.11887)"><path
       id="path95"
       style="fill:#865ccc;fill-opacity:1;stroke:#404040;stroke-width:0;stroke-linecap:round;stroke-dasharray:none;stroke-dashoffset:0;stroke-opacity:0;paint-order:fill markers stroke"
       d="m 330.92773,608.36719 c 4.52279,7.66732 9.04558,15.33463 13.56836,23.00195 9.98828,-4.00391 19.97657,-8.00781 29.96485,-12.01172 0,-5.72591 0,-11.45182 0,-17.17773 -7.29688,-5.51628 -14.59375,-11.03255 -21.89063,-16.54883 -7.21419,7.57878 -14.42838,15.15755 -21.64258,22.73633 z" /><path
       id="path86"
       style="fill:#865ccc;fill-opacity:1;stroke:#404040;stroke-width:0;stroke-linecap:round;stroke-dasharray:none;stroke-dashoffset:0;stroke-opacity:0;paint-order:fill markers stroke"
       d="m 44.927734,607.56055 c 4.8125,-2.60547 9.625,-5.21094 14.4375,-7.81641 -7.332031,-1.86328 -14.664062,-3.72656 -21.996093,-5.58984 2.519531,4.46875 5.039062,8.9375 7.558593,13.40625 z" /></g><g
     inkscape:groupmode="layer"
     id="layer21"
     inkscape:label="Special3"
     transform="translate(0,0.11887)"><path
       id="path88"
       style="fill:#a381dc;fill-opacity:1;stroke:#404040;stroke-width:0;stroke-linecap:round;stroke-dasharray:none;stroke-dashoffset:0;stroke-opacity:0;paint-order:fill markers stroke"
       d="m 99.958984,646.51367 c 4.768876,2.26432 9.537756,4.52865 14.306636,6.79297 3.34375,-4.42448 6.68751,-8.84896 10.03126,-13.27344 -2.80925,-0.70833 -5.61849,-1.41666 -8.42774,-2.125 -5.30338,2.86849 -10.60677,5.73698 -15.910156,8.60547 z" /><path
       id="path93"
       style="fill:#a381dc;fill-opacity:1;stroke:#404040;stroke-width:0;stroke-linecap:round;stroke-dasharray:none;stroke-dashoffset:0;stroke-opacity:0;paint-order:fill markers stroke"
       d="m 262.27734,633.4668 c 4.61133,0.35351 9.22266,0.70703 13.83399,1.06054 -0.9082,-1.54036 -1.81641,-3.08073 -2.72461,-4.62109 -8.54557,-2.37695 -17.09115,-4.75391 -25.63672,-7.13086 4.84245,3.5638 9.6849,7.1276 14.52734,10.69141 z" /></g><g
     inkscape:groupmode="layer"
     id="layer22"
     inkscape:label="Special4"
     transform="translate(0,0.11887)"><path
       id="path96"
       style="fill:#724eaf;fill-opacity:1;stroke:#404040;stroke-width:0;stroke-linecap:round;stroke-dasharray:none;stroke-dashoffset:0;stroke-opacity:0;paint-order:fill markers stroke"
       d="m 361.79883,688.11914 c 4.2207,0 8.4414,0 12.66211,0 0,-1.57682 0,-3.15365 0,-4.73047 -4.22071,1.57682 -8.44141,3.15365 -12.66211,4.73047 z" /></g><g
     inkscape:groupmode="layer"
     id="layer20"
     inkscape:label="Special2"
     transform="translate(0,0.11887)"><path
       id="path91"
       style="fill:#9970df;fill-opacity:1;stroke:#404040;stroke-width:0;stroke-linecap:round;stroke-dasharray:none;stroke-dashoffset:0;stroke-opacity:0;paint-order:fill markers stroke"
       d="m 171.92188,677.38281 c 6.32877,2.42253 12.65755,4.84505 18.98632,7.26758 6.92644,-4.45508 13.85287,-8.91016 20.7793,-13.36523 -6.32617,-4.65756 -12.65234,-9.31511 -18.97852,-13.97266 -1.57487,-0.39648 -3.14974,-0.79297 -4.7246,-1.18945 -5.35417,7.08659 -10.70834,14.17317 -16.0625,21.25976 z" /><path
       id="path87"
       style="fill:#9970df;fill-opacity:1;stroke:#404040;stroke-width:0;stroke-linecap:round;stroke-dasharray:none;stroke-dashoffset:0;stroke-opacity:0;paint-order:fill markers stroke"
       d="m 125.57227,575.86719 c 0.88751,0.92159 1.69498,1.97663 2.63211,2.81548 7.62589,1.92413 15.25177,3.84827 22.87765,5.77241 -6.88476,-4.46289 -13.76953,-8.92578 -20.6543,-13.38867 -1.61849,1.60026 -3.23697,3.20052 -4.85546,4.80078 z" /></g><g
     inkscape:groupmode="layer"
     id="layer15"
     inkscape:label="Active1"
     transform="translate(0,0.11887)"><path
       id="path82"
       style="fill:#d67965;fill-opacity:1;stroke:#404040;stroke-width:0;stroke-linecap:round;stroke-dasharray:none;stroke-dashoffset:0;stroke-opacity:0;paint-order:fill markers stroke"
       d="m 368.83008,522.0957 c 1.87695,1.42123 3.7539,2.84245 5.63086,4.26368 0,-4.49675 0,-8.99349 0,-13.49024 -1.87696,3.07552 -3.75391,6.15104 -5.63086,9.22656 z" /></g><g
     inkscape:groupmode="layer"
     id="layer16"
     inkscape:label="Active2"
     transform="translate(0,0.11887)"><path
       id="path83"
       style="fill:#e58f7d;fill-opacity:1;stroke:#404040;stroke-width:0;stroke-linecap:round;stroke-dasharray:none;stroke-dashoffset:0;stroke-opacity:0;paint-order:fill markers stroke"
       d="m 297.26758,533.65039 c -0.89322,0.32918 -0.18874,1.81307 0.625,1.39453 0.88366,-0.45814 0.20152,-1.54882 -0.625,-1.39453 z" /></g><g
     inkscape:groupmode="layer"
     id="layer18"
     inkscape:label="Active4"
     transform="translate(0,0.11887)" /><g
     inkscape:groupmode="layer"
     id="layer17"
     inkscape:label="Active3"
     transform="translate(0,0.11887)"><path
       id="path76"
       style="fill:#e3a395;fill-opacity:1;stroke:#404040;stroke-width:0;stroke-linecap:round;stroke-dasharray:none;stroke-dashoffset:0;stroke-opacity:0;paint-order:fill markers stroke"
       d="m 42.273438,481.13672 c 3.437499,6.42773 6.875,12.85547 10.3125,19.2832 7.776692,2.45964 15.553385,4.91927 23.330078,7.37891 0.230638,-6.91678 0.434107,-13.83614 0.654296,-20.75391 -1.796132,-2.14415 -3.29121,-4.59468 -5.47339,-6.3789 -3.700276,-2.35612 -7.400552,-4.71224 -11.100828,-7.06836 -5.907552,2.51302 -11.815104,5.02604 -17.722656,7.53906 z" /><path
       id="path81"
       style="fill:#e3a395;fill-opacity:1;stroke:#404040;stroke-width:0;stroke-linecap:round;stroke-dasharray:none;stroke-dashoffset:0;stroke-opacity:0;paint-order:fill markers stroke"
       d="m 301.4043,484.85547 c 5.07682,2.20182 10.15364,4.40364 15.23047,6.60547 2.30729,-3.78321 4.61458,-7.56641 6.92187,-11.34961 -0.72535,-0.29392 -1.43549,-0.77391 -2.17039,-0.95111 -6.66065,1.89842 -13.3213,3.79683 -19.98195,5.69525 z" /></g><g
     inkscape:groupmode="layer"
     id="layer11"
     inkscape:label="Synergy1"
     transform="translate(0,0.11887)"><path
       id="path63"
       style="fill:#85b8e4;fill-opacity:1;stroke:#404040;stroke-width:0;stroke-linecap:round;stroke-dasharray:none;stroke-dashoffset:0;stroke-opacity:0;paint-order:fill markers stroke"
       d="m 79.488281,358.24609 c 0.185553,0.60497 1.357445,0.69303 1.28711,-0.0723 -0.172036,-0.67603 -0.885833,0.0416 -1.28711,0.0723 z" /></g><g
     inkscape:groupmode="layer"
     id="layer14"
     inkscape:label="Synergy4"
     transform="translate(0,0.11887)"><path
       id="path67"
       style="fill:#acd0ef;fill-opacity:1;stroke:#404040;stroke-width:0;stroke-linecap:round;stroke-dasharray:none;stroke-dashoffset:0;stroke-opacity:0;paint-order:fill markers stroke"
       d="m 265.60156,380.53125 c 0.82552,0.041 1.65104,0.082 2.47656,0.12305 0.0811,-0.72842 0.0586,-1.30826 -0.75297,-0.75562 -0.57453,0.21085 -1.14906,0.42171 -1.72359,0.63257 z" /></g><g
     inkscape:groupmode="layer"
     id="layer12"
     inkscape:label="Synergy2"
     transform="translate(0,0.11887)"><path
       id="path73"
       style="fill:#94c4ed;fill-opacity:1;stroke:#404040;stroke-width:0;stroke-linecap:round;stroke-dasharray:none;stroke-dashoffset:0;stroke-opacity:0;paint-order:fill markers stroke"
       d="m 149.60547,399.64844 c 6.6875,6.47916 13.375,12.95833 20.0625,19.4375 1.85937,0.38216 3.71875,0.76432 5.57812,1.14648 -0.0146,-0.77905 0.14861,-1.61675 0.0234,-2.35931 -5.33984,-6.66994 -10.67969,-13.33989 -16.01953,-20.00983 -3.21484,0.59505 -6.42969,1.19011 -9.64453,1.78516 z" /><path
       id="path62"
       style="fill:#94c4ed;fill-opacity:1;stroke:#404040;stroke-width:0;stroke-linecap:round;stroke-dasharray:none;stroke-dashoffset:0;stroke-opacity:0;paint-order:fill markers stroke"
       d="m 21.236328,336.78711 c -1.151014,0.26 -0.632491,2.31874 0.510417,1.94084 0.929542,-0.12571 1.08712,-1.60733 0.158468,-1.88023 -0.225168,-0.0749 -0.433663,-0.11666 -0.668885,-0.0606 z" /><path
       id="path70"
       style="fill:#acd0ef;fill-opacity:1;stroke:#404040;stroke-width:0;stroke-linecap:round;stroke-dasharray:none;stroke-dashoffset:0;stroke-opacity:0;paint-order:fill markers stroke"
       d="m 365.93164,433.24609 c 0.53202,0.0278 1.0785,-0.53427 1.61604,-0.73183 2.30442,-1.23327 4.60884,-2.46654 6.91326,-3.69981 0,-2.80534 0,-5.61067 0,-8.41601 -2.8431,4.28255 -5.6862,8.5651 -8.5293,12.84765 z" /></g><g
     inkscape:groupmode="layer"
     id="layer13"
     inkscape:label="Synergy3"
     transform="translate(0,0.11887)"><path
       id="path66"
       style="fill:#74a4ce;fill-opacity:1;stroke:#404040;stroke-width:0;stroke-linecap:round;stroke-dasharray:none;stroke-dashoffset:0;stroke-opacity:0;paint-order:fill markers stroke"
       d="m 199.33594,374.52539 c -0.71397,0.31723 0.0279,1.41558 0.59888,0.91639 0.67234,-0.47017 0.092,-1.23127 -0.59888,-0.91639 z" /><path
       id="path68"
       style="fill:#74a4ce;fill-opacity:1;stroke:#404040;stroke-width:0;stroke-linecap:round;stroke-dasharray:none;stroke-dashoffset:0;stroke-opacity:0;paint-order:fill markers stroke"
       d="m 337.5293,342.5918 c 0.48231,0.35194 0.85591,1.30868 1.5608,0.8614 0.31704,-0.43619 0.23761,-1.14846 0.40404,-1.68953 -0.52848,-0.18597 -1.22713,-0.95627 -1.4385,-0.0532 -0.17545,0.29379 -0.35089,0.58757 -0.52634,0.88136 z" /></g><g
     inkscape:groupmode="layer"
     id="layer7"
     inkscape:label="Bodymod1"
     transform="translate(0,0.11887)" /><g
     inkscape:groupmode="layer"
     id="layer8"
     inkscape:label="Bodymod2"
     transform="translate(0,0.11887)"><path
       id="path52"
       style="fill:#a6d68e;fill-opacity:1;stroke:#404040;stroke-width:0;stroke-linecap:round;stroke-dasharray:none;stroke-dashoffset:0;stroke-opacity:0;paint-order:fill markers stroke"
       d="m 147.38867,237.63672 c 2.15886,1.30013 4.31771,2.60026 6.47656,3.90039 -0.62109,-1.57096 -1.24218,-3.14193 -1.86328,-4.71289 -1.53776,0.27083 -3.07552,0.54167 -4.61328,0.8125 z" /><path
       id="path50"
       style="fill:#a6d68e;fill-opacity:1;stroke:#404040;stroke-width:0;stroke-linecap:round;stroke-dasharray:none;stroke-dashoffset:0;stroke-opacity:0;paint-order:fill markers stroke"
       d="m 324.39258,289.2207 c 0.46425,0.26441 0.82717,1.28549 1.36919,0.96915 3.62368,-2.09193 7.24736,-4.18386 10.87104,-6.27579 -0.6901,-0.28711 -1.38021,-0.57422 -2.07031,-0.86133 -3.38997,2.05599 -6.77995,4.11198 -10.16992,6.16797 z" /></g><g
     inkscape:groupmode="layer"
     id="layer9"
     inkscape:label="Bodymod3"
     transform="translate(0,0.11887)" /><g
     inkscape:groupmode="layer"
     id="layer10"
     inkscape:label="Bodymod4"
     transform="translate(0,0.11887)"><path
       id="path49"
       style="fill:#90b57f;fill-opacity:1;stroke:#404040;stroke-width:0;stroke-linecap:round;stroke-dasharray:none;stroke-dashoffset:0;stroke-opacity:0;paint-order:fill markers stroke"
       d="m 351.90234,219.70312 c 0.93425,2.08529 1.86849,4.17058 2.80274,6.25586 6.58528,2.74675 13.17057,5.49349 19.75586,8.24024 0,-3.50846 0,-7.01693 0,-10.52539 -3.28451,-3.81706 -6.56901,-7.63412 -9.85352,-11.45117 -4.23502,2.49349 -8.47005,4.98698 -12.70508,7.48046 z" /><path
       id="path58"
       style="fill:#90b57f;fill-opacity:1;stroke:#404040;stroke-width:0;stroke-linecap:round;stroke-dasharray:none;stroke-dashoffset:0;stroke-opacity:0;paint-order:fill markers stroke"
       d="m 283.45898,319.75781 c -0.39503,0.11135 -0.34376,0.79647 0.12603,0.58725 0.40544,-0.0506 0.53625,-0.73217 -0.0225,-0.60873 l -0.0979,0.0203 z" /><path
       id="path60"
       style="fill:#90b57f;fill-opacity:1;stroke:#404040;stroke-width:0;stroke-linecap:round;stroke-dasharray:none;stroke-dashoffset:0;stroke-opacity:0;paint-order:fill markers stroke"
       d="m 151.9082,297.51172 c -1.01642,0.43377 -0.0985,2.18503 0.85256,1.70838 0.82969,-0.40056 0.48243,-1.72977 -0.41748,-1.74037 -0.14428,-0.0444 -0.29048,0.0239 -0.43508,0.032 z" /></g><g
     inkscape:label="Passive1"
     inkscape:groupmode="layer"
     id="layer1"
     transform="translate(83.28501,206.63068)"><path
       id="path21"
       style="fill:#e2b584;fill-opacity:1;stroke:#404040;stroke-width:0;stroke-linecap:round;stroke-dasharray:none;stroke-dashoffset:0;stroke-opacity:0;paint-order:fill markers stroke"
       d="m 277.79102,-109.21289 c 4.46158,1.76823 8.92317,3.53646 13.38476,5.30469 0,-8.78646 0,-17.57292 0,-26.35938 -0.53473,0.0877 -1.40706,-0.47022 -1.6301,0.21364 -3.91822,6.94702 -7.83644,13.89403 -11.75466,20.84105 z" /><path
       id="path12"
       style="fill:#e2b584;fill-opacity:1;stroke:#404040;stroke-width:0;stroke-linecap:round;stroke-dasharray:none;stroke-dashoffset:0;stroke-opacity:0;paint-order:fill markers stroke"
       d="m -20.337891,-111.88672 c 2.690105,2.02604 5.380209,4.05208 8.070313,6.07813 0.629557,-0.67058 1.259114,-1.34115 1.888672,-2.01172 -2.180339,-1.76367 -4.360677,-3.52735 -6.541016,-5.29102 -1.139323,0.40821 -2.278646,0.81641 -3.417969,1.22461 z" /></g><g
     inkscape:groupmode="layer"
     id="layer3"
     inkscape:label="Passive2"
     transform="translate(0,0.11887)"><path
       id="path19"
       style="fill:#e2bf97;fill-opacity:1;stroke:#404040;stroke-width:0;stroke-linecap:round;stroke-dasharray:none;stroke-dashoffset:0;stroke-opacity:0;paint-order:fill markers stroke"
       d="m 262.98828,171.11523 c -0.58335,0.28488 -0.66555,0.96837 -0.30769,1.46685 0.0794,0.76243 0.88497,0.4161 1.34285,0.25386 0.79576,-0.60135 0.16998,-2.15916 -0.85189,-1.77511 l -0.0959,0.0285 z" /><path
       id="path18"
       style="fill:#e2bf97;fill-opacity:1;stroke:#404040;stroke-width:0;stroke-linecap:round;stroke-dasharray:none;stroke-dashoffset:0;stroke-opacity:0;paint-order:fill markers stroke"
       d="m 276.03711,52.626953 c 6.50391,9.653646 13.00781,19.307292 19.51172,28.960938 1.6237,0.05664 3.24739,0.113281 4.87109,0.169921 5.37435,-9.53776 10.7487,-19.07552 16.12305,-28.613281 -7.32227,-5.126953 -14.64453,-10.253906 -21.9668,-15.380859 -6.17969,4.954427 -12.35937,9.908854 -18.53906,14.863281 z" /><path
       id="path8"
       style="fill:#e2bf97;fill-opacity:1;stroke:#404040;stroke-width:0;stroke-linecap:round;stroke-dasharray:none;stroke-dashoffset:0;stroke-opacity:0;paint-order:fill markers stroke"
       d="m 108.69727,129.52734 c -0.76074,0.12523 -0.61833,1.35914 0.17025,1.28267 0.67394,0.0389 1.00893,-1.02653 0.2731,-1.23189 -0.14653,-0.0565 -0.28814,-0.0664 -0.44335,-0.0508 z" /></g><g
     inkscape:groupmode="layer"
     id="layer4"
     inkscape:label="Passive3"
     transform="translate(0,0.11887)"><path
       id="path13"
       style="fill:#d0aa7e;fill-opacity:1;stroke:#404040;stroke-width:0;stroke-linecap:round;stroke-dasharray:none;stroke-dashoffset:0;stroke-opacity:0;paint-order:fill markers stroke"
       d="m 24.011719,49.738281 c -0.790898,0.295112 -1.09201,1.622499 -0.178211,1.967422 0.584433,0.181788 1.120256,-0.215474 1.420398,-0.705703 0.235231,-0.743446 -0.466781,-1.561869 -1.242187,-1.261719 z" /></g><g
     inkscape:groupmode="layer"
     id="layer6"
     inkscape:label="Passive4"
     transform="translate(0,0.11887)"><path
       id="path14"
       style="fill:#d6b186;fill-opacity:1;stroke:#404040;stroke-width:0;stroke-linecap:round;stroke-dasharray:none;stroke-dashoffset:0;stroke-opacity:0;paint-order:fill markers stroke"
       d="m 91.910156,36.265625 c 1.908203,-2.010417 3.816407,-4.020833 5.72461,-6.03125 -4.358724,0 -8.717448,0 -13.076172,0 2.450521,2.010417 4.901041,4.020833 7.351562,6.03125 z" /><path
       id="path6"
       style="fill:#d6b186;fill-opacity:1;stroke:#404040;stroke-width:0;stroke-linecap:round;stroke-dasharray:none;stroke-dashoffset:0;stroke-opacity:0;paint-order:fill markers stroke"
       d="m 143.22461,125.1582 c -0.86796,0.41501 0.24238,1.70819 0.83398,1.02735 0.54503,-0.53287 -0.28932,-1.17235 -0.83398,-1.02735 z" /></g></svg>
