<?xml version="1.0" encoding="UTF-8" standalone="no"?>
<!-- Created with Inkscape (http://www.inkscape.org/) -->

<svg
   width="169.97189mm"
   height="301.75809mm"
   viewBox="0 0 404.69498 718.47164"
   version="1.1"
   id="svg1"
   xml:space="preserve"
   sodipodi:docname="UpgrageOverviewPanel8.svg"
   inkscape:version="1.4.2 (f4327f4, 2025-05-13)"
   inkscape:export-filename="UpgrageOverviewPaneltest1.png"
   inkscape:export-xdpi="96"
   inkscape:export-ydpi="96"
   xmlns:inkscape="http://www.inkscape.org/namespaces/inkscape"
   xmlns:sodipodi="http://sodipodi.sourceforge.net/DTD/sodipodi-0.dtd"
   xmlns="http://www.w3.org/2000/svg"
   xmlns:svg="http://www.w3.org/2000/svg"><sodipodi:namedview
     id="namedview1"
     pagecolor="#ffffff"
     bordercolor="#000000"
     borderopacity="0.25"
     inkscape:showpageshadow="2"
     inkscape:pageopacity="0.0"
     inkscape:pagecheckerboard="0"
     inkscape:deskcolor="#d1d1d1"
     inkscape:document-units="mm"
     inkscape:zoom="1.1508788"
     inkscape:cx="149.45101"
     inkscape:cy="627.78114"
     inkscape:window-width="3840"
     inkscape:window-height="2054"
     inkscape:window-x="-11"
     inkscape:window-y="-11"
     inkscape:window-maximized="1"
     inkscape:current-layer="layer4" /><defs
     id="defs1" /><g
     inkscape:groupmode="layer"
     id="layer2"
     inkscape:label="Marker"
     transform="translate(0,0.11887)" /><g
     inkscape:groupmode="layer"
     id="layer19"
     inkscape:label="Special1"
     transform="translate(0,0.11887)"><path
       id="path86"
       style="fill:#865ccc;fill-opacity:1;stroke:#404040;stroke-width:0;stroke-linecap:round;stroke-dasharray:none;stroke-dashoffset:0;stroke-opacity:0;paint-order:fill markers stroke"
       d="M 9.9804688,589.19531 C 18.851562,604.9349 27.722656,620.67448 36.59375,636.41406 56.977865,625.38021 77.361979,614.34635 97.746094,603.3125 91.476563,596.41862 85.207031,589.52474 78.9375,582.63086 59.490885,577.6875 40.044271,572.74414 20.597656,567.80078 17.058594,574.93229 13.519531,582.0638 9.9804688,589.19531 Z" /><path
       id="path90"
       style="fill:#865ccc;fill-opacity:1;stroke:#404040;stroke-width:0;stroke-linecap:round;stroke-dasharray:none;stroke-dashoffset:0;stroke-opacity:0;paint-order:fill markers stroke"
       d="m 70.314453,709.53516 c 25.481771,0 50.963537,0 76.445317,0 -9.36505,-3.6003 -18.74988,-7.15307 -28.07104,-10.86244 -0.71336,-0.27204 -1.3806,-0.79557 -2.11767,-0.92342 -15.41887,3.92862 -30.837736,7.85724 -46.256607,11.78586 z" /><path
       id="path92"
       style="fill:#865ccc;fill-opacity:1;stroke:#404040;stroke-width:0;stroke-linecap:round;stroke-dasharray:none;stroke-dashoffset:0;stroke-opacity:0;paint-order:fill markers stroke"
       d="m 278.98047,674.48828 c -4.86524,3.12761 -9.73047,6.25521 -14.5957,9.38281 8.47721,-3.04231 16.95442,-6.08463 25.43164,-9.12695 -3.34571,-0.25651 -6.69141,-0.51302 -10.03711,-0.76953 -0.26628,0.17122 -0.53256,0.34245 -0.79883,0.51367 z" /><path
       id="path95"
       style="fill:#865ccc;fill-opacity:1;stroke:#404040;stroke-width:0;stroke-linecap:round;stroke-dasharray:none;stroke-dashoffset:0;stroke-opacity:0;paint-order:fill markers stroke"
       d="m 304.25,605.32812 c 10.37826,17.58985 20.75651,35.17969 31.13477,52.76954 20.16406,-8.07683 40.32812,-16.15365 60.49218,-24.23047 0,-14.11198 0,-28.22396 0,-42.33594 -15.21028,-11.50716 -30.42057,-23.01432 -45.63086,-34.52148 -15.33203,16.10612 -30.66406,32.21224 -45.99609,48.31835 z" /></g><g
     inkscape:groupmode="layer"
     id="layer21"
     inkscape:label="Special3"
     transform="translate(0,0.11887)"><path
       id="path88"
       style="fill:#a381dc;fill-opacity:1;stroke:#404040;stroke-width:0;stroke-linecap:round;stroke-dasharray:none;stroke-dashoffset:0;stroke-opacity:0;paint-order:fill markers stroke"
       d="m 52.644531,647.77539 c 22.731771,10.79167 45.463542,21.58333 68.195309,32.375 13.34115,-17.6569 26.6823,-35.3138 40.02344,-52.9707 -15.94857,-4.02735 -31.89713,-8.05469 -47.8457,-12.08203 -20.124351,10.89257 -40.2487,21.78515 -60.373049,32.67773 z" /><path
       id="path93"
       style="fill:#a381dc;fill-opacity:1;stroke:#404040;stroke-width:0;stroke-linecap:round;stroke-dasharray:none;stroke-dashoffset:0;stroke-opacity:0;paint-order:fill markers stroke"
       d="m 213.73242,624.33594 c 13.5918,10.00521 27.1836,20.01041 40.77539,30.01562 20.30664,1.55599 40.61328,3.11198 60.91992,4.66797 -9.32096,-15.80273 -18.64192,-31.60547 -27.96289,-47.4082 -27.09895,-7.54297 -54.19791,-15.08594 -81.29687,-22.62891 2.52148,11.78451 5.04297,23.56901 7.56445,35.35352 z" /></g><g
     inkscape:groupmode="layer"
     id="layer22"
     inkscape:label="Special4"
     transform="translate(0,0.11887)"><path
       id="path94"
       style="fill:#724eaf;fill-opacity:1;stroke:#404040;stroke-width:0;stroke-linecap:round;stroke-dasharray:none;stroke-dashoffset:0;stroke-opacity:0;paint-order:fill markers stroke"
       d="m 278.68555,561.89453 c -21.88794,-0.18608 -43.77637,-0.51718 -65.66407,-0.79492 -1.81966,3.32422 -3.63932,6.64844 -5.45898,9.97266 27.65495,7.69791 55.3099,15.39583 82.96484,23.09375 11.9069,-12.50847 23.81381,-25.01693 35.72071,-37.5254 -15.85417,1.75131 -31.70834,3.50261 -47.5625,5.25391 z" /><path
       id="path96"
       style="fill:#724eaf;fill-opacity:1;stroke:#404040;stroke-width:0;stroke-linecap:round;stroke-dasharray:none;stroke-dashoffset:0;stroke-opacity:0;paint-order:fill markers stroke"
       d="m 243.24609,709.53516 c 50.87696,0 101.75391,0 152.63086,0 0,-18.9974 0,-37.9948 0,-56.99219 C 345,671.54036 294.12305,690.53776 243.24609,709.53516 Z" /></g><g
     inkscape:groupmode="layer"
     id="layer20"
     inkscape:label="Special2"
     transform="translate(0,0.11887)"><path
       id="path87"
       style="fill:#9970df;fill-opacity:1;stroke:#404040;stroke-width:0;stroke-linecap:round;stroke-dasharray:none;stroke-dashoffset:0;stroke-opacity:0;paint-order:fill markers stroke"
       d="m 95.904297,575.07031 c 6.893883,7.58203 13.787763,15.16406 20.681643,22.7461 25.87435,6.5345 51.7487,13.06901 77.62304,19.60351 -2.52604,-11.80794 -5.05208,-23.61588 -7.57812,-35.42383 -19.67513,-12.76302 -39.35026,-25.52604 -59.02539,-38.28906 -10.56706,10.45443 -21.13412,20.90886 -31.701173,31.36328 z" /><path
       id="path89"
       style="fill:#9970df;fill-opacity:1;stroke:#404040;stroke-width:0;stroke-linecap:round;stroke-dasharray:none;stroke-dashoffset:0;stroke-opacity:0;paint-order:fill markers stroke"
       d="M 8.8183594,707.00586 C 36.460286,699.96159 64.102214,692.91732 91.744141,685.87305 70.111372,675.60277 48.478255,665.33323 26.845703,655.0625 20.837529,644.39921 14.827318,633.73707 8.8183594,623.07422 c 0,27.97721 0,55.95443 0,83.93164 z" /><path
       id="path91"
       style="fill:#9970df;fill-opacity:1;stroke:#404040;stroke-width:0;stroke-linecap:round;stroke-dasharray:none;stroke-dashoffset:0;stroke-opacity:0;paint-order:fill markers stroke"
       d="m 137.65625,687.17773 c 18.58073,7.11524 37.16146,14.23047 55.74219,21.34571 18.67708,-12.00782 37.35416,-24.01563 56.03125,-36.02344 -15.81836,-11.64714 -31.63672,-23.29427 -47.45508,-34.94141 -7.51367,-1.89648 -15.02734,-3.79297 -22.54102,-5.68945 -13.92578,18.4362 -27.85156,36.8724 -41.77734,55.30859 z" /></g><g
     inkscape:groupmode="layer"
     id="layer15"
     inkscape:label="Active1"
     transform="translate(0,0.11887)"><path
       id="path77"
       style="fill:#d67965;fill-opacity:1;stroke:#404040;stroke-width:0;stroke-linecap:round;stroke-dasharray:none;stroke-dashoffset:0;stroke-opacity:0;paint-order:fill markers stroke"
       d="m 8.8183594,551.8457 c 4.3274736,-8.71679 8.6549476,-17.43359 12.9824216,-26.15039 -4.327474,-8.09114 -8.654948,-16.18229 -12.9824216,-24.27343 0,16.80794 0,33.61588 0,50.42382 z" /><path
       id="path80"
       style="fill:#d67965;fill-opacity:1;stroke:#404040;stroke-width:0;stroke-linecap:round;stroke-dasharray:none;stroke-dashoffset:0;stroke-opacity:0;paint-order:fill markers stroke"
       d="m 208.93359,464.45117 c -2.48307,1.80191 -5.78792,1.58924 -8.59991,0.80219 -5.57477,-1.14239 -11.14954,-2.28479 -16.7243,-3.42719 -5.5879,8.4694 -11.17579,16.9388 -16.76368,25.40821 15.48373,4.7513 30.96745,9.5026 46.45118,14.2539 16.7194,-13.47461 33.4388,-26.94922 50.1582,-40.42383 -8.51693,-4.82682 -17.03386,-9.65364 -25.55078,-14.48047 -9.6569,5.95573 -19.31381,11.91146 -28.97071,17.86719 z" /><path
       id="path82"
       style="fill:#d67965;fill-opacity:1;stroke:#404040;stroke-width:0;stroke-linecap:round;stroke-dasharray:none;stroke-dashoffset:0;stroke-opacity:0;paint-order:fill markers stroke"
       d="m 373.20508,473.79492 c -10.92123,17.89063 -21.84245,35.78125 -32.76367,53.67188 18.47851,13.98567 36.95703,27.97135 55.43554,41.95703 0,-35.92318 0,-71.84636 0,-107.76953 -7.55729,4.04687 -15.11458,8.09375 -22.67187,12.14062 z" /></g><g
     inkscape:groupmode="layer"
     id="layer16"
     inkscape:label="Active2"
     transform="translate(0,0.11887)"><path
       id="path78"
       style="fill:#e58f7d;fill-opacity:1;stroke:#404040;stroke-width:0;stroke-linecap:round;stroke-dasharray:none;stroke-dashoffset:0;stroke-opacity:0;paint-order:fill markers stroke"
       d="m 112.80664,527.61523 c -1.51826,1.9076 -3.54225,3.31433 -5.26552,5.02245 -7.0657,6.46592 -14.132109,12.93107 -21.19737,19.39748 -16.688292,-5.27039 -33.376279,-10.54174 -50.064453,-15.8125 -2.553386,5.14192 -5.106771,10.28385 -7.660156,15.42578 17.465494,4.43945 34.930989,8.8789 52.396484,13.31836 11.423828,-11.30209 22.847655,-22.60417 34.271485,-33.90625 -0.75494,-1.24389 -1.5097,-2.48767 -2.26953,-3.72852 -0.0703,0.0944 -0.14063,0.1888 -0.21094,0.2832 z" /><path
       id="path83"
       style="fill:#e58f7d;fill-opacity:1;stroke:#404040;stroke-width:0;stroke-linecap:round;stroke-dasharray:none;stroke-dashoffset:0;stroke-opacity:0;paint-order:fill markers stroke"
       d="m 288.21484,543.0957 c 12.69206,-1.39974 25.38412,-2.79948 38.07618,-4.19922 -1.28153,-0.94988 -2.57242,-1.91226 -4.09692,-2.43577 -10.28085,-4.45566 -20.56169,-8.91131 -30.84254,-13.36696 -1.04557,6.66732 -2.09114,13.33464 -3.13672,20.00195 z" /></g><g
     inkscape:groupmode="layer"
     id="layer18"
     inkscape:label="Active4"
     transform="translate(0,0.11887)"><path
       id="path84"
       style="fill:#ce6954;fill-opacity:1;stroke:#404040;stroke-width:0;stroke-linecap:round;stroke-dasharray:none;stroke-dashoffset:0;stroke-opacity:0;paint-order:fill markers stroke"
       d="m 223.27734,516.08984 c -1.64257,9.14714 -3.28515,18.29427 -4.92773,27.44141 17.2819,0.22852 34.5638,0.45703 51.8457,0.68555 1.48308,-9.45508 2.96615,-18.91016 4.44922,-28.36524 -11.06771,-4.79752 -22.13542,-9.59505 -33.20312,-14.39258 -6.05469,4.87696 -12.10938,9.75391 -18.16407,14.63086 z" /><path
       id="path79"
       style="fill:#ce6954;fill-opacity:1;stroke:#404040;stroke-width:0;stroke-linecap:round;stroke-dasharray:none;stroke-dashoffset:0;stroke-opacity:0;paint-order:fill markers stroke"
       d="m 106.70508,462.14648 c 3.11394,3.89322 6.22779,7.78652 9.3418,11.67969 -0.23447,7.8008 -0.47015,15.60156 -0.70508,23.40235 3.80078,6.25065 7.60156,12.5013 11.40234,18.75195 12.75716,-19.32748 25.51432,-38.65495 38.27148,-57.98242 -4.78577,-0.98257 -9.57179,-1.96397 -14.35742,-2.94727 -2.59465,-2.51474 -5.19017,-5.02858 -7.78515,-7.54297 -12.05599,4.87956 -24.11198,9.75912 -36.16797,14.63867 z" /></g><g
     inkscape:groupmode="layer"
     id="layer17"
     inkscape:label="Active3"
     transform="translate(0,0.11887)"><path
       id="path76"
       style="fill:#e3a395;fill-opacity:1;stroke:#404040;stroke-width:0;stroke-linecap:round;stroke-dasharray:none;stroke-dashoffset:0;stroke-opacity:0;paint-order:fill markers stroke"
       d="m 12.332031,470.57812 c 8.492839,15.87956 16.985677,31.75912 25.478516,47.63868 14.710286,4.64648 29.420573,9.29297 44.130859,13.93945 5.033854,-4.60417 10.067709,-9.20833 15.101563,-13.8125 0.391927,-12.85221 0.783854,-25.70443 1.175781,-38.55664 -3.929688,-4.91016 -7.859375,-9.82031 -11.789062,-14.73047 -8.158204,-5.18945 -16.316407,-10.37891 -24.47461,-15.56836 -16.541016,7.02995 -33.082031,14.0599 -49.623047,21.08984 z" /><path
       id="path81"
       style="fill:#e3a395;fill-opacity:1;stroke:#404040;stroke-width:0;stroke-linecap:round;stroke-dasharray:none;stroke-dashoffset:0;stroke-opacity:0;paint-order:fill markers stroke"
       d="m 283.23633,467.77734 c -8.75912,7.0573 -17.51823,14.11459 -26.27735,21.17188 22.75456,9.86328 45.50912,19.72656 68.26368,29.58984 9.68229,-15.87174 19.36458,-31.74349 29.04687,-47.61523 -10.29818,-4.86719 -20.59635,-9.73438 -30.89453,-14.60156 -13.37956,3.81835 -26.75911,7.63671 -40.13867,11.45507 z" /><path
       id="path85"
       style="fill:#e3a395;fill-opacity:1;stroke:#404040;stroke-width:0;stroke-linecap:round;stroke-dasharray:none;stroke-dashoffset:0;stroke-opacity:0;paint-order:fill markers stroke"
       d="m 138.69336,529.88281 c 17.54036,11.37761 35.08073,22.75521 52.62109,34.13281 2.69662,-4.92773 5.39323,-9.85546 8.08985,-14.7832 1.9056,-10.60091 3.81119,-21.20182 5.71679,-31.80273 -16.13541,-4.95183 -32.27083,-9.90365 -48.40625,-14.85547 -6.00716,9.10286 -12.01432,18.20573 -18.02148,27.30859 z" /></g><g
     inkscape:groupmode="layer"
     id="layer11"
     inkscape:label="Synergy1"
     transform="translate(0,0.11887)"><path
       id="path63"
       style="fill:#85b8e4;fill-opacity:1;stroke:#404040;stroke-width:0;stroke-linecap:round;stroke-dasharray:none;stroke-dashoffset:0;stroke-opacity:0;paint-order:fill markers stroke"
       d="m 92.0625,343.94922 c 0.955078,2.93164 1.910156,5.86328 2.865234,8.79492 6.013676,-3.58659 12.027346,-7.17318 18.041016,-10.75976 -8.86849,-5.18165 -17.736979,-10.36329 -26.605469,-15.54493 1.89974,5.83659 3.799479,11.67318 5.699219,17.50977 z m -13.722656,18.6875 c 2.58789,-1.54297 5.175781,-3.08594 7.763672,-4.62891 -3.260417,-1.75586 -6.520834,-3.51172 -9.78125,-5.26758 0.672526,3.29883 1.345052,6.59766 2.017578,9.89649 z" /><path
       id="path65"
       style="fill:#85b8e4;fill-opacity:1;stroke:#404040;stroke-width:0;stroke-linecap:round;stroke-dasharray:none;stroke-dashoffset:0;stroke-opacity:0;paint-order:fill markers stroke"
       d="m 156.35547,326.12305 c 3.54818,10.20573 7.09635,20.41146 10.64453,30.61718 7.32096,-1.35286 14.64193,-2.70572 21.96289,-4.05859 -6.73763,-12.79232 -13.47526,-25.58463 -20.21289,-38.37695 -4.13151,3.93945 -8.26302,7.8789 -12.39453,11.81836 z" /><path
       id="path69"
       style="fill:#85b8e4;fill-opacity:1;stroke:#404040;stroke-width:0;stroke-linecap:round;stroke-dasharray:none;stroke-dashoffset:0;stroke-opacity:0;paint-order:fill markers stroke"
       d="m 307.13867,381.30078 c 0.0117,3.90625 0.0234,7.8125 0.0352,11.71875 9.82291,4.57878 19.64583,9.15755 29.46875,13.73633 8.67578,-13.05794 17.35156,-26.11589 26.02734,-39.17383 -18.51041,4.57292 -37.02083,9.14583 -55.53125,13.71875 z" /><path
       id="path71"
       style="fill:#85b8e4;fill-opacity:1;stroke:#404040;stroke-width:0;stroke-linecap:round;stroke-dasharray:none;stroke-dashoffset:0;stroke-opacity:0;paint-order:fill markers stroke"
       d="m 213.58203,440.85938 c 7.97973,-4.91876 15.96016,-9.8364 23.93945,-14.75586 14.23591,8.06664 28.47132,16.13418 42.70704,24.20117 8.01562,-2.28711 16.03125,-4.57422 24.04687,-6.86133 -10.83594,-7.83789 -21.67187,-15.67578 -32.50781,-23.51367 -19.09701,-0.95052 -38.19401,-1.90104 -57.29102,-2.85157 -0.29817,7.92709 -0.59635,15.85417 -0.89453,23.78126 z" /><path
       id="path75"
       style="fill:#85b8e4;fill-opacity:1;stroke:#404040;stroke-width:0;stroke-linecap:round;stroke-dasharray:none;stroke-dashoffset:0;stroke-opacity:0;paint-order:fill markers stroke"
       d="m 8.8183594,385.95117 c 0,22.31641 0,44.63281 0,66.94922 C 20.503906,447.9349 32.189453,442.9694 43.875,438.00391 37.413924,433.89866 30.953964,429.79165 24.492188,425.6875 c -0.730165,-16.71432 -1.46663,-33.42836 -2.199219,-50.14258 -4.491537,3.46875 -8.983073,6.9375 -13.4746096,10.40625 z" /></g><g
     inkscape:groupmode="layer"
     id="layer14"
     inkscape:label="Synergy4"
     transform="translate(0,0.11887)"><path
       id="path64"
       style="fill:#acd0ef;fill-opacity:1;stroke:#404040;stroke-width:0;stroke-linecap:round;stroke-dasharray:none;stroke-dashoffset:0;stroke-opacity:0;paint-order:fill markers stroke"
       d="m 77.226562,383.83008 c -2.809906,2.20935 -6.901124,1.98458 -9.886464,0.24881 -9.186933,-4.03932 -18.373867,-8.07863 -27.560801,-12.11795 0.509765,11.597 1.019531,23.19401 1.529297,34.79101 32.783203,-16.39127 65.566406,-32.78255 98.349606,-49.17383 -3.10351,-1.81184 -6.20703,-3.62369 -9.31054,-5.43554 -17.70703,10.5625 -35.414066,21.125 -53.121098,31.6875 z" /><path
       id="path67"
       style="fill:#acd0ef;fill-opacity:1;stroke:#404040;stroke-width:0;stroke-linecap:round;stroke-dasharray:none;stroke-dashoffset:0;stroke-opacity:0;paint-order:fill markers stroke"
       d="m 253.19141,362.26562 c -12.05795,9.97787 -24.11589,19.95573 -36.17383,29.9336 -0.33138,2.43685 -0.66276,4.8737 -0.99414,7.31055 24.51237,1.21875 49.02474,2.4375 73.53711,3.65625 -0.0488,-18.06316 -0.0977,-36.12631 -0.14649,-54.18946 -12.07422,4.42969 -24.14844,8.85938 -36.22265,13.28906 z" /></g><g
     inkscape:groupmode="layer"
     id="layer12"
     inkscape:label="Synergy2"
     transform="translate(0,0.11887)"><path
       id="path62"
       style="fill:#94c4ed;fill-opacity:1;stroke:#404040;stroke-width:0;stroke-linecap:round;stroke-dasharray:none;stroke-dashoffset:0;stroke-opacity:0;paint-order:fill markers stroke"
       d="m 8.8183594,363.67188 c 6.7610596,-5.22593 13.5221856,-10.45176 20.2832026,-15.67774 10.345387,4.54481 20.690049,9.09127 31.035157,13.63672 -1.347657,-6.59375 -2.695313,-13.1875 -4.042969,-19.78125 -15.758464,-8.48633 -31.516927,-16.97266 -47.2753906,-25.45899 0,15.76042 0,31.52084 0,47.28126 z" /><path
       id="path70"
       style="fill:#acd0ef;fill-opacity:1;stroke:#404040;stroke-width:0;stroke-linecap:round;stroke-dasharray:none;stroke-dashoffset:0;stroke-opacity:0;paint-order:fill markers stroke"
       d="m 347.38867,422.45117 c -3.68424,6.82878 -7.36849,13.65755 -11.05273,20.48633 10.11133,4.7806 20.22265,9.5612 30.33398,14.3418 9.73568,-5.21029 19.47136,-10.42058 29.20703,-15.63086 0,-21.71354 0,-43.42709 0,-65.14063 -3.82747,-3.25781 -7.65494,-6.51562 -11.48242,-9.77343 -12.33529,18.57226 -24.67057,37.14453 -37.00586,55.71679 z" /><path
       id="path72"
       style="fill:#94c4ed;fill-opacity:1;stroke:#404040;stroke-width:0;stroke-linecap:round;stroke-dasharray:none;stroke-dashoffset:0;stroke-opacity:0;paint-order:fill markers stroke"
       d="m 307.27148,412.68359 c 0.17321,3.18486 -1.50227,6.57216 -4.48828,7.9043 6.12956,4.43294 12.25912,8.86589 18.38868,13.29883 2.13541,-3.96224 4.27083,-7.92448 6.40624,-11.88672 -6.77343,-3.1569 -13.54687,-6.3138 -20.32031,-9.4707 l 0.009,0.0996 z" /><path
       id="path73"
       style="fill:#94c4ed;fill-opacity:1;stroke:#404040;stroke-width:0;stroke-linecap:round;stroke-dasharray:none;stroke-dashoffset:0;stroke-opacity:0;paint-order:fill markers stroke"
       d="m 131.95117,381.14453 c -7.08268,3.54167 -14.16536,7.08333 -21.24805,10.625 16.18034,15.67969 32.36068,31.35938 48.54102,47.03906 12.15755,2.49805 24.3151,4.9961 36.47266,7.49414 0.44336,-11.84114 0.88672,-23.68229 1.33008,-35.52343 -9.68816,-12.09701 -19.37631,-24.19401 -29.06446,-36.29102 -12.01041,2.21875 -24.02083,4.4375 -36.03125,6.65625 z" /></g><g
     inkscape:groupmode="layer"
     id="layer13"
     inkscape:label="Synergy3"
     transform="translate(0,0.11887)"><path
       id="path66"
       style="fill:#74a4ce;fill-opacity:1;stroke:#404040;stroke-width:0;stroke-linecap:round;stroke-dasharray:none;stroke-dashoffset:0;stroke-opacity:0;paint-order:fill markers stroke"
       d="m 210.82031,361.70117 c -0.85254,3.669 -4.49755,6.19341 -8.1582,6.37891 -5.00065,0.92383 -10.0013,1.84765 -15.00195,2.77148 4.12239,5.14649 8.24479,10.29297 12.36718,15.43946 0.1968,-1.10663 0.22086,-2.30936 0.52442,-3.3566 13.59611,-11.24547 27.19063,-22.49289 40.78613,-33.73911 1.54557,-4.06315 3.09115,-8.1263 4.63672,-12.18945 -8.55794,0 -17.11589,0 -25.67383,0 -3.16015,8.23177 -6.32031,16.46354 -9.48047,24.69531 z" /><path
       id="path68"
       style="fill:#74a4ce;fill-opacity:1;stroke:#404040;stroke-width:0;stroke-linecap:round;stroke-dasharray:none;stroke-dashoffset:0;stroke-opacity:0;paint-order:fill markers stroke"
       d="m 333.62109,330.78125 c -3.49173,2.01397 -6.94759,4.11347 -10.57841,5.86569 -5.33519,1.95492 -10.67038,3.90985 -16.00557,5.86478 0.0202,6.8776 0.0404,13.75521 0.0606,20.63281 25.9068,-6.40534 51.81439,-12.80752 77.7207,-19.21484 3.68542,3.14023 7.37252,6.2785 11.05859,9.41797 0,-7.89714 0,-15.79427 0,-23.69141 -2.78313,2.04903 -5.57053,4.10126 -8.33999,6.16221 -2.42543,1.51015 -5.46258,1.37506 -8.13222,0.69117 -14.27163,-2.48042 -28.54327,-4.96085 -42.8149,-7.44127 -0.98958,0.57096 -1.97916,1.14193 -2.96875,1.71289 z" /><path
       id="path74"
       style="fill:#74a4ce;fill-opacity:1;stroke:#404040;stroke-width:0;stroke-linecap:round;stroke-dasharray:none;stroke-dashoffset:0;stroke-opacity:0;paint-order:fill markers stroke"
       d="m 50.978516,421.62695 c 14.109375,8.97201 28.21875,17.94401 42.328125,26.91602 11.987629,-4.85547 23.975259,-9.71094 35.962889,-14.56641 -11.40234,-11.46224 -22.80469,-22.92448 -34.20703,-34.38672 -14.694661,7.34571 -29.389323,14.69141 -44.083984,22.03711 z" /></g><g
     inkscape:groupmode="layer"
     id="layer7"
     inkscape:label="Bodymod1"
     transform="translate(0,0.11887)"><path
       id="path47"
       style="fill:#9fc88c;fill-opacity:1;stroke:#404040;stroke-width:0;stroke-linecap:round;stroke-dasharray:none;stroke-dashoffset:0;stroke-opacity:0;paint-order:fill markers stroke"
       d="m 182.18555,206.9668 c 5.63476,14.25325 11.26953,28.50651 16.90429,42.75976 14.02214,-7.31901 28.04427,-14.63802 42.06641,-21.95703 -12.71419,-10.50456 -25.42839,-21.00911 -38.14258,-31.51367 -6.94271,3.57031 -13.88541,7.14062 -20.82812,10.71094 z" /><path
       id="path55"
       style="fill:#9fc88c;fill-opacity:1;stroke:#404040;stroke-width:0;stroke-linecap:round;stroke-dasharray:none;stroke-dashoffset:0;stroke-opacity:0;paint-order:fill markers stroke"
       d="m 67.845703,269.56836 c 2.90625,8.92448 5.8125,17.84896 8.71875,26.77344 20.955078,-5.95769 41.910157,-11.91537 62.865237,-17.87305 -17.45248,-10.51367 -34.90495,-21.02734 -52.357424,-31.54102 -6.408855,7.54688 -12.817709,15.09375 -19.226563,22.64063 z" /><path
       id="path59"
       style="fill:#9fc88c;fill-opacity:1;stroke:#404040;stroke-width:0;stroke-linecap:round;stroke-dasharray:none;stroke-dashoffset:0;stroke-opacity:0;paint-order:fill markers stroke"
       d="m 227.06836,319.36914 c 8.53711,0 17.07422,0 25.61133,0 3.49284,-9.17448 6.98567,-18.34896 10.47851,-27.52344 -8.45508,-0.13606 -16.91015,-0.27213 -25.36523,-0.4082 -3.57487,9.31055 -7.14974,18.62109 -10.72461,27.93164 z" /></g><g
     inkscape:groupmode="layer"
     id="layer8"
     inkscape:label="Bodymod2"
     transform="translate(0,0.11887)"><path
       id="path48"
       style="fill:#a6d68e;fill-opacity:1;stroke:#404040;stroke-width:0;stroke-linecap:round;stroke-dasharray:none;stroke-dashoffset:0;stroke-opacity:0;paint-order:fill markers stroke"
       d="m 264.87695,222.38281 c 17.16016,4.52604 34.32032,9.05209 51.48047,13.57813 -5.12239,-11.42383 -10.24479,-22.84766 -15.36719,-34.27149 -13.43619,-2.32812 -26.87239,-4.65625 -40.30859,-6.98437 1.39844,9.22591 2.79688,18.45182 4.19531,27.67773 z" /><path
       id="path50"
       style="fill:#a6d68e;fill-opacity:1;stroke:#404040;stroke-width:0;stroke-linecap:round;stroke-dasharray:none;stroke-dashoffset:0;stroke-opacity:0;paint-order:fill markers stroke"
       d="m 290.02734,284.97852 c 10.63737,10.72395 21.27474,21.44791 31.91211,32.17187 20.9681,-12.10807 41.9362,-24.21615 62.9043,-36.32422 -17.3737,-7.2487 -34.7474,-14.49739 -52.12109,-21.74609 -14.23177,8.63281 -28.46355,17.26562 -42.69532,25.89844 z" /><path
       id="path52"
       style="fill:#a6d68e;fill-opacity:1;stroke:#404040;stroke-width:0;stroke-linecap:round;stroke-dasharray:none;stroke-dashoffset:0;stroke-opacity:0;paint-order:fill markers stroke"
       d="m 117.85938,221.10547 c -13.06826,0.24388 -26.145053,0.10378 -39.216802,0.13672 27.608722,16.63281 55.217452,33.26562 82.826172,49.89843 7.3457,-4.28645 14.69141,-8.57291 22.03711,-12.85937 -6.00651,-15.19336 -12.01302,-30.38672 -18.01953,-45.58008 -15.87565,2.80143 -31.7513,5.60287 -47.62695,8.4043 z" /><path
       id="path54"
       style="fill:#a6d68e;fill-opacity:1;stroke:#404040;stroke-width:0;stroke-linecap:round;stroke-dasharray:none;stroke-dashoffset:0;stroke-opacity:0;paint-order:fill markers stroke"
       d="m 8.8183594,296.36133 c 19.8880206,10.70833 39.7760416,21.41666 59.6640626,32.125 -5.767578,-17.71615 -11.535156,-35.43229 -17.302734,-53.14844 -14.120443,-2.57682 -28.240886,-5.15365 -42.3613286,-7.73047 0,9.58464 0,19.16927 0,28.75391 z" /><path
       id="path57"
       style="fill:#a6d68e;fill-opacity:1;stroke:#404040;stroke-width:0;stroke-linecap:round;stroke-dasharray:none;stroke-dashoffset:0;stroke-opacity:0;paint-order:fill markers stroke"
       d="m 201.08984,337.84766 c 5.97722,-15.57032 11.95443,-31.14063 17.93164,-46.71094 -14.29882,-0.22982 -28.59765,-0.45964 -42.89648,-0.68945 8.32161,15.80013 16.64323,31.60026 24.96484,47.40039 z" /></g><g
     inkscape:groupmode="layer"
     id="layer9"
     inkscape:label="Bodymod3"
     transform="translate(0,0.11887)"><path
       id="path53"
       style="fill:#b2e09d;fill-opacity:1;stroke:#404040;stroke-width:0;stroke-linecap:round;stroke-dasharray:none;stroke-dashoffset:0;stroke-opacity:0;paint-order:fill markers stroke"
       d="m 8.8183594,249.66797 c 15.2278646,2.77799 30.4557296,5.55599 45.6835936,8.33398 C 60.25,251.23438 65.998047,244.4668 71.746094,237.69922 62.643229,232.21354 53.540365,226.72786 44.4375,221.24219 c -11.873047,0 -23.746094,0 -35.6191406,0 0,9.47526 0,18.95052 0,28.42578 z" /><path
       id="path51"
       style="fill:#b2e09d;fill-opacity:1;stroke:#404040;stroke-width:0;stroke-linecap:round;stroke-dasharray:none;stroke-dashoffset:0;stroke-opacity:0;paint-order:fill markers stroke"
       d="m 198.62109,269.88867 c -1.82852,1.06214 -3.65477,2.12929 -5.48242,3.19336 26.77279,0.43034 53.54557,0.86068 80.31836,1.29102 12.05339,-7.3125 24.10677,-14.625 36.16016,-21.9375 -17.17969,-4.5306 -34.35938,-9.0612 -51.53907,-13.5918 -19.81901,10.34831 -39.63802,20.69661 -59.45703,31.04492 z" /><path
       id="path56"
       style="fill:#b2e09d;fill-opacity:1;stroke:#404040;stroke-width:0;stroke-linecap:round;stroke-dasharray:none;stroke-dashoffset:0;stroke-opacity:0;paint-order:fill markers stroke"
       d="m 93.117188,309.95898 c 16.297522,9.52019 32.595052,19.04037 48.892582,28.56055 -4.47722,-12.88086 -8.95443,-25.76172 -13.43165,-38.64258 -11.82031,3.36068 -23.64062,6.72136 -35.460932,10.08203 z" /><path
       id="path61"
       style="fill:#b2e09d;fill-opacity:1;stroke:#404040;stroke-width:0;stroke-linecap:round;stroke-dasharray:none;stroke-dashoffset:0;stroke-opacity:0;paint-order:fill markers stroke"
       d="m 360.44141,315.30078 c 6.79297,1.18294 13.58593,2.36589 20.3789,3.54883 5.01888,-3.70247 10.03776,-7.40495 15.05664,-11.10742 0,-4.30078 0,-8.60156 0,-12.90235 -11.81185,6.82032 -23.62369,13.64063 -35.43554,20.46094 z" /></g><g
     inkscape:groupmode="layer"
     id="layer10"
     inkscape:label="Bodymod4"
     transform="translate(0,0.11887)"><path
       id="path49"
       style="fill:#90b57f;fill-opacity:1;stroke:#404040;stroke-width:0;stroke-linecap:round;stroke-dasharray:none;stroke-dashoffset:0;stroke-opacity:0;paint-order:fill markers stroke"
       d="m 334.34375,205.19336 c -2.4541,1.73775 -5.65948,1.45972 -8.43448,0.81304 -1.31546,-0.22739 -2.63092,-0.45479 -3.94638,-0.68218 5.54622,12.36784 11.09245,24.73568 16.63867,37.10351 19.0918,7.9642 38.1836,15.92839 57.27539,23.89258 0,-16.87174 0,-33.74349 0,-50.61523 -8.89909,-10.3418 -17.79817,-20.6836 -26.69726,-31.02539 -11.61198,6.83789 -23.22396,13.67578 -34.83594,20.51367 z" /><path
       id="path58"
       style="fill:#90b57f;fill-opacity:1;stroke:#404040;stroke-width:0;stroke-linecap:round;stroke-dasharray:none;stroke-dashoffset:0;stroke-opacity:0;paint-order:fill markers stroke"
       d="m 263.875,339.55273 c 13.55339,-4.9733 27.10677,-9.94661 40.66016,-14.91992 -8.42709,-8.49284 -16.85417,-16.98567 -25.28125,-25.47851 -5.12631,13.46614 -10.25261,26.93229 -15.37891,40.39843 z" /><path
       id="path60"
       style="fill:#90b57f;fill-opacity:1;stroke:#404040;stroke-width:0;stroke-linecap:round;stroke-dasharray:none;stroke-dashoffset:0;stroke-opacity:0;paint-order:fill markers stroke"
       d="m 145.56055,295.05273 c 1.47916,4.25651 2.95833,8.51303 4.4375,12.76954 3.40234,-3.24415 6.80468,-6.48829 10.20703,-9.73243 -1.09961,-2.08724 -2.19922,-4.17448 -3.29883,-6.26172 -3.7819,1.07487 -7.5638,2.14974 -11.3457,3.22461 z" /></g><g
     inkscape:label="Passive1"
     inkscape:groupmode="layer"
     id="layer1"
     transform="translate(83.28501,206.63068)"><path
       id="path3"
       style="fill:#e2b584;fill-opacity:1;stroke:#404040;stroke-width:0;stroke-linecap:round;stroke-dasharray:none;stroke-dashoffset:0;stroke-opacity:0;paint-order:fill markers stroke"
       d="m 109.58789,-80.628906 c 3.19596,2.997396 6.39193,5.994791 9.58789,8.992187 2.54818,-4.496094 5.09636,-8.992187 7.64453,-13.488281 -5.74414,1.498698 -11.48828,2.997396 -17.23242,4.496094 z" /><path
       id="path5"
       style="fill:#e2b584;fill-opacity:1;stroke:#404040;stroke-width:0;stroke-linecap:round;stroke-dasharray:none;stroke-dashoffset:0;stroke-opacity:0;paint-order:fill markers stroke"
       d="M 45.966797,-5.3261719 C 54.697266,-6.8658854 63.427734,-8.405599 72.158203,-9.9453125 66.436849,-17.64974 60.715495,-25.354167 54.994141,-33.058594 c -3.009115,9.244141 -6.01823,18.488281 -9.027344,27.7324221 z" /><path
       id="path12"
       style="fill:#e2b584;fill-opacity:1;stroke:#404040;stroke-width:0;stroke-linecap:round;stroke-dasharray:none;stroke-dashoffset:0;stroke-opacity:0;paint-order:fill markers stroke"
       d="m -64.923828,-118.66016 c 18.371094,13.83529 36.742187,27.670577 55.1132811,41.505863 10.27994794,-10.94401 20.5598959,-21.888021 30.8398439,-32.832033 -11.2721355,-9.11653 -22.544271,-18.23307 -33.816406,-27.34961 -17.378907,6.22526 -34.757813,12.45052 -52.136719,18.67578 z" /><path
       id="path16"
       style="fill:#e2b584;fill-opacity:1;stroke:#404040;stroke-width:0;stroke-linecap:round;stroke-dasharray:none;stroke-dashoffset:0;stroke-opacity:0;paint-order:fill markers stroke"
       d="m 66.863281,-190.57422 c 17.721932,3.88815 35.464339,7.69982 53.156369,11.70829 10.06962,3.00609 20.13924,6.01218 30.20887,9.01827 11.58203,-9.2819 23.16406,-18.5638 34.74609,-27.8457 -41.33333,0 -82.66667,0 -124.000001,0 1.962891,2.37305 3.925782,4.74609 5.888672,7.11914 z" /><path
       id="path17"
       style="fill:#e2b584;fill-opacity:1;stroke:#404040;stroke-width:0;stroke-linecap:round;stroke-dasharray:none;stroke-dashoffset:0;stroke-opacity:0;paint-order:fill markers stroke"
       d="m 106.39648,-148.16406 c 15.13497,14.58703 30.26834,29.17572 45.4043,43.76172 6.37174,11.079524 12.74631,22.157423 19.11914,33.236324 4.74024,3.837891 9.48047,7.675782 14.2207,11.513672 0.57162,-11.033854 1.14323,-22.067708 1.71485,-33.101562 -13.42578,-19.923824 -26.85156,-39.847654 -40.27735,-59.771484 -9.1289,-2.72787 -18.25781,-5.45573 -27.38671,-8.18359 -4.26498,4.18164 -8.52995,8.36328 -12.79493,12.54492 z" /><path
       id="path21"
       style="fill:#e2b584;fill-opacity:1;stroke:#404040;stroke-width:0;stroke-linecap:round;stroke-dasharray:none;stroke-dashoffset:0;stroke-opacity:0;paint-order:fill markers stroke"
       d="m 247.07812,-98.337891 c 21.8379,8.657552 43.67579,17.315105 65.51368,25.972657 0,-25.795573 0,-51.591146 0,-77.386716 -11.55664,-1.09831 -23.11328,-2.19662 -34.66992,-3.29493 -10.28126,18.23633 -20.5625,36.47266 -30.84376,54.708989 z" /><path
       id="path23"
       style="fill:#e2b584;fill-opacity:1;stroke:#404040;stroke-width:0;stroke-linecap:round;stroke-dasharray:none;stroke-dashoffset:0;stroke-opacity:0;paint-order:fill markers stroke"
       d="m 144.26953,-12.859375 c 5.76302,4.7617188 11.52604,9.5234375 17.28906,14.2851562 -0.7513,-4.9622395 -1.5026,-9.9244791 -2.2539,-14.8867192 -5.01172,0.200521 -10.02344,0.401042 -15.03516,0.601563 z" /><path
       id="path24"
       style="fill:#e2b584;fill-opacity:1;stroke:#404040;stroke-width:0;stroke-linecap:round;stroke-dasharray:none;stroke-dashoffset:0;stroke-opacity:0;paint-order:fill markers stroke"
       d="m 248.70117,-40.445312 c 1.25651,5.940755 2.51302,11.88151 3.76953,17.822265 12.39002,-7.29355 24.7797,-14.587664 37.16992,-21.880859 7.65197,8.883409 15.30053,17.769754 22.95118,26.654297 0,-10.470052 0,-20.940105 0,-31.410157 -21.29688,2.938151 -42.59375,5.876302 -63.89063,8.814454 z" /></g><g
     inkscape:groupmode="layer"
     id="layer3"
     inkscape:label="Passive2"
     transform="translate(0,0.11887)"><path
       id="path1"
       style="fill:#e2bf97;fill-opacity:1;stroke:#404040;stroke-width:0;stroke-linecap:round;stroke-opacity:0;paint-order:fill markers stroke"
       d="m 147.25195,155.93945 c 8.80534,11.85482 17.61068,23.70964 26.41602,35.56446 7.24349,-3.72461 14.48698,-7.44922 21.73047,-11.17383 0.11328,-9.19466 0.22656,-18.38932 0.33984,-27.58399 -6.97526,-6.53906 -13.95052,-13.07812 -20.92578,-19.61718 -9.18685,7.60351 -18.3737,15.20703 -27.56055,22.81054 z" /><path
       id="path7"
       style="fill:#e2bf97;fill-opacity:1;stroke:#404040;stroke-width:0;stroke-linecap:round;stroke-dasharray:none;stroke-dashoffset:0;stroke-opacity:0;paint-order:fill markers stroke"
       d="m 136.01953,94.337891 c 13.30469,5.912109 26.60938,11.824219 39.91406,17.736329 11.5599,-3.01628 23.1198,-6.03255 34.67969,-9.04883 -11.58463,-11.167317 -23.16927,-22.334635 -34.7539,-33.501952 -13.27995,8.271484 -26.5599,16.542968 -39.83985,24.814453 z" /><path
       id="path8"
       style="fill:#e2bf97;fill-opacity:1;stroke:#404040;stroke-width:0;stroke-linecap:round;stroke-dasharray:none;stroke-dashoffset:0;stroke-opacity:0;paint-order:fill markers stroke"
       d="m 91.548828,135.87891 c 10.268882,2.25651 20.537762,4.51302 30.806642,6.76953 -3.0332,-9.95768 -6.06641,-19.91537 -9.09961,-29.87305 -7.23568,7.70117 -14.471355,15.40234 -21.707032,23.10352 z" /><path
       id="path18"
       style="fill:#e2bf97;fill-opacity:1;stroke:#404040;stroke-width:0;stroke-linecap:round;stroke-dasharray:none;stroke-dashoffset:0;stroke-opacity:0;paint-order:fill markers stroke"
       d="m 247.25391,48.244141 c 12.21354,18.123698 24.42708,36.247395 36.64062,54.371089 9.59245,0.34115 19.1849,0.6823 28.77735,1.02344 C 323.35872,84.68099 334.04557,65.723307 344.73242,46.765625 327.72266,34.845703 310.71289,22.925781 293.70312,11.005859 278.22005,23.41862 262.73698,35.83138 247.25391,48.244141 Z" /><path
       id="path19"
       style="fill:#e2bf97;fill-opacity:1;stroke:#404040;stroke-width:0;stroke-linecap:round;stroke-dasharray:none;stroke-dashoffset:0;stroke-opacity:0;paint-order:fill markers stroke"
       d="m 258.48047,176.41211 c 19.95573,3.45833 39.91146,6.91667 59.86719,10.375 -1.29427,-6.11393 -2.58855,-12.22787 -3.88282,-18.3418 -13.57547,1.80112 -27.15131,3.59954 -40.72656,5.40235 -5.42293,-4.39093 -10.84639,-8.7812 -16.26953,-13.17188 0.33724,5.24544 0.67448,10.49089 1.01172,15.73633 z" /><path
       id="path11"
       style="fill:#e2bf97;fill-opacity:1;stroke:#404040;stroke-width:0;stroke-linecap:round;stroke-dasharray:none;stroke-dashoffset:0;stroke-opacity:0;paint-order:fill markers stroke"
       d="m 8.8183594,136.26953 c 9.0480976,-1.4846 18.0768206,-3.11119 27.1542966,-4.39062 3.908203,0.0469 7.816407,0.0937 11.72461,0.14062 C 34.73763,122.25977 21.777995,112.5 8.8183594,102.74023 c 0,11.17644 0,22.35287 0,33.5293 z" /></g><g
     inkscape:groupmode="layer"
     id="layer4"
     inkscape:label="Passive3"
     transform="translate(0,0.11887)"><path
       id="path9"
       style="fill:#d0aa7e;fill-opacity:1;stroke:#404040;stroke-width:0;stroke-linecap:round;stroke-dasharray:none;stroke-dashoffset:0;stroke-opacity:0;paint-order:fill markers stroke"
       d="m 64.009766,175.96094 c 15.707682,7.97982 31.415364,15.95963 47.123044,23.93945 4.2194,-12.96289 8.4388,-25.92578 12.65821,-38.88867 -16.76758,-3.6836 -33.535161,-7.36719 -50.302739,-11.05078 -7.683594,-0.0892 -15.367187,-0.17839 -23.050781,-0.26758 4.524089,8.75586 9.048177,17.51172 13.572266,26.26758 z" /><path
       id="path13"
       style="fill:#d0aa7e;fill-opacity:1;stroke:#404040;stroke-width:0;stroke-linecap:round;stroke-dasharray:none;stroke-dashoffset:0;stroke-opacity:0;paint-order:fill markers stroke"
       d="M 8.8867188,72.511719 C 24.13737,67.047526 39.388021,61.583333 54.638672,56.119141 39.486979,43.589193 24.335286,31.059245 9.1835938,18.529297 9.0846354,36.523437 8.9856771,54.517578 8.8867188,72.511719 Z" /><path
       id="path15"
       style="fill:#d0aa7e;fill-opacity:1;stroke:#404040;stroke-width:0;stroke-linecap:round;stroke-dasharray:none;stroke-dashoffset:0;stroke-opacity:0;paint-order:fill markers stroke"
       d="m 107.49023,76.572266 c 3.45769,2.759114 6.91537,5.518229 10.37305,8.277343 17.88737,-11.142578 35.77474,-22.285156 53.66211,-33.427734 3.54753,-3.477214 7.09505,-6.954427 10.64258,-10.431641 -11.29753,-2.467448 -22.59505,-4.934895 -33.89258,-7.402343 -13.59505,14.328125 -27.1901,28.65625 -40.78516,42.984375 z" /><path
       id="path20"
       style="fill:#d0aa7e;fill-opacity:1;stroke:#404040;stroke-width:0;stroke-linecap:round;stroke-dasharray:none;stroke-dashoffset:0;stroke-opacity:0;paint-order:fill markers stroke"
       d="m 285.6875,154.46875 c 28.20702,-3.71272 56.40761,-7.59111 84.59766,-11.48633 -18.13672,-7.1901 -36.27344,-14.38021 -54.41016,-21.57031 -9.47526,-0.33659 -18.95052,-0.67318 -28.42578,-1.00977 -0.58724,11.35547 -1.17448,22.71094 -1.76172,34.06641 z" /><path
       id="path22"
       style="fill:#d0aa7e;fill-opacity:1;stroke:#404040;stroke-width:0;stroke-linecap:round;stroke-dasharray:none;stroke-dashoffset:0;stroke-opacity:0;paint-order:fill markers stroke"
       d="m 359.48438,35.582031 c 12.13085,1.154297 24.26171,2.308594 36.39257,3.462891 0,-10.075521 0,-20.151042 0,-30.2265626 -24.86132,0 -49.72265,0 -74.58398,0 12.73047,8.9212236 25.46094,17.8424476 38.19141,26.7636716 z" /></g><g
     inkscape:groupmode="layer"
     id="layer6"
     inkscape:label="Passive4"
     transform="translate(0,0.11887)"><path
       id="path4"
       style="fill:#d6b186;fill-opacity:1;stroke:#404040;stroke-width:0;stroke-linecap:round;stroke-dasharray:none;stroke-dashoffset:0;stroke-opacity:0;paint-order:fill markers stroke"
       d="m 213.39844,151.33789 c -0.10482,8.41016 -0.20964,16.82031 -0.31446,25.23047 9.21941,-0.36979 18.43881,-0.73958 27.65821,-1.10938 -0.68034,-10.5638 -1.36068,-21.1276 -2.04102,-31.6914 -3.5293,-6.13151 -7.05859,-12.26302 -10.58789,-18.39453 -4.90495,8.65494 -9.80989,17.30989 -14.71484,25.96484 z" /><path
       id="path6"
       style="fill:#d6b186;fill-opacity:1;stroke:#404040;stroke-width:0;stroke-linecap:round;stroke-dasharray:none;stroke-dashoffset:0;stroke-opacity:0;paint-order:fill markers stroke"
       d="m 139.75977,139.25977 c 6.27929,-5.19857 12.55859,-10.39714 18.83789,-15.59571 -9.09506,-4.04232 -18.19011,-8.08463 -27.28516,-12.12695 2.81576,9.24088 5.63151,18.48177 8.44727,27.72266 z" /><path
       id="path10"
       style="fill:#d6b186;fill-opacity:1;stroke:#404040;stroke-width:0;stroke-linecap:round;stroke-dasharray:none;stroke-dashoffset:0;stroke-opacity:0;paint-order:fill markers stroke"
       d="m 8.8183594,154.13867 c 0,16.48893 0,32.97787 0,49.4668 23.5553386,0 47.1106766,0 70.6660156,0 -9.515089,-4.8305 -19.029259,-9.66282 -28.544922,-14.49219 -6.654577,-12.89018 -13.312779,-25.7785 -19.96875,-38.66797 -7.384114,1.23112 -14.768229,2.46224 -22.1523436,3.69336 z" /><path
       id="path14"
       style="fill:#d6b186;fill-opacity:1;stroke:#404040;stroke-width:0;stroke-linecap:round;stroke-dasharray:none;stroke-dashoffset:0;stroke-opacity:0;paint-order:fill markers stroke"
       d="M 93.736328,65.457031 C 106.9987,51.47526 120.26107,37.49349 133.52344,23.511719 c -4.05013,-4.897787 -8.10026,-9.795573 -12.15039,-14.6933596 -32.236331,0 -64.472659,0 -96.708988,0 C 47.688151,27.697917 70.71224,46.577474 93.736328,65.457031 Z" /></g></svg>
