<?xml version="1.0" encoding="UTF-8" standalone="no"?>
<!-- Created with Inkscape (http://www.inkscape.org/) -->

<svg
   width="169.97189mm"
   height="301.75809mm"
   viewBox="0 0 404.69498 718.47164"
   version="1.1"
   id="svg1"
   xml:space="preserve"
   sodipodi:docname="UpgrageOverviewPanel17.svg"
   inkscape:version="1.4.2 (f4327f4, 2025-05-13)"
   inkscape:export-filename="UpgrageOverviewPaneltest1.png"
   inkscape:export-xdpi="96"
   inkscape:export-ydpi="96"
   xmlns:inkscape="http://www.inkscape.org/namespaces/inkscape"
   xmlns:sodipodi="http://sodipodi.sourceforge.net/DTD/sodipodi-0.dtd"
   xmlns="http://www.w3.org/2000/svg"
   xmlns:svg="http://www.w3.org/2000/svg"><sodipodi:namedview
     id="namedview1"
     pagecolor="#ffffff"
     bordercolor="#000000"
     borderopacity="0.25"
     inkscape:showpageshadow="2"
     inkscape:pageopacity="0.0"
     inkscape:pagecheckerboard="0"
     inkscape:deskcolor="#d1d1d1"
     inkscape:document-units="mm"
     inkscape:zoom="1.1508788"
     inkscape:cx="149.45101"
     inkscape:cy="627.78114"
     inkscape:window-width="3840"
     inkscape:window-height="2054"
     inkscape:window-x="-11"
     inkscape:window-y="-11"
     inkscape:window-maximized="1"
     inkscape:current-layer="layer4" /><defs
     id="defs1" /><g
     inkscape:groupmode="layer"
     id="layer2"
     inkscape:label="Marker"
     transform="translate(0,0.11887)" /><g
     inkscape:groupmode="layer"
     id="layer19"
     inkscape:label="Special1"
     transform="translate(0,0.11887)"><path
       id="path95"
       style="fill:#865ccc;fill-opacity:1;stroke:#404040;stroke-width:0;stroke-linecap:round;stroke-dasharray:none;stroke-dashoffset:0;stroke-opacity:0;paint-order:fill markers stroke"
       d="m 340.33789,609.44336 c 2.45638,4.16406 4.91276,8.32812 7.36914,12.49219 6.39844,-2.56641 12.79688,-5.13282 19.19531,-7.69922 0,-2.76367 0,-5.52735 0,-8.29102 -4.5039,-3.40429 -9.00781,-6.80859 -13.51172,-10.21289 -4.35091,4.57031 -8.70182,9.14063 -13.05273,13.71094 z" /></g><g
     inkscape:groupmode="layer"
     id="layer21"
     inkscape:label="Special3"
     transform="translate(0,0.11887)" /><g
     inkscape:groupmode="layer"
     id="layer22"
     inkscape:label="Special4"
     transform="translate(0,0.11887)" /><g
     inkscape:groupmode="layer"
     id="layer20"
     inkscape:label="Special2"
     transform="translate(0,0.11887)"><path
       id="path91"
       style="fill:#9970df;fill-opacity:1;stroke:#404040;stroke-width:0;stroke-linecap:round;stroke-dasharray:none;stroke-dashoffset:0;stroke-opacity:0;paint-order:fill markers stroke"
       d="m 184.01562,673.92383 c 2.00456,0.76693 4.00912,1.53385 6.01368,2.30078 2.77929,-1.78776 5.55859,-3.57552 8.33789,-5.36328 -2.57823,-1.90033 -5.15015,-3.80917 -7.75,-5.67969 -2.20052,2.91406 -4.40104,5.82813 -6.60157,8.74219 z" /></g><g
     inkscape:groupmode="layer"
     id="layer15"
     inkscape:label="Active1"
     transform="translate(0,0.11887)" /><g
     inkscape:groupmode="layer"
     id="layer16"
     inkscape:label="Active2"
     transform="translate(0,0.11887)"><path
       id="path83"
       style="fill:#e58f7d;fill-opacity:1;stroke:#404040;stroke-width:0;stroke-linecap:round;stroke-dasharray:none;stroke-dashoffset:0;stroke-opacity:0;paint-order:fill markers stroke"
       d="m 297.17188,533.69336 c -0.89375,0.45781 0.19205,1.93724 0.90429,1.21094 0.68334,-0.59297 -0.21069,-1.4751 -0.90429,-1.21094 z" /></g><g
     inkscape:groupmode="layer"
     id="layer18"
     inkscape:label="Active4"
     transform="translate(0,0.11887)" /><g
     inkscape:groupmode="layer"
     id="layer17"
     inkscape:label="Active3"
     transform="translate(0,0.11887)"><path
       id="path76"
       style="fill:#e3a395;fill-opacity:1;stroke:#404040;stroke-width:0;stroke-linecap:round;stroke-dasharray:none;stroke-dashoffset:0;stroke-opacity:0;paint-order:fill markers stroke"
       d="m 52.839844,484.86328 c 1.653646,3.0918 3.307291,6.18359 4.960937,9.27539 3.624349,1.14714 7.248698,2.29427 10.873047,3.44141 0.08464,-2.67904 0.169271,-5.35807 0.253906,-8.03711 -1.148894,-1.55713 -2.413201,-3.13303 -4.201916,-3.9785 -1.807043,-1.1504 -3.614087,-2.30079 -5.42113,-3.45119 -2.154948,0.91667 -4.309896,1.83333 -6.464844,2.75 z" /></g><g
     inkscape:groupmode="layer"
     id="layer11"
     inkscape:label="Synergy1"
     transform="translate(0,0.11887)"><path
       id="path63"
       style="fill:#85b8e4;fill-opacity:1;stroke:#404040;stroke-width:0;stroke-linecap:round;stroke-dasharray:none;stroke-dashoffset:0;stroke-opacity:0;paint-order:fill markers stroke"
       d="m 79.488281,357.9082 c -0.256876,0.82748 1.347569,1.13489 1.3125,0.23828 -0.237429,-0.4352 -0.909826,-0.42917 -1.3125,-0.23828 z" /></g><g
     inkscape:groupmode="layer"
     id="layer14"
     inkscape:label="Synergy4"
     transform="translate(0,0.11887)" /><g
     inkscape:groupmode="layer"
     id="layer12"
     inkscape:label="Synergy2"
     transform="translate(0,0.11887)"><path
       id="path73"
       style="fill:#94c4ed;fill-opacity:1;stroke:#404040;stroke-width:0;stroke-linecap:round;stroke-dasharray:none;stroke-dashoffset:0;stroke-opacity:0;paint-order:fill markers stroke"
       d="m 157.43359,402.6875 c -0.55989,-0.0282 -0.0297,0.98439 0.26758,0.45898 0.30567,-0.35829 0.24846,-0.5664 -0.26758,-0.45898 z" /><path
       id="path62"
       style="fill:#94c4ed;fill-opacity:1;stroke:#404040;stroke-width:0;stroke-linecap:round;stroke-dasharray:none;stroke-dashoffset:0;stroke-opacity:0;paint-order:fill markers stroke"
       d="m 21.371094,336.77734 c -1.075578,0.21288 -0.812398,2.163 0.30455,1.97696 1.070886,-0.11256 1.076352,-2.02949 -0.07028,-1.99477 -0.07809,0.006 -0.156182,0.0119 -0.234272,0.0178 z" /></g><g
     inkscape:groupmode="layer"
     id="layer13"
     inkscape:label="Synergy3"
     transform="translate(0,0.11887)"><path
       id="path66"
       style="fill:#74a4ce;fill-opacity:1;stroke:#404040;stroke-width:0;stroke-linecap:round;stroke-dasharray:none;stroke-dashoffset:0;stroke-opacity:0;paint-order:fill markers stroke"
       d="m 199.33398,374.51367 c -0.79652,0.3701 0.21363,1.52458 0.71615,0.84037 0.53458,-0.49525 -0.16333,-1.13354 -0.71615,-0.84037 z" /></g><g
     inkscape:groupmode="layer"
     id="layer7"
     inkscape:label="Bodymod1"
     transform="translate(0,0.11887)" /><g
     inkscape:groupmode="layer"
     id="layer8"
     inkscape:label="Bodymod2"
     transform="translate(0,0.11887)"><path
       id="path52"
       style="fill:#a6d68e;fill-opacity:1;stroke:#404040;stroke-width:0;stroke-linecap:round;stroke-dasharray:none;stroke-dashoffset:0;stroke-opacity:0;paint-order:fill markers stroke"
       d="m 150.84375,237.29102 c -0.98806,0.32915 -0.92505,1.89524 0.0488,2.18945 0.45123,-0.33865 1.16789,-0.4758 1.45703,-0.9375 0.0824,-0.79363 -0.75683,-1.44153 -1.50586,-1.25195 z" /></g><g
     inkscape:groupmode="layer"
     id="layer9"
     inkscape:label="Bodymod3"
     transform="translate(0,0.11887)" /><g
     inkscape:groupmode="layer"
     id="layer10"
     inkscape:label="Bodymod4"
     transform="translate(0,0.11887)"><path
       id="path60"
       style="fill:#90b57f;fill-opacity:1;stroke:#404040;stroke-width:0;stroke-linecap:round;stroke-dasharray:none;stroke-dashoffset:0;stroke-opacity:0;paint-order:fill markers stroke"
       d="m 151.92188,297.49023 c -1.03969,0.49026 -0.005,2.25317 0.93359,1.63086 0.89749,-0.65445 0.0217,-1.92489 -0.93359,-1.63086 z" /><path
       id="path58"
       style="fill:#90b57f;fill-opacity:1;stroke:#404040;stroke-width:0;stroke-linecap:round;stroke-dasharray:none;stroke-dashoffset:0;stroke-opacity:0;paint-order:fill markers stroke"
       d="m 283.54688,319.73633 c -0.47854,-0.0285 -0.54502,0.78132 -0.0135,0.62783 0.35699,0.0239 0.70051,-0.67757 0.13848,-0.63955 l -0.0996,0.009 z" /></g><g
     inkscape:label="Passive1"
     inkscape:groupmode="layer"
     id="layer1"
     transform="translate(83.28501,206.63068)" /><g
     inkscape:groupmode="layer"
     id="layer3"
     inkscape:label="Passive2"
     transform="translate(0,0.11887)"><path
       id="path19"
       style="fill:#e2bf97;fill-opacity:1;stroke:#404040;stroke-width:0;stroke-linecap:round;stroke-dasharray:none;stroke-dashoffset:0;stroke-opacity:0;paint-order:fill markers stroke"
       d="m 263.09766,171.07422 c -0.61552,0.26484 -0.77145,0.97747 -0.43665,1.52779 0.13278,0.66582 1.14934,0.46416 1.47765,0.0773 0.60624,-0.72957 -0.0416,-2.02581 -1.041,-1.60508 z" /><path
       id="path18"
       style="fill:#e2bf97;fill-opacity:1;stroke:#404040;stroke-width:0;stroke-linecap:round;stroke-dasharray:none;stroke-dashoffset:0;stroke-opacity:0;paint-order:fill markers stroke"
       d="m 286.19336,54.173828 c 3.82878,5.682943 7.65755,11.365886 11.48633,17.048828 2.97135,-5.273437 5.94271,-10.546875 8.91406,-15.820312 -3.90299,-2.732422 -7.80599,-5.464844 -11.70898,-8.197266 -2.89714,2.322917 -5.79428,4.645833 -8.69141,6.96875 z" /><path
       id="path8"
       style="fill:#e2bf97;fill-opacity:1;stroke:#404040;stroke-width:0;stroke-linecap:round;stroke-dasharray:none;stroke-dashoffset:0;stroke-opacity:0;paint-order:fill markers stroke"
       d="m 108.67383,129.5293 c -0.86678,0.16954 -0.38064,1.69684 0.43555,1.22851 0.63434,-0.26315 0.54055,-1.40828 -0.26333,-1.24958 l -0.0993,0.0121 z" /></g><g
     inkscape:groupmode="layer"
     id="layer4"
     inkscape:label="Passive3"
     transform="translate(0,0.11887)"><path
       id="path13"
       style="fill:#d0aa7e;fill-opacity:1;stroke:#404040;stroke-width:0;stroke-linecap:round;stroke-dasharray:none;stroke-dashoffset:0;stroke-opacity:0;paint-order:fill markers stroke"
       d="m 23.753906,49.882812 c -0.55815,0.403402 -0.564742,1.136392 -0.135934,1.635604 0.709892,0.658196 1.996556,-0.30276 1.581132,-1.202219 -0.176614,-0.645169 -0.935526,-0.771786 -1.445198,-0.433385 z" /></g><g
     inkscape:groupmode="layer"
     id="layer6"
     inkscape:label="Passive4"
     transform="translate(0,0.11887)"><path
       id="path14"
       style="fill:#d6b186;fill-opacity:1;stroke:#404040;stroke-width:0;stroke-linecap:round;stroke-dasharray:none;stroke-dashoffset:0;stroke-opacity:0;paint-order:fill markers stroke"
       d="m 91.537109,32.810547 c 0.145022,0.05333 -0.189002,-0.267608 0,0 z" /><path
       id="path6"
       style="fill:#d6b186;fill-opacity:1;stroke:#404040;stroke-width:0;stroke-linecap:round;stroke-dasharray:none;stroke-dashoffset:0;stroke-opacity:0;paint-order:fill markers stroke"
       d="m 143.30469,125.14844 c -0.94985,0.21734 0.0128,1.63343 0.66609,1.08159 0.70334,-0.44731 -0.0637,-1.22116 -0.66609,-1.08159 z" /></g></svg>
