<?xml version="1.0" encoding="UTF-8" standalone="no"?>
<!-- Created with Inkscape (http://www.inkscape.org/) -->

<svg
   width="169.97189mm"
   height="301.75809mm"
   viewBox="0 0 404.69498 718.47164"
   version="1.1"
   id="svg1"
   xml:space="preserve"
   sodipodi:docname="UpgrageOverviewPanel4.svg"
   inkscape:version="1.4.2 (f4327f4, 2025-05-13)"
   inkscape:export-filename="UpgrageOverviewPaneltest1.png"
   inkscape:export-xdpi="96"
   inkscape:export-ydpi="96"
   xmlns:inkscape="http://www.inkscape.org/namespaces/inkscape"
   xmlns:sodipodi="http://sodipodi.sourceforge.net/DTD/sodipodi-0.dtd"
   xmlns="http://www.w3.org/2000/svg"
   xmlns:svg="http://www.w3.org/2000/svg"><sodipodi:namedview
     id="namedview1"
     pagecolor="#ffffff"
     bordercolor="#000000"
     borderopacity="0.25"
     inkscape:showpageshadow="2"
     inkscape:pageopacity="0.0"
     inkscape:pagecheckerboard="0"
     inkscape:deskcolor="#d1d1d1"
     inkscape:document-units="mm"
     inkscape:zoom="1.1508788"
     inkscape:cx="149.45101"
     inkscape:cy="627.78114"
     inkscape:window-width="3840"
     inkscape:window-height="2054"
     inkscape:window-x="-11"
     inkscape:window-y="-11"
     inkscape:window-maximized="1"
     inkscape:current-layer="layer4" /><defs
     id="defs1" /><g
     inkscape:groupmode="layer"
     id="layer2"
     inkscape:label="Marker"
     transform="translate(0,0.11887)" /><g
     inkscape:groupmode="layer"
     id="layer19"
     inkscape:label="Special1"
     transform="translate(0,0.11887)"><path
       id="path86"
       style="fill:#865ccc;fill-opacity:1;stroke:#404040;stroke-width:0;stroke-linecap:round;stroke-dasharray:none;stroke-dashoffset:0;stroke-opacity:0;paint-order:fill markers stroke"
       d="M 4.2773438,589.34375 C 14.395833,607.29687 24.514323,625.25 34.632812,643.20312 58.355469,630.36198 82.078125,617.52083 105.80078,604.67969 97.75,595.82747 89.699219,586.97526 81.648438,578.12305 c -21.252605,-5.403 -42.505209,-10.80599 -63.757813,-16.20899 -4.53776,9.14323 -9.0755208,18.28646 -13.6132812,27.42969 z" /><path
       id="path90"
       style="fill:#865ccc;fill-opacity:1;stroke:#404040;stroke-width:0;stroke-linecap:round;stroke-dasharray:none;stroke-dashoffset:0;stroke-opacity:0;paint-order:fill markers stroke"
       d="m 30.134766,714.57422 c 47.951172,0 95.902344,0 143.853514,0 -17.44733,-6.68344 -34.89959,-13.35689 -52.33253,-20.07608 -1.4829,-0.70381 -2.96581,-1.40761 -4.44872,-2.11142 -29.024087,7.39583 -58.048176,14.79167 -87.072264,22.1875 z" /><path
       id="path92"
       style="fill:#865ccc;fill-opacity:1;stroke:#404040;stroke-width:0;stroke-linecap:round;stroke-dasharray:none;stroke-dashoffset:0;stroke-opacity:0;paint-order:fill markers stroke"
       d="m 267.21484,669.96289 c 1.47411,1.08444 2.94858,2.16838 4.42188,3.25391 -15.74066,10.11986 -31.48322,20.23675 -47.22461,30.35547 29.76497,-10.68425 59.52995,-21.36849 89.29492,-32.05274 -16.51042,-1.26432 -33.02083,-2.52864 -49.53125,-3.79297 1.01302,0.74545 2.02604,1.49089 3.03906,2.23633 z" /><path
       id="path95"
       style="fill:#865ccc;fill-opacity:1;stroke:#404040;stroke-width:0;stroke-linecap:round;stroke-dasharray:none;stroke-dashoffset:0;stroke-opacity:0;paint-order:fill markers stroke"
       d="m 297.9707,604.61719 c 11.75521,19.92317 23.51042,39.84635 35.26563,59.76953 22.55989,-9.03516 45.11979,-18.07031 67.67969,-27.10547 0,-16.08333 0,-32.16667 0,-48.25 -17.07227,-12.91862 -34.14454,-25.83724 -51.2168,-38.75586 -17.24284,18.11393 -34.48568,36.22787 -51.72852,54.3418 z" /></g><g
     inkscape:groupmode="layer"
     id="layer21"
     inkscape:label="Special3"
     transform="translate(0,0.11887)"><path
       id="path88"
       style="fill:#a381dc;fill-opacity:1;stroke:#404040;stroke-width:0;stroke-linecap:round;stroke-dasharray:none;stroke-dashoffset:0;stroke-opacity:0;paint-order:fill markers stroke"
       d="m 41.511719,648.07227 c 26.958333,12.79947 53.916666,25.59895 80.875001,38.39843 15.69271,-20.77148 31.38542,-41.54297 47.07812,-62.31445 -19.03971,-4.80859 -38.07942,-9.61719 -57.11914,-14.42578 -23.611325,12.7806 -47.222653,25.5612 -70.833981,38.3418 z" /><path
       id="path93"
       style="fill:#a381dc;fill-opacity:1;stroke:#404040;stroke-width:0;stroke-linecap:round;stroke-dasharray:none;stroke-dashoffset:0;stroke-opacity:0;paint-order:fill markers stroke"
       d="m 209.20117,627.25195 c 14.49479,10.67123 28.98959,21.34245 43.48438,32.01367 23.99869,1.83855 47.99739,3.67709 71.99609,5.51563 -11.30143,-19.1582 -22.60286,-38.31641 -33.9043,-57.47461 -30.42708,-8.47005 -60.85416,-16.9401 -91.28125,-25.41016 3.23503,15.11849 6.47006,30.23698 9.70508,45.35547 z" /></g><g
     inkscape:groupmode="layer"
     id="layer22"
     inkscape:label="Special4"
     transform="translate(0,0.11887)"><path
       id="path94"
       style="fill:#724eaf;fill-opacity:1;stroke:#404040;stroke-width:0;stroke-linecap:round;stroke-dasharray:none;stroke-dashoffset:0;stroke-opacity:0;paint-order:fill markers stroke"
       d="m 278.13086,556.88672 c -22.69162,-0.25703 -45.38579,-0.5675 -68.07813,-0.86524 -3.31966,6.06641 -6.63932,12.13282 -9.95898,18.19922 30.66536,8.53646 61.33073,17.07292 91.99609,25.60938 15.77409,-16.57097 31.54818,-33.14193 47.32227,-49.71289 -20.42708,2.25651 -40.85417,4.51302 -61.28125,6.76953 z" /><path
       id="path96"
       style="fill:#724eaf;fill-opacity:1;stroke:#404040;stroke-width:0;stroke-linecap:round;stroke-dasharray:none;stroke-dashoffset:0;stroke-opacity:0;paint-order:fill markers stroke"
       d="m 215.34766,714.57422 c 61.85612,0 123.71224,0 185.56836,0 0,-23.09636 0,-46.19271 0,-69.28906 -61.85612,23.09635 -123.71224,46.1927 -185.56836,69.28906 z" /></g><g
     inkscape:groupmode="layer"
     id="layer20"
     inkscape:label="Special2"
     transform="translate(0,0.11887)"><path
       id="path87"
       style="fill:#9970df;fill-opacity:1;stroke:#404040;stroke-width:0;stroke-linecap:round;stroke-dasharray:none;stroke-dashoffset:0;stroke-opacity:0;paint-order:fill markers stroke"
       d="m 88.919922,574.88281 c 8.318359,9.14714 16.636718,18.29427 24.955078,27.44141 28.98633,7.32096 57.97266,14.64193 86.95898,21.96289 -3.23697,-15.12826 -6.47395,-30.25651 -9.71093,-45.38477 -21.39388,-13.8776 -42.78776,-27.7552 -64.18164,-41.63281 -12.67383,12.53776 -25.34766,25.07552 -38.021488,37.61328 z" /><path
       id="path89"
       style="fill:#9970df;fill-opacity:1;stroke:#404040;stroke-width:0;stroke-linecap:round;stroke-dasharray:none;stroke-dashoffset:0;stroke-opacity:0;paint-order:fill markers stroke"
       d="M 3.7792969,713.49023 C 38.025391,704.76302 72.271484,696.03581 106.51758,687.30859 81.163453,675.27075 55.808994,663.2336 30.455078,651.19531 21.564103,635.41743 12.671065,619.64071 3.7792969,603.86328 c 0,36.54232 0,73.08464 0,109.62695 z" /><path
       id="path91"
       style="fill:#9970df;fill-opacity:1;stroke:#404040;stroke-width:0;stroke-linecap:round;stroke-dasharray:none;stroke-dashoffset:0;stroke-opacity:0;paint-order:fill markers stroke"
       d="m 129.59375,689.48242 c 21.46354,8.2194 42.92708,16.4388 64.39063,24.6582 21.4427,-13.78385 42.88541,-27.5677 64.32812,-41.35156 -18.05013,-13.29036 -36.10026,-26.58073 -54.15039,-39.87109 -8.91341,-2.25065 -17.82682,-4.5013 -26.74023,-6.75195 -15.94271,21.10546 -31.88542,42.21093 -47.82813,63.3164 z" /></g><g
     inkscape:groupmode="layer"
     id="layer15"
     inkscape:label="Active1"
     transform="translate(0,0.11887)"><path
       id="path77"
       style="fill:#d67965;fill-opacity:1;stroke:#404040;stroke-width:0;stroke-linecap:round;stroke-dasharray:none;stroke-dashoffset:0;stroke-opacity:0;paint-order:fill markers stroke"
       d="M 3.7792969,573.33594 C 11.677083,557.42708 19.57487,541.51823 27.472656,525.60938 19.57487,510.84375 11.677083,496.07812 3.7792969,481.3125 c 0,30.67448 0,61.34896 0,92.02344 z" /><path
       id="path80"
       style="fill:#d67965;fill-opacity:1;stroke:#404040;stroke-width:0;stroke-linecap:round;stroke-dasharray:none;stroke-dashoffset:0;stroke-opacity:0;paint-order:fill markers stroke"
       d="m 206.20703,460.20898 c -1.26023,1.00131 -2.92033,0.54808 -4.33038,0.21623 -6.86358,-1.40163 -13.72488,-2.8171 -20.58759,-4.22404 -7.45247,11.29232 -14.90495,22.58464 -22.35742,33.87695 18.48112,5.67058 36.96224,11.34115 55.44336,17.01172 19.33854,-15.58398 38.67708,-31.16797 58.01562,-46.75195 -11.5319,-6.53516 -23.0638,-13.07031 -34.5957,-19.60547 -10.5293,6.49219 -21.05859,12.98438 -31.58789,19.47656 z" /><path
       id="path82"
       style="fill:#d67965;fill-opacity:1;stroke:#404040;stroke-width:0;stroke-linecap:round;stroke-dasharray:none;stroke-dashoffset:0;stroke-opacity:0;paint-order:fill markers stroke"
       d="m 369.61133,469.99805 c -11.94987,19.57812 -23.89974,39.15625 -35.84961,58.73437 22.38476,16.94141 44.76953,33.88281 67.1543,50.82422 0,-42.10547 0,-84.21094 0,-126.31641 -10.4349,5.58594 -20.8698,11.17188 -31.30469,16.75782 z" /></g><g
     inkscape:groupmode="layer"
     id="layer16"
     inkscape:label="Active2"
     transform="translate(0,0.11887)"><path
       id="path78"
       style="fill:#e58f7d;fill-opacity:1;stroke:#404040;stroke-width:0;stroke-linecap:round;stroke-dasharray:none;stroke-dashoffset:0;stroke-opacity:0;paint-order:fill markers stroke"
       d="m 109.53711,522.25586 c 0.2207,1.64959 -1.11934,2.86759 -2.27559,3.81102 -7.391759,6.76298 -14.784351,13.52504 -22.175582,20.28859 -17.136189,-5.41108 -34.272116,-10.82298 -51.408204,-16.23438 -4.115885,8.29037 -8.23177,16.58073 -12.347656,24.8711 20.402995,5.18685 40.80599,10.3737 61.208984,15.56054 13.041016,-12.90104 26.082028,-25.80208 39.123048,-38.70312 -3.94271,-6.47852 -7.88542,-12.95703 -11.82813,-19.43555 -0.099,3.2806 -0.19791,6.5612 -0.29687,9.8418 z" /><path
       id="path83"
       style="fill:#e58f7d;fill-opacity:1;stroke:#404040;stroke-width:0;stroke-linecap:round;stroke-dasharray:none;stroke-dashoffset:0;stroke-opacity:0;paint-order:fill markers stroke"
       d="m 282.21484,548.83008 c 19.07683,-2.10612 38.15365,-4.21224 57.23047,-6.31836 -4.2832,-3.22448 -8.52563,-6.51519 -12.87105,-9.64915 -13.06381,-5.66252 -26.12763,-11.32505 -39.19145,-16.98757 -1.72265,10.98503 -3.44531,21.97005 -5.16797,32.95508 z" /></g><g
     inkscape:groupmode="layer"
     id="layer18"
     inkscape:label="Active4"
     transform="translate(0,0.11887)"><path
       id="path84"
       style="fill:#ce6954;fill-opacity:1;stroke:#404040;stroke-width:0;stroke-linecap:round;stroke-dasharray:none;stroke-dashoffset:0;stroke-opacity:0;paint-order:fill markers stroke"
       d="m 218.65234,513.34766 c -2.10481,11.71484 -4.20963,23.42968 -6.31445,35.14453 20.7181,0.27278 41.4362,0.54557 62.1543,0.81836 1.91015,-12.17904 3.82031,-24.35808 5.73047,-36.53711 -13.19011,-5.7168 -26.38021,-11.4336 -39.57032,-17.15039 -7.33333,5.9082 -14.66666,11.8164 -22,17.72461 z" /><path
       id="path79"
       style="fill:#ce6954;fill-opacity:1;stroke:#404040;stroke-width:0;stroke-linecap:round;stroke-dasharray:none;stroke-dashoffset:0;stroke-opacity:0;paint-order:fill markers stroke"
       d="m 98.541016,460.01367 c 4.137374,5.17188 8.274724,10.34376 12.412104,15.51563 -0.23161,7.67841 -0.46497,15.35676 -0.69726,23.03515 5.4388,8.94076 10.8776,17.88151 16.31641,26.82227 15.58268,-23.60873 31.16536,-47.21745 46.74804,-70.82617 -6.7363,-1.3836 -13.47282,-2.76612 -20.20898,-4.15039 -3.02959,-2.93657 -6.05996,-5.87234 -9.08985,-8.8086 -15.16015,6.13737 -30.32031,12.27474 -45.480464,18.41211 z" /></g><g
     inkscape:groupmode="layer"
     id="layer17"
     inkscape:label="Active3"
     transform="translate(0,0.11887)"><path
       id="path76"
       style="fill:#e3a395;fill-opacity:1;stroke:#404040;stroke-width:0;stroke-linecap:round;stroke-dasharray:none;stroke-dashoffset:0;stroke-opacity:0;paint-order:fill markers stroke"
       d="m 5.2851562,468.09375 c 9.6829428,18.10352 19.3658858,36.20703 29.0488278,54.31055 16.288412,5.14388 32.576823,10.28776 48.865235,15.43164 6.273437,-5.73828 12.546875,-11.47656 18.820311,-17.21485 0.43099,-14.17903 0.86198,-28.35807 1.29297,-42.53711 -4.486979,-5.60742 -8.973958,-11.21484 -13.460938,-16.82226 -9.145182,-5.81511 -18.290364,-11.63021 -27.435546,-17.44531 -19.04362,8.09244 -38.08724,16.18489 -57.1308598,24.27734 z" /><path
       id="path81"
       style="fill:#e3a395;fill-opacity:1;stroke:#404040;stroke-width:0;stroke-linecap:round;stroke-dasharray:none;stroke-dashoffset:0;stroke-opacity:0;paint-order:fill markers stroke"
       d="m 280.86914,463.21484 c -11.1888,9.01563 -22.3776,18.03125 -33.56641,27.04688 26.64584,11.54818 53.29167,23.09635 79.9375,34.64453 11.41862,-18.71289 22.83724,-37.42578 34.25586,-56.13867 -12.55859,-5.9375 -25.11718,-11.875 -37.67578,-17.8125 -14.31705,4.08659 -28.63411,8.17318 -42.95117,12.25976 z" /><path
       id="path85"
       style="fill:#e3a395;fill-opacity:1;stroke:#404040;stroke-width:0;stroke-linecap:round;stroke-dasharray:none;stroke-dashoffset:0;stroke-opacity:0;paint-order:fill markers stroke"
       d="m 131.69336,531.3457 c 20.47917,13.28386 40.95833,26.56771 61.4375,39.85157 3.69531,-6.75391 7.39062,-13.50782 11.08594,-20.26172 2.2181,-12.33789 4.43619,-24.67578 6.65429,-37.01367 -18.76041,-5.75652 -37.52083,-11.51303 -56.28125,-17.26954 -7.63216,11.56446 -15.26432,23.12891 -22.89648,34.69336 z" /></g><g
     inkscape:groupmode="layer"
     id="layer11"
     inkscape:label="Synergy1"
     transform="translate(0,0.11887)"><path
       id="path63"
       style="fill:#85b8e4;fill-opacity:1;stroke:#404040;stroke-width:0;stroke-linecap:round;stroke-dasharray:none;stroke-dashoffset:0;stroke-opacity:0;paint-order:fill markers stroke"
       d="m 87.273438,345.51172 c 0.97468,2.99151 1.949538,5.98297 2.923828,8.97461 -6.987,-3.76419 -13.97533,-7.52592 -20.962891,-11.28906 1.863281,9.13411 3.726563,18.26822 5.589844,27.40234 16.017578,-9.55404 32.035161,-19.10807 48.052731,-28.66211 -15.13346,-8.8418 -30.266924,-17.68359 -45.400388,-26.52539 3.265625,10.0332 6.531251,20.06641 9.796876,30.09961 z" /><path
       id="path65"
       style="fill:#85b8e4;fill-opacity:1;stroke:#404040;stroke-width:0;stroke-linecap:round;stroke-dasharray:none;stroke-dashoffset:0;stroke-opacity:0;paint-order:fill markers stroke"
       d="m 150.53516,324.71289 c 4.09747,11.78848 8.19643,23.57643 12.29296,35.36523 -2.70765,1.35162 -5.41398,2.70589 -8.12109,4.0586 13.9681,-2.58138 27.9362,-5.16276 41.9043,-7.74414 -8.83659,-16.7793 -17.67318,-33.5586 -26.50977,-50.33789 -6.52213,6.2194 -13.04427,12.4388 -19.5664,18.6582 z" /><path
       id="path69"
       style="fill:#85b8e4;fill-opacity:1;stroke:#404040;stroke-width:0;stroke-linecap:round;stroke-dasharray:none;stroke-dashoffset:0;stroke-opacity:0;paint-order:fill markers stroke"
       d="m 302.0918,377.35547 c 0.0169,6.29427 0.0339,12.58854 0.0508,18.88281 12.09896,5.63867 24.19791,11.27735 36.29687,16.91602 11.86328,-17.85743 23.72657,-35.71485 35.58985,-53.57227 -23.97917,5.92448 -47.95834,11.84896 -71.9375,17.77344 z" /><path
       id="path71"
       style="fill:#85b8e4;fill-opacity:1;stroke:#404040;stroke-width:0;stroke-linecap:round;stroke-dasharray:none;stroke-dashoffset:0;stroke-opacity:0;paint-order:fill markers stroke"
       d="m 208.19141,450.10352 c 9.81325,-6.04932 19.62567,-12.09998 29.43945,-18.14844 13.9833,7.92342 27.96611,15.84772 41.94922,23.77148 12.01823,-3.43034 24.03646,-6.86067 36.05469,-10.29101 -14.03907,-10.153 -28.07813,-20.30599 -42.11719,-30.45899 -21.29688,-1.05989 -42.59375,-2.11979 -63.89063,-3.17968 -0.47851,12.76888 -0.95703,25.53776 -1.43554,38.30664 z" /><path
       id="path75"
       style="fill:#85b8e4;fill-opacity:1;stroke:#404040;stroke-width:0;stroke-linecap:round;stroke-dasharray:none;stroke-dashoffset:0;stroke-opacity:0;paint-order:fill markers stroke"
       d="m 3.7792969,383.48047 c 0,25.67904 0,51.35807 0,77.03711 C 20.742839,453.3099 37.70638,446.10221 54.669922,438.89453 46.251156,433.5445 37.833565,428.19262 29.414062,422.84375 28.577349,403.7694 27.733854,384.69533 26.894531,365.62109 19.189453,371.57422 11.484375,377.52734 3.7792969,383.48047 Z" /></g><g
     inkscape:groupmode="layer"
     id="layer14"
     inkscape:label="Synergy4"
     transform="translate(0,0.11887)"><path
       id="path64"
       style="fill:#acd0ef;fill-opacity:1;stroke:#404040;stroke-width:0;stroke-linecap:round;stroke-dasharray:none;stroke-dashoffset:0;stroke-opacity:0;paint-order:fill markers stroke"
       d="m 74.363281,379.67188 c -1.240682,1.15465 -3.134633,0.81419 -4.469947,0.0218 -11.834888,-5.20259 -23.669775,-10.40519 -35.504662,-15.60778 0.74414,16.88086 1.488281,33.76172 2.232422,50.64258 37.871745,-18.93555 75.743486,-37.8711 113.615236,-56.80664 -6.63737,-3.87696 -13.27474,-7.75391 -19.91211,-11.63086 -18.65365,11.12695 -37.307293,22.2539 -55.960939,33.38086 z" /><path
       id="path67"
       style="fill:#acd0ef;fill-opacity:1;stroke:#404040;stroke-width:0;stroke-linecap:round;stroke-dasharray:none;stroke-dashoffset:0;stroke-opacity:0;paint-order:fill markers stroke"
       d="m 250.65234,357.82812 c -12.78711,10.58204 -25.57422,21.16407 -38.36132,31.7461 -0.66732,4.89779 -1.33464,9.79557 -2.00196,14.69336 28.10873,1.39844 56.21745,2.79687 84.32617,4.19531 -0.0592,-22.23242 -0.11849,-44.46484 -0.17773,-66.69727 -14.59505,5.35417 -29.1901,10.70834 -43.78516,16.0625 z" /></g><g
     inkscape:groupmode="layer"
     id="layer12"
     inkscape:label="Synergy2"
     transform="translate(0,0.11887)"><path
       id="path62"
       style="fill:#94c4ed;fill-opacity:1;stroke:#404040;stroke-width:0;stroke-linecap:round;stroke-dasharray:none;stroke-dashoffset:0;stroke-opacity:0;paint-order:fill markers stroke"
       d="M 3.7792969,373.93555 C 12.456772,367.22818 21.136332,360.52351 29.8125,353.81445 42.217135,359.2642 54.621038,364.71562 67.025391,370.16602 64.871094,359.62044 62.716797,349.07487 60.5625,338.5293 41.634766,328.33724 22.707031,318.14518 3.7792969,307.95312 c 0,21.99415 0,43.98829 0,65.98243 z" /><path
       id="path70"
       style="fill:#acd0ef;fill-opacity:1;stroke:#404040;stroke-width:0;stroke-linecap:round;stroke-dasharray:none;stroke-dashoffset:0;stroke-opacity:0;paint-order:fill markers stroke"
       d="m 343.04492,419.88086 c -4.55664,8.44596 -9.11328,16.89193 -13.66992,25.33789 12.47852,5.90039 24.95703,11.80078 37.43555,17.70117 11.36849,-6.08463 22.73698,-12.16927 34.10547,-18.2539 0,-23.49545 0,-46.99089 0,-70.48633 -5.85873,-4.98698 -11.71745,-9.97396 -17.57618,-14.96094 -13.43164,20.2207 -26.86328,40.44141 -40.29492,60.66211 z" /><path
       id="path72"
       style="fill:#94c4ed;fill-opacity:1;stroke:#404040;stroke-width:0;stroke-linecap:round;stroke-dasharray:none;stroke-dashoffset:0;stroke-opacity:0;paint-order:fill markers stroke"
       d="m 302.18555,412.38281 c 0.15511,1.34995 -0.11852,3.02537 -1.51913,3.61894 -1.2132,0.59347 -2.57182,0.0705 -3.85214,0.13799 -3.14512,-0.15726 -6.29025,-0.31452 -9.43537,-0.47177 11.83268,8.55729 23.66536,17.11458 35.49804,25.67187 3.89258,-7.21744 7.78516,-14.43489 11.67774,-21.65234 -10.79623,-5.03125 -21.59245,-10.0625 -32.38867,-15.09375 0.007,2.59635 0.013,5.19271 0.0195,7.78906 z" /><path
       id="path73"
       style="fill:#94c4ed;fill-opacity:1;stroke:#404040;stroke-width:0;stroke-linecap:round;stroke-dasharray:none;stroke-dashoffset:0;stroke-opacity:0;paint-order:fill markers stroke"
       d="m 130.32617,376.32422 c -9.41081,4.70573 -18.82161,9.41146 -28.23242,14.11719 18.23242,17.66927 36.46484,35.33854 54.69727,53.00781 14.58072,2.99544 29.16145,5.99088 43.74218,8.98633 0.54102,-14.44662 1.08203,-28.89323 1.62305,-43.33985 -10.70768,-13.36914 -21.41536,-26.73828 -32.12305,-40.10742 -13.23567,2.44531 -26.47135,4.89063 -39.70703,7.33594 z" /></g><g
     inkscape:groupmode="layer"
     id="layer13"
     inkscape:label="Synergy3"
     transform="translate(0,0.11887)"><path
       id="path66"
       style="fill:#74a4ce;fill-opacity:1;stroke:#404040;stroke-width:0;stroke-linecap:round;stroke-dasharray:none;stroke-dashoffset:0;stroke-opacity:0;paint-order:fill markers stroke"
       d="m 205.98633,360.23633 c -0.24433,1.73258 -2.02728,2.73692 -3.65175,2.78243 -7.95658,1.47031 -15.91316,2.94062 -23.86974,4.41093 8.32292,10.39127 16.64584,20.78255 24.96875,31.17383 0.58916,-4.32423 1.17864,-8.64841 1.76758,-12.97266 13.45804,-11.13355 26.9139,-22.26974 40.3711,-33.4043 2.56901,-6.75325 5.13802,-13.50651 7.70703,-20.25976 -12.14649,0 -24.29297,0 -36.43946,0 -3.61783,9.42317 -7.23567,18.84635 -10.85351,28.26953 z" /><path
       id="path68"
       style="fill:#74a4ce;fill-opacity:1;stroke:#404040;stroke-width:0;stroke-linecap:round;stroke-dasharray:none;stroke-dashoffset:0;stroke-opacity:0;paint-order:fill markers stroke"
       d="m 385.39453,331.12305 c -1.14011,1.18159 -2.90727,0.90076 -4.34136,0.55846 -15.13209,-2.62913 -30.26381,-5.2599 -45.39497,-7.8944 -4.62438,2.65441 -9.21289,5.37769 -13.88086,7.95117 -6.5957,2.41862 -13.1914,4.83724 -19.78711,7.25586 0.028,10.19336 0.056,20.38672 0.084,30.58008 27.14898,-6.71005 54.29879,-13.4168 81.44726,-20.12891 5.79726,4.93728 11.59651,9.87222 17.39454,14.8086 0,-14.85743 0,-29.71485 0,-44.57227 -5.17383,3.8138 -10.34766,7.6276 -15.52149,11.44141 z" /><path
       id="path74"
       style="fill:#74a4ce;fill-opacity:1;stroke:#404040;stroke-width:0;stroke-linecap:round;stroke-dasharray:none;stroke-dashoffset:0;stroke-opacity:0;paint-order:fill markers stroke"
       d="m 40.767578,421.10352 c 17.34375,11.02669 34.6875,22.05338 52.03125,33.08007 15.130862,-6.1276 30.261722,-12.2552 45.392582,-18.38281 -14.04232,-14.11458 -28.08464,-28.22917 -42.126957,-42.34375 -18.432292,9.2155 -36.864583,18.43099 -55.296875,27.64649 z" /></g><g
     inkscape:groupmode="layer"
     id="layer7"
     inkscape:label="Bodymod1"
     transform="translate(0,0.11887)"><path
       id="path47"
       style="fill:#9fc88c;fill-opacity:1;stroke:#404040;stroke-width:0;stroke-linecap:round;stroke-dasharray:none;stroke-dashoffset:0;stroke-opacity:0;paint-order:fill markers stroke"
       d="m 175.81836,204.56836 c 6.88086,17.4056 13.76172,34.8112 20.64258,52.2168 17.92057,-9.35417 35.84114,-18.70834 53.76172,-28.0625 -15.52019,-12.82227 -31.04037,-25.64453 -46.56055,-38.4668 -9.28125,4.77083 -18.5625,9.54167 -27.84375,14.3125 z" /><path
       id="path55"
       style="fill:#9fc88c;fill-opacity:1;stroke:#404040;stroke-width:0;stroke-linecap:round;stroke-dasharray:none;stroke-dashoffset:0;stroke-opacity:0;paint-order:fill markers stroke"
       d="m 62.181641,268.44336 c 3.697916,11.35677 7.395833,22.71354 11.09375,34.07031 26.233724,-7.45768 52.467449,-14.91536 78.701169,-22.37305 -21.99153,-13.24804 -43.98307,-26.49609 -65.974607,-39.74414 -7.940104,9.34896 -15.880208,18.69792 -23.820312,28.04688 z" /><path
       id="path59"
       style="fill:#9fc88c;fill-opacity:1;stroke:#404040;stroke-width:0;stroke-linecap:round;stroke-dasharray:none;stroke-dashoffset:0;stroke-opacity:0;paint-order:fill markers stroke"
       d="m 219.74023,324.4082 c 12.13868,0 24.27735,0 36.41602,0 4.75716,-12.49479 9.51432,-24.98958 14.27148,-37.48437 -12.02408,-0.19336 -24.04817,-0.38672 -36.07226,-0.58008 -4.87175,12.68815 -9.74349,25.3763 -14.61524,38.06445 z" /></g><g
     inkscape:groupmode="layer"
     id="layer8"
     inkscape:label="Bodymod2"
     transform="translate(0,0.11887)"><path
       id="path48"
       style="fill:#a6d68e;fill-opacity:1;stroke:#404040;stroke-width:0;stroke-linecap:round;stroke-dasharray:none;stroke-dashoffset:0;stroke-opacity:0;paint-order:fill markers stroke"
       d="m 260.39062,226.41406 c 21.62956,5.70573 43.25912,11.41146 64.88868,17.11719 -6.92774,-15.44987 -13.85547,-30.89974 -20.78321,-46.34961 -16.61523,-2.88021 -33.23046,-5.76042 -49.8457,-8.64062 1.91341,12.62434 3.82682,25.24869 5.74023,37.87304 z" /><path
       id="path50"
       style="fill:#a6d68e;fill-opacity:1;stroke:#404040;stroke-width:0;stroke-linecap:round;stroke-dasharray:none;stroke-dashoffset:0;stroke-opacity:0;paint-order:fill markers stroke"
       d="m 281.94141,283.98047 c 13.05403,13.15885 26.10807,26.31771 39.16211,39.47656 25.02799,-14.45247 50.05599,-28.90495 75.08398,-43.35742 -21.29818,-8.88672 -42.59635,-17.77344 -63.89453,-26.66016 -16.78386,10.18034 -33.56771,20.36068 -50.35156,30.54102 z" /><path
       id="path52"
       style="fill:#a6d68e;fill-opacity:1;stroke:#404040;stroke-width:0;stroke-linecap:round;stroke-dasharray:none;stroke-dashoffset:0;stroke-opacity:0;paint-order:fill markers stroke"
       d="m 116.98438,216.14453 c -14.14787,0.1163 -28.303724,0.0394 -42.454692,0.0586 -4.675261,0 -9.350521,10e-6 -14.025782,0 33.639323,20.26563 67.278644,40.53125 100.917974,60.79688 9.45377,-5.51562 18.90755,-11.03125 28.36132,-16.54688 -7.04036,-17.80924 -14.08073,-35.61848 -21.12109,-53.42773 -17.22591,3.03971 -34.45182,6.07943 -51.67773,9.11914 z" /><path
       id="path54"
       style="fill:#a6d68e;fill-opacity:1;stroke:#404040;stroke-width:0;stroke-linecap:round;stroke-dasharray:none;stroke-dashoffset:0;stroke-opacity:0;paint-order:fill markers stroke"
       d="m 3.7792969,299.36914 c 24.4622391,13.17188 48.9244791,26.34375 73.3867191,39.51563 -7.375651,-22.65625 -14.751302,-45.3125 -22.126954,-67.96875 -17.086588,-3.11849 -34.173177,-6.23698 -51.2597651,-9.35547 0,12.60286 0,25.20573 0,37.80859 z" /><path
       id="path57"
       style="fill:#a6d68e;fill-opacity:1;stroke:#404040;stroke-width:0;stroke-linecap:round;stroke-dasharray:none;stroke-dashoffset:0;stroke-opacity:0;paint-order:fill markers stroke"
       d="m 201.80859,350.03516 c 8.16732,-21.27344 16.33464,-42.54688 24.50196,-63.82032 -19.53581,-0.3138 -39.07162,-0.6276 -58.60743,-0.9414 11.36849,21.58724 22.73698,43.17448 34.10547,64.76172 z" /></g><g
     inkscape:groupmode="layer"
     id="layer9"
     inkscape:label="Bodymod3"
     transform="translate(0,0.11887)"><path
       id="path53"
       style="fill:#b2e09d;fill-opacity:1;stroke:#404040;stroke-width:0;stroke-linecap:round;stroke-dasharray:none;stroke-dashoffset:0;stroke-opacity:0;paint-order:fill markers stroke"
       d="m 3.7792969,253.87305 c 17.5611981,3.20442 35.1223961,6.40885 52.6835941,9.61328 7.656901,-9.01498 15.313802,-18.02995 22.970703,-27.04492 -11.196615,-6.7461 -22.393229,-13.49219 -33.589844,-20.23829 -14.021484,0 -28.042969,10e-6 -42.0644531,0 0,12.55665 0,25.11329 0,37.66993 z" /><path
       id="path51"
       style="fill:#b2e09d;fill-opacity:1;stroke:#404040;stroke-width:0;stroke-linecap:round;stroke-dasharray:none;stroke-dashoffset:0;stroke-opacity:0;paint-order:fill markers stroke"
       d="m 196.26172,265.42773 c -7.09089,4.13245 -14.17951,8.26992 -21.26953,12.4043 33.28255,0.53451 66.5651,1.06901 99.84765,1.60352 15.85026,-9.61459 31.70052,-19.22917 47.55078,-28.84375 -21.63802,-5.70769 -43.27604,-11.41537 -64.91406,-17.12305 -20.40495,10.65299 -40.80989,21.30599 -61.21484,31.95898 z" /><path
       id="path56"
       style="fill:#b2e09d;fill-opacity:1;stroke:#404040;stroke-width:0;stroke-linecap:round;stroke-dasharray:none;stroke-dashoffset:0;stroke-opacity:0;paint-order:fill markers stroke"
       d="m 80.367188,308.34961 c 23.625652,13.80143 47.251302,27.60286 70.876952,41.4043 -6.49023,-18.67253 -12.98047,-37.34506 -19.4707,-56.01758 -17.13542,4.87109 -34.270836,9.74219 -51.406252,14.61328 z" /><path
       id="path61"
       style="fill:#b2e09d;fill-opacity:1;stroke:#404040;stroke-width:0;stroke-linecap:round;stroke-dasharray:none;stroke-dashoffset:0;stroke-opacity:0;paint-order:fill markers stroke"
       d="m 345.87891,317.88672 c 12.0638,2.09961 24.1276,4.19922 36.1914,6.29883 6.2819,-4.63216 12.5638,-9.26433 18.84571,-13.89649 0,-8.0612 0,-16.12239 0,-24.18359 -18.34571,10.59375 -36.69141,21.1875 -55.03711,31.78125 z" /></g><g
     inkscape:groupmode="layer"
     id="layer10"
     inkscape:label="Bodymod4"
     transform="translate(0,0.11887)"><path
       id="path49"
       style="fill:#90b57f;fill-opacity:1;stroke:#404040;stroke-width:0;stroke-linecap:round;stroke-dasharray:none;stroke-dashoffset:0;stroke-opacity:0;paint-order:fill markers stroke"
       d="m 331.67383,200.91797 c -1.28294,0.96868 -2.92598,0.47755 -4.35224,0.2176 -4.61432,-0.78591 -9.22449,-1.59901 -13.83721,-2.39534 7.10937,15.85417 14.21874,31.70834 21.32812,47.5625 22.03451,9.19336 44.06901,18.38672 66.10352,27.58008 0,-20.01758 0,-40.03515 0,-60.05273 -10.22201,-11.87695 -20.44401,-23.75391 -30.66602,-35.63086 -12.85872,7.57292 -25.71745,15.14583 -38.57617,22.71875 z" /><path
       id="path58"
       style="fill:#90b57f;fill-opacity:1;stroke:#404040;stroke-width:0;stroke-linecap:round;stroke-dasharray:none;stroke-dashoffset:0;stroke-opacity:0;paint-order:fill markers stroke"
       d="m 255.23047,348.0957 c 19.47135,-7.14388 38.94271,-14.28776 58.41406,-21.43164 -12.10677,-12.20247 -24.21354,-24.40495 -36.32031,-36.60742 -7.36458,19.34635 -14.72917,38.69271 -22.09375,58.03906 z" /><path
       id="path60"
       style="fill:#90b57f;fill-opacity:1;stroke:#404040;stroke-width:0;stroke-linecap:round;stroke-dasharray:none;stroke-dashoffset:0;stroke-opacity:0;paint-order:fill markers stroke"
       d="m 139.05078,291.66797 c 2.91992,8.40039 5.83985,16.80078 8.75977,25.20117 6.20963,-5.92122 12.41927,-11.84245 18.6289,-17.76367 -2.32487,-4.41341 -4.64974,-8.82682 -6.97461,-13.24024 -6.80468,1.93425 -13.60937,3.86849 -20.41406,5.80274 z" /></g><g
     inkscape:label="Passive1"
     inkscape:groupmode="layer"
     id="layer1"
     transform="translate(83.28501,206.63068)"><path
       id="path3"
       style="fill:#e2b584;fill-opacity:1;stroke:#404040;stroke-width:0;stroke-linecap:round;stroke-dasharray:none;stroke-dashoffset:0;stroke-opacity:0;paint-order:fill markers stroke"
       d="m 99.478516,-83.199219 c 6.974604,6.539714 13.949214,13.079427 20.923824,19.619141 5.5586,-9.809245 11.11719,-19.61849 16.67578,-29.427734 -12.5332,3.269531 -25.0664,6.539062 -37.599604,9.808593 z" /><path
       id="path5"
       style="fill:#e2b584;fill-opacity:1;stroke:#404040;stroke-width:0;stroke-linecap:round;stroke-dasharray:none;stroke-dashoffset:0;stroke-opacity:0;paint-order:fill markers stroke"
       d="M 38.580078,1.0957031 C 52.744141,-1.4029948 66.908203,-3.9016927 81.072266,-6.4003906 71.789714,-18.898437 62.507161,-31.396484 53.224609,-43.894531 c -4.88151,14.996745 -9.76302,29.993489 -14.644531,44.9902341 z" /><path
       id="path12"
       style="fill:#e2b584;fill-opacity:1;stroke:#404040;stroke-width:0;stroke-linecap:round;stroke-dasharray:none;stroke-dashoffset:0;stroke-opacity:0;paint-order:fill markers stroke"
       d="m -75.416016,-120.25391 c 22.061198,16.61394 44.122396,33.227868 66.1835941,49.841801 12.5507813,-13.360677 25.1015629,-26.721355 37.6523439,-40.082031 -13.412761,-10.84831 -26.825521,-21.69662 -40.238281,-32.54492 -21.199219,7.59505 -42.398438,15.1901 -63.597657,22.78515 z" /><path
       id="path16"
       style="fill:#e2b584;fill-opacity:1;stroke:#404040;stroke-width:0;stroke-linecap:round;stroke-dasharray:none;stroke-dashoffset:0;stroke-opacity:0;paint-order:fill markers stroke"
       d="m 64.089844,-186.01953 c 18.002417,3.94326 36.015066,7.84499 54.005976,11.83721 11.07288,3.30687 22.14575,6.61373 33.21863,9.9206 15.9987,-12.82357 31.9974,-25.64713 47.9961,-38.4707 -49.68164,0 -99.363284,0 -149.044925,0 4.608073,5.57096 9.216146,11.14193 13.824219,16.71289 z" /><path
       id="path17"
       style="fill:#e2b584;fill-opacity:1;stroke:#404040;stroke-width:0;stroke-linecap:round;stroke-dasharray:none;stroke-dashoffset:0;stroke-opacity:0;paint-order:fill markers stroke"
       d="m 99.162109,-148.13477 c 16.207881,15.62154 32.414171,31.24474 48.623051,46.86524 6.40818,11.142032 12.81923,22.282425 19.22851,33.423827 7.54883,6.111328 15.09766,12.222656 22.64649,18.333984 0.77083,-14.888021 1.54166,-29.776041 2.3125,-44.664062 -14.07422,-20.887369 -28.14844,-41.774739 -42.22266,-62.662109 -10.6569,-3.18359 -21.3138,-6.36719 -31.9707,-9.55078 -6.20573,6.08463 -12.41146,12.16927 -18.617191,18.2539 z" /><path
       id="path21"
       style="fill:#e2b584;fill-opacity:1;stroke:#404040;stroke-width:0;stroke-linecap:round;stroke-dasharray:none;stroke-dashoffset:0;stroke-opacity:0;paint-order:fill markers stroke"
       d="m 239.85156,-95.779297 c 25.92643,10.278646 51.85287,20.557292 77.7793,30.835938 0,-29.798177 0,-59.596351 0,-89.394531 -14.16341,-1.3457 -28.32682,-2.69141 -42.49024,-4.03711 -11.76302,20.86523 -23.52604,41.73047 -35.28906,62.595703 z" /><path
       id="path23"
       style="fill:#e2b584;fill-opacity:1;stroke:#404040;stroke-width:0;stroke-linecap:round;stroke-dasharray:none;stroke-dashoffset:0;stroke-opacity:0;paint-order:fill markers stroke"
       d="m 130.89453,-17.369141 c 12.54167,10.3600264 25.08333,20.7200525 37.625,31.080079 -1.63542,-10.7968755 -3.27083,-21.5937505 -4.90625,-32.390626 -10.90625,0.436849 -21.8125,0.873698 -32.71875,1.310547 z" /><path
       id="path24"
       style="fill:#e2b584;fill-opacity:1;stroke:#404040;stroke-width:0;stroke-linecap:round;stroke-dasharray:none;stroke-dashoffset:0;stroke-opacity:0;paint-order:fill markers stroke"
       d="m 242.65234,-44.695312 c 2.11394,9.990234 4.22787,19.980468 6.3418,29.970703 13.19212,-7.767478 26.38376,-15.535768 39.57617,-23.302735 9.68857,11.250471 19.37342,22.504151 29.06055,33.7558596 0,-16.9231766 0,-33.8463546 0,-50.7695316 -24.99284,3.448568 -49.98568,6.897136 -74.97852,10.345704 z" /></g><g
     inkscape:groupmode="layer"
     id="layer3"
     inkscape:label="Passive2"
     transform="translate(0,0.11887)"><path
       id="path1"
       style="fill:#e2bf97;fill-opacity:1;stroke:#404040;stroke-width:0;stroke-linecap:round;stroke-opacity:0;paint-order:fill markers stroke"
       d="m 140.35352,155.11133 c 10.60481,14.27669 21.20963,28.55338 31.81445,42.83008 9.41016,-4.83724 18.82031,-9.67448 28.23047,-14.51172 0.13541,-10.94662 0.27083,-21.89323 0.40625,-32.83985 -8.59375,-8.05729 -17.1875,-16.11458 -25.78125,-24.17187 -11.55664,9.56445 -23.11328,19.12891 -34.66992,28.69336 z" /><path
       id="path7"
       style="fill:#e2bf97;fill-opacity:1;stroke:#404040;stroke-width:0;stroke-linecap:round;stroke-dasharray:none;stroke-dashoffset:0;stroke-opacity:0;paint-order:fill markers stroke"
       d="m 125.29297,95.080078 c 16.73698,7.438152 33.47396,14.876302 50.21094,22.314452 15.02604,-3.91992 30.05208,-7.83984 45.07812,-11.75976 -14.6862,-14.156905 -29.37239,-28.313806 -44.05859,-42.470708 -17.07683,10.638672 -34.15365,21.277344 -51.23047,31.916016 z" /><path
       id="path8"
       style="fill:#e2bf97;fill-opacity:1;stroke:#404040;stroke-width:0;stroke-linecap:round;stroke-dasharray:none;stroke-dashoffset:0;stroke-opacity:0;paint-order:fill markers stroke"
       d="m 81.798828,138.89453 c 15.961589,3.50716 31.923182,7.01432 47.884762,10.52149 -4.71549,-15.47787 -9.43099,-30.95573 -14.14648,-46.4336 -11.24609,11.9707 -22.492188,23.94141 -33.738282,35.91211 z" /><path
       id="path18"
       style="fill:#e2bf97;fill-opacity:1;stroke:#404040;stroke-width:0;stroke-linecap:round;stroke-dasharray:none;stroke-dashoffset:0;stroke-opacity:0;paint-order:fill markers stroke"
       d="m 240.48828,47.212891 c 13.55469,20.115885 27.10938,40.23177 40.66406,60.347659 11.46745,0.40885 22.9349,0.81771 34.40235,1.22656 11.93685,-21.173829 23.8737,-42.347657 35.81054,-63.521485 C 332.07682,31.749349 312.78841,18.233073 293.5,4.7167969 275.82943,18.882161 258.15885,33.047526 240.48828,47.212891 Z" /><path
       id="path19"
       style="fill:#e2bf97;fill-opacity:1;stroke:#404040;stroke-width:0;stroke-linecap:round;stroke-dasharray:none;stroke-dashoffset:0;stroke-opacity:0;paint-order:fill markers stroke"
       d="m 253.70703,180.70117 c 23.70378,4.10938 47.40755,8.21875 71.11133,12.32813 -2.13086,-10.06446 -4.26172,-20.12891 -6.39258,-30.19336 -14.401,1.91049 -28.80235,3.81827 -43.20312,5.73047 -7.84088,-6.348 -15.68234,-12.69526 -23.52344,-19.04297 0.66927,10.39258 1.33854,20.78515 2.00781,31.17773 z" /><path
       id="path11"
       style="fill:#e2bf97;fill-opacity:1;stroke:#404040;stroke-width:0;stroke-linecap:round;stroke-dasharray:none;stroke-dashoffset:0;stroke-opacity:0;paint-order:fill markers stroke"
       d="m 3.7792969,142.21484 c 10.7100211,-1.7646 21.4083861,-3.62748 32.1308591,-5.29687 9.031901,0.10807 18.063802,0.21614 27.095703,0.32422 C 43.263672,122.37435 23.521484,107.50651 3.7792969,92.638672 c 0,16.525388 0,33.050778 0,49.576168 z" /></g><g
     inkscape:groupmode="layer"
     id="layer4"
     inkscape:label="Passive3"
     transform="translate(0,0.11887)"><path
       id="path9"
       style="fill:#d0aa7e;fill-opacity:1;stroke:#404040;stroke-width:0;stroke-linecap:round;stroke-dasharray:none;stroke-dashoffset:0;stroke-opacity:0;paint-order:fill markers stroke"
       d="m 60.275391,179.71875 c 17.942057,9.11263 35.884114,18.22526 53.826169,27.33789 5.39909,-16.59049 10.79818,-33.18099 16.19727,-49.77148 -18.74675,-4.11849 -37.493491,-8.23698 -56.240236,-12.35547 -10.64974,-0.12565 -21.299479,-0.2513 -31.949219,-0.37696 6.055339,11.72201 12.110677,23.44401 18.166016,35.16602 z" /><path
       id="path13"
       style="fill:#d0aa7e;fill-opacity:1;stroke:#404040;stroke-width:0;stroke-linecap:round;stroke-dasharray:none;stroke-dashoffset:0;stroke-opacity:0;paint-order:fill markers stroke"
       d="M 3.8085938,79.683594 C 24.095703,72.414714 44.382812,65.145833 64.669922,57.876953 44.514323,41.208984 24.358724,24.541016 4.203125,7.8730469 4.0716146,31.809896 3.9401042,55.746745 3.8085938,79.683594 Z" /><path
       id="path15"
       style="fill:#d0aa7e;fill-opacity:1;stroke:#404040;stroke-width:0;stroke-linecap:round;stroke-dasharray:none;stroke-dashoffset:0;stroke-opacity:0;paint-order:fill markers stroke"
       d="m 100.06055,77.087891 c 5.81705,4.641927 11.63411,9.283854 17.45117,13.925781 19.05143,-11.869141 38.10286,-23.738281 57.1543,-35.607422 5.89908,-5.781901 11.79817,-11.563802 17.69726,-17.345703 -15.26367,-3.334636 -30.52734,-6.669271 -45.79101,-10.003906 -15.50391,16.34375 -31.00782,32.6875 -46.51172,49.03125 z" /><path
       id="path20"
       style="fill:#d0aa7e;fill-opacity:1;stroke:#404040;stroke-width:0;stroke-linecap:round;stroke-dasharray:none;stroke-dashoffset:0;stroke-opacity:0;paint-order:fill markers stroke"
       d="m 280.34375,160.26172 c 25.14751,-3.31043 50.29029,-6.67852 75.41347,-10.18946 11.39668,-1.57291 22.79336,-3.14583 34.19005,-4.71874 -24.3405,-9.64974 -48.68099,-19.29948 -73.02149,-28.94922 -11.41667,-0.4069 -22.83333,-0.81381 -34.25,-1.22071 -0.77734,15.02605 -1.55469,30.05209 -2.33203,45.07813 z" /><path
       id="path22"
       style="fill:#d0aa7e;fill-opacity:1;stroke:#404040;stroke-width:0;stroke-linecap:round;stroke-dasharray:none;stroke-dashoffset:0;stroke-opacity:0;paint-order:fill markers stroke"
       d="m 357.6875,40.472656 c 14.40951,1.370443 28.81901,2.740886 43.22852,4.111328 0,-13.601562 0,-27.203125 0,-40.8046871 -31.86394,0 -63.72787,0 -95.5918,0 17.45443,12.2311201 34.90885,24.4622391 52.36328,36.6933591 z" /></g><g
     inkscape:groupmode="layer"
     id="layer6"
     inkscape:label="Passive4"
     transform="translate(0,0.11887)"><path
       id="path4"
       style="fill:#d6b186;fill-opacity:1;stroke:#404040;stroke-width:0;stroke-linecap:round;stroke-dasharray:none;stroke-dashoffset:0;stroke-opacity:0;paint-order:fill markers stroke"
       d="m 208.375,149.98633 c -0.13281,10.61068 -0.26562,21.22135 -0.39844,31.83203 12.70899,-0.50912 25.41797,-1.01823 38.12696,-1.52734 -0.81641,-12.67188 -1.63282,-25.34375 -2.44922,-38.01563 -5.19076,-9.02018 -10.38151,-18.04036 -15.57227,-27.06055 -6.56901,11.5905 -13.13802,23.18099 -19.70703,34.77149 z" /><path
       id="path6"
       style="fill:#d6b186;fill-opacity:1;stroke:#404040;stroke-width:0;stroke-linecap:round;stroke-dasharray:none;stroke-dashoffset:0;stroke-opacity:0;paint-order:fill markers stroke"
       d="m 137.14258,147.96289 c 10.31055,-8.53385 20.62109,-17.06771 30.93164,-25.60156 -14.93294,-6.63672 -29.86589,-13.27344 -44.79883,-19.91016 4.6224,15.17057 9.24479,30.34115 13.86719,45.51172 z" /><path
       id="path10"
       style="fill:#d6b186;fill-opacity:1;stroke:#404040;stroke-width:0;stroke-linecap:round;stroke-dasharray:none;stroke-dashoffset:0;stroke-opacity:0;paint-order:fill markers stroke"
       d="m 3.7792969,149.87305 c 0,19.59049 0,39.18099 0,58.77148 32.2532551,0 64.5065101,0 96.7597631,0 C 85.250533,200.88174 69.962946,193.11709 54.673828,185.35547 47.706771,171.86111 40.736046,158.36863 33.767578,144.875 c -9.996094,1.66602 -19.992187,3.33203 -29.9882811,4.99805 z" /><path
       id="path14"
       style="fill:#d6b186;fill-opacity:1;stroke:#404040;stroke-width:0;stroke-linecap:round;stroke-dasharray:none;stroke-dashoffset:0;stroke-opacity:0;paint-order:fill markers stroke"
       d="M 94.166016,72.324219 C 109.52734,56.128906 124.88867,39.933594 140.25,23.738281 134.7487,17.085286 129.2474,10.432292 123.74609,3.7792969 c -37.725257,0 -75.450517,0 -113.175778,0 C 38.435547,26.627604 66.300781,49.475911 94.166016,72.324219 Z" /></g></svg>
