<?xml version="1.0" encoding="UTF-8" standalone="no"?>
<!-- Created with Inkscape (http://www.inkscape.org/) -->

<svg
   width="253.61867mm"
   height="120.13119mm"
   viewBox="0 0 253.61867 120.13119"
   version="1.1"
   id="svg1"
   inkscape:version="1.4.2 (f4327f4, 2025-05-13)"
   sodipodi:docname="CharacterInfo.svg"
   xmlns:inkscape="http://www.inkscape.org/namespaces/inkscape"
   xmlns:sodipodi="http://sodipodi.sourceforge.net/DTD/sodipodi-0.dtd"
   xmlns="http://www.w3.org/2000/svg"
   xmlns:svg="http://www.w3.org/2000/svg">
  <sodipodi:namedview
     id="namedview1"
     pagecolor="#ffffff"
     bordercolor="#000000"
     borderopacity="0.25"
     inkscape:showpageshadow="2"
     inkscape:pageopacity="0.0"
     inkscape:pagecheckerboard="0"
     inkscape:deskcolor="#d1d1d1"
     inkscape:document-units="mm"
     inkscape:zoom="0.80844904"
     inkscape:cx="169.46028"
     inkscape:cy="214.60846"
     inkscape:window-width="3840"
     inkscape:window-height="2054"
     inkscape:window-x="-11"
     inkscape:window-y="-11"
     inkscape:window-maximized="1"
     inkscape:current-layer="layer1" />
  <defs
     id="defs1" />
  <path
     id="path19"
     style="display:none;fill:#a18fd9;stroke:#212532;stroke-width:1.10229;stroke-linejoin:round;stroke-miterlimit:8.2;stroke-opacity:0.995995"
     inkscape:transform-center-x="-0.074448879"
     inkscape:transform-center-y="0.094904335"
     d="m 19.62191,56.326386 c -3.3e-4,0.68279 -4.44853,3.14227 -5.06443,2.80038 -0.61591,-0.34189 -0.6116,-5.26801 0.005,-5.60891 0.61651,-0.3409 5.06012,2.12574 5.05953,2.80853 z" />
  <g
     inkscape:label="Ebene 1"
     inkscape:groupmode="layer"
     id="layer1"
     transform="translate(-163.81343,-91.688283)"
     style="display:inline">
    <path
       id="rect2"
       style="opacity:1;fill:#081136;fill-opacity:0.745893;stroke:#0b0c1c;stroke-width:3.81395;stroke-linecap:round;stroke-linejoin:round;stroke-dasharray:none;stroke-opacity:0.999272"
       d="m 415.52513,124.17783 v 55.26444 c 0,13.63956 -21.38937,24.59277 -40.46446,24.62014 -87.29366,0.12525 -116.86884,13.10699 -168.8758,0 -17.62313,-4.44143 -40.46446,-10.98058 -40.46446,-24.62014 v -55.26444 c 0,-13.63955 21.39047,-24.4935 40.46446,-24.620143 94.06377,-0.624547 116.86883,-13.106975 168.8758,0 17.62312,4.441443 40.46446,10.980593 40.46446,24.620143 z"
       sodipodi:nodetypes="sssasssas" />
  </g>
</svg>
