<?xml version="1.0" encoding="UTF-8" standalone="no"?>
<!-- Created with Inkscape (http://www.inkscape.org/) -->

<svg
   width="21.162056mm"
   height="21.025372mm"
   viewBox="0 0 21.162056 21.025371"
   version="1.1"
   id="svg1"
   inkscape:version="1.4.2 (f4327f4, 2025-05-13)"
   sodipodi:docname="Fruit.svg"
   xmlns:inkscape="http://www.inkscape.org/namespaces/inkscape"
   xmlns:sodipodi="http://sodipodi.sourceforge.net/DTD/sodipodi-0.dtd"
   xmlns="http://www.w3.org/2000/svg"
   xmlns:svg="http://www.w3.org/2000/svg">
  <sodipodi:namedview
     id="namedview1"
     pagecolor="#ffffff"
     bordercolor="#000000"
     borderopacity="0.25"
     inkscape:showpageshadow="2"
     inkscape:pageopacity="0.0"
     inkscape:pagecheckerboard="0"
     inkscape:deskcolor="#d1d1d1"
     inkscape:document-units="mm"
     inkscape:zoom="4.5732786"
     inkscape:cx="14.650321"
     inkscape:cy="-3.6079149"
     inkscape:window-width="3840"
     inkscape:window-height="2054"
     inkscape:window-x="-11"
     inkscape:window-y="-11"
     inkscape:window-maximized="1"
     inkscape:current-layer="layer1" />
  <defs
     id="defs1" />
  <g
     inkscape:label="Ebene 1"
     inkscape:groupmode="layer"
     id="layer1"
     transform="translate(-69.530931,-84.535085)">
    <path
       id="rect1"
       style="fill:#9cb1e7;fill-opacity:1;stroke:#000000;stroke-width:0;stroke-dasharray:none;stroke-opacity:1"
       d="m 80.249967,89.837698 c 6.206479,-0.02553 7.715328,2.91681 7.662044,6.585041 -0.05328,3.668231 -4.745373,6.346601 -7.937216,6.356751 -3.191843,0.0102 -7.655012,-2.34339 -7.66204,-6.585044 -0.007,-4.241658 1.730732,-6.331217 7.937212,-6.356748 z"
       sodipodi:nodetypes="zzzzz" />
    <path
       id="rect1-1"
       style="fill:#5779d6;fill-opacity:1;stroke:#000000;stroke-width:0;stroke-dasharray:none;stroke-opacity:0"
       d="m 80.186598,91.870185 c 3.82507,-0.03183 4.848518,1.829957 4.853049,4.170882 0.0045,2.340925 -3.037547,4.082693 -5.027344,4.026293 -1.989797,-0.0564 -4.791919,-1.769974 -4.853042,-4.170894 -0.06112,-2.400921 0.990252,-4.025768 5.027337,-4.026281 z"
       sodipodi:nodetypes="czzzc" />
    <path
       d="m 81.787694,87.29489 c -0.427004,0.0055 -0.989327,0.06994 -1.34051,0.185379 -0.53561,0.17606 -0.910718,0.500857 -0.980454,0.808905 -0.106821,-0.0053 -0.227234,-0.0079 -0.362805,-0.0079 -1.527343,0 -2.276085,0.783221 -5.166772,1.463553 -0.931204,0.219163 2.000664,1.123578 3.528007,1.123578 1.088915,0 2.030847,-0.33085 2.481885,-0.811857 0.336595,0.430711 1.076753,0.729796 1.935799,0.729796 1.175974,0 3.433379,-0.778705 2.716397,-0.967382 -2.051111,-0.539764 -2.701565,-1.154747 -3.711388,-1.247896 0.332214,-0.262212 0.674747,-0.628337 1.428444,-1.1073 0.19005,-0.120773 -0.101597,-0.174328 -0.528603,-0.168849 z"
       style="fill:#a3f0c0;fill-opacity:1;stroke:#4a854b;stroke-width:0;stroke-dasharray:none"
       id="path369" />
    <path
       d="m 83.243428,102.02888 a 13.154066,6.4978731 33.225265 0 0 -6.017589,-5.124763 13.154066,6.4978731 33.225265 0 0 -4.817443,-2.284186 c -0.0668,0.487059 -0.09673,1.011955 -0.0958,1.574521 0.007,4.241658 4.47039,6.595238 7.662233,6.585088 1.004769,-0.003 2.157997,-0.27101 3.268596,-0.75066 z"
       style="fill-opacity:0.149287;stroke:#21201d;stroke-width:0;stroke-linecap:round;stroke-linejoin:round;stroke-opacity:0.696924;paint-order:fill markers stroke"
       id="path3" />
    <path
       style="fill:#000000;fill-opacity:0;stroke:#fff7e0;stroke-width:0.815666;stroke-linecap:round;stroke-linejoin:round;stroke-dasharray:none;stroke-opacity:1;paint-order:fill markers stroke"
       d="m 85.961971,94.660616 c 0,0 -0.289573,-2.262961 -2.359486,-2.895732"
       id="path4"
       sodipodi:nodetypes="cc" />
    <path
       style="fill:#000000;fill-opacity:0.149287;stroke:#fff7e0;stroke-width:0.741515;stroke-linecap:round;stroke-linejoin:round;stroke-dasharray:none;stroke-opacity:1;paint-order:fill markers stroke"
       d="m 82.358394,91.486036 -0.450448,-0.0858"
       id="path5"
       sodipodi:nodetypes="cc" />
  </g>
</svg>
