<?xml version="1.0" encoding="UTF-8" standalone="no"?>
<!-- Created with Inkscape (http://www.inkscape.org/) -->

<svg
   width="21.162056mm"
   height="21.025372mm"
   viewBox="0 0 21.162056 21.025371"
   version="1.1"
   id="svg1"
   inkscape:version="1.4.2 (f4327f4, 2025-05-13)"
   sodipodi:docname="GhostFruit.svg"
   xmlns:inkscape="http://www.inkscape.org/namespaces/inkscape"
   xmlns:sodipodi="http://sodipodi.sourceforge.net/DTD/sodipodi-0.dtd"
   xmlns="http://www.w3.org/2000/svg"
   xmlns:svg="http://www.w3.org/2000/svg">
  <sodipodi:namedview
     id="namedview1"
     pagecolor="#ffffff"
     bordercolor="#000000"
     borderopacity="0.25"
     inkscape:showpageshadow="2"
     inkscape:pageopacity="0.0"
     inkscape:pagecheckerboard="0"
     inkscape:deskcolor="#d1d1d1"
     inkscape:document-units="mm"
     inkscape:zoom="3.2337963"
     inkscape:cx="-34.015748"
     inkscape:cy="96.635648"
     inkscape:window-width="3840"
     inkscape:window-height="2054"
     inkscape:window-x="-11"
     inkscape:window-y="-11"
     inkscape:window-maximized="1"
     inkscape:current-layer="layer1" />
  <defs
     id="defs1" />
  <g
     inkscape:label="Ebene 1"
     inkscape:groupmode="layer"
     id="layer1"
     transform="translate(-69.530931,-84.535085)">
    <path
       id="rect1"
       style="fill:#d9d9d9;fill-opacity:1;stroke:#000000;stroke-width:0.119673;stroke-opacity:1"
       d="m 80.297723,88.025252 c 8.144228,-0.06776 9.027461,4.521237 10.332965,8.880529 -1.443571,5.145699 -7.211074,5.164499 -10.704059,8.572659 -3.752218,-3.38176 -9.137118,-4.28527 -10.332959,-8.880533 1.882859,-4.913636 2.108414,-8.571552 10.704053,-8.572655 z"
       sodipodi:nodetypes="ccccc" />
    <path
       id="rect1-1"
       style="fill:#adadad;fill-opacity:1;stroke:#000000;stroke-width:0.0758002;stroke-opacity:0"
       d="m 80.212265,90.766247 c 5.158455,-0.04293 5.717874,2.863687 6.544779,5.624814 -0.914343,3.259224 -4.567411,3.271134 -6.779832,5.429819 -2.376605,-2.14197 -5.78734,-2.71424 -6.54477,-5.624827 1.192581,-3.112221 1.335445,-5.429114 6.779823,-5.429806 z"
       sodipodi:nodetypes="ccccc" />
    <path
       d="m 82.371488,84.596044 c -0.575853,0.0074 -1.334197,0.09432 -1.8078,0.250001 -0.722318,0.237433 -1.228186,0.675451 -1.322231,1.090882 -0.144058,-0.0071 -0.306445,-0.01069 -0.489275,-0.01069 -2.059762,0 -3.069509,1.056244 -6.967863,1.973734 -1.255814,0.295562 2.698077,1.515248 4.757838,1.515248 1.468501,0 2.738783,-0.446182 3.347049,-1.094864 0.453929,0.580854 1.452099,0.984197 2.610601,0.984197 1.585908,0 4.630225,-1.050155 3.663309,-1.304603 -2.76611,-0.727921 -3.643307,-1.557282 -5.005145,-1.682901 0.448021,-0.353617 0.909958,-0.84737 1.926387,-1.493295 0.2563,-0.162874 -0.137013,-0.235098 -0.71287,-0.227709 z"
       style="fill:#ffffff;stroke:#4a854b;stroke-width:0.120819;fill-opacity:1"
       id="path369" />
  </g>
</svg>
