<?xml version="1.0" encoding="UTF-8" standalone="no"?>
<!-- Created with Inkscape (http://www.inkscape.org/) -->

<svg
   width="96.432999mm"
   height="95.956001mm"
   viewBox="0 0 96.432998 95.956001"
   version="1.1"
   id="svg1"
   sodipodi:docname="SelectCircleAppear22.svg"
   inkscape:version="1.4.2 (f4327f4, 2025-05-13)"
   xmlns:inkscape="http://www.inkscape.org/namespaces/inkscape"
   xmlns:sodipodi="http://sodipodi.sourceforge.net/DTD/sodipodi-0.dtd"
   xmlns="http://www.w3.org/2000/svg"
   xmlns:svg="http://www.w3.org/2000/svg">
  <sodipodi:namedview
     id="namedview1"
     pagecolor="#ffffff"
     bordercolor="#000000"
     borderopacity="0.25"
     inkscape:showpageshadow="2"
     inkscape:pageopacity="0.0"
     inkscape:pagecheckerboard="0"
     inkscape:deskcolor="#d1d1d1"
     inkscape:document-units="mm"
     inkscape:zoom="4.6035151"
     inkscape:cx="122.84091"
     inkscape:cy="209.07936"
     inkscape:window-width="3840"
     inkscape:window-height="2054"
     inkscape:window-x="-11"
     inkscape:window-y="-11"
     inkscape:window-maximized="1"
     inkscape:current-layer="svg1" />
  <defs
     id="defs1">
    <clipPath
       clipPathUnits="userSpaceOnUse"
       id="clipPath72">
      <path
         id="path72"
         style="fill:#eba05e;fill-opacity:0.375979;stroke:#b7cadf;stroke-width:0;stroke-linecap:round;stroke-linejoin:round;paint-order:fill markers stroke"
         d="m 73.911632,81.073207 c 1.796052,-1.217858 6.051861,-0.07637 7.366375,1.862226 1.314511,1.938595 0.924146,4.497403 -0.871906,5.715261 -0.921328,0.62473 -14.383481,8.282123 -21.083038,9.951159 -0.520494,0.129669 29.699206,-5.795579 41.889957,-6.465345 1.46527,-0.0805 -1.07816,-2.298608 -0.22005,-2.354882 0.76949,-0.05046 3.20017,0.355638 10.53064,11.702584 1.82709,2.82817 4.48739,7.66941 0.41447,30.90717 -0.35982,2.05292 -17.05629,12.53062 -16.501683,14.04453 0.688436,1.87923 -9.642185,2.07752 -9.516241,3.36593 0.127869,1.30811 -9.664656,0.0941 -9.828468,0.79965 -0.270645,1.16571 -8.586992,-0.10422 -18.198168,-8.35192 -0.889064,-0.76293 -5.695525,-4.56042 -11.771469,-19.3032 -1.296161,-3.14503 -1.544142,-12.67746 1.441631,-19.52287 3.924231,-8.996984 10.826085,-14.759778 11.639601,-15.547884 1.461228,-1.415587 6.092768,-2.66935 5.841796,-3.039475 -1.314514,-1.938593 7.070503,-2.545078 8.866553,-3.762934 z"
         sodipodi:nodetypes="sssssssssssssssss" />
    </clipPath>
  </defs>
  <g
     id="g9"
     transform="matrix(-0.73141054,1.0786575,-1.0786575,-0.73141054,231.10694,45.133867)"
     clip-path="url(#clipPath72)">
    <path
       id="path7"
       style="baseline-shift:baseline;display:inline;overflow:visible;vector-effect:none;fill:#e3957b;fill-opacity:1;stroke-linecap:round;stroke-linejoin:round;paint-order:fill markers stroke;enable-background:accumulate;stop-color:#000000;stop-opacity:1"
       d="m 74.89071,82.381765 c -15.803856,2.720349 -27.712906,16.412514 -27.646724,33.005165 0.0732,18.3528 14.871483,33.23969 33.030807,33.16726 18.159323,-0.0724 32.838887,-15.07691 32.765687,-33.4297 C 112.9743,98.532021 102.4681,88.66936 89.8255,84.710699 l 0.008,2.007096 0.008,2.001929 c 10.31499,3.408593 19.186,11.952646 19.24371,26.420546 0.0648,16.24267 -12.831939,29.39536 -28.826183,29.45916 -15.994243,0.0638 -28.994962,-12.9856 -29.059749,-29.22827 -0.05771,-14.46808 9.572859,-22.68608 12.020885,-24.472576 11.670556,-8.516819 17.397153,-4.883694 17.397153,-4.883694 1.767412,-0.467788 -3.49875,-4.01661 -5.726606,-3.633125 z"
       sodipodi:nodetypes="sssscccsssscs" />
    <path
       d="m 48.91536,125.93878 c 1.128054,-1.1583 2.210204,-3.17953 2.004012,-4.15737 -0.212217,-1.00641 -2.119259,-2.47313 -3.642672,-3.04529 0.277321,2.44913 0.826852,4.86623 1.63866,7.20266 z"
       style="fill:#f7d8bd;fill-opacity:1;stroke:#b7cadf;stroke-width:0;stroke-linecap:round;stroke-linejoin:round;paint-order:fill markers stroke"
       id="path27"
       transform="rotate(-124.14021,80.142231,115.36622)" />
    <path
       d="m 52.281563,106.56684 c -1.540698,0.48016 -3.790173,2.34287 -3.951697,3.48505 -0.155488,1.09951 1.362996,3.37795 2.67839,4.33927 0.05983,-2.62978 0.479079,-5.26294 1.273307,-7.82432 z"
       style="fill:#f7d8bd;fill-opacity:1;stroke:#b7cadf;stroke-width:0;stroke-linecap:round;stroke-linejoin:round;paint-order:fill markers stroke"
       id="path18"
       transform="rotate(-124.14021,80.142231,115.36622)" />
    <path
       d="m 49.944755,101.61158 c 1.617355,-0.11209 3.805203,-0.92362 4.301029,-1.803504 0.475504,-0.843824 0.09131,-2.986616 -0.595312,-4.432288 -0.361714,0.478898 -0.712268,0.970317 -1.051099,1.474329 -1.032361,1.535632 -1.916003,3.128368 -2.654618,4.761463 z"
       style="fill:#f7d8bd;fill-opacity:1;stroke:#b7cadf;stroke-width:0;stroke-linecap:round;stroke-linejoin:round;paint-order:fill markers stroke"
       id="path28"
       transform="rotate(-124.14021,80.142231,115.36622)" />
    <path
       d="m 64.009529,91.031867 c -1.542145,-0.487283 -4.422049,-0.266752 -5.209501,0.565857 -0.653019,0.690469 -0.805526,2.794413 -0.512113,4.35529 1.709169,-1.918497 3.636902,-3.562921 5.721614,-4.921147 z"
       style="fill:#f7d8bd;fill-opacity:1;stroke:#b7cadf;stroke-width:0;stroke-linecap:round;stroke-linejoin:round;paint-order:fill markers stroke"
       id="path17"
       transform="rotate(-124.14021,80.142231,115.36622)" />
    <path
       d="m 65.678161,85.597057 c 1.186138,0.903252 2.789749,1.631584 3.618901,1.440222 1.012161,-0.2336 2.460468,-2.204504 2.991032,-3.745508 -2.274126,0.532202 -4.491226,1.303099 -6.609933,2.305286 z"
       style="fill:#f7d8bd;fill-opacity:1;stroke:#b7cadf;stroke-width:0;stroke-linecap:round;stroke-linejoin:round;paint-order:fill markers stroke"
       id="path29"
       transform="rotate(-124.14021,80.142231,115.36622)" />
    <path
       d="m 85.833003,82.942439 c -2.457893,-0.443135 -4.941839,-0.605868 -7.403682,-0.497128 0.574919,1.314014 1.524239,2.62667 2.294434,2.870626 1.19894,0.379759 4.244107,-1.107774 5.109248,-2.373498 z"
       style="fill:#f7d8bd;fill-opacity:1;stroke:#b7cadf;stroke-width:0;stroke-linecap:round;stroke-linejoin:round;paint-order:fill markers stroke"
       id="path12"
       transform="rotate(-124.14021,80.142231,115.36622)" />
    <path
       d="m 78.120813,144.44618 c 0.807625,1.41879 2.808572,3.16306 3.898986,3.15588 1.295663,-0.009 3.844574,-2.50693 4.162537,-3.9641 -2.576347,0.67787 -5.279825,0.97833 -8.061523,0.80822 z"
       style="fill:#f7d8bd;fill-opacity:1;stroke:#b7cadf;stroke-width:0;stroke-linecap:round;stroke-linejoin:round;paint-order:fill markers stroke"
       id="path20"
       transform="rotate(-124.14021,80.142231,115.36622)" />
    <path
       d="m 72.123763,147.44031 c -0.467147,-0.85303 -1.036513,-1.55324 -1.551844,-1.7508 -0.562396,-0.2156 -1.572573,-0.0288 -2.57607,0.3576 1.380385,0.57589 2.757549,1.03774 4.127914,1.3932 z"
       style="fill:#f7d8bd;fill-opacity:1;stroke:#b7cadf;stroke-width:0;stroke-linecap:round;stroke-linejoin:round;paint-order:fill markers stroke"
       id="path25"
       transform="rotate(-124.14021,80.142231,115.36622)" />
    <path
       d="m 60.620072,136.73192 c -0.587704,1.35907 0.09398,4.90742 1.163237,5.65547 1.087778,0.761 4.760991,0.15226 5.765539,-0.89865 -1.152618,-0.58575 -2.307919,-1.26429 -3.462838,-2.04071 -1.239026,-0.83295 -2.39517,-1.74188 -3.465938,-2.71611 z"
       style="fill:#f7d8bd;fill-opacity:1;stroke:#b7cadf;stroke-width:0;stroke-linecap:round;stroke-linejoin:round;paint-order:fill markers stroke"
       id="path19"
       transform="rotate(-124.14021,80.142231,115.36622)" />
    <path
       d="m 54.860217,136.42496 c 0.708109,-1.30033 1.181113,-2.96829 0.873332,-3.75274 -0.453688,-1.15633 -3.456029,-2.56603 -5.002279,-2.48099 1.126897,2.20336 2.506317,4.29744 4.128947,6.23373 z"
       style="fill:#f7d8bd;fill-opacity:1;stroke:#b7cadf;stroke-width:0;stroke-linecap:round;stroke-linejoin:round;paint-order:fill markers stroke"
       id="path26"
       transform="rotate(-124.14021,80.142231,115.36622)" />
    <path
       d="m 96.211181,91.2949 c 7.55e-4,-0.0019 0.0018,-0.0038 0.0026,-0.0057 0.516027,-1.285959 -1.060667,-4.976144 -2.346627,-5.492171 -1.138576,-0.456885 -4.161926,0.726658 -5.198132,1.896525 2.606232,0.817814 5.145665,2.013446 7.542175,3.60133 z"
       style="fill:#f7d8bd;fill-opacity:1;stroke:#b7cadf;stroke-width:0;stroke-linecap:round;stroke-linejoin:round;paint-order:fill markers stroke"
       id="path16"
       transform="rotate(-124.14021,80.142231,115.36622)" />
    <path
       d="m 101.57675,90.382811 c -0.0544,1.439555 0.23321,3.048635 0.82527,3.604948 0.55189,0.518566 2.00038,0.716806 3.35535,0.624768 -1.24838,-1.51126 -2.64341,-2.928951 -4.18062,-4.229716 z"
       style="fill:#f7d8bd;fill-opacity:1;stroke:#b7cadf;stroke-width:0;stroke-linecap:round;stroke-linejoin:round;paint-order:fill markers stroke"
       id="path13"
       transform="rotate(-124.14021,80.142231,115.36622)" />
    <path
       d="m 108.01666,106.21234 c 0.002,-10e-4 0.004,-0.003 0.006,-0.004 1.16496,-0.75023 2.01424,-4.67241 1.26401,-5.83737 -0.63921,-0.992557 -3.58062,-1.755828 -5.15783,-1.496031 1.79144,2.488651 3.03112,5.019091 3.88762,7.337541 z"
       style="fill:#f7d8bd;fill-opacity:1;stroke:#b7cadf;stroke-width:0;stroke-linecap:round;stroke-linejoin:round;paint-order:fill markers stroke"
       id="path15"
       transform="rotate(-124.14021,80.142231,115.36622)" />
    <path
       d="m 112.71973,109.16254 c -0.83953,0.84502 -1.50103,1.82901 -1.5105,2.49081 -0.0122,0.85245 1.0421,2.26948 2.17765,3.23856 -0.0555,-1.92592 -0.27971,-3.84333 -0.66715,-5.72937 z"
       style="fill:#f7d8bd;fill-opacity:1;stroke:#b7cadf;stroke-width:0;stroke-linecap:round;stroke-linejoin:round;paint-order:fill markers stroke"
       id="path14"
       transform="rotate(-124.14021,80.142231,115.36622)" />
  </g>
  <g
     id="g72"
     transform="rotate(45,41.545672,53.078555)">
    <path
       id="path8"
       style="fill:#e3957b;fill-opacity:1;stroke:#77a9df;stroke-width:0;stroke-linecap:round;stroke-linejoin:round;paint-order:fill markers stroke"
       d="m 74.227698,66.534779 c -2.307226,-1.942052 -3.830985,-3.920588 -1.198364,-6.9905 2.632623,-3.06991 8.424705,-6.068686 10.731931,-4.126633 2.307226,1.942054 0.255899,8.089513 -2.376724,11.159425 -2.632623,3.069915 -4.849618,1.89976 -7.156843,-0.04229 z"
       sodipodi:nodetypes="ssssss" />
    <path
       id="path9"
       style="fill:#f7f7f7;stroke:#b7cadf;stroke-width:0;stroke-linecap:round;stroke-linejoin:round;paint-order:fill markers stroke"
       d="m 79.145754,65.581895 a 0.63557561,1.3770806 8.4231378 0 1 -0.830439,1.269126 0.63557561,1.3770806 8.4231378 0 1 -0.427,-1.455327 0.63557561,1.3770806 8.4231378 0 1 0.830437,-1.269125 0.63557561,1.3770806 8.4231378 0 1 0.427,1.455327 z" />
    <path
       id="path9-2"
       style="fill:#f7f7f7;stroke:#b7cadf;stroke-width:0;stroke-linecap:round;stroke-linejoin:round;paint-order:fill markers stroke"
       d="m 75.33797,62.571311 a 0.63557558,1.3770806 60.174153 0 0 -0.87856,1.2363 0.63557558,1.3770806 60.174153 0 0 1.510786,-0.133523 0.63557558,1.3770806 60.174153 0 0 0.878561,-1.2363 0.63557558,1.3770806 60.174153 0 0 -1.510787,0.133523 z" />
  </g>
</svg>
