<?xml version="1.0" encoding="UTF-8" standalone="no"?>
<!-- Created with Inkscape (http://www.inkscape.org/) -->

<svg
   width="1089.892"
   height="1092.972"
   viewBox="0 0 288.36726 289.18216"
   version="1.1"
   id="svg1"
   inkscape:version="1.4.2 (f4327f4, 2025-05-13)"
   sodipodi:docname="TimeMeterindicatorEffect.svg"
   xmlns:inkscape="http://www.inkscape.org/namespaces/inkscape"
   xmlns:sodipodi="http://sodipodi.sourceforge.net/DTD/sodipodi-0.dtd"
   xmlns="http://www.w3.org/2000/svg"
   xmlns:svg="http://www.w3.org/2000/svg">
  <sodipodi:namedview
     id="namedview1"
     pagecolor="#ffffff"
     bordercolor="#000000"
     borderopacity="0.25"
     inkscape:showpageshadow="2"
     inkscape:pageopacity="0.0"
     inkscape:pagecheckerboard="0"
     inkscape:deskcolor="#d1d1d1"
     inkscape:document-units="mm"
     inkscape:zoom="0.80399484"
     inkscape:cx="98.259337"
     inkscape:cy="372.51483"
     inkscape:window-width="3840"
     inkscape:window-height="2054"
     inkscape:window-x="-11"
     inkscape:window-y="-11"
     inkscape:window-maximized="1"
     inkscape:current-layer="layer1" />
  <defs
     id="defs1">
    <inkscape:path-effect
       effect="mirror_symmetry"
       start_point="115.42934,-48.126267"
       end_point="118.33808,28.000645"
       center_point="116.88371,-10.062811"
       id="path-effect13"
       is_visible="true"
       lpeversion="1.2"
       lpesatellites=""
       mode="free"
       discard_orig_path="false"
       fuse_paths="true"
       oposite_fuse="true"
       split_items="false"
       split_open="false"
       link_styles="false" />
  </defs>
  <g
     inkscape:label="Ebene 1"
     inkscape:groupmode="layer"
     id="layer1"
     transform="translate(-53.554516,1.7261236)">
    <path
       style="fill:#6e6e6e;fill-opacity:1;stroke:#231b14;stroke-width:0;stroke-linecap:round;stroke-dasharray:none;paint-order:stroke fill markers"
       d="m 122.33008,-45.451172 -4.11328,1.646485 -2.65235,-0.785157 -2.58398,0.984375 -4.22852,-1.326172 -6.38672,2.798829 -4.541011,26.916015 -7.685547,3.064453 -4.460938,12.88281275 4.042969,20.48437525 27.066407,8.654297 1.60156,-0.535157 1.63867,0.41211 26.32618,-10.695313 2.46875,-20.7324216 -5.42969,-12.5058594 -7.89844,-2.466797 -6.58203,-26.492187 z"
       id="path13"
       inkscape:path-effect="#path-effect13"
       inkscape:original-d="m 104.39503,-41.994831 9.37895,-3.126314 4.44266,1.316342 4.11357,-1.645428 6.58172,2.3036 6.58172,26.491412 7.89805,2.468144 5.42992,12.5052619 -2.46814,20.7324091 -26.32687,10.695291 -23.529643,-5.923546 -5.429916,-27.4786691 11.024379,-8.3916889 z"
       transform="translate(80.488141,150.65599)" />
    <path
       style="fill:#8b8b8b;fill-opacity:1;stroke:#231b14;stroke-width:0;stroke-linecap:round;stroke-dasharray:none;paint-order:stroke fill markers"
       d="m 202.92955,110.25755 -0.11133,-5.05273 -4.11328,1.64648 0.15693,4.72982 2.37275,0.0418 z"
       id="path15" />
    <path
       style="fill:#8b8b8b;fill-opacity:1;stroke:#231b14;stroke-width:0;stroke-linecap:round;stroke-dasharray:none;paint-order:stroke fill markers"
       d="m 196.05259,106.06615 0.18946,4.99218 -3.31685,1.7781 0.54341,-5.78591 z"
       id="path16" />
    <path
       style="fill:#8b8b8b;fill-opacity:1;stroke:#231b14;stroke-width:0;stroke-linecap:round;stroke-dasharray:none;paint-order:stroke fill markers"
       d="m 182.85337,108.52317 4.24219,3.3086 2.41992,-1.06055 -0.27539,-5.04687 z"
       id="path17" />
    <path
       style="fill:#8b8b8b;fill-opacity:1;stroke:#231b14;stroke-width:0;stroke-linecap:round;stroke-dasharray:none;paint-order:stroke fill markers"
       d="m 178.31236,135.43919 3.52317,3.15932 -4.14401,3.52441 -3.30104,-0.0255 -3.76367,-3.59375 z"
       id="path18" />
    <path
       style="fill:#aaaaaa;fill-opacity:1;stroke:#231b14;stroke-width:0;stroke-linecap:round;stroke-dasharray:none;paint-order:stroke fill markers"
       d="m 181.83501,138.59909 5.60078,-4.64972 -0.34023,-22.1176 -4.24219,-3.3086 -4.54101,26.91602 z"
       id="path19" />
    <path
       style="fill:#aaaaaa;fill-opacity:1;stroke:#231b14;stroke-width:0;stroke-linecap:round;stroke-dasharray:none;paint-order:stroke fill markers"
       d="m 170.62681,138.50364 3.76367,3.59374 -3.33398,9.62892 -4.89063,-0.33984 z"
       id="path20" />
    <path
       style="fill:#797979;fill-opacity:1;stroke:#231b14;stroke-width:0;stroke-linecap:round;stroke-dasharray:none;paint-order:stroke fill markers"
       d="m 166.16587,151.38646 4.04297,20.48437 4.10156,-3.65625 -3.2539,-16.48828 z"
       id="path21" />
    <path
       style="fill:#505050;fill-opacity:1;stroke:#231b14;stroke-width:0;stroke-linecap:round;stroke-dasharray:none;paint-order:stroke fill markers"
       d="m 174.3104,168.21458 22.93164,7.33203 1.63477,4.44336 -1.60156,0.53516 -27.06641,-8.6543 z"
       id="path22"
       sodipodi:nodetypes="cccccc" />
    <path
       style="fill:#3d3d3d;fill-opacity:1;stroke:#231b14;stroke-width:0;stroke-linecap:round;stroke-dasharray:none;paint-order:stroke fill markers"
       d="m 197.24204,175.54661 1.62508,-1.0931 1.23235,0.9642 -1.22266,4.57226 z"
       id="path23"
       sodipodi:nodetypes="ccccc" />
    <path
       style="fill:#2b2b2b;fill-opacity:1;stroke:#231b14;stroke-width:0;stroke-linecap:round;stroke-dasharray:none;paint-order:stroke fill markers"
       d="m 198.87681,179.98997 1.63918,0.4119 26.32565,-10.6951 -4.36913,-3.33399 -22.37304,9.04493 z"
       id="path24"
       sodipodi:nodetypes="cccccc" />
    <path
       style="fill:#222222;fill-opacity:1;stroke:#231b14;stroke-width:0;stroke-linecap:round;stroke-dasharray:none;paint-order:stroke fill markers"
       d="m 222.47251,166.37278 4.36913,3.33399 2.46875,-20.73242 -4.85156,0.71093 z"
       id="path25" />
    <path
       style="fill:#2c2c2c;fill-opacity:1;stroke:#231b14;stroke-width:0;stroke-linecap:round;stroke-dasharray:none;paint-order:stroke fill markers"
       d="m 224.45883,149.68528 -4.05663,-9.3457 3.47851,-3.87109 5.42968,12.50586 z"
       id="path26" />
    <path
       style="fill:#434343;fill-opacity:1;stroke:#231b14;stroke-width:0;stroke-linecap:round;stroke-dasharray:none;paint-order:stroke fill markers"
       d="m 223.88071,136.46849 -7.89843,-2.4668 -3.66976,2.98887 0.19329,4.02385 7.89639,-0.67483 z"
       id="path27" />
    <path
       style="fill:#535353;fill-opacity:1;stroke:#231b14;stroke-width:0;stroke-linecap:round;stroke-dasharray:none;paint-order:stroke fill markers"
       d="m 205.42369,111.1306 3.97656,-3.6211 6.58203,26.49219 -3.66976,2.98887 -2.83018,-0.99471 z"
       id="path28" />
    <path
       id="path14"
       style="fill:#5c5c5c;fill-opacity:1;stroke:#231b14;stroke-width:0;stroke-linecap:round;stroke-dasharray:none;paint-order:stroke fill markers"
       sodipodi:type="inkscape:offset"
       inkscape:radius="-4.7326722"
       inkscape:original="M 122.33008 -45.451172 L 118.2168 -43.804688 L 115.56445 -44.589844 L 112.98047 -43.605469 L 108.75195 -44.931641 L 102.36523 -42.132812 L 97.824219 -15.216797 L 90.138672 -12.152344 L 85.677734 0.73046875 L 89.720703 21.214844 L 116.78711 29.869141 L 118.38867 29.333984 L 120.02734 29.746094 L 146.35352 19.050781 L 148.82227 -1.6816406 L 143.39258 -14.1875 L 135.49414 -16.654297 L 128.91211 -43.146484 L 122.33008 -45.451172 z "
       d="m 122.44141,-40.398437 -2.4668,0.988281 a 4.7331455,4.7331455 0 0 1 -3.10156,0.142578 l -1.11914,-0.330078 -1.08789,0.414062 a 4.7331455,4.7331455 0 0 1 -3.10157,0.09375 l -2.53711,-0.794922 -2.41992,1.060547 -4.11719,24.394531 a 4.7331455,4.7331455 0 0 1 -2.914058,3.609375 l -5.673828,2.2617192 -3.333985,9.6289063 3.253907,16.4882815 22.931644,7.332031 0.13476,-0.04492 a 4.7331455,4.7331455 0 0 1 2.6543,-0.101562 l 0.13672,0.03516 22.30468,-9.0625 1.98633,-16.68750013 -4.05664,-9.34570287 -5.83008,-1.820313 a 4.7331455,4.7331455 0 0 1 -3.18359,-3.376953 l -5.96484,-24.011719 z"
       transform="translate(80.488141,150.65599)" />
    <path
       id="path29"
       style="fill:#5c5c5c;fill-opacity:1;stroke:#231b14;stroke-width:0;stroke-linecap:round;stroke-dasharray:none;paint-order:stroke fill markers"
       sodipodi:type="inkscape:offset"
       inkscape:radius="-2.4809599"
       inkscape:original="M 122.44141 -40.398438 L 119.97461 -39.410156 A 4.7331455 4.7331455 0 0 1 116.87305 -39.267578 L 115.75391 -39.597656 L 114.66602 -39.183594 A 4.7331455 4.7331455 0 0 1 111.56445 -39.089844 L 109.02734 -39.884766 L 106.60742 -38.824219 L 102.49023 -14.429688 A 4.7331455 4.7331455 0 0 1 99.576172 -10.820312 L 93.902344 -8.5585938 L 90.568359 1.0703125 L 93.822266 17.558594 L 116.75391 24.890625 L 116.88867 24.845703 A 4.7331455 4.7331455 0 0 1 119.54297 24.744141 L 119.67969 24.779297 L 141.98438 15.716797 L 143.9707 -0.97070312 L 139.91406 -10.316406 L 134.08398 -12.136719 A 4.7331455 4.7331455 0 0 1 130.90039 -15.513672 L 124.93555 -39.525391 L 122.44141 -40.398438 z "
       d="m 122.5,-37.75 -1.60352,0.642578 a 2.481208,2.481208 0 0 1 -0.002,0.002 c -1.56728,0.626196 1.04571,-0.294008 -0.56836,0.199219 -1.61407,0.493227 1.06757,-0.204475 -0.58203,0.152344 -1.6496,0.356819 1.07987,-0.116359 -0.59375,0.101562 -1.67362,0.217922 1.08441,-0.02477 -0.60156,0.05273 -1.68597,0.0775 1.08499,0.06736 -0.60156,0.0039 -1.68656,-0.06345 1.07381,0.155142 -0.60157,-0.04883 -1.67538,-0.20397 1.05877,0.245407 -0.59375,-0.09766 -1.64211,-0.340905 0.97437,0.315892 -0.58007,-0.146485 h -0.004 l -0.3125,-0.0918 -0.30664,0.115235 c -1.57718,0.601199 1.0515,-0.276171 -0.57031,0.191406 -1.62182,0.467577 1.07117,-0.188119 -0.58399,0.142578 -1.65516,0.330697 1.08127,-0.09972 -0.5957,0.0918 -1.67698,0.191513 1.08554,-0.0061 -0.60156,0.04492 -1.68711,0.051 1.08391,0.08207 -0.60157,-0.0078 -1.68548,-0.08988 1.07251,0.173485 -0.59961,-0.05664 -1.67211,-0.230125 1.05531,0.261347 -0.59179,-0.107422 -1.6471,-0.368769 1.02857,0.348594 -0.58203,-0.15625 l -1.65039,-0.517578 -0.3418,0.15039 -3.89258,23.072266 c -0.26287,1.558752 0.24686,-0.613991 -0.21289,0.898437 -0.45975,1.512428 0.32488,-0.57611 -0.32422,0.865235 -0.6491,1.441345 0.39619,-0.532213 -0.43164,0.814453 -0.82783,1.346666 0.4598,-0.476035 -0.5332,0.753906 -0.99301,1.2299416 0.51692,-0.413394 -0.625,0.679688 -1.14192,1.0930817 0.56706,-0.342626 -0.70508,0.5957027 -1.27215,0.9383285 0.6042,-0.2701669 -0.77734,0.4980469 -1.381547,0.7682138 0.63629,-0.1890387 -0.83204,0.3964844 a 2.481208,2.481208 0 0 1 -0.002,0 l -4.61914,1.8417969 -2.742188,7.921875 2.839844,14.3925781 20.765624,6.640625 -0.61914,0.205078 c 1.27313,-0.432847 -1.12894,0.273445 0.47461,-0.138672 1.6636,-0.42755 -1.18782,0.198905 0.50195,-0.109375 1.68977,-0.30828 -1.20154,0.113233 0.50586,-0.07422 1.70741,-0.187451 -1.20469,0.02661 0.51172,-0.03906 1.71641,-0.06567 -1.20306,-0.05643 0.51367,0 1.71674,0.05643 -1.19667,-0.143099 0.51172,0.03516 1.70839,0.178256 -1.18359,-0.228865 0.50781,0.07031 1.62579,0.287569 -0.79468,-0.224876 0.48243,0.103515 l -0.625,-0.162109 20.18945,-8.203125 1.73437,-14.56640625 -3.33789,-7.68945315 -4.74414,-1.4804687 h -0.002 c -1.49178,-0.4649089 0.57219,0.3263899 -0.86133,-0.3320309 -1.43634,-0.659722 0.5278,0.4003077 -0.8125,-0.4375 -1.3403,-0.837808 0.47229,0.463103 -0.75,-0.539063 -1.22229,-1.002165 0.40847,0.519241 -0.67578,-0.630859 -1.08425,-1.150101 0.34055,0.568251 -0.58789,-0.710938 -0.92844,-1.279189 0.26327,0.608018 -0.49414,-0.779297 -0.75742,-1.387315 0.18336,0.634817 -0.39063,-0.83789 -0.57398,-1.472708 0.10185,0.653107 -0.27929,-0.88086 l -5.64063,-22.710937 z"
       transform="translate(80.488141,150.65599)" />
    <path
       style="fill:#7e8b92;fill-opacity:1;stroke:#231b14;stroke-width:0;stroke-linecap:round;stroke-dasharray:none;paint-order:stroke fill markers"
       d="m 179.28439,156.95645 6.71001,-10.30445 7.39723,-3.37143 0.37574,7.44958 -10.56065,13.43819 -4.75863,1.50757 z"
       id="path45" />
    <path
       style="fill:#737f85;fill-opacity:1;stroke:#231b14;stroke-width:0;stroke-linecap:round;stroke-dasharray:none;paint-order:stroke fill markers"
       d="m 181.12549,156.39442 5.19304,-8.64115 5.27224,-2.77209 -0.16406,6.30251 -8.01564,11.24987 -3.35415,1.22419 z"
       id="path43" />
    <path
       style="fill:#91a1a8;fill-opacity:1;stroke:#231b14;stroke-width:0;stroke-linecap:round;stroke-dasharray:none;paint-order:stroke fill markers"
       d="m 191.59077,144.98118 1.80086,-1.70061 0.37574,7.44958 -2.34066,0.55354 z"
       id="path46" />
    <path
       style="fill:#a9bbc3;fill-opacity:1;stroke:#231b14;stroke-width:0;stroke-linecap:round;stroke-dasharray:none;paint-order:stroke fill markers"
       d="m 191.42671,151.28369 2.34066,-0.55354 -10.56065,13.43819 0.20439,-1.63477 z"
       id="path47" />
    <path
       style="fill:#b4c7d0;fill-opacity:1;stroke:#231b14;stroke-width:0;stroke-linecap:round;stroke-dasharray:none;paint-order:stroke fill markers"
       d="m 183.41107,162.53356 -0.20439,1.63477 -4.75863,1.50757 1.60883,-1.91816 z"
       id="path48" />
    <path
       style="fill:#576065;fill-opacity:1;stroke:#231b14;stroke-width:0;stroke-linecap:round;stroke-dasharray:none;paint-order:stroke fill markers"
       d="m 180.05688,163.75774 1.06865,-7.36331 -1.8411,0.56202 -0.83634,8.71946 z"
       id="path49" />
    <path
       style="fill:#474e52;fill-opacity:1;stroke:#231b14;stroke-width:0;stroke-linecap:round;stroke-dasharray:none;paint-order:stroke fill markers"
       d="m 181.12549,156.39444 5.19304,-8.64117 -0.32414,-1.10127 -6.71,10.30445 z"
       id="path50" />
    <path
       style="fill:#4f565b;fill-opacity:1;stroke:#231b14;stroke-width:0;stroke-linecap:round;stroke-dasharray:none;paint-order:stroke fill markers"
       d="m 186.31853,147.75327 5.27224,-2.77209 1.80086,-1.70061 -7.39724,3.37143 z"
       id="path51" />
    <path
       style="fill:#7e8b92;fill-opacity:1;stroke:#231b14;stroke-width:0;stroke-linecap:round;stroke-dasharray:none;paint-order:stroke fill markers"
       d="m 218.37749,156.69896 -6.5685,-10.39522 -7.35046,-3.47224 -0.47753,7.44375 10.37594,13.58131 4.73757,1.57248 z"
       id="path52"
       inkscape:transform-center-x="0.39688088"
       inkscape:transform-center-y="-1.2291663" />
    <path
       style="fill:#737f85;fill-opacity:1;stroke:#231b14;stroke-width:0;stroke-linecap:round;stroke-dasharray:none;paint-order:stroke fill markers"
       d="m 216.07739,156.5687 -5.07442,-8.71134 -5.23385,-2.84391 0.0779,6.30416 7.86108,11.35841 3.33711,1.26992 z"
       id="path53"
       inkscape:transform-center-x="0.06060605"
       inkscape:transform-center-y="-1.3366169"
       sodipodi:nodetypes="ccccccc" />
    <path
       style="fill:#91a1a8;fill-opacity:1;stroke:#231b14;stroke-width:0;stroke-linecap:round;stroke-dasharray:none;paint-order:stroke fill markers"
       d="m 205.76912,145.01345 -1.16661,-2.16138 -0.62151,7.42318 1.86601,1.04236 z"
       id="path54"
       inkscape:transform-center-x="6.7872013"
       inkscape:transform-center-y="-8.5133187"
       sodipodi:nodetypes="ccccc" />
    <path
       style="fill:#a9bbc3;fill-opacity:1;stroke:#231b14;stroke-width:0;stroke-linecap:round;stroke-dasharray:none;paint-order:stroke fill markers"
       d="m 205.84701,151.31761 -1.86601,-1.04236 10.37594,13.58131 -0.64889,-1.18054 z"
       id="path55"
       inkscape:transform-center-x="2.7656661"
       inkscape:transform-center-y="1.7064683"
       sodipodi:nodetypes="ccccc" />
    <path
       style="fill:#b4c7d0;fill-opacity:1;stroke:#231b14;stroke-width:0;stroke-linecap:round;stroke-dasharray:none;paint-order:stroke fill markers"
       d="m 213.70809,162.67602 0.64889,1.18053 4.73757,1.57249 c -1.36513,-1.60906 -2.04931,-1.4831 -2.04931,-1.4831 z"
       id="path56"
       inkscape:transform-center-x="-4.7001192"
       inkscape:transform-center-y="8.4646505"
       sodipodi:nodetypes="ccccc" />
    <path
       style="fill:#576065;fill-opacity:1;stroke:#231b14;stroke-width:0;stroke-linecap:round;stroke-dasharray:none;paint-order:stroke fill markers"
       d="m 217.04524,163.94594 -0.96789,-7.37723 2.3001,0.13026 0.71706,8.73007 z"
       id="path57"
       inkscape:transform-center-x="-5.8847293"
       inkscape:transform-center-y="5.4109972"
       sodipodi:nodetypes="ccccc" />
    <path
       style="fill:#474e52;fill-opacity:1;stroke:#231b14;stroke-width:0;stroke-linecap:round;stroke-dasharray:none;paint-order:stroke fill markers"
       d="m 216.07739,156.56872 -5.07442,-8.71136 0.80602,-1.55362 6.5685,10.39522 z"
       id="path58"
       inkscape:transform-center-x="-2.9890291"
       inkscape:transform-center-y="-3.8580848"
       sodipodi:nodetypes="ccccc" />
    <path
       style="fill:#4f565b;fill-opacity:1;stroke:#231b14;stroke-width:0;stroke-linecap:round;stroke-dasharray:none;paint-order:stroke fill markers"
       d="m 211.00297,147.85736 -5.23385,-2.84391 -1.16661,-2.16138 7.20648,3.45167 z"
       id="path59"
       inkscape:transform-center-x="3.8008712"
       inkscape:transform-center-y="-10.243445"
       sodipodi:nodetypes="ccccc" />
    <path
       style="fill:#7e8b92;fill-opacity:1;stroke:#231b14;stroke-width:0;stroke-linecap:round;stroke-dasharray:none;paint-order:stroke fill markers"
       d="m 202.94847,120.45559 -0.11557,-2.77585 -1.51833,-1.40467 -1.40405,1.50798 0.66587,3.79278 1.09188,0.76658 z"
       id="path52-2"
       inkscape:transform-center-x="-0.10191986"
       inkscape:transform-center-y="-0.2709504" />
    <path
       style="fill:#737f85;fill-opacity:1;stroke:#231b14;stroke-width:0;stroke-linecap:round;stroke-dasharray:none;paint-order:stroke fill markers"
       d="m 202.31058,120.21545 0.0266,-2.28638 -1.01788,-1.07765 -1.05069,1.32177 0.32255,3.09639 0.74148,0.57381 z"
       id="path53-2"
       inkscape:transform-center-x="-0.18704307"
       inkscape:transform-center-y="-0.28432753"
       sodipodi:nodetypes="ccccccc" />
    <path
       style="fill:#91a1a8;fill-opacity:1;stroke:#231b14;stroke-width:0;stroke-linecap:round;stroke-dasharray:none;paint-order:stroke fill markers"
       d="m 201.31927,116.85142 0.0331,-0.55873 -1.44186,1.49036 0.35806,0.39014 z"
       id="path54-1"
       inkscape:transform-center-x="0.58850362"
       inkscape:transform-center-y="-2.3749137"
       sodipodi:nodetypes="ccccc" />
    <path
       style="fill:#a9bbc3;fill-opacity:1;stroke:#231b14;stroke-width:0;stroke-linecap:round;stroke-dasharray:none;paint-order:stroke fill markers"
       d="m 200.26858,118.17319 -0.35806,-0.39014 0.66587,3.79278 0.0147,-0.30625 z"
       id="path55-6"
       inkscape:transform-center-x="1.0767553"
       inkscape:transform-center-y="0.099747802"
       sodipodi:nodetypes="ccccc" />
    <path
       style="fill:#b4c7d0;fill-opacity:1;stroke:#231b14;stroke-width:0;stroke-linecap:round;stroke-dasharray:none;paint-order:stroke fill markers"
       d="m 200.59113,121.26958 -0.0147,0.30625 1.09188,0.76658 c -0.11787,-0.46193 -0.33565,-0.49902 -0.33565,-0.49902 z"
       id="path56-8"
       inkscape:transform-center-x="0.0993621"
       inkscape:transform-center-y="2.2002843"
       sodipodi:nodetypes="ccccc" />
    <path
       style="fill:#576065;fill-opacity:1;stroke:#231b14;stroke-width:0;stroke-linecap:round;stroke-dasharray:none;paint-order:stroke fill markers"
       d="m 201.33263,121.84339 0.97794,-1.62794 0.63788,0.24014 -1.28019,1.88682 z"
       id="path57-5"
       inkscape:transform-center-x="-0.91884054"
       inkscape:transform-center-y="1.6732193"
       sodipodi:nodetypes="ccccc" />
    <path
       style="fill:#474e52;fill-opacity:1;stroke:#231b14;stroke-width:0;stroke-linecap:round;stroke-dasharray:none;paint-order:stroke fill markers"
       d="m 202.31058,120.21545 0.0266,-2.28638 0.49575,-0.24933 0.11556,2.77585 z"
       id="path58-7"
       inkscape:transform-center-x="-1.3689349"
       inkscape:transform-center-y="-0.49040991"
       sodipodi:nodetypes="ccccc" />
    <path
       style="fill:#4f565b;fill-opacity:1;stroke:#231b14;stroke-width:0;stroke-linecap:round;stroke-dasharray:none;paint-order:stroke fill markers"
       d="m 202.33716,117.92907 -1.01789,-1.07765 0.0331,-0.55873 1.48052,1.38705 z"
       id="path59-6"
       inkscape:transform-center-x="-0.76849161"
       inkscape:transform-center-y="-2.525254"
       sodipodi:nodetypes="ccccc" />
    <path
       style="fill:#7e8b92;fill-opacity:1;stroke:#231b14;stroke-width:0;stroke-linecap:round;stroke-dasharray:none;paint-order:stroke fill markers"
       d="m 194.933,120.45559 -0.11556,-2.77585 -1.51834,-1.40467 -1.40405,1.50798 0.66587,3.79278 1.09188,0.76658 z"
       id="path1"
       inkscape:transform-center-x="-0.10191941"
       inkscape:transform-center-y="-0.2709504" />
    <path
       style="fill:#737f85;fill-opacity:1;stroke:#231b14;stroke-width:0;stroke-linecap:round;stroke-dasharray:none;paint-order:stroke fill markers"
       d="m 194.29511,120.21545 0.0266,-2.28638 -1.01788,-1.07765 -1.0507,1.32177 0.32255,3.09639 0.74149,0.57381 z"
       id="path2"
       inkscape:transform-center-x="-0.18703863"
       inkscape:transform-center-y="-0.28432753"
       sodipodi:nodetypes="ccccccc" />
    <path
       style="fill:#91a1a8;fill-opacity:1;stroke:#231b14;stroke-width:0;stroke-linecap:round;stroke-dasharray:none;paint-order:stroke fill markers"
       d="m 193.3038,116.85142 0.0331,-0.55873 -1.44187,1.49036 0.35807,0.39014 z"
       id="path3"
       inkscape:transform-center-x="0.58849856"
       inkscape:transform-center-y="-2.3749137"
       sodipodi:nodetypes="ccccc" />
    <path
       style="fill:#a9bbc3;fill-opacity:1;stroke:#231b14;stroke-width:0;stroke-linecap:round;stroke-dasharray:none;paint-order:stroke fill markers"
       d="m 192.25311,118.17319 -0.35806,-0.39014 0.66587,3.79278 0.0147,-0.30625 z"
       id="path4"
       inkscape:transform-center-x="1.0767557"
       inkscape:transform-center-y="0.099747802"
       sodipodi:nodetypes="ccccc" />
    <path
       style="fill:#b4c7d0;fill-opacity:1;stroke:#231b14;stroke-width:0;stroke-linecap:round;stroke-dasharray:none;paint-order:stroke fill markers"
       d="m 192.57566,121.26958 -0.0147,0.30625 1.09188,0.76658 c -0.11787,-0.46193 -0.33565,-0.49902 -0.33565,-0.49902 z"
       id="path5"
       inkscape:transform-center-x="0.099363045"
       inkscape:transform-center-y="2.2002843"
       sodipodi:nodetypes="ccccc" />
    <path
       style="fill:#576065;fill-opacity:1;stroke:#231b14;stroke-width:0;stroke-linecap:round;stroke-dasharray:none;paint-order:stroke fill markers"
       d="m 193.31716,121.84339 0.97794,-1.62794 0.63788,0.24014 -1.28018,1.88682 z"
       id="path6"
       inkscape:transform-center-x="-0.9188401"
       inkscape:transform-center-y="1.6732193"
       sodipodi:nodetypes="ccccc" />
    <path
       style="fill:#474e52;fill-opacity:1;stroke:#231b14;stroke-width:0;stroke-linecap:round;stroke-dasharray:none;paint-order:stroke fill markers"
       d="m 194.29511,120.21545 0.0266,-2.28638 0.49575,-0.24933 0.11556,2.77585 z"
       id="path7"
       inkscape:transform-center-x="-1.368935"
       inkscape:transform-center-y="-0.49040991"
       sodipodi:nodetypes="ccccc" />
    <path
       style="fill:#4f565b;fill-opacity:1;stroke:#231b14;stroke-width:0;stroke-linecap:round;stroke-dasharray:none;paint-order:stroke fill markers"
       d="m 194.32169,117.92907 -1.01789,-1.07765 0.0331,-0.55873 1.48052,1.38705 z"
       id="path8"
       inkscape:transform-center-x="-0.76849167"
       inkscape:transform-center-y="-2.525254"
       sodipodi:nodetypes="ccccc" />
  </g>
</svg>
