<?xml version="1.0" encoding="UTF-8" standalone="no"?>
<!-- Created with Inkscape (http://www.inkscape.org/) -->

<svg
   width="356.87817"
   height="1693.313"
   viewBox="0 0 94.424021 448.02239"
   version="1.1"
   id="svg1"
   inkscape:version="1.4.2 (f4327f4, 2025-05-13)"
   sodipodi:docname="TimeMeter.svg"
   xmlns:inkscape="http://www.inkscape.org/namespaces/inkscape"
   xmlns:sodipodi="http://sodipodi.sourceforge.net/DTD/sodipodi-0.dtd"
   xmlns="http://www.w3.org/2000/svg"
   xmlns:svg="http://www.w3.org/2000/svg">
  <sodipodi:namedview
     id="namedview1"
     pagecolor="#ffffff"
     bordercolor="#000000"
     borderopacity="0.25"
     inkscape:showpageshadow="2"
     inkscape:pageopacity="0.0"
     inkscape:pagecheckerboard="0"
     inkscape:deskcolor="#d1d1d1"
     inkscape:document-units="mm"
     inkscape:zoom="1.1370204"
     inkscape:cx="195.24716"
     inkscape:cy="179.85605"
     inkscape:window-width="3840"
     inkscape:window-height="2054"
     inkscape:window-x="-11"
     inkscape:window-y="-11"
     inkscape:window-maximized="1"
     inkscape:current-layer="layer1" />
  <defs
     id="defs1">
    <inkscape:path-effect
       effect="mirror_symmetry"
       start_point="115.42934,-48.126267"
       end_point="118.33808,28.000645"
       center_point="116.88371,-10.062811"
       id="path-effect15"
       is_visible="true"
       lpeversion="1.2"
       lpesatellites=""
       mode="free"
       discard_orig_path="false"
       fuse_paths="true"
       oposite_fuse="true"
       split_items="false"
       split_open="false"
       link_styles="false" />
    <inkscape:path-effect
       effect="mirror_symmetry"
       start_point="115.42934,-48.126267"
       end_point="118.33808,28.000645"
       center_point="116.88371,-10.062811"
       id="path-effect13"
       is_visible="true"
       lpeversion="1.2"
       lpesatellites=""
       mode="free"
       discard_orig_path="false"
       fuse_paths="true"
       oposite_fuse="true"
       split_items="false"
       split_open="false"
       link_styles="false" />
  </defs>
  <g
     inkscape:label="Ebene 1"
     inkscape:groupmode="layer"
     id="layer1"
     transform="translate(-63.752924,-29.745887)">
    <path
       id="path1"
       style="fill:#202020;fill-opacity:1;stroke:#000000;stroke-width:0;stroke-linecap:round;stroke-linejoin:round;stroke-dasharray:none;stroke-opacity:0.999272"
       d="m 146.21152,48.541975 c -22.65878,-2.551957 -42.24203,-2.101758 -50.653519,0.667432 -2.501504,0.823533 -3.336915,16.014735 -3.773113,26.833077 v 0.0039 c -0.232954,5.699406 -0.920074,11.598465 -2.873047,17.33984 -3.614586,10.981336 -9.801343,20.357326 -15.052734,29.601556 -4.733127,8.34645 -8.944074,16.66586 -9.902344,25.45704 -0.0013,0.009 -0.0026,0.0182 -0.0039,0.0273 -0.70236,6.05677 0.49024,12.43776 2.878906,18.25391 0.0013,0.003 0.0026,0.005 0.0039,0.008 3.704028,9.08155 9.811065,17.3587 15.791016,26.01758 5.672643,8.17489 11.635688,16.82523 15.027344,27.01757 2.072303,6.14581 2.838571,12.6925 2.244143,19.15039 -0.914966,11.0003 -5.157637,21.07513 -9.92969,30.26172 -6.777432,13.0584 -14.921862,24.89572 -20.113281,37.72657 -2.752491,6.83448 -4.531929,13.99704 -4.46875,21.11523 4.7e-5,0.0111 4.7e-5,0.0221 0,0.0332 0.0054,11.14919 3.587692,22.24231 8.039062,33.05078 l 0.0039,0.006 c 5.709366,13.92923 13.106079,27.88733 16.873047,43.52735 10.77063,44.48996 -2.997664,66.32487 4.702295,72.14644 3.354586,2.53624 49.706475,-0.50477 51.743335,-1.70877 7.94202,-4.69458 4.65002,-26.51516 4.33953,-42.20176 v -0.002 c -0.21905,-8.51989 -0.63654,-16.92977 -2.5,-24.82031 -10e-4,-0.006 -0.003,-0.0117 -0.004,-0.0176 -3.54158,-15.28288 -10.81835,-29.74652 -16.76172,-45.13476 l -0.002,-0.006 c -4.3645,-11.25041 -8.11605,-23.27914 -8.36914,-35.98047 -0.20026,-6.70065 0.85441,-13.377 2.97461,-19.68164 l 0.002,-0.006 c 6.5e-4,-0.002 0.001,-0.004 0.002,-0.006 4.04038,-12.12859 10.93673,-22.55473 17.08398,-32.75586 l 0.004,-0.004 c 5.23152,-8.66049 10.22753,-17.24869 12.87695,-26.43945 v 0.006 c 0.96219,-3.35504 1.59981,-6.98439 1.74024,-10.38281 6.1e-4,-0.0124 0.001,-0.0247 0.002,-0.0371 0.27304,-5.41011 -0.85293,-10.96103 -2.92383,-16.11328 -0.002,-0.005 -0.004,-0.0104 -0.006,-0.0156 -3.01803,-7.59971 -7.82329,-14.72957 -12.78125,-21.91406 l -0.002,-0.002 c -5.97117,-8.66369 -12.58387,-17.52762 -16.84961,-28.03907 l -0.002,-0.006 c -5.6e-4,-10e-4 -0.001,-0.003 -0.002,-0.004 -3.07125,-7.51571 -4.5422,-15.91826 -3.23632,-24.25586 1.45864,-9.83883 5.96216,-18.47482 10.47265,-26.38477 v -0.002 c 5.42966,-9.51576 11.31598,-18.3925 14.57617,-28.007806 0.004,-0.0111 0.008,-0.0221 0.0117,-0.0332 1.56653,-4.492836 2.25059,-9.390585 2.50586,-14.429688 v -0.002 c 0.58305,-11.397011 0.0135,-29.440089 -3.68839,-29.857021 z m -39.38367,2.654802 c 9.16425,0.01546 18.35429,-0.03137 27.56445,0.02344 0.1017,6.32e-4 0.20334,0.0052 0.30469,0.01367 4.90988,0.409441 8.26191,4.60552 8.12304,9.287109 l -0.0117,-0.439453 c 0.63089,7.696173 1.09154,15.581601 0.50781,23.572266 -6.3e-4,0.01042 -10e-4,0.02084 -0.002,0.03125 -0.61078,7.542005 -3.3328,14.452115 -6.41601,20.724601 l -0.002,0.004 c -5.74315,11.64676 -13.28354,21.66591 -17.78321,32.6289 -2.12068,5.20608 -3.42629,10.61604 -3.27343,15.99805 2e-5,0.008 2e-5,0.0156 0,0.0234 0.071,3.17497 0.62715,6.39356 1.51757,9.45703 4.1e-4,0.001 0.002,0.003 0.002,0.004 1.7e-4,6.1e-4 -1.8e-4,0.001 0,0.002 2.20122,7.51871 6.38241,14.55297 10.96679,21.49023 6.24341,9.44774 13.55588,18.78198 18.69141,29.83008 3.31302,7.12619 5.46252,15.09162 5.08594,23.32422 -0.37689,10.77857 -4.30104,20.74421 -8.94727,29.70312 -6.97078,13.49469 -15.72868,25.43195 -21.22265,38.51172 -1.59096,3.81311 -2.88333,7.80087 -3.65625,11.72852 -10e-4,0.006 -0.003,0.0117 -0.004,0.0176 -0.88457,4.39894 -1.03547,9.17236 -0.66992,13.81445 l 0.002,0.002 c 0.86821,11.09688 4.7325,22.08374 9.1543,32.89063 v 0.002 c 5.35502,13.10447 11.77084,26.28505 15.31836,40.79883 8.3e-4,0.003 0.003,0.006 0.004,0.01 1.55428,6.18469 2.29985,12.47906 2.53516,18.72461 0.47817,11.76385 0.0883,23.47383 -0.52149,35.08203 -0.002,0.03 -0.004,0.06 -0.006,0.0899 -0.14082,1.86853 -0.14299,4.02092 -0.45313,6.375 -0.01,0.0765 -0.0212,0.1527 -0.0352,0.22851 -0.85737,4.4729 -4.85099,7.60806 -9.46875,7.20899 l 0.33985,0.0156 c -9.58189,0.002 -19.1618,-0.005 -28.73438,0.006 -3.56327,0.0208 -6.006208,-2.69518 -6.537105,-5.65625 -0.744564,-3.53823 -0.0824,-6.43569 -0.04297,-8.44726 5.98e-4,-0.043 0.0019,-0.086 0.0039,-0.12891 0.607337,-11.55214 1.007075,-23.09324 0.535157,-34.51758 -10e-6,-0.004 -10e-6,-0.008 0,-0.0117 -0.218715,-5.703 -0.884339,-11.3113 -2.253907,-16.74804 -0.0026,-0.008 -0.0052,-0.0169 -0.0078,-0.0254 -3.258399,-13.29281 -9.430739,-25.98056 -14.900226,-39.25259 v 0.004 C 77.939117,356.47034 73.656548,344.66327 72.68527,331.99373 v -0.004 c -0.548969,-6.7991 -0.0113,-13.73314 1.851562,-20.39844 3.14824,-11.5315 9.076355,-21.65846 14.763672,-31.31641 l 0.0039,-0.006 c 5.915381,-10.08247 11.966866,-19.82513 15.398436,-30.32617 2.49812,-7.64143 3.36826,-15.94035 1.43554,-23.45312 -0.003,-0.013 -0.007,-0.026 -0.01,-0.0391 -1.70814,-6.92414 -5.33841,-13.59884 -9.478513,-20.01562 -0.0013,-0.003 -0.0026,-0.005 -0.0039,-0.008 C 90.158499,196.321 82.122773,186.59315 76.43527,174.91161 v -0.002 c -3.92e-4,-8.1e-4 -0.0016,-10e-4 -0.002,-0.002 -3.66846,-7.51658 -6.083939,-16.04595 -5.462891,-24.86524 0.613815,-9.49438 4.346027,-18.09281 8.486328,-25.82031 l 0.0039,-0.006 c 5.672726,-10.62715 12.353731,-20.16034 16.269585,-30.562256 l 0.002,-0.004 c 1.569256,-4.192742 2.621363,-8.476012 2.765625,-12.707028 0.0012,-0.01694 0.0025,-0.03386 0.0039,-0.05078 0.280607,-5.952831 0.0013,-12.094626 -0.451172,-18.220703 l 0.0078,0.08984 c -0.13539,-1.397364 -0.653051,-4.021587 0.910156,-6.802735 1.525079,-2.895343 4.459569,-4.789154 7.859379,-4.761718 z"
       sodipodi:nodetypes="sscccccccccccccsccccsssssccccsscccccccccccccccccccccscccccccccccccccscccccccccccccscccccccccccccccccccccccccccccccccccccccc" />
    <path
       style="opacity:0.539474;fill:#212121;fill-opacity:1;stroke:#231b14;stroke-width:0;stroke-linecap:round;stroke-dasharray:none;paint-order:stroke fill markers"
       d="m 119.70468,151.95001 5.0619,5.88784 10.20814,16.69688 13.66711,22.76046 4.21825,17.8393 -4.72444,-0.87878 -12.82346,-19.33323 -14.08894,-22.49683 z"
       id="path12" />
    <path
       style="opacity:0.539474;fill:#212121;fill-opacity:1;stroke:#231b14;stroke-width:0;stroke-linecap:round;stroke-dasharray:none;paint-order:stroke fill markers"
       d="m 69.683626,154.33588 4.936288,5.51219 9.954847,15.63158 13.327978,21.3083 4.113571,16.70111 -4.607201,-0.82271 -12.505261,-18.09973 -13.739336,-21.06149 z"
       id="path11" />
    <path
       style="opacity:0.539474;fill:#212121;fill-opacity:1;stroke:#231b14;stroke-width:0;stroke-linecap:round;stroke-dasharray:none;paint-order:stroke fill markers"
       d="m 97.491381,457.25941 20.896949,1.39861 28.95956,-2.87948 -2.46815,17.44154 -14.89113,2.38586 -29.78227,-1.56316 -3.702217,-4.77174 z"
       id="path10" />
    <path
       style="opacity:0.539474;fill:#212121;fill-opacity:1;stroke:#231b14;stroke-width:0;stroke-linecap:round;stroke-dasharray:none;paint-order:stroke fill markers"
       d="m 124.03522,343.2546 7.23608,24.75808 11.37983,21.7817 -0.80401,-14.13782 -13.48262,-30.91376 z"
       id="path9" />
    <path
       style="opacity:0.539474;fill:#212121;fill-opacity:1;stroke:#231b14;stroke-width:0;stroke-linecap:round;stroke-dasharray:none;paint-order:stroke fill markers"
       d="M 73.016,347.61769 79.822442,368.90964 90.526587,387.6419 89.770318,375.48337 77.08823,348.89754 Z"
       id="path8" />
    <path
       style="opacity:0.539474;fill:#212121;fill-opacity:1;stroke:#231b14;stroke-width:0;stroke-linecap:round;stroke-dasharray:none;paint-order:stroke fill markers"
       d="m 148.30642,245.5893 -11.60027,20.40332 -10.11939,18.01745 -3.53767,18.09972 4.44265,-3.86676 13.65707,-24.10554 9.31869,-20.92987 2.3707,-11.83985 z"
       id="path7"
       sodipodi:nodetypes="ccccccccc" />
    <path
       style="opacity:0.539474;fill:#212121;fill-opacity:1;stroke:#231b14;stroke-width:0;stroke-linecap:round;stroke-dasharray:none;paint-order:stroke fill markers"
       d="m 98.508871,243.43684 -11.60027,20.40332 -10.11939,18.01745 -3.53767,18.09972 4.44265,-3.86676 13.65707,-24.10554 7.73351,-17.93517 z"
       id="path6" />
    <path
       style="opacity:0.539474;fill:#212121;fill-opacity:1;stroke:#231b14;stroke-width:0;stroke-linecap:round;stroke-dasharray:none;paint-order:stroke fill markers"
       d="m 92.226002,77.98796 -11.60027,20.403322 -10.11939,18.017448 -3.53767,18.09972 4.44265,-3.86676 13.65707,-24.10554 7.73351,-17.935171 z"
       id="path5" />
    <path
       style="opacity:0.539474;fill:#212121;fill-opacity:1;stroke:#231b14;stroke-width:0;stroke-linecap:round;stroke-dasharray:none;paint-order:stroke fill markers"
       d="m 144.87974,78.892946 -11.60027,20.403322 -10.11939,18.017452 -3.53767,18.09972 4.44265,-3.86676 13.65707,-24.10554 7.73351,-17.935175 z"
       id="path4" />
    <path
       style="opacity:0.539474;fill:#212121;fill-opacity:1;stroke:#231b14;stroke-width:0;stroke-linecap:round;stroke-dasharray:none;paint-order:stroke fill markers"
       d="m 96.518585,35.801242 7.911755,-3.95588 36.30102,0.930796 4.18858,4.072229 v 15.125425 l -6.74826,-2.559687 -37.11547,0.232699 -5.81747,3.374133 z"
       id="path3" />
    <path
       id="path2"
       style="fill:#383838;stroke:#000000;stroke-width:0;stroke-linecap:round;stroke-linejoin:round;stroke-dasharray:none;stroke-opacity:0.999272"
       d="m 146.21152,31.42951 c -22.65878,-2.551957 -42.24203,-2.101758 -50.653519,0.667432 -2.501504,0.823533 -3.336915,16.014735 -3.773113,26.833077 v 0.0039 c -0.232954,5.699406 -0.920074,11.598465 -2.873047,17.339844 -3.614586,10.981341 -9.801343,20.357331 -15.052734,29.601557 -4.733127,8.34645 -8.944074,16.66586 -9.902344,25.45704 -0.0013,0.009 -0.0026,0.0182 -0.0039,0.0273 -0.70236,6.05677 0.49024,12.43776 2.878906,18.25391 0.0013,0.003 0.0026,0.005 0.0039,0.008 3.704028,9.08155 9.811065,17.3587 15.791016,26.01758 5.672643,8.17489 11.635688,16.82523 15.027344,27.01757 2.072303,6.14581 2.838571,12.6925 2.244143,19.15039 -0.914966,11.0003 -5.157637,21.07513 -9.92969,30.26172 -6.777432,13.0584 -14.921862,24.89572 -20.113281,37.72657 -2.752491,6.83448 -4.531929,13.99704 -4.46875,21.11523 4.7e-5,0.0111 4.7e-5,0.0221 0,0.0332 0.0054,11.14919 3.587692,22.24231 8.039062,33.05078 l 0.0039,0.006 c 5.709366,13.92923 13.106079,27.88733 16.873047,43.52735 10.77063,44.48996 -2.997664,66.32487 4.702295,72.14644 3.354586,2.53624 49.706475,-0.50477 51.743335,-1.70877 7.94202,-4.69458 4.65002,-26.51516 4.33953,-42.20176 v -0.002 c -0.21905,-8.51989 -0.63654,-16.92977 -2.5,-24.82031 -10e-4,-0.006 -0.003,-0.0117 -0.004,-0.0176 -3.54158,-15.28288 -10.81835,-29.74652 -16.76172,-45.13476 l -0.002,-0.006 c -4.3645,-11.25041 -8.11605,-23.27914 -8.36914,-35.98047 -0.20026,-6.70065 0.85441,-13.377 2.97461,-19.68164 l 0.002,-0.006 c 6.5e-4,-0.002 0.001,-0.004 0.002,-0.006 4.04038,-12.12859 10.93673,-22.55473 17.08398,-32.75586 l 0.004,-0.004 c 5.23152,-8.66049 10.22753,-17.24869 12.87695,-26.43945 v 0.006 c 0.96219,-3.35504 1.59981,-6.98439 1.74024,-10.38281 6.1e-4,-0.0124 0.001,-0.0247 0.002,-0.0371 0.27304,-5.41011 -0.85293,-10.96103 -2.92383,-16.11328 -0.002,-0.005 -0.004,-0.0104 -0.006,-0.0156 -3.01803,-7.59971 -7.82329,-14.72957 -12.78125,-21.91406 l -0.002,-0.002 c -5.97117,-8.66369 -12.58387,-17.52762 -16.84961,-28.03907 l -0.002,-0.006 c -5.6e-4,-10e-4 -0.001,-0.003 -0.002,-0.004 -3.07125,-7.51571 -4.5422,-15.91826 -3.23632,-24.25586 1.45864,-9.83883 5.96216,-18.47482 10.47265,-26.38477 v -0.002 c 5.42966,-9.515756 11.31598,-18.3925 14.57617,-28.007812 0.004,-0.01108 0.008,-0.02215 0.0117,-0.0332 1.56653,-4.492835 2.25059,-9.390584 2.50586,-14.429687 v -0.002 c 0.58305,-11.397011 0.0135,-29.440089 -3.68839,-29.857021 z m -39.38367,2.654802 c 9.16425,0.01546 18.35429,-0.03137 27.56445,0.02344 0.1017,6.32e-4 0.20334,0.0052 0.30469,0.01367 4.90988,0.409441 8.26191,4.60552 8.12304,9.287109 l -0.0117,-0.439453 c 0.63089,7.696173 1.09154,15.581601 0.50781,23.572266 -6.3e-4,0.01042 -10e-4,0.02084 -0.002,0.03125 -0.61078,7.54201 -3.3328,14.452115 -6.41601,20.724609 l -0.002,0.0039 c -5.74315,11.646756 -13.28354,21.665907 -17.78321,32.628897 -2.12068,5.20608 -3.42629,10.61604 -3.27343,15.99805 2e-5,0.008 2e-5,0.0156 0,0.0234 0.071,3.17497 0.62715,6.39356 1.51757,9.45703 4.1e-4,0.001 0.002,0.003 0.002,0.004 1.7e-4,6.1e-4 -1.8e-4,0.001 0,0.002 2.20122,7.51871 6.38241,14.55297 10.96679,21.49023 6.24341,9.44774 13.55588,18.78198 18.69141,29.83008 3.31302,7.12619 5.46252,15.09162 5.08594,23.32422 -0.37689,10.77857 -4.30104,20.74421 -8.94727,29.70312 -6.97078,13.49469 -15.72868,25.43195 -21.22265,38.51172 -1.59096,3.81311 -2.88333,7.80087 -3.65625,11.72852 -10e-4,0.006 -0.003,0.0117 -0.004,0.0176 -0.88457,4.39894 -1.03547,9.17236 -0.66992,13.81445 l 0.002,0.002 c 0.86821,11.09688 4.7325,22.08374 9.1543,32.89063 v 0.002 c 5.35502,13.10447 11.77084,26.28505 15.31836,40.79883 8.3e-4,0.003 0.003,0.006 0.004,0.01 1.55428,6.18469 2.29985,12.47906 2.53516,18.72461 0.47817,11.76385 0.0883,23.47383 -0.52149,35.08203 -0.002,0.03 -0.004,0.06 -0.006,0.0899 -0.14082,1.86853 -0.14299,4.02092 -0.45313,6.375 -0.01,0.0765 -0.0212,0.1527 -0.0352,0.22851 -0.85737,4.4729 -4.85099,7.60806 -9.46875,7.20899 l 0.33985,0.0156 c -9.58189,0.002 -19.1618,-0.005 -28.73438,0.006 -3.56327,0.0208 -6.006208,-2.69518 -6.537105,-5.65625 -0.744564,-3.53823 -0.0824,-6.43569 -0.04297,-8.44726 5.98e-4,-0.043 0.0019,-0.086 0.0039,-0.12891 0.607337,-11.55214 1.007075,-23.09324 0.535157,-34.51758 -10e-6,-0.004 -10e-6,-0.008 0,-0.0117 -0.218715,-5.703 -0.884339,-11.3113 -2.253907,-16.74804 -0.0026,-0.008 -0.0052,-0.0169 -0.0078,-0.0254 -3.258399,-13.29281 -9.430739,-25.98056 -14.900226,-39.25259 v 0.004 C 77.939117,339.35788 73.656548,327.55081 72.68527,314.88127 v -0.004 c -0.548969,-6.7991 -0.0113,-13.73314 1.851562,-20.39844 3.14824,-11.5315 9.076355,-21.65846 14.763672,-31.31641 l 0.0039,-0.006 c 5.915381,-10.08247 11.966866,-19.82513 15.398436,-30.32617 2.49812,-7.64143 3.36826,-15.94035 1.43554,-23.45312 -0.003,-0.013 -0.007,-0.026 -0.01,-0.0391 -1.70814,-6.92414 -5.33841,-13.59884 -9.478513,-20.01562 -0.0013,-0.003 -0.0026,-0.005 -0.0039,-0.008 C 90.158499,179.20854 82.122773,169.48069 76.43527,157.79915 v -0.002 c -3.92e-4,-8.1e-4 -0.0016,-10e-4 -0.002,-0.002 -3.66846,-7.51658 -6.083939,-16.04595 -5.462891,-24.86524 0.613815,-9.49438 4.346027,-18.09281 8.486328,-25.82031 l 0.0039,-0.006 C 85.133333,96.476454 91.814338,86.943256 95.730192,76.541343 l 0.002,-0.0039 c 1.569256,-4.192746 2.621363,-8.476016 2.765625,-12.707032 0.0012,-0.01694 0.0025,-0.03386 0.0039,-0.05078 0.280607,-5.952831 0.0013,-12.094626 -0.451172,-18.220703 l 0.0078,0.08984 c -0.13539,-1.397364 -0.653051,-4.021587 0.910156,-6.802735 1.525079,-2.895343 4.459569,-4.789154 7.859379,-4.761718 z"
       sodipodi:nodetypes="sscccccccccccccsccccsssssccccsscccccccccccccccccccccscccccccccccccccscccccccccccccscccccccccccccccccccccccccccccccccccccccc" />
  </g>
</svg>
