<?xml version="1.0" encoding="UTF-8" standalone="no"?>
<!-- Created with Inkscape (http://www.inkscape.org/) -->

<svg
   width="237.9304"
   height="246.24506"
   viewBox="0 0 59.788599 61.877955"
   version="1.1"
   id="svg1"
   inkscape:version="1.4.2 (f4327f4, 2025-05-13)"
   sodipodi:docname="FruitArea.svg"
   inkscape:export-filename="CornerPhasing.png"
   inkscape:export-xdpi="96"
   inkscape:export-ydpi="96"
   xmlns:inkscape="http://www.inkscape.org/namespaces/inkscape"
   xmlns:sodipodi="http://sodipodi.sourceforge.net/DTD/sodipodi-0.dtd"
   xmlns="http://www.w3.org/2000/svg"
   xmlns:svg="http://www.w3.org/2000/svg">
  <sodipodi:namedview
     id="namedview1"
     pagecolor="#ffffff"
     bordercolor="#000000"
     borderopacity="0.25"
     inkscape:showpageshadow="2"
     inkscape:pageopacity="0.0"
     inkscape:pagecheckerboard="0"
     inkscape:deskcolor="#d1d1d1"
     inkscape:document-units="mm"
     inkscape:zoom="4.5430419"
     inkscape:cx="118.64297"
     inkscape:cy="187.6496"
     inkscape:window-width="3840"
     inkscape:window-height="2054"
     inkscape:window-x="-11"
     inkscape:window-y="-11"
     inkscape:window-maximized="1"
     inkscape:current-layer="layer1"
     showgrid="true"
     showguides="false">
    <inkscape:grid
       id="grid1"
       units="px"
       originx="-1.1523844"
       originy="-0.82268876"
       spacingx="10.583333"
       spacingy="10.583333"
       empcolor="#0099e5"
       empopacity="0.30196078"
       color="#0099e5"
       opacity="0.14901961"
       empspacing="5"
       enabled="true"
       visible="true" />
  </sodipodi:namedview>
  <defs
     id="defs1">
    <inkscape:path-effect
       effect="fillet_chamfer"
       id="path-effect23"
       is_visible="true"
       lpeversion="1"
       nodesatellites_param="F,0,0,1,0,1.1602673,0,1 @ F,0,1,1,0,1.1602673,0,1 @ F,0,1,1,0,1.1602673,0,1 @ F,0,1,1,0,1.1602673,0,1 @ F,0,1,1,0,1.1602673,0,1 @ F,0,1,1,0,1.1602673,0,1 @ F,0,1,1,0,1.1602673,0,1 @ F,0,1,1,0,1.1602673,0,1 @ F,0,1,1,0,1.1602673,0,1 @ F,0,1,1,0,1.1602673,0,1 @ F,0,1,1,0,1.1602673,0,1 @ F,0,1,1,0,1.1602673,0,1"
       radius="0"
       unit="px"
       method="auto"
       mode="F"
       chamfer_steps="1"
       flexible="false"
       use_knot_distance="true"
       apply_no_radius="true"
       apply_with_radius="true"
       only_selected="false"
       hide_knots="false" />
    <inkscape:path-effect
       effect="fillet_chamfer"
       id="path-effect5"
       is_visible="true"
       lpeversion="1"
       nodesatellites_param="F,0,0,1,0,0,0,1 @ F,0,0,1,0,2.0496102,0,1 @ F,0,0,1,0,0,0,1"
       radius="0"
       unit="px"
       method="auto"
       mode="F"
       chamfer_steps="1"
       flexible="false"
       use_knot_distance="true"
       apply_no_radius="true"
       apply_with_radius="true"
       only_selected="false"
       hide_knots="false" />
    <inkscape:path-effect
       effect="fillet_chamfer"
       id="path-effect28"
       is_visible="true"
       lpeversion="1"
       nodesatellites_param="F,0,0,1,0,0,0,1 @ F,0,0,1,0,0,0,1 @ F,0,0,1,0,0,0,1 @ F,0,0,1,0,0,0,1 @ F,0,0,1,0,0,0,1 @ F,0,0,1,0,0,0,1 @ F,0,0,1,0,0,0,1 @ F,0,0,1,0,0,0,1 @ F,0,0,1,0,0,0,1 @ F,0,0,1,0,0,0,1 @ F,0,0,1,0,0,0,1 @ F,0,0,1,0,0,0,1 | F,0,0,1,0,0,0,1 @ F,0,0,1,0,0,0,1 @ F,0,0,1,0,0,0,1 @ F,0,0,1,0,0,0,1 @ F,0,0,1,0,0,0,1 @ F,0,0,1,0,0,0,1 @ F,0,0,1,0,0,0,1 @ F,0,0,1,0,0,0,1 @ F,0,0,1,0,0,0,1 @ F,0,0,1,0,0,0,1 @ F,0,0,1,0,0,0,1"
       radius="0"
       unit="px"
       method="auto"
       mode="F"
       chamfer_steps="1"
       flexible="false"
       use_knot_distance="true"
       apply_no_radius="true"
       apply_with_radius="true"
       only_selected="false"
       hide_knots="false" />
    <inkscape:path-effect
       effect="powerstroke"
       message=""
       id="path-effect4"
       is_visible="true"
       lpeversion="1.3"
       scale_width="1"
       interpolator_type="CentripetalCatmullRom"
       interpolator_beta="0.75"
       start_linecap_type="round"
       end_linecap_type="round"
       offset_points="10.839744,0.43679433"
       linejoin_type="spiro"
       miter_limit="4"
       not_jump="true"
       sort_points="true" />
    <inkscape:path-effect
       effect="simplify"
       id="path-effect3"
       is_visible="true"
       lpeversion="1.3"
       threshold="0.012"
       steps="1"
       smooth_angles="0"
       helper_size="0"
       simplify_individual_paths="false"
       simplify_just_coalesce="false"
       step="1" />
    <inkscape:path-effect
       effect="fillet_chamfer"
       id="path-effect5-4"
       is_visible="true"
       lpeversion="1"
       nodesatellites_param="F,0,0,1,0,0,0,1 @ F,0,0,1,0,2.0496102,0,1 @ F,0,0,1,0,0,0,1"
       radius="0"
       unit="px"
       method="auto"
       mode="F"
       chamfer_steps="1"
       flexible="false"
       use_knot_distance="true"
       apply_no_radius="true"
       apply_with_radius="true"
       only_selected="false"
       hide_knots="false" />
    <inkscape:path-effect
       effect="fillet_chamfer"
       id="path-effect5-4-5"
       is_visible="true"
       lpeversion="1"
       nodesatellites_param="F,0,0,1,0,0,0,1 @ F,0,0,1,0,2.0496102,0,1 @ F,0,0,1,0,0,0,1"
       radius="0"
       unit="px"
       method="auto"
       mode="F"
       chamfer_steps="1"
       flexible="false"
       use_knot_distance="true"
       apply_no_radius="true"
       apply_with_radius="true"
       only_selected="false"
       hide_knots="false" />
    <inkscape:path-effect
       effect="fillet_chamfer"
       id="path-effect23-7"
       is_visible="true"
       lpeversion="1"
       nodesatellites_param="F,0,1,1,0,1.437047,0,1 @ F,0,1,1,0,1.437047,0,1 @ F,0,1,1,0,1.437047,0,1 @ F,0,1,1,0,1.437047,0,1 @ F,0,1,1,0,1.437047,0,1 @ F,0,1,1,0,1.437047,0,1 @ F,0,1,1,0,1.437047,0,1 @ F,0,1,1,0,1.437047,0,1 @ F,0,1,1,0,1.437047,0,1 @ F,0,1,1,0,1.437047,0,1 @ F,0,1,1,0,1.437047,0,1 @ F,0,1,1,0,1.437047,0,1"
       radius="0"
       unit="px"
       method="auto"
       mode="F"
       chamfer_steps="1"
       flexible="false"
       use_knot_distance="true"
       apply_no_radius="true"
       apply_with_radius="true"
       only_selected="false"
       hide_knots="false" />
  </defs>
  <g
     inkscape:label="Ebene 1"
     inkscape:groupmode="layer"
     id="layer1"
     transform="translate(-1.3523872,-0.8226888)">
    <path
       d="m 52.081997,15.685356 v -3.261782 c 0,-0.02145 -5.35e-4,-0.04304 -10e-4,-0.06437 -0.624848,-0.557843 -1.509468,-0.904728 -2.49341,-0.904728 H 13.793461 c -1.902078,0 -3.433387,1.296472 -3.433387,2.906856 v 1.324024 z"
       style="fill-opacity:0.243811;stroke:#936f4b;stroke-width:0;stroke-linecap:round;stroke-linejoin:round;paint-order:fill markers stroke"
       id="path6" />
    <path
       d="m 59.502843,6.1200399 c 0.370613,0.946847 0.574125,1.9790279 0.574125,3.0602783 V 51.190157 c 0,4.629962 -3.727668,8.357113 -8.357629,8.357113 H 9.7094999 c -2.7597088,0 -5.1988646,-1.324202 -6.7189698,-3.374471 1.2165047,3.107057 4.2351193,5.296317 7.7835039,5.296317 h 42.009322 c 4.629962,0 8.35763,-3.727151 8.35763,-8.357112 V 11.102165 c 0,-1.8699067 -0.608273,-3.5927504 -1.638143,-4.9821251 z"
       style="fill:#837160;stroke:#936f4b;stroke-width:0;stroke-linecap:round;stroke-linejoin:round;paint-order:fill markers stroke"
       id="path9" />
    <rect
       style="fill:#000000;fill-opacity:0.304576;stroke:#936f4b;stroke-width:0;stroke-linecap:round;stroke-linejoin:round;stroke-dasharray:none;stroke-opacity:1;paint-order:fill markers stroke"
       id="rect1-2-6"
       width="58.258465"
       height="11.283448"
       x="2.2830348"
       y="51.417194"
       ry="4.1312151"
       rx="2.8189697" />
    <path
       d="m 9.7094999,0.8226888 c -4.6299616,0 -8.3571127,3.7276679 -8.3571127,8.3576294 V 51.190157 c 0,4.629962 3.7271511,8.357113 8.3571127,8.357113 H 51.719339 c 4.629961,0 8.357629,-3.727151 8.357629,-8.357113 V 9.1803182 c 0,-4.6299615 -3.727668,-8.3576294 -8.357629,-8.3576294 z M 13.886506,11.28975 h 35.519279 c 0.976387,0 1.854216,0.406572 2.474267,1.060401 5.03e-4,0.02501 10e-4,0.05031 10e-4,0.07545 V 47.94488 c 0,1.887476 -1.519551,3.407027 -3.407027,3.407027 H 12.95478 c -0.976386,0 -1.854217,-0.406571 -2.474268,-1.0604 -5.03e-4,-0.02501 -10e-4,-0.05031 -10e-4,-0.07545 v -35.51928 c 0,-1.887476 1.519552,-3.407027 3.407027,-3.407027 z"
       style="fill:#d5ae85;stroke:#936f4b;stroke-width:0;stroke-linecap:round;stroke-linejoin:round;paint-order:fill markers stroke"
       id="path7" />
    <path
       d="m 12.95478,9.1834188 c -1.887476,0 -3.4070274,1.5190352 -3.4070274,3.4065102 v 35.519796 c 0,1.107917 0.5237014,2.088968 1.3379024,2.710429 -0.126323,-0.100118 -0.245274,-0.209268 -0.35605,-0.326078 -5.03e-4,-0.02501 -10e-4,-0.05031 -10e-4,-0.07545 V 14.899349 c 0,-1.887476 1.519551,-3.407027 3.407027,-3.407027 h 35.519279 c 0.950945,0 1.808303,0.385621 2.425175,1.009757 -0.04633,-1.846508 -1.547923,-3.3186602 -3.405993,-3.3186602 z"
       style="fill:#837160;stroke:#936f4b;stroke-width:0;stroke-linecap:round;stroke-linejoin:round;paint-order:fill markers stroke"
       id="path10" />
    <path
       d="m 51.987357,12.494585 c -0.620051,-0.653829 -1.497881,-1.0604 -2.474268,-1.0604 H 13.99381 c -1.887476,0 -3.407028,1.519551 -3.407028,3.407027 v 35.519279 c 0,0.02514 4.97e-4,0.05044 0.001,0.07545 0.620051,0.653829 1.497881,1.060401 2.474268,1.060401 h 35.519279 c 1.887476,0 3.407027,-1.519552 3.407027,-3.407028 V 12.570033 c 0,-0.02514 -4.97e-4,-0.05044 -0.001,-0.07545 z"
       style="fill:#e5d390;fill-opacity:0.493623;stroke:#936f4b;stroke-width:0;stroke-linecap:round;stroke-linejoin:round;paint-order:fill markers stroke"
       id="path4" />
  </g>
</svg>
