<?xml version="1.0" encoding="UTF-8" standalone="no"?>
<!-- Created with Inkscape (http://www.inkscape.org/) -->

<svg
   width="93.589859mm"
   height="63.480484mm"
   viewBox="0 0 93.589864 63.480482"
   version="1.1"
   id="svg1"
   inkscape:version="1.4.2 (f4327f4, 2025-05-13)"
   sodipodi:docname="BeachPreview.svg"
   inkscape:export-filename="DiscoPreview.png"
   inkscape:export-xdpi="96"
   inkscape:export-ydpi="96"
   xml:space="preserve"
   xmlns:inkscape="http://www.inkscape.org/namespaces/inkscape"
   xmlns:sodipodi="http://sodipodi.sourceforge.net/DTD/sodipodi-0.dtd"
   xmlns="http://www.w3.org/2000/svg"
   xmlns:svg="http://www.w3.org/2000/svg"><sodipodi:namedview
     id="namedview1"
     pagecolor="#ffffff"
     bordercolor="#000000"
     borderopacity="0.25"
     inkscape:showpageshadow="2"
     inkscape:pageopacity="0.0"
     inkscape:pagecheckerboard="0"
     inkscape:deskcolor="#d1d1d1"
     inkscape:document-units="mm"
     inkscape:zoom="6.4675924"
     inkscape:cx="103.97996"
     inkscape:cy="195.51325"
     inkscape:window-width="3840"
     inkscape:window-height="2054"
     inkscape:window-x="-11"
     inkscape:window-y="-11"
     inkscape:window-maximized="1"
     inkscape:current-layer="layer1"
     showgrid="true"><inkscape:grid
       id="grid2"
       units="px"
       originx="-80.204087"
       originy="-101.1455"
       spacingx="2.6458333"
       spacingy="2.6458333"
       empcolor="#0099e5"
       empopacity="0.30196078"
       color="#0099e5"
       opacity="0.14901961"
       empspacing="5"
       enabled="true"
       visible="true" /></sodipodi:namedview><defs
     id="defs1"><rect
       x="56.866434"
       y="57.717783"
       width="52.464996"
       height="20.740758"
       id="rect3" /></defs><path
     id="path19"
     style="display:none;fill:#a18fd9;stroke:#212532;stroke-width:1.10229;stroke-linejoin:round;stroke-miterlimit:8.2;stroke-opacity:0.995995"
     inkscape:transform-center-x="-0.074448879"
     inkscape:transform-center-y="0.094904335"
     d="m 99.716107,69.042054 c -3.3e-4,0.68279 -4.44853,3.14227 -5.06443,2.80038 -0.61591,-0.34189 -0.6116,-5.26801 0.005,-5.60891 0.61651,-0.3409 5.06012,2.12574 5.05953,2.80853 z" /><g
     inkscape:label="Ebene 1"
     inkscape:groupmode="layer"
     id="layer1"
     transform="translate(-83.719229,-78.972603)"
     style="display:inline"><path
       d="m 103.12373,128.6166 v 1.9513 c 0,0.39511 -1.35725,0.71314 -3.04323,0.71314 h -2.491317 c -0.20755,0.15853 -0.376992,0.31036 -0.499194,0.45165 -0.02742,0.0317 -0.102068,0.36195 -0.09767,1.02526 0.0044,0.66332 0.05296,1.72073 -0.804602,2.50992 -0.707561,0.65153 -1.437911,0.60161 -1.959054,0.64441 -0.44032,0.0362 -0.759411,0.13252 -0.794267,0.12144 0,0 -5.16e-4,-5.2e-4 -5.16e-4,-5.2e-4 h -5.17e-4 l -5.17e-4,-5.1e-4 -5.17e-4,-5.2e-4 -5.17e-4,-5.2e-4 v -5.1e-4 -5.2e-4 -5.2e-4 c 0,0 0,-5.1e-4 0,-5.1e-4 0,0 0,-5.2e-4 0,-5.2e-4 0,0 0,-5.2e-4 0,-5.2e-4 0,0 5.17e-4,-5.1e-4 5.17e-4,-5.1e-4 4.07e-4,-4.9e-4 0.0013,-0.002 0.0016,-0.002 -0.212508,0.16505 -0.357225,0.42155 -0.49196,0.81442 1.455464,0.52228 3.086508,1.0076 4.863269,1.44125 0.09803,-1.07544 0.357607,-2.17593 0.909505,-3.26388 0.82031,-1.61709 2.132224,-2.56198 3.211174,-3.34398 1.07895,-0.782 1.95729,-1.43045 2.40037,-2.06034 0.35183,-0.50016 0.64922,-1.06422 0.91209,-1.67845 -0.55657,0.16595 -1.29719,0.39742 -2.1146,0.68161 z"
       style="display:inline;fill:#99a169;stroke:#242027;stroke-width:0;stroke-linecap:round;stroke-linejoin:round"
       id="path48" /><path
       d="m 103.12373,126.29426 c 1.48807,-0.49169 2.58537,-0.77876 2.58537,-0.77876 a 1.1,1.1 0 0 1 0.37466,-0.031 c 0.20926,-0.71801 0.40932,-1.47066 0.6196,-2.2443 0.67708,-2.49107 1.49883,-5.26434 3.73,-7.41816 1.5578,-1.50379 3.46366,-1.90105 4.99246,-2.22415 1.52881,-0.32311 2.73384,-0.60141 3.47472,-1.1467 1.63343,-1.2022 2.8995,-3.19802 4.27313,-5.43946 1.37363,-2.24144 2.8576,-4.73264 5.35574,-6.50193 3.86126,-2.734734 8.33416,-3.418957 12.42198,-4.150651 4.08783,-0.731694 7.76922,-1.499435 10.5544,-3.728455 1.91555,-1.533043 4.43275,-5.351476 6.2482,-8.704895 0.31414,-0.580281 0.61064,-1.146184 0.88625,-1.685685 -4.38814,-0.765398 -9.37679,-1.225248 -14.64304,-1.225248 h -25.02224 v 4.840531 c 0,1.625814 -1.20246,2.934705 -2.69648,2.934705 h -7.90287 c -1.49402,0 -2.69648,-1.308891 -2.69648,-2.934705 v -4.145483 c -5.4126,0.690759 -10.133478,1.843734 -13.660666,3.220475 -2.893421,1.129368 -4.943488,2.434963 -5.855457,3.279386 -0.3921,0.36306 -0.472841,0.478058 -0.517281,0.52555 V 119.5448 H 100.0805 c 1.68598,0 3.04323,0.31804 3.04323,0.71314 z"
       style="display:inline;fill:#99a169;stroke:#242027;stroke-width:0;stroke-linecap:round;stroke-linejoin:round"
       id="path45" /><path
       d="m 90.891401,136.02855 c 0.219482,-0.61536 0.565589,-1.27079 1.231449,-1.77095 0.734261,-0.55161 1.424581,-0.49572 1.925981,-0.53692 0.377246,-0.031 0.626234,-0.12198 0.672827,-0.11575 0.0324,-0.0914 0.07464,-0.33079 0.07131,-0.83148 -0.0026,-0.39702 -0.04708,-0.93388 0.105936,-1.49241 h -9.253182 v 1.40921 c 0.04444,0.0475 0.125181,0.16249 0.517281,0.52555 0.78861,0.7302 2.428308,1.80503 4.728394,2.81275 z"
       style="display:inline;fill:#99a169;stroke:#242027;stroke-width:0;stroke-linecap:round;stroke-linejoin:round"
       id="path41" /><path
       d="m 114.64034,140.38539 c 0.38694,-0.84534 1.03187,-1.41709 1.51205,-1.93993 0.54317,-0.59142 0.80443,-1.03353 0.82941,-1.2361 -2.8e-4,5.3e-4 -7.9e-4,0.001 -0.001,0.002 -1.7e-4,2.4e-4 -8.4e-4,0.001 -0.001,0.002 l -5.2e-4,5.2e-4 -5.1e-4,5.1e-4 h -5.2e-4 c -2.3e-4,8e-5 -0.001,4.8e-4 -0.002,5.2e-4 -2.6e-4,1e-5 -0.001,2e-5 -0.002,0 -0.0321,-0.006 -0.1479,-0.2143 -0.45734,-0.50281 -0.39317,-0.36658 -1.02948,-0.79202 -1.27537,-1.7384 -0.30886,-1.18876 0.13815,-2.18829 0.42581,-2.94917 0.28767,-0.76088 0.41658,-1.27058 0.32608,-1.58233 -0.21727,-0.74848 -1.21988,-1.72226 -2.40244,-2.75384 -1.18257,-1.03158 -2.57448,-2.14455 -2.9161,-3.91604 -0.0103,-0.0534 -0.0194,-0.10654 -0.0274,-0.15968 -0.0612,0.21347 -0.12128,0.43104 -0.18138,0.65216 -0.64824,2.38495 -1.22852,5.14276 -2.95124,7.59178 -0.99739,1.41787 -2.28785,2.24219 -3.30109,2.97656 -1.01324,0.73438 -1.71654,1.34892 -2.02107,1.94924 -0.32991,0.65034 -0.46695,1.42963 -0.49454,2.32285 3.89915,0.70569 8.29074,1.16995 12.94133,1.28106 z"
       style="display:inline;fill:#99a169;stroke:#242027;stroke-width:0;stroke-linecap:round;stroke-linejoin:round"
       id="path40" /><path
       d="m 162.59917,83.049357 c -0.41634,0.83951 -0.89273,1.768202 -1.41542,2.733683 -1.91063,3.52924 -4.32561,7.560194 -7.24038,9.892936 -3.72503,2.981195 -8.18264,3.783346 -12.30468,4.521174 -4.12203,0.73781 -7.93024,1.42243 -10.85567,3.49436 -1.64405,1.1644 -2.91473,3.12676 -4.28294,5.35936 -1.36821,2.2326 -2.83083,4.73141 -5.28908,6.54069 -1.68635,1.24114 -3.52489,1.51334 -4.97851,1.82056 -0.56204,0.11878 -1.05874,0.23829 -1.49242,0.37465 a 1.1,1.1 0 0 1 -0.11523,0.95136 c 0,0 -0.53953,0.84351 -1.03508,1.89446 -0.49554,1.05095 -0.82306,2.36435 -0.75396,2.72283 0.13738,0.71242 1.03637,1.65564 2.20348,2.67374 1.16712,1.01809 2.57213,2.09046 3.06803,3.79874 0.34478,1.18771 -0.0922,2.2059 -0.38292,2.97501 -0.28943,0.76558 -0.43168,1.29527 -0.35192,1.6123 l 5.2e-4,-5.1e-4 5.2e-4,-5.2e-4 h 5.1e-4 5.2e-4 l 5.2e-4,5.2e-4 c 0.0289,0.0152 0.25708,0.32565 0.6444,0.68678 0.42739,0.39849 1.1191,0.93021 1.1622,1.98075 0.0538,1.30853 -0.77955,2.16704 -1.40818,2.85151 -0.15123,0.16467 -0.29533,0.325 -0.42788,0.47749 h 26.6516 c 9.99743,0 18.99466,-1.65738 24.78092,-3.91604 2.89313,-1.12933 4.94365,-2.43504 5.85546,-3.27939 0.39192,-0.36293 0.47331,-0.47591 0.51779,-0.52348 V 88.733248 c -0.0445,-0.04757 -0.12587,-0.160551 -0.51779,-0.523483 -0.91181,-0.844348 -2.96233,-2.150055 -5.85546,-3.279386 -1.77792,-0.694009 -3.85882,-1.33119 -6.17895,-1.881022 z"
       style="display:inline;fill:#99a169;stroke:#242027;stroke-width:0;stroke-linecap:round;stroke-linejoin:round"
       id="path38" /><path
       id="rect1"
       style="fill:#412c01;fill-opacity:1;stroke:#d1e7f1;stroke-width:0;stroke-linecap:round;paint-order:fill markers stroke"
       d="m 101.19675,100.42832 c -1.494021,0 -2.697091,0.94416 -2.697091,2.11653 v 6.40665 c -0.12094,0.33951 -0.24835,0.64213 -0.366907,0.81676 -0.959762,1.41368 -3.336247,1.79251 -3.345966,1.79407 l 5.962114,0.0777 c 0.14556,0.019 0.29523,0.0285 0.44785,0.0285 h 8.02025 l -0.001,0.003 6.63025,0.13866 c 0,0 -2.36971,-0.45786 -3.28294,-1.9062 -0.13603,-0.21575 -0.27924,-0.61915 -0.40672,-1.04764 v -6.31045 c 0,-1.17237 -1.20306,-2.11653 -2.69708,-2.11653 z" /><rect
       style="fill:#816f4d;fill-opacity:1;stroke:#d1e7f1;stroke-width:0;stroke-linecap:round;stroke-dasharray:none;paint-order:fill markers stroke"
       id="rect2"
       width="10.39929"
       height="2.4512618"
       x="100.08974"
       y="101.05592"
       rx="2.6967814"
       ry="0.63198256" /><path
       id="rect1-5"
       style="display:inline;fill:#412c01;fill-opacity:1;stroke:#d1e7f1;stroke-width:0;stroke-linecap:round;paint-order:fill markers stroke"
       d="m 151.06746,121.14223 c -1.52351,0 -2.75032,0.9628 -2.75032,2.15831 v 6.53311 c -0.12333,0.34621 -0.25325,0.6548 -0.37415,0.83288 -0.97871,1.44159 -3.40211,1.8279 -3.41202,1.82948 l 6.07981,0.0792 c 0.14843,0.0194 0.30105,0.0291 0.45668,0.0291 h 8.17857 l -10e-4,0.003 6.76112,0.1414 c 0,0 -2.41648,-0.4669 -3.34774,-1.94382 -0.13872,-0.22001 -0.28476,-0.63137 -0.41475,-1.06833 v -6.43501 c 0,-1.19551 -1.22681,-2.15831 -2.75031,-2.15831 z" /><g
       id="path14"
       style="opacity:1"><path
         style="baseline-shift:baseline;display:inline;overflow:visible;vector-effect:none;fill:#99a169;fill-opacity:0;stroke-linecap:round;paint-order:fill markers stroke;enable-background:accumulate;stop-color:#000000;stop-opacity:1"
         d="m 162.59196,78.454681 c 0,0 -5.037,11.832426 -9.86732,15.698212 -6.51021,5.210214 -16.28148,3.140806 -23.06817,7.947457 -4.14219,2.9337 -5.50893,8.90919 -9.60061,11.92067 -2.42722,1.78643 -6.08969,1.10285 -8.26721,3.20487 -3.57688,3.45288 -3.0111,9.44848 -5.86705,13.50849 -1.44047,2.04776 -4.34219,2.94792 -5.46703,5.16533 -2.082624,4.10544 1.23987,9.51647 -1.466763,13.28139 -2.630996,3.65971 -8.357235,3.13956 -12.000786,5.76615 -4.009035,2.89005 -6.077154,8.36672 -10.400663,10.6722 -2.216913,1.18216 -5.059433,-0.12661 -7.200465,1.21115 -3.264491,2.03971 -3.817358,7.05867 -6.933787,9.34549 -8.481131,6.22343 -29.201899,9.84173 -29.201899,9.84173"
         id="path22" /></g><rect
       style="display:inline;fill:#816f4d;fill-opacity:1;stroke:#d1e7f1;stroke-width:0;stroke-linecap:round;stroke-dasharray:none;paint-order:fill markers stroke"
       id="rect2-51"
       width="10.604565"
       height="2.4996479"
       x="149.9386"
       y="121.78221"
       rx="2.7500138"
       ry="0.6444574" /><path
       d="m 90.891401,136.02855 c 0.359791,0.15764 0.735682,0.31388 1.127063,0.46664 0.299324,0.11683 0.607253,0.23173 0.923458,0.3452 0.134735,-0.39287 0.279452,-0.64937 0.49196,-0.81442 -2.71e-4,3.4e-4 -0.0011,0.002 -0.0016,0.002 0,0 -5.17e-4,5.1e-4 -5.17e-4,5.1e-4 0,0 0,5.2e-4 0,5.2e-4 0,0 0,5.2e-4 0,5.2e-4 0,0 0,5.1e-4 0,5.1e-4 v 5.2e-4 5.2e-4 5.1e-4 l 5.17e-4,5.2e-4 5.17e-4,5.2e-4 5.17e-4,5.1e-4 h 5.17e-4 c 0,0 5.16e-4,5.2e-4 5.16e-4,5.2e-4 0.03486,0.0111 0.353947,-0.0853 0.794267,-0.12144 0.521143,-0.0428 1.251493,0.007 1.959054,-0.64441 0.857561,-0.78919 0.808977,-1.8466 0.804602,-2.50992 -0.0044,-0.66331 0.07025,-0.99356 0.09767,-1.02526 0.122202,-0.14129 0.291644,-0.29312 0.499194,-0.45165 h -2.690275 c -0.153014,0.55853 -0.108555,1.09539 -0.105936,1.49241 0.0033,0.50069 -0.03891,0.7401 -0.07131,0.83148 -0.04659,-0.006 -0.295581,0.0848 -0.672827,0.11575 -0.5014,0.0412 -1.19172,-0.0147 -1.925981,0.53692 -0.66586,0.50016 -1.011967,1.15559 -1.231449,1.77095 z"
       style="baseline-shift:baseline;display:inline;overflow:visible;opacity:1;vector-effect:none;fill:#7a8983;fill-opacity:0.777982;stroke-linecap:round;paint-order:fill markers stroke;enable-background:accumulate;stop-color:#000000;stop-opacity:1"
       id="path42" /><path
       d="m 162.59917,83.049357 c -1.25326,-0.297001 -2.5763,-0.568088 -3.95893,-0.809253 -0.27561,0.539501 -0.57211,1.105404 -0.88625,1.685685 -1.81545,3.353419 -4.33265,7.171852 -6.2482,8.704895 -2.78518,2.22902 -6.46657,2.996761 -10.5544,3.728455 -4.08782,0.731694 -8.56072,1.415917 -12.42198,4.150651 -2.49814,1.76929 -3.98211,4.26049 -5.35574,6.50193 -1.37363,2.24144 -2.6397,4.23726 -4.27313,5.43946 -0.74088,0.54529 -1.94591,0.82359 -3.47472,1.1467 -1.5288,0.3231 -3.43466,0.72036 -4.99246,2.22415 -2.23117,2.15382 -3.05292,4.92709 -3.73,7.41816 -0.21028,0.77364 -0.41034,1.52629 -0.6196,2.2443 a 1.1,1.1 0 0 0 -0.37466,0.031 c 0,0 -1.0973,0.28707 -2.58537,0.77876 v 2.32234 c 0.81741,-0.28419 1.55803,-0.51566 2.1146,-0.68161 -0.26287,0.61423 -0.56026,1.17829 -0.91209,1.67845 -0.44308,0.62989 -1.32142,1.27834 -2.40037,2.06034 -1.07895,0.782 -2.390864,1.72689 -3.211174,3.34398 -0.551898,1.08795 -0.811478,2.18844 -0.909505,3.26388 1.231291,0.30053 2.532519,0.57632 3.893819,0.82269 0.0276,-0.89322 0.16463,-1.67251 0.49454,-2.32285 0.30453,-0.60032 1.00783,-1.21486 2.02107,-1.94924 1.01324,-0.73437 2.3037,-1.55869 3.30109,-2.97656 1.72272,-2.44902 2.303,-5.20683 2.95124,-7.59178 0.0601,-0.22112 0.1202,-0.43869 0.18138,-0.65216 0.008,0.0531 0.0171,0.1063 0.0274,0.15968 0.34162,1.77149 1.73353,2.88446 2.9161,3.91604 1.18256,1.03158 2.18517,2.00536 2.40244,2.75384 0.0905,0.31175 -0.0384,0.82145 -0.32608,1.58233 -0.28766,0.76088 -0.73467,1.76041 -0.42581,2.94917 0.24589,0.94638 0.8822,1.37182 1.27537,1.7384 0.30944,0.28851 0.4252,0.49692 0.45734,0.50281 2.7e-4,2e-5 0.001,1e-5 0.002,0 2.5e-4,-4e-5 0.001,-4.4e-4 0.002,-5.2e-4 h 5.2e-4 l 5.1e-4,-5.1e-4 5.2e-4,-5.2e-4 c 1.9e-4,-2.1e-4 8.6e-4,-0.001 0.001,-0.002 2.5e-4,-4.1e-4 7.6e-4,-0.002 0.001,-0.002 0,0 0,0 0,0 0,0 0,5.2e-4 0,5.2e-4 -0.025,0.20257 -0.28624,0.64468 -0.82941,1.2361 -0.48018,0.52284 -1.12511,1.09459 -1.51205,1.93993 0.71457,0.0171 1.43568,0.0258 2.16162,0.0258 h 0.54364 c 0.13255,-0.15249 0.27665,-0.31282 0.42788,-0.47749 0.62863,-0.68447 1.46193,-1.54298 1.40818,-2.85151 -0.0431,-1.05054 -0.73481,-1.58226 -1.1622,-1.98075 -0.38732,-0.36113 -0.61545,-0.67155 -0.6444,-0.68678 l -5.2e-4,-5.2e-4 h -5.2e-4 -5.1e-4 l -5.2e-4,5.2e-4 -5.2e-4,5.1e-4 c -0.0798,-0.31703 0.0625,-0.84672 0.35192,-1.6123 0.29077,-0.76911 0.7277,-1.7873 0.38292,-2.97501 -0.4959,-1.70828 -1.90091,-2.78065 -3.06803,-3.79874 -1.16711,-1.0181 -2.0661,-1.96132 -2.20348,-2.67374 -0.0691,-0.35848 0.25842,-1.67188 0.75396,-2.72283 0.49555,-1.05095 1.03508,-1.89446 1.03508,-1.89446 a 1.1,1.1 0 0 0 0.11523,-0.95136 c 0.43368,-0.13636 0.93038,-0.25587 1.49242,-0.37465 1.45362,-0.30722 3.29216,-0.57942 4.97851,-1.82056 2.45825,-1.80928 3.92087,-4.30809 5.28908,-6.54069 1.36821,-2.2326 2.63889,-4.19496 4.28294,-5.35936 2.92543,-2.07193 6.73364,-2.75655 10.85567,-3.49436 4.12204,-0.737828 8.57965,-1.539979 12.30468,-4.521174 2.91477,-2.332742 5.32975,-6.363696 7.24038,-9.892936 0.52269,-0.965481 0.99908,-1.894173 1.41542,-2.733683 z"
       style="baseline-shift:baseline;display:inline;overflow:visible;opacity:1;vector-effect:none;fill:#7a8983;fill-opacity:0.777982;stroke-linecap:round;paint-order:fill markers stroke;enable-background:accumulate;stop-color:#000000;stop-opacity:1"
       id="path39" /><rect
       style="fill:#412c01;fill-opacity:1;stroke:#d1e7f1;stroke-width:0;stroke-linecap:round;stroke-dasharray:none;paint-order:fill markers stroke"
       id="rect4"
       width="35.754547"
       height="9.9429779"
       x="134.24196"
       y="96.475449"
       rx="2.5783172"
       ry="0.60422081" /><rect
       style="fill:#412c01;fill-opacity:1;stroke:#d1e7f1;stroke-width:0;stroke-linecap:round;stroke-dasharray:none;paint-order:fill markers stroke"
       id="rect5"
       width="1.6334058"
       height="4.0480061"
       x="156.33255"
       y="93.969849"
       rx="2.5783172"
       ry="0.60422081" /><rect
       style="fill:#412c01;fill-opacity:1;stroke:#d1e7f1;stroke-width:0;stroke-linecap:round;stroke-dasharray:none;paint-order:fill markers stroke"
       id="rect6"
       width="6.462606"
       height="2.0595117"
       x="65.489716"
       y="157.27618"
       rx="2.5783174"
       ry="0.60422081"
       transform="rotate(-32.965035)" /><rect
       style="fill:#d6c25e;fill-opacity:1;stroke:#d1e7f1;stroke-width:0;stroke-linecap:round;stroke-dasharray:none;paint-order:fill markers stroke"
       id="rect10"
       width="19.191641"
       height="14.932066"
       x="122.75899"
       y="107.76344"
       rx="2.9577725"
       ry="3.2186975" /><rect
       style="fill:#aba54b;fill-opacity:1;stroke:#d1e7f1;stroke-width:0;stroke-linecap:round;stroke-dasharray:none;paint-order:fill markers stroke"
       id="rect9"
       width="4.073472"
       height="7.1693101"
       x="128.36809"
       y="109.05875"
       rx="3.4199245"
       ry="1.0331355" /><rect
       style="fill:#f0e869;fill-opacity:1;stroke:#d1e7f1;stroke-width:0;stroke-linecap:round;stroke-dasharray:none;paint-order:fill markers stroke"
       id="rect7"
       width="14.58303"
       height="12.627764"
       x="123.88729"
       y="100.34151"
       rx="2.9577725"
       ry="3.2186975" /><rect
       style="fill:#c3d35c;fill-opacity:1;stroke:#d1e7f1;stroke-width:0;stroke-linecap:round;stroke-dasharray:none;paint-order:fill markers stroke"
       id="rect8"
       width="12.057475"
       height="3.9563596"
       x="125.27226"
       y="108.19823"
       rx="3.4199245"
       ry="3.7216189" /><rect
       style="fill:#c3d35c;fill-opacity:1;stroke:#d1e7f1;stroke-width:0;stroke-linecap:round;stroke-dasharray:none;paint-order:fill markers stroke"
       id="rect11"
       width="17.498188"
       height="13.614474"
       x="-120.00386"
       y="84.043823"
       rx="2.6967814"
       ry="2.9346826"
       transform="scale(-1,1)" /><rect
       style="fill:#aba54b;fill-opacity:1;stroke:#d1e7f1;stroke-width:0;stroke-linecap:round;stroke-dasharray:none;paint-order:fill markers stroke"
       id="rect12"
       width="3.7140324"
       height="6.5366969"
       x="-114.88965"
       y="85.224823"
       rx="3.1181533"
       ry="0.94197261"
       transform="scale(-1,1)" /><path
       d="m 105.67913,81.709904 v 4.145483 c 0,1.625814 1.20246,2.934705 2.69648,2.934705 h 7.90287 c 1.49402,0 2.69648,-1.308891 2.69648,-2.934705 v -4.840531 h -2.173 c -3.90381,0 -7.65531,0.25252 -11.12283,0.695048 z"
       style="fill:#f0e869;stroke:#d1e7f1;stroke-width:0;stroke-linecap:round;paint-order:fill markers stroke"
       id="path47" /><rect
       style="fill:#d6c25e;fill-opacity:1;stroke:#d1e7f1;stroke-width:0;stroke-linecap:round;stroke-dasharray:none;paint-order:fill markers stroke"
       id="rect14"
       width="10.993535"
       height="3.607254"
       x="-117.71236"
       y="84.440239"
       rx="3.1181533"
       ry="3.3932266"
       transform="scale(-1,1)" /><g
       id="path15"
       style="opacity:1"><path
         style="baseline-shift:baseline;display:inline;overflow:visible;vector-effect:none;fill:#99a169;fill-opacity:0;stroke-linecap:round;paint-order:fill markers stroke;enable-background:accumulate;stop-color:#000000;stop-opacity:1"
         d="m 113.69969,118.14355 c 0,0 -2.29913,3.57767 -1.94374,5.42062 0.479,2.4839 4.58228,4.11291 5.29545,6.56967 0.43528,1.49946 -1.13475,3.05708 -0.74366,4.56236 0.23201,0.89295 1.7385,1.52308 1.77574,2.43015 0.0612,1.49001 -2.1872,2.64285 -2.58428,4.10912 -0.20029,0.73955 0.49989,1.54481 0.13188,2.25356 -0.68133,1.31223 -3.6875,1.75749 -4.03549,3.12952 -0.33827,1.33369 1.82937,2.43534 2.19649,3.76407 0.40394,1.46201 -0.75169,3.06221 -0.0384,4.46671 0.36572,0.72017 1.8013,1.04402 2.08738,1.78118 0.43624,1.12392 -1.08924,2.30625 -0.789,3.45128 0.81706,3.11614 6.77842,8.27005 6.77842,8.27005"
         id="path20" /></g><g
       id="path16"
       style="opacity:1"><path
         style="baseline-shift:baseline;display:inline;overflow:visible;vector-effect:none;fill:#99a169;fill-opacity:0;stroke-linecap:round;paint-order:fill markers stroke;enable-background:accumulate;stop-color:#000000;stop-opacity:1"
         d="m 76.550941,168.05791 c 0,0 -0.485999,-4.22487 0.645611,-5.72228 1.525178,-2.01817 5.926315,-1.67095 7.649701,-3.56152 1.051855,-1.15388 0.32952,-3.24419 1.344279,-4.42279 0.601977,-0.69915 2.231956,-0.60043 2.665347,-1.39814 0.711938,-1.31035 -0.797743,-3.33648 -0.507595,-4.8276 0.146332,-0.75209 1.129842,-1.1661 1.112058,-1.9645 -0.0329,-1.4782 -2.534706,-3.20338 -2.242052,-4.58827 0.284472,-1.34619 2.715768,-1.37916 3.631165,-2.40986 1.007214,-1.13409 0.675592,-3.07989 1.935099,-4.02596 0.645801,-0.48512 2.077083,-0.14278 2.658893,-0.67826 0.88713,-0.8164 0.0393,-2.55023 0.81367,-3.44555 2.10738,-2.43657 9.730493,-4.43376 9.730493,-4.43376"
         id="path17" /></g><rect
       style="fill:#1a150c;fill-opacity:1;stroke:#7a8983;stroke-width:0;stroke-linecap:round;stroke-dasharray:none;stroke-opacity:0.777982;paint-order:fill markers stroke"
       id="rect23"
       width="33.09304"
       height="1.5065118"
       x="135.49739"
       y="97.32914"
       rx="2.5783172"
       ry="1.5065118" /><path
       id="path49"
       style="fill:#412c01;stroke:#d1e7f1;stroke-width:0;stroke-linecap:round;paint-order:fill markers stroke"
       d="M 85.645726 119.5448 L 85.645726 120.55249 L 98.598424 120.55249 C 100.2844 120.55249 101.64165 120.94929 101.64165 121.44185 C 101.64165 121.9344 100.2844 122.33068 98.598424 122.33068 L 85.645726 122.33068 L 85.645726 131.28104 L 94.898908 131.28104 L 97.589183 131.28104 L 100.0805 131.28104 C 101.76648 131.28104 103.12373 130.96301 103.12373 130.5679 L 103.12373 128.6166 L 103.12373 126.29426 L 103.12373 120.25794 C 103.12373 119.86284 101.76648 119.5448 100.0805 119.5448 L 85.645726 119.5448 z " /><rect
       style="fill:#412c01;fill-opacity:1;stroke:#d1e7f1;stroke-width:0;stroke-linecap:round;stroke-dasharray:none;paint-order:fill markers stroke"
       id="rect25"
       width="1.927965"
       height="4.7780004"
       x="-148.3371"
       y="16.740179"
       rx="3.0432765"
       ry="0.71318257"
       transform="matrix(-0.72157361,-0.69233772,-0.69233772,0.72157361,0,0)" /><rect
       style="fill:#412c01;fill-opacity:1;stroke:#d1e7f1;stroke-width:0;stroke-linecap:round;stroke-dasharray:none;paint-order:fill markers stroke"
       id="rect26"
       width="7.6280355"
       height="2.4309125"
       x="-144.30255"
       y="-53.131462"
       rx="3.0432765"
       ry="0.71318257"
       transform="matrix(-0.30141624,-0.95349266,-0.95349266,0.30141624,0,0)" /><path
       d="m 85.645726,120.55249 v 1.77819 h 12.952698 c 1.685976,0 3.043226,-0.39628 3.043226,-0.88883 0,-0.49256 -1.35725,-0.88936 -3.043226,-0.88936 z"
       style="fill:#1a150c;stroke:#7a8983;stroke-width:0;stroke-linecap:round;stroke-opacity:0.777982;paint-order:fill markers stroke"
       id="path46" /></g></svg>
