<?xml version="1.0" encoding="UTF-8" standalone="no"?>
<!-- Created with Inkscape (http://www.inkscape.org/) -->

<svg
   width="93.589859mm"
   height="63.480484mm"
   viewBox="0 0 93.589864 63.480482"
   version="1.1"
   id="svg1"
   inkscape:version="1.4.2 (f4327f4, 2025-05-13)"
   sodipodi:docname="DefaultPreview.svg"
   inkscape:export-filename="DiscoPreview.png"
   inkscape:export-xdpi="96"
   inkscape:export-ydpi="96"
   xml:space="preserve"
   xmlns:inkscape="http://www.inkscape.org/namespaces/inkscape"
   xmlns:sodipodi="http://sodipodi.sourceforge.net/DTD/sodipodi-0.dtd"
   xmlns="http://www.w3.org/2000/svg"
   xmlns:svg="http://www.w3.org/2000/svg"><sodipodi:namedview
     id="namedview1"
     pagecolor="#ffffff"
     bordercolor="#000000"
     borderopacity="0.25"
     inkscape:showpageshadow="2"
     inkscape:pageopacity="0.0"
     inkscape:pagecheckerboard="0"
     inkscape:deskcolor="#d1d1d1"
     inkscape:document-units="mm"
     inkscape:zoom="3.2337962"
     inkscape:cx="205.9499"
     inkscape:cy="130.96064"
     inkscape:window-width="3840"
     inkscape:window-height="2054"
     inkscape:window-x="-11"
     inkscape:window-y="-11"
     inkscape:window-maximized="1"
     inkscape:current-layer="layer1"
     showgrid="true"><inkscape:grid
       id="grid2"
       units="px"
       originx="-80.204087"
       originy="-101.1455"
       spacingx="2.6458333"
       spacingy="2.6458333"
       empcolor="#0099e5"
       empopacity="0.30196078"
       color="#0099e5"
       opacity="0.14901961"
       empspacing="5"
       enabled="true"
       visible="true" /></sodipodi:namedview><defs
     id="defs1"><rect
       x="56.866434"
       y="57.717783"
       width="52.464996"
       height="20.740758"
       id="rect3" /></defs><path
     id="path19"
     style="display:none;fill:#a18fd9;stroke:#212532;stroke-width:1.10229;stroke-linejoin:round;stroke-miterlimit:8.2;stroke-opacity:0.995995"
     inkscape:transform-center-x="-0.074448879"
     inkscape:transform-center-y="0.094904335"
     d="m 99.716107,69.042054 c -3.3e-4,0.68279 -4.44853,3.14227 -5.06443,2.80038 -0.61591,-0.34189 -0.6116,-5.26801 0.005,-5.60891 0.61651,-0.3409 5.06012,2.12574 5.05953,2.80853 z" /><g
     inkscape:label="Ebene 1"
     inkscape:groupmode="layer"
     id="layer1"
     transform="translate(-83.719229,-78.972603)"
     style="display:inline"><path
       d="m 116.91772,81.014856 c -9.99743,0 -18.996659,1.656788 -24.783501,3.915523 -2.893421,1.129368 -4.943488,2.434963 -5.855456,3.279386 -0.392101,0.36306 -0.472842,0.478058 -0.517281,0.52555 v 30.139765 a 74.012268,22.563063 0 0 1 41.780908,-3.93878 74.012268,22.563063 0 0 1 47.72474,5.3175 V 88.733248 c -0.0445,-0.04757 -0.12587,-0.160551 -0.5178,-0.523483 -0.9118,-0.844348 -2.96233,-2.150055 -5.85546,-3.279386 -5.78625,-2.258663 -14.78348,-3.915523 -24.78091,-3.915523 z"
       style="display:inline;fill:#476a4b;stroke:#476a4b;stroke-width:0;stroke-linecap:round;stroke-linejoin:round"
       id="path1" /><g
       id="path14"
       style="opacity:1"><path
         style="baseline-shift:baseline;display:inline;overflow:visible;vector-effect:none;fill:#99a169;fill-opacity:0;stroke-linecap:round;paint-order:fill markers stroke;enable-background:accumulate;stop-color:#000000;stop-opacity:1"
         d="m 162.59196,78.454681 c 0,0 -5.037,11.832426 -9.86732,15.698212 -6.51021,5.210214 -16.28148,3.140806 -23.06817,7.947457 -4.14219,2.9337 -5.50893,8.90919 -9.60061,11.92067 -2.42722,1.78643 -6.08969,1.10285 -8.26721,3.20487 -3.57688,3.45288 -3.0111,9.44848 -5.86705,13.50849 -1.44047,2.04776 -4.34219,2.94792 -5.46703,5.16533 -2.082624,4.10544 1.23987,9.51647 -1.466763,13.28139 -2.630996,3.65971 -8.357235,3.13956 -12.000786,5.76615 -4.009035,2.89005 -6.077154,8.36672 -10.400663,10.6722 -2.216913,1.18216 -5.059433,-0.12661 -7.200465,1.21115 -3.264491,2.03971 -3.817358,7.05867 -6.933787,9.34549 -8.481131,6.22343 -29.201899,9.84173 -29.201899,9.84173"
         id="path22" /></g><path
       d="m 175.26713,120.2538 a 74.012268,22.563063 0 0 0 -47.72474,-5.3175 74.012268,22.563063 0 0 0 -41.780908,3.93878 v 3.29179 10.52338 c 0.04444,0.0475 0.12518,0.16249 0.517281,0.52555 0.911967,0.84443 2.962035,2.15002 5.855456,3.27939 5.786842,2.25873 14.786071,3.91604 24.783501,3.91604 h 27.19524 c 9.99743,0 18.99466,-1.65738 24.78091,-3.91604 2.89313,-1.12933 4.94366,-2.43504 5.85546,-3.27939 0.39193,-0.36293 0.47331,-0.47591 0.5178,-0.52348 v -8.107 z"
       style="display:inline;fill:#9d86b7;stroke:#a1ae9a;stroke-width:0;stroke-linecap:square;paint-order:fill markers stroke"
       id="path2" /></g></svg>
