<?xml version="1.0" encoding="UTF-8" standalone="no"?>
<!-- Created with Inkscape (http://www.inkscape.org/) -->

<svg
   width="93.589859mm"
   height="63.480484mm"
   viewBox="0 0 93.589864 63.480482"
   version="1.1"
   id="svg1"
   inkscape:version="1.4.2 (f4327f4, 2025-05-13)"
   sodipodi:docname="RestaurantPreview.svg"
   inkscape:export-filename="DiscoPreview.png"
   inkscape:export-xdpi="96"
   inkscape:export-ydpi="96"
   xml:space="preserve"
   xmlns:inkscape="http://www.inkscape.org/namespaces/inkscape"
   xmlns:sodipodi="http://sodipodi.sourceforge.net/DTD/sodipodi-0.dtd"
   xmlns="http://www.w3.org/2000/svg"
   xmlns:svg="http://www.w3.org/2000/svg"><sodipodi:namedview
     id="namedview1"
     pagecolor="#ffffff"
     bordercolor="#000000"
     borderopacity="0.25"
     inkscape:showpageshadow="2"
     inkscape:pageopacity="0.0"
     inkscape:pagecheckerboard="0"
     inkscape:deskcolor="#d1d1d1"
     inkscape:document-units="mm"
     inkscape:zoom="4.5732784"
     inkscape:cx="152.07908"
     inkscape:cy="117.96789"
     inkscape:window-width="3840"
     inkscape:window-height="2054"
     inkscape:window-x="-11"
     inkscape:window-y="-11"
     inkscape:window-maximized="1"
     inkscape:current-layer="layer1"
     showgrid="true"
     showguides="false"><inkscape:grid
       id="grid2"
       units="px"
       originx="-80.204087"
       originy="-101.1455"
       spacingx="2.6458333"
       spacingy="2.6458333"
       empcolor="#0099e5"
       empopacity="0.30196078"
       color="#0099e5"
       opacity="0.14901961"
       empspacing="5"
       enabled="true"
       visible="true" /></sodipodi:namedview><defs
     id="defs1"><rect
       x="56.866434"
       y="57.717783"
       width="52.464996"
       height="20.740758"
       id="rect3" /></defs><path
     id="path19"
     style="display:none;fill:#a18fd9;stroke:#212532;stroke-width:1.10229;stroke-linejoin:round;stroke-miterlimit:8.2;stroke-opacity:0.995995"
     inkscape:transform-center-x="-0.074448879"
     inkscape:transform-center-y="0.094904335"
     d="m 99.716107,69.042054 c -3.3e-4,0.68279 -4.44853,3.14227 -5.06443,2.80038 -0.61591,-0.34189 -0.6116,-5.26801 0.005,-5.60891 0.61651,-0.3409 5.06012,2.12574 5.05953,2.80853 z" /><g
     inkscape:label="Ebene 1"
     inkscape:groupmode="layer"
     id="layer1"
     transform="translate(-83.719229,-78.972603)"
     style="display:inline"><path
       d="m 175.26713,126.90714 a 74.012268,22.563063 0 0 0 -47.72474,-5.3175 74.012268,22.563063 0 0 0 -39.224475,3.42925 v 2.04432 h 2.428275 a 74.012268,22.563063 0 0 1 36.7962,-2.98587 74.012268,22.563063 0 0 1 47.72474,5.31751 z"
       style="display:inline;fill:#476562;stroke:#a1ae9a;stroke-width:0;stroke-linecap:square;paint-order:fill markers stroke"
       id="path78" /><path
       d="m 175.26713,129.39485 a 74.012268,22.563063 0 0 0 -47.72474,-5.31751 74.012268,22.563063 0 0 0 -36.7962,2.98587 h 3.959965 c 0.65106,0 1.175122,0.28172 1.175122,0.63148 v 0.73588 c 0,0.0504 -0.01093,0.0993 -0.03152,0.14624 v 1.62729 c 0.01992,0.047 0.03049,0.0959 0.03049,0.14625 v 0.74672 c 0,0.0503 -0.0106,0.0988 -0.03049,0.14573 v 2.30322 c 0,0.01 -3.24e-4,0.0197 -0.001,0.0294 v 2.7156 c 0,0.38419 -0.523401,0.6935 -1.173572,0.6935 0,0 -2.826506,-1.2535 -4.336169,-1.25884 0.554949,0.26053 1.154329,0.5193 1.795239,0.76946 5.786842,2.25873 14.786071,3.91604 24.783501,3.91604 h 27.19524 c 9.99743,0 18.99466,-1.65738 24.78091,-3.91604 2.89313,-1.12933 4.94366,-2.43504 5.85546,-3.27939 0.39193,-0.36293 0.47331,-0.47591 0.5178,-0.52348 z"
       style="display:inline;fill:#1f302f;stroke:#a1ae9a;stroke-width:0;stroke-linecap:square;paint-order:fill markers stroke"
       id="path79" /><path
       d="m 127.54239,114.9363 a 74.012268,22.563063 0 0 0 -41.780908,3.93878 v 0.91674 c 0.106476,-0.017 0.219443,-0.0264 0.336413,-0.0264 h 1.035596 c 0.651055,0 1.175122,0.28224 1.175122,0.632 v 2.46239 c 0.0061,0.0266 0.0093,0.0536 0.0093,0.0811 v 2.07791 a 74.012268,22.563063 0 0 1 39.224475,-3.42925 74.012268,22.563063 0 0 1 47.72474,5.3175 v -2.32182 -4.33152 a 74.012268,22.563063 0 0 0 -47.72474,-5.3175 z"
       style="display:inline;fill:#313e3c;stroke:#a1ae9a;stroke-width:0;stroke-linecap:square;paint-order:fill markers stroke"
       id="path77" /><path
       d="m 175.04389,88.491919 a 74.012268,22.563063 0 0 1 -47.50046,5.260144 74.012268,22.563063 0 0 1 -41.780915,-3.938778 v -1.079004 c -2.79e-4,3.01e-4 -7.9e-4,7.72e-4 -0.001,0.001 v 18.323425 a 5.6416206,3.9399517 0 0 1 4.409033,-1.48156 5.6416206,3.9399517 0 0 1 5.641516,3.93981 5.6416206,3.9399517 0 0 1 -5.641516,3.94033 5.6416206,3.9399517 0 0 1 -4.409033,-1.48208 v 6.89984 a 74.012268,22.563063 0 0 1 41.780908,-3.93878 74.012268,22.563063 0 0 1 47.72474,5.3175 v -4.14393 a 5.6416206,3.9399517 0 0 1 -2.1332,0.29301 5.6416206,3.9399517 0 0 1 -5.64152,-3.94033 5.6416206,3.9399517 0 0 1 5.64152,-3.93981 5.6416206,3.9399517 0 0 1 2.1332,0.29249 V 97.432975 a 3.4778404,1.984375 0 0 1 -1.92391,0.331246 3.4778404,1.984375 0 0 1 -3.47834,-1.984375 3.4778404,1.984375 0 0 1 3.47834,-1.984375 3.4778404,1.984375 0 0 1 1.92391,0.331246 v -5.393469 c -0.03,-0.03202 -0.0764,-0.09377 -0.22324,-0.241329 z"
       style="display:inline;fill:#7f5454;stroke:#476a4b;stroke-width:0;stroke-linecap:round;stroke-linejoin:round"
       id="path91" /><g
       id="path14"
       style="opacity:1"><path
         style="baseline-shift:baseline;display:inline;overflow:visible;vector-effect:none;fill:#99a169;fill-opacity:0;stroke-linecap:round;paint-order:fill markers stroke;enable-background:accumulate;stop-color:#000000;stop-opacity:1"
         d="m 162.59196,78.454681 c 0,0 -5.037,11.832426 -9.86732,15.698212 -6.51021,5.210214 -16.28148,3.140806 -23.06817,7.947457 -4.14219,2.9337 -5.50893,8.90919 -9.60061,11.92067 -2.42722,1.78643 -6.08969,1.10285 -8.26721,3.20487 -3.57688,3.45288 -3.0111,9.44848 -5.86705,13.50849 -1.44047,2.04776 -4.34219,2.94792 -5.46703,5.16533 -2.082624,4.10544 1.23987,9.51647 -1.466763,13.28139 -2.630996,3.65971 -8.357235,3.13956 -12.000786,5.76615 -4.009035,2.89005 -6.077154,8.36672 -10.400663,10.6722 -2.216913,1.18216 -5.059433,-0.12661 -7.200465,1.21115 -3.264491,2.03971 -3.817358,7.05867 -6.933787,9.34549 -8.481131,6.22343 -29.201899,9.84173 -29.201899,9.84173"
         id="path22" /></g><path
       d="m 175.04389,88.491919 c -0.0713,-0.07167 -0.16643,-0.163508 -0.29456,-0.282154 -0.9118,-0.844348 -2.96233,-2.150055 -5.85546,-3.279386 -5.78625,-2.258663 -14.78348,-3.915523 -24.78091,-3.915523 h -27.19524 c -9.99743,0 -18.996659,1.656788 -24.783501,3.915523 -2.893421,1.129368 -4.943488,2.434963 -5.855456,3.279386 -0.389664,0.360803 -0.471626,0.476478 -0.516248,0.524516 v 1.079004 a 74.012268,22.563063 0 0 0 41.780915,3.938778 74.012268,22.563063 0 0 0 47.50046,-5.260144 z"
       style="display:inline;fill:#2d3231;stroke:#a1ae9a;stroke-width:0;stroke-linecap:square;paint-order:fill markers stroke;fill-opacity:1"
       id="path5" /><ellipse
       style="fill:#945c5c;fill-opacity:1;stroke:#476a4b;stroke-width:0;stroke-linecap:square;paint-order:fill markers stroke"
       id="path6"
       cx="130.51514"
       cy="104.8271"
       rx="5.291666"
       ry="2.6458333" /><ellipse
       style="fill:#945c5c;fill-opacity:1;stroke:#476a4b;stroke-width:0;stroke-linecap:square;paint-order:fill markers stroke"
       id="ellipse6"
       cx="146.39014"
       cy="110.11877"
       rx="5.291666"
       ry="2.6458333" /><ellipse
       style="fill:#945c5c;fill-opacity:1;stroke:#476a4b;stroke-width:0;stroke-linecap:square;paint-order:fill markers stroke"
       id="ellipse7"
       cx="97.561195"
       cy="99.535431"
       rx="5.291666"
       ry="2.6458333" /><ellipse
       style="fill:#945c5c;fill-opacity:1;stroke:#476a4b;stroke-width:0;stroke-linecap:square;paint-order:fill markers stroke"
       id="ellipse8"
       cx="105.18843"
       cy="106.33439"
       rx="3.4778404"
       ry="1.984375" /><ellipse
       style="fill:#945c5c;fill-opacity:1;stroke:#476a4b;stroke-width:0;stroke-linecap:square;paint-order:fill markers stroke"
       id="ellipse9"
       cx="141.76115"
       cy="104.1253"
       rx="3.4778404"
       ry="1.984375" /><ellipse
       style="fill:#945c5c;fill-opacity:1;stroke:#476a4b;stroke-width:0;stroke-linecap:square;paint-order:fill markers stroke"
       id="ellipse10"
       cx="156.8157"
       cy="113.20712"
       rx="3.4778404"
       ry="1.984375" /><path
       d="m 175.26713,94.126717 a 3.4778404,1.984375 0 0 0 -1.92391,-0.331246 3.4778404,1.984375 0 0 0 -3.47834,1.984375 3.4778404,1.984375 0 0 0 3.47834,1.984375 3.4778404,1.984375 0 0 0 1.92391,-0.331246 z"
       style="fill:#945c5c;stroke:#476a4b;stroke-width:0;stroke-linecap:square;paint-order:fill markers stroke"
       id="path92" /><ellipse
       style="fill:#945c5c;fill-opacity:1;stroke:#476a4b;stroke-width:0;stroke-linecap:square;paint-order:fill markers stroke"
       id="ellipse12"
       cx="164.9157"
       cy="101.95711"
       rx="4.0505676"
       ry="2.2707386" /><ellipse
       style="fill:#945c5c;fill-opacity:1;stroke:#476a4b;stroke-width:0;stroke-linecap:square;paint-order:fill markers stroke"
       id="ellipse13"
       cx="151.25206"
       cy="104.08438"
       rx="4.0505676"
       ry="2.2707386" /><ellipse
       style="fill:#945c5c;fill-opacity:1;stroke:#476a4b;stroke-width:0;stroke-linecap:square;paint-order:fill markers stroke"
       id="ellipse14"
       cx="109.36115"
       cy="101.22074"
       rx="4.0505676"
       ry="2.2707386" /><ellipse
       style="fill:#945c5c;fill-opacity:1;stroke:#476a4b;stroke-width:0;stroke-linecap:square;paint-order:fill markers stroke"
       id="ellipse15"
       cx="115.61584"
       cy="108.04449"
       rx="5.6416206"
       ry="3.9399517" /><ellipse
       style="fill:#945c5c;fill-opacity:1;stroke:#476a4b;stroke-width:0;stroke-linecap:square;paint-order:fill markers stroke"
       id="ellipse16"
       cx="156.68857"
       cy="96.999031"
       rx="5.6416206"
       ry="3.9399517" /><path
       d="m 175.26713,108.81523 a 5.6416206,3.9399517 0 0 0 -2.1332,-0.29249 5.6416206,3.9399517 0 0 0 -5.64152,3.93981 5.6416206,3.9399517 0 0 0 5.64152,3.94033 5.6416206,3.9399517 0 0 0 2.1332,-0.29301 z"
       style="fill:#945c5c;stroke:#476a4b;stroke-width:0;stroke-linecap:square;paint-order:fill markers stroke"
       id="path93" /><path
       d="m 99.088317,100.7258 c -0.597828,0 -1.079004,0.25588 -1.079004,0.57361 v 15.16755 c 0,0.11832 0.06672,0.22822 0.181384,0.31936 a 74.012268,22.563063 0 0 1 14.918473,-1.41697 v -14.06994 c 0,-0.31773 -0.48118,-0.57361 -1.07901,-0.57361 z"
       style="display:inline;fill:#ddd5d5;stroke:#476a4b;stroke-width:0;stroke-linecap:square;paint-order:fill markers stroke;fill-opacity:1"
       id="path31" /><path
       d="m 98.009313,110.32935 v 6.48074 a 74.012268,22.563063 0 0 1 15.099857,-1.44074 v -5.04 z"
       style="display:inline;fill:#402c2c;stroke:#476a4b;stroke-width:0;stroke-linecap:square;paint-order:fill markers stroke;fill-opacity:1"
       id="path32" /><path
       d="m 85.761482,111.97524 a 5.6416206,3.9399517 0 0 0 4.409033,1.48208 5.6416206,3.9399517 0 0 0 5.641516,-3.94033 5.6416206,3.9399517 0 0 0 -5.641516,-3.93981 5.6416206,3.9399517 0 0 0 -4.409033,1.48156 z"
       style="fill:#945c5c;stroke:#476a4b;stroke-width:0;stroke-linecap:square;paint-order:fill markers stroke"
       id="path94" /><path
       id="path37"
       style="display:inline;fill:#365a56;fill-opacity:1;stroke:#476a4b;stroke-width:0;stroke-linecap:square;paint-order:fill markers stroke"
       d="m 162.76501,110.19555 c -0.45775,0 -0.82632,0.19136 -0.82632,0.42874 v 4.52417 h -4.49802 c -0.45776,0 -0.82633,0.19104 -0.82633,0.42842 v 0.49949 c 0,0.0343 0.008,0.0673 0.0221,0.0992 v 3.37268 c 0,0.25682 0.36855,0.46361 0.82631,0.46361 0,0 2.01439,-0.84836 3.07233,-0.84174 1.01174,0.006 2.92851,0.84174 2.92851,0.84174 0.44168,0.12695 0.82631,-0.20679 0.82631,-0.46361 v -3.252 c 0.0192,-0.0363 0.0295,-0.0744 0.0295,-0.11398 v -5.558 c 0,-0.23738 -0.36856,-0.42874 -0.82632,-0.42874 z" /><path
       id="path39"
       style="display:inline;fill:#365a56;fill-opacity:1;stroke:#476a4b;stroke-width:0;stroke-linecap:square;paint-order:fill markers stroke"
       d="m 134.89507,111.62737 c 0.424,0 0.76538,0.17723 0.76538,0.39712 v 4.19051 h 4.1663 c 0.42399,0 0.76539,0.17695 0.76539,0.39683 v 0.46265 c 0,0.0318 -0.007,0.0623 -0.0205,0.0919 v 3.12395 c 0,0.23788 -0.34138,0.42942 -0.76537,0.42942 0,0 -1.86584,-0.78579 -2.84575,-0.77967 -0.93713,0.006 -2.71254,0.77967 -2.71254,0.77967 -0.4091,0.11762 -0.76537,-0.19154 -0.76537,-0.42942 v -3.01217 c -0.0178,-0.0336 -0.0274,-0.0689 -0.0274,-0.10562 v -5.14811 c 0,-0.21987 0.34138,-0.39712 0.76539,-0.39712 z" /><rect
       style="fill:#432323;fill-opacity:1;stroke:#476a4b;stroke-width:0;stroke-linecap:square;paint-order:fill markers stroke"
       id="rect18"
       width="23.972727"
       height="2.4099178"
       x="136.81923"
       y="113.66351"
       rx="1.079111"
       ry="0.40036669" /><rect
       style="fill:#432323;fill-opacity:1;stroke:#476a4b;stroke-width:0;stroke-linecap:square;paint-order:fill markers stroke"
       id="rect19"
       width="2.8636363"
       height="6.7972045"
       x="147.21014"
       y="115.70267"
       rx="1.079111"
       ry="0.40036669" /><path
       d="m 95.849755,131.2428 c -3.54e-4,8.3e-4 -6.75e-4,0.002 -0.001,0.003 v 2.33009 c 7.1e-4,-0.01 0.001,-0.0196 0.001,-0.0294 z"
       style="display:inline;fill:#365a56;stroke:#476a4b;stroke-width:0;stroke-linecap:square;paint-order:fill markers stroke"
       id="path90" /><path
       d="m 90.74619,127.06321 a 74.012268,22.563063 0 0 0 -2.428275,0.44338 v 2.20245 h 6.388757 c 0.557957,0 1.022527,0.21082 1.143083,0.49506 v -1.62729 c 0.02059,-0.0469 0.03152,-0.0958 0.03152,-0.14624 v -0.73588 c 0,-0.34976 -0.524062,-0.63148 -1.175122,-0.63148 z"
       style="display:inline;fill:#365a56;stroke:#476a4b;stroke-width:0;stroke-linecap:square;paint-order:fill markers stroke"
       id="path88" /><path
       d="m 88.317915,127.06321 v 0.44338 a 74.012268,22.563063 0 0 1 2.428275,-0.44338 z"
       style="display:inline;fill:#365a56;stroke:#476a4b;stroke-width:0;stroke-linecap:square;paint-order:fill markers stroke"
       id="path87" /><path
       d="m 85.761482,122.3281 c 0.110112,-0.0186 0.227246,-0.0284 0.348816,-0.0284 h 1.034045 c 0.599751,0 1.091588,0.24366 1.16427,0.56018 v -2.46239 c 0,-0.34976 -0.524067,-0.632 -1.175122,-0.632 h -1.035596 c -0.11697,0 -0.229937,0.009 -0.336413,0.0264 v 2.37505 z"
       style="display:inline;fill:#365a56;stroke:#476a4b;stroke-width:0;stroke-linecap:square;paint-order:fill markers stroke"
       id="path84" /><g
       id="g26"
       transform="matrix(1.0875512,0,0,1.2092089,-57.899412,-9.9985714)"
       style="stroke-width:0.872017;fill:#6a8d88;fill-opacity:1"><path
         id="path89"
         style="stroke:#476a4b;stroke-width:0;stroke-linecap:square;paint-order:fill markers stroke"
         d="M 132.41649 109.40892 C 132.3047 109.40892 132.197 109.41693 132.09575 109.43243 L 132.09575 112.07905 A 68.054054 18.659359 0 0 0 132.09528 112.07905 L 132.09575 114.13635 L 132.09575 116.85862 L 132.09575 118.0018 C 132.13665 118.0411 132.21085 118.13618 132.57139 118.43642 C 132.75939 118.59299 133.00016 118.76883 133.29031 118.9578 C 134.00766 119.42498 135.02784 119.97295 136.30475 120.5121 C 137.69288 120.5161 140.29184 121.55314 140.29184 121.55314 C 140.88967 121.55314 141.37094 121.29735 141.37094 120.97963 L 141.37094 118.73386 L 141.37094 116.80691 C 141.3711 116.80656 141.37126 116.80591 141.37141 116.80563 C 141.37149 116.80545 141.37181 116.80502 141.37189 116.80477 C 141.39019 116.76597 141.39992 116.72587 141.39992 116.68426 L 141.39992 116.06673 C 141.39992 116.02503 141.38989 115.98463 141.37189 115.94578 C 141.26104 115.71072 140.83387 115.53637 140.32083 115.53637 L 134.44638 115.53637 L 134.44638 113.71498 L 134.44638 113.3483 L 134.43736 113.3483 L 134.43736 113.34788 L 134.44638 113.34788 L 134.44638 111.65811 A 68.054054 18.659359 0 0 1 134.44686 111.65811 L 134.44686 109.9397 C 134.44686 109.9169 134.44383 109.89461 134.43783 109.87261 L 134.43783 109.87218 C 134.37103 109.61043 133.91876 109.40892 133.36729 109.40892 L 132.41649 109.40892 z M 141.274 118.9454 C 141.2598 118.96161 141.24392 118.97751 141.22696 118.99284 C 141.24392 118.97751 141.2598 118.96161 141.274 118.9454 z " /></g><path
       id="rect35"
       style="display:inline;fill:#365a56;fill-opacity:1;stroke:#476a4b;stroke-width:0;stroke-linecap:square;paint-order:fill markers stroke"
       d="m 125.25867,118.61434 c -0.76884,0 -1.38787,0.32142 -1.38787,0.72012 v 7.59866 h -7.55475 c -0.76884,0 -1.38788,0.32086 -1.38788,0.71956 v 0.83892 c 0,0.0575 0.0129,0.11312 0.0372,0.16665 v 5.66466 c 0,0.43134 0.61901,0.77866 1.38785,0.77866 0,0 3.38331,-1.42488 5.16019,-1.41376 1.69929,0.0109 4.91864,1.41376 4.91864,1.41376 0.74182,0.21321 1.38785,-0.34732 1.38785,-0.77866 v -5.46196 c 0.0322,-0.061 0.0496,-0.12497 0.0496,-0.19145 v -9.33504 c 0,-0.3987 -0.61902,-0.72012 -1.38785,-0.72012 z" /><rect
       style="fill:#432323;fill-opacity:1;stroke:#476a4b;stroke-width:0;stroke-linecap:square;paint-order:fill markers stroke"
       id="rect27"
       width="34.162395"
       height="3.4342597"
       x="-123.44498"
       y="124.5305"
       rx="1.5377898"
       ry="0.57054359"
       transform="scale(-1,1)" /><g
       id="g29"
       transform="matrix(-1.2860588,0,0,1.3576004,296.77693,-26.888194)"
       style="stroke-width:0.756807;fill:#6a8d88;fill-opacity:1"><rect
         style="fill:#6a8d88;fill-opacity:1;stroke:#476a4b;stroke-width:0;stroke-linecap:square;paint-order:fill markers stroke"
         id="rect28"
         width="3.1090913"
         height="7.9363637"
         x="131.33742"
         y="109.40897"
         rx="1.079111"
         ry="0.53011507" /><rect
         style="fill:#6a8d88;fill-opacity:1;stroke:#476a4b;stroke-width:0;stroke-linecap:square;paint-order:fill markers stroke"
         id="rect29"
         width="10.008775"
         height="1.6777716"
         x="131.39108"
         y="115.53645"
         rx="1.079111"
         ry="0.53011507" /><path
         id="path29"
         style="fill:#6a8d88;stroke:#476a4b;stroke-width:0;stroke-linecap:square;paint-order:fill markers stroke;fill-opacity:1"
         d="m 132.45497,116.08111 h 7.83685 c 0.59783,0 1.07911,0.25578 1.07911,0.5735 v 4.32518 c 0,0.31772 -0.48128,0.5735 -1.07911,0.5735 0,0 -2.63041,-1.04957 -4.01206,-1.04138 -1.32132,0.008 -3.82479,1.04138 -3.82479,1.04138 -0.57683,0.15705 -1.07912,-0.25578 -1.07912,-0.5735 v -4.32518 c 0,-0.31772 0.48129,-0.5735 1.07912,-0.5735 z"
         sodipodi:nodetypes="sssssassss" /></g><rect
       style="fill:#432323;fill-opacity:1;stroke:#476a4b;stroke-width:0;stroke-linecap:square;paint-order:fill markers stroke"
       id="rect30"
       width="3.1200199"
       height="12.397796"
       x="-108.2019"
       y="127.03062"
       rx="1.1757246"
       ry="0.7302509"
       transform="scale(-1,1)" /><rect
       style="fill:#5b5b5b;fill-opacity:1;stroke:#476a4b;stroke-width:0;stroke-linecap:square;paint-order:fill markers stroke"
       id="rect34"
       width="2.6126435"
       height="1.5984147"
       x="110.43286"
       y="106.80388"
       rx="1.3203392"
       ry="0.29549548" /><path
       d="m 104.38153,105.32087 c -0.73146,0 -1.32033,0.44851 -1.32033,1.00562 v 2.99723 c 0,0.55711 0.58887,1.00563 1.32033,1.00563 h 2.1885 c -0.73147,0 -1.32033,-0.44852 -1.32033,-1.00563 v -2.99723 c 0,-0.55711 0.58886,-1.00562 1.32033,-1.00562 z"
       style="fill:#aaaaaa;stroke:#476a4b;stroke-width:0;stroke-linecap:square;paint-order:fill markers stroke;fill-opacity:1"
       id="path56" /><rect
       style="fill:#757575;fill-opacity:1;stroke:#476a4b;stroke-width:0;stroke-linecap:square;paint-order:fill markers stroke"
       id="rect33"
       width="2.6126435"
       height="1.5984147"
       x="101.84991"
       y="106.80388"
       rx="1.3203392"
       ry="0.29549548" /><g
       id="g38"
       transform="matrix(-0.76570699,0,0,0.8083022,264.88533,23.564733)"
       style="stroke-width:1.27111;fill:#6a8d88;fill-opacity:1"><rect
         style="fill:#6a8d88;fill-opacity:1;stroke:#476a4b;stroke-width:0;stroke-linecap:square;paint-order:fill markers stroke"
         id="rect37"
         width="3.1090913"
         height="7.9363637"
         x="131.33742"
         y="109.40897"
         rx="1.079111"
         ry="0.53011507" /><rect
         style="fill:#6a8d88;fill-opacity:1;stroke:#476a4b;stroke-width:0;stroke-linecap:square;paint-order:fill markers stroke"
         id="rect38"
         width="10.008775"
         height="1.6777716"
         x="131.39108"
         y="115.53645"
         rx="1.079111"
         ry="0.53011507" /><path
         id="path38"
         style="fill:#6a8d88;stroke:#476a4b;stroke-width:0;stroke-linecap:square;paint-order:fill markers stroke;fill-opacity:1"
         d="m 132.45497,116.08111 h 7.83685 c 0.59783,0 1.07911,0.25578 1.07911,0.5735 v 4.32518 c 0,0.31772 -0.48128,0.5735 -1.07911,0.5735 0,0 -2.63041,-1.04957 -4.01206,-1.04138 -1.32132,0.008 -3.82479,1.04138 -3.82479,1.04138 -0.57683,0.15705 -1.07912,-0.25578 -1.07912,-0.5735 v -4.32518 c 0,-0.31772 0.48129,-0.5735 1.07912,-0.5735 z"
         sodipodi:nodetypes="sssssassss" /></g><g
       id="g40"
       transform="matrix(0.70923691,0,0,0.74869076,40.306008,31.38548)"
       style="stroke-width:1.37231;fill:#6a8d88;fill-opacity:1"><rect
         style="fill:#6a8d88;fill-opacity:1;stroke:#476a4b;stroke-width:0;stroke-linecap:square;paint-order:fill markers stroke"
         id="rect39"
         width="3.1090913"
         height="7.9363637"
         x="131.33742"
         y="109.40897"
         rx="1.079111"
         ry="0.53011507" /><rect
         style="fill:#6a8d88;fill-opacity:1;stroke:#476a4b;stroke-width:0;stroke-linecap:square;paint-order:fill markers stroke"
         id="rect40"
         width="10.008775"
         height="1.6777716"
         x="131.39108"
         y="115.53645"
         rx="1.079111"
         ry="0.53011507" /><path
         id="path40"
         style="fill:#6a8d88;stroke:#476a4b;stroke-width:0;stroke-linecap:square;paint-order:fill markers stroke;fill-opacity:1"
         d="m 132.45497,116.08111 h 7.83685 c 0.59783,0 1.07911,0.25578 1.07911,0.5735 v 4.32518 c 0,0.31772 -0.48128,0.5735 -1.07911,0.5735 0,0 -2.63041,-1.04957 -4.01206,-1.04138 -1.32132,0.008 -3.82479,1.04138 -3.82479,1.04138 -0.57683,0.15705 -1.07912,-0.25578 -1.07912,-0.5735 v -4.32518 c 0,-0.31772 0.48129,-0.5735 1.07912,-0.5735 z"
         sodipodi:nodetypes="sssssassss" /></g><rect
       style="fill:#7b3a3a;fill-opacity:1;stroke:#476a4b;stroke-width:0;stroke-linecap:square;paint-order:fill markers stroke"
       id="rect41"
       width="34.162395"
       height="3.4342597"
       x="-123.44498"
       y="123.01687"
       rx="1.5377898"
       ry="0.57054359"
       transform="scale(-1,1)" /><rect
       style="fill:#7b3a3a;fill-opacity:1;stroke:#476a4b;stroke-width:0;stroke-linecap:square;paint-order:fill markers stroke"
       id="rect42"
       width="23.972727"
       height="2.4099178"
       x="136.81923"
       y="112.76351"
       rx="1.079111"
       ry="0.40036669" /><rect
       style="fill:#eaeea4;fill-opacity:1;stroke:#476a4b;stroke-width:0;stroke-linecap:square;paint-order:fill markers stroke"
       id="rect43"
       width="2.7881453"
       height="11.535805"
       x="127.3906"
       y="85.830032"
       rx="1.1976687"
       ry="2.015249" /><rect
       style="fill:#acaf78;fill-opacity:1;stroke:#476a4b;stroke-width:0;stroke-linecap:square;paint-order:fill markers stroke"
       id="rect44"
       width="1.245767"
       height="11.535805"
       x="128.16177"
       y="85.830032"
       rx="0.53512859"
       ry="2.015249" /><rect
       style="fill:#ecd9d9;fill-opacity:1;stroke:#eceed2;stroke-width:0;stroke-linecap:round;paint-order:fill markers stroke"
       id="rect1"
       width="1.5620632"
       height="3.3555431"
       x="147.76382"
       y="110.44528"
       rx="0.24047653"
       ry="0.30068284" /><path
       id="path1-8"
       style="fill:#f7c450;fill-opacity:1;stroke:#0b0c1c;stroke-width:0;stroke-linecap:round;stroke-linejoin:round;stroke-opacity:0.999272"
       d="m 150.00226,109.25596 c 0,0.76307 -0.62291,1.03625 -1.38598,1.03625 -0.76308,0 -1.37735,-0.27318 -1.37735,-1.03625 0,-0.415 0.55186,-1.08685 0.88037,-1.39566 0.34128,-0.32082 0.54447,-0.76319 0.54447,-0.76319 0,0 0.067,0.42611 0.48904,0.76833 0.33035,0.26784 0.84945,1.06285 0.84945,1.39052 z"
       sodipodi:nodetypes="cccscsc" /><rect
       style="display:inline;fill:#ecd9d9;fill-opacity:1;stroke:#eceed2;stroke-width:0;stroke-linecap:round;paint-order:fill markers stroke"
       id="rect1-1"
       width="1.9193068"
       height="4.1229553"
       x="105.64528"
       y="120.73711"
       rx="0.29547346"
       ry="0.36944896" /><path
       id="path1-8-7"
       style="display:inline;fill:#f7c450;fill-opacity:1;stroke:#0b0c1c;stroke-width:0;stroke-linecap:round;stroke-linejoin:round;stroke-opacity:0.999272"
       d="m 108.39567,119.27581 c 0,0.93758 -0.76538,1.27324 -1.70295,1.27324 -0.93761,0 -1.69236,-0.33566 -1.69236,-1.27324 0,-0.50992 0.67808,-1.33542 1.08172,-1.71485 0.41932,-0.3942 0.66899,-0.93773 0.66899,-0.93773 0,0 0.0823,0.52356 0.60088,0.94405 0.4059,0.32909 1.04372,1.30592 1.04372,1.70853 z"
       sodipodi:nodetypes="cccscsc" /><rect
       style="fill:#476562;fill-opacity:1;stroke:#939393;stroke-width:0;stroke-linecap:round;stroke-opacity:0.996999;paint-order:fill markers stroke"
       id="rect35-2"
       width="240.61697"
       height="63.500004"
       x="-9.9679222"
       y="227.26463"
       ry="15.446017"
       rx="11.462721" /><rect
       style="fill:#314341;fill-opacity:1;stroke:#939393;stroke-width:0;stroke-linecap:round;stroke-opacity:0.996999;paint-order:fill markers stroke"
       id="rect35-6-4"
       width="232.06915"
       height="55.597069"
       x="-5.6940112"
       y="231.21611"
       ry="13.523673"
       rx="11.055512" /><rect
       style="fill:#e4e4e4;fill-opacity:1;stroke:#eceed2;stroke-width:0;stroke-linecap:round;paint-order:fill markers stroke"
       id="rect11"
       width="2.7076633"
       height="2.7390063"
       x="131.04871"
       y="227.05209"
       rx="0.40973124"
       ry="0.3112714"
       transform="matrix(0.33759396,-0.94129183,0.34888231,0.93716654,0,0)" /><rect
       style="fill:#e4e4e4;fill-opacity:1;stroke:#eceed2;stroke-width:0;stroke-linecap:round;paint-order:fill markers stroke"
       id="rect12"
       width="2.6907945"
       height="2.7492127"
       x="143.07947"
       y="232.17979"
       rx="0.40717864"
       ry="0.31243131"
       transform="matrix(0.38616836,-0.92242831,0.30163067,0.95342485,0,0)" /><rect
       style="fill:#e4e4e4;fill-opacity:1;stroke:#eceed2;stroke-width:0;stroke-linecap:round;paint-order:fill markers stroke"
       id="rect13"
       width="2.7076633"
       height="2.7390063"
       x="152.51276"
       y="237.02267"
       rx="0.40973124"
       ry="0.3112714"
       transform="matrix(0.41515221,-0.90975197,0.26926304,0.96306667,0,0)" /><rect
       style="fill:#e4e4e4;fill-opacity:1;stroke:#eceed2;stroke-width:0;stroke-linecap:round;paint-order:fill markers stroke"
       id="rect14"
       width="2.729522"
       height="2.7206187"
       x="139.65958"
       y="235.48747"
       rx="0.41303897"
       ry="0.30918178"
       transform="matrix(0.33946226,-0.94061967,0.34598957,0.93823836,0,0)" /><rect
       style="fill:#e4e4e4;fill-opacity:1;stroke:#eceed2;stroke-width:0;stroke-linecap:round;paint-order:fill markers stroke"
       id="rect15"
       width="2.729522"
       height="2.7206187"
       x="142.31837"
       y="238.02638"
       rx="0.41303897"
       ry="0.30918178"
       transform="matrix(0.33946226,-0.94061967,0.34598957,0.93823836,0,0)" /><rect
       style="fill:#e4e4e4;fill-opacity:1;stroke:#eceed2;stroke-width:0;stroke-linecap:round;paint-order:fill markers stroke"
       id="rect16"
       width="2.729522"
       height="2.7206187"
       x="145.1759"
       y="240.7149"
       rx="0.41303897"
       ry="0.30918178"
       transform="matrix(0.33946226,-0.94061967,0.34598957,0.93823836,0,0)" /><rect
       style="fill:#e4e4e4;fill-opacity:1;stroke:#eceed2;stroke-width:0;stroke-linecap:round;paint-order:fill markers stroke"
       id="rect20"
       width="2.1717911"
       height="2.2281623"
       x="-264.84201"
       y="-158.50974"
       rx="0.32864153"
       ry="0.25321707"
       transform="matrix(-0.36255269,-0.93196328,-0.23185163,0.97275116,0,0)" /><rect
       style="fill:#e4e4e4;fill-opacity:1;stroke:#eceed2;stroke-width:0;stroke-linecap:round;paint-order:fill markers stroke"
       id="rect21"
       width="2.14428"
       height="2.2444928"
       x="-266.19565"
       y="-166.92271"
       rx="0.32447845"
       ry="0.25507295"
       transform="matrix(-0.31585771,-0.94880657,-0.28346634,0.95898219,0,0)" /><rect
       style="fill:#e4e4e4;fill-opacity:1;stroke:#eceed2;stroke-width:0;stroke-linecap:round;paint-order:fill markers stroke"
       id="rect22"
       width="2.1717911"
       height="2.2281623"
       x="-263.98782"
       y="-163.10336"
       rx="0.32864153"
       ry="0.25321707"
       transform="matrix(-0.32474279,-0.94580237,-0.27082164,0.96262954,0,0)" /><rect
       style="fill:#e4e4e4;fill-opacity:1;stroke:#eceed2;stroke-width:0;stroke-linecap:round;paint-order:fill markers stroke"
       id="rect23"
       width="2.207181"
       height="2.1985924"
       x="-265.2366"
       y="-168.57947"
       rx="0.33399683"
       ry="0.24985665"
       transform="matrix(-0.29405417,-0.95578876,-0.29989771,0.95397136,0,0)" /><rect
       style="fill:#e4e4e4;fill-opacity:1;stroke:#eceed2;stroke-width:0;stroke-linecap:round;paint-order:fill markers stroke"
       id="rect24"
       width="2.207181"
       height="2.1985924"
       x="-263.11325"
       y="-166.59827"
       rx="0.33399683"
       ry="0.24985665"
       transform="matrix(-0.29405417,-0.95578876,-0.29989771,0.95397136,0,0)" /><rect
       style="fill:#e4e4e4;fill-opacity:1;stroke:#eceed2;stroke-width:0;stroke-linecap:round;paint-order:fill markers stroke"
       id="rect31"
       width="2.207181"
       height="2.1985924"
       x="-260.97876"
       y="-164.38823"
       rx="0.33399683"
       ry="0.24985665"
       transform="matrix(-0.29405417,-0.95578876,-0.29989771,0.95397136,0,0)" /><rect
       style="fill:#e4e4e4;fill-opacity:1;stroke:#eceed2;stroke-width:0;stroke-linecap:round;paint-order:fill markers stroke"
       id="rect36"
       width="1.6644365"
       height="1.6856029"
       x="149.59329"
       y="240.54774"
       rx="0.2518672"
       ry="0.19155851"
       transform="matrix(0.41124982,-0.91152267,0.26643145,0.96385387,0,0)" /><rect
       style="fill:#e4e4e4;fill-opacity:1;stroke:#eceed2;stroke-width:0;stroke-linecap:round;paint-order:fill markers stroke"
       id="rect45"
       width="1.6644365"
       height="1.6856029"
       x="151.00038"
       y="242.16101"
       rx="0.2518672"
       ry="0.19155851"
       transform="matrix(0.41124982,-0.91152267,0.26643145,0.96385387,0,0)" /><rect
       style="fill:#e4e4e4;fill-opacity:1;stroke:#eceed2;stroke-width:0;stroke-linecap:round;paint-order:fill markers stroke"
       id="rect46"
       width="1.6532249"
       height="1.6923761"
       x="138.70143"
       y="238.86647"
       rx="0.25017068"
       ry="0.19232824"
       transform="matrix(0.35203156,-0.93598813,0.32977267,0.94406037,0,0)" /><rect
       style="fill:#e4e4e4;fill-opacity:1;stroke:#eceed2;stroke-width:0;stroke-linecap:round;paint-order:fill markers stroke"
       id="rect47"
       width="1.6644365"
       height="1.6856029"
       x="154.17805"
       y="245.07529"
       rx="0.2518672"
       ry="0.19155851"
       transform="matrix(0.41124982,-0.91152267,0.26643145,0.96385387,0,0)" /><rect
       style="fill:#e4e4e4;fill-opacity:1;stroke:#eceed2;stroke-width:0;stroke-linecap:round;paint-order:fill markers stroke"
       id="rect48"
       width="1.6789564"
       height="1.6733954"
       x="139.71748"
       y="242.01418"
       rx="0.25406438"
       ry="0.19017121"
       transform="matrix(0.33605446,-0.94184256,0.34253354,0.9395056,0,0)" /><rect
       style="fill:#e4e4e4;fill-opacity:1;stroke:#eceed2;stroke-width:0;stroke-linecap:round;paint-order:fill markers stroke"
       id="rect49"
       width="1.6789564"
       height="1.6733954"
       x="141.46266"
       y="243.71779"
       rx="0.25406438"
       ry="0.19017121"
       transform="matrix(0.33605446,-0.94184256,0.34253354,0.9395056,0,0)" /><rect
       style="fill:#e4e4e4;fill-opacity:1;stroke:#eceed2;stroke-width:0;stroke-linecap:round;paint-order:fill markers stroke"
       id="rect50"
       width="1.3308736"
       height="1.3477982"
       x="149.76141"
       y="242.74954"
       rx="0.20139153"
       ry="0.15316907"
       transform="matrix(0.41124983,-0.91152267,0.26643144,0.96385387,0,0)" /><rect
       style="fill:#e4e4e4;fill-opacity:1;stroke:#eceed2;stroke-width:0;stroke-linecap:round;paint-order:fill markers stroke"
       id="rect51"
       width="1.3308736"
       height="1.3477982"
       x="150.88652"
       y="244.03949"
       rx="0.20139153"
       ry="0.15316907"
       transform="matrix(0.41124983,-0.91152267,0.26643144,0.96385387,0,0)" /><rect
       style="fill:#e4e4e4;fill-opacity:1;stroke:#eceed2;stroke-width:0;stroke-linecap:round;paint-order:fill markers stroke"
       id="rect52"
       width="1.321909"
       height="1.353214"
       x="138.08636"
       y="240.30273"
       rx="0.20003501"
       ry="0.15378454"
       transform="matrix(0.35203156,-0.93598813,0.32977267,0.94406037,0,0)" /><rect
       style="fill:#e4e4e4;fill-opacity:1;stroke:#eceed2;stroke-width:0;stroke-linecap:round;paint-order:fill markers stroke"
       id="rect53"
       width="1.3308736"
       height="1.3477982"
       x="153.42737"
       y="246.36974"
       rx="0.20139153"
       ry="0.15316907"
       transform="matrix(0.41124983,-0.91152267,0.26643144,0.96385387,0,0)" /><rect
       style="fill:#e4e4e4;fill-opacity:1;stroke:#eceed2;stroke-width:0;stroke-linecap:round;paint-order:fill markers stroke"
       id="rect54"
       width="1.3424836"
       height="1.3380371"
       x="138.40602"
       y="242.73405"
       rx="0.20314839"
       ry="0.15205979"
       transform="matrix(0.33605446,-0.94184256,0.34253354,0.9395056,0,0)" /><rect
       style="fill:#e4e4e4;fill-opacity:1;stroke:#eceed2;stroke-width:0;stroke-linecap:round;paint-order:fill markers stroke"
       id="rect55"
       width="1.3424836"
       height="1.3380371"
       x="139.80145"
       y="244.09625"
       rx="0.20314839"
       ry="0.15205979"
       transform="matrix(0.33605446,-0.94184256,0.34253354,0.9395056,0,0)" /><path
       d="m 106.57003,105.32087 c -0.73147,0 -1.32033,0.44851 -1.32033,1.00562 v 2.99723 c 0,0.55711 0.58886,1.00563 1.32033,1.00563 h 3.65094 c 0.73147,0 1.32033,-0.44852 1.32033,-1.00563 v -2.99723 c 0,-0.55711 -0.58886,-1.00562 -1.32033,-1.00562 z"
       style="fill:#939393;stroke:#476a4b;stroke-width:0;stroke-linecap:square;paint-order:fill markers stroke"
       id="path57" /></g></svg>
