<?xml version="1.0" encoding="UTF-8" standalone="no"?>
<!-- Created with Inkscape (http://www.inkscape.org/) -->

<svg
   width="93.589859mm"
   height="63.480484mm"
   viewBox="0 0 93.589864 63.480482"
   version="1.1"
   id="svg1"
   inkscape:version="1.4.2 (f4327f4, 2025-05-13)"
   sodipodi:docname="RestaurantPreview.svg"
   inkscape:export-filename="DiscoPreview.png"
   inkscape:export-xdpi="96"
   inkscape:export-ydpi="96"
   xml:space="preserve"
   xmlns:inkscape="http://www.inkscape.org/namespaces/inkscape"
   xmlns:sodipodi="http://sodipodi.sourceforge.net/DTD/sodipodi-0.dtd"
   xmlns="http://www.w3.org/2000/svg"
   xmlns:svg="http://www.w3.org/2000/svg"><sodipodi:namedview
     id="namedview1"
     pagecolor="#ffffff"
     bordercolor="#000000"
     borderopacity="0.25"
     inkscape:showpageshadow="2"
     inkscape:pageopacity="0.0"
     inkscape:pagecheckerboard="0"
     inkscape:deskcolor="#d1d1d1"
     inkscape:document-units="mm"
     inkscape:zoom="3.2337962"
     inkscape:cx="233.31712"
     inkscape:cy="155.08089"
     inkscape:window-width="3840"
     inkscape:window-height="2054"
     inkscape:window-x="-11"
     inkscape:window-y="-11"
     inkscape:window-maximized="1"
     inkscape:current-layer="layer1"
     showgrid="true"
     showguides="false"><inkscape:grid
       id="grid2"
       units="px"
       originx="-80.204087"
       originy="-101.1455"
       spacingx="2.6458333"
       spacingy="2.6458333"
       empcolor="#0099e5"
       empopacity="0.30196078"
       color="#0099e5"
       opacity="0.14901961"
       empspacing="5"
       enabled="true"
       visible="true" /></sodipodi:namedview><defs
     id="defs1"><rect
       x="56.866434"
       y="57.717783"
       width="52.464996"
       height="20.740758"
       id="rect3" /></defs><path
     id="path19"
     style="display:none;fill:#a18fd9;stroke:#212532;stroke-width:1.10229;stroke-linejoin:round;stroke-miterlimit:8.2;stroke-opacity:0.995995"
     inkscape:transform-center-x="-0.074448879"
     inkscape:transform-center-y="0.094904335"
     d="m 99.716107,69.042054 c -3.3e-4,0.68279 -4.44853,3.14227 -5.06443,2.80038 -0.61591,-0.34189 -0.6116,-5.26801 0.005,-5.60891 0.61651,-0.3409 5.06012,2.12574 5.05953,2.80853 z" /><g
     inkscape:label="Ebene 1"
     inkscape:groupmode="layer"
     id="layer1"
     transform="translate(-83.719229,-78.972603)"
     style="display:inline"><path
       d="m 175.26713,120.2538 a 74.012268,22.563063 0 0 0 -47.72474,-5.3175 74.012268,22.563063 0 0 0 -41.780908,3.93878 v 3.29179 10.52338 c 0.04444,0.0475 0.12518,0.16249 0.517281,0.52555 0.911967,0.84443 2.962035,2.15002 5.855456,3.27939 5.786842,2.25873 14.786071,3.91604 24.783501,3.91604 h 27.19524 c 9.99743,0 18.99466,-1.65738 24.78091,-3.91604 2.89313,-1.12933 4.94366,-2.43504 5.85546,-3.27939 0.39193,-0.36293 0.47331,-0.47591 0.5178,-0.52348 v -8.107 z"
       style="display:inline;fill:#3e4342;stroke:#a1ae9a;stroke-width:0;stroke-linecap:square;paint-order:fill markers stroke;fill-opacity:1"
       id="path2" /><path
       d="m 175.04389,88.491919 a 74.012268,22.563063 0 0 1 -47.50046,5.260144 74.012268,22.563063 0 0 1 -41.780915,-3.938778 v -1.079004 c -2.79e-4,3.01e-4 -7.57e-4,7.38e-4 -0.001,0.001 v 30.139765 a 74.012268,22.563063 0 0 1 41.780908,-3.93878 74.012268,22.563063 0 0 1 47.72474,5.3175 V 88.733248 c -0.03,-0.03202 -0.0764,-0.09377 -0.22324,-0.241329 z"
       style="display:inline;fill:#845252;stroke:#476a4b;stroke-width:0;stroke-linecap:round;stroke-linejoin:round;fill-opacity:1"
       id="path4" /><g
       id="path14"
       style="opacity:1"><path
         style="baseline-shift:baseline;display:inline;overflow:visible;vector-effect:none;fill:#99a169;fill-opacity:0;stroke-linecap:round;paint-order:fill markers stroke;enable-background:accumulate;stop-color:#000000;stop-opacity:1"
         d="m 162.59196,78.454681 c 0,0 -5.037,11.832426 -9.86732,15.698212 -6.51021,5.210214 -16.28148,3.140806 -23.06817,7.947457 -4.14219,2.9337 -5.50893,8.90919 -9.60061,11.92067 -2.42722,1.78643 -6.08969,1.10285 -8.26721,3.20487 -3.57688,3.45288 -3.0111,9.44848 -5.86705,13.50849 -1.44047,2.04776 -4.34219,2.94792 -5.46703,5.16533 -2.082624,4.10544 1.23987,9.51647 -1.466763,13.28139 -2.630996,3.65971 -8.357235,3.13956 -12.000786,5.76615 -4.009035,2.89005 -6.077154,8.36672 -10.400663,10.6722 -2.216913,1.18216 -5.059433,-0.12661 -7.200465,1.21115 -3.264491,2.03971 -3.817358,7.05867 -6.933787,9.34549 -8.481131,6.22343 -29.201899,9.84173 -29.201899,9.84173"
         id="path22" /></g><path
       d="m 175.04389,88.491919 c -0.0713,-0.07167 -0.16643,-0.163508 -0.29456,-0.282154 -0.9118,-0.844348 -2.96233,-2.150055 -5.85546,-3.279386 -5.78625,-2.258663 -14.78348,-3.915523 -24.78091,-3.915523 h -27.19524 c -9.99743,0 -18.996659,1.656788 -24.783501,3.915523 -2.893421,1.129368 -4.943488,2.434963 -5.855456,3.279386 -0.389664,0.360803 -0.471626,0.476478 -0.516248,0.524516 v 1.079004 a 74.012268,22.563063 0 0 0 41.780915,3.938778 74.012268,22.563063 0 0 0 47.50046,-5.260144 z"
       style="display:inline;fill:#2d3231;stroke:#a1ae9a;stroke-width:0;stroke-linecap:square;paint-order:fill markers stroke;fill-opacity:1"
       id="path5" /><ellipse
       style="fill:#945c5c;fill-opacity:1;stroke:#476a4b;stroke-width:0;stroke-linecap:square;paint-order:fill markers stroke"
       id="path6"
       cx="130.51514"
       cy="104.8271"
       rx="5.291666"
       ry="2.6458333" /><ellipse
       style="fill:#945c5c;fill-opacity:1;stroke:#476a4b;stroke-width:0;stroke-linecap:square;paint-order:fill markers stroke"
       id="ellipse6"
       cx="146.39014"
       cy="110.11877"
       rx="5.291666"
       ry="2.6458333" /><ellipse
       style="fill:#945c5c;fill-opacity:1;stroke:#476a4b;stroke-width:0;stroke-linecap:square;paint-order:fill markers stroke"
       id="ellipse7"
       cx="97.561195"
       cy="99.535431"
       rx="5.291666"
       ry="2.6458333" /><ellipse
       style="fill:#945c5c;fill-opacity:1;stroke:#476a4b;stroke-width:0;stroke-linecap:square;paint-order:fill markers stroke"
       id="ellipse8"
       cx="105.18843"
       cy="106.33439"
       rx="3.4778404"
       ry="1.984375" /><ellipse
       style="fill:#945c5c;fill-opacity:1;stroke:#476a4b;stroke-width:0;stroke-linecap:square;paint-order:fill markers stroke"
       id="ellipse9"
       cx="141.76115"
       cy="104.1253"
       rx="3.4778404"
       ry="1.984375" /><ellipse
       style="fill:#945c5c;fill-opacity:1;stroke:#476a4b;stroke-width:0;stroke-linecap:square;paint-order:fill markers stroke"
       id="ellipse10"
       cx="156.8157"
       cy="113.20712"
       rx="3.4778404"
       ry="1.984375" /><ellipse
       style="fill:#945c5c;fill-opacity:1;stroke:#476a4b;stroke-width:0;stroke-linecap:square;paint-order:fill markers stroke"
       id="ellipse11"
       cx="173.34297"
       cy="95.779846"
       rx="3.4778404"
       ry="1.984375" /><ellipse
       style="fill:#945c5c;fill-opacity:1;stroke:#476a4b;stroke-width:0;stroke-linecap:square;paint-order:fill markers stroke"
       id="ellipse12"
       cx="164.9157"
       cy="101.95711"
       rx="4.0505676"
       ry="2.2707386" /><ellipse
       style="fill:#945c5c;fill-opacity:1;stroke:#476a4b;stroke-width:0;stroke-linecap:square;paint-order:fill markers stroke"
       id="ellipse13"
       cx="151.25206"
       cy="104.08438"
       rx="4.0505676"
       ry="2.2707386" /><ellipse
       style="fill:#945c5c;fill-opacity:1;stroke:#476a4b;stroke-width:0;stroke-linecap:square;paint-order:fill markers stroke"
       id="ellipse14"
       cx="109.36115"
       cy="101.22074"
       rx="4.0505676"
       ry="2.2707386" /><ellipse
       style="fill:#945c5c;fill-opacity:1;stroke:#476a4b;stroke-width:0;stroke-linecap:square;paint-order:fill markers stroke"
       id="ellipse15"
       cx="115.61584"
       cy="108.04449"
       rx="5.6416206"
       ry="3.9399517" /><ellipse
       style="fill:#945c5c;fill-opacity:1;stroke:#476a4b;stroke-width:0;stroke-linecap:square;paint-order:fill markers stroke"
       id="ellipse16"
       cx="156.68857"
       cy="96.999031"
       rx="5.6416206"
       ry="3.9399517" /><ellipse
       style="fill:#945c5c;fill-opacity:1;stroke:#476a4b;stroke-width:0;stroke-linecap:square;paint-order:fill markers stroke"
       id="ellipse17"
       cx="173.13402"
       cy="112.46267"
       rx="5.6416206"
       ry="3.9399517" /><path
       d="m 99.088317,100.7258 c -0.597828,0 -1.079004,0.25588 -1.079004,0.57361 v 15.16755 c 0,0.11832 0.06672,0.22822 0.181384,0.31936 a 74.012268,22.563063 0 0 1 14.918473,-1.41697 v -14.06994 c 0,-0.31773 -0.48118,-0.57361 -1.07901,-0.57361 z"
       style="display:inline;fill:#ddd5d5;stroke:#476a4b;stroke-width:0;stroke-linecap:square;paint-order:fill markers stroke;fill-opacity:1"
       id="path31" /><path
       d="m 98.009313,110.32935 v 6.48074 a 74.012268,22.563063 0 0 1 15.099857,-1.44074 v -5.04 z"
       style="display:inline;fill:#402c2c;stroke:#476a4b;stroke-width:0;stroke-linecap:square;paint-order:fill markers stroke;fill-opacity:1"
       id="path32" /><ellipse
       style="fill:#945c5c;fill-opacity:1;stroke:#476a4b;stroke-width:0;stroke-linecap:square;paint-order:fill markers stroke"
       id="ellipse18"
       cx="90.17038"
       cy="109.51721"
       rx="5.6416206"
       ry="3.9399517" /><path
       id="path37"
       style="display:inline;fill:#365a56;fill-opacity:1;stroke:#476a4b;stroke-width:0;stroke-linecap:square;paint-order:fill markers stroke"
       d="m 162.76501,110.19555 c -0.45775,0 -0.82632,0.19136 -0.82632,0.42874 v 4.52417 h -4.49802 c -0.45776,0 -0.82633,0.19104 -0.82633,0.42842 v 0.49949 c 0,0.0343 0.008,0.0673 0.0221,0.0992 v 3.37268 c 0,0.25682 0.36855,0.46361 0.82631,0.46361 0,0 2.01439,-0.84836 3.07233,-0.84174 1.01174,0.006 2.92851,0.84174 2.92851,0.84174 0.44168,0.12695 0.82631,-0.20679 0.82631,-0.46361 v -3.252 c 0.0192,-0.0363 0.0295,-0.0744 0.0295,-0.11398 v -5.558 c 0,-0.23738 -0.36856,-0.42874 -0.82632,-0.42874 z" /><path
       id="path39"
       style="display:inline;fill:#365a56;fill-opacity:1;stroke:#476a4b;stroke-width:0;stroke-linecap:square;paint-order:fill markers stroke"
       d="m 134.89507,111.62737 c 0.424,0 0.76538,0.17723 0.76538,0.39712 v 4.19051 h 4.1663 c 0.42399,0 0.76539,0.17695 0.76539,0.39683 v 0.46265 c 0,0.0318 -0.007,0.0623 -0.0205,0.0919 v 3.12395 c 0,0.23788 -0.34138,0.42942 -0.76537,0.42942 0,0 -1.86584,-0.78579 -2.84575,-0.77967 -0.93713,0.006 -2.71254,0.77967 -2.71254,0.77967 -0.4091,0.11762 -0.76537,-0.19154 -0.76537,-0.42942 v -3.01217 c -0.0178,-0.0336 -0.0274,-0.0689 -0.0274,-0.10562 v -5.14811 c 0,-0.21987 0.34138,-0.39712 0.76539,-0.39712 z" /><rect
       style="fill:#432323;fill-opacity:1;stroke:#476a4b;stroke-width:0;stroke-linecap:square;paint-order:fill markers stroke"
       id="rect18"
       width="23.972727"
       height="2.4099178"
       x="136.81923"
       y="113.66351"
       rx="1.079111"
       ry="0.40036669" /><rect
       style="fill:#432323;fill-opacity:1;stroke:#476a4b;stroke-width:0;stroke-linecap:square;paint-order:fill markers stroke"
       id="rect19"
       width="2.8636363"
       height="6.7972045"
       x="147.21014"
       y="115.70267"
       rx="1.079111"
       ry="0.40036669" /><path
       id="path36"
       style="display:inline;fill:#365a56;fill-opacity:1;stroke:#476a4b;stroke-width:0;stroke-linecap:square;paint-order:fill markers stroke"
       d="m 87.133403,119.76561 c 0.651055,0 1.175249,0.28196 1.175249,0.63172 v 6.66588 h 6.397375 c 0.65106,0 1.175255,0.28147 1.175255,0.63123 v 0.73593 c 0,0.0504 -0.0109,0.0993 -0.03149,0.14621 v 4.96928 c 0,0.3784 -0.524195,0.68308 -1.175233,0.68308 0,0 -2.864998,-1.24996 -4.369667,-1.24021 -1.438959,0.01 -4.165108,1.24021 -4.165108,1.24021 -0.628183,0.18704 -1.175239,-0.30468 -1.175239,-0.68308 v -4.79147 c -0.02732,-0.0535 -0.04198,-0.10963 -0.04198,-0.16794 v -8.18912 c 0,-0.34976 0.524194,-0.63172 1.175239,-0.63172 z" /><g
       id="g26"
       transform="matrix(1.0875512,0,0,1.2092089,-57.899412,-9.9985714)"
       style="stroke-width:0.872017"><rect
         style="fill:#4b7c77;fill-opacity:1;stroke:#476a4b;stroke-width:0;stroke-linecap:square;paint-order:fill markers stroke"
         id="rect25"
         width="3.1090913"
         height="7.9363637"
         x="131.33742"
         y="109.40897"
         rx="1.079111"
         ry="0.53011507" /><rect
         style="fill:#4b7c77;fill-opacity:1;stroke:#476a4b;stroke-width:0;stroke-linecap:square;paint-order:fill markers stroke"
         id="rect26"
         width="10.008775"
         height="1.6777716"
         x="131.39108"
         y="115.53645"
         rx="1.079111"
         ry="0.53011507" /><path
         id="path26"
         style="fill:#4b7c77;stroke:#476a4b;stroke-width:0;stroke-linecap:square;paint-order:fill markers stroke"
         d="m 132.45497,116.08111 h 7.83685 c 0.59783,0 1.07911,0.25578 1.07911,0.5735 v 4.32518 c 0,0.31772 -0.48128,0.5735 -1.07911,0.5735 0,0 -2.63041,-1.04957 -4.01206,-1.04138 -1.32132,0.008 -3.82479,1.04138 -3.82479,1.04138 -0.57683,0.15705 -1.07912,-0.25578 -1.07912,-0.5735 v -4.32518 c 0,-0.31772 0.48129,-0.5735 1.07912,-0.5735 z"
         sodipodi:nodetypes="sssssassss" /></g><path
       id="rect35"
       style="display:inline;fill:#365a56;fill-opacity:1;stroke:#476a4b;stroke-width:0;stroke-linecap:square;paint-order:fill markers stroke"
       d="m 125.25867,118.61434 c -0.76884,0 -1.38787,0.32142 -1.38787,0.72012 v 7.59866 h -7.55475 c -0.76884,0 -1.38788,0.32086 -1.38788,0.71956 v 0.83892 c 0,0.0575 0.0129,0.11312 0.0372,0.16665 v 5.66466 c 0,0.43134 0.61901,0.77866 1.38785,0.77866 0,0 3.38331,-1.42488 5.16019,-1.41376 1.69929,0.0109 4.91864,1.41376 4.91864,1.41376 0.74182,0.21321 1.38785,-0.34732 1.38785,-0.77866 v -5.46196 c 0.0322,-0.061 0.0496,-0.12497 0.0496,-0.19145 v -9.33504 c 0,-0.3987 -0.61902,-0.72012 -1.38785,-0.72012 z" /><rect
       style="fill:#432323;fill-opacity:1;stroke:#476a4b;stroke-width:0;stroke-linecap:square;paint-order:fill markers stroke"
       id="rect27"
       width="34.162395"
       height="3.4342597"
       x="-123.44498"
       y="124.5305"
       rx="1.5377898"
       ry="0.57054359"
       transform="scale(-1,1)" /><g
       id="g29"
       transform="matrix(-1.2860588,0,0,1.3576004,296.77693,-26.888194)"
       style="stroke-width:0.756807"><rect
         style="fill:#4b7c77;fill-opacity:1;stroke:#476a4b;stroke-width:0;stroke-linecap:square;paint-order:fill markers stroke"
         id="rect28"
         width="3.1090913"
         height="7.9363637"
         x="131.33742"
         y="109.40897"
         rx="1.079111"
         ry="0.53011507" /><rect
         style="fill:#4b7c77;fill-opacity:1;stroke:#476a4b;stroke-width:0;stroke-linecap:square;paint-order:fill markers stroke"
         id="rect29"
         width="10.008775"
         height="1.6777716"
         x="131.39108"
         y="115.53645"
         rx="1.079111"
         ry="0.53011507" /><path
         id="path29"
         style="fill:#4b7c77;stroke:#476a4b;stroke-width:0;stroke-linecap:square;paint-order:fill markers stroke"
         d="m 132.45497,116.08111 h 7.83685 c 0.59783,0 1.07911,0.25578 1.07911,0.5735 v 4.32518 c 0,0.31772 -0.48128,0.5735 -1.07911,0.5735 0,0 -2.63041,-1.04957 -4.01206,-1.04138 -1.32132,0.008 -3.82479,1.04138 -3.82479,1.04138 -0.57683,0.15705 -1.07912,-0.25578 -1.07912,-0.5735 v -4.32518 c 0,-0.31772 0.48129,-0.5735 1.07912,-0.5735 z"
         sodipodi:nodetypes="sssssassss" /></g><rect
       style="fill:#432323;fill-opacity:1;stroke:#476a4b;stroke-width:0;stroke-linecap:square;paint-order:fill markers stroke"
       id="rect30"
       width="3.1200199"
       height="12.397796"
       x="-108.2019"
       y="127.03062"
       rx="1.1757246"
       ry="0.7302509"
       transform="scale(-1,1)" /><rect
       style="fill:#5b5b5b;fill-opacity:1;stroke:#476a4b;stroke-width:0;stroke-linecap:square;paint-order:fill markers stroke"
       id="rect34"
       width="2.135309"
       height="0.91158217"
       x="110.33746"
       y="108.31876"
       rx="1.079111"
       ry="0.16852224" /><rect
       style="fill:#939393;fill-opacity:1;stroke:#476a4b;stroke-width:0;stroke-linecap:square;paint-order:fill markers stroke"
       id="rect32"
       width="6.9308496"
       height="2.8564167"
       x="104.31252"
       y="107.47293"
       rx="1.079111"
       ry="0.57350385" /><rect
       style="fill:#757575;fill-opacity:1;stroke:#476a4b;stroke-width:0;stroke-linecap:square;paint-order:fill markers stroke"
       id="rect33"
       width="2.135309"
       height="0.91158217"
       x="103.32263"
       y="108.31876"
       rx="1.079111"
       ry="0.16852224" /><g
       id="g38"
       transform="matrix(-0.76570699,0,0,0.8083022,264.88533,23.564733)"
       style="stroke-width:1.27111"><rect
         style="fill:#4b7c77;fill-opacity:1;stroke:#476a4b;stroke-width:0;stroke-linecap:square;paint-order:fill markers stroke"
         id="rect37"
         width="3.1090913"
         height="7.9363637"
         x="131.33742"
         y="109.40897"
         rx="1.079111"
         ry="0.53011507" /><rect
         style="fill:#4b7c77;fill-opacity:1;stroke:#476a4b;stroke-width:0;stroke-linecap:square;paint-order:fill markers stroke"
         id="rect38"
         width="10.008775"
         height="1.6777716"
         x="131.39108"
         y="115.53645"
         rx="1.079111"
         ry="0.53011507" /><path
         id="path38"
         style="fill:#4b7c77;stroke:#476a4b;stroke-width:0;stroke-linecap:square;paint-order:fill markers stroke"
         d="m 132.45497,116.08111 h 7.83685 c 0.59783,0 1.07911,0.25578 1.07911,0.5735 v 4.32518 c 0,0.31772 -0.48128,0.5735 -1.07911,0.5735 0,0 -2.63041,-1.04957 -4.01206,-1.04138 -1.32132,0.008 -3.82479,1.04138 -3.82479,1.04138 -0.57683,0.15705 -1.07912,-0.25578 -1.07912,-0.5735 v -4.32518 c 0,-0.31772 0.48129,-0.5735 1.07912,-0.5735 z"
         sodipodi:nodetypes="sssssassss" /></g><g
       id="g40"
       transform="matrix(0.70923691,0,0,0.74869076,40.306008,31.38548)"
       style="stroke-width:1.37231"><rect
         style="fill:#4b7c77;fill-opacity:1;stroke:#476a4b;stroke-width:0;stroke-linecap:square;paint-order:fill markers stroke"
         id="rect39"
         width="3.1090913"
         height="7.9363637"
         x="131.33742"
         y="109.40897"
         rx="1.079111"
         ry="0.53011507" /><rect
         style="fill:#4b7c77;fill-opacity:1;stroke:#476a4b;stroke-width:0;stroke-linecap:square;paint-order:fill markers stroke"
         id="rect40"
         width="10.008775"
         height="1.6777716"
         x="131.39108"
         y="115.53645"
         rx="1.079111"
         ry="0.53011507" /><path
         id="path40"
         style="fill:#4b7c77;stroke:#476a4b;stroke-width:0;stroke-linecap:square;paint-order:fill markers stroke"
         d="m 132.45497,116.08111 h 7.83685 c 0.59783,0 1.07911,0.25578 1.07911,0.5735 v 4.32518 c 0,0.31772 -0.48128,0.5735 -1.07911,0.5735 0,0 -2.63041,-1.04957 -4.01206,-1.04138 -1.32132,0.008 -3.82479,1.04138 -3.82479,1.04138 -0.57683,0.15705 -1.07912,-0.25578 -1.07912,-0.5735 v -4.32518 c 0,-0.31772 0.48129,-0.5735 1.07912,-0.5735 z"
         sodipodi:nodetypes="sssssassss" /></g><rect
       style="fill:#613333;fill-opacity:1;stroke:#476a4b;stroke-width:0;stroke-linecap:square;paint-order:fill markers stroke"
       id="rect41"
       width="34.162395"
       height="3.4342597"
       x="-123.44498"
       y="123.01687"
       rx="1.5377898"
       ry="0.57054359"
       transform="scale(-1,1)" /><rect
       style="fill:#613333;fill-opacity:1;stroke:#476a4b;stroke-width:0;stroke-linecap:square;paint-order:fill markers stroke"
       id="rect42"
       width="23.972727"
       height="2.4099178"
       x="136.81923"
       y="112.76351"
       rx="1.079111"
       ry="0.40036669" /><rect
       style="fill:#eaeea4;fill-opacity:1;stroke:#476a4b;stroke-width:0;stroke-linecap:square;paint-order:fill markers stroke"
       id="rect43"
       width="4.0972362"
       height="11.535805"
       x="129.82545"
       y="86.632355"
       rx="1.7599986"
       ry="2.015249" /><path
       style="fill:#acaf78;fill-opacity:0;stroke:#eaeea4;stroke-width:1.2;stroke-linecap:round;stroke-dasharray:none;stroke-opacity:1;paint-order:fill markers stroke"
       d="m 121.72859,93.623754 c 0,0 1.01999,4.169779 3.42488,4.872129 1.63775,0.478304 5.06365,-1.15795 5.06365,-1.15795 0,0 -3.42207,-0.678893 -4.27762,-1.638609 -0.97889,-1.098045 -0.2246,-3.867115 -0.2246,-3.867115"
       id="path44"
       sodipodi:nodetypes="cacac" /><path
       style="fill:#acaf78;fill-opacity:0;stroke:#eaeea4;stroke-width:1.2;stroke-linecap:round;stroke-dasharray:none;stroke-opacity:1;paint-order:fill markers stroke"
       d="m 142.27337,93.623754 c 0,0 -1.01999,4.169779 -3.42489,4.872129 -1.63775,0.478304 -5.06364,-1.15795 -5.06364,-1.15795 0,0 3.42206,-0.678893 4.27761,-1.638609 0.97889,-1.098045 0.22461,-3.867115 0.22461,-3.867115"
       id="path47"
       sodipodi:nodetypes="cacac" /><rect
       style="fill:#acaf78;fill-opacity:1;stroke:#476a4b;stroke-width:0;stroke-linecap:square;paint-order:fill markers stroke"
       id="rect44"
       width="1.83068"
       height="11.535805"
       x="130.95871"
       y="86.632355"
       rx="0.78638238"
       ry="2.015249" /></g></svg>
