<?xml version="1.0" encoding="UTF-8" standalone="no"?>
<!-- Created with Inkscape (http://www.inkscape.org/) -->

<svg
   width="93.589859mm"
   height="63.480484mm"
   viewBox="0 0 93.589864 63.480482"
   version="1.1"
   id="svg1"
   inkscape:version="1.4.2 (f4327f4, 2025-05-13)"
   sodipodi:docname="StadiumPreview.svg"
   inkscape:export-filename="DiscoPreview.png"
   inkscape:export-xdpi="96"
   inkscape:export-ydpi="96"
   xml:space="preserve"
   xmlns:inkscape="http://www.inkscape.org/namespaces/inkscape"
   xmlns:sodipodi="http://sodipodi.sourceforge.net/DTD/sodipodi-0.dtd"
   xmlns="http://www.w3.org/2000/svg"
   xmlns:svg="http://www.w3.org/2000/svg"><sodipodi:namedview
     id="namedview1"
     pagecolor="#ffffff"
     bordercolor="#000000"
     borderopacity="0.25"
     inkscape:showpageshadow="2"
     inkscape:pageopacity="0.0"
     inkscape:pagecheckerboard="0"
     inkscape:deskcolor="#d1d1d1"
     inkscape:document-units="mm"
     inkscape:zoom="2.2866392"
     inkscape:cx="377.19112"
     inkscape:cy="96.429729"
     inkscape:window-width="3840"
     inkscape:window-height="2054"
     inkscape:window-x="-11"
     inkscape:window-y="-11"
     inkscape:window-maximized="1"
     inkscape:current-layer="layer1"
     showgrid="true"><inkscape:grid
       id="grid2"
       units="px"
       originx="-80.204087"
       originy="-101.1455"
       spacingx="2.6458333"
       spacingy="2.6458333"
       empcolor="#0099e5"
       empopacity="0.30196078"
       color="#0099e5"
       opacity="0.14901961"
       empspacing="5"
       enabled="true"
       visible="true" /></sodipodi:namedview><defs
     id="defs1"><rect
       x="56.866434"
       y="57.717783"
       width="52.464996"
       height="20.740758"
       id="rect3" /></defs><path
     id="path19"
     style="display:none;fill:#a18fd9;stroke:#212532;stroke-width:1.10229;stroke-linejoin:round;stroke-miterlimit:8.2;stroke-opacity:0.995995"
     inkscape:transform-center-x="-0.074448879"
     inkscape:transform-center-y="0.094904335"
     d="m 99.716107,69.042054 c -3.3e-4,0.68279 -4.44853,3.14227 -5.06443,2.80038 -0.61591,-0.34189 -0.6116,-5.26801 0.005,-5.60891 0.61651,-0.3409 5.06012,2.12574 5.05953,2.80853 z" /><g
     inkscape:label="Ebene 1"
     inkscape:groupmode="layer"
     id="layer1"
     transform="translate(-83.719229,-78.972603)"
     style="display:inline"><path
       id="rect2-5"
       style="display:inline;fill:#476a4b;fill-opacity:1;stroke:#476a4b;stroke-width:0;stroke-linecap:round;stroke-linejoin:round;stroke-dasharray:none;stroke-opacity:1"
       sodipodi:type="inkscape:offset"
       inkscape:radius="-7.937129"
       inkscape:original="M 37.542969 70.431641 C 15.885454 70.431641 -1.5507812 77.236807 -1.5507812 85.691406 L -1.5507812 130.44336 C -1.5507813 138.89796 15.885454 145.70312 37.542969 145.70312 L 64.738281 145.70312 C 86.395796 145.70312 103.83008 138.89796 103.83008 130.44336 L 103.83008 85.691406 C 103.83008 77.236807 86.395796 70.431641 64.738281 70.431641 L 37.542969 70.431641 z "
       d="m 37.542969,78.369141 c -9.99743,0 -18.996361,1.65728 -24.783203,3.916015 -2.8934215,1.129368 -4.943501,2.434874 -5.8554691,3.279297 -0.3921005,0.36306 -0.4731385,0.477899 -0.5175782,0.525391 v 43.955076 c 0.04444,0.0475 0.1254779,0.16233 0.5175782,0.52539 0.9119677,0.84443 2.9620476,2.14993 5.8554691,3.2793 5.786842,2.25873 14.785772,3.91601 24.783203,3.91601 h 27.195312 c 9.997431,0 18.994993,-1.65735 24.78125,-3.91601 2.893129,-1.12933 4.943667,-2.43495 5.855469,-3.2793 0.391926,-0.36293 0.47309,-0.47586 0.517578,-0.52344 V 86.087891 C 95.84809,86.04032 95.766926,85.927385 95.375,85.564453 94.463197,84.720105 92.41266,83.414488 89.519531,82.285156 83.733274,80.026493 74.735711,78.369141 64.738281,78.369141 Z"
       transform="translate(79.37451,2.6454623)" /><g
       id="path14"
       style="opacity:1"><path
         style="baseline-shift:baseline;display:inline;overflow:visible;vector-effect:none;fill:#99a169;fill-opacity:0;stroke-linecap:round;paint-order:fill markers stroke;enable-background:accumulate;stop-color:#000000;stop-opacity:1"
         d="m 162.59196,78.454681 c 0,0 -5.037,11.832426 -9.86732,15.698212 -6.51021,5.210214 -16.28148,3.140806 -23.06817,7.947457 -4.14219,2.9337 -5.50893,8.90919 -9.60061,11.92067 -2.42722,1.78643 -6.08969,1.10285 -8.26721,3.20487 -3.57688,3.45288 -3.0111,9.44848 -5.86705,13.50849 -1.44047,2.04776 -4.34219,2.94792 -5.46703,5.16533 -2.082624,4.10544 1.23987,9.51647 -1.466763,13.28139 -2.630996,3.65971 -8.357235,3.13956 -12.000786,5.76615 -4.009035,2.89005 -6.077154,8.36672 -10.400663,10.6722 -2.216913,1.18216 -5.059433,-0.12661 -7.200465,1.21115 -3.264491,2.03971 -3.817358,7.05867 -6.933787,9.34549 -8.481131,6.22343 -29.201899,9.84173 -29.201899,9.84173"
         id="path22" /></g><rect
       style="fill:#6a8e54;fill-opacity:1;stroke:#a45756;stroke-width:6.1;stroke-linecap:round;stroke-dasharray:none;stroke-opacity:1;paint-order:fill markers stroke"
       id="rect49"
       width="60.381821"
       height="31.99091"
       x="100.32423"
       y="94.123314"
       rx="2.100414"
       ry="1.2272727" /><rect
       style="fill:#577446;fill-opacity:1;stroke:#a45756;stroke-width:0;stroke-linecap:round;stroke-dasharray:none;stroke-opacity:1;paint-order:fill markers stroke"
       id="rect50"
       width="11.50462"
       height="25.850861"
       x="124.76283"
       y="97.193336"
       rx="0"
       ry="0" /><rect
       style="fill:#577446;fill-opacity:1;stroke:#a45756;stroke-width:0;stroke-linecap:round;stroke-dasharray:none;stroke-opacity:1;paint-order:fill markers stroke"
       id="rect51"
       width="11.50462"
       height="25.821943"
       x="103.13552"
       y="97.207794"
       rx="0"
       ry="0" /><rect
       style="fill:#577446;fill-opacity:1;stroke:#a45756;stroke-width:0;stroke-linecap:round;stroke-dasharray:none;stroke-opacity:1;paint-order:fill markers stroke"
       id="rect52"
       width="11.50462"
       height="25.848694"
       x="146.39014"
       y="97.19442"
       rx="0"
       ry="0" /><rect
       style="fill:#6a8e54;fill-opacity:0;stroke:#a47d79;stroke-width:1.3;stroke-linecap:round;stroke-dasharray:none;stroke-opacity:1;paint-order:fill markers stroke"
       id="rect53"
       width="60.381821"
       height="31.99091"
       x="100.32423"
       y="94.123314"
       rx="2.100414"
       ry="1.2272727" /><rect
       style="fill:#ccc8be;fill-opacity:1;stroke:#a47d79;stroke-width:0;stroke-linecap:round;stroke-dasharray:none;stroke-opacity:1;paint-order:fill markers stroke"
       id="rect54"
       width="4.9909091"
       height="10.583333"
       x="106.39238"
       y="104.8271"
       rx="0.58677405"
       ry="0.65454477" /><rect
       style="fill:#ccc8be;fill-opacity:1;stroke:#a47d79;stroke-width:0;stroke-linecap:round;stroke-dasharray:none;stroke-opacity:1;paint-order:fill markers stroke"
       id="rect55"
       width="4.9909091"
       height="10.583333"
       x="149.7151"
       y="104.8271"
       rx="0.58677405"
       ry="0.65454477" /><path
       id="rect56"
       style="fill:#966964;fill-opacity:1;stroke:#a47d79;stroke-width:0;stroke-linecap:round;paint-order:fill markers stroke"
       d="m 104.51965,84.621612 c -1.33469,0 -2.40915,0.472393 -2.40915,1.059367 v 0.905888 c -1.4e-4,0.0012 0,0.0024 0,0.0036 v 0.340565 0.775147 c 0,0.133783 0.84305,0.22934 1.89445,0.259932 0.16243,0.01545 0.33028,0.02446 0.50333,0.02481 0.004,2e-6 0.008,0 0.0114,0 h 1.39888 c 0.004,0 0.008,2e-6 0.0114,0 0.17305,-3.41e-4 0.3409,-0.0094 0.50333,-0.02481 1.0514,-0.03059 1.89446,-0.126149 1.89446,-0.259932 v -0.775147 -0.340548 c 0,-0.0012 1.3e-4,-0.0024 0,-0.0036 v -0.905905 c 0,-0.586974 -1.07447,-1.059367 -2.40916,-1.059367 z" /><path
       id="path57"
       style="fill:#966964;fill-opacity:1;stroke:#a47d79;stroke-width:0;stroke-linecap:round;paint-order:fill markers stroke"
       d="m 111.75768,84.621612 c -1.33469,0 -2.40915,0.472393 -2.40915,1.059367 v 0.905888 c -1.4e-4,0.0012 0,0.0024 0,0.0036 v 0.340565 0.775147 c 0,0.133783 0.84305,0.22934 1.89445,0.259932 0.16243,0.01545 0.33028,0.02446 0.50333,0.02481 0.004,2e-6 0.008,0 0.0114,0 h 1.39888 c 0.004,0 0.008,2e-6 0.0114,0 0.17305,-3.41e-4 0.3409,-0.0094 0.50333,-0.02481 1.0514,-0.03059 1.89446,-0.126149 1.89446,-0.259932 v -0.775147 -0.340548 c 0,-0.0012 1.3e-4,-0.0024 0,-0.0036 v -0.905905 c 0,-0.586974 -1.07447,-1.059367 -2.40916,-1.059367 z" /><path
       id="path58"
       style="fill:#966964;fill-opacity:1;stroke:#a47d79;stroke-width:0;stroke-linecap:round;paint-order:fill markers stroke"
       d="m 118.99571,84.621612 c -1.33469,0 -2.40915,0.472393 -2.40915,1.059367 v 0.905888 c -1.4e-4,0.0012 0,0.0024 0,0.0036 v 0.340565 0.775147 c 0,0.133783 0.84305,0.22934 1.89445,0.259932 0.16243,0.01545 0.33028,0.02446 0.50333,0.02481 0.004,2e-6 0.008,0 0.0114,0 h 1.39888 c 0.004,0 0.008,2e-6 0.0114,0 0.17305,-3.41e-4 0.3409,-0.0094 0.50333,-0.02481 1.0514,-0.03059 1.89446,-0.126149 1.89446,-0.259932 v -0.775147 -0.340548 c 0,-0.0012 1.3e-4,-0.0024 0,-0.0036 v -0.905905 c 0,-0.586974 -1.07447,-1.059367 -2.40916,-1.059367 z" /><path
       id="path59"
       style="fill:#966964;fill-opacity:1;stroke:#a47d79;stroke-width:0;stroke-linecap:round;paint-order:fill markers stroke"
       d="m 126.23374,84.621612 c -1.33469,0 -2.40915,0.472393 -2.40915,1.059367 v 0.905888 c -1.4e-4,0.0012 0,0.0024 0,0.0036 v 0.340565 0.775147 c 0,0.133783 0.84305,0.22934 1.89445,0.259932 0.16243,0.01545 0.33028,0.02446 0.50333,0.02481 0.004,2e-6 0.008,0 0.0114,0 h 1.39888 c 0.004,0 0.008,2e-6 0.0114,0 0.17305,-3.41e-4 0.3409,-0.0094 0.50333,-0.02481 1.0514,-0.03059 1.89446,-0.126149 1.89446,-0.259932 v -0.775147 -0.340548 c 0,-0.0012 1.3e-4,-0.0024 0,-0.0036 v -0.905905 c 0,-0.586974 -1.07447,-1.059367 -2.40916,-1.059367 z" /><path
       id="path60"
       style="fill:#966964;fill-opacity:1;stroke:#a47d79;stroke-width:0;stroke-linecap:round;paint-order:fill markers stroke"
       d="m 136.26965,84.621612 c -1.33469,0 -2.40915,0.472393 -2.40915,1.059367 v 0.905888 c -1.4e-4,0.0012 0,0.0024 0,0.0036 v 0.340565 0.775147 c 0,0.133783 0.84305,0.22934 1.89445,0.259932 0.16243,0.01545 0.33028,0.02446 0.50333,0.02481 0.004,2e-6 0.008,0 0.0114,0 h 1.39888 c 0.004,0 0.008,2e-6 0.0114,0 0.17305,-3.41e-4 0.3409,-0.0094 0.50333,-0.02481 1.0514,-0.03059 1.89446,-0.126149 1.89446,-0.259932 v -0.775147 -0.340548 c 0,-0.0012 1.3e-4,-0.0024 0,-0.0036 v -0.905905 c 0,-0.586974 -1.07447,-1.059367 -2.40916,-1.059367 z" /><path
       id="path61"
       style="fill:#966964;fill-opacity:1;stroke:#a47d79;stroke-width:0;stroke-linecap:round;paint-order:fill markers stroke"
       d="m 143.50768,84.621612 c -1.33469,0 -2.40915,0.472393 -2.40915,1.059367 v 0.905888 c -1.4e-4,0.0012 0,0.0024 0,0.0036 v 0.340565 0.775147 c 0,0.133783 0.84305,0.22934 1.89445,0.259932 0.16243,0.01545 0.33028,0.02446 0.50333,0.02481 0.004,2e-6 0.008,0 0.0114,0 h 1.39888 c 0.004,0 0.008,2e-6 0.0114,0 0.17305,-3.41e-4 0.3409,-0.0094 0.50333,-0.02481 1.0514,-0.03059 1.89446,-0.126149 1.89446,-0.259932 v -0.775147 -0.340548 c 0,-0.0012 1.3e-4,-0.0024 0,-0.0036 v -0.905905 c 0,-0.586974 -1.07447,-1.059367 -2.40916,-1.059367 z" /><path
       id="path62"
       style="fill:#966964;fill-opacity:1;stroke:#a47d79;stroke-width:0;stroke-linecap:round;paint-order:fill markers stroke"
       d="m 150.74571,84.621612 c -1.33469,0 -2.40915,0.472393 -2.40915,1.059367 v 0.905888 c -1.4e-4,0.0012 0,0.0024 0,0.0036 v 0.340565 0.775147 c 0,0.133783 0.84305,0.22934 1.89445,0.259932 0.16243,0.01545 0.33028,0.02446 0.50333,0.02481 0.004,2e-6 0.008,0 0.0114,0 h 1.39888 c 0.004,0 0.008,2e-6 0.0114,0 0.17305,-3.41e-4 0.3409,-0.0094 0.50333,-0.02481 1.0514,-0.03059 1.89446,-0.126149 1.89446,-0.259932 v -0.775147 -0.340548 c 0,-0.0012 1.3e-4,-0.0024 0,-0.0036 v -0.905905 c 0,-0.586974 -1.07447,-1.059367 -2.40916,-1.059367 z" /><path
       id="path63"
       style="fill:#966964;fill-opacity:1;stroke:#a47d79;stroke-width:0;stroke-linecap:round;paint-order:fill markers stroke"
       d="m 157.98374,84.621612 c -1.33469,0 -2.40915,0.472393 -2.40915,1.059367 v 0.905888 c -1.4e-4,0.0012 0,0.0024 0,0.0036 v 0.340565 0.775147 c 0,0.133783 0.84305,0.22934 1.89445,0.259932 0.16243,0.01545 0.33028,0.02446 0.50333,0.02481 0.004,2e-6 0.008,0 0.0114,0 h 1.39888 c 0.004,0 0.008,2e-6 0.0114,0 0.17305,-3.41e-4 0.3409,-0.0094 0.50333,-0.02481 1.0514,-0.03059 1.89446,-0.126149 1.89446,-0.259932 v -0.775147 -0.340548 c 0,-0.0012 1.3e-4,-0.0024 0,-0.0036 v -0.905905 c 0,-0.586974 -1.07447,-1.059367 -2.40916,-1.059367 z" /><path
       id="path64"
       style="fill:#966964;fill-opacity:1;stroke:#a47d79;stroke-width:0;stroke-linecap:round;paint-order:fill markers stroke"
       d="m 104.51965,135.52729 c -1.33469,0 -2.40915,-0.4724 -2.40915,-1.05937 v -0.90589 c -1.4e-4,-0.001 0,-0.002 0,-0.004 v -0.34056 -0.77515 c 0,-0.13378 0.84305,-0.22934 1.89445,-0.25993 0.16243,-0.0155 0.33028,-0.0245 0.50333,-0.0248 0.004,0 0.008,0 0.0114,0 h 1.39888 c 0.004,0 0.008,0 0.0114,0 0.17305,3.4e-4 0.3409,0.009 0.50333,0.0248 1.0514,0.0306 1.89446,0.12615 1.89446,0.25993 v 0.77515 0.34055 c 0,0.001 1.3e-4,0.002 0,0.004 v 0.9059 c 0,0.58697 -1.07447,1.05937 -2.40916,1.05937 z" /><path
       id="path65"
       style="fill:#966964;fill-opacity:1;stroke:#a47d79;stroke-width:0;stroke-linecap:round;paint-order:fill markers stroke"
       d="m 111.75768,135.52729 c -1.33469,0 -2.40915,-0.4724 -2.40915,-1.05937 v -0.90589 c -1.4e-4,-0.001 0,-0.002 0,-0.004 v -0.34056 -0.77515 c 0,-0.13378 0.84305,-0.22934 1.89445,-0.25993 0.16243,-0.0155 0.33028,-0.0245 0.50333,-0.0248 0.004,0 0.008,0 0.0114,0 h 1.39888 c 0.004,0 0.008,0 0.0114,0 0.17305,3.4e-4 0.3409,0.009 0.50333,0.0248 1.0514,0.0306 1.89446,0.12615 1.89446,0.25993 v 0.77515 0.34055 c 0,0.001 1.3e-4,0.002 0,0.004 v 0.9059 c 0,0.58697 -1.07447,1.05937 -2.40916,1.05937 z" /><path
       id="path66"
       style="fill:#966964;fill-opacity:1;stroke:#a47d79;stroke-width:0;stroke-linecap:round;paint-order:fill markers stroke"
       d="m 118.99571,135.52729 c -1.33469,0 -2.40915,-0.4724 -2.40915,-1.05937 v -0.90589 c -1.4e-4,-0.001 0,-0.002 0,-0.004 v -0.34056 -0.77515 c 0,-0.13378 0.84305,-0.22934 1.89445,-0.25993 0.16243,-0.0155 0.33028,-0.0245 0.50333,-0.0248 0.004,0 0.008,0 0.0114,0 h 1.39888 c 0.004,0 0.008,0 0.0114,0 0.17305,3.4e-4 0.3409,0.009 0.50333,0.0248 1.0514,0.0306 1.89446,0.12615 1.89446,0.25993 v 0.77515 0.34055 c 0,0.001 1.3e-4,0.002 0,0.004 v 0.9059 c 0,0.58697 -1.07447,1.05937 -2.40916,1.05937 z" /><path
       id="path67"
       style="fill:#966964;fill-opacity:1;stroke:#a47d79;stroke-width:0;stroke-linecap:round;paint-order:fill markers stroke"
       d="m 126.23374,135.52729 c -1.33469,0 -2.40915,-0.4724 -2.40915,-1.05937 v -0.90589 c -1.4e-4,-0.001 0,-0.002 0,-0.004 v -0.34056 -0.77515 c 0,-0.13378 0.84305,-0.22934 1.89445,-0.25993 0.16243,-0.0155 0.33028,-0.0245 0.50333,-0.0248 0.004,0 0.008,0 0.0114,0 h 1.39888 c 0.004,0 0.008,0 0.0114,0 0.17305,3.4e-4 0.3409,0.009 0.50333,0.0248 1.0514,0.0306 1.89446,0.12615 1.89446,0.25993 v 0.77515 0.34055 c 0,0.001 1.3e-4,0.002 0,0.004 v 0.9059 c 0,0.58697 -1.07447,1.05937 -2.40916,1.05937 z" /><path
       id="path68"
       style="fill:#966964;fill-opacity:1;stroke:#a47d79;stroke-width:0;stroke-linecap:round;paint-order:fill markers stroke"
       d="m 136.26965,135.52729 c -1.33469,0 -2.40915,-0.4724 -2.40915,-1.05937 v -0.90589 c -1.4e-4,-0.001 0,-0.002 0,-0.004 v -0.34056 -0.77515 c 0,-0.13378 0.84305,-0.22934 1.89445,-0.25993 0.16243,-0.0155 0.33028,-0.0245 0.50333,-0.0248 0.004,0 0.008,0 0.0114,0 h 1.39888 c 0.004,0 0.008,0 0.0114,0 0.17305,3.4e-4 0.3409,0.009 0.50333,0.0248 1.0514,0.0306 1.89446,0.12615 1.89446,0.25993 v 0.77515 0.34055 c 0,0.001 1.3e-4,0.002 0,0.004 v 0.9059 c 0,0.58697 -1.07447,1.05937 -2.40916,1.05937 z" /><path
       id="path69"
       style="fill:#966964;fill-opacity:1;stroke:#a47d79;stroke-width:0;stroke-linecap:round;paint-order:fill markers stroke"
       d="m 143.50768,135.52729 c -1.33469,0 -2.40915,-0.4724 -2.40915,-1.05937 v -0.90589 c -1.4e-4,-0.001 0,-0.002 0,-0.004 v -0.34056 -0.77515 c 0,-0.13378 0.84305,-0.22934 1.89445,-0.25993 0.16243,-0.0155 0.33028,-0.0245 0.50333,-0.0248 0.004,0 0.008,0 0.0114,0 h 1.39888 c 0.004,0 0.008,0 0.0114,0 0.17305,3.4e-4 0.3409,0.009 0.50333,0.0248 1.0514,0.0306 1.89446,0.12615 1.89446,0.25993 v 0.77515 0.34055 c 0,0.001 1.3e-4,0.002 0,0.004 v 0.9059 c 0,0.58697 -1.07447,1.05937 -2.40916,1.05937 z" /><path
       id="path70"
       style="fill:#966964;fill-opacity:1;stroke:#a47d79;stroke-width:0;stroke-linecap:round;paint-order:fill markers stroke"
       d="m 150.74571,135.52729 c -1.33469,0 -2.40915,-0.4724 -2.40915,-1.05937 v -0.90589 c -1.4e-4,-0.001 0,-0.002 0,-0.004 v -0.34056 -0.77515 c 0,-0.13378 0.84305,-0.22934 1.89445,-0.25993 0.16243,-0.0155 0.33028,-0.0245 0.50333,-0.0248 0.004,0 0.008,0 0.0114,0 h 1.39888 c 0.004,0 0.008,0 0.0114,0 0.17305,3.4e-4 0.3409,0.009 0.50333,0.0248 1.0514,0.0306 1.89446,0.12615 1.89446,0.25993 v 0.77515 0.34055 c 0,0.001 1.3e-4,0.002 0,0.004 v 0.9059 c 0,0.58697 -1.07447,1.05937 -2.40916,1.05937 z" /><path
       id="path71"
       style="fill:#966964;fill-opacity:1;stroke:#a47d79;stroke-width:0;stroke-linecap:round;paint-order:fill markers stroke"
       d="m 157.98374,135.52729 c -1.33469,0 -2.40915,-0.4724 -2.40915,-1.05937 v -0.90589 c -1.4e-4,-0.001 0,-0.002 0,-0.004 v -0.34056 -0.77515 c 0,-0.13378 0.84305,-0.22934 1.89445,-0.25993 0.16243,-0.0155 0.33028,-0.0245 0.50333,-0.0248 0.004,0 0.008,0 0.0114,0 h 1.39888 c 0.004,0 0.008,0 0.0114,0 0.17305,3.4e-4 0.3409,0.009 0.50333,0.0248 1.0514,0.0306 1.89446,0.12615 1.89446,0.25993 v 0.77515 0.34055 c 0,0.001 1.3e-4,0.002 0,0.004 v 0.9059 c 0,0.58697 -1.07447,1.05937 -2.40916,1.05937 z" /><path
       id="path72"
       style="fill:#966964;fill-opacity:1;stroke:#a47d79;stroke-width:0;stroke-linecap:round;paint-order:fill markers stroke"
       d="m 104.51965,141.25456 c -1.33469,0 -2.40915,-0.4724 -2.40915,-1.05937 v -0.90589 c -1.4e-4,-0.001 0,-0.002 0,-0.004 v -0.34056 -0.77515 c 0,-0.13378 0.84305,-0.22934 1.89445,-0.25993 0.16243,-0.0155 0.33028,-0.0245 0.50333,-0.0248 0.004,0 0.008,0 0.0114,0 h 1.39888 c 0.004,0 0.008,0 0.0114,0 0.17305,3.4e-4 0.3409,0.009 0.50333,0.0248 1.0514,0.0306 1.89446,0.12615 1.89446,0.25993 v 0.77515 0.34055 c 0,0.001 1.3e-4,0.002 0,0.004 v 0.9059 c 0,0.58697 -1.07447,1.05937 -2.40916,1.05937 z" /><path
       id="path73"
       style="fill:#966964;fill-opacity:1;stroke:#a47d79;stroke-width:0;stroke-linecap:round;paint-order:fill markers stroke"
       d="m 111.75768,141.25456 c -1.33469,0 -2.40915,-0.4724 -2.40915,-1.05937 v -0.90589 c -1.4e-4,-0.001 0,-0.002 0,-0.004 v -0.34056 -0.77515 c 0,-0.13378 0.84305,-0.22934 1.89445,-0.25993 0.16243,-0.0155 0.33028,-0.0245 0.50333,-0.0248 0.004,0 0.008,0 0.0114,0 h 1.39888 c 0.004,0 0.008,0 0.0114,0 0.17305,3.4e-4 0.3409,0.009 0.50333,0.0248 1.0514,0.0306 1.89446,0.12615 1.89446,0.25993 v 0.77515 0.34055 c 0,0.001 1.3e-4,0.002 0,0.004 v 0.9059 c 0,0.58697 -1.07447,1.05937 -2.40916,1.05937 z" /><path
       id="path74"
       style="fill:#966964;fill-opacity:1;stroke:#a47d79;stroke-width:0;stroke-linecap:round;paint-order:fill markers stroke"
       d="m 118.99571,141.25456 c -1.33469,0 -2.40915,-0.4724 -2.40915,-1.05937 v -0.90589 c -1.4e-4,-0.001 0,-0.002 0,-0.004 v -0.34056 -0.77515 c 0,-0.13378 0.84305,-0.22934 1.89445,-0.25993 0.16243,-0.0155 0.33028,-0.0245 0.50333,-0.0248 0.004,0 0.008,0 0.0114,0 h 1.39888 c 0.004,0 0.008,0 0.0114,0 0.17305,3.4e-4 0.3409,0.009 0.50333,0.0248 1.0514,0.0306 1.89446,0.12615 1.89446,0.25993 v 0.77515 0.34055 c 0,0.001 1.3e-4,0.002 0,0.004 v 0.9059 c 0,0.58697 -1.07447,1.05937 -2.40916,1.05937 z" /><path
       id="path75"
       style="fill:#966964;fill-opacity:1;stroke:#a47d79;stroke-width:0;stroke-linecap:round;paint-order:fill markers stroke"
       d="m 126.23374,141.25456 c -1.33469,0 -2.40915,-0.4724 -2.40915,-1.05937 v -0.90589 c -1.4e-4,-0.001 0,-0.002 0,-0.004 v -0.34056 -0.77515 c 0,-0.13378 0.84305,-0.22934 1.89445,-0.25993 0.16243,-0.0155 0.33028,-0.0245 0.50333,-0.0248 0.004,0 0.008,0 0.0114,0 h 1.39888 c 0.004,0 0.008,0 0.0114,0 0.17305,3.4e-4 0.3409,0.009 0.50333,0.0248 1.0514,0.0306 1.89446,0.12615 1.89446,0.25993 v 0.77515 0.34055 c 0,0.001 1.3e-4,0.002 0,0.004 v 0.9059 c 0,0.58697 -1.07447,1.05937 -2.40916,1.05937 z" /><path
       id="path76"
       style="fill:#966964;fill-opacity:1;stroke:#a47d79;stroke-width:0;stroke-linecap:round;paint-order:fill markers stroke"
       d="m 136.26965,141.25456 c -1.33469,0 -2.40915,-0.4724 -2.40915,-1.05937 v -0.90589 c -1.4e-4,-0.001 0,-0.002 0,-0.004 v -0.34056 -0.77515 c 0,-0.13378 0.84305,-0.22934 1.89445,-0.25993 0.16243,-0.0155 0.33028,-0.0245 0.50333,-0.0248 0.004,0 0.008,0 0.0114,0 h 1.39888 c 0.004,0 0.008,0 0.0114,0 0.17305,3.4e-4 0.3409,0.009 0.50333,0.0248 1.0514,0.0306 1.89446,0.12615 1.89446,0.25993 v 0.77515 0.34055 c 0,0.001 1.3e-4,0.002 0,0.004 v 0.9059 c 0,0.58697 -1.07447,1.05937 -2.40916,1.05937 z" /><path
       id="path77"
       style="fill:#966964;fill-opacity:1;stroke:#a47d79;stroke-width:0;stroke-linecap:round;paint-order:fill markers stroke"
       d="m 143.50768,141.25456 c -1.33469,0 -2.40915,-0.4724 -2.40915,-1.05937 v -0.90589 c -1.4e-4,-0.001 0,-0.002 0,-0.004 v -0.34056 -0.77515 c 0,-0.13378 0.84305,-0.22934 1.89445,-0.25993 0.16243,-0.0155 0.33028,-0.0245 0.50333,-0.0248 0.004,0 0.008,0 0.0114,0 h 1.39888 c 0.004,0 0.008,0 0.0114,0 0.17305,3.4e-4 0.3409,0.009 0.50333,0.0248 1.0514,0.0306 1.89446,0.12615 1.89446,0.25993 v 0.77515 0.34055 c 0,0.001 1.3e-4,0.002 0,0.004 v 0.9059 c 0,0.58697 -1.07447,1.05937 -2.40916,1.05937 z" /><path
       id="path78"
       style="fill:#966964;fill-opacity:1;stroke:#a47d79;stroke-width:0;stroke-linecap:round;paint-order:fill markers stroke"
       d="m 150.74571,141.25456 c -1.33469,0 -2.40915,-0.4724 -2.40915,-1.05937 v -0.90589 c -1.4e-4,-0.001 0,-0.002 0,-0.004 v -0.34056 -0.77515 c 0,-0.13378 0.84305,-0.22934 1.89445,-0.25993 0.16243,-0.0155 0.33028,-0.0245 0.50333,-0.0248 0.004,0 0.008,0 0.0114,0 h 1.39888 c 0.004,0 0.008,0 0.0114,0 0.17305,3.4e-4 0.3409,0.009 0.50333,0.0248 1.0514,0.0306 1.89446,0.12615 1.89446,0.25993 v 0.77515 0.34055 c 0,0.001 1.3e-4,0.002 0,0.004 v 0.9059 c 0,0.58697 -1.07447,1.05937 -2.40916,1.05937 z" /><path
       id="path79"
       style="fill:#966964;fill-opacity:1;stroke:#a47d79;stroke-width:0;stroke-linecap:round;paint-order:fill markers stroke"
       d="m 157.98374,141.25456 c -1.33469,0 -2.40915,-0.4724 -2.40915,-1.05937 v -0.90589 c -1.4e-4,-0.001 0,-0.002 0,-0.004 v -0.34056 -0.77515 c 0,-0.13378 0.84305,-0.22934 1.89445,-0.25993 0.16243,-0.0155 0.33028,-0.0245 0.50333,-0.0248 0.004,0 0.008,0 0.0114,0 h 1.39888 c 0.004,0 0.008,0 0.0114,0 0.17305,3.4e-4 0.3409,0.009 0.50333,0.0248 1.0514,0.0306 1.89446,0.12615 1.89446,0.25993 v 0.77515 0.34055 c 0,0.001 1.3e-4,0.002 0,0.004 v 0.9059 c 0,0.58697 -1.07447,1.05937 -2.40916,1.05937 z" /><path
       id="path80"
       style="fill:#966964;fill-opacity:1;stroke:#a47d79;stroke-width:0;stroke-linecap:round;paint-order:fill markers stroke"
       d="m 104.51965,79.221612 c -1.33469,0 -2.40915,0.472393 -2.40915,1.059367 v 0.905888 c -1.4e-4,0.0012 0,0.0024 0,0.0036 v 0.340565 0.775147 c 0,0.133783 0.84305,0.22934 1.89445,0.259932 0.16243,0.01545 0.33028,0.02446 0.50333,0.02481 0.004,2e-6 0.008,0 0.0114,0 h 1.39888 c 0.004,0 0.008,2e-6 0.0114,0 0.17305,-3.41e-4 0.3409,-0.0094 0.50333,-0.02481 1.0514,-0.03059 1.89446,-0.126149 1.89446,-0.259932 v -0.775147 -0.340548 c 0,-0.0012 1.3e-4,-0.0024 0,-0.0036 v -0.905905 c 0,-0.586974 -1.07447,-1.059367 -2.40916,-1.059367 z" /><path
       id="path81"
       style="fill:#966964;fill-opacity:1;stroke:#a47d79;stroke-width:0;stroke-linecap:round;paint-order:fill markers stroke"
       d="m 111.75768,79.221612 c -1.33469,0 -2.40915,0.472393 -2.40915,1.059367 v 0.905888 c -1.4e-4,0.0012 0,0.0024 0,0.0036 v 0.340565 0.775147 c 0,0.133783 0.84305,0.22934 1.89445,0.259932 0.16243,0.01545 0.33028,0.02446 0.50333,0.02481 0.004,2e-6 0.008,0 0.0114,0 h 1.39888 c 0.004,0 0.008,2e-6 0.0114,0 0.17305,-3.41e-4 0.3409,-0.0094 0.50333,-0.02481 1.0514,-0.03059 1.89446,-0.126149 1.89446,-0.259932 v -0.775147 -0.340548 c 0,-0.0012 1.3e-4,-0.0024 0,-0.0036 v -0.905905 c 0,-0.586974 -1.07447,-1.059367 -2.40916,-1.059367 z" /><path
       id="path82"
       style="fill:#966964;fill-opacity:1;stroke:#a47d79;stroke-width:0;stroke-linecap:round;paint-order:fill markers stroke"
       d="m 118.99571,79.221612 c -1.33469,0 -2.40915,0.472393 -2.40915,1.059367 v 0.905888 c -1.4e-4,0.0012 0,0.0024 0,0.0036 v 0.340565 0.775147 c 0,0.133783 0.84305,0.22934 1.89445,0.259932 0.16243,0.01545 0.33028,0.02446 0.50333,0.02481 0.004,2e-6 0.008,0 0.0114,0 h 1.39888 c 0.004,0 0.008,2e-6 0.0114,0 0.17305,-3.41e-4 0.3409,-0.0094 0.50333,-0.02481 1.0514,-0.03059 1.89446,-0.126149 1.89446,-0.259932 v -0.775147 -0.340548 c 0,-0.0012 1.3e-4,-0.0024 0,-0.0036 v -0.905905 c 0,-0.586974 -1.07447,-1.059367 -2.40916,-1.059367 z" /><path
       id="path83"
       style="fill:#966964;fill-opacity:1;stroke:#a47d79;stroke-width:0;stroke-linecap:round;paint-order:fill markers stroke"
       d="m 126.23374,79.221612 c -1.33469,0 -2.40915,0.472393 -2.40915,1.059367 v 0.905888 c -1.4e-4,0.0012 0,0.0024 0,0.0036 v 0.340565 0.775147 c 0,0.133783 0.84305,0.22934 1.89445,0.259932 0.16243,0.01545 0.33028,0.02446 0.50333,0.02481 0.004,2e-6 0.008,0 0.0114,0 h 1.39888 c 0.004,0 0.008,2e-6 0.0114,0 0.17305,-3.41e-4 0.3409,-0.0094 0.50333,-0.02481 1.0514,-0.03059 1.89446,-0.126149 1.89446,-0.259932 v -0.775147 -0.340548 c 0,-0.0012 1.3e-4,-0.0024 0,-0.0036 v -0.905905 c 0,-0.586974 -1.07447,-1.059367 -2.40916,-1.059367 z" /><path
       id="path84"
       style="fill:#966964;fill-opacity:1;stroke:#a47d79;stroke-width:0;stroke-linecap:round;paint-order:fill markers stroke"
       d="m 136.26965,79.221612 c -1.33469,0 -2.40915,0.472393 -2.40915,1.059367 v 0.905888 c -1.4e-4,0.0012 0,0.0024 0,0.0036 v 0.340565 0.775147 c 0,0.133783 0.84305,0.22934 1.89445,0.259932 0.16243,0.01545 0.33028,0.02446 0.50333,0.02481 0.004,2e-6 0.008,0 0.0114,0 h 1.39888 c 0.004,0 0.008,2e-6 0.0114,0 0.17305,-3.41e-4 0.3409,-0.0094 0.50333,-0.02481 1.0514,-0.03059 1.89446,-0.126149 1.89446,-0.259932 v -0.775147 -0.340548 c 0,-0.0012 1.3e-4,-0.0024 0,-0.0036 v -0.905905 c 0,-0.586974 -1.07447,-1.059367 -2.40916,-1.059367 z" /><path
       id="path85"
       style="fill:#966964;fill-opacity:1;stroke:#a47d79;stroke-width:0;stroke-linecap:round;paint-order:fill markers stroke"
       d="m 143.50768,79.221612 c -1.33469,0 -2.40915,0.472393 -2.40915,1.059367 v 0.905888 c -1.4e-4,0.0012 0,0.0024 0,0.0036 v 0.340565 0.775147 c 0,0.133783 0.84305,0.22934 1.89445,0.259932 0.16243,0.01545 0.33028,0.02446 0.50333,0.02481 0.004,2e-6 0.008,0 0.0114,0 h 1.39888 c 0.004,0 0.008,2e-6 0.0114,0 0.17305,-3.41e-4 0.3409,-0.0094 0.50333,-0.02481 1.0514,-0.03059 1.89446,-0.126149 1.89446,-0.259932 v -0.775147 -0.340548 c 0,-0.0012 1.3e-4,-0.0024 0,-0.0036 v -0.905905 c 0,-0.586974 -1.07447,-1.059367 -2.40916,-1.059367 z" /><path
       id="path86"
       style="fill:#966964;fill-opacity:1;stroke:#a47d79;stroke-width:0;stroke-linecap:round;paint-order:fill markers stroke"
       d="m 150.74571,79.221612 c -1.33469,0 -2.40915,0.472393 -2.40915,1.059367 v 0.905888 c -1.4e-4,0.0012 0,0.0024 0,0.0036 v 0.340565 0.775147 c 0,0.133783 0.84305,0.22934 1.89445,0.259932 0.16243,0.01545 0.33028,0.02446 0.50333,0.02481 0.004,2e-6 0.008,0 0.0114,0 h 1.39888 c 0.004,0 0.008,2e-6 0.0114,0 0.17305,-3.41e-4 0.3409,-0.0094 0.50333,-0.02481 1.0514,-0.03059 1.89446,-0.126149 1.89446,-0.259932 v -0.775147 -0.340548 c 0,-0.0012 1.3e-4,-0.0024 0,-0.0036 v -0.905905 c 0,-0.586974 -1.07447,-1.059367 -2.40916,-1.059367 z" /><path
       id="path87"
       style="fill:#966964;fill-opacity:1;stroke:#a47d79;stroke-width:0;stroke-linecap:round;paint-order:fill markers stroke"
       d="m 157.98374,79.221612 c -1.33469,0 -2.40915,0.472393 -2.40915,1.059367 v 0.905888 c -1.4e-4,0.0012 0,0.0024 0,0.0036 v 0.340565 0.775147 c 0,0.133783 0.84305,0.22934 1.89445,0.259932 0.16243,0.01545 0.33028,0.02446 0.50333,0.02481 0.004,2e-6 0.008,0 0.0114,0 h 1.39888 c 0.004,0 0.008,2e-6 0.0114,0 0.17305,-3.41e-4 0.3409,-0.0094 0.50333,-0.02481 1.0514,-0.03059 1.89446,-0.126149 1.89446,-0.259932 v -0.775147 -0.340548 c 0,-0.0012 1.3e-4,-0.0024 0,-0.0036 v -0.905905 c 0,-0.586974 -1.07447,-1.059367 -2.40916,-1.059367 z" /><rect
       style="fill:#2a1d1b;fill-opacity:1;stroke:#a47d79;stroke-width:0;stroke-linecap:round;stroke-dasharray:none;stroke-opacity:1;paint-order:fill markers stroke"
       id="rect87"
       width="6.7465134"
       height="6.8970199"
       x="88.181808"
       y="125.99377"
       rx="0"
       ry="0.28430772" /><path
       style="fill:#2a1d1b;fill-opacity:1;stroke:#2a1d1b;stroke-width:1.5;stroke-linecap:round;stroke-dasharray:none;stroke-opacity:1;paint-order:fill markers stroke"
       d="M 91.655593,128.6396 V 117.42715"
       id="path88" /><rect
       style="fill:#2a1d1b;fill-opacity:1;stroke:#2a1d1b;stroke-width:1.5;stroke-linecap:round;stroke-dasharray:none;stroke-opacity:1;paint-order:fill markers stroke"
       id="rect88"
       width="6.7900624"
       height="2.2087708"
       x="131.91211"
       y="60.898254"
       ry="0.28430772"
       transform="rotate(27.002625)" /><rect
       style="fill:#2a1d1b;fill-opacity:1;stroke:#a47d79;stroke-width:0;stroke-linecap:round;stroke-dasharray:none;stroke-opacity:1;paint-order:fill markers stroke"
       id="rect89"
       width="6.7465134"
       height="6.8970199"
       x="-173.08002"
       y="125.99377"
       rx="0"
       ry="0.28430772"
       transform="scale(-1,1)" /><path
       style="fill:#2a1d1b;fill-opacity:1;stroke:#2a1d1b;stroke-width:1.5;stroke-linecap:round;stroke-dasharray:none;stroke-opacity:1;paint-order:fill markers stroke"
       d="M 169.60623,128.6396 V 117.42715"
       id="path89" /><rect
       style="fill:#2a1d1b;fill-opacity:1;stroke:#2a1d1b;stroke-width:1.5;stroke-linecap:round;stroke-dasharray:none;stroke-opacity:1;paint-order:fill markers stroke"
       id="rect90"
       width="6.7900624"
       height="2.2087708"
       x="-100.86845"
       y="179.5193"
       ry="0.28430772"
       transform="matrix(-0.89098572,0.45403132,0.45403132,0.89098572,0,0)" /><circle
       style="fill:#2a1d1b;fill-opacity:0;stroke:#a1ae9a;stroke-width:1.5;stroke-linecap:round;stroke-dasharray:none;stroke-opacity:1;paint-order:fill markers stroke"
       id="path90"
       cx="130.51514"
       cy="110.11877"
       r="4.3679914" /><path
       style="fill:#2a1d1b;fill-opacity:0;stroke:#a1ae9a;stroke-width:1.5;stroke-linecap:square;stroke-dasharray:none;stroke-opacity:1;paint-order:fill markers stroke"
       d="M 130.51514,105.83269 V 97.91571"
       id="path91" /><path
       style="fill:#2a1d1b;fill-opacity:0;stroke:#a1ae9a;stroke-width:1.5;stroke-linecap:square;stroke-dasharray:none;stroke-opacity:1;paint-order:fill markers stroke"
       d="m 130.51514,114.40484 v 7.91698"
       id="path92" /><circle
       style="fill:#a1ae9a;fill-opacity:1;stroke:#a1ae9a;stroke-width:1.6;stroke-linecap:round;stroke-dasharray:none;stroke-opacity:1;paint-order:fill markers stroke"
       id="circle92"
       cx="130.51514"
       cy="110.11877"
       r="0.37605214" /></g></svg>
