<?xml version="1.0" encoding="UTF-8" standalone="no"?>
<!-- Created with Inkscape (http://www.inkscape.org/) -->

<svg
   width="93.589859mm"
   height="63.480484mm"
   viewBox="0 0 93.589864 63.480482"
   version="1.1"
   id="svg1"
   inkscape:version="1.4.2 (f4327f4, 2025-05-13)"
   sodipodi:docname="TrainPreview.svg"
   inkscape:export-filename="DiscoPreview.png"
   inkscape:export-xdpi="96"
   inkscape:export-ydpi="96"
   xml:space="preserve"
   xmlns:inkscape="http://www.inkscape.org/namespaces/inkscape"
   xmlns:sodipodi="http://sodipodi.sourceforge.net/DTD/sodipodi-0.dtd"
   xmlns="http://www.w3.org/2000/svg"
   xmlns:svg="http://www.w3.org/2000/svg"><sodipodi:namedview
     id="namedview1"
     pagecolor="#ffffff"
     bordercolor="#000000"
     borderopacity="0.25"
     inkscape:showpageshadow="2"
     inkscape:pageopacity="0.0"
     inkscape:pagecheckerboard="0"
     inkscape:deskcolor="#d1d1d1"
     inkscape:document-units="mm"
     inkscape:zoom="3.2337962"
     inkscape:cx="92.770226"
     inkscape:cy="99.109524"
     inkscape:window-width="3840"
     inkscape:window-height="2054"
     inkscape:window-x="-11"
     inkscape:window-y="-11"
     inkscape:window-maximized="1"
     inkscape:current-layer="svg1"
     showgrid="true"><inkscape:grid
       id="grid2"
       units="px"
       originx="-80.204087"
       originy="-101.1455"
       spacingx="2.6458333"
       spacingy="2.6458333"
       empcolor="#0099e5"
       empopacity="0.30196078"
       color="#0099e5"
       opacity="0.14901961"
       empspacing="5"
       enabled="true"
       visible="true" /></sodipodi:namedview><defs
     id="defs1"><rect
       x="56.866434"
       y="57.717783"
       width="52.464996"
       height="20.740758"
       id="rect3" /><inkscape:path-effect
       effect="mirror_symmetry"
       start_point="437.94768,65.434905"
       end_point="437.94768,88.712379"
       center_point="437.94768,77.073642"
       id="path-effect165"
       is_visible="true"
       lpeversion="1.2"
       lpesatellites=""
       mode="free"
       discard_orig_path="false"
       fuse_paths="true"
       oposite_fuse="false"
       split_items="false"
       split_open="false"
       link_styles="false" /><clipPath
       clipPathUnits="userSpaceOnUse"
       id="clipPath1124"><path
         id="path1124"
         style="display:inline;fill:#feeac3;stroke:#476a4b;stroke-width:0;stroke-linecap:round;stroke-linejoin:round"
         d="m 120.28134,81.014856 a 12.670068,12.785777 0 0 1 0.002,0.21394 12.670068,12.785777 0 0 1 -12.6706,12.785783 A 12.670068,12.785777 0 0 1 95.217752,83.87618 c -1.10704,0.332238 -2.138263,0.68524 -3.083533,1.054199 -2.89342,1.129368 -4.943486,2.434963 -5.855456,3.279386 -0.3921,0.36306 -0.472841,0.478058 -0.517281,0.52555 v 30.139765 3.29179 10.52338 c 0.0444,0.0475 0.125171,0.16249 0.517281,0.52555 0.91196,0.84443 2.962036,2.15002 5.855456,3.27939 5.78684,2.25873 14.786071,3.91604 24.783501,3.91604 h 27.19524 c 9.99743,0 18.99466,-1.65738 24.78091,-3.91604 2.89313,-1.12933 4.94366,-2.43504 5.85546,-3.27939 0.39193,-0.36293 0.47331,-0.47591 0.5178,-0.52348 v -8.107 -4.33152 -31.520552 c -0.0445,-0.04757 -0.12587,-0.160551 -0.5178,-0.523483 -0.9118,-0.844348 -2.96233,-2.150055 -5.85546,-3.279386 -5.78625,-2.258663 -14.78348,-3.915523 -24.78091,-3.915523 z" /></clipPath></defs><path
     id="path19"
     style="display:none;fill:#a18fd9;stroke:#212532;stroke-width:1.10229;stroke-linejoin:round;stroke-miterlimit:8.2;stroke-opacity:0.995995"
     inkscape:transform-center-x="-0.074448879"
     inkscape:transform-center-y="0.094904335"
     d="m 99.716107,69.042054 c -3.3e-4,0.68279 -4.44853,3.14227 -5.06443,2.80038 -0.61591,-0.34189 -0.6116,-5.26801 0.005,-5.60891 0.61651,-0.3409 5.06012,2.12574 5.05953,2.80853 z" /><g
     inkscape:label="Ebene 1"
     inkscape:groupmode="layer"
     id="layer1"
     transform="translate(-83.719229,-78.972603)"
     style="display:inline"><g
       id="path14"
       style="opacity:1"><path
         style="baseline-shift:baseline;display:inline;overflow:visible;vector-effect:none;fill:#99a169;fill-opacity:0;stroke-linecap:round;paint-order:fill markers stroke;enable-background:accumulate;stop-color:#000000;stop-opacity:1"
         d="m 162.59196,78.454681 c 0,0 -5.037,11.832426 -9.86732,15.698212 -6.51021,5.210214 -16.28148,3.140806 -23.06817,7.947457 -4.14219,2.9337 -5.50893,8.90919 -9.60061,11.92067 -2.42722,1.78643 -6.08969,1.10285 -8.26721,3.20487 -3.57688,3.45288 -3.0111,9.44848 -5.86705,13.50849 -1.44047,2.04776 -4.34219,2.94792 -5.46703,5.16533 -2.082624,4.10544 1.23987,9.51647 -1.466763,13.28139 -2.630996,3.65971 -8.357235,3.13956 -12.000786,5.76615 -4.009035,2.89005 -6.077154,8.36672 -10.400663,10.6722 -2.216913,1.18216 -5.059433,-0.12661 -7.200465,1.21115 -3.264491,2.03971 -3.817358,7.05867 -6.933787,9.34549 -8.481131,6.22343 -29.201899,9.84173 -29.201899,9.84173"
         id="path22" /></g><g
       id="g1124"
       clip-path="url(#clipPath1124)"><path
         d="m 120.28134,81.014856 a 12.670068,12.785777 0 0 1 0.002,0.21394 A 12.670068,12.785777 0 0 1 107.61286,94.014579 12.670068,12.785777 0 0 1 95.217752,83.87618 c -1.107045,0.332238 -2.138266,0.68524 -3.083533,1.054199 -2.893421,1.129368 -4.943488,2.434963 -5.855456,3.279386 -0.392101,0.36306 -0.472842,0.478058 -0.517281,0.52555 v 30.139765 a 74.012268,22.563063 0 0 1 41.780908,-3.93878 74.012268,22.563063 0 0 1 47.72474,5.3175 V 88.733248 c -0.0445,-0.04757 -0.12587,-0.160551 -0.5178,-0.523483 -0.9118,-0.844348 -2.96233,-2.150055 -5.85546,-3.279386 -5.78625,-2.258663 -14.78348,-3.915523 -24.78091,-3.915523 z"
         style="display:inline;fill:#feeac3;stroke:#476a4b;stroke-width:0;stroke-linecap:round;stroke-linejoin:round"
         id="path890" /><g
         id="g26"
         transform="translate(-1.7181819)"><rect
           style="fill:#883934;fill-opacity:1;stroke:#476a4b;stroke-width:0;stroke-linecap:square;paint-order:fill markers stroke"
           id="rect17"
           width="4.5818181"
           height="6.6121173"
           x="-125.30975"
           y="100.78387"
           rx="1.079111"
           ry="0.49176058"
           transform="matrix(-1,0,0.30307187,0.9529677,0,0)" /><rect
           style="fill:#72302c;fill-opacity:1;stroke:#476a4b;stroke-width:0;stroke-linecap:square;paint-order:fill markers stroke"
           id="rect18"
           width="4.5818181"
           height="6.6121173"
           x="-120.72793"
           y="100.78387"
           rx="1.079111"
           ry="0.49176058"
           transform="matrix(-1,0,0.30307187,0.9529677,0,0)" /><rect
           style="fill:#632827;fill-opacity:1;stroke:#476a4b;stroke-width:0;stroke-linecap:square;paint-order:fill markers stroke"
           id="rect19"
           width="4.5818181"
           height="6.6121173"
           x="-116.14611"
           y="100.78387"
           rx="1.079111"
           ry="0.49176058"
           transform="matrix(-1,0,0.30307187,0.9529677,0,0)" /><rect
           style="fill:#72302c;fill-opacity:1;stroke:#476a4b;stroke-width:0;stroke-linecap:square;paint-order:fill markers stroke"
           id="rect20"
           width="4.5818181"
           height="6.6121173"
           x="-111.56429"
           y="100.78387"
           rx="1.079111"
           ry="0.49176058"
           transform="matrix(-1,0,0.30307187,0.9529677,0,0)" /><rect
           style="fill:#632827;fill-opacity:1;stroke:#476a4b;stroke-width:0;stroke-linecap:square;paint-order:fill markers stroke"
           id="rect21"
           width="4.5818181"
           height="6.6121173"
           x="-106.98248"
           y="100.78387"
           rx="1.079111"
           ry="0.49176058"
           transform="matrix(-1,0,0.30307187,0.9529677,0,0)" /><rect
           style="fill:#632827;fill-opacity:1;stroke:#476a4b;stroke-width:0;stroke-linecap:square;paint-order:fill markers stroke"
           id="rect22"
           width="4.5818181"
           height="6.6121173"
           x="-80.497337"
           y="100.78387"
           rx="1.079111"
           ry="0.49176058"
           transform="matrix(-1,0,0.30307187,0.9529677,0,0)" /><rect
           style="fill:#883934;fill-opacity:1;stroke:#476a4b;stroke-width:0;stroke-linecap:square;paint-order:fill markers stroke"
           id="rect23"
           width="4.5818181"
           height="6.6121173"
           x="-85.079155"
           y="100.78387"
           rx="1.079111"
           ry="0.49176058"
           transform="matrix(-1,0,0.30307187,0.9529677,0,0)" /><rect
           style="fill:#72302c;fill-opacity:1;stroke:#476a4b;stroke-width:0;stroke-linecap:square;paint-order:fill markers stroke"
           id="rect24"
           width="4.5818181"
           height="6.6121173"
           x="-89.660973"
           y="100.78387"
           rx="1.079111"
           ry="0.49176058"
           transform="matrix(-1,0,0.30307187,0.9529677,0,0)" /><rect
           style="fill:#883934;fill-opacity:1;stroke:#476a4b;stroke-width:0;stroke-linecap:square;paint-order:fill markers stroke"
           id="rect25"
           width="4.5818181"
           height="6.6121173"
           x="-94.24279"
           y="100.78387"
           rx="1.079111"
           ry="0.49176058"
           transform="matrix(-1,0,0.30307187,0.9529677,0,0)" /><rect
           style="fill:#72302c;fill-opacity:1;stroke:#476a4b;stroke-width:0;stroke-linecap:square;paint-order:fill markers stroke"
           id="rect26"
           width="4.5818181"
           height="6.6121173"
           x="-98.824608"
           y="100.78387"
           rx="1.079111"
           ry="0.49176058"
           transform="matrix(-1,0,0.30307187,0.9529677,0,0)" /></g><rect
         style="fill:#7d5947;fill-opacity:1;stroke:#476a4b;stroke-width:0;stroke-linecap:square;paint-order:fill markers stroke"
         id="rect6"
         width="49.044243"
         height="10.855353"
         x="104.05681"
         y="103.05361"
         rx="1.079111"
         ry="0.53011513" /><rect
         style="fill:#40251e;fill-opacity:1;stroke:#476a4b;stroke-width:0;stroke-linecap:square;paint-order:fill markers stroke"
         id="rect30"
         width="2.5455844"
         height="13.537881"
         x="121.96085"
         y="100.89935"
         rx="2.0931833"
         ry="0.70192355" /><path
         d="m 175.26713,120.2538 a 74.012268,22.563063 0 0 0 -47.72474,-5.3175 74.012268,22.563063 0 0 0 -41.780908,3.93878 v 3.29179 10.52338 c 0.04444,0.0475 0.12518,0.16249 0.517281,0.52555 0.911967,0.84443 2.962035,2.15002 5.855456,3.27939 5.786842,2.25873 14.786071,3.91604 24.783501,3.91604 h 27.19524 c 9.99743,0 18.99466,-1.65738 24.78091,-3.91604 2.89313,-1.12933 4.94366,-2.43504 5.85546,-3.27939 0.39193,-0.36293 0.47331,-0.47591 0.5178,-0.52348 v -8.107 z"
         style="display:inline;fill:#eab57c;stroke:#a1ae9a;stroke-width:0;stroke-linecap:square;paint-order:fill markers stroke;fill-opacity:1"
         id="path2" /><g
         id="path130-0"
         style="opacity:1"><path
           style="baseline-shift:baseline;display:inline;overflow:visible;vector-effect:none;fill:#380c23;stroke-linecap:square;stroke-linejoin:round;paint-order:stroke fill markers;enable-background:accumulate;stop-color:#000000;stop-opacity:1"
           d="m 73.148437,125.5918 v 3.69922 h 1.84961 103.238283 1.84961 V 125.5918 H 178.23633 74.998047 Z"
           id="path1112" /><path
           style="baseline-shift:baseline;display:inline;overflow:visible;vector-effect:none;fill:#dc9368;stroke-linecap:square;stroke-linejoin:round;paint-order:stroke fill markers;enable-background:accumulate;stop-color:#000000;stop-opacity:1"
           d="M 178.23571,127.44197 H 74.998942"
           id="path1113" /></g><path
         id="path161-2"
         style="fill:#8b5d42;stroke:#762e54;stroke-width:0;stroke-linecap:square;stroke-linejoin:round;stroke-opacity:0.54828;paint-order:stroke fill markers"
         d="m 71.968413,127.91569 3.814064,-0.19767 0.193851,0.19767 v 8.6665 h -4.007915 z"
         sodipodi:nodetypes="cccccc" /><path
         id="path149-4"
         style="fill:#8b5d42;stroke:#762e54;stroke-width:0;stroke-linecap:square;stroke-linejoin:round;stroke-opacity:0.54828;paint-order:stroke fill markers"
         d="m 141.5355,128.01452 3.81406,-0.19767 0.19385,0.19767 v 8.6665 h -4.00791 z"
         sodipodi:nodetypes="cccccc" /><path
         id="path134-8"
         style="fill:#8b5d42;stroke:#762e54;stroke-width:0;stroke-linecap:square;stroke-linejoin:round;stroke-opacity:0.54828;paint-order:stroke fill markers"
         d="m 164.6599,128.01452 3.81407,-0.19767 0.19385,0.19767 v 8.6665 h -4.00792 z"
         sodipodi:nodetypes="cccccc" /><g
         id="path131-6"
         style="opacity:1"><path
           style="baseline-shift:baseline;display:inline;overflow:visible;vector-effect:none;fill:#762e54;stroke-linecap:square;stroke-linejoin:round;paint-order:stroke fill markers;enable-background:accumulate;stop-color:#000000;stop-opacity:1"
           d="m 73.849609,125.61719 v 2.30078 h 1.148438 103.238283 1.14844 v -2.30078 H 178.23633 74.998047 Z"
           id="path1110" /><path
           style="baseline-shift:baseline;display:inline;overflow:visible;vector-effect:none;fill:#dc9368;stroke-linecap:square;stroke-linejoin:round;paint-order:stroke fill markers;enable-background:accumulate;stop-color:#000000;stop-opacity:1"
           d="M 178.23571,126.76816 H 74.998942"
           id="path1111" /></g><path
         id="path147-5"
         style="fill:#8b5d42;stroke:#762e54;stroke-width:0;stroke-linecap:square;stroke-linejoin:round;stroke-opacity:0.54828;paint-order:stroke fill markers"
         d="m 176.41596,128.11335 3.81407,-0.19766 0.19385,0.19766 v 8.66651 h -4.00792 z"
         sodipodi:nodetypes="cccccc" /><path
         id="path153-0"
         style="fill:#8b5d42;stroke:#762e54;stroke-width:0;stroke-linecap:square;stroke-linejoin:round;stroke-opacity:0.54828;paint-order:stroke fill markers"
         d="m 95.480529,128.11335 3.814064,-0.19766 0.193851,0.19766 v 8.66651 h -4.007915 z"
         sodipodi:nodetypes="cccccc" /><path
         id="path156-9"
         style="fill:#8b5d42;stroke:#762e54;stroke-width:0;stroke-linecap:square;stroke-linejoin:round;stroke-opacity:0.54828;paint-order:stroke fill markers"
         d="m 107.23659,128.21219 3.81406,-0.19767 0.19385,0.19767 v 8.6665 h -4.00791 z"
         sodipodi:nodetypes="cccccc" /><path
         id="path154-0"
         style="fill:#8b5d42;stroke:#762e54;stroke-width:0;stroke-linecap:square;stroke-linejoin:round;stroke-opacity:0.54828;paint-order:stroke fill markers"
         d="m 118.60494,128.11335 3.81406,-0.19766 0.19385,0.19766 v 8.66651 h -4.00791 z"
         sodipodi:nodetypes="cccccc" /><path
         id="path155-0"
         style="fill:#8b5d42;stroke:#762e54;stroke-width:0;stroke-linecap:square;stroke-linejoin:round;stroke-opacity:0.54828;paint-order:stroke fill markers"
         d="m 130.36099,128.21219 3.81406,-0.19767 0.19386,0.19767 v 8.6665 h -4.00792 z"
         sodipodi:nodetypes="cccccc" /><path
         id="path162-6"
         style="fill:#8b5d42;stroke:#762e54;stroke-width:0;stroke-linecap:square;stroke-linejoin:round;stroke-opacity:0.54828;paint-order:stroke fill markers"
         d="m 83.724471,128.01452 3.814064,-0.19767 0.193851,0.19767 v 8.6665 h -4.007915 z"
         sodipodi:nodetypes="cccccc" /><g
         id="path132-1"
         style="opacity:1"><path
           style="baseline-shift:baseline;display:inline;overflow:visible;vector-effect:none;fill:#380c23;stroke-linecap:square;stroke-linejoin:round;paint-order:stroke fill markers;enable-background:accumulate;stop-color:#000000;stop-opacity:1"
           d="m 73.148437,135.16016 v 3.69921 h 1.84961 103.238283 1.84961 v -3.69921 H 178.23633 74.998047 Z"
           id="path1116" /><path
           style="baseline-shift:baseline;display:inline;overflow:visible;vector-effect:none;fill:#dc9368;stroke-linecap:square;stroke-linejoin:round;paint-order:stroke fill markers;enable-background:accumulate;stop-color:#000000;stop-opacity:1"
           d="M 178.23571,137.01018 H 74.998942"
           id="path1117" /></g><path
         id="path163-3"
         style="fill:#dc9368;stroke:#762e54;stroke-width:0;stroke-linecap:square;stroke-linejoin:round;stroke-opacity:0.54828;paint-order:stroke fill markers"
         d="m 71.774556,127.71802 h 4.007921 v 8.6665 h -4.007921 z"
         sodipodi:nodetypes="ccccc" /><path
         id="path150-8"
         style="fill:#8b5d42;stroke:#762e54;stroke-width:0;stroke-linecap:square;stroke-linejoin:round;stroke-opacity:0.54828;paint-order:stroke fill markers"
         d="m 153.29156,128.11335 3.81406,-0.19766 0.19385,0.19766 v 8.66651 h -4.00791 z"
         sodipodi:nodetypes="cccccc" /><path
         id="path135-9"
         style="fill:#dc9368;stroke:#762e54;stroke-width:0;stroke-linecap:square;stroke-linejoin:round;stroke-opacity:0.54828;paint-order:stroke fill markers"
         d="m 164.46605,127.81685 h 4.00792 v 8.6665 h -4.00792 z"
         sodipodi:nodetypes="ccccc" /><path
         id="path148-3"
         style="fill:#dc9368;stroke:#762e54;stroke-width:0;stroke-linecap:square;stroke-linejoin:round;stroke-opacity:0.54828;paint-order:stroke fill markers"
         d="m 176.2221,127.91569 h 4.00793 v 8.6665 h -4.00793 z"
         sodipodi:nodetypes="ccccc" /><path
         id="path151-4"
         style="fill:#dc9368;stroke:#762e54;stroke-width:0;stroke-linecap:square;stroke-linejoin:round;stroke-opacity:0.54828;paint-order:stroke fill markers"
         d="m 141.34164,127.81685 h 4.00792 v 8.6665 h -4.00792 z"
         sodipodi:nodetypes="ccccc" /><path
         id="path152-4"
         style="fill:#dc9368;stroke:#762e54;stroke-width:0;stroke-linecap:square;stroke-linejoin:round;stroke-opacity:0.54828;paint-order:stroke fill markers"
         d="m 153.0977,127.91569 h 4.00792 v 8.6665 h -4.00792 z"
         sodipodi:nodetypes="ccccc" /><path
         id="path159-6"
         style="fill:#dc9368;stroke:#762e54;stroke-width:0;stroke-linecap:square;stroke-linejoin:round;stroke-opacity:0.54828;paint-order:stroke fill markers"
         d="m 95.286672,127.91569 h 4.007921 v 8.6665 h -4.007921 z"
         sodipodi:nodetypes="ccccc" /><path
         id="path160-0"
         style="fill:#dc9368;stroke:#762e54;stroke-width:0;stroke-linecap:square;stroke-linejoin:round;stroke-opacity:0.54828;paint-order:stroke fill markers"
         d="m 107.04273,128.01452 h 4.00792 v 8.6665 h -4.00792 z"
         sodipodi:nodetypes="ccccc" /><path
         id="path157-6"
         style="fill:#dc9368;stroke:#762e54;stroke-width:0;stroke-linecap:square;stroke-linejoin:round;stroke-opacity:0.54828;paint-order:stroke fill markers"
         d="m 118.41108,127.91569 h 4.00792 v 8.6665 h -4.00792 z"
         sodipodi:nodetypes="ccccc" /><path
         id="path158-61"
         style="fill:#dc9368;stroke:#762e54;stroke-width:0;stroke-linecap:square;stroke-linejoin:round;stroke-opacity:0.54828;paint-order:stroke fill markers"
         d="m 130.16713,128.01452 h 4.00792 v 8.6665 h -4.00792 z"
         sodipodi:nodetypes="ccccc" /><path
         id="path164-8"
         style="fill:#dc9368;stroke:#762e54;stroke-width:0;stroke-linecap:square;stroke-linejoin:round;stroke-opacity:0.54828;paint-order:stroke fill markers"
         d="m 83.530614,127.81685 h 4.007921 v 8.6665 h -4.007921 z"
         sodipodi:nodetypes="ccccc" /><g
         id="path133-4"
         style="opacity:1"><path
           style="baseline-shift:baseline;display:inline;overflow:visible;vector-effect:none;fill:#762e54;stroke-linecap:square;stroke-linejoin:round;paint-order:stroke fill markers;enable-background:accumulate;stop-color:#000000;stop-opacity:1"
           d="m 73.849609,135.18555 v 2.30078 h 1.148438 103.238283 1.14844 v -2.30078 H 178.23633 74.998047 Z"
           id="path1114" /><path
           style="baseline-shift:baseline;display:inline;overflow:visible;vector-effect:none;fill:#dc9368;stroke-linecap:square;stroke-linejoin:round;paint-order:stroke fill markers;enable-background:accumulate;stop-color:#000000;stop-opacity:1"
           d="M 178.23571,136.33637 H 74.998942"
           id="path1115" /></g><path
         id="path43"
         style="fill:#662e53;fill-opacity:1;stroke:#000000;stroke-width:0;stroke-linecap:round;stroke-linejoin:round;stroke-opacity:0.538291;paint-order:stroke fill markers"
         d="m 97.971182,103.71458 c -1.13319,0 -2.04543,0.91225 -2.04543,2.04543 v 5.67897 5.28999 1.47337 c 0,0.31699 0.25521,0.5722 0.5722,0.5722 h 1.47323 1.47337 c 0.31699,0 0.572048,-0.25521 0.572048,-0.5722 v -1.47337 -5.28999 -5.67897 c 0,-1.13318 -0.912238,-2.04543 -2.045418,-2.04543 z" /><path
         id="path10"
         style="fill:#662e53;fill-opacity:1;stroke:#000000;stroke-width:0;stroke-linecap:round;stroke-linejoin:round;stroke-opacity:0.538291;paint-order:stroke fill markers"
         d="m 166.07535,117.12786 c 0,-1.02121 -0.28601,-1.84331 -0.64129,-1.84331 h -1.78048 -1.65853 -0.46194 c -0.0994,0 -0.17939,0.22999 -0.17939,0.51565 v 1.32766 1.32779 c 0,0.28566 0.08,0.51552 0.17939,0.51552 h 0.46194 1.65853 1.78048 c 0.35528,0 0.64129,-0.8221 0.64129,-1.84331 z" /><path
         id="path11"
         style="fill:#95447a;fill-opacity:1;stroke:#000000;stroke-width:0;stroke-linecap:round;stroke-linejoin:round;stroke-opacity:0.538291;paint-order:stroke fill markers"
         d="m 166.07535,117.12786 c 0,-0.7276 -0.28601,-1.31335 -0.64129,-1.31335 h -1.78048 -1.65853 -0.46194 c -0.0994,0 -0.17939,0.16387 -0.17939,0.36741 v 0.94594 0.94603 c 0,0.20354 0.08,0.36732 0.17939,0.36732 h 0.46194 1.65853 1.78048 c 0.35528,0 0.64129,-0.58575 0.64129,-1.31335 z" /><path
         id="path12"
         style="fill:#ba5498;fill-opacity:1;stroke:#000000;stroke-width:0;stroke-linecap:round;stroke-linejoin:round;stroke-opacity:0.538291;paint-order:stroke fill markers"
         d="m 166.07535,117.12786 c 0,-0.29116 -0.28601,-0.52555 -0.64129,-0.52555 h -1.78048 -1.65853 -0.46194 c -0.0994,0 -0.17939,0.0656 -0.17939,0.14702 v 0.37853 0.37857 c 0,0.0815 0.08,0.14698 0.17939,0.14698 h 0.46194 1.65853 1.78048 c 0.35528,0 0.64129,-0.23439 0.64129,-0.52555 z" /><path
         id="rect1"
         style="fill:#662e53;fill-opacity:1;stroke:#000000;stroke-width:0;stroke-linecap:round;stroke-linejoin:round;stroke-opacity:0.538291;paint-order:stroke fill markers"
         d="m 165.7622,102.05957 c -1.65403,0 -2.98557,1.33154 -2.98557,2.98557 v 8.28921 7.72143 2.15058 c 0,0.46269 0.37251,0.8352 0.8352,0.8352 h 2.15037 2.15058 c 0.46269,0 0.83499,-0.37251 0.83499,-0.8352 v -2.15058 -7.72143 -8.28921 c 0,-1.65403 -1.33154,-2.98557 -2.98557,-2.98557 z" /><path
         id="path3"
         style="fill:#95447a;fill-opacity:1;stroke:#000000;stroke-width:0;stroke-linecap:round;stroke-linejoin:round;stroke-opacity:0.538291;paint-order:stroke fill markers"
         d="m 165.7622,102.60691 c -1.17848,0 -2.12719,1.29839 -2.12719,2.91123 v 8.08282 7.52917 2.09703 c 0,0.45117 0.26541,0.8144 0.59507,0.8144 h 1.53212 1.53227 c 0.32966,0 0.59492,-0.36323 0.59492,-0.8144 v -2.09703 -7.52917 -8.08282 c 0,-1.61284 -0.94871,-2.91123 -2.12719,-2.91123 z" /><path
         id="path2-2"
         style="fill:#ba5498;fill-opacity:1;stroke:#000000;stroke-width:0;stroke-linecap:round;stroke-linejoin:round;stroke-opacity:0.538291;paint-order:stroke fill markers"
         d="m 165.7622,103.4346 c -0.47159,0 -0.85123,1.24825 -0.85123,2.79882 v 7.7707 7.23843 2.01606 c 0,0.43374 0.10621,0.78295 0.23813,0.78295 h 0.6131 0.61316 c 0.13192,0 0.23806,-0.34921 0.23806,-0.78295 v -2.01606 -7.23843 -7.7707 c 0,-1.55057 -0.37964,-2.79882 -0.85122,-2.79882 z" /><path
         id="path7"
         style="fill:#662e53;fill-opacity:1;stroke:#000000;stroke-width:0;stroke-linecap:round;stroke-linejoin:round;stroke-opacity:0.538291;paint-order:stroke fill markers"
         d="m 160.19982,111.08414 c -1.02121,0 -1.84331,0.28481 -1.84331,0.63859 v 1.77303 c 0,0 0,1.10104 0,1.65157 0,0.15333 -0.0318,0.30999 0,0.46 0.16086,0.75986 0.24702,1.36913 0.94422,2.13022 0.87012,0.94984 2.22929,1.35845 2.23238,1.20055 0.006,-0.29114 -0.86236,-3.42602 0.0525,-3.4671 0.39425,-0.0177 0.45035,-0.076 0.45751,-0.32367 v -1.65157 -1.77303 c 0,-0.35378 -0.8221,-0.63859 -1.84332,-0.63859 z"
         sodipodi:nodetypes="sscaasssccss" /><path
         id="path8"
         style="fill:#95447a;fill-opacity:1;stroke:#000000;stroke-width:0;stroke-linecap:round;stroke-linejoin:round;stroke-opacity:0.538291;paint-order:stroke fill markers"
         d="m 160.19982,111.31108 c -0.7276,0 -1.31334,0.27719 -1.31334,0.62151 v 1.72557 1.60736 0.44769 c 0,0.0472 0.26523,1.10276 0.9165,1.76216 0.67663,0.68507 1.74027,0.97389 1.74047,0.96584 l 0.0157,-0.62262 0.0445,-1.15955 c 0.004,-0.10226 0.0761,-0.66948 0.0545,-0.76349 0,0 -0.1618,-0.12707 -0.16161,-0.21601 0.002,-0.82613 0.0167,-2.02138 0.0167,-2.02138 v -1.72557 c 0,-0.34432 -0.58574,-0.62151 -1.31335,-0.62151 z"
         sodipodi:nodetypes="ssccssscssscsss" /><path
         id="path9"
         style="fill:#ba5498;fill-opacity:1;stroke:#000000;stroke-width:0;stroke-linecap:round;stroke-linejoin:round;stroke-opacity:0.538291;paint-order:stroke fill markers"
         d="m 160.19982,111.67153 c -0.29116,0 -0.52555,0.26046 -0.52555,0.584 v 1.62143 1.51037 0.42067 c 0,0.0457 0.0703,0.82529 0.54508,1.28826 0.46657,0.45492 1.34128,0.59412 1.34397,0.55769 l 0.0776,-1.05298 c 0,0 -0.3437,0.0146 -0.47448,-0.0781 -0.20433,-0.14479 -0.27928,-0.42502 -0.36082,-0.65897 -0.0534,-0.15318 -0.0802,-0.47655 -0.0802,-0.47655 v -1.51037 -1.62143 c 0,-0.32354 -0.2344,-0.584 -0.52556,-0.584 z"
         sodipodi:nodetypes="ssccssscaaccsss" /><path
         id="path10-8"
         style="fill:#662e53;fill-opacity:1;stroke:#000000;stroke-width:0;stroke-linecap:round;stroke-linejoin:round;stroke-opacity:0.538291;paint-order:stroke fill markers"
         d="m 168.38858,111.47543 c 0,-0.80092 0.16689,-1.44569 0.3742,-1.44569 h 1.03894 0.96778 0.26955 c 0.058,0 0.10468,0.18038 0.10468,0.40443 v 1.04126 1.04137 c 0,0.22404 -0.0467,0.40432 -0.10468,0.40432 h -0.26955 -0.96778 -1.03894 c -0.20731,0 -0.3742,-0.64477 -0.3742,-1.44569 z" /><path
         id="path11-2"
         style="fill:#95447a;fill-opacity:1;stroke:#000000;stroke-width:0;stroke-linecap:round;stroke-linejoin:round;stroke-opacity:0.538291;paint-order:stroke fill markers"
         d="m 168.38858,111.47543 c 0,-0.57065 0.16689,-1.03004 0.3742,-1.03004 h 1.03894 0.96778 0.26955 c 0.058,0 0.10468,0.12852 0.10468,0.28815 v 0.74189 0.74196 c 0,0.15963 -0.0467,0.28808 -0.10468,0.28808 h -0.26955 -0.96778 -1.03894 c -0.20731,0 -0.3742,-0.45939 -0.3742,-1.03004 z" /><path
         id="path12-4"
         style="fill:#ba5498;fill-opacity:1;stroke:#000000;stroke-width:0;stroke-linecap:round;stroke-linejoin:round;stroke-opacity:0.538291;paint-order:stroke fill markers"
         d="m 169.08277,111.47543 c 0,-0.22835 0.12484,-0.41218 0.27991,-0.41218 h 0.77717 0.72394 0.20163 c 0.0434,0 0.0783,0.0514 0.0783,0.1153 v 0.29688 0.29691 c 0,0.0639 -0.0349,0.11528 -0.0783,0.11528 h -0.20163 -0.72394 -0.77717 c -0.15507,0 -0.27991,-0.18384 -0.27991,-0.41219 z" /><path
         id="path7-5"
         style="fill:#662e53;fill-opacity:1;stroke:#000000;stroke-width:0;stroke-linecap:round;stroke-linejoin:round;stroke-opacity:0.538291;paint-order:stroke fill markers"
         d="m 171.81704,106.73541 c 0.5959,0 1.07561,0.22338 1.07561,0.50085 v 1.39056 1.2953 0.36078 c 0,0.0345 -0.004,1.19393 -0.4108,1.79085 -0.50772,0.74495 -1.441,0.94527 -1.4428,0.82143 -0.003,-0.22834 0.5032,-2.68698 -0.0306,-2.7192 -0.23005,-0.0139 -0.26279,-0.0596 -0.26697,-0.25386 v -1.2953 -1.39056 c 0,-0.27747 0.47972,-0.50085 1.07561,-0.50085 z"
         sodipodi:nodetypes="ssccssssccsss" /><path
         id="path8-5"
         style="fill:#95447a;fill-opacity:1;stroke:#000000;stroke-width:0;stroke-linecap:round;stroke-linejoin:round;stroke-opacity:0.538291;paint-order:stroke fill markers"
         d="m 171.81704,106.94309 c 0.42457,0 0.76636,0.21624 0.76636,0.48485 v 1.34616 1.25394 0.34925 c 0,0.0369 -0.0613,0.95375 -0.44135,1.46816 -0.39482,0.53444 -1.10892,0.66631 -1.10903,0.66003 l -0.009,-0.48573 -0.0259,-0.90459 c -0.002,-0.0798 -0.0778,-0.56901 -0.0652,-0.64235 0,0 0.12778,-0.0524 0.12767,-0.12178 -8e-4,-0.64448 -0.01,-1.57693 -0.01,-1.57693 v -1.34616 c 0,-0.26861 0.34179,-0.48485 0.76636,-0.48485 z"
         sodipodi:nodetypes="ssccssscssscss" /><path
         id="path9-1"
         style="fill:#ba5498;fill-opacity:1;stroke:#000000;stroke-width:0;stroke-linecap:round;stroke-linejoin:round;stroke-opacity:0.538291;paint-order:stroke fill markers"
         d="m 171.81704,107.31621 c 0.1699,0 0.30667,0.19905 0.30667,0.44631 v 1.23915 1.15426 0.32149 c 0,0.0349 -0.041,0.63071 -0.31806,0.98452 -0.27225,0.34767 -0.78294,0.45408 -0.78423,0.42621 l -0.0377,-0.81721 c 0,0 0.19808,0.01 0.26927,-0.0472 0.14215,-0.11358 0.16297,-0.32482 0.21055,-0.50361 0.0312,-0.11706 0.0468,-0.36419 0.0468,-0.36419 v -1.15426 -1.23915 c 0,-0.24726 0.13677,-0.44631 0.30667,-0.44631 z"
         sodipodi:nodetypes="ssccssscaaccsss" /><g
         id="g565"
         transform="matrix(0.23961549,0,0,0.29750381,-14.063439,96.741873)"
         style="stroke-width:3.74539"><path
           id="path165"
           style="fill:#803a5a;fill-opacity:1;stroke:#762e54;stroke-width:0;stroke-linecap:square;stroke-linejoin:round;stroke-opacity:0.54828;paint-order:stroke fill markers"
           d="m 435.14844,68.25 c -6.86504,-10e-7 -13.26563,3.320149 -13.26563,9.748047 0,4.839508 4.60487,7.801338 9.09375,9.55664 1.47331,0.576113 3.61805,1.289063 5.31446,1.289063 0.5651,0 1.1177,-0.03802 1.65625,-0.111328 0.53854,0.07331 1.09114,0.111328 1.65625,0.111328 1.69641,0 3.84114,-0.71295 5.31445,-1.289063 4.48888,-1.755302 9.0957,-4.717132 9.0957,-9.55664 0,-6.427898 -6.40058,-9.748048 -13.26562,-9.748047 -0.95125,0 -1.89043,0.03931 -2.80078,0.126953 C 437.03691,68.289308 436.09969,68.25 435.14844,68.25 Z"
           sodipodi:nodetypes="ssssss"
           transform="matrix(0.92883155,0,0,1,31.168098,0)"
           inkscape:original-d="m 448.19387,76.809792 c 0,6.427897 -5.03752,12.034512 -11.90256,12.034513 -1.69641,0 -3.84115,-0.713964 -5.31446,-1.290077 -4.48888,-1.755303 -9.09466,-4.717602 -9.09466,-9.55711 0,-6.427898 6.40073,-9.74781 13.26577,-9.747809 6.86504,-10e-7 13.04591,2.132585 13.04591,8.560483 z"
           inkscape:path-effect="#path-effect165" /><path
           d="m 435.34759,68.250098 c -6.37647,-10e-7 -12.32121,3.319827 -12.32121,9.747725 0,4.839508 4.27709,7.801736 8.44651,9.557039 1.36845,0.576113 3.36045,1.288811 4.93613,1.288811 0.10963,0 0.21851,-0.0014 0.32711,-0.0047 -1.05139,-0.06352 -2.32973,-0.73582 -3.22151,-1.28416 -2.85468,-1.755303 -5.78311,-4.717531 -5.78311,-9.557039 0,-6.287017 3.89371,-9.600842 8.14938,-9.743074 -0.17721,-0.0033 -0.35494,-0.0047 -0.5333,-0.0047 z"
           style="fill:#662e48;fill-opacity:1;stroke:#762e54;stroke-width:0;stroke-linecap:square;stroke-linejoin:round;stroke-opacity:0.54828;paint-order:stroke fill markers"
           id="path177" /><path
           id="path166"
           style="fill:#aa4d78;fill-opacity:1;stroke:#762e54;stroke-width:0;stroke-linecap:square;stroke-linejoin:round;stroke-opacity:0.54828;paint-order:stroke fill markers"
           d="m 437.56298,68.25 c -0.94472,-10e-7 -1.82552,3.320149 -1.82552,9.748047 0,4.839508 0.63369,7.801338 1.25142,9.55664 0.20274,0.576113 0.49788,1.289063 0.73133,1.289063 0.0778,0 0.15381,-0.03802 0.22792,-0.111328 0.0741,0.07331 0.15015,0.111328 0.22792,0.111328 0.23344,0 0.52858,-0.71295 0.73133,-1.289063 0.61772,-1.755302 1.25168,-4.717132 1.25168,-9.55664 0,-6.427898 -0.8808,-9.748048 -1.82551,-9.748047 -0.13091,0 -0.26015,0.03931 -0.38542,0.126953 C 437.82285,68.289308 437.69388,68.25 437.56298,68.25 Z"
           sodipodi:nodetypes="ssssss" /><path
           d="m 439.22074,68.259399 c 2.45205,0.198777 4.67878,3.509282 4.67878,9.738424 0,4.839508 -1.70647,7.801736 -3.3693,9.557039 -0.50891,0.537212 -1.23404,1.193341 -1.83917,1.279509 0.10267,0.0063 0.20603,0.0093 0.31006,0.0093 1.07883,0 2.44269,-0.712698 3.37964,-1.288811 2.85468,-1.755303 5.78414,-4.717531 5.78414,-9.557039 0,-6.427898 -4.07038,-9.747726 -8.43617,-9.747725 -0.17004,0 -0.3394,0.0029 -0.50798,0.0093 z"
           style="fill:#954469;stroke:#762e54;stroke-width:0;stroke-linecap:square;stroke-linejoin:round;stroke-opacity:0.54828;paint-order:stroke fill markers"
           id="path174" /><path
           d="m 436.16769,68.250098 c -4.36579,-10e-7 -8.43618,3.319827 -8.43618,9.747725 0,4.839508 2.92843,7.801736 5.78311,9.557039 0.93695,0.576113 2.30082,1.288811 3.37964,1.288811 0.10415,0 0.20779,-0.003 0.31058,-0.0093 -0.60509,-0.08626 -1.3303,-0.742343 -1.83917,-1.279509 -1.66283,-1.755303 -3.36878,-4.717531 -3.36878,-9.557039 0,-6.229079 2.22675,-9.539586 4.67878,-9.738424 -0.1685,-0.0064 -0.33789,-0.0093 -0.50798,-0.0093 z"
           style="fill:#954469;stroke:#762e54;stroke-width:0;stroke-linecap:square;stroke-linejoin:round;stroke-opacity:0.54828;paint-order:stroke fill markers"
           id="path171" /><path
           d="m 440.54881,68.250145 c 6.37647,-10e-7 12.32121,3.319827 12.32121,9.747725 0,4.839508 -4.27709,7.801736 -8.44651,9.557039 -1.36845,0.576113 -3.36045,1.288811 -4.93613,1.288811 -0.10963,0 -0.21851,-0.0014 -0.32711,-0.0047 1.05139,-0.06352 2.32973,-0.73582 3.22151,-1.28416 2.85468,-1.755303 5.78311,-4.717531 5.78311,-9.557039 0,-6.287017 -3.89371,-9.600842 -8.14938,-9.743074 0.17721,-0.0033 0.35494,-0.0047 0.5333,-0.0047 z"
           style="fill:#662e48;fill-opacity:1;stroke:#762e54;stroke-width:0;stroke-linecap:square;stroke-linejoin:round;stroke-opacity:0.54828;paint-order:stroke fill markers"
           id="path178" /></g><path
         id="path31"
         style="fill:#662e53;fill-opacity:1;stroke:#000000;stroke-width:0;stroke-linecap:round;stroke-linejoin:round;stroke-opacity:0.538291;paint-order:stroke fill markers"
         d="m 98.185722,114.03793 c 0,-0.69963 -0.19595,-1.26286 -0.43935,-1.26286 h -1.21982 -1.13626 -0.31648 c -0.0681,0 -0.1229,0.15757 -0.1229,0.35328 v 0.90958 0.90968 c 0,0.1957 0.0548,0.35318 0.1229,0.35318 h 0.31648 1.13626 1.21982 c 0.2434,0 0.43935,-0.56322 0.43935,-1.26286 z" /><rect
         style="fill:#61412e;fill-opacity:1;stroke:#476a4b;stroke-width:0;stroke-linecap:square;paint-order:fill markers stroke"
         id="rect4"
         width="55.50835"
         height="1.8174123"
         x="100.11513"
         y="116.01336"
         ry="0.70192355"
         rx="2.0931833" /><path
         id="path44"
         style="fill:#95447a;fill-opacity:1;stroke:#000000;stroke-width:0;stroke-linecap:round;stroke-linejoin:round;stroke-opacity:0.538291;paint-order:stroke fill markers"
         d="m 97.971182,104.08957 c -0.80738,0 -1.45735,0.88953 -1.45735,1.99449 v 5.53758 5.15826 1.43669 c 0,0.3091 0.18183,0.55795 0.40769,0.55795 h 1.04966 1.04976 c 0.22585,0 0.40758,-0.24885 0.40758,-0.55795 v -1.43669 -5.15826 -5.53758 c 0,-1.10496 -0.64996,-1.99449 -1.45734,-1.99449 z" /><rect
         style="fill:#40251e;fill-opacity:1;stroke:#476a4b;stroke-width:0;stroke-linecap:square;paint-order:fill markers stroke"
         id="rect27"
         width="2.5455844"
         height="13.537881"
         x="107.15018"
         y="100.89935"
         rx="2.0931833"
         ry="0.70192355" /><rect
         style="fill:#40251e;fill-opacity:1;stroke:#476a4b;stroke-width:0;stroke-linecap:square;paint-order:fill markers stroke"
         id="rect28"
         width="2.5455844"
         height="13.537881"
         x="147.36382"
         y="100.89935"
         rx="2.0931833"
         ry="0.70192355" /><rect
         style="fill:#40251e;fill-opacity:1;stroke:#476a4b;stroke-width:0;stroke-linecap:square;paint-order:fill markers stroke"
         id="rect31"
         width="2.5455844"
         height="13.537881"
         x="129.42404"
         y="100.89935"
         rx="2.0931833"
         ry="0.70192355" /><rect
         style="fill:#61412e;fill-opacity:1;stroke:#476a4b;stroke-width:0;stroke-linecap:square;paint-order:fill markers stroke"
         id="rect5"
         width="51.99017"
         height="1.8174123"
         x="102.6515"
         y="113.71574"
         ry="0.70192355"
         rx="1.9605149" /><path
         id="path36"
         style="fill:#95447a;fill-opacity:1;stroke:#000000;stroke-width:0;stroke-linecap:round;stroke-linejoin:round;stroke-opacity:0.538291;paint-order:stroke fill markers"
         d="m 98.185722,114.03793 c 0,-0.49848 -0.19595,-0.89978 -0.43935,-0.89978 h -1.21982 -1.13626 -0.31648 c -0.0681,0 -0.1229,0.11227 -0.1229,0.25171 v 0.64807 0.64813 c 0,0.13945 0.0548,0.25165 0.1229,0.25165 h 0.31648 1.13626 1.21982 c 0.2434,0 0.43935,-0.4013 0.43935,-0.89978 z" /><rect
         style="fill:#883934;fill-opacity:1;stroke:#476a4b;stroke-width:0;stroke-linecap:square;paint-order:fill markers stroke"
         id="rect7"
         width="4.5818181"
         height="6.6121173"
         x="134.01807"
         y="100.78387"
         rx="1.079111"
         ry="0.49176058"
         transform="matrix(1,0,-0.30307187,0.9529677,0,0)" /><rect
         style="fill:#72302c;fill-opacity:1;stroke:#476a4b;stroke-width:0;stroke-linecap:square;paint-order:fill markers stroke"
         id="rect8"
         width="4.5818181"
         height="6.6121173"
         x="138.59988"
         y="100.78387"
         rx="1.079111"
         ry="0.49176058"
         transform="matrix(1,0,-0.30307187,0.9529677,0,0)" /><rect
         style="fill:#632827;fill-opacity:1;stroke:#476a4b;stroke-width:0;stroke-linecap:square;paint-order:fill markers stroke"
         id="rect9"
         width="4.5818181"
         height="6.6121173"
         x="143.1817"
         y="100.78387"
         rx="1.079111"
         ry="0.49176058"
         transform="matrix(1,0,-0.30307187,0.9529677,0,0)" /><rect
         style="fill:#72302c;fill-opacity:1;stroke:#476a4b;stroke-width:0;stroke-linecap:square;paint-order:fill markers stroke"
         id="rect10"
         width="4.5818181"
         height="6.6121173"
         x="147.76352"
         y="100.78387"
         rx="1.079111"
         ry="0.49176058"
         transform="matrix(1,0,-0.30307187,0.9529677,0,0)" /><rect
         style="fill:#632827;fill-opacity:1;stroke:#476a4b;stroke-width:0;stroke-linecap:square;paint-order:fill markers stroke"
         id="rect11"
         width="4.5818181"
         height="6.6121173"
         x="152.34534"
         y="100.78387"
         rx="1.079111"
         ry="0.49176058"
         transform="matrix(1,0,-0.30307187,0.9529677,0,0)" /><rect
         style="fill:#632827;fill-opacity:1;stroke:#476a4b;stroke-width:0;stroke-linecap:square;paint-order:fill markers stroke"
         id="rect12"
         width="4.5818181"
         height="6.6121173"
         x="178.83047"
         y="100.78387"
         rx="1.079111"
         ry="0.49176058"
         transform="matrix(1,0,-0.30307187,0.9529677,0,0)" /><rect
         style="fill:#883934;fill-opacity:1;stroke:#476a4b;stroke-width:0;stroke-linecap:square;paint-order:fill markers stroke"
         id="rect13"
         width="4.5818181"
         height="6.6121173"
         x="174.24866"
         y="100.78387"
         rx="1.079111"
         ry="0.49176058"
         transform="matrix(1,0,-0.30307187,0.9529677,0,0)" /><rect
         style="fill:#72302c;fill-opacity:1;stroke:#476a4b;stroke-width:0;stroke-linecap:square;paint-order:fill markers stroke"
         id="rect14"
         width="4.5818181"
         height="6.6121173"
         x="169.66684"
         y="100.78387"
         rx="1.079111"
         ry="0.49176058"
         transform="matrix(1,0,-0.30307187,0.9529677,0,0)" /><rect
         style="fill:#883934;fill-opacity:1;stroke:#476a4b;stroke-width:0;stroke-linecap:square;paint-order:fill markers stroke"
         id="rect15"
         width="4.5818181"
         height="6.6121173"
         x="165.08502"
         y="100.78387"
         rx="1.079111"
         ry="0.49176058"
         transform="matrix(1,0,-0.30307187,0.9529677,0,0)" /><rect
         style="fill:#632827;fill-opacity:1;stroke:#476a4b;stroke-width:0;stroke-linecap:square;paint-order:fill markers stroke"
         id="rect16"
         width="4.5818181"
         height="6.6121173"
         x="160.5032"
         y="100.78387"
         rx="1.079111"
         ry="0.49176058"
         transform="matrix(1,0,-0.30307187,0.9529677,0,0)" /><rect
         style="fill:#06394c;fill-opacity:1;stroke:#476a4b;stroke-width:0;stroke-linecap:square;paint-order:fill markers stroke"
         id="rect29"
         width="8.2731495"
         height="4.5704813"
         x="134.57307"
         y="106.51121"
         rx="1.079111"
         ry="0.53011507" /><path
         d="m 120.28134,81.014856 h -3.36362 c -8.36437,0 -16.02978,1.159626 -21.699968,2.861324 a 12.670068,12.785777 0 0 0 12.395108,10.138399 12.670068,12.785777 0 0 0 12.67003,-12.785783 12.670068,12.785777 0 0 0 -0.002,-0.21394 z"
         style="fill:#fffde5;stroke:#476a4b;stroke-width:0;stroke-linecap:square;paint-order:fill markers stroke"
         id="path891" /><rect
         style="fill:#891a4a;fill-opacity:1;stroke:#000000;stroke-width:0;stroke-linecap:round;stroke-linejoin:round;stroke-dasharray:none;stroke-opacity:0;paint-order:stroke fill markers"
         id="rect11-7"
         width="53.071674"
         height="14.348137"
         x="-178.64789"
         y="118.79754"
         ry="1.1643019"
         transform="scale(-1,1)" /><rect
         style="fill:#a21f57;fill-opacity:1;stroke:#000000;stroke-width:0;stroke-linecap:round;stroke-linejoin:round;stroke-dasharray:none;stroke-opacity:0;paint-order:stroke fill markers"
         id="rect35"
         width="53.071674"
         height="10.515392"
         x="-178.64789"
         y="118.79754"
         ry="0.85328782"
         transform="scale(-1,1)" /><rect
         style="fill:#61412e;fill-opacity:1;stroke:#476a4b;stroke-width:0;stroke-linecap:square;paint-order:fill markers stroke"
         id="rect2"
         width="59.353806"
         height="1.8174123"
         x="98.192398"
         y="118.12168"
         ry="0.70192355"
         rx="2.2381928" /><path
         id="path45"
         style="fill:#ba5498;fill-opacity:1;stroke:#000000;stroke-width:0;stroke-linecap:round;stroke-linejoin:round;stroke-opacity:0.538291;paint-order:stroke fill markers"
         d="m 97.971182,104.65662 c -0.32309,0 -0.58318,0.85518 -0.58318,1.91749 v 5.32373 4.95908 1.38121 c 0,0.29716 0.0728,0.53641 0.16314,0.53641 h 0.42004 0.42008 c 0.0904,0 0.16309,-0.23925 0.16309,-0.53641 v -1.38121 -4.95908 -5.32373 c 0,-1.06231 -0.26009,-1.91749 -0.58317,-1.91749 z" /><path
         id="path42"
         style="fill:#ba5498;fill-opacity:1;stroke:#000000;stroke-width:0;stroke-linecap:round;stroke-linejoin:round;stroke-opacity:0.538291;paint-order:stroke fill markers"
         d="m 98.185722,114.03793 c 0,-0.19947 -0.19595,-0.36005 -0.43935,-0.36005 h -1.21982 -1.13626 -0.31648 c -0.0681,0 -0.1229,0.0449 -0.1229,0.10072 v 0.25933 0.25936 c 0,0.0558 0.0548,0.1007 0.1229,0.1007 h 0.31648 1.13626 1.21982 c 0.2434,0 0.43935,-0.16058 0.43935,-0.36006 z" /><rect
         style="fill:#e02b78;fill-opacity:1;stroke:#000000;stroke-width:0;stroke-linecap:round;stroke-linejoin:round;stroke-dasharray:none;stroke-opacity:0;paint-order:stroke fill markers"
         id="rect37"
         width="53.071674"
         height="3.5870342"
         x="-178.64789"
         y="118.79754"
         ry="0.29107547"
         transform="scale(-1,1)" /><g
         id="path28"
         style="stroke-width:1.90898"
         transform="matrix(-0.48764449,0,0,0.56271721,142.01326,45.936989)"><path
           style="baseline-shift:baseline;display:inline;overflow:visible;vector-effect:none;fill:#bc5b44;stroke-width:1.90898;stroke-linecap:round;stroke-linejoin:round;paint-order:stroke fill markers;enable-background:accumulate;stop-color:#000000;stop-opacity:1"
           d="m -28.359375,127.5293 a 1.9500051,1.9500051 0 0 0 -1.949219,1.95117 v 25.62109 a 1.9500051,1.9500051 0 0 0 1.949219,1.95117 1.9500051,1.9500051 0 0 0 1.951172,-1.95117 v -25.62109 a 1.9500051,1.9500051 0 0 0 -1.951172,-1.95117 z"
           id="path41" /><path
           style="baseline-shift:baseline;display:inline;overflow:visible;vector-effect:none;fill:#e06c51;fill-opacity:1;stroke-width:1.90898;stroke-linecap:round;stroke-linejoin:round;paint-order:stroke fill markers;enable-background:accumulate;stop-color:#000000;stop-opacity:1"
           d="m -28.35897,127.53189 c -0.699739,-0.001 -1.145039,0.36542 -1.145039,0.36542 l 0.0039,20.25552 c -3.77e-4,0.802 0.51057,1.45249 1.141152,1.45281 0.631028,4.8e-4 1.142672,-0.65024 1.142295,-1.45281 v -20.25716 c 0,0 -0.442556,-0.36222 -1.142295,-0.36378 z"
           id="path47"
           sodipodi:nodetypes="zccccczz" /><path
           style="baseline-shift:baseline;display:inline;overflow:visible;vector-effect:none;fill:#e06c51;fill-opacity:1;stroke-width:1.90898;stroke-linecap:round;stroke-linejoin:round;paint-order:stroke fill markers;enable-background:accumulate;stop-color:#000000;stop-opacity:1"
           d="m -28.35897,157.05107 c -0.699739,10e-4 -1.145039,-0.36542 -1.145039,-0.36542 l 0.0039,-20.25552 c -3.77e-4,-0.802 0.51057,-1.45249 1.141152,-1.45281 0.631028,-4.8e-4 1.142672,0.65024 1.142295,1.45281 v 20.25716 c 0,0 -0.442556,0.36222 -1.142295,0.36378 z"
           id="path48"
           sodipodi:nodetypes="zccccczz" /></g><g
         id="g51"
         style="stroke-width:1.90898"
         transform="matrix(-0.48764449,0,0,0.56271721,129.36905,45.936989)"><path
           style="baseline-shift:baseline;display:inline;overflow:visible;vector-effect:none;fill:#bc5b44;stroke-width:1.90898;stroke-linecap:round;stroke-linejoin:round;paint-order:stroke fill markers;enable-background:accumulate;stop-color:#000000;stop-opacity:1"
           d="m -28.359375,127.5293 a 1.9500051,1.9500051 0 0 0 -1.949219,1.95117 v 25.62109 a 1.9500051,1.9500051 0 0 0 1.949219,1.95117 1.9500051,1.9500051 0 0 0 1.951172,-1.95117 v -25.62109 a 1.9500051,1.9500051 0 0 0 -1.951172,-1.95117 z"
           id="path49" /><path
           style="baseline-shift:baseline;display:inline;overflow:visible;vector-effect:none;fill:#e06c51;fill-opacity:1;stroke-width:1.90898;stroke-linecap:round;stroke-linejoin:round;paint-order:stroke fill markers;enable-background:accumulate;stop-color:#000000;stop-opacity:1"
           d="m -28.35897,127.53189 c -0.699739,-0.001 -1.145039,0.36542 -1.145039,0.36542 l 0.0039,20.25552 c -3.77e-4,0.802 0.51057,1.45249 1.141152,1.45281 0.631028,4.8e-4 1.142672,-0.65024 1.142295,-1.45281 v -20.25716 c 0,0 -0.442556,-0.36222 -1.142295,-0.36378 z"
           id="path50"
           sodipodi:nodetypes="zccccczz" /><path
           style="baseline-shift:baseline;display:inline;overflow:visible;vector-effect:none;fill:#e06c51;fill-opacity:1;stroke-width:1.90898;stroke-linecap:round;stroke-linejoin:round;paint-order:stroke fill markers;enable-background:accumulate;stop-color:#000000;stop-opacity:1"
           d="m -28.35897,157.05107 c -0.699739,10e-4 -1.145039,-0.36542 -1.145039,-0.36542 l 0.0039,-20.25552 c -3.77e-4,-0.802 0.51057,-1.45249 1.141152,-1.45281 0.631028,-4.8e-4 1.142672,0.65024 1.142295,1.45281 v 20.25716 c 0,0 -0.442556,0.36222 -1.142295,0.36378 z"
           id="path51"
           sodipodi:nodetypes="zccccczz" /></g><rect
         style="fill:#eb5632;fill-opacity:1;stroke:#bc5b44;stroke-width:0;stroke-linecap:round;stroke-linejoin:round;stroke-dasharray:none;stroke-opacity:1;paint-order:stroke fill markers"
         id="rect12-6"
         width="19.712341"
         height="10.918582"
         x="-181.13467"
         y="116.3689"
         ry="0.76315588"
         transform="scale(-1,1)" /><g
         id="g54"
         style="stroke-width:1.52035"
         transform="matrix(-0.7688194,0,0,0.56271721,109.00921,45.936989)"><path
           style="baseline-shift:baseline;display:inline;overflow:visible;vector-effect:none;fill:#bc5b44;stroke-width:1.52035;stroke-linecap:round;stroke-linejoin:round;paint-order:stroke fill markers;enable-background:accumulate;stop-color:#000000;stop-opacity:1"
           d="m -28.359375,127.5293 a 1.9500051,1.9500051 0 0 0 -1.949219,1.95117 v 25.62109 a 1.9500051,1.9500051 0 0 0 1.949219,1.95117 1.9500051,1.9500051 0 0 0 1.951172,-1.95117 v -25.62109 a 1.9500051,1.9500051 0 0 0 -1.951172,-1.95117 z"
           id="path52" /><path
           style="baseline-shift:baseline;display:inline;overflow:visible;vector-effect:none;fill:#e06c51;fill-opacity:1;stroke-width:1.52035;stroke-linecap:round;stroke-linejoin:round;paint-order:stroke fill markers;enable-background:accumulate;stop-color:#000000;stop-opacity:1"
           d="m -28.35897,127.53189 c -0.699739,-0.001 -1.145039,0.36542 -1.145039,0.36542 l 0.0039,20.25552 c -3.77e-4,0.802 0.51057,1.45249 1.141152,1.45281 0.631028,4.8e-4 1.142672,-0.65024 1.142295,-1.45281 v -20.25716 c 0,0 -0.442556,-0.36222 -1.142295,-0.36378 z"
           id="path53"
           sodipodi:nodetypes="zccccczz" /><path
           style="baseline-shift:baseline;display:inline;overflow:visible;vector-effect:none;fill:#e06c51;fill-opacity:1;stroke-width:1.52035;stroke-linecap:round;stroke-linejoin:round;paint-order:stroke fill markers;enable-background:accumulate;stop-color:#000000;stop-opacity:1"
           d="m -28.35897,157.05107 c -0.699739,10e-4 -1.145039,-0.36542 -1.145039,-0.36542 l 0.0039,-20.25552 c -3.77e-4,-0.802 0.51057,-1.45249 1.141152,-1.45281 0.631028,-4.8e-4 1.142672,0.65024 1.142295,1.45281 v 20.25716 c 0,0 -0.442556,0.36222 -1.142295,0.36378 z"
           id="path54"
           sodipodi:nodetypes="zccccczz" /></g><path
         id="path5"
         style="fill:#042633;stroke:#000000;stroke-width:0;stroke-linecap:round;stroke-linejoin:round;stroke-opacity:0.427236;paint-order:stroke fill markers"
         d="m 160.90141,130.92941 c 0,0 -0.005,1.39635 0,1.48522 0.12055,2.5767 1.97224,3.40635 4.2311,3.40635 2.27179,0 4.12976,-0.80884 4.23108,-3.40635 0.003,-0.0743 0,-1.4101 0,-1.48522 1e-5,-2.70154 -1.89431,-4.89158 -4.23108,-4.89158 -2.33677,0 -4.2311,2.19004 -4.2311,4.89158 z"
         sodipodi:nodetypes="ssssssss" /><rect
         style="fill:#a21f57;fill-opacity:1;stroke:#000000;stroke-width:0;stroke-linecap:round;stroke-linejoin:round;stroke-dasharray:none;stroke-opacity:0;paint-order:stroke fill markers"
         id="rect13-1"
         width="23.108931"
         height="6.0892138"
         x="-182.83298"
         y="113.3243"
         ry="0.42560649"
         transform="scale(-1,1)" /><path
         d="m 182.17174,113.32431 c 0.36639,0 0.66125,0.46125 0.66125,1.0344 v 4.9339 c 0,-0.57314 -0.29486,-1.0344 -0.66125,-1.0344 h -21.78641 c -0.36639,0 -0.66125,0.46126 -0.66125,1.0344 v -4.9339 c 0,-0.57315 0.29486,-1.0344 0.66125,-1.0344 z"
         style="fill:#ce276f;fill-opacity:1;stroke:#000000;stroke-width:0;stroke-linecap:round;stroke-linejoin:round;stroke-opacity:0;paint-order:stroke fill markers"
         id="path14-8" /><ellipse
         style="fill:#06394c;fill-opacity:1;stroke:#000000;stroke-width:0;stroke-linecap:round;stroke-linejoin:round;stroke-dasharray:none;stroke-opacity:0.427236;paint-order:stroke fill markers"
         id="circle5"
         cx="-165.13251"
         cy="132.41463"
         transform="scale(-1,1)"
         rx="4.2310915"
         ry="4.8824663" /><path
         id="path6"
         style="fill:#042633;stroke:#000000;stroke-width:0;stroke-linecap:round;stroke-linejoin:round;stroke-opacity:0.427236;paint-order:stroke fill markers"
         d="m 132.9722,132.74049 c 0,0 -0.003,0.9992 0,1.0628 0.0863,1.84384 1.41129,2.43752 3.02769,2.43752 1.62565,0 2.95519,-0.57879 3.02769,-2.43752 0.002,-0.0532 0,-1.00905 0,-1.0628 0,-1.93318 -1.35555,-3.50033 -3.02769,-3.50033 -1.67216,0 -3.0277,1.56715 -3.0277,3.50033 z"
         sodipodi:nodetypes="ssssssss" /><ellipse
         style="fill:#06394c;fill-opacity:1;stroke:#000000;stroke-width:0;stroke-linecap:round;stroke-linejoin:round;stroke-dasharray:none;stroke-opacity:0.427236;paint-order:stroke fill markers"
         id="circle7"
         cx="-135.99989"
         cy="133.80328"
         transform="scale(-1,1)"
         rx="3.0276952"
         ry="3.4938083" /><path
         id="path10-9"
         style="fill:#042633;stroke:#000000;stroke-width:0;stroke-linecap:round;stroke-linejoin:round;stroke-opacity:0.427236;paint-order:stroke fill markers"
         d="m 125.63828,132.74049 c 0,0 -0.003,0.9992 0,1.0628 0.0863,1.84384 1.41129,2.43752 3.02769,2.43752 1.62566,0 2.95519,-0.57879 3.0277,-2.43752 0.002,-0.0532 0,-1.00905 0,-1.0628 0,-1.93318 -1.35555,-3.50033 -3.0277,-3.50033 -1.67215,0 -3.02769,1.56715 -3.02769,3.50033 z"
         sodipodi:nodetypes="ssssssss" /><ellipse
         style="fill:#06394c;fill-opacity:1;stroke:#000000;stroke-width:0;stroke-linecap:round;stroke-linejoin:round;stroke-dasharray:none;stroke-opacity:0.427236;paint-order:stroke fill markers"
         id="circle10"
         cx="-128.66597"
         cy="133.80328"
         transform="scale(-1,1)"
         rx="3.0276952"
         ry="3.4938083" /><path
         id="circle4"
         style="fill:#042633;stroke:#000000;stroke-width:0;stroke-linecap:round;stroke-linejoin:round;stroke-opacity:0.427236;paint-order:stroke fill markers"
         d="m 144.82589,130.92941 c 0,0 -0.005,1.39635 0,1.48522 0.12055,2.5767 1.97224,3.40635 4.23109,3.40635 2.2718,0 4.12977,-0.80884 4.2311,-3.40635 0.003,-0.0743 0,-1.4101 0,-1.48522 0,-2.70154 -1.89433,-4.89158 -4.2311,-4.89158 -2.33676,0 -4.23109,2.19004 -4.23109,4.89158 z"
         sodipodi:nodetypes="ssssssss" /><ellipse
         style="fill:#06394c;fill-opacity:1;stroke:#000000;stroke-width:0;stroke-linecap:round;stroke-linejoin:round;stroke-dasharray:none;stroke-opacity:0.427236;paint-order:stroke fill markers"
         id="path2-27"
         cx="-149.05699"
         cy="132.41463"
         transform="scale(-1,1)"
         rx="4.2310915"
         ry="4.8824663" /><path
         id="path16"
         style="fill:#73103a;stroke:#000000;stroke-width:0;stroke-linecap:round;stroke-linejoin:round;stroke-opacity:0;paint-order:stroke fill markers"
         inkscape:transform-center-y="0.55035146"
         d="m 132.85549,115.25339 c 0.44083,-0.49757 7.57426,-0.49757 8.0151,0 0.44082,0.49758 -3.12589,4.52343 -4.00756,4.52343 -0.88166,0 -4.44838,-4.02585 -4.00754,-4.52343 z" /><path
         id="path20"
         style="fill:#440a23;fill-opacity:1;stroke:#ce276f;stroke-width:9.05015;stroke-linecap:round;stroke-linejoin:round;stroke-dasharray:none;stroke-opacity:1;paint-order:stroke fill markers"
         sodipodi:type="inkscape:offset"
         inkscape:radius="-0.81128937"
         inkscape:original="M 14.044922 112.38477 C 9.9782086 112.38477 5.9112724 112.72122 5.2734375 113.39648 C 5.2138135 113.59823 5.1758695 113.77892 5.1601562 113.93359 C 5.1758692 114.08827 5.2138112 114.267 5.2734375 114.46875 C 6.5491072 115.81927 21.540736 115.81927 22.816406 114.46875 C 22.876036 114.267 22.913979 114.08827 22.929688 113.93359 C 22.913957 113.77892 22.876025 113.59823 22.816406 113.39648 C 22.178571 112.72122 18.111635 112.38477 14.044922 112.38477 z "
         d="m 14.044922,113.19531 c -2.010983,0 -4.02404,0.084 -5.5859376,0.24805 -0.7809489,0.082 -1.4523089,0.18539 -1.9316407,0.29883 -0.3892385,0.0921 -0.5118253,0.17894 -0.5390625,0.17187 -9.207e-4,0.006 -0.00308,0.0142 -0.00391,0.0195 7.466e-4,0.005 0.00308,0.0126 0.00391,0.0176 0.027298,-0.007 0.1498229,0.0797 0.5390625,0.17188 0.4793331,0.11354 1.1507111,0.21668 1.9316407,0.29883 1.5618596,0.16429 3.5749766,0.24804 5.5859376,0.24804 2.010961,0 4.024078,-0.0838 5.585937,-0.24804 0.78093,-0.0821 1.452308,-0.18529 1.931641,-0.29883 0.38924,-0.0922 0.511765,-0.17889 0.539062,-0.17188 8.24e-4,-0.005 0.0032,-0.0128 0.0039,-0.0176 -8.28e-4,-0.005 -0.003,-0.0139 -0.0039,-0.0195 -0.02724,0.007 -0.149823,-0.0798 -0.539062,-0.17187 -0.479332,-0.11344 -1.150692,-0.21682 -1.931641,-0.29883 -1.561897,-0.16402 -3.574954,-0.24805 -5.585937,-0.24805 z"
         transform="matrix(-0.41063092,0,0,0.26759592,142.6556,84.936771)" /><path
         d="m 175.14155,120.84657 a 2.1339348,1.3587944 0 0 1 2.13391,1.35883 v 3.73079 h -4.26783 v -3.73079 a 2.1339348,1.3587944 0 0 1 2.13392,-1.35883 z"
         style="fill:#c5bfaf;fill-opacity:1;stroke:#eb7255;stroke-width:0;stroke-linecap:round;stroke-linejoin:round;paint-order:stroke fill markers"
         id="path34" /><path
         d="m 175.14155,119.68353 a 2.1339348,1.3587944 0 0 1 2.13391,1.35883 v 3.73079 h -4.26783 v -3.73079 a 2.1339348,1.3587944 0 0 1 2.13392,-1.35883 z"
         style="fill:#faf3de;stroke:#eb7255;stroke-width:0;stroke-linecap:round;stroke-linejoin:round;paint-order:stroke fill markers"
         id="path32" /><path
         d="m 168.02207,122.0278 a 2.1339348,0.99719387 0 0 1 2.13392,0.99722 v 2.73796 h -4.26783 v -2.73796 a 2.1339348,0.99719387 0 0 1 2.13391,-0.99722 z"
         style="fill:#c5bfaf;fill-opacity:1;stroke:#eb7255;stroke-width:0;stroke-linecap:round;stroke-linejoin:round;paint-order:stroke fill markers"
         id="path33" /><path
         d="m 168.02207,121.06272 a 2.1339348,0.99719387 0 0 1 2.13392,0.99723 v 2.73795 h -4.26783 v -2.73795 a 2.1339348,0.99719387 0 0 1 2.13391,-0.99723 z"
         style="fill:#faf3de;stroke:#eb7255;stroke-width:0;stroke-linecap:round;stroke-linejoin:round;paint-order:stroke fill markers"
         id="path35" /><rect
         style="fill:#8d1447;fill-opacity:1;stroke:#000000;stroke-width:0;stroke-linecap:round;stroke-linejoin:round;stroke-dasharray:none;stroke-opacity:0;paint-order:stroke fill markers"
         id="rect15-9"
         width="3.4572413"
         height="2.7961559"
         x="-138.58635"
         y="118.51966"
         ry="0.17624174"
         transform="scale(-1,1)" /><rect
         style="fill:#8d1447;fill-opacity:1;stroke:#000000;stroke-width:0;stroke-linecap:round;stroke-linejoin:round;stroke-dasharray:none;stroke-opacity:0;paint-order:stroke fill markers"
         id="rect59"
         width="3.4572413"
         height="0.90906823"
         x="-138.58635"
         y="118.30602"
         ry="0"
         transform="scale(-1,1)" /><path
         id="path46"
         style="fill:#662e53;fill-opacity:1;stroke:#000000;stroke-width:0;stroke-linecap:round;stroke-linejoin:round;stroke-opacity:0.538291;paint-order:stroke fill markers"
         d="m 94.160372,109.89735 c -0.69964,0 -1.26286,0.19513 -1.26286,0.4375 v 1.21471 c 0,0 0,0.75433 0,1.1315 0,0.10505 -0.0218,0.21238 0,0.31515 0.11021,0.52058 0.16923,0.938 0.64689,1.45942 0.59612,0.65074 1.52729,0.93068 1.52941,0.82251 0.004,-0.19947 -0.59081,-2.34719 0.036,-2.37533 0.2701,-0.0121 0.30853,-0.0521 0.31344,-0.22175 v -1.1315 -1.21471 c 0,-0.24237 -0.56322,-0.4375 -1.26287,-0.4375 z"
         sodipodi:nodetypes="sscaasssccss" /><path
         id="path60"
         style="fill:#95447a;fill-opacity:1;stroke:#000000;stroke-width:0;stroke-linecap:round;stroke-linejoin:round;stroke-opacity:0.538291;paint-order:stroke fill markers"
         d="m 94.160372,110.05283 c -0.49848,0 -0.89978,0.18991 -0.89978,0.4258 v 1.1822 1.10121 0.30671 c 0,0.0323 0.18172,0.7555 0.6279,1.20726 0.46356,0.46935 1.19227,0.66722 1.1924,0.6617 l 0.0108,-0.42656 0.0305,-0.79441 c 0.003,-0.0701 0.0521,-0.45866 0.0373,-0.52307 0,0 -0.11085,-0.087 -0.11072,-0.14799 0.001,-0.56598 0.0114,-1.38485 0.0114,-1.38485 v -1.1822 c 0,-0.23589 -0.4013,-0.4258 -0.89978,-0.4258 z"
         sodipodi:nodetypes="ssccssscssscsss" /><path
         id="path61"
         style="fill:#ba5498;fill-opacity:1;stroke:#000000;stroke-width:0;stroke-linecap:round;stroke-linejoin:round;stroke-opacity:0.538291;paint-order:stroke fill markers"
         d="m 94.160372,110.29978 c -0.19948,0 -0.36006,0.17844 -0.36006,0.4001 v 1.11085 1.03476 0.2882 c 0,0.0313 0.0482,0.56541 0.37344,0.88259 0.31965,0.31167 0.91891,0.40704 0.92076,0.38208 l 0.0532,-0.7214 c 0,0 -0.23547,0.01 -0.32507,-0.0535 -0.13998,-0.0992 -0.19133,-0.29118 -0.2472,-0.45146 -0.0366,-0.10495 -0.0549,-0.32649 -0.0549,-0.32649 v -1.03476 -1.11085 c 0,-0.22166 -0.16059,-0.4001 -0.36006,-0.4001 z"
         sodipodi:nodetypes="ssccssscaaccsss" /><path
         id="path62"
         style="fill:#662e53;fill-opacity:1;stroke:#000000;stroke-width:0;stroke-linecap:round;stroke-linejoin:round;stroke-opacity:0.538291;paint-order:stroke fill markers"
         d="m 99.770522,110.16543 c 0,-0.54872 0.11434,-0.99045 0.256368,-0.99045 h 0.71178 0.66303 0.18467 c 0.0397,0 0.0717,0.12358 0.0717,0.27708 v 0.71337 0.71345 c 0,0.15349 -0.032,0.277 -0.0717,0.277 h -0.18467 -0.66303 -0.71178 c -0.142028,0 -0.256368,-0.44174 -0.256368,-0.99045 z" /><path
         id="path63"
         style="fill:#95447a;fill-opacity:1;stroke:#000000;stroke-width:0;stroke-linecap:round;stroke-linejoin:round;stroke-opacity:0.538291;paint-order:stroke fill markers"
         d="m 99.770522,110.16543 c 0,-0.39096 0.11434,-0.70569 0.256368,-0.70569 h 0.71178 0.66303 0.18467 c 0.0397,0 0.0717,0.0881 0.0717,0.19742 v 0.50827 0.50832 c 0,0.10936 -0.032,0.19736 -0.0717,0.19736 h -0.18467 -0.66303 -0.71178 c -0.142028,0 -0.256368,-0.31473 -0.256368,-0.70568 z" /><path
         id="path64"
         style="fill:#ba5498;fill-opacity:1;stroke:#000000;stroke-width:0;stroke-linecap:round;stroke-linejoin:round;stroke-opacity:0.538291;paint-order:stroke fill markers"
         d="m 100.24611,110.16543 c 0,-0.15645 0.0855,-0.28239 0.19177,-0.28239 h 0.53244 0.49598 0.13814 c 0.0297,0 0.0536,0.0352 0.0536,0.079 v 0.2034 0.20341 c 0,0.0438 -0.0239,0.079 -0.0536,0.079 h -0.13814 -0.49598 -0.53244 c -0.10624,0 -0.19177,-0.12595 -0.19177,-0.28239 z" /><path
         id="path65"
         style="fill:#662e53;fill-opacity:1;stroke:#000000;stroke-width:0;stroke-linecap:round;stroke-linejoin:round;stroke-opacity:0.538291;paint-order:stroke fill markers"
         d="m 102.11937,106.91802 c 0.40826,0 0.73691,0.15304 0.73691,0.34313 v 0.95268 0.88742 0.24717 c 0,0.0236 -0.003,0.81797 -0.28144,1.22692 -0.34784,0.51037 -0.98724,0.64761 -0.98847,0.56277 -0.002,-0.15644 0.34474,-1.84087 -0.021,-1.86294 -0.15761,-0.01 -0.18004,-0.0408 -0.18291,-0.17392 v -0.88742 -0.95268 c 0,-0.19009 0.32866,-0.34313 0.73691,-0.34313 z"
         sodipodi:nodetypes="ssccssssccsss" /><path
         id="path66"
         style="fill:#95447a;fill-opacity:1;stroke:#000000;stroke-width:0;stroke-linecap:round;stroke-linejoin:round;stroke-opacity:0.538291;paint-order:stroke fill markers"
         d="m 102.11937,107.0603 c 0.29088,0 0.52504,0.14815 0.52504,0.33218 v 0.92226 0.85908 0.23927 c 0,0.0253 -0.042,0.65342 -0.30237,1.00584 -0.27049,0.36615 -0.75973,0.45649 -0.7598,0.45219 l -0.006,-0.33278 -0.0177,-0.61973 c -10e-4,-0.0547 -0.0533,-0.38984 -0.0447,-0.44008 0,0 0.0875,-0.0359 0.0875,-0.0834 -5.5e-4,-0.44154 -0.007,-1.08036 -0.007,-1.08036 v -0.92226 c 0,-0.18403 0.23416,-0.33218 0.52503,-0.33218 z"
         sodipodi:nodetypes="ssccssscssscss" /><path
         id="path67"
         style="fill:#ba5498;fill-opacity:1;stroke:#000000;stroke-width:0;stroke-linecap:round;stroke-linejoin:round;stroke-opacity:0.538291;paint-order:stroke fill markers"
         d="m 102.11937,107.31593 c 0.1164,0 0.21011,0.13637 0.21011,0.30577 v 0.84894 0.79079 0.22026 c 0,0.0239 -0.0281,0.4321 -0.21791,0.6745 -0.18652,0.23819 -0.53639,0.31109 -0.53728,0.29199 l -0.0258,-0.55987 c 0,0 0.13571,0.007 0.18448,-0.0323 0.0974,-0.0778 0.11165,-0.22253 0.14425,-0.34502 0.0214,-0.0802 0.0321,-0.24951 0.0321,-0.24951 v -0.79079 -0.84895 c 0,-0.16939 0.0937,-0.30576 0.2101,-0.30576 z"
         sodipodi:nodetypes="ssccssscaaccsss" /></g></g><path
     d="m 36.465474,2.0417358 h -3.2675 c -8.705812,0 -16.654846,1.2569561 -22.384681,3.0731975 A 12.92151,12.92151 0 0 0 23.602694,16.191777 12.92151,12.92151 0 0 0 36.524386,3.2706014 12.92151,12.92151 0 0 0 36.465474,2.0417358 Z"
     style="display:inline;fill:#fdffdb;stroke:#242027;stroke-width:0;stroke-linecap:round;stroke-linejoin:round;fill-opacity:1"
     id="path2271" /></svg>
