<?xml version="1.0" encoding="UTF-8" standalone="no"?>
<!-- Created with Inkscape (http://www.inkscape.org/) -->

<svg
   width="93.589859mm"
   height="63.480484mm"
   viewBox="0 0 93.589864 63.480482"
   version="1.1"
   id="svg1"
   inkscape:version="1.4.2 (f4327f4, 2025-05-13)"
   sodipodi:docname="WoodsPreview.svg"
   inkscape:export-filename="DiscoPreview.png"
   inkscape:export-xdpi="96"
   inkscape:export-ydpi="96"
   xml:space="preserve"
   xmlns:inkscape="http://www.inkscape.org/namespaces/inkscape"
   xmlns:sodipodi="http://sodipodi.sourceforge.net/DTD/sodipodi-0.dtd"
   xmlns="http://www.w3.org/2000/svg"
   xmlns:svg="http://www.w3.org/2000/svg"><sodipodi:namedview
     id="namedview1"
     pagecolor="#ffffff"
     bordercolor="#000000"
     borderopacity="0.25"
     inkscape:showpageshadow="2"
     inkscape:pageopacity="0.0"
     inkscape:pagecheckerboard="0"
     inkscape:deskcolor="#d1d1d1"
     inkscape:document-units="mm"
     inkscape:zoom="1.6168981"
     inkscape:cx="229.76092"
     inkscape:cy="95.553331"
     inkscape:window-width="3840"
     inkscape:window-height="2054"
     inkscape:window-x="-11"
     inkscape:window-y="-11"
     inkscape:window-maximized="1"
     inkscape:current-layer="layer1"
     showgrid="true"><inkscape:grid
       id="grid2"
       units="px"
       originx="-80.204087"
       originy="-101.1455"
       spacingx="2.6458333"
       spacingy="2.6458333"
       empcolor="#0099e5"
       empopacity="0.30196078"
       color="#0099e5"
       opacity="0.14901961"
       empspacing="5"
       enabled="true"
       visible="true" /></sodipodi:namedview><defs
     id="defs1"><rect
       x="56.866434"
       y="57.717783"
       width="52.464996"
       height="20.740758"
       id="rect3" /><inkscape:path-effect
       effect="spiro"
       id="path-effect1"
       is_visible="true"
       lpeversion="1" /><inkscape:path-effect
       effect="spiro"
       id="path-effect2"
       is_visible="true"
       lpeversion="1" /><inkscape:path-effect
       effect="spiro"
       id="path-effect1-2"
       is_visible="true"
       lpeversion="1" /><inkscape:path-effect
       effect="spiro"
       id="path-effect1-2-4"
       is_visible="true"
       lpeversion="1" /></defs><path
     id="path19"
     style="display:none;fill:#a18fd9;stroke:#212532;stroke-width:1.10229;stroke-linejoin:round;stroke-miterlimit:8.2;stroke-opacity:0.995995"
     inkscape:transform-center-x="-0.074448879"
     inkscape:transform-center-y="0.094904335"
     d="m 99.716107,69.042054 c -3.3e-4,0.68279 -4.44853,3.14227 -5.06443,2.80038 -0.61591,-0.34189 -0.6116,-5.26801 0.005,-5.60891 0.61651,-0.3409 5.06012,2.12574 5.05953,2.80853 z" /><g
     inkscape:label="Ebene 1"
     inkscape:groupmode="layer"
     id="layer1"
     transform="translate(-83.719229,-78.972603)"
     style="display:inline"><path
       d="m 175.26713,110.21824 -2.73885,0.81132 -2.22519,8.05377 a 74.012268,22.563063 0 0 1 4.96404,1.17047 z"
       style="display:inline;fill:#4a796e;stroke:#476a4b;stroke-width:0;stroke-linecap:round;stroke-linejoin:round"
       id="path171" /><path
       d="m 116.91772,81.014856 c -9.99743,0 -18.996659,1.656788 -24.783501,3.915523 -2.893421,1.129368 -4.943488,2.434963 -5.855456,3.279386 -0.392101,0.36306 -0.472842,0.478058 -0.517281,0.52555 v 5.421891 c 0.400094,-0.01569 0.809716,-0.02377 1.226281,-0.02377 2.95826,0.03852 5.936395,-0.111974 8.880595,0.203088 2.6851,0.287333 2.574298,1.619403 7.955072,1.532723 5.09608,-1.5e-5 9.22743,0.945311 9.22786,2.111499 8.1e-4,1.16639 -4.1309,2.112035 -9.22786,2.112015 -13.858284,3e-5 -6.812007,-1.474738 -16.835667,-1.562178 -0.416564,-3e-6 -0.826186,-0.0081 -1.226281,-0.02377 v 20.368269 a 74.012268,22.563063 0 0 1 41.780908,-3.93878 74.012268,22.563063 0 0 1 38.52065,3.29696 l 1.75441,-6.35052 -1.18855,-0.62012 -1.70119,1.34566 -1.32033,-0.45889 -0.38293,-0.13436 0.22841,-0.89348 0.38293,0.13177 0.95704,0.33331 0.21033,-0.1664 -0.0109,-1.64434 -0.79323,-0.68213 -0.16175,-0.13952 0.23823,-0.37621 0.1602,0.13901 0.95498,0.82062 0.0103,1.56683 1.14567,-0.90692 1.51826,0.78962 0.71313,-2.58176 -1.00097,-1.572 0.016,-1.53685 -0.9338,-0.74208 -0.29093,-0.22789 0.39429,-0.67696 0.2899,0.22996 1.24385,0.98495 -0.0176,1.70171 0.56379,0.88418 0.51625,-1.86914 c 0.0921,-0.33344 1.07048,-0.26124 2.19315,0.16175 1.12265,0.42297 1.95193,1.03238 1.85983,1.36581 l -0.57257,2.07274 2.02882,-0.601 h 5.1e-4 v -5.1e-4 h 5.2e-4 l 5.2e-4,5.1e-4 c 5.7e-4,2.1e-4 0.001,4.4e-4 0.002,5.2e-4 0,0 5.1e-4,0 5.1e-4,0 h 5.2e-4 l 5.2e-4,5.2e-4 5.1e-4,5.2e-4 c 0.001,0.002 0.003,0.006 0.005,0.008 l 0.18862,-0.0636 V 94.866723 c -1.42671,0.66582 -4.1279,1.115153 -7.2254,1.115178 -2.95826,-0.03851 -5.93639,0.111971 -8.88059,-0.203089 -2.6851,-0.287333 -2.5743,-1.619403 -7.95507,-1.532723 -5.09608,1.5e-5 -9.22743,-0.945311 -9.22786,-2.111499 -8.1e-4,-1.16639 4.1309,-2.11203 9.22786,-2.112015 13.85828,-2.9e-5 6.812,1.474738 16.83566,1.562178 3.09746,2.5e-5 5.79868,0.449349 7.2254,1.115177 v -3.966682 c -0.0445,-0.04757 -0.12587,-0.160551 -0.5178,-0.523483 -0.9118,-0.844348 -2.96233,-2.150055 -5.85546,-3.279386 -5.78625,-2.258663 -14.78348,-3.915523 -24.78091,-3.915523 z"
       style="display:inline;fill:#4a796e;stroke:#476a4b;stroke-width:0;stroke-linecap:round;stroke-linejoin:round"
       id="path169" /><path
       d="m 85.761482,98.506811 c 0.400095,0.01569 0.809717,0.02377 1.226281,0.02377 10.02366,0.08744 2.977385,1.562208 16.835667,1.562178 5.09696,2e-5 9.22867,-0.945625 9.22786,-2.112015 -4.3e-4,-1.166188 -4.13178,-2.111514 -9.22786,-2.111499 -5.380772,0.08668 -5.269972,-1.24539 -7.955072,-1.532723 -2.9442,-0.315062 -5.922335,-0.164568 -8.880595,-0.203088 -0.416565,3e-6 -0.826187,0.0081 -1.226281,0.02377 z"
       style="fill:#6e9f93;stroke:#412c01;stroke-width:0;stroke-linecap:square;stroke-opacity:0.819608;paint-order:fill markers stroke"
       id="path98" /><path
       id="rect39-4"
       style="display:inline;fill:#4a4016;fill-opacity:1;stroke:#97aaa2;stroke-width:0;stroke-linecap:square;paint-order:fill markers stroke"
       d="m 157.16435,103.30156 -5.8e-4,4.5e-4 -5.1e-4,-7e-5 -7e-5,5.1e-4 -5.2e-4,-7e-5 -5.1e-4,-5e-5 -2.90376,1.45376 c -0.004,-0.004 -0.007,-0.008 -0.0103,-0.009 -2.3e-4,-5e-5 -0.001,-1e-4 -0.002,-3.1e-4 l -5.1e-4,-7e-5 -5.2e-4,-7e-5 -5e-5,5.2e-4 -5.2e-4,-7e-5 -2.3198,1.06703 0.29369,-2.25628 c 0.0473,-0.36296 -1.06363,-0.80497 -2.49072,-0.99073 -1.4271,-0.18577 -2.61411,-0.0429 -2.66136,0.32009 l -0.361,2.77333 -0.70154,-0.0913 -0.51538,-0.32036 -0.49944,-1.12341 -1.02901,-0.2778 -0.38665,-0.1039 -0.20687,0.77247 0.38664,0.1039 0.65995,0.17864 0.062,0.13991 -0.18847,0.3069 -0.68686,0.52864 -0.31218,0.0282 -0.19874,0.0174 0.0346,0.39847 0.1995,-0.0194 0.89688,-0.0802 0.4523,-0.73637 0.38689,0.87114 1.54296,0.20084 -0.16396,1.25958 -0.0931,0.0385 -1.61929,0.66575 -0.48426,0.82183 -0.0219,0.0118 -0.76334,0.0393 -0.3509,0.0174 0.0368,0.69788 0.34935,-0.0176 1.15765,-0.0578 0.55949,-0.95534 1.12527,-0.46168 -1.08779,8.3569 c -0.0473,0.36296 1.06369,0.80445 2.49079,0.99021 1.4271,0.18576 2.61405,0.0434 2.66129,-0.31957 l 1.26463,-9.71538 3.2422,-1.49155 2.91656,0.29366 5.1e-4,7e-5 5.1e-4,7e-5 5.1e-4,6e-5 5.1e-4,7e-5 c 2.3e-4,-7e-5 0.001,-7.2e-4 0.001,-7.2e-4 0.0277,-0.0145 0.0673,-0.20057 0.0905,-0.43118 l 0.004,-0.0458 c 0.0232,-0.2306 0.0221,-0.4204 -0.002,-0.4401 -2e-4,-1.4e-4 -9e-4,-5.1e-4 -0.002,-8e-4 l -5.1e-4,-7e-5 c -9e-5,-4e-5 -6.3e-4,-4.9e-4 -8.7e-4,-6.3e-4 l -5.1e-4,-7e-5 -5.1e-4,-7e-5 -2.91143,-0.29298 2.57263,-1.28792 5.9e-4,-4.4e-4 5e-4,7e-5 c 1.6e-4,-1.6e-4 9.7e-4,-7.9e-4 10e-4,-0.002 l 5.8e-4,-4.4e-4 c 0.0151,-0.0272 -0.0505,-0.20522 -0.15424,-0.41249 l -0.0207,-0.0412 c -0.10375,-0.20725 -0.20632,-0.36697 -0.23733,-0.37066 -2.4e-4,-1e-5 -0.001,-1.4e-4 -0.001,-7e-5 z" /><path
       id="path42-0"
       style="display:inline;fill:#393211;fill-opacity:1;stroke:#97aaa2;stroke-width:0;stroke-linecap:square;paint-order:fill markers stroke"
       d="m 111.93816,101.15579 -0.2558,0.2403 -1.15238,1.08778 0.2868,1.43764 -0.60616,0.52865 c -0.0217,-0.2952 -0.96308,-0.53175 -2.12907,-0.53175 -1.17966,0 -2.12959,0.24205 -2.12959,0.54209 v 0.0884 l -1.25418,-0.7369 -1.28106,0.46095 -0.33022,0.11731 0.23617,0.65991 0.33021,-0.11886 0.97255,-0.34985 1.32653,0.7798 v 10.65826 c 0,0.30003 0.94993,0.54105 2.12959,0.54105 1.17965,0 2.12907,-0.24102 2.12907,-0.54105 v -8.03103 l 2.47788,-1.55546 2.40141,-0.0698 c 1.8e-4,-1e-5 8.8e-4,2e-5 0.001,0 h 5.2e-4 5.1e-4 v -5.1e-4 h 5.2e-4 l 5.2e-4,-5.2e-4 h 5.1e-4 c 0.021,-0.0147 0.0339,-0.17027 0.0284,-0.36018 l -0.002,-0.0377 c -0.006,-0.1899 -0.0268,-0.34362 -0.0486,-0.35708 v -5.2e-4 h -5.1e-4 -5.2e-4 c -2.3e-4,-3e-5 -7.4e-4,2e-5 -0.001,0 -9e-5,-2e-5 -0.001,-4.2e-4 -0.002,-5.2e-4 h -5.1e-4 -5.2e-4 l -2.39778,0.0698 1.95491,-1.31878 5.2e-4,-5.2e-4 h 5.2e-4 v -5.2e-4 h 5.1e-4 v -5.2e-4 -5.1e-4 -5.2e-4 l 5.2e-4,-5.2e-4 c 0.01,-0.0236 -0.0628,-0.16136 -0.16898,-0.31884 l -0.0212,-0.0315 c -0.10626,-0.15748 -0.20642,-0.27623 -0.23202,-0.27595 -2e-4,2e-5 -8.9e-4,-4e-5 -0.002,0 l 0.002,5.1e-4 v 5.2e-4 l -5.2e-4,5.2e-4 h -5.2e-4 -5.2e-4 l -2.20658,1.48879 c -0.003,-0.002 -0.006,-0.005 -0.008,-0.006 h -5.2e-4 -5.1e-4 c -2e-4,-2e-5 -8.9e-4,-1e-5 -0.002,0 h -5.2e-4 -5.1e-4 v 5.2e-4 l -1.77302,1.11259 v -0.94568 l 1.37201,-1.19682 -0.29094,-1.45521 0.87075,-0.82217 0.25631,-0.2403 z" /><path
       id="path42"
       style="fill:#3e3713;fill-opacity:1;stroke:#97aaa2;stroke-width:0;stroke-linecap:square;paint-order:fill markers stroke"
       d="m 96.465394,95.778197 -0.600897,0.451214 0.1786,0.391369 0.42764,0.940515 -0.873445,2.452955 1.978406,3.26775 0.368714,13.6259 c 0.01049,0.38764 0.968494,0.67333 2.147718,0.64142 1.17922,-0.0319 2.11987,-0.36897 2.10938,-0.75661 l -0.22861,-8.44835 0.68822,-0.22373 1.84107,-0.0498 0.34972,-0.009 -0.0245,-0.90333 -0.34972,0.009 -1.91907,0.0519 -0.61083,0.19894 -0.0271,-1.00147 2.42261,-2.07664 2.39808,-0.15512 c 1.8e-4,-1e-5 8.8e-4,1e-5 0.001,-3e-5 l 5.2e-4,-1e-5 5.2e-4,-2e-5 4.9e-4,-6.8e-4 5.2e-4,-1e-5 5.2e-4,-2e-5 c 0.0205,-0.0196 0.0279,-0.22089 0.0158,-0.4661 l -0.003,-0.0486 c -0.0126,-0.24518 -0.0388,-0.4439 -0.0611,-0.46069 l -5.2e-4,1e-5 -5.4e-4,-6.4e-4 c -2.3e-4,-4e-5 -7.4e-4,3e-5 -0.001,3e-5 -9e-5,-3e-5 -10e-4,1.5e-4 -0.002,5e-5 l -2e-5,-6.7e-4 -5.2e-4,10e-6 -5.1e-4,2e-5 -2.39445,0.15573 1.90808,-1.75738 5e-4,-6.9e-4 5.1e-4,-1e-5 5.2e-4,-1e-5 -2e-5,-6.6e-4 -2e-5,-6.7e-4 -1e-5,-6.8e-4 5e-4,-6.7e-4 c 0.009,-0.0308 -0.0684,-0.20744 -0.18009,-0.40803 l -0.0223,-0.0395 c -0.11173,-0.20059 -0.21603,-0.35196 -0.24161,-0.35091 -2e-4,3e-5 -8.9e-4,-2e-5 -0.002,6e-5 l 0.002,9.4e-4 2e-5,6.6e-4 -5.2e-4,1e-5 -5.1e-4,2e-5 -5.2e-4,1e-5 -2.1537,1.98384 c -0.003,-0.003 -0.006,-0.006 -0.008,-0.008 l -1e-5,-6.6e-4 -5.1e-4,1e-5 -5.2e-4,1e-5 c -2e-4,-2e-5 -8.9e-4,2e-5 -0.002,6e-5 l -5.1e-4,1e-5 -5.2e-4,2e-5 2e-5,6.6e-4 -1.73348,1.4854 -0.0652,-2.40954 c -0.0105,-0.38764 -0.96801,-0.67399 -2.147225,-0.64208 -1.029981,0.0279 -1.878106,0.2892 -2.069314,0.61322 l -1.167775,-1.928706 0.847981,-2.381449 -0.616543,-1.349645 z" /><path
       id="path42-2"
       style="display:inline;fill:#423a14;fill-opacity:1;stroke:#97aaa2;stroke-width:0;stroke-linecap:square;paint-order:fill markers stroke"
       d="m 116.96708,102.12127 -0.26406,0.30076 0.15038,0.1328 1.43815,1.26091 -0.2682,0.46974 -0.59841,0.0119 v -0.55655 c 0,-0.30004 -0.94942,-0.54209 -2.12907,-0.54209 -1.17966,0 -2.12959,0.24205 -2.12959,0.54209 v 11.55898 c 0,0.30003 0.94993,0.54105 2.12959,0.54105 1.17965,0 2.12907,-0.24102 2.12907,-0.54105 v -6.82594 l 1.2702,-0.15348 0.33022,1.07797 0.14986,0.0367 -0.56948,0.98909 -0.0512,0.0879 0.17415,0.0997 0.0507,-0.0884 0.59686,-1.03921 1.17667,0.28732 0.19534,0.047 0.0956,-0.3886 -0.19534,-0.047 -1.30689,-0.32039 -0.36329,-1.17926 -1.55339,0.18862 v -0.80305 l 2.47788,-1.55546 2.40141,-0.0698 c 1.8e-4,-1e-5 8.8e-4,2e-5 0.001,0 h 5.2e-4 5.1e-4 v -5.1e-4 h 5.2e-4 l 5.2e-4,-5.2e-4 h 5.1e-4 c 0.021,-0.0147 0.0339,-0.17027 0.0284,-0.36018 l -0.002,-0.0377 c -0.006,-0.1899 -0.0268,-0.34362 -0.0486,-0.35708 v -5.2e-4 h -5.1e-4 -5.2e-4 -5.2e-4 -5.1e-4 c -9e-5,-2e-5 -0.001,-4.2e-4 -0.002,-5.2e-4 h -5.1e-4 -5.2e-4 l -2.39778,0.0698 1.95491,-1.31878 5.2e-4,-5.2e-4 h 5.2e-4 v -5.2e-4 h 5.1e-4 v -5.2e-4 -5.1e-4 -5.2e-4 l 5.2e-4,-5.2e-4 c 0.01,-0.0236 -0.0628,-0.16136 -0.16898,-0.31884 l -0.0212,-0.0315 c -0.10626,-0.15748 -0.20642,-0.27623 -0.23202,-0.27595 -2e-4,2e-5 -8.9e-4,-4e-5 -0.002,0 l 0.002,5.1e-4 v 5.2e-4 l -5.2e-4,5.2e-4 h -5.2e-4 -5.2e-4 l -2.20658,1.48879 c -0.003,-0.002 -0.006,-0.005 -0.008,-0.006 h -5.2e-4 -5.1e-4 c -2e-4,-2e-5 -8.9e-4,-1e-5 -0.002,0 h -5.2e-4 -5.1e-4 v 5.2e-4 l -0.75758,0.47542 0.9033,-1.58182 0.17415,-0.30282 -0.60978,-0.34726 -0.17363,0.3023 -0.24081,0.4222 -1.37615,-1.20716 z m 1.45986,2.85564 -1.002,0.6289 v -0.60875 z" /><path
       id="path42-20"
       style="display:inline;fill:#342e10;fill-opacity:1;stroke:#97aaa2;stroke-width:0;stroke-linecap:square;paint-order:fill markers stroke"
       d="m 133.34762,105.42772 -3.2e-4,3.2e-4 c -7e-5,3e-5 -4.4e-4,2.7e-4 -6.3e-4,3.3e-4 h -3.3e-4 l -1.70004,1.14717 c -0.003,-0.002 -0.005,-0.005 -0.007,-0.005 -1.6e-4,-2e-5 -6.4e-4,-10e-6 -0.002,0 h -3.3e-4 -3.3e-4 v 3.3e-4 h -3.1e-4 l -1.36584,0.85735 v -1.43698 c 0,-0.23117 -0.73175,-0.41742 -1.64064,-0.41742 -0.9089,0 -1.64063,0.18625 -1.64063,0.41742 v 8.90585 c 0,0.23117 0.73173,0.41709 1.64063,0.41709 0.90889,0 1.64064,-0.18592 1.64064,-0.41709 v -6.18756 l 1.9089,-1.19841 1.8505,-0.0539 c 1.3e-4,-1e-5 5.1e-4,2e-5 6.3e-4,0 h 3.2e-4 3.3e-4 c 1.3e-4,-6e-5 6.3e-4,-5.8e-4 0.002,-6.3e-4 0.0162,-0.0113 0.0258,-0.13109 0.0216,-0.27741 l -0.002,-0.029 c -0.005,-0.14631 -0.0204,-0.26508 -0.0372,-0.27545 -1.4e-4,-7e-5 -6.3e-4,-2.7e-4 -0.002,-3.2e-4 h -3.2e-4 c -1.4e-4,-3e-5 -6.3e-4,-3.1e-4 -0.002,-3.3e-4 h -3.3e-4 l -1.84723,0.0539 1.50618,-1.0163 3.3e-4,-3.4e-4 h 3.2e-4 c 9e-5,-10e-5 5.8e-4,-6.3e-4 6.3e-4,-0.002 l 3.2e-4,-3.2e-4 c 0.008,-0.0182 -0.0484,-0.12442 -0.13021,-0.24575 l -0.0163,-0.0241 c -0.0819,-0.12133 -0.15912,-0.21299 -0.17885,-0.21278 -1.5e-4,2e-5 -6.3e-4,-3e-5 -0.002,0 z" /><path
       id="path42-07"
       style="display:inline;fill:#3a3311;fill-opacity:1;stroke:#97aaa2;stroke-width:0;stroke-linecap:square;paint-order:fill markers stroke"
       d="m 135.39463,95.744673 -0.12713,0.994882 0.34572,0.09047 0.76739,0.203464 0.37724,1.286601 1.32602,1.096614 -0.12557,2.072776 h -1.14774 l -0.49609,1.17814 -0.35347,-1.14149 -0.87901,-0.28274 -0.19534,-0.0651 -0.0858,0.5655 0.19533,0.0621 0.68161,0.22068 0.38396,1.24173 -0.0796,0.18924 -0.67748,0.13245 -0.39636,0.0763 0.10542,1.14822 0.39636,-0.0763 1.05678,-0.20646 0.79272,-1.88278 h 0.6289 l -0.74776,12.35741 c -0.0272,0.44855 0.93189,0.93394 2.15026,1.08838 1.21835,0.15442 2.22079,-0.0825 2.24793,-0.5311 l 0.72657,-12.00585 2.69957,-2.00096 2.48667,0.20944 5.2e-4,7.5e-4 h 5.2e-4 5.1e-4 5.2e-4 l 5.2e-4,-7.5e-4 h 5.1e-4 l 5.2e-4,-7.4e-4 c 0.023,-0.0192 0.05,-0.24945 0.0615,-0.53409 l 0.001,-0.0569 c 0.011,-0.28468 0.004,-0.51784 -0.0176,-0.54082 h -5.2e-4 l -5.1e-4,-7.4e-4 h -5.2e-4 -5.2e-4 c -9e-5,-4e-5 -0.001,-5.7e-4 -0.002,-7.5e-4 h -5.2e-4 -5.1e-4 l -2.48254,-0.20946 2.13837,-1.715965 5.2e-4,-7.52e-4 h 5.2e-4 v -7.53e-4 h 5.1e-4 v -7.38e-4 -7.53e-4 l 5.2e-4,-7.53e-4 v -7.38e-4 c 0.0124,-0.03387 -0.0503,-0.249596 -0.14573,-0.498932 l -0.0186,-0.04936 c -0.0955,-0.249351 -0.18852,-0.440641 -0.21498,-0.443579 h -5.1e-4 c -3.5e-4,1.4e-5 -9.8e-4,4.3e-5 -0.002,0 l 0.002,0.0014 -5.2e-4,7.52e-4 h -5.2e-4 -5.1e-4 l -2.41381,1.937393 c -0.003,-0.0029 -0.005,-0.0072 -0.007,-0.01013 h -5.1e-4 v -7.53e-4 h -5.2e-4 -5.2e-4 -5.1e-4 c -2.4e-4,0 -7.5e-4,4.4e-5 -10e-4,0 h -5.1e-4 -5.2e-4 -5.2e-4 l -1.93115,1.431731 0.16847,-2.7879 c 0.0272,-0.448558 -0.93192,-0.934694 -2.15026,-1.08913 -1.21839,-0.154421 -2.22078,0.08251 -2.24792,0.531096 l -0.0351,0.581224 -0.84026,-0.696418 -0.43202,-1.475111 -1.14049,-0.299956 z" /><path
       id="path42-7"
       style="display:inline;fill:#484016;fill-opacity:1;stroke:#97aaa2;stroke-width:0;stroke-linecap:square;paint-order:fill markers stroke"
       d="m 154.07036,104.55512 3.7e-4,4.5e-4 c 9e-5,5e-5 5.7e-4,4.2e-4 8.1e-4,5.4e-4 l 4.8e-4,5e-5 2.14721,1.74327 c 0.004,-0.002 0.009,-0.004 0.011,-0.004 2.2e-4,2e-5 8.9e-4,1.2e-4 0.002,3e-4 l 4.7e-4,7e-5 4.6e-4,5e-5 -6e-5,4.2e-4 4.4e-4,6e-5 1.7391,1.32105 0.31279,-1.77709 c 0.0503,-0.28589 1.12257,-0.37651 2.40404,-0.20298 1.28148,0.17354 2.27263,0.54357 2.22231,0.82945 l -1.93856,11.01373 c -0.0503,0.28589 -1.12248,0.37611 -2.40396,0.20258 -1.28147,-0.17354 -2.27271,-0.54318 -2.22239,-0.82906 l 1.34686,-7.65206 -2.43053,-1.84651 -2.59734,-0.41992 c -1.8e-4,-4e-5 -7.2e-4,-8e-5 -8.9e-4,-1.2e-4 l -4.5e-4,-6e-5 -4.7e-4,-7e-5 c -1.6e-4,-9e-5 -7.6e-4,-8.3e-4 -0.002,-8.7e-4 -0.0203,-0.0171 -0.008,-0.16704 0.03,-0.3472 l 0.009,-0.0357 c 0.0384,-0.18005 0.0865,-0.32392 0.11244,-0.33354 2.1e-4,-6e-5 9.4e-4,-2.1e-4 0.002,-1e-4 l 4.5e-4,7e-5 c 2.1e-4,-2e-5 9.5e-4,-2.7e-4 0.002,-1.1e-4 l 4.6e-4,5e-5 2.59272,0.41929 -1.90237,-1.54441 -3.9e-4,-4.8e-4 -4.5e-4,-6e-5 c -1.1e-4,-1.5e-4 -6.8e-4,-8.7e-4 -5.6e-4,-0.002 l -3.8e-4,-4.7e-4 c -0.007,-0.024 0.0953,-0.14463 0.23709,-0.27906 l 0.0283,-0.0267 c 0.14184,-0.13442 0.27072,-0.23304 0.29848,-0.22899 2.1e-4,5e-5 8.9e-4,8e-5 0.002,2.9e-4 z" /><path
       d="m 170.30309,119.08333 a 74.012268,22.563063 0 0 0 -4.24005,-0.85007 l -0.0537,0.1943 c -0.0921,0.33342 0.73768,0.94232 1.86035,1.36529 1.12265,0.42299 2.1005,0.49517 2.19263,0.16175 z"
       style="display:inline;fill:#3b3412;stroke:#97aaa2;stroke-width:0;stroke-linecap:square;paint-order:fill markers stroke"
       id="path172" /><path
       d="m 175.26713,108.52687 -0.18862,0.0636 c -0.002,-0.002 -0.004,-0.006 -0.005,-0.008 l -5.1e-4,-5.2e-4 -5.2e-4,-5.2e-4 h -5.2e-4 c 0,0 -5.1e-4,0 -5.1e-4,0 -3.4e-4,-8e-5 -9.8e-4,-3.1e-4 -0.002,-5.2e-4 l -5.2e-4,-5.1e-4 h -5.2e-4 v 5.1e-4 h -5.1e-4 l -2.02882,0.601 0.57257,-2.07274 c 0.0921,-0.33343 -0.73718,-0.94284 -1.85983,-1.36581 -1.12267,-0.42299 -2.10102,-0.49519 -2.19315,-0.16175 l -0.51625,1.86914 -0.56379,-0.88418 0.0176,-1.70171 -1.24385,-0.98495 -0.2899,-0.22996 -0.39429,0.67696 0.29093,0.22789 0.9338,0.74208 -0.016,1.53685 1.00097,1.572 -0.71313,2.58176 -1.51826,-0.78962 -1.14567,0.90692 -0.0103,-1.56683 -0.95498,-0.82062 -0.1602,-0.13901 -0.23823,0.37621 0.16175,0.13952 0.79323,0.68213 0.0109,1.64434 -0.21033,0.1664 -0.95704,-0.33331 -0.38293,-0.13177 -0.22841,0.89348 0.38293,0.13436 1.32033,0.45889 1.70119,-1.34566 1.18855,0.62012 -1.75441,6.35052 a 74.012268,22.563063 0 0 1 4.24005,0.85007 l 2.22519,-8.05377 2.73885,-0.81132 z"
       style="display:inline;fill:#3b3412;stroke:#97aaa2;stroke-width:0;stroke-linecap:square;paint-order:fill markers stroke"
       id="path170" /><g
       id="path14"
       style="opacity:1"><path
         style="baseline-shift:baseline;display:inline;overflow:visible;vector-effect:none;fill:#99a169;fill-opacity:0;stroke-linecap:round;paint-order:fill markers stroke;enable-background:accumulate;stop-color:#000000;stop-opacity:1"
         d="m 162.59196,78.454681 c 0,0 -5.037,11.832426 -9.86732,15.698212 -6.51021,5.210214 -16.28148,3.140806 -23.06817,7.947457 -4.14219,2.9337 -5.50893,8.90919 -9.60061,11.92067 -2.42722,1.78643 -6.08969,1.10285 -8.26721,3.20487 -3.57688,3.45288 -3.0111,9.44848 -5.86705,13.50849 -1.44047,2.04776 -4.34219,2.94792 -5.46703,5.16533 -2.082624,4.10544 1.23987,9.51647 -1.466763,13.28139 -2.630996,3.65971 -8.357235,3.13956 -12.000786,5.76615 -4.009035,2.89005 -6.077154,8.36672 -10.400663,10.6722 -2.216913,1.18216 -5.059433,-0.12661 -7.200465,1.21115 -3.264491,2.03971 -3.817358,7.05867 -6.933787,9.34549 -8.481131,6.22343 -29.201899,9.84173 -29.201899,9.84173"
         id="path22" /></g><path
       d="m 95.516958,125.53462 c -0.915994,-0.0146 -1.837318,0.0291 -2.747635,0.12816 -1.690678,0.18399 -5.130683,1.10598 -7.007841,1.63245 v 5.39502 c 0.04444,0.0475 0.12518,0.16249 0.517281,0.52555 0.911967,0.84443 2.962035,2.15002 5.855456,3.27939 0.920629,0.35934 1.922395,0.70371 2.996717,1.02836 l -0.430982,-4.30206 c -0.140466,-1.40235 0.925603,-2.64953 2.390035,-2.79621 l 6.073011,-0.60824 c 1.46444,-0.14668 2.756,0.86419 2.89647,2.26653 l 0.4377,4.36976 c 0.14046,1.40235 -0.92509,2.64901 -2.38952,2.7957 l -0.91312,0.0915 c 4.16051,0.67224 8.82196,1.07074 13.72319,1.07074 h 6.6027 v -6.31538 c 0,-0.65805 0.37398,-1.18752 0.83819,-1.18752 h 0.85576 c 0.46421,0 0.83768,0.52947 0.83768,1.18752 v 6.31538 h 18.06091 c 8.81218,0 16.84742,-1.28773 22.59138,-3.13986 -1.08437,-0.3353 -2.18422,-0.69387 -3.04219,-1.01441 -2.54929,-0.95243 -5.11867,-2.01826 -7.57835,-3.34966 -2.82156,-1.5273 -4.4356,-3.5013 -6.03477,-4.01785 -2.22629,-0.71912 -5.07926,-0.54808 -8.10752,-0.3731 -4.03585,0.2332 -8.39452,2.00427 -13.47669,2.30528 -3.76847,0.22322 -7.42592,-0.17302 -10.91975,-0.54518 -2.95687,-0.31497 -5.91627,-0.77881 -8.83408,-1.43971 -4.00513,-0.90719 -7.3143,-2.59989 -10.478435,-3.07991 -0.888936,-0.13486 -1.799602,-0.20765 -2.715597,-0.22221 z"
       style="display:inline;fill:#7d905c;stroke:#a1ae9a;stroke-width:0;stroke-linecap:square;paint-order:fill markers stroke"
       id="path167" /><path
       d="m 168.49493,130.12969 c -0.68402,0.23133 -1.41498,0.39934 -2.20761,0.40721 -0.82546,0.008 -1.48055,-0.28819 -2.01177,-0.50747 -0.53122,-0.21928 -0.94043,-0.36066 -1.23455,-0.35966 -0.68134,0.003 -1.87167,0.27805 -2.97449,0.61236 1.67816,0.80341 3.43961,1.51793 5.23999,2.19057 2.06895,0.77296 6.92412,2.13682 6.92412,2.13682 l 0.38758,0.108 c 0.52257,-0.30515 0.97425,-0.59981 1.34978,-0.87178 -1.39946,-0.27395 -2.89295,-0.68741 -3.87986,-1.418 -0.63273,-0.46839 -1.07942,-1.27264 -1.43557,-1.97663 -0.0557,-0.11013 -0.10848,-0.21777 -0.15762,-0.32142 z"
       style="display:inline;fill:#7d905c;stroke:#a1ae9a;stroke-width:0;stroke-linecap:square;paint-order:fill markers stroke"
       id="path133" /><path
       d="m 175.26713,128.74889 c -0.76146,-0.15236 -1.45871,-0.24617 -1.97197,-0.23719 -0.95084,0.0166 -1.97373,0.43904 -3.11764,0.93741 -0.24279,0.10577 -0.491,0.21485 -0.74569,0.32143 0.0359,0.0746 0.0738,0.15156 0.11317,0.22944 0.32962,0.65156 0.80999,1.38117 1.13688,1.62316 0.83013,0.61452 2.57969,1.08992 4.08399,1.35133 0.0678,0.0118 0.13479,0.0236 0.20154,0.0346 0.20807,-0.20304 0.26511,-0.27977 0.29972,-0.31678 z"
       style="display:inline;fill:#7d905c;stroke:#a1ae9a;stroke-width:0;stroke-linecap:square;paint-order:fill markers stroke"
       id="path131" /><path
       d="m 175.26713,124.14452 c -0.30949,0.0627 -0.65126,0.12926 -1.01131,0.19534 -1.41723,0.26011 -3.08934,0.52644 -4.42764,0.48834 -2.22466,-0.0633 -3.93916,-1.02424 -5.35574,-1.10174 -2.81056,-0.15381 -5.64189,-0.11452 -8.07806,0.74207 -0.54287,0.19088 -1.64416,0.87209 -2.49804,1.49449 -0.0452,0.0329 -0.0899,0.0657 -0.13384,0.0982 1.64375,0.96601 2.82522,2.15856 3.90725,2.92489 0.33159,-0.12313 0.71049,-0.25876 1.11518,-0.39429 1.33113,-0.44581 2.90434,-0.91591 4.24832,-0.92191 0.82388,-0.004 1.47585,0.29294 2.00556,0.5116 0.52971,0.21866 0.93637,0.35853 1.22887,0.35553 0.94869,-0.009 1.9696,-0.42444 3.11144,-0.92191 1.14184,-0.49746 2.403,-1.07749 3.8809,-1.10329 0.62684,-0.0109 1.30861,0.0612 2.00711,0.18397 v -2.11047 z"
       style="display:inline;fill:#7d905c;stroke:#a1ae9a;stroke-width:0;stroke-linecap:square;paint-order:fill markers stroke"
       id="path141" /><path
       d="m 127.54239,114.9363 a 74.012268,22.563063 0 0 0 -41.780908,3.93878 v 3.29179 0.83715 c 1.924051,-0.53282 4.516446,-1.17641 6.494177,-1.39164 2.20227,-0.23967 4.467958,-0.21733 6.687447,0.11937 4.179214,0.63402 7.589524,2.41339 10.812774,3.14348 2.71226,0.61434 5.49002,1.0504 8.29097,1.34875 3.49045,0.3718 6.8894,0.71944 10.13685,0.5271 4.03768,-0.23915 8.39956,-2.01302 13.48445,-2.30683 2.84704,-0.16452 6.16229,-0.4916 9.47384,0.48317 0.29827,-0.24048 0.75598,-0.60043 1.28209,-0.98392 0.93081,-0.67848 2.0282,-1.44295 3.14038,-1.834 2.97297,-1.04534 6.13028,-1.03852 9.04492,-0.87901 2.20129,0.12047 3.89402,1.05781 5.29115,1.09761 0.90264,0.0257 2.55501,-0.19939 3.90416,-0.447 0.55158,-0.10124 1.05729,-0.20375 1.46244,-0.28939 v -1.33791 a 74.012268,22.563063 0 0 0 -47.72474,-5.3175 z"
       style="display:inline;fill:#7d905c;stroke:#a1ae9a;stroke-width:0;stroke-linecap:square;paint-order:fill markers stroke"
       id="path137" /><path
       id="path123"
       style="baseline-shift:baseline;display:inline;overflow:visible;vector-effect:none;fill:#97aaa2;stroke-width:1.03859;stroke-linecap:square;paint-order:fill markers stroke;enable-background:accumulate;stop-color:#000000;stop-opacity:1"
       d="M 95.592923 121.4558 C 94.473781 121.43808 93.356794 121.49254 92.255659 121.61238 C 90.277928 121.82761 87.685533 122.4712 85.761482 123.00402 L 85.761482 125.15118 L 85.761482 127.29523 C 87.63864 126.76876 91.078645 125.84677 92.769323 125.66278 C 94.589957 125.46464 96.454682 125.48716 98.232555 125.75683 C 101.39669 126.23685 104.70586 127.92955 108.71099 128.83674 C 111.6288 129.49764 114.5882 129.96148 117.54507 130.27645 C 121.0389 130.64861 124.69635 131.04485 128.46482 130.82163 C 133.54699 130.52062 137.90566 128.74955 141.94151 128.51635 C 144.96977 128.34137 147.82274 128.17033 150.04903 128.88945 C 151.6482 129.406 153.26224 131.38 156.0838 132.9073 C 158.54348 134.2387 161.11286 135.30453 163.66215 136.25696 C 164.52012 136.5775 165.61997 136.93607 166.70434 137.27137 C 167.47691 137.02226 168.20789 136.76297 168.89387 136.49519 C 169.24274 136.35901 169.57927 136.22042 169.90312 136.08023 C 170.9465 135.62855 171.85732 135.16183 172.6182 134.71752 L 172.23062 134.60952 C 172.23062 134.60952 167.37545 133.24566 165.3065 132.4727 C 162.86333 131.55991 160.49142 130.57024 158.30279 129.38555 C 156.60568 128.46691 154.83799 126.11597 151.49597 125.03646 C 148.06734 123.92896 144.61662 124.27387 141.66815 124.44425 C 136.58326 124.73806 132.22138 126.51193 128.1837 126.75108 C 124.93625 126.94342 121.5373 126.59578 118.04685 126.22398 C 115.2459 125.92563 112.46814 125.48957 109.75588 124.87523 C 106.53263 124.14514 103.12232 122.36577 98.943106 121.73175 C 97.833361 121.5634 96.712065 121.47351 95.592923 121.4558 z " /><ellipse
       style="fill:#747c47;fill-opacity:1;stroke:#3f321d;stroke-width:0;stroke-linecap:round;stroke-linejoin:round;stroke-dasharray:none;stroke-opacity:1;paint-order:fill markers stroke"
       id="ellipse14"
       cx="-131.46088"
       cy="135.11868"
       rx="0.92890984"
       ry="0.82185459"
       transform="scale(-1,1)" /><rect
       style="fill:#aca64b;fill-opacity:1;stroke:#3f321d;stroke-width:0;stroke-linecap:round;stroke-linejoin:round;stroke-dasharray:none;stroke-opacity:1;paint-order:fill markers stroke"
       id="rect15"
       width="7.6660404"
       height="10.792614"
       x="-139.95065"
       y="129.13336"
       rx="2.5371616"
       ry="3.5719364"
       transform="scale(-1,1)" /><path
       d="m 126.05205,140.41123 v -6.31538 c 0,-0.65805 -0.37347,-1.18752 -0.83768,-1.18752 h -0.85576 c -0.46421,0 -0.83819,0.52947 -0.83819,1.18752 v 6.31538 z"
       style="fill:#aca64b;stroke:#3f321d;stroke-width:0;stroke-linecap:round;stroke-linejoin:round;paint-order:fill markers stroke"
       id="path166" /><rect
       style="fill:#d1d25b;fill-opacity:1;stroke:#3f321d;stroke-width:0;stroke-linecap:round;stroke-linejoin:round;stroke-dasharray:none;stroke-opacity:1;paint-order:fill markers stroke"
       id="rect17"
       width="4.3270097"
       height="4.0957422"
       x="-126.9872"
       y="132.35884"
       rx="1.4320723"
       ry="1.3555318"
       transform="scale(-1,1)" /><rect
       style="fill:#e5e664;fill-opacity:1;stroke:#3f321d;stroke-width:0;stroke-linecap:round;stroke-linejoin:round;stroke-dasharray:none;stroke-opacity:1;paint-order:fill markers stroke"
       id="rect18"
       width="1.6932681"
       height="1.6027673"
       x="-125.95437"
       y="133.33278"
       rx="0.56040603"
       ry="0.53045386"
       transform="scale(-1,1)" /><rect
       style="fill:#ddc860;fill-opacity:1;stroke:#3f321d;stroke-width:0;stroke-linecap:round;stroke-linejoin:round;stroke-dasharray:none;stroke-opacity:1;paint-order:fill markers stroke"
       id="rect19"
       width="11.40202"
       height="10.792614"
       x="-141.82013"
       y="125.63182"
       rx="3.7736263"
       ry="3.5719364"
       transform="scale(-1,1)" /><rect
       style="fill:#ead466;fill-opacity:1;stroke:#3f321d;stroke-width:0;stroke-linecap:round;stroke-linejoin:round;stroke-dasharray:none;stroke-opacity:1;paint-order:fill markers stroke"
       id="rect20"
       width="6.0946331"
       height="5.7688918"
       x="-139.89597"
       y="127.3176"
       rx="2.0170867"
       ry="1.9092791"
       transform="scale(-1,1)" /><ellipse
       style="fill:#747c47;fill-opacity:1;stroke:#3f321d;stroke-width:0;stroke-linecap:round;stroke-linejoin:round;stroke-dasharray:none;stroke-opacity:1;paint-order:fill markers stroke"
       id="ellipse20"
       cx="-134.26331"
       cy="128.83493"
       rx="0.81974143"
       ry="0.77592856"
       transform="scale(-1,1)" /><rect
       style="display:inline;fill:#5d3f01;fill-opacity:1;stroke:#d1e7f1;stroke-width:0;stroke-linecap:round;stroke-dasharray:none;paint-order:fill markers stroke"
       id="rect4-3"
       width="26.001337"
       height="7.2307091"
       x="136.30928"
       y="104.79053"
       rx="1.8749977"
       ry="0.43940005"
       transform="rotate(3.6843964)" /><rect
       style="display:inline;fill:#5d3f01;fill-opacity:1;stroke:#d1e7f1;stroke-width:0;stroke-linecap:round;stroke-dasharray:none;paint-order:fill markers stroke"
       id="rect5-7"
       width="1.1878415"
       height="2.9437814"
       x="152.37395"
       y="102.96842"
       rx="1.8749977"
       ry="0.43940005"
       transform="rotate(3.6843964)" /><rect
       style="display:inline;fill:#5d3f01;fill-opacity:1;stroke:#d1e7f1;stroke-width:0;stroke-linecap:round;stroke-dasharray:none;paint-order:fill markers stroke"
       id="rect6-8"
       width="4.6997213"
       height="1.4977132"
       x="61.238922"
       y="164.48045"
       rx="1.874998"
       ry="0.43940005"
       transform="rotate(-29.280639)" /><rect
       style="display:inline;fill:#1a150c;fill-opacity:1;stroke:#7a8983;stroke-width:0;stroke-linecap:round;stroke-dasharray:none;stroke-opacity:0.777982;paint-order:fill markers stroke"
       id="rect23"
       width="24.065844"
       height="1.095562"
       x="137.22226"
       y="105.41135"
       rx="1.8749977"
       ry="1.095562"
       transform="rotate(3.6843964)" /><path
       style="fill:#49897a;fill-opacity:0;stroke:#cff069;stroke-width:2.07083;stroke-linecap:square;stroke-linejoin:round;stroke-dasharray:none;stroke-opacity:1;paint-order:fill markers stroke"
       d="m 108.56214,126.0436 c 0.29938,-0.82577 0.96551,-1.51083 1.78257,-1.83322 0.81706,-0.3224 1.7715,-0.27678 2.55409,0.12207 0.20671,0.10535 0.40096,0.23347 0.60472,0.3444 0.20377,0.11094 0.42051,0.20561 0.65048,0.23631 0.2321,0.031 0.46994,-0.005 0.69163,-0.0802 0.22169,-0.0754 0.42846,-0.18942 0.62509,-0.31657 0.39326,-0.2543 0.75399,-0.56486 1.18091,-0.75737 0.41405,-0.1867 0.88116,-0.25389 1.33105,-0.19147 0.44988,0.0624 0.88105,0.25426 1.22862,0.54664 0.34758,0.29238 0.61041,0.68434 0.74894,1.11689 0.13853,0.43255 0.15231,0.90427 0.0393,1.34417"
       id="path1-3"
       inkscape:path-effect="#path-effect1"
       inkscape:original-d="m 108.56214,126.0436 c 1.63629,-1.5424 4.00105,-1.98593 4.33666,-1.71115 0.44184,0.36174 0.90308,0.82289 1.2552,0.58071 0.75665,-0.52041 1.73925,-0.64331 2.49763,-1.15416 2.24149,-1.46081 1.44643,2.3756 3.34787,2.81623"
       sodipodi:nodetypes="csscc"
       transform="matrix(0.47791653,0.03077478,-0.03128998,0.48591726,90.735717,49.27552)" /><path
       style="fill:#f0e869;fill-opacity:0;stroke:#cff069;stroke-width:2.07083;stroke-linecap:square;stroke-linejoin:round;stroke-dasharray:none;stroke-opacity:1;paint-order:fill markers stroke"
       d="m 116.78095,130.00932 c -0.0835,-0.67674 -0.4392,-1.31598 -0.97027,-1.74366 -0.53108,-0.42767 -1.23147,-0.6389 -1.91044,-0.57617 -0.67898,0.0627 -1.32881,0.39871 -1.77254,0.91645 -0.44373,0.51774 -0.6763,1.21133 -0.63438,1.89191 0.005,0.0866 0.0149,0.17296 0.0287,0.25863"
       id="path2-5"
       inkscape:path-effect="#path-effect2"
       inkscape:original-d="m 116.78095,130.00932 c -1.72423,0.12452 -3.50593,0.30653 -5.28763,0.48853 -1.7817,0.182 0.0192,0.17242 0.0287,0.25863"
       transform="matrix(0.42642208,0.21828975,-0.21993104,0.43426959,131.22605,35.451283)" /><path
       style="fill:#f0e869;fill-opacity:0;stroke:#412c01;stroke-width:0.600001;stroke-linecap:round;stroke-linejoin:round;stroke-dasharray:none;stroke-opacity:1;paint-order:fill markers stroke"
       d="m 138.23814,114.23273 0.91319,0.0538"
       id="path3" /><path
       style="fill:#f0e869;fill-opacity:0;stroke:#412c01;stroke-width:0.600001;stroke-linecap:round;stroke-linejoin:round;stroke-dasharray:none;stroke-opacity:1;paint-order:fill markers stroke"
       d="m 143.48353,114.82028 0.96423,0.0641"
       id="path3-5"
       sodipodi:nodetypes="cc" /><path
       style="fill:#49897a;fill-opacity:0;stroke:#cff069;stroke-width:2.07083;stroke-linecap:square;stroke-linejoin:round;stroke-dasharray:none;stroke-opacity:1;paint-order:fill markers stroke"
       d="m 109.14406,125.6772 c 0.13089,-0.85813 0.67178,-1.64438 1.42638,-2.07343 0.75461,-0.42905 1.70688,-0.49177 2.51124,-0.16541 0.30415,0.12341 0.59173,0.30337 0.79811,0.5586 0.20638,0.25523 0.32447,0.59184 0.27421,0.9162 -0.0356,0.22979 -0.15106,0.43958 -0.283,0.63106 -0.13194,0.19148 -0.2824,0.37043 -0.40165,0.57006 -0.20264,0.33923 -0.30987,0.73477 -0.30633,1.1299 0.004,0.39513 0.11787,0.78868 0.32657,1.12422 0.2087,0.33554 0.51116,0.61207 0.864,0.78994 0.35285,0.17788 0.75504,0.25656 1.14891,0.22478"
       id="path1-8"
       inkscape:path-effect="#path-effect1-2"
       inkscape:original-d="m 109.14406,125.6772 c 1.63629,-1.5424 3.60201,-2.51362 3.93762,-2.23884 0.44184,0.36174 0.7202,1.71698 1.07232,1.4748 0.75665,-0.52041 -1.44303,1.71197 -0.68465,1.20112 1.37938,-0.92917 0.83577,2.25346 2.03315,3.26884"
       sodipodi:nodetypes="csscc"
       transform="matrix(0.03128998,-0.48591726,-0.47791653,-0.03077478,189.71946,174.85762)" /><path
       style="fill:#f0e869;fill-opacity:0;stroke:#412c01;stroke-width:0.611137;stroke-linecap:round;stroke-linejoin:round;stroke-dasharray:none;stroke-opacity:1;paint-order:fill markers stroke"
       d="m 132.66001,118.33096 0.0602,-0.84206"
       id="path3-57"
       sodipodi:nodetypes="cc" /><path
       style="fill:#f0e869;fill-opacity:0;stroke:#412c01;stroke-width:0.600001;stroke-linecap:round;stroke-linejoin:round;stroke-dasharray:none;stroke-opacity:1;paint-order:fill markers stroke"
       d="m 131.98592,114.46745 -0.89744,-0.17858"
       id="path3-5-6" /><path
       style="fill:#f0e869;fill-opacity:0;stroke:#412c01;stroke-width:0.600001;stroke-linecap:round;stroke-linejoin:round;stroke-dasharray:none;stroke-opacity:1;paint-order:fill markers stroke"
       d="m 151.87937,117.60932 0.8645,0.2991"
       id="path3-52" /><path
       style="fill:#f0e869;fill-opacity:0;stroke:#412c01;stroke-width:0.600001;stroke-linecap:round;stroke-linejoin:round;stroke-dasharray:none;stroke-opacity:1;paint-order:fill markers stroke"
       d="m 149.4259,116.73995 0.86449,0.2991"
       id="path3-2" /><path
       d="m 168.09341,129.20365 c 0.3141,-0.10309 0.62546,-0.22356 0.93586,-0.35192 -0.0179,-0.0455 -0.0274,-0.0703 -0.0274,-0.0703 l -0.17777,-0.46716 -0.93534,0.35347 0.17777,0.46716 c 0,0 0.009,0.0241 0.0269,0.0687 z"
       style="baseline-shift:baseline;display:inline;overflow:visible;vector-effect:none;fill:#97aaa2;stroke-linecap:square;paint-order:fill markers stroke;enable-background:accumulate;stop-color:#000000;stop-opacity:1"
       id="path136" /><path
       d="m 160.06651,130.28213 c -0.4301,-0.2059 -0.85494,-0.41774 -1.27331,-0.63613 0,0 0,0 0,0 -0.16445,-0.0858 -0.32794,-0.17251 -0.49041,-0.26045 -0.20898,-0.11312 -0.41911,-0.24796 -0.63304,-0.39946 -0.75908,0.28188 -1.26917,0.49817 -1.26917,0.49816 l -0.92191,0.38861 0.77928,1.84174 0.91984,-0.3886 c 0,0 0.98964,-0.41817 2.24224,-0.83768 0.20876,-0.0699 0.42592,-0.13933 0.64648,-0.20619 z"
       style="baseline-shift:baseline;display:inline;overflow:visible;vector-effect:none;fill:#97aaa2;stroke-linecap:square;paint-order:fill markers stroke;enable-background:accumulate;stop-color:#000000;stop-opacity:1"
       id="path135" /><path
       id="path134"
       style="baseline-shift:baseline;display:inline;overflow:visible;vector-effect:none;fill:#97aaa2;stroke-linecap:square;paint-order:fill markers stroke;enable-background:accumulate;stop-color:#000000;stop-opacity:1"
       d="M 173.26002 126.51182 C 171.78212 126.53762 170.52096 127.11765 169.37912 127.61511 C 168.23728 128.11258 167.21637 128.52761 166.26768 128.53702 C 165.97518 128.54002 165.56852 128.40015 165.03881 128.18149 C 164.5091 127.96283 163.85713 127.66621 163.03325 127.66989 C 161.68927 127.67589 160.11606 128.14599 158.78493 128.5918 C 158.38024 128.72733 158.00134 128.86296 157.66975 128.98609 C 157.88368 129.13759 158.09381 129.27243 158.30279 129.38555 C 158.46526 129.47345 158.62875 129.56015 158.7932 129.646 C 159.21157 129.86439 159.63641 130.07623 160.06651 130.28213 C 161.16933 129.94782 162.35966 129.67292 163.041 129.66977 C 163.33512 129.66877 163.74433 129.81015 164.27555 130.02943 C 164.80677 130.24871 165.46186 130.5451 166.28732 130.5369 C 167.07995 130.5289 167.81091 130.36102 168.49493 130.12969 C 168.40831 129.94697 168.33284 129.77759 168.27014 129.63204 C 168.18641 129.43766 168.12566 129.28597 168.09341 129.20365 C 168.07591 129.15905 168.06654 129.13492 168.06654 129.13492 C 168.06654 129.13492 168.14089 129.33257 168.27014 129.63204 C 168.36853 129.86 168.49862 130.14685 168.65255 130.45111 C 169.0087 131.1551 169.45539 131.95935 170.08812 132.42774 C 171.07503 133.15833 172.56852 133.57179 173.96798 133.84574 C 174.16649 133.70198 174.3437 133.56472 174.4987 133.43543 C 174.5899 133.35933 174.67364 133.2859 174.74933 133.2158 C 174.83643 133.1352 174.908 133.06707 174.96741 133.0091 C 174.90061 132.998 174.83369 132.98627 174.76587 132.97447 C 173.26157 132.71306 171.51201 132.23766 170.68188 131.62314 C 170.35499 131.38115 169.87462 130.65154 169.545 129.99998 C 169.49099 129.89321 169.48796 129.86702 169.44061 129.76692 C 169.69217 129.66153 169.93757 129.55364 170.17752 129.44911 C 171.32143 128.95074 172.34432 128.52829 173.29516 128.5117 C 173.80842 128.5027 174.50567 128.5965 175.26713 128.74889 L 175.26713 127.72157 L 175.26713 126.69579 C 174.56863 126.57301 173.88686 126.50089 173.26002 126.51182 z " /><path
       d="m 169.43183,129.77054 c -0.20149,-0.41874 -0.34534,-0.77346 -0.40256,-0.91881 -0.3104,0.12836 -0.62176,0.24883 -0.93586,0.35192 0.0564,0.14397 0.19922,0.49931 0.40152,0.92604 0.32231,-0.109 0.63413,-0.23246 0.9369,-0.35915 z"
       style="baseline-shift:baseline;display:inline;overflow:visible;vector-effect:none;fill:#97aaa2;stroke-linecap:square;paint-order:fill markers stroke;enable-background:accumulate;stop-color:#000000;stop-opacity:1"
       id="path132" /><path
       d="m 153.7625,126.0612 c -0.3851,-0.22631 -0.79556,-0.44053 -1.2361,-0.63355 0,0 0,0 0,0 -0.32642,-0.14302 -0.66911,-0.27448 -1.03043,-0.39119 -0.11795,-0.0381 -0.236,-0.0743 -0.35398,-0.10904 -0.22944,0.18499 -0.36484,0.29921 -0.36484,0.29921 l -0.95705,0.8046 1.61179,1.91203 0.95653,-0.80667 c 0,0 0.5866,-0.49429 1.37408,-1.07539 z"
       style="baseline-shift:baseline;display:inline;overflow:visible;vector-effect:none;fill:#97aaa2;stroke-linecap:square;paint-order:fill markers stroke;enable-background:accumulate;stop-color:#000000;stop-opacity:1"
       id="path142" /><path
       id="path140"
       style="baseline-shift:baseline;display:inline;overflow:visible;vector-effect:none;fill:#97aaa2;stroke-linecap:square;paint-order:fill markers stroke;enable-background:accumulate;stop-color:#000000;stop-opacity:1"
       d="M 160.10888 121.21809 C 158.5836 121.32711 157.05094 121.58683 155.56446 122.1095 C 154.45228 122.50055 153.35489 123.26502 152.42408 123.9435 C 151.89797 124.32699 151.44026 124.68694 151.14199 124.92742 C 151.25997 124.96212 151.37802 124.99832 151.49597 125.03646 C 151.85729 125.15317 152.19998 125.28463 152.5264 125.42765 C 152.96694 125.62067 153.3774 125.83489 153.7625 126.0612 C 153.8065 126.0288 153.8512 125.99592 153.89634 125.96302 C 154.75022 125.34062 155.85151 124.65941 156.39438 124.46853 C 158.83055 123.61194 161.66188 123.57265 164.47244 123.72646 C 165.88902 123.80396 167.60352 124.76489 169.82818 124.8282 C 171.16648 124.8663 172.83859 124.59997 174.25582 124.33986 C 174.61587 124.27376 174.95764 124.20721 175.26713 124.14452 L 175.26713 122.86863 L 175.26713 121.59171 C 174.86198 121.67731 174.35627 121.77986 173.80469 121.8811 C 172.45554 122.12871 170.80317 122.35379 169.90053 122.3281 C 168.5034 122.2883 166.81067 121.35096 164.60938 121.23049 C 163.15206 121.15073 161.63416 121.10906 160.10888 121.21809 z " /><rect
       style="display:inline;fill:#a4ad71;fill-opacity:1;stroke:#000000;stroke-width:0;stroke-linecap:round;stroke-linejoin:round;stroke-dasharray:none"
       id="rect3-8-7-4-1-8-8-7"
       width="8.3571529"
       height="5.1434388"
       x="173.52806"
       y="93.768684"
       ry="1.1597114"
       transform="rotate(7.4225068)" /><rect
       style="fill:#412c01;fill-opacity:1;stroke:#3f300e;stroke-width:0;stroke-linecap:round;stroke-linejoin:round;stroke-dasharray:none;stroke-opacity:1"
       id="rect6-5"
       width="9.4006205"
       height="7.8069572"
       x="173.00375"
       y="96.100861"
       ry="2.0951669"
       rx="2.1875432"
       transform="rotate(7.4225068)" /><rect
       style="fill:#a48b5b;fill-opacity:1;stroke:#412c01;stroke-width:0.775;stroke-linecap:round;stroke-linejoin:round;stroke-dasharray:none;stroke-opacity:1"
       id="rect6"
       width="8.6427803"
       height="5.3192267"
       x="173.38524"
       y="93.680763"
       ry="0.99051601"
       transform="rotate(7.4225068)" /><rect
       style="fill:#a48b5b;fill-opacity:1;stroke:#594313;stroke-width:0.451;stroke-linecap:round;stroke-linejoin:round;stroke-dasharray:none;stroke-opacity:1"
       id="rect7"
       width="6.442184"
       height="3.7136519"
       x="174.50612"
       y="94.473114"
       ry="1.2526499"
       rx="1.7569258"
       transform="rotate(7.4225068)" /><rect
       style="fill:#a48b5b;fill-opacity:1;stroke:#594313;stroke-width:0.246;stroke-linecap:round;stroke-linejoin:round;stroke-dasharray:none;stroke-opacity:1"
       id="rect8"
       width="4.1330805"
       height="2.3825493"
       x="175.66068"
       y="95.13868"
       ry="1.1196967"
       rx="1.4998627"
       transform="rotate(7.4225068)" /><rect
       style="fill:#a48b5b;fill-opacity:1;stroke:#594313;stroke-width:0.292416;stroke-linecap:round;stroke-linejoin:round;stroke-dasharray:none;stroke-opacity:1"
       id="rect9"
       width="2.2147479"
       height="1.2767105"
       x="176.61983"
       y="95.691589"
       ry="0.59999955"
       rx="0.80371487"
       transform="rotate(7.4225068)" /><g
       id="path127"
       transform="matrix(0.4369658,0.0569265,-0.04040604,0.31015532,21.094444,21.008399)"
       style="stroke-width:2.69359"><path
         style="baseline-shift:baseline;display:inline;overflow:visible;vector-effect:none;fill:#57411a;stroke-width:2.69359;stroke-linecap:square;stroke-linejoin:round;paint-order:fill markers stroke;enable-background:accumulate;stop-color:#000000;stop-opacity:1"
         d="m 344.07944,264.76974 v 9.03875"
         id="path138" /></g><path
       style="display:inline;fill:#49897a;fill-opacity:0;stroke:#cff069;stroke-width:2.07083;stroke-linecap:square;stroke-linejoin:round;stroke-dasharray:none;stroke-opacity:1;paint-order:fill markers stroke"
       d="m 109.14406,125.6772 c 0.13089,-0.85813 0.67178,-1.64438 1.42638,-2.07343 0.75461,-0.42905 1.70688,-0.49177 2.51124,-0.16541 0.30415,0.12341 0.59173,0.30337 0.79811,0.5586 0.20638,0.25523 0.32447,0.59184 0.27421,0.9162 -0.0356,0.22979 -0.15106,0.43958 -0.283,0.63106 -0.13194,0.19148 -0.2824,0.37043 -0.40165,0.57006 -0.20264,0.33923 -0.30987,0.73477 -0.30633,1.1299 0.004,0.39513 0.11787,0.78868 0.32657,1.12422 0.2087,0.33554 0.51116,0.61207 0.864,0.78994 0.35285,0.17788 0.75504,0.25656 1.14891,0.22478"
       id="path1-8-6"
       inkscape:path-effect="#path-effect1-2-4"
       inkscape:original-d="m 109.14406,125.6772 c 1.63629,-1.5424 3.60201,-2.51362 3.93762,-2.23884 0.44184,0.36174 0.7202,1.71698 1.07232,1.4748 0.75665,-0.52041 -1.44303,1.71197 -0.68465,1.20112 1.37938,-0.92917 0.83577,2.25346 2.03315,3.26884"
       sodipodi:nodetypes="csscc"
       transform="matrix(0.0629033,-0.48284348,0.47489335,0.06186758,97.188658,169.80253)" /><path
       style="display:inline;fill:#f0e869;fill-opacity:0;stroke:#412c01;stroke-width:0.611137;stroke-linecap:round;stroke-linejoin:round;stroke-dasharray:none;stroke-opacity:1;paint-order:fill markers stroke"
       d="m 164.06867,125.32659 0.10311,-0.83789"
       id="path3-57-3"
       sodipodi:nodetypes="cc" /><path
       style="display:inline;fill:#f0e869;fill-opacity:0;stroke:#412c01;stroke-width:0.600001;stroke-linecap:round;stroke-linejoin:round;stroke-dasharray:none;stroke-opacity:1;paint-order:fill markers stroke"
       d="m 165.4744,121.6653 0.91504,-0.002"
       id="path3-5-6-6" /><ellipse
       style="fill:#747c47;fill-opacity:1;stroke:#3f321d;stroke-width:0;stroke-linecap:round;stroke-linejoin:round;stroke-dasharray:none;stroke-opacity:1;paint-order:fill markers stroke"
       id="path11-3-5"
       cx="106.92896"
       cy="120.77344"
       rx="0.67197078"
       ry="0.5945273"
       transform="rotate(-1.4188149)" /><rect
       style="fill:#aca64b;fill-opacity:1;stroke:#3f321d;stroke-width:0;stroke-linecap:round;stroke-linejoin:round;stroke-dasharray:none;stroke-opacity:1;paint-order:fill markers stroke"
       id="rect11-9"
       width="5.5455923"
       height="7.8073468"
       x="100.78748"
       y="116.44367"
       rx="1.8353757"
       ry="2.5839288"
       transform="rotate(-1.4188149)" /><rect
       style="fill:#ddc860;fill-opacity:1;stroke:#3f321d;stroke-width:0;stroke-linecap:round;stroke-linejoin:round;stroke-dasharray:none;stroke-opacity:1;paint-order:fill markers stroke"
       id="rect11-1"
       width="8.2481899"
       height="7.8073468"
       x="99.435112"
       y="113.91065"
       rx="2.7298307"
       ry="2.5839288"
       transform="rotate(-1.4188149)" /><rect
       style="fill:#ead466;fill-opacity:1;stroke:#3f321d;stroke-width:0;stroke-linecap:round;stroke-linejoin:round;stroke-dasharray:none;stroke-opacity:1;paint-order:fill markers stroke"
       id="rect11-41"
       width="4.4088407"
       height="4.1732001"
       x="100.82704"
       y="115.13014"
       rx="1.459155"
       ry="1.3811672"
       transform="rotate(-1.4188149)" /><ellipse
       style="fill:#747c47;fill-opacity:1;stroke:#3f321d;stroke-width:0;stroke-linecap:round;stroke-linejoin:round;stroke-dasharray:none;stroke-opacity:1;paint-order:fill markers stroke"
       id="path11-6"
       cx="104.90169"
       cy="116.22778"
       rx="0.59299868"
       ry="0.56130457"
       transform="rotate(-1.4188149)" /><rect
       style="display:inline;fill:#a4ad71;fill-opacity:1;stroke:#000000;stroke-width:0;stroke-linecap:round;stroke-linejoin:round;stroke-dasharray:none"
       id="rect1"
       width="10.149131"
       height="6.2452331"
       x="81.587723"
       y="136.62086"
       ry="1.4081372"
       transform="rotate(-5.7199586)" /><path
       d="m 103.19453,139.34049 0.91312,-0.0915 c 1.46443,-0.14669 2.52998,-1.39335 2.38952,-2.7957 l -0.4377,-4.36976 c -0.14047,-1.40234 -1.43203,-2.41321 -2.89647,-2.26653 l -6.073011,0.60824 c -1.464432,0.14668 -2.530501,1.39386 -2.390035,2.79621 l 0.430982,4.30206 c 2.367987,0.71558 5.087694,1.33611 8.063594,1.81694 z"
       style="fill:#412c01;stroke:#3f300e;stroke-width:0;stroke-linecap:round;stroke-linejoin:round"
       id="path168" /><rect
       style="fill:#a48b5b;fill-opacity:1;stroke:#412c01;stroke-width:0.775;stroke-linecap:round;stroke-linejoin:round;stroke-dasharray:none;stroke-opacity:1"
       id="rect4"
       width="10.496004"
       height="6.4586768"
       x="81.414276"
       y="136.5141"
       ry="1.2026979"
       transform="rotate(-5.7199586)" /><rect
       style="fill:#a48b5b;fill-opacity:1;stroke:#594313;stroke-width:0.451001;stroke-linecap:round;stroke-linejoin:round;stroke-dasharray:none;stroke-opacity:1"
       id="rect5"
       width="7.8235459"
       height="4.5091662"
       x="82.775497"
       y="137.47617"
       ry="1.5209844"
       rx="2.1336539"
       transform="rotate(-5.7199586)" /><rect
       style="fill:#a48b5b;fill-opacity:1;stroke:#594313;stroke-width:0.246;stroke-linecap:round;stroke-linejoin:round;stroke-dasharray:none;stroke-opacity:1"
       id="rect10"
       width="5.0193143"
       height="2.8929236"
       x="84.17762"
       y="138.28432"
       ry="1.3595508"
       rx="1.82147"
       transform="rotate(-5.7199586)" /><rect
       style="fill:#a48b5b;fill-opacity:1;stroke:#594313;stroke-width:0.292417;stroke-linecap:round;stroke-linejoin:round;stroke-dasharray:none;stroke-opacity:1"
       id="rect11"
       width="2.6896441"
       height="1.5501992"
       x="85.342438"
       y="138.95567"
       ry="0.72852755"
       rx="0.97605103"
       transform="rotate(-5.7199586)" /><g
       id="g11"
       transform="matrix(0.53248169,-0.05333608,0.03785101,0.37788619,-95.489737,54.540422)"
       style="stroke-width:2.21819"><path
         style="baseline-shift:baseline;display:inline;overflow:visible;vector-effect:none;fill:#57411a;stroke-width:2.21819;stroke-linecap:square;stroke-linejoin:round;paint-order:fill markers stroke;enable-background:accumulate;stop-color:#000000;stop-opacity:1"
         d="m 344.07944,264.76974 v 9.03875"
         id="path11" /></g><path
       style="baseline-shift:baseline;display:inline;overflow:visible;vector-effect:none;fill:#412c01;fill-opacity:0;stroke-linecap:square;paint-order:fill markers stroke;enable-background:accumulate;stop-color:#000000"
       d="m 138.53909,106.42005 h -1.5042 l -0.80996,1.33065 -0.86782,0.11571"
       id="path76" /><path
       style="baseline-shift:baseline;display:inline;overflow:visible;vector-effect:none;fill:#412c01;fill-opacity:0;stroke-linecap:square;paint-order:fill markers stroke;enable-background:accumulate;stop-color:#000000"
       d="m 136.31171,107.31679 -0.49176,-1.09923 -0.78103,-0.17356"
       id="path78" /><path
       style="baseline-shift:baseline;display:inline;overflow:visible;vector-effect:none;fill:#412c01;fill-opacity:0;stroke-linecap:square;paint-order:fill markers stroke;enable-background:accumulate;stop-color:#000000"
       d="m 138.45231,104.39515 -1.41742,-0.80995 -0.40498,-0.9546 -0.9546,-0.17356"
       id="path58" /><path
       style="baseline-shift:baseline;display:inline;overflow:visible;vector-effect:none;fill:#412c01;fill-opacity:0;stroke-linecap:square;paint-order:fill markers stroke;enable-background:accumulate;stop-color:#000000"
       d="m 168.45274,112.91696 -1.86498,-0.83234 -1.7272,1.17172 -1.13883,-0.33934"
       id="path80" /><path
       style="baseline-shift:baseline;display:inline;overflow:visible;vector-effect:none;fill:#412c01;fill-opacity:0;stroke-linecap:square;paint-order:fill markers stroke;enable-background:accumulate;stop-color:#000000"
       d="m 165.20391,112.77613 -0.0125,-1.6103 -0.87406,-0.64347"
       id="path82" /><path
       style="baseline-shift:baseline;display:inline;overflow:visible;vector-effect:none;fill:#412c01;fill-opacity:0;stroke-linecap:square;paint-order:fill markers stroke;enable-background:accumulate;stop-color:#000000"
       d="m 169.44532,110.40387 -1.31732,-1.77035 0.0165,-1.38621 -1.08926,-0.73951"
       id="path84" /><path
       style="baseline-shift:baseline;display:inline;overflow:visible;vector-effect:none;fill:#412c01;fill-opacity:0;stroke-linecap:square;paint-order:fill markers stroke;enable-background:accumulate;stop-color:#000000"
       d="m 100.64158,106.5112 1.01245,-0.23142 h 1.88026"
       id="path90" /><path
       style="baseline-shift:baseline;display:inline;overflow:visible;vector-effect:none;fill:#412c01;fill-opacity:0;stroke-linecap:square;paint-order:fill markers stroke;enable-background:accumulate;stop-color:#000000"
       d="m 97.025693,102.57711 -1.764553,-2.40095 0.925667,-1.85133 -0.49176,-0.89674"
       id="path60" /><path
       style="baseline-shift:baseline;display:inline;overflow:visible;vector-effect:none;fill:#412c01;fill-opacity:0;stroke-linecap:square;paint-order:fill markers stroke;enable-background:accumulate;stop-color:#000000"
       d="m 108.50975,105.35411 1.35957,-1.18601 -0.28927,-1.44635 1.01245,-0.9546"
       id="path62" /><path
       style="baseline-shift:baseline;display:inline;overflow:visible;vector-effect:none;fill:#412c01;fill-opacity:0;stroke-linecap:square;paint-order:fill markers stroke;enable-background:accumulate;stop-color:#000000"
       d="m 105.15421,105.38304 -1.82241,-1.0703 -1.12816,0.40498"
       id="path64" /><path
       style="baseline-shift:baseline;display:inline;overflow:visible;vector-effect:none;fill:#412c01;fill-opacity:0;stroke-linecap:square;paint-order:fill markers stroke;enable-background:accumulate;stop-color:#000000"
       d="m 121.55232,101.56857 -1.63191,-1.45542 0.34722,-1.774914 -1.21526,-1.171449"
       id="path66" /><path
       style="baseline-shift:baseline;display:inline;overflow:visible;vector-effect:none;fill:#412c01;fill-opacity:0;stroke-linecap:square;paint-order:fill markers stroke;enable-background:accumulate;stop-color:#000000"
       d="m 125.58002,101.60407 2.18746,-1.31343 1.35414,0.49698"
       id="path68" /><path
       style="baseline-shift:baseline;display:inline;overflow:visible;vector-effect:none;fill:#412c01;fill-opacity:0;stroke-linecap:square;paint-order:fill markers stroke;enable-background:accumulate;stop-color:#000000"
       d="m 116.1465,103.90776 1.47529,-0.0289 0.80995,-1.41742"
       id="path70" /><path
       style="baseline-shift:baseline;display:inline;overflow:visible;vector-effect:none;fill:#412c01;fill-opacity:0;stroke-linecap:square;paint-order:fill markers stroke;enable-background:accumulate;stop-color:#000000"
       d="m 118.02677,103.0978 -1.64885,-1.44635"
       id="path72" /><path
       style="baseline-shift:baseline;display:inline;overflow:visible;vector-effect:none;fill:#412c01;fill-opacity:0;stroke-linecap:square;paint-order:fill markers stroke;enable-background:accumulate;stop-color:#000000"
       d="m 116.32007,107.5815 1.90918,-0.23142 0.34713,1.12816 1.41743,0.34713"
       id="path86" /><path
       style="baseline-shift:baseline;display:inline;overflow:visible;vector-effect:none;fill:#412c01;fill-opacity:0;stroke-linecap:square;paint-order:fill markers stroke;enable-background:accumulate;stop-color:#000000"
       d="m 118.74994,108.56502 -0.66532,1.15709"
       id="path88" /><path
       id="rect39"
       style="fill:#4a4016;fill-opacity:1;stroke:#97aaa2;stroke-width:0;stroke-linecap:square;paint-order:fill markers stroke"
       d="m 99.387471,102.14381 -4.45e-4,5.8e-4 -5.17e-4,6e-5 6.2e-5,5.1e-4 -5.17e-4,6e-5 -5.16e-4,7e-5 -2.459055,2.12092 c -0.0053,-0.003 -0.0093,-0.006 -0.01214,-0.006 -2.35e-4,1e-5 -0.0013,1.5e-4 -0.0015,1.9e-4 l -5.14e-4,6e-5 -5.12e-4,6e-5 6.1e-5,5.1e-4 -5.13e-4,6e-5 -1.987646,1.6029 -0.268085,-2.25947 c -0.04313,-0.36348 -1.228437,-0.51982 -2.657553,-0.35026 -1.429116,0.16956 -2.544933,0.59893 -2.501806,0.96241 l 0.329519,2.77725 -0.702523,0.0834 -0.578164,-0.18432 -0.759473,-0.9668 -1.065713,-0.0172 -0.400321,-0.006 -0.01129,0.79961 0.400321,0.006 0.683598,0.0115 0.09443,0.12045 -0.107529,0.34372 -0.536401,0.68082 -0.295757,0.10379 -0.188409,0.0656 0.131215,0.37784 0.188679,-0.0677 0.849879,-0.29754 0.258091,-0.82474 0.588535,0.74979 1.54514,-0.18333 0.14966,1.26136 -0.08082,0.0601 -1.406807,1.04221 -0.268147,0.91543 -0.01831,0.0168 -0.73046,0.22509 -0.33594,0.10283 0.206705,0.66759 0.334401,-0.10264 1.108199,-0.33965 0.308364,-1.06331 0.977854,-0.72332 0.992942,8.3687 c 0.04313,0.36348 1.228376,0.51931 2.657492,0.34974 1.429117,-0.16956 2.544994,-0.59841 2.501867,-0.96189 l -1.154352,-9.7291 2.777925,-2.24047 2.899605,-0.4299 5.1e-4,-6e-5 5.1e-4,-6e-5 5.2e-4,-6e-5 5.1e-4,-6e-5 c 2e-4,-1.2e-4 10e-4,-10e-4 10e-4,-10e-4 0.0233,-0.0208 0.0161,-0.21094 -0.0179,-0.44021 l -0.007,-0.0455 c -0.034,-0.22926 -0.0816,-0.413 -0.10989,-0.42617 -2.3e-4,-8e-5 -0.001,-2.7e-4 -0.002,-3.2e-4 l -5.1e-4,6e-5 c -1e-4,-10e-6 -7.3e-4,-3.2e-4 -0.001,-4e-4 l -5.1e-4,6e-5 -5.1e-4,6e-5 -2.894471,0.4293 2.178654,-1.879 4.55e-4,-5.7e-4 5.07e-4,-6e-5 c 1.19e-4,-1.9e-4 7.44e-4,-10e-4 8.5e-4,-0.002 l 4.46e-4,-5.6e-4 c 0.0085,-0.0301 -0.09924,-0.18661 -0.250602,-0.36213 l -0.03016,-0.0349 c -0.151363,-0.17551 -0.289943,-0.30523 -0.320915,-0.30121 -2.35e-4,5e-5 -0.0013,1.1e-4 -0.0015,1.8e-4 z" /><path
       id="path42-5"
       style="display:inline;fill:#4d4417;fill-opacity:1;stroke:#97aaa2;stroke-width:0;stroke-linecap:square;paint-order:fill markers stroke"
       d="m 119.03904,94.260416 -0.6935,0.820154 0.35967,0.395673 1.01957,1.117644 -0.34985,2.033042 1.23765,1.255807 v 16.986304 c 0,0.45061 1.25343,0.81309 2.81069,0.81309 1.55723,0 2.81119,-0.36248 2.81119,-0.81309 v -12.06126 l 3.2706,-2.33583 3.17035,-0.10523 c 2.4e-4,-3e-5 9.2e-4,2e-5 0.001,0 h 5.1e-4 5.2e-4 5.2e-4 l 5.1e-4,-6e-4 h 5.2e-4 5.2e-4 l 5.1e-4,-5.8e-4 h 5.2e-4 c 0.0277,-0.0221 0.0444,-0.25509 0.0372,-0.5403 l -0.003,-0.057 c -0.008,-0.28521 -0.0353,-0.51655 -0.0641,-0.53677 l -5.2e-4,-5.9e-4 h -5.1e-4 -5.2e-4 c -3.3e-4,2e-5 -5.3e-4,2e-5 -0.001,0 h -5.2e-4 -5.2e-4 l -5.1e-4,-5.8e-4 h -5.2e-4 -5.2e-4 c -3.3e-4,1e-5 -5.3e-4,0 -0.001,0 h -5.2e-4 l -3.16518,0.10467 2.58072,-1.98072 5.2e-4,-5.91e-4 h 5.1e-4 l 5.2e-4,-5.8e-4 v -5.92e-4 l 5.2e-4,-5.92e-4 v -5.8e-4 -5.92e-4 -5.91e-4 l 5.1e-4,-5.8e-4 c 0.0132,-0.03538 -0.083,-0.242649 -0.22324,-0.479166 l -0.0279,-0.04699 c -0.14027,-0.236517 -0.27265,-0.414909 -0.30644,-0.414488 -2.6e-4,2.3e-5 -0.001,-6.8e-5 -0.003,0 l 0.005,0.0011 -5.2e-4,5.8e-4 c -1.2e-4,5.7e-5 -8e-4,4.66e-4 -0.001,5.91e-4 h -5.2e-4 l -2.913,2.236461 c -0.004,-0.003 -0.007,-0.007 -0.01,-0.009 h -5.2e-4 l -5.1e-4,-5.9e-4 h -5.2e-4 -5.2e-4 c -2.6e-4,-4e-5 -5.8e-4,-1e-5 -0.003,0 h -0.001 -5.2e-4 v 5.9e-4 h -5.2e-4 l -2.33991,1.67147 v -1.97896 l 1.58595,-1.084718 1.12862,0.473865 0.4687,0.195195 0.34572,-1.068848 -0.47026,-0.195184 -1.5782,-0.660243 -1.72909,1.181731 c -0.44035,-0.282161 -1.41987,-0.477402 -2.56263,-0.477402 -0.88307,0 -1.66823,0.116591 -2.18282,0.299841 l -0.77566,-0.786641 0.34572,-2.004233 -1.41232,-1.548592 z" /><path
       id="path91"
       style="fill:#6e9f93;stroke:#412c01;stroke-width:0;stroke-linecap:square;stroke-opacity:0.819608;paint-order:fill markers stroke;fill-opacity:1"
       d="m 126.70472,84.411031 c -3.64532,2.1e-5 -6.2137,0.998648 -9.35033,1.099157 -1.82167,0.05837 -3.55957,-0.289286 -5.46014,-0.289388 -6.55023,-1.7e-5 -11.86027,1.152641 -11.86025,2.57452 -2e-5,1.421879 5.31002,2.574537 11.86025,2.57452 2.98423,8.6e-5 5.35748,-0.671009 8.05067,-0.683679 2.25965,-0.01063 4.34571,0.510127 6.7598,0.510046 6.58239,2.2e-5 11.91844,-1.295178 11.91813,-2.892846 -8.6e-4,-1.597467 -5.33657,-2.892352 -11.91813,-2.89233 z"
       sodipodi:nodetypes="cacccaccc" /><path
       d="m 175.26713,92.69993 c -1.42672,-0.665828 -4.12794,-1.115152 -7.2254,-1.115177 -10.02366,-0.08744 -2.97738,-1.562207 -16.83566,-1.562178 -5.09696,-1.5e-5 -9.22867,0.945625 -9.22786,2.112015 4.3e-4,1.166188 4.13178,2.111514 9.22786,2.111499 5.38077,-0.08668 5.26997,1.24539 7.95507,1.532723 2.9442,0.31506 5.92233,0.164575 8.88059,0.203089 3.0975,-2.5e-5 5.79869,-0.449358 7.2254,-1.115178 z"
       style="fill:#6e9f93;stroke:#412c01;stroke-width:0;stroke-linecap:square;stroke-opacity:0.819608;paint-order:fill markers stroke"
       id="path97" /><rect
       style="fill:#aca64b;fill-opacity:1;stroke:#3f321d;stroke-width:0;stroke-linecap:round;stroke-linejoin:round;stroke-dasharray:none;stroke-opacity:1;paint-order:fill markers stroke"
       id="rect11-9-1"
       width="2.5172915"
       height="9.4321728"
       x="118.57355"
       y="114.85939"
       rx="0.83312577"
       ry="1.1810102"
       transform="rotate(0.11978902)"
       inkscape:transform-center-x="1.2418544"
       inkscape:transform-center-y="-0.044568698" /><rect
       style="fill:#d1d25b;fill-opacity:1;stroke:#3f321d;stroke-width:0;stroke-linecap:round;stroke-linejoin:round;stroke-dasharray:none;stroke-opacity:1;paint-order:fill markers stroke"
       id="rect11-5"
       width="4.302218"
       height="4.0722756"
       x="117.64391"
       y="114.3131"
       rx="1.4238672"
       ry="1.3477653"
       transform="rotate(0.11978902)"
       inkscape:transform-center-x="1.2722801"
       inkscape:transform-center-y="-3.2708757" /><rect
       style="fill:#e5e664;fill-opacity:1;stroke:#3f321d;stroke-width:0;stroke-linecap:round;stroke-linejoin:round;stroke-dasharray:none;stroke-opacity:1;paint-order:fill markers stroke"
       id="rect11-5-7"
       width="1.6835665"
       height="1.5935843"
       x="118.67083"
       y="115.28147"
       rx="0.55719519"
       ry="0.52741462"
       transform="rotate(0.11978902)"
       inkscape:transform-center-x="1.5541117"
       inkscape:transform-center-y="-3.5424427" /></g></svg>
