<?xml version="1.0" encoding="UTF-8" standalone="no"?>
<!-- Created with Inkscape (http://www.inkscape.org/) -->

<svg
   width="2080"
   height="80"
   viewBox="0 0 550.33332 21.166666"
   version="1.1"
   id="svg1"
   inkscape:version="1.4.2 (f4327f4, 2025-05-13)"
   sodipodi:docname="Laser.svg"
   xmlns:inkscape="http://www.inkscape.org/namespaces/inkscape"
   xmlns:sodipodi="http://sodipodi.sourceforge.net/DTD/sodipodi-0.dtd"
   xmlns="http://www.w3.org/2000/svg"
   xmlns:svg="http://www.w3.org/2000/svg">
  <sodipodi:namedview
     id="namedview1"
     pagecolor="#ffffff"
     bordercolor="#000000"
     borderopacity="0.25"
     inkscape:showpageshadow="2"
     inkscape:pageopacity="0.0"
     inkscape:pagecheckerboard="0"
     inkscape:deskcolor="#d1d1d1"
     inkscape:document-units="mm"
     inkscape:zoom="1.1370204"
     inkscape:cx="708.87033"
     inkscape:cy="245.81794"
     inkscape:window-width="3840"
     inkscape:window-height="2054"
     inkscape:window-x="-11"
     inkscape:window-y="-11"
     inkscape:window-maximized="1"
     inkscape:current-layer="layer1" />
  <defs
     id="defs1" />
  <g
     inkscape:label="Ebene 1"
     inkscape:groupmode="layer"
     id="layer1"
     transform="translate(-0.81536782,-1.705737)">
    <rect
       style="fill:#ffdbf6;fill-opacity:1;stroke:#e35454;stroke-width:0;stroke-linecap:round;stroke-linejoin:round;stroke-opacity:0.79299;stroke-dasharray:none"
       id="rect1"
       width="547.52356"
       height="20.678968"
       x="1.3030648"
       y="2.193434"
       ry="2.8565085" />
    <path
       style="fill:#ffdbf6;fill-opacity:0;stroke:#b41d9d;stroke-width:0.7;stroke-linecap:round;stroke-linejoin:round;stroke-dasharray:none;stroke-opacity:1"
       d="m 12.086559,13.0592 c 0,0 6.252631,-6.7462614 18.428807,-5.1008314 12.176178,1.645429 23.118283,6.4994464 23.118283,6.4994464 0,0 5.265375,3.702215 16.783381,-0.987257"
       id="path1" />
    <path
       style="fill:#ffdbf6;fill-opacity:0;stroke:#b41d9d;stroke-width:0.7;stroke-linecap:round;stroke-linejoin:round;stroke-dasharray:none;stroke-opacity:1"
       d="m 81.688221,14.786901 c 0,0 6.252631,-6.7462616 18.428809,-5.1008316 12.17618,1.6454286 23.11828,6.4994466 23.11828,6.4994466 0,0 5.26538,3.702215 16.78338,-0.987257"
       id="path2" />
    <path
       style="fill:#ffdbf6;fill-opacity:0;stroke:#b41d9d;stroke-width:0.7;stroke-linecap:round;stroke-linejoin:round;stroke-dasharray:none;stroke-opacity:1"
       d="m 147.99902,12.4833 c 0,0 6.25264,-6.7462617 18.42881,-5.1008317 12.17618,1.6454286 23.11828,6.4994467 23.11828,6.4994467 0,0 5.26538,3.702215 16.78338,-0.987257"
       id="path3" />
    <path
       style="fill:#ffdbf6;fill-opacity:0;stroke:#b41d9d;stroke-width:0.7;stroke-linecap:round;stroke-linejoin:round;stroke-dasharray:none;stroke-opacity:1"
       d="m 217.65156,11.877712 c 0,0 6.25264,-6.7462614 18.42881,-5.1008314 12.17618,1.6454286 23.11828,6.4994464 23.11828,6.4994464 0,0 5.26538,3.702215 16.78338,-0.987257"
       id="path4" />
    <path
       style="fill:#ffdbf6;fill-opacity:0;stroke:#b41d9d;stroke-width:0.7;stroke-linecap:round;stroke-linejoin:round;stroke-dasharray:none;stroke-opacity:1"
       d="m 282.89283,13.194055 c 0,0 6.25264,-6.7462609 18.42881,-5.1008309 12.17618,1.6454286 23.11828,6.4994459 23.11828,6.4994459 0,0 5.26538,3.702215 16.78338,-0.987257"
       id="path5" />
    <path
       style="fill:#ffdbf6;fill-opacity:0;stroke:#b41d9d;stroke-width:0.7;stroke-linecap:round;stroke-linejoin:round;stroke-dasharray:none;stroke-opacity:1"
       d="m 349.86181,13.111784 c 0,0 6.25264,-6.7462614 18.42881,-5.1008314 12.17618,1.6454286 23.11828,6.4994464 23.11828,6.4994464 0,0 5.26538,3.702215 16.78338,-0.987257"
       id="path6" />
    <path
       style="fill:#ffdbf6;fill-opacity:0;stroke:#b41d9d;stroke-width:0.7;stroke-linecap:round;stroke-linejoin:round;stroke-dasharray:none;stroke-opacity:1"
       d="m 422.91887,13.523141 c 0,0 6.25264,-6.7462611 18.42881,-5.1008311 12.17618,1.6454291 23.11828,6.4994461 23.11828,6.4994461 0,0 5.26538,3.702215 16.78338,-0.987257"
       id="path7" />
    <path
       style="fill:#ffdbf6;fill-opacity:0;stroke:#b41d9d;stroke-width:0.7;stroke-linecap:round;stroke-linejoin:round;stroke-dasharray:none;stroke-opacity:1"
       d="m 487.9956,14.01677 c 0,0 6.25264,-6.7462613 18.42881,-5.1008313 12.17618,1.6454293 23.11828,6.4994463 23.11828,6.4994463 0,0 5.26538,3.702215 16.78338,-0.987257"
       id="path8" />
  </g>
</svg>
