<?xml version="1.0" encoding="UTF-8" standalone="no"?>
<!-- Created with Inkscape (http://www.inkscape.org/) -->

<svg
   width="100"
   height="100"
   viewBox="0 0 26.458332 26.458332"
   version="1.1"
   id="svg1"
   inkscape:version="1.4.2 (f4327f4, 2025-05-13)"
   sodipodi:docname="WarningShape.svg"
   xmlns:inkscape="http://www.inkscape.org/namespaces/inkscape"
   xmlns:sodipodi="http://sodipodi.sourceforge.net/DTD/sodipodi-0.dtd"
   xmlns="http://www.w3.org/2000/svg"
   xmlns:svg="http://www.w3.org/2000/svg">
  <sodipodi:namedview
     id="namedview1"
     pagecolor="#ffffff"
     bordercolor="#000000"
     borderopacity="0.25"
     inkscape:showpageshadow="2"
     inkscape:pageopacity="0.0"
     inkscape:pagecheckerboard="0"
     inkscape:deskcolor="#d1d1d1"
     inkscape:document-units="mm"
     showgrid="true"
     inkscape:zoom="9.0961629"
     inkscape:cx="35.069733"
     inkscape:cy="41.501016"
     inkscape:window-width="3840"
     inkscape:window-height="2054"
     inkscape:window-x="-11"
     inkscape:window-y="-11"
     inkscape:window-maximized="1"
     inkscape:current-layer="svg1">
    <inkscape:grid
       id="grid1"
       units="px"
       originx="-79.389809"
       originy="-206.07269"
       spacingx="21.166666"
       spacingy="21.166666"
       empcolor="#0099e5"
       empopacity="0.30196078"
       color="#0099e5"
       opacity="0.14901961"
       empspacing="5"
       enabled="true"
       visible="true" />
  </sodipodi:namedview>
  <defs
     id="defs1" />
  <g
     inkscape:groupmode="layer"
     id="layer4"
     inkscape:label="Floor 5"
     style="fill:#dee6e7;fill-opacity:1"
     transform="translate(-79.389814,-206.07268)" />
  <g
     inkscape:groupmode="layer"
     id="g22"
     inkscape:label="Floor 3"
     style="fill:#9ba2cc;fill-opacity:1;stroke-width:0;stroke-dasharray:none"
     transform="translate(-79.389814,-206.07268)" />
  <g
     inkscape:groupmode="layer"
     id="g23"
     inkscape:label="Floor 2"
     style="fill:#adcbd3;fill-opacity:1;stroke-width:0;stroke-dasharray:none"
     transform="translate(-79.389814,-206.07268)" />
  <g
     inkscape:groupmode="layer"
     id="layer3"
     inkscape:label="Floor 1"
     style="fill:#9ba2cc;fill-opacity:1;stroke-width:0;stroke-dasharray:none"
     transform="translate(-79.389814,-206.07268)" />
  <g
     inkscape:groupmode="layer"
     id="layer7-5"
     inkscape:label="Floor 6 Pattern"
     style="opacity:0.3;fill:#ffffff;fill-opacity:1"
     transform="translate(-15.860726,-354.29168)" />
  <g
     inkscape:groupmode="layer"
     id="layer7-5-4"
     inkscape:label="Floor 3 Pattern"
     style="display:inline;opacity:0.3;fill:#ffffff;fill-opacity:1"
     transform="translate(111.11019,-206.09845)" />
  <g
     inkscape:groupmode="layer"
     id="layer7"
     inkscape:label="Floor 2 Pattern"
     style="opacity:0.3;fill:#ffffff;fill-opacity:1"
     transform="translate(-79.389814,-206.07268)" />
  <g
     inkscape:groupmode="layer"
     id="layer6"
     inkscape:label="Floor 1 Pattern"
     transform="translate(-79.389814,-206.07268)" />
  <g
     inkscape:groupmode="layer"
     id="g24"
     inkscape:label="Floor 5 Pattern"
     style="display:inline;fill:#9ba2cc;fill-opacity:1;stroke-width:0;stroke-dasharray:none"
     transform="translate(-79.389814,-206.07268)" />
  <g
     inkscape:groupmode="layer"
     id="layer2"
     inkscape:label="Room Wall"
     style="stroke-width:3.8;stroke-dasharray:none"
     transform="translate(-79.389814,-206.07268)" />
  <g
     inkscape:label="House Wall"
     inkscape:groupmode="layer"
     id="layer1"
     transform="translate(-79.389814,-206.07268)" />
  <path
     id="path2"
     style="opacity:1;fill:#7264be;stroke:#3f7491;stroke-width:0;stroke-linecap:round;paint-order:fill markers stroke"
     d="m 2.1252574,11.3932 c -0.1876545,0.804063 -0.2326899,1.116686 -0.2526146,1.732656 -0.045328,1.401232 0.2774719,2.773312 0.9619761,4.128357 0.101724,0.20137 0.2501087,0.466071 0.3809173,0.689162 0.065404,0.111544 0.1258061,0.210924 0.175882,0.289135 0.025037,0.03911 0.046404,0.07186 0.071174,0.105684 0.01238,0.01691 0.024086,0.03311 0.049192,0.06059 0.00383,0.0042 0.014441,0.01287 0.019178,0.0178 0.012746,0.01681 0.034298,0.04645 0.061791,0.08517 0.057696,0.08128 0.1377359,0.197756 0.2239034,0.326134 0.3852558,0.573976 0.4925371,0.715596 0.9692239,1.281686 0.3834842,0.455407 1.2388246,1.381227 1.5983733,1.723819 1.6447005,1.567138 3.7372172,2.356869 6.1085872,2.319888 2.701109,-0.04212 5.437387,-1.25108 7.040475,-3.14988 C 20.462514,19.9028 21.32765,18.172979 21.78137,16.552124 22.7902,12.948204 22.047511,9.4258726 19.708595,6.8990587 18.876546,6.0001625 18.00118,5.3988236 16.828041,4.9158898 14.666989,4.0262729 12.563982,4.0135703 10.962749,4.974631 10.410129,5.3063135 9.9914827,5.6819175 9.519572,6.2618872 8.2046409,7.8779165 7.2544231,9.4664548 6.689695,11.015798 6.5068986,11.517307 6.3054937,12.36824 6.2599481,12.865459 c -0.096319,1.051076 0.045164,2.018303 0.4387507,2.89136 0.2176152,0.482721 0.6076193,1.046387 1.0002531,1.45965 0.7730433,0.813656 1.9231676,1.539832 3.1375071,2.006337 0.413109,0.158697 1.148839,0.348941 1.586439,0.408469 2.097417,0.285297 3.911601,-0.456055 5.049328,-2.091798 0.299477,-0.430567 0.682172,-1.181823 0.910831,-1.765982 0.589975,-1.507218 0.579347,-2.903022 -0.07868,-4.137599 C 17.684984,10.473749 16.505929,9.3889446 15.315547,8.8979434 14.941614,8.743734 14.444227,8.6250418 14.052883,8.6048487 12.865236,8.5435181 11.736894,9.062027 10.947831,10.011598 c -0.400796,0.482326 -0.672156,0.997079 -0.836321,1.592604 -0.4551625,1.65114 -0.0086,3.462373 1.216779,4.321764 0.08061,0.05654 0.173308,0.119294 0.287752,0.162765 0.114446,0.04347 0.21364,0.06383 0.388733,0.104656 0.310427,0.0724 0.482331,0.09439 0.677684,0.08697 0.920301,-0.03501 1.729414,-0.465303 2.246485,-1.206854 0.219006,-0.314081 0.361284,-0.637639 0.477688,-1.068111 l 1.88e-4,-8.08e-4 0.09285,-0.344842 c 0.03319,-0.123251 0.01366,-0.254745 -0.05372,-0.363133 l -0.07637,-0.122719 c -0.242262,-0.389288 -0.628105,-0.628711 -1.088189,-0.65976 -0.47452,-0.03203 -0.91445,0.207825 -1.221904,0.580042 -0.05535,0.06701 -0.09197,0.09839 -0.147961,0.206251 -0.0088,0.01674 -0.0091,0.06213 -0.01852,0.08648 -0.06711,0.05612 -0.199169,0.131085 -0.283435,0.151398 -0.263268,0.06342 -0.448049,0.01116 -0.575965,-0.08745 -0.127911,-0.09861 -0.218529,-0.254577 -0.21831,-0.514721 1.12e-4,-0.131634 0.163638,-0.771451 0.340241,-1.110937 0.523096,-1.005203 1.331058,-1.476529 2.349442,-1.409419 0.223609,0.01472 0.571127,0.11407 0.723925,0.196008 0.652873,0.35015 1.18789,1.32898 1.216493,2.512744 0.0123,0.504332 -0.11327,1.210749 -0.284296,1.636164 -0.141554,0.352038 -0.457727,0.860489 -0.694262,1.121801 -1.155762,1.276835 -2.727364,1.524878 -4.216003,0.665898 C 10.411281,16.063926 9.5025192,15.11393 9.0464011,14.240388 8.2686442,12.750851 8.42334,11.284316 9.6613007,9.2664946 10.067555,8.6043187 10.443247,8.178775 10.942608,7.8016352 c 0.89243,-0.6740003 2.019926,-0.9633917 3.294038,-0.8197327 0.263911,0.029753 1.045716,0.2065509 1.321823,0.3001442 0.546338,0.1853521 1.143185,0.4686271 1.677188,0.7985448 1.46794,0.9069192 2.368144,1.9730205 2.739672,3.1571695 0.668271,2.12996 -0.175454,4.743941 -2.69504,7.759414 -0.87711,1.049793 -1.311776,1.455721 -1.855799,1.771776 -0.925308,0.537564 -1.88831,0.720729 -3.175381,0.578346 -0.237728,-0.0263 -1.170084,-0.246187 -1.502864,-0.363193 C 9.5331166,20.557565 8.4442784,19.891453 7.7144393,19.149789 5.8552532,17.260479 4.9596399,14.710932 5.199044,11.959693 5.2480889,11.396057 5.2942699,11.113875 5.4528432,10.433027 5.6508845,9.5827218 5.822909,9.0667135 6.167785,8.2849698 6.6845602,7.113579 7.574411,5.7408045 8.2148535,5.0869846 9.5486034,3.7253782 11.605047,2.7899487 13.766987,2.5883763 c 1.009386,-0.094111 1.892875,-0.038558 2.853994,0.1796876 0.216938,0.049266 0.3024,0.073138 0.41504,0.088241 0.02816,0.00382 0.01842,0.034925 0.194451,-0.00887 0.02201,-0.0055 0.214368,0.7004006 0.69857,0.7949009 C 19.88832,4.0247239 18.283398,2.1125706 15.544043,1.3229932 14.901282,1.137723 14.505228,1.0921155 13.947726,1.0571432 10.954834,0.86941159 7.8961854,2.349778 5.4837597,5.0733315 4.4591846,6.2300453 3.3540892,8.0233129 2.7151495,9.5533378 2.4110528,10.281533 2.315814,10.576874 2.1252574,11.3932 Z m 1.4697443,7.077427 c 0.00888,0.0066 0.022031,0.01381 0.034979,0.02147 -0.010832,-0.006 -0.01915,-0.0095 -0.024416,-0.01319 -0.00625,-0.0042 -0.00567,-0.0047 -0.010566,-0.0084 z m 0.077251,0.04381 c 0.016387,0.0066 0.027639,0.01053 0.042955,0.01584 -0.015925,-0.0052 -0.032678,-0.01002 -0.032626,-0.01002 3.12e-5,1.2e-5 -0.00838,-0.0047 -0.010312,-0.0057 z m 0.076983,0.02708 c 0.012024,0.0013 0.1338178,0.0146 0.1340345,0.0146 8.01e-5,-4e-6 -0.1248345,-0.01167 -0.1247394,-0.01167 1.23e-5,2e-6 -0.00729,-0.0024 -0.0093,-0.003 z"
     sodipodi:nodetypes="csssssccsssssssssssscssscsssccsscscssccccsssscssssscsssssssssssssscssssssssssscsscccccccccccsscc" />
  <path
     style="opacity:1;fill:#4546a2;fill-opacity:1;stroke:#3f7491;stroke-width:0;stroke-linecap:round;stroke-dasharray:none;stroke-opacity:1;paint-order:fill markers stroke"
     d="m 24.122939,15.592649 c -0.6059,1.756578 -1.672326,3.493006 -3.49282,5.68725 -3.263888,3.933964 -6.403723,5.188111 -9.635023,3.848522 C 10.203919,24.800426 9.3978559,24.304486 8.5769769,23.640645 8.1916029,23.328996 7.6640165,22.858864 7.685,22.845806 c 0.00629,-0.0039 0.051889,0.01882 0.1013093,0.05053 0.3502628,0.224756 1.0087297,0.541148 1.5264202,0.73344 0.4654111,0.172872 1.4816575,0.40286 2.0039795,0.453519 0.723339,0.07017 1.347048,0.06808 2.052557,-0.0068 2.197264,-0.233363 4.335994,-1.22304 5.770603,-2.670291 0.435578,-0.439419 0.737881,-0.8337 1.134593,-1.479797 1.277161,-2.08003 1.951793,-4.410265 1.923551,-6.644121 C 22.174564,11.427204 21.69221,9.7724275 20.737205,8.2707545 19.973229,7.0694562 19.03188,6.1243374 17.990238,5.5127869 16.680051,4.743573 15.126484,4.2880418 13.760476,4.2725508 13.152345,4.2656572 12.435972,4.375208 11.897495,4.5574488 11.188372,4.7974433 10.536819,5.2085902 9.9786492,5.7682935 9.5192898,6.2289146 8.5937952,7.4623836 8.0254096,8.3715082 7.4454038,9.2992195 7.0464228,10.102527 6.7157891,11.008295 6.5731695,11.399 6.3278515,12.421035 6.2895149,12.784223 6.0944552,14.632142 6.626933,16.15266 7.9044061,17.39563 c 0.7213792,0.701895 1.8039954,1.367567 2.9423969,1.809199 0.381836,0.148131 1.532563,0.41771 1.905962,0.446526 1.266958,0.09772 2.312551,-0.132419 3.244157,-0.714034 0.896759,-0.559864 1.489376,-1.280034 2.088081,-2.537523 0.660603,-1.387492 0.858488,-2.576648 0.610566,-3.669104 C 18.45351,11.664071 17.754266,10.633271 16.674052,9.7506504 15.115105,8.4768646 13.39135,8.2674738 11.938871,9.1754463 c -0.414192,0.2589164 -0.664984,0.477083 -0.968654,0.8426447 -0.431596,0.519558 -0.669317,0.978511 -0.839668,1.621091 -0.1628438,0.614254 -0.2032247,1.115463 -0.1390325,1.7256 0.1081535,1.027986 0.5527265,1.92172 1.2154835,2.443511 0.262166,0.206407 0.440077,0.290464 0.789074,0.37282 0.463334,0.109362 0.912374,0.103236 1.360216,-0.01846 1.050489,-0.285473 1.772577,-1.079494 2.059591,-2.264764 0.07531,-0.310982 0.07727,-0.330405 0.04698,-0.462017 -0.04382,-0.19036 -0.20131,-0.415337 -0.403552,-0.576511 -0.209934,-0.167299 -0.347144,-0.234536 -0.593216,-0.290678 -0.531569,-0.121337 -1.004612,0.06703 -1.412292,0.562224 -0.07486,0.09093 -0.143219,0.19589 -0.151915,0.233252 -0.03493,0.150047 -0.397818,0.261219 -0.660433,0.202315 -0.293242,-0.06585 -0.446099,-0.286901 -0.447079,-0.646812 -4.41e-4,-0.162152 0.133975,-0.657261 0.246022,-0.906197 0.116157,-0.258061 0.291652,-0.544416 0.456904,-0.74552 0.471824,-0.574188 1.14753,-0.889661 1.889977,-0.882395 0.236705,0.0023 0.684706,0.108471 0.845142,0.200294 0.63393,0.362699 1.096252,1.183453 1.209751,2.147657 0.03104,0.263704 0.03092,0.685792 -2.6e-4,0.964766 -0.03766,0.336936 -0.212095,0.990324 -0.331914,1.243262 -0.227832,0.480989 -0.623756,0.99861 -1.012422,1.323608 -0.832623,0.696234 -1.814199,0.944019 -2.817859,0.71133 C 12.102358,16.935337 11.880112,16.87056 11.785838,16.83251 10.841957,16.451471 9.909673,15.637341 9.2561301,14.623414 8.9326185,14.121507 8.7569302,13.717748 8.6489628,13.228049 8.3991855,12.095156 8.6735364,10.910238 9.5218007,9.4582407 10.046532,8.5600502 10.548143,8.0098366 11.231841,7.5825091 c 1.476954,-0.9231339 3.428678,-0.873704 5.406207,0.1369201 0.953652,0.4873672 1.853191,1.1748912 2.414822,1.8456692 0.915043,1.0928696 1.279166,2.3043686 1.133225,3.7704366 -0.0367,0.368645 -0.248344,1.223167 -0.406184,1.639967 -0.568238,1.500599 -1.533098,2.98973 -3.002647,4.634211 -0.541063,0.60547 -0.842923,0.870247 -1.325257,1.162448 -1.607258,0.973694 -3.849126,0.833213 -6.0867676,-0.381408 C 8.3527718,19.841172 7.589767,19.164029 6.8568282,18.164614 4.9464337,15.559651 4.6126563,12.132205 5.941496,8.7653857 6.4971597,7.3575266 7.4604533,5.8053794 8.2866073,4.9867268 8.8784478,4.400261 9.6684781,3.85848 10.537169,3.4433553 c 0.620666,-0.2966 1.571324,-0.6064314 2.259227,-0.7363092 1.373095,-0.2592452 2.617885,-0.2440228 3.872415,0.047354 0.863113,0.2004627 1.592881,0.4957254 2.31356,0.9360481 0.715196,0.4369749 0.997876,0.6788972 1.856816,1.5891017 1.071621,1.1355732 2.261321,2.8365593 2.852758,4.0787542 0.713257,1.4980549 0.975537,2.8727249 0.837721,4.3907009 -0.03337,0.367607 -0.274324,1.459795 -0.406739,1.843668 z"
     id="path3" />
</svg>
