<?xml version="1.0" encoding="UTF-8" standalone="no"?>
<!-- Created with Inkscape (http://www.inkscape.org/) -->

<svg
   width="100.83347"
   height="100.83347"
   viewBox="0 0 26.678854 26.678854"
   version="1.1"
   id="svg1"
   inkscape:version="1.4.2 (f4327f4, 2025-05-13)"
   sodipodi:docname="WormholeDestination.svg"
   xmlns:inkscape="http://www.inkscape.org/namespaces/inkscape"
   xmlns:sodipodi="http://sodipodi.sourceforge.net/DTD/sodipodi-0.dtd"
   xmlns="http://www.w3.org/2000/svg"
   xmlns:svg="http://www.w3.org/2000/svg">
  <sodipodi:namedview
     id="namedview1"
     pagecolor="#ffffff"
     bordercolor="#000000"
     borderopacity="0.25"
     inkscape:showpageshadow="2"
     inkscape:pageopacity="0.0"
     inkscape:pagecheckerboard="0"
     inkscape:deskcolor="#d1d1d1"
     inkscape:document-units="mm"
     showgrid="true"
     inkscape:zoom="6.4319585"
     inkscape:cx="55.193142"
     inkscape:cy="26.974677"
     inkscape:window-width="3840"
     inkscape:window-height="2054"
     inkscape:window-x="-11"
     inkscape:window-y="-11"
     inkscape:window-maximized="1"
     inkscape:current-layer="svg1">
    <inkscape:grid
       id="grid1"
       units="px"
       originx="-76.633715"
       originy="-203.3166"
       spacingx="21.166666"
       spacingy="21.166666"
       empcolor="#0099e5"
       empopacity="0.30196078"
       color="#0099e5"
       opacity="0.14901961"
       empspacing="5"
       enabled="true"
       visible="true" />
  </sodipodi:namedview>
  <defs
     id="defs1">
    <inkscape:path-effect
       effect="mirror_symmetry"
       start_point="13.235885,0.357795"
       end_point="13.235885,24.947521"
       center_point="13.235885,12.652658"
       id="path-effect5"
       is_visible="true"
       lpeversion="1.2"
       lpesatellites=""
       mode="free"
       discard_orig_path="false"
       fuse_paths="true"
       oposite_fuse="false"
       split_items="false"
       split_open="false"
       link_styles="false" />
  </defs>
  <g
     inkscape:groupmode="layer"
     id="layer4"
     inkscape:label="Floor 5"
     style="fill:#dee6e7;fill-opacity:1"
     transform="translate(-76.63372,-203.31659)" />
  <g
     inkscape:groupmode="layer"
     id="g22"
     inkscape:label="Floor 3"
     style="fill:#9ba2cc;fill-opacity:1;stroke-width:0;stroke-dasharray:none"
     transform="translate(-76.63372,-203.31659)" />
  <g
     inkscape:groupmode="layer"
     id="g23"
     inkscape:label="Floor 2"
     style="fill:#adcbd3;fill-opacity:1;stroke-width:0;stroke-dasharray:none"
     transform="translate(-76.63372,-203.31659)" />
  <g
     inkscape:groupmode="layer"
     id="layer3"
     inkscape:label="Floor 1"
     style="fill:#9ba2cc;fill-opacity:1;stroke-width:0;stroke-dasharray:none"
     transform="translate(-76.63372,-203.31659)" />
  <g
     inkscape:groupmode="layer"
     id="layer7-5"
     inkscape:label="Floor 6 Pattern"
     style="opacity:0.3;fill:#ffffff;fill-opacity:1"
     transform="translate(-13.104632,-351.53559)" />
  <g
     inkscape:groupmode="layer"
     id="layer7-5-4"
     inkscape:label="Floor 3 Pattern"
     style="display:inline;opacity:0.3;fill:#ffffff;fill-opacity:1"
     transform="translate(113.86628,-203.34236)" />
  <g
     inkscape:groupmode="layer"
     id="layer7"
     inkscape:label="Floor 2 Pattern"
     style="opacity:0.3;fill:#ffffff;fill-opacity:1"
     transform="translate(-76.63372,-203.31659)" />
  <g
     inkscape:groupmode="layer"
     id="layer6"
     inkscape:label="Floor 1 Pattern"
     transform="translate(-76.63372,-203.31659)" />
  <g
     inkscape:groupmode="layer"
     id="g24"
     inkscape:label="Floor 5 Pattern"
     style="display:inline;fill:#9ba2cc;fill-opacity:1;stroke-width:0;stroke-dasharray:none"
     transform="translate(-76.63372,-203.31659)" />
  <g
     inkscape:groupmode="layer"
     id="layer2"
     inkscape:label="Room Wall"
     style="stroke-width:3.8;stroke-dasharray:none"
     transform="translate(-76.63372,-203.31659)" />
  <g
     inkscape:label="House Wall"
     inkscape:groupmode="layer"
     id="layer1"
     transform="translate(-76.63372,-203.31659)" />
  <rect
     style="opacity:1;fill:#8372ad;fill-opacity:1;stroke:#3f7491;stroke-width:0;stroke-linecap:round;stroke-dasharray:none;stroke-opacity:1;paint-order:fill markers stroke"
     id="rect5"
     width="21.166666"
     height="21.166666"
     x="2.756094"
     y="2.7560942"
     rx="0.33982939"
     ry="0.31665915" />
  <path
     style="opacity:1;fill:#414297;fill-opacity:1;stroke:#3f7491;stroke-width:0;stroke-linecap:round;stroke-dasharray:none;stroke-opacity:1;paint-order:fill markers stroke"
     d="m 2.756094,2.7560942 c 0,0 4.9428115,-2.79722993 10.583333,-2.7560942 5.640522,0.04113573 10.583333,2.7560942 10.583333,2.7560942 z"
     id="path6"
     sodipodi:nodetypes="czcc" />
  <path
     style="fill:#7264be;fill-opacity:1;stroke:#3f7491;stroke-width:0;stroke-linecap:round;stroke-dasharray:none;stroke-opacity:1;paint-order:fill markers stroke"
     d="M 2.7560948,23.922758 13.339428,13.339427 23.922762,23.922758 Z"
     id="path6-9"
     sodipodi:nodetypes="cccc" />
  <path
     style="fill:#5c509a;fill-opacity:1;stroke:#3f7491;stroke-width:0;stroke-linecap:round;stroke-dasharray:none;stroke-opacity:1;paint-order:fill markers stroke"
     d="M 2.756094,2.7560942 13.309805,13.339427 2.756094,23.92276 Z"
     id="path6-7-5"
     sodipodi:nodetypes="cccc" />
  <path
     style="fill:#7264be;fill-opacity:1;stroke:#3f7491;stroke-width:0;stroke-linecap:round;stroke-dasharray:none;stroke-opacity:1;paint-order:fill markers stroke"
     d="M 2.7560942,2.7560942 13.339427,13.339427 23.92276,2.7560942 Z"
     id="path6-2-1"
     sodipodi:nodetypes="cccc" />
  <path
     style="fill:#5c509a;fill-opacity:1;stroke:#3f7491;stroke-width:0;stroke-linecap:round;stroke-dasharray:none;stroke-opacity:1;paint-order:fill markers stroke"
     d="M 23.922761,23.92276 13.339428,13.339427 23.922761,2.7560942 Z"
     id="path6-1-7"
     sodipodi:nodetypes="cccc" />
  <path
     id="path2"
     style="fill:#7264be;stroke:#3f7491;stroke-width:0;stroke-linecap:round;paint-order:fill markers stroke"
     d="m 35.975552,-7.110521 c -0.187654,0.804063 -0.23269,1.116686 -0.252614,1.732656 -0.04533,1.401232 0.277472,2.773312 0.961976,4.128357 0.101724,0.20137 0.250109,0.466071 0.380917,0.689162 0.0654,0.111544 0.125806,0.210924 0.175882,0.289135 0.02504,0.03911 0.0464,0.07186 0.07117,0.105684 0.01238,0.01691 0.02409,0.03311 0.04919,0.06059 0.0038,0.0042 0.01444,0.01287 0.01918,0.0178 0.01275,0.01681 0.0343,0.04645 0.06179,0.08517 0.0577,0.08128 0.137736,0.197756 0.223904,0.326134 0.385255,0.573976 0.492537,0.715596 0.969224,1.281686 0.383484,0.455407 1.238824,1.381227 1.598373,1.723819 1.6447,1.567138 3.737217,2.356869 6.108587,2.319888 2.701109,-0.04212 5.437387,-1.25108 7.040475,-3.14988 0.929198,-1.100601 1.794334,-2.830422 2.248054,-4.451277 1.00883,-3.60392 0.266141,-7.1262514 -2.072775,-9.653065 -0.832049,-0.898896 -1.707415,-1.500235 -2.880554,-1.983169 -2.161052,-0.889617 -4.264059,-0.90232 -5.865292,0.05874 -0.55262,0.331683 -0.971266,0.707287 -1.443177,1.287256 -1.314931,1.61603 -2.265149,3.2045678 -2.829877,4.753911 -0.182796,0.501509 -0.384201,1.352442 -0.429747,1.849661 -0.09632,1.051076 0.04516,2.018303 0.438751,2.89136 0.217615,0.482721 0.607619,1.046387 1.000253,1.45965 0.773043,0.813656 1.923167,1.539832 3.137507,2.006337 0.413109,0.158697 1.148839,0.348941 1.586439,0.408469 2.097417,0.285297 3.911601,-0.456055 5.049328,-2.091798 0.299477,-0.430567 0.682172,-1.181823 0.910831,-1.765982 0.589975,-1.507218 0.579347,-2.903022 -0.07868,-4.137599 -0.619393,-1.162147 -1.798448,-2.2469514 -2.98883,-2.7379526 -0.373933,-0.1542094 -0.87132,-0.2729016 -1.262664,-0.2930947 -1.187647,-0.061331 -2.315989,0.4571783 -3.105052,1.4067493 -0.400796,0.482326 -0.672156,0.997079 -0.836321,1.592604 -0.455162,1.65114 -0.0086,3.462373 1.216779,4.321764 0.08061,0.05654 0.173308,0.119294 0.287752,0.162765 0.114446,0.04347 0.21364,0.06383 0.388733,0.104656 0.310427,0.0724 0.482331,0.09439 0.677684,0.08697 0.920301,-0.03501 1.729414,-0.465303 2.246485,-1.206854 0.219006,-0.314081 0.361284,-0.637639 0.477688,-1.068111 l 1.88e-4,-8.08e-4 0.09285,-0.344842 c 0.03319,-0.123251 0.01366,-0.254745 -0.05372,-0.363133 l -0.07637,-0.122719 c -0.242262,-0.389288 -0.628105,-0.628711 -1.088189,-0.65976 -0.47452,-0.03203 -0.91445,0.207825 -1.221904,0.580042 -0.05535,0.06701 -0.09197,0.09839 -0.147961,0.206251 -0.0088,0.01674 -0.0091,0.06213 -0.01852,0.08648 -0.06711,0.05612 -0.199169,0.131085 -0.283435,0.151398 -0.263268,0.06342 -0.448049,0.01116 -0.575965,-0.08745 -0.127911,-0.09861 -0.218529,-0.254577 -0.21831,-0.514721 1.12e-4,-0.131634 0.163638,-0.771451 0.340241,-1.110937 0.523096,-1.005203 1.331058,-1.476529 2.349442,-1.409419 0.223609,0.01472 0.571127,0.11407 0.723925,0.196008 0.652873,0.35015 1.18789,1.32898 1.216493,2.512744 0.0123,0.504332 -0.11327,1.210749 -0.284296,1.636164 -0.141554,0.352038 -0.457727,0.860489 -0.694262,1.121801 -1.155762,1.276835 -2.727364,1.524878 -4.216003,0.665898 -0.839554,-0.484463 -1.748316,-1.434459 -2.204434,-2.308001 -0.777757,-1.489537 -0.623061,-2.956072 0.6149,-4.9738934 0.406254,-0.6621759 0.781946,-1.0877196 1.281307,-1.4648596 0.89243,-0.674 2.019926,-0.963391 3.294038,-0.819732 0.263911,0.02975 1.045716,0.20655 1.321823,0.300144 0.546338,0.185352 1.143185,0.468627 1.677188,0.798544 1.46794,0.9069197 2.368144,1.973021 2.739672,3.15717 0.668271,2.12996 -0.175454,4.743941 -2.69504,7.759414 -0.87711,1.049793 -1.311776,1.455721 -1.855799,1.771776 -0.925308,0.537564 -1.88831,0.720729 -3.175381,0.578346 C 45.861676,2.817276 44.92932,2.597389 44.59654,2.480383 43.383412,2.053844 42.294573,1.387732 41.564734,0.646068 c -1.859186,-1.88931 -2.754799,-4.438857 -2.515395,-7.190096 0.04904,-0.563636 0.09523,-0.845818 0.253799,-1.526666 0.198042,-0.8503052 0.370066,-1.3663135 0.714942,-2.148057 0.516775,-1.171391 1.406626,-2.544165 2.047069,-3.197985 1.333749,-1.361607 3.390193,-2.297036 5.552133,-2.498609 1.009386,-0.09411 1.892875,-0.03856 2.853994,0.179688 0.216938,0.04927 0.3024,0.07314 0.41504,0.08824 0.02816,0.0038 0.01842,0.03492 0.194451,-0.0089 0.02201,-0.0055 0.214368,0.700401 0.69857,0.794901 1.959278,0.382388 0.354356,-1.529765 -2.384999,-2.319343 -0.642761,-0.18527 -1.038815,-0.230877 -1.596317,-0.26585 -2.992892,-0.187731 -6.051541,1.292635 -8.463966,4.016189 -1.024575,1.156713 -2.129671,2.949981 -2.76861,4.4800058 -0.304097,0.7281952 -0.399336,1.0235362 -0.589893,1.8398622 z m 1.469745,7.077427 c 0.0089,0.0066 0.02203,0.01381 0.03498,0.02147 -0.01083,-0.006 -0.01915,-0.0095 -0.02442,-0.01319 -0.0063,-0.0042 -0.0057,-0.0047 -0.01057,-0.0084 z m 0.07725,0.04381 c 0.01639,0.0066 0.02764,0.01053 0.04295,0.01584 -0.01593,-0.0052 -0.03268,-0.01002 -0.03263,-0.01002 3.1e-5,1.2e-5 -0.0084,-0.0047 -0.01031,-0.0057 z m 0.07698,0.02708 c 0.01202,0.0013 0.133818,0.0146 0.134034,0.0146 8e-5,-4e-6 -0.124834,-0.01167 -0.124739,-0.01167 1.2e-5,2e-6 -0.0073,-0.0024 -0.0093,-0.003 z"
     sodipodi:nodetypes="csssssccsssssssssssscssscsssccsscscssccccsssscssssscsssssssssssssscssssssssssscsscccccccccccsscc" />
  <path
     style="fill:#4546a2;fill-opacity:1;stroke:#3f7491;stroke-width:0;stroke-linecap:round;stroke-dasharray:none;stroke-opacity:1;paint-order:fill markers stroke"
     d="m 57.973234,-2.911072 c -0.6059,1.756578 -1.672326,3.493006 -3.49282,5.68725 C 51.216526,6.710142 48.076691,7.964289 44.845391,6.6247 44.054214,6.296705 43.248151,5.800765 42.427272,5.136924 42.041898,4.825275 41.514312,4.355143 41.535295,4.342085 c 0.0063,-0.0039 0.05189,0.01882 0.101309,0.05053 0.350263,0.224756 1.00873,0.541148 1.526421,0.73344 0.465411,0.172872 1.481657,0.40286 2.003979,0.453519 0.723339,0.07017 1.347048,0.06808 2.052557,-0.0068 2.197264,-0.233363 4.335994,-1.22304 5.770603,-2.670291 0.435578,-0.439419 0.737881,-0.8337 1.134593,-1.479797 1.277161,-2.08003 1.951793,-4.410265 1.923551,-6.644121 -0.02345,-1.855082 -0.505803,-3.5098585 -1.460808,-5.011531 -0.763976,-1.201299 -1.705325,-2.146418 -2.746967,-2.757968 -1.310187,-0.769214 -2.863754,-1.224745 -4.229762,-1.240236 -0.608131,-0.0069 -1.324504,0.102657 -1.862981,0.284898 -0.709123,0.239994 -1.360676,0.651141 -1.918846,1.210845 -0.459359,0.460621 -1.384854,1.69409 -1.953239,2.603214 -0.580006,0.9277115 -0.978987,1.731019 -1.309621,2.636787 -0.142619,0.390705 -0.387937,1.41274 -0.426274,1.775928 -0.19506,1.847919 0.337418,3.368437 1.614891,4.611407 0.721379,0.701895 1.803996,1.367567 2.942397,1.809199 0.381836,0.148131 1.532563,0.41771 1.905962,0.446526 1.266958,0.09772 2.312551,-0.132419 3.244157,-0.714034 0.896759,-0.559864 1.489376,-1.280034 2.088081,-2.537523 0.660603,-1.387492 0.858488,-2.576648 0.610566,-3.669104 -0.242059,-1.066623 -0.941303,-2.097423 -2.021517,-2.9800436 -1.558947,-1.2737854 -3.282702,-1.4831764 -4.735181,-0.5752041 -0.414192,0.2589164 -0.664984,0.477083 -0.968654,0.8426447 -0.431596,0.519558 -0.669317,0.978511 -0.839668,1.621091 -0.162844,0.614254 -0.203225,1.115463 -0.139032,1.7256 0.108153,1.027986 0.552726,1.92172 1.215483,2.443511 0.262166,0.206407 0.440077,0.290464 0.789074,0.37282 0.463334,0.109362 0.912374,0.103236 1.360216,-0.01846 1.050489,-0.285473 1.772577,-1.079494 2.059591,-2.264764 0.07531,-0.310982 0.07727,-0.330405 0.04698,-0.462017 -0.04382,-0.19036 -0.20131,-0.415337 -0.403552,-0.576511 -0.209934,-0.167299 -0.347144,-0.234536 -0.593216,-0.290678 -0.531569,-0.121337 -1.004612,0.06703 -1.412292,0.562224 -0.07486,0.09093 -0.143219,0.19589 -0.151915,0.233252 -0.03493,0.150047 -0.397818,0.261219 -0.660433,0.202315 -0.293242,-0.06585 -0.446099,-0.286901 -0.447079,-0.646812 -4.41e-4,-0.162152 0.133975,-0.657261 0.246022,-0.906197 0.116157,-0.258061 0.291652,-0.544416 0.456904,-0.74552 0.471824,-0.574188 1.14753,-0.889661 1.889977,-0.882395 0.236705,0.0023 0.684706,0.108471 0.845142,0.200294 0.63393,0.362699 1.096252,1.183453 1.209751,2.147657 0.03104,0.263704 0.03092,0.685792 -2.6e-4,0.964766 -0.03766,0.336936 -0.212095,0.990324 -0.331914,1.243262 -0.227832,0.480989 -0.623756,0.99861 -1.012422,1.323608 -0.832623,0.696234 -1.814199,0.944019 -2.817859,0.71133 -0.177357,-0.04113 -0.399603,-0.105907 -0.493877,-0.143957 -0.943881,-0.381039 -1.876165,-1.195169 -2.529708,-2.209096 -0.323511,-0.501907 -0.4992,-0.905666 -0.607167,-1.395365 -0.249777,-1.132893 0.02457,-2.317811 0.872838,-3.7698083 0.524731,-0.8981905 1.026342,-1.4484037 1.71004,-1.8757317 1.476954,-0.923134 3.428678,-0.873704 5.406207,0.13692 0.953652,0.487367 1.853191,1.1748914 2.414822,1.8456694 0.915043,1.0928696 1.279166,2.3043686 1.133225,3.7704366 -0.0367,0.368645 -0.248344,1.223167 -0.406184,1.639967 -0.568238,1.500599 -1.533098,2.98973 -3.002647,4.634211 -0.541063,0.60547 -0.842923,0.870247 -1.325257,1.162448 -1.607258,0.973694 -3.849126,0.833213 -6.086768,-0.381408 -1.012467,-0.549581 -1.775472,-1.226724 -2.508411,-2.226139 -1.910394,-2.604963 -2.244172,-6.032409 -0.915332,-9.3992283 0.555664,-1.4078587 1.518957,-2.9600067 2.345111,-3.7786587 0.591841,-0.586466 1.381871,-1.128247 2.250562,-1.543372 0.620666,-0.2966 1.571324,-0.606431 2.259227,-0.736309 1.373095,-0.259245 2.617885,-0.244023 3.872415,0.04735 0.863113,0.200463 1.592881,0.495726 2.31356,0.936048 0.715196,0.436975 0.997876,0.678897 1.856816,1.589102 1.071621,1.135573 2.261321,2.836559 2.852758,4.0787541 0.713257,1.4980549 0.975537,2.8727249 0.837721,4.3907009 -0.03337,0.367607 -0.274324,1.459795 -0.406739,1.843668 z"
     id="path3" />
  <path
     style="fill:#414297;fill-opacity:1;stroke:#3f7491;stroke-width:0;stroke-linecap:round;stroke-dasharray:none;stroke-opacity:1;paint-order:fill markers stroke"
     d="m 2.7560951,23.92276 c 0,0 4.9428115,2.79723 10.5833329,2.756094 5.640522,-0.04114 10.583333,-2.756094 10.583333,-2.756094 z"
     id="path6-7"
     sodipodi:nodetypes="czcc" />
  <path
     style="fill:#414297;fill-opacity:1;stroke:#3f7491;stroke-width:0;stroke-linecap:round;stroke-dasharray:none;stroke-opacity:1;paint-order:fill markers stroke"
     d="m 23.922762,23.92276 c 0,0 2.79723,-4.942812 2.756094,-10.583333 C 26.637716,7.6989052 23.922762,2.7560939 23.922762,2.7560939 Z"
     id="path6-7-9"
     sodipodi:nodetypes="czcc" />
  <path
     style="fill:#414297;fill-opacity:1;stroke:#3f7491;stroke-width:0;stroke-linecap:round;stroke-dasharray:none;stroke-opacity:1;paint-order:fill markers stroke"
     d="m 2.756094,2.7560941 c 0,0 -2.79723002,4.9428119 -2.756094021118165,10.5833329 C 0.04113998,18.979949 2.756094,23.92276 2.756094,23.92276 Z"
     id="path6-7-0"
     sodipodi:nodetypes="czcc" />
</svg>
