<?xml version="1.0" encoding="UTF-8" standalone="no"?>
<!-- Created with Inkscape (http://www.inkscape.org/) -->

<svg
   width="423.33337mm"
   height="359.83331mm"
   viewBox="0 0 423.33337 359.83331"
   version="1.1"
   id="svg1"
   inkscape:version="1.4.2 (f4327f4, 2025-05-13)"
   sodipodi:docname="WoodsShadow.svg"
   inkscape:export-filename="WoodsShadow.png"
   inkscape:export-xdpi="96"
   inkscape:export-ydpi="96"
   xmlns:inkscape="http://www.inkscape.org/namespaces/inkscape"
   xmlns:sodipodi="http://sodipodi.sourceforge.net/DTD/sodipodi-0.dtd"
   xmlns="http://www.w3.org/2000/svg"
   xmlns:svg="http://www.w3.org/2000/svg">
  <sodipodi:namedview
     id="namedview1"
     pagecolor="#ffffff"
     bordercolor="#000000"
     borderopacity="0.25"
     inkscape:showpageshadow="2"
     inkscape:pageopacity="0.0"
     inkscape:pagecheckerboard="0"
     inkscape:deskcolor="#d1d1d1"
     inkscape:document-units="mm"
     inkscape:zoom="0.80399481"
     inkscape:cx="426.61967"
     inkscape:cy="527.98849"
     inkscape:window-width="3840"
     inkscape:window-height="2054"
     inkscape:window-x="-11"
     inkscape:window-y="-11"
     inkscape:window-maximized="1"
     inkscape:current-layer="layer1" />
  <defs
     id="defs1">
    <filter
       inkscape:collect="always"
       style="color-interpolation-filters:sRGB"
       id="filter1"
       x="-0.0086801206"
       y="-0.010211908"
       width="1.0173602"
       height="1.0204238">
      <feGaussianBlur
         inkscape:collect="always"
         stdDeviation="1.531077"
         id="feGaussianBlur1" />
    </filter>
  </defs>
  <g
     inkscape:label="Ebene 1"
     inkscape:groupmode="layer"
     id="layer1"
     transform="translate(33.072917,47.095833)">
    <path
       d="m 343.09887,-47.095833 c 26.1276,0 47.1615,0.9416 47.1615,2.11098 v 83.28949 c -4.5431,1.26995 -10.1539,4.48555 -15.8203,11.87421 -0.4104,-0.17055 -0.8162,-0.33391 -1.2169,-0.48989 1.6266,-2.69983 2.1551,-6.98623 -5.148,-11.69851 11.8594,-7.9997 11.0545,-12.76531 9.7709,-14.74535 -0.9284,-0.13631 -2.1723,-0.24304 -3.7295,-0.21549 -4.6718,0.0828 -12.164,1.37243 -22.4234,6.68176 -11.2806,-4.44348 -20.4645,-2.4803 -24.5773,-1.10846 -2.1845,2.34631 -5.0547,7.49975 3.9315,13.2979 -0.5596,0.37745 -1.0907,0.74793 -1.5952,1.11104 -2.4553,0.16267 -5.5078,0.85142 -8.8739,2.69183 -8.1629,-8.15514 -15.7094,-8.49822 -19.4799,-7.97936 -2.025,2.25613 -4.8286,6.90789 -3.5445,14.58619 -7.8539,-0.8365 -12.666,1.57832 -15.0497,3.34243 -0.5454,3.2679 -0.2263,9.65906 7.6134,16.679587 -3.1487,4.76823 -3.2129,8.84112 -2.8132,11.23601 0.9109,0.67417 2.1764,1.44328 3.8308,2.08979 0.2366,1.07669 0.6675,2.27355 1.341,3.6034 -0.028,0.40624 -0.037,0.80294 -0.047,1.18959 -13.9807,2.26585 -15.5977,6.74239 -15.4476,9.00203 3.035,2.018256 10.8042,5.693466 26.5333,5.032766 7.8242,8.61329 16.9864,10.65472 21.3366,11.13007 3.1201,-1.18848 8.2567,-4.59425 3.1544,-13.46739 6.5668,-1.00595 10.5122,-2.488956 12.8514,-4.024046 2.3226,1.22327 4.5543,1.954746 6.3045,2.388996 1.9655,-0.48763 4.5377,-1.349546 7.1644,-2.862346 2.2276,1.6996 6.282,3.388216 13.5227,4.497396 -5.1023,8.87314 0.034,12.27891 3.1538,13.46739 3.9697,-0.43378 11.9471,-2.17144 19.2578,-9.01754 V 310.6265 c 0,1.16939 -21.0339,2.11098 -47.1615,2.11098 H 136.1695 c 6.87534,-5.05355 7.17098,-9.80256 6.76909,-12.12277 -0.9726,-0.69348 -2.54579,-1.54198 -4.81159,-1.98179 -0.2321,-0.72604 -0.59776,-1.52859 -1.12706,-2.41536 9.8025,-1.44682 10.92509,-4.41453 10.82259,-5.90145 -2.0422,-1.30851 -7.26984,-3.6912 -17.85369,-3.26285 -5.26476,-5.58429 -11.43015,-6.9079 -14.35726,-7.21609 -2.09953,0.77054 -5.5556,2.979 -2.12235,8.73176 -4.87214,0.71912 -7.60028,1.81368 -9.09919,2.91559 -1.76747,-0.9808 -3.49834,-1.53955 -4.820891,-1.8557 -1.17768,0.28154 -2.67928,0.75565 -4.24212,1.54874 -1.57401,-0.99525 -4.22885,-1.95644 -8.647536,-2.60863 3.433246,-5.75276 -0.0229,-7.96122 -2.12235,-8.73176 -2.92717,0.30819 -9.0925,1.6318 -14.35726,7.21609 -10.58384,-0.42835 -15.81149,1.95434 -17.85369,3.26285 -0.101,1.465 0.98734,4.36732 10.39471,5.83634 0.007,0.25068 0.0127,0.50763 0.0315,0.77101 -0.45319,0.86219 -0.74307,1.63823 -0.90227,2.33629 -1.11322,0.41915 -1.9647,0.91788 -2.57763,1.35496 -0.26895,1.5527 -0.22579,4.19343 1.89291,7.28483 -1.96723,1.69741 -3.23048,3.33787 -4.02249,4.83794 h -43.07386 c -26.1276,0 -47.16198,-0.94159 -47.16198,-2.11098 v -50.97673 a 48.834799,43.160395 73.926818 0 1 5.04621,2.71146 48.834799,43.160395 73.926818 0 1 20.13934,24.2533 26.607771,44.521329 44.241852 0 1 30.32011,-4.27416 26.607771,44.521329 44.241852 0 1 16.81293,-30.68236 26.607771,44.521329 44.241852 0 1 12.77854,-10.43141 26.607771,44.521329 44.241852 0 1 17.14469,-38.46173 26.607771,44.521329 44.241852 0 1 13.88184,-11.14764 34.04882,36.364023 0 0 1 17.282667,-27.69237 34.04882,36.364023 0 0 1 -17.511077,-17.59634 26.607771,44.521329 44.241856 0 1 -2.34921,2.53214 26.607771,44.521329 44.241856 0 1 -45.74862,16.34216 26.607771,44.521329 44.241856 0 1 -16.81086,30.67306 26.607771,44.521329 44.241856 0 1 -12.77907,10.43141 26.607771,44.521329 44.241856 0 1 -17.14417,38.46122 26.607771,44.521329 44.241856 0 1 -21.06332,14.88126 V -44.984853 c 0,-1.16938 21.03438,-2.11098 47.16198,-2.11098 z m -154.35801,10.58333 c -4.6715,0 -2.3032,10.71987 -5.6064,13.90613 -3.3032,3.18626 -14.41668,0.90188 -14.41668,5.40794 0,4.50606 11.11348,2.22168 14.41668,5.40794 3.3032,3.18626 0.9349,13.90613 5.6064,13.90613 4.6715,0 2.3031,-10.71987 5.6064,-13.90613 3.3032,-3.18626 14.4167,-0.90188 14.4167,-5.40794 0,-4.50606 -11.1135,-2.22168 -14.4167,-5.40794 -3.3033,-3.18626 -0.9349,-13.90613 -5.6064,-13.90613 z m -68.19325,16.94522 a 24.103484,14.364469 14.280044 0 1 -26.620601,4.22145 24.103484,14.364469 14.280044 0 1 -1.7756,-0.56844 19.022006,19.024378 62.497175 0 1 -4.42815,12.68243 19.022006,19.024378 62.497175 0 1 15.254881,8.38915 24.103484,14.364469 14.280048 0 1 9.57254,1.5906 24.103484,14.364469 14.280048 0 1 17.78806,13.42192 24.103484,14.364469 14.280048 0 1 8.85269,1.54306 24.103484,14.364469 14.280048 0 1 15.74375,9.8981 24.103484,14.364469 14.280048 0 1 16.059,-5.83995 23.891083,25.785276 2.310473 0 1 4.1227,-16.44964 23.891083,25.785276 2.310473 0 1 1.84538,-2.56005 24.103484,14.364469 14.280044 0 1 -14.03328,-1.4702 24.103484,14.364469 14.280044 0 1 -17.78752,-13.4214 24.103484,14.364469 14.280044 0 1 -8.85321,-1.54306 24.103484,14.364469 14.280044 0 1 -15.74064,-9.89397 z m 171.20246,11.89437 c -3.9088,0 -1.9272,8.67666 -4.6912,11.25564 -2.7639,2.57898 -12.0633,0.73028 -12.0633,4.37751 0,3.64723 9.2994,1.79801 12.0633,4.377 2.764,2.57898 0.7824,11.25564 4.6912,11.25564 3.9088,0 1.9272,-8.67666 4.6912,-11.25564 2.7639,-2.57899 12.0628,-0.72977 12.0628,-4.377 0,-3.64723 -9.2989,-1.79853 -12.0628,-4.37751 -2.764,-2.57898 -0.7824,-11.25564 -4.6912,-11.25564 z m -279.744667,3.33209 c -4.71423,0 -2.32459,11.43497 -5.65805,14.83372 -3.33347,3.39876 -14.54847,0.96208 -14.54847,5.76864 0,4.80656 11.215,2.36937 14.54847,5.76813 3.33346,3.39875 0.94382,14.83372 5.65805,14.83372 4.71423,0 2.32407,-11.43497 5.65753,-14.83372 3.33347,-3.39876 14.54847,-0.96157 14.54847,-5.76813 0,-4.80656 -11.215,-2.36988 -14.54847,-5.76864 -3.33346,-3.39875 -0.9433,-14.83372 -5.65753,-14.83372 z m 241.052957,69.87894 c -3.9088,0 -1.9272,8.676657 -4.6912,11.255637 -2.7639,2.57898 -12.0633,0.73028 -12.0633,4.37751 0,3.64723 9.2994,1.79801 12.0633,4.37699 2.764,2.57898 0.7824,11.25616 4.6912,11.25616 3.9088,0 1.9272,-8.67718 4.6912,-11.25616 2.764,-2.57898 12.06281,-0.72976 12.06281,-4.37699 0,-3.64723 -9.29881,-1.79853 -12.06281,-4.37751 -2.764,-2.57898 -0.7824,-11.255637 -4.6912,-11.255637 z m -159.298781,3.0489 a 26.342135,26.019551 79.387886 0 1 0.15865,0.868687 26.342135,26.019551 79.387886 0 1 -12.997136,27.29342 31.668082,30.067451 80.321318 0 1 23.415107,25.920896 31.668082,30.067451 80.321318 0 1 0,10.83396 h 0.007 a 21.053659,20.795836 79.387888 0 1 1.7291,-0.36174 21.053659,20.795836 79.387888 0 1 23.95771,17.38396 21.053659,20.795836 79.387888 0 1 0.0372,0.23461 11.942942,11.796689 79.387886 0 1 2.27067,-0.61547 11.942942,11.796689 79.387886 0 1 7.34735,1.19011 15.176173,14.990325 79.387894 0 1 10.54613,-7.3949 15.176173,14.990325 79.387894 0 1 8.98705,1.33429 35.99012,35.549386 79.387889 0 1 10.87634,-4.60334 31.668048,24.044631 80.556232 0 1 -12.11038,-22.27048 31.668048,24.044631 80.556232 0 1 6.39598,-27.904226 10.52683,10.397919 79.387886 0 1 -7.86307,-8.5354 10.52683,10.397919 79.387886 0 1 -0.10646,-2.62361 18.096022,20.857847 80.719273 0 1 -10.21384,4.32687 18.096022,20.857847 80.719273 0 1 -23.53603,-14.455967 18.096022,20.857847 80.719273 0 1 -0.0119,-0.0682 20.777963,20.523517 79.387886 0 1 -10.83913,5.465817 20.777963,20.523517 79.387886 0 1 -18.050581,-6.019267 z M 347.92697,128.62779 c -3.9088,0 -1.9272,8.67666 -4.6912,11.25564 -2.7639,2.57899 -12.0628,0.73028 -12.0628,4.37752 0,3.64723 9.2989,1.79801 12.0628,4.37699 2.764,2.57898 0.7824,11.25564 4.6912,11.25564 3.9089,0 1.9273,-8.67666 4.6912,-11.25564 2.764,-2.57898 12.0634,-0.72976 12.0634,-4.37699 0,-3.64724 -9.2994,-1.79853 -12.0634,-4.37752 -2.7639,-2.57898 -0.7823,-11.25564 -4.6912,-11.25564 z m -186.28523,46.52636 c -2.10315,0 -1.03724,4.41826 -2.52439,5.73143 -1.48715,1.31318 -6.49056,0.3717 -6.49056,2.22881 0,1.85711 5.00341,0.91563 6.49056,2.2288 1.48715,1.31318 0.42124,5.73092 2.52439,5.73092 2.10314,0 1.03674,-4.41774 2.52384,-5.73092 1.4872,-1.31317 6.4906,-0.37169 6.4906,-2.2288 0,-1.85711 -5.0034,-0.91563 -6.4906,-2.22881 -1.4871,-1.31317 -0.4207,-5.73143 -2.52384,-5.73143 z m 168.95923,27.12961 c -3.2002,0 -1.5778,6.59244 -3.8406,8.55193 -2.2629,1.9595 -9.8759,0.55475 -9.8759,3.3259 0,2.77114 7.613,1.3664 9.8759,3.32589 2.2628,1.9595 0.6404,8.55194 3.8406,8.55194 3.2001,0 1.5777,-6.59244 3.8406,-8.55194 2.2628,-1.95949 9.8758,-0.55475 9.8758,-3.32589 0,-2.77115 -7.613,-1.3664 -9.8758,-3.3259 -2.2629,-1.95949 -0.6405,-8.55193 -3.8406,-8.55193 z m 15.4202,23.15724 a 26.478585,25.101415 0 0 1 -24.5727,15.74995 26.478585,25.101415 0 0 1 -8.9384,-1.4733 17.603488,17.361204 0 0 1 0.063,1.4733 17.603488,17.361204 0 0 1 -17.6036,17.36121 17.603488,17.361204 0 0 1 -0.1984,-0.001 9.9857907,9.8483524 0 0 1 0.1984,1.9544 9.9857907,9.8483524 0 0 1 -1.9823,5.88956 12.689176,12.514529 0 0 1 4.6649,9.69398 12.689176,12.514529 0 0 1 -2.325,7.22024 30.092235,29.678063 0 0 1 2.3172,9.58597 26.478585,20.073321 0 0 1 20.021,-6.93704 26.478585,20.073321 0 0 1 22.1491,9.07386 8.8017442,8.6806024 0 0 1 8.1121,-5.31233 8.8017442,8.6806024 0 0 1 2.1792,0.27026 15.130627,17.412867 0 0 1 -2.1792,-9.00255 15.130627,17.412867 0 0 1 15.1309,-17.41289 15.130627,17.412867 0 0 1 0.058,0 17.372972,17.133861 0 0 1 -3.0335,-9.67228 17.372972,17.133861 0 0 1 7.4239,-14.04617 22.025315,21.722172 0 0 1 -0.7385,0.0119 22.025315,21.722172 0 0 1 -20.746,-14.42703 z m -82.76081,9.02012 c -3.9089,0 -1.9273,8.67667 -4.6912,11.25565 -2.764,2.57898 -12.0628,0.73028 -12.0628,4.37751 0,3.64723 9.2988,1.79801 12.0628,4.37699 2.7639,2.57898 0.7823,11.25565 4.6912,11.25565 3.9088,0 1.9272,-8.67667 4.6912,-11.25565 2.76391,-2.57898 12.06331,-0.72976 12.06331,-4.37699 0,-3.64723 -9.2994,-1.79853 -12.06331,-4.37751 -2.764,-2.57898 -0.7824,-11.25565 -4.6912,-11.25565 z"
       style="fill:#939393;stroke:#000000;stroke-width:0.00000003175;stroke-linecap:round;stroke-linejoin:round;paint-order:fill markers stroke;filter:url(#filter1)"
       id="path27" />
  </g>
</svg>
