<?xml version="1.0" encoding="UTF-8" standalone="no"?>
<!-- Created with Inkscape (http://www.inkscape.org/) -->

<svg
   width="94.757469mm"
   height="106.63983mm"
   viewBox="0 0 94.757469 106.63983"
   version="1.1"
   id="svg1"
   inkscape:version="1.4.2 (f4327f4, 2025-05-13)"
   sodipodi:docname="WoodsStump3.svg"
   xmlns:inkscape="http://www.inkscape.org/namespaces/inkscape"
   xmlns:sodipodi="http://sodipodi.sourceforge.net/DTD/sodipodi-0.dtd"
   xmlns="http://www.w3.org/2000/svg"
   xmlns:svg="http://www.w3.org/2000/svg">
  <sodipodi:namedview
     id="namedview1"
     pagecolor="#ffffff"
     bordercolor="#000000"
     borderopacity="0.25"
     inkscape:showpageshadow="2"
     inkscape:pageopacity="0.0"
     inkscape:pagecheckerboard="0"
     inkscape:deskcolor="#d1d1d1"
     inkscape:document-units="mm"
     inkscape:zoom="3.2159792"
     inkscape:cx="126.55554"
     inkscape:cy="214.08721"
     inkscape:window-width="3840"
     inkscape:window-height="2054"
     inkscape:window-x="-11"
     inkscape:window-y="-11"
     inkscape:window-maximized="1"
     inkscape:current-layer="layer1" />
  <defs
     id="defs1">
    <inkscape:path-effect
       effect="fillet_chamfer"
       id="path-effect205"
       is_visible="true"
       lpeversion="1"
       nodesatellites_param="F,0,0,1,0,0,0,1 @ F,0,0,1,0,0,0,1 @ F,0,0,1,0,0,0,1 @ F,0,0,1,0,8.0960736,0,1 @ F,0,0,1,0,0,0,1 @ F,0,0,1,0,0,0,1 @ F,0,0,1,0,0,0,1 @ F,0,0,1,0,0,0,1 @ F,0,0,1,0,0,0,1 @ F,0,0,1,0,0,0,1"
       radius="0"
       unit="px"
       method="auto"
       mode="F"
       chamfer_steps="1"
       flexible="false"
       use_knot_distance="true"
       apply_no_radius="true"
       apply_with_radius="true"
       only_selected="false"
       hide_knots="false" />
    <inkscape:path-effect
       effect="fillet_chamfer"
       id="path-effect204"
       is_visible="true"
       lpeversion="1"
       nodesatellites_param="F,0,0,1,0,0,0,1 @ F,0,0,1,0,7.2830812,0,1 @ F,0,0,1,0,0,0,1 @ F,0,0,1,0,0,0,1"
       radius="0"
       unit="px"
       method="auto"
       mode="F"
       chamfer_steps="1"
       flexible="false"
       use_knot_distance="true"
       apply_no_radius="true"
       apply_with_radius="true"
       only_selected="false"
       hide_knots="false" />
    <inkscape:path-effect
       effect="fillet_chamfer"
       id="path-effect201"
       is_visible="true"
       lpeversion="1"
       nodesatellites_param="F,0,1,1,0,0,0,1 @ F,0,0,1,0,0,0,1 @ F,0,0,1,0,2.8301379,0,1 @ F,0,0,1,0,5.0309004,0,1 @ F,0,0,1,0,2.2665793,0,1 @ F,0,0,1,0,0.64888175,0,1 @ F,0,0,1,0,0,0,1"
       radius="0"
       unit="px"
       method="auto"
       mode="F"
       chamfer_steps="1"
       flexible="false"
       use_knot_distance="true"
       apply_no_radius="true"
       apply_with_radius="true"
       only_selected="false"
       hide_knots="false" />
    <inkscape:path-effect
       effect="spiro"
       id="path-effect1"
       is_visible="true"
       lpeversion="1" />
    <inkscape:path-effect
       effect="spiro"
       id="path-effect2"
       is_visible="true"
       lpeversion="1" />
    <inkscape:path-effect
       effect="spiro"
       id="path-effect1-6"
       is_visible="true"
       lpeversion="1" />
    <inkscape:path-effect
       effect="spiro"
       id="path-effect2-1"
       is_visible="true"
       lpeversion="1" />
  </defs>
  <g
     inkscape:label="Ebene 1"
     inkscape:groupmode="layer"
     id="layer1"
     transform="translate(-97.074463,-82.459994)">
    <path
       id="path1-6"
       style="display:inline;fill:#412c01;fill-opacity:0.420251;stroke:#3f321d;stroke-width:0;stroke-linecap:round;stroke-linejoin:round;stroke-dasharray:none;stroke-opacity:1;paint-order:fill markers stroke"
       d="m 160.51471,92.400069 c -1.30064,-0.0219 -1.45252,2.8352 -1.44487,3.67109 0.0304,3.8738 -0.0235,7.788811 0.0398,11.782231 9.3e-4,0.0517 0.003,0.10341 0.007,0.15502 0.0143,0.21879 0.0359,0.43524 0.0651,0.64958 -0.003,2.35486 -0.007,4.73037 0.031,7.13393 9.4e-4,0.0518 0.003,0.10342 0.007,0.15503 0.29929,4.57852 3.91257,8.23769 8.48423,8.60103 0.0631,0.004 0.12637,0.008 0.18965,0.009 3.81972,0.0712 7.58231,0.0199 11.29957,0.031 8.75786,0.12819 3.77701,-0.91054 3.77701,-0.91054 0,-0.25971 -0.0357,-0.51105 -0.10283,-0.7493 v -7.18871 c 2e-5,-1.52348 -1.23501,-2.75851 -2.75849,-2.75849 l -11.85354,0.13177 c -2.77812,0.0309 -4.91223,-2.05557 -5.39502,-4.70617 v -5.82549 c 3e-5,-0.24135 -0.0356,-0.47322 -0.10284,-0.68988 v -7.248131 c 1.3e-4,-1.23841 -0.94142,-2.22031 -2.24224,-2.24224 z"
       sodipodi:nodetypes="ccccccccccscccccccccc" />
    <path
       id="path9"
       style="display:inline;fill:#412c01;fill-opacity:1;stroke:#3f321d;stroke-width:0;stroke-linecap:round;stroke-linejoin:round;stroke-dasharray:none;stroke-opacity:1;paint-order:fill markers stroke"
       d="M 162.24361 85.56058 C 160.94278 85.56058 160.7911 88.395784 160.79874 89.231674 C 160.82914 93.105474 160.77523 97.020479 160.83853 101.0139 C 160.83947 101.0656 160.84176 101.11731 160.84576 101.16893 C 160.86006 101.38771 160.88168 101.60417 160.91088 101.8185 C 160.90788 104.17337 160.90388 103.65705 160.94188 106.06062 C 160.94282 106.11232 160.9446 106.16403 160.9486 106.21565 C 161.2479 110.79416 163.24423 114.60837 167.81588 114.9717 C 167.87898 114.9767 167.94224 114.97897 168.00553 114.97997 C 171.82525 115.05117 178.40213 114.99988 182.1194 115.01098 C 182.12134 118.05265 182.12205 121.3974 182.12198 124.84914 L 184.79727 124.87653 L 184.79727 116.99277 C 184.79728 116.73306 184.76147 116.48172 184.69444 116.24346 L 184.69444 109.05475 C 184.69446 107.53127 183.45943 106.29624 181.93595 106.29627 L 168.36779 106.42804 C 165.58967 106.45894 163.95268 104.40348 163.46989 101.75287 L 163.46989 95.927389 C 163.46992 95.686039 163.43429 95.454169 163.36706 95.237509 L 163.36706 87.989372 C 163.36719 86.750962 163.54565 85.56058 162.24465 85.56058 L 162.24361 85.56058 z " />
    <path
       d="m 162.24355,85.560629 c -1.30083,0 -1.45251,2.835203 -1.44487,3.671093 0.0304,3.8738 -0.0235,7.788806 0.0398,11.782228 9.4e-4,0.0517 0.003,0.10341 0.007,0.15503 0.0143,0.21878 0.0359,0.43524 0.0651,0.64957 -0.003,2.35487 -0.007,1.83855 0.031,4.24212 9.4e-4,0.0517 0.003,0.10341 0.007,0.15503 0.18428,2.81909 1.01216,5.34823 2.68821,6.96081 v -10.6934 c -0.0657,-0.2373 -0.12156,-0.48115 -0.16692,-0.73019 v -5.825482 c 3e-5,-0.24135 -0.0351,-0.473221 -0.10232,-0.689881 v -7.248136 c 1.3e-4,-1.23841 0.17807,-2.428792 -1.12293,-2.428792 z"
       style="display:inline;fill:#412c01;stroke:#3f321d;stroke-width:0;stroke-linecap:round;stroke-linejoin:round;paint-order:fill markers stroke"
       id="path56" />
    <path
       d="m 176.50625,106.34902 v 8.66717 c 0.45548,-8e-4 0.90665,-0.002 1.34927,-0.003 v -8.67751 z"
       style="baseline-shift:baseline;display:inline;overflow:visible;vector-effect:none;fill:#8f6102;fill-opacity:0.450717;stroke-linecap:round;stroke-linejoin:round;paint-order:fill markers stroke;enable-background:accumulate;stop-color:#000000;stop-opacity:1"
       id="path64" />
    <path
       d="m 175.15646,106.36194 v 8.65581 c 0.45182,-4.7e-4 0.9028,-7.7e-4 1.34979,-0.002 v -8.66717 z"
       style="baseline-shift:baseline;display:inline;overflow:visible;vector-effect:none;fill:#8f6102;fill-opacity:0.450717;stroke-linecap:round;stroke-linejoin:round;paint-order:fill markers stroke;enable-background:accumulate;stop-color:#000000;stop-opacity:1"
       id="path63" />
    <path
       d="m 171.21458,106.40018 v 8.61291 c 0.34334,0.002 0.69371,0.003 1.04903,0.004 v -8.62635 z"
       style="baseline-shift:baseline;display:inline;overflow:visible;vector-effect:none;fill:#8f6102;fill-opacity:0.450717;stroke-linecap:round;stroke-linejoin:round;paint-order:fill markers stroke;enable-background:accumulate;stop-color:#000000;stop-opacity:1"
       id="path61" />
    <path
       d="m 170.16606,106.41052 v 8.59586 c 0.34043,0.003 0.6906,0.005 1.04852,0.007 v -8.61291 z"
       style="baseline-shift:baseline;display:inline;overflow:visible;vector-effect:none;fill:#8f6102;fill-opacity:0.450717;stroke-linecap:round;stroke-linejoin:round;paint-order:fill markers stroke;enable-background:accumulate;stop-color:#000000;stop-opacity:1"
       id="path60" />
    <path
       d="m 164.33541,104.14709 v 9.61182 c 0.22126,0.15867 0.45441,0.30398 0.6997,0.4346 v -9.12141 c -0.2635,-0.27526 -0.49677,-0.5858 -0.6997,-0.92501 z"
       style="baseline-shift:baseline;display:inline;overflow:visible;vector-effect:none;fill:#8f6102;fill-opacity:0.450717;stroke-linecap:round;stroke-linejoin:round;paint-order:fill markers stroke;enable-background:accumulate;stop-color:#000000;stop-opacity:1"
       id="path58" />
    <path
       d="m 163.63675,102.48311 v 10.6934 c 0.21837,0.21011 0.45103,0.40481 0.69866,0.5824 v -9.61182 c -0.29864,-0.49921 -0.5315,-1.06044 -0.69866,-1.66398 z"
       style="baseline-shift:baseline;display:inline;overflow:visible;vector-effect:none;fill:#8f6102;fill-opacity:0.450717;stroke-linecap:round;stroke-linejoin:round;paint-order:fill markers stroke;enable-background:accumulate;stop-color:#000000;stop-opacity:1"
       id="path57" />
    <path
       style="fill:#412c01;fill-opacity:0;stroke:#412c01;stroke-width:2.1;stroke-linecap:round;stroke-linejoin:round;stroke-dasharray:none;stroke-opacity:1;paint-order:fill markers stroke"
       d="m 238.63219,180.72267 c 1.11242,-0.0412 2.21041,-0.41525 3.11656,-1.06182 0.90615,-0.64657 1.61704,-1.56318 2.01779,-2.60172 0.19428,-0.50347 0.31695,-1.03451 0.36317,-1.57218"
       id="path1-2"
       sodipodi:nodetypes="csc"
       transform="matrix(1.2098774,0,0,0.86411858,-104.80546,-34.43242)"
       inkscape:original-d="m 238.63219,180.72267 c 2.48212,-2.90873 2.65223,-0.63846 5.13435,-3.66354 2.48213,-3.02509 0.40191,-1.37826 0.36317,-1.57218"
       inkscape:path-effect="#path-effect1" />
    <path
       style="fill:#412c01;fill-opacity:0;stroke:#412c01;stroke-width:1.3;stroke-linecap:round;stroke-linejoin:round;stroke-dasharray:none;stroke-opacity:1;paint-order:fill markers stroke"
       d="m 243.16982,177.46489 -2.0652,-1.48345"
       id="path2"
       transform="matrix(1.2098774,0,0,0.86411858,-104.80546,-34.43242)"
       inkscape:original-d="m 243.16982,177.46489 c -0.6884,-0.47509 -1.3768,-0.97927 -2.0652,-1.48345"
       inkscape:path-effect="#path-effect2" />
    <ellipse
       style="fill:#78550e;fill-opacity:1;stroke:#8f6102;stroke-width:0;stroke-linecap:round;stroke-linejoin:round;stroke-dasharray:none;stroke-opacity:0.450717;paint-order:fill markers stroke"
       id="path37"
       cx="190.57034"
       cy="117.13998"
       rx="1.2592511"
       ry="0.87343866" />
    <ellipse
       style="fill:#78550e;fill-opacity:1;stroke:#8f6102;stroke-width:0;stroke-linecap:round;stroke-linejoin:round;stroke-dasharray:none;stroke-opacity:0.450717;paint-order:fill markers stroke"
       id="path37-2"
       cx="187.83849"
       cy="137.35246"
       rx="0.72526568"
       ry="0.50025988"
       transform="matrix(0.99443983,-0.10530633,0,1,0,0)" />
  </g>
</svg>
