<?xml version="1.0" encoding="UTF-8" standalone="no"?>
<!-- Created with Inkscape (http://www.inkscape.org/) -->

<svg
   width="135.96751mm"
   height="89.183319mm"
   viewBox="0 0 135.96751 89.183318"
   version="1.1"
   id="svg1"
   inkscape:version="1.4.2 (f4327f4, 2025-05-13)"
   sodipodi:docname="WoodsFallenTree3.svg"
   xmlns:inkscape="http://www.inkscape.org/namespaces/inkscape"
   xmlns:sodipodi="http://sodipodi.sourceforge.net/DTD/sodipodi-0.dtd"
   xmlns="http://www.w3.org/2000/svg"
   xmlns:svg="http://www.w3.org/2000/svg">
  <sodipodi:namedview
     id="namedview1"
     pagecolor="#ffffff"
     bordercolor="#000000"
     borderopacity="0.25"
     inkscape:showpageshadow="2"
     inkscape:pageopacity="0.0"
     inkscape:pagecheckerboard="0"
     inkscape:deskcolor="#d1d1d1"
     inkscape:document-units="mm"
     inkscape:zoom="2.2740407"
     inkscape:cx="307.82211"
     inkscape:cy="93.885743"
     inkscape:window-width="3840"
     inkscape:window-height="2054"
     inkscape:window-x="-11"
     inkscape:window-y="-11"
     inkscape:window-maximized="1"
     inkscape:current-layer="layer1" />
  <defs
     id="defs1">
    <inkscape:path-effect
       effect="fillet_chamfer"
       id="path-effect42"
       is_visible="true"
       lpeversion="1"
       nodesatellites_param="F,0,0,1,0,0,0,1 @ F,0,0,1,0,0,0,1 @ F,0,0,1,0,0,0,1 @ F,0,0,1,0,4.0395293,0,1 @ F,0,0,1,0,0,0,1 @ F,0,0,1,0,0,0,1 @ F,0,0,1,0,0,0,1 @ F,0,0,1,0,0,0,1"
       radius="0"
       unit="px"
       method="auto"
       mode="F"
       chamfer_steps="1"
       flexible="false"
       use_knot_distance="true"
       apply_no_radius="true"
       apply_with_radius="true"
       only_selected="false"
       hide_knots="false" />
    <inkscape:path-effect
       effect="spiro"
       id="path-effect2"
       is_visible="true"
       lpeversion="1" />
    <inkscape:path-effect
       effect="spiro"
       id="path-effect1"
       is_visible="true"
       lpeversion="1" />
  </defs>
  <g
     inkscape:label="Ebene 1"
     inkscape:groupmode="layer"
     id="layer1"
     transform="translate(-128.74016,-172.45211)">
    <path
       d="m 258.18203,261.62461 v -12.92429 l -86.26574,-0.0269 c 0.35936,0.12497 -0.34908,12.93036 1.11574,12.96201 8.35392,-0.0101 85.15,-0.0108 85.15,-0.0108 z"
       style="fill:#403213;fill-opacity:0.482079;stroke:#251c08;stroke-width:0;stroke-linecap:round;stroke-linejoin:round;stroke-dasharray:none"
       id="path90-2-0"
       sodipodi:nodetypes="cccccc" />
    <path
       d="m 258.16331,253.53218 v -12.92429 l -86.26574,-0.0269 c 0.35936,0.12497 -0.34908,12.93036 1.11574,12.96201 8.35392,-0.0101 85.15,-0.0108 85.15,-0.0108 z"
       style="fill:#412c01;fill-opacity:1;stroke:#251c08;stroke-width:0;stroke-linecap:round;stroke-linejoin:round;stroke-dasharray:none"
       id="path90-3"
       sodipodi:nodetypes="cccccc" />
    <path
       d="m 258.16411,243.42599 -31.4818,-0.0134 a 0.57270998,0.57270998 0 0 1 -0.57206,-0.57257 0.57270998,0.57270998 0 0 1 0.57206,-0.57206 l 31.4787,0.0114 0.002,0.57361 v 0 z"
       style="baseline-shift:baseline;display:inline;overflow:visible;vector-effect:none;fill:#8f6102;fill-opacity:0.450717;stroke-linecap:round;stroke-linejoin:round;paint-order:fill markers stroke;enable-background:accumulate;stop-color:#000000"
       id="path28-4" />
    <path
       d="m 172.00839,243.4137 31.4818,-0.0134 a 0.57270998,0.57270998 0 0 0 0.57206,-0.57257 0.57270998,0.57270998 0 0 0 -0.57206,-0.57206 l -31.4787,0.0114 -0.002,0.57361 v 0 z"
       style="baseline-shift:baseline;display:inline;overflow:visible;vector-effect:none;fill:#8f6102;fill-opacity:0.450717;stroke-linecap:round;stroke-linejoin:round;paint-order:fill markers stroke;enable-background:accumulate;stop-color:#000000"
       id="path28-4-3" />
    <path
       style="fill:#412c01;fill-opacity:0;stroke:#8f6102;stroke-width:1.619;stroke-linecap:round;stroke-linejoin:round;stroke-dasharray:none;stroke-opacity:0.450717;paint-order:fill markers stroke"
       d="M 176.45761,248.0039 H 250.5842"
       id="path35" />
    <path
       style="fill:#412c01;fill-opacity:0;stroke:#8f6102;stroke-width:0.719;stroke-linecap:round;stroke-linejoin:round;stroke-dasharray:none;stroke-opacity:0.450717;paint-order:fill markers stroke"
       d="m 198.37529,252.04487 h 56.77852"
       id="path36" />
    <path
       d="m 198.59942,236.94135 a 0.78425172,0.67218496 37.758592 0 0 -0.081,-0.79806 0.78425172,0.67218496 37.758592 0 0 -0.7725,-0.34137 0.78425172,0.67218496 37.758592 0 0 0.0809,0.79782 0.78425172,0.67218496 37.758592 0 0 0.77273,0.34146 z"
       style="fill:#f0e869;fill-opacity:1;stroke:#8f6102;stroke-width:0;stroke-linecap:round;stroke-linejoin:round;stroke-opacity:0.450717;paint-order:fill markers stroke"
       id="path40-9-1" />
    <rect
       style="fill:#412c01;fill-opacity:1;stroke:#8f6102;stroke-width:0;stroke-linecap:round;stroke-linejoin:round;stroke-dasharray:none;stroke-opacity:0.450717;paint-order:fill markers stroke"
       id="rect38-2"
       width="0.79998666"
       height="6.3887801"
       x="172.85094"
       y="229.4292"
       rx="32.756332"
       ry="0.4760038"
       transform="matrix(0.99932785,0.03665846,0.09400627,0.99557161,0,0)" />
    <ellipse
       style="fill:#78550e;fill-opacity:1;stroke:#8f6102;stroke-width:0;stroke-linecap:round;stroke-linejoin:round;stroke-dasharray:none;stroke-opacity:0.450717;paint-order:fill markers stroke"
       id="path37-2-1-5"
       cx="-303.91733"
       cy="-82.670776"
       rx="0.3414169"
       ry="0.3555015"
       transform="matrix(-0.82146701,-0.57025604,0.6646825,-0.74712594,0,0)" />
    <path
       d="m 192.44825,236.29576 a 1.0477107,1.230498 62.078729 0 0 0.93946,0.74031 1.0477107,1.230498 62.078729 0 0 1.20441,-0.58397 1.0477107,1.230498 62.078729 0 0 -0.93893,-0.74027 1.0477107,1.230498 62.078729 0 0 -1.20494,0.58393 z"
       style="fill:#f0e869;fill-opacity:1;stroke:#8f6102;stroke-width:0;stroke-linecap:round;stroke-linejoin:round;stroke-opacity:0.450717;paint-order:fill markers stroke"
       id="path40-7" />
    <rect
       style="fill:#412c01;fill-opacity:1;stroke:#8f6102;stroke-width:0;stroke-linecap:round;stroke-linejoin:round;stroke-dasharray:none;stroke-opacity:0.450717;paint-order:fill markers stroke"
       id="rect38-29"
       width="0.56463581"
       height="4.0360284"
       x="333.32254"
       y="-162.58801"
       rx="23.119635"
       ry="0.30070919"
       transform="matrix(0.19212845,0.98136979,-0.82466823,0.56561675,0,0)" />
    <ellipse
       style="fill:#78550e;fill-opacity:1;stroke:#8f6102;stroke-width:0;stroke-linecap:round;stroke-linejoin:round;stroke-dasharray:none;stroke-opacity:0.450717;paint-order:fill markers stroke"
       id="path37-2-1-3"
       cx="-133.16463"
       cy="253.15999"
       rx="0.2561065"
       ry="0.19786985"
       transform="matrix(0.2387559,-0.97107962,0.9077388,0.41953578,0,0)" />
  </g>
</svg>
