<?xml version="1.0" encoding="UTF-8" standalone="no"?>
<!-- Created with Inkscape (http://www.inkscape.org/) -->

<svg
   width="135.96751mm"
   height="89.183319mm"
   viewBox="0 0 135.96751 89.183318"
   version="1.1"
   id="svg1"
   inkscape:version="1.4.2 (f4327f4, 2025-05-13)"
   sodipodi:docname="WoodsFallenTree.svg"
   xmlns:inkscape="http://www.inkscape.org/namespaces/inkscape"
   xmlns:sodipodi="http://sodipodi.sourceforge.net/DTD/sodipodi-0.dtd"
   xmlns="http://www.w3.org/2000/svg"
   xmlns:svg="http://www.w3.org/2000/svg">
  <sodipodi:namedview
     id="namedview1"
     pagecolor="#ffffff"
     bordercolor="#000000"
     borderopacity="0.25"
     inkscape:showpageshadow="2"
     inkscape:pageopacity="0.0"
     inkscape:pagecheckerboard="0"
     inkscape:deskcolor="#d1d1d1"
     inkscape:document-units="mm"
     inkscape:zoom="2.2740407"
     inkscape:cx="287.81367"
     inkscape:cy="258.35069"
     inkscape:window-width="3840"
     inkscape:window-height="2054"
     inkscape:window-x="-11"
     inkscape:window-y="-11"
     inkscape:window-maximized="1"
     inkscape:current-layer="layer1" />
  <defs
     id="defs1">
    <inkscape:path-effect
       effect="fillet_chamfer"
       id="path-effect42"
       is_visible="true"
       lpeversion="1"
       nodesatellites_param="F,0,0,1,0,0,0,1 @ F,0,0,1,0,0,0,1 @ F,0,0,1,0,0,0,1 @ F,0,0,1,0,4.0395293,0,1 @ F,0,0,1,0,0,0,1 @ F,0,0,1,0,0,0,1 @ F,0,0,1,0,0,0,1 @ F,0,0,1,0,0,0,1"
       radius="0"
       unit="px"
       method="auto"
       mode="F"
       chamfer_steps="1"
       flexible="false"
       use_knot_distance="true"
       apply_no_radius="true"
       apply_with_radius="true"
       only_selected="false"
       hide_knots="false" />
    <inkscape:path-effect
       effect="spiro"
       id="path-effect2"
       is_visible="true"
       lpeversion="1" />
    <inkscape:path-effect
       effect="spiro"
       id="path-effect1"
       is_visible="true"
       lpeversion="1" />
  </defs>
  <g
     inkscape:label="Ebene 1"
     inkscape:groupmode="layer"
     id="layer1"
     transform="translate(-128.74016,-172.45211)">
    <path
       d="m 258.18203,261.62461 v -12.92429 l -86.26574,-0.0269 c 0.35936,0.12497 -0.34908,12.93036 1.11574,12.96201 8.35392,-0.0101 85.15,-0.0108 85.15,-0.0108 z"
       style="fill:#403213;fill-opacity:0.482079;stroke:#251c08;stroke-width:0;stroke-linecap:round;stroke-linejoin:round;stroke-dasharray:none"
       id="path90-2-0"
       sodipodi:nodetypes="cccccc" />
    <path
       style="fill:#f0e869;fill-opacity:0;stroke:#150e00;stroke-width:2.18613;stroke-linecap:round;stroke-linejoin:round;stroke-dasharray:none;stroke-opacity:1;paint-order:fill markers stroke"
       d="m 175.31649,250.98104 h -3.37528 v 3.38801 h 86.84219 v -2.80387 h -5.14875"
       id="path43" />
    <path
       id="path90-2"
       style="fill:#413314;fill-opacity:0.46147;stroke:#251c08;stroke-width:0;stroke-linecap:round;stroke-linejoin:round;stroke-dasharray:none"
       d="m 194.05844,184.55214 -0.28814,10.87877 c -1.18174,0.31042 -4.79248,0.93121 -9.68933,0.93121 -5.43141,0 -10.32145,-0.41758 -11.22102,-0.6072 v -10.89649 l -44.10997,-0.0269 c 0.18375,0.12497 -0.17849,12.93035 0.57051,12.962 4.10385,-0.01 40.50956,-0.0108 43.36221,-0.0109 0.76984,0.26579 5.73734,0.88883 11.26546,0.88883 v 5.2e-4 c 5.41118,0 9.25175,-0.88539 9.97975,-1.2175 14.85922,8.7e-4 27.27269,9.2e-4 30.61519,-0.002 8.7e-4,1e-5 0.003,-1e-5 0.004,0 0.006,0 0.0118,1e-5 0.0181,0 3.38692,0.0191 7.85731,-0.0467 11.13679,-0.005 -0.10463,3.55658 -0.12916,11.59781 -0.17673,15.42025 0.10194,6.01037 -0.026,6.23788 7.09982,6.41718 0.061,0.004 0.12221,0.007 0.18345,0.009 3.89594,0.0633 10.60991,-0.13729 14.41566,-0.12919 0.21026,0.0144 5.9457,0.0465 6.18464,-0.10387 0.33309,-0.20958 0.21117,0.007 0.046,-1.03302 -0.0952,-0.59941 -5.8301,-0.70034 -5.76192,-1.73684 0.27901,-4.24151 -0.16102,-4.8564 -0.12299,-4.98729 0.63759,-2.19443 0.71405,-4.52891 0.50746,-4.52893 l -14.61255,-2.12907 c -3.19849,-0.46601 -5.13922,-0.0717 -5.13922,-2.35851 V 187.2354 c 1.1e-4,-1.484 -1.22778,-2.68729 -2.74298,-2.68718 z"
       sodipodi:nodetypes="ccsccccccccscccccccssssccsccc" />
    <path
       style="fill:#f0e869;fill-opacity:0;stroke:#150e00;stroke-width:2.2;stroke-linecap:round;stroke-linejoin:round;stroke-dasharray:none;stroke-opacity:1;paint-order:fill markers stroke"
       d="m 255.68504,209.67995 h 2.92063 v 2.26247 h -18.74966 a 4.0395293,4.0395293 45 0 1 -4.03953,-4.03953 v -18.25604 h -41.99959 v -1.93338 h 4.4838"
       id="path42"
       inkscape:path-effect="#path-effect42"
       inkscape:original-d="m 255.68504,209.67995 h 2.92063 v 2.26247 h -22.78919 v -22.29557 h -41.99959 v -1.93338 h 4.4838" />
    <path
       style="fill:#f0e869;fill-opacity:0;stroke:#150e00;stroke-width:2.2;stroke-linecap:round;stroke-linejoin:round;stroke-dasharray:none;stroke-opacity:1;paint-order:fill markers stroke"
       d="m 125.59873,190.07905 h 47.70326 v -1.97794 h -5.00303"
       id="path41" />
    <path
       d="m 172.85013,189.69021 v -12.92429 l -44.10997,-0.0269 c 0.18375,0.12497 -0.17849,12.93036 0.57051,12.96201 4.27158,-0.0101 43.53946,-0.0108 43.53946,-0.0108 z"
       style="fill:#412c01;fill-opacity:1;stroke:#251c08;stroke-width:0;stroke-linecap:round;stroke-linejoin:round;stroke-dasharray:none"
       id="path90"
       sodipodi:nodetypes="cccccc" />
    <path
       d="m 264.6364,194.61906 a 1.2307069,1.6176535 7.5883002 0 0 -1.36237,0.42744 1.2307069,1.6176535 7.5883002 0 0 -0.31287,1.73066 1.2307069,1.6176535 7.5883002 0 0 1.36198,-0.4269 1.2307069,1.6176535 7.5883002 0 0 0.31326,-1.7312 z"
       style="fill:#f0e869;fill-opacity:1;stroke:#8f6102;stroke-width:0;stroke-linecap:round;stroke-linejoin:round;stroke-opacity:0.450717;paint-order:fill markers stroke"
       id="path40-8" />
    <path
       d="m 194.0168,176.59227 -0.0311,12.93164 c 14.93109,8.8e-4 27.42279,0.001 30.77745,-0.002 8.7e-4,1e-5 0.003,-1e-5 0.004,0 0.006,0 0.0118,1e-5 0.0181,0 3.38692,0.0191 7.857,-0.047 11.13648,-0.005 -0.10463,3.55658 -0.1291,11.59768 -0.17667,15.42012 0.10194,6.01037 -0.026,6.23801 7.09983,6.41731 0.061,0.004 0.12221,0.007 0.18345,0.009 3.89594,0.0633 10.60994,-0.13718 14.41569,-0.12908 0.91194,0.0625 0.94878,-6.90842 0.69505,-11.2021 -0.052,-0.88018 3.6125,-1.00683 5.01358,-0.95576 0.27534,0.01 0.52714,-2.30108 0.4323,-2.30109 l -19.90033,-0.0602 c -3.23224,-0.01 -5.13922,-0.0717 -5.13922,-2.35852 v -15.05164 c 1.1e-4,-1.484 -1.22779,-2.68728 -2.74299,-2.68717 z"
       style="fill:#412c01;fill-opacity:1;stroke:#251c08;stroke-width:0;stroke-linecap:round;stroke-linejoin:round;stroke-dasharray:none"
       id="path89"
       sodipodi:nodetypes="ccscccccccsscssccc" />
    <path
       d="m 258.16331,253.53218 v -12.92429 l -86.26574,-0.0269 c 0.35936,0.12497 -0.34908,12.93036 1.11574,12.96201 8.35392,-0.0101 85.15,-0.0108 85.15,-0.0108 z"
       style="fill:#412c01;fill-opacity:1;stroke:#251c08;stroke-width:0;stroke-linecap:round;stroke-linejoin:round;stroke-dasharray:none"
       id="path90-3"
       sodipodi:nodetypes="cccccc" />
    <path
       style="fill:#412c01;fill-opacity:0;stroke:#412c01;stroke-width:2.1;stroke-linecap:round;stroke-linejoin:round;stroke-dasharray:none;stroke-opacity:1;paint-order:fill markers stroke"
       d="m 238.63219,180.72267 c 1.11242,-0.0412 2.21041,-0.41525 3.11656,-1.06182 0.90615,-0.64657 1.61704,-1.56318 2.01779,-2.60172 0.19428,-0.50347 0.31695,-1.03451 0.36317,-1.57218"
       id="path1"
       inkscape:path-effect="#path-effect1"
       inkscape:original-d="m 238.63219,180.72267 c 2.48212,-2.90873 2.65223,-0.63846 5.13435,-3.66354 2.48213,-3.02509 0.40191,-1.37826 0.36317,-1.57218"
       sodipodi:nodetypes="csc" />
    <path
       style="fill:#412c01;fill-opacity:0;stroke:#412c01;stroke-width:1.3;stroke-linecap:round;stroke-linejoin:round;stroke-dasharray:none;stroke-opacity:1;paint-order:fill markers stroke"
       d="m 243.16982,177.46489 -2.0652,-1.48345"
       id="path2"
       inkscape:path-effect="#path-effect2"
       inkscape:original-d="m 243.16982,177.46489 c -0.6884,-0.47509 -1.3768,-0.97927 -2.0652,-1.48345" />
    <path
       d="m 193.99716,184.72769 a 0.41853401,0.41853401 0 0 0 0.35036,0.19069 l 22.59191,-0.0103 a 0.41853401,0.41853401 0 0 0 0.42013,-0.41806 0.41853401,0.41853401 0 0 0 -0.42013,-0.41961 l -22.59191,0.01 a 0.41853401,0.41853401 0 0 0 -0.34933,0.18913 z"
       style="baseline-shift:baseline;display:inline;overflow:visible;vector-effect:none;fill:#8f6102;fill-opacity:0.450717;stroke-linecap:round;stroke-linejoin:round;paint-order:fill markers stroke;enable-background:accumulate;stop-color:#000000;stop-opacity:1"
       id="path27" />
    <path
       style="fill:#412c01;fill-opacity:0;stroke:#8f6102;stroke-width:0.823373;stroke-linecap:round;stroke-linejoin:round;stroke-dasharray:none;stroke-opacity:0.450717;paint-order:fill markers stroke"
       d="m 231.88698,184.46429 -11.21709,0.0181"
       id="path3-2"
       sodipodi:nodetypes="cc" />
    <path
       style="fill:#412c01;fill-opacity:0;stroke:#8f6102;stroke-width:0.823373;stroke-linecap:round;stroke-linejoin:round;stroke-dasharray:none;stroke-opacity:0.450717;paint-order:fill markers stroke"
       d="m 169.40235,184.43469 -11.21708,0.0181"
       id="path3-2-9"
       sodipodi:nodetypes="cc" />
    <path
       d="m 128.83369,184.88014 20.69745,-0.005 a 0.42054051,0.42054051 0 0 0 0.42013,-0.42013 0.42054051,0.42054051 0 0 0 -0.42013,-0.41961 l -20.70985,0.004 c 0.002,0.1408 0.004,0.28118 0.006,0.42065 v 0 c 0.002,0.1411 0.004,0.28146 0.007,0.42065 z"
       style="baseline-shift:baseline;display:inline;overflow:visible;vector-effect:none;fill:#8f6102;fill-opacity:0.450717;stroke-linecap:round;stroke-linejoin:round;paint-order:fill markers stroke;enable-background:accumulate;stop-color:#000000;stop-opacity:1"
       id="path31" />
    <path
       d="m 194.00646,180.80855 31.4818,-0.0134 a 0.57270998,0.57270998 0 0 0 0.57206,-0.57257 0.57270998,0.57270998 0 0 0 -0.57206,-0.57206 l -31.4787,0.0114 -0.002,0.57361 v 0 z"
       style="baseline-shift:baseline;display:inline;overflow:visible;vector-effect:none;fill:#8f6102;fill-opacity:0.450717;stroke-linecap:round;stroke-linejoin:round;paint-order:fill markers stroke;enable-background:accumulate;stop-color:#000000;stop-opacity:1"
       id="path28" />
    <path
       d="m 258.16411,243.42599 -31.4818,-0.0134 a 0.57270998,0.57270998 0 0 1 -0.57206,-0.57257 0.57270998,0.57270998 0 0 1 0.57206,-0.57206 l 31.4787,0.0114 0.002,0.57361 v 0 z"
       style="baseline-shift:baseline;display:inline;overflow:visible;vector-effect:none;fill:#8f6102;fill-opacity:0.450717;stroke-linecap:round;stroke-linejoin:round;paint-order:fill markers stroke;enable-background:accumulate;stop-color:#000000"
       id="path28-4" />
    <path
       d="m 172.00839,243.4137 31.4818,-0.0134 a 0.57270998,0.57270998 0 0 0 0.57206,-0.57257 0.57270998,0.57270998 0 0 0 -0.57206,-0.57206 l -31.4787,0.0114 -0.002,0.57361 v 0 z"
       style="baseline-shift:baseline;display:inline;overflow:visible;vector-effect:none;fill:#8f6102;fill-opacity:0.450717;stroke-linecap:round;stroke-linejoin:round;paint-order:fill markers stroke;enable-background:accumulate;stop-color:#000000"
       id="path28-4-3" />
    <path
       d="m 172.85013,179.77554 -26.62163,0.0114 a 0.57270998,0.57270998 0 0 0 -0.57206,0.57257 0.57270998,0.57270998 0 0 0 0.57413,0.57206 l 26.61956,-0.01 v -0.57309 0 z"
       style="baseline-shift:baseline;display:inline;overflow:visible;vector-effect:none;fill:#8f6102;fill-opacity:0.450717;stroke-linecap:round;stroke-linejoin:round;paint-order:fill markers stroke;enable-background:accumulate;stop-color:#000000;stop-opacity:1"
       id="path30" />
    <path
       d="m 128.80424,180.93567 5.70921,-0.002 a 0.57270998,0.57270998 0 0 0 0.57258,-0.57413 0.57270998,0.57270998 0 0 0 -0.57413,-0.57257 l -5.70869,0.003 c 1.4e-4,0.18609 -1.5e-4,0.37736 0,0.57309 v 0 c 1.3e-4,0.18729 7.8e-4,0.37868 0.001,0.57309 z"
       style="baseline-shift:baseline;display:inline;overflow:visible;vector-effect:none;fill:#8f6102;fill-opacity:0.450717;stroke-linecap:round;stroke-linejoin:round;paint-order:fill markers stroke;enable-background:accumulate;stop-color:#000000;stop-opacity:1"
       id="path32" />
    <path
       d="m 258.25112,202.81858 h -18.51308 a 0.64999998,0.64999998 0 0 0 -0.65009,0.65009 0.64999998,0.64999998 0 0 0 0.65009,0.6506 h 18.53375 c -0.002,-0.21682 -0.005,-0.43374 -0.008,-0.65009 v 0 c -0.003,-0.21777 -0.007,-0.43489 -0.0124,-0.6506 z"
       style="baseline-shift:baseline;display:inline;overflow:visible;vector-effect:none;fill:#8f6102;fill-opacity:0.450717;stroke-linecap:round;stroke-linejoin:round;paint-order:fill markers stroke;enable-background:accumulate;stop-color:#000000;stop-opacity:1"
       id="path25" />
    <path
       d="m 258.2568,206.37288 h -8.54211 a 0.34999999,0.34999999 0 0 0 -0.34933,0.34985 0.34999999,0.34999999 0 0 0 0.34933,0.34933 h 8.52144 c 0.004,-0.11512 0.008,-0.23129 0.0114,-0.34881 v 0 c 0.003,-0.11569 0.007,-0.23265 0.009,-0.35037 z"
       style="baseline-shift:baseline;display:inline;overflow:visible;vector-effect:none;fill:#8f6102;fill-opacity:0.450717;stroke-linecap:round;stroke-linejoin:round;paint-order:fill markers stroke;enable-background:accumulate;stop-color:#000000;stop-opacity:1"
       id="path26" />
    <path
       style="fill:#412c01;fill-opacity:0;stroke:#8f6102;stroke-width:0.595675;stroke-linecap:round;stroke-linejoin:round;stroke-dasharray:none;stroke-opacity:0.450717;paint-order:fill markers stroke"
       d="M 247.96923,206.7121 H 237.46605"
       id="path4-3-5" />
    <path
       d="m 263.54227,197.67832 c -0.47482,-0.0311 -2.22762,-0.12421 -4.50722,0.009 -1.62043,0.0949 -1.74464,0.32353 -2.26136,0.48835 -0.51673,0.16482 -1.67369,0.35299 -5.63118,0.42736 -4.09126,0.0769 -12.31036,-0.0367 -12.31036,-0.0367 a 0.36877751,0.36877751 0 0 0 -0.37517,0.36328 0.36877751,0.36877751 0 0 0 0.36328,0.37466 c 0,0 8.2144,0.1126 12.33775,0.0351 3.97737,-0.0747 5.18258,-0.25128 5.83995,-0.46096 0.65736,-0.20969 0.5187,-0.36331 2.07998,-0.45475 2.14644,-0.12571 3.80603,-0.0481 4.34599,-0.015 0.0238,-0.11569 0.0461,-0.23929 0.0661,-0.36484 -0.50272,-0.0322 -2.21308,-0.11918 -4.43332,0.0109 -3.18171,0.18635 0.0284,0.76763 -7.90649,0.91674 0,0 0,0 0,0 7.93486,-0.14911 4.72478,-0.73039 7.90649,-0.91674 2.22024,-0.13003 3.9306,-0.0431 4.43332,-0.0109 0.0195,-0.122 0.0371,-0.24584 0.0522,-0.36587 z"
       style="baseline-shift:baseline;display:inline;overflow:visible;vector-effect:none;fill:#8f6102;fill-opacity:0.450717;stroke-linecap:round;stroke-linejoin:round;paint-order:fill markers stroke;enable-background:accumulate;stop-color:#000000;stop-opacity:1"
       id="path34" />
    <path
       style="fill:#412c01;fill-opacity:0;stroke:#8f6102;stroke-width:1.619;stroke-linecap:round;stroke-linejoin:round;stroke-dasharray:none;stroke-opacity:0.450717;paint-order:fill markers stroke"
       d="M 176.45761,248.0039 H 250.5842"
       id="path35" />
    <path
       style="fill:#412c01;fill-opacity:0;stroke:#8f6102;stroke-width:0.719;stroke-linecap:round;stroke-linejoin:round;stroke-dasharray:none;stroke-opacity:0.450717;paint-order:fill markers stroke"
       d="m 198.37529,252.04487 h 56.77852"
       id="path36" />
    <ellipse
       style="fill:#78550e;fill-opacity:1;stroke:#8f6102;stroke-width:0;stroke-linecap:round;stroke-linejoin:round;stroke-dasharray:none;stroke-opacity:0.450717;paint-order:fill markers stroke"
       id="path37"
       cx="244.13698"
       cy="175.40695"
       rx="1.0408089"
       ry="1.0107857" />
    <ellipse
       style="fill:#78550e;fill-opacity:1;stroke:#8f6102;stroke-width:0;stroke-linecap:round;stroke-linejoin:round;stroke-dasharray:none;stroke-opacity:0.450717;paint-order:fill markers stroke"
       id="path37-2"
       cx="243.65051"
       cy="211.64139"
       rx="0.60263747"
       ry="0.57892507"
       transform="matrix(0.98918644,-0.14666353,0,1,0,0)" />
    <path
       d="m 178.71778,174.8567 a 0.70757675,0.74502478 67.100595 0 0 0.28882,0.73472 0.70757675,0.74502478 67.100595 0 0 0.80381,0.006 0.70757675,0.74502478 67.100595 0 0 -0.28856,-0.73455 0.70757675,0.74502478 67.100595 0 0 -0.80407,-0.006 z"
       style="fill:#f0e869;fill-opacity:1;stroke:#8f6102;stroke-width:0;stroke-linecap:round;stroke-linejoin:round;stroke-opacity:0.450717;paint-order:fill markers stroke"
       id="path40-9" />
    <path
       d="m 183.897,175.91324 c -6.01635,0 -11.36882,0.73809 -11.36882,0.95033 v 1.94872 c 0,0.021 0.0474,0.0414 0.1385,0.0615 0.19517,-0.1577 5.45949,-0.65112 11.36313,-0.65112 6.01634,0 10.19312,0.35579 10.20713,0.50281 l 0.009,0.0946 c 0.001,-0.003 0.002,-0.005 0.002,-0.008 l -0.14418,-2.17506 c -0.014,-0.21177 -4.19027,-0.72399 -10.20661,-0.72399 z"
       style="fill:#412c01;fill-opacity:1;stroke:#8f6102;stroke-width:0;stroke-linecap:round;stroke-linejoin:round;stroke-opacity:0.450717;paint-order:fill markers stroke"
       id="path38" />
    <rect
       style="fill:#412c01;fill-opacity:1;stroke:#8f6102;stroke-width:0;stroke-linecap:round;stroke-linejoin:round;stroke-dasharray:none;stroke-opacity:0.450717;paint-order:fill markers stroke"
       id="rect38"
       width="0.8045308"
       height="6.5554395"
       x="249.46797"
       y="-140.49649"
       rx="32.942398"
       ry="0.48842096"
       transform="matrix(0.23122118,0.97290121,-0.87064649,0.49190922,0,0)" />
    <ellipse
       style="fill:#78550e;fill-opacity:1;stroke:#8f6102;stroke-width:0;stroke-linecap:round;stroke-linejoin:round;stroke-dasharray:none;stroke-opacity:0.450717;paint-order:fill markers stroke"
       id="path37-2-1"
       cx="-99.018829"
       cy="222.70552"
       rx="0.36662018"
       ry="0.3295671"
       transform="matrix(0.28600164,-0.95822913,0.93455927,0.35580748,0,0)" />
    <path
       d="m 178.08453,172.45211 a 1.1826524,1.090097 77.83563 0 0 -0.43254,1.21342 1.1826524,1.090097 77.83563 0 0 0.85972,0.91793 1.1826524,1.090097 77.83563 0 0 0.43265,-1.2129 1.1826524,1.090097 77.83563 0 0 -0.85983,-0.91845 z"
       style="fill:#f0e869;fill-opacity:1;stroke:#8f6102;stroke-width:0;stroke-linecap:round;stroke-linejoin:round;stroke-opacity:0.450717;paint-order:fill markers stroke"
       id="path40" />
    <path
       d="m 198.59942,236.94135 a 0.78425172,0.67218496 37.758592 0 0 -0.081,-0.79806 0.78425172,0.67218496 37.758592 0 0 -0.7725,-0.34137 0.78425172,0.67218496 37.758592 0 0 0.0809,0.79782 0.78425172,0.67218496 37.758592 0 0 0.77273,0.34146 z"
       style="fill:#f0e869;fill-opacity:1;stroke:#8f6102;stroke-width:0;stroke-linecap:round;stroke-linejoin:round;stroke-opacity:0.450717;paint-order:fill markers stroke"
       id="path40-9-1" />
    <rect
       style="fill:#412c01;fill-opacity:1;stroke:#8f6102;stroke-width:0;stroke-linecap:round;stroke-linejoin:round;stroke-dasharray:none;stroke-opacity:0.450717;paint-order:fill markers stroke"
       id="rect38-2"
       width="0.79998666"
       height="6.3887801"
       x="172.85094"
       y="229.4292"
       rx="32.756332"
       ry="0.4760038"
       transform="matrix(0.99932785,0.03665846,0.09400627,0.99557161,0,0)" />
    <ellipse
       style="fill:#78550e;fill-opacity:1;stroke:#8f6102;stroke-width:0;stroke-linecap:round;stroke-linejoin:round;stroke-dasharray:none;stroke-opacity:0.450717;paint-order:fill markers stroke"
       id="path37-2-1-5"
       cx="-303.91733"
       cy="-82.670776"
       rx="0.3414169"
       ry="0.3555015"
       transform="matrix(-0.82146701,-0.57025604,0.6646825,-0.74712594,0,0)" />
    <path
       d="m 192.44825,236.29576 a 1.0477107,1.230498 62.078729 0 0 0.93946,0.74031 1.0477107,1.230498 62.078729 0 0 1.20441,-0.58397 1.0477107,1.230498 62.078729 0 0 -0.93893,-0.74027 1.0477107,1.230498 62.078729 0 0 -1.20494,0.58393 z"
       style="fill:#f0e869;fill-opacity:1;stroke:#8f6102;stroke-width:0;stroke-linecap:round;stroke-linejoin:round;stroke-opacity:0.450717;paint-order:fill markers stroke"
       id="path40-7" />
    <rect
       style="fill:#412c01;fill-opacity:1;stroke:#8f6102;stroke-width:0;stroke-linecap:round;stroke-linejoin:round;stroke-dasharray:none;stroke-opacity:0.450717;paint-order:fill markers stroke"
       id="rect38-29"
       width="0.56463581"
       height="4.0360284"
       x="333.32254"
       y="-162.58801"
       rx="23.119635"
       ry="0.30070919"
       transform="matrix(0.19212845,0.98136979,-0.82466823,0.56561675,0,0)" />
    <ellipse
       style="fill:#78550e;fill-opacity:1;stroke:#8f6102;stroke-width:0;stroke-linecap:round;stroke-linejoin:round;stroke-dasharray:none;stroke-opacity:0.450717;paint-order:fill markers stroke"
       id="path37-2-1-3"
       cx="-133.16463"
       cy="253.15999"
       rx="0.2561065"
       ry="0.19786985"
       transform="matrix(0.2387559,-0.97107962,0.9077388,0.41953578,0,0)" />
  </g>
</svg>
