<?xml version="1.0" encoding="UTF-8" standalone="no"?>
<!-- Created with Inkscape (http://www.inkscape.org/) -->

<svg
   width="94.757469mm"
   height="106.63983mm"
   viewBox="0 0 94.757469 106.63983"
   version="1.1"
   id="svg1"
   inkscape:version="1.4.2 (f4327f4, 2025-05-13)"
   sodipodi:docname="WoodsStump1.svg"
   xmlns:inkscape="http://www.inkscape.org/namespaces/inkscape"
   xmlns:sodipodi="http://sodipodi.sourceforge.net/DTD/sodipodi-0.dtd"
   xmlns="http://www.w3.org/2000/svg"
   xmlns:svg="http://www.w3.org/2000/svg">
  <sodipodi:namedview
     id="namedview1"
     pagecolor="#ffffff"
     bordercolor="#000000"
     borderopacity="0.25"
     inkscape:showpageshadow="2"
     inkscape:pageopacity="0.0"
     inkscape:pagecheckerboard="0"
     inkscape:deskcolor="#d1d1d1"
     inkscape:document-units="mm"
     inkscape:zoom="3.2159792"
     inkscape:cx="126.55554"
     inkscape:cy="214.08721"
     inkscape:window-width="3840"
     inkscape:window-height="2054"
     inkscape:window-x="-11"
     inkscape:window-y="-11"
     inkscape:window-maximized="1"
     inkscape:current-layer="layer1" />
  <defs
     id="defs1">
    <inkscape:path-effect
       effect="fillet_chamfer"
       id="path-effect205"
       is_visible="true"
       lpeversion="1"
       nodesatellites_param="F,0,0,1,0,0,0,1 @ F,0,0,1,0,0,0,1 @ F,0,0,1,0,0,0,1 @ F,0,0,1,0,8.0960736,0,1 @ F,0,0,1,0,0,0,1 @ F,0,0,1,0,0,0,1 @ F,0,0,1,0,0,0,1 @ F,0,0,1,0,0,0,1 @ F,0,0,1,0,0,0,1 @ F,0,0,1,0,0,0,1"
       radius="0"
       unit="px"
       method="auto"
       mode="F"
       chamfer_steps="1"
       flexible="false"
       use_knot_distance="true"
       apply_no_radius="true"
       apply_with_radius="true"
       only_selected="false"
       hide_knots="false" />
    <inkscape:path-effect
       effect="fillet_chamfer"
       id="path-effect204"
       is_visible="true"
       lpeversion="1"
       nodesatellites_param="F,0,0,1,0,0,0,1 @ F,0,0,1,0,7.2830812,0,1 @ F,0,0,1,0,0,0,1 @ F,0,0,1,0,0,0,1"
       radius="0"
       unit="px"
       method="auto"
       mode="F"
       chamfer_steps="1"
       flexible="false"
       use_knot_distance="true"
       apply_no_radius="true"
       apply_with_radius="true"
       only_selected="false"
       hide_knots="false" />
    <inkscape:path-effect
       effect="fillet_chamfer"
       id="path-effect201"
       is_visible="true"
       lpeversion="1"
       nodesatellites_param="F,0,1,1,0,0,0,1 @ F,0,0,1,0,0,0,1 @ F,0,0,1,0,2.8301379,0,1 @ F,0,0,1,0,5.0309004,0,1 @ F,0,0,1,0,2.2665793,0,1 @ F,0,0,1,0,0.64888175,0,1 @ F,0,0,1,0,0,0,1"
       radius="0"
       unit="px"
       method="auto"
       mode="F"
       chamfer_steps="1"
       flexible="false"
       use_knot_distance="true"
       apply_no_radius="true"
       apply_with_radius="true"
       only_selected="false"
       hide_knots="false" />
    <inkscape:path-effect
       effect="spiro"
       id="path-effect1"
       is_visible="true"
       lpeversion="1" />
    <inkscape:path-effect
       effect="spiro"
       id="path-effect2"
       is_visible="true"
       lpeversion="1" />
    <inkscape:path-effect
       effect="spiro"
       id="path-effect1-6"
       is_visible="true"
       lpeversion="1" />
    <inkscape:path-effect
       effect="spiro"
       id="path-effect2-1"
       is_visible="true"
       lpeversion="1" />
  </defs>
  <g
     inkscape:label="Ebene 1"
     inkscape:groupmode="layer"
     id="layer1"
     transform="translate(-97.074463,-82.459994)">
    <path
       id="path3"
       style="display:inline;fill:#413214;fill-opacity:0.353943;stroke:#3f321d;stroke-width:0;stroke-linecap:round;stroke-linejoin:round;paint-order:fill markers stroke"
       d="M 101.51605 124.583 L 97.797933 124.583 L 97.797933 163.10468 C 97.751133 163.66544 97.824623 164.11356 97.99327 164.45396 C 98.06898 164.6924 98.197185 164.91082 98.368441 165.09319 L 120.44668 188.62406 C 120.48098 188.66066 120.51678 188.69566 120.55417 188.72896 C 120.62257 188.78986 120.69586 188.84494 120.77327 188.89381 C 120.80137 188.90281 120.83027 188.90724 120.85957 188.90724 L 122.54526 188.90414 L 161.562 188.8442 C 162.78264 191.02086 163.00637 178.60798 163.00636 177.44954 L 163.75256 171.74705 C 163.93876 170.32439 164.31351 169.36218 164.96231 168.73483 L 159.3549 165.21205 C 159.30664 168.80276 159.34506 172.34811 159.33888 175.86411 C 147.28742 175.88471 135.22925 175.86908 123.16589 175.87548 C 123.5932 175.92098 119.47826 175.76954 119.47826 175.76954 L 119.47826 176.95345 C 119.4783 177.61538 119.46756 180.21796 119.59712 182.82648 C 118.08845 181.68814 115.79515 180.64864 108.92645 173.36969 C 102.61755 166.68401 101.84163 164.17351 101.38169 163.41113 L 101.38169 163.41061 C 101.496 162.67505 101.4698 161.83587 101.4804 161.11721 C 101.4744 158.57722 101.47136 156.03448 101.47006 153.49028 C 101.50346 153.33837 101.52122 153.24585 101.52122 153.24585 C 101.49962 144.29233 101.51825 135.30561 101.50985 126.3338 C 101.50986 126.33295 101.50985 126.3307 101.50985 126.3307 C 101.50985 126.3247 101.50986 126.31881 101.50985 126.31261 C 101.51346 125.73402 101.51567 125.15768 101.51605 124.583 z " />
    <path
       id="path136"
       style="display:inline;fill:#412c01;stroke:#3f321d;stroke-width:0;stroke-linecap:round;stroke-linejoin:round;paint-order:fill markers stroke"
       d="M 100.27582 124.53908 L 97.881132 124.43056 L 97.881132 154.62096 C 97.923732 156.21375 98.079821 156.82048 99.182861 156.80481 C 100.46672 156.86071 100.21864 154.42529 100.2443 152.67793 C 100.2383 150.13795 100.23526 147.59521 100.23396 145.05101 C 100.26736 144.8991 100.28512 144.80658 100.28512 144.80658 C 100.26885 138.06273 100.27519 131.30004 100.27582 124.53908 z " />
    <path
       id="path1"
       style="display:inline;fill:#412c01;fill-opacity:1;stroke:#3f321d;stroke-width:0;stroke-linecap:round;stroke-linejoin:round;stroke-dasharray:none;stroke-opacity:1;paint-order:fill markers stroke"
       d="M 162.97277 167.9478 L 159.20142 163.91084 C 159.20302 164.69242 159.20382 165.47271 159.20245 166.25126 C 147.15538 166.27186 135.10135 166.25623 123.04239 166.26263 C 122.76405 166.22353 119.34184 165.80529 119.34184 165.80529 L 119.34184 167.3406 C 119.34186 167.60945 119.38264 167.86879 119.45863 168.11265 L 119.4209 175.43985 L 119.44984 175.44037 C 119.53364 176.79724 120.66037 177.87217 122.03831 177.87226 L 160.87522 177.87226 C 162.03367 177.87228 162.97279 176.93316 162.97277 175.77471 L 162.97277 167.9478 z " />
    <path
       d="m 135.55474,177.87231 v -1.99781 c -4.12893,-6.4e-4 -8.2587,-6.5e-4 -12.38891,0.002 0.41325,0.044 -3.42136,-0.0962 -3.67419,-0.10542 0.23021,1.19681 1.2827,2.10159 2.54661,2.10168 z"
       style="display:inline;fill:#413214;fill-opacity:0.353943;stroke:#251c08;stroke-width:0;stroke-linecap:round;stroke-linejoin:round"
       id="path87" />
    <path
       d="m 139.02946,177.87231 v -1.9973 c -0.49152,-7e-5 -0.9833,8e-5 -1.47484,0 v 1.9973 z"
       style="display:inline;fill:#413214;fill-opacity:0.353943;stroke:#251c08;stroke-width:0;stroke-linecap:round;stroke-linejoin:round"
       id="path84" />
    <path
       d="m 144.35162,177.87231 v -1.99678 c -1.30722,6e-5 -2.61437,1.4e-4 -3.92173,0 v 1.99678 z"
       style="display:inline;fill:#413214;fill-opacity:0.353943;stroke:#251c08;stroke-width:0;stroke-linecap:round;stroke-linejoin:round"
       id="path81" />
    <path
       d="m 152.22246,177.87231 v -1.99936 c -1.82408,0.001 -3.64817,0.002 -5.47254,0.002 v 1.9973 z"
       style="display:inline;fill:#413214;fill-opacity:0.353943;stroke:#251c08;stroke-width:0;stroke-linecap:round;stroke-linejoin:round"
       id="path78" />
    <path
       d="m 125.59204,166.26165 v 8.00002 a 1.4995,1.4995 0 0 0 1.49965,1.50017 1.4995,1.4995 0 0 0 1.50017,-1.50017 v -8.00106 c -0.49986,4e-5 -0.99978,4.3e-4 -1.49965,5.2e-4 v 0 c -0.50013,9e-5 -1.00003,3.7e-4 -1.50017,5.2e-4 z"
       style="baseline-shift:baseline;display:inline;overflow:visible;vector-effect:none;fill:#8f6102;fill-opacity:0.450717;stroke-linecap:round;stroke-linejoin:round;paint-order:fill markers stroke;enable-background:accumulate;stop-color:#000000;stop-opacity:1"
       id="path89" />
    <path
       d="m 139.72916,166.26216 v 9.61337 c 0.23348,3e-5 0.46726,-3e-5 0.70073,0 v -9.61337 c -0.23347,-2e-5 -0.46725,3e-5 -0.70073,0 z"
       style="baseline-shift:baseline;display:inline;overflow:visible;vector-effect:none;fill:#8f6102;fill-opacity:0.450717;stroke-linecap:round;stroke-linejoin:round;paint-order:fill markers stroke;enable-background:accumulate;stop-color:#000000;stop-opacity:1"
       id="path94" />
    <path
       d="m 139.02946,166.26165 v 9.61336 c 0.23332,4e-5 0.46639,4.9e-4 0.6997,5.2e-4 v -9.61337 c -0.23331,-3e-5 -0.46638,-4.8e-4 -0.6997,-5.1e-4 z"
       style="baseline-shift:baseline;display:inline;overflow:visible;vector-effect:none;fill:#8f6102;fill-opacity:0.450717;stroke-linecap:round;stroke-linejoin:round;paint-order:fill markers stroke;enable-background:accumulate;stop-color:#000000;stop-opacity:1"
       id="path93" />
    <path
       d="m 139.72916,177.87231 v -1.99678 c -0.23331,-3e-5 -0.46638,-4.8e-4 -0.6997,-5.2e-4 v 1.9973 z"
       style="baseline-shift:baseline;display:inline;overflow:visible;vector-effect:none;fill:#8f6102;fill-opacity:0.450717;stroke-linecap:round;stroke-linejoin:round;paint-order:fill markers stroke;enable-background:accumulate;stop-color:#000000;stop-opacity:1"
       id="path83" />
    <path
       d="m 140.42989,177.87231 v -1.99678 c -0.23347,-3e-5 -0.46725,3e-5 -0.70073,0 v 1.99678 z"
       style="baseline-shift:baseline;display:inline;overflow:visible;vector-effect:none;fill:#8f6102;fill-opacity:0.450717;stroke-linecap:round;stroke-linejoin:round;paint-order:fill markers stroke;enable-background:accumulate;stop-color:#000000;stop-opacity:1"
       id="path82" />
    <path
       d="m 145.55,166.26216 v 9.61337 c 0.39997,-5e-5 0.79996,-4.4e-4 1.19992,-5.2e-4 v -9.61336 c -0.39996,8e-5 -0.79995,4.6e-4 -1.19992,5.1e-4 z"
       style="baseline-shift:baseline;display:inline;overflow:visible;vector-effect:none;fill:#8f6102;fill-opacity:0.450717;stroke-linecap:round;stroke-linejoin:round;paint-order:fill markers stroke;enable-background:accumulate;stop-color:#000000;stop-opacity:1"
       id="path97" />
    <path
       d="m 144.35162,166.26216 v 9.61337 c 0.39952,-2e-5 0.79887,5e-5 1.19838,0 v -9.61337 c -0.39951,5e-5 -0.79886,-2e-5 -1.19838,0 z"
       style="baseline-shift:baseline;display:inline;overflow:visible;vector-effect:none;fill:#8f6102;fill-opacity:0.450717;stroke-linecap:round;stroke-linejoin:round;paint-order:fill markers stroke;enable-background:accumulate;stop-color:#000000;stop-opacity:1"
       id="path96" />
    <path
       d="m 145.55,177.87231 v -1.99678 c -0.39951,5e-5 -0.79886,-2e-5 -1.19838,0 v 1.99678 z"
       style="baseline-shift:baseline;display:inline;overflow:visible;vector-effect:none;fill:#8f6102;fill-opacity:0.450717;stroke-linecap:round;stroke-linejoin:round;paint-order:fill markers stroke;enable-background:accumulate;stop-color:#000000;stop-opacity:1"
       id="path80" />
    <path
       d="m 146.74992,177.87231 v -1.9973 c -0.39996,8e-5 -0.79995,4.7e-4 -1.19992,5.2e-4 v 1.99678 z"
       style="baseline-shift:baseline;display:inline;overflow:visible;vector-effect:none;fill:#8f6102;fill-opacity:0.450717;stroke-linecap:round;stroke-linejoin:round;paint-order:fill markers stroke;enable-background:accumulate;stop-color:#000000;stop-opacity:1"
       id="path79" />
    <path
       d="m 153.22291,166.25855 v 9.61336 c 0.33323,-2.8e-4 0.66673,-2e-4 0.99994,-5.1e-4 v -9.61389 c -0.33321,3.3e-4 -0.66671,7.5e-4 -0.99994,0.001 z"
       style="baseline-shift:baseline;display:inline;overflow:visible;vector-effect:none;fill:#8f6102;fill-opacity:0.450717;stroke-linecap:round;stroke-linejoin:round;paint-order:fill markers stroke;enable-background:accumulate;stop-color:#000000;stop-opacity:1"
       id="path100" />
    <path
       d="m 152.22246,166.25958 v 9.61337 c 0.33345,-2.4e-4 0.66701,-7.6e-4 1.00045,-0.001 v -9.61336 c -0.33344,2.8e-4 -0.667,7.9e-4 -1.00045,0.001 z"
       style="baseline-shift:baseline;display:inline;overflow:visible;vector-effect:none;fill:#8f6102;fill-opacity:0.450717;stroke-linecap:round;stroke-linejoin:round;paint-order:fill markers stroke;enable-background:accumulate;stop-color:#000000;stop-opacity:1"
       id="path99" />
    <path
       d="m 153.22291,177.87231 v -2.0004 c -0.33344,2.8e-4 -0.667,8e-4 -1.00045,10e-4 v 1.99936 z"
       style="baseline-shift:baseline;display:inline;overflow:visible;vector-effect:none;fill:#8f6102;fill-opacity:0.450717;stroke-linecap:round;stroke-linejoin:round;paint-order:fill markers stroke;enable-background:accumulate;stop-color:#000000;stop-opacity:1"
       id="path77" />
    <path
       d="m 154.22285,177.87231 v -2.00091 c -0.33321,3.1e-4 -0.66671,2.3e-4 -0.99994,5.1e-4 v 2.0004 z"
       style="baseline-shift:baseline;display:inline;overflow:visible;vector-effect:none;fill:#8f6102;fill-opacity:0.450717;stroke-linecap:round;stroke-linejoin:round;paint-order:fill markers stroke;enable-background:accumulate;stop-color:#000000;stop-opacity:1"
       id="path76" />
    <path
       d="m 136.55416,166.26165 v 9.61336 c 0.33349,6e-5 0.66698,-5e-5 1.00046,0 v -9.61336 c -0.33348,-6e-5 -0.66697,5e-5 -1.00046,0 z"
       style="baseline-shift:baseline;display:inline;overflow:visible;vector-effect:none;fill:#8f6102;fill-opacity:0.450717;stroke-linecap:round;stroke-linejoin:round;paint-order:fill markers stroke;enable-background:accumulate;stop-color:#000000;stop-opacity:1"
       id="path91" />
    <path
       d="m 135.55474,166.26113 v 9.61337 c 0.33319,5e-5 0.66624,4.6e-4 0.99942,5.1e-4 v -9.61336 c -0.33318,-6e-5 -0.66623,-4.7e-4 -0.99942,-5.2e-4 z"
       style="baseline-shift:baseline;display:inline;overflow:visible;vector-effect:none;fill:#8f6102;fill-opacity:0.450717;stroke-linecap:round;stroke-linejoin:round;paint-order:fill markers stroke;enable-background:accumulate;stop-color:#000000;stop-opacity:1"
       id="path90" />
    <path
       d="m 136.55416,177.87231 v -1.9973 c -0.33318,-5e-5 -0.66623,-4.6e-4 -0.99942,-5.1e-4 v 1.99781 z"
       style="baseline-shift:baseline;display:inline;overflow:visible;vector-effect:none;fill:#8f6102;fill-opacity:0.450717;stroke-linecap:round;stroke-linejoin:round;paint-order:fill markers stroke;enable-background:accumulate;stop-color:#000000;stop-opacity:1"
       id="path86" />
    <path
       d="m 137.55462,177.87231 v -1.9973 c -0.33348,-5e-5 -0.66697,6e-5 -1.00046,0 v 1.9973 z"
       style="baseline-shift:baseline;display:inline;overflow:visible;vector-effect:none;fill:#8f6102;fill-opacity:0.450717;stroke-linecap:round;stroke-linejoin:round;paint-order:fill markers stroke;enable-background:accumulate;stop-color:#000000;stop-opacity:1"
       id="path85" />
    <path
       d="m 117.62298,154.2911 a 1.0596717,1.3188208 80.70538 0 0 1.1294,-0.82052 1.0596717,1.3188208 80.70538 0 0 -0.4054,-1.08763 1.0596717,1.3188208 80.70538 0 0 -1.12918,0.82018 1.0596717,1.3188208 80.70538 0 0 0.40556,1.08797 z"
       style="fill:#f0e869;fill-opacity:1;stroke:#8f6102;stroke-width:0;stroke-linecap:round;stroke-linejoin:round;stroke-opacity:0.450717;paint-order:fill markers stroke"
       id="path40-9-1" />
    <rect
       style="fill:#412c01;fill-opacity:1;stroke:#8f6102;stroke-width:0;stroke-linecap:round;stroke-linejoin:round;stroke-dasharray:none;stroke-opacity:0.450717;paint-order:fill markers stroke"
       id="rect38-2"
       width="1.234179"
       height="11.143738"
       x="192.21272"
       y="33.338882"
       rx="50.534817"
       ry="0.83027768"
       transform="matrix(0.74349857,0.66873752,-0.81261422,0.58280196,0,0)" />
    <ellipse
       style="fill:#78550e;fill-opacity:1;stroke:#8f6102;stroke-width:0;stroke-linecap:round;stroke-linejoin:round;stroke-dasharray:none;stroke-opacity:0.450717;paint-order:fill markers stroke"
       id="path37-2-1-5"
       cx="-150.72684"
       cy="103.28829"
       rx="0.46205556"
       ry="0.69297057"
       transform="matrix(-0.08311582,-0.99653989,0.9998906,-0.0147914,0,0)" />
    <path
       d="m 111.20827,147.5515 a 2.3481778,1.4554731 1.4948822 0 0 -0.007,1.62408 2.3481778,1.4554731 1.4948822 0 0 2.34816,0.66122 2.3481778,1.4554731 1.4948822 0 0 0.007,-1.6235 2.3481778,1.4554731 1.4948822 0 0 -2.34875,-0.6618 z"
       style="fill:#f0e869;fill-opacity:1;stroke:#8f6102;stroke-width:0;stroke-linecap:round;stroke-linejoin:round;stroke-opacity:0.450717;paint-order:fill markers stroke"
       id="path40-7-7" />
    <rect
       style="fill:#412c01;fill-opacity:1;stroke:#8f6102;stroke-width:0;stroke-linecap:round;stroke-linejoin:round;stroke-dasharray:none;stroke-opacity:0.450717;paint-order:fill markers stroke"
       id="rect38-29"
       width="0.95234698"
       height="7.6140704"
       x="171.59023"
       y="-252.95895"
       rx="38.994896"
       ry="0.56729555"
       transform="matrix(-0.75736971,0.65298631,-0.98734994,-0.15855627,0,0)" />
    <ellipse
       style="fill:#78550e;fill-opacity:1;stroke:#8f6102;stroke-width:0;stroke-linecap:round;stroke-linejoin:round;stroke-dasharray:none;stroke-opacity:0.450717;paint-order:fill markers stroke"
       id="path37-2-1-3"
       cx="62.736343"
       cy="184.37503"
       rx="0.48645744"
       ry="0.27116784"
       transform="matrix(0.93737073,-0.34833334,0.32697235,0.94503391,0,0)" />
    <path
       d="m 115.76436,163.13982 -0.0212,0.91054 c 0.5454,0.64985 1.05262,1.2794 1.51774,1.88258 l 0.0295,-1.26298 z"
       style="baseline-shift:baseline;display:inline;overflow:visible;vector-effect:none;fill:#644301;fill-opacity:1;stroke-width:1.34219;stroke-linecap:round;stroke-linejoin:round;paint-order:fill markers stroke;enable-background:accumulate;stop-color:#000000"
       id="path189" />
    <path
       d="m 112.21109,159.57673 -0.005,0.54261 c 1.30012,1.35857 2.48885,2.68246 3.53674,3.93102 l 0.0212,-0.91054 z"
       style="baseline-shift:baseline;display:inline;overflow:visible;vector-effect:none;fill:#412c01;stroke-linecap:round;stroke-linejoin:round;paint-order:fill markers stroke;enable-background:accumulate;stop-color:#000000;stop-opacity:1"
       id="path188" />
    <path
       d="m 111.64678,159.01088 -0.004,0.52451 c 0.19009,0.19526 0.37817,0.38998 0.56379,0.58395 l 0.005,-0.54261 z"
       style="baseline-shift:baseline;display:inline;overflow:visible;vector-effect:none;fill:#644301;fill-opacity:1;stroke-width:0.810255;stroke-linecap:round;stroke-linejoin:round;paint-order:fill markers stroke;enable-background:accumulate;stop-color:#000000"
       id="path187" />
    <path
       d="m 106.42126,153.7714 -0.01,0.77412 c 1.17223,1.0349 2.38291,2.16056 3.60495,3.35845 0.55749,0.54647 1.10049,1.09137 1.62625,1.63142 l 0.004,-0.52451 z"
       style="baseline-shift:baseline;display:inline;overflow:visible;vector-effect:none;fill:#412c01;stroke-linecap:round;stroke-linejoin:round;paint-order:fill markers stroke;enable-background:accumulate;stop-color:#000000;stop-opacity:1"
       id="path186" />
    <path
       d="m 105.5655,152.91306 -0.0114,0.88573 c 0.28315,0.2432 0.56913,0.49231 0.85731,0.74673 l 0.01,-0.77412 z"
       style="baseline-shift:baseline;display:inline;overflow:visible;vector-effect:none;fill:#644301;fill-opacity:1;stroke-linecap:round;stroke-linejoin:round;paint-order:fill markers stroke;enable-background:accumulate;stop-color:#000000"
       id="path185" />
    <path
       d="m 104.27152,151.61546 -0.0264,1.08366 c 0.42863,0.35167 0.86548,0.71877 1.30897,1.09967 l 0.0114,-0.88573 v -5.2e-4 z"
       style="baseline-shift:baseline;display:inline;overflow:visible;vector-effect:none;fill:#412c01;stroke-linecap:round;stroke-linejoin:round;paint-order:fill markers stroke;enable-background:accumulate;stop-color:#000000;stop-opacity:1"
       id="path184" />
    <path
       d="m 102.64009,151.42374 c 0.51928,0.39885 1.05564,0.8246 1.60507,1.27538 l 0.0264,-1.08417 -1.59732,-1.60146 z"
       style="baseline-shift:baseline;display:inline;overflow:visible;vector-effect:none;fill:#644301;fill-opacity:1;stroke-width:1.37381;stroke-linecap:round;stroke-linejoin:round;paint-order:fill markers stroke;enable-background:accumulate;stop-color:#000000"
       id="path183" />
    <path
       d="m 117.34049,162.51971 -0.0501,2.15025 v 0 l -0.0295,1.26298 c 0.85669,1.11099 1.57027,2.13333 2.11511,3.0303 l 0.14263,0.14314 a 1.55351,1.55351 0 0 0 2.19728,0.002 1.55351,1.55351 0 0 0 0.004,-2.19728 z"
       style="baseline-shift:baseline;display:inline;overflow:visible;vector-effect:none;fill:#412c01;stroke-linecap:round;stroke-linejoin:round;paint-order:fill markers stroke;enable-background:accumulate;stop-color:#000000;stop-opacity:1"
       id="path182" />
    <path
       d="m 115.81397,160.98957 -0.0496,2.15025 1.526,1.53014 0.0501,-2.15025 z"
       style="baseline-shift:baseline;display:inline;overflow:visible;vector-effect:none;fill:#644301;fill-opacity:1;stroke-width:1.34219;stroke-linecap:round;stroke-linejoin:round;paint-order:fill markers stroke;enable-background:accumulate;stop-color:#000000"
       id="path181" />
    <path
       d="m 112.22969,157.39547 -0.0186,2.18126 3.55327,3.56309 0.0496,-2.15025 z"
       style="baseline-shift:baseline;display:inline;overflow:visible;vector-effect:none;fill:#412c01;stroke-linecap:round;stroke-linejoin:round;paint-order:fill markers stroke;enable-background:accumulate;stop-color:#000000;stop-opacity:1"
       id="path180" />
    <path
       d="m 111.66538,156.82961 -0.0186,2.18127 0.56431,0.56585 0.0186,-2.18126 z"
       style="baseline-shift:baseline;display:inline;overflow:visible;vector-effect:none;fill:#644301;fill-opacity:1;stroke-width:0.810255;stroke-linecap:round;stroke-linejoin:round;paint-order:fill markers stroke;enable-background:accumulate;stop-color:#000000"
       id="path179" />
    <path
       d="m 106.44968,151.59944 -0.0284,2.17145 v 5.1e-4 l 5.22552,5.23948 0.0186,-2.18127 v -5.1e-4 z"
       style="baseline-shift:baseline;display:inline;overflow:visible;vector-effect:none;fill:#412c01;stroke-linecap:round;stroke-linejoin:round;paint-order:fill markers stroke;enable-background:accumulate;stop-color:#000000;stop-opacity:1"
       id="path178" />
    <path
       d="m 105.5934,150.7411 -0.0279,2.17196 0.85576,0.85783 0.0284,-2.17145 z"
       style="baseline-shift:baseline;display:inline;overflow:visible;vector-effect:none;fill:#644301;fill-opacity:1;stroke-linecap:round;stroke-linejoin:round;paint-order:fill markers stroke;enable-background:accumulate;stop-color:#000000"
       id="path177" />
    <path
       d="m 104.32371,149.46779 -0.0522,2.14716 v 5.1e-4 l 1.29398,1.29708 0.0279,-2.17144 z"
       style="baseline-shift:baseline;display:inline;overflow:visible;vector-effect:none;fill:#412c01;stroke-linecap:round;stroke-linejoin:round;paint-order:fill markers stroke;enable-background:accumulate;stop-color:#000000;stop-opacity:1"
       id="path176" />
    <path
       d="m 102.72639,147.86634 -0.0522,2.14715 1.59732,1.60146 0.0522,-2.14716 z"
       style="baseline-shift:baseline;display:inline;overflow:visible;vector-effect:none;fill:#644301;fill-opacity:1;stroke-width:1.37381;stroke-linecap:round;stroke-linejoin:round;paint-order:fill markers stroke;enable-background:accumulate;stop-color:#000000"
       id="path175" />
    <path
       d="m 99.495582,145.27063 a 1.55351,1.55351 0 0 0 -1.099674,0.45269 v 5.1e-4 a 1.55351,1.55351 0 0 0 -0.0021,2.19728 l 1.612822,1.61748 c 0.81048,0.53117 1.6948,1.16421 2.63343,1.88515 l 0.0341,-1.41025 v 0 l 0.0522,-2.14715 -2.1332,-2.13889 a 1.55351,1.55351 0 0 0 -1.097611,-0.45682 z"
       style="baseline-shift:baseline;display:inline;overflow:visible;vector-effect:none;fill:#412c01;stroke-linecap:round;stroke-linejoin:round;paint-order:fill markers stroke;enable-background:accumulate;stop-color:#000000;stop-opacity:1"
       id="path174" />
  </g>
</svg>
