<?xml version="1.0" encoding="UTF-8" standalone="no"?>
<!-- Created with Inkscape (http://www.inkscape.org/) -->

<svg
   width="41.184624mm"
   height="81.923561mm"
   viewBox="0 0 41.184624 81.923561"
   version="1.1"
   id="svg1"
   inkscape:version="1.4.2 (f4327f4, 2025-05-13)"
   sodipodi:docname="WoodsFallenTreeSmall.svg"
   xmlns:inkscape="http://www.inkscape.org/namespaces/inkscape"
   xmlns:sodipodi="http://sodipodi.sourceforge.net/DTD/sodipodi-0.dtd"
   xmlns="http://www.w3.org/2000/svg"
   xmlns:svg="http://www.w3.org/2000/svg">
  <sodipodi:namedview
     id="namedview1"
     pagecolor="#ffffff"
     bordercolor="#000000"
     borderopacity="0.25"
     inkscape:showpageshadow="2"
     inkscape:pageopacity="0.0"
     inkscape:pagecheckerboard="0"
     inkscape:deskcolor="#d1d1d1"
     inkscape:document-units="mm"
     inkscape:zoom="1.6275884"
     inkscape:cx="-155.1375"
     inkscape:cy="111.51468"
     inkscape:window-width="3840"
     inkscape:window-height="2054"
     inkscape:window-x="-11"
     inkscape:window-y="-11"
     inkscape:window-maximized="1"
     inkscape:current-layer="layer1" />
  <defs
     id="defs1">
    <inkscape:path-effect
       effect="spiro"
       id="path-effect2-1-8-4"
       is_visible="true"
       lpeversion="1" />
    <inkscape:path-effect
       effect="spiro"
       id="path-effect2-1-8"
       is_visible="true"
       lpeversion="1" />
    <inkscape:path-effect
       effect="spiro"
       id="path-effect1-8-7"
       is_visible="true"
       lpeversion="1" />
    <inkscape:path-effect
       effect="spiro"
       id="path-effect2-1"
       is_visible="true"
       lpeversion="1" />
    <inkscape:path-effect
       effect="spiro"
       id="path-effect1-8"
       is_visible="true"
       lpeversion="1" />
    <inkscape:path-effect
       effect="spiro"
       id="path-effect2"
       is_visible="true"
       lpeversion="1" />
    <inkscape:path-effect
       effect="spiro"
       id="path-effect1"
       is_visible="true"
       lpeversion="1" />
  </defs>
  <g
     inkscape:label="Ebene 1"
     inkscape:groupmode="layer"
     id="layer1"
     transform="translate(-146.05001,-119.0625)">
    <path
       d="m 149.46068,122.71808 a 1.9348278,2.6465274 12.452364 0 0 -2.17652,0.82186 1.9348278,2.6465274 12.452364 0 0 -0.53128,2.82884 1.9348278,2.6465274 12.452364 0 0 2.17589,-0.82095 1.9348278,2.6465274 12.452364 0 0 0.53191,-2.82975 z"
       style="fill:#dff069;fill-opacity:1;stroke:#8f6102;stroke-width:0;stroke-linecap:round;stroke-linejoin:round;stroke-opacity:0.450717;paint-order:fill markers stroke"
       id="path40-8-1-3" />
    <path
       id="path122"
       style="baseline-shift:baseline;display:inline;overflow:visible;vector-effect:none;fill:#2f2001;fill-opacity:0.245311;stroke-linecap:round;stroke-linejoin:round;paint-order:fill markers stroke;enable-background:accumulate;stop-color:#000000"
       d="m 163.78399,123.88682 c -0.49481,1e-5 -0.97688,0.0359 -1.45159,0.0889 -0.13949,0.0156 -0.27588,0.0379 -0.41341,0.0579 -0.3441,0.05 -0.68207,0.11308 -1.01286,0.18965 -0.0841,0.0195 -0.16845,0.0383 -0.25167,0.0594 -0.0587,0.0149 -0.11907,0.0266 -0.17725,0.0424 -0.21824,0.059 -0.43046,0.12765 -0.64182,0.19792 -0.11414,0.0379 -0.22852,0.0757 -0.34055,0.11679 -0.0411,0.0151 -0.0842,0.0274 -0.12505,0.0429 -0.25724,0.0978 -0.50474,0.20874 -0.74983,0.32298 -0.094,0.0438 -0.19154,0.083 -0.2837,0.12919 -0.0149,0.008 -0.0311,0.0131 -0.046,0.0207 -0.44257,0.22428 -0.85773,0.48057 -1.25315,0.75603 -0.14977,0.10435 -0.29787,0.21022 -0.44029,0.32143 -0.0758,0.0592 -0.15369,0.11667 -0.22737,0.17776 -0.2427,0.20126 -0.47729,0.40966 -0.69557,0.63046 -0.29321,0.29657 -0.56366,0.61017 -0.80925,0.93896 -0.23318,0.31219 -0.43605,0.64264 -0.6227,0.98081 -0.0436,0.0789 -0.0898,0.15645 -0.13074,0.23668 -0.0196,0.0386 -0.0373,0.0779 -0.0563,0.11679 -0.0173,0.0352 -0.0344,0.0704 -0.0512,0.10594 -0.0904,0.19144 -0.17296,0.38629 -0.24805,0.58446 -0.0216,0.057 -0.0459,0.11301 -0.0661,0.17053 -0.0879,0.2492 -0.16343,0.50367 -0.22634,0.76223 -0.015,0.0617 -0.0257,0.12488 -0.0393,0.18707 -0.0454,0.20838 -0.0825,0.41935 -0.11111,0.63303 -0.0104,0.0778 -0.0208,0.1556 -0.0289,0.2341 -0.0282,0.27237 -0.0481,0.54716 -0.0481,0.82682 -0.0352,11.78309 0.0455,40.65167 0.0475,61.29342 a 10.640668,6.8521223 0 0 1 0.0584,-0.56586 10.640668,6.8521223 0 0 0 -0.0584,0.58756 10.640668,6.8521223 0 0 0 0.0351,0.555 10.640668,6.8521223 0 0 0 10.60556,6.29729 10.640668,6.8521223 0 0 0 10.64069,-6.85229 10.640668,6.8521223 0 0 0 -0.0388,-0.58291 10.640668,6.8521223 0 0 1 0,-5.2e-4 V 132.8631 c 0,-0.14573 -0.0107,-0.28877 -0.031,-0.42788 -0.029,-0.42169 -0.0949,-0.834 -0.18914,-1.23765 -0.0191,-0.0817 -0.044,-0.16146 -0.0656,-0.24237 -0.0495,-0.18507 -0.10336,-0.36886 -0.16589,-0.54932 -0.0116,-0.0335 -0.0251,-0.0664 -0.0372,-0.0997 -0.0162,-0.0448 -0.0326,-0.0894 -0.0496,-0.13384 -0.11977,-0.31396 -0.25212,-0.62329 -0.4098,-0.92087 -0.13943,-0.26315 -0.29321,-0.51951 -0.46043,-0.76843 -0.19473,-0.28986 -0.41149,-0.56713 -0.64131,-0.83561 -0.0767,-0.0896 -0.16197,-0.17288 -0.24236,-0.25993 -0.16185,-0.17524 -0.32701,-0.3481 -0.50333,-0.51263 -0.0338,-0.0316 -0.0705,-0.0608 -0.1049,-0.092 -0.1055,-0.0957 -0.21172,-0.19092 -0.32195,-0.28267 -0.0834,-0.0694 -0.1646,-0.14066 -0.25063,-0.20774 -0.0277,-0.0216 -0.0583,-0.0406 -0.0863,-0.062 -0.21407,-0.16345 -0.43029,-0.32533 -0.65939,-0.47388 -0.5259,-0.34096 -1.09008,-0.64171 -1.68568,-0.89658 -0.28007,-0.11985 -0.56709,-0.22957 -0.86042,-0.32866 -0.28122,-0.095 -0.56823,-0.17982 -0.86041,-0.25477 -0.49376,-0.12666 -1.00199,-0.22424 -1.52239,-0.2899 -0.52041,-0.0656 -1.05301,-0.0997 -1.59422,-0.0997 z m -4.96042,3.69797 0.67127,0.49764 1.15962,0.8599 5.35575,3.97185 0.89038,2.25567 0.86042,2.18023 0.3545,0.89814 -0.3545,11.83029 v 5.1e-4 l -0.10077,3.36259 -0.75965,10.28051 -0.0935,1.26607 h -5.1e-4 l -2.84479,-2.22829 -3.30729,15.89464 -1.15962,5.57279 -0.1416,0.68058 -1.01699,1.10277 v 5.2e-4 l -0.97461,1.0573 0.45526,-3.5109 0.51935,-7.22902 1.15859,-16.12666 0.19947,-2.77657 0.96015,-2.52285 0.63303,-1.66346 2.50373,3.51089 1.70687,-7.22488 0.59738,-9.31829 -4.23902,-7.69773 -1.20199,-0.24959 -1.15962,-0.24133 -0.71004,-0.14728 0.71004,2.12907 1.15962,3.47679 0.2005,0.601 2.65049,5.38107 -2.85099,-2.74402 -1.15962,-1.11621 -0.45114,-0.43409 -0.70745,-2.19263 -1.65778,-5.13819 1.65778,-3.28352 z m 13.03022,41.32409 h 5.1e-4 l -0.22892,0.39533 -0.65888,1.13791 -0.65939,1.13792 v 5.1e-4 l -1.68569,2.91042 v 5.2e-4 l -0.86041,1.48569 -0.55191,0.95292 0.55191,3.49694 v 5.2e-4 l 0.006,0.0357 v 5.1e-4 l -0.006,0.0124 v 5.1e-4 l -0.86042,1.97301 -1.54926,3.55224 v -10e-4 l -5.1e-4,10e-4 v -4.67931 l -1.67173,-4.1062 3.2215,-4.78369 0.12248,-0.1819 h 5.1e-4 l 0.73743,-0.51057 0.86041,-0.59531 1.68569,-1.16582 0.65939,-0.4563 0.65888,-0.45579 0.22789,-0.15761 z m -5.55523,18.65416 c 0.49552,0.0867 0.98641,0.18446 1.45469,0.32505 h 5.2e-4 v 5.1e-4 h 5.2e-4 c 0.002,6.7e-4 0.005,0.001 0.007,0.002 0.39539,0.11915 0.77573,0.26328 1.14825,0.41755 -0.81587,-0.33788 -1.69482,-0.58279 -2.61069,-0.74518 z m 3.98013,1.41232 c 0.009,0.005 0.0193,0.01 0.0284,0.015 0.22668,0.13214 0.44639,0.27124 0.65939,0.41703 0.0935,0.064 0.17954,0.13447 0.27027,0.20102 -0.30558,-0.22409 -0.62213,-0.43846 -0.95808,-0.63303 z m 1.36684,0.93844 c 0.2001,0.16283 0.39208,0.33255 0.57568,0.50798 -0.0499,-0.0472 -0.10788,-0.0882 -0.15917,-0.13436 -0.004,-0.004 -0.009,-0.008 -0.0129,-0.0114 -0.006,-0.006 -0.0124,-0.0113 -0.0186,-0.0171 -0.12689,-0.11611 -0.25071,-0.23484 -0.38499,-0.3452 z m -15.95097,0.51728 c -0.0474,0.0455 -0.0872,0.0957 -0.13333,0.14211 0.0397,-0.04 0.0719,-0.0848 0.11266,-0.12402 0.007,-0.007 0.014,-0.0119 0.0207,-0.0181 z m -0.75706,0.82786 c -0.1843,0.22689 -0.36085,0.4588 -0.51831,0.70022 0.1383,-0.21204 0.28631,-0.41917 0.44545,-0.62012 0.0222,-0.028 0.0503,-0.0523 0.0729,-0.0801 z" />
    <path
       style="fill:#412c01;fill-opacity:1;stroke:#191100;stroke-width:2.9;stroke-linecap:round;stroke-linejoin:round;stroke-dasharray:none;stroke-opacity:1;paint-order:fill markers stroke"
       d="m 153.00253,190.62336 v -64.2276"
       id="path17" />
    <path
       style="fill:#412c01;fill-opacity:1;stroke:#191100;stroke-width:2.9;stroke-linecap:round;stroke-linejoin:round;stroke-dasharray:none;stroke-opacity:1;paint-order:fill markers stroke"
       d="M 174.74577,190.4454 V 126.2178"
       id="path17-2" />
    <g
       id="g119"
       transform="translate(68.679886,62.798891)">
      <path
         id="path16"
         style="fill:#412c01;fill-opacity:1;stroke:#3f321d;stroke-width:0;stroke-linecap:round;stroke-linejoin:round;stroke-dasharray:none;paint-order:fill markers stroke"
         d="m 95.012309,56.872458 c -5.925565,5.7e-5 -10.548225,3.919659 -10.548199,8.931703 -0.03561,11.933893 0.04756,41.392979 0.04756,62.081439 0.644369,-4.31327 5.231263,-7.56115 10.678446,-7.56117 5.163544,-1e-5 9.598264,2.92648 10.564204,6.97138 V 65.848474 c 0,-0.145732 -0.0108,-0.288717 -0.0311,-0.427831 -0.33003,-4.799178 -5.02741,-8.548065 -10.710898,-8.548185 z m 2.226195,9.027187 2.10528,5.334439 -0.455199,15.193021 -0.853487,11.546697 -2.844978,-2.228311 -4.608864,22.148049 -1.991484,2.16079 0.455197,-3.51127 1.877685,-26.132007 1.593188,-4.186521 2.503579,3.511275 1.706987,-7.225125 0.597441,-9.318387 -4.239016,-7.697797 -3.071712,-0.637858 2.070196,6.206952 2.650194,5.38076 -4.461602,-4.294136 -2.364935,-7.330965 2.144645,-4.248603 z m 5.843756,35.994805 -4.644866,8.02118 0.557436,3.53343 -2.415561,5.53859 v -4.67924 l -1.671868,-4.10633 3.344178,-4.96569 z"
         sodipodi:nodetypes="cccscscccccccccccccccccccccccccccccccc" />
      <path
         d="m 101.5354,121.97602 v -17.41031 l -1.685681,2.91093 v 13.69374 c 0.593141,0.22765 1.157341,0.49762 1.685681,0.80564 z"
         style="fill:#412c01;stroke:#3f321d;stroke-width:0;stroke-linecap:round;stroke-linejoin:round;paint-order:fill markers stroke"
         id="path111" />
      <path
         d="m 105.26541,63.269523 v 62.630287 c 0.2091,0.44734 0.37371,0.91359 0.48886,1.39578 V 65.848694 c 0,-0.145732 -0.0107,-0.288767 -0.031,-0.427881 -0.0513,-0.745808 -0.20831,-1.466339 -0.45785,-2.15129 z"
         style="fill:#412c01;stroke:#3f321d;stroke-width:0;stroke-linecap:round;stroke-linejoin:round;paint-order:fill markers stroke"
         id="path106" />
      <path
         d="m 102.85367,59.753459 v 42.299231 l 0.22841,-0.15813 -0.22841,0.39429 v 20.59461 c 0.56424,0.45669 1.06545,0.96487 1.4919,1.51618 V 61.468599 c -0.4178,-0.621918 -0.91938,-1.196962 -1.4919,-1.71514 z"
         style="fill:#412c01;stroke:#3f321d;stroke-width:0;stroke-linecap:round;stroke-linejoin:round;paint-order:fill markers stroke"
         id="path103" />
      <path
         d="m 99.849719,57.845565 v 46.285025 l 1.685681,-1.16582 V 58.742151 c -0.5259,-0.340969 -1.09008,-0.641715 -1.685681,-0.896586 z"
         style="fill:#412c01;stroke:#3f321d;stroke-width:0;stroke-linecap:round;stroke-linejoin:round;paint-order:fill markers stroke"
         id="path100" />
      <path
         d="M 85.283167,125.56029 V 62.285604 c -0.528639,1.074549 -0.819078,2.262282 -0.819072,3.518648 -0.03561,11.933893 0.04754,41.393018 0.04754,62.081478 0.122262,-0.81839 0.386454,-1.59866 0.77153,-2.32544 z"
         style="fill:#412c01;stroke:#3f321d;stroke-width:0;stroke-linecap:round;stroke-linejoin:round;paint-order:fill markers stroke"
         id="path91" />
      <path
         d="m 89.564559,121.59103 v -2.59468 l -0.974618,1.05782 0.45527,-3.5109 0.519348,-7.22901 V 69.957487 l -1.65778,-5.138188 1.65778,-3.28352 v -3.422014 c -1.013609,0.50731 -1.912623,1.154719 -2.66237,1.913062 v 63.408013 c 0.754007,-0.72625 1.654323,-1.34976 2.66237,-1.84381 z"
         style="fill:#412c01;stroke:#3f321d;stroke-width:0;stroke-linecap:round;stroke-linejoin:round;paint-order:fill markers stroke"
         id="path81" />
      <path
         d="m 91.882764,111.63815 v 9.10022 c 1.044698,-0.26921 2.1568,-0.41393 3.307291,-0.41393 1.014671,0 2.001246,0.11275 2.938839,0.32504 v -5.21518 l -1.549776,3.55327 v -4.6793 l -1.671733,-4.10621 3.221509,-4.78369 v -8.716779 l -0.09405,1.272274 -2.844788,-2.228288 z"
         style="fill:#412c01;stroke:#3f321d;stroke-width:0;stroke-linecap:round;stroke-linejoin:round;paint-order:fill markers stroke"
         id="path77" />
      <path
         d="m 91.882764,65.245113 v 5.217253 l 0.200504,0.600997 2.650484,5.381067 -2.850988,-2.744019 v 14.187764 l 0.633036,-1.663464 2.503723,3.510897 1.706873,-7.224882 0.597379,-9.318294 -4.239018,-7.697722 z"
         style="fill:#412c01;stroke:#3f321d;stroke-width:0;stroke-linecap:round;stroke-linejoin:round;paint-order:fill markers stroke"
         id="path73" />
      <path
         d="m 91.882764,57.255937 v 4.672066 l 5.355745,3.971851 0.890385,2.255676 V 57.261621 c -0.987523,-0.253324 -2.034192,-0.389101 -3.116606,-0.389123 -1.0946,1e-5 -2.144769,0.133753 -3.129524,0.383439 z"
         style="fill:#412c01;stroke:#3f321d;stroke-width:0;stroke-linecap:round;stroke-linejoin:round;paint-order:fill markers stroke"
         id="path70" />
      <path
         d="m 102.85367,102.05269 v 0.23616 l 0.22841,-0.39429 z"
         style="opacity:1"
         id="path117" />
      <path
         d="M 86.092936,124.32471 V 60.965788 c -0.311237,0.416666 -0.582454,0.857757 -0.809769,1.319816 v 63.274686 c 0.228775,-0.43178 0.500077,-0.84452 0.809769,-1.23558 z"
         style="baseline-shift:baseline;display:inline;overflow:visible;vector-effect:none;fill:#8f6102;fill-opacity:0.450717;stroke-linecap:round;stroke-linejoin:round;paint-order:fill markers stroke;enable-background:accumulate;stop-color:#000000;stop-opacity:1"
         id="path90" />
      <path
         d="M 86.902189,123.43484 V 60.026827 c -0.293215,0.296577 -0.56366,0.610176 -0.809253,0.938961 v 63.358922 c 0.246292,-0.311 0.516797,-0.60818 0.809253,-0.88987 z"
         style="baseline-shift:baseline;display:inline;overflow:visible;vector-effect:none;fill:#8f6102;fill-opacity:0.450717;stroke-linecap:round;stroke-linejoin:round;paint-order:fill markers stroke;enable-background:accumulate;stop-color:#000000;stop-opacity:1"
         id="path89" />
      <path
         d="m 90.723145,65.003784 -0.710035,-0.147278 0.710035,2.129069 z"
         style="baseline-shift:baseline;display:inline;overflow:visible;vector-effect:none;fill:#8f6102;fill-opacity:0.450717;stroke-linecap:round;stroke-linejoin:round;paint-order:fill markers stroke;enable-background:accumulate;stop-color:#000000;stop-opacity:1"
         id="path87" />
      <path
         d="m 89.564559,61.535779 0.487309,-0.965316 0.671277,0.497644 v -3.454053 c -0.400592,0.146854 -0.78716,0.313813 -1.158586,0.499711 z"
         style="baseline-shift:baseline;display:inline;overflow:visible;vector-effect:none;fill:#8f6102;fill-opacity:0.450717;stroke-linecap:round;stroke-linejoin:round;paint-order:fill markers stroke;enable-background:accumulate;stop-color:#000000;stop-opacity:1"
         id="path86" />
      <path
         d="M 89.564559,109.31426 90.723145,93.187594 V 72.5842 l -0.451136,-0.434082 -0.70745,-2.192631 z"
         style="baseline-shift:baseline;display:inline;overflow:visible;vector-effect:none;fill:#8f6102;fill-opacity:0.450717;stroke-linecap:round;stroke-linejoin:round;paint-order:fill markers stroke;enable-background:accumulate;stop-color:#000000;stop-opacity:1"
         id="path84" />
      <path
         d="m 89.564559,121.59103 c 0.372204,-0.18242 0.758851,-0.34726 1.158586,-0.493 v -3.8871 l -0.142111,0.68265 -1.016475,1.10277 z"
         style="baseline-shift:baseline;display:inline;overflow:visible;vector-effect:none;fill:#8f6102;fill-opacity:0.450717;stroke-linecap:round;stroke-linejoin:round;paint-order:fill markers stroke;enable-background:accumulate;stop-color:#000000;stop-opacity:1"
         id="path82" />
      <path
         d="m 91.882764,111.63815 -1.159619,5.57278 v 3.8871 c 0.375713,-0.13697 0.762867,-0.25742 1.159619,-0.35966 z"
         style="baseline-shift:baseline;display:inline;overflow:visible;vector-effect:none;fill:#8f6102;fill-opacity:0.450717;stroke-linecap:round;stroke-linejoin:round;paint-order:fill markers stroke;enable-background:accumulate;stop-color:#000000;stop-opacity:1"
         id="path78" />
      <path
         d="M 91.882764,73.700411 90.723145,72.5842 v 20.603394 l 0.199471,-2.776575 0.960148,-2.522844 z"
         style="baseline-shift:baseline;display:inline;overflow:visible;vector-effect:none;fill:#8f6102;fill-opacity:0.450717;stroke-linecap:round;stroke-linejoin:round;paint-order:fill markers stroke;enable-background:accumulate;stop-color:#000000;stop-opacity:1"
         id="path76" />
      <path
         d="m 91.882764,65.245113 -1.159619,-0.241329 v 1.981791 l 1.159619,3.476791 z"
         style="baseline-shift:baseline;display:inline;overflow:visible;vector-effect:none;fill:#8f6102;fill-opacity:0.450717;stroke-linecap:round;stroke-linejoin:round;paint-order:fill markers stroke;enable-background:accumulate;stop-color:#000000;stop-opacity:1"
         id="path74" />
      <path
         d="m 91.882764,57.255937 c -0.397617,0.100816 -0.7847,0.220674 -1.159619,0.358117 v 3.454053 l 1.159619,0.859896 z"
         style="baseline-shift:baseline;display:inline;overflow:visible;vector-effect:none;fill:#8f6102;fill-opacity:0.450717;stroke-linecap:round;stroke-linejoin:round;paint-order:fill markers stroke;enable-background:accumulate;stop-color:#000000;stop-opacity:1"
         id="path71" />
      <path
         d="m 98.989307,113.41272 v 0.0491 l 0.0057,-0.0129 z"
         style="baseline-shift:baseline;display:inline;overflow:visible;vector-effect:none;fill:#8f6102;fill-opacity:0.450717;stroke-linecap:round;stroke-linejoin:round;paint-order:fill markers stroke;enable-background:accumulate;stop-color:#000000;stop-opacity:1"
         id="path119" />
      <path
         d="m 98.989307,108.96286 -0.551905,0.95291 0.551905,3.49695 z"
         style="baseline-shift:baseline;display:inline;overflow:visible;vector-effect:none;fill:#8f6102;fill-opacity:0.450717;stroke-linecap:round;stroke-linejoin:round;paint-order:fill markers stroke;enable-background:accumulate;stop-color:#000000;stop-opacity:1"
         id="path118" />
      <path
         d="m 98.989307,120.87634 v -7.41453 l -0.860413,1.97249 v 5.21518 c 0.291705,0.0661 0.578807,0.14201 0.860413,0.22686 z"
         style="baseline-shift:baseline;display:inline;overflow:visible;vector-effect:none;fill:#8f6102;fill-opacity:0.450717;stroke-linecap:round;stroke-linejoin:round;paint-order:fill markers stroke;enable-background:accumulate;stop-color:#000000;stop-opacity:1"
         id="path114" />
      <path
         d="m 99.849719,121.17038 v -13.69374 l -0.860412,1.48622 v 4.44986 l 0.0057,0.0362 -0.0057,0.0129 v 7.41453 c 0.292842,0.0882 0.579873,0.18637 0.860412,0.29404 z"
         style="baseline-shift:baseline;display:inline;overflow:visible;vector-effect:none;fill:#8f6102;fill-opacity:0.450717;stroke-linecap:round;stroke-linejoin:round;paint-order:fill markers stroke;enable-background:accumulate;stop-color:#000000;stop-opacity:1"
         id="path113" />
      <path
         d="M 98.989307,70.335758 V 57.516903 C 98.708124,57.42191 98.421029,57.336561 98.128894,57.261621 V 68.15553 Z"
         style="baseline-shift:baseline;display:inline;overflow:visible;vector-effect:none;fill:#8f6102;fill-opacity:0.450717;stroke-linecap:round;stroke-linejoin:round;paint-order:fill markers stroke;enable-background:accumulate;stop-color:#000000;stop-opacity:1"
         id="path99" />
      <path
         d="m 98.989307,83.064181 v 21.661729 l 0.860412,-0.59532 V 57.845565 C 99.569658,57.72572 99.282632,57.615998 98.989307,57.516903 v 12.818855 l 0.3545,0.898137 z"
         style="baseline-shift:baseline;display:inline;overflow:visible;vector-effect:none;fill:#8f6102;fill-opacity:0.450717;stroke-linecap:round;stroke-linejoin:round;paint-order:fill markers stroke;enable-background:accumulate;stop-color:#000000;stop-opacity:1"
         id="path98" />
      <path
         d="m 98.128894,96.701591 v 8.716779 l 0.122473,-0.1819 0.73794,-0.51056 V 83.064181 l -0.100769,3.363102 z"
         style="baseline-shift:baseline;display:inline;overflow:visible;vector-effect:none;fill:#8f6102;fill-opacity:0.450717;stroke-linecap:round;stroke-linejoin:round;paint-order:fill markers stroke;enable-background:accumulate;stop-color:#000000;stop-opacity:1"
         id="path92" />
      <path
         d="m 102.1948,122.39305 v -18.96629 l -0.6594,1.13895 v 17.41031 c 0.22668,0.13214 0.4464,0.27124 0.6594,0.41703 z"
         style="baseline-shift:baseline;display:inline;overflow:visible;vector-effect:none;fill:#8f6102;fill-opacity:0.450717;stroke-linecap:round;stroke-linejoin:round;paint-order:fill markers stroke;enable-background:accumulate;stop-color:#000000;stop-opacity:1"
         id="path110" />
      <path
         d="m 102.85367,122.88346 v -20.59461 l -0.65887,1.13791 v 18.96629 c 0.22787,0.15597 0.44789,0.31964 0.65887,0.49041 z"
         style="baseline-shift:baseline;display:inline;overflow:visible;vector-effect:none;fill:#8f6102;fill-opacity:0.450717;stroke-linecap:round;stroke-linejoin:round;paint-order:fill markers stroke;enable-background:accumulate;stop-color:#000000;stop-opacity:1"
         id="path109" />
      <path
         d="m 102.1948,59.206205 v 43.302265 l 0.65887,-0.45578 V 59.753459 c -0.21023,-0.190273 -0.43026,-0.37294 -0.65887,-0.547254 z"
         style="baseline-shift:baseline;display:inline;overflow:visible;vector-effect:none;fill:#8f6102;fill-opacity:0.450717;stroke-linecap:round;stroke-linejoin:round;paint-order:fill markers stroke;enable-background:accumulate;stop-color:#000000;stop-opacity:1"
         id="path102" />
      <path
         d="m 101.5354,58.742151 v 44.222619 l 0.6594,-0.4563 V 59.206205 c -0.21245,-0.161981 -0.43218,-0.316737 -0.6594,-0.464054 z"
         style="baseline-shift:baseline;display:inline;overflow:visible;vector-effect:none;fill:#8f6102;fill-opacity:0.450717;stroke-linecap:round;stroke-linejoin:round;paint-order:fill markers stroke;enable-background:accumulate;stop-color:#000000;stop-opacity:1"
         id="path101" />
      <path
         d="M 104.80601,62.237028 V 125.058 c 0.17094,0.27215 0.32442,0.55303 0.4594,0.84181 V 63.269523 c -0.12897,-0.354009 -0.28261,-0.698846 -0.4594,-1.032495 z"
         style="baseline-shift:baseline;display:inline;overflow:visible;vector-effect:none;fill:#8f6102;fill-opacity:0.450717;stroke-linecap:round;stroke-linejoin:round;paint-order:fill markers stroke;enable-background:accumulate;stop-color:#000000;stop-opacity:1"
         id="path105" />
      <path
         d="m 104.34557,61.468599 v 62.931041 c 0.16493,0.21323 0.31867,0.43266 0.46044,0.65836 V 62.237028 c -0.13943,-0.263142 -0.29322,-0.519506 -0.46044,-0.768429 z"
         style="baseline-shift:baseline;display:inline;overflow:visible;vector-effect:none;fill:#8f6102;fill-opacity:0.450717;stroke-linecap:round;stroke-linejoin:round;paint-order:fill markers stroke;enable-background:accumulate;stop-color:#000000;stop-opacity:1"
         id="path104" />
    </g>
    <path
       style="fill:#412c01;fill-opacity:0;stroke:#412c01;stroke-width:2.1;stroke-linecap:round;stroke-linejoin:round;stroke-dasharray:none;stroke-opacity:1;paint-order:fill markers stroke"
       d="m 238.63219,180.72267 c 1.11242,-0.0412 2.21041,-0.41525 3.11656,-1.06182 0.90615,-0.64657 1.61704,-1.56318 2.01779,-2.60172 0.19428,-0.50347 0.31695,-1.03451 0.36317,-1.57218"
       id="path1"
       inkscape:path-effect="#path-effect1"
       inkscape:original-d="m 238.63219,180.72267 c 2.48212,-2.90873 2.65223,-0.63846 5.13435,-3.66354 2.48213,-3.02509 0.40191,-1.37826 0.36317,-1.57218"
       sodipodi:nodetypes="csc"
       transform="matrix(-1,0,0,1,393.50744,-55.333669)" />
    <path
       style="fill:#412c01;fill-opacity:0;stroke:#412c01;stroke-width:1.3;stroke-linecap:round;stroke-linejoin:round;stroke-dasharray:none;stroke-opacity:1;paint-order:fill markers stroke"
       d="m 243.16982,177.46489 -2.0652,-1.48345"
       id="path2"
       inkscape:path-effect="#path-effect2"
       inkscape:original-d="m 243.16982,177.46489 c -0.6884,-0.47509 -1.3768,-0.97927 -2.0652,-1.48345"
       transform="matrix(-1,0,0,1,393.50744,-55.333669)" />
    <ellipse
       style="fill:#78550e;fill-opacity:1;stroke:#8f6102;stroke-width:0;stroke-linecap:round;stroke-linejoin:round;stroke-dasharray:none;stroke-opacity:0.450717;paint-order:fill markers stroke"
       id="path37"
       cx="-149.37045"
       cy="120.07329"
       rx="1.0408089"
       ry="1.0107857"
       transform="scale(-1,1)" />
    <ellipse
       style="fill:#78550e;fill-opacity:1;stroke:#8f6102;stroke-width:0;stroke-linecap:round;stroke-linejoin:round;stroke-dasharray:none;stroke-opacity:0.450717;paint-order:fill markers stroke"
       id="path37-2"
       cx="-154.15866"
       cy="97.963623"
       rx="0.60263747"
       ry="0.57892507"
       transform="matrix(-0.98918644,-0.14666353,0,1,0,0)" />
    <path
       d="m 187.23463,132.81838 a 2.1451383,2.3870604 13.850856 0 0 -1.72903,-1.74787 2.1451383,2.3870604 13.850856 0 0 -2.16593,1.11892 2.1451383,2.3870604 13.850856 0 0 1.72807,1.74775 2.1451383,2.3870604 13.850856 0 0 2.16689,-1.1188 z"
       style="fill:#dff069;fill-opacity:1;stroke:#8f6102;stroke-width:0;stroke-linecap:round;stroke-linejoin:round;stroke-opacity:0.450717;paint-order:fill markers stroke"
       id="path40-8-1-4"
       inkscape:transform-center-x="-0.43199625"
       inkscape:transform-center-y="-1.4211644" />
    <path
       d="m 152.00396,121.34302 a 1.9617003,3.6437413 81.651551 0 0 0.21533,2.17973 1.9617003,3.6437413 81.651551 0 0 3.69812,0.35159 1.9617003,3.6437413 81.651551 0 0 -0.21432,-2.17915 1.9617003,3.6437413 81.651551 0 0 -3.69913,-0.35217 z"
       style="fill:#f0eb69;fill-opacity:1;stroke:#8f6102;stroke-width:0;stroke-linecap:round;stroke-linejoin:round;stroke-opacity:0.450717;paint-order:fill markers stroke"
       id="path40-8-1-6" />
    <path
       style="fill:#412c01;fill-opacity:0;stroke:#412c01;stroke-width:2.1;stroke-linecap:round;stroke-linejoin:round;stroke-dasharray:none;stroke-opacity:1;paint-order:fill markers stroke"
       d="m 238.63219,180.72267 c 1.11242,-0.0412 2.21041,-0.41525 3.11656,-1.06182 0.90615,-0.64657 1.61704,-1.56318 2.01779,-2.60172 0.19428,-0.50347 0.31695,-1.03451 0.36317,-1.57218"
       id="path1-6"
       inkscape:path-effect="#path-effect1-8"
       inkscape:original-d="m 238.63219,180.72267 c 2.48212,-2.90873 2.65223,-0.63846 5.13435,-3.66354 2.48213,-3.02509 0.40191,-1.37826 0.36317,-1.57218"
       sodipodi:nodetypes="csc"
       transform="matrix(1.5882927,0,0,1.0392057,-205.681,-51.163669)" />
    <path
       style="fill:#412c01;fill-opacity:0;stroke:#412c01;stroke-width:1.3;stroke-linecap:round;stroke-linejoin:round;stroke-dasharray:none;stroke-opacity:1;paint-order:fill markers stroke"
       d="m 243.16982,177.46489 -2.0652,-1.48345"
       id="path2-0"
       inkscape:path-effect="#path-effect2-1"
       inkscape:original-d="m 243.16982,177.46489 c -0.6884,-0.47509 -1.3768,-0.97927 -2.0652,-1.48345"
       transform="matrix(1.5882927,0,0,1.0392057,-205.681,-51.163669)" />
    <ellipse
       style="fill:#78550e;fill-opacity:1;stroke:#8f6102;stroke-width:0;stroke-linecap:round;stroke-linejoin:round;stroke-dasharray:none;stroke-opacity:0.450717;paint-order:fill markers stroke"
       id="path37-9"
       cx="182.07999"
       cy="131.12025"
       rx="1.6531092"
       ry="1.0504143" />
    <ellipse
       style="fill:#78550e;fill-opacity:1;stroke:#8f6102;stroke-width:0;stroke-linecap:round;stroke-linejoin:round;stroke-dasharray:none;stroke-opacity:0.450717;paint-order:fill markers stroke"
       id="path37-2-3"
       cx="177.9541"
       cy="148.82224"
       rx="0.95125908"
       ry="0.60162228"
       transform="matrix(0.99532752,-0.09655638,0,1,0,0)" />
    <path
       style="fill:#412c01;fill-opacity:0;stroke:#412c01;stroke-width:2.1;stroke-linecap:round;stroke-linejoin:round;stroke-dasharray:none;stroke-opacity:1;paint-order:fill markers stroke"
       d="m 238.63219,180.72267 c 1.11242,-0.0412 2.21041,-0.41525 3.11656,-1.06182 0.90615,-0.64657 1.61704,-1.56318 2.01779,-2.60172 0.19428,-0.50347 0.31695,-1.03451 0.36317,-1.57218"
       id="path1-6-5"
       inkscape:path-effect="#path-effect1-8-7"
       inkscape:original-d="m 238.63219,180.72267 c 2.48212,-2.90873 2.65223,-0.63846 5.13435,-3.66354 2.48213,-3.02509 0.40191,-1.37826 0.36317,-1.57218"
       sodipodi:nodetypes="csc"
       transform="matrix(-1.4180813,0,0,1.0503275,493.79132,-14.475492)" />
    <path
       style="fill:#412c01;fill-opacity:0;stroke:#412c01;stroke-width:1.3;stroke-linecap:round;stroke-linejoin:round;stroke-dasharray:none;stroke-opacity:1;paint-order:fill markers stroke"
       d="m 243.16982,177.46489 -2.0652,-1.48345"
       id="path2-0-6"
       inkscape:path-effect="#path-effect2-1-8"
       inkscape:original-d="m 243.16982,177.46489 c -0.6884,-0.47509 -1.3768,-0.97927 -2.0652,-1.48345"
       transform="matrix(-1.4180813,0,0,1.0503275,493.79132,-14.475492)" />
    <ellipse
       style="fill:#78550e;fill-opacity:1;stroke:#8f6102;stroke-width:0;stroke-linecap:round;stroke-linejoin:round;stroke-dasharray:none;stroke-opacity:0.450717;paint-order:fill markers stroke"
       id="path37-9-5"
       cx="-147.58524"
       cy="169.75926"
       rx="1.4759517"
       ry="1.0616561"
       transform="scale(-1,1)" />
    <ellipse
       style="fill:#78550e;fill-opacity:1;stroke:#8f6102;stroke-width:0;stroke-linecap:round;stroke-linejoin:round;stroke-dasharray:none;stroke-opacity:0.450717;paint-order:fill markers stroke"
       id="path37-2-3-8"
       cx="-152.92519"
       cy="153.59087"
       rx="0.85042983"
       ry="0.60806096"
       transform="matrix(-0.99402416,-0.10916025,0,1,0,0)" />
    <path
       style="fill:#412c01;fill-opacity:0;stroke:#412c01;stroke-width:1.3;stroke-linecap:round;stroke-linejoin:round;stroke-dasharray:none;stroke-opacity:1;paint-order:fill markers stroke"
       d="m 243.16982,177.46489 -2.0652,-1.48345"
       id="path2-0-6-9"
       inkscape:path-effect="#path-effect2-1-8-4"
       inkscape:original-d="m 243.16982,177.46489 c -0.6884,-0.47509 -1.3768,-0.97927 -2.0652,-1.48345"
       transform="matrix(-0.51280525,0.749049,1.1627733,0.42591872,65.891895,-88.226079)" />
    <ellipse
       style="fill:#78550e;fill-opacity:1;stroke:#8f6102;stroke-width:0;stroke-linecap:round;stroke-linejoin:round;stroke-dasharray:none;stroke-opacity:0.450717;paint-order:fill markers stroke"
       id="path37-2-3-8-7"
       cx="117.39371"
       cy="244.73697"
       rx="0.57794988"
       ry="0.71689737"
       transform="matrix(-0.70674908,0.7074643,0.93898889,0.34394747,0,0)" />
    <path
       d="m 149.37106,163.23484 a 2.5662625,1.9953433 76.86885 0 0 -1.92528,1.21111 2.5662625,1.9953433 76.86885 0 0 0.3335,2.76141 2.5662625,1.9953433 76.86885 0 0 1.92493,-1.21012 2.5662625,1.9953433 76.86885 0 0 -0.33315,-2.7624 z"
       style="fill:#dff069;fill-opacity:1;stroke:#8f6102;stroke-width:0;stroke-linecap:round;stroke-linejoin:round;stroke-opacity:0.450717;paint-order:fill markers stroke"
       id="path40-8-1" />
    <path
       d="m 151.11653,164.67698 a 2.3368986,2.5638814 64.340714 0 0 -2.77522,0.6315 2.3368986,2.5638814 64.340714 0 0 -0.63733,2.55685 2.3368986,2.5638814 64.340714 0 0 2.77443,-0.63069 2.3368986,2.5638814 64.340714 0 0 0.63812,-2.55766 z"
       style="fill:#f0e869;fill-opacity:1;stroke:#8f6102;stroke-width:0;stroke-linecap:round;stroke-linejoin:round;stroke-opacity:0.450717;paint-order:fill markers stroke"
       id="path40-8" />
  </g>
</svg>
