<?xml version="1.0" encoding="UTF-8" standalone="no"?>
<!-- Created with Inkscape (http://www.inkscape.org/) -->

<svg
   width="2000.11"
   height="895.69"
   viewBox="0 0 529.1947 236.98398"
   version="1.1"
   id="svg1"
   inkscape:version="1.4.2 (f4327f4, 2025-05-13)"
   sodipodi:docname="CountDownContainerMaskLaser.svg"
   xmlns:inkscape="http://www.inkscape.org/namespaces/inkscape"
   xmlns:sodipodi="http://sodipodi.sourceforge.net/DTD/sodipodi-0.dtd"
   xmlns="http://www.w3.org/2000/svg"
   xmlns:svg="http://www.w3.org/2000/svg">
  <sodipodi:namedview
     id="namedview1"
     pagecolor="#ffffff"
     bordercolor="#000000"
     borderopacity="0.25"
     inkscape:showpageshadow="2"
     inkscape:pageopacity="0.0"
     inkscape:pagecheckerboard="0"
     inkscape:deskcolor="#d1d1d1"
     inkscape:document-units="mm"
     inkscape:zoom="1.6062079"
     inkscape:cx="786.9467"
     inkscape:cy="605.46334"
     inkscape:window-width="3840"
     inkscape:window-height="2054"
     inkscape:window-x="-11"
     inkscape:window-y="-11"
     inkscape:window-maximized="1"
     inkscape:current-layer="layer1"
     showgrid="true">
    <inkscape:grid
       id="grid1"
       units="mm"
       originx="139"
       originy="10.68689"
       spacingx="0.99999999"
       spacingy="0.99999998"
       empcolor="#0099e5"
       empopacity="0.30196078"
       color="#0099e5"
       opacity="0.14901961"
       empspacing="5"
       enabled="true"
       visible="true" />
  </sodipodi:namedview>
  <defs
     id="defs1">
    <inkscape:path-effect
       effect="mirror_symmetry"
       start_point="125.02313,96.35658"
       end_point="125.02313,173.6981"
       center_point="125.02313,135.02734"
       id="path-effect6"
       is_visible="true"
       lpeversion="1.2"
       lpesatellites=""
       mode="free"
       discard_orig_path="false"
       fuse_paths="true"
       oposite_fuse="false"
       split_items="false"
       split_open="false"
       link_styles="false" />
    <inkscape:path-effect
       effect="mirror_symmetry"
       start_point="77.199904,69.000027"
       end_point="77.199904,93.044622"
       center_point="77.199904,81.022324"
       id="path-effect2"
       is_visible="true"
       lpeversion="1.2"
       lpesatellites=""
       mode="free"
       discard_orig_path="false"
       fuse_paths="false"
       oposite_fuse="false"
       split_items="false"
       split_open="false"
       link_styles="false" />
    <inkscape:path-effect
       effect="fillet_chamfer"
       id="path-effect5"
       is_visible="true"
       lpeversion="1"
       nodesatellites_param="F,0,0,1,0,0,0,1 @ F,0,0,1,0,2.0496102,0,1 @ F,0,0,1,0,0,0,1"
       radius="0"
       unit="px"
       method="auto"
       mode="F"
       chamfer_steps="1"
       flexible="false"
       use_knot_distance="true"
       apply_no_radius="true"
       apply_with_radius="true"
       only_selected="false"
       hide_knots="false" />
    <inkscape:path-effect
       effect="fillet_chamfer"
       id="path-effect28"
       is_visible="true"
       lpeversion="1"
       nodesatellites_param="F,0,0,1,0,0,0,1 @ F,0,0,1,0,0,0,1 @ F,0,0,1,0,0,0,1 @ F,0,0,1,0,0,0,1 @ F,0,0,1,0,0,0,1 @ F,0,0,1,0,0,0,1 @ F,0,0,1,0,0,0,1 @ F,0,0,1,0,0,0,1 @ F,0,0,1,0,0,0,1 @ F,0,0,1,0,0,0,1 @ F,0,0,1,0,0,0,1 @ F,0,0,1,0,0,0,1 | F,0,0,1,0,0,0,1 @ F,0,0,1,0,0,0,1 @ F,0,0,1,0,0,0,1 @ F,0,0,1,0,0,0,1 @ F,0,0,1,0,0,0,1 @ F,0,0,1,0,0,0,1 @ F,0,0,1,0,0,0,1 @ F,0,0,1,0,0,0,1 @ F,0,0,1,0,0,0,1 @ F,0,0,1,0,0,0,1 @ F,0,0,1,0,0,0,1"
       radius="0"
       unit="px"
       method="auto"
       mode="F"
       chamfer_steps="1"
       flexible="false"
       use_knot_distance="true"
       apply_no_radius="true"
       apply_with_radius="true"
       only_selected="false"
       hide_knots="false" />
    <inkscape:path-effect
       effect="powerstroke"
       message=""
       id="path-effect4"
       is_visible="true"
       lpeversion="1.3"
       scale_width="1"
       interpolator_type="CentripetalCatmullRom"
       interpolator_beta="0.75"
       start_linecap_type="round"
       end_linecap_type="round"
       offset_points="10.839744,0.43679433"
       linejoin_type="spiro"
       miter_limit="4"
       not_jump="true"
       sort_points="true" />
    <inkscape:path-effect
       effect="simplify"
       id="path-effect3"
       is_visible="true"
       lpeversion="1.3"
       threshold="0.012"
       steps="1"
       smooth_angles="0"
       helper_size="0"
       simplify_individual_paths="false"
       simplify_just_coalesce="false"
       step="1" />
    <inkscape:path-effect
       effect="fillet_chamfer"
       id="path-effect5-4"
       is_visible="true"
       lpeversion="1"
       nodesatellites_param="F,0,0,1,0,0,0,1 @ F,0,0,1,0,2.0496102,0,1 @ F,0,0,1,0,0,0,1"
       radius="0"
       unit="px"
       method="auto"
       mode="F"
       chamfer_steps="1"
       flexible="false"
       use_knot_distance="true"
       apply_no_radius="true"
       apply_with_radius="true"
       only_selected="false"
       hide_knots="false" />
    <inkscape:path-effect
       effect="fillet_chamfer"
       id="path-effect5-4-5"
       is_visible="true"
       lpeversion="1"
       nodesatellites_param="F,0,0,1,0,0,0,1 @ F,0,0,1,0,2.0496102,0,1 @ F,0,0,1,0,0,0,1"
       radius="0"
       unit="px"
       method="auto"
       mode="F"
       chamfer_steps="1"
       flexible="false"
       use_knot_distance="true"
       apply_no_radius="true"
       apply_with_radius="true"
       only_selected="false"
       hide_knots="false" />
    <inkscape:path-effect
       effect="mirror_symmetry"
       start_point="125.02313,96.35658"
       end_point="125.02313,173.6981"
       center_point="125.02313,135.02734"
       id="path-effect6-4"
       is_visible="true"
       lpeversion="1.2"
       lpesatellites=""
       mode="free"
       discard_orig_path="false"
       fuse_paths="true"
       oposite_fuse="false"
       split_items="false"
       split_open="false"
       link_styles="false" />
  </defs>
  <g
     inkscape:label="Ebene 1"
     inkscape:groupmode="layer"
     id="layer1"
     transform="translate(138.80001,10.686892)">
    <path
       d="m 155.41595,70.368947 c -2.59904,-3.6e-5 -5.20431,0.19057 -7.77935,0.654738 -0.97534,0.17581 -1.97392,0.581529 -2.97243,0.882632 H 117.70878 3.0860773 3.0840102 l -0.00413,0.0021 h -0.00155 c -3.84511567,0.0012 -7.5411914,1.532671 -10.2598141,4.251926 l -0.00413,0.0036 c -0.7331058,0.733753 -1.0842761,1.247424 -1.4081794,1.716687 -0.0393,0.02641 -0.078402,0.05311 -0.1173052,0.0801 -0.069039,0.09619 -0.053435,0.106824 -0.1229897,0.212906 -0.2087976,0.325571 -0.2173036,0.339361 -0.2402948,0.422196 -0.4925042,0.846357 -1.073077,1.921822 -1.100706,1.939412 -0.01157,0.03705 -0.0057,0.04999 -0.03204,0.113171 v 5.17e-4 h -5.17e-4 v 5.16e-4 h -5.17e-4 l -5.16e-4,5.17e-4 -5.17e-4,5.17e-4 c -0.561968,1.352293 -1.021641,3.473788 -1.07125,3.640079 -0.07128,0.482861 -0.116979,0.944287 -0.117822,0.953428 -0.04114,0.44609 -0.06384,0.888132 -0.07235,1.115174 -0.02003,0.534957 -0.02288,0.996498 -0.02532,1.382858 -0.0051,0.814428 0.0015,1.550806 0.0015,1.550806 2.86e-4,1.748155 0.08423,69.187863 0.08423,69.187863 v 0.006 c 0.0052,2.81416 1.017787,5.45189 2.5388569,7.78917 l -1.7595789,10.11099 v 0.002 c -1.868897,10.75812 9.71558452,20.0601 19.8163143,15.91216 h 0.00207 l 9.9885127,-4.10568 h 107.990053 99.52753 l 20.67363,4.81675 0.004,0.002 c 11.33632,2.63699 21.48856,-10.28149 16.24962,-20.67414 v -0.002 l -4.73252,-9.38235 v -54.94173 l 4.87308,-7.40987 c 6.30918,-9.596789 -1.92179,-23.415521 -13.36505,-22.437855 h -0.002 l -5.77328,0.494542 c -0.13031,-0.189317 -0.10495,-0.164696 -0.48421,-0.693496 -0.22811,-0.226725 -0.4675,-0.441799 -0.71727,-0.644403 -0.24189,-0.405013 -0.51342,-0.791574 -0.81235,-1.156516 l -0.002,-0.0021 -0.009,-0.0098 c -2.71817,-2.715775 -6.4118,-4.244499 -10.25413,-4.245725 h -0.004 -0.002 v -0.0021 h -0.002 -0.002 -66.16583 c -0.99867,-0.300838 -1.9994,-0.707106 -2.97294,-0.882632 -2.57478,-0.46423 -5.17926,-0.65463 -7.77728,-0.654738 z m 0,9.5627 c 2.10607,8.8e-5 4.19808,0.162522 6.07971,0.501777 1.24087,0.223725 2.36858,0.546627 3.50779,1.035077 h 67.32855 0.002 0.002 v 0.0021 h 0.002 c 1.31266,3.1e-4 2.57152,0.521659 3.50004,1.44952 l 0.002,0.0016 c 0.0677,0.144265 0.12841,0.291714 0.1819,0.441832 h 0.002 c 0.11626,0.05412 0.23038,0.112726 0.3421,0.175699 0.41168,0.574009 0.20659,0.295681 0.48421,0.693496 0.27762,0.397815 0.67224,0.963384 1.14876,1.646408 0.51683,0.740822 1.27201,1.822555 1.93941,2.779151 l 11.27319,-0.964796 c 4.12008,-0.35198 6.83211,4.201151 4.56044,7.656361 l -6.44507,9.802478 v 60.07629 l 5.7557,11.41581 c 1.89201,3.75156 -1.45247,8.00682 -5.54486,7.05485 l -21.74436,-5.06634 H 127.16606 17.287243 l -11.7346555,4.82243 c -3.6051976,1.48019 -7.4286174,-1.59047 -6.7613281,-5.43015 l 2.8473645,-16.36898 c 0.00379,-0.0235 0.00776,-0.0469 0.011886,-0.0703 l -0.4299469,2.27324 -1.86706499,-2.16576 c -0.77280551,-0.89681 -1.19885091,-2.04075 -1.20095741,-3.2246 0,0 -0.084185,-68.158701 -0.084235,-69.267435 0,0 -0.00661,-0.678685 -0.00207,-1.39836 0.00227,-0.359837 0.00618,-0.726967 0.019637,-1.086236 0.00673,-0.179635 0.014431,-0.346756 0.037207,-0.593761 0.011388,-0.123503 0.021494,-0.258282 0.068213,-0.519347 0.046719,-0.261066 -0.3725185,-0.33941 0.86712839,-2.066536 l -0.00155,0.0057 c 0.15705084,-0.220835 0.33195922,-0.428409 0.52296423,-0.620633 0.92868775,-0.929125 2.18843158,-1.451276 3.50210338,-1.451587 l 0.00207,-0.0021 h 0.00207 114.6227016 28.11914 c 1.13925,-0.488353 2.26529,-0.811388 3.50624,-1.035077 1.88204,-0.339249 3.97534,-0.501806 6.08179,-0.501777 z"
       style="fill:#8790b5;stroke:#000000;stroke-width:1.2;stroke-linecap:round;stroke-opacity:0;paint-order:fill markers stroke"
       id="path2"
       sodipodi:nodetypes="cscccccscccccccccccccccsscccscccccccccccccccccccccccsccccccsccsscccccscccccssccccccccccccccccccssssccccccccsss" />
  </g>
</svg>
