<?xml version="1.0" encoding="UTF-8" standalone="no"?>
<!-- Created with Inkscape (http://www.inkscape.org/) -->

<svg
   width="189.12302"
   height="66.866692"
   viewBox="0 0 50.038697 17.691762"
   version="1.1"
   id="svg1"
   inkscape:version="1.4.2 (f4327f4, 2025-05-13)"
   sodipodi:docname="CountDownLaserDeco3.svg"
   xmlns:inkscape="http://www.inkscape.org/namespaces/inkscape"
   xmlns:sodipodi="http://sodipodi.sourceforge.net/DTD/sodipodi-0.dtd"
   xmlns="http://www.w3.org/2000/svg"
   xmlns:svg="http://www.w3.org/2000/svg">
  <sodipodi:namedview
     id="namedview1"
     pagecolor="#ffffff"
     bordercolor="#000000"
     borderopacity="0.25"
     inkscape:showpageshadow="2"
     inkscape:pageopacity="0.0"
     inkscape:pagecheckerboard="0"
     inkscape:deskcolor="#d1d1d1"
     inkscape:document-units="mm"
     inkscape:zoom="6.4248316"
     inkscape:cx="158.91467"
     inkscape:cy="-23.891677"
     inkscape:window-width="3840"
     inkscape:window-height="2054"
     inkscape:window-x="-11"
     inkscape:window-y="-11"
     inkscape:window-maximized="1"
     inkscape:current-layer="layer1"
     showgrid="true">
    <inkscape:grid
       id="grid1"
       units="mm"
       originx="-144.69652"
       originy="-97.527347"
       spacingx="0.99999999"
       spacingy="0.99999998"
       empcolor="#0099e5"
       empopacity="0.30196078"
       color="#0099e5"
       opacity="0.14901961"
       empspacing="5"
       enabled="true"
       visible="true" />
  </sodipodi:namedview>
  <defs
     id="defs1">
    <inkscape:path-effect
       effect="mirror_symmetry"
       start_point="125.02313,96.35658"
       end_point="125.02313,173.6981"
       center_point="125.02313,135.02734"
       id="path-effect6"
       is_visible="true"
       lpeversion="1.2"
       lpesatellites=""
       mode="free"
       discard_orig_path="false"
       fuse_paths="true"
       oposite_fuse="false"
       split_items="false"
       split_open="false"
       link_styles="false" />
    <inkscape:path-effect
       effect="mirror_symmetry"
       start_point="77.199904,69.000027"
       end_point="77.199904,93.044622"
       center_point="77.199904,81.022324"
       id="path-effect2"
       is_visible="true"
       lpeversion="1.2"
       lpesatellites=""
       mode="free"
       discard_orig_path="false"
       fuse_paths="false"
       oposite_fuse="false"
       split_items="false"
       split_open="false"
       link_styles="false" />
    <inkscape:path-effect
       effect="fillet_chamfer"
       id="path-effect5"
       is_visible="true"
       lpeversion="1"
       nodesatellites_param="F,0,0,1,0,0,0,1 @ F,0,0,1,0,2.0496102,0,1 @ F,0,0,1,0,0,0,1"
       radius="0"
       unit="px"
       method="auto"
       mode="F"
       chamfer_steps="1"
       flexible="false"
       use_knot_distance="true"
       apply_no_radius="true"
       apply_with_radius="true"
       only_selected="false"
       hide_knots="false" />
    <inkscape:path-effect
       effect="fillet_chamfer"
       id="path-effect28"
       is_visible="true"
       lpeversion="1"
       nodesatellites_param="F,0,0,1,0,0,0,1 @ F,0,0,1,0,0,0,1 @ F,0,0,1,0,0,0,1 @ F,0,0,1,0,0,0,1 @ F,0,0,1,0,0,0,1 @ F,0,0,1,0,0,0,1 @ F,0,0,1,0,0,0,1 @ F,0,0,1,0,0,0,1 @ F,0,0,1,0,0,0,1 @ F,0,0,1,0,0,0,1 @ F,0,0,1,0,0,0,1 @ F,0,0,1,0,0,0,1 | F,0,0,1,0,0,0,1 @ F,0,0,1,0,0,0,1 @ F,0,0,1,0,0,0,1 @ F,0,0,1,0,0,0,1 @ F,0,0,1,0,0,0,1 @ F,0,0,1,0,0,0,1 @ F,0,0,1,0,0,0,1 @ F,0,0,1,0,0,0,1 @ F,0,0,1,0,0,0,1 @ F,0,0,1,0,0,0,1 @ F,0,0,1,0,0,0,1"
       radius="0"
       unit="px"
       method="auto"
       mode="F"
       chamfer_steps="1"
       flexible="false"
       use_knot_distance="true"
       apply_no_radius="true"
       apply_with_radius="true"
       only_selected="false"
       hide_knots="false" />
    <inkscape:path-effect
       effect="powerstroke"
       message=""
       id="path-effect4"
       is_visible="true"
       lpeversion="1.3"
       scale_width="1"
       interpolator_type="CentripetalCatmullRom"
       interpolator_beta="0.75"
       start_linecap_type="round"
       end_linecap_type="round"
       offset_points="10.839744,0.43679433"
       linejoin_type="spiro"
       miter_limit="4"
       not_jump="true"
       sort_points="true" />
    <inkscape:path-effect
       effect="simplify"
       id="path-effect3"
       is_visible="true"
       lpeversion="1.3"
       threshold="0.012"
       steps="1"
       smooth_angles="0"
       helper_size="0"
       simplify_individual_paths="false"
       simplify_just_coalesce="false"
       step="1" />
    <inkscape:path-effect
       effect="fillet_chamfer"
       id="path-effect5-4"
       is_visible="true"
       lpeversion="1"
       nodesatellites_param="F,0,0,1,0,0,0,1 @ F,0,0,1,0,2.0496102,0,1 @ F,0,0,1,0,0,0,1"
       radius="0"
       unit="px"
       method="auto"
       mode="F"
       chamfer_steps="1"
       flexible="false"
       use_knot_distance="true"
       apply_no_radius="true"
       apply_with_radius="true"
       only_selected="false"
       hide_knots="false" />
    <inkscape:path-effect
       effect="fillet_chamfer"
       id="path-effect5-4-5"
       is_visible="true"
       lpeversion="1"
       nodesatellites_param="F,0,0,1,0,0,0,1 @ F,0,0,1,0,2.0496102,0,1 @ F,0,0,1,0,0,0,1"
       radius="0"
       unit="px"
       method="auto"
       mode="F"
       chamfer_steps="1"
       flexible="false"
       use_knot_distance="true"
       apply_no_radius="true"
       apply_with_radius="true"
       only_selected="false"
       hide_knots="false" />
    <inkscape:path-effect
       effect="mirror_symmetry"
       start_point="125.02313,96.35658"
       end_point="125.02313,173.6981"
       center_point="125.02313,135.02734"
       id="path-effect6-4"
       is_visible="true"
       lpeversion="1.2"
       lpesatellites=""
       mode="free"
       discard_orig_path="false"
       fuse_paths="true"
       oposite_fuse="false"
       split_items="false"
       split_open="false"
       link_styles="false" />
  </defs>
  <g
     inkscape:label="Ebene 1"
     inkscape:groupmode="layer"
     id="layer1"
     transform="translate(-144.89639,-97.52739)">
    <g
       id="path19"
       transform="rotate(17.139201,-14.924501,320.97172)"
       inkscape:transform-center-x="-0.8849287"
       inkscape:transform-center-y="-0.35776493">
      <path
         style="baseline-shift:baseline;display:inline;overflow:visible;vector-effect:none;fill:#242c47;stroke-linecap:round;paint-order:fill markers stroke;enable-background:accumulate;stop-color:#000000;stop-opacity:1"
         d="m 108.94976,53.999737 9.95826,-2.487268"
         id="path37" />
      <path
         style="baseline-shift:baseline;display:inline;overflow:visible;vector-effect:none;fill:#faf967;stroke-linecap:round;paint-order:fill markers stroke;enable-background:accumulate;stop-color:#000000;stop-opacity:1"
         d="m 118.76172,50.929687 -9.95703,2.488282 a 0.60000002,0.60000002 0 0 0 -0.4375,0.726562 0.60000002,0.60000002 0 0 0 0.72851,0.4375 l 9.95703,-2.488281 a 0.60000002,0.60000002 0 0 0 0.4375,-0.726563 0.60000002,0.60000002 0 0 0 -0.72851,-0.4375 z"
         id="path38" />
    </g>
    <ellipse
       style="fill:#faf967;fill-opacity:1;stroke:#faf967;stroke-width:1.2;stroke-linecap:round;stroke-dasharray:none;stroke-opacity:1;paint-order:fill markers stroke"
       id="path20"
       cx="214.46506"
       cy="41.394726"
       rx="1.3540591"
       ry="1.0774233"
       transform="rotate(17.139201)"
       inkscape:transform-center-x="-6.3789486"
       inkscape:transform-center-y="-0.23889089" />
    <path
       d="m 190.28815,102.20335 0.35204,0.0193 c 0.22849,-0.94755 0.92132,-1.59707 1.66869,-1.59172 0.90691,0.007 1.71165,0.97581 1.69747,2.26045 -0.0142,1.28465 -0.84034,2.24402 -1.74725,2.23752 -0.77061,-0.006 -1.46752,-0.70744 -1.65094,-1.70641 l -0.35678,-0.0197 a 2.0717809,2.5992337 1.0208466 0 0 2.00419,2.07601 2.0717809,2.5992337 1.0208466 0 0 2.10016,-2.58402 2.0717809,2.5992337 1.0208466 0 0 -2.04317,-2.6142 2.0717809,2.5992337 1.0208466 0 0 -2.0244,1.92276 z"
       style="baseline-shift:baseline;display:inline;overflow:visible;vector-effect:none;fill:#fa9767;fill-opacity:1;stroke-linecap:round;paint-order:fill markers stroke;enable-background:accumulate;stop-color:#000000"
       id="path55"
       inkscape:transform-center-x="-5.9403824"
       inkscape:transform-center-y="-0.11726183" />
    <path
       d="m 180.84555,100.83583 c -0.37521,0.48394 -0.62417,1.16056 -0.63059,1.9535 -0.006,0.72592 0.19288,1.35868 0.50839,1.83752 1.51518,-1.25579 2.35736,-2.30625 2.35736,-2.30625 0,0 -0.60304,-0.55289 -2.23519,-1.48478 z"
       style="baseline-shift:baseline;display:inline;overflow:visible;vector-effect:none;fill:#faf967;fill-opacity:0;stroke-linecap:round;paint-order:fill markers stroke;enable-background:accumulate;stop-color:#000000"
       id="path36"
       inkscape:transform-center-x="4.7155093"
       inkscape:transform-center-y="-0.26561434" />
    <path
       d="m 180.84555,100.83583 c 1.63215,0.93188 2.23518,1.48478 2.23518,1.48478 0,0 -0.84217,1.05045 -2.35735,2.30625 0.39125,0.59377 0.96153,0.95122 1.54294,0.95712 1.05028,0.0106 2.08537,-1.12609 2.09848,-2.75218 0.0131,-1.6261 -1.00318,-2.7841 -2.05346,-2.79476 -0.53812,-0.005 -1.07157,0.29031 -1.46579,0.79879 z"
       style="baseline-shift:baseline;display:inline;overflow:visible;vector-effect:none;fill:#faf967;fill-opacity:0;stroke-linecap:round;paint-order:fill markers stroke;enable-background:accumulate;stop-color:#000000"
       id="path35"
       inkscape:transform-center-x="3.8191252"
       inkscape:transform-center-y="-0.18644373" />
    <path
       d="m 180.13791,100.44401 c 0.25462,0.13702 0.49046,0.26781 0.70764,0.39182 0.39422,-0.50848 0.92767,-0.80425 1.46579,-0.79879 1.05028,0.0107 2.06658,1.16866 2.05346,2.79476 -0.0131,1.62609 -1.0482,2.76283 -2.09848,2.75218 -0.58141,-0.006 -1.15163,-0.36353 -1.54294,-0.95712 -0.0676,-0.0935 -0.57527,-0.67694 -0.61139,-1.60608 -0.0476,-1.22442 -0.96257,-1.67227 -0.0154,2.10605 0.5398,0.79013 1.32958,1.249 2.16417,1.25739 1.58777,0.0161 2.88782,-1.57096 2.90372,-3.54485 0.016,-1.97399 -1.25836,-3.587268 -2.8462,-3.603259 -0.8326,-0.0085 -1.62795,0.432081 -2.18033,1.207899 z"
       style="baseline-shift:baseline;display:inline;overflow:visible;vector-effect:none;fill:#f43a3a;stroke:#fa9767;stroke-linecap:round;stroke-opacity:1;paint-order:fill markers stroke;enable-background:accumulate;stop-color:#000000"
       id="path34"
       sodipodi:nodetypes="ccssscsccccc"
       inkscape:transform-center-x="3.9464754"
       inkscape:transform-center-y="-0.18678498" />
    <path
       d="m 183.09158,98.53635 c -0.2453,-0.06317 -0.50194,-0.09828 -0.76759,-0.100981 -1.20836,-0.01226 -2.2353,0.641452 -2.90019,1.634291 0.25336,0.12952 0.49094,0.25427 0.71411,0.37435 a 2.8749792,3.5741216 0.24329857 0 1 2.18033,-1.207899 2.8749792,3.5741216 0.24329857 0 1 2.8462,3.603259 2.8749792,3.5741216 0.24329857 0 1 -2.90372,3.54485 2.8749792,3.5741216 0.24329857 0 1 -2.16417,-1.25739 c -0.20503,0.15731 -0.41996,0.31609 -0.6439,0.47469 0.65074,0.94478 1.63715,1.57019 2.80114,1.582 2.1252,0.0216 3.69191,-2.0143 3.71064,-4.33593 0.0164,-2.03143 -1.15581,-3.869039 -2.87285,-4.31124 z"
       style="baseline-shift:baseline;display:inline;overflow:visible;vector-effect:none;fill:#f43a3a;stroke-linecap:round;paint-order:fill markers stroke;enable-background:accumulate;stop-color:#000000"
       id="path32"
       inkscape:transform-center-x="3.6690779"
       inkscape:transform-center-y="-0.18750591" />
    <path
       d="m 181.47017,107.08692 c 0.24529,0.0632 0.50193,0.0983 0.76759,0.10098 1.20836,0.0123 2.23529,-0.64145 2.90019,-1.63429 -0.25337,-0.12952 -0.49095,-0.25427 -0.71412,-0.37435 a 2.8749792,3.5741216 0.24329857 0 1 -2.18033,1.2079 2.8749792,3.5741216 0.24329857 0 1 -2.8462,-3.60326 2.8749792,3.5741216 0.24329857 0 1 2.90372,-3.544854 2.8749792,3.5741216 0.24329857 0 1 2.16417,1.257394 c 0.20503,-0.15731 0.41996,-0.31609 0.6439,-0.47469 -0.65074,-0.944778 -1.63715,-1.570188 -2.80114,-1.581999 -2.1252,-0.02157 -3.69191,2.014299 -3.71063,4.335919 -0.0164,2.03144 1.1558,3.86905 2.87285,4.31125 z"
       style="baseline-shift:baseline;display:inline;overflow:visible;vector-effect:none;fill:#f43a3a;stroke-linecap:round;paint-order:fill markers stroke;enable-background:accumulate;stop-color:#000000"
       id="path32-8"
       inkscape:transform-center-x="4.4957281"
       inkscape:transform-center-y="-0.18312493" />
    <path
       d="m 167.03387,99.792086 c -11.95081,0.470584 -14.35046,3.874054 -21.08497,11.777544 0,0 3.41371,0.25899 7.81449,0.77153 0.62567,0.0729 1.33044,-2.29925 1.99161,-2.22725 6.19049,0.67416 13.60159,3.63041 17.16738,1.62057 1.77107,-0.99825 -0.45295,-2.66871 -0.19533,-3.81009 0.27497,-1.21827 2.74942,-2.11692 3.6617,-2.58759 4.41058,-2.27552 7.10793,-1.34868 7.11541,-2.52294 0.004,-0.64798 -0.7302,-1.3826 -0.7302,-1.3826 0,0 -3.59161,-1.474448 -15.74009,-1.639174 z m 1.06815,7.579364 c 0.11211,5e-4 0.19829,0.0142 0.30437,0.017 0.23229,0.006 0.4724,0.014 0.67644,0.0377 0.0638,0.007 0.13168,0.0136 0.19276,0.0233 0.1249,0.0198 0.24894,0.0411 0.36276,0.0718 0.15321,0.0414 0.29677,0.094 0.43047,0.15968 0.0226,0.0111 0.0441,0.0238 0.0662,0.0357 0.0438,0.0236 0.087,0.0481 0.12867,0.0749 0.024,0.0155 0.047,0.0325 0.0703,0.0491 0.0382,0.0272 0.0759,0.0554 0.11214,0.0858 0.0218,0.0183 0.0429,0.0379 0.0641,0.0574 0.0345,0.0317 0.0681,0.0648 0.10077,0.0997 0.0213,0.0228 0.0425,0.0461 0.0631,0.0703 0.033,0.0389 0.065,0.0802 0.0961,0.12299 0.0164,0.0225 0.0327,0.0451 0.0486,0.0687 0.0328,0.0489 0.0645,0.10118 0.0951,0.15503 0.0136,0.0239 0.0277,0.0469 0.0408,0.0718 0.0129,0.0244 0.0247,0.0521 0.0372,0.0775 0.0699,0.14232 0.13495,0.29603 0.19223,0.47129 0.0552,0.16887 0.1837,0.45752 0.27699,0.76791 0.0311,0.10352 0.0583,0.20924 0.0775,0.31419 0.0336,0.18366 0.0429,0.36403 0.006,0.52193 -0.0104,0.045 -0.0245,0.0888 -0.0429,0.12971 -0.0184,0.0409 -0.0413,0.0799 -0.0687,0.11575 -0.0273,0.0358 -0.0604,0.0693 -0.0977,0.0992 -0.0563,0.0451 -0.12403,0.0828 -0.20567,0.11214 -0.44349,0.15931 -1.28727,0.12455 -2.20245,0.0263 -0.91539,-0.0982 -1.90281,-0.25986 -2.63549,-0.3545 -2.34462,-0.30285 -4.33182,-0.66984 -4.79194,-1.39784 -0.0328,-0.0519 -0.0576,-0.10558 -0.0744,-0.16123 l -5.2e-4,-5.2e-4 c -0.0169,-0.0558 -0.0253,-0.11331 -0.0253,-0.17312 0,-0.0598 0.009,-0.119 0.0253,-0.17725 0.008,-0.0291 0.0186,-0.0581 0.031,-0.0868 0.0248,-0.0574 0.0575,-0.11362 0.0977,-0.16898 0.10054,-0.1384 0.24839,-0.26999 0.43667,-0.39274 0.22594,-0.1473 0.51032,-0.28187 0.84232,-0.39946 0.88529,-0.31354 2.1083,-0.50746 3.45921,-0.50746 0.42992,0 0.83005,-0.008 1.20148,-0.0129 0.21221,-0.003 0.41496,-0.005 0.60874,-0.004 z"
       style="fill:#484b58;fill-opacity:1;stroke:#48578d;stroke-width:0;stroke-linecap:round;paint-order:fill markers stroke"
       id="path132-7"
       sodipodi:nodetypes="ccssssssccscscsssssssssssssssssssscssssccssssssscss" />
    <path
       d="m 190.42207,103.41219 -3.76838,-0.20441 c 0.16406,1.2338 0.9969,2.09068 1.88146,2.09873 0.8432,0.008 1.65189,-0.75691 1.88692,-1.89432 z"
       style="baseline-shift:baseline;display:inline;overflow:visible;vector-effect:none;fill:#faf967;fill-opacity:0;stroke-linecap:round;paint-order:fill markers stroke;enable-background:accumulate;stop-color:#000000"
       id="path52"
       inkscape:transform-center-x="-2.1746045"
       inkscape:transform-center-y="1.2602274" />
    <path
       d="m 192.81641,99.995249 c -0.16021,-0.04156 -0.32734,-0.06428 -0.50003,-0.06551 -1.17949,-0.0084 -2.12144,0.978751 -2.38254,2.254661 l 0.35416,0.0194 a 2.0717809,2.5992337 1.0208466 0 1 1.5e-4,-4.9e-4 2.0717809,2.5992337 1.0208466 0 1 2.02441,-1.92275 2.0717809,2.5992337 1.0208466 0 1 2.04316,2.61419 2.0717809,2.5992337 1.0208466 0 1 -2.10016,2.58403 2.0717809,2.5992337 1.0208466 0 1 -2.00419,-2.07601 l -0.35693,-0.0192 c 0.18383,1.3534 1.12962,2.43552 2.35676,2.44431 1.3815,0.01 2.437,-1.34551 2.45452,-2.9317 0.0153,-1.3879 -0.7678,-2.61035 -1.8893,-2.900951 z"
       style="baseline-shift:baseline;display:inline;overflow:visible;vector-effect:none;fill:#f43a3a;stroke-linecap:round;paint-order:fill markers stroke;enable-background:accumulate;stop-color:#000000"
       id="path53"
       inkscape:transform-center-x="-5.9369162"
       inkscape:transform-center-y="-0.1181379" />
    <path
       d="m 186.62797,102.60554 c -0.002,0.0411 -0.003,0.0826 -0.003,0.12447 -0.002,0.16443 0.009,0.32412 0.029,0.47778 l 3.76838,0.2044 c 0.0391,-0.18912 0.0622,-0.3884 0.0671,-0.59632 z"
       style="baseline-shift:baseline;display:inline;overflow:visible;vector-effect:none;fill:#faf967;fill-opacity:0;stroke-linecap:round;paint-order:fill markers stroke;enable-background:accumulate;stop-color:#000000"
       id="path51"
       inkscape:transform-center-x="-2.1938182"
       inkscape:transform-center-y="0.011915769" />
    <path
       d="m 186.70913,102.00922 c -0.0438,0.18873 -0.0718,0.38793 -0.0811,0.59633 l 3.86119,0.21032 c -3e-5,-0.0169 9.5e-4,-0.0336 0.001,-0.0505 0.002,-0.19135 -0.0128,-0.37611 -0.0404,-0.55272 z"
       style="baseline-shift:baseline;display:inline;overflow:visible;vector-effect:none;fill:#faf967;fill-opacity:0;stroke-linecap:round;paint-order:fill markers stroke;enable-background:accumulate;stop-color:#000000"
       id="path47"
       inkscape:transform-center-x="-2.1959393"
       inkscape:transform-center-y="-0.58440447" />
    <path
       d="m 186.70913,102.00922 3.74056,0.20339 c -0.1869,-1.19351 -1.00144,-2.01741 -1.86786,-2.0253 -0.8248,-0.007 -1.61811,0.72497 -1.8727,1.82191 z"
       style="baseline-shift:baseline;display:inline;overflow:visible;vector-effect:none;fill:#faf967;fill-opacity:0;stroke-linecap:round;paint-order:fill markers stroke;enable-background:accumulate;stop-color:#000000"
       id="path46"
       inkscape:transform-center-x="-2.2161346"
       inkscape:transform-center-y="-1.7970225" />
    <path
       d="m 191.62987,103.47805 -0.60358,-0.0331 a 2.533401,3.1594713 0.52178557 0 1 -1.6e-4,4.9e-4 2.533401,3.1594713 0.52178557 0 1 -2.49737,2.46045 2.533401,3.1594713 0.52178557 0 1 -2.4829,-2.73143 l -0.60636,-0.0329 c 0.1549,1.82392 1.409,3.34838 3.08451,3.36364 1.58898,0.0145 2.8225,-1.33476 3.10586,-3.02718 z"
       style="baseline-shift:baseline;display:inline;overflow:visible;vector-effect:none;fill:#f43a3a;stroke-linecap:round;paint-order:fill markers stroke;enable-background:accumulate;stop-color:#000000"
       id="path43"
       inkscape:transform-center-x="-2.1714095"
       inkscape:transform-center-y="1.8264894" />
    <path
       d="m 189.47457,99.1442 c -0.27662,-0.09847 -0.57212,-0.153434 -0.88194,-0.156257 -1.56571,-0.01426 -2.78768,1.297587 -3.09457,2.955497 l 0.60472,0.0329 a 2.533401,3.1594713 0.52178557 0 1 2.48346,-2.38903 2.533401,3.1594713 0.52178557 0 1 2.47405,2.65839 l 0.60799,0.0328 c -0.14807,-1.45491 -0.995,-2.707623 -2.19371,-3.13435 z"
       style="baseline-shift:baseline;display:inline;overflow:visible;vector-effect:none;fill:#f43a3a;stroke-linecap:round;paint-order:fill markers stroke;enable-background:accumulate;stop-color:#000000"
       id="path39"
       inkscape:transform-center-x="-2.2198946"
       inkscape:transform-center-y="-2.3637878" />
    <path
       d="m 191.66828,102.27855 c 0.0167,0.16372 0.0244,0.3296 0.0229,0.49753 -2.8e-4,0.0349 -9.1e-4,0.0701 -0.002,0.10481 v 0 c -0.007,0.20243 -0.0266,0.40224 -0.0592,0.59715 l 0.71011,0.0384 a 0.60000002,0.60000002 0 0 0 0.63188,-0.56547 0.60000002,0.60000002 0 0 0 -0.56695,-0.63233 z"
       style="baseline-shift:baseline;display:inline;overflow:visible;vector-effect:none;fill:#faf967;stroke-linecap:round;paint-order:fill markers stroke;enable-background:accumulate;stop-color:#000000"
       id="path40"
       inkscape:transform-center-x="-5.9381604"
       inkscape:transform-center-y="-0.099005036" />
    <path
       d="m 191.08913,102.84838 -0.59997,-0.0325 c -0.005,0.20792 -0.028,0.4072 -0.0671,0.59633 l 0.60422,0.0328 a 2.533401,3.1594713 0.52178557 0 0 0.0628,-0.59657 z"
       style="baseline-shift:baseline;display:inline;overflow:visible;vector-effect:none;fill:#fa9767;fill-opacity:1;stroke-linecap:round;paint-order:fill markers stroke;enable-background:accumulate;stop-color:#000000"
       id="path49"
       inkscape:transform-center-x="-4.3923205"
       inkscape:transform-center-y="0.13349582" />
    <path
       d="m 190.44969,102.21261 c 0.0277,0.17662 0.0422,0.36136 0.0405,0.55272 0,0.017 -9.5e-4,0.0336 -0.001,0.0505 l 0.59997,0.0325 a 2.533401,3.1594713 0.52178557 0 0 0.002,-0.0785 2.533401,3.1594713 0.52178557 0 0 -0.0303,-0.52417 l -0.61045,-0.0336 z"
       style="baseline-shift:baseline;display:inline;overflow:visible;vector-effect:none;fill:#fa9767;fill-opacity:1;stroke-linecap:round;paint-order:fill markers stroke;enable-background:accumulate;stop-color:#000000"
       id="path48"
       inkscape:transform-center-x="-4.407232"
       inkscape:transform-center-y="-0.46675443" />
    <path
       d="m 191.6891,102.88091 -0.59997,-0.0325 a 2.533401,3.1594713 0.52178557 0 1 -0.0628,0.59657 l 0.60358,0.0331 c 0.0326,-0.19491 0.0527,-0.39472 0.0592,-0.59714 z"
       style="baseline-shift:baseline;display:inline;overflow:visible;vector-effect:none;fill:#f43a3a;stroke-linecap:round;paint-order:fill markers stroke;enable-background:accumulate;stop-color:#000000"
       id="path42"
       inkscape:transform-center-x="-4.9944457"
       inkscape:transform-center-y="0.16629583" />
    <path
       d="m 191.66828,102.27855 -0.60799,-0.0328 a 2.533401,3.1594713 0.52178557 0 1 0.0303,0.52418 2.533401,3.1594713 0.52178557 0 1 -0.002,0.0785 l 0.59997,0.0325 c 0.001,-0.0347 0.002,-0.07 0.002,-0.1048 0.002,-0.16793 -0.006,-0.33383 -0.0229,-0.49754 z"
       style="baseline-shift:baseline;display:inline;overflow:visible;vector-effect:none;fill:#f43a3a;stroke-linecap:round;paint-order:fill markers stroke;enable-background:accumulate;stop-color:#000000"
       id="path41"
       inkscape:transform-center-x="-5.0123013"
       inkscape:transform-center-y="-0.43360941" />
    <path
       d="m 190.64018,102.2227 1.76473,0.0959 a 0.60000002,0.60000002 0 0 1 0.56695,0.63234 0.60000002,0.60000002 0 0 1 -0.63189,0.56547 l -1.73182,-0.0939 c 0.18342,0.99896 0.88033,1.70089 1.65094,1.70641 0.90691,0.006 1.73306,-0.95288 1.74725,-2.23753 0.0142,-1.28464 -0.79056,-2.25396 -1.69747,-2.26045 -0.74737,-0.005 -1.44017,0.64418 -1.66869,1.59173 z"
       style="baseline-shift:baseline;display:inline;overflow:visible;vector-effect:none;fill:#faf967;fill-opacity:0;stroke-linecap:round;paint-order:fill markers stroke;enable-background:accumulate;stop-color:#000000"
       id="path57"
       inkscape:transform-center-x="-5.9440636"
       inkscape:transform-center-y="-0.11702449" />
    <path
       d="m 190.60815,103.42254 c 0.18342,0.99896 0.88033,1.70089 1.65094,1.70641 0.28327,0.002 0.5587,-0.0902 0.80394,-0.25716 0.5397,-0.36755 0.93355,-1.09717 0.94331,-1.98037 0.0142,-1.28464 -0.79056,-2.25396 -1.69747,-2.26045 -0.74737,-0.005 -1.4402,0.64417 -1.66869,1.59173 l 1.76473,0.0959 a 0.60000002,0.60000002 0 0 1 0.56695,0.63234 0.60000002,0.60000002 0 0 1 -0.55328,0.56483 0.60000002,0.60000002 0 0 1 -0.0786,6.7e-4 z"
       style="baseline-shift:baseline;display:inline;overflow:visible;vector-effect:none;fill:#faf967;fill-opacity:0;stroke-linecap:round;paint-order:fill markers stroke;enable-background:accumulate;stop-color:#000000"
       id="path62"
       inkscape:transform-center-x="-5.9440636"
       inkscape:transform-center-y="-0.11699256" />
    <path
       d="m 190.562,102.81994 c -6e-4,0.0155 -0.001,0.0309 -9.4e-4,0.0468 -0.002,0.19309 0.0146,0.37912 0.0471,0.55583 l 1.73182,0.0939 a 0.60000002,0.60000002 0 0 0 0.63188,-0.56547 0.60000002,0.60000002 0 0 0 -0.56695,-0.63234 l -1.76472,-0.0959 c -0.0454,0.18825 -0.0726,0.38823 -0.0782,0.59724 z"
       style="baseline-shift:baseline;display:inline;overflow:visible;vector-effect:none;fill:#faf967;fill-opacity:0;stroke-linecap:round;paint-order:fill markers stroke;enable-background:accumulate;stop-color:#000000"
       id="path56"
       inkscape:transform-center-x="-5.4035647"
       inkscape:transform-center-y="-0.12688505" />
    <path
       d="m 190.60815,103.42254 1.73182,0.0939 a 0.60000002,0.60000002 0 0 0 0.0786,-6.7e-4 0.60000002,0.60000002 0 0 0 0.55328,-0.56484 0.60000002,0.60000002 0 0 0 -0.56696,-0.63234 l -1.76472,-0.0959 c -0.0454,0.18825 -0.0726,0.38823 -0.0782,0.59724 -6e-4,0.0155 -0.001,0.0309 -9.4e-4,0.0468 -0.002,0.19309 0.0146,0.37913 0.0471,0.55583 z"
       style="baseline-shift:baseline;display:inline;overflow:visible;vector-effect:none;fill:#faf967;fill-opacity:0;stroke-linecap:round;paint-order:fill markers stroke;enable-background:accumulate;stop-color:#000000"
       id="path61"
       inkscape:transform-center-x="-5.4035446"
       inkscape:transform-center-y="-0.12689664" />
    <path
       d="m 191.02629,103.44495 -0.60422,-0.0328 c -0.23503,1.13741 -1.04372,1.902 -1.88692,1.89432 -0.88456,-0.008 -1.7174,-0.86493 -1.88146,-2.09873 l -0.60783,-0.0333 a 2.533401,3.1594713 0.52178557 0 0 2.4829,2.73143 2.533401,3.1594713 0.52178557 0 0 2.49737,-2.46045 2.533401,3.1594713 0.52178557 0 1 1.6e-4,-4.9e-4 z"
       style="baseline-shift:baseline;display:inline;overflow:visible;vector-effect:none;fill:#fa9767;fill-opacity:1;stroke-linecap:round;paint-order:fill markers stroke;enable-background:accumulate;stop-color:#000000"
       id="path50"
       inkscape:transform-center-x="-2.1727995"
       inkscape:transform-center-y="1.5432494" />
    <path
       d="m 186.10278,101.97635 0.60635,0.0329 c 0.25457,-1.09695 1.0479,-1.82942 1.8727,-1.82191 0.86642,0.008 1.68111,0.83129 1.86801,2.02481 l 0.61045,0.0336 a 2.533401,3.1594713 0.52178557 0 0 -2.47405,-2.65839 2.533401,3.1594713 0.52178557 0 0 -2.48346,2.38903 z"
       style="baseline-shift:baseline;display:inline;overflow:visible;vector-effect:none;fill:#fa9767;fill-opacity:1;stroke-linecap:round;paint-order:fill markers stroke;enable-background:accumulate;stop-color:#000000"
       id="path45"
       inkscape:transform-center-x="-2.2182596"
       inkscape:transform-center-y="-2.0804396" />
    <path
       d="m 167.44899,100.60274 c -11.9508,0.47058 -14.35046,3.87405 -21.08497,11.77754 0,0 3.41371,0.25899 7.81449,0.77153 0.62567,0.0729 1.33044,-2.29925 1.99161,-2.22725 6.1905,0.67416 13.60159,3.63041 17.16738,1.62057 1.77107,-0.99825 -0.45295,-2.66871 -0.19533,-3.81009 0.27497,-1.21827 2.7495,-2.11677 3.66178,-2.58744 4.41058,-2.27551 5.6637,-2.29054 6.61302,-2.98172 0.47004,-0.34223 -0.22789,-0.92397 -0.22789,-0.92397 0,0 -3.59161,-1.47445 -15.74009,-1.63917 z m -0.78238,6.58872 c 2.63862,2e-5 4.77748,1.00513 4.77696,2.24482 -3e-5,0.0307 -0.001,0.0613 -0.004,0.092 0.0576,0.12326 0.11136,0.25579 0.15968,0.4036 0.0552,0.16887 0.18369,0.45752 0.27698,0.76791 0.0311,0.10352 0.0583,0.20924 0.0775,0.31419 0.0336,0.18366 0.0429,0.36403 0.006,0.52193 -0.0104,0.045 -0.0245,0.0888 -0.0429,0.12971 -0.0184,0.0409 -0.0414,0.0799 -0.0687,0.11575 -0.0273,0.0358 -0.0604,0.0693 -0.0977,0.0992 -0.0563,0.0451 -0.12402,0.0828 -0.20567,0.11214 -0.44349,0.15931 -1.28727,0.12455 -2.20244,0.0263 -0.86944,-0.0933 -1.80395,-0.24407 -2.52336,-0.34003 -1.55858,-0.26799 -2.02233,-0.37175 -3.44629,-0.61697 -0.72712,-0.20928 -1.24923,-0.46531 -1.45779,-0.79529 -0.0327,-0.0519 -0.0576,-0.10558 -0.0744,-0.16123 l -5.1e-4,-5.2e-4 c -0.0169,-0.0558 -0.0253,-0.11331 -0.0253,-0.17312 0,-0.0598 0.009,-0.119 0.0253,-0.17725 0.008,-0.0291 0.0186,-0.0581 0.031,-0.0868 0.009,-0.0217 0.0225,-0.13325 0.0341,-0.15467 -0.009,-0.0555 -0.0159,-0.0482 -0.016,-0.10386 -5.1e-4,-1.23979 2.13866,-2.21791 4.77748,-2.21779 z"
       style="fill:#292b33;fill-opacity:1;stroke:#48578d;stroke-width:0;stroke-linecap:round;paint-order:fill markers stroke"
       id="path135"
       sodipodi:nodetypes="ccsssssscccscsssssscssccsccssscccc" />
    <path
       style="fill:#484b58;fill-opacity:1;stroke:#48578d;stroke-width:0;stroke-linecap:round;stroke-dasharray:none;stroke-opacity:1;paint-order:fill markers stroke"
       d="m 146.40238,113.13287 c 0.67761,1.02703 1.39454,2.11163 2.38717,1.81364 0.16788,-0.0504 0.70768,-0.51655 0.85381,-0.61289 0.48722,-0.32122 0.80641,-0.90155 0.64338,-1.76593 -0.16825,-0.89201 -1.11849,-3.25541 -3.39529,-3.29324 -0.19645,-0.003 -1.08809,0.59298 -1.26778,0.72948 -0.67098,0.50969 -0.36642,1.39327 0.77871,3.12894 z"
       id="path18-6-5"
       sodipodi:nodetypes="sssssss" />
    <path
       style="fill:#1b1d24;fill-opacity:1;stroke:#48578d;stroke-width:0;stroke-linecap:round;stroke-dasharray:none;stroke-opacity:1;paint-order:fill markers stroke"
       d="m 145.62556,113.72891 c 0.6776,1.02704 1.77308,1.71852 2.76572,1.42052 0.72762,-0.21843 1.33056,-0.86207 1.11863,-1.98569 -0.16824,-0.89202 -1.11849,-3.25543 -3.39528,-3.29325 -0.93001,-0.0155 -1.94087,1.65795 -0.48907,3.85842 z"
       id="path18-6"
       sodipodi:nodetypes="sasss" />
    <path
       d="m 166.66661,107.1091 a 4.7770271,2.2443788 0 0 0 -4.77747,2.24482 4.7770271,2.2443788 0 0 0 0.0134,0.16692 c 0.0191,-0.0351 0.0412,-0.07 0.0661,-0.10439 0.10054,-0.1384 0.24838,-0.26999 0.43666,-0.39274 0.22594,-0.14731 0.51033,-0.28187 0.84232,-0.39946 0.8853,-0.31354 2.10831,-0.50746 3.45922,-0.50746 0.42991,0 0.83004,-0.008 1.20147,-0.0129 0.21222,-0.003 0.41497,-0.005 0.60875,-0.004 0.11211,5e-4 0.19829,0.0142 0.30437,0.017 0.23229,0.006 0.4724,0.0139 0.67644,0.0377 0.0638,0.007 0.13168,0.0136 0.19276,0.0233 0.1249,0.0198 0.24894,0.0411 0.36277,0.0718 0.1532,0.0414 0.29676,0.094 0.43046,0.15968 0.0226,0.0111 0.0441,0.0238 0.0661,0.0357 0.0438,0.0236 0.087,0.0481 0.12867,0.0749 0.024,0.0155 0.047,0.0325 0.0703,0.0491 0.0382,0.0272 0.0759,0.0555 0.11214,0.0858 0.0218,0.0183 0.0429,0.0379 0.0641,0.0574 0.0345,0.0317 0.0681,0.0648 0.10077,0.0997 0.0213,0.0228 0.0425,0.0461 0.0631,0.0703 0.033,0.0389 0.065,0.0802 0.0961,0.12299 0.0164,0.0225 0.0327,0.0451 0.0486,0.0687 0.0328,0.0489 0.0645,0.10118 0.0951,0.15503 0.0136,0.0239 0.0276,0.0469 0.0408,0.0718 0.0129,0.0244 0.0247,0.0521 0.0372,0.0775 0.011,0.0223 0.0219,0.0448 0.0326,0.0677 a 4.7770271,2.2443788 0 0 0 0.004,-0.092 4.7770271,2.2443788 0 0 0 -4.77696,-2.24482 z"
       style="fill:#1b1d24;fill-opacity:1;stroke:#fa9767;stroke-width:0;stroke-linecap:round;paint-order:fill markers stroke"
       id="path136" />
  </g>
</svg>
