<?xml version="1.0" encoding="UTF-8" standalone="no"?>
<!-- Created with Inkscape (http://www.inkscape.org/) -->

<svg
   width="2000.11"
   height="895.69"
   viewBox="0 0 529.1947 236.98398"
   version="1.1"
   id="svg1"
   inkscape:version="1.4.2 (f4327f4, 2025-05-13)"
   sodipodi:docname="CountDownContainerDecoGhostInvasion.svg"
   xmlns:inkscape="http://www.inkscape.org/namespaces/inkscape"
   xmlns:sodipodi="http://sodipodi.sourceforge.net/DTD/sodipodi-0.dtd"
   xmlns="http://www.w3.org/2000/svg"
   xmlns:svg="http://www.w3.org/2000/svg">
  <sodipodi:namedview
     id="namedview1"
     pagecolor="#ffffff"
     bordercolor="#000000"
     borderopacity="0.25"
     inkscape:showpageshadow="2"
     inkscape:pageopacity="0.0"
     inkscape:pagecheckerboard="0"
     inkscape:deskcolor="#d1d1d1"
     inkscape:document-units="mm"
     inkscape:zoom="1.6062079"
     inkscape:cx="941.65892"
     inkscape:cy="503.98208"
     inkscape:window-width="3840"
     inkscape:window-height="2054"
     inkscape:window-x="-11"
     inkscape:window-y="-11"
     inkscape:window-maximized="1"
     inkscape:current-layer="svg1"
     showgrid="true">
    <inkscape:grid
       id="grid1"
       units="mm"
       originx="139"
       originy="10.68689"
       spacingx="0.99999999"
       spacingy="0.99999998"
       empcolor="#0099e5"
       empopacity="0.30196078"
       color="#0099e5"
       opacity="0.14901961"
       empspacing="5"
       enabled="true"
       visible="true" />
  </sodipodi:namedview>
  <defs
     id="defs1">
    <inkscape:path-effect
       effect="mirror_symmetry"
       start_point="77.199904,69.000027"
       end_point="77.199904,93.044622"
       center_point="77.199904,81.022324"
       id="path-effect2"
       is_visible="true"
       lpeversion="1.2"
       lpesatellites=""
       mode="free"
       discard_orig_path="false"
       fuse_paths="false"
       oposite_fuse="false"
       split_items="false"
       split_open="false"
       link_styles="false" />
    <inkscape:path-effect
       effect="fillet_chamfer"
       id="path-effect5"
       is_visible="true"
       lpeversion="1"
       nodesatellites_param="F,0,0,1,0,0,0,1 @ F,0,0,1,0,2.0496102,0,1 @ F,0,0,1,0,0,0,1"
       radius="0"
       unit="px"
       method="auto"
       mode="F"
       chamfer_steps="1"
       flexible="false"
       use_knot_distance="true"
       apply_no_radius="true"
       apply_with_radius="true"
       only_selected="false"
       hide_knots="false" />
    <inkscape:path-effect
       effect="fillet_chamfer"
       id="path-effect28"
       is_visible="true"
       lpeversion="1"
       nodesatellites_param="F,0,0,1,0,0,0,1 @ F,0,0,1,0,0,0,1 @ F,0,0,1,0,0,0,1 @ F,0,0,1,0,0,0,1 @ F,0,0,1,0,0,0,1 @ F,0,0,1,0,0,0,1 @ F,0,0,1,0,0,0,1 @ F,0,0,1,0,0,0,1 @ F,0,0,1,0,0,0,1 @ F,0,0,1,0,0,0,1 @ F,0,0,1,0,0,0,1 @ F,0,0,1,0,0,0,1 | F,0,0,1,0,0,0,1 @ F,0,0,1,0,0,0,1 @ F,0,0,1,0,0,0,1 @ F,0,0,1,0,0,0,1 @ F,0,0,1,0,0,0,1 @ F,0,0,1,0,0,0,1 @ F,0,0,1,0,0,0,1 @ F,0,0,1,0,0,0,1 @ F,0,0,1,0,0,0,1 @ F,0,0,1,0,0,0,1 @ F,0,0,1,0,0,0,1"
       radius="0"
       unit="px"
       method="auto"
       mode="F"
       chamfer_steps="1"
       flexible="false"
       use_knot_distance="true"
       apply_no_radius="true"
       apply_with_radius="true"
       only_selected="false"
       hide_knots="false" />
    <inkscape:path-effect
       effect="powerstroke"
       message=""
       id="path-effect4"
       is_visible="true"
       lpeversion="1.3"
       scale_width="1"
       interpolator_type="CentripetalCatmullRom"
       interpolator_beta="0.75"
       start_linecap_type="round"
       end_linecap_type="round"
       offset_points="10.839744,0.43679433"
       linejoin_type="spiro"
       miter_limit="4"
       not_jump="true"
       sort_points="true" />
    <inkscape:path-effect
       effect="simplify"
       id="path-effect3"
       is_visible="true"
       lpeversion="1.3"
       threshold="0.012"
       steps="1"
       smooth_angles="0"
       helper_size="0"
       simplify_individual_paths="false"
       simplify_just_coalesce="false"
       step="1" />
    <inkscape:path-effect
       effect="fillet_chamfer"
       id="path-effect5-4"
       is_visible="true"
       lpeversion="1"
       nodesatellites_param="F,0,0,1,0,0,0,1 @ F,0,0,1,0,2.0496102,0,1 @ F,0,0,1,0,0,0,1"
       radius="0"
       unit="px"
       method="auto"
       mode="F"
       chamfer_steps="1"
       flexible="false"
       use_knot_distance="true"
       apply_no_radius="true"
       apply_with_radius="true"
       only_selected="false"
       hide_knots="false" />
    <inkscape:path-effect
       effect="fillet_chamfer"
       id="path-effect5-4-5"
       is_visible="true"
       lpeversion="1"
       nodesatellites_param="F,0,0,1,0,0,0,1 @ F,0,0,1,0,2.0496102,0,1 @ F,0,0,1,0,0,0,1"
       radius="0"
       unit="px"
       method="auto"
       mode="F"
       chamfer_steps="1"
       flexible="false"
       use_knot_distance="true"
       apply_no_radius="true"
       apply_with_radius="true"
       only_selected="false"
       hide_knots="false" />
  </defs>
  <g
     inkscape:label="Ebene 1"
     inkscape:groupmode="layer"
     id="layer1"
     transform="translate(138.80001,10.686892)">
    <path
       id="path5-1"
       style="fill:#96adb4;stroke:#5c5f6a;stroke-width:0;stroke-linecap:round;paint-order:fill markers stroke;fill-opacity:1"
       d="m 156.79167,70.811516 a 12.734862,11.263195 0 0 0 -12.68839,10.305861 13.477729,8.2844991 0 0 0 -9.91579,-2.673123 13.477729,8.2844991 0 0 0 -11.37135,3.837681 7.7470411,5.7712241 0 0 0 -5.60844,-1.790058 7.7470411,5.7712241 0 0 0 -1.78314,0.155353 12.734862,11.263195 0 0 0 -8.47625,-2.857679 12.734862,11.263195 0 0 0 -10.566327,4.976553 12.734862,11.263195 0 0 0 -9.206675,-3.481426 12.734862,11.263195 0 0 0 -11.75687,6.933653 A 12.734862,11.263195 0 0 0 68.42504,84.368118 12.734862,11.263195 0 0 0 56.753398,91.12538 12.734862,11.263195 0 0 0 53.083913,90.647644 12.734862,11.263195 0 0 0 47.845024,91.644596 12.734862,11.263195 0 0 0 38.203552,85.939743 12.734862,11.263195 0 0 0 25.469883,74.799299 12.734862,11.263195 0 0 0 12.734882,86.06239 a 12.734862,11.263195 0 0 0 0.192431,1.95185 12.734862,11.263195 0 0 0 -3.3172531,0.70609 12.734862,11.263195 0 0 0 -12.4360351,-8.8376 12.734862,11.263195 0 0 0 -12.7349988,11.263096 12.734862,11.263195 0 0 0 1.653964,5.551235 12.734862,11.263195 0 0 0 -8.351059,-2.760141 12.734862,11.263195 0 0 0 -9.875851,4.193365 9.5774578,8.4706671 0 0 0 -7.704523,-3.454555 9.5774578,8.4706671 0 0 0 -9.57755,8.47083 9.5774578,8.4706671 0 0 0 8.370372,8.40074 12.734862,11.263195 0 0 0 -0.08388,1.12834 12.734862,11.263195 0 0 0 12.734995,11.2631 12.734862,11.263195 0 0 0 3.979771,-0.56417 12.734862,11.263195 0 0 0 12.384099,8.63785 12.734862,11.263195 0 0 0 4.3699575,-0.6839 12.734862,11.263195 0 0 0 -0.059253,1.0828 12.734862,11.263195 0 0 0 12.7349993,11.2631 12.734862,11.263195 0 0 0 5.2308992,-0.99404 12.734862,11.263195 0 0 0 11.473884,6.37649 12.734862,11.263195 0 0 0 8.066744,-2.54755 12.734862,11.263195 0 0 0 12.729008,10.92026 12.734862,11.263195 0 0 0 10.503078,-4.89363 12.734862,11.263195 0 0 0 1.769824,0.10918 12.734862,11.263195 0 0 0 4.499132,-0.72595 12.734862,11.263195 0 0 0 9.137425,3.41717 12.734862,11.263195 0 0 0 4.093632,-0.59747 12.734862,11.263195 0 0 0 11.247497,5.97993 12.734862,11.263195 0 0 0 3.302604,-0.38546 12.734862,11.263195 0 0 0 5.902072,1.28254 12.734862,11.263195 0 0 0 11.081033,-5.74747 12.734862,11.263195 0 0 0 11.07837,5.74747 12.734862,11.263195 0 0 0 10.87329,-5.39998 12.734862,11.263195 0 0 0 0.71779,0.0176 12.734862,11.263195 0 0 0 3.28529,-0.38137 12.734862,11.263195 0 0 0 7.96487,2.47455 12.734862,11.263195 0 0 0 3.99442,-0.56828 12.734862,11.263195 0 0 0 8.96031,3.25949 12.734862,11.263195 0 0 0 6.1511,-1.4005 12.734862,11.263195 0 0 0 9.53094,3.79272 12.734862,11.263195 0 0 0 1.21649,-0.0514 12.734862,11.263195 0 0 0 8.32909,2.74262 12.734862,11.263195 0 0 0 9.42974,-3.69343 12.734862,11.263195 0 0 0 10.00236,4.29149 12.734862,11.263195 0 0 0 7.83037,-2.38054 12.734862,11.263195 0 0 0 9.89716,4.17468 12.734862,11.263195 0 0 0 12.25625,-8.20509 12.734862,11.263195 0 0 0 2.64076,0.24471 12.734862,11.263195 0 0 0 11.17025,-5.85494 12.734862,11.263195 0 0 0 7.00139,1.85431 12.734862,11.263195 0 0 0 12.53392,-9.27213 12.734862,11.263195 0 0 0 12.47397,-11.26076 12.734862,11.263195 0 0 0 -7.7731,-10.37301 12.734862,11.263195 0 0 0 0.95483,-4.27923 12.734862,11.263195 0 0 0 -12.735,-11.26308 12.734862,11.263195 0 0 0 -4.39393,0.69148 12.734862,11.263195 0 0 0 -11.62902,-6.672 12.734862,11.263195 0 0 0 -4.11428,0.6039 12.734862,11.263195 0 0 0 -9.77597,-9.296067 12.734862,11.263195 0 0 0 -12.70105,-10.445448 12.734862,11.263195 0 0 0 -4.26941,0.651783 12.734862,11.263195 0 0 0 -11.38066,-6.208869 12.734862,11.263195 0 0 0 -7.76578,2.33672 17.404312,10.332354 0 0 0 -13.3083,-3.674158 17.404312,10.332354 0 0 0 -3.70477,0.237119 12.734862,11.263195 0 0 0 -12.00191,-7.497243 z m 59.19917,75.285464 a 12.734862,11.263195 0 0 0 -0.0372,0.11506 12.734862,11.263195 0 0 0 -0.26367,-0.0467 128.30374,29.321542 0 0 0 0.30097,-0.0684 z m -10.26403,2.08734 a 12.734862,11.263195 0 0 0 -0.24436,0.16411 12.734862,11.263195 0 0 0 -0.0946,-0.10273 128.30374,29.321542 0 0 0 0.33893,-0.0614 z" />
    <path
       id="path1"
       style="fill:#99cada;stroke:#5c5f6a;stroke-width:0;stroke-linecap:round;paint-order:fill markers stroke"
       d="M 148.54196 78.438202 A 18.790684 18.370707 0 0 0 133.07369 86.378783 A 14.851359 14.911481 0 0 0 127.66939 85.356626 A 14.851359 14.911481 0 0 0 118.90095 88.232929 A 14.851359 14.911481 0 0 0 111.79442 86.414957 A 14.851359 14.911481 0 0 0 100.60599 91.520576 A 14.851359 14.911481 0 0 0 91.68614 88.531618 A 14.851359 14.911481 0 0 0 83.770363 90.826563 A 14.851359 14.911481 0 0 0 79.250753 90.119115 A 14.851359 14.911481 0 0 0 70.651299 92.878113 A 12.545209 12.595994 0 0 0 68.327932 92.633684 A 12.545209 12.595994 0 0 0 60.884994 95.105878 A 14.851359 14.911481 0 0 0 46.971665 85.356626 A 14.851359 14.911481 0 0 0 36.572841 89.622505 A 14.851359 14.911481 0 0 0 35.594609 89.589949 A 14.851359 14.911481 0 0 0 26.731605 92.552035 A 17.312273 17.382357 0 0 0 19.207535 90.783672 A 17.312273 17.382357 0 0 0 2.8938414 102.3478 A 16.801956 16.554869 0 0 0 -1.9136055 101.65585 A 16.801956 16.554869 0 0 0 -10.754905 104.1327 A 14.851359 14.911481 0 0 0 -20.980096 100.0358 A 14.851359 14.911481 0 0 0 -35.83135 114.947 A 14.851359 14.911481 0 0 0 -21.937658 129.82771 A 16.307781 15.813606 0 0 0 -5.7019956 144.15445 A 16.307781 15.813606 0 0 0 -2.1301292 143.77049 A 14.851359 14.911481 0 0 0 10.988418 151.69195 A 14.851359 14.911481 0 0 0 11.197707 151.678 A 9.0036201 9.0400686 0 0 0 19.746519 157.94065 A 9.0036201 9.0400686 0 0 0 22.64556 157.43887 A 14.851359 14.911481 0 0 0 22.595434 158.21195 A 14.851359 14.911481 0 0 0 37.446688 173.12315 A 14.851359 14.911481 0 0 0 41.160664 172.64928 A 14.851359 14.911481 0 0 0 51.469571 176.82731 A 14.851359 14.911481 0 0 0 59.650447 174.36131 A 14.851359 14.911481 0 0 0 62.846626 174.71065 A 14.851359 14.911481 0 0 0 71.324125 172.0426 A 14.851359 14.911481 0 0 0 80.83825 175.50439 A 14.851359 14.911481 0 0 0 88.48841 173.37378 A 14.851359 14.911481 0 0 0 98.300707 177.09189 A 14.851359 14.911481 0 0 0 102.63118 176.44387 A 14.851359 14.911481 0 0 0 113.11734 180.79605 A 14.851359 14.911481 0 0 0 121.53076 178.17244 A 14.851359 14.911481 0 0 0 130.31521 181.06063 A 14.851359 14.911481 0 0 0 143.32369 173.34381 A 14.851359 14.911481 0 0 0 152.54016 176.56273 A 14.851359 14.911481 0 0 0 153.44243 176.53534 A 14.851359 14.911481 0 0 0 161.53597 178.94397 A 14.851359 14.911481 0 0 0 168.53346 177.15339 A 12.840658 12.89264 0 0 0 178.36333 181.78565 A 12.840658 12.89264 0 0 0 184.45441 180.22141 A 14.851359 14.911481 0 0 0 190.64007 181.5898 A 14.851359 14.911481 0 0 0 197.42878 179.94081 A 14.851359 14.911481 0 0 0 203.07545 181.06063 A 14.851359 14.911481 0 0 0 214.87471 175.20467 A 14.851359 14.911481 0 0 0 221.06708 176.56273 A 14.851359 14.911481 0 0 0 233.91019 169.13942 A 14.851359 14.911481 0 0 0 247.62147 157.95564 A 14.851359 14.911481 0 0 0 254.7037 145.2474 A 14.851359 14.911481 0 0 0 247.59976 132.52521 A 14.851359 14.911481 0 0 0 248.88288 126.46203 A 14.851359 14.911481 0 0 0 234.03163 111.55031 A 14.851359 14.911481 0 0 0 231.2933 111.8366 A 11.557412 11.604199 0 0 0 219.88989 102.02534 A 11.557412 11.604199 0 0 0 214.13728 103.56684 A 14.851359 14.911481 0 0 0 210.12875 102.24754 A 14.851359 14.911481 0 0 0 196.1963 92.500359 A 14.851359 14.911481 0 0 0 194.6765 92.600611 A 17.640394 17.711807 0 0 0 180.44278 85.312185 A 17.640394 17.711807 0 0 0 168.62131 89.914476 A 14.851359 14.911481 0 0 0 164.87271 87.721334 A 18.790684 18.370707 0 0 0 148.54196 78.438202 z " />
    <path
       style="fill:#99cada;fill-opacity:1;stroke:#cfe9f3;stroke-width:1.2;stroke-linecap:round;stroke-dasharray:none;stroke-opacity:1;paint-order:fill markers stroke"
       d="m 180.59498,88.297763 c 0,0 -10.8002,0.144741 -13.84762,11.799037"
       id="path16-7"
       sodipodi:nodetypes="cc" />
    <path
       style="fill:#99cada;fill-opacity:0;stroke:#cfe9f3;stroke-width:1.2;stroke-linecap:round;stroke-dasharray:none;stroke-opacity:1;paint-order:fill markers stroke"
       d="m 16.48344,94.536594 c 0,0 -9.801139,1.153074 -11.654298,13.507456"
       id="path17-2"
       sodipodi:nodetypes="cc" />
    <path
       style="fill:#99cada;fill-opacity:1;stroke:#cfe9f3;stroke-width:1.2;stroke-linecap:round;stroke-dasharray:none;stroke-opacity:1;paint-order:fill markers stroke"
       d="m 149.6253,80.629028 c 0,0 -13.01329,0.494176 -16.06071,12.148474"
       id="path16"
       sodipodi:nodetypes="cc" />
  </g>
  <g
     inkscape:groupmode="layer"
     id="layer2"
     inkscape:label="Ebene 2" />
</svg>
