<?xml version="1.0" encoding="UTF-8" standalone="no"?>
<!-- Created with Inkscape (http://www.inkscape.org/) -->

<svg
   width="2000.11"
   height="895.69"
   viewBox="0 0 529.1947 236.98398"
   version="1.1"
   id="svg1"
   inkscape:version="1.4.2 (f4327f4, 2025-05-13)"
   sodipodi:docname="CountDownContainerMaskGhostInvasion.svg"
   xmlns:inkscape="http://www.inkscape.org/namespaces/inkscape"
   xmlns:sodipodi="http://sodipodi.sourceforge.net/DTD/sodipodi-0.dtd"
   xmlns="http://www.w3.org/2000/svg"
   xmlns:svg="http://www.w3.org/2000/svg">
  <sodipodi:namedview
     id="namedview1"
     pagecolor="#ffffff"
     bordercolor="#000000"
     borderopacity="0.25"
     inkscape:showpageshadow="2"
     inkscape:pageopacity="0.0"
     inkscape:pagecheckerboard="0"
     inkscape:deskcolor="#d1d1d1"
     inkscape:document-units="mm"
     inkscape:zoom="1.6062079"
     inkscape:cx="979.94786"
     inkscape:cy="527.0177"
     inkscape:window-width="3840"
     inkscape:window-height="2054"
     inkscape:window-x="-11"
     inkscape:window-y="-11"
     inkscape:window-maximized="1"
     inkscape:current-layer="layer1"
     showgrid="true">
    <inkscape:grid
       id="grid1"
       units="mm"
       originx="139"
       originy="10.68689"
       spacingx="0.99999999"
       spacingy="0.99999998"
       empcolor="#0099e5"
       empopacity="0.30196078"
       color="#0099e5"
       opacity="0.14901961"
       empspacing="5"
       enabled="true"
       visible="true" />
  </sodipodi:namedview>
  <defs
     id="defs1">
    <inkscape:path-effect
       effect="mirror_symmetry"
       start_point="77.199904,69.000027"
       end_point="77.199904,93.044622"
       center_point="77.199904,81.022324"
       id="path-effect2"
       is_visible="true"
       lpeversion="1.2"
       lpesatellites=""
       mode="free"
       discard_orig_path="false"
       fuse_paths="false"
       oposite_fuse="false"
       split_items="false"
       split_open="false"
       link_styles="false" />
    <inkscape:path-effect
       effect="fillet_chamfer"
       id="path-effect5"
       is_visible="true"
       lpeversion="1"
       nodesatellites_param="F,0,0,1,0,0,0,1 @ F,0,0,1,0,2.0496102,0,1 @ F,0,0,1,0,0,0,1"
       radius="0"
       unit="px"
       method="auto"
       mode="F"
       chamfer_steps="1"
       flexible="false"
       use_knot_distance="true"
       apply_no_radius="true"
       apply_with_radius="true"
       only_selected="false"
       hide_knots="false" />
    <inkscape:path-effect
       effect="fillet_chamfer"
       id="path-effect28"
       is_visible="true"
       lpeversion="1"
       nodesatellites_param="F,0,0,1,0,0,0,1 @ F,0,0,1,0,0,0,1 @ F,0,0,1,0,0,0,1 @ F,0,0,1,0,0,0,1 @ F,0,0,1,0,0,0,1 @ F,0,0,1,0,0,0,1 @ F,0,0,1,0,0,0,1 @ F,0,0,1,0,0,0,1 @ F,0,0,1,0,0,0,1 @ F,0,0,1,0,0,0,1 @ F,0,0,1,0,0,0,1 @ F,0,0,1,0,0,0,1 | F,0,0,1,0,0,0,1 @ F,0,0,1,0,0,0,1 @ F,0,0,1,0,0,0,1 @ F,0,0,1,0,0,0,1 @ F,0,0,1,0,0,0,1 @ F,0,0,1,0,0,0,1 @ F,0,0,1,0,0,0,1 @ F,0,0,1,0,0,0,1 @ F,0,0,1,0,0,0,1 @ F,0,0,1,0,0,0,1 @ F,0,0,1,0,0,0,1"
       radius="0"
       unit="px"
       method="auto"
       mode="F"
       chamfer_steps="1"
       flexible="false"
       use_knot_distance="true"
       apply_no_radius="true"
       apply_with_radius="true"
       only_selected="false"
       hide_knots="false" />
    <inkscape:path-effect
       effect="powerstroke"
       message=""
       id="path-effect4"
       is_visible="true"
       lpeversion="1.3"
       scale_width="1"
       interpolator_type="CentripetalCatmullRom"
       interpolator_beta="0.75"
       start_linecap_type="round"
       end_linecap_type="round"
       offset_points="10.839744,0.43679433"
       linejoin_type="spiro"
       miter_limit="4"
       not_jump="true"
       sort_points="true" />
    <inkscape:path-effect
       effect="simplify"
       id="path-effect3"
       is_visible="true"
       lpeversion="1.3"
       threshold="0.012"
       steps="1"
       smooth_angles="0"
       helper_size="0"
       simplify_individual_paths="false"
       simplify_just_coalesce="false"
       step="1" />
    <inkscape:path-effect
       effect="fillet_chamfer"
       id="path-effect5-4"
       is_visible="true"
       lpeversion="1"
       nodesatellites_param="F,0,0,1,0,0,0,1 @ F,0,0,1,0,2.0496102,0,1 @ F,0,0,1,0,0,0,1"
       radius="0"
       unit="px"
       method="auto"
       mode="F"
       chamfer_steps="1"
       flexible="false"
       use_knot_distance="true"
       apply_no_radius="true"
       apply_with_radius="true"
       only_selected="false"
       hide_knots="false" />
    <inkscape:path-effect
       effect="fillet_chamfer"
       id="path-effect5-4-5"
       is_visible="true"
       lpeversion="1"
       nodesatellites_param="F,0,0,1,0,0,0,1 @ F,0,0,1,0,2.0496102,0,1 @ F,0,0,1,0,0,0,1"
       radius="0"
       unit="px"
       method="auto"
       mode="F"
       chamfer_steps="1"
       flexible="false"
       use_knot_distance="true"
       apply_no_radius="true"
       apply_with_radius="true"
       only_selected="false"
       hide_knots="false" />
  </defs>
  <g
     inkscape:label="Ebene 1"
     inkscape:groupmode="layer"
     id="layer1"
     transform="translate(138.80001,10.686892)">
    <path
       d="m 92.519679,63.468609 c -4.141314,-0.13255 -8.373375,-0.09721 -12.795054,0.142627 -5.677042,0.307918 -11.689151,0.976453 -18.255689,2.015893 -4.688826,0.417398 -10.160008,1.012581 -14.976827,1.511532 -4.955626,0.513329 -9.892246,0.869195 -10.013835,0.869195 -6.887882,0 -16.318345,-1.871199 -16.318345,-1.871199 a 13.300924,13.300924 0 0 0 -0.0739,-0.0155 c -1.58e-4,-3.3e-5 -0.289422,-0.04734 -0.586009,-0.0956 0.137503,0.0277 0.237916,0.04966 0.455268,0.0956 -1.887673,-0.39891 -3.798611,-0.620524 -5.707131,-0.621149 -0.0071,-5e-6 -0.01251,-5e-6 -0.01964,0 a 13.300924,13.300924 0 0 0 -0.0057,0 c -13.1502402,0.01312 -24.816764,9.714712 -26.584359,22.933428 -2.09e-4,5.33e-4 -0.01137,0.03152 -0.01137,0.03152 -4.1e-5,1.78e-4 -0.174465,0.875543 -0.199471,1.042828 -0.100021,0.669139 -0.07517,0.598137 -0.08371,0.685745 -0.01602,0.16435 -0.01429,0.181315 -0.01964,0.251663 a 13.300924,13.300924 0 0 0 -0.0021,0.0021 c -0.0014,0.01873 -0.0038,0.04788 -0.0057,0.07803 -0.0032,0.04813 -0.0116,0.146903 -0.0155,0.205155 a 13.300924,13.300924 0 0 0 -0.0041,0.05271 c -0.0018,0.02859 -4.17e-4,0.05718 -0.0021,0.08578 -0.0085,0.14694 -0.009,0.294716 -0.01344,0.441832 -1.3e-5,6.63e-4 1.3e-5,8.87e-4 0,0.0016 -0.0052,0.171849 -0.01625,0.3438 -0.01602,0.515729 1.56e-4,0.48161 0.01949,0.938321 0.04392,1.384925 l 0.03256,0.581875 c -0.0094,-0.122281 -0.018,-0.245809 -0.02584,-0.371036 0.04022,1.194785 0.11824,3.104298 0.281635,5.326278 0.23831,3.240748 0.257242,7.749408 2.4298204,13.398118 0.423549,1.10122 1.3300208,5.44439 2.0934072,9.9942 1.2603251,7.51157 2.3442035,13.09256 2.0923737,15.70081 1.815e-4,0.001 7.24e-5,0.003 0,0.006 1.913e-4,-0.002 -1.898e-4,-0.005 0,-0.007 0,0 -5.168e-4,-5.1e-4 -5.168e-4,-5.1e-4 0,0 0,-5.2e-4 0,-5.2e-4 0,0 -5.167e-4,0 -5.167e-4,0 0,0 0,-5.2e-4 0,-5.2e-4 0,0 -5.168e-4,0 -5.168e-4,0 0,0 0,5.2e-4 0,5.2e-4 0,0 -5.168e-4,0 -5.168e-4,0 0,0 -5.167e-4,5.2e-4 -5.167e-4,5.2e-4 0,0 -5.168e-4,5.1e-4 -5.168e-4,5.1e-4 0,0 -5.167e-4,5.2e-4 -5.167e-4,5.2e-4 -0.019196,0.0282 -0.1065809,0.34354 -0.1235064,0.36484 0,0 -5.168e-4,0 -5.168e-4,0 0,0 0,5.1e-4 0,5.1e-4 0,0 -5.167e-4,0 -5.167e-4,0 0,0 -5.168e-4,0 -5.168e-4,0 0,0 0,-5.1e-4 0,-5.1e-4 0,0 -5.168e-4,0 -5.168e-4,0 0,0 0,-5.2e-4 0,-5.2e-4 -2.0240811,0.5437 -4.1106465,1.34953 -6.1350115,2.81429 -3.700883,2.67788 -5.877161,6.07397 -7.191275,8.98858 -6.245411,-0.66342 -12.840026,2.25343 -16.013454,7.72044 -3.646156,6.2814 -2.386754,14.99804 2.890256,19.98839 0.02615,0.0251 3.828298,3.67612 8.999946,7.14064 2.550848,1.70882 5.668392,3.59356 9.599907,5.01363 3.7857715,1.36745 10.1261023,2.88271 16.9255414,0.27957 1.7343126,-0.66398 3.1590587,-1.53638 4.4162573,-2.48873 0.726339,0.25363 1.3548167,0.55651 2.1580026,0.76016 6.9823437,1.77036 13.6689997,1.72236 16.1798517,1.81642 0.678049,0.0255 1.142563,0.0367 1.142563,0.0367 a 13.300924,13.300924 0 0 0 0.198954,0.004 c 0.06731,7.8e-4 0.134222,7e-5 0.201538,0 0.719079,0.001 1.424457,-0.0287 2.122862,-0.076 1.711819,-0.0813 4.579323,-0.25171 7.978822,-0.71107 2.582805,-0.34901 5.519517,-0.84748 8.68317,-1.80453 2.132729,-0.64518 5.755751,-1.90035 9.238691,-4.67412 0.03209,-0.0118 0.115868,-0.0503 0.124539,-0.0527 1.289174,-0.35318 3.969241,-0.84719 7.156652,-1.07797 6.394745,-0.46302 15.261558,0.009 23.802624,2.20864 14.714099,3.79014 28.892889,1.92311 41.243899,0.62322 12.34903,-1.29966 23.43191,-2.0071 29.6839,-0.53692 14.22477,3.34503 31.55683,3.01748 46.47819,2.46858 14.7278,-0.54176 26.55706,-1.68705 26.96315,-1.72651 a 13.300924,13.300924 0 0 0 0.002,0 c 3e-4,-2e-5 0.0111,-0.002 0.0114,-0.002 0.006,-5.7e-4 0.23619,-0.0196 0.23668,-0.0196 a 13.300924,13.300924 0 0 0 0.0155,-0.002 h 0.006 a 13.300924,13.300924 0 0 0 0.12505,-0.0119 c 0.51728,-0.0546 0.99876,-0.13018 1.45107,-0.21859 a 13.300924,13.300924 0 0 0 0.0822,-0.0548 c 5.77591,-0.82643 11.24131,-3.21349 15.68169,-7.45896 5.02739,-4.80675 8.10943,-11.37054 8.10956,-18.70734 1e-5,-0.0147 4e-5,-0.0302 0,-0.045 a 13.300924,13.300924 0 0 0 0,-0.0351 c -0.0214,-4.3359 -1.14725,-8.47367 -3.17602,-12.16564 -0.17901,-0.32469 -0.2224,-0.40002 -0.23306,-0.41237 -2.5e-4,-2.5e-4 -8.3e-4,-8.7e-4 -0.001,-0.001 0,0 -5.1e-4,0 -5.1e-4,0 0,0 0,-5.1e-4 0,-5.1e-4 0,0 -5.2e-4,0 -5.2e-4,0 0,0 -5.2e-4,0 -5.2e-4,0 0,0 0,5.1e-4 0,5.1e-4 0,0 0,5.2e-4 0,5.2e-4 -2.5e-4,10e-4 -7.9e-4,0.003 -0.001,0.005 0,0 0,5.2e-4 0,5.2e-4 0,0 -5.2e-4,5.1e-4 -5.2e-4,5.1e-4 0,0 -5.1e-4,0 -5.1e-4,0 0,0 -5.2e-4,0 -5.2e-4,0 0,0 -5.2e-4,0 -5.2e-4,0 -0.002,-7.3e-4 -0.005,-0.003 -0.009,-0.009 a 13.300924,13.300924 0 0 0 -0.01,-0.0863 c 0.11926,0.21585 -1.15757,-3.3624 -1.72444,-5.0896 0.005,-0.008 0.002,-0.0338 0.008,-0.0413 0.60386,-0.84165 1.46913,-1.77982 1.66036,-1.97455 0.1333,-0.12648 0.26647,-0.25392 0.39997,-0.38447 0.0103,-0.01 0.0203,-0.0189 0.0295,-0.0274 0.0104,-0.0102 0.0251,-0.0239 0.045,-0.0429 0.003,-0.003 0.006,-0.007 0.01,-0.01 5.24112,-4.92758 8.90321,-11.28534 10.3673,-18.36576 -0.087,0.27852 -0.17514,0.55417 -0.26406,0.82682 l 0.4532,-1.81487 c -0.0583,0.33072 -0.12137,0.66035 -0.18914,0.98805 1.89929,-6.08079 3.26722,-13.54919 0.95085,-21.802236 -4.76787,-16.987388 -19.77543,-26.169609 -33.3028,-29.519574 -13.2676,-3.285628 -26.66771,-2.867893 -37.4276,-2.435504 -13.10057,0.52645 -23.99152,3.134911 -32.55452,3.332088 -9.80122,0.22569 -20.25771,-0.71872 -31.26003,-1.767846 C 115.9821,65.634743 104.79086,63.86137 92.519679,63.468609 Z m -0.310575,9.670188 c 11.581856,0.370697 22.505776,2.090685 37.185236,4.054523 11.05523,1.054599 21.91652,2.062424 32.51008,1.818489 10.02058,-0.230741 20.86346,-2.86136 32.71886,-3.337773 10.5789,-0.425116 23.22556,-0.685109 34.71459,2.16007 11.55981,2.862711 22.6597,9.727534 26.31254,22.742224 1.61595,5.75749 0.62642,11.6415 -1.02215,16.7793 -0.96919,5.16481 -3.62692,9.94378 -7.51064,13.63221 -0.0141,0.0136 -0.0313,0.03 -0.0512,0.0491 -0.25609,0.2578 -0.51669,0.50637 -0.77928,0.75034 -5.7e-4,5.8e-4 -0.004,0.003 -0.004,0.004 -0.42844,0.43462 -1.5883,1.67001 -2.64066,3.13675 -1.29155,1.80009 -2.21992,4.91673 -2.22467,4.72838 0.097,3.84289 2.8531,9.85214 3.33416,10.72284 a 3.6243136,3.6243136 0 0 1 0.0119,0.0941 c 0.0189,0.0178 0.0544,0.0535 0.23409,0.3824 1.26897,2.30783 1.96765,4.90513 1.98075,7.56076 a 3.6243136,3.6243136 0 0 1 0,0.01 c 2e-5,0.007 1e-5,0.0138 0,0.0212 v 0.008 c -0.002,4.45548 -1.9391,8.66283 -5.12112,11.7052 -2.96898,2.83865 -6.84701,4.51082 -10.90628,4.99038 a 3.6243136,3.6243136 0 0 1 -0.0253,0.0217 c -0.19471,0.038 -0.39799,0.069 -0.61133,0.0915 a 3.6243136,3.6243136 0 0 1 -0.0413,0.004 c -0.0159,0.001 -0.0306,0.002 -0.0465,0.004 l 0.0372,-0.002 c 0,0 -11.98646,1.1696 -26.64844,1.70894 -14.64411,0.5387 -31.7963,0.62922 -43.90832,-2.21898 -8.75143,-2.05794 -20.54484,-0.96775 -32.91213,0.33383 -12.36779,1.30166 -25.47993,2.80881 -37.816718,-0.36897 -9.72508,-2.50507 -19.479476,-3.0287 -26.915605,-2.49028 -3.715014,0.26898 -6.886468,0.81554 -9.013899,1.39836 -0.888213,0.24333 -1.694757,0.59847 -2.25567,0.87901 -0.280457,0.14027 -0.481223,0.25155 -0.695563,0.36535 -0.0556,0.0295 -0.249498,0.10883 -0.328145,0.15038 -2.083976,1.79441 -4.40538,2.81813 -6.329831,3.4003 -2.41731,0.73128 -4.895996,1.17012 -7.177839,1.47846 -3.027591,0.40911 -5.713943,0.57101 -7.246052,0.64286 -0.511396,0.0366 -1.026579,0.0571 -1.545121,0.0563 -0.03482,1.5e-4 -0.06853,4e-4 -0.103353,0 a 3.6243136,3.6243136 0 0 1 -0.05478,0 c 0,0 -0.402643,-0.0113 -1.037143,-0.0351 -2.536174,-0.095 -9.144715,-0.25339 -14.161893,-1.52548 -3.3997962,-0.86202 -5.5973084,-2.54302 -7.1855901,-3.74602 -0.1060685,0.31259 -0.093394,0.4708 -0.2361607,0.80667 -0.683243,1.60737 -2.1266836,3.91442 -4.9924481,5.01157 -3.7548134,1.43752 -7.4038847,0.65825 -10.1776491,-0.34365 -2.813477,-1.01623 -5.321197,-2.49034 -7.501849,-3.95117 -4.381147,-2.93495 -7.730239,-6.12702 -7.73646,-6.13294 0,0 0,-5.2e-4 0,-5.2e-4 0,0 0,-5.2e-4 0,-5.2e-4 0,0 0,-5.1e-4 0,-5.1e-4 -4e-6,-1e-5 -0.0041,-0.002 -0.0041,-0.002 -2.135351,-2.02316 -2.644713,-5.55348 -1.167885,-8.09768 1.477751,-2.54579 4.798565,-3.85389 7.615538,-2.99981 0.0055,0.002 1.835574,0.54652 3.96874,0.84749 0.890191,0.1256 1.992043,0.13864 2.819976,0.0801 0.0025,-1.8e-4 0.0037,1.8e-4 0.0062,0 0.193117,-0.49773 0.406517,-1.06259 0.630451,-1.91202 0.557074,-2.1131 1.299999,-6.72601 5.4689038,-9.74254 2.9497981,-2.13437 5.8874908,-1.9142 7.677549,-1.67948 1.1986102,-3.32853 2.4107364,-7.03266 2.5429911,-8.37518 0.4971798,-5.04687 -1.0028425,-11.26368 -2.1776396,-18.2655 -0.75306607,-4.4883 -1.54443387,-9.10658 -2.60551941,-11.8654 -1.37563939,-3.57666 -1.57234149,-7.39958 -1.81022109,-10.634467 -0.1545383,-2.101545 -0.223192,-3.87455 -0.2599318,-4.988314 -0.00105,-0.01364 -0.00105,-0.0292 -0.00207,-0.04289 -0.028161,-0.377668 -0.044838,-0.773138 -0.044958,-1.185454 -5.7e-6,-0.002 3.9e-6,-0.0042 0,-0.0062 2e-7,-0.002 -1e-6,-0.0036 0,-0.0057 -1.595e-4,-0.14073 0.00304,-0.281227 0.011885,-0.421678 a 3.6243136,3.6243136 0 0 1 0.00207,-0.01189 c 0.00485,-0.0727 0.00961,-0.125348 0.015503,-0.191719 0.00111,-0.01683 9.06e-4,-0.02293 0.00207,-0.03876 6.896e-4,-0.0072 0.0013,-0.0097 0.00207,-0.01757 0.00271,-0.0277 -0.00469,-0.01177 0.023254,-0.197404 0.00699,-0.04641 0.054735,-0.286626 0.054777,-0.286803 7e-7,-3e-6 0.012573,-0.03141 0.013436,-0.03359 C -2.268836,81.846087 5.3693246,75.184736 14.232657,75.175877 a 3.6243136,3.6243136 0 0 1 0.0015,0 c 0.0029,-2e-6 0.0049,-2e-6 0.0078,0 1.230254,1.93e-4 2.458603,0.132231 3.666434,0.384472 0.08573,0.01391 0.159506,0.02509 0.173632,0.02739 0.0033,6.59e-4 0.0066,0.0014 0.0098,0.0021 9.2e-5,1.5e-5 0.0036,-10e-7 0.0036,0 a 3.6243136,3.6243136 0 0 1 0.01964,0.0057 3.6243136,3.6243136 0 0 1 0.01395,0.0021 c 0,0 9.911954,2.086173 18.349224,2.086173 1.482064,0 6.012204,-0.404192 11.010154,-0.921905 4.997949,-0.517713 10.655447,-1.136018 15.255879,-1.538921 a 3.6243136,3.6243136 0 0 1 0.0098,0.0036 C 69.124331,74.211569 74.877235,73.563029 80.250173,73.271605 84.3905,73.047033 88.32963,73.014627 92.209104,73.138797 Z M -13.886489,150.80519 c 0.100843,-0.004 0.119675,0.0298 0.189135,0.0522 -0.08825,-0.003 -0.257887,-0.004 -0.255798,-0.004 -0.04473,-0.006 -0.04329,-0.0109 -0.08785,-0.0176 0,0 5.16e-4,-5.1e-4 5.16e-4,-5.1e-4 0.004,-0.002 0.01667,-0.01 0.02067,-0.0114 0,0 5.17e-4,0 5.17e-4,0 0.05673,-0.0119 0.09919,-0.0177 0.132808,-0.0191 z"
       style="baseline-shift:baseline;display:inline;overflow:visible;vector-effect:none;fill:#bbcedd;stroke-linecap:round;paint-order:fill markers stroke;enable-background:accumulate;stop-color:#000000"
       id="path2" />
  </g>
</svg>
