<?xml version="1.0" encoding="UTF-8" standalone="no"?>
<!-- Created with Inkscape (http://www.inkscape.org/) -->

<svg
   width="2000.11"
   height="895.69"
   viewBox="0 0 529.1947 236.98398"
   version="1.1"
   id="svg1"
   inkscape:version="1.4.2 (f4327f4, 2025-05-13)"
   sodipodi:docname="CountDownContainerGhostInvasion.svg"
   xmlns:inkscape="http://www.inkscape.org/namespaces/inkscape"
   xmlns:sodipodi="http://sodipodi.sourceforge.net/DTD/sodipodi-0.dtd"
   xmlns="http://www.w3.org/2000/svg"
   xmlns:svg="http://www.w3.org/2000/svg">
  <sodipodi:namedview
     id="namedview1"
     pagecolor="#ffffff"
     bordercolor="#000000"
     borderopacity="0.25"
     inkscape:showpageshadow="2"
     inkscape:pageopacity="0.0"
     inkscape:pagecheckerboard="0"
     inkscape:deskcolor="#d1d1d1"
     inkscape:document-units="mm"
     inkscape:zoom="1.6062079"
     inkscape:cx="1014.19"
     inkscape:cy="188.95437"
     inkscape:window-width="3840"
     inkscape:window-height="2054"
     inkscape:window-x="-11"
     inkscape:window-y="-11"
     inkscape:window-maximized="1"
     inkscape:current-layer="layer1"
     showgrid="true">
    <inkscape:grid
       id="grid1"
       units="mm"
       originx="139"
       originy="10.68689"
       spacingx="0.99999999"
       spacingy="0.99999998"
       empcolor="#0099e5"
       empopacity="0.30196078"
       color="#0099e5"
       opacity="0.14901961"
       empspacing="5"
       enabled="true"
       visible="true" />
  </sodipodi:namedview>
  <defs
     id="defs1">
    <inkscape:path-effect
       effect="mirror_symmetry"
       start_point="77.199904,69.000027"
       end_point="77.199904,93.044622"
       center_point="77.199904,81.022324"
       id="path-effect2"
       is_visible="true"
       lpeversion="1.2"
       lpesatellites=""
       mode="free"
       discard_orig_path="false"
       fuse_paths="false"
       oposite_fuse="false"
       split_items="false"
       split_open="false"
       link_styles="false" />
    <inkscape:path-effect
       effect="fillet_chamfer"
       id="path-effect5"
       is_visible="true"
       lpeversion="1"
       nodesatellites_param="F,0,0,1,0,0,0,1 @ F,0,0,1,0,2.0496102,0,1 @ F,0,0,1,0,0,0,1"
       radius="0"
       unit="px"
       method="auto"
       mode="F"
       chamfer_steps="1"
       flexible="false"
       use_knot_distance="true"
       apply_no_radius="true"
       apply_with_radius="true"
       only_selected="false"
       hide_knots="false" />
    <inkscape:path-effect
       effect="fillet_chamfer"
       id="path-effect28"
       is_visible="true"
       lpeversion="1"
       nodesatellites_param="F,0,0,1,0,0,0,1 @ F,0,0,1,0,0,0,1 @ F,0,0,1,0,0,0,1 @ F,0,0,1,0,0,0,1 @ F,0,0,1,0,0,0,1 @ F,0,0,1,0,0,0,1 @ F,0,0,1,0,0,0,1 @ F,0,0,1,0,0,0,1 @ F,0,0,1,0,0,0,1 @ F,0,0,1,0,0,0,1 @ F,0,0,1,0,0,0,1 @ F,0,0,1,0,0,0,1 | F,0,0,1,0,0,0,1 @ F,0,0,1,0,0,0,1 @ F,0,0,1,0,0,0,1 @ F,0,0,1,0,0,0,1 @ F,0,0,1,0,0,0,1 @ F,0,0,1,0,0,0,1 @ F,0,0,1,0,0,0,1 @ F,0,0,1,0,0,0,1 @ F,0,0,1,0,0,0,1 @ F,0,0,1,0,0,0,1 @ F,0,0,1,0,0,0,1"
       radius="0"
       unit="px"
       method="auto"
       mode="F"
       chamfer_steps="1"
       flexible="false"
       use_knot_distance="true"
       apply_no_radius="true"
       apply_with_radius="true"
       only_selected="false"
       hide_knots="false" />
    <inkscape:path-effect
       effect="powerstroke"
       message=""
       id="path-effect4"
       is_visible="true"
       lpeversion="1.3"
       scale_width="1"
       interpolator_type="CentripetalCatmullRom"
       interpolator_beta="0.75"
       start_linecap_type="round"
       end_linecap_type="round"
       offset_points="10.839744,0.43679433"
       linejoin_type="spiro"
       miter_limit="4"
       not_jump="true"
       sort_points="true" />
    <inkscape:path-effect
       effect="simplify"
       id="path-effect3"
       is_visible="true"
       lpeversion="1.3"
       threshold="0.012"
       steps="1"
       smooth_angles="0"
       helper_size="0"
       simplify_individual_paths="false"
       simplify_just_coalesce="false"
       step="1" />
    <inkscape:path-effect
       effect="fillet_chamfer"
       id="path-effect5-4"
       is_visible="true"
       lpeversion="1"
       nodesatellites_param="F,0,0,1,0,0,0,1 @ F,0,0,1,0,2.0496102,0,1 @ F,0,0,1,0,0,0,1"
       radius="0"
       unit="px"
       method="auto"
       mode="F"
       chamfer_steps="1"
       flexible="false"
       use_knot_distance="true"
       apply_no_radius="true"
       apply_with_radius="true"
       only_selected="false"
       hide_knots="false" />
    <inkscape:path-effect
       effect="fillet_chamfer"
       id="path-effect5-4-5"
       is_visible="true"
       lpeversion="1"
       nodesatellites_param="F,0,0,1,0,0,0,1 @ F,0,0,1,0,2.0496102,0,1 @ F,0,0,1,0,0,0,1"
       radius="0"
       unit="px"
       method="auto"
       mode="F"
       chamfer_steps="1"
       flexible="false"
       use_knot_distance="true"
       apply_no_radius="true"
       apply_with_radius="true"
       only_selected="false"
       hide_knots="false" />
  </defs>
  <g
     inkscape:label="Ebene 1"
     inkscape:groupmode="layer"
     id="layer1"
     transform="translate(138.80001,10.686892)">
    <path
       id="path18-8"
       style="baseline-shift:baseline;display:inline;overflow:visible;vector-effect:none;fill:#9eaebb;fill-opacity:1;stroke-linecap:round;paint-order:fill markers stroke;enable-background:accumulate;stop-color:#000000"
       d="m 63.321142,81.790227 c -8.951206,0.78394 -22.142136,2.48408 -26.841707,2.48408 -9.483611,0 -19.74035,-2.232416 -19.74035,-2.232416 -0.0152,-0.0032 -0.03055,-0.0056 -0.04599,-0.0072 -0.803638,-0.177474 -1.626452,-0.267126 -2.452041,-0.267167 -5.8321948,0.0058 -10.5866585,4.391098 -10.6938948,9.863466 -0.0024,0.03272 -0.00464,0.06546 -0.0067,0.0982 -0.0022,0.02893 -0.00427,0.05786 -0.0062,0.0868 -1.19e-4,0.24346 0.00919,0.486844 0.02791,0.72967 0.03263,1.03289 0.107122,2.91791 0.260966,5.010013 0.232016,3.155157 0.621008,6.750937 1.390609,8.751897 1.483056,3.85594 2.2104154,8.71314 2.953301,13.14076 1.1102391,6.61706 2.8955178,13.32666 2.2377268,20.0039 -0.5745157,5.83192 -5.4461667,16.06001 -5.3260937,16.75424 1.6372401,9.46619 10.1287897,5.873 11.2532237,5.91512 0.603074,0.0226 0.957045,0.0315 0.957045,0.0315 0.380459,6e-5 0.760763,-0.0147 1.139979,-0.0444 1.400888,-0.0648 3.981455,-0.22481 6.757711,-0.59996 2.071888,-0.27997 4.254379,-0.67896 6.154132,-1.25366 1.899753,-0.5747 3.524319,-1.30717 4.48447,-2.37143 0.726021,-0.80475 2.596794,-1.73463 5.28907,-2.47219 2.692275,-0.73756 6.208399,-1.32065 10.279451,-1.61541 8.142103,-0.58954 18.507877,-0.0307 29.036917,2.68149 10.697549,2.75553 23.116343,1.49888 35.482513,0.1974 12.36617,-1.30147 24.68109,-2.64809 35.11146,-0.19534 10.6454,2.50332 27.7121,2.5803 42.15598,2.04897 14.44388,-0.53133 26.25001,-1.68206 26.25001,-1.68206 0.0135,-0.001 0.027,-0.003 0.0403,-0.006 6.07229,-0.47644 10.72492,-4.92484 10.7249,-10.25413 -0.007,-1.53335 -0.40664,-3.04588 -1.1684,-4.42711 -0.21737,-0.40394 -0.46456,-0.7951 -0.74001,-1.17099 0.17801,0.23303 0.34507,0.47232 0.50075,0.71727 -0.81974,-1.48367 7.03689,-6.46408 6.88232,-12.59075 -0.0748,-2.96674 1.6652,-6.23592 3.46076,-8.73847 1.35323,-1.88606 1.87041,7.37718 2.45958,6.77972 4.38507,-3.66956 10.05218,-16.4636 7.7129,-24.7982 -5.80793,-20.693051 -33.52014,-20.936746 -54.41419,-20.097112 -10.99174,0.441706 -21.83433,3.090218 -32.83202,3.343458 -11.13524,0.256408 -22.2754,-0.793733 -33.36325,-1.851563 C 102.29537,80.224935 88.878891,77.653545 63.321142,81.790227 Z M 237.33549,122.31393 h 5.2e-4 c -0.30652,0.52875 -0.59591,1.07493 -0.85628,1.63297 0.26037,-0.55804 0.54925,-1.10422 0.85576,-1.63297 z"
       sodipodi:nodetypes="ascccccccssaassccssssscsssccccccsscaaaaacccc" />
    <path
       id="path18"
       style="baseline-shift:baseline;display:inline;overflow:visible;vector-effect:none;fill:#c2d6e6;stroke-linecap:round;paint-order:fill markers stroke;enable-background:accumulate;stop-color:#000000;stop-opacity:1;fill-opacity:1"
       d="M 105.14368 91.037919 L 105.14368 91.038436 C 97.193362 91.121256 84.962684 92.397566 73.512616 93.651707 C 62.062548 94.905847 51.37048 96.135787 46.670909 96.135787 C 37.187298 96.135787 26.930559 93.903371 26.930559 93.903371 A 0.449999 0.449999 0 0 0 26.884567 93.896136 A 10.707129 10.048228 0 0 0 24.432526 93.628969 A 10.707129 10.048228 0 0 0 13.738631 103.49243 A 10.707129 10.048228 0 0 0 13.731913 103.59061 A 10.707129 10.048228 0 0 0 13.725712 103.67743 A 10.707129 10.048228 0 0 0 13.753617 104.4071 C 13.786247 105.43999 13.860739 107.32501 14.014583 109.41711 C 14.246599 112.57227 14.635591 116.16805 15.405192 118.16901 C 16.888248 122.02496 19.949062 125.74278 18.358493 131.30978 C 18.155668 132.01967 17.932864 132.95152 17.697036 134.04243 C 17.697036 134.04243 12.136157 149.5568 5.6099482 153.54403 C 3.2914072 154.96056 -0.21359516 152.53796 -2.5146009 154.2029 C -5.9060947 156.65689 -5.0147179 163.95789 -8.5007844 166.22798 C -12.185638 168.62752 -21.186284 165.89829 -21.186284 165.89829 C -21.186284 165.89829 -9.0234617 177.39547 -2.6572275 174.95818 C -0.25162147 174.0372 -1.1931964 168.37309 1.1911071 167.38088 C 5.376833 165.63902 9.3384323 171.53724 13.734497 172.65186 C 17.326131 173.56251 24.038441 173.88995 26.52335 173.98304 C 27.126424 174.00564 27.480395 174.01457 27.480395 174.01457 A 14.083993 13.589817 0 0 0 28.620374 173.97012 C 30.021262 173.90532 32.601829 173.7453 35.378085 173.37016 C 37.449973 173.09019 39.632464 172.6912 41.532217 172.1165 C 43.43197 171.5418 45.056536 170.80933 46.016687 169.74507 C 46.742708 168.94032 48.613481 168.01044 51.305757 167.27288 C 53.998032 166.53532 57.514156 165.95223 61.585208 165.65747 C 69.727311 165.06793 80.093085 165.62677 90.622125 168.33896 C 101.31967 171.09449 113.73846 169.83784 126.10463 168.53636 C 138.4708 167.23489 150.78573 165.88827 161.2161 168.34102 C 171.8615 170.84434 188.9282 170.92132 203.37208 170.38999 C 217.81596 169.85866 229.62209 168.70793 229.62209 168.70793 A 0.4499985 0.4499985 0 0 0 229.6624 168.70173 A 11.777842 10.295316 0 0 0 240.3873 158.4476 A 11.777842 10.295316 0 0 0 239.2189 154.02049 A 11.777842 10.295316 0 0 0 238.47889 152.8495 A 11.777842 10.295316 0 0 1 238.97964 153.56677 C 238.1599 152.0831 234.97995 145.94961 234.82538 139.82294 C 234.75058 136.8562 236.49058 133.58702 238.28614 131.08447 C 239.63937 129.19841 241.00167 127.7535 241.59084 127.15604 A 22.073156 19.437555 0 0 0 248.45862 113.06598 A 22.073156 19.437555 0 0 0 226.3856 93.628453 A 22.073156 19.437555 0 0 0 225.67712 93.638271 C 223.69666 93.645671 215.13843 93.702091 205.08101 94.121961 C 193.58859 94.601752 180.15459 95.547242 172.24899 97.465419 C 164.59215 99.323236 151.74478 97.711417 138.88573 95.613856 C 126.02669 93.516296 113.15243 90.954495 105.14368 91.037919 z M 236.49039 133.02234 L 236.49091 133.02234 C 236.18439 133.55109 235.895 134.09727 235.63463 134.65531 C 235.895 134.09727 236.18388 133.55109 236.49039 133.02234 z " />
    <path
       style="fill:#c2d6e6;fill-opacity:1;stroke:#e3f3ff;stroke-width:2.29999;stroke-linecap:round;stroke-dasharray:none;stroke-opacity:1;paint-order:fill markers stroke"
       d="m 237.51724,122.91561 c 0,0 7.34177,-4.28661 6.00961,-12.85904 C 241.84812,99.254029 228.6034,98.226348 228.6034,98.226348"
       id="path19"
       sodipodi:nodetypes="csc" />
    <ellipse
       style="fill:#c2d6e6;fill-opacity:1;stroke:#f7fcff;stroke-width:2.49999396;stroke-linecap:round;stroke-dasharray:none;stroke-opacity:1;paint-order:fill markers stroke"
       id="path20"
       cx="168.9357"
       cy="196.76141"
       rx="1.2230211"
       ry="2.3878031"
       transform="rotate(-24.936967)" />
    <path
       style="fill:#c2d6e6;fill-opacity:1;stroke:#e3f3ff;stroke-width:2.29999;stroke-linecap:round;stroke-dasharray:none;stroke-opacity:1;paint-order:fill markers stroke"
       d="m 30.389295,97.716422 c 0,0 -5.070808,-2.145477 -9.23608,1.371061 -5.248861,4.431367 -0.865809,11.231977 -0.865809,11.231977"
       id="path19-1"
       sodipodi:nodetypes="csc" />
    <ellipse
       style="fill:#c2d6e6;fill-opacity:1;stroke:#f8fcff;stroke-width:2.31881;stroke-linecap:round;stroke-dasharray:none;stroke-opacity:1;paint-order:fill markers stroke"
       id="path20-7"
       cx="-83.106529"
       cy="-82.393433"
       rx="0.77051312"
       ry="1.3636419"
       transform="matrix(-0.90102365,-0.43376996,0.58809457,-0.80879217,0,0)" />
    <path
       style="fill:#362c1f;fill-opacity:1;stroke:#f7fcff;stroke-width:0;stroke-linecap:round;stroke-dasharray:none;stroke-opacity:1;paint-order:fill markers stroke"
       d="m 28.430642,84.675093 5.66979,0.561009 5.124517,-2.76245 1.413423,-3.524109 0.687374,-3.966781 -1.115567,-9.959731 -5.529495,-2.298763 -7.125022,-0.340869 -5.219893,-6.0355 -6.811992,0.977198 1.663912,-1.251141 3.257258,-1.005042 -0.719127,-0.678477 -3.588676,-3.588678 6.361748,3.425558 2.773068,1.631213 3.425556,4.241165 9.187682,0.816459 4.188296,3.098461 2.881159,0.353903 2.950438,-0.843267 2.16136,-4.241165 4.241166,-1.141847 5.668478,2.120578 2.365265,2.161362 4.465456,-0.570925 0.181851,-1.347284 -0.937954,-0.652488 -1.017847,-0.977199 1.8759,0.530146 1.017847,0.977199 -0.365358,1.632749 -0.409468,0.610174 -3.097649,1.143383 -1.998242,0.326242 0.407804,1.957461 1.671999,0.448583 1.017848,0.9772 -2.609948,0.530146 -1.017849,-0.977199 -0.897171,-3.343995 -2.813847,-2.365265 -3.343995,0.367027 -2.528384,1.753557 -2.512789,2.714968 -3.861541,1.522096 -1.805934,5.069068 0.189214,3.679046 -0.820868,4.935479 1.920027,1.939407 2.20048,1.915148 4.609852,0.205436 3.792577,4.118821 0.122344,1.141848 -0.530144,0.203902 -3.588678,-2.732285 -7.136572,-0.163121 -5.75004,-1.590437 -3.711016,1.386531 -6.117063,-0.16312 -2.163025,2.445292 -0.152764,-1.135796 z"
       id="path21-7"
       sodipodi:nodetypes="ccccccccccccccccccccccccccccccccccccccccccccccccccccccccccccccc" />
    <path
       style="fill:#5c4c35;fill-opacity:1;stroke:#f7fcff;stroke-width:0;stroke-linecap:round;stroke-dasharray:none;stroke-opacity:1;paint-order:fill markers stroke"
       d="m 29.448491,85.652293 5.669789,0.561008 5.124518,-2.762449 1.800838,-7.010837 L 41.228027,66.00023 35.698532,63.701466 28.57351,63.360599 23.353615,57.325097 h -7.829838 l 5.219891,-1.957462 -3.588676,-3.588676 6.361748,3.425557 2.773068,1.631213 3.425556,4.241166 6.361743,0.326245 7.014235,3.588675 5.831597,-0.489365 2.161361,-4.241165 4.241165,-1.141849 5.668478,2.120578 2.365266,2.161363 3.792578,-0.774826 -0.16312,-2.120581 -0.937954,-0.652488 1.8759,0.530146 0.652491,2.609949 -3.507118,1.753557 -1.998241,0.32624 0.407803,1.957463 1.671999,0.448583 -2.609948,0.530146 -0.897171,-3.343995 -2.813847,-2.365265 -3.343997,0.367026 -2.528383,1.753558 -2.512786,2.714966 -3.861546,1.522098 -1.805932,5.069069 0.189213,3.679045 -0.820866,4.935478 1.920027,1.939408 2.365264,1.875896 4.445067,0.244687 3.792578,4.118821 0.122344,1.14185 -0.530143,0.203901 -3.588679,-2.732285 -7.13657,-0.16312 -5.750041,-1.590439 -3.711017,1.386533 -6.117062,-0.163121 -3.180875,1.468093 z"
       id="path21"
       sodipodi:nodetypes="ccccccccccccccccccccccccccccccccccccccccccccccccccccc" />
    <path
       style="fill:#362c1f;fill-opacity:1;stroke:#f7fcff;stroke-width:0;stroke-linecap:round;stroke-dasharray:none;stroke-opacity:1;paint-order:fill markers stroke"
       d="m 211.27559,85.007492 -4.92475,0.48729 -4.45115,-2.399454 -1.2277,-3.061036 -0.59704,-3.445534 0.96896,-8.650999 4.80291,-1.9967 6.18878,-0.296077 4.53397,-5.242421 5.9169,0.848793 -1.4453,-1.086741 -2.82924,-0.872975 0.62463,-0.589324 3.1171,-3.117115 -5.5258,2.975429 -2.40867,1.416869 -2.9754,3.683865 -7.9804,0.709175 -3.63794,2.691317 -2.50257,0.307396 -2.56274,-0.732458 -1.87736,-3.683867 -3.68387,-0.991807 -4.92362,1.84193 -2.05446,1.877356 -3.87869,-0.495905 -0.15796,-1.170248 0.81471,-0.566749 0.88412,-0.848791 -1.62943,0.460483 -0.88409,0.84879 0.31735,1.418203 0.35567,0.529995 2.69062,0.993141 1.73566,0.283372 -0.35423,1.700247 -1.45228,0.389636 -0.88412,0.848796 2.267,0.460483 0.88411,-0.848793 0.77929,-2.904586 2.44408,-2.054463 2.90459,0.318797 2.19614,1.523136 2.18261,2.358214 3.35414,1.32209 1.56862,4.402981 -0.16435,3.195607 0.71301,4.286946 -1.66774,1.684564 -1.91134,1.663493 -4.0041,0.178439 -3.29421,3.577601 -0.10617,0.991807 0.46047,0.177107 3.11713,-2.373255 6.19882,-0.141689 4.99448,-1.381449 3.22336,1.204339 5.31327,-0.141685 1.87878,2.123975 0.13266,-0.986552 z"
       id="path21-7-3"
       sodipodi:nodetypes="ccccccccccccccccccccccccccccccccccccccccccccccccccccccccccccccc" />
    <path
       style="fill:#5c4c35;fill-opacity:1;stroke:#f7fcff;stroke-width:0;stroke-linecap:round;stroke-dasharray:none;stroke-opacity:1;paint-order:fill markers stroke"
       d="m 210.39151,85.856284 -4.92475,0.487292 -4.45115,-2.399457 -1.56423,-6.089596 0.70844,-9.067971 4.80291,-1.996701 6.18876,-0.296077 4.53399,-5.24242 h 6.80099 l -4.53401,-1.700248 3.1171,-3.117115 -5.52579,2.97543 -2.40865,1.416869 -2.97543,3.683866 -5.5258,0.283376 -6.09255,3.117113 -5.06532,-0.42506 -1.87734,-3.683866 -3.68385,-0.991806 -4.92364,1.841927 -2.05446,1.877355 -3.29422,-0.673013 0.14169,-1.841931 0.81469,-0.566749 -1.6294,0.460482 -0.56674,2.266996 3.04627,1.523134 1.73566,0.283374 -0.35423,1.700246 -1.45228,0.38964 2.26699,0.460483 0.77927,-2.904587 2.44411,-2.054463 2.90459,0.318799 2.19616,1.523136 2.18259,2.358213 3.35415,1.322088 1.56861,4.402981 -0.16435,3.195611 0.71301,4.286944 -1.66774,1.684564 -2.05442,1.629399 -3.861,0.212536 -3.29421,3.577596 -0.10617,0.991808 0.46048,0.177109 3.11712,-2.373257 6.1988,-0.141686 4.99446,-1.381451 3.22338,1.204339 5.31327,-0.141686 2.76289,1.275183 z"
       id="path21-2"
       sodipodi:nodetypes="ccccccccccccccccccccccccccccccccccccccccccccccccccccc" />
    <path
       style="fill:#362c1f;fill-opacity:1;stroke:#f7fcff;stroke-width:0;stroke-linecap:round;stroke-dasharray:none;stroke-opacity:1;paint-order:fill markers stroke"
       d="m 200.76264,66.744872 2.89222,-5.479418 -2.2084,-6.569836 3.73972,-4.663124 -1.67071,0.691849 -2.19041,1.992193 -0.18979,-0.837518 -1.09889,-4.269109 -0.24799,6.271058 -0.003,2.794493 1.65894,4.435294 -2.90181,6.799891 z"
       id="path21-7-3-5"
       sodipodi:nodetypes="ccccccccccccc" />
    <path
       style="fill:#5c4c35;fill-opacity:1;stroke:#f7fcff;stroke-width:0;stroke-linecap:round;stroke-dasharray:none;stroke-opacity:1;paint-order:fill markers stroke"
       d="m 201.04391,67.937759 2.89218,-5.479407 -2.20834,-6.569873 3.45843,-5.855985 -3.76964,3.039408 -1.09888,-4.269108 -0.24799,6.271047 -0.003,2.794483 1.65893,4.435304 -3.18308,5.607017 z"
       id="path21-2-7"
       sodipodi:nodetypes="ccccccccccc" />
    <path
       style="fill:#362c1f;fill-opacity:1;stroke:#f7fcff;stroke-width:0;stroke-linecap:round;stroke-dasharray:none;stroke-opacity:1;paint-order:fill markers stroke"
       d="m 114.78872,84.525792 4.6924,1.572267 6.52953,3.886167 7.6111,2.282277 4.4704,-1.914771 0.50316,-0.861295 -0.34758,-0.350153 -4.05474,1.719957 -6.23289,-2.396756 -4.36339,-1.629024 -5.59914,-3.364182 -1.75364,-1.101258 -0.8442,-2.70711 -0.52499,0.845717 z"
       id="path21-7-3-2"
       sodipodi:nodetypes="ccccccccccccccc" />
    <path
       style="fill:#5c4c35;fill-opacity:1;stroke:#f7fcff;stroke-width:0;stroke-linecap:round;stroke-dasharray:none;stroke-opacity:1;paint-order:fill markers stroke"
       d="m 115.94286,84.113499 4.6924,1.572259 5.71927,3.567388 4.32112,1.261641 3.10301,1.718728 4.80423,-2.746091 -0.33258,-0.341515 -4.15629,1.454727 -4.17568,-1.652082 -5.16746,-2.526382 -3.18695,-1.767299 -3.66292,-1.160496 -0.50292,-1.537642 -1.99837,-2.294829 z"
       id="path21-2-79"
       sodipodi:nodetypes="ccccccccccccccc" />
    <path
       style="fill:#362c1f;fill-opacity:1;stroke:#f7fcff;stroke-width:0;stroke-linecap:round;stroke-dasharray:none;stroke-opacity:1;paint-order:fill markers stroke"
       d="m 92.513392,87.2848 -3.127614,-0.58924 -4.88485,0.13355 -4.988954,-1.106181 -1.909137,-2.477297 -0.01237,-0.641383 0.304968,-0.08757 1.736899,2.237542 4.251107,0.609587 2.960701,0.45417 4.198763,-0.132359 1.329989,-0.06817 1.323117,-1.255023 0.02948,0.639494 z"
       id="path21-7-3-2-8"
       sodipodi:nodetypes="ccccccccccccccc" />
    <path
       style="fill:#5c4c35;fill-opacity:1;stroke:#f7fcff;stroke-width:0;stroke-linecap:round;stroke-dasharray:none;stroke-opacity:1;paint-order:fill markers stroke"
       d="m 91.994755,86.691286 -3.1276,-0.589236 -4.329965,0.208746 -2.821716,-0.647162 -2.281237,-0.0085 -1.835794,-3.048742 0.293839,-0.08742 1.877116,2.120498 2.862536,0.382334 3.693623,0.202604 2.343601,0.0075 2.420458,0.497475 0.764686,-0.705506 1.841786,-0.661503 z"
       id="path21-2-79-7"
       sodipodi:nodetypes="ccccccccccccccc" />
  </g>
</svg>
