<?xml version="1.0" encoding="UTF-8" standalone="no"?>
<!-- Created with Inkscape (http://www.inkscape.org/) -->

<svg
   width="42.333344mm"
   height="178.33505mm"
   viewBox="0 0 42.333344 178.33505"
   version="1.1"
   id="svg1"
   inkscape:version="1.4.2 (f4327f4, 2025-05-13)"
   sodipodi:docname="RestaurantKitchen.svg"
   xml:space="preserve"
   xmlns:inkscape="http://www.inkscape.org/namespaces/inkscape"
   xmlns:sodipodi="http://sodipodi.sourceforge.net/DTD/sodipodi-0.dtd"
   xmlns="http://www.w3.org/2000/svg"
   xmlns:svg="http://www.w3.org/2000/svg"><sodipodi:namedview
     id="namedview1"
     pagecolor="#ffffff"
     bordercolor="#000000"
     borderopacity="0.25"
     inkscape:showpageshadow="2"
     inkscape:pageopacity="0.0"
     inkscape:pagecheckerboard="0"
     inkscape:deskcolor="#d1d1d1"
     inkscape:document-units="mm"
     inkscape:zoom="1.6275884"
     inkscape:cx="-84.788021"
     inkscape:cy="241.76874"
     inkscape:window-width="3840"
     inkscape:window-height="2054"
     inkscape:window-x="-11"
     inkscape:window-y="-11"
     inkscape:window-maximized="1"
     inkscape:current-layer="layer1" /><defs
     id="defs1" /><g
     inkscape:label="Ebene 1"
     inkscape:groupmode="layer"
     id="layer1"
     transform="translate(-101.59999,-43.127083)"><rect
       style="fill:#000000;fill-opacity:0.47;stroke:#717171;stroke-width:6e-08;stroke-linecap:round;stroke-linejoin:round;stroke-dasharray:none;stroke-opacity:0.998905"
       id="rect13-1-3"
       width="42.333344"
       height="148.16667"
       x="101.59999"
       y="73.295464"
       ry="1.7012541" /><rect
       style="fill:#845252;fill-opacity:1;stroke:#717171;stroke-width:6e-08;stroke-linecap:round;stroke-linejoin:round;stroke-dasharray:none;stroke-opacity:0.998905"
       id="rect13-1"
       width="42.333344"
       height="148.16667"
       x="101.59999"
       y="55.938255"
       ry="1.7012541" /><rect
       style="fill:#a36666;fill-opacity:1;stroke:#717171;stroke-width:6e-08;stroke-linecap:round;stroke-linejoin:round;stroke-dasharray:none;stroke-opacity:0.998905"
       id="rect13"
       width="42.333344"
       height="148.16667"
       x="101.59999"
       y="43.127083"
       ry="1.7012541" /><path
       id="rect13-3"
       style="fill:#2d1818;fill-opacity:1;stroke:#717171;stroke-width:6e-08;stroke-linecap:round;stroke-linejoin:round;stroke-opacity:0.998905"
       d="m 132.22233,48.419372 c -8.44726,0.0091 -16.89453,0.01823 -25.34179,0.02734 0.009,45.857422 0.0182,91.714838 0.0273,137.572258 10.58073,-0.0143 21.16146,-0.0286 31.74219,-0.043 -0.006,-45.85612 -0.0117,-91.712231 -0.0176,-137.568351 -2.13672,0.0039 -4.27344,0.0078 -6.41016,0.01172 z" /><path
       id="rect13-3-8"
       style="fill:#763f3f;fill-opacity:1;stroke:#717171;stroke-width:6e-08;stroke-linecap:round;stroke-linejoin:round;stroke-opacity:0.998905"
       d="m 106.90783,186.02092 c 10.58097,-0.0163 21.16146,-0.0286 31.74219,-0.043 -0.006,-45.85611 -0.0117,-91.712223 -0.0176,-137.568343 -2.13672,0.0039 -5.44265,11.445267 -5.44265,11.445267 0,0 -2.3686,101.916736 -26.28194,126.166076 z"
       sodipodi:nodetypes="ccccc" /><path
       id="rect13-3-6"
       style="fill:#432323;fill-opacity:1;stroke:#717171;stroke-width:6e-08;stroke-linecap:round;stroke-linejoin:round;stroke-opacity:0.998905"
       d="m 132.22624,50.53656 c -7.74284,0.0091 -15.48568,0.01823 -23.22852,0.02734 0.009,44.445964 0.0182,88.89192 0.0273,133.33789 9.16927,-0.0143 18.33854,-0.0286 27.50781,-0.043 -0.006,-44.44336 -0.0117,-88.886716 -0.0176,-133.330076 -1.42969,0.0026 -2.85937,0.0052 -4.28906,0.0078 z" /><rect
       style="fill:#686868;fill-opacity:1;stroke:#717171;stroke-width:0;stroke-linecap:round;stroke-linejoin:round;stroke-dasharray:none;stroke-opacity:0.998905"
       id="rect11-4"
       width="21.166626"
       height="43.036945"
       x="112.17357"
       y="139.35263"
       ry="3.4590604" /><rect
       style="fill:#999999;fill-opacity:1;stroke:#717171;stroke-width:0;stroke-linecap:round;stroke-linejoin:round;stroke-dasharray:none;stroke-opacity:0.998905"
       id="rect11"
       width="21.166626"
       height="42.333344"
       x="112.17357"
       y="138.20926"
       ry="3.402509" /><rect
       style="fill:#7478cb;fill-opacity:0;stroke:#7e7e7e;stroke-width:0;stroke-linecap:round;stroke-linejoin:round;stroke-dasharray:none;stroke-opacity:0.998905"
       id="rect10"
       width="21.16662"
       height="42.33334"
       x="112.17357"
       y="138.20926"
       ry="1.7012541" /><rect
       style="fill:#000000;fill-opacity:1;stroke:#717171;stroke-width:0;stroke-linecap:round;stroke-linejoin:round;stroke-dasharray:none;stroke-opacity:0.998905"
       id="rect11-3"
       width="21.166626"
       height="42.333344"
       x="112.28499"
       y="53.710175"
       ry="3.402509" /><path
       style="fill:#6d6d6d;fill-opacity:1;stroke:#7f7f7f;stroke-width:2;stroke-linecap:round;stroke-linejoin:round;stroke-dasharray:none;stroke-opacity:0.998905"
       d="m 116.672,142.99015 v 12.6246"
       id="path11" /><path
       style="fill:#6d6d6d;fill-opacity:1;stroke:#7f7f7f;stroke-width:2;stroke-linecap:round;stroke-linejoin:round;stroke-dasharray:none;stroke-opacity:0.998905"
       d="m 120.65217,142.99015 v 12.6246"
       id="path11-1" /><path
       style="fill:#6d6d6d;fill-opacity:1;stroke:#7f7f7f;stroke-width:2;stroke-linecap:round;stroke-linejoin:round;stroke-dasharray:none;stroke-opacity:0.998905"
       d="m 124.38358,142.99015 v 12.6246"
       id="path11-2" /><path
       style="fill:#6d6d6d;fill-opacity:1;stroke:#7f7f7f;stroke-width:2;stroke-linecap:round;stroke-linejoin:round;stroke-dasharray:none;stroke-opacity:0.998905"
       d="m 128.55032,142.99015 v 12.6246"
       id="path11-8" /><rect
       style="fill:#565656;fill-opacity:1;stroke:#7f7f7f;stroke-width:0;stroke-linecap:round;stroke-linejoin:round;stroke-dasharray:none;stroke-opacity:0.998905"
       id="rect12"
       width="12.562394"
       height="13.992773"
       x="116.48546"
       y="161.77159"
       ry="1.7012541" /><ellipse
       style="fill:#333333;fill-opacity:1;stroke:#7f7f7f;stroke-width:0;stroke-linecap:round;stroke-linejoin:round;stroke-dasharray:none;stroke-opacity:0.998905"
       id="path12"
       cx="125.37953"
       cy="169.64467"
       rx="1.774228"
       ry="1.7059883" /><ellipse
       style="fill:#999999;fill-opacity:1;stroke:#9e9e9e;stroke-width:0;stroke-linecap:round;stroke-linejoin:round;stroke-dasharray:none;stroke-opacity:0.998905"
       id="path13-2-8"
       cx="122.76668"
       cy="85.143692"
       rx="8.0817184"
       ry="8.3316679" /><ellipse
       style="fill:#2f3645;fill-opacity:1;stroke:#9e9e9e;stroke-width:0;stroke-linecap:round;stroke-linejoin:round;stroke-dasharray:none;stroke-opacity:0.998905"
       id="path13-2"
       cx="122.76668"
       cy="83.677582"
       rx="8.0817184"
       ry="8.3316679" /><ellipse
       style="fill:#999999;fill-opacity:1;stroke:#9e9e9e;stroke-width:0;stroke-linecap:round;stroke-linejoin:round;stroke-dasharray:none;stroke-opacity:0.998905"
       id="path13-2-8-7"
       cx="118.14537"
       cy="60.162815"
       rx="3.2593114"
       ry="3.3601146" /><ellipse
       style="fill:#2f3645;fill-opacity:1;stroke:#9e9e9e;stroke-width:0;stroke-linecap:round;stroke-linejoin:round;stroke-dasharray:none;stroke-opacity:0.998905"
       id="path13-2-9"
       cx="118.14537"
       cy="59.571541"
       rx="3.2593114"
       ry="3.3601146" /><ellipse
       style="fill:#999999;fill-opacity:1;stroke:#9e9e9e;stroke-width:0;stroke-linecap:round;stroke-linejoin:round;stroke-dasharray:none;stroke-opacity:0.998905"
       id="path13-2-8-7-1"
       cx="126.83409"
       cy="60.003044"
       rx="2.0719845"
       ry="2.1360664" /><ellipse
       style="fill:#2f3645;fill-opacity:1;stroke:#9e9e9e;stroke-width:0;stroke-linecap:round;stroke-linejoin:round;stroke-dasharray:none;stroke-opacity:0.998905"
       id="path13-2-9-2"
       cx="126.83409"
       cy="59.627163"
       rx="2.0719845"
       ry="2.1360664" /><ellipse
       style="fill:#999999;fill-opacity:1;stroke:#9e9e9e;stroke-width:0;stroke-linecap:round;stroke-linejoin:round;stroke-dasharray:none;stroke-opacity:0.998905"
       id="path13-2-8-7-1-1"
       cx="126.87733"
       cy="67.894325"
       rx="3.2593114"
       ry="3.3601146" /><ellipse
       style="fill:#2f3645;fill-opacity:1;stroke:#9e9e9e;stroke-width:0;stroke-linecap:round;stroke-linejoin:round;stroke-dasharray:none;stroke-opacity:0.998905"
       id="path13-2-9-2-1"
       cx="126.87733"
       cy="67.303055"
       rx="3.2593114"
       ry="3.3601146" /><ellipse
       style="fill:#999999;fill-opacity:1;stroke:#9e9e9e;stroke-width:0;stroke-linecap:round;stroke-linejoin:round;stroke-dasharray:none;stroke-opacity:0.998905"
       id="path13-2-8-7-1-1-4"
       cx="118.17101"
       cy="67.756516"
       rx="2.4751854"
       ry="2.5517373" /><ellipse
       style="fill:#2f3645;fill-opacity:1;stroke:#9e9e9e;stroke-width:0;stroke-linecap:round;stroke-linejoin:round;stroke-dasharray:none;stroke-opacity:0.998905"
       id="path13-2-9-2-1-2"
       cx="118.17101"
       cy="67.307487"
       rx="2.4751854"
       ry="2.5517373" /><path
       id="rect14-2"
       style="fill:#77533c;stroke:#4f3829;stroke-width:0;stroke-linecap:round;stroke-linejoin:round"
       d="m 123.3648,108.04649 11.56849,2.1066 c 0.92725,0.16885 1.88883,2.73137 1.61748,3.63396 l -7.50719,24.97159 c -0.27134,0.90258 -1.21641,1.41077 -2.11901,1.13942 l -12.04656,-3.62154 c -0.90258,-0.27135 -2.09245,-2.529 -1.78551,-3.42011 l 8.15329,-23.67049 c 0.30694,-0.89111 1.19177,-1.30828 2.11901,-1.13943 z"
       sodipodi:nodetypes="sssssssss" /><rect
       style="fill:#926649;fill-opacity:1;stroke:#624532;stroke-width:0;stroke-linecap:round;stroke-linejoin:round;stroke-dasharray:none;stroke-opacity:1"
       id="rect14"
       width="15.981665"
       height="29.478123"
       x="146.37856"
       y="66.576889"
       ry="1.7012541"
       transform="rotate(16.732329)" /><path
       style="fill:#b9b1ac;fill-opacity:1;stroke:#2b2725;stroke-width:0;stroke-linecap:round;stroke-linejoin:round;stroke-dasharray:none;stroke-opacity:1"
       id="path15"
       sodipodi:type="arc"
       sodipodi:cx="106.95136"
       sodipodi:cy="-129.51387"
       sodipodi:rx="3.5873785"
       sodipodi:ry="1.9890118"
       sodipodi:start="0"
       sodipodi:end="3.0681379"
       sodipodi:arc-type="slice"
       d="m 110.53874,-129.51387 a 3.5873785,1.9890118 0 0 1 -3.45565,1.98767 3.5873785,1.9890118 0 0 1 -3.70943,-1.8417 l 3.5777,-0.14597 z"
       transform="matrix(0.99911933,0.0419591,-0.11472279,-0.99339755,0,0)" /><path
       style="fill:#926649;fill-opacity:1;stroke:#2b2725;stroke-width:1.4;stroke-linecap:round;stroke-linejoin:round;stroke-dasharray:none;stroke-opacity:1"
       d="m 128.79134,132.81179 -4.74157,-0.21509"
       id="path14"
       sodipodi:nodetypes="cc" /><path
       style="fill:#7f5840;fill-opacity:1;stroke:#2b2725;stroke-width:0;stroke-linecap:round;stroke-linejoin:round;stroke-dasharray:none;stroke-opacity:1"
       d="m 122.64514,120.72237 c 1.08859,-1.15467 2.1741,-3.78786 3.60735,-3.10667 1.51946,0.72214 -0.28787,3.36937 -0.13889,5.04509 0.16177,1.81953 2.26672,3.94773 1.11489,5.36553 -0.90186,1.11014 -3.04167,0.70264 -4.29088,0.006 -1.45589,-0.81181 -2.70596,-2.59304 -2.62266,-4.2579 0.064,-1.27837 1.45215,-2.12077 2.33019,-3.05212 z"
       id="path16"
       sodipodi:nodetypes="aaaaaaa" /><path
       style="fill:#7f5840;fill-opacity:1;stroke:#2b2725;stroke-width:0;stroke-linecap:round;stroke-linejoin:round;stroke-dasharray:none;stroke-opacity:1"
       d="m 129.80596,112.31128 c 0.29111,-0.67998 -1.42487,-1.63501 -0.10017,-1.94803 3.06442,-0.72411 2.83649,2.34964 3.32217,3.77611 0.24802,0.7285 0.78747,1.61352 -0.24002,2.3498 -0.75227,0.53908 -2.41264,1.00067 -3.41781,0.8547 -1.766,-0.25643 -1.8957,-1.60654 -1.71425,-2.62253 0.14296,-0.80046 1.80155,-1.59591 2.15008,-2.41005 z"
       id="path16-5"
       sodipodi:nodetypes="aaaaaaa" /><path
       style="fill:#7f5840;fill-opacity:1;stroke:#2b2725;stroke-width:0;stroke-linecap:round;stroke-linejoin:round;stroke-dasharray:none;stroke-opacity:1"
       d="m 128.66955,123.03207 c 0.64705,0.0133 0.98761,0.86603 1.3275,1.41676 0.16118,0.26118 0.34272,0.55802 0.3183,0.86396 -0.0254,0.31775 -0.15625,0.77063 -0.46869,0.83352 -0.46928,0.0944 -0.79753,-0.54083 -1.13325,-0.88205 -0.38262,-0.38887 -1.02471,-0.7636 -0.98418,-1.30764 0.0327,-0.43836 0.50091,-0.93353 0.94038,-0.92452 z"
       id="path16-5-6"
       sodipodi:nodetypes="aaaaaaa" /><path
       style="fill:#7f5840;fill-opacity:1;stroke:#2b2725;stroke-width:0;stroke-linecap:round;stroke-linejoin:round;stroke-dasharray:none;stroke-opacity:1"
       d="m 130.61025,122.40164 c -0.36719,-0.31232 -0.49617,0.005 -0.64774,0.14997 -0.0718,0.0689 -0.15263,0.14812 -0.11552,0.33428 0.0386,0.19334 0.14749,0.51576 0.33014,0.70604 0.27424,0.28572 0.41275,0.0865 0.57784,0.0583 0.18819,-0.0321 0.52509,0.072 0.46066,-0.2576 -0.0519,-0.2656 -0.35602,-0.77887 -0.60543,-0.99099 z"
       id="path16-5-6-8"
       sodipodi:nodetypes="aaaaaaa" /><path
       d="m 129.04787,166.14392 v -2.67116 c 0,-0.94249 -0.75869,-1.70118 -1.70118,-1.70118 h -9.16017 c -0.94249,0 -1.70119,0.75869 -1.70119,1.70118 v 2.67116 z"
       style="fill:#636363;stroke:#4f3829;stroke-width:0;stroke-linecap:round;paint-order:fill markers stroke"
       id="path6" /><path
       id="path13-2-6"
       style="fill:#4c4e51;fill-opacity:1;stroke:#545454;stroke-width:0;stroke-linecap:round;stroke-linejoin:round;stroke-opacity:0.998905"
       d="m 130.76927,83.77718 c 0,4.601454 -3.61831,8.331669 -8.08172,8.331668 -4.46341,1e-6 -8.08172,-3.730214 -8.08172,-8.331668 0,-0.331902 0.0188,-9.234409 0.0554,-9.556172 0.47094,-4.139131 3.88482,-7.350634 8.02629,-7.350633 4.15465,10e-7 7.57707,3.231977 8.03069,7.390181 0.0337,0.309029 0.051,9.198311 0.051,9.516624 z"
       sodipodi:nodetypes="sssssss" /><ellipse
       style="fill:#323335;fill-opacity:1;stroke:#9e9e9e;stroke-width:0;stroke-linecap:round;stroke-linejoin:round;stroke-dasharray:none;stroke-opacity:0.998905"
       id="path13-2-93"
       cx="122.89717"
       cy="75.204979"
       rx="8.0817184"
       ry="8.3316679" /><path
       d="m 130.40017,77.416346 a 8.0817184,8.3316679 0 0 0 -7.68015,-5.792411 8.0817184,8.3316679 0 0 0 -7.75095,6.005318 8.0817184,8.3316679 0 0 0 7.68015,5.792411 8.0817184,8.3316679 0 0 0 7.75095,-6.005318 z"
       style="fill:#c5bd91;fill-opacity:0.951238;stroke:#9e9e9e;stroke-width:0;stroke-linecap:round;stroke-linejoin:round;stroke-dasharray:none;stroke-opacity:0.998905"
       id="path9" /><path
       d="m 122.72009,71.624117 a 8.0817184,8.3316679 0 0 0 -7.75094,6.005318 8.0817184,8.3316679 0 0 0 3.8902,4.810042 1.7257763,1.8657041 0 0 1 1.68258,-1.451591 1.7257763,1.8657041 0 0 1 1.726,1.865519 1.7257763,1.8657041 0 0 1 -0.0775,0.553972 8.0817184,8.3316679 0 0 0 0.45889,0.01447 8.0817184,8.3316679 0 0 0 7.75095,-6.005318 8.0817184,8.3316679 0 0 0 -7.68016,-5.792411 z"
       style="fill:#c5bd91;fill-opacity:0.951238;stroke:#9e9e9e;stroke-width:0;stroke-linecap:round;stroke-linejoin:round;stroke-opacity:0.998905"
       id="path22" /><ellipse
       style="fill:#2f3645;fill-opacity:0;stroke:#9e9e9e;stroke-width:1;stroke-linecap:round;stroke-linejoin:round;stroke-dasharray:none;stroke-opacity:0.998905"
       id="path13-2-0"
       cx="122.64943"
       cy="75.089912"
       rx="8.0817184"
       ry="8.3316679" /><path
       id="path20-8"
       style="baseline-shift:baseline;display:inline;overflow:visible;vector-effect:none;fill:#252525;fill-opacity:0.998905;stroke-width:1;stroke-linecap:round;paint-order:fill markers stroke;enable-background:accumulate;stop-color:#000000"
       d="m 119.11615,86.439402 c 0.002,0.01109 0.004,0.02162 0.006,0.03272 0.23409,1.197692 0.89305,2.248418 1.67879,2.950785 0.78577,0.702366 1.71799,1.104071 2.64839,1.104071 0.93039,0 1.70561,-0.401705 2.21679,-1.104071 0.51121,-0.702367 0.75943,-1.753093 0.52535,-2.950785 -0.002,-0.01109 -0.005,-0.02164 -0.007,-0.03272 h -0.60502 -0.60502 c 0.002,0.01109 0.004,0.02163 0.006,0.03272 0.10839,0.554583 0.0114,1.087269 -0.31316,1.533221 -0.32458,0.445953 -0.87603,0.756339 -1.56344,0.756339 -0.68742,0 -1.3602,-0.310386 -1.85908,-0.756339 -0.4989,-0.445952 -0.80412,-0.978638 -0.91252,-1.533221 -0.002,-0.01109 -0.004,-0.02164 -0.006,-0.03272 h -0.60502 z" /><path
       id="path20"
       style="baseline-shift:baseline;display:inline;overflow:visible;vector-effect:none;fill:#939393;fill-opacity:0.998905;stroke-width:1;stroke-linecap:round;paint-order:fill markers stroke;enable-background:accumulate;stop-color:#000000"
       d="m 119.13917,86.429393 c -8e-5,0.0096 0,0.01871 0,0.02832 0,1.036629 0.44942,1.946056 1.09192,2.55397 0.64251,0.607914 1.48835,0.955598 2.41019,0.955598 0.92183,0 1.76769,-0.347684 2.41019,-0.955598 0.64251,-0.607914 1.09192,-1.517341 1.09192,-2.55397 0,-0.0096 -4.4e-4,-0.01873 -5.1e-4,-0.02832 h -0.59945 -0.59945 c 1.6e-4,0.0096 0,0.01872 0,0.02832 0,0.480004 -0.19925,0.941056 -0.60719,1.327037 -0.40794,0.385982 -1.01442,0.654628 -1.69551,0.654628 -0.68109,0 -1.28756,-0.268646 -1.6955,-0.654628 -0.40795,-0.385981 -0.6072,-0.847033 -0.6072,-1.327037 0,-0.0096 -1.6e-4,-0.01873 0,-0.02832 h -0.59945 z" /><path
       d="m 122.21909,82.934645 a 1.5767851,1.7046325 0 0 0 0.0708,-0.506146 1.5767851,1.7046325 0 0 0 -1.57699,-1.704463 1.5767851,1.7046325 0 0 0 -1.53732,1.326271 7.3840005,7.6123712 0 0 0 3.04348,0.884338 z"
       style="fill:#693332;fill-opacity:1;stroke:#939393;stroke-width:0;stroke-linecap:round;stroke-opacity:0.996999;paint-order:fill markers stroke"
       id="path23" /><path
       style="fill:#713a39;fill-opacity:1;stroke:#939393;stroke-width:0;stroke-linecap:round;stroke-dasharray:4, 12;stroke-opacity:0.996999;paint-order:fill markers stroke"
       id="path1"
       sodipodi:type="arc"
       sodipodi:cx="-97.903076"
       sodipodi:cy="-103.63081"
       sodipodi:rx="1.5370473"
       sodipodi:ry="1.4077629"
       sodipodi:start="0"
       sodipodi:end="3.8038567"
       sodipodi:arc-type="chord"
       d="m -96.366029,-103.63081 a 1.5370473,1.4077629 0 0 1 -1.078644,1.3437 1.5370473,1.4077629 0 0 1 -1.722026,-0.54222 1.5370473,1.4077629 0 0 1 0.0515,-1.66712 z"
       sodipodi:open="true"
       transform="rotate(163.67778)" /><path
       style="fill:#529c54;fill-opacity:1;stroke:#939393;stroke-width:0;stroke-linecap:round;stroke-dasharray:4, 12;stroke-opacity:0.996999;paint-order:fill markers stroke"
       id="path1-8"
       sodipodi:type="arc"
       sodipodi:cx="-101.33959"
       sodipodi:cy="-109.52553"
       sodipodi:rx="1.0871305"
       sodipodi:ry="0.99568963"
       sodipodi:start="0"
       sodipodi:end="3.8038567"
       sodipodi:arc-type="chord"
       d="m -100.25246,-109.52553 a 1.0871305,0.99568963 0 0 1 -0.76291,0.95038 1.0871305,0.99568963 0 0 1 -1.21796,-0.3835 1.0871305,0.99568963 0 0 1 0.0364,-1.17913 z"
       sodipodi:open="true"
       transform="rotate(163.67778)" /></g></svg>
