<?xml version="1.0" encoding="UTF-8" standalone="no"?>
<!-- Created with Inkscape (http://www.inkscape.org/) -->

<svg
   width="470.73627"
   height="470.08231"
   viewBox="0 0 124.54897 124.37594"
   version="1.1"
   id="svg1"
   sodipodi:docname="DiscoCeiling.svg"
   inkscape:version="1.4.2 (f4327f4, 2025-05-13)"
   xmlns:inkscape="http://www.inkscape.org/namespaces/inkscape"
   xmlns:sodipodi="http://sodipodi.sourceforge.net/DTD/sodipodi-0.dtd"
   xmlns="http://www.w3.org/2000/svg"
   xmlns:svg="http://www.w3.org/2000/svg">
  <sodipodi:namedview
     id="namedview1"
     pagecolor="#ffffff"
     bordercolor="#000000"
     borderopacity="0.25"
     inkscape:showpageshadow="2"
     inkscape:pageopacity="0.0"
     inkscape:pagecheckerboard="0"
     inkscape:deskcolor="#d1d1d1"
     inkscape:document-units="mm"
     showgrid="true"
     inkscape:zoom="1.0636065"
     inkscape:cx="40.428485"
     inkscape:cy="251.50278"
     inkscape:window-width="3840"
     inkscape:window-height="2054"
     inkscape:window-x="-11"
     inkscape:window-y="-11"
     inkscape:window-maximized="1"
     inkscape:current-layer="layer2">
    <inkscape:grid
       id="grid1"
       units="px"
       originx="-139.45719"
       originy="-117.59323"
       spacingx="21.166667"
       spacingy="21.166667"
       empcolor="#0099e5"
       empopacity="0.30196078"
       color="#0099e5"
       opacity="0.14901961"
       empspacing="5"
       enabled="true"
       visible="true"
       snapvisiblegridlinesonly="true"
       dotted="false" />
  </sodipodi:namedview>
  <defs
     id="defs1">
    <inkscape:path-effect
       effect="fillet_chamfer"
       id="path-effect17"
       is_visible="true"
       lpeversion="1"
       nodesatellites_param="F,0,0,1,0,2.3519976,0,1 @ F,0,0,1,0,2.3208597,0,1 @ F,0,0,1,0,1.3714219,0,1 @ F,0,0,1,0,1.1116212,0,1"
       radius="0"
       unit="px"
       method="auto"
       mode="F"
       chamfer_steps="1"
       flexible="false"
       use_knot_distance="true"
       apply_no_radius="true"
       apply_with_radius="true"
       only_selected="false"
       hide_knots="false" />
    <inkscape:path-effect
       effect="fillet_chamfer"
       id="path-effect6"
       is_visible="true"
       lpeversion="1"
       nodesatellites_param="F,0,0,1,0,2.4062029,0,1 @ F,0,0,1,0,0,0,1 @ F,0,0,1,0,0,0,1 @ F,0,0,1,0,3.153959,0,1 @ F,0,0,1,0,1.9463375,0,1 @ F,0,0,1,0,0,0,1 @ F,0,0,1,0,0,0,1 @ F,0,0,1,0,3.0428396,0,1 @ F,0,0,1,0,2.4606363,0,1 @ F,0,0,1,0,0,0,1 @ F,0,0,1,0,0,0,1 @ F,0,0,1,0,2.5269604,0,1 @ F,0,0,1,0,3.2359749,0,1 @ F,0,0,1,0,0,0,1 @ F,0,0,1,0,0,0,1 @ F,0,0,1,0,2.6301363,0,1"
       radius="0"
       unit="px"
       method="auto"
       mode="F"
       chamfer_steps="1"
       flexible="false"
       use_knot_distance="true"
       apply_no_radius="true"
       apply_with_radius="true"
       only_selected="false"
       hide_knots="false" />
    <inkscape:path-effect
       effect="fillet_chamfer"
       id="path-effect6-1"
       is_visible="true"
       lpeversion="1"
       nodesatellites_param="F,0,0,1,0,2.4062029,0,1 @ F,0,0,1,0,0,0,1 @ F,0,0,1,0,0,0,1 @ F,0,0,1,0,3.153959,0,1 @ F,0,0,1,0,1.9463375,0,1 @ F,0,0,1,0,0,0,1 @ F,0,0,1,0,0,0,1 @ F,0,0,1,0,3.0428396,0,1 @ F,0,0,1,0,2.4606363,0,1 @ F,0,0,1,0,0,0,1 @ F,0,0,1,0,0,0,1 @ F,0,0,1,0,2.5269604,0,1 @ F,0,0,1,0,3.2359749,0,1 @ F,0,0,1,0,0,0,1 @ F,0,0,1,0,0,0,1 @ F,0,0,1,0,2.6301363,0,1"
       radius="0"
       unit="px"
       method="auto"
       mode="F"
       chamfer_steps="1"
       flexible="false"
       use_knot_distance="true"
       apply_no_radius="true"
       apply_with_radius="true"
       only_selected="false"
       hide_knots="false" />
    <inkscape:path-effect
       effect="fillet_chamfer"
       id="path-effect6-7"
       is_visible="true"
       lpeversion="1"
       nodesatellites_param="F,0,0,1,0,2.4062029,0,1 @ F,0,0,1,0,0,0,1 @ F,0,0,1,0,0,0,1 @ F,0,0,1,0,3.153959,0,1 @ F,0,0,1,0,1.9463375,0,1 @ F,0,0,1,0,0,0,1 @ F,0,0,1,0,0,0,1 @ F,0,0,1,0,3.0428396,0,1 @ F,0,0,1,0,2.4606363,0,1 @ F,0,0,1,0,0,0,1 @ F,0,0,1,0,0,0,1 @ F,0,0,1,0,2.5269604,0,1 @ F,0,0,1,0,3.2359749,0,1 @ F,0,0,1,0,0,0,1 @ F,0,0,1,0,0,0,1 @ F,0,0,1,0,2.6301363,0,1"
       radius="0"
       unit="px"
       method="auto"
       mode="F"
       chamfer_steps="1"
       flexible="false"
       use_knot_distance="true"
       apply_no_radius="true"
       apply_with_radius="true"
       only_selected="false"
       hide_knots="false" />
    <inkscape:path-effect
       effect="fillet_chamfer"
       id="path-effect17-2"
       is_visible="true"
       lpeversion="1"
       nodesatellites_param="F,0,0,1,0,2.3519976,0,1 @ F,0,0,1,0,2.3208597,0,1 @ F,0,0,1,0,1.3714219,0,1 @ F,0,0,1,0,1.1116212,0,1"
       radius="0"
       unit="px"
       method="auto"
       mode="F"
       chamfer_steps="1"
       flexible="false"
       use_knot_distance="true"
       apply_no_radius="true"
       apply_with_radius="true"
       only_selected="false"
       hide_knots="false" />
    <inkscape:path-effect
       effect="fillet_chamfer"
       id="path-effect17-2-9"
       is_visible="true"
       lpeversion="1"
       nodesatellites_param="F,0,0,1,0,2.3519976,0,1 @ F,0,0,1,0,2.3208597,0,1 @ F,0,0,1,0,1.3714219,0,1 @ F,0,0,1,0,1.1116212,0,1"
       radius="0"
       unit="px"
       method="auto"
       mode="F"
       chamfer_steps="1"
       flexible="false"
       use_knot_distance="true"
       apply_no_radius="true"
       apply_with_radius="true"
       only_selected="false"
       hide_knots="false" />
    <inkscape:path-effect
       effect="fillet_chamfer"
       id="path-effect17-2-9-8"
       is_visible="true"
       lpeversion="1"
       nodesatellites_param="F,0,0,1,0,2.3519976,0,1 @ F,0,0,1,0,2.3208597,0,1 @ F,0,0,1,0,1.3714219,0,1 @ F,0,0,1,0,1.1116212,0,1"
       radius="0"
       unit="px"
       method="auto"
       mode="F"
       chamfer_steps="1"
       flexible="false"
       use_knot_distance="true"
       apply_no_radius="true"
       apply_with_radius="true"
       only_selected="false"
       hide_knots="false" />
    <inkscape:path-effect
       effect="fillet_chamfer"
       id="path-effect17-2-6"
       is_visible="true"
       lpeversion="1"
       nodesatellites_param="F,0,0,1,0,2.3519976,0,1 @ F,0,0,1,0,2.3208597,0,1 @ F,0,0,1,0,1.3714219,0,1 @ F,0,0,1,0,1.1116212,0,1"
       radius="0"
       unit="px"
       method="auto"
       mode="F"
       chamfer_steps="1"
       flexible="false"
       use_knot_distance="true"
       apply_no_radius="true"
       apply_with_radius="true"
       only_selected="false"
       hide_knots="false" />
    <inkscape:path-effect
       effect="fillet_chamfer"
       id="path-effect17-0"
       is_visible="true"
       lpeversion="1"
       nodesatellites_param="F,0,0,1,0,2.3519976,0,1 @ F,0,0,1,0,2.3208597,0,1 @ F,0,0,1,0,1.3714219,0,1 @ F,0,0,1,0,1.1116212,0,1"
       radius="0"
       unit="px"
       method="auto"
       mode="F"
       chamfer_steps="1"
       flexible="false"
       use_knot_distance="true"
       apply_no_radius="true"
       apply_with_radius="true"
       only_selected="false"
       hide_knots="false" />
    <inkscape:path-effect
       effect="fillet_chamfer"
       id="path-effect17-2-9-0"
       is_visible="true"
       lpeversion="1"
       nodesatellites_param="F,0,0,1,0,2.3519976,0,1 @ F,0,0,1,0,2.3208597,0,1 @ F,0,0,1,0,1.3714219,0,1 @ F,0,0,1,0,1.1116212,0,1"
       radius="0"
       unit="px"
       method="auto"
       mode="F"
       chamfer_steps="1"
       flexible="false"
       use_knot_distance="true"
       apply_no_radius="true"
       apply_with_radius="true"
       only_selected="false"
       hide_knots="false" />
    <inkscape:path-effect
       effect="fillet_chamfer"
       id="path-effect17-2-0"
       is_visible="true"
       lpeversion="1"
       nodesatellites_param="F,0,0,1,0,2.3519976,0,1 @ F,0,0,1,0,2.3208597,0,1 @ F,0,0,1,0,1.3714219,0,1 @ F,0,0,1,0,1.1116212,0,1"
       radius="0"
       unit="px"
       method="auto"
       mode="F"
       chamfer_steps="1"
       flexible="false"
       use_knot_distance="true"
       apply_no_radius="true"
       apply_with_radius="true"
       only_selected="false"
       hide_knots="false" />
    <inkscape:path-effect
       effect="fillet_chamfer"
       id="path-effect17-6"
       is_visible="true"
       lpeversion="1"
       nodesatellites_param="F,0,0,1,0,2.3519976,0,1 @ F,0,0,1,0,2.3208597,0,1 @ F,0,0,1,0,1.3714219,0,1 @ F,0,0,1,0,1.1116212,0,1"
       radius="0"
       unit="px"
       method="auto"
       mode="F"
       chamfer_steps="1"
       flexible="false"
       use_knot_distance="true"
       apply_no_radius="true"
       apply_with_radius="true"
       only_selected="false"
       hide_knots="false" />
    <inkscape:path-effect
       effect="fillet_chamfer"
       id="path-effect17-2-9-0-0"
       is_visible="true"
       lpeversion="1"
       nodesatellites_param="F,0,0,1,0,2.3519976,0,1 @ F,0,0,1,0,2.3208597,0,1 @ F,0,0,1,0,1.3714219,0,1 @ F,0,0,1,0,1.1116212,0,1"
       radius="0"
       unit="px"
       method="auto"
       mode="F"
       chamfer_steps="1"
       flexible="false"
       use_knot_distance="true"
       apply_no_radius="true"
       apply_with_radius="true"
       only_selected="false"
       hide_knots="false" />
    <inkscape:path-effect
       effect="fillet_chamfer"
       id="path-effect17-2-0-6"
       is_visible="true"
       lpeversion="1"
       nodesatellites_param="F,0,0,1,0,2.3519976,0,1 @ F,0,0,1,0,2.3208597,0,1 @ F,0,0,1,0,1.3714219,0,1 @ F,0,0,1,0,1.1116212,0,1"
       radius="0"
       unit="px"
       method="auto"
       mode="F"
       chamfer_steps="1"
       flexible="false"
       use_knot_distance="true"
       apply_no_radius="true"
       apply_with_radius="true"
       only_selected="false"
       hide_knots="false" />
    <inkscape:path-effect
       effect="fillet_chamfer"
       id="path-effect17-2-9-0-3"
       is_visible="true"
       lpeversion="1"
       nodesatellites_param="F,0,0,1,0,2.3519976,0,1 @ F,0,0,1,0,2.3208597,0,1 @ F,0,0,1,0,1.3714219,0,1 @ F,0,0,1,0,1.1116212,0,1"
       radius="0"
       unit="px"
       method="auto"
       mode="F"
       chamfer_steps="1"
       flexible="false"
       use_knot_distance="true"
       apply_no_radius="true"
       apply_with_radius="true"
       only_selected="false"
       hide_knots="false" />
    <inkscape:path-effect
       effect="fillet_chamfer"
       id="path-effect17-2-0-6-7"
       is_visible="true"
       lpeversion="1"
       nodesatellites_param="F,0,0,1,0,2.3519976,0,1 @ F,0,0,1,0,2.3208597,0,1 @ F,0,0,1,0,1.3714219,0,1 @ F,0,0,1,0,1.1116212,0,1"
       radius="0"
       unit="px"
       method="auto"
       mode="F"
       chamfer_steps="1"
       flexible="false"
       use_knot_distance="true"
       apply_no_radius="true"
       apply_with_radius="true"
       only_selected="false"
       hide_knots="false" />
    <inkscape:path-effect
       effect="fillet_chamfer"
       id="path-effect17-2-9-0-0-8"
       is_visible="true"
       lpeversion="1"
       nodesatellites_param="F,0,0,1,0,2.3519976,0,1 @ F,0,0,1,0,2.3208597,0,1 @ F,0,0,1,0,1.3714219,0,1 @ F,0,0,1,0,1.1116212,0,1"
       radius="0"
       unit="px"
       method="auto"
       mode="F"
       chamfer_steps="1"
       flexible="false"
       use_knot_distance="true"
       apply_no_radius="true"
       apply_with_radius="true"
       only_selected="false"
       hide_knots="false" />
    <inkscape:path-effect
       effect="fillet_chamfer"
       id="path-effect17-8"
       is_visible="true"
       lpeversion="1"
       nodesatellites_param="F,0,0,1,0,2.3519976,0,1 @ F,0,0,1,0,2.3208597,0,1 @ F,0,0,1,0,1.3714219,0,1 @ F,0,0,1,0,1.1116212,0,1"
       radius="0"
       unit="px"
       method="auto"
       mode="F"
       chamfer_steps="1"
       flexible="false"
       use_knot_distance="true"
       apply_no_radius="true"
       apply_with_radius="true"
       only_selected="false"
       hide_knots="false" />
    <inkscape:path-effect
       effect="fillet_chamfer"
       id="path-effect17-2-2"
       is_visible="true"
       lpeversion="1"
       nodesatellites_param="F,0,0,1,0,2.3519976,0,1 @ F,0,0,1,0,2.3208597,0,1 @ F,0,0,1,0,1.3714219,0,1 @ F,0,0,1,0,1.1116212,0,1"
       radius="0"
       unit="px"
       method="auto"
       mode="F"
       chamfer_steps="1"
       flexible="false"
       use_knot_distance="true"
       apply_no_radius="true"
       apply_with_radius="true"
       only_selected="false"
       hide_knots="false" />
    <inkscape:path-effect
       effect="fillet_chamfer"
       id="path-effect17-2-9-9"
       is_visible="true"
       lpeversion="1"
       nodesatellites_param="F,0,0,1,0,2.3519976,0,1 @ F,0,0,1,0,2.3208597,0,1 @ F,0,0,1,0,1.3714219,0,1 @ F,0,0,1,0,1.1116212,0,1"
       radius="0"
       unit="px"
       method="auto"
       mode="F"
       chamfer_steps="1"
       flexible="false"
       use_knot_distance="true"
       apply_no_radius="true"
       apply_with_radius="true"
       only_selected="false"
       hide_knots="false" />
    <inkscape:path-effect
       effect="fillet_chamfer"
       id="path-effect17-0-1"
       is_visible="true"
       lpeversion="1"
       nodesatellites_param="F,0,0,1,0,2.3519976,0,1 @ F,0,0,1,0,2.3208597,0,1 @ F,0,0,1,0,1.3714219,0,1 @ F,0,0,1,0,1.1116212,0,1"
       radius="0"
       unit="px"
       method="auto"
       mode="F"
       chamfer_steps="1"
       flexible="false"
       use_knot_distance="true"
       apply_no_radius="true"
       apply_with_radius="true"
       only_selected="false"
       hide_knots="false" />
    <inkscape:path-effect
       effect="fillet_chamfer"
       id="path-effect17-2-6-3"
       is_visible="true"
       lpeversion="1"
       nodesatellites_param="F,0,0,1,0,2.3519976,0,1 @ F,0,0,1,0,2.3208597,0,1 @ F,0,0,1,0,1.3714219,0,1 @ F,0,0,1,0,1.1116212,0,1"
       radius="0"
       unit="px"
       method="auto"
       mode="F"
       chamfer_steps="1"
       flexible="false"
       use_knot_distance="true"
       apply_no_radius="true"
       apply_with_radius="true"
       only_selected="false"
       hide_knots="false" />
    <inkscape:path-effect
       effect="fillet_chamfer"
       id="path-effect17-2-9-8-5"
       is_visible="true"
       lpeversion="1"
       nodesatellites_param="F,0,0,1,0,2.3519976,0,1 @ F,0,0,1,0,2.3208597,0,1 @ F,0,0,1,0,1.3714219,0,1 @ F,0,0,1,0,1.1116212,0,1"
       radius="0"
       unit="px"
       method="auto"
       mode="F"
       chamfer_steps="1"
       flexible="false"
       use_knot_distance="true"
       apply_no_radius="true"
       apply_with_radius="true"
       only_selected="false"
       hide_knots="false" />
    <inkscape:path-effect
       effect="fillet_chamfer"
       id="path-effect17-6-9"
       is_visible="true"
       lpeversion="1"
       nodesatellites_param="F,0,0,1,0,2.3519976,0,1 @ F,0,0,1,0,2.3208597,0,1 @ F,0,0,1,0,1.3714219,0,1 @ F,0,0,1,0,1.1116212,0,1"
       radius="0"
       unit="px"
       method="auto"
       mode="F"
       chamfer_steps="1"
       flexible="false"
       use_knot_distance="true"
       apply_no_radius="true"
       apply_with_radius="true"
       only_selected="false"
       hide_knots="false" />
    <inkscape:path-effect
       effect="fillet_chamfer"
       id="path-effect17-2-0-8"
       is_visible="true"
       lpeversion="1"
       nodesatellites_param="F,0,0,1,0,2.3519976,0,1 @ F,0,0,1,0,2.3208597,0,1 @ F,0,0,1,0,1.3714219,0,1 @ F,0,0,1,0,1.1116212,0,1"
       radius="0"
       unit="px"
       method="auto"
       mode="F"
       chamfer_steps="1"
       flexible="false"
       use_knot_distance="true"
       apply_no_radius="true"
       apply_with_radius="true"
       only_selected="false"
       hide_knots="false" />
  </defs>
  <g
     inkscape:groupmode="layer"
     id="layer2"
     inkscape:label="Ceiling"
     transform="translate(-139.45719,-117.59323)">
    <path
       sodipodi:type="star"
       style="fill:#b9b9b9;fill-opacity:1;stroke:#2b3442;stroke-width:0;stroke-linecap:round;stroke-linejoin:round;paint-order:fill markers stroke"
       id="path16"
       inkscape:flatsided="true"
       sodipodi:sides="11"
       sodipodi:cx="201.2299"
       sodipodi:cy="180.47366"
       sodipodi:r1="62.989353"
       sodipodi:r2="60.437843"
       sodipodi:arg1="0.65451385"
       sodipodi:arg2="0.94011318"
       inkscape:rounded="0.072"
       inkscape:randomized="2.7755576e-17"
       d="m 251.20213,218.81992 c -1.55569,2.02735 -26.25967,20.06525 -28.66447,20.92969 -2.40479,0.86445 -32.93913,2.68291 -35.42953,2.11 -2.49039,-0.57291 -29.16065,-15.55123 -30.94596,-17.37961 -1.78532,-1.82837 -16.12387,-28.84797 -16.63728,-31.35131 -0.51341,-2.50334 2.03213,-32.98567 2.95363,-35.36919 0.9215,-2.38351 19.54293,-26.65067 21.60678,-28.1576 2.06384,-1.50694 30.849,-11.85426 33.39992,-12.00618 2.55093,-0.15192 32.36073,6.70579 34.58884,7.95712 2.22811,1.25133 23.59815,23.13681 24.79604,25.3941 1.19788,2.25729 7.34333,32.22204 7.13067,34.76862 -0.21267,2.54659 -11.24295,31.07701 -12.79864,33.10436 z"
       inkscape:transform-center-x="-0.34482888"
       inkscape:transform-center-y="-0.45747874" />
    <path
       sodipodi:type="star"
       style="fill:#9f9f9f;fill-opacity:1;stroke:#2b3442;stroke-width:0;stroke-linecap:round;stroke-linejoin:round;paint-order:fill markers stroke"
       id="path16-4"
       inkscape:flatsided="true"
       sodipodi:sides="11"
       sodipodi:cx="201.2299"
       sodipodi:cy="180.47366"
       sodipodi:r1="62.989353"
       sodipodi:r2="60.437843"
       sodipodi:arg1="0.65451385"
       sodipodi:arg2="0.94011318"
       inkscape:rounded="0.072"
       inkscape:randomized="2.7755576e-17"
       d="m 251.20213,218.81992 c -1.55569,2.02735 -26.25967,20.06525 -28.66447,20.92969 -2.40479,0.86445 -32.93913,2.68291 -35.42953,2.11 -2.49039,-0.57291 -29.16065,-15.55123 -30.94596,-17.37961 -1.78532,-1.82837 -16.12387,-28.84797 -16.63728,-31.35131 -0.51341,-2.50334 2.03213,-32.98567 2.95363,-35.36919 0.9215,-2.38351 19.54293,-26.65067 21.60678,-28.1576 2.06384,-1.50694 30.849,-11.85426 33.39992,-12.00618 2.55093,-0.15192 32.36073,6.70579 34.58884,7.95712 2.22811,1.25133 23.59815,23.13681 24.79604,25.3941 1.19788,2.25729 7.34333,32.22204 7.13067,34.76862 -0.21267,2.54659 -11.24295,31.07701 -12.79864,33.10436 z"
       inkscape:transform-center-x="-0.3010026"
       inkscape:transform-center-y="-0.39933613"
       transform="matrix(0.87290532,0,0,0.87290532,25.256239,23.241726)" />
    <path
       sodipodi:type="star"
       style="fill:#8f8f8f;fill-opacity:1;stroke:#2b3442;stroke-width:0;stroke-linecap:round;stroke-linejoin:round;paint-order:fill markers stroke"
       id="path16-4-3"
       inkscape:flatsided="true"
       sodipodi:sides="11"
       sodipodi:cx="201.2299"
       sodipodi:cy="180.47366"
       sodipodi:r1="62.989353"
       sodipodi:r2="60.437843"
       sodipodi:arg1="0.65451385"
       sodipodi:arg2="0.94011318"
       inkscape:rounded="0.072"
       inkscape:randomized="2.7755576e-17"
       d="m 251.20213,218.81992 c -1.55569,2.02735 -26.25967,20.06525 -28.66447,20.92969 -2.40479,0.86445 -32.93913,2.68291 -35.42953,2.11 -2.49039,-0.57291 -29.16065,-15.55123 -30.94596,-17.37961 -1.78532,-1.82837 -16.12387,-28.84797 -16.63728,-31.35131 -0.51341,-2.50334 2.03213,-32.98567 2.95363,-35.36919 0.9215,-2.38351 19.54293,-26.65067 21.60678,-28.1576 2.06384,-1.50694 30.849,-11.85426 33.39992,-12.00618 2.55093,-0.15192 32.36073,6.70579 34.58884,7.95712 2.22811,1.25133 23.59815,23.13681 24.79604,25.3941 1.19788,2.25729 7.34333,32.22204 7.13067,34.76862 -0.21267,2.54659 -11.24295,31.07701 -12.79864,33.10436 z"
       inkscape:transform-center-x="-0.21886852"
       inkscape:transform-center-y="-0.29036761"
       transform="matrix(0.63471397,0,0,0.63471397,72.142098,65.906542)" />
    <path
       sodipodi:type="star"
       style="fill:#717171;fill-opacity:1;stroke:#2b3442;stroke-width:0;stroke-linecap:round;stroke-linejoin:round;paint-order:fill markers stroke"
       id="path16-4-3-8"
       inkscape:flatsided="true"
       sodipodi:sides="11"
       sodipodi:cx="201.2299"
       sodipodi:cy="180.47366"
       sodipodi:r1="62.989353"
       sodipodi:r2="60.437843"
       sodipodi:arg1="0.65451385"
       sodipodi:arg2="0.94011318"
       inkscape:rounded="0.072"
       inkscape:randomized="2.7755576e-17"
       d="m 251.20213,218.81992 c -1.55569,2.02735 -26.25967,20.06525 -28.66447,20.92969 -2.40479,0.86445 -32.93913,2.68291 -35.42953,2.11 -2.49039,-0.57291 -29.16065,-15.55123 -30.94596,-17.37961 -1.78532,-1.82837 -16.12387,-28.84797 -16.63728,-31.35131 -0.51341,-2.50334 2.03213,-32.98567 2.95363,-35.36919 0.9215,-2.38351 19.54293,-26.65067 21.60678,-28.1576 2.06384,-1.50694 30.849,-11.85426 33.39992,-12.00618 2.55093,-0.15192 32.36073,6.70579 34.58884,7.95712 2.22811,1.25133 23.59815,23.13681 24.79604,25.3941 1.19788,2.25729 7.34333,32.22204 7.13067,34.76862 -0.21267,2.54659 -11.24295,31.07701 -12.79864,33.10436 z"
       inkscape:transform-center-x="-0.096703994"
       inkscape:transform-center-y="-0.12829835"
       transform="matrix(0.28044258,0,0,0.28044258,144.48351,129.63842)" />
    <path
       style="fill:#e7e7e7;fill-opacity:1;stroke:#2b3442;stroke-width:0;stroke-linecap:round;stroke-linejoin:round;paint-order:fill markers stroke"
       d="m 184.01849,149.94137 8.2272,-3.77585 a 1.8932575,1.8932575 26.141259 0 1 2.63396,1.29271 l 2.69814,11.62689 a 1.5013988,1.5013988 119.34467 0 1 -0.99246,1.7653 l -5.64526,1.86108 c -0.58306,0.19222 -1.34483,-0.0571 -1.69808,-0.5592 -2.82989,-4.02249 -4.27262,-6.42662 -6.08408,-9.26092 -0.69799,-1.09212 -0.31999,-2.40818 0.86058,-2.95001 z"
       id="path17"
       inkscape:path-effect="#path-effect17"
       inkscape:original-d="m 181.88087,150.92243 12.47414,-5.72498 3.53279,15.22359 -8.00346,2.6385 c -3.93737,-5.52685 -5.33565,-8.09141 -8.00347,-12.13711 z"
       sodipodi:nodetypes="ccccc" />
    <path
       style="fill:#c6c6c6;fill-opacity:1;stroke:#2b3442;stroke-width:0;stroke-linecap:round;stroke-linejoin:round;paint-order:fill markers stroke"
       d="m 184.01849,149.94137 8.2272,-3.77585 a 1.8932575,1.8932575 26.141259 0 1 2.63396,1.29271 l 2.69814,11.62689 a 1.5013988,1.5013988 119.34467 0 1 -0.99246,1.7653 l -5.64526,1.86108 c -0.58306,0.19222 -1.34483,-0.0571 -1.69808,-0.5592 -2.82989,-4.02249 -4.27262,-6.42662 -6.08408,-9.26092 -0.69799,-1.09212 -0.31999,-2.40818 0.86058,-2.95001 z"
       id="path17-9"
       inkscape:path-effect="#path-effect17-2"
       inkscape:original-d="m 181.88087,150.92243 12.47414,-5.72498 3.53279,15.22359 -8.00346,2.6385 c -3.93737,-5.52685 -5.33565,-8.09141 -8.00347,-12.13711 z"
       sodipodi:nodetypes="ccccc"
       transform="rotate(37.275817,200.77203,179.7544)" />
    <path
       style="fill:#a8a8a8;fill-opacity:1;stroke:#2b3442;stroke-width:0;stroke-linecap:round;stroke-linejoin:round;paint-order:fill markers stroke"
       d="m 184.01849,149.94137 8.2272,-3.77585 a 1.8932575,1.8932575 26.141259 0 1 2.63396,1.29271 l 2.69814,11.62689 a 1.5013988,1.5013988 119.34467 0 1 -0.99246,1.7653 l -5.64526,1.86108 c -0.58306,0.19222 -1.34483,-0.0571 -1.69808,-0.5592 -2.82989,-4.02249 -4.27262,-6.42662 -6.08408,-9.26092 -0.69799,-1.09212 -0.31999,-2.40818 0.86058,-2.95001 z"
       id="path17-9-5"
       inkscape:path-effect="#path-effect17-2-9"
       inkscape:original-d="m 181.88087,150.92243 12.47414,-5.72498 3.53279,15.22359 -8.00346,2.6385 c -3.93737,-5.52685 -5.33565,-8.09141 -8.00347,-12.13711 z"
       sodipodi:nodetypes="ccccc"
       transform="rotate(68.644897,200.65377,180.01451)" />
    <path
       style="fill:#c6c6c6;fill-opacity:1;stroke:#2b3442;stroke-width:0;stroke-linecap:round;stroke-linejoin:round;paint-order:fill markers stroke"
       d="m 184.01849,149.94137 8.2272,-3.77585 a 1.8932575,1.8932575 26.141259 0 1 2.63396,1.29271 l 2.69814,11.62689 a 1.5013988,1.5013988 119.34467 0 1 -0.99246,1.7653 l -5.64526,1.86108 c -0.58306,0.19222 -1.34483,-0.0571 -1.69808,-0.5592 -2.82989,-4.02249 -4.27262,-6.42662 -6.08408,-9.26092 -0.69799,-1.09212 -0.31999,-2.40818 0.86058,-2.95001 z"
       id="path17-8"
       inkscape:path-effect="#path-effect17-0"
       inkscape:original-d="m 181.88087,150.92243 12.47414,-5.72498 3.53279,15.22359 -8.00346,2.6385 c -3.93737,-5.52685 -5.33565,-8.09141 -8.00347,-12.13711 z"
       sodipodi:nodetypes="ccccc"
       transform="rotate(98.710806,201.14391,180.87513)" />
    <path
       style="fill:#a8a8a8;fill-opacity:1;stroke:#2b3442;stroke-width:0;stroke-linecap:round;stroke-linejoin:round;paint-order:fill markers stroke"
       d="m 184.01849,149.94137 8.2272,-3.77585 a 1.8932575,1.8932575 26.141259 0 1 2.63396,1.29271 l 2.69814,11.62689 a 1.5013988,1.5013988 119.34467 0 1 -0.99246,1.7653 l -5.64526,1.86108 c -0.58306,0.19222 -1.34483,-0.0571 -1.69808,-0.5592 -2.82989,-4.02249 -4.27262,-6.42662 -6.08408,-9.26092 -0.69799,-1.09212 -0.31999,-2.40818 0.86058,-2.95001 z"
       id="path17-9-6"
       inkscape:path-effect="#path-effect17-2-6"
       inkscape:original-d="m 181.88087,150.92243 12.47414,-5.72498 3.53279,15.22359 -8.00346,2.6385 c -3.93737,-5.52685 -5.33565,-8.09141 -8.00347,-12.13711 z"
       sodipodi:nodetypes="ccccc"
       transform="rotate(135.98663,201.35353,180.52622)" />
    <path
       style="fill:#e7e7e7;fill-opacity:1;stroke:#2b3442;stroke-width:0;stroke-linecap:round;stroke-linejoin:round;paint-order:fill markers stroke"
       d="m 184.01849,149.94137 8.2272,-3.77585 a 1.8932575,1.8932575 26.141259 0 1 2.63396,1.29271 l 2.69814,11.62689 a 1.5013988,1.5013988 119.34467 0 1 -0.99246,1.7653 l -5.64526,1.86108 c -0.58306,0.19222 -1.34483,-0.0571 -1.69808,-0.5592 -2.82989,-4.02249 -4.27262,-6.42662 -6.08408,-9.26092 -0.69799,-1.09212 -0.31999,-2.40818 0.86058,-2.95001 z"
       id="path17-9-5-5"
       inkscape:path-effect="#path-effect17-2-9-8"
       inkscape:original-d="m 181.88087,150.92243 12.47414,-5.72498 3.53279,15.22359 -8.00346,2.6385 c -3.93737,-5.52685 -5.33565,-8.09141 -8.00347,-12.13711 z"
       sodipodi:nodetypes="ccccc"
       transform="rotate(167.35571,201.33324,180.34613)" />
    <path
       style="fill:#e7e7e7;fill-opacity:1;stroke:#2b3442;stroke-width:0;stroke-linecap:round;stroke-linejoin:round;paint-order:fill markers stroke"
       d="m 184.01849,149.94137 8.2272,-3.77585 a 1.8932575,1.8932575 26.141259 0 1 2.63396,1.29271 l 2.69814,11.62689 a 1.5013988,1.5013988 119.34467 0 1 -0.99246,1.7653 l -5.64526,1.86108 c -0.58306,0.19222 -1.34483,-0.0571 -1.69808,-0.5592 -2.82989,-4.02249 -4.27262,-6.42662 -6.08408,-9.26092 -0.69799,-1.09212 -0.31999,-2.40818 0.86058,-2.95001 z"
       id="path17-89"
       inkscape:path-effect="#path-effect17-6"
       inkscape:original-d="m 181.88087,150.92243 12.47414,-5.72498 3.53279,15.22359 -8.00346,2.6385 c -3.93737,-5.52685 -5.33565,-8.09141 -8.00347,-12.13711 z"
       sodipodi:nodetypes="ccccc"
       transform="rotate(-159.98965,201.0487,180.5377)" />
    <path
       style="fill:#e7e7e7;fill-opacity:1;stroke:#2b3442;stroke-width:0;stroke-linecap:round;stroke-linejoin:round;paint-order:fill markers stroke"
       d="m 184.01849,149.94137 8.2272,-3.77585 a 1.8932575,1.8932575 26.141259 0 1 2.63396,1.29271 l 2.69814,11.62689 a 1.5013988,1.5013988 119.34467 0 1 -0.99246,1.7653 l -5.64526,1.86108 c -0.58306,0.19222 -1.34483,-0.0571 -1.69808,-0.5592 -2.82989,-4.02249 -4.27262,-6.42662 -6.08408,-9.26092 -0.69799,-1.09212 -0.31999,-2.40818 0.86058,-2.95001 z"
       id="path17-9-3"
       inkscape:path-effect="#path-effect17-2-0"
       inkscape:original-d="m 181.88087,150.92243 12.47414,-5.72498 3.53279,15.22359 -8.00346,2.6385 c -3.93737,-5.52685 -5.33565,-8.09141 -8.00347,-12.13711 z"
       sodipodi:nodetypes="ccccc"
       transform="rotate(-122.71383,201.3471,180.48804)" />
    <path
       style="fill:#ababab;fill-opacity:1;stroke:#2b3442;stroke-width:0;stroke-linecap:round;stroke-linejoin:round;paint-order:fill markers stroke"
       d="m 184.01849,149.94137 8.2272,-3.77585 a 1.8932575,1.8932575 26.141259 0 1 2.63396,1.29271 l 2.69814,11.62689 a 1.5013988,1.5013988 119.34467 0 1 -0.99246,1.7653 l -5.64526,1.86108 c -0.58306,0.19222 -1.34483,-0.0571 -1.69808,-0.5592 -2.82989,-4.02249 -4.27262,-6.42662 -6.08408,-9.26092 -0.69799,-1.09212 -0.31999,-2.40818 0.86058,-2.95001 z"
       id="path17-9-5-4"
       inkscape:path-effect="#path-effect17-2-9-0"
       inkscape:original-d="m 181.88087,150.92243 12.47414,-5.72498 3.53279,15.22359 -8.00346,2.6385 c -3.93737,-5.52685 -5.33565,-8.09141 -8.00347,-12.13711 z"
       sodipodi:nodetypes="ccccc"
       transform="rotate(-91.344757,201.50887,180.3028)" />
    <path
       style="fill:#ababab;fill-opacity:1;stroke:#2b3442;stroke-width:0;stroke-linecap:round;stroke-linejoin:round;paint-order:fill markers stroke"
       d="m 184.01849,149.94137 8.2272,-3.77585 a 1.8932575,1.8932575 26.141259 0 1 2.63396,1.29271 l 2.69814,11.62689 a 1.5013988,1.5013988 119.34467 0 1 -0.99246,1.7653 l -5.64526,1.86108 c -0.58306,0.19222 -1.34483,-0.0571 -1.69808,-0.5592 -2.82989,-4.02249 -4.27262,-6.42662 -6.08408,-9.26092 -0.69799,-1.09212 -0.31999,-2.40818 0.86058,-2.95001 z"
       id="path17-9-3-8"
       inkscape:path-effect="#path-effect17-2-0-6"
       inkscape:original-d="m 181.88087,150.92243 12.47414,-5.72498 3.53279,15.22359 -8.00346,2.6385 c -3.93737,-5.52685 -5.33565,-8.09141 -8.00347,-12.13711 z"
       sodipodi:nodetypes="ccccc"
       transform="rotate(-60.224778,200.70988,181.83538)" />
    <path
       style="fill:#c6c6c6;fill-opacity:1;stroke:#2b3442;stroke-width:0;stroke-linecap:round;stroke-linejoin:round;paint-order:fill markers stroke"
       d="m 184.01849,149.94137 8.2272,-3.77585 a 1.8932575,1.8932575 26.141259 0 1 2.63396,1.29271 l 2.69814,11.62689 a 1.5013988,1.5013988 119.34467 0 1 -0.99246,1.7653 l -5.64526,1.86108 c -0.58306,0.19222 -1.34483,-0.0571 -1.69808,-0.5592 -2.82989,-4.02249 -4.27262,-6.42662 -6.08408,-9.26092 -0.69799,-1.09212 -0.31999,-2.40818 0.86058,-2.95001 z"
       id="path17-9-5-4-4"
       inkscape:path-effect="#path-effect17-2-9-0-0"
       inkscape:original-d="m 181.88087,150.92243 12.47414,-5.72498 3.53279,15.22359 -8.00346,2.6385 c -3.93737,-5.52685 -5.33565,-8.09141 -8.00347,-12.13711 z"
       sodipodi:nodetypes="ccccc"
       transform="rotate(-28.855705,201.51819,183.23306)" />
    <path
       style="fill:#e7e7e7;fill-opacity:1;stroke:#2b3442;stroke-width:0;stroke-linecap:round;stroke-linejoin:round;paint-order:fill markers stroke"
       d="m 184.01849,149.94137 8.2272,-3.77585 a 1.8932575,1.8932575 26.141259 0 1 2.63396,1.29271 l 2.69814,11.62689 a 1.5013988,1.5013988 119.34467 0 1 -0.99246,1.7653 l -5.64526,1.86108 c -0.58306,0.19222 -1.34483,-0.0571 -1.69808,-0.5592 -2.82989,-4.02249 -4.27262,-6.42662 -6.08408,-9.26092 -0.69799,-1.09212 -0.31999,-2.40818 0.86058,-2.95001 z"
       id="path17-7"
       inkscape:path-effect="#path-effect17-8"
       inkscape:original-d="m 181.88087,150.92243 12.47414,-5.72498 3.53279,15.22359 -8.00346,2.6385 c -3.93737,-5.52685 -5.33565,-8.09141 -8.00347,-12.13711 z"
       sodipodi:nodetypes="ccccc"
       transform="matrix(0.9666792,1.0794763,-1.0794763,0.9666792,201.7535,-210.54953)" />
    <path
       style="fill:#c6c6c6;fill-opacity:1;stroke:#2b3442;stroke-width:0;stroke-linecap:round;stroke-linejoin:round;paint-order:fill markers stroke"
       d="m 184.01849,149.94137 8.2272,-3.77585 a 1.8932575,1.8932575 26.141259 0 1 2.63396,1.29271 l 2.69814,11.62689 a 1.5013988,1.5013988 119.34467 0 1 -0.99246,1.7653 l -5.64526,1.86108 c -0.58306,0.19222 -1.34483,-0.0571 -1.69808,-0.5592 -2.82989,-4.02249 -4.27262,-6.42662 -6.08408,-9.26092 -0.69799,-1.09212 -0.31999,-2.40818 0.86058,-2.95001 z"
       id="path17-9-63"
       inkscape:path-effect="#path-effect17-2-2"
       inkscape:original-d="m 181.88087,150.92243 12.47414,-5.72498 3.53279,15.22359 -8.00346,2.6385 c -3.93737,-5.52685 -5.33565,-8.09141 -8.00347,-12.13711 z"
       sodipodi:nodetypes="ccccc"
       transform="matrix(0.11784372,1.4746817,-1.4746817,0.11784372,443.24006,-137.32802)" />
    <path
       style="fill:#a8a8a8;fill-opacity:1;stroke:#2b3442;stroke-width:0;stroke-linecap:round;stroke-linejoin:round;paint-order:fill markers stroke"
       d="m 184.01849,149.94137 8.2272,-3.77585 a 1.8932575,1.8932575 26.141259 0 1 2.63396,1.29271 l 2.69814,11.62689 a 1.5013988,1.5013988 119.34467 0 1 -0.99246,1.7653 l -5.64526,1.86108 c -0.58306,0.19222 -1.34483,-0.0571 -1.69808,-0.5592 -2.82989,-4.02249 -4.27262,-6.42662 -6.08408,-9.26092 -0.69799,-1.09212 -0.31999,-2.40818 0.86058,-2.95001 z"
       id="path17-9-5-6"
       inkscape:path-effect="#path-effect17-2-9-9"
       inkscape:original-d="m 181.88087,150.92243 12.47414,-5.72498 3.53279,15.22359 -8.00346,2.6385 c -3.93737,-5.52685 -5.33565,-8.09141 -8.00347,-12.13711 z"
       sodipodi:nodetypes="ccccc"
       transform="matrix(-0.65334757,1.2933965,-1.2933965,-0.65334757,565.32675,38.154864)" />
    <path
       style="fill:#c6c6c6;fill-opacity:1;stroke:#2b3442;stroke-width:0;stroke-linecap:round;stroke-linejoin:round;paint-order:fill markers stroke"
       d="m 184.01849,149.94137 8.2272,-3.77585 a 1.8932575,1.8932575 26.141259 0 1 2.63396,1.29271 l 2.69814,11.62689 a 1.5013988,1.5013988 119.34467 0 1 -0.99246,1.7653 l -5.64526,1.86108 c -0.58306,0.19222 -1.34483,-0.0571 -1.69808,-0.5592 -2.82989,-4.02249 -4.27262,-6.42662 -6.08408,-9.26092 -0.69799,-1.09212 -0.31999,-2.40818 0.86058,-2.95001 z"
       id="path17-8-1"
       inkscape:path-effect="#path-effect17-0-1"
       inkscape:original-d="m 181.88087,150.92243 12.47414,-5.72498 3.53279,15.22359 -8.00346,2.6385 c -3.93737,-5.52685 -5.33565,-8.09141 -8.00347,-12.13711 z"
       sodipodi:nodetypes="ccccc"
       transform="matrix(-1.2134257,0.79204523,-0.79204523,-1.2134257,588.2792,241.59224)" />
    <path
       style="fill:#a8a8a8;fill-opacity:1;stroke:#2b3442;stroke-width:0;stroke-linecap:round;stroke-linejoin:round;paint-order:fill markers stroke"
       d="m 184.01849,149.94137 8.2272,-3.77585 a 1.8932575,1.8932575 26.141259 0 1 2.63396,1.29271 l 2.69814,11.62689 a 1.5013988,1.5013988 119.34467 0 1 -0.99246,1.7653 l -5.64526,1.86108 c -0.58306,0.19222 -1.34483,-0.0571 -1.69808,-0.5592 -2.82989,-4.02249 -4.27262,-6.42662 -6.08408,-9.26092 -0.69799,-1.09212 -0.31999,-2.40818 0.86058,-2.95001 z"
       id="path17-9-6-5"
       inkscape:path-effect="#path-effect17-2-6-3"
       inkscape:original-d="m 181.88087,150.92243 12.47414,-5.72498 3.53279,15.22359 -8.00346,2.6385 c -3.93737,-5.52685 -5.33565,-8.09141 -8.00347,-12.13711 z"
       sodipodi:nodetypes="ccccc"
       transform="matrix(-1.4452626,-0.1046612,0.1046612,-1.4452626,473.63865,463.29944)" />
    <path
       style="fill:#e7e7e7;fill-opacity:1;stroke:#2b3442;stroke-width:0;stroke-linecap:round;stroke-linejoin:round;paint-order:fill markers stroke"
       d="m 184.01849,149.94137 8.2272,-3.77585 a 1.8932575,1.8932575 26.141259 0 1 2.63396,1.29271 l 2.69814,11.62689 a 1.5013988,1.5013988 119.34467 0 1 -0.99246,1.7653 l -5.64526,1.86108 c -0.58306,0.19222 -1.34483,-0.0571 -1.69808,-0.5592 -2.82989,-4.02249 -4.27262,-6.42662 -6.08408,-9.26092 -0.69799,-1.09212 -0.31999,-2.40818 0.86058,-2.95001 z"
       id="path17-9-5-5-4"
       inkscape:path-effect="#path-effect17-2-9-8-5"
       inkscape:original-d="m 181.88087,150.92243 12.47414,-5.72498 3.53279,15.22359 -8.00346,2.6385 c -3.93737,-5.52685 -5.33565,-8.09141 -8.00347,-12.13711 z"
       sodipodi:nodetypes="ccccc"
       transform="matrix(-1.1795298,-0.84169287,0.84169287,-1.1795298,287.3813,563.30618)" />
    <path
       style="fill:#e7e7e7;fill-opacity:1;stroke:#2b3442;stroke-width:0;stroke-linecap:round;stroke-linejoin:round;paint-order:fill markers stroke"
       d="m 184.01849,149.94137 8.2272,-3.77585 a 1.8932575,1.8932575 26.141259 0 1 2.63396,1.29271 l 2.69814,11.62689 a 1.5013988,1.5013988 119.34467 0 1 -0.99246,1.7653 l -5.64526,1.86108 c -0.58306,0.19222 -1.34483,-0.0571 -1.69808,-0.5592 -2.82989,-4.02249 -4.27262,-6.42662 -6.08408,-9.26092 -0.69799,-1.09212 -0.31999,-2.40818 0.86058,-2.95001 z"
       id="path17-89-2"
       inkscape:path-effect="#path-effect17-6-9"
       inkscape:original-d="m 181.88087,150.92243 12.47414,-5.72498 3.53279,15.22359 -8.00346,2.6385 c -3.93737,-5.52685 -5.33565,-8.09141 -8.00347,-12.13711 z"
       sodipodi:nodetypes="ccccc"
       transform="matrix(-0.53893576,-1.345097,1.345097,-0.53893576,66.728552,548.72804)" />
    <path
       style="fill:#e7e7e7;fill-opacity:1;stroke:#2b3442;stroke-width:0;stroke-linecap:round;stroke-linejoin:round;paint-order:fill markers stroke"
       d="m 184.01849,149.94137 8.2272,-3.77585 a 1.8932575,1.8932575 26.141259 0 1 2.63396,1.29271 l 2.69814,11.62689 a 1.5013988,1.5013988 119.34467 0 1 -0.99246,1.7653 l -5.64526,1.86108 c -0.58306,0.19222 -1.34483,-0.0571 -1.69808,-0.5592 -2.82989,-4.02249 -4.27262,-6.42662 -6.08408,-9.26092 -0.69799,-1.09212 -0.31999,-2.40818 0.86058,-2.95001 z"
       id="path17-9-3-0"
       inkscape:path-effect="#path-effect17-2-0-8"
       inkscape:original-d="m 181.88087,150.92243 12.47414,-5.72498 3.53279,15.22359 -8.00346,2.6385 c -3.93737,-5.52685 -5.33565,-8.09141 -8.00347,-12.13711 z"
       sodipodi:nodetypes="ccccc"
       transform="matrix(0.38581468,-1.3967408,1.3967408,0.38581468,-128.21866,392.86868)" />
    <path
       style="fill:#ababab;fill-opacity:1;stroke:#2b3442;stroke-width:0;stroke-linecap:round;stroke-linejoin:round;paint-order:fill markers stroke"
       d="m 184.01849,149.94137 8.2272,-3.77585 a 1.8932575,1.8932575 26.141259 0 1 2.63396,1.29271 l 2.69814,11.62689 a 1.5013988,1.5013988 119.34467 0 1 -0.99246,1.7653 l -5.64526,1.86108 c -0.58306,0.19222 -1.34483,-0.0571 -1.69808,-0.5592 -2.82989,-4.02249 -4.27262,-6.42662 -6.08408,-9.26092 -0.69799,-1.09212 -0.31999,-2.40818 0.86058,-2.95001 z"
       id="path17-9-5-4-9"
       inkscape:path-effect="#path-effect17-2-9-0-3"
       inkscape:original-d="m 181.88087,150.92243 12.47414,-5.72498 3.53279,15.22359 -8.00346,2.6385 c -3.93737,-5.52685 -5.33565,-8.09141 -8.00347,-12.13711 z"
       sodipodi:nodetypes="ccccc"
       transform="matrix(1.0564926,-0.99174638,0.99174638,1.0564926,-189.79196,190.62659)" />
    <path
       style="fill:#ababab;fill-opacity:1;stroke:#2b3442;stroke-width:0;stroke-linecap:round;stroke-linejoin:round;paint-order:fill markers stroke"
       d="m 184.01849,149.94137 8.2272,-3.77585 a 1.8932575,1.8932575 26.141259 0 1 2.63396,1.29271 l 2.69814,11.62689 a 1.5013988,1.5013988 119.34467 0 1 -0.99246,1.7653 l -5.64526,1.86108 c -0.58306,0.19222 -1.34483,-0.0571 -1.69808,-0.5592 -2.82989,-4.02249 -4.27262,-6.42662 -6.08408,-9.26092 -0.69799,-1.09212 -0.31999,-2.40818 0.86058,-2.95001 z"
       id="path17-9-3-8-7"
       inkscape:path-effect="#path-effect17-2-0-6-7"
       inkscape:original-d="m 181.88087,150.92243 12.47414,-5.72498 3.53279,15.22359 -8.00346,2.6385 c -3.93737,-5.52685 -5.33565,-8.09141 -8.00347,-12.13711 z"
       sodipodi:nodetypes="ccccc"
       transform="matrix(1.4170157,-0.30299204,0.30299204,1.4170157,-140.01511,-14.961592)" />
    <path
       style="fill:#c6c6c6;fill-opacity:1;stroke:#2b3442;stroke-width:0;stroke-linecap:round;stroke-linejoin:round;paint-order:fill markers stroke"
       d="m 184.01849,149.94137 8.2272,-3.77585 a 1.8932575,1.8932575 26.141259 0 1 2.63396,1.29271 l 2.69814,11.62689 a 1.5013988,1.5013988 119.34467 0 1 -0.99246,1.7653 l -5.64526,1.86108 c -0.58306,0.19222 -1.34483,-0.0571 -1.69808,-0.5592 -2.82989,-4.02249 -4.27262,-6.42662 -6.08408,-9.26092 -0.69799,-1.09212 -0.31999,-2.40818 0.86058,-2.95001 z"
       id="path17-9-5-4-4-3"
       inkscape:path-effect="#path-effect17-2-9-0-0-8"
       inkscape:original-d="m 181.88087,150.92243 12.47414,-5.72498 3.53279,15.22359 -8.00346,2.6385 c -3.93737,-5.52685 -5.33565,-8.09141 -8.00347,-12.13711 z"
       sodipodi:nodetypes="ccccc"
       transform="matrix(1.3676154,0.47892156,-0.47892156,1.3676154,10.916104,-162.99161)" />
  </g>
</svg>
