<?xml version="1.0" encoding="UTF-8" standalone="no"?>
<!-- Created with Inkscape (http://www.inkscape.org/) -->

<svg
   width="2000.11"
   height="895.69"
   viewBox="0 0 529.1947 236.98398"
   version="1.1"
   id="svg1"
   inkscape:version="1.4.2 (f4327f4, 2025-05-13)"
   sodipodi:docname="CountDownContainerMaskFarAway.svg"
   xmlns:inkscape="http://www.inkscape.org/namespaces/inkscape"
   xmlns:sodipodi="http://sodipodi.sourceforge.net/DTD/sodipodi-0.dtd"
   xmlns="http://www.w3.org/2000/svg"
   xmlns:svg="http://www.w3.org/2000/svg">
  <sodipodi:namedview
     id="namedview1"
     pagecolor="#ffffff"
     bordercolor="#000000"
     borderopacity="0.25"
     inkscape:showpageshadow="2"
     inkscape:pageopacity="0.0"
     inkscape:pagecheckerboard="0"
     inkscape:deskcolor="#d1d1d1"
     inkscape:document-units="mm"
     inkscape:zoom="1.1357605"
     inkscape:cx="957.94844"
     inkscape:cy="469.72931"
     inkscape:window-width="3840"
     inkscape:window-height="2054"
     inkscape:window-x="-11"
     inkscape:window-y="-11"
     inkscape:window-maximized="1"
     inkscape:current-layer="layer1"
     showgrid="true">
    <inkscape:grid
       id="grid1"
       units="mm"
       originx="139"
       originy="10.68689"
       spacingx="0.99999999"
       spacingy="0.99999998"
       empcolor="#0099e5"
       empopacity="0.30196078"
       color="#0099e5"
       opacity="0.14901961"
       empspacing="5"
       enabled="true"
       visible="true" />
  </sodipodi:namedview>
  <defs
     id="defs1">
    <inkscape:path-effect
       effect="mirror_symmetry"
       start_point="77.199904,69.000027"
       end_point="77.199904,93.044622"
       center_point="77.199904,81.022324"
       id="path-effect2"
       is_visible="true"
       lpeversion="1.2"
       lpesatellites=""
       mode="free"
       discard_orig_path="false"
       fuse_paths="false"
       oposite_fuse="false"
       split_items="false"
       split_open="false"
       link_styles="false" />
    <inkscape:path-effect
       effect="fillet_chamfer"
       id="path-effect5"
       is_visible="true"
       lpeversion="1"
       nodesatellites_param="F,0,0,1,0,0,0,1 @ F,0,0,1,0,2.0496102,0,1 @ F,0,0,1,0,0,0,1"
       radius="0"
       unit="px"
       method="auto"
       mode="F"
       chamfer_steps="1"
       flexible="false"
       use_knot_distance="true"
       apply_no_radius="true"
       apply_with_radius="true"
       only_selected="false"
       hide_knots="false" />
    <inkscape:path-effect
       effect="fillet_chamfer"
       id="path-effect28"
       is_visible="true"
       lpeversion="1"
       nodesatellites_param="F,0,0,1,0,0,0,1 @ F,0,0,1,0,0,0,1 @ F,0,0,1,0,0,0,1 @ F,0,0,1,0,0,0,1 @ F,0,0,1,0,0,0,1 @ F,0,0,1,0,0,0,1 @ F,0,0,1,0,0,0,1 @ F,0,0,1,0,0,0,1 @ F,0,0,1,0,0,0,1 @ F,0,0,1,0,0,0,1 @ F,0,0,1,0,0,0,1 @ F,0,0,1,0,0,0,1 | F,0,0,1,0,0,0,1 @ F,0,0,1,0,0,0,1 @ F,0,0,1,0,0,0,1 @ F,0,0,1,0,0,0,1 @ F,0,0,1,0,0,0,1 @ F,0,0,1,0,0,0,1 @ F,0,0,1,0,0,0,1 @ F,0,0,1,0,0,0,1 @ F,0,0,1,0,0,0,1 @ F,0,0,1,0,0,0,1 @ F,0,0,1,0,0,0,1"
       radius="0"
       unit="px"
       method="auto"
       mode="F"
       chamfer_steps="1"
       flexible="false"
       use_knot_distance="true"
       apply_no_radius="true"
       apply_with_radius="true"
       only_selected="false"
       hide_knots="false" />
    <inkscape:path-effect
       effect="powerstroke"
       message=""
       id="path-effect4"
       is_visible="true"
       lpeversion="1.3"
       scale_width="1"
       interpolator_type="CentripetalCatmullRom"
       interpolator_beta="0.75"
       start_linecap_type="round"
       end_linecap_type="round"
       offset_points="10.839744,0.43679433"
       linejoin_type="spiro"
       miter_limit="4"
       not_jump="true"
       sort_points="true" />
    <inkscape:path-effect
       effect="simplify"
       id="path-effect3"
       is_visible="true"
       lpeversion="1.3"
       threshold="0.012"
       steps="1"
       smooth_angles="0"
       helper_size="0"
       simplify_individual_paths="false"
       simplify_just_coalesce="false"
       step="1" />
    <inkscape:path-effect
       effect="fillet_chamfer"
       id="path-effect5-4"
       is_visible="true"
       lpeversion="1"
       nodesatellites_param="F,0,0,1,0,0,0,1 @ F,0,0,1,0,2.0496102,0,1 @ F,0,0,1,0,0,0,1"
       radius="0"
       unit="px"
       method="auto"
       mode="F"
       chamfer_steps="1"
       flexible="false"
       use_knot_distance="true"
       apply_no_radius="true"
       apply_with_radius="true"
       only_selected="false"
       hide_knots="false" />
    <inkscape:path-effect
       effect="fillet_chamfer"
       id="path-effect5-4-5"
       is_visible="true"
       lpeversion="1"
       nodesatellites_param="F,0,0,1,0,0,0,1 @ F,0,0,1,0,2.0496102,0,1 @ F,0,0,1,0,0,0,1"
       radius="0"
       unit="px"
       method="auto"
       mode="F"
       chamfer_steps="1"
       flexible="false"
       use_knot_distance="true"
       apply_no_radius="true"
       apply_with_radius="true"
       only_selected="false"
       hide_knots="false" />
  </defs>
  <g
     inkscape:label="Ebene 1"
     inkscape:groupmode="layer"
     id="layer1"
     transform="translate(138.80001,10.686892)">
    <path
       d="M 119.05856,38.703256 C 85.131629,38.723574 53.261229,43.722115 26.361086,53.08994 -0.24474786,62.355273 -24.592567,76.010769 -37.617283,99.863199 l -1.605583,2.937801 c -3.417877,6.25546 -3.951854,14.01301 -1.4273,20.67931 a 15.022529,15.022529 0 0 0 0,0.002 c 2.521532,6.65526 6.065346,14.73263 8.679553,21.51543 a 15.022529,15.022529 0 0 0 0.802533,1.74046 c 0.14944,0.27643 0.373445,0.50513 0.5333,0.77566 a 15.022529,15.022529 0 0 0 0.06821,0.45682 l 1.187522,2.17557 a 15.022529,15.022529 0 0 0 0.0021,0.006 c 12.785423,23.41523 36.8116514,36.96611 63.330348,46.20121 26.772113,9.32334 58.546694,14.3116 92.380701,14.3319 a 15.022529,15.022529 0 0 0 0.006,0 c 0.005,1e-5 0.009,1e-5 0.014,0 0.004,1e-5 0.007,1e-5 0.0114,0 a 15.022529,15.022529 0 0 0 0.006,0 c 33.83401,-0.0203 65.60859,-5.00857 92.3807,-14.3319 26.51872,-9.2351 50.5444,-22.78602 63.32983,-46.20121 l 1.20354,-2.20347 a 15.022529,15.022529 0 0 0 0.002,-0.004 c 3.20792,-5.87788 3.67984,-13.02797 1.68775,-19.40652 a 15.022529,15.022529 0 0 0 0.0351,-0.35708 l -5.47665,-20.02922 c -0.50828,-1.85907 -1.23407,-3.66021 -2.15801,-5.3516 a 15.022529,15.022529 0 0 0 0,-0.002 l -1.60765,-2.941415 C 262.74148,76.01034 238.3964,62.354518 211.79273,53.08994 184.89257,43.722117 153.02269,38.723575 119.09577,38.703256 a 15.022529,15.022529 0 0 0 -0.006,0 c -0.004,-1e-6 -0.006,-1e-6 -0.01,0 h -0.002 c -0.005,-2e-6 -0.009,-2e-6 -0.0139,0 a 15.022529,15.022529 0 0 0 -0.006,0 z m 0.009,15.021269 c 0,0 5.1e-4,0 5.1e-4,0 a 9.7851486,9.7851486 0 0 1 0.006,0 h 0.004 0.002 a 9.7851486,9.7851486 0 0 1 0.006,0 c 32.43886,0.01943 62.80567,4.858246 87.76756,13.551078 24.88128,8.664766 45.42012,20.902452 55.7329,39.785077 l 1.60713,2.94141 a 9.7851486,9.7851486 0 0 1 0.85163,2.11149 l 5.47665,20.02922 -0.42168,-0.77152 a 9.7851486,9.7851486 0 0 1 0.002,9.37873 l -1.20354,2.20296 c -10.05257,18.41024 -30.31079,30.58719 -55.08591,39.21508 -24.83127,8.64744 -55.10631,13.47691 -87.45078,13.49631 a 9.7851486,9.7851486 0 0 1 -0.006,0 h -0.002 -0.004 a 9.7851486,9.7851486 0 0 1 -0.006,0 C 93.99941,195.64495 63.723858,190.8155 38.892591,182.16805 14.11749,173.54016 -6.1407627,161.36322 -16.19332,142.95297 a 9.7851486,9.7851486 0 0 1 0,-0.002 l -1.187521,-2.17609 0.609264,0.54105 a 9.7851486,9.7851486 0 0 1 -1.183388,-1.72082 c -2.798213,-7.26022 -6.374929,-15.43441 -8.648547,-21.43533 a 9.7851486,9.7851486 0 0 1 0.564306,-8.15814 l 1.605582,-2.93935 C -14.12185,88.178578 6.4185329,75.940722 31.300824,67.275603 56.262558,58.582819 86.62919,53.744005 119.06787,53.724525 Z"
       style="baseline-shift:baseline;display:inline;overflow:visible;vector-effect:none;fill:#a091a9;stroke-linecap:round;paint-order:fill markers stroke;enable-background:accumulate;stop-color:#000000"
       id="path2" />
  </g>
</svg>
