<?xml version="1.0" encoding="UTF-8" standalone="no"?>
<!-- Created with Inkscape (http://www.inkscape.org/) -->

<svg
   width="25.61657mm"
   height="51.81509mm"
   viewBox="0 0 25.61657 51.81509"
   version="1.1"
   id="svg1"
   inkscape:version="1.4.2 (f4327f4, 2025-05-13)"
   sodipodi:docname="StadiumGoal.svg"
   xmlns:inkscape="http://www.inkscape.org/namespaces/inkscape"
   xmlns:sodipodi="http://sodipodi.sourceforge.net/DTD/sodipodi-0.dtd"
   xmlns="http://www.w3.org/2000/svg"
   xmlns:svg="http://www.w3.org/2000/svg">
  <sodipodi:namedview
     id="namedview1"
     pagecolor="#ffffff"
     bordercolor="#000000"
     borderopacity="0.25"
     inkscape:showpageshadow="2"
     inkscape:pageopacity="0.0"
     inkscape:pagecheckerboard="0"
     inkscape:deskcolor="#d1d1d1"
     inkscape:document-units="mm"
     inkscape:zoom="1.6275884"
     inkscape:cx="124.41721"
     inkscape:cy="8.2944804"
     inkscape:window-width="3840"
     inkscape:window-height="2054"
     inkscape:window-x="-11"
     inkscape:window-y="-11"
     inkscape:window-maximized="1"
     inkscape:current-layer="layer1" />
  <defs
     id="defs1">
    <inkscape:path-effect
       effect="fillet_chamfer"
       id="path-effect276"
       is_visible="true"
       lpeversion="1"
       nodesatellites_param="F,0,0,1,0,0,0,1 @ F,0,0,1,0,3.5025993,0,1 @ F,0,0,1,0,3.1552327,0,1 @ F,0,0,1,0,0,0,1"
       radius="0"
       unit="px"
       method="auto"
       mode="F"
       chamfer_steps="1"
       flexible="false"
       use_knot_distance="true"
       apply_no_radius="true"
       apply_with_radius="true"
       only_selected="false"
       hide_knots="false" />
  </defs>
  <g
     inkscape:label="Ebene 1"
     inkscape:groupmode="layer"
     id="layer1"
     transform="translate(-71.966665,-146.31458)">
    <path
       style="fill:#000000;fill-opacity:0;stroke:#000000;stroke-width:3.09143;stroke-linecap:round;stroke-linejoin:round;stroke-dasharray:none;stroke-opacity:1;paint-order:fill markers stroke"
       d="m 73.51238,154.34205 h 22.52514 v 42.2419 H 73.51238"
       id="path12" />
    <path
       style="fill:#f2ecdd;fill-opacity:0;stroke:#535353;stroke-width:0.862;stroke-linecap:square;stroke-linejoin:round;stroke-dasharray:none;stroke-opacity:1;paint-order:fill markers stroke"
       d="m 296.75697,183.42239 h 17.33964 c 1.93443,0 3.52292,-1.56804 3.54795,-3.50231 0.10534,-8.13865 0.36502,-28.22552 0.46289,-36.01664 0.0219,-1.74244 -1.37449,-3.15167 -3.11707,-3.1476 l -18.04108,0.0422"
       id="path276"
       sodipodi:nodetypes="cccc"
       inkscape:path-effect="#path-effect276"
       inkscape:original-d="m 296.75697,183.42239 h 20.84224 c 0,0 0.54639,-42.1589 0.54639,-42.67393 l -21.1963,0.0496"
       transform="translate(-221.79094,6.129663)" />
    <path
       d="m 74.87451,189.59184 c -0.86873,-4e-5 -1.57186,0.67895 -1.56778,1.51395 l 0.0275,5.80588 h 22.023 l 0.97705,0.0108 c 0,-0.25828 0,-5.05246 0,-5.05246 2.5e-4,-1.25811 -1.06073,-2.27814 -2.36963,-2.2782 z m 0.17463,0.85385 c 0.17755,0 0.82599,0.6233 0.82599,0.79395 0,0.17067 -0.64844,0.79394 -0.82599,0.79394 -0.17755,0 -0.82601,-0.62327 -0.82601,-0.79394 0,-0.17065 0.64845,-0.79395 0.82601,-0.79395 z m 2.7672,0 c 0.17755,0 0.82599,0.6233 0.82599,0.79395 0,0.17067 -0.64844,0.79394 -0.82599,0.79394 -0.17756,0 -0.82601,-0.62327 -0.82601,-0.79394 0,-0.17065 0.64843,-0.79395 0.82601,-0.79395 z m 3.02716,0.0755 c 0.17755,0 0.82601,0.62328 0.82601,0.79394 0,0.17067 -0.64846,0.79394 -0.82601,0.79394 -0.17755,0 -0.826,-0.62327 -0.826,-0.79394 0,-0.17066 0.64844,-0.79394 0.826,-0.79394 z m 2.7672,0 c 0.17755,0 0.826,0.62328 0.826,0.79394 0,0.17067 -0.64845,0.79394 -0.826,0.79394 -0.17755,0 -0.82601,-0.62327 -0.82601,-0.79394 0,-0.17066 0.64845,-0.79394 0.82601,-0.79394 z m 3.02716,0.0777 c 0.17756,0 0.82601,0.62328 0.82601,0.79394 0,0.17066 -0.64845,0.79395 -0.82601,0.79395 -0.17755,0 -0.82599,-0.62329 -0.82599,-0.79395 0,-0.17066 0.64843,-0.79394 0.82599,-0.79394 z m 2.7672,0 c 0.17755,0 0.82601,0.62328 0.82601,0.79394 0,0.17066 -0.64846,0.79395 -0.82601,0.79395 -0.17755,0 -0.82599,-0.62329 -0.82599,-0.79395 0,-0.17066 0.64843,-0.79394 0.82599,-0.79394 z m 2.83906,0 c 0.17755,0 0.82601,0.62328 0.82601,0.79394 0,0.17066 -0.64846,0.79395 -0.82601,0.79395 -0.17755,0 -0.82599,-0.62329 -0.82599,-0.79395 0,-0.17066 0.64843,-0.79394 0.82599,-0.79394 z m -15.89793,1.0699 c 0.17756,0 0.82601,0.6233 0.82601,0.79395 0,0.17067 -0.64845,0.79394 -0.82601,0.79394 -0.17755,0 -0.82599,-0.62327 -0.82599,-0.79394 0,-0.17065 0.64843,-0.79395 0.82599,-0.79395 z m 3.02718,0.0755 c 0.17755,0 0.82599,0.62328 0.82599,0.79394 0,0.17067 -0.64844,0.79394 -0.82599,0.79394 -0.17755,0 -0.82601,-0.62327 -0.82601,-0.79394 0,-0.17066 0.64845,-0.79394 0.82601,-0.79394 z m 2.76719,0 c 0.17756,0 0.826,0.62328 0.826,0.79394 0,0.17067 -0.64844,0.79394 -0.826,0.79394 -0.17756,0 -0.826,-0.62327 -0.826,-0.79394 0,-0.17066 0.64843,-0.79394 0.826,-0.79394 z m 3.02717,0.0777 c 0.17755,0 0.826,0.62329 0.826,0.79395 0,0.17066 -0.64845,0.79394 -0.826,0.79394 -0.17755,0 -0.82601,-0.62328 -0.82601,-0.79394 0,-0.17066 0.64845,-0.79395 0.82601,-0.79395 z m 2.7672,0 c 0.17755,0 0.826,0.62329 0.826,0.79395 0,0.17066 -0.64845,0.79394 -0.826,0.79394 -0.17755,0 -0.82601,-0.62328 -0.82601,-0.79394 0,-0.17066 0.64845,-0.79395 0.82601,-0.79395 z m 2.83906,0 c 0.17755,0 0.82601,0.62329 0.82601,0.79395 0,0.17066 -0.64846,0.79394 -0.82601,0.79394 -0.17755,0 -0.826,-0.62328 -0.826,-0.79394 0,-0.17066 0.64844,-0.79395 0.826,-0.79395 z m -15.7433,1.01616 c 0.17756,0 0.82601,0.62328 0.82601,0.79393 0,0.17068 -0.64845,0.79395 -0.82601,0.79395 -0.17755,0 -0.82599,-0.62327 -0.82599,-0.79395 0,-0.17065 0.64843,-0.79393 0.82599,-0.79393 z m 2.7672,0 c 0.17755,0 0.82601,0.62328 0.82601,0.79393 0,0.17068 -0.64846,0.79395 -0.82601,0.79395 -0.17755,0 -0.82599,-0.62327 -0.82599,-0.79395 0,-0.17065 0.64843,-0.79393 0.82599,-0.79393 z m 3.02718,0.0755 c 0.17755,0 0.82599,0.62328 0.82599,0.79394 0,0.17068 -0.64844,0.79394 -0.82599,0.79394 -0.17757,0 -0.82601,-0.62326 -0.82601,-0.79394 0,-0.17066 0.64843,-0.79394 0.82601,-0.79394 z m 2.76718,0 c 0.17756,0 0.82601,0.62328 0.82601,0.79394 0,0.17068 -0.64845,0.79394 -0.82601,0.79394 -0.17755,0 -0.82599,-0.62326 -0.82599,-0.79394 0,-0.17066 0.64843,-0.79394 0.82599,-0.79394 z m 3.02718,0.0777 c 0.17755,0 0.82599,0.62328 0.82599,0.79394 0,0.17066 -0.64844,0.79394 -0.82599,0.79394 -0.17755,0 -0.82601,-0.62328 -0.82601,-0.79394 0,-0.17066 0.64845,-0.79394 0.82601,-0.79394 z m 2.7672,0 c 0.17755,0 0.82599,0.62328 0.82599,0.79394 0,0.17066 -0.64844,0.79394 -0.82599,0.79394 -0.17757,0 -0.82601,-0.62328 -0.82601,-0.79394 0,-0.17066 0.64843,-0.79394 0.82601,-0.79394 z m 2.83906,0 c 0.17755,0 0.82599,0.62328 0.82599,0.79394 0,0.17066 -0.64844,0.79394 -0.82599,0.79394 -0.17756,0 -0.82601,-0.62328 -0.82601,-0.79394 0,-0.17066 0.64845,-0.79394 0.82601,-0.79394 z m -15.89793,1.06991 c 0.17755,0 0.826,0.62328 0.826,0.79393 0,0.17067 -0.64845,0.79395 -0.826,0.79395 -0.17755,0 -0.82601,-0.62328 -0.82601,-0.79395 0,-0.17065 0.64845,-0.79393 0.82601,-0.79393 z m 3.02716,0.0755 c 0.17756,0 0.82601,0.62328 0.82601,0.79394 0,0.17067 -0.64845,0.79394 -0.82601,0.79394 -0.17755,0 -0.82599,-0.62327 -0.82599,-0.79394 0,-0.17066 0.64843,-0.79394 0.82599,-0.79394 z m 2.7672,0 c 0.17755,0 0.82601,0.62328 0.82601,0.79394 0,0.17067 -0.64846,0.79394 -0.82601,0.79394 -0.17755,0 -0.826,-0.62327 -0.826,-0.79394 0,-0.17066 0.64844,-0.79394 0.826,-0.79394 z m 3.02717,0.0777 c 0.17755,0 0.826,0.62327 0.826,0.79393 0,0.17066 -0.64845,0.79395 -0.826,0.79395 -0.17756,0 -0.826,-0.62329 -0.826,-0.79395 0,-0.17066 0.64843,-0.79393 0.826,-0.79393 z m 2.76719,0 c 0.17756,0 0.82601,0.62327 0.82601,0.79393 0,0.17066 -0.64845,0.79395 -0.82601,0.79395 -0.17755,0 -0.82599,-0.62329 -0.82599,-0.79395 0,-0.17066 0.64843,-0.79393 0.82599,-0.79393 z m 2.83907,0 c 0.17756,0 0.826,0.62327 0.826,0.79393 0,0.17066 -0.64844,0.79395 -0.826,0.79395 -0.17755,0 -0.826,-0.62329 -0.826,-0.79395 0,-0.17066 0.64843,-0.79393 0.826,-0.79393 z m -12.98156,0.85589 c 0.17757,0 0.82601,0.62328 0.82601,0.79393 0,0.17067 -0.64844,0.79395 -0.82601,0.79395 -0.17755,0 -0.82599,-0.62328 -0.82599,-0.79395 0,-0.17065 0.64843,-0.79393 0.82599,-0.79393 z m 3.02718,0.0755 c 0.17755,0 0.82599,0.62327 0.82599,0.79394 0,0.17068 -0.64844,0.79394 -0.82599,0.79394 -0.17755,0 -0.82601,-0.62326 -0.82601,-0.79394 0,-0.17067 0.64845,-0.79394 0.82601,-0.79394 z m 2.7672,0 c 0.17755,0 0.82599,0.62327 0.82599,0.79394 0,0.17068 -0.64844,0.79394 -0.82599,0.79394 -0.17756,0 -0.82601,-0.62326 -0.82601,-0.79394 0,-0.17067 0.64844,-0.79394 0.82601,-0.79394 z m 3.02716,0.0777 c 0.17755,0 0.82601,0.62329 0.82601,0.79395 0,0.17066 -0.64846,0.79394 -0.82601,0.79394 -0.17755,0 -0.826,-0.62328 -0.826,-0.79394 0,-0.17066 0.64844,-0.79395 0.826,-0.79395 z m 2.7672,0 c 0.17755,0 0.82599,0.62329 0.82599,0.79395 0,0.17066 -0.64844,0.79394 -0.82599,0.79394 -0.17755,0 -0.82601,-0.62328 -0.82601,-0.79394 0,-0.17066 0.64845,-0.79395 0.82601,-0.79395 z m 2.83906,0 c 0.17755,0 0.82601,0.62329 0.82601,0.79395 0,0.17066 -0.64846,0.79394 -0.82601,0.79394 -0.17755,0 -0.826,-0.62328 -0.826,-0.79394 0,-0.17066 0.64844,-0.79395 0.826,-0.79395 z M 75.01605,195.0716 c 0.17755,0 0.826,0.62329 0.826,0.79394 0,0.17068 -0.64845,0.79395 -0.826,0.79395 -0.17755,0 -0.826,-0.62327 -0.826,-0.79395 0,-0.17065 0.64844,-0.79394 0.826,-0.79394 z m 20.06023,-4.50462 c 0.17755,0 0.826,0.62328 0.826,0.79395 0,0.17066 -0.64845,0.79394 -0.826,0.79394 -0.17756,0 -0.826,-0.62328 -0.826,-0.79394 0,-0.17067 0.64844,-0.79395 0.826,-0.79395 z m -1.47014,1.22313 c 0.17756,0 0.826,0.62328 0.826,0.79394 0,0.17066 -0.64844,0.79395 -0.826,0.79395 -0.17755,0 -0.826,-0.62329 -0.826,-0.79395 0,-0.17066 0.64844,-0.79394 0.826,-0.79394 z m 1.4517,1.16937 c 0.17755,0 0.826,0.62328 0.826,0.79394 0,0.17066 -0.64845,0.79395 -0.826,0.79395 -0.17755,0 -0.826,-0.62329 -0.826,-0.79395 0,-0.17066 0.64844,-0.79394 0.826,-0.79394 z m -1.47014,1.22312 c 0.17756,0 0.82601,0.62328 0.82601,0.79395 0,0.17066 -0.64845,0.79393 -0.82601,0.79393 -0.17755,0 -0.826,-0.62327 -0.826,-0.79393 0,-0.17067 0.64844,-0.79395 0.826,-0.79395 z m 1.44624,1.00911 c 0.17756,0 0.82601,0.62328 0.82601,0.79394 0,0.17066 -0.64845,0.79395 -0.82601,0.79395 -0.17755,0 -0.82599,-0.62329 -0.82599,-0.79395 0,-0.17066 0.64843,-0.79394 0.82599,-0.79394 z m -18.63325,0.92897 c 0.17755,0 0.826,0.62329 0.826,0.79394 0,0.17067 -1.652,0.17067 -1.652,0 0,-0.17065 0.64844,-0.79394 0.826,-0.79394 z m 2.7672,0 c 0.17755,0 0.82599,0.62329 0.82599,0.79394 0,0.17067 -1.652,0.17067 -1.652,0 0,-0.17065 0.64844,-0.79394 0.82601,-0.79394 z m 3.02716,0.0755 c 0.17755,0 0.82601,0.62329 0.82601,0.79395 0,0.17067 -1.652,0.17067 -1.652,0 0,-0.17066 0.64843,-0.79395 0.82599,-0.79395 z m 2.7672,0 c 0.17755,0 0.82601,0.62329 0.82601,0.79395 0,0.17067 -1.65201,0.17067 -1.65201,0 0,-0.17066 0.64844,-0.79395 0.826,-0.79395 z m 3.02717,0.0777 c 0.17756,0 0.826,0.62327 0.826,0.79393 0,0.17067 -1.652,0.17067 -1.652,0 0,-0.17066 0.64843,-0.79393 0.826,-0.79393 z m 2.76719,0 c 0.17755,0 0.82601,0.62327 0.82601,0.79393 0,0.17067 -1.652,0.17067 -1.652,0 0,-0.17066 0.64843,-0.79393 0.82599,-0.79393 z m 2.83907,0 c 0.17755,0 0.826,0.62327 0.826,0.79393 0,0.17067 -1.652,0.17067 -1.652,0 0,-0.17066 0.64844,-0.79393 0.826,-0.79393 z m -17.11046,-7.00861 c 0.0867,0 0.28595,0.14881 0.46698,0.32092 0.18945,0.18011 0.35902,0.38576 0.35902,0.47302 0,0.17068 -0.64845,0.79395 -0.826,0.79395 -0.17756,0 -0.826,-0.62327 -0.826,-0.79395 0,-0.0874 0.16982,-0.29319 0.35942,-0.4734 0.18092,-0.17195 0.37988,-0.32054 0.46658,-0.32054 z m 3.02717,0.0755 c 0.17755,0 0.826,0.62329 0.826,0.79395 0,0.17067 -0.64845,0.79394 -0.826,0.79394 -0.17755,0 -0.826,-0.62327 -0.826,-0.79394 0,-0.17066 0.64843,-0.79395 0.826,-0.79395 z m 2.76719,0 c 0.17755,0 0.82601,0.62329 0.82601,0.79395 0,0.17067 -0.64846,0.79394 -0.82601,0.79394 -0.17755,0 -0.826,-0.62327 -0.826,-0.79394 0,-0.17066 0.64844,-0.79395 0.826,-0.79395 z m 3.02717,0.0777 c 0.17756,0 0.826,0.62329 0.826,0.79395 0,0.17066 -0.64844,0.79394 -0.826,0.79394 -0.17755,0 -0.826,-0.62328 -0.826,-0.79394 0,-0.17066 0.64844,-0.79395 0.826,-0.79395 z m 2.7672,0 c 0.17755,0 0.826,0.62329 0.826,0.79395 0,0.17066 -0.64845,0.79394 -0.826,0.79394 -0.17755,0 -0.826,-0.62328 -0.826,-0.79394 0,-0.17066 0.64843,-0.79395 0.826,-0.79395 z m 2.83906,0 c 0.17755,0 0.826,0.62329 0.826,0.79395 0,0.17066 -0.64845,0.79394 -0.826,0.79394 -0.17755,0 -0.826,-0.62328 -0.826,-0.79394 0,-0.17066 0.64844,-0.79395 0.826,-0.79395 z m 2.83216,-0.0318 c 0.17755,0 0.82599,0.62327 0.82599,0.79394 0,0.17066 -0.64844,0.79394 -0.82599,0.79394 -0.17755,0 -0.82601,-0.62328 -0.82601,-0.79394 0,-0.17067 0.64845,-0.79394 0.82601,-0.79394 z"
       style="fill:#f2ecdd;stroke:#959595;stroke-width:0;stroke-linecap:round;stroke-linejoin:round;paint-order:fill markers stroke"
       id="path19-2"
       sodipodi:nodetypes="ccccccccsssssssssssssssssssssssssssssssssssssssssssssssssssssssssssssssssssssssssssssssssssssssssssssssssssssssssssssssssssssssssssssssssssssssssssssssssssssssssssssssssssssssssssssssssssssssssssssssssssssssssssssssssssssssssssssssssssssssssssssssssssssssssssssss" />
    <path
       d="m 74.87453,146.93997 c -0.86873,-4e-5 -1.57186,0.65836 -1.56778,1.46803 l 0.0275,5.62981 h 22.023 l 0.97705,0.0105 c 0,-0.25045 0,-4.89923 0,-4.89923 2.5e-4,-1.21996 -1.06073,-2.20905 -2.36963,-2.20912 z m 0.17463,0.82796 c 0.17755,0 0.82599,0.60439 0.82599,0.76987 0,0.16549 -0.64844,0.76986 -0.82599,0.76986 -0.17755,0 -0.82601,-0.60437 -0.82601,-0.76986 0,-0.16548 0.64845,-0.76987 0.82601,-0.76987 z m 2.7672,0 c 0.17755,0 0.82599,0.60439 0.82599,0.76987 0,0.16549 -0.64844,0.76986 -0.82599,0.76986 -0.17756,0 -0.82601,-0.60437 -0.82601,-0.76986 0,-0.16548 0.64843,-0.76987 0.82601,-0.76987 z m 3.02716,0.0732 c 0.17755,0 0.82601,0.60438 0.82601,0.76987 0,0.1655 -0.64846,0.76986 -0.82601,0.76986 -0.17755,0 -0.826,-0.60436 -0.826,-0.76986 0,-0.16549 0.64844,-0.76987 0.826,-0.76987 z m 2.7672,0 c 0.17755,0 0.826,0.60438 0.826,0.76987 0,0.1655 -0.64845,0.76986 -0.826,0.76986 -0.17755,0 -0.82601,-0.60436 -0.82601,-0.76986 0,-0.16549 0.64845,-0.76987 0.82601,-0.76987 z m 3.02716,0.0753 c 0.17756,0 0.82601,0.60438 0.82601,0.76986 0,0.16549 -0.64845,0.76987 -0.82601,0.76987 -0.17755,0 -0.82599,-0.60438 -0.82599,-0.76987 0,-0.16548 0.64843,-0.76986 0.82599,-0.76986 z m 2.7672,0 c 0.17755,0 0.82601,0.60438 0.82601,0.76986 0,0.16549 -0.64846,0.76987 -0.82601,0.76987 -0.17755,0 -0.82599,-0.60438 -0.82599,-0.76987 0,-0.16548 0.64843,-0.76986 0.82599,-0.76986 z m 2.83906,0 c 0.17755,0 0.82601,0.60438 0.82601,0.76986 0,0.16549 -0.64846,0.76987 -0.82601,0.76987 -0.17755,0 -0.82599,-0.60438 -0.82599,-0.76987 0,-0.16548 0.64843,-0.76986 0.82599,-0.76986 z m -15.89793,1.03746 c 0.17756,0 0.82601,0.60439 0.82601,0.76987 0,0.16549 -0.64845,0.76986 -0.82601,0.76986 -0.17755,0 -0.82599,-0.60437 -0.82599,-0.76986 0,-0.16548 0.64843,-0.76987 0.82599,-0.76987 z m 3.02718,0.0732 c 0.17755,0 0.82599,0.60438 0.82599,0.76987 0,0.16549 -0.64844,0.76986 -0.82599,0.76986 -0.17755,0 -0.82601,-0.60437 -0.82601,-0.76986 0,-0.16549 0.64845,-0.76987 0.82601,-0.76987 z m 2.76719,0 c 0.17756,0 0.826,0.60438 0.826,0.76987 0,0.16549 -0.64844,0.76986 -0.826,0.76986 -0.17756,0 -0.826,-0.60437 -0.826,-0.76986 0,-0.16549 0.64843,-0.76987 0.826,-0.76987 z m 3.02717,0.0753 c 0.17755,0 0.826,0.60438 0.826,0.76987 0,0.16549 -0.64845,0.76986 -0.826,0.76986 -0.17755,0 -0.82601,-0.60437 -0.82601,-0.76986 0,-0.16549 0.64845,-0.76987 0.82601,-0.76987 z m 2.7672,0 c 0.17755,0 0.826,0.60438 0.826,0.76987 0,0.16549 -0.64845,0.76986 -0.826,0.76986 -0.17755,0 -0.82601,-0.60437 -0.82601,-0.76986 0,-0.16549 0.64845,-0.76987 0.82601,-0.76987 z m 2.83906,0 c 0.17755,0 0.82601,0.60438 0.82601,0.76987 0,0.16549 -0.64846,0.76986 -0.82601,0.76986 -0.17755,0 -0.826,-0.60437 -0.826,-0.76986 0,-0.16549 0.64844,-0.76987 0.826,-0.76987 z m -15.7433,0.98534 c 0.17756,0 0.82601,0.60438 0.82601,0.76986 0,0.1655 -0.64845,0.76987 -0.82601,0.76987 -0.17755,0 -0.82599,-0.60437 -0.82599,-0.76987 0,-0.16548 0.64843,-0.76986 0.82599,-0.76986 z m 2.7672,0 c 0.17755,0 0.82601,0.60438 0.82601,0.76986 0,0.1655 -0.64846,0.76987 -0.82601,0.76987 -0.17755,0 -0.82599,-0.60437 -0.82599,-0.76987 0,-0.16548 0.64843,-0.76986 0.82599,-0.76986 z m 3.02718,0.0732 c 0.17755,0 0.82599,0.60437 0.82599,0.76986 0,0.1655 -0.64844,0.76987 -0.82599,0.76987 -0.17757,0 -0.82601,-0.60437 -0.82601,-0.76987 0,-0.16549 0.64843,-0.76986 0.82601,-0.76986 z m 2.76718,0 c 0.17756,0 0.82601,0.60437 0.82601,0.76986 0,0.1655 -0.64845,0.76987 -0.82601,0.76987 -0.17755,0 -0.82599,-0.60437 -0.82599,-0.76987 0,-0.16549 0.64843,-0.76986 0.82599,-0.76986 z m 3.02718,0.0753 c 0.17755,0 0.82599,0.60439 0.82599,0.76987 0,0.16549 -0.64844,0.76986 -0.82599,0.76986 -0.17755,0 -0.82601,-0.60437 -0.82601,-0.76986 0,-0.16548 0.64845,-0.76987 0.82601,-0.76987 z m 2.7672,0 c 0.17755,0 0.82599,0.60439 0.82599,0.76987 0,0.16549 -0.64844,0.76986 -0.82599,0.76986 -0.17757,0 -0.82601,-0.60437 -0.82601,-0.76986 0,-0.16548 0.64843,-0.76987 0.82601,-0.76987 z m 2.83906,0 c 0.17755,0 0.82599,0.60439 0.82599,0.76987 0,0.16549 -0.64844,0.76986 -0.82599,0.76986 -0.17756,0 -0.82601,-0.60437 -0.82601,-0.76986 0,-0.16548 0.64845,-0.76987 0.82601,-0.76987 z m -15.89793,1.03746 c 0.17755,0 0.826,0.60439 0.826,0.76986 0,0.1655 -0.64845,0.76987 -0.826,0.76987 -0.17755,0 -0.82601,-0.60437 -0.82601,-0.76987 0,-0.16547 0.64845,-0.76986 0.82601,-0.76986 z m 3.02716,0.0732 c 0.17756,0 0.82601,0.60437 0.82601,0.76986 0,0.16549 -0.64845,0.76987 -0.82601,0.76987 -0.17755,0 -0.82599,-0.60438 -0.82599,-0.76987 0,-0.16549 0.64843,-0.76986 0.82599,-0.76986 z m 2.7672,0 c 0.17755,0 0.82601,0.60437 0.82601,0.76986 0,0.16549 -0.64846,0.76987 -0.82601,0.76987 -0.17755,0 -0.826,-0.60438 -0.826,-0.76987 0,-0.16549 0.64844,-0.76986 0.826,-0.76986 z m 3.02717,0.0753 c 0.17755,0 0.826,0.60437 0.826,0.76986 0,0.16548 -0.64845,0.76987 -0.826,0.76987 -0.17756,0 -0.826,-0.60439 -0.826,-0.76987 0,-0.16549 0.64843,-0.76986 0.826,-0.76986 z m 2.76719,0 c 0.17756,0 0.82601,0.60437 0.82601,0.76986 0,0.16548 -0.64845,0.76987 -0.82601,0.76987 -0.17755,0 -0.82599,-0.60439 -0.82599,-0.76987 0,-0.16549 0.64843,-0.76986 0.82599,-0.76986 z m 2.83907,0 c 0.17756,0 0.826,0.60437 0.826,0.76986 0,0.16548 -0.64844,0.76987 -0.826,0.76987 -0.17755,0 -0.826,-0.60439 -0.826,-0.76987 0,-0.16549 0.64843,-0.76986 0.826,-0.76986 z m -12.98156,0.82993 c 0.17757,0 0.82601,0.60439 0.82601,0.76986 0,0.1655 -0.64844,0.76987 -0.82601,0.76987 -0.17755,0 -0.82599,-0.60437 -0.82599,-0.76987 0,-0.16547 0.64843,-0.76986 0.82599,-0.76986 z m 3.02718,0.0732 c 0.17755,0 0.82599,0.60437 0.82599,0.76986 0,0.1655 -0.64844,0.76987 -0.82599,0.76987 -0.17755,0 -0.82601,-0.60437 -0.82601,-0.76987 0,-0.16549 0.64845,-0.76986 0.82601,-0.76986 z m 2.7672,0 c 0.17755,0 0.82599,0.60437 0.82599,0.76986 0,0.1655 -0.64844,0.76987 -0.82599,0.76987 -0.17756,0 -0.82601,-0.60437 -0.82601,-0.76987 0,-0.16549 0.64844,-0.76986 0.82601,-0.76986 z m 3.02716,0.0753 c 0.17755,0 0.82601,0.60438 0.82601,0.76987 0,0.16548 -0.64846,0.76986 -0.82601,0.76986 -0.17755,0 -0.826,-0.60438 -0.826,-0.76986 0,-0.16549 0.64844,-0.76987 0.826,-0.76987 z m 2.7672,0 c 0.17755,0 0.82599,0.60438 0.82599,0.76987 0,0.16548 -0.64844,0.76986 -0.82599,0.76986 -0.17755,0 -0.82601,-0.60438 -0.82601,-0.76986 0,-0.16549 0.64845,-0.76987 0.82601,-0.76987 z m 2.83906,0 c 0.17755,0 0.82601,0.60438 0.82601,0.76987 0,0.16548 -0.64846,0.76986 -0.82601,0.76986 -0.17755,0 -0.826,-0.60438 -0.826,-0.76986 0,-0.16549 0.64844,-0.76987 0.826,-0.76987 z m -17.18574,-0.14735 c 0.17755,0 0.826,0.60438 0.826,0.76986 0,0.1655 -0.64845,0.76987 -0.826,0.76987 -0.17755,0 -0.826,-0.60437 -0.826,-0.76987 0,-0.16548 0.64844,-0.76986 0.826,-0.76986 z m 20.06023,-4.36801 c 0.17755,0 0.826,0.60438 0.826,0.76987 0,0.16549 -0.64845,0.76986 -0.826,0.76986 -0.17756,0 -0.826,-0.60437 -0.826,-0.76986 0,-0.16549 0.64844,-0.76987 0.826,-0.76987 z m -1.47014,1.18604 c 0.17756,0 0.826,0.60437 0.826,0.76986 0,0.16548 -0.64844,0.76987 -0.826,0.76987 -0.17755,0 -0.826,-0.60439 -0.826,-0.76987 0,-0.16549 0.64844,-0.76986 0.826,-0.76986 z m 1.4517,1.1339 c 0.17755,0 0.826,0.60438 0.826,0.76987 0,0.16548 -0.64845,0.76986 -0.826,0.76986 -0.17755,0 -0.826,-0.60438 -0.826,-0.76986 0,-0.16549 0.64844,-0.76987 0.826,-0.76987 z m -1.47014,1.18603 c 0.17756,0 0.82601,0.60438 0.82601,0.76987 0,0.16548 -0.64845,0.76986 -0.82601,0.76986 -0.17755,0 -0.826,-0.60438 -0.826,-0.76986 0,-0.16549 0.64844,-0.76987 0.826,-0.76987 z m 1.44624,0.97851 c 0.17756,0 0.82601,0.60438 0.82601,0.76986 0,0.16549 -0.64845,0.76987 -0.82601,0.76987 -0.17755,0 -0.82599,-0.60438 -0.82599,-0.76987 0,-0.16548 0.64843,-0.76986 0.82599,-0.76986 z m -18.63325,0.90079 c 0.17755,0 0.826,0.60439 0.826,0.76987 0,0.1655 -1.652,0.1655 -1.652,0 0,-0.16548 0.64844,-0.76987 0.826,-0.76987 z m 2.7672,0 c 0.17755,0 0.82599,0.60439 0.82599,0.76987 0,0.1655 -1.652,0.1655 -1.652,0 0,-0.16548 0.64844,-0.76987 0.82601,-0.76987 z m 3.02716,0.0732 c 0.17755,0 0.82601,0.60439 0.82601,0.76987 0,0.1655 -1.652,0.1655 -1.652,0 0,-0.16548 0.64843,-0.76987 0.82599,-0.76987 z m 2.7672,0 c 0.17755,0 0.82601,0.60439 0.82601,0.76987 0,0.1655 -1.65201,0.1655 -1.65201,0 0,-0.16548 0.64844,-0.76987 0.826,-0.76987 z m 3.02717,0.0753 c 0.17756,0 0.826,0.60437 0.826,0.76986 0,0.16548 -1.652,0.16548 -1.652,0 0,-0.16549 0.64843,-0.76986 0.826,-0.76986 z m 2.76719,0 c 0.17755,0 0.82601,0.60437 0.82601,0.76986 0,0.16548 -1.652,0.16548 -1.652,0 0,-0.16549 0.64843,-0.76986 0.82599,-0.76986 z m 2.83907,0 c 0.17755,0 0.826,0.60437 0.826,0.76986 0,0.16548 -1.652,0.16548 -1.652,0 0,-0.16549 0.64844,-0.76986 0.826,-0.76986 z m -17.11046,-6.79606 c 0.0867,0 0.28595,0.1443 0.46698,0.31119 0.18945,0.17465 0.35902,0.37406 0.35902,0.45867 0,0.1655 -0.64845,0.76987 -0.826,0.76987 -0.17756,0 -0.826,-0.60437 -0.826,-0.76987 0,-0.0847 0.16982,-0.2843 0.35942,-0.45905 0.18092,-0.16673 0.37988,-0.31081 0.46658,-0.31081 z m 3.02717,0.0732 c 0.17755,0 0.826,0.60439 0.826,0.76987 0,0.1655 -0.64845,0.76986 -0.826,0.76986 -0.17755,0 -0.826,-0.60436 -0.826,-0.76986 0,-0.16548 0.64843,-0.76987 0.826,-0.76987 z m 2.76719,0 c 0.17755,0 0.82601,0.60439 0.82601,0.76987 0,0.1655 -0.64846,0.76986 -0.82601,0.76986 -0.17755,0 -0.826,-0.60436 -0.826,-0.76986 0,-0.16548 0.64844,-0.76987 0.826,-0.76987 z m 3.02717,0.0753 c 0.17756,0 0.826,0.60439 0.826,0.76987 0,0.16549 -0.64844,0.76986 -0.826,0.76986 -0.17755,0 -0.826,-0.60437 -0.826,-0.76986 0,-0.16548 0.64844,-0.76987 0.826,-0.76987 z m 2.7672,0 c 0.17755,0 0.826,0.60439 0.826,0.76987 0,0.16549 -0.64845,0.76986 -0.826,0.76986 -0.17755,0 -0.826,-0.60437 -0.826,-0.76986 0,-0.16548 0.64843,-0.76987 0.826,-0.76987 z m 2.83906,0 c 0.17755,0 0.826,0.60439 0.826,0.76987 0,0.16549 -0.64845,0.76986 -0.826,0.76986 -0.17755,0 -0.826,-0.60437 -0.826,-0.76986 0,-0.16548 0.64844,-0.76987 0.826,-0.76987 z m 2.83216,-0.0308 c 0.17755,0 0.82599,0.60437 0.82599,0.76986 0,0.16548 -0.64844,0.76987 -0.82599,0.76987 -0.17755,0 -0.82601,-0.60439 -0.82601,-0.76987 0,-0.16549 0.64845,-0.76986 0.82601,-0.76986 z"
       style="fill:#f2ecdd;stroke:#959595;stroke-width:0;stroke-linecap:round;stroke-linejoin:round;paint-order:fill markers stroke"
       id="path19-2-0"
       sodipodi:nodetypes="ccccccccsssssssssssssssssssssssssssssssssssssssssssssssssssssssssssssssssssssssssssssssssssssssssssssssssssssssssssssssssssssssssssssssssssssssssssssssssssssssssssssssssssssssssssssssssssssssssssssssssssssssssssssssssssssssssssssssssssssssssssssssssssssssssssssss" />
    <path
       style="fill:#f2ecdd;fill-opacity:1;stroke:#f2ecdd;stroke-width:2.00625;stroke-linecap:round;stroke-linejoin:round;stroke-dasharray:none;stroke-opacity:1;paint-order:fill markers stroke"
       d="m 74.08171,147.3177 v 48.74997"
       id="path275" />
    <path
       d="m 96.38235,188.09869 c 0.18197,7.58812 -0.12247,1.16829 -2.60118,1.54064 l -19.68564,-0.0207 c -0.96177,-0.1896 0.57859,-42.88898 0.57859,-42.88898 l 18.44469,-0.13229 c 2.54295,0.0491 3.24508,2.68853 3.19565,4.04446 z m -3.58363,-0.26731 c 0,-0.34769 -1.72681,-1.61748 -2.1996,-1.61748 -0.47284,0 -2.19959,1.26979 -2.19959,1.61748 0,0.34768 1.72675,1.61747 2.19959,1.61747 0.47279,0 2.1996,-1.26977 2.1996,-1.61747 z m 0,-5.41874 c 0,-0.34768 -1.72681,-1.61747 -2.1996,-1.61747 -0.47284,0 -2.19959,1.26979 -2.19959,1.61747 0,0.34769 1.72675,1.61748 2.19959,1.61748 0.47279,0 2.1996,-1.26977 2.1996,-1.61748 z m -0.2092,-5.9278 c 0,-0.34769 -1.72678,-1.61748 -2.19959,-1.61748 -0.47285,0 -2.19961,1.26979 -2.19961,1.61748 0,0.34769 1.72676,1.61748 2.19961,1.61748 0.47281,0 2.19959,-1.26978 2.19959,-1.61748 z m 0,-5.41872 c 0,-0.34769 -1.72678,-1.61748 -2.19959,-1.61748 -0.47285,0 -2.19961,1.26979 -2.19961,1.61748 0,0.34767 1.72676,1.61746 2.19961,1.61746 0.47281,0 2.19959,-1.26976 2.19959,-1.61746 z m -0.21528,-5.92782 c 0,-0.34769 -1.7268,-1.61748 -2.1996,-1.61748 -0.47281,0 -2.1996,1.26979 -2.1996,1.61748 0,0.34769 1.72679,1.61748 2.1996,1.61748 0.4728,0 2.1996,-1.26978 2.1996,-1.61748 z m 0,-5.41872 c 0,-0.34769 -1.7268,-1.61748 -2.1996,-1.61748 -0.47281,0 -2.1996,1.26979 -2.1996,1.61748 0,0.34767 1.72679,1.61747 2.1996,1.61747 0.4728,0 2.1996,-1.26977 2.1996,-1.61747 z m 0,-5.55947 c 0,-0.34768 -1.7268,-1.61748 -2.1996,-1.61748 -0.47281,0 -2.1996,1.2698 -2.1996,1.61748 0,0.34769 1.72679,1.61748 2.1996,1.61748 0.4728,0 2.1996,-1.26977 2.1996,-1.61748 z m -2.96415,31.13136 c 0,-0.34769 -1.72681,-1.61748 -2.19959,-1.61748 -0.47285,0 -2.1996,1.26979 -2.1996,1.61748 0,0.34769 1.72675,1.61748 2.1996,1.61748 0.47278,0 2.19959,-1.26978 2.19959,-1.61748 z m -0.2092,-5.92781 c 0,-0.34768 -1.72679,-1.61748 -2.19959,-1.61748 -0.47285,0 -2.19961,1.2698 -2.19961,1.61748 0,0.34769 1.72676,1.61748 2.19961,1.61748 0.4728,0 2.19959,-1.26977 2.19959,-1.61748 z m 0,-5.41873 c 0,-0.34768 -1.72679,-1.61748 -2.19959,-1.61748 -0.47285,0 -2.19961,1.2698 -2.19961,1.61748 0,0.34769 1.72676,1.61748 2.19961,1.61748 0.4728,0 2.19959,-1.26978 2.19959,-1.61748 z m -0.21528,-5.92781 c 0,-0.34767 -1.72679,-1.61748 -2.19961,-1.61748 -0.4728,0 -2.19959,1.26981 -2.19959,1.61748 0,0.34769 1.72679,1.61748 2.19959,1.61748 0.47282,0 2.19961,-1.26977 2.19961,-1.61748 z m 0,-5.41872 c 0,-0.34769 -1.72679,-1.61748 -2.19961,-1.61748 -0.4728,0 -2.19959,1.26979 -2.19959,1.61748 0,0.34769 1.72679,1.61748 2.19959,1.61748 0.47282,0 2.19961,-1.26978 2.19961,-1.61748 z m 0,-5.55946 c 0,-0.34769 -1.72679,-1.61748 -2.19961,-1.61748 -0.4728,0 -2.19959,1.26979 -2.19959,1.61748 0,0.34767 1.72679,1.61747 2.19959,1.61747 0.47282,0 2.19961,-1.26977 2.19961,-1.61747 z m -2.81522,30.82854 c 0,-0.34768 -1.7268,-1.61748 -2.19959,-1.61748 -0.47284,0 -2.19959,1.2698 -2.19959,1.61748 0,0.34769 1.72675,1.61748 2.19959,1.61748 0.47279,0 2.19959,-1.26978 2.19959,-1.61748 z m 0,-5.41873 c 0,-0.34768 -1.7268,-1.61747 -2.19959,-1.61747 -0.47284,0 -2.19959,1.26979 -2.19959,1.61747 0,0.34769 1.72675,1.61748 2.19959,1.61748 0.47279,0 2.19959,-1.26977 2.19959,-1.61748 z m -0.2092,-5.9278 c 0,-0.34769 -1.72679,-1.61748 -2.19959,-1.61748 -0.47284,0 -2.19961,1.26979 -2.19961,1.61748 0,0.34769 1.72677,1.61748 2.19961,1.61748 0.4728,0 2.19959,-1.26978 2.19959,-1.61748 z m 0,-5.41873 c 0,-0.34768 -1.72679,-1.61748 -2.19959,-1.61748 -0.47284,0 -2.19961,1.2698 -2.19961,1.61748 0,0.34768 1.72677,1.61747 2.19961,1.61747 0.4728,0 2.19959,-1.26977 2.19959,-1.61747 z m -0.21528,-5.92781 c 0,-0.34769 -1.72679,-1.61748 -2.19961,-1.61748 -0.4728,0 -2.19959,1.26979 -2.19959,1.61748 0,0.34769 1.72679,1.61748 2.19959,1.61748 0.47282,0 2.19961,-1.26978 2.19961,-1.61748 z m 0,-5.41872 c 0,-0.34769 -1.72679,-1.61748 -2.19961,-1.61748 -0.4728,0 -2.19959,1.26979 -2.19959,1.61748 0,0.34767 1.72679,1.61746 2.19959,1.61746 0.47282,0 2.19961,-1.26976 2.19961,-1.61746 z m 0,-5.55947 c 0,-0.34768 -1.72679,-1.61748 -2.19961,-1.61748 -0.4728,0 -2.19959,1.2698 -2.19959,1.61748 0,0.34768 1.72679,1.61748 2.19959,1.61748 0.47282,0 2.19961,-1.26977 2.19961,-1.61748 z m -2.96415,31.13136 c 0,-0.34769 -1.7268,-1.61748 -2.19959,-1.61748 -0.47284,0 -2.19959,1.26979 -2.19959,1.61748 0,0.34769 1.72675,1.61748 2.19959,1.61748 0.47279,0 2.19959,-1.26978 2.19959,-1.61748 z m -0.2092,-5.92781 c 0,-0.34768 -1.72679,-1.61748 -2.1996,-1.61748 -0.47285,0 -2.19959,1.2698 -2.19959,1.61748 0,0.34768 1.72674,1.61748 2.19959,1.61748 0.47281,0 2.1996,-1.26977 2.1996,-1.61748 z m 0,-5.41873 c 0,-0.34769 -1.72679,-1.61748 -2.1996,-1.61748 -0.47285,0 -2.19959,1.26979 -2.19959,1.61748 0,0.34769 1.72674,1.61748 2.19959,1.61748 0.47281,0 2.1996,-1.26978 2.1996,-1.61748 z m -0.21528,-5.92781 c 0,-0.34768 -1.72679,-1.61748 -2.19961,-1.61748 -0.47281,0 -2.19959,1.2698 -2.19959,1.61748 0,0.34769 1.72678,1.61748 2.19959,1.61748 0.47282,0 2.19961,-1.26977 2.19961,-1.61748 z m 0,-5.41872 c 0,-0.34769 -1.72679,-1.61748 -2.19961,-1.61748 -0.47281,0 -2.19959,1.26979 -2.19959,1.61748 0,0.34768 1.72678,1.61748 2.19959,1.61748 0.47282,0 2.19961,-1.26978 2.19961,-1.61748 z m 0,-5.55946 c 0,-0.34769 -1.72679,-1.61748 -2.19961,-1.61748 -0.47281,0 -2.19959,1.26979 -2.19959,1.61748 0,0.34767 1.72678,1.61746 2.19959,1.61746 0.47282,0 2.19961,-1.26976 2.19961,-1.61746 z m -2.37123,25.4205 c 0,-0.34769 -1.7268,-1.61748 -2.19959,-1.61748 -0.47284,0 -2.19959,1.26979 -2.19959,1.61748 0,0.34767 1.72675,1.61748 2.19959,1.61748 0.47279,0 2.19959,-1.26978 2.19959,-1.61748 z m -0.20919,-5.92781 c 0,-0.34769 -1.72678,-1.61748 -2.1996,-1.61748 -0.47284,0 -2.1996,1.26979 -2.1996,1.61748 0,0.34768 1.72676,1.61748 2.1996,1.61748 0.47282,0 2.1996,-1.26977 2.1996,-1.61748 z m 0,-5.41873 c 0,-0.34769 -1.72678,-1.61748 -2.1996,-1.61748 -0.47284,0 -2.1996,1.26979 -2.1996,1.61748 0,0.34768 1.72676,1.61748 2.1996,1.61748 0.47282,0 2.1996,-1.26978 2.1996,-1.61748 z m -0.21529,-5.92781 c 0,-0.34769 -1.72679,-1.61748 -2.19959,-1.61748 -0.47281,0 -2.1996,1.26979 -2.1996,1.61748 0,0.34769 1.72679,1.61748 2.1996,1.61748 0.4728,0 2.19959,-1.26977 2.19959,-1.61748 z m 0,-5.41872 c 0,-0.34769 -1.72679,-1.61748 -2.19959,-1.61748 -0.47281,0 -2.1996,1.26979 -2.1996,1.61748 0,0.34767 1.72679,1.61748 2.1996,1.61748 0.4728,0 2.19959,-1.26978 2.19959,-1.61748 z m 0,-5.55948 c 0,-0.34767 -1.72679,-1.61746 -2.19959,-1.61746 -0.47281,0 -2.1996,1.26979 -2.1996,1.61746 0,0.34769 1.72679,1.61748 2.1996,1.61748 0.4728,0 2.19959,-1.26976 2.19959,-1.61748 z m 0.42099,33.65317 c 0,-0.34769 -1.72682,-1.61748 -2.19959,-1.61748 -0.47284,0 -2.19961,1.26979 -2.19961,1.61748 0,0.34769 1.72677,1.61748 2.19961,1.61748 0.47277,0 2.19959,-1.26978 2.19959,-1.61748 z m 12.4799,-39.28198 c 0,-0.34769 -1.72679,-1.61748 -2.1996,-1.61748 -0.47282,0 -2.19959,1.26979 -2.19959,1.61748 0,0.34767 1.72677,1.61747 2.19959,1.61747 0.47281,0 2.1996,-1.26977 2.1996,-1.61747 z m -3.38863,2.87881 c 0,-0.34768 -1.72679,-1.61748 -2.1996,-1.61748 -0.47282,0 -2.19959,1.2698 -2.19959,1.61748 0,0.34769 1.72677,1.61748 2.19959,1.61748 0.47281,0 2.1996,-1.26978 2.1996,-1.61748 z m -3.23971,-2.84271 c 0,-0.34768 -1.72677,-1.61748 -2.19959,-1.61748 -0.47281,0 -2.19959,1.2698 -2.19959,1.61748 0,0.34768 1.72678,1.61748 2.19959,1.61748 0.47282,0 2.19959,-1.26978 2.19959,-1.61748 z m -3.38863,2.87882 c 0,-0.34768 -1.72677,-1.61748 -2.19959,-1.61748 -0.47281,0 -2.19959,1.2698 -2.19959,1.61748 0,0.34769 1.72678,1.61748 2.19959,1.61748 0.47282,0 2.19959,-1.26978 2.19959,-1.61748 z m -2.79569,-2.83203 c 0,-0.34769 -1.72679,-1.61748 -2.1996,-1.61748 -0.4728,0 -2.1996,1.26979 -2.1996,1.61748 0,0.34769 1.7268,1.61748 2.1996,1.61748 0.47281,0 2.1996,-1.26978 2.1996,-1.61748 z m -2.57368,36.48768 c 0,-0.34768 -1.72681,-1.61747 -2.19959,-1.61747 -0.47285,0 -0.47285,3.23494 0,3.23494 0.47278,0 2.19959,-1.26976 2.19959,-1.61747 z m 0,-5.41873 c 0,-0.34769 -1.72681,-1.61748 -2.19959,-1.61748 -0.47285,0 -0.47285,3.23496 0,3.23496 0.47278,0 2.19959,-1.26977 2.19959,-1.61748 z m -0.20922,-5.9278 c 0,-0.34769 -1.72677,-1.61748 -2.19959,-1.61748 -0.47284,0 -0.47284,3.23495 0,3.23495 0.47282,0 2.19959,-1.26977 2.19959,-1.61747 z m 0,-5.41874 c 0,-0.34769 -1.72677,-1.61748 -2.19959,-1.61748 -0.47284,0 -0.47284,3.23496 0,3.23496 0.47282,0 2.19959,-1.26976 2.19959,-1.61748 z m -0.21528,-5.9278 c 0,-0.34769 -1.72677,-1.61748 -2.19959,-1.61748 -0.47281,0 -0.47281,3.23495 0,3.23495 0.47282,0 2.19959,-1.26977 2.19959,-1.61747 z m 0,-5.41873 c 0,-0.34769 -1.72677,-1.61748 -2.19959,-1.61748 -0.47281,0 -0.47281,3.23496 0,3.23496 0.47282,0 2.19959,-1.26977 2.19959,-1.61748 z m 0,-5.55946 c 0,-0.34769 -1.72677,-1.61748 -2.19959,-1.61748 -0.47281,0 -0.47281,3.23496 0,3.23496 0.47282,0 2.19959,-1.26978 2.19959,-1.61748 z m 19.41712,33.50574 c 0,-0.1698 -0.41227,-0.55993 -0.88911,-0.91443 -0.499,-0.371 -1.06873,-0.70305 -1.31048,-0.70305 -0.47284,0 -2.19959,1.26979 -2.19959,1.61748 0,0.34768 1.72675,1.61747 2.19959,1.61747 0.2419,0 0.81229,-0.33253 1.31155,-0.70383 0.47637,-0.35428 0.88804,-0.74387 0.88804,-0.91364 z m -0.20921,-5.92781 c 0,-0.34769 -1.72677,-1.61748 -2.19959,-1.61748 -0.47284,0 -2.19959,1.26979 -2.19959,1.61748 0,0.34769 1.72675,1.61748 2.19959,1.61748 0.47282,0 2.19959,-1.26978 2.19959,-1.61748 z m 0,-5.41872 c 0,-0.34769 -1.72677,-1.61748 -2.19959,-1.61748 -0.47284,0 -2.19959,1.26979 -2.19959,1.61748 0,0.34767 1.72675,1.61746 2.19959,1.61746 0.47282,0 2.19959,-1.26976 2.19959,-1.61746 z m -0.21528,-5.92782 c 0,-0.34769 -1.72678,-1.61748 -2.19959,-1.61748 -0.47282,0 -2.19959,1.26979 -2.19959,1.61748 0,0.34769 1.72677,1.61748 2.19959,1.61748 0.47281,0 2.19959,-1.26978 2.19959,-1.61748 z m 0,-5.41872 c 0,-0.34769 -1.72678,-1.61748 -2.19959,-1.61748 -0.47282,0 -2.19959,1.26979 -2.19959,1.61748 0,0.34768 1.72677,1.61747 2.19959,1.61747 0.47281,0 2.19959,-1.26977 2.19959,-1.61747 z m 0,-5.55947 c 0,-0.34768 -1.72678,-1.61748 -2.19959,-1.61748 -0.47282,0 -2.19959,1.2698 -2.19959,1.61748 0,0.34769 1.72677,1.61748 2.19959,1.61748 0.47281,0 2.19959,-1.26977 2.19959,-1.61748 z m 0.0882,-5.54592 c 0,-0.34769 -1.72678,-1.61748 -2.19959,-1.61748 -0.47282,0 -2.1996,1.26979 -2.1996,1.61748 0,0.34767 1.72678,1.61748 2.1996,1.61748 0.47281,0 2.19959,-1.26978 2.19959,-1.61748 z"
       style="fill:#f2ecdd;stroke:#959595;stroke-width:0;stroke-linecap:round;stroke-linejoin:round;paint-order:fill markers stroke"
       id="path19-7"
       sodipodi:nodetypes="cccccccsssssssssssssssssssssssssssssssssssssssssssssssssssssssssssssssssssssssssssssssssssssssssssssssssssssssssssssssssssssssssssssssssssssssssssssssssssssssssssssssssssssssssssssssssssssssssssssssssssssssssssssssssssssssssssssssssssssssssssssssssssssssssssssss" />
  </g>
</svg>
