<?xml version="1.0" encoding="UTF-8" standalone="no"?>
<!-- Created with Inkscape (http://www.inkscape.org/) -->

<svg
   width="26.390238mm"
   height="71.250015mm"
   viewBox="0 0 26.390238 71.250015"
   version="1.1"
   id="svg1"
   sodipodi:docname="StadiumLightBack.svg"
   inkscape:version="1.4.2 (f4327f4, 2025-05-13)"
   xmlns:inkscape="http://www.inkscape.org/namespaces/inkscape"
   xmlns:sodipodi="http://sodipodi.sourceforge.net/DTD/sodipodi-0.dtd"
   xmlns="http://www.w3.org/2000/svg"
   xmlns:svg="http://www.w3.org/2000/svg">
  <sodipodi:namedview
     id="namedview1"
     pagecolor="#ffffff"
     bordercolor="#000000"
     borderopacity="0.25"
     inkscape:showpageshadow="2"
     inkscape:pageopacity="0.0"
     inkscape:pagecheckerboard="0"
     inkscape:deskcolor="#d1d1d1"
     inkscape:document-units="mm"
     inkscape:zoom="3.2551768"
     inkscape:cx="118.88755"
     inkscape:cy="212.12365"
     inkscape:window-width="3840"
     inkscape:window-height="2054"
     inkscape:window-x="-11"
     inkscape:window-y="-11"
     inkscape:window-maximized="1"
     inkscape:current-layer="layer1" />
  <defs
     id="defs1">
    <inkscape:path-effect
       effect="fillet_chamfer"
       id="path-effect7-9"
       is_visible="true"
       lpeversion="1"
       nodesatellites_param="F,0,0,1,0,0.086297351,0,1 @ F,0,0,1,0,1.2217174,0,1 @ F,0,0,1,0,1.0177507,0,1 @ F,0,0,1,0,0.90342753,0,1"
       radius="0"
       unit="px"
       method="auto"
       mode="F"
       chamfer_steps="1"
       flexible="false"
       use_knot_distance="true"
       apply_no_radius="true"
       apply_with_radius="true"
       only_selected="false"
       hide_knots="false" />
    <inkscape:path-effect
       effect="fillet_chamfer"
       id="path-effect7-6"
       is_visible="true"
       lpeversion="1"
       nodesatellites_param="F,0,0,1,0,0.95502343,0,1 @ F,0,0,1,0,1.2217174,0,1 @ F,0,0,1,0,1.0177507,0,1 @ F,0,0,1,0,0.90342753,0,1"
       radius="0"
       unit="px"
       method="auto"
       mode="F"
       chamfer_steps="1"
       flexible="false"
       use_knot_distance="true"
       apply_no_radius="true"
       apply_with_radius="true"
       only_selected="false"
       hide_knots="false" />
    <inkscape:path-effect
       effect="fillet_chamfer"
       id="path-effect7-8"
       is_visible="true"
       lpeversion="1"
       nodesatellites_param="F,0,0,1,0,0.95502343,0,1 @ F,0,0,1,0,1.2217174,0,1 @ F,0,0,1,0,1.0177507,0,1 @ F,0,0,1,0,0.90342753,0,1"
       radius="0"
       unit="px"
       method="auto"
       mode="F"
       chamfer_steps="1"
       flexible="false"
       use_knot_distance="true"
       apply_no_radius="true"
       apply_with_radius="true"
       only_selected="false"
       hide_knots="false" />
    <inkscape:path-effect
       effect="fillet_chamfer"
       id="path-effect7-2"
       is_visible="true"
       lpeversion="1"
       nodesatellites_param="F,0,0,1,0,0.95502343,0,1 @ F,0,0,1,0,1.2217174,0,1 @ F,0,0,1,0,1.0177507,0,1 @ F,0,0,1,0,0.90342753,0,1"
       radius="0"
       unit="px"
       method="auto"
       mode="F"
       chamfer_steps="1"
       flexible="false"
       use_knot_distance="true"
       apply_no_radius="true"
       apply_with_radius="true"
       only_selected="false"
       hide_knots="false" />
    <inkscape:path-effect
       effect="mirror_symmetry"
       start_point="132.8421,113.59339"
       end_point="201.02869,195.1448"
       center_point="166.93539,154.3691"
       id="path-effect4-3-7"
       is_visible="true"
       lpeversion="1.2"
       lpesatellites=""
       mode="free"
       discard_orig_path="false"
       fuse_paths="true"
       oposite_fuse="false"
       split_items="false"
       split_open="false"
       link_styles="false" />
    <inkscape:path-effect
       effect="mirror_symmetry"
       start_point="132.8421,113.59339"
       end_point="201.02869,195.1448"
       center_point="166.93539,154.3691"
       id="path-effect4-3"
       is_visible="true"
       lpeversion="1.2"
       lpesatellites=""
       mode="free"
       discard_orig_path="false"
       fuse_paths="true"
       oposite_fuse="false"
       split_items="false"
       split_open="false"
       link_styles="false" />
  </defs>
  <g
     inkscape:label="Ebene 1"
     inkscape:groupmode="layer"
     id="layer1"
     transform="translate(-63.813776,-172.97678)">
    <path
       d="m 72.427218,244.2267 c -0.06768,-0.002 -0.142629,-0.021 -0.220141,-0.0529 l -3.420463,-1.32824 0.01343,-0.003 c -0.228501,-0.0413 -0.514803,-0.23539 -0.709,-0.49649 l -2.015898,-2.71078 c -0.242764,-0.32641 -0.247027,-0.63007 -0.0093,-0.6809 l 8.861475,-1.89457 v -4.27225 h -8.082194 c -0.682139,0 -1.231449,-0.28998 -1.231449,-0.65008 v -3.4045 -6.46935 -3.40449 c 0,-0.3601 0.54931,-0.6498 1.231449,-0.6498 h 18.70377 c 0.682139,0 1.231449,0.2897 1.231449,0.6498 v 3.40449 6.46935 3.4045 c 0,0.3601 -0.54931,0.65008 -1.231449,0.65008 h -8.720914 v 3.86578 l 6.751526,-1.44336 c 0.08874,-0.019 0.19863,1e-5 0.313676,0.0483 l 5.17e-4,2.6e-4 3.391523,1.32743 h 5.17e-4 c 0.09162,0.0152 0.192372,0.0555 0.293522,0.11512 v 2.8e-4 h 5.17e-4 5.17e-4 5.16e-4 5.17e-4 c 0.152256,0.0899 0.303777,0.22399 0.42168,0.38246 l 2.016414,2.71077 c 0.242761,0.3264 0.246463,0.63007 0.0088,0.6809 l -17.514175,3.74404 c -0.02712,0.006 -0.05658,0.008 -0.08733,0.007 z"
       style="fill:#292724;fill-opacity:0.375844;stroke:#45423b;stroke-width:0;stroke-linecap:round;stroke-linejoin:round;paint-order:fill markers stroke"
       id="path10" />
    <path
       style="fill:#bfb7a3;fill-opacity:0;stroke:#25241f;stroke-width:3.6;stroke-linecap:square;stroke-linejoin:round;stroke-dasharray:none;stroke-opacity:1;paint-order:fill markers stroke"
       d="m 71.864556,201.09664 h -6.25078 V 222.2633 H 86.78044 v -21.16666 h -5.42396"
       id="path277-82" />
    <rect
       style="fill:#bfb7a3;fill-opacity:1;stroke:#000000;stroke-width:0;stroke-linecap:square;stroke-linejoin:round;stroke-dasharray:none;stroke-opacity:1"
       id="rect1-5"
       width="21.166668"
       height="21.166668"
       x="65.613777"
       y="201.09663"
       ry="1.2312973" />
    <rect
       style="fill:#f2e8cf;fill-opacity:1;stroke:#000000;stroke-width:0;stroke-linecap:square;stroke-linejoin:round;stroke-dasharray:none;stroke-opacity:1"
       id="rect1-6-36"
       width="21.166668"
       height="21.166668"
       x="65.613777"
       y="194.64742"
       ry="1.2312973" />
    <path
       id="path279-7-1"
       style="fill:#aba492;stroke:#45423b;stroke-width:0;stroke-linecap:round;stroke-linejoin:round;paint-order:fill markers stroke"
       d="m 81.83816,207.83181 c -0.026,0.0845 -5.805365,4.42025 -5.893771,4.4216 -0.0884,0.001 -5.997868,-4.1553 -6.026475,-4.23896 -0.02861,-0.0837 -0.03765,-0.95841 0,-1.59025 0.0053,-0.0883 11.847936,-0.23351 11.920246,-0.18265 0.0723,0.0509 0.026,1.50576 0,1.59026 z"
       sodipodi:nodetypes="scssss" />
    <path
       sodipodi:type="star"
       style="fill:#bfb7a3;fill-opacity:1;stroke:#45423b;stroke-width:0;stroke-linecap:round;stroke-linejoin:round;stroke-dasharray:none;stroke-opacity:1;paint-order:fill markers stroke"
       id="path279-4"
       inkscape:flatsided="true"
       sodipodi:sides="5"
       sodipodi:cx="27.031351"
       sodipodi:cy="21.166668"
       sodipodi:r1="6.2675815"
       sodipodi:r2="5.4278851"
       sodipodi:arg1="0.29883803"
       sodipodi:arg2="0.92715656"
       inkscape:rounded="0.012"
       inkscape:randomized="2.7755576e-17"
       d="m 33.021149,23.011906 c -0.02603,0.0845 -5.805369,4.420253 -5.893775,4.421608 -0.0884,0.0014 -5.997868,-4.155301 -6.026475,-4.238961 -0.02861,-0.08366 2.098483,-6.988369 2.169208,-7.041429 0.07072,-0.05306 7.294801,-0.163749 7.367119,-0.112882 0.07232,0.05087 2.409953,6.887167 2.383923,6.971664 z"
       transform="translate(48.817015,183.22965)" />
    <path
       style="fill:#bfb7a3;fill-opacity:1;stroke:#45423b;stroke-width:1.9;stroke-linecap:round;stroke-linejoin:round;stroke-dasharray:none;stroke-opacity:1;paint-order:fill markers stroke"
       d="M 75.878004,204.01001 V 183.38349"
       id="path278-1" />
    <path
       id="rect279-4-1"
       style="fill:#2e2c28;stroke:#45423b;stroke-width:0;stroke-linecap:round;stroke-linejoin:round;paint-order:fill markers stroke"
       d="m 72.427257,172.97683 c -0.06768,0.004 -0.142592,0.0396 -0.220104,0.10008 l -3.420329,2.51618 1.852118,0.90687 -1.007949,2.56767 c -0.242756,0.61832 -0.247097,1.19359 -0.0094,1.28987 l 15.748288,6.37793 -1.476364,3.23145 3.391644,-2.51512 5.01e-4,-2e-5 c 0.09162,-0.0287 0.192341,-0.10519 0.293491,-0.21813 4.33e-4,-4.9e-4 9.85e-4,-6.6e-4 0.0016,-5.7e-4 l 5.18e-4,-2e-5 c 0.152256,-0.17036 0.303684,-0.4239 0.421587,-0.72407 l 2.016407,-5.13536 c 0.242761,-0.61832 0.246578,-1.19357 0.0089,-1.28985 l -17.514055,-7.0932 c -0.02712,-0.0111 -0.05652,-0.0154 -0.08727,-0.0132 z"
       sodipodi:nodetypes="ccccccccccscccccccc" />
    <rect
       style="fill:#45423b;fill-opacity:1;stroke:#45423b;stroke-width:0;stroke-linecap:round;stroke-linejoin:round;stroke-dasharray:none;stroke-opacity:1;paint-order:fill markers stroke"
       id="rect279-4"
       width="19.821539"
       height="7.9149041"
       x="-147.72882"
       y="-144.79279"
       rx="0.46296546"
       ry="1.1990386"
       transform="matrix(-0.92686817,-0.37538698,0.36546216,-0.9308262,0,0)" />
  </g>
</svg>
