<?xml version="1.0" encoding="UTF-8" standalone="no"?>
<!-- Created with Inkscape (http://www.inkscape.org/) -->

<svg
   width="208.08072mm"
   height="307.09534mm"
   viewBox="0 0 208.08072 307.09533"
   version="1.1"
   id="svg1"
   sodipodi:docname="StadiumSeats.svg"
   inkscape:version="1.4.2 (f4327f4, 2025-05-13)"
   xmlns:inkscape="http://www.inkscape.org/namespaces/inkscape"
   xmlns:sodipodi="http://sodipodi.sourceforge.net/DTD/sodipodi-0.dtd"
   xmlns="http://www.w3.org/2000/svg"
   xmlns:svg="http://www.w3.org/2000/svg">
  <sodipodi:namedview
     id="namedview1"
     pagecolor="#ffffff"
     bordercolor="#000000"
     borderopacity="0.25"
     inkscape:showpageshadow="2"
     inkscape:pageopacity="0.0"
     inkscape:pagecheckerboard="0"
     inkscape:deskcolor="#d1d1d1"
     inkscape:document-units="mm"
     inkscape:zoom="1.6275884"
     inkscape:cx="301.36612"
     inkscape:cy="458.03964"
     inkscape:window-width="3840"
     inkscape:window-height="2054"
     inkscape:window-x="-11"
     inkscape:window-y="-11"
     inkscape:window-maximized="1"
     inkscape:current-layer="layer1" />
  <defs
     id="defs1">
    <inkscape:path-effect
       effect="fillet_chamfer"
       id="path-effect7-9"
       is_visible="true"
       lpeversion="1"
       nodesatellites_param="F,0,0,1,0,0.086297351,0,1 @ F,0,0,1,0,1.2217174,0,1 @ F,0,0,1,0,1.0177507,0,1 @ F,0,0,1,0,0.90342753,0,1"
       radius="0"
       unit="px"
       method="auto"
       mode="F"
       chamfer_steps="1"
       flexible="false"
       use_knot_distance="true"
       apply_no_radius="true"
       apply_with_radius="true"
       only_selected="false"
       hide_knots="false" />
    <inkscape:path-effect
       effect="fillet_chamfer"
       id="path-effect7-6"
       is_visible="true"
       lpeversion="1"
       nodesatellites_param="F,0,0,1,0,0.95502343,0,1 @ F,0,0,1,0,1.2217174,0,1 @ F,0,0,1,0,1.0177507,0,1 @ F,0,0,1,0,0.90342753,0,1"
       radius="0"
       unit="px"
       method="auto"
       mode="F"
       chamfer_steps="1"
       flexible="false"
       use_knot_distance="true"
       apply_no_radius="true"
       apply_with_radius="true"
       only_selected="false"
       hide_knots="false" />
    <inkscape:path-effect
       effect="fillet_chamfer"
       id="path-effect7-8"
       is_visible="true"
       lpeversion="1"
       nodesatellites_param="F,0,0,1,0,0.95502343,0,1 @ F,0,0,1,0,1.2217174,0,1 @ F,0,0,1,0,1.0177507,0,1 @ F,0,0,1,0,0.90342753,0,1"
       radius="0"
       unit="px"
       method="auto"
       mode="F"
       chamfer_steps="1"
       flexible="false"
       use_knot_distance="true"
       apply_no_radius="true"
       apply_with_radius="true"
       only_selected="false"
       hide_knots="false" />
    <inkscape:path-effect
       effect="fillet_chamfer"
       id="path-effect7-2"
       is_visible="true"
       lpeversion="1"
       nodesatellites_param="F,0,0,1,0,0.95502343,0,1 @ F,0,0,1,0,1.2217174,0,1 @ F,0,0,1,0,1.0177507,0,1 @ F,0,0,1,0,0.90342753,0,1"
       radius="0"
       unit="px"
       method="auto"
       mode="F"
       chamfer_steps="1"
       flexible="false"
       use_knot_distance="true"
       apply_no_radius="true"
       apply_with_radius="true"
       only_selected="false"
       hide_knots="false" />
    <inkscape:path-effect
       effect="mirror_symmetry"
       start_point="132.8421,113.59339"
       end_point="201.02869,195.1448"
       center_point="166.93539,154.3691"
       id="path-effect4-3-7"
       is_visible="true"
       lpeversion="1.2"
       lpesatellites=""
       mode="free"
       discard_orig_path="false"
       fuse_paths="true"
       oposite_fuse="false"
       split_items="false"
       split_open="false"
       link_styles="false" />
    <inkscape:path-effect
       effect="mirror_symmetry"
       start_point="132.8421,113.59339"
       end_point="201.02869,195.1448"
       center_point="166.93539,154.3691"
       id="path-effect4-3"
       is_visible="true"
       lpeversion="1.2"
       lpesatellites=""
       mode="free"
       discard_orig_path="false"
       fuse_paths="true"
       oposite_fuse="false"
       split_items="false"
       split_open="false"
       link_styles="false" />
  </defs>
  <g
     inkscape:label="Ebene 1"
     inkscape:groupmode="layer"
     id="layer1"
     transform="translate(-50.830299,10.061984)">
    <path
       id="rect280-0-0"
       style="fill:#a86465;fill-opacity:1;stroke:#45423b;stroke-width:0;stroke-linecap:round;stroke-linejoin:round;paint-order:fill markers stroke"
       d="m 59.416131,32.271437 c -9.69848,0 -8.54304,1.759095 -8.54304,3.944058 0,0.0013 0,0.0025 0,0.0039 v 3.94019 h 8.54304 8.543036 v -3.944059 c 0,-2.184963 1.15544,-3.944058 -8.543036,-3.944058 z"
       sodipodi:nodetypes="zsccccsz" />
    <path
       id="rect280-7"
       style="fill:#bc7071;fill-opacity:1;stroke:#45423b;stroke-width:0;stroke-linecap:round;stroke-linejoin:round;paint-order:fill markers stroke"
       d="m 59.416131,37.163761 c -2.12773,0 -8.54303,1.336158 -8.54303,2.995793 0,9.86e-4 -10e-6,0.0019 0,0.0029 v 2.992894 h 8.54303 8.543036 v -2.995794 c 0,-1.659635 -6.415316,-2.995793 -8.543036,-2.995793 z"
       sodipodi:nodetypes="zsccccsz" />
    <path
       id="rect280-0-0-7"
       style="fill:#a86465;fill-opacity:1;stroke:#45423b;stroke-width:0;stroke-linecap:round;stroke-linejoin:round;paint-order:fill markers stroke"
       d="m 80.582987,32.271348 c -9.69848,0 -8.54304,1.759095 -8.54304,3.944058 0,0.0013 0,0.0025 0,0.0039 v 3.94019 h 8.54304 8.54303 v -3.944059 c 0,-2.184963 1.15544,-3.944058 -8.54303,-3.944058 z"
       sodipodi:nodetypes="zsccccsz" />
    <path
       id="rect280-7-3"
       style="fill:#bc7071;fill-opacity:1;stroke:#45423b;stroke-width:0;stroke-linecap:round;stroke-linejoin:round;paint-order:fill markers stroke"
       d="m 80.582987,37.163672 c -2.12773,0 -8.54303,1.336158 -8.54303,2.995793 0,9.86e-4 -1e-5,0.0019 0,0.0029 v 2.992894 h 8.54303 8.54303 v -2.995794 c 0,-1.659635 -6.41531,-2.995793 -8.54303,-2.995793 z"
       sodipodi:nodetypes="zsccccsz" />
    <path
       id="rect280-0-0-2"
       style="fill:#a86465;fill-opacity:1;stroke:#45423b;stroke-width:0;stroke-linecap:round;stroke-linejoin:round;paint-order:fill markers stroke"
       d="m 101.7494,32.271437 c -9.698483,0 -8.543043,1.759095 -8.543043,3.944058 0,0.0013 0,0.0025 0,0.0039 v 3.94019 h 8.543043 8.54303 v -3.944059 c 0,-2.184963 1.15544,-3.944058 -8.54303,-3.944058 z"
       sodipodi:nodetypes="zsccccsz" />
    <path
       id="rect280-7-6"
       style="fill:#bc7071;fill-opacity:1;stroke:#45423b;stroke-width:0;stroke-linecap:round;stroke-linejoin:round;paint-order:fill markers stroke"
       d="m 101.7494,37.163761 c -2.127733,0 -8.543033,1.336158 -8.543033,2.995793 0,9.86e-4 -1e-5,0.0019 0,0.0029 v 2.992894 h 8.543033 8.54303 v -2.995794 c 0,-1.659635 -6.41531,-2.995793 -8.54303,-2.995793 z"
       sodipodi:nodetypes="zsccccsz" />
    <path
       id="rect280-0-0-7-5"
       style="fill:#a86465;fill-opacity:1;stroke:#45423b;stroke-width:0;stroke-linecap:round;stroke-linejoin:round;paint-order:fill markers stroke"
       d="m 122.91625,32.271348 c -9.69848,0 -8.54304,1.759095 -8.54304,3.944058 0,0.0013 0,0.0025 0,0.0039 v 3.94019 h 8.54304 8.54303 v -3.944059 c 0,-2.184963 1.15544,-3.944058 -8.54303,-3.944058 z"
       sodipodi:nodetypes="zsccccsz" />
    <path
       id="rect280-7-3-7"
       style="fill:#bc7071;fill-opacity:1;stroke:#45423b;stroke-width:0;stroke-linecap:round;stroke-linejoin:round;paint-order:fill markers stroke"
       d="m 122.91625,37.163672 c -2.12773,0 -8.54303,1.336158 -8.54303,2.995793 0,9.86e-4 -1e-5,0.0019 0,0.0029 v 2.992894 h 8.54303 8.54303 v -2.995794 c 0,-1.659635 -6.41531,-2.995793 -8.54303,-2.995793 z"
       sodipodi:nodetypes="zsccccsz" />
    <path
       id="rect280-0-0-79"
       style="fill:#a86465;fill-opacity:1;stroke:#45423b;stroke-width:0;stroke-linecap:round;stroke-linejoin:round;paint-order:fill markers stroke"
       d="m 59.416131,11.170885 c -9.69848,0 -8.54304,1.759095 -8.54304,3.944058 0,0.0013 0,0.0025 0,0.0039 v 3.94019 h 8.54304 8.543026 v -3.944059 c 0,-2.184963 1.15544,-3.944058 -8.543026,-3.944058 z"
       sodipodi:nodetypes="zsccccsz" />
    <path
       id="rect280-7-8"
       style="fill:#bc7071;fill-opacity:1;stroke:#45423b;stroke-width:0;stroke-linecap:round;stroke-linejoin:round;paint-order:fill markers stroke"
       d="m 59.416131,16.063209 c -2.12773,0 -8.54303,1.336158 -8.54303,2.995793 0,9.86e-4 -10e-6,0.0019 0,0.0029 v 2.992894 h 8.54303 8.543026 v -2.995794 c 0,-1.659635 -6.415306,-2.995793 -8.543026,-2.995793 z"
       sodipodi:nodetypes="zsccccsz" />
    <path
       id="rect280-0-0-7-3"
       style="fill:#a86465;fill-opacity:1;stroke:#45423b;stroke-width:0;stroke-linecap:round;stroke-linejoin:round;paint-order:fill markers stroke"
       d="m 80.582977,11.170796 c -9.69848,0 -8.54304,1.759095 -8.54304,3.944058 0,0.0013 0,0.0025 0,0.0039 v 3.94019 h 8.54304 8.54303 v -3.944059 c 0,-2.184963 1.15544,-3.944058 -8.54303,-3.944058 z"
       sodipodi:nodetypes="zsccccsz" />
    <path
       id="rect280-7-3-0"
       style="fill:#bc7071;fill-opacity:1;stroke:#45423b;stroke-width:0;stroke-linecap:round;stroke-linejoin:round;paint-order:fill markers stroke"
       d="m 80.582977,16.06312 c -2.12773,0 -8.54303,1.336158 -8.54303,2.995793 0,9.86e-4 -1e-5,0.0019 0,0.0029 v 2.992894 h 8.54303 8.54303 v -2.995794 c 0,-1.659635 -6.41531,-2.995793 -8.54303,-2.995793 z"
       sodipodi:nodetypes="zsccccsz" />
    <path
       id="rect280-0-0-2-2"
       style="fill:#a86465;fill-opacity:1;stroke:#45423b;stroke-width:0;stroke-linecap:round;stroke-linejoin:round;paint-order:fill markers stroke"
       d="m 101.74939,11.170885 c -9.698483,0 -8.543043,1.759095 -8.543043,3.944058 0,0.0013 0,0.0025 0,0.0039 v 3.94019 h 8.543043 8.54303 v -3.944059 c 0,-2.184963 1.15544,-3.944058 -8.54303,-3.944058 z"
       sodipodi:nodetypes="zsccccsz" />
    <path
       id="rect280-7-6-2"
       style="fill:#bc7071;fill-opacity:1;stroke:#45423b;stroke-width:0;stroke-linecap:round;stroke-linejoin:round;paint-order:fill markers stroke"
       d="m 101.74939,16.063209 c -2.127733,0 -8.543033,1.336158 -8.543033,2.995793 0,9.86e-4 -1e-5,0.0019 0,0.0029 v 2.992894 h 8.543033 8.54303 v -2.995794 c 0,-1.659635 -6.41531,-2.995793 -8.54303,-2.995793 z"
       sodipodi:nodetypes="zsccccsz" />
    <path
       id="rect280-0-0-7-5-3"
       style="fill:#a86465;fill-opacity:1;stroke:#45423b;stroke-width:0;stroke-linecap:round;stroke-linejoin:round;paint-order:fill markers stroke"
       d="m 122.91624,11.170796 c -9.69848,0 -8.54304,1.759095 -8.54304,3.944058 0,0.0013 0,0.0025 0,0.0039 v 3.94019 h 8.54304 8.54303 v -3.944059 c 0,-2.184963 1.15544,-3.944058 -8.54303,-3.944058 z"
       sodipodi:nodetypes="zsccccsz" />
    <path
       id="rect280-7-3-7-6"
       style="fill:#bc7071;fill-opacity:1;stroke:#45423b;stroke-width:0;stroke-linecap:round;stroke-linejoin:round;paint-order:fill markers stroke"
       d="m 122.91624,16.06312 c -2.12773,0 -8.54303,1.336158 -8.54303,2.995793 0,9.86e-4 -1e-5,0.0019 0,0.0029 v 2.992894 h 8.54303 8.54303 v -2.995794 c 0,-1.659635 -6.41531,-2.995793 -8.54303,-2.995793 z"
       sodipodi:nodetypes="zsccccsz" />
    <path
       id="rect280-0-0-5"
       style="fill:#a86465;fill-opacity:1;stroke:#45423b;stroke-width:0;stroke-linecap:round;stroke-linejoin:round;paint-order:fill markers stroke"
       d="m 59.416121,-9.797344 c -9.69848,0 -8.54304,1.759095 -8.54304,3.944058 0,0.0013 0,0.0025 0,0.0039 v 3.94019 h 8.54304 8.543036 v -3.944059 c 0,-2.184963 1.15544,-3.944058 -8.543036,-3.944058 z"
       sodipodi:nodetypes="zsccccsz" />
    <path
       id="rect280-7-4"
       style="fill:#bc7071;fill-opacity:1;stroke:#45423b;stroke-width:0;stroke-linecap:round;stroke-linejoin:round;paint-order:fill markers stroke"
       d="m 59.416121,-4.90502 c -2.12773,0 -8.54303,1.336158 -8.54303,2.995793 0,9.86e-4 -1e-5,0.0019 0,0.0029 v 2.992894 h 8.54303 8.543036 v -2.995794 c 0,-1.659635 -6.415316,-2.995793 -8.543036,-2.995793 z"
       sodipodi:nodetypes="zsccccsz" />
    <path
       id="rect280-0-0-7-0"
       style="fill:#a86465;fill-opacity:1;stroke:#45423b;stroke-width:0;stroke-linecap:round;stroke-linejoin:round;paint-order:fill markers stroke"
       d="m 80.582977,-9.797433 c -9.69848,0 -8.54304,1.759095 -8.54304,3.944058 0,0.0013 0,0.0025 0,0.0039 v 3.94019 h 8.54304 8.54303 v -3.944059 c 0,-2.184963 1.15544,-3.944058 -8.54303,-3.944058 z"
       sodipodi:nodetypes="zsccccsz" />
    <path
       id="rect280-7-3-2"
       style="fill:#bc7071;fill-opacity:1;stroke:#45423b;stroke-width:0;stroke-linecap:round;stroke-linejoin:round;paint-order:fill markers stroke"
       d="m 80.582977,-4.905109 c -2.12773,0 -8.54303,1.336158 -8.54303,2.995793 0,9.86e-4 -1e-5,0.0019 0,0.0029 v 2.992894 h 8.54303 8.54303 v -2.995794 c 0,-1.659635 -6.41531,-2.995793 -8.54303,-2.995793 z"
       sodipodi:nodetypes="zsccccsz" />
    <path
       id="rect280-0-0-2-6"
       style="fill:#a86465;fill-opacity:1;stroke:#45423b;stroke-width:0;stroke-linecap:round;stroke-linejoin:round;paint-order:fill markers stroke"
       d="m 101.74939,-9.797344 c -9.698483,0 -8.543043,1.759095 -8.543043,3.944058 0,0.0013 0,0.0025 0,0.0039 v 3.94019 h 8.543043 8.54303 v -3.944059 c 0,-2.184963 1.15544,-3.944058 -8.54303,-3.944058 z"
       sodipodi:nodetypes="zsccccsz" />
    <path
       id="rect280-7-6-0"
       style="fill:#bc7071;fill-opacity:1;stroke:#45423b;stroke-width:0;stroke-linecap:round;stroke-linejoin:round;paint-order:fill markers stroke"
       d="m 101.74939,-4.90502 c -2.127733,0 -8.543033,1.336158 -8.543033,2.995793 0,9.86e-4 -1e-5,0.0019 0,0.0029 v 2.992894 h 8.543033 8.54303 v -2.995794 c 0,-1.659635 -6.41531,-2.995793 -8.54303,-2.995793 z"
       sodipodi:nodetypes="zsccccsz" />
    <path
       id="rect280-0-0-7-5-6"
       style="fill:#a86465;fill-opacity:1;stroke:#45423b;stroke-width:0;stroke-linecap:round;stroke-linejoin:round;paint-order:fill markers stroke"
       d="m 122.91624,-9.797433 c -9.69848,0 -8.54304,1.759095 -8.54304,3.944058 0,0.0013 0,0.0025 0,0.0039 v 3.94019 h 8.54304 8.54303 v -3.944059 c 0,-2.184963 1.15544,-3.944058 -8.54303,-3.944058 z"
       sodipodi:nodetypes="zsccccsz" />
    <path
       id="rect280-7-3-7-1"
       style="fill:#bc7071;fill-opacity:1;stroke:#45423b;stroke-width:0;stroke-linecap:round;stroke-linejoin:round;paint-order:fill markers stroke"
       d="m 122.91624,-4.905109 c -2.12773,0 -8.54303,1.336158 -8.54303,2.995793 0,9.86e-4 -1e-5,0.0019 0,0.0029 v 2.992894 h 8.54303 8.54303 v -2.995794 c 0,-1.659635 -6.41531,-2.995793 -8.54303,-2.995793 z"
       sodipodi:nodetypes="zsccccsz" />
    <path
       id="rect280-0-0-3"
       style="fill:#a86465;fill-opacity:1;stroke:#45423b;stroke-width:0;stroke-linecap:round;stroke-linejoin:round;paint-order:fill markers stroke"
       d="m 186.82508,32.006886 c -9.69848,0 -8.54304,1.759095 -8.54304,3.944058 0,0.0013 0,0.0025 0,0.0039 v 3.94019 h 8.54304 8.54304 v -3.944059 c 0,-2.184963 1.15544,-3.944058 -8.54304,-3.944058 z"
       sodipodi:nodetypes="zsccccsz" />
    <path
       id="rect280-7-0"
       style="fill:#bc7071;fill-opacity:1;stroke:#45423b;stroke-width:0;stroke-linecap:round;stroke-linejoin:round;paint-order:fill markers stroke"
       d="m 186.82508,36.89921 c -2.12773,0 -8.54303,1.336158 -8.54303,2.995793 0,9.86e-4 -1e-5,0.0019 0,0.0029 v 2.992894 h 8.54303 8.54304 v -2.995794 c 0,-1.659635 -6.41532,-2.995793 -8.54304,-2.995793 z"
       sodipodi:nodetypes="zsccccsz" />
    <path
       id="rect280-0-0-7-04"
       style="fill:#a86465;fill-opacity:1;stroke:#45423b;stroke-width:0;stroke-linecap:round;stroke-linejoin:round;paint-order:fill markers stroke"
       d="m 207.99194,32.006797 c -9.69848,0 -8.54304,1.759095 -8.54304,3.944058 0,0.0013 0,0.0025 0,0.0039 v 3.94019 h 8.54304 8.54303 v -3.944059 c 0,-2.184963 1.15544,-3.944058 -8.54303,-3.944058 z"
       sodipodi:nodetypes="zsccccsz" />
    <path
       id="rect280-7-3-8"
       style="fill:#bc7071;fill-opacity:1;stroke:#45423b;stroke-width:0;stroke-linecap:round;stroke-linejoin:round;paint-order:fill markers stroke"
       d="m 207.99194,36.899121 c -2.12773,0 -8.54303,1.336158 -8.54303,2.995793 0,9.86e-4 -1e-5,0.0019 0,0.0029 v 2.992894 h 8.54303 8.54303 v -2.995794 c 0,-1.659635 -6.41531,-2.995793 -8.54303,-2.995793 z"
       sodipodi:nodetypes="zsccccsz" />
    <path
       id="rect280-0-0-2-3"
       style="fill:#a86465;fill-opacity:1;stroke:#45423b;stroke-width:0;stroke-linecap:round;stroke-linejoin:round;paint-order:fill markers stroke"
       d="m 229.15835,32.006886 c -9.69848,0 -8.54304,1.759095 -8.54304,3.944058 0,0.0013 0,0.0025 0,0.0039 v 3.94019 h 8.54304 8.54303 v -3.944059 c 0,-2.184963 1.15544,-3.944058 -8.54303,-3.944058 z"
       sodipodi:nodetypes="zsccccsz" />
    <path
       id="rect280-7-6-01"
       style="fill:#bc7071;fill-opacity:1;stroke:#45423b;stroke-width:0;stroke-linecap:round;stroke-linejoin:round;paint-order:fill markers stroke"
       d="m 229.15835,36.89921 c -2.12773,0 -8.54303,1.336158 -8.54303,2.995793 0,9.86e-4 -1e-5,0.0019 0,0.0029 v 2.992894 h 8.54303 8.54303 v -2.995794 c 0,-1.659635 -6.41531,-2.995793 -8.54303,-2.995793 z"
       sodipodi:nodetypes="zsccccsz" />
    <path
       id="rect280-0-0-7-5-2"
       style="fill:#a86465;fill-opacity:1;stroke:#45423b;stroke-width:0;stroke-linecap:round;stroke-linejoin:round;paint-order:fill markers stroke"
       d="m 250.3252,32.006797 c -9.69848,0 -8.54304,1.759095 -8.54304,3.944058 0,0.0013 0,0.0025 0,0.0039 v 3.94019 h 8.54304 8.54303 v -3.944059 c 0,-2.184963 1.15544,-3.944058 -8.54303,-3.944058 z"
       sodipodi:nodetypes="zsccccsz" />
    <path
       id="rect280-7-3-7-9"
       style="fill:#bc7071;fill-opacity:1;stroke:#45423b;stroke-width:0;stroke-linecap:round;stroke-linejoin:round;paint-order:fill markers stroke"
       d="m 250.3252,36.899121 c -2.12773,0 -8.54303,1.336158 -8.54303,2.995793 0,9.86e-4 -1e-5,0.0019 0,0.0029 v 2.992894 h 8.54303 8.54303 v -2.995794 c 0,-1.659635 -6.41531,-2.995793 -8.54303,-2.995793 z"
       sodipodi:nodetypes="zsccccsz" />
    <path
       id="rect280-0-0-79-0"
       style="fill:#a86465;fill-opacity:1;stroke:#45423b;stroke-width:0;stroke-linecap:round;stroke-linejoin:round;paint-order:fill markers stroke"
       d="m 186.82508,10.906334 c -9.69848,0 -8.54304,1.759095 -8.54304,3.944058 0,0.0013 0,0.0025 0,0.0039 v 3.94019 h 8.54304 8.54303 v -3.944059 c 0,-2.184963 1.15544,-3.944058 -8.54303,-3.944058 z"
       sodipodi:nodetypes="zsccccsz" />
    <path
       id="rect280-7-8-3"
       style="fill:#bc7071;fill-opacity:1;stroke:#45423b;stroke-width:0;stroke-linecap:round;stroke-linejoin:round;paint-order:fill markers stroke"
       d="m 186.82508,15.798658 c -2.12773,0 -8.54303,1.336158 -8.54303,2.995793 0,9.86e-4 -1e-5,0.0019 0,0.0029 v 2.992894 h 8.54303 8.54303 v -2.995794 c 0,-1.659635 -6.41531,-2.995793 -8.54303,-2.995793 z"
       sodipodi:nodetypes="zsccccsz" />
    <path
       id="rect280-0-0-7-3-8"
       style="fill:#a86465;fill-opacity:1;stroke:#45423b;stroke-width:0;stroke-linecap:round;stroke-linejoin:round;paint-order:fill markers stroke"
       d="m 207.99193,10.906245 c -9.69848,0 -8.54304,1.759095 -8.54304,3.944058 0,0.0013 0,0.0025 0,0.0039 v 3.94019 h 8.54304 8.54303 v -3.944059 c 0,-2.184963 1.15544,-3.944058 -8.54303,-3.944058 z"
       sodipodi:nodetypes="zsccccsz" />
    <path
       id="rect280-7-3-0-8"
       style="fill:#bc7071;fill-opacity:1;stroke:#45423b;stroke-width:0;stroke-linecap:round;stroke-linejoin:round;paint-order:fill markers stroke"
       d="m 207.99193,15.798569 c -2.12773,0 -8.54303,1.336158 -8.54303,2.995793 0,9.86e-4 -1e-5,0.0019 0,0.0029 v 2.992894 h 8.54303 8.54303 v -2.995794 c 0,-1.659635 -6.41531,-2.995793 -8.54303,-2.995793 z"
       sodipodi:nodetypes="zsccccsz" />
    <path
       id="rect280-0-0-2-2-5"
       style="fill:#a86465;fill-opacity:1;stroke:#45423b;stroke-width:0;stroke-linecap:round;stroke-linejoin:round;paint-order:fill markers stroke"
       d="m 229.15834,10.906334 c -9.69848,0 -8.54304,1.759095 -8.54304,3.944058 0,0.0013 0,0.0025 0,0.0039 v 3.94019 h 8.54304 8.54303 v -3.944059 c 0,-2.184963 1.15544,-3.944058 -8.54303,-3.944058 z"
       sodipodi:nodetypes="zsccccsz" />
    <path
       id="rect280-7-6-2-7"
       style="fill:#bc7071;fill-opacity:1;stroke:#45423b;stroke-width:0;stroke-linecap:round;stroke-linejoin:round;paint-order:fill markers stroke"
       d="m 229.15834,15.798658 c -2.12773,0 -8.54303,1.336158 -8.54303,2.995793 0,9.86e-4 -1e-5,0.0019 0,0.0029 v 2.992894 h 8.54303 8.54303 v -2.995794 c 0,-1.659635 -6.41531,-2.995793 -8.54303,-2.995793 z"
       sodipodi:nodetypes="zsccccsz" />
    <path
       id="rect280-0-0-7-5-3-7"
       style="fill:#a86465;fill-opacity:1;stroke:#45423b;stroke-width:0;stroke-linecap:round;stroke-linejoin:round;paint-order:fill markers stroke"
       d="m 250.32519,10.906245 c -9.69848,0 -8.54304,1.759095 -8.54304,3.944058 0,0.0013 0,0.0025 0,0.0039 v 3.94019 h 8.54304 8.54303 v -3.944059 c 0,-2.184963 1.15544,-3.944058 -8.54303,-3.944058 z"
       sodipodi:nodetypes="zsccccsz" />
    <path
       id="rect280-7-3-7-6-0"
       style="fill:#bc7071;fill-opacity:1;stroke:#45423b;stroke-width:0;stroke-linecap:round;stroke-linejoin:round;paint-order:fill markers stroke"
       d="m 250.32519,15.798569 c -2.12773,0 -8.54303,1.336158 -8.54303,2.995793 0,9.86e-4 -1e-5,0.0019 0,0.0029 v 2.992894 h 8.54303 8.54303 v -2.995794 c 0,-1.659635 -6.41531,-2.995793 -8.54303,-2.995793 z"
       sodipodi:nodetypes="zsccccsz" />
    <path
       id="rect280-0-0-5-8"
       style="fill:#a86465;fill-opacity:1;stroke:#45423b;stroke-width:0;stroke-linecap:round;stroke-linejoin:round;paint-order:fill markers stroke"
       d="m 186.82507,-10.061895 c -9.69848,0 -8.54304,1.759095 -8.54304,3.944058 0,0.0013 0,0.0025 0,0.0039 v 3.94019 h 8.54304 8.54304 v -3.944059 c 0,-2.184963 1.15544,-3.944058 -8.54304,-3.944058 z"
       sodipodi:nodetypes="zsccccsz" />
    <path
       id="rect280-7-4-9"
       style="fill:#bc7071;fill-opacity:1;stroke:#45423b;stroke-width:0;stroke-linecap:round;stroke-linejoin:round;paint-order:fill markers stroke"
       d="m 186.82507,-5.169571 c -2.12773,0 -8.54303,1.336158 -8.54303,2.995793 0,9.86e-4 -1e-5,0.0019 0,0.0029 v 2.992894 h 8.54303 8.54304 v -2.995794 c 0,-1.659635 -6.41532,-2.995793 -8.54304,-2.995793 z"
       sodipodi:nodetypes="zsccccsz" />
    <path
       id="rect280-0-0-7-0-3"
       style="fill:#a86465;fill-opacity:1;stroke:#45423b;stroke-width:0;stroke-linecap:round;stroke-linejoin:round;paint-order:fill markers stroke"
       d="m 207.99193,-10.061984 c -9.69848,0 -8.54304,1.759095 -8.54304,3.944058 0,0.0013 0,0.0025 0,0.0039 v 3.94019 h 8.54304 8.54303 v -3.944059 c 0,-2.184963 1.15544,-3.944058 -8.54303,-3.944058 z"
       sodipodi:nodetypes="zsccccsz" />
    <path
       id="rect280-7-3-2-0"
       style="fill:#bc7071;fill-opacity:1;stroke:#45423b;stroke-width:0;stroke-linecap:round;stroke-linejoin:round;paint-order:fill markers stroke"
       d="m 207.99193,-5.16966 c -2.12773,0 -8.54303,1.336158 -8.54303,2.995793 0,9.86e-4 -1e-5,0.0019 0,0.0029 v 2.992894 h 8.54303 8.54303 v -2.995794 c 0,-1.659635 -6.41531,-2.995793 -8.54303,-2.995793 z"
       sodipodi:nodetypes="zsccccsz" />
    <path
       id="rect280-0-0-2-6-7"
       style="fill:#a86465;fill-opacity:1;stroke:#45423b;stroke-width:0;stroke-linecap:round;stroke-linejoin:round;paint-order:fill markers stroke"
       d="m 229.15834,-10.061895 c -9.69848,0 -8.54304,1.759095 -8.54304,3.944058 0,0.0013 0,0.0025 0,0.0039 v 3.94019 h 8.54304 8.54303 v -3.944059 c 0,-2.184963 1.15544,-3.944058 -8.54303,-3.944058 z"
       sodipodi:nodetypes="zsccccsz" />
    <path
       id="rect280-7-6-0-4"
       style="fill:#bc7071;fill-opacity:1;stroke:#45423b;stroke-width:0;stroke-linecap:round;stroke-linejoin:round;paint-order:fill markers stroke"
       d="m 229.15834,-5.169571 c -2.12773,0 -8.54303,1.336158 -8.54303,2.995793 0,9.86e-4 -1e-5,0.0019 0,0.0029 v 2.992894 h 8.54303 8.54303 v -2.995794 c 0,-1.659635 -6.41531,-2.995793 -8.54303,-2.995793 z"
       sodipodi:nodetypes="zsccccsz" />
    <path
       id="rect280-0-0-7-5-6-7"
       style="fill:#a86465;fill-opacity:1;stroke:#45423b;stroke-width:0;stroke-linecap:round;stroke-linejoin:round;paint-order:fill markers stroke"
       d="m 250.32519,-10.061984 c -9.69848,0 -8.54304,1.759095 -8.54304,3.944058 0,0.0013 0,0.0025 0,0.0039 v 3.94019 h 8.54304 8.54303 v -3.944059 c 0,-2.184963 1.15544,-3.944058 -8.54303,-3.944058 z"
       sodipodi:nodetypes="zsccccsz" />
    <path
       id="rect280-7-3-7-1-8"
       style="fill:#bc7071;fill-opacity:1;stroke:#45423b;stroke-width:0;stroke-linecap:round;stroke-linejoin:round;paint-order:fill markers stroke"
       d="m 250.32519,-5.16966 c -2.12773,0 -8.54303,1.336158 -8.54303,2.995793 0,9.86e-4 -1e-5,0.0019 0,0.0029 v 2.992894 h 8.54303 8.54303 v -2.995794 c 0,-1.659635 -6.41531,-2.995793 -8.54303,-2.995793 z"
       sodipodi:nodetypes="zsccccsz" />
    <path
       id="rect280-0-0-0"
       style="fill:#a86465;fill-opacity:1;stroke:#45423b;stroke-width:0;stroke-linecap:round;stroke-linejoin:round;paint-order:fill markers stroke"
       d="m 186.53647,286.14935 c -9.69848,0 -8.54304,1.75909 -8.54304,3.94406 0,10e-4 0,0.002 0,0.004 v 3.94019 h 8.54304 8.54304 v -3.94406 c 0,-2.18497 1.15544,-3.94406 -8.54304,-3.94406 z"
       sodipodi:nodetypes="zsccccsz" />
    <path
       id="rect280-7-08"
       style="fill:#bc7071;fill-opacity:1;stroke:#45423b;stroke-width:0;stroke-linecap:round;stroke-linejoin:round;paint-order:fill markers stroke"
       d="m 186.53647,291.04167 c -2.12773,0 -8.54303,1.33616 -8.54303,2.9958 0,9.8e-4 -1e-5,0.002 0,0.003 v 2.99289 h 8.54303 8.54304 v -2.99579 c 0,-1.65964 -6.41532,-2.9958 -8.54304,-2.9958 z"
       sodipodi:nodetypes="zsccccsz" />
    <path
       id="rect280-0-0-7-34"
       style="fill:#a86465;fill-opacity:1;stroke:#45423b;stroke-width:0;stroke-linecap:round;stroke-linejoin:round;paint-order:fill markers stroke"
       d="m 207.70333,286.14926 c -9.69848,0 -8.54304,1.75909 -8.54304,3.94406 0,10e-4 0,0.002 0,0.004 v 3.94019 h 8.54304 8.54303 v -3.94406 c 0,-2.18496 1.15544,-3.94406 -8.54303,-3.94406 z"
       sodipodi:nodetypes="zsccccsz" />
    <path
       id="rect280-7-3-5"
       style="fill:#bc7071;fill-opacity:1;stroke:#45423b;stroke-width:0;stroke-linecap:round;stroke-linejoin:round;paint-order:fill markers stroke"
       d="m 207.70333,291.04158 c -2.12773,0 -8.54303,1.33616 -8.54303,2.9958 0,9.8e-4 -1e-5,0.002 0,0.003 v 2.99289 h 8.54303 8.54303 v -2.99579 c 0,-1.65964 -6.41531,-2.9958 -8.54303,-2.9958 z"
       sodipodi:nodetypes="zsccccsz" />
    <path
       id="rect280-0-0-2-0"
       style="fill:#a86465;fill-opacity:1;stroke:#45423b;stroke-width:0;stroke-linecap:round;stroke-linejoin:round;paint-order:fill markers stroke"
       d="m 228.86974,286.14935 c -9.69848,0 -8.54304,1.75909 -8.54304,3.94406 0,10e-4 0,0.002 0,0.004 v 3.94019 h 8.54304 8.54303 v -3.94406 c 0,-2.18497 1.15544,-3.94406 -8.54303,-3.94406 z"
       sodipodi:nodetypes="zsccccsz" />
    <path
       id="rect280-7-6-1"
       style="fill:#bc7071;fill-opacity:1;stroke:#45423b;stroke-width:0;stroke-linecap:round;stroke-linejoin:round;paint-order:fill markers stroke"
       d="m 228.86974,291.04167 c -2.12773,0 -8.54303,1.33616 -8.54303,2.9958 0,9.8e-4 -1e-5,0.002 0,0.003 v 2.99289 h 8.54303 8.54303 v -2.99579 c 0,-1.65964 -6.41531,-2.9958 -8.54303,-2.9958 z"
       sodipodi:nodetypes="zsccccsz" />
    <path
       id="rect280-0-0-7-5-4"
       style="fill:#a86465;fill-opacity:1;stroke:#45423b;stroke-width:0;stroke-linecap:round;stroke-linejoin:round;paint-order:fill markers stroke"
       d="m 250.03659,286.14926 c -9.69848,0 -8.54304,1.75909 -8.54304,3.94406 0,10e-4 0,0.002 0,0.004 v 3.94019 h 8.54304 8.54303 v -3.94406 c 0,-2.18496 1.15544,-3.94406 -8.54303,-3.94406 z"
       sodipodi:nodetypes="zsccccsz" />
    <path
       id="rect280-7-3-7-5"
       style="fill:#bc7071;fill-opacity:1;stroke:#45423b;stroke-width:0;stroke-linecap:round;stroke-linejoin:round;paint-order:fill markers stroke"
       d="m 250.03659,291.04158 c -2.12773,0 -8.54303,1.33616 -8.54303,2.9958 0,9.8e-4 -1e-5,0.002 0,0.003 v 2.99289 h 8.54303 8.54303 v -2.99579 c 0,-1.65964 -6.41531,-2.9958 -8.54303,-2.9958 z"
       sodipodi:nodetypes="zsccccsz" />
    <path
       id="rect280-0-0-79-6"
       style="fill:#a86465;fill-opacity:1;stroke:#45423b;stroke-width:0;stroke-linecap:round;stroke-linejoin:round;paint-order:fill markers stroke"
       d="m 186.53647,265.0488 c -9.69848,0 -8.54304,1.75909 -8.54304,3.94405 0,0.001 0,0.002 0,0.004 v 3.94018 h 8.54304 8.54303 v -3.94405 c 0,-2.18497 1.15544,-3.94406 -8.54303,-3.94406 z"
       sodipodi:nodetypes="zsccccsz" />
    <path
       id="rect280-7-8-2"
       style="fill:#bc7071;fill-opacity:1;stroke:#45423b;stroke-width:0;stroke-linecap:round;stroke-linejoin:round;paint-order:fill markers stroke"
       d="m 186.53647,269.94112 c -2.12773,0 -8.54303,1.33616 -8.54303,2.99579 0,9.9e-4 -1e-5,0.002 0,0.003 v 2.9929 h 8.54303 8.54303 v -2.9958 c 0,-1.65963 -6.41531,-2.99579 -8.54303,-2.99579 z"
       sodipodi:nodetypes="zsccccsz" />
    <path
       id="rect280-0-0-7-3-0"
       style="fill:#a86465;fill-opacity:1;stroke:#45423b;stroke-width:0;stroke-linecap:round;stroke-linejoin:round;paint-order:fill markers stroke"
       d="m 207.70332,265.04871 c -9.69848,0 -8.54304,1.75909 -8.54304,3.94406 0,10e-4 0,0.002 0,0.004 v 3.94019 h 8.54304 8.54303 v -3.94406 c 0,-2.18497 1.15544,-3.94406 -8.54303,-3.94406 z"
       sodipodi:nodetypes="zsccccsz" />
    <path
       id="rect280-7-3-0-3"
       style="fill:#bc7071;fill-opacity:1;stroke:#45423b;stroke-width:0;stroke-linecap:round;stroke-linejoin:round;paint-order:fill markers stroke"
       d="m 207.70332,269.94103 c -2.12773,0 -8.54303,1.33616 -8.54303,2.99579 0,9.9e-4 -1e-5,0.002 0,0.003 v 2.9929 h 8.54303 8.54303 v -2.9958 c 0,-1.65963 -6.41531,-2.99579 -8.54303,-2.99579 z"
       sodipodi:nodetypes="zsccccsz" />
    <path
       id="rect280-0-0-2-2-56"
       style="fill:#a86465;fill-opacity:1;stroke:#45423b;stroke-width:0;stroke-linecap:round;stroke-linejoin:round;paint-order:fill markers stroke"
       d="m 228.86973,265.0488 c -9.69848,0 -8.54304,1.75909 -8.54304,3.94405 0,0.001 0,0.002 0,0.004 v 3.94018 h 8.54304 8.54303 v -3.94405 c 0,-2.18497 1.15544,-3.94406 -8.54303,-3.94406 z"
       sodipodi:nodetypes="zsccccsz" />
    <path
       id="rect280-7-6-2-6"
       style="fill:#bc7071;fill-opacity:1;stroke:#45423b;stroke-width:0;stroke-linecap:round;stroke-linejoin:round;paint-order:fill markers stroke"
       d="m 228.86973,269.94112 c -2.12773,0 -8.54303,1.33616 -8.54303,2.99579 0,9.9e-4 -10e-6,0.002 0,0.003 v 2.9929 h 8.54303 8.54303 v -2.9958 c 0,-1.65963 -6.41531,-2.99579 -8.54303,-2.99579 z"
       sodipodi:nodetypes="zsccccsz" />
    <path
       id="rect280-0-0-7-5-3-6"
       style="fill:#a86465;fill-opacity:1;stroke:#45423b;stroke-width:0;stroke-linecap:round;stroke-linejoin:round;paint-order:fill markers stroke"
       d="m 250.03658,265.04871 c -9.69848,0 -8.54304,1.75909 -8.54304,3.94406 0,10e-4 0,0.002 0,0.004 v 3.94019 h 8.54304 8.54303 v -3.94406 c 0,-2.18497 1.15544,-3.94406 -8.54303,-3.94406 z"
       sodipodi:nodetypes="zsccccsz" />
    <path
       id="rect280-7-3-7-6-7"
       style="fill:#bc7071;fill-opacity:1;stroke:#45423b;stroke-width:0;stroke-linecap:round;stroke-linejoin:round;paint-order:fill markers stroke"
       d="m 250.03658,269.94103 c -2.12773,0 -8.54303,1.33616 -8.54303,2.99579 0,9.9e-4 -1e-5,0.002 0,0.003 v 2.9929 h 8.54303 8.54303 v -2.9958 c 0,-1.65963 -6.41531,-2.99579 -8.54303,-2.99579 z"
       sodipodi:nodetypes="zsccccsz" />
    <path
       id="rect280-0-0-5-6"
       style="fill:#a86465;fill-opacity:1;stroke:#45423b;stroke-width:0;stroke-linecap:round;stroke-linejoin:round;paint-order:fill markers stroke"
       d="m 186.53646,244.08057 c -9.69848,0 -8.54304,1.75909 -8.54304,3.94406 0,0.001 0,0.002 0,0.004 v 3.94019 h 8.54304 8.54304 v -3.94406 c 0,-2.18497 1.15544,-3.94406 -8.54304,-3.94406 z"
       sodipodi:nodetypes="zsccccsz" />
    <path
       id="rect280-7-4-7"
       style="fill:#bc7071;fill-opacity:1;stroke:#45423b;stroke-width:0;stroke-linecap:round;stroke-linejoin:round;paint-order:fill markers stroke"
       d="m 186.53646,248.97289 c -2.12773,0 -8.54303,1.33616 -8.54303,2.99579 0,9.9e-4 -1e-5,0.002 0,0.003 v 2.99289 h 8.54303 8.54304 v -2.9958 c 0,-1.65963 -6.41532,-2.99579 -8.54304,-2.99579 z"
       sodipodi:nodetypes="zsccccsz" />
    <path
       id="rect280-0-0-7-0-7"
       style="fill:#a86465;fill-opacity:1;stroke:#45423b;stroke-width:0;stroke-linecap:round;stroke-linejoin:round;paint-order:fill markers stroke"
       d="m 207.70332,244.08048 c -9.69848,0 -8.54304,1.75909 -8.54304,3.94406 0,0.001 0,0.002 0,0.004 v 3.94019 h 8.54304 8.54303 v -3.94406 c 0,-2.18496 1.15544,-3.94406 -8.54303,-3.94406 z"
       sodipodi:nodetypes="zsccccsz" />
    <path
       id="rect280-7-3-2-1"
       style="fill:#bc7071;fill-opacity:1;stroke:#45423b;stroke-width:0;stroke-linecap:round;stroke-linejoin:round;paint-order:fill markers stroke"
       d="m 207.70332,248.9728 c -2.12773,0 -8.54303,1.33616 -8.54303,2.9958 0,9.8e-4 -1e-5,0.002 0,0.003 v 2.99289 h 8.54303 8.54303 v -2.99579 c 0,-1.65964 -6.41531,-2.9958 -8.54303,-2.9958 z"
       sodipodi:nodetypes="zsccccsz" />
    <path
       id="rect280-0-0-2-6-9"
       style="fill:#a86465;fill-opacity:1;stroke:#45423b;stroke-width:0;stroke-linecap:round;stroke-linejoin:round;paint-order:fill markers stroke"
       d="m 228.86973,244.08057 c -9.69848,0 -8.54304,1.75909 -8.54304,3.94406 0,0.001 0,0.002 0,0.004 v 3.94019 h 8.54304 8.54303 v -3.94406 c 0,-2.18497 1.15544,-3.94406 -8.54303,-3.94406 z"
       sodipodi:nodetypes="zsccccsz" />
    <path
       id="rect280-7-6-0-1"
       style="fill:#bc7071;fill-opacity:1;stroke:#45423b;stroke-width:0;stroke-linecap:round;stroke-linejoin:round;paint-order:fill markers stroke"
       d="m 228.86973,248.97289 c -2.12773,0 -8.54303,1.33616 -8.54303,2.99579 0,9.9e-4 -10e-6,0.002 0,0.003 v 2.99289 h 8.54303 8.54303 v -2.9958 c 0,-1.65963 -6.41531,-2.99579 -8.54303,-2.99579 z"
       sodipodi:nodetypes="zsccccsz" />
    <path
       id="rect280-0-0-7-5-6-6"
       style="fill:#a86465;fill-opacity:1;stroke:#45423b;stroke-width:0;stroke-linecap:round;stroke-linejoin:round;paint-order:fill markers stroke"
       d="m 250.03658,244.08048 c -9.69848,0 -8.54304,1.75909 -8.54304,3.94406 0,0.001 0,0.002 0,0.004 v 3.94019 h 8.54304 8.54303 v -3.94406 c 0,-2.18496 1.15544,-3.94406 -8.54303,-3.94406 z"
       sodipodi:nodetypes="zsccccsz" />
    <path
       id="rect280-7-3-7-1-2"
       style="fill:#bc7071;fill-opacity:1;stroke:#45423b;stroke-width:0;stroke-linecap:round;stroke-linejoin:round;paint-order:fill markers stroke"
       d="m 250.03658,248.9728 c -2.12773,0 -8.54303,1.33616 -8.54303,2.9958 0,9.8e-4 -1e-5,0.002 0,0.003 v 2.99289 h 8.54303 8.54303 v -2.99579 c 0,-1.65964 -6.41531,-2.9958 -8.54303,-2.9958 z"
       sodipodi:nodetypes="zsccccsz" />
    <path
       id="rect280-0-0-6"
       style="fill:#a86465;fill-opacity:1;stroke:#45423b;stroke-width:0;stroke-linecap:round;stroke-linejoin:round;paint-order:fill markers stroke"
       d="m 59.64565,286.13652 c -9.69848,0 -8.54304,1.75909 -8.54304,3.94406 0,10e-4 0,0.002 0,0.004 v 3.94019 h 8.54304 8.543037 v -3.94406 c 0,-2.18497 1.15544,-3.94406 -8.543037,-3.94406 z"
       sodipodi:nodetypes="zsccccsz" />
    <path
       id="rect280-7-5"
       style="fill:#bc7071;fill-opacity:1;stroke:#45423b;stroke-width:0;stroke-linecap:round;stroke-linejoin:round;paint-order:fill markers stroke"
       d="m 59.64565,291.02884 c -2.12773,0 -8.54303,1.33616 -8.54303,2.9958 0,9.8e-4 -1e-5,0.002 0,0.003 v 2.99289 h 8.54303 8.543037 v -2.99579 c 0,-1.65964 -6.415317,-2.9958 -8.543037,-2.9958 z"
       sodipodi:nodetypes="zsccccsz" />
    <path
       id="rect280-0-0-7-1"
       style="fill:#a86465;fill-opacity:1;stroke:#45423b;stroke-width:0;stroke-linecap:round;stroke-linejoin:round;paint-order:fill markers stroke"
       d="m 80.812507,286.13643 c -9.69848,0 -8.54304,1.7591 -8.54304,3.94406 0,10e-4 0,0.002 0,0.004 v 3.94019 h 8.54304 8.54303 v -3.94406 c 0,-2.18496 1.15544,-3.94406 -8.54303,-3.94406 z"
       sodipodi:nodetypes="zsccccsz" />
    <path
       id="rect280-7-3-3"
       style="fill:#bc7071;fill-opacity:1;stroke:#45423b;stroke-width:0;stroke-linecap:round;stroke-linejoin:round;paint-order:fill markers stroke"
       d="m 80.812507,291.02875 c -2.12773,0 -8.54303,1.33616 -8.54303,2.9958 0,9.8e-4 -10e-6,0.002 0,0.003 v 2.99289 h 8.54303 8.54303 v -2.99579 c 0,-1.65964 -6.41531,-2.9958 -8.54303,-2.9958 z"
       sodipodi:nodetypes="zsccccsz" />
    <path
       id="rect280-0-0-2-9"
       style="fill:#a86465;fill-opacity:1;stroke:#45423b;stroke-width:0;stroke-linecap:round;stroke-linejoin:round;paint-order:fill markers stroke"
       d="m 101.97892,286.13652 c -9.698483,0 -8.543043,1.75909 -8.543043,3.94406 0,10e-4 0,0.002 0,0.004 v 3.94019 h 8.543043 8.54303 v -3.94406 c 0,-2.18497 1.15544,-3.94406 -8.54303,-3.94406 z"
       sodipodi:nodetypes="zsccccsz" />
    <path
       id="rect280-7-6-9"
       style="fill:#bc7071;fill-opacity:1;stroke:#45423b;stroke-width:0;stroke-linecap:round;stroke-linejoin:round;paint-order:fill markers stroke"
       d="m 101.97892,291.02884 c -2.127733,0 -8.543033,1.33616 -8.543033,2.9958 0,9.8e-4 -10e-6,0.002 0,0.003 v 2.99289 h 8.543033 8.54303 v -2.99579 c 0,-1.65964 -6.41531,-2.9958 -8.54303,-2.9958 z"
       sodipodi:nodetypes="zsccccsz" />
    <path
       id="rect280-0-0-7-5-5"
       style="fill:#a86465;fill-opacity:1;stroke:#45423b;stroke-width:0;stroke-linecap:round;stroke-linejoin:round;paint-order:fill markers stroke"
       d="m 123.14577,286.13643 c -9.69848,0 -8.54304,1.7591 -8.54304,3.94406 0,10e-4 0,0.002 0,0.004 v 3.94019 h 8.54304 8.54303 v -3.94406 c 0,-2.18496 1.15544,-3.94406 -8.54303,-3.94406 z"
       sodipodi:nodetypes="zsccccsz" />
    <path
       id="rect280-7-3-7-92"
       style="fill:#bc7071;fill-opacity:1;stroke:#45423b;stroke-width:0;stroke-linecap:round;stroke-linejoin:round;paint-order:fill markers stroke"
       d="m 123.14577,291.02875 c -2.12773,0 -8.54303,1.33616 -8.54303,2.9958 0,9.8e-4 -1e-5,0.002 0,0.003 v 2.99289 h 8.54303 8.54303 v -2.99579 c 0,-1.65964 -6.41531,-2.9958 -8.54303,-2.9958 z"
       sodipodi:nodetypes="zsccccsz" />
    <path
       id="rect280-0-0-79-65"
       style="fill:#a86465;fill-opacity:1;stroke:#45423b;stroke-width:0;stroke-linecap:round;stroke-linejoin:round;paint-order:fill markers stroke"
       d="m 59.64565,265.03597 c -9.69848,0 -8.54304,1.75909 -8.54304,3.94406 0,10e-4 0,0.002 0,0.004 v 3.9402 h 8.54304 8.543027 v -3.94406 c 0,-2.18497 1.15544,-3.94406 -8.543027,-3.94406 z"
       sodipodi:nodetypes="zsccccsz" />
    <path
       id="rect280-7-8-32"
       style="fill:#bc7071;fill-opacity:1;stroke:#45423b;stroke-width:0;stroke-linecap:round;stroke-linejoin:round;paint-order:fill markers stroke"
       d="m 59.64565,269.92829 c -2.12773,0 -8.54303,1.33616 -8.54303,2.99579 0,9.9e-4 -1e-5,0.002 0,0.003 v 2.9929 h 8.54303 8.543027 v -2.9958 c 0,-1.65963 -6.415307,-2.99579 -8.543027,-2.99579 z"
       sodipodi:nodetypes="zsccccsz" />
    <path
       id="rect280-0-0-7-3-4"
       style="fill:#a86465;fill-opacity:1;stroke:#45423b;stroke-width:0;stroke-linecap:round;stroke-linejoin:round;paint-order:fill markers stroke"
       d="m 80.812497,265.03588 c -9.69848,0 -8.54304,1.75909 -8.54304,3.94406 0,10e-4 0,0.002 0,0.004 v 3.94019 h 8.54304 8.54303 v -3.94406 c 0,-2.18497 1.15544,-3.94406 -8.54303,-3.94406 z"
       sodipodi:nodetypes="zsccccsz" />
    <path
       id="rect280-7-3-0-4"
       style="fill:#bc7071;fill-opacity:1;stroke:#45423b;stroke-width:0;stroke-linecap:round;stroke-linejoin:round;paint-order:fill markers stroke"
       d="m 80.812497,269.9282 c -2.12773,0 -8.54303,1.33616 -8.54303,2.99579 0,9.9e-4 -1e-5,0.002 0,0.003 v 2.9929 h 8.54303 8.54303 v -2.9958 c 0,-1.65963 -6.41531,-2.99579 -8.54303,-2.99579 z"
       sodipodi:nodetypes="zsccccsz" />
    <path
       id="rect280-0-0-2-2-4"
       style="fill:#a86465;fill-opacity:1;stroke:#45423b;stroke-width:0;stroke-linecap:round;stroke-linejoin:round;paint-order:fill markers stroke"
       d="m 101.97891,265.03597 c -9.698483,0 -8.543043,1.75909 -8.543043,3.94406 0,10e-4 0,0.002 0,0.004 v 3.9402 h 8.543043 8.54303 v -3.94406 c 0,-2.18497 1.15544,-3.94406 -8.54303,-3.94406 z"
       sodipodi:nodetypes="zsccccsz" />
    <path
       id="rect280-7-6-2-2"
       style="fill:#bc7071;fill-opacity:1;stroke:#45423b;stroke-width:0;stroke-linecap:round;stroke-linejoin:round;paint-order:fill markers stroke"
       d="m 101.97891,269.92829 c -2.127733,0 -8.543033,1.33616 -8.543033,2.99579 0,9.9e-4 -1e-5,0.002 0,0.003 v 2.9929 h 8.543033 8.54303 v -2.9958 c 0,-1.65963 -6.41531,-2.99579 -8.54303,-2.99579 z"
       sodipodi:nodetypes="zsccccsz" />
    <path
       id="rect280-0-0-7-5-3-79"
       style="fill:#a86465;fill-opacity:1;stroke:#45423b;stroke-width:0;stroke-linecap:round;stroke-linejoin:round;paint-order:fill markers stroke"
       d="m 123.14576,265.03588 c -9.69848,0 -8.54304,1.75909 -8.54304,3.94406 0,10e-4 0,0.002 0,0.004 v 3.94019 h 8.54304 8.54303 v -3.94406 c 0,-2.18497 1.15544,-3.94406 -8.54303,-3.94406 z"
       sodipodi:nodetypes="zsccccsz" />
    <path
       id="rect280-7-3-7-6-2"
       style="fill:#bc7071;fill-opacity:1;stroke:#45423b;stroke-width:0;stroke-linecap:round;stroke-linejoin:round;paint-order:fill markers stroke"
       d="m 123.14576,269.9282 c -2.12773,0 -8.54303,1.33616 -8.54303,2.99579 0,9.9e-4 -10e-6,0.002 0,0.003 v 2.9929 h 8.54303 8.54303 v -2.9958 c 0,-1.65963 -6.41531,-2.99579 -8.54303,-2.99579 z"
       sodipodi:nodetypes="zsccccsz" />
    <path
       id="rect280-0-0-5-3"
       style="fill:#a86465;fill-opacity:1;stroke:#45423b;stroke-width:0;stroke-linecap:round;stroke-linejoin:round;paint-order:fill markers stroke"
       d="m 59.64564,244.06774 c -9.69848,0 -8.54304,1.75909 -8.54304,3.94406 0,0.001 0,0.002 0,0.004 v 3.94019 h 8.54304 8.543037 v -3.94406 c 0,-2.18497 1.15544,-3.94406 -8.543037,-3.94406 z"
       sodipodi:nodetypes="zsccccsz" />
    <path
       id="rect280-7-4-73"
       style="fill:#bc7071;fill-opacity:1;stroke:#45423b;stroke-width:0;stroke-linecap:round;stroke-linejoin:round;paint-order:fill markers stroke"
       d="m 59.64564,248.96006 c -2.12773,0 -8.54303,1.33616 -8.54303,2.99579 0,9.9e-4 -10e-6,0.002 0,0.003 v 2.9929 h 8.54303 8.543037 v -2.9958 c 0,-1.65963 -6.415317,-2.99579 -8.543037,-2.99579 z"
       sodipodi:nodetypes="zsccccsz" />
    <path
       id="rect280-0-0-7-0-1"
       style="fill:#a86465;fill-opacity:1;stroke:#45423b;stroke-width:0;stroke-linecap:round;stroke-linejoin:round;paint-order:fill markers stroke"
       d="m 80.812497,244.06765 c -9.69848,0 -8.54304,1.75909 -8.54304,3.94406 0,0.001 0,0.002 0,0.004 v 3.94019 h 8.54304 8.54303 v -3.94406 c 0,-2.18497 1.15544,-3.94406 -8.54303,-3.94406 z"
       sodipodi:nodetypes="zsccccsz" />
    <path
       id="rect280-7-3-2-5"
       style="fill:#bc7071;fill-opacity:1;stroke:#45423b;stroke-width:0;stroke-linecap:round;stroke-linejoin:round;paint-order:fill markers stroke"
       d="m 80.812497,248.95997 c -2.12773,0 -8.54303,1.33616 -8.54303,2.9958 0,9.8e-4 -1e-5,0.002 0,0.003 v 2.99289 h 8.54303 8.54303 v -2.99579 c 0,-1.65964 -6.41531,-2.9958 -8.54303,-2.9958 z"
       sodipodi:nodetypes="zsccccsz" />
    <path
       id="rect280-0-0-2-6-78"
       style="fill:#a86465;fill-opacity:1;stroke:#45423b;stroke-width:0;stroke-linecap:round;stroke-linejoin:round;paint-order:fill markers stroke"
       d="m 101.97891,244.06774 c -9.698483,0 -8.543043,1.75909 -8.543043,3.94406 0,0.001 0,0.002 0,0.004 v 3.94019 h 8.543043 8.54303 v -3.94406 c 0,-2.18497 1.15544,-3.94406 -8.54303,-3.94406 z"
       sodipodi:nodetypes="zsccccsz" />
    <path
       id="rect280-7-6-0-5"
       style="fill:#bc7071;fill-opacity:1;stroke:#45423b;stroke-width:0;stroke-linecap:round;stroke-linejoin:round;paint-order:fill markers stroke"
       d="m 101.97891,248.96006 c -2.127733,0 -8.543033,1.33616 -8.543033,2.99579 0,9.9e-4 -1e-5,0.002 0,0.003 v 2.9929 h 8.543033 8.54303 v -2.9958 c 0,-1.65963 -6.41531,-2.99579 -8.54303,-2.99579 z"
       sodipodi:nodetypes="zsccccsz" />
    <path
       id="rect280-0-0-7-5-6-8"
       style="fill:#a86465;fill-opacity:1;stroke:#45423b;stroke-width:0;stroke-linecap:round;stroke-linejoin:round;paint-order:fill markers stroke"
       d="m 123.14576,244.06765 c -9.69848,0 -8.54304,1.75909 -8.54304,3.94406 0,0.001 0,0.002 0,0.004 v 3.94019 h 8.54304 8.54303 v -3.94406 c 0,-2.18497 1.15544,-3.94406 -8.54303,-3.94406 z"
       sodipodi:nodetypes="zsccccsz" />
    <path
       id="rect280-7-3-7-1-3"
       style="fill:#bc7071;fill-opacity:1;stroke:#45423b;stroke-width:0;stroke-linecap:round;stroke-linejoin:round;paint-order:fill markers stroke"
       d="m 123.14576,248.95997 c -2.12773,0 -8.54303,1.33616 -8.54303,2.9958 0,9.8e-4 -10e-6,0.002 0,0.003 v 2.99289 h 8.54303 8.54303 v -2.99579 c 0,-1.65964 -6.41531,-2.9958 -8.54303,-2.9958 z"
       sodipodi:nodetypes="zsccccsz" />
  </g>
</svg>
