<?xml version="1.0" encoding="UTF-8" standalone="no"?>
<!-- Created with Inkscape (http://www.inkscape.org/) -->

<svg
   width="2000.11"
   height="895.69"
   viewBox="0 0 529.1947 236.98398"
   version="1.1"
   id="svg1"
   inkscape:version="1.4.2 (f4327f4, 2025-05-13)"
   sodipodi:docname="CountDownContainerFruitBodyMask.svg"
   xmlns:inkscape="http://www.inkscape.org/namespaces/inkscape"
   xmlns:sodipodi="http://sodipodi.sourceforge.net/DTD/sodipodi-0.dtd"
   xmlns="http://www.w3.org/2000/svg"
   xmlns:svg="http://www.w3.org/2000/svg">
  <sodipodi:namedview
     id="namedview1"
     pagecolor="#ffffff"
     bordercolor="#000000"
     borderopacity="0.25"
     inkscape:showpageshadow="2"
     inkscape:pageopacity="0.0"
     inkscape:pagecheckerboard="0"
     inkscape:deskcolor="#d1d1d1"
     inkscape:document-units="mm"
     inkscape:zoom="1.1357605"
     inkscape:cx="920.08835"
     inkscape:cy="627.33296"
     inkscape:window-width="3840"
     inkscape:window-height="2054"
     inkscape:window-x="-11"
     inkscape:window-y="-11"
     inkscape:window-maximized="1"
     inkscape:current-layer="layer1"
     showgrid="true">
    <inkscape:grid
       id="grid1"
       units="mm"
       originx="139"
       originy="10.68689"
       spacingx="0.99999999"
       spacingy="0.99999998"
       empcolor="#0099e5"
       empopacity="0.30196078"
       color="#0099e5"
       opacity="0.14901961"
       empspacing="5"
       enabled="true"
       visible="true" />
  </sodipodi:namedview>
  <defs
     id="defs1">
    <inkscape:path-effect
       effect="mirror_symmetry"
       start_point="77.199904,69.000027"
       end_point="77.199904,93.044622"
       center_point="77.199904,81.022324"
       id="path-effect2"
       is_visible="true"
       lpeversion="1.2"
       lpesatellites=""
       mode="free"
       discard_orig_path="false"
       fuse_paths="false"
       oposite_fuse="false"
       split_items="false"
       split_open="false"
       link_styles="false" />
    <inkscape:path-effect
       effect="fillet_chamfer"
       id="path-effect5"
       is_visible="true"
       lpeversion="1"
       nodesatellites_param="F,0,0,1,0,0,0,1 @ F,0,0,1,0,2.0496102,0,1 @ F,0,0,1,0,0,0,1"
       radius="0"
       unit="px"
       method="auto"
       mode="F"
       chamfer_steps="1"
       flexible="false"
       use_knot_distance="true"
       apply_no_radius="true"
       apply_with_radius="true"
       only_selected="false"
       hide_knots="false" />
    <inkscape:path-effect
       effect="fillet_chamfer"
       id="path-effect28"
       is_visible="true"
       lpeversion="1"
       nodesatellites_param="F,0,0,1,0,0,0,1 @ F,0,0,1,0,0,0,1 @ F,0,0,1,0,0,0,1 @ F,0,0,1,0,0,0,1 @ F,0,0,1,0,0,0,1 @ F,0,0,1,0,0,0,1 @ F,0,0,1,0,0,0,1 @ F,0,0,1,0,0,0,1 @ F,0,0,1,0,0,0,1 @ F,0,0,1,0,0,0,1 @ F,0,0,1,0,0,0,1 @ F,0,0,1,0,0,0,1 | F,0,0,1,0,0,0,1 @ F,0,0,1,0,0,0,1 @ F,0,0,1,0,0,0,1 @ F,0,0,1,0,0,0,1 @ F,0,0,1,0,0,0,1 @ F,0,0,1,0,0,0,1 @ F,0,0,1,0,0,0,1 @ F,0,0,1,0,0,0,1 @ F,0,0,1,0,0,0,1 @ F,0,0,1,0,0,0,1 @ F,0,0,1,0,0,0,1"
       radius="0"
       unit="px"
       method="auto"
       mode="F"
       chamfer_steps="1"
       flexible="false"
       use_knot_distance="true"
       apply_no_radius="true"
       apply_with_radius="true"
       only_selected="false"
       hide_knots="false" />
    <inkscape:path-effect
       effect="powerstroke"
       message=""
       id="path-effect4"
       is_visible="true"
       lpeversion="1.3"
       scale_width="1"
       interpolator_type="CentripetalCatmullRom"
       interpolator_beta="0.75"
       start_linecap_type="round"
       end_linecap_type="round"
       offset_points="10.839744,0.43679433"
       linejoin_type="spiro"
       miter_limit="4"
       not_jump="true"
       sort_points="true" />
    <inkscape:path-effect
       effect="simplify"
       id="path-effect3"
       is_visible="true"
       lpeversion="1.3"
       threshold="0.012"
       steps="1"
       smooth_angles="0"
       helper_size="0"
       simplify_individual_paths="false"
       simplify_just_coalesce="false"
       step="1" />
    <inkscape:path-effect
       effect="fillet_chamfer"
       id="path-effect5-4"
       is_visible="true"
       lpeversion="1"
       nodesatellites_param="F,0,0,1,0,0,0,1 @ F,0,0,1,0,2.0496102,0,1 @ F,0,0,1,0,0,0,1"
       radius="0"
       unit="px"
       method="auto"
       mode="F"
       chamfer_steps="1"
       flexible="false"
       use_knot_distance="true"
       apply_no_radius="true"
       apply_with_radius="true"
       only_selected="false"
       hide_knots="false" />
    <inkscape:path-effect
       effect="fillet_chamfer"
       id="path-effect5-4-5"
       is_visible="true"
       lpeversion="1"
       nodesatellites_param="F,0,0,1,0,0,0,1 @ F,0,0,1,0,2.0496102,0,1 @ F,0,0,1,0,0,0,1"
       radius="0"
       unit="px"
       method="auto"
       mode="F"
       chamfer_steps="1"
       flexible="false"
       use_knot_distance="true"
       apply_no_radius="true"
       apply_with_radius="true"
       only_selected="false"
       hide_knots="false" />
  </defs>
  <g
     inkscape:label="Ebene 1"
     inkscape:groupmode="layer"
     id="layer1"
     transform="translate(138.80001,10.686892)">
    <path
       d="m 165.08975,77.24758 v 5.17e-4 c -16.63451,-0.634972 -29.08756,4.216786 -29.08756,4.216786 a 21.212626,21.212626 0 0 0 -0.49041,0.271301 c -5.27541,0.449057 -9.16906,1.11564 -12.57439,1.820556 -3.48953,-0.78345 -7.7519,-1.534767 -13.95312,-2.064468 a 21.212626,21.212626 0 0 0 -0.54467,-0.302823 c 0,0 -13.52293,-4.098494 -29.515958,-3.826114 -5.334123,0.09084 -11.128342,0.643579 -17.294509,2.457208 -1.852113,0.544759 -3.792005,1.286341 -5.740205,2.171439 -5.853713,-0.317262 -12.517265,-0.0562 -20.013717,2.148701 -2.623208,0.77155 -5.692293,2.280626 -8.699189,4.211102 -5.820377,0.370246 -12.359511,1.414634 -19.5140077,4.488087 -3.2795034,1.408834 -6.68267193,3.408494 -10.0055666,6.73239 -5.3893743,1.575608 -11.3151707,4.337138 -17.3518707,10.996198 -2.703695,2.98239 -4.916283,7.70809 -5.980499,12.77904 -3.777964,4.85743 -7.202413,10.94468 -8.59377,18.8789 -0.0513,0.29255 -0.07629,0.5625 -0.118855,0.84801 -0.04999,0.24587 -0.09951,0.4589 -0.148311,0.72657 -0.04056,0.22248 -0.01363,0.46301 -0.04909,0.68729 -0.0012,0.008 -8.17e-4,0.0157 -0.0021,0.0233 -1.329386,8.45307 0.890289,18.10764 6.271437,24.83046 2.505806,3.13057 5.496139,5.51853 8.678002,7.40005 3.63931,5.18906 8.676805,9.36254 14.3164043,11.99614 0.9163264,1.46214 1.8337945,2.93195 2.9998097,4.1956 2.36274936,2.5606 5.1598311,4.4498 8.0919929,6.00737 1.4133615,2.36969 3.0157747,4.6068 4.9821131,6.48279 4.343478,4.14391 9.661445,6.68771 15.152527,7.98038 0.658172,0.82615 1.20747,1.74657 1.94923,2.49234 6.484752,6.51986 15.306436,9.60508 23.70909,9.60508 6.509105,0 12.706339,-1.90142 18.155954,-5.07772 3.637114,-0.65026 7.072423,-1.94856 10.308906,-3.63284 1.718764,-0.24824 3.388492,-0.58971 5.027072,-1.09192 1.068243,0.096 2.135554,0.33176 3.19928,0.33176 2.805809,0 5.564232,-0.36214 8.240304,-0.99012 1.580349,0.21312 3.159008,0.53124 4.736136,0.53124 4.97772,0 9.79276,-1.09856 14.23062,-3.01532 4.16378,1.65324 8.62411,2.62103 13.2343,2.62103 1.21366,0 2.43571,-0.14068 3.6561,-0.26769 4.41567,1.94198 9.1215,3.09386 13.72471,3.09386 2.39402,0 4.73593,-0.31581 7.03935,-0.77566 3.92927,1.44083 8.08852,2.3244 12.39249,2.3244 1.8752,0 3.77386,-0.32437 5.66579,-0.64647 5.38209,3.08167 11.50595,4.87669 17.89861,4.87669 6.33061,0 12.93516,-2.03857 18.56626,-5.72831 1.07949,-0.0749 2.15344,-0.16386 3.23081,-0.34003 3.41846,1.05936 6.99098,1.70118 10.66185,1.70118 7.04565,0 14.42896,-2.38452 20.41989,-6.89414 5.71308,-1.6317 11.16852,-4.60743 15.38869,-9.3286 5.33522,-5.96859 7.91937,-14.18893 7.9163,-22.13658 2.37947,-3.09332 4.22636,-6.57146 5.51127,-10.23243 6.02621,-7.06303 9.66213,-16.79441 8.26563,-25.99783 l -0.002,-0.0103 c -0.0373,-0.24519 -0.0103,-0.49571 -0.0548,-0.74 a 21.212626,21.212626 0 0 0 0,-0.002 c -0.05,-0.27432 -0.10316,-0.49429 -0.15451,-0.74621 -0.0418,-0.27901 -0.0652,-0.54242 -0.11524,-0.82785 l 0.002,0.002 c -1.39155,-7.93544 -4.81719,-14.02325 -8.59584,-18.88098 -1.06319,-5.06602 -3.2705,-9.79272 -5.97636,-12.77748 -6.03884,-6.6614 -11.96498,-9.42207 -17.35342,-10.9962 -3.32464,-3.325176 -6.72812,-5.32216 -10.00609,-6.730323 -7.15194,-3.072387 -13.68922,-4.116893 -19.50987,-4.488087 -3.00801,-1.931773 -6.07853,-3.441302 -8.70281,-4.213169 -7.49645,-2.204893 -14.16001,-2.465446 -20.01372,-2.148185 -1.9482,-0.8851 -3.88809,-1.627197 -5.7402,-2.171955 -6.1679,-1.814139 -12.176,-2.636224 -17.72084,-2.847881 z M 79.134999,89.707254 c 13.625687,-0.232062 25.952871,3.365162 25.952871,3.365162 a 8.8652081,8.8652081 0 0 1 0.60152,0.546735 c 8.18719,0.512351 14.17363,1.82123 17.13276,2.564695 3.42794,-0.79028 8.98143,-1.768454 15.84964,-2.216914 a 8.8652081,8.8652081 0 0 1 0.68368,-0.619082 c 0,0 21.11887,-6.953567 39.97265,-1.408179 2.36582,0.695852 4.6192,1.655535 6.63886,3.048385 5.78954,-0.543846 12.32069,-0.726644 19.11507,1.271754 2.78442,0.818969 5.67641,2.310192 7.94936,4.51961 5.7775,0.13983 12.43918,0.91765 18.87271,3.68142 2.42472,1.04162 4.65764,2.35583 6.60371,4.44365 0.48147,0.51653 0.81663,1.26451 1.2361,1.9022 5.08155,1.19932 10.65018,3.26288 15.24451,8.33022 2.14102,2.3617 3.60092,6.07511 3.52742,9.67949 3.5588,3.94291 6.86056,9.14349 8.03102,15.81812 0.0532,0.30299 0.0859,0.59144 0.12506,0.88521 0.0537,0.25178 0.10823,0.49785 0.15813,0.77153 1.29815,7.12096 -1.82824,14.1554 -6.87502,18.48823 -0.90753,4.9327 -3.5671,9.31679 -7.27913,12.408 0.0331,0.18377 0.0967,0.34777 0.12661,0.5333 1.02062,6.32774 -0.69364,12.79778 -4.66792,17.24387 -3.1266,3.49778 -7.39701,5.59306 -11.93154,6.34998 -3.90091,3.73323 -9.26732,5.75571 -14.67194,5.75571 -3.42654,0 -6.72361,-0.81626 -9.75959,-2.18539 -2.12333,0.65116 -4.34454,0.99373 -6.58976,0.99373 -0.59355,0 -1.16851,-0.11629 -1.75596,-0.16019 -3.88136,3.58963 -9.0536,5.71901 -14.35361,5.71901 -5.74905,0 -11.07591,-2.29082 -15.34941,-5.92778 -2.60653,1.05057 -5.38607,1.69705 -8.21499,1.69705 -4.04529,0 -7.90244,-1.1321 -11.35328,-3.0117 -2.56241,0.92653 -5.2811,1.46296 -8.07856,1.46296 -4.21308,0 -8.32309,-1.3412 -11.81837,-3.64422 -1.81614,0.46212 -3.6699,0.81804 -5.56244,0.81804 -4.9117,0 -9.55225,-1.62789 -13.48441,-4.34184 -4.03312,2.94309 -8.85147,4.73665 -13.98051,4.73665 -1.959265,0 -3.879221,-0.31503 -5.751576,-0.80874 -2.322684,0.74588 -4.724002,1.26762 -7.224864,1.26762 -1.560615,0 -3.108573,-0.16611 -4.622963,-0.47852 -2.371192,1.0123 -4.89552,1.63659 -7.474461,1.72289 -3.141203,1.99242 -6.742019,3.16692 -10.509927,3.53104 -4.042308,2.96436 -8.932721,4.69531 -14.083861,4.69531 -5.53386,0 -11.004871,-1.99542 -14.955124,-5.96706 -1.458841,-1.46673 -2.565698,-3.25278 -3.484533,-5.15007 -5.108596,-0.16612 -10.108438,-1.978 -13.84925,-5.54693 -2.020077,-1.92727 -3.572587,-4.35605 -4.60746,-7.03521 -2.968371,-0.96061 -5.7369599,-2.53451 -7.9162935,-4.89633 -1.4530322,-1.5747 -2.4946997,-3.48881 -3.2948814,-5.51955 -6.3815878,-1.37675 -12.0489233,-5.80264 -14.7458341,-11.84369 -2.802129,-1.26752 -5.378979,-3.06187 -7.387128,-5.57071 -3.326215,-4.15553 -4.730396,-10.02973 -3.712943,-15.61089 0.04976,-0.27296 0.105216,-0.51725 0.158646,-0.76791 0.03925,-0.29494 0.07113,-0.58375 0.12454,-0.88832 1.170575,-6.67521 4.472363,-11.87764 8.031532,-15.8207 -0.07322,-3.60778 1.39086,-7.31834 3.529492,-9.67742 4.5925858,-5.06543 10.1579504,-7.12971 15.2398595,-8.33022 0.4194129,-0.63789 0.7551289,-1.38539 1.236614,-1.90221 1.9457149,-2.08854 4.1792705,-3.40353 6.6052655,-4.44571 6.43393,-2.76391 13.096829,-3.54006 18.873221,-3.67935 2.272956,-2.209436 5.164951,-3.700649 7.949367,-4.519614 6.794382,-1.9984 13.325524,-1.815085 19.115066,-1.271238 2.019653,-1.392848 4.272524,-2.35305 6.638338,-3.048902 4.712722,-1.386133 9.48072,-1.879612 14.023917,-1.956982 z"
       style="fill:#5c73c6;stroke:#9fe7f9;stroke-width:0;stroke-linecap:round;stroke-opacity:0.995995;paint-order:fill markers stroke"
       id="path272" />
  </g>
</svg>
