<?xml version="1.0" encoding="UTF-8" standalone="no"?>
<!-- Created with Inkscape (http://www.inkscape.org/) -->

<svg
   width="2000.11"
   height="895.69"
   viewBox="0 0 529.1947 236.98398"
   version="1.1"
   id="svg1"
   inkscape:version="1.4.2 (f4327f4, 2025-05-13)"
   sodipodi:docname="CountDownBarMaskNoMapMod.svg"
   xmlns:inkscape="http://www.inkscape.org/namespaces/inkscape"
   xmlns:sodipodi="http://sodipodi.sourceforge.net/DTD/sodipodi-0.dtd"
   xmlns="http://www.w3.org/2000/svg"
   xmlns:svg="http://www.w3.org/2000/svg">
  <sodipodi:namedview
     id="namedview1"
     pagecolor="#ffffff"
     bordercolor="#000000"
     borderopacity="0.25"
     inkscape:showpageshadow="2"
     inkscape:pageopacity="0.0"
     inkscape:pagecheckerboard="0"
     inkscape:deskcolor="#d1d1d1"
     inkscape:document-units="mm"
     inkscape:zoom="0.80310395"
     inkscape:cx="986.17371"
     inkscape:cy="420.24448"
     inkscape:window-width="3840"
     inkscape:window-height="2054"
     inkscape:window-x="-11"
     inkscape:window-y="-11"
     inkscape:window-maximized="1"
     inkscape:current-layer="layer1"
     showgrid="true">
    <inkscape:grid
       id="grid1"
       units="mm"
       originx="139"
       originy="10.68689"
       spacingx="0.99999999"
       spacingy="0.99999998"
       empcolor="#0099e5"
       empopacity="0.30196078"
       color="#0099e5"
       opacity="0.14901961"
       empspacing="5"
       enabled="true"
       visible="true" />
  </sodipodi:namedview>
  <defs
     id="defs1">
    <inkscape:path-effect
       effect="fillet_chamfer"
       id="path-effect5"
       is_visible="true"
       lpeversion="1"
       nodesatellites_param="F,0,0,1,0,0,0,1 @ F,0,0,1,0,2.0496102,0,1 @ F,0,0,1,0,0,0,1"
       radius="0"
       unit="px"
       method="auto"
       mode="F"
       chamfer_steps="1"
       flexible="false"
       use_knot_distance="true"
       apply_no_radius="true"
       apply_with_radius="true"
       only_selected="false"
       hide_knots="false" />
    <inkscape:path-effect
       effect="fillet_chamfer"
       id="path-effect28"
       is_visible="true"
       lpeversion="1"
       nodesatellites_param="F,0,0,1,0,0,0,1 @ F,0,0,1,0,0,0,1 @ F,0,0,1,0,0,0,1 @ F,0,0,1,0,0,0,1 @ F,0,0,1,0,0,0,1 @ F,0,0,1,0,0,0,1 @ F,0,0,1,0,0,0,1 @ F,0,0,1,0,0,0,1 @ F,0,0,1,0,0,0,1 @ F,0,0,1,0,0,0,1 @ F,0,0,1,0,0,0,1 @ F,0,0,1,0,0,0,1 | F,0,0,1,0,0,0,1 @ F,0,0,1,0,0,0,1 @ F,0,0,1,0,0,0,1 @ F,0,0,1,0,0,0,1 @ F,0,0,1,0,0,0,1 @ F,0,0,1,0,0,0,1 @ F,0,0,1,0,0,0,1 @ F,0,0,1,0,0,0,1 @ F,0,0,1,0,0,0,1 @ F,0,0,1,0,0,0,1 @ F,0,0,1,0,0,0,1"
       radius="0"
       unit="px"
       method="auto"
       mode="F"
       chamfer_steps="1"
       flexible="false"
       use_knot_distance="true"
       apply_no_radius="true"
       apply_with_radius="true"
       only_selected="false"
       hide_knots="false" />
    <inkscape:path-effect
       effect="powerstroke"
       message=""
       id="path-effect4"
       is_visible="true"
       lpeversion="1.3"
       scale_width="1"
       interpolator_type="CentripetalCatmullRom"
       interpolator_beta="0.75"
       start_linecap_type="round"
       end_linecap_type="round"
       offset_points="10.839744,0.43679433"
       linejoin_type="spiro"
       miter_limit="4"
       not_jump="true"
       sort_points="true" />
    <inkscape:path-effect
       effect="simplify"
       id="path-effect3"
       is_visible="true"
       lpeversion="1.3"
       threshold="0.012"
       steps="1"
       smooth_angles="0"
       helper_size="0"
       simplify_individual_paths="false"
       simplify_just_coalesce="false"
       step="1" />
    <inkscape:path-effect
       effect="fillet_chamfer"
       id="path-effect5-4"
       is_visible="true"
       lpeversion="1"
       nodesatellites_param="F,0,0,1,0,0,0,1 @ F,0,0,1,0,2.0496102,0,1 @ F,0,0,1,0,0,0,1"
       radius="0"
       unit="px"
       method="auto"
       mode="F"
       chamfer_steps="1"
       flexible="false"
       use_knot_distance="true"
       apply_no_radius="true"
       apply_with_radius="true"
       only_selected="false"
       hide_knots="false" />
    <inkscape:path-effect
       effect="fillet_chamfer"
       id="path-effect5-4-5"
       is_visible="true"
       lpeversion="1"
       nodesatellites_param="F,0,0,1,0,0,0,1 @ F,0,0,1,0,2.0496102,0,1 @ F,0,0,1,0,0,0,1"
       radius="0"
       unit="px"
       method="auto"
       mode="F"
       chamfer_steps="1"
       flexible="false"
       use_knot_distance="true"
       apply_no_radius="true"
       apply_with_radius="true"
       only_selected="false"
       hide_knots="false" />
  </defs>
  <g
     inkscape:label="Ebene 1"
     inkscape:groupmode="layer"
     id="layer1"
     transform="translate(138.80001,10.686892)">
    <path
       d="m 164.22327,54.626141 c -5.08239,4.11e-4 -10.06098,1.756611 -14.20685,4.687558 h -136.790803 -0.004 c -6.4690099,0.0016 -12.89690986,2.665606 -17.4707199,7.240367 l -4.99813,4.998132 c -4.5747701,4.57381 -7.2382801,11.00171 -7.2398501,17.470726 v 0.0036 59.999806 0.002 c 5.3e-4,3.39704 0.71029,6.79221 2.07221,9.90429 l 7.0000701,16.00001 0.002,0.004 c 1.23213,2.81418 2.99336,5.39458 5.16609,7.56644 l 4.99813,4.99607 c 4.57381,4.57476 11.0016999,7.23879 17.4707299,7.24037 h 0.004 204.999903 0.004 c 6.46902,-0.002 12.89691,-2.66561 17.47072,-7.24037 l 4.99814,-4.99813 c 4.57477,-4.57381 7.23878,-11.00172 7.24036,-17.47073 v -0.004 -60.00032 -0.002 c -5.3e-4,-3.39704 -0.71029,-6.792195 -2.07222,-9.904274 l -6.99799,-15.993818 -0.002,-0.0062 c -1.05712,-2.416638 -2.50549,-4.661742 -4.26951,-6.622835 l -0.002,-0.0041 -4.49998,-4.999683 -0.002,-0.0021 c -4.61812,-5.129664 -11.46501,-8.177926 -18.36731,-8.177776 h -28.96141 c -2.1185,-2.599584 -8.26228,-4.687806 -16.25168,-4.687558 h -9.28726 z m 1.92236,15.087932 h 9.28675 a 9.3134017,9.3134017 0 0 1 7.68168,4.046771 l 0.4377,0.640787 h 37.09377 a 9.3134017,9.3134017 0 0 1 6.92152,3.081975 l 4.49998,5.000199 a 9.3134017,9.3134017 0 0 1 1.60971,2.498033 l 7.00008,16.000012 a 9.3134017,9.3134017 0 0 1 0.78083,3.73206 v 60.00033 a 9.3134017,9.3134017 0 0 1 -2.72851,6.58408 l -4.99969,4.99968 a 9.3134017,9.3134017 0 0 1 -6.58407,2.72851 H 22.145467 a 9.3134017,9.3134017 0 0 1 -6.58408,-2.72851 l -5.0002,-4.99968 A 9.3134017,9.3134017 0 0 1 8.6140271,168.4463 l -7.00008,-16.00001 A 9.3134017,9.3134017 0 0 1 0.83311714,148.71422 V 88.713901 A 9.3134017,9.3134017 0 0 1 3.5616371,82.130339 l 4.99968,-5.000199 A 9.3134017,9.3134017 0 0 1 15.145397,74.401631 H 157.98542 l -0.43201,1.033009 a 9.3134017,9.3134017 0 0 1 8.59222,-5.720567 z"
       style="fill:#797979;stroke:#31354a;stroke-width:0;stroke-linecap:round;stroke-opacity:0.839394;paint-order:fill markers stroke"
       id="path9" />
  </g>
</svg>
