<?xml version="1.0" encoding="UTF-8" standalone="no"?>
<!-- Created with Inkscape (http://www.inkscape.org/) -->

<svg
   width="200"
   height="201.17665"
   viewBox="0 0 52.916666 53.227988"
   version="1.1"
   id="svg1"
   inkscape:version="1.4.2 (f4327f4, 2025-05-13)"
   sodipodi:docname="Anchor.svg"
   xml:space="preserve"
   xmlns:inkscape="http://www.inkscape.org/namespaces/inkscape"
   xmlns:sodipodi="http://sodipodi.sourceforge.net/DTD/sodipodi-0.dtd"
   xmlns:xlink="http://www.w3.org/1999/xlink"
   xmlns="http://www.w3.org/2000/svg"
   xmlns:svg="http://www.w3.org/2000/svg"><sodipodi:namedview
     id="namedview1"
     pagecolor="#ffffff"
     bordercolor="#000000"
     borderopacity="0.25"
     inkscape:showpageshadow="2"
     inkscape:pageopacity="0.0"
     inkscape:pagecheckerboard="0"
     inkscape:deskcolor="#d1d1d1"
     inkscape:document-units="mm"
     inkscape:zoom="4.543042"
     inkscape:cx="69.997152"
     inkscape:cy="32.687349"
     inkscape:window-width="3840"
     inkscape:window-height="2054"
     inkscape:window-x="-11"
     inkscape:window-y="-11"
     inkscape:window-maximized="1"
     inkscape:current-layer="layer1" /><defs
     id="defs1"><linearGradient
       id="linearGradient56"
       inkscape:collect="always"><stop
         style="stop-color:#9f25d4;stop-opacity:1;"
         offset="0"
         id="stop56" /><stop
         style="stop-color:#721b97;stop-opacity:1;"
         offset="1"
         id="stop57" /></linearGradient><linearGradient
       id="linearGradient53"
       inkscape:collect="always"><stop
         style="stop-color:#7514a4;stop-opacity:1;"
         offset="0"
         id="stop53" /><stop
         style="stop-color:#a81ae9;stop-opacity:1;"
         offset="1"
         id="stop54" /></linearGradient><linearGradient
       id="linearGradient51"
       inkscape:collect="always"><stop
         style="stop-color:#7d16ad;stop-opacity:1;"
         offset="0"
         id="stop51" /><stop
         style="stop-color:#9f25d4;stop-opacity:1;"
         offset="0.64509606"
         id="stop52" /></linearGradient><linearGradient
       id="linearGradient49"
       inkscape:collect="always"><stop
         style="stop-color:#7d16ad;stop-opacity:1;"
         offset="0"
         id="stop49" /><stop
         style="stop-color:#450a60;stop-opacity:1;"
         offset="1"
         id="stop50" /></linearGradient><linearGradient
       id="linearGradient47"
       inkscape:collect="always"><stop
         style="stop-color:#7d16ad;stop-opacity:1;"
         offset="0"
         id="stop47" /><stop
         style="stop-color:#2d093e;stop-opacity:1;"
         offset="1"
         id="stop48" /></linearGradient><linearGradient
       id="linearGradient45"
       inkscape:collect="always"><stop
         style="stop-color:#7d16ad;stop-opacity:1;"
         offset="0"
         id="stop45" /><stop
         style="stop-color:#4b0e68;stop-opacity:1;"
         offset="1"
         id="stop46" /></linearGradient><inkscape:path-effect
       effect="spiro"
       id="path-effect12"
       is_visible="true"
       lpeversion="1" /><inkscape:path-effect
       effect="spiro"
       id="path-effect11"
       is_visible="true"
       lpeversion="1" /><inkscape:path-effect
       effect="spiro"
       id="path-effect10"
       is_visible="true"
       lpeversion="1" /><linearGradient
       id="linearGradient9"
       inkscape:collect="always"><stop
         style="stop-color:#be73e2;stop-opacity:1;"
         offset="0"
         id="stop9" /><stop
         style="stop-color:#644074;stop-opacity:1;"
         offset="1"
         id="stop10" /></linearGradient><inkscape:path-effect
       effect="mirror_symmetry"
       start_point="-29.69177,2.388521"
       end_point="-29.69177,40.440103"
       center_point="-29.69177,21.414312"
       id="path-effect2"
       is_visible="true"
       lpeversion="1.2"
       lpesatellites=""
       mode="free"
       discard_orig_path="false"
       fuse_paths="true"
       oposite_fuse="false"
       split_items="false"
       split_open="false"
       link_styles="false" /><linearGradient
       id="linearGradient139"
       inkscape:collect="always"><stop
         style="stop-color:#e9a0fc;stop-opacity:1;"
         offset="0"
         id="stop140" /><stop
         style="stop-color:#9b4ebc;stop-opacity:1;"
         offset="1"
         id="stop141" /></linearGradient><inkscape:path-effect
       effect="bspline"
       id="path-effect9"
       is_visible="true"
       lpeversion="1.3"
       weight="33.333333"
       steps="2"
       helper_size="0"
       apply_no_weight="true"
       apply_with_weight="true"
       only_selected="false"
       uniform="false" /><inkscape:path-effect
       effect="spiro"
       id="path-effect8"
       is_visible="true"
       lpeversion="1" /><inkscape:path-effect
       effect="mirror_symmetry"
       start_point="17.255329,9.2448751"
       end_point="17.255329,29.300879"
       center_point="17.255329,19.272877"
       id="path-effect5"
       is_visible="true"
       lpeversion="1.2"
       lpesatellites=""
       mode="free"
       discard_orig_path="false"
       fuse_paths="true"
       oposite_fuse="false"
       split_items="false"
       split_open="false"
       link_styles="false" /><inkscape:path-effect
       effect="mirror_symmetry"
       start_point="27.030316,8.4102839"
       end_point="27.030316,28.182973"
       center_point="27.030316,18.296628"
       id="path-effect3"
       is_visible="true"
       lpeversion="1.2"
       lpesatellites=""
       mode="free"
       discard_orig_path="false"
       fuse_paths="false"
       oposite_fuse="false"
       split_items="false"
       split_open="false"
       link_styles="false" /><inkscape:path-effect
       effect="spiro"
       id="path-effect8-8"
       is_visible="true"
       lpeversion="1" /><inkscape:path-effect
       effect="spiro"
       id="path-effect8-0"
       is_visible="true"
       lpeversion="1" /><inkscape:path-effect
       effect="spiro"
       id="path-effect8-0-9"
       is_visible="true"
       lpeversion="1" /><inkscape:path-effect
       effect="spiro"
       id="path-effect8-8-6"
       is_visible="true"
       lpeversion="1" /><inkscape:path-effect
       effect="spiro"
       id="path-effect8-3"
       is_visible="true"
       lpeversion="1" /><radialGradient
       inkscape:collect="always"
       xlink:href="#linearGradient139"
       id="radialGradient141"
       cx="16.595394"
       cy="1.9469649"
       fx="16.595394"
       fy="1.9469649"
       r="7.5771537"
       gradientTransform="matrix(1.3397922,0.77549065,-0.23907936,0.41305036,4.5342905,-8.8414336)"
       gradientUnits="userSpaceOnUse" /><linearGradient
       inkscape:collect="always"
       xlink:href="#linearGradient9"
       id="linearGradient10"
       x1="6.6231565"
       y1="15.337888"
       x2="17.461329"
       y2="30.255352"
       gradientUnits="userSpaceOnUse"
       gradientTransform="matrix(1.7909099,0,0,1.8717383,-0.68605486,-10.028319)" /><linearGradient
       inkscape:collect="always"
       xlink:href="#linearGradient45"
       id="linearGradient46"
       x1="13.777764"
       y1="20.263754"
       x2="19.610493"
       y2="20.263754"
       gradientUnits="userSpaceOnUse"
       gradientTransform="matrix(1.7909099,0,0,1.8717383,-0.68605486,-10.028319)" /><linearGradient
       inkscape:collect="always"
       xlink:href="#linearGradient47"
       id="linearGradient48"
       x1="11.730468"
       y1="25.778419"
       x2="16.713015"
       y2="25.778419"
       gradientUnits="userSpaceOnUse" /><linearGradient
       inkscape:collect="always"
       xlink:href="#linearGradient49"
       id="linearGradient50"
       x1="11.520898"
       y1="28.819866"
       x2="15.168495"
       y2="28.819866"
       gradientUnits="userSpaceOnUse" /><linearGradient
       inkscape:collect="always"
       xlink:href="#linearGradient51"
       id="linearGradient52"
       x1="2.5153096"
       y1="24.998732"
       x2="12.84417"
       y2="23.913126"
       gradientUnits="userSpaceOnUse"
       gradientTransform="matrix(1.7909099,0,0,1.8717383,-0.68605486,-10.028319)" /><linearGradient
       inkscape:collect="always"
       xlink:href="#linearGradient53"
       id="linearGradient54"
       x1="20.21158"
       y1="17.621996"
       x2="12.115814"
       y2="17.621996"
       gradientUnits="userSpaceOnUse"
       gradientTransform="matrix(1.7909099,0,0,1.8717383,-0.68605486,-10.028319)" /><linearGradient
       inkscape:collect="always"
       xlink:href="#linearGradient56"
       id="linearGradient57"
       x1="20.267401"
       y1="11.067692"
       x2="29.8834"
       y2="11.067692"
       gradientUnits="userSpaceOnUse"
       gradientTransform="matrix(1.7909099,0,0,1.8717383,-6.1252401,-5.8129507)" /></defs><g
     inkscape:label="Ebene 1"
     inkscape:groupmode="layer"
     id="layer1"
     transform="translate(-0.20000279)"><rect
       style="fill:#ba7ad9;fill-opacity:1;stroke:#212532;stroke-width:1.29973;stroke-linejoin:round;stroke-miterlimit:8.2;stroke-dasharray:none;stroke-opacity:0.995995"
       id="rect1"
       width="51.616936"
       height="51.616943"
       x="0.84986776"
       y="0.96118188"
       ry="5.9818354"
       rx="19.15794" /><rect
       style="fill:#e5c5f4;fill-opacity:1;stroke:#212532;stroke-width:0.689558;stroke-linejoin:round;stroke-miterlimit:8.2;stroke-dasharray:none;stroke-opacity:0.995995"
       id="rect1-8"
       width="45.94006"
       height="45.940067"
       x="3.6883085"
       y="3.7996202"
       ry="5.3239479"
       rx="17.050934" /><path
       id="path17"
       style="opacity:1;fill:url(#radialGradient141);fill-opacity:1;stroke:#13061b;stroke-width:0.532787;stroke-dasharray:none"
       d="m 32.242812,0.78282871 c -1.905118,0 -4.145728,1.38001339 -5.686583,2.53404279 -1.532346,-1.1252826 -3.6782,-2.40511326 -5.512761,-2.40511326 -3.274206,0 -5.928256,1.82507396 -5.928256,4.07595506 0,2.2508818 2.65405,4.0754316 5.928256,4.0754316 1.905125,0 4.145728,-1.3796358 5.686583,-2.5335176 1.532346,1.1251342 3.678205,2.4045881 5.512761,2.4045881 3.274207,0 5.928255,-1.8245497 5.928255,-4.0754315 0,-2.2508804 -2.654048,-4.07595519 -5.928255,-4.07595519 z m 0.112073,2.19547079 c 1.533585,0 2.776584,0.8281472 2.776584,1.8495625 0,1.0214151 -1.242999,1.849038 -2.776584,1.849038 -1.533584,0 -3.531339,-1.849038 -3.531339,-1.849038 0,0 1.997755,-1.8495625 3.531339,-1.8495625 z M 20.931402,3.1072296 c 1.533584,0 3.531338,1.8495618 3.531338,1.8495618 0,0 -1.997754,1.8490387 -3.531338,1.8490387 -1.533586,0 -2.776584,-0.8276236 -2.776584,-1.8490387 0,-1.0214159 1.242998,-1.8495618 2.776584,-1.8495618 z" /><path
       id="path18"
       style="opacity:1;fill:#9b4ebc;fill-opacity:1;stroke:#13061b;stroke-width:0.532787"
       d="m 35.08188,1.8185399 c 0.188329,1.0023434 0.256621,1.9003738 -1.409419,2.1141209 -1.666039,0.213747 -4.435515,-0.3377309 -4.623843,-1.3400742 -0.188327,-1.0023434 2.275808,-2.0759863 3.941848,-2.2897333 1.666038,-0.21374715 1.903087,0.5133433 2.091414,1.5156866 z"
       sodipodi:nodetypes="sssss" /><ellipse
       style="opacity:1;fill:#f0cff9;fill-opacity:1;stroke:#13061b;stroke-width:0;stroke-dasharray:none;stroke-opacity:1"
       id="path19"
       cx="33.493404"
       cy="1.2886599"
       rx="1.0800748"
       ry="0.1327697" /><ellipse
       style="fill:#f0cff9;fill-opacity:1;stroke:#13061b;stroke-width:0;stroke-dasharray:none;stroke-opacity:1"
       id="path19-2"
       cx="33.561295"
       cy="2.4403477"
       rx="1.0800748"
       ry="0.1327697" /><path
       id="rect19"
       style="opacity:1;fill:#9b4ebc;fill-opacity:1;stroke:#13061b;stroke-width:0"
       d="m 34.67777,1.4335153 0.719541,0.2608479 0.2767,1.4243897 -0.653992,0.6660532 -0.435209,-0.4287086 z"
       sodipodi:nodetypes="cccccc" /><path
       id="rect20"
       style="opacity:1;fill:#e5c5f4;stroke:#13061b;stroke-width:0.458876"
       d="m 26.185369,3.0778545 0.665379,0.5007552 2.066068,1.375849 M 26.841484,6.5611934 24.31532,4.7878719"
       sodipodi:nodetypes="ccccc" /><path
       d="m 44.78094,6.6280625 c -2.086533,0.124055 -5.065356,1.8892679 -6.619215,3.6108465 -1.420318,1.573626 -1.281586,2.701775 -0.523649,3.753221 -0.722725,0.927691 -2.037778,1.710212 -2.85071,2.56033 -0.03272,0.03256 -0.06562,0.06472 -0.09813,0.09652 1.153544,0.642216 2.038166,1.572164 2.495979,2.662487 0.761188,-0.682512 1.300525,-1.268575 2.402673,-2.236167 0.104181,-0.09148 0.431151,-0.516115 0.656371,-0.670047 0.958907,0.453287 2.393366,1.065882 3.880313,-0.581563 2.071803,-2.295433 4.006432,-7.1683587 2.360033,-8.7105905 -0.4116,-0.3855578 -1.008159,-0.5263907 -1.703669,-0.485039 z"
       style="opacity:1;fill:url(#linearGradient57);stroke:#13061b;stroke-width:0.593206"
       id="path58" /><path
       d="m 34.693131,16.37367 c -1.000087,-0.02161 -2.120737,0.410461 -3.05408,1.272898 -1.109674,1.025341 -1.717027,2.453379 -1.580715,3.71423 l -2.261869,1.857114 -3.214187,-3.163866 c 0.174254,-0.80498 -0.05481,-1.683596 -0.608965,-2.338804 -0.912131,-1.078116 -2.418924,-1.241829 -3.365963,-0.366588 -0.94716,0.875105 -0.975906,2.458065 -0.06387,3.536259 0.499707,0.590668 1.207442,0.932335 1.924994,0.929524 l 2.491388,3.365054 -13.983978,12.999807 c 0,0 -1.9847113,-2.326258 -2.3109189,-3.888335 -0.2405409,-1.15202 0.3146626,-3.787742 0.3146626,-3.787742 l 1.1799853,1.278703 c 0,0 0.305814,-3.331192 0.796836,-5.010344 0.196,-0.670269 0.648761,-1.210994 0.648761,-1.210994 0,0 -0.423674,-0.03426 -0.514566,-0.20022 -0.136136,-0.248617 0.142523,-0.847307 0.142523,-0.847307 0,0 -0.692111,0.453338 -0.927329,0.230205 -0.290349,-0.275433 0.391959,-1.368975 0.317439,-1.489562 -3.78e-4,-5.16e-4 -0.0014,-0.0025 -0.0019,-0.003 -8.88e-4,-8.62e-4 -0.0036,-0.0031 -0.0046,-0.0039 -0.01857,-0.01027 -0.0578,0.0048 -0.12309,0.05224 -0.8013363,0.580571 -1.2638938,1.29245 -2.4654742,2.426822 -1.4326237,1.352495 -3.4446303,5.185415 -3.4446303,5.185415 l 1.3937702,-0.317257 c 0,0 -1.0596451,2.862503 -1.1494441,4.249118 -0.093925,1.450301 0.403939,2.720378 0.6515368,4.061473 0.2388503,1.293714 0.7301846,2.486056 0.8042407,3.841907 0.04329,0.792569 -0.1742107,2.351195 -0.2313696,2.741178 0.3773337,-0.01136 1.8828828,-0.04723 2.6302093,0.09478 1.2784557,0.242922 2.3508722,0.898572 3.5501352,1.304818 1.243181,0.421119 2.389076,1.093985 3.777802,1.174239 1.327743,0.07672 4.174833,-0.672238 4.174833,-0.672238 l -0.471069,1.408313 c 0,0 3.39336,-1.72652 4.853208,-3.04683 2.724744,-2.464292 3.974931,-4.373894 3.974931,-4.373894 0,0 -2.747497,1.066209 -4.116529,1.317392 -1.654691,0.303597 -4.855983,0.211826 -4.855983,0.211826 l 1.071716,1.382128 c 0,0 -2.572634,0.252314 -3.63713,-0.138317 -1.443463,-0.529552 -3.408545,-2.873539 -3.408545,-2.873539 l 14.058015,-12.912753 3.03557,3.147423 c -0.07677,0.731816 0.161684,1.489952 0.651536,2.06894 0.911998,1.077964 2.419801,1.242452 3.366892,0.367555 0.947159,-0.875105 0.97498,-2.45903 0.06293,-3.537224 -0.571363,-0.675261 -1.408471,-1.019021 -2.213745,-0.909214 l -2.693143,-3.839972 2.001812,-2.077648 c 1.194977,0.344304 2.673303,-0.104819 3.81482,-1.159729 1.659376,-1.533391 2.099901,-3.846109 0.983784,-5.165102 -0.488204,-0.577067 -1.193423,-0.868228 -1.971268,-0.885031 z m -0.717247,1.611434 a 1.7447546,1.9885576 33.969424 0 1 1.030057,0.454606 1.7447546,1.9885576 33.969424 0 1 -0.105503,2.700556 1.7447546,1.9885576 33.969424 0 1 -2.578384,0.216664 1.7447546,1.9885576 33.969424 0 1 0.105504,-2.700555 1.7447546,1.9885576 33.969424 0 1 1.548326,-0.671271 z"
       style="opacity:1;fill:url(#linearGradient10);stroke:#13061b;stroke-width:0.776293;stroke-dasharray:none"
       id="path9"
       inkscape:transform-center-x="-0.49434172"
       inkscape:transform-center-y="0.32966997" /><path
       style="fill:#9a72ac;fill-opacity:0;stroke:#13061b;stroke-width:0.538608;stroke-dasharray:none"
       d="m 27.512893,39.942182 1.512403,0.789041 c 0,0 0.155641,1.017197 0.443223,1.39801 0.481654,0.637801 1.966703,1.245717 1.966703,1.245717"
       id="path6-1"
       sodipodi:nodetypes="ccac" /><path
       style="opacity:1;fill:#9a72ac;fill-opacity:0;stroke:#13061b;stroke-width:0.285066;stroke-dasharray:none"
       d="m 10.582981,23.364519 0.246949,-0.596844 c 0,0 -0.9905947,0.01276 -1.3119186,-0.314546 C 9.3772575,22.30977 9.3713846,21.856277 9.3713846,21.856277"
       id="path5"
       sodipodi:nodetypes="ccac" /><path
       style="opacity:1;fill:#9a72ac;fill-opacity:0;stroke:#13061b;stroke-width:0.285066;stroke-dasharray:none"
       d="m 11.586213,25.598653 0.879758,-0.225833 c 0,0 0.385365,0.351818 0.625345,0.401346 0.401927,0.08295 1.213213,-0.20565 1.213213,-0.20565"
       id="path6"
       sodipodi:nodetypes="ccac" /><path
       style="opacity:1;fill:#9a72ac;fill-opacity:0;stroke:#13061b;stroke-width:0.131805;stroke-dasharray:none"
       d="m 14.565041,23.243538 c 0,0 -1.198334,0.152403 -1.697778,-0.129039 -0.41664,-0.234798 -0.864322,-1.177564 -0.864322,-1.177564 0,0 -0.744691,0.101535 -1.034101,-0.09679 -0.377357,-0.258607 -0.648243,-1.242083 -0.648243,-1.242083"
       id="path7"
       sodipodi:nodetypes="cacac" /><path
       style="opacity:1;fill:url(#linearGradient50);stroke:#13061b;stroke-width:0.324001;stroke-dasharray:none"
       d="m 14.713632,27.914933 c 0.152027,0.458165 0.218184,0.944665 0.194022,1.426789 -0.01825,0.364176 -0.08778,0.725746 -0.205907,1.070716 -0.06007,0.100971 -0.144535,0.187314 -0.244162,0.249586 -0.202481,0.126561 -0.452346,0.148025 -0.691125,0.147237 -0.48536,-0.0016 -0.970376,-0.08155 -1.430572,-0.235809 -0.01276,-0.47841 -0.01065,-0.957216 0.0063,-1.435495 0.01418,-0.39999 0.03852,-0.803559 -0.02912,-1.198043 -0.06694,-0.390376 -0.22468,-0.764892 -0.457207,-1.085526 0.706695,0.04967 1.403248,0.239689 2.037265,0.555771 0.287765,0.143462 0.562719,0.31261 0.820524,0.504773 z"
       id="path10"
       inkscape:path-effect="#path-effect10"
       inkscape:original-d="m 14.713632,27.914933 c 0.240251,0.151736 -0.06679,0.932614 0.194022,1.426789 0.260815,0.494176 -0.28827,1.413894 -0.205907,1.070716 -0.102954,0.343178 -0.08843,0.150084 -0.244162,0.249586 -0.28512,0.182171 -0.368537,-0.0038 -0.691125,0.147237 -0.322588,0.150998 -1.650205,-0.613303 -1.430572,-0.235809 -0.219633,-0.356904 0.287688,-0.769729 0.0063,-1.435495 -0.281406,-0.665763 -0.03602,-1.047043 -0.02912,-1.198043 0.0069,-0.150998 -0.457207,-1.085526 -0.457207,-1.085526 0,0 1.391396,0.275888 2.037265,0.555771 0.294643,0.127682 0.446767,0.268717 0.820524,0.504773 z"
       sodipodi:nodetypes="sscsscsscass"
       transform="matrix(1.7909098,0,0,1.8717383,-6.9441291,-8.7202156)" /><path
       style="opacity:1;fill:url(#linearGradient48);stroke:#13061b;stroke-width:0.324001;stroke-dasharray:none"
       d="m 11.999479,28.129909 c -0.151377,-0.430433 -0.141318,-0.915553 0.02777,-1.339341 0.169091,-0.423788 0.495752,-0.782585 0.901861,-0.990583 0.387162,-0.198294 0.829003,-0.258423 1.237584,-0.407675 0.457917,-0.167274 0.872189,-0.44782 1.208465,-0.800789 0.28127,-0.295232 0.509095,-0.641227 0.66917,-1.016261 0.344845,0.447964 0.526796,1.018616 0.504901,1.583514 -0.0052,0.133731 -0.02139,0.267033 -0.0484,0.39811 -0.152214,0.37814 -0.40296,0.716124 -0.720711,0.971454 -0.31775,0.255331 -0.70179,0.427434 -1.103833,0.494671 -0.140259,0.02346 -0.282837,0.03445 -0.420884,0.0686 -0.138047,0.03414 -0.27431,0.09417 -0.370341,0.199055 -0.06354,0.0694 -0.107167,0.156843 -0.124398,0.249351 -0.01723,0.09251 -0.008,0.18979 0.02628,0.277417 0.0343,0.08763 0.09356,0.16532 0.169007,0.221556 0.07545,0.05624 0.166833,0.09084 0.260605,0.09867 -0.302047,-0.0062 -0.604137,-0.01022 -0.906241,-0.01221 -0.436946,-0.0029 -0.873921,-0.0014 -1.310837,0.0045 z"
       id="path11"
       inkscape:path-effect="#path-effect11"
       inkscape:original-d="m 11.999479,28.129909 c 0,0 0.68697,-1.951369 0.929633,-2.329924 0.242664,-0.378555 0.834763,-0.271783 1.237584,-0.407675 0.402822,-0.135891 0.970655,-0.538713 1.208465,-0.800789 0.23781,-0.262077 0.66917,-1.016261 0.66917,-1.016261 0,0 0.452988,1.031932 0.504901,1.583514 0.01253,0.133092 0.140879,0.883437 -0.0484,0.39811 0.189278,0.470767 -1.436282,0.951677 -1.824544,1.466125 -0.388261,0.514446 -0.490322,0.09779 -0.791225,0.267652 -0.300903,0.169865 0.331494,0.846994 0.331494,0.846994 l -0.906241,-0.01221 z"
       sodipodi:nodetypes="cssscacssccc"
       transform="matrix(1.7909098,0,0,1.8717383,-0.68605485,-10.028319)" /><path
       style="opacity:1;fill:url(#linearGradient52);stroke:#13061b;stroke-width:0.593206;stroke-dasharray:none"
       d="m 6.0163467,44.062188 c 0,0 -1.3607597,-0.971714 -1.6459082,-1.727801 -0.5418373,-1.436714 -0.2958881,-3.155877 0.1430311,-4.630462 0.2668834,-0.896618 0.7321001,-1.814921 1.4566045,-2.370232 0.7550346,-0.578712 1.8024568,-0.531701 2.7103898,-0.770808 1.107369,-0.29163 2.4477431,-0.06089 3.3372831,-0.809347 1.149949,-0.967563 1.035216,-2.930466 1.899117,-4.181631 0.5876,-0.851004 1.22536,-1.838601 2.175688,-2.177531 1.813354,-0.646722 5.715788,0.635914 5.715788,0.635914 0,0 -2.41573,2.378021 -2.950086,2.640014 -0.485229,0.237907 -1.106348,-0.0921 -1.604108,0.115622 -0.385139,0.160726 -0.700234,0.489732 -0.958776,0.828616 -0.622024,0.815314 -0.742781,1.963551 -1.345976,2.794177 -0.789066,1.086578 -1.735101,2.129715 -2.894771,2.755637 -1.179291,0.636513 -2.8700847,-7.35e-4 -3.8904236,0.886427 -1.2811409,1.113922 -1.4586406,3.148793 -1.9359931,4.817547 -0.1109254,0.387781 -0.2118589,1.193858 -0.2118596,1.193858 z"
       id="path12"
       sodipodi:nodetypes="caaaaaaacsaaaaaac" /><path
       style="opacity:1;fill:url(#linearGradient46);stroke:#13061b;stroke-width:0.593206;stroke-dasharray:none"
       d="m 27.468812,28.589129 c 0.497502,-0.38064 1.369729,0.365305 2.028186,0.192707 0.563814,-0.147795 1.308781,-0.414511 1.456603,-1.00205 0.195026,-0.775159 -1.050967,-2.138991 -1.050967,-2.138991 l 1.825364,-1.907749 c 0,0 1.960882,1.815514 2.304753,3.063962 0.225685,0.819368 0.08718,1.771167 -0.258132,2.543664 -0.434187,0.971297 -1.215997,1.844288 -2.13881,2.31242 -1.256034,0.63717 -2.775778,0.566044 -4.166996,0.443216 -1.010343,-0.08921 -2.931646,-0.84789 -2.931646,-0.84789 0,0 2.387789,-2.243181 2.931645,-2.659289 z"
       id="path13"
       sodipodi:nodetypes="saaccaaaacs" /><path
       style="opacity:1;fill:#7d16ad;fill-opacity:1;stroke:#13061b;stroke-width:0.593206;stroke-dasharray:none"
       d="m 28.777913,22.345589 -1.917556,-0.346863 1.032531,1.233292 z"
       id="path14" /><path
       style="opacity:1;fill:url(#linearGradient54);stroke:#13061b;stroke-width:0.593206;stroke-dasharray:none"
       d="m 22.838248,22.584981 c -1.004239,0.06209 -1.755884,1.994451 -1.472422,3.113619 0.280921,1.109125 1.654523,1.691012 2.728827,1.927018 1.344901,0.295453 2.820691,-0.142177 4.056366,-0.770806 1.847608,-0.939931 3.063383,-2.863397 4.609509,-4.277981 0.49076,-0.449008 1.039696,-0.83449 1.48137,-1.336089 0.372853,-0.423446 0.918917,-0.823203 0.971815,-1.396003 0.05257,-0.569123 -0.222995,-1.263467 -0.693935,-1.554437 -0.373408,-0.230711 -0.87439,-0.005 -1.29846,0.09031 -0.379789,0.08542 -0.742725,0.24797 -1.091774,0.426214 -0.810358,0.413813 -1.5794,0.921266 -2.304593,1.4817 -0.889064,0.687075 -1.705038,1.458673 -2.489677,2.29098 -0.492456,0.522373 -1.153395,1.340411 -2.226303,1.797037 -0.602414,-0.180848 -1.645045,-1.83024 -2.270723,-1.791558 z"
       id="path15"
       sodipodi:nodetypes="caaaaaaaaaascc" /><ellipse
       style="opacity:1;fill:#cf67ff;fill-opacity:1;stroke:#13061b;stroke-width:0;stroke-dasharray:none"
       id="path20"
       cx="38.965004"
       cy="16.76671"
       rx="1.8316547"
       ry="0.6421169"
       transform="matrix(0.99186192,-0.1273182,0.13523544,0.99081349,0,0)" /><ellipse
       style="fill:#cf67ff;fill-opacity:1;stroke:#13061b;stroke-width:0;stroke-dasharray:none"
       id="path20-1"
       cx="9.6559343"
       cy="-44.437702"
       rx="1.9557325"
       ry="0.6014064"
       transform="matrix(-0.10361929,0.99461703,-0.99582972,-0.09123141,0,0)" /><ellipse
       style="opacity:1;fill:#cf67ff;fill-opacity:0;stroke:#13061b;stroke-width:0.294771;stroke-dasharray:none"
       id="path22"
       cx="45.629894"
       cy="9.0074444"
       rx="0.20130792"
       ry="0.2083447" /><ellipse
       style="fill:#cf67ff;fill-opacity:0;stroke:#13061b;stroke-width:0.294771;stroke-dasharray:none"
       id="path22-7"
       cx="45.002708"
       cy="8.4779844"
       rx="0.20130792"
       ry="0.2083447" /></g><script
     id="mesh_polyfill"
     type="text/javascript">
!function(){const t=&quot;http://www.w3.org/2000/svg&quot;,e=&quot;http://www.w3.org/1999/xlink&quot;,s=&quot;http://www.w3.org/1999/xhtml&quot;,r=2;if(document.createElementNS(t,&quot;meshgradient&quot;).x)return;const n=(t,e,s,r)=&gt;{let n=new x(.5*(e.x+s.x),.5*(e.y+s.y)),o=new x(.5*(t.x+e.x),.5*(t.y+e.y)),i=new x(.5*(s.x+r.x),.5*(s.y+r.y)),a=new x(.5*(n.x+o.x),.5*(n.y+o.y)),h=new x(.5*(n.x+i.x),.5*(n.y+i.y)),l=new x(.5*(a.x+h.x),.5*(a.y+h.y));return[[t,o,a,l],[l,h,i,r]]},o=t=&gt;{let e=t[0].distSquared(t[1]),s=t[2].distSquared(t[3]),r=.25*t[0].distSquared(t[2]),n=.25*t[1].distSquared(t[3]),o=e&gt;s?e:s,i=r&gt;n?r:n;return 18*(o&gt;i?o:i)},i=(t,e)=&gt;Math.sqrt(t.distSquared(e)),a=(t,e)=&gt;t.scale(2/3).add(e.scale(1/3)),h=t=&gt;{let e,s,r,n,o,i,a,h=new g;return t.match(/(\w+\(\s*[^)]+\))+/g).forEach(t=&gt;{let l=t.match(/[\w.-]+/g),d=l.shift();switch(d){case&quot;translate&quot;:2===l.length?e=new g(1,0,0,1,l[0],l[1]):(console.error(&quot;mesh.js: translate does not have 2 arguments!&quot;),e=new g(1,0,0,1,0,0)),h=h.append(e);break;case&quot;scale&quot;:1===l.length?s=new g(l[0],0,0,l[0],0,0):2===l.length?s=new g(l[0],0,0,l[1],0,0):(console.error(&quot;mesh.js: scale does not have 1 or 2 arguments!&quot;),s=new g(1,0,0,1,0,0)),h=h.append(s);break;case&quot;rotate&quot;:if(3===l.length&amp;&amp;(e=new g(1,0,0,1,l[1],l[2]),h=h.append(e)),l[0]){r=l[0]*Math.PI/180;let t=Math.cos(r),e=Math.sin(r);Math.abs(t)&lt;1e-16&amp;&amp;(t=0),Math.abs(e)&lt;1e-16&amp;&amp;(e=0),a=new g(t,e,-e,t,0,0),h=h.append(a)}else console.error(&quot;math.js: No argument to rotate transform!&quot;);3===l.length&amp;&amp;(e=new g(1,0,0,1,-l[1],-l[2]),h=h.append(e));break;case&quot;skewX&quot;:l[0]?(r=l[0]*Math.PI/180,n=Math.tan(r),o=new g(1,0,n,1,0,0),h=h.append(o)):console.error(&quot;math.js: No argument to skewX transform!&quot;);break;case&quot;skewY&quot;:l[0]?(r=l[0]*Math.PI/180,n=Math.tan(r),i=new g(1,n,0,1,0,0),h=h.append(i)):console.error(&quot;math.js: No argument to skewY transform!&quot;);break;case&quot;matrix&quot;:6===l.length?h=h.append(new g(...l)):console.error(&quot;math.js: Incorrect number of arguments for matrix!&quot;);break;default:console.error(&quot;mesh.js: Unhandled transform type: &quot;+d)}}),h},l=t=&gt;{let e=[],s=t.split(/[ ,]+/);for(let t=0,r=s.length-1;t&lt;r;t+=2)e.push(new x(parseFloat(s[t]),parseFloat(s[t+1])));return e},d=(t,e)=&gt;{for(let s in e)t.setAttribute(s,e[s])},c=(t,e,s,r,n)=&gt;{let o,i,a=[0,0,0,0];for(let h=0;h&lt;3;++h)e[h]&lt;t[h]&amp;&amp;e[h]&lt;s[h]||t[h]&lt;e[h]&amp;&amp;s[h]&lt;e[h]?a[h]=0:(a[h]=.5*((e[h]-t[h])/r+(s[h]-e[h])/n),o=Math.abs(3*(e[h]-t[h])/r),i=Math.abs(3*(s[h]-e[h])/n),a[h]&gt;o?a[h]=o:a[h]&gt;i&amp;&amp;(a[h]=i));return a},u=[[1,0,0,0,0,0,0,0,0,0,0,0,0,0,0,0],[0,0,0,0,1,0,0,0,0,0,0,0,0,0,0,0],[-3,3,0,0,-2,-1,0,0,0,0,0,0,0,0,0,0],[2,-2,0,0,1,1,0,0,0,0,0,0,0,0,0,0],[0,0,0,0,0,0,0,0,1,0,0,0,0,0,0,0],[0,0,0,0,0,0,0,0,0,0,0,0,1,0,0,0],[0,0,0,0,0,0,0,0,-3,3,0,0,-2,-1,0,0],[0,0,0,0,0,0,0,0,2,-2,0,0,1,1,0,0],[-3,0,3,0,0,0,0,0,-2,0,-1,0,0,0,0,0],[0,0,0,0,-3,0,3,0,0,0,0,0,-2,0,-1,0],[9,-9,-9,9,6,3,-6,-3,6,-6,3,-3,4,2,2,1],[-6,6,6,-6,-3,-3,3,3,-4,4,-2,2,-2,-2,-1,-1],[2,0,-2,0,0,0,0,0,1,0,1,0,0,0,0,0],[0,0,0,0,2,0,-2,0,0,0,0,0,1,0,1,0],[-6,6,6,-6,-4,-2,4,2,-3,3,-3,3,-2,-1,-2,-1],[4,-4,-4,4,2,2,-2,-2,2,-2,2,-2,1,1,1,1]],f=t=&gt;{let e=[];for(let s=0;s&lt;16;++s){e[s]=0;for(let r=0;r&lt;16;++r)e[s]+=u[s][r]*t[r]}return e},p=(t,e,s)=&gt;{const r=e*e,n=s*s,o=e*e*e,i=s*s*s;return t[0]+t[1]*e+t[2]*r+t[3]*o+t[4]*s+t[5]*s*e+t[6]*s*r+t[7]*s*o+t[8]*n+t[9]*n*e+t[10]*n*r+t[11]*n*o+t[12]*i+t[13]*i*e+t[14]*i*r+t[15]*i*o},y=t=&gt;{let e=[],s=[],r=[];for(let s=0;s&lt;4;++s)e[s]=[],e[s][0]=n(t[0][s],t[1][s],t[2][s],t[3][s]),e[s][1]=[],e[s][1].push(...n(...e[s][0][0])),e[s][1].push(...n(...e[s][0][1])),e[s][2]=[],e[s][2].push(...n(...e[s][1][0])),e[s][2].push(...n(...e[s][1][1])),e[s][2].push(...n(...e[s][1][2])),e[s][2].push(...n(...e[s][1][3]));for(let t=0;t&lt;8;++t){s[t]=[];for(let r=0;r&lt;4;++r)s[t][r]=[],s[t][r][0]=n(e[0][2][t][r],e[1][2][t][r],e[2][2][t][r],e[3][2][t][r]),s[t][r][1]=[],s[t][r][1].push(...n(...s[t][r][0][0])),s[t][r][1].push(...n(...s[t][r][0][1])),s[t][r][2]=[],s[t][r][2].push(...n(...s[t][r][1][0])),s[t][r][2].push(...n(...s[t][r][1][1])),s[t][r][2].push(...n(...s[t][r][1][2])),s[t][r][2].push(...n(...s[t][r][1][3]))}for(let t=0;t&lt;8;++t){r[t]=[];for(let e=0;e&lt;8;++e)r[t][e]=[],r[t][e][0]=s[t][0][2][e],r[t][e][1]=s[t][1][2][e],r[t][e][2]=s[t][2][2][e],r[t][e][3]=s[t][3][2][e]}return r};class x{constructor(t,e){this.x=t||0,this.y=e||0}toString(){return`(x=${this.x}, y=${this.y})`}clone(){return new x(this.x,this.y)}add(t){return new x(this.x+t.x,this.y+t.y)}scale(t){return void 0===t.x?new x(this.x*t,this.y*t):new x(this.x*t.x,this.y*t.y)}distSquared(t){let e=this.x-t.x,s=this.y-t.y;return e*e+s*s}transform(t){let e=this.x*t.a+this.y*t.c+t.e,s=this.x*t.b+this.y*t.d+t.f;return new x(e,s)}}class g{constructor(t,e,s,r,n,o){void 0===t?(this.a=1,this.b=0,this.c=0,this.d=1,this.e=0,this.f=0):(this.a=t,this.b=e,this.c=s,this.d=r,this.e=n,this.f=o)}toString(){return`affine: ${this.a} ${this.c} ${this.e} \n       ${this.b} ${this.d} ${this.f}`}append(t){t instanceof g||console.error(&quot;mesh.js: argument to Affine.append is not affine!&quot;);let e=this.a*t.a+this.c*t.b,s=this.b*t.a+this.d*t.b,r=this.a*t.c+this.c*t.d,n=this.b*t.c+this.d*t.d,o=this.a*t.e+this.c*t.f+this.e,i=this.b*t.e+this.d*t.f+this.f;return new g(e,s,r,n,o,i)}}class w{constructor(t,e){this.nodes=t,this.colors=e}paintCurve(t,e){if(o(this.nodes)&gt;r){const s=n(...this.nodes);let r=[[],[]],o=[[],[]];for(let t=0;t&lt;4;++t)r[0][t]=this.colors[0][t],r[1][t]=(this.colors[0][t]+this.colors[1][t])/2,o[0][t]=r[1][t],o[1][t]=this.colors[1][t];let i=new w(s[0],r),a=new w(s[1],o);i.paintCurve(t,e),a.paintCurve(t,e)}else{let s=Math.round(this.nodes[0].x);if(s&gt;=0&amp;&amp;s&lt;e){let r=4*(~~this.nodes[0].y*e+s);t[r]=Math.round(this.colors[0][0]),t[r+1]=Math.round(this.colors[0][1]),t[r+2]=Math.round(this.colors[0][2]),t[r+3]=Math.round(this.colors[0][3])}}}}class m{constructor(t,e){this.nodes=t,this.colors=e}split(){let t=[[],[],[],[]],e=[[],[],[],[]],s=[[[],[]],[[],[]]],r=[[[],[]],[[],[]]];for(let s=0;s&lt;4;++s){const r=n(this.nodes[0][s],this.nodes[1][s],this.nodes[2][s],this.nodes[3][s]);t[0][s]=r[0][0],t[1][s]=r[0][1],t[2][s]=r[0][2],t[3][s]=r[0][3],e[0][s]=r[1][0],e[1][s]=r[1][1],e[2][s]=r[1][2],e[3][s]=r[1][3]}for(let t=0;t&lt;4;++t)s[0][0][t]=this.colors[0][0][t],s[0][1][t]=this.colors[0][1][t],s[1][0][t]=(this.colors[0][0][t]+this.colors[1][0][t])/2,s[1][1][t]=(this.colors[0][1][t]+this.colors[1][1][t])/2,r[0][0][t]=s[1][0][t],r[0][1][t]=s[1][1][t],r[1][0][t]=this.colors[1][0][t],r[1][1][t]=this.colors[1][1][t];return[new m(t,s),new m(e,r)]}paint(t,e){let s,n=!1;for(let t=0;t&lt;4;++t)if((s=o([this.nodes[0][t],this.nodes[1][t],this.nodes[2][t],this.nodes[3][t]]))&gt;r){n=!0;break}if(n){let s=this.split();s[0].paint(t,e),s[1].paint(t,e)}else{new w([...this.nodes[0]],[...this.colors[0]]).paintCurve(t,e)}}}class b{constructor(t){this.readMesh(t),this.type=t.getAttribute(&quot;type&quot;)||&quot;bilinear&quot;}readMesh(t){let e=[[]],s=[[]],r=Number(t.getAttribute(&quot;x&quot;)),n=Number(t.getAttribute(&quot;y&quot;));e[0][0]=new x(r,n);let o=t.children;for(let t=0,r=o.length;t&lt;r;++t){e[3*t+1]=[],e[3*t+2]=[],e[3*t+3]=[],s[t+1]=[];let r=o[t].children;for(let n=0,o=r.length;n&lt;o;++n){let o=r[n].children;for(let r=0,i=o.length;r&lt;i;++r){let i=r;0!==t&amp;&amp;++i;let h,d=o[r].getAttribute(&quot;path&quot;),c=&quot;l&quot;;null!=d&amp;&amp;(c=(h=d.match(/\s*([lLcC])\s*(.*)/))[1]);let u=l(h[2]);switch(c){case&quot;l&quot;:0===i?(e[3*t][3*n+3]=u[0].add(e[3*t][3*n]),e[3*t][3*n+1]=a(e[3*t][3*n],e[3*t][3*n+3]),e[3*t][3*n+2]=a(e[3*t][3*n+3],e[3*t][3*n])):1===i?(e[3*t+3][3*n+3]=u[0].add(e[3*t][3*n+3]),e[3*t+1][3*n+3]=a(e[3*t][3*n+3],e[3*t+3][3*n+3]),e[3*t+2][3*n+3]=a(e[3*t+3][3*n+3],e[3*t][3*n+3])):2===i?(0===n&amp;&amp;(e[3*t+3][3*n+0]=u[0].add(e[3*t+3][3*n+3])),e[3*t+3][3*n+1]=a(e[3*t+3][3*n],e[3*t+3][3*n+3]),e[3*t+3][3*n+2]=a(e[3*t+3][3*n+3],e[3*t+3][3*n])):(e[3*t+1][3*n]=a(e[3*t][3*n],e[3*t+3][3*n]),e[3*t+2][3*n]=a(e[3*t+3][3*n],e[3*t][3*n]));break;case&quot;L&quot;:0===i?(e[3*t][3*n+3]=u[0],e[3*t][3*n+1]=a(e[3*t][3*n],e[3*t][3*n+3]),e[3*t][3*n+2]=a(e[3*t][3*n+3],e[3*t][3*n])):1===i?(e[3*t+3][3*n+3]=u[0],e[3*t+1][3*n+3]=a(e[3*t][3*n+3],e[3*t+3][3*n+3]),e[3*t+2][3*n+3]=a(e[3*t+3][3*n+3],e[3*t][3*n+3])):2===i?(0===n&amp;&amp;(e[3*t+3][3*n+0]=u[0]),e[3*t+3][3*n+1]=a(e[3*t+3][3*n],e[3*t+3][3*n+3]),e[3*t+3][3*n+2]=a(e[3*t+3][3*n+3],e[3*t+3][3*n])):(e[3*t+1][3*n]=a(e[3*t][3*n],e[3*t+3][3*n]),e[3*t+2][3*n]=a(e[3*t+3][3*n],e[3*t][3*n]));break;case&quot;c&quot;:0===i?(e[3*t][3*n+1]=u[0].add(e[3*t][3*n]),e[3*t][3*n+2]=u[1].add(e[3*t][3*n]),e[3*t][3*n+3]=u[2].add(e[3*t][3*n])):1===i?(e[3*t+1][3*n+3]=u[0].add(e[3*t][3*n+3]),e[3*t+2][3*n+3]=u[1].add(e[3*t][3*n+3]),e[3*t+3][3*n+3]=u[2].add(e[3*t][3*n+3])):2===i?(e[3*t+3][3*n+2]=u[0].add(e[3*t+3][3*n+3]),e[3*t+3][3*n+1]=u[1].add(e[3*t+3][3*n+3]),0===n&amp;&amp;(e[3*t+3][3*n+0]=u[2].add(e[3*t+3][3*n+3]))):(e[3*t+2][3*n]=u[0].add(e[3*t+3][3*n]),e[3*t+1][3*n]=u[1].add(e[3*t+3][3*n]));break;case&quot;C&quot;:0===i?(e[3*t][3*n+1]=u[0],e[3*t][3*n+2]=u[1],e[3*t][3*n+3]=u[2]):1===i?(e[3*t+1][3*n+3]=u[0],e[3*t+2][3*n+3]=u[1],e[3*t+3][3*n+3]=u[2]):2===i?(e[3*t+3][3*n+2]=u[0],e[3*t+3][3*n+1]=u[1],0===n&amp;&amp;(e[3*t+3][3*n+0]=u[2])):(e[3*t+2][3*n]=u[0],e[3*t+1][3*n]=u[1]);break;default:console.error(&quot;mesh.js: &quot;+c+&quot; invalid path type.&quot;)}if(0===t&amp;&amp;0===n||r&gt;0){let e=window.getComputedStyle(o[r]).stopColor.match(/^rgb\s*\(\s*(\d+)\s*,\s*(\d+)\s*,\s*(\d+)\s*\)$/i),a=window.getComputedStyle(o[r]).stopOpacity,h=255;a&amp;&amp;(h=Math.floor(255*a)),e&amp;&amp;(0===i?(s[t][n]=[],s[t][n][0]=Math.floor(e[1]),s[t][n][1]=Math.floor(e[2]),s[t][n][2]=Math.floor(e[3]),s[t][n][3]=h):1===i?(s[t][n+1]=[],s[t][n+1][0]=Math.floor(e[1]),s[t][n+1][1]=Math.floor(e[2]),s[t][n+1][2]=Math.floor(e[3]),s[t][n+1][3]=h):2===i?(s[t+1][n+1]=[],s[t+1][n+1][0]=Math.floor(e[1]),s[t+1][n+1][1]=Math.floor(e[2]),s[t+1][n+1][2]=Math.floor(e[3]),s[t+1][n+1][3]=h):3===i&amp;&amp;(s[t+1][n]=[],s[t+1][n][0]=Math.floor(e[1]),s[t+1][n][1]=Math.floor(e[2]),s[t+1][n][2]=Math.floor(e[3]),s[t+1][n][3]=h))}}e[3*t+1][3*n+1]=new x,e[3*t+1][3*n+2]=new x,e[3*t+2][3*n+1]=new x,e[3*t+2][3*n+2]=new x,e[3*t+1][3*n+1].x=(-4*e[3*t][3*n].x+6*(e[3*t][3*n+1].x+e[3*t+1][3*n].x)+-2*(e[3*t][3*n+3].x+e[3*t+3][3*n].x)+3*(e[3*t+3][3*n+1].x+e[3*t+1][3*n+3].x)+-1*e[3*t+3][3*n+3].x)/9,e[3*t+1][3*n+2].x=(-4*e[3*t][3*n+3].x+6*(e[3*t][3*n+2].x+e[3*t+1][3*n+3].x)+-2*(e[3*t][3*n].x+e[3*t+3][3*n+3].x)+3*(e[3*t+3][3*n+2].x+e[3*t+1][3*n].x)+-1*e[3*t+3][3*n].x)/9,e[3*t+2][3*n+1].x=(-4*e[3*t+3][3*n].x+6*(e[3*t+3][3*n+1].x+e[3*t+2][3*n].x)+-2*(e[3*t+3][3*n+3].x+e[3*t][3*n].x)+3*(e[3*t][3*n+1].x+e[3*t+2][3*n+3].x)+-1*e[3*t][3*n+3].x)/9,e[3*t+2][3*n+2].x=(-4*e[3*t+3][3*n+3].x+6*(e[3*t+3][3*n+2].x+e[3*t+2][3*n+3].x)+-2*(e[3*t+3][3*n].x+e[3*t][3*n+3].x)+3*(e[3*t][3*n+2].x+e[3*t+2][3*n].x)+-1*e[3*t][3*n].x)/9,e[3*t+1][3*n+1].y=(-4*e[3*t][3*n].y+6*(e[3*t][3*n+1].y+e[3*t+1][3*n].y)+-2*(e[3*t][3*n+3].y+e[3*t+3][3*n].y)+3*(e[3*t+3][3*n+1].y+e[3*t+1][3*n+3].y)+-1*e[3*t+3][3*n+3].y)/9,e[3*t+1][3*n+2].y=(-4*e[3*t][3*n+3].y+6*(e[3*t][3*n+2].y+e[3*t+1][3*n+3].y)+-2*(e[3*t][3*n].y+e[3*t+3][3*n+3].y)+3*(e[3*t+3][3*n+2].y+e[3*t+1][3*n].y)+-1*e[3*t+3][3*n].y)/9,e[3*t+2][3*n+1].y=(-4*e[3*t+3][3*n].y+6*(e[3*t+3][3*n+1].y+e[3*t+2][3*n].y)+-2*(e[3*t+3][3*n+3].y+e[3*t][3*n].y)+3*(e[3*t][3*n+1].y+e[3*t+2][3*n+3].y)+-1*e[3*t][3*n+3].y)/9,e[3*t+2][3*n+2].y=(-4*e[3*t+3][3*n+3].y+6*(e[3*t+3][3*n+2].y+e[3*t+2][3*n+3].y)+-2*(e[3*t+3][3*n].y+e[3*t][3*n+3].y)+3*(e[3*t][3*n+2].y+e[3*t+2][3*n].y)+-1*e[3*t][3*n].y)/9}}this.nodes=e,this.colors=s}paintMesh(t,e){let s=(this.nodes.length-1)/3,r=(this.nodes[0].length-1)/3;if(&quot;bilinear&quot;===this.type||s&lt;2||r&lt;2){let n;for(let o=0;o&lt;s;++o)for(let s=0;s&lt;r;++s){let r=[];for(let t=3*o,e=3*o+4;t&lt;e;++t)r.push(this.nodes[t].slice(3*s,3*s+4));let i=[];i.push(this.colors[o].slice(s,s+2)),i.push(this.colors[o+1].slice(s,s+2)),(n=new m(r,i)).paint(t,e)}}else{let n,o,a,h,l,d,u;const x=s,g=r;s++,r++;let w=new Array(s);for(let t=0;t&lt;s;++t){w[t]=new Array(r);for(let e=0;e&lt;r;++e)w[t][e]=[],w[t][e][0]=this.nodes[3*t][3*e],w[t][e][1]=this.colors[t][e]}for(let t=0;t&lt;s;++t)for(let e=0;e&lt;r;++e)0!==t&amp;&amp;t!==x&amp;&amp;(n=i(w[t-1][e][0],w[t][e][0]),o=i(w[t+1][e][0],w[t][e][0]),w[t][e][2]=c(w[t-1][e][1],w[t][e][1],w[t+1][e][1],n,o)),0!==e&amp;&amp;e!==g&amp;&amp;(n=i(w[t][e-1][0],w[t][e][0]),o=i(w[t][e+1][0],w[t][e][0]),w[t][e][3]=c(w[t][e-1][1],w[t][e][1],w[t][e+1][1],n,o));for(let t=0;t&lt;r;++t){w[0][t][2]=[],w[x][t][2]=[];for(let e=0;e&lt;4;++e)n=i(w[1][t][0],w[0][t][0]),o=i(w[x][t][0],w[x-1][t][0]),w[0][t][2][e]=n&gt;0?2*(w[1][t][1][e]-w[0][t][1][e])/n-w[1][t][2][e]:0,w[x][t][2][e]=o&gt;0?2*(w[x][t][1][e]-w[x-1][t][1][e])/o-w[x-1][t][2][e]:0}for(let t=0;t&lt;s;++t){w[t][0][3]=[],w[t][g][3]=[];for(let e=0;e&lt;4;++e)n=i(w[t][1][0],w[t][0][0]),o=i(w[t][g][0],w[t][g-1][0]),w[t][0][3][e]=n&gt;0?2*(w[t][1][1][e]-w[t][0][1][e])/n-w[t][1][3][e]:0,w[t][g][3][e]=o&gt;0?2*(w[t][g][1][e]-w[t][g-1][1][e])/o-w[t][g-1][3][e]:0}for(let s=0;s&lt;x;++s)for(let r=0;r&lt;g;++r){let n=i(w[s][r][0],w[s+1][r][0]),o=i(w[s][r+1][0],w[s+1][r+1][0]),c=i(w[s][r][0],w[s][r+1][0]),x=i(w[s+1][r][0],w[s+1][r+1][0]),g=[[],[],[],[]];for(let t=0;t&lt;4;++t){(d=[])[0]=w[s][r][1][t],d[1]=w[s+1][r][1][t],d[2]=w[s][r+1][1][t],d[3]=w[s+1][r+1][1][t],d[4]=w[s][r][2][t]*n,d[5]=w[s+1][r][2][t]*n,d[6]=w[s][r+1][2][t]*o,d[7]=w[s+1][r+1][2][t]*o,d[8]=w[s][r][3][t]*c,d[9]=w[s+1][r][3][t]*x,d[10]=w[s][r+1][3][t]*c,d[11]=w[s+1][r+1][3][t]*x,d[12]=0,d[13]=0,d[14]=0,d[15]=0,u=f(d);for(let e=0;e&lt;9;++e){g[t][e]=[];for(let s=0;s&lt;9;++s)g[t][e][s]=p(u,e/8,s/8),g[t][e][s]&gt;255?g[t][e][s]=255:g[t][e][s]&lt;0&amp;&amp;(g[t][e][s]=0)}}h=[];for(let t=3*s,e=3*s+4;t&lt;e;++t)h.push(this.nodes[t].slice(3*r,3*r+4));l=y(h);for(let s=0;s&lt;8;++s)for(let r=0;r&lt;8;++r)(a=new m(l[s][r],[[[g[0][s][r],g[1][s][r],g[2][s][r],g[3][s][r]],[g[0][s][r+1],g[1][s][r+1],g[2][s][r+1],g[3][s][r+1]]],[[g[0][s+1][r],g[1][s+1][r],g[2][s+1][r],g[3][s+1][r]],[g[0][s+1][r+1],g[1][s+1][r+1],g[2][s+1][r+1],g[3][s+1][r+1]]]])).paint(t,e)}}}transform(t){if(t instanceof x)for(let e=0,s=this.nodes.length;e&lt;s;++e)for(let s=0,r=this.nodes[0].length;s&lt;r;++s)this.nodes[e][s]=this.nodes[e][s].add(t);else if(t instanceof g)for(let e=0,s=this.nodes.length;e&lt;s;++e)for(let s=0,r=this.nodes[0].length;s&lt;r;++s)this.nodes[e][s]=this.nodes[e][s].transform(t)}scale(t){for(let e=0,s=this.nodes.length;e&lt;s;++e)for(let s=0,r=this.nodes[0].length;s&lt;r;++s)this.nodes[e][s]=this.nodes[e][s].scale(t)}}document.querySelectorAll(&quot;rect,circle,ellipse,path,text&quot;).forEach((r,n)=&gt;{let o=r.getAttribute(&quot;id&quot;);o||(o=&quot;patchjs_shape&quot;+n,r.setAttribute(&quot;id&quot;,o));const i=r.style.fill.match(/^url\(\s*&quot;?\s*#([^\s&quot;]+)&quot;?\s*\)/),a=r.style.stroke.match(/^url\(\s*&quot;?\s*#([^\s&quot;]+)&quot;?\s*\)/);if(i&amp;&amp;i[1]){const a=document.getElementById(i[1]);if(a&amp;&amp;&quot;meshgradient&quot;===a.nodeName){const i=r.getBBox();let l=document.createElementNS(s,&quot;canvas&quot;);d(l,{width:i.width,height:i.height});const c=l.getContext(&quot;2d&quot;);let u=c.createImageData(i.width,i.height);const f=new b(a);&quot;objectBoundingBox&quot;===a.getAttribute(&quot;gradientUnits&quot;)&amp;&amp;f.scale(new x(i.width,i.height));const p=a.getAttribute(&quot;gradientTransform&quot;);null!=p&amp;&amp;f.transform(h(p)),&quot;userSpaceOnUse&quot;===a.getAttribute(&quot;gradientUnits&quot;)&amp;&amp;f.transform(new x(-i.x,-i.y)),f.paintMesh(u.data,l.width),c.putImageData(u,0,0);const y=document.createElementNS(t,&quot;image&quot;);d(y,{width:i.width,height:i.height,x:i.x,y:i.y});let g=l.toDataURL();y.setAttributeNS(e,&quot;xlink:href&quot;,g),r.parentNode.insertBefore(y,r),r.style.fill=&quot;none&quot;;const w=document.createElementNS(t,&quot;use&quot;);w.setAttributeNS(e,&quot;xlink:href&quot;,&quot;#&quot;+o);const m=&quot;patchjs_clip&quot;+n,M=document.createElementNS(t,&quot;clipPath&quot;);M.setAttribute(&quot;id&quot;,m),M.appendChild(w),r.parentElement.insertBefore(M,r),y.setAttribute(&quot;clip-path&quot;,&quot;url(#&quot;+m+&quot;)&quot;),u=null,l=null,g=null}}if(a&amp;&amp;a[1]){const o=document.getElementById(a[1]);if(o&amp;&amp;&quot;meshgradient&quot;===o.nodeName){const i=parseFloat(r.style.strokeWidth.slice(0,-2))*(parseFloat(r.style.strokeMiterlimit)||parseFloat(r.getAttribute(&quot;stroke-miterlimit&quot;))||1),a=r.getBBox(),l=Math.trunc(a.width+i),c=Math.trunc(a.height+i),u=Math.trunc(a.x-i/2),f=Math.trunc(a.y-i/2);let p=document.createElementNS(s,&quot;canvas&quot;);d(p,{width:l,height:c});const y=p.getContext(&quot;2d&quot;);let g=y.createImageData(l,c);const w=new b(o);&quot;objectBoundingBox&quot;===o.getAttribute(&quot;gradientUnits&quot;)&amp;&amp;w.scale(new x(l,c));const m=o.getAttribute(&quot;gradientTransform&quot;);null!=m&amp;&amp;w.transform(h(m)),&quot;userSpaceOnUse&quot;===o.getAttribute(&quot;gradientUnits&quot;)&amp;&amp;w.transform(new x(-u,-f)),w.paintMesh(g.data,p.width),y.putImageData(g,0,0);const M=document.createElementNS(t,&quot;image&quot;);d(M,{width:l,height:c,x:0,y:0});let S=p.toDataURL();M.setAttributeNS(e,&quot;xlink:href&quot;,S);const k=&quot;pattern_clip&quot;+n,A=document.createElementNS(t,&quot;pattern&quot;);d(A,{id:k,patternUnits:&quot;userSpaceOnUse&quot;,width:l,height:c,x:u,y:f}),A.appendChild(M),o.parentNode.appendChild(A),r.style.stroke=&quot;url(#&quot;+k+&quot;)&quot;,g=null,p=null,S=null}}})}();
</script></svg>
