<?xml version="1.0" encoding="UTF-8" standalone="no"?>
<!-- Created with Inkscape (http://www.inkscape.org/) -->

<svg
   width="200"
   height="201.17665"
   viewBox="0 0 52.916666 53.227988"
   version="1.1"
   id="svg1"
   inkscape:version="1.4.2 (f4327f4, 2025-05-13)"
   sodipodi:docname="Bumblebee1.svg"
   xmlns:inkscape="http://www.inkscape.org/namespaces/inkscape"
   xmlns:sodipodi="http://sodipodi.sourceforge.net/DTD/sodipodi-0.dtd"
   xmlns:xlink="http://www.w3.org/1999/xlink"
   xmlns="http://www.w3.org/2000/svg"
   xmlns:svg="http://www.w3.org/2000/svg">
  <sodipodi:namedview
     id="namedview1"
     pagecolor="#ffffff"
     bordercolor="#000000"
     borderopacity="0.25"
     inkscape:showpageshadow="2"
     inkscape:pageopacity="0.0"
     inkscape:pagecheckerboard="0"
     inkscape:deskcolor="#d1d1d1"
     inkscape:document-units="mm"
     inkscape:zoom="2.271521"
     inkscape:cx="83.204161"
     inkscape:cy="69.777035"
     inkscape:window-width="3840"
     inkscape:window-height="2054"
     inkscape:window-x="-11"
     inkscape:window-y="-11"
     inkscape:window-maximized="1"
     inkscape:current-layer="layer2" />
  <defs
     id="defs1">
    <inkscape:path-effect
       effect="spiro"
       id="path-effect8"
       is_visible="true"
       lpeversion="1" />
    <inkscape:path-effect
       effect="mirror_symmetry"
       start_point="17.255329,9.2448751"
       end_point="17.255329,29.300879"
       center_point="17.255329,19.272877"
       id="path-effect5"
       is_visible="true"
       lpeversion="1.2"
       lpesatellites=""
       mode="free"
       discard_orig_path="false"
       fuse_paths="true"
       oposite_fuse="false"
       split_items="false"
       split_open="false"
       link_styles="false" />
    <inkscape:path-effect
       effect="mirror_symmetry"
       start_point="27.030316,8.4102839"
       end_point="27.030316,28.182973"
       center_point="27.030316,18.296628"
       id="path-effect3"
       is_visible="true"
       lpeversion="1.2"
       lpesatellites=""
       mode="free"
       discard_orig_path="false"
       fuse_paths="false"
       oposite_fuse="false"
       split_items="false"
       split_open="false"
       link_styles="false" />
    <linearGradient
       inkscape:collect="always"
       xlink:href="#linearGradient33"
       id="linearGradient34"
       x1="9.157506"
       y1="0.65352297"
       x2="9.5236139"
       y2="7.639287"
       gradientUnits="userSpaceOnUse" />
    <linearGradient
       id="linearGradient33"
       inkscape:collect="always">
      <stop
         style="stop-color:#ffd1a8;stop-opacity:1;"
         offset="0"
         id="stop33" />
      <stop
         style="stop-color:#a06c34;stop-opacity:1;"
         offset="0.69575757"
         id="stop34" />
    </linearGradient>
    <inkscape:path-effect
       effect="spiro"
       id="path-effect8-8"
       is_visible="true"
       lpeversion="1" />
    <inkscape:path-effect
       effect="spiro"
       id="path-effect8-0"
       is_visible="true"
       lpeversion="1" />
    <inkscape:path-effect
       effect="spiro"
       id="path-effect8-0-9"
       is_visible="true"
       lpeversion="1" />
    <inkscape:path-effect
       effect="spiro"
       id="path-effect8-8-6"
       is_visible="true"
       lpeversion="1" />
    <inkscape:path-effect
       effect="spiro"
       id="path-effect8-3"
       is_visible="true"
       lpeversion="1" />
  </defs>
  <g
     inkscape:label="Ebene 1"
     inkscape:groupmode="layer"
     id="layer1"
     transform="translate(-0.20000279)">
    <rect
       style="fill:#d9a87a;fill-opacity:1;stroke:#212532;stroke-width:1.29973;stroke-linejoin:round;stroke-miterlimit:8.2;stroke-dasharray:none;stroke-opacity:0.995995"
       id="rect1"
       width="51.616936"
       height="51.616943"
       x="0.84986776"
       y="0.96118194"
       ry="5.9818354"
       rx="19.15794" />
    <rect
       style="fill:#f4e9de;fill-opacity:1;stroke:#212532;stroke-width:0.689558;stroke-linejoin:round;stroke-miterlimit:8.2;stroke-dasharray:none;stroke-opacity:0.995995"
       id="rect1-8"
       width="45.94006"
       height="45.940067"
       x="3.6883085"
       y="3.7996202"
       ry="5.3239479"
       rx="17.050934" />
    <path
       sodipodi:type="star"
       style="fill:url(#linearGradient34);fill-opacity:1;fill-rule:nonzero;stroke:#322d21;stroke-width:0.443;stroke-linejoin:round;stroke-miterlimit:8.2;stroke-opacity:0.995995"
       id="path1-5"
       inkscape:flatsided="false"
       sodipodi:sides="5"
       sodipodi:cx="9.3473988"
       sodipodi:cy="4.4553022"
       sodipodi:r1="3.4362388"
       sodipodi:r2="2.3474281"
       sodipodi:arg1="0.9357696"
       sodipodi:arg2="1.5640882"
       inkscape:rounded="0.12173243"
       inkscape:randomized="0"
       d="M 11.385772,7.2216663 C 11.183344,7.3708242 9.6145864,6.8009908 9.3631455,6.8026775 9.1117046,6.8043642 7.5507336,7.3951928 7.3463222,7.2487642 7.1419108,7.1023355 7.1990819,5.4342704 7.1197782,5.1956571 7.0404745,4.9570438 5.9961966,3.6550483 6.0722919,3.4153926 6.1483873,3.1757368 7.7524783,2.7146493 7.9549068,2.5654914 8.1573353,2.4163336 9.0729071,1.0208275 9.324348,1.0191408 c 0.2514409,-0.00169 1.185653,1.3814106 1.390064,1.5278393 0.204411,0.1464286 1.814544,0.585954 1.893847,0.8245673 0.0793,0.2386133 -0.947412,1.5545019 -1.023508,1.7941577 -0.0761,0.2396557 0.0034,1.9068034 -0.198979,2.0559612 z"
       inkscape:transform-center-x="0.082178329"
       inkscape:transform-center-y="-1.0343217"
       transform="matrix(1.2232888,0,0,1.2232888,15.232364,-0.97573803)" />
  </g>
  <g
     inkscape:groupmode="layer"
     id="layer2"
     inkscape:label="Äpfel">
    <path
       id="path2"
       style="fill:#565656;fill-opacity:0.738185;stroke:#000000;stroke-width:0;stroke-linecap:square;paint-order:fill markers stroke"
       d="m 31.069994,13.699207 c -1.865917,0.06885 -2.855846,1.166163 -3.907771,2.204274 -1.069603,1.055554 -1.168077,3.1092 -1.012342,4.852254 -0.2218,1.1e-4 -0.442439,0.0026 -0.661458,0.0073 0.134166,-1.705002 0.0084,-3.661569 -1.026811,-4.683164 -1.530073,-1.509979 -2.927829,-3.14525 -7.082772,-1.558474 -1.793018,0.684755 -1.972276,3.151159 -1.235583,4.610639 0.473931,0.938916 1.742554,1.822737 3.174483,2.570158 -2.665719,0.8858 -4.410067,2.400323 -4.410067,4.573155 10e-7,3.729947 2.348173,7.987537 11.258228,7.987537 2.336115,0 4.196115,-0.292961 5.669421,-0.792071 a 6.5478368,5.3250079 0 0 0 1.809709,0.207796 6.5478368,5.3250079 0 0 0 6.547916,-5.325297 6.5478368,5.3250079 0 0 0 -4.464322,-5.048234 c -0.824446,-0.770994 -1.995662,-1.363714 -3.414779,-1.78294 1.428975,-0.746623 2.694115,-1.629154 3.167249,-2.566492 0.736692,-1.459481 0.557442,-3.925884 -1.235584,-4.61064 -1.298419,-0.495867 -2.327373,-0.677093 -3.175517,-0.645799 z" />
    <path
       sodipodi:type="star"
       style="fill:#e0bb96;fill-opacity:1;stroke:#9fe7f9;stroke-width:0;stroke-linecap:round;stroke-dasharray:none;stroke-opacity:0.995995;paint-order:fill markers stroke"
       id="path1-89"
       inkscape:flatsided="false"
       sodipodi:sides="4"
       sodipodi:cx="30.062395"
       sodipodi:cy="13.260399"
       sodipodi:r1="4.567977"
       sodipodi:r2="1.9473779"
       sodipodi:arg1="0.44751998"
       sodipodi:arg2="1.2690543"
       inkscape:rounded="0.2"
       inkscape:randomized="2.7755576e-17"
       d="m 34.180532,15.237104 c -0.32936,0.627032 -2.871183,-0.352091 -3.539407,-0.117309 -0.643552,0.226113 -1.951556,2.57594 -2.555435,2.25874 -0.627032,-0.32936 0.352091,-2.871182 0.117309,-3.539407 -0.226113,-0.643552 -2.57594,-1.951555 -2.25874,-2.555435 0.32936,-0.627031 2.871182,0.352092 3.539407,0.11731 0.643551,-0.226113 1.951555,-2.57594 2.555435,-2.2587407 0.627031,0.3293602 -0.352092,2.8711827 -0.11731,3.5394067 0.226113,0.643552 2.57594,1.951556 2.258741,2.555435 z"
       transform="matrix(0.33627938,-0.80710428,0.80710428,0.33627938,-10.203095,50.280819)" />
    <path
       sodipodi:type="star"
       style="fill:#c5a584;fill-opacity:1;stroke:#9fe7f9;stroke-width:0;stroke-linecap:round;stroke-dasharray:none;stroke-opacity:0.995995;paint-order:fill markers stroke"
       id="path1"
       inkscape:flatsided="false"
       sodipodi:sides="4"
       sodipodi:cx="30.062395"
       sodipodi:cy="13.260399"
       sodipodi:r1="4.567977"
       sodipodi:r2="1.9473779"
       sodipodi:arg1="0.44751998"
       sodipodi:arg2="1.2690543"
       inkscape:rounded="0.2"
       inkscape:randomized="2.7755576e-17"
       d="m 34.180532,15.237104 c -0.32936,0.627032 -2.871183,-0.352091 -3.539407,-0.117309 -0.643552,0.226113 -1.951556,2.57594 -2.555435,2.25874 -0.627032,-0.32936 0.352091,-2.871182 0.117309,-3.539407 -0.226113,-0.643552 -2.57594,-1.951555 -2.25874,-2.555435 0.32936,-0.627031 2.871182,0.352092 3.539407,0.11731 0.643551,-0.226113 1.951555,-2.57594 2.555435,-2.2587407 0.627031,0.3293602 -0.352092,2.8711827 -0.11731,3.5394067 0.226113,0.643552 2.57594,1.951556 2.258741,2.555435 z"
       transform="matrix(1.1633544,0,0,1.1633544,7.6269269,3.9251455)" />
    <path
       sodipodi:type="star"
       style="fill:#c5a584;fill-opacity:1;stroke:#9fe7f9;stroke-width:0;stroke-linecap:round;stroke-dasharray:none;stroke-opacity:0.995995;paint-order:fill markers stroke"
       id="path1-51"
       inkscape:flatsided="false"
       sodipodi:sides="4"
       sodipodi:cx="30.062395"
       sodipodi:cy="13.260399"
       sodipodi:r1="4.567977"
       sodipodi:r2="1.9473779"
       sodipodi:arg1="0.44751998"
       sodipodi:arg2="1.2690543"
       inkscape:rounded="0.2"
       inkscape:randomized="2.7755576e-17"
       d="m 34.180532,15.237104 c -0.32936,0.627032 -2.871183,-0.352091 -3.539407,-0.117309 -0.643552,0.226113 -1.951556,2.57594 -2.555435,2.25874 -0.627032,-0.32936 0.352091,-2.871182 0.117309,-3.539407 -0.226113,-0.643552 -2.57594,-1.951555 -2.25874,-2.555435 0.32936,-0.627031 2.871182,0.352092 3.539407,0.11731 0.643551,-0.226113 1.951555,-2.57594 2.555435,-2.2587407 0.627031,0.3293602 -0.352092,2.8711827 -0.11731,3.5394067 0.226113,0.643552 2.57594,1.951556 2.258741,2.555435 z"
       transform="matrix(0.34660794,0.53514453,-0.53514453,0.34660794,21.052677,18.788768)" />
    <path
       sodipodi:type="star"
       style="fill:#937b62;fill-opacity:1;stroke:#9fe7f9;stroke-width:0;stroke-linecap:round;stroke-dasharray:none;stroke-opacity:0.995995;paint-order:fill markers stroke"
       id="path1-2"
       inkscape:flatsided="false"
       sodipodi:sides="4"
       sodipodi:cx="30.062395"
       sodipodi:cy="13.260399"
       sodipodi:r1="4.567977"
       sodipodi:r2="1.9473779"
       sodipodi:arg1="0.44751998"
       sodipodi:arg2="1.2690543"
       inkscape:rounded="0.2"
       inkscape:randomized="2.7755576e-17"
       d="m 34.180532,15.237104 c -0.32936,0.627032 -2.871183,-0.352091 -3.539407,-0.117309 -0.643552,0.226113 -1.951556,2.57594 -2.555435,2.25874 -0.627032,-0.32936 0.352091,-2.871182 0.117309,-3.539407 -0.226113,-0.643552 -2.57594,-1.951555 -2.25874,-2.555435 0.32936,-0.627031 2.871182,0.352092 3.539407,0.11731 0.643551,-0.226113 1.951555,-2.57594 2.555435,-2.2587407 0.627031,0.3293602 -0.352092,2.8711827 -0.11731,3.5394067 0.226113,0.643552 2.57594,1.951556 2.258741,2.555435 z"
       transform="matrix(0.30992527,0,0,0.30992527,10.810559,8.1762432)" />
    <path
       sodipodi:type="star"
       style="fill:#e8c39c;fill-opacity:1;stroke:#9fe7f9;stroke-width:0;stroke-linecap:round;stroke-dasharray:none;stroke-opacity:0.995995;paint-order:fill markers stroke"
       id="path1-23"
       inkscape:flatsided="false"
       sodipodi:sides="4"
       sodipodi:cx="30.062395"
       sodipodi:cy="13.260399"
       sodipodi:r1="4.567977"
       sodipodi:r2="1.9473779"
       sodipodi:arg1="0.44751998"
       sodipodi:arg2="1.2690543"
       inkscape:rounded="0.2"
       inkscape:randomized="2.7755576e-17"
       d="m 34.180532,15.237104 c -0.32936,0.627032 -2.871183,-0.352091 -3.539407,-0.117309 -0.643552,0.226113 -1.951556,2.57594 -2.555435,2.25874 -0.627032,-0.32936 0.352091,-2.871182 0.117309,-3.539407 -0.226113,-0.643552 -2.57594,-1.951555 -2.25874,-2.555435 0.32936,-0.627031 2.871182,0.352092 3.539407,0.11731 0.643551,-0.226113 1.951555,-2.57594 2.555435,-2.2587407 0.627031,0.3293602 -0.352092,2.8711827 -0.11731,3.5394067 0.226113,0.643552 2.57594,1.951556 2.258741,2.555435 z"
       transform="matrix(0.59281783,-0.39656337,0.39656337,0.59281783,-11.499625,23.680646)" />
    <path
       sodipodi:type="star"
       style="fill:#c5a584;fill-opacity:1;stroke:#9fe7f9;stroke-width:0;stroke-linecap:round;stroke-dasharray:none;stroke-opacity:0.995995;paint-order:fill markers stroke"
       id="path1-8"
       inkscape:flatsided="false"
       sodipodi:sides="4"
       sodipodi:cx="30.062395"
       sodipodi:cy="13.260399"
       sodipodi:r1="4.567977"
       sodipodi:r2="1.9473779"
       sodipodi:arg1="0.44751998"
       sodipodi:arg2="1.2690543"
       inkscape:rounded="0.2"
       inkscape:randomized="2.7755576e-17"
       d="m 34.180532,15.237104 c -0.32936,0.627032 -2.871183,-0.352091 -3.539407,-0.117309 -0.643552,0.226113 -1.951556,2.57594 -2.555435,2.25874 -0.627032,-0.32936 0.352091,-2.871182 0.117309,-3.539407 -0.226113,-0.643552 -2.57594,-1.951555 -2.25874,-2.555435 0.32936,-0.627031 2.871182,0.352092 3.539407,0.11731 0.643551,-0.226113 1.951555,-2.57594 2.555435,-2.2587407 0.627031,0.3293602 -0.352092,2.8711827 -0.11731,3.5394067 0.226113,0.643552 2.57594,1.951556 2.258741,2.555435 z"
       transform="matrix(0.36619905,0.13892611,-0.13892611,0.36619905,-0.81241856,7.3613041)" />
  </g>
</svg>
