<?xml version="1.0" encoding="UTF-8" standalone="no"?>
<!-- Created with Inkscape (http://www.inkscape.org/) -->

<svg
   width="200"
   height="201.17665"
   viewBox="0 0 52.916666 53.227988"
   version="1.1"
   id="svg1"
   inkscape:version="1.4.2 (f4327f4, 2025-05-13)"
   sodipodi:docname="carnivore.svg"
   xml:space="preserve"
   xmlns:inkscape="http://www.inkscape.org/namespaces/inkscape"
   xmlns:sodipodi="http://sodipodi.sourceforge.net/DTD/sodipodi-0.dtd"
   xmlns="http://www.w3.org/2000/svg"
   xmlns:svg="http://www.w3.org/2000/svg"><sodipodi:namedview
     id="namedview1"
     pagecolor="#ffffff"
     bordercolor="#000000"
     borderopacity="0.25"
     inkscape:showpageshadow="2"
     inkscape:pageopacity="0.0"
     inkscape:pagecheckerboard="0"
     inkscape:deskcolor="#d1d1d1"
     inkscape:document-units="mm"
     inkscape:zoom="1.4142136"
     inkscape:cx="235.46655"
     inkscape:cy="95.10586"
     inkscape:window-width="3840"
     inkscape:window-height="2054"
     inkscape:window-x="-11"
     inkscape:window-y="-11"
     inkscape:window-maximized="1"
     inkscape:current-layer="svg1" /><defs
     id="defs1" /><g
     inkscape:label="Ebene 1"
     inkscape:groupmode="layer"
     id="layer1"
     transform="translate(-0.20000279)"><path
       id="path4-8"
       style="fill:#182227;fill-opacity:1;stroke:#000000;stroke-width:0;stroke-linecap:square;paint-order:fill markers stroke"
       d="m 43.134656,35.268648 c -0.03698,-0.949016 -0.612776,-2.028674 -1.21614,-2.71101 -1.001404,-1.132576 -3.753083,-1.707779 -4.94723,-1.909691 a 4.5628422,3.5232072 88.448184 0 0 -0.366995,-1.697904 c 1.14019,-0.252686 3.949008,-0.980927 4.906805,-2.190278 0.822597,-1.038549 1.540795,-2.915864 0.673439,-3.917288 -0.744213,-0.859231 -2.466064,-0.543613 -3.408236,0.09233 -1.377762,0.929933 -2.183324,3.889351 -2.501851,5.322688 a 4.5628422,3.5232072 88.448184 0 0 -2.939617,-1.869885 4.5628422,3.5232072 88.448184 0 0 -3.397366,4.656623 4.5628422,3.5232072 88.448184 0 0 2.956014,4.396509 3.6964797,2.3680574 88.448184 0 0 2.248916,2.221989 3.6964797,2.3680574 88.448184 0 0 2.267849,-3.758469 3.6964797,2.3680574 88.448184 0 0 -0.01308,-0.253715 c 0.495764,1.187524 1.169183,2.377178 1.997618,2.873264 0.975221,0.584 2.711633,0.805931 3.408233,-0.09233 0.253708,-0.32716 0.348465,-0.731462 0.331632,-1.162833 z" /><path
       id="path4-8-2"
       style="fill:#182227;fill-opacity:1;stroke:#000000;stroke-width:0;stroke-linecap:square;paint-order:fill markers stroke"
       d="m 23.918629,18.527118 c -0.94967,-0.007 -2.044525,-0.348219 -2.74295,-0.713331 -1.15928,-0.605976 -1.80879,-2.313991 -2.042967,-3.056025 a 4.5628422,2.2001776 0 0 1 -1.707219,-0.200383 c -0.221716,0.71604 -0.873625,2.481767 -2.056594,3.100126 -1.015891,0.531071 -2.873068,1.011157 -3.897614,0.486643 -0.87907,-0.450046 -0.610197,-1.530253 0,-2.129161 0.892281,-0.875798 3.828798,-1.42872 5.252983,-1.651801 a 4.5628422,2.2001776 0 0 1 -1.948807,-1.803441 4.5628422,2.2001776 0 0 1 4.562911,-2.199565 4.5628422,2.2001776 0 0 1 4.474949,1.770947 3.6964797,1.478808 0 0 1 2.282076,1.366314 3.6964797,1.478808 0 0 1 -3.695674,1.479272 3.6964797,1.478808 0 0 1 -0.253977,-0.0039 c 1.200515,0.289399 2.407969,0.689664 2.926308,1.198426 0.610196,0.598908 0.879069,1.679114 0,2.12916 -0.320169,0.16391 -0.721757,0.2299 -1.153425,0.226687 z" /></g><path
     style="fill:#51679e;fill-opacity:1;stroke:#27312a;stroke-width:0.458;stroke-linecap:round;stroke-linejoin:round;stroke-dasharray:none;stroke-dashoffset:0;stroke-opacity:1"
     d="m 36.136239,35.688561 c 0,0 1.006307,0.40765 0.951741,0.88145 -0.08193,0.711386 -3.549297,1.78353 -5.467857,1.797843 -4.946994,0.0369 -14.166421,-4.424869 -14.166421,-4.424869 l 4.380795,-1.773737 0.152265,1.987067 9.438779,2.936795 z"
     id="path48"
     sodipodi:nodetypes="ccaccccc" /><path
     style="fill:#a3bcf8;fill-opacity:1;stroke:#27312a;stroke-width:0.30209;stroke-linecap:round;stroke-linejoin:round;stroke-dasharray:none;stroke-dashoffset:0;stroke-opacity:1"
     d="m 37.925053,33.35965 c 0,0 0.07854,0.630668 -0.02946,0.916669 -0.115961,0.307086 -0.357503,0.571847 -0.626842,0.759475 -0.213316,0.148602 -0.736274,0.257256 -0.736274,0.257256 0,0 0.294951,-0.383438 0.353844,-0.611441 0.07153,-0.276883 0.04007,-0.577398 -0.01627,-0.857767 -0.02909,-0.144764 -0.163329,-0.411768 -0.163329,-0.411768 z"
     id="path47-6"
     sodipodi:nodetypes="caacaacc" /><path
     id="path2-5"
     style="fill:#182227;fill-opacity:1;stroke:#5f6348;stroke-width:0;stroke-linecap:round;stroke-linejoin:round;paint-order:fill markers stroke"
     d="m 20.082209,38.831611 c 0.0018,0.03063 0.0134,0.05197 0.03586,0.06312 0.982274,0.48844 1.796876,0.307207 2.450741,-0.166335 -0.518076,1.594562 -1.07103,3.43403 -0.851558,3.39861 2.900794,-0.468163 3.14534,-6.464916 3.14534,-6.464916 l 0.180314,-1.693157 0.144985,-0.491285 0.115279,1.078201 c 0.02396,0.224076 0.184719,0.406732 0.41217,0.504061 -8.76e-4,0.02661 4.98e-4,0.05357 0.0034,0.08078 l 0.240957,2.253666 c 0.01697,0.158713 0.09042,0.297069 0.197832,0.396841 -0.07987,0.118736 -0.119676,0.266113 -0.103119,0.420975 l 0.240997,2.254046 c 0.01675,0.156619 0.0881,0.293282 0.193186,0.392738 -0.0781,0.118044 -0.11688,0.263733 -0.100506,0.416873 l 0.240997,2.254045 c 0.03702,0.346209 0.34202,0.595396 0.684061,0.558826 l 0.827666,-0.08849 c 0.342042,-0.03657 0.58746,-0.344608 0.550445,-0.690816 l -0.240998,-2.254046 c -0.01675,-0.156618 -0.08846,-0.29325 -0.193566,-0.392697 0.07811,-0.118044 0.117252,-0.263773 0.100879,-0.416913 l -0.240997,-2.254045 c -0.01697,-0.158715 -0.09042,-0.297071 -0.197831,-0.396842 0.07987,-0.118729 0.120056,-0.266154 0.103499,-0.421016 L 27.781285,34.92017 c -0.0018,-0.01721 -0.0044,-0.0342 -0.0077,-0.05089 0.233932,-0.142163 0.375562,-0.37178 0.34956,-0.614977 l -0.256293,-2.397102 c -0.0046,-0.0427 -0.01416,-0.08357 -0.02811,-0.122923 0.367645,-0.207932 0.593316,-0.558368 0.553541,-0.930385 L 28.01359,27.261984 c -0.05817,-0.544059 -0.661267,-0.922599 -1.352373,-0.848708 l -1.671979,0.178764 c -0.691106,0.07389 -1.200541,0.571381 -1.142372,1.11544 l 0.378693,3.541909 c 0.03719,0.347813 0.296957,0.627843 0.660208,0.765393 l -0.305701,0.874796 -1.641588,2.152931 c 0,0 -2.88667,3.260248 -2.856134,3.78901 z" /><path
     id="path2-5-5"
     style="fill:#182227;fill-opacity:1;stroke:#5f6348;stroke-width:0;stroke-linecap:round;stroke-linejoin:round;paint-order:fill markers stroke"
     d="m 12.258193,41.166421 c 0.0188,0.006 0.03427,0.0039 0.04612,-0.007 0.518788,-0.477305 0.597154,-1.007821 0.463166,-1.509022 0.837962,0.677231 1.814891,1.431655 1.844052,1.291803 0.385412,-1.848458 -3.157359,-3.372817 -3.157359,-3.372817 l -0.974726,-0.49717 -0.261538,-0.199872 0.673564,0.178503 c 0.139983,0.0371 0.286535,-0.01742 0.397197,-0.131569 0.01577,0.0066 0.03227,0.012 0.04926,0.01651 l 1.40789,0.37311 c 0.09915,0.02628 0.199058,0.01398 0.283611,-0.02757 0.05291,0.07521 0.132215,0.132956 0.228958,0.158594 l 1.408128,0.373173 c 0.09784,0.02593 0.196252,0.0145 0.280081,-0.02572 0.0529,0.07399 0.131429,0.130731 0.227097,0.156083 l 1.408126,0.373173 c 0.216282,0.05732 0.435897,-0.06849 0.492525,-0.282164 l 0.137027,-0.517051 c 0.05663,-0.213677 -0.07186,-0.431728 -0.288143,-0.489046 l -1.408128,-0.373172 c -0.09784,-0.02593 -0.196315,-0.01428 -0.280143,0.02596 -0.0529,-0.074 -0.131368,-0.130963 -0.227036,-0.156317 l -1.408127,-0.373172 c -0.09915,-0.02628 -0.199058,-0.01398 -0.283611,0.02756 -0.05291,-0.07521 -0.132152,-0.133193 -0.228896,-0.158831 l -1.407889,-0.373109 c -0.01075,-0.0029 -0.02153,-0.0052 -0.03231,-0.0071 -0.03158,-0.173053 -0.136848,-0.3108 -0.288775,-0.351063 L 9.8608146,34.892274 c -0.02668,-0.007 -0.05341,-0.0107 -0.08023,-0.01137 -0.04034,-0.268408 -0.198805,-0.484348 -0.431209,-0.545938 L 7.1367066,33.74858 c -0.33988,-0.09007 -0.705606,0.184916 -0.820023,0.616657 l -0.276807,1.044504 c -0.114418,0.431741 0.06712,0.851763 0.407001,0.941837 l 2.212669,0.586386 c 0.217283,0.05758 0.445018,-0.03399 0.611015,-0.220395 l 0.454783,0.384428 0.9149694,1.479776 c 0,0 1.293501,2.481388 1.617852,2.584531 z" /><path
     id="path53"
     style="fill:#6b89d2;fill-opacity:1;stroke:#27312a;stroke-width:0.457999;stroke-linecap:round;stroke-linejoin:round;stroke-dasharray:none;stroke-dashoffset:0;stroke-opacity:1"
     d="m 5.7282343,7.1215526 8.5045557,10.0592654 4.910166,5.540131 -0.0029,0.0037 c 1.050999,-0.105116 2.122989,-0.0719 3.178596,-0.03449 0.7438,0.0264 1.499319,0.06499 2.214955,0.243456 1.841512,0.459251 3.570434,1.214024 5.226557,2.0983 1.861697,0.994041 3.666193,2.151871 5.228708,3.570525 1.27563,1.158182 3.866763,3.009306 3.312426,3.968253 -1.0759,1.861222 -4.291449,3.270894 -6.576494,3.426398 -1.711396,0.116469 -2.569338,-0.7911 -3.428267,-0.987647 -2.267765,-0.518926 -3.407031,-0.203828 -4.537265,-1.0434 -3.293777,-2.446713 -1.233277,-2.332606 -1.772452,0.19025 -3.325701,0.282722 -5.07212,0.338503 -9.185169,-4.317915 -0.348557,-0.394598 -0.241695,-0.384837 -0.241695,-0.384837 L 3.8609323,18.608829 3.7423513,14.450883 3.4566563,10.216756 4.0106863,8.2338145 Z"
     sodipodi:nodetypes="ccccsssssssscscccccc" /><path
     style="fill:#a3bcf8;fill-opacity:1;stroke:#27312a;stroke-width:0.358;stroke-linecap:round;stroke-linejoin:round;stroke-dasharray:none;stroke-dashoffset:0;stroke-opacity:1"
     d="m 32.050404,36.025356 c 0,0 0.09307,0.747388 -0.03491,1.086322 -0.137424,0.363919 -0.42367,0.677681 -0.74285,0.90004 -0.252795,0.176107 -0.872542,0.304866 -0.872542,0.304866 0,0 0.349498,-0.454435 0.419332,-0.724604 0.08477,-0.328127 0.04748,-0.68426 -0.01928,-1.016519 -0.03447,-0.171558 -0.193557,-0.487977 -0.193557,-0.487977 z"
     id="path47"
     sodipodi:nodetypes="caacaacc" /><ellipse
     style="fill:#5c6784;fill-opacity:1;stroke:#27312a;stroke-width:0.307229;stroke-linecap:round;stroke-linejoin:round;stroke-dasharray:none;stroke-dashoffset:0;stroke-opacity:1"
     id="path56"
     cx="-15.615937"
     cy="43.549896"
     rx="0.26689991"
     ry="0.48880738"
     transform="matrix(-0.94209666,0.33534145,0.50694064,0.86198097,0,0)" /><ellipse
     style="fill:#5c6784;fill-opacity:1;stroke:#27312a;stroke-width:0.358;stroke-linecap:round;stroke-linejoin:round;stroke-dasharray:none;stroke-dashoffset:0;stroke-opacity:1"
     id="path57"
     cx="-15.799291"
     cy="44.528877"
     rx="0.33487564"
     ry="0.58239245"
     transform="matrix(-0.91859572,0.39519856,0.39519856,0.91859572,0,0)" /><path
     style="fill:#568257;fill-opacity:1;stroke:#27312a;stroke-width:0.358;stroke-linecap:round;stroke-linejoin:round;stroke-dasharray:none;stroke-dashoffset:0;stroke-opacity:1"
     d="m 19.586261,22.724498 c 0,0 -1.326255,0.136637 -1.96618,0.312358 -0.68452,0.187963 -1.9789,0.78678 -1.9789,0.78678"
     id="path59"
     sodipodi:nodetypes="cac" /><path
     style="fill:#c7d9f4;fill-opacity:1;stroke:#303b32;stroke-width:0.8;stroke-linecap:round;stroke-linejoin:round;stroke-dasharray:none;paint-order:fill markers stroke"
     d="m 24.585133,27.354303 -1.935211,0.799705 -3.254837,2.39492"
     id="path1" /><path
     style="fill:#c7d9f4;fill-opacity:1;stroke:#303b32;stroke-width:0.8;stroke-linecap:round;stroke-linejoin:round;stroke-dasharray:none;paint-order:fill markers stroke"
     d="m 29.230685,25.262866 -2.154792,0.521526 -0.21756,0.429602"
     id="path2" /></svg>
