<?xml version="1.0" encoding="UTF-8" standalone="no"?>
<!-- Created with Inkscape (http://www.inkscape.org/) -->

<svg
   width="200"
   height="201.17665"
   viewBox="0 0 52.916666 53.227988"
   version="1.1"
   id="svg1"
   inkscape:version="1.4.2 (f4327f4, 2025-05-13)"
   sodipodi:docname="Catch.svg"
   xml:space="preserve"
   xmlns:inkscape="http://www.inkscape.org/namespaces/inkscape"
   xmlns:sodipodi="http://sodipodi.sourceforge.net/DTD/sodipodi-0.dtd"
   xmlns:xlink="http://www.w3.org/1999/xlink"
   xmlns="http://www.w3.org/2000/svg"
   xmlns:svg="http://www.w3.org/2000/svg"><sodipodi:namedview
     id="namedview1"
     pagecolor="#ffffff"
     bordercolor="#000000"
     borderopacity="0.25"
     inkscape:showpageshadow="2"
     inkscape:pageopacity="0.0"
     inkscape:pagecheckerboard="0"
     inkscape:deskcolor="#d1d1d1"
     inkscape:document-units="mm"
     inkscape:zoom="1.4142136"
     inkscape:cx="-24.395184"
     inkscape:cy="223.7993"
     inkscape:window-width="3840"
     inkscape:window-height="2054"
     inkscape:window-x="-11"
     inkscape:window-y="-11"
     inkscape:window-maximized="1"
     inkscape:current-layer="layer1" /><defs
     id="defs1"><linearGradient
       inkscape:collect="always"
       xlink:href="#linearGradient6"
       id="linearGradient7"
       x1="14.302386"
       y1="2.0970953"
       x2="16.232031"
       y2="4.4800081"
       gradientUnits="userSpaceOnUse"
       gradientTransform="matrix(2.4581979,0,0,2.0915215,-15.773298,-2.631046)" /><linearGradient
       id="linearGradient6"
       inkscape:collect="always"><stop
         style="stop-color:#8080d5;stop-opacity:1;"
         offset="0"
         id="stop6" /><stop
         style="stop-color:#3f3fa8;stop-opacity:1;"
         offset="1"
         id="stop7" /></linearGradient><linearGradient
       inkscape:collect="always"
       xlink:href="#linearGradient4"
       id="linearGradient5"
       x1="19.683516"
       y1="1.3110757"
       x2="18.781071"
       y2="5.2199874"
       gradientUnits="userSpaceOnUse"
       gradientTransform="matrix(2.4581979,0,0,2.0915215,-16.87834,-2.587346)" /><linearGradient
       id="linearGradient4"
       inkscape:collect="always"><stop
         style="stop-color:#6ca8e2;stop-opacity:1;"
         offset="0"
         id="stop4" /><stop
         style="stop-color:#254465;stop-opacity:1;"
         offset="1"
         id="stop5" /></linearGradient><inkscape:path-effect
       effect="mirror_symmetry"
       start_point="19.481026,5.008575"
       end_point="17.530012,18.403601"
       center_point="18.505519,11.706088"
       id="path-effect8"
       is_visible="true"
       lpeversion="1.2"
       lpesatellites=""
       mode="free"
       discard_orig_path="false"
       fuse_paths="true"
       oposite_fuse="true"
       split_items="false"
       split_open="false"
       link_styles="false" /></defs><g
     inkscape:label="Ebene 1"
     inkscape:groupmode="layer"
     id="layer1"
     transform="translate(-0.20000279)"><rect
       style="fill:#7a96d9;fill-opacity:1;stroke:#212532;stroke-width:1.29973;stroke-linejoin:round;stroke-miterlimit:8.2;stroke-dasharray:none;stroke-opacity:0.995995"
       id="rect1"
       width="51.616936"
       height="51.616943"
       x="0.84986877"
       y="0.96118057"
       ry="5.9818354"
       rx="19.15794" /><rect
       style="fill:#c7d9f4;fill-opacity:1;stroke:#212532;stroke-width:0.689558;stroke-linejoin:round;stroke-miterlimit:8.2;stroke-dasharray:none;stroke-opacity:0.995995"
       id="rect1-8"
       width="45.94006"
       height="45.940067"
       x="3.6883106"
       y="3.7675676"
       ry="5.3239479"
       rx="17.050934" /><path
       style="fill:#4a659e;fill-opacity:1;stroke:#1c092f;stroke-width:0.477986;stroke-linecap:round;stroke-linejoin:round;stroke-dasharray:none;stroke-opacity:1;paint-order:fill markers stroke"
       d="m 33.129396,27.909307 c 0,0 -1.699916,0.822148 -2.423115,1.391016 -0.780067,0.6136 -1.582131,1.285322 -2.014397,2.140026 -0.526045,1.040129 -0.583883,3.397292 -0.583883,3.397292 l 0.759048,2.140026 1.342931,0.875714 0.642271,-0.260457 c 0,0 -0.222072,-1.366111 -0.08758,-2.033023 0.175064,-0.86811 0.559359,-1.728818 1.138571,-2.434279 0.498894,-0.607635 1.223084,-1.041535 1.926813,-1.444519 0.572337,-0.327742 1.235459,-0.499408 1.839234,-0.77576 0.989386,-0.452852 1.955063,-0.948392 2.919414,-1.444518 0.47153,-0.242586 1.001285,-0.415592 1.401319,-0.749008 0.345616,-0.288061 0.817436,-1.043264 0.817436,-1.043264 z"
       id="path5"
       sodipodi:nodetypes="caaccccaaaaaacc" /><path
       style="fill:#4a659e;fill-opacity:1;stroke:#1c092f;stroke-width:0.322978;stroke-linecap:round;stroke-linejoin:round;stroke-dasharray:none;stroke-opacity:1;paint-order:fill markers stroke"
       d="m 38.347905,42.937796 c -0.528517,0.604577 -0.394534,2.295567 -0.394534,2.295567 l 0.512893,1.446028 1.053617,0.774758 0.869681,0.639503 -0.277405,-1.224048 c 0,0 -0.390272,-0.750427 -0.363661,-1.148205 0.03984,-0.595399 0.371538,-1.172658 0.769338,-1.644856 1.142071,-0.699968 2.442981,-1.189789 3.652574,-1.811701 0.318615,-0.163916 0.710505,-0.250783 0.946878,-0.506107 0.148572,-0.160483 0.245471,-0.58991 0.245471,-0.58991 -2.438786,0.191432 -6.274012,0.921515 -7.014852,1.768971 z"
       id="path5-7"
       sodipodi:nodetypes="scccccaaaacs" /><path
       style="fill:#4a659e;fill-opacity:1;stroke:#1c092f;stroke-width:0.416216;stroke-linecap:round;stroke-linejoin:round;stroke-dasharray:none;stroke-opacity:1;paint-order:fill markers stroke"
       d="m 37.5602,34.524677 c 0,0 -1.48024,0.715904 -2.109983,1.211258 -0.679261,0.534306 -1.377675,1.119222 -1.75408,1.863476 -0.458065,0.905716 -0.50843,2.958268 -0.50843,2.958268 l 0.660958,1.863476 1.184279,1.493123 0.595225,-0.375037 c 0,0 -0.278591,-1.579831 -0.127108,-2.352637 0.148309,-0.756617 0.487074,-1.505409 0.991437,-2.119704 0.434423,-0.529112 1.065028,-0.906941 1.677815,-1.257847 0.498376,-0.285389 1.065748,-0.454273 1.601553,-0.675512 0.844357,-0.348638 1.727391,-0.623791 2.542147,-1.027252 0.703052,-0.348146 1.672924,-0.532323 2.011162,-1.195757 0.09237,-0.181171 -0.07913,-0.595498 -0.07913,-0.595498 z"
       id="path5-8"
       sodipodi:nodetypes="caaccccaaaaaacc" /><path
       style="fill:#789ce8;fill-opacity:1;stroke:#1c092f;stroke-width:0.416216;stroke-linecap:round;stroke-linejoin:round;stroke-dasharray:none;stroke-opacity:1;paint-order:fill markers stroke"
       d="m 28.194368,33.770229 c 0,0 0.50633,1.004015 0.948538,1.356407 0.260353,0.207474 0.601385,0.338099 0.940594,0.395988 0.534197,0.09117 1.08912,-0.02233 1.626973,-0.09317 1.023495,-0.134805 2.029275,-0.373987 3.025154,-0.628924 0.46455,-0.118921 0.919127,-0.269092 1.37276,-0.419282 0.504668,-0.167087 0.995949,-0.366769 1.499867,-0.53575 0.61403,-0.205903 1.240974,-0.378346 1.855766,-0.582335 0.846077,-0.28073 2.026718,-0.127085 2.429401,-0.05741 0.859981,0.148808 1.830479,0.456644 2.502364,1.408428 0,0 -1.009466,0.219794 -1.499867,0.372694 -0.727135,0.226709 -1.416036,0.545919 -2.1302,0.804937 -1.187239,0.430595 -2.351019,0.932487 -3.581435,1.245171 -2.040452,0.518536 -3.617743,0.960187 -6.251564,1.033111 -0.557613,0.01544 -1.437181,-0.261239 -1.993185,-0.660692 -0.288521,-0.207284 -0.482272,-0.523707 -0.610116,-0.838565 -0.190578,-0.469362 -0.182445,-0.990354 -0.203371,-1.490782 -0.01827,-0.436787 0.06832,-1.309829 0.06832,-1.309828 z"
       id="path6"
       sodipodi:nodetypes="caaaaaasscaaasaaac" /><path
       style="fill:#789ce8;fill-opacity:1;stroke:#1c092f;stroke-width:0.322978;stroke-linecap:round;stroke-linejoin:round;stroke-dasharray:none;stroke-opacity:1;paint-order:fill markers stroke"
       d="m 34.245801,41.938074 c 0.213893,0.14757 0.466664,0.262359 0.729886,0.307281 0.414527,0.07075 0.845138,-0.01733 1.262504,-0.07231 0.794215,-0.104601 1.574685,-0.290207 2.347471,-0.488034 0.360483,-0.09228 0.713226,-0.208812 1.065237,-0.325356 0.391615,-0.129656 0.772842,-0.284608 1.163873,-0.415733 0.476477,-0.159778 0.962977,-0.29359 1.440045,-0.451882 0.656541,-0.217844 1.5727,-0.09862 1.885174,-0.04455 0.667332,0.115473 1.420422,0.354349 1.941793,1.092918 0,0 -0.783329,0.170556 -1.163872,0.289205 -0.564244,0.175922 -1.09882,0.423623 -1.653,0.624617 -0.921278,0.334135 -1.824353,0.723594 -2.779134,0.966232 -1.583358,0.402377 -2.807309,0.745089 -4.851112,0.801677 -0.432699,0.01198 -1.07169,-0.261795 -1.546679,-0.512685 -0.233628,-0.123404 -0.465992,-0.273627 -0.61941,-0.476836 -0.261143,-0.345897 -0.390245,-0.774143 -0.457054,-1.190261 -0.07134,-0.444336 0.0679,-1.345918 0.0679,-1.345918 0.512636,0.599834 0.690277,0.913157 1.166376,1.241633 z"
       id="path6-2"
       sodipodi:nodetypes="aaaaaasscaaasaaaca" /><path
       style="fill:#789ce8;fill-opacity:1;stroke:#1c092f;stroke-width:0.54132;stroke-linecap:round;stroke-linejoin:round;paint-order:fill markers stroke"
       d="m 15.642099,14.547523 c 0,0 1.788128,-0.558071 2.656667,-0.896139 0.616911,-0.240124 1.216587,-0.517028 1.810038,-0.802508 0.366567,-0.176338 1.080184,-0.561757 1.080184,-0.561757 0,0 -0.404408,-0.406258 -0.654265,-0.552792 -0.253562,-0.148708 -0.53588,-0.355777 -0.834028,-0.317543 -0.36283,0.04653 -0.532241,0.477246 -0.860192,0.626893 -0.247882,0.113116 -0.804483,0.189941 -0.804483,0.189941 0,0 -2.146214,0.17619 -3.211357,0.321004 -0.989279,0.134499 -1.996156,0.228746 -2.94861,0.508255 -0.837584,0.2458 -1.683524,0.541415 -2.3939195,1.016513 -0.5340429,0.357158 -1.02412,0.806784 -1.3429312,1.337516 -0.7857904,1.308124 -1.3117152,3.158778 -0.6074604,5.580524 0.4511719,1.551461 1.6626377,3.816343 3.3457891,4.803577 3.33597,1.956677 7.699583,0.739546 11.546137,1.141177 3.050587,0.318521 6.10213,0.631526 9.146347,1.006064 1.266007,0.15576 2.514107,0.535652 3.791697,0.51609 1.825316,-0.02795 5.387358,-0.902788 5.387358,-0.902788 0,0 -1.075716,-1.282812 -1.751649,-1.792273 -0.926723,-0.698486 -3.094581,-1.685271 -3.094581,-1.685271 0,0 -2.767969,-0.523383 -4.159381,-0.740616 -2.490715,-0.388861 -4.982124,-0.81031 -7.495336,-1.006888 -3.291271,-0.257435 -6.600472,0.537347 -9.901444,-0.223628 -0.923864,-0.212978 -1.760763,-0.902778 -2.190777,-1.681699 -0.534755,-0.968653 -0.606052,-2.222438 -0.224395,-3.250097 0.128968,-0.347261 0.791178,-0.827914 0.791178,-0.827914 0,0 1.290918,0.05819 1.897619,0.240751 0.777061,0.23381 1.279115,0.5126 2.156826,1.071916 0.168284,0.107232 2.922555,2.792684 3.124923,2.553937 0.07841,-0.0925 1.179091,-0.185328 1.115682,-0.478317 -0.06388,-0.295172 -1.100129,-0.228369 -1.36413,-0.620798 -0.41993,-0.624211 -1.326397,-1.578219 -2.218045,-2.523351 -0.15597,-0.165328 -0.691013,-0.651388 -0.930976,-0.78761 -1.025597,-0.582205 -0.610836,-0.78107 -0.862485,-1.262169 z"
       id="path1"
       sodipodi:nodetypes="caacaaacaaassaaaacacaasaacassssssc" /><ellipse
       style="fill:#4a5c84;fill-opacity:1;stroke:#1c092f;stroke-width:0;stroke-linecap:round;stroke-linejoin:round;stroke-dasharray:none;stroke-opacity:1;paint-order:fill markers stroke"
       id="path2"
       cx="6.102005"
       cy="17.748014"
       rx="0.90808719"
       ry="0.45226282"
       transform="matrix(0.93382592,-0.35772776,0.42532788,0.90503933,0,0)" /><path
       style="fill:#789ce8;fill-opacity:0;stroke:#1c092f;stroke-width:0.477986;stroke-linecap:round;stroke-linejoin:round;stroke-dasharray:none;stroke-opacity:1;paint-order:fill markers stroke"
       d="m 15.776307,14.825092 c 0,0 0.798086,0.71576 1.300534,0.699866 0.316642,-0.01007 0.469765,-0.525533 0.784449,-0.491798 0.304808,0.03269 0.318771,0.567269 0.619301,0.624206 0.392057,0.07428 0.699008,-0.513226 1.094099,-0.453968 0.269072,0.04035 0.328387,0.477773 0.598659,0.510713 0.424114,0.05169 1.135385,-0.548544 1.135385,-0.548544 l 1.21796,0.643122"
       id="path7"
       sodipodi:nodetypes="caaaaacc" /><path
       style="fill:#789ce8;fill-opacity:1;stroke:#1c092f;stroke-width:0.477986;stroke-linecap:round;stroke-linejoin:round;stroke-dasharray:none;stroke-opacity:1;paint-order:fill markers stroke"
       d="m 22.795057,14.125224 -1.527609,1.059257"
       id="path8" /><path
       id="path7-0"
       style="fill:#3a69d9;fill-opacity:1;stroke:#332d21;stroke-width:0.412488"
       d="m 41.065618,14.451716 c 0.102376,3.335149 -3.709442,6.891462 -8.398082,6.965298 -4.68864,0.07384 -8.143462,-2.229472 -8.248685,-5.564578 -0.105223,-3.335105 3.178983,-6.4396394 7.867561,-6.5154964 4.688576,-0.07585 8.670912,1.7116674 8.778976,5.0467264 z"
       sodipodi:nodetypes="cssscc" /><path
       id="path10-0"
       style="fill:#9cc0f4;fill-opacity:1;stroke:#332d21;stroke-width:0;stroke-dasharray:none"
       d="m 32.83232,20.106809 c -4.566453,0.0086 -8.193117,-3.922247 -8.295595,-4.310081 -0.102484,-0.387833 3.338571,-4.554301 7.90496,-4.563122 4.566389,-0.0089 8.279108,2.79757 8.441873,3.341482 0.15723,0.543922 -3.484783,5.523135 -8.051238,5.531721 z"
       sodipodi:nodetypes="ssscs" /><path
       id="path10-6-1"
       style="fill:#3a69d9;fill-opacity:1;stroke:#332d21;stroke-width:0;stroke-dasharray:none"
       d="m 32.83232,18.295952 c -4.566453,0.0051 -8.193118,-2.278685 -8.295596,-2.513692 -0.102484,-0.235008 3.274471,-2.508097 7.84086,-2.513442 4.56639,-0.0054 8.359234,1.106597 8.521999,1.43618 0.15723,0.329589 -3.500808,3.58575 -8.067263,3.590954 z"
       sodipodi:nodetypes="ssscs" /><path
       id="path10-65-4"
       style="fill:#9cc0f4;fill-opacity:1;stroke:#332d21;stroke-width:0;stroke-dasharray:none"
       d="m 32.83232,17.029955 c -4.566453,0.0022 -8.096966,-1.210259 -8.199444,-1.310421 -0.102484,-0.100165 3.178319,-0.829884 7.744708,-0.832162 4.56639,-0.0023 8.327183,-0.333592 8.489948,-0.193122 0.15723,0.140465 -3.468757,2.333487 -8.035212,2.335705 z"
       sodipodi:nodetypes="ssscs" /><path
       style="fill:#9cc0f4;fill-opacity:1;stroke:#1c092f;stroke-width:0.5;stroke-linecap:round;stroke-linejoin:round;stroke-dasharray:none;stroke-opacity:1;paint-order:fill markers stroke"
       d="m 42.388497,13.283295 h 6.688421"
       id="path9" /><path
       style="fill:#9cc0f4;fill-opacity:1;stroke:#1c092f;stroke-width:0.8;stroke-linecap:round;stroke-linejoin:round;stroke-dasharray:none;stroke-opacity:1;paint-order:fill markers stroke"
       d="m 42.014321,15.481587 4.677217,0.233861 2.19829,-0.233861"
       id="path10" /><path
       style="fill:#9cc0f4;fill-opacity:1;stroke:#1c092f;stroke-width:0.7;stroke-linecap:round;stroke-linejoin:round;stroke-dasharray:none;stroke-opacity:1;paint-order:fill markers stroke"
       d="m 42.715903,17.91374 h 5.051394 l 1.028988,-0.140317"
       id="path11" /><path
       style="fill:#9cc0f4;fill-opacity:1;stroke:#1c092f;stroke-width:0.8;stroke-linecap:round;stroke-linejoin:round;stroke-dasharray:none;stroke-opacity:1;paint-order:fill markers stroke"
       d="m 39.721107,19.742555 3.086962,0.233861 2.198294,-0.140317 2.572469,-0.561266 0.982216,0.04677"
       id="path12" /><path
       style="fill:#9cc0f4;fill-opacity:1;stroke:#1c092f;stroke-width:0.799999;stroke-linecap:round;stroke-linejoin:round;stroke-dasharray:none;stroke-opacity:1;paint-order:fill markers stroke"
       d="m 41.596694,11.45448 3.320825,0.187089 1.917657,-0.327405 1.028989,0.140316"
       id="path13" /></g><g
     inkscape:groupmode="layer"
     id="layer2"
     inkscape:label="Ebene 2" /><path
     d="m 28.155716,0.344743 v 1.875229 a 2.6210673,1.8991341 0 0 1 0.306146,-0.01298 2.6210673,1.8991341 0 0 1 0.06987,0.0031 2.6210673,1.8991341 0 0 0 -0.376014,0.02702 v -0.01736 a 2.6210673,1.8991341 0 0 0 -2.314501,1.886205 2.6210673,1.8991341 0 0 0 2.314501,1.886038 v -0.01735 a 2.6210673,1.8991341 0 0 0 0.398877,0.02809 2.6210673,1.8991341 0 0 1 -0.09272,0.0021 2.6210673,1.8991341 0 0 1 -0.306142,-0.01298 v 2.148677 h 6.799961 V 0.344574 Z"
     style="fill:url(#linearGradient5);stroke:#332d21;stroke-width:0.689183"
     id="path4"
     transform="translate(-0.20000279)" /><path
     d="M 18.356547,0.34904 V 8.145021 H 25.15651 V 5.979052 a 2.6210673,1.8991341 0 0 1 -0.464934,0.03026 2.6210673,1.8991341 0 0 1 -2.620648,-1.899007 2.6210673,1.8991341 0 0 1 2.620648,-1.899008 2.6210673,1.8991341 0 0 1 0.464934,0.03026 V 0.349036 Z"
     style="fill:url(#linearGradient7);stroke:#332d21;stroke-width:0.680238"
     id="path3"
     transform="translate(-0.20000279)" /></svg>
