<?xml version="1.0" encoding="UTF-8" standalone="no"?>
<!-- Created with Inkscape (http://www.inkscape.org/) -->

<svg
   width="200"
   height="201.17665"
   viewBox="0 0 52.916666 53.227988"
   version="1.1"
   id="svg1"
   inkscape:version="1.4.2 (f4327f4, 2025-05-13)"
   sodipodi:docname="CrossRoad1.svg"
   xmlns:inkscape="http://www.inkscape.org/namespaces/inkscape"
   xmlns:sodipodi="http://sodipodi.sourceforge.net/DTD/sodipodi-0.dtd"
   xmlns="http://www.w3.org/2000/svg"
   xmlns:svg="http://www.w3.org/2000/svg">
  <sodipodi:namedview
     id="namedview1"
     pagecolor="#ffffff"
     bordercolor="#000000"
     borderopacity="0.25"
     inkscape:showpageshadow="2"
     inkscape:pageopacity="0.0"
     inkscape:pagecheckerboard="0"
     inkscape:deskcolor="#d1d1d1"
     inkscape:document-units="mm"
     inkscape:zoom="4"
     inkscape:cx="87.25"
     inkscape:cy="74.875"
     inkscape:window-width="3840"
     inkscape:window-height="2054"
     inkscape:window-x="-11"
     inkscape:window-y="-11"
     inkscape:window-maximized="1"
     inkscape:current-layer="layer1" />
  <defs
     id="defs1">
    <inkscape:path-effect
       effect="spiro"
       id="path-effect9"
       is_visible="true"
       lpeversion="1" />
    <inkscape:path-effect
       effect="spiro"
       id="path-effect8"
       is_visible="true"
       lpeversion="1" />
    <inkscape:path-effect
       effect="mirror_symmetry"
       start_point="17.255329,9.2448751"
       end_point="17.255329,29.300879"
       center_point="17.255329,19.272877"
       id="path-effect5"
       is_visible="true"
       lpeversion="1.2"
       lpesatellites=""
       mode="free"
       discard_orig_path="false"
       fuse_paths="true"
       oposite_fuse="false"
       split_items="false"
       split_open="false"
       link_styles="false" />
    <inkscape:path-effect
       effect="mirror_symmetry"
       start_point="27.030316,8.4102839"
       end_point="27.030316,28.182973"
       center_point="27.030316,18.296628"
       id="path-effect3"
       is_visible="true"
       lpeversion="1.2"
       lpesatellites=""
       mode="free"
       discard_orig_path="false"
       fuse_paths="false"
       oposite_fuse="false"
       split_items="false"
       split_open="false"
       link_styles="false" />
    <inkscape:path-effect
       effect="spiro"
       id="path-effect8-8"
       is_visible="true"
       lpeversion="1" />
    <inkscape:path-effect
       effect="spiro"
       id="path-effect8-0"
       is_visible="true"
       lpeversion="1" />
    <inkscape:path-effect
       effect="spiro"
       id="path-effect8-0-9"
       is_visible="true"
       lpeversion="1" />
    <inkscape:path-effect
       effect="spiro"
       id="path-effect8-8-6"
       is_visible="true"
       lpeversion="1" />
    <inkscape:path-effect
       effect="spiro"
       id="path-effect8-3"
       is_visible="true"
       lpeversion="1" />
  </defs>
  <g
     inkscape:label="Ebene 1"
     inkscape:groupmode="layer"
     id="layer1"
     transform="translate(-0.20000279)">
    <path
       d="M 20.485214,7.5427702 V 21.498051 H 6.5299333 V 33.609683 H 20.485214 V 47.564964 H 32.596845 V 33.609683 H 46.552127 V 21.498051 H 32.596845 V 7.5427702 Z"
       style="fill:#d99090;fill-opacity:1;stroke:#332d21;stroke-width:1.09606;stroke-dasharray:none"
       id="path2"
       inkscape:transform-center-x="0.52660144"
       inkscape:transform-center-y="0.15045777" />
    <rect
       style="fill:#d99090;fill-opacity:1;stroke:#332d21;stroke-width:0;stroke-dasharray:none"
       id="rect2"
       width="11.019813"
       height="1.6209371"
       x="21.030581"
       y="6.9947395"
       ry="0" />
    <rect
       style="fill:#d99090;fill-opacity:1;stroke:#332d21;stroke-width:0;stroke-dasharray:none"
       id="rect2-8"
       width="11.010544"
       height="1.6209371"
       x="22.051159"
       y="-47.100159"
       ry="0"
       transform="rotate(90)" />
    <rect
       style="fill:#d99090;fill-opacity:1;stroke:#332d21;stroke-width:0;stroke-dasharray:none"
       id="rect2-6"
       width="11.014213"
       height="1.6209371"
       x="22.047642"
       y="-7.6028395"
       ry="0"
       transform="rotate(90)" />
    <rect
       style="fill:#d99090;fill-opacity:1;stroke:#332d21;stroke-width:0;stroke-dasharray:none"
       id="rect2-1"
       width="11.012605"
       height="1.6209371"
       x="21.035347"
       y="46.492058"
       ry="0" />
    <path
       id="rect6"
       style="fill:#d99090;stroke:#332d21;stroke-width:1.13432;stroke-dasharray:none"
       d="M 32.596845,14.05709 V 28.594361 H 20.485214 V 14.05709"
       sodipodi:nodetypes="cccc" />
    <path
       id="rect3-1"
       style="fill:#ba4b4b;stroke:#332d21;stroke-width:0.420882;stroke-dasharray:none"
       d="m 22.524532,49.557916 v -27.495 c 0.03421,-11.697986 7.893736,-11.697986 8.144352,0 v 27.495"
       sodipodi:nodetypes="cccc" />
    <path
       id="path3"
       style="fill:#ba4b4b;stroke:#332d21;stroke-width:0.541684;stroke-dasharray:none"
       d="m 26.634609,28.594361 c -3.705099,0 -6.745077,-0.15273 -6.745077,-4.607004 0,-4.454277 4.09532,-11.574846 6.745077,-11.523366 2.649757,0.05148 6.669056,6.921084 6.670664,11.449364 0.0016,4.528282 -2.965565,4.681006 -6.670664,4.681006 z"
       sodipodi:nodetypes="sszcs" />
    <ellipse
       style="fill:#e2bbbb;fill-opacity:1;stroke:#332d21;stroke-width:0.541686;stroke-dasharray:none"
       id="path4"
       cx="23.571831"
       cy="21.437292"
       rx="0.52413642"
       ry="1.4672771" />
    <ellipse
       style="fill:#e2bbbb;fill-opacity:1;stroke:#332d21;stroke-width:0.541686;stroke-dasharray:none"
       id="path4-4"
       cx="29.694529"
       cy="21.337006"
       rx="0.52413642"
       ry="1.4672771" />
    <path
       style="fill:#e2bbbb;fill-opacity:0;stroke:#332d21;stroke-width:0.541686;stroke-dasharray:none"
       d="m 26.634609,12.463991 c 0,0 -0.346015,-1.365667 0.08229,-1.774574 0.346672,-0.330968 1.040585,-0.268105 1.437876,0 0.30911,0.208597 0.418622,1.037454 0.418622,1.037454"
       id="path5"
       sodipodi:nodetypes="caac" />
    <path
       style="fill:#e2bbbb;fill-opacity:0;stroke:#332d21;stroke-width:0.541686;stroke-dasharray:none"
       d="M 29.759967,12.378608 28.573402,11.726871 28.986,13.108697"
       id="path6"
       sodipodi:nodetypes="ccc" />
    <path
       id="rect3"
       style="fill:#ba4b4b;stroke:#332d21;stroke-width:0.467106;stroke-dasharray:none"
       d="m 49.306321,31.637925 c 0,0 -16.156593,0.02366 -17.397015,0 -1.240422,-0.02366 -2.662815,-2.334648 -5.213836,-2.322843 -2.551021,0.01183 -3.426572,2.295295 -4.902003,2.322843 -1.475431,0.02755 -6.482232,0 -6.482232,0 -14.46350415,-0.03409 -14.46350415,-7.863786 0,-8.113451 h 4.592264 c 0,0 4.014888,-2.625172 6.677617,-2.574005 2.662731,0.05116 6.743892,2.574005 6.743892,2.574005 h 15.981313"
       sodipodi:nodetypes="czzzccczcc" />
    <path
       d="m 33.193753,23.664836 c -1.271747,-0.711583 -4.614581,-2.459985 -6.612637,-2.498376 -2.377975,-0.0457 -5.834755,2.097665 -6.546821,2.544951 1.781523,0.04576 4.462557,-1.300068 6.518951,-1.300278 2.542674,1.1e-4 5.246758,1.684924 6.640507,1.253703 z"
       style="fill:#df5e5e;fill-opacity:1;stroke:#332d21;stroke-width:0"
       id="path11"
       sodipodi:nodetypes="ccccc" />
  </g>
</svg>
