<?xml version="1.0" encoding="UTF-8" standalone="no"?>
<!-- Created with Inkscape (http://www.inkscape.org/) -->

<svg
   width="200"
   height="200.26396"
   viewBox="0 0 52.916666 52.986506"
   version="1.1"
   id="svg1"
   inkscape:version="1.4.2 (f4327f4, 2025-05-13)"
   sodipodi:docname="DeadMouse.svg"
   xml:space="preserve"
   xmlns:inkscape="http://www.inkscape.org/namespaces/inkscape"
   xmlns:sodipodi="http://sodipodi.sourceforge.net/DTD/sodipodi-0.dtd"
   xmlns:xlink="http://www.w3.org/1999/xlink"
   xmlns="http://www.w3.org/2000/svg"
   xmlns:svg="http://www.w3.org/2000/svg"><sodipodi:namedview
     id="namedview1"
     pagecolor="#ffffff"
     bordercolor="#000000"
     borderopacity="0.25"
     inkscape:showpageshadow="2"
     inkscape:pageopacity="0.0"
     inkscape:pagecheckerboard="0"
     inkscape:deskcolor="#d1d1d1"
     inkscape:document-units="mm"
     inkscape:zoom="3.2124158"
     inkscape:cx="63.192318"
     inkscape:cy="124.67253"
     inkscape:window-width="3840"
     inkscape:window-height="2054"
     inkscape:window-x="-11"
     inkscape:window-y="-11"
     inkscape:window-maximized="1"
     inkscape:current-layer="layer1" /><defs
     id="defs1"><linearGradient
       id="linearGradient33"
       inkscape:collect="always"><stop
         style="stop-color:#d1d1d1;stop-opacity:1;"
         offset="0"
         id="stop33" /><stop
         style="stop-color:#606060;stop-opacity:1;"
         offset="0.69575757"
         id="stop34" /></linearGradient><linearGradient
       inkscape:collect="always"
       xlink:href="#linearGradient33"
       id="linearGradient34"
       x1="10.4214"
       y1="0.81991923"
       x2="8.2597179"
       y2="7.4728928"
       gradientUnits="userSpaceOnUse" /></defs><g
     inkscape:label="Ebene 1"
     inkscape:groupmode="layer"
     id="layer1"
     transform="translate(-0.20000285,-0.02092876)"><rect
       style="fill:#8d8d8d;fill-opacity:1;stroke:#212532;stroke-width:1.29744;stroke-linejoin:round;stroke-miterlimit:8.2;stroke-dasharray:none;stroke-opacity:0.995995"
       id="rect1"
       width="51.619228"
       height="51.433044"
       x="0.84872288"
       y="0.92567241"
       ry="5.9605236"
       rx="19.158791" /><rect
       style="fill:#e2e2e2;fill-opacity:1;stroke:#212532;stroke-width:0.688343;stroke-linejoin:round;stroke-miterlimit:8.2;stroke-dasharray:none;stroke-opacity:0.995995"
       id="rect1-8"
       width="45.942097"
       height="45.776398"
       x="3.6872895"
       y="3.753998"
       ry="5.3049798"
       rx="17.051689" /><path
       sodipodi:type="star"
       style="fill:url(#linearGradient34);fill-opacity:1;fill-rule:nonzero;stroke:#322d21;stroke-width:0.443;stroke-linejoin:round;stroke-miterlimit:8.2;stroke-opacity:0.995995"
       id="path1"
       inkscape:flatsided="false"
       sodipodi:sides="2"
       sodipodi:cx="9.3473988"
       sodipodi:cy="4.4553022"
       sodipodi:r1="3.4362388"
       sodipodi:r2="2.3474281"
       sodipodi:arg1="0.9357696"
       sodipodi:arg2="2.5065659"
       inkscape:rounded="0.12173243"
       inkscape:randomized="0"
       d="M 11.385772,7.2216663 C 10.977939,7.5221754 7.7580971,6.2556281 7.4575881,5.8477944 7.1570791,5.4399606 6.9011915,1.9894472 7.3090253,1.6889381 7.7168589,1.3884291 10.9367,2.6549764 11.237209,3.0628101 c 0.300509,0.4078337 0.556397,3.8583472 0.148563,4.1588562 z"
       inkscape:transform-center-x="1.0737225"
       inkscape:transform-center-y="-0.69338112"
       transform="matrix(0.87043197,-1.270489,1.2007283,0.92100288,13.362255,11.82442)" /><path
       style="opacity:1;fill:#424242;fill-opacity:1;stroke:#2e241a;stroke-width:0.700186;stroke-linecap:round;stroke-linejoin:round"
       d="m 21.795985,21.440967 1.174491,-1.944823 -0.405559,-1.760015 1.151567,0.211906 0.154793,0.919427 0.279982,-1.933218 c 0,0 1.247637,2.15795 1.171897,2.042271 -0.07574,-0.115681 0.115465,-2.496298 0.115465,-2.496298 l 0.50059,2.472085 0.802299,-0.719733 -0.80271,1.313026 -2.393444,1.897629 0.954816,0.745596 1.809678,0.759459 1.184934,2.373994 -1.672895,2.383819 -1.457246,1.298862 z"
       id="path4" /><path
       style="opacity:1;fill:#424242;fill-opacity:1;stroke:#2e241a;stroke-width:0.700186;stroke-linecap:round;stroke-linejoin:round"
       d="m 28.082569,35.918404 c 0,0 -0.577414,-2.448341 -0.09631,-3.518405 0.621782,-1.382967 2.060053,-2.403617 3.483949,-2.924891 0.739255,-0.270635 2.361696,-0.0082 2.361696,-0.0082 l 0.285535,-0.873895 -0.536948,-0.954538 1.05971,0.04003 -0.569293,-0.830158 1.706027,0.741506 c -0.744884,1.359294 -1.878167,2.572186 -2.201759,4.084743 -0.08933,0.417535 -0.04897,0.874947 0.09324,1.277553 0.193739,0.548489 0.994312,1.434126 0.994312,1.434126 z"
       id="path5-5"
       sodipodi:nodetypes="caaccccccaacc" /><path
       style="opacity:1;fill:#686868;fill-opacity:1;stroke:#2e241a;stroke-width:0.700186;stroke-linecap:round;stroke-linejoin:round"
       d="m 14.154901,17.445512 1.43577,1.520923 2.646476,-0.976595 2.078441,2.502489 2.960795,1.897275 3.217466,6.719934 4.57391,2.807136 3.998838,0.983895 3.928287,-9.350042 2.31989,6.083998 c 0,0 0.855136,-0.969686 1.437519,-0.996201 0.827393,-0.03767 1.615104,0.602241 2.16243,1.223878 0.518768,0.589196 0.894785,1.394961 0.891139,2.179983 -0.0034,0.740126 -0.352715,1.507749 -0.85923,2.047417 -0.243044,0.2591 -0.954639,0.47381 -0.954639,0.47381 0,0 0.892404,0.86384 0.9962,1.437519 0.182634,1.009336 -0.199885,2.120718 -0.755334,2.983034 -0.571447,0.887152 -1.42884,1.82342 -2.472931,1.976598 -0.836612,0.122739 -1.646481,-0.483257 -2.352945,-0.947903 -0.383257,-0.252068 -0.827536,-0.534971 -0.977767,-0.96839 -0.204022,-0.588628 0.229145,-1.854849 0.229145,-1.854849 0,0 -2.262609,3.127522 -3.865665,4.112109 -2.229333,1.369236 -4.915634,2.162718 -7.531469,2.208976 -2.390474,0.04227 -4.711148,-0.934343 -6.949681,-1.774057 -2.909401,-1.091371 -6.040555,-2.092365 -8.320482,-4.203675 -1.762107,-1.631827 -3.1448333,-3.834095 -3.7325373,-6.162717 -0.39823,-1.577877 -0.147543,-3.296539 0.244648,-4.875926 0.587974,-2.367826 1.6676763,-4.654079 3.0953943,-6.632446 0.686137,-0.950768 2.556332,-2.416167 2.556332,-2.416167 z"
       id="path2"
       sodipodi:nodetypes="ccccccccccaaaacaaaaacaaaaaaac" /><path
       style="opacity:1;fill:#757575;fill-opacity:1;stroke:#2e241a;stroke-width:0.700186;stroke-linecap:round;stroke-linejoin:round"
       d="m 13.616669,24.230294 c 0,0 0.209177,-2.022918 0.841612,-2.738418 0.660044,-0.746727 2.728479,-1.222598 2.728479,-1.222598 l 0.09746,-1.142921 2.704264,-1.838652 0.247495,-1.552246 0.609643,1.020205 0.742284,-1.642884 0.306271,1.150782 0.658681,-1.354826 0.218944,1.344063 0.447813,-0.682069 -0.213556,1.811952 -4.049155,3.244181 c 0,0 1.472919,1.042456 1.968198,1.77366 0.731736,1.080307 1.508879,2.376882 1.354629,3.67253 -0.161858,1.359544 -1.151585,2.64629 -2.286453,3.412211 -0.863834,0.583002 -2.019678,0.707697 -3.059788,0.642344 -0.499548,-0.03139 -1.419392,-0.490026 -1.419392,-0.490026"
       id="path3"
       sodipodi:nodetypes="caccccccccccccaaaac" /><path
       style="opacity:1;fill:#757575;fill-opacity:1;stroke:#2e241a;stroke-width:0.700186;stroke-linecap:round;stroke-linejoin:round"
       d="m 25.396248,36.534609 c 0,0 -1.180537,-2.221286 -0.987105,-3.378473 0.249995,-1.495564 1.381742,-2.848152 2.626465,-3.714103 0.646234,-0.449583 2.282102,-0.608023 2.282102,-0.608023 l 0.05413,-0.917766 -0.761856,-0.786785 1.035106,-0.230532 -0.761539,-0.658266 1.838442,0.283707 -1.09166,4.510116 0.414778,1.211937 1.326063,1.134432"
       id="path5"
       sodipodi:nodetypes="caaccccccccc" /><path
       style="opacity:1;fill:#c9c9c9;fill-opacity:1;stroke:#2e241a;stroke-width:0.700186;stroke-linecap:round;stroke-linejoin:round"
       d="m 14.154901,17.445512 3.825655,-4.753902 c 0,0 3.211471,-3.4248335 3.327146,-3.5005769 C 21.423384,9.1152961 23.4313,8.2769815 23.4313,8.2769815 l 8.524209,2.5364215 1.83969,3.93824 -3.814484,3.780771 -0.380348,1.794777 1.895143,0.51879 1.674747,-1.465955 1.984958,2.200163 -0.619155,1.756701 -2.908309,0.873701 0.211281,-1.26605 0.335446,0.08174 0.01118,0.284333 1.66461,-0.516316 0.315372,-1.032828 -1.223837,-0.948603 -1.824364,1.281987 -2.846232,-1.169608 0.250595,-3.284733 2.489045,-3.087939 -3.008061,-2.871882 -4.649696,0.04036 -2.805456,2.886795 -1.195607,3.112589 -1.114877,0.269399 -2.646476,0.976595 z"
       id="path6" /><path
       style="opacity:1;fill:#c9c9c9;fill-opacity:1;stroke:#2e241a;stroke-width:0.700186;stroke-linecap:round;stroke-linejoin:round"
       d="m 40.469208,31.195978 0.385322,1.954531"
       id="path7" /><path
       style="opacity:1;fill:#c9c9c9;fill-opacity:1;stroke:#2e241a;stroke-width:0.700186;stroke-linecap:round;stroke-linejoin:round"
       d="m 41.837072,32.186382 -2.248178,0.159554"
       id="path8" /><ellipse
       style="opacity:1;fill:#c9c9c9;fill-opacity:1;stroke:#2e241a;stroke-width:0.641281;stroke-linecap:round;stroke-linejoin:round"
       id="path9"
       cx="44.755848"
       cy="-9.5347166"
       rx="0.59890336"
       ry="0.55637825"
       transform="rotate(42.74922)" /></g></svg>
