<?xml version="1.0" encoding="UTF-8" standalone="no"?>
<!-- Created with Inkscape (http://www.inkscape.org/) -->

<svg
   width="200"
   height="200.85443"
   viewBox="0 0 52.916666 53.142734"
   version="1.1"
   id="svg1"
   inkscape:version="1.4.2 (f4327f4, 2025-05-13)"
   sodipodi:docname="DefaultUpgrade3.svg"
   xmlns:inkscape="http://www.inkscape.org/namespaces/inkscape"
   xmlns:sodipodi="http://sodipodi.sourceforge.net/DTD/sodipodi-0.dtd"
   xmlns:xlink="http://www.w3.org/1999/xlink"
   xmlns="http://www.w3.org/2000/svg"
   xmlns:svg="http://www.w3.org/2000/svg">
  <sodipodi:namedview
     id="namedview1"
     pagecolor="#ffffff"
     bordercolor="#000000"
     borderopacity="0.25"
     inkscape:showpageshadow="2"
     inkscape:pageopacity="0.0"
     inkscape:pagecheckerboard="0"
     inkscape:deskcolor="#d1d1d1"
     inkscape:document-units="mm"
     inkscape:zoom="4.543042"
     inkscape:cx="33.237641"
     inkscape:cy="74.729664"
     inkscape:window-width="3840"
     inkscape:window-height="2054"
     inkscape:window-x="-11"
     inkscape:window-y="-11"
     inkscape:window-maximized="1"
     inkscape:current-layer="layer1" />
  <defs
     id="defs1">
    <linearGradient
       id="linearGradient33"
       inkscape:collect="always">
      <stop
         style="stop-color:#d1d1d1;stop-opacity:1;"
         offset="0"
         id="stop33" />
      <stop
         style="stop-color:#606060;stop-opacity:1;"
         offset="0.69575757"
         id="stop34" />
    </linearGradient>
    <linearGradient
       inkscape:collect="always"
       xlink:href="#linearGradient33"
       id="linearGradient34"
       x1="10.4214"
       y1="0.81991923"
       x2="8.2597179"
       y2="7.4728928"
       gradientUnits="userSpaceOnUse" />
    <linearGradient
       inkscape:collect="always"
       xlink:href="#linearGradient33"
       id="linearGradient34-4"
       x1="10.4214"
       y1="0.81991923"
       x2="8.2597179"
       y2="7.4728928"
       gradientUnits="userSpaceOnUse" />
    <linearGradient
       inkscape:collect="always"
       xlink:href="#linearGradient33"
       id="linearGradient34-42"
       x1="10.4214"
       y1="0.81991923"
       x2="8.2597179"
       y2="7.4728928"
       gradientUnits="userSpaceOnUse" />
    <linearGradient
       inkscape:collect="always"
       xlink:href="#linearGradient33"
       id="linearGradient34-4-5"
       x1="10.4214"
       y1="0.81991923"
       x2="8.2597179"
       y2="7.4728928"
       gradientUnits="userSpaceOnUse" />
    <linearGradient
       inkscape:collect="always"
       xlink:href="#linearGradient33"
       id="linearGradient1"
       gradientUnits="userSpaceOnUse"
       x1="10.4214"
       y1="0.81991923"
       x2="8.2597179"
       y2="7.4728928" />
  </defs>
  <g
     inkscape:label="Ebene 1"
     inkscape:groupmode="layer"
     id="layer1"
     transform="translate(-0.20000279,-0.05477117)">
    <rect
       style="fill:#8d8d8d;fill-opacity:1;stroke:#212532;stroke-width:1.29973;stroke-linejoin:round;stroke-miterlimit:8.2;stroke-dasharray:none;stroke-opacity:0.995995"
       id="rect1"
       width="51.616936"
       height="51.616943"
       x="0.84986776"
       y="0.93069875"
       ry="5.9818354"
       rx="19.15794" />
    <rect
       style="fill:#131313;fill-opacity:1;stroke:#212532;stroke-width:0.689558;stroke-linejoin:round;stroke-miterlimit:8.2;stroke-dasharray:none;stroke-opacity:0.995995"
       id="rect1-8"
       width="45.94006"
       height="45.940067"
       x="3.6883085"
       y="3.7691371"
       ry="5.3239479"
       rx="17.050934" />
    <path
       d="m 10.028677,10.806322 c -0.6506997,0 -1.174568,0.523868 -1.174568,1.174568 v 6.479137 1.682133 a 1.664744,1.4291394 0 0 0 1.345706,0.588016 1.664744,1.4291394 0 0 0 1.345707,-0.588016 v -1.682133 -3.780411 c 0,-0.528419 0.445487,-0.953696 0.998309,-0.953696 h 5.238749 0.952234 a 1.3265906,1.6722245 0 0 0 0.850573,-1.560727 1.3265906,1.6722245 0 0 0 -0.553642,-1.358871 h -1.5461 z"
       style="fill:#cbcbcb;fill-opacity:1;stroke:#322d21;stroke-width:0.671472;stroke-linejoin:round;stroke-miterlimit:8.2;stroke-opacity:0.995995"
       id="path9" />
    <path
       d="m 7.0285023,43.545699 c -0.1391879,0.635637 0.5378532,1.308746 1.1745685,1.174567 0,0 5.6229882,-1.49188 8.5044652,-1.792197 0.55769,-0.05812 1.682133,0 1.682133,0 0.369422,-0.313273 0.58797,-0.813431 0.588017,-1.345707 -4.7e-5,-0.532275 -0.218595,-1.032433 -0.588017,-1.345705 0,0 -1.127693,-0.08363 -1.682133,0 -2.002701,0.302079 -5.805739,1.792197 -5.805739,1.792197 -0.824529,0.254527 -1.1228531,-0.411083 -0.9536968,-0.998311 0,0 1.6844278,-4.615939 2.0253288,-7.030945 0.04437,-0.314295 0,-0.952234 0,-0.952234 -0.248297,-0.512388 -0.868757,-0.850529 -1.560727,-0.850573 -0.5389548,4.5e-5 -1.0448444,0.206158 -1.3588708,0.553642 0,0 0.055442,1.033724 0,1.546098 -0.3395251,3.137791 -2.0253289,9.249168 -2.0253289,9.249168 z"
       style="fill:#cccccc;fill-opacity:1;stroke:#322d21;stroke-width:0.671472;stroke-linejoin:round;stroke-miterlimit:8.2;stroke-opacity:0.995995"
       id="path9-2"
       sodipodi:nodetypes="ssacccsssscccas" />
    <path
       d="m 46.273262,9.7849793 c 0.139188,-0.6356369 -0.537853,-1.3087462 -1.174569,-1.174567 0,0 -5.622987,1.4918797 -8.504464,1.7921977 -0.55769,0.05813 -1.682133,0 -1.682133,0 -0.369422,0.313272 -0.58797,0.81343 -0.588017,1.345706 4.7e-5,0.532275 0.218595,1.032434 0.588017,1.345706 0,0 1.127693,0.08363 1.682133,0 2.002701,-0.302079 5.80574,-1.792198 5.80574,-1.792198 0.824528,-0.254526 1.122852,0.411083 0.953695,0.998311 0,0 -1.684427,4.61594 -2.025327,7.030945 -0.04436,0.314295 0,0.952234 0,0.952234 0.248297,0.512388 0.868755,0.85053 1.560726,0.850574 0.538955,-4.6e-5 1.044844,-0.206158 1.358872,-0.553642 0,0 -0.05543,-1.033725 0,-1.546099 0.339524,-3.137791 2.025327,-9.2491677 2.025327,-9.2491677 z"
       style="fill:#cccccc;fill-opacity:1;stroke:#322d21;stroke-width:0.671472;stroke-linejoin:round;stroke-miterlimit:8.2;stroke-opacity:0.995995"
       id="path9-2-0"
       sodipodi:nodetypes="ssacccsssscccas" />
    <path
       d="m 42.987005,42.552965 c 0.650698,0 1.174567,-0.523869 1.174567,-1.174567 v -6.479139 -1.682133 a 1.664744,1.4291394 0 0 0 -1.345707,-0.588015 1.664744,1.4291394 0 0 0 -1.345705,0.588015 v 1.682133 3.780411 c 0,0.52842 -0.445489,0.953697 -0.998311,0.953697 H 35.2331 34.280866 a 1.3265906,1.6722245 0 0 0 -0.850575,1.560727 1.3265906,1.6722245 0 0 0 0.553642,1.358871 h 1.5461 z"
       style="fill:#cccccc;fill-opacity:1;stroke:#322d21;stroke-width:0.671472;stroke-linejoin:round;stroke-miterlimit:8.2;stroke-opacity:0.995995"
       id="path9-1" />
    <path
       d="m 29.916726,18.908061 c -0.06444,0.05361 -0.107419,0.105831 -0.125646,0.156512 -0.08091,0.224611 0.204797,0.739611 0.679588,1.36294 l -3.028424,2.529814 c -0.558201,0.466295 -0.597336,1.252613 -0.08776,1.763006 l 1.258342,1.260348 c 0.509583,0.510396 1.36924,0.545899 1.927436,0.0796 l 2.996419,-2.503085 c 0.603882,0.480665 1.112079,0.782495 1.35903,0.735389 0.913426,-0.174247 3.020127,-6.023056 2.39875,-6.659442 -0.582536,-0.596619 -6.410829,0.471217 -7.377755,1.274909 z"
       style="fill:#999999;fill-opacity:1;stroke:#322d21;stroke-width:0.696489;stroke-linejoin:round;stroke-miterlimit:8.2;stroke-opacity:0.995995"
       id="path11" />
    <path
       d="m 23.25591,34.916452 c 0.06729,-0.05597 0.112166,-0.110516 0.131203,-0.16343 0.08449,-0.23454 -0.21385,-0.772306 -0.709628,-1.42319 l 3.162296,-2.641645 c 0.58287,-0.486907 0.623736,-1.307987 0.09164,-1.84094 L 24.617452,27.531185 C 24.08534,26.998228 23.187684,26.961154 22.60481,27.448049 l -3.128876,2.613738 C 18.845358,29.559873 18.314695,29.2447 18.05683,29.293886 c -0.953807,0.181949 -3.153635,6.289309 -2.504787,6.953824 0.608288,0.62299 6.694218,-0.492048 7.70389,-1.331265 z"
       style="fill:#999999;fill-opacity:1;stroke:#322d21;stroke-width:0.727276;stroke-linejoin:round;stroke-miterlimit:8.2;stroke-opacity:0.995995"
       id="path11-1" />
    <path
       sodipodi:type="star"
       style="fill:url(#linearGradient34);fill-opacity:1;fill-rule:nonzero;stroke:#322d21;stroke-width:0.443;stroke-linejoin:round;stroke-miterlimit:8.2;stroke-opacity:0.995995"
       id="path1"
       inkscape:flatsided="false"
       sodipodi:sides="2"
       sodipodi:cx="9.3473988"
       sodipodi:cy="4.4553022"
       sodipodi:r1="3.4362388"
       sodipodi:r2="2.3474281"
       sodipodi:arg1="0.9357696"
       sodipodi:arg2="2.5065659"
       inkscape:rounded="0.12173243"
       inkscape:randomized="0"
       d="M 11.385772,7.2216663 C 10.977939,7.5221754 7.7580971,6.2556281 7.4575881,5.8477944 7.1570791,5.4399606 6.9011915,1.9894472 7.3090253,1.6889381 7.7168589,1.3884291 10.9367,2.6549764 11.237209,3.0628101 c 0.300509,0.4078337 0.556397,3.8583472 0.148563,4.1588562 z"
       inkscape:transform-center-x="1.2782764"
       inkscape:transform-center-y="-0.82846536"
       transform="matrix(1.0362581,-1.5180054,1.4294794,1.1004325,10.486255,14.157816)" />
    <path
       sodipodi:type="star"
       style="fill:url(#linearGradient34-42);fill-opacity:1;fill-rule:nonzero;stroke:#322d21;stroke-width:0.443;stroke-linejoin:round;stroke-miterlimit:8.2;stroke-opacity:0.995995"
       id="path1-6"
       inkscape:flatsided="false"
       sodipodi:sides="2"
       sodipodi:cx="9.3473988"
       sodipodi:cy="4.4553022"
       sodipodi:r1="3.4362388"
       sodipodi:r2="2.3474281"
       sodipodi:arg1="0.9357696"
       sodipodi:arg2="2.5065659"
       inkscape:rounded="0.12173243"
       inkscape:randomized="0"
       d="M 11.385772,7.2216663 C 10.977939,7.5221754 7.7580971,6.2556281 7.4575881,5.8477944 7.1570791,5.4399606 6.9011915,1.9894472 7.3090253,1.6889381 7.7168589,1.3884291 10.9367,2.6549764 11.237209,3.0628101 c 0.300509,0.4078337 0.556397,3.8583472 0.148563,4.1588562 z"
       inkscape:transform-center-x="0.69278671"
       inkscape:transform-center-y="-0.63211988"
       transform="matrix(0.56162042,-1.1582394,0.77473437,0.83963092,22.461692,11.663404)" />
    <path
       sodipodi:type="star"
       style="fill:url(#linearGradient34-4);fill-opacity:1;fill-rule:nonzero;stroke:#322d21;stroke-width:0.443;stroke-linejoin:round;stroke-miterlimit:8.2;stroke-opacity:0.995995"
       id="path1-5"
       inkscape:flatsided="false"
       sodipodi:sides="2"
       sodipodi:cx="9.3473988"
       sodipodi:cy="4.4553022"
       sodipodi:r1="3.4362388"
       sodipodi:r2="2.3474281"
       sodipodi:arg1="0.9357696"
       sodipodi:arg2="2.5065659"
       inkscape:rounded="0.12173243"
       inkscape:randomized="0"
       d="M 11.385772,7.2216663 C 10.977939,7.5221754 7.7580971,6.2556281 7.4575881,5.8477944 7.1570791,5.4399606 6.9011915,1.9894472 7.3090253,1.6889381 7.7168589,1.3884291 10.9367,2.6549764 11.237209,3.0628101 c 0.300509,0.4078337 0.556397,3.8583472 0.148563,4.1588562 z"
       inkscape:transform-center-x="1.0527041"
       inkscape:transform-center-y="-0.68226902"
       transform="matrix(0.85339307,-1.250128,1.1772239,0.9062428,22.166927,12.451574)" />
    <path
       sodipodi:type="star"
       style="fill:url(#linearGradient1);fill-opacity:1;fill-rule:nonzero;stroke:#322d21;stroke-width:0.443;stroke-linejoin:round;stroke-miterlimit:8.2;stroke-opacity:0.995995"
       id="path1-6-3"
       inkscape:flatsided="false"
       sodipodi:sides="2"
       sodipodi:cx="9.3473988"
       sodipodi:cy="4.4553022"
       sodipodi:r1="3.4362388"
       sodipodi:r2="2.3474281"
       sodipodi:arg1="0.9357696"
       sodipodi:arg2="2.5065659"
       inkscape:rounded="0.12173243"
       inkscape:randomized="0"
       d="M 11.385772,7.2216663 C 10.977939,7.5221754 7.7580971,6.2556281 7.4575881,5.8477944 7.1570791,5.4399606 6.9011915,1.9894472 7.3090253,1.6889381 7.7168589,1.3884291 10.9367,2.6549764 11.237209,3.0628101 c 0.300509,0.4078337 0.556397,3.8583472 0.148563,4.1588562 z"
       inkscape:transform-center-x="-0.69278605"
       inkscape:transform-center-y="-0.63211956"
       transform="matrix(-0.56162042,-1.1582394,-0.77473437,0.83963092,31.099801,11.747559)" />
    <path
       sodipodi:type="star"
       style="fill:url(#linearGradient34-4-5);fill-opacity:1;fill-rule:nonzero;stroke:#322d21;stroke-width:0.443;stroke-linejoin:round;stroke-miterlimit:8.2;stroke-opacity:0.995995"
       id="path1-5-4"
       inkscape:flatsided="false"
       sodipodi:sides="2"
       sodipodi:cx="9.3473988"
       sodipodi:cy="4.4553022"
       sodipodi:r1="3.4362388"
       sodipodi:r2="2.3474281"
       sodipodi:arg1="0.9357696"
       sodipodi:arg2="2.5065659"
       inkscape:rounded="0.12173243"
       inkscape:randomized="0"
       d="M 11.385772,7.2216663 C 10.977939,7.5221754 7.7580971,6.2556281 7.4575881,5.8477944 7.1570791,5.4399606 6.9011915,1.9894472 7.3090253,1.6889381 7.7168589,1.3884291 10.9367,2.6549764 11.237209,3.0628101 c 0.300509,0.4078337 0.556397,3.8583472 0.148563,4.1588562 z"
       inkscape:transform-center-x="-1.0527039"
       inkscape:transform-center-y="-0.68226896"
       transform="matrix(-0.85339307,-1.250128,-1.1772239,0.9062428,31.13816,12.503678)" />
  </g>
</svg>
