<?xml version="1.0" encoding="UTF-8" standalone="no"?>
<!-- Created with Inkscape (http://www.inkscape.org/) -->

<svg
   width="200"
   height="200.26396"
   viewBox="0 0 52.916666 52.986506"
   version="1.1"
   id="svg1"
   inkscape:version="1.4.2 (f4327f4, 2025-05-13)"
   sodipodi:docname="DefaultUpgrade1.svg"
   xmlns:inkscape="http://www.inkscape.org/namespaces/inkscape"
   xmlns:sodipodi="http://sodipodi.sourceforge.net/DTD/sodipodi-0.dtd"
   xmlns="http://www.w3.org/2000/svg"
   xmlns:svg="http://www.w3.org/2000/svg">
  <sodipodi:namedview
     id="namedview1"
     pagecolor="#ffffff"
     bordercolor="#000000"
     borderopacity="0.25"
     inkscape:showpageshadow="2"
     inkscape:pageopacity="0.0"
     inkscape:pagecheckerboard="0"
     inkscape:deskcolor="#d1d1d1"
     inkscape:document-units="mm"
     inkscape:zoom="4.543042"
     inkscape:cx="53.048156"
     inkscape:cy="126.89735"
     inkscape:window-width="3840"
     inkscape:window-height="2054"
     inkscape:window-x="-11"
     inkscape:window-y="-11"
     inkscape:window-maximized="1"
     inkscape:current-layer="layer1" />
  <defs
     id="defs1" />
  <g
     inkscape:label="Ebene 1"
     inkscape:groupmode="layer"
     id="layer1"
     transform="translate(-0.20000285,-0.02092876)">
    <path
       d="m 10.027939,10.766111 c -0.6507282,0 -1.1746198,0.522002 -1.1746198,1.170383 v 6.456055 1.67614 a 1.6648178,1.4240478 0 0 0 1.3457658,0.585919 1.6648178,1.4240478 0 0 0 1.345767,-0.585919 v -1.67614 -3.766943 c 0,-0.526537 0.445506,-0.950299 0.998353,-0.950299 h 5.238981 0.952276 a 1.3266494,1.6662669 0 0 0 0.850611,-1.555166 1.3266494,1.6662669 0 0 0 -0.553667,-1.35403 h -1.546168 z"
       style="fill:#494949;stroke:#322d21;stroke-width:0.67029;stroke-linejoin:round;stroke-miterlimit:8.2;stroke-opacity:0.995995"
       id="path9" />
    <path
       d="m 7.0276315,43.388847 c -0.1391941,0.633373 0.5378771,1.304084 1.1746206,1.170383 0,0 5.6232379,-1.486566 8.5048429,-1.785813 0.557714,-0.05791 1.682207,0 1.682207,0 0.369439,-0.312155 0.587996,-0.810533 0.588043,-1.340912 -4.7e-5,-0.530378 -0.218604,-1.028754 -0.588043,-1.340911 0,0 -1.127743,-0.08333 -1.682207,0 -2.00279,0.301003 -5.805997,1.785813 -5.805997,1.785813 -0.824565,0.253619 -1.1229029,-0.40962 -0.9537391,-0.994756 0,0 1.6845021,-4.599493 2.0254181,-7.005894 0.04437,-0.313177 0,-0.948842 0,-0.948842 -0.248308,-0.510563 -0.868795,-0.8475 -1.560796,-0.847542 -0.5389784,4.3e-5 -1.0448904,0.205421 -1.3589308,0.551669 0,0 0.055445,1.030041 0,1.54059 -0.3395401,3.126611 -2.0254187,9.216215 -2.0254187,9.216215 z"
       style="fill:#494949;stroke:#322d21;stroke-width:0.67029;stroke-linejoin:round;stroke-miterlimit:8.2;stroke-opacity:0.995995"
       id="path9-2"
       sodipodi:nodetypes="ssacccsssscccas" />
    <path
       d="m 46.274132,9.7484076 c 0.139194,-0.6333724 -0.537877,-1.3040836 -1.17462,-1.1703824 0,0 -5.623238,1.4865648 -8.504842,1.7858128 -0.557715,0.05792 -1.682207,0 -1.682207,0 -0.369439,0.312156 -0.587996,0.810532 -0.588043,1.340911 4.7e-5,0.530379 0.218604,1.028756 0.588043,1.340912 0,0 1.127742,0.08333 1.682207,0 2.00279,-0.301002 5.805997,-1.785812 5.805997,-1.785812 0.824566,-0.253621 1.122902,0.409618 0.953738,0.994753 0,0 -1.684502,4.599495 -2.025417,7.005896 -0.04436,0.313176 0,0.948842 0,0.948842 0.248307,0.510563 0.868793,0.8475 1.560794,0.847542 0.53898,-4.4e-5 1.044891,-0.205422 1.358933,-0.551669 0,0 -0.05544,-1.030041 0,-1.54059 0.339539,-3.126611 2.025417,-9.2162154 2.025417,-9.2162154 z"
       style="fill:#494949;stroke:#322d21;stroke-width:0.67029;stroke-linejoin:round;stroke-miterlimit:8.2;stroke-opacity:0.995995"
       id="path9-2-0"
       sodipodi:nodetypes="ssacccsssscccas" />
    <path
       d="m 42.98773,42.39965 c 0.650726,0 1.174618,-0.522003 1.174618,-1.170382 v -6.456055 -1.676141 a 1.6648178,1.4240478 0 0 0 -1.345766,-0.585921 1.6648178,1.4240478 0 0 0 -1.345765,0.585921 v 1.676141 3.766941 c 0,0.526538 -0.445508,0.950299 -0.998356,0.950299 H 35.23348 34.281204 a 1.3266494,1.6662669 0 0 0 -0.850612,1.555167 1.3266494,1.6662669 0 0 0 0.553666,1.35403 h 1.546169 z"
       style="fill:#494949;stroke:#322d21;stroke-width:0.67029;stroke-linejoin:round;stroke-miterlimit:8.2;stroke-opacity:0.995995"
       id="path9-1" />
    <path
       d="m 29.916871,18.838986 c -0.06444,0.05342 -0.107423,0.105458 -0.125652,0.155955 -0.08091,0.223811 0.204806,0.736976 0.679618,1.358084 l -3.028558,2.520801 c -0.558225,0.464633 -0.597363,1.24815 -0.08777,1.756724 l 1.258397,1.255858 c 0.509606,0.508577 1.369301,0.543954 1.927523,0.07932 L 33.53698,23.47156 c 0.603908,0.478954 1.112129,0.779708 1.359091,0.73277 0.913465,-0.173625 3.02026,-6.001598 2.398855,-6.635716 -0.582561,-0.594494 -6.411112,0.469539 -7.378081,1.270366 z"
       style="fill:#999999;fill-opacity:1;stroke:#322d21;stroke-width:0.695263;stroke-linejoin:round;stroke-miterlimit:8.2;stroke-opacity:0.995995"
       id="path11" />
    <path
       d="m 23.255759,34.790343 c 0.0673,-0.05578 0.112171,-0.110118 0.131209,-0.162848 0.08449,-0.233703 -0.21386,-0.769554 -0.70966,-1.418119 l 3.162437,-2.632233 c 0.582896,-0.485173 0.623764,-1.303327 0.09164,-1.834381 l -1.314022,-1.311375 c -0.532135,-0.531057 -1.429831,-0.567999 -2.012731,-0.08285 l -3.129015,2.604425 c -0.630604,-0.500124 -1.16129,-0.814175 -1.419166,-0.765164 -0.953851,0.181302 -3.153775,6.266902 -2.504899,6.929049 0.608315,0.620771 6.694515,-0.490294 7.704232,-1.326522 z"
       style="fill:#999999;fill-opacity:1;stroke:#322d21;stroke-width:0.725995;stroke-linejoin:round;stroke-miterlimit:8.2;stroke-opacity:0.995995"
       id="path11-1" />
  </g>
</svg>
