<?xml version="1.0" encoding="UTF-8" standalone="no"?>
<!-- Created with Inkscape (http://www.inkscape.org/) -->

<svg
   width="200"
   height="201.17665"
   viewBox="0 0 52.916666 53.227988"
   version="1.1"
   id="svg1"
   inkscape:version="1.4.2 (f4327f4, 2025-05-13)"
   sodipodi:docname="Diffusion.svg"
   xml:space="preserve"
   xmlns:inkscape="http://www.inkscape.org/namespaces/inkscape"
   xmlns:sodipodi="http://sodipodi.sourceforge.net/DTD/sodipodi-0.dtd"
   xmlns:xlink="http://www.w3.org/1999/xlink"
   xmlns="http://www.w3.org/2000/svg"
   xmlns:svg="http://www.w3.org/2000/svg"><sodipodi:namedview
     id="namedview1"
     pagecolor="#ffffff"
     bordercolor="#000000"
     borderopacity="0.25"
     inkscape:showpageshadow="2"
     inkscape:pageopacity="0.0"
     inkscape:pagecheckerboard="0"
     inkscape:deskcolor="#d1d1d1"
     inkscape:document-units="mm"
     inkscape:zoom="4.543042"
     inkscape:cx="64.934465"
     inkscape:cy="-1.2106426"
     inkscape:window-width="3840"
     inkscape:window-height="2054"
     inkscape:window-x="-11"
     inkscape:window-y="-11"
     inkscape:window-maximized="1"
     inkscape:current-layer="layer1"
     showgrid="true"><inkscape:grid
       id="grid1"
       units="mm"
       originx="0"
       originy="0"
       spacingx="0.99999999"
       spacingy="0.99999998"
       empcolor="#0099e5"
       empopacity="0.30196078"
       color="#0099e5"
       opacity="0.14901961"
       empspacing="5"
       enabled="true"
       visible="true" /></sodipodi:namedview><defs
     id="defs1"><linearGradient
       id="linearGradient33"
       inkscape:collect="always"><stop
         style="stop-color:#7ad97e;stop-opacity:1;"
         offset="0.75587249"
         id="stop33" /><stop
         style="stop-color:#9ceaa0;stop-opacity:1;"
         offset="0.94379193"
         id="stop34" /></linearGradient><linearGradient
       id="linearGradient31"
       inkscape:collect="always"><stop
         style="stop-color:#7ad97e;stop-opacity:1;"
         offset="0.60989928"
         id="stop31" /><stop
         style="stop-color:#477949;stop-opacity:1;"
         offset="1"
         id="stop32" /></linearGradient><linearGradient
       id="linearGradient29"
       inkscape:collect="always"><stop
         style="stop-color:#44644c;stop-opacity:1;"
         offset="0"
         id="stop29" /><stop
         style="stop-color:#131b14;stop-opacity:1;"
         offset="1"
         id="stop30" /></linearGradient><linearGradient
       id="linearGradient27"
       inkscape:collect="always"><stop
         style="stop-color:#405f47;stop-opacity:1;"
         offset="0"
         id="stop27" /><stop
         style="stop-color:#111812;stop-opacity:1;"
         offset="1"
         id="stop28" /></linearGradient><linearGradient
       id="linearGradient25"
       inkscape:collect="always"><stop
         style="stop-color:#44684d;stop-opacity:1;"
         offset="0"
         id="stop25" /><stop
         style="stop-color:#151f17;stop-opacity:1;"
         offset="1"
         id="stop26" /></linearGradient><linearGradient
       id="linearGradient23"
       inkscape:collect="always"><stop
         style="stop-color:#4e7255;stop-opacity:1;"
         offset="0"
         id="stop23" /><stop
         style="stop-color:#17211a;stop-opacity:1;"
         offset="1"
         id="stop24" /></linearGradient><linearGradient
       id="linearGradient21"
       inkscape:collect="always"><stop
         style="stop-color:#51755a;stop-opacity:1;"
         offset="0"
         id="stop21" /><stop
         style="stop-color:#1e2c21;stop-opacity:1;"
         offset="1"
         id="stop22" /></linearGradient><linearGradient
       id="linearGradient19"
       inkscape:collect="always"><stop
         style="stop-color:#43644c;stop-opacity:1;"
         offset="0"
         id="stop19" /><stop
         style="stop-color:#141c16;stop-opacity:1;"
         offset="1"
         id="stop20" /></linearGradient><linearGradient
       id="linearGradient17"
       inkscape:collect="always"><stop
         style="stop-color:#486c52;stop-opacity:1;"
         offset="0"
         id="stop17" /><stop
         style="stop-color:#101812;stop-opacity:1;"
         offset="1"
         id="stop18" /></linearGradient><linearGradient
       id="linearGradient12"
       inkscape:collect="always"><stop
         style="stop-color:#52785b;stop-opacity:1;"
         offset="0"
         id="stop12" /><stop
         style="stop-color:#000000;stop-opacity:1;"
         offset="1"
         id="stop15" /></linearGradient><inkscape:path-effect
       effect="spiro"
       id="path-effect45"
       is_visible="true"
       lpeversion="1" /><inkscape:path-effect
       effect="spiro"
       id="path-effect44"
       is_visible="true"
       lpeversion="1" /><inkscape:path-effect
       effect="spiro"
       id="path-effect43"
       is_visible="true"
       lpeversion="1" /><inkscape:path-effect
       effect="spiro"
       id="path-effect42"
       is_visible="true"
       lpeversion="1" /><inkscape:path-effect
       effect="spiro"
       id="path-effect41"
       is_visible="true"
       lpeversion="1" /><inkscape:path-effect
       effect="spiro"
       id="path-effect40"
       is_visible="true"
       lpeversion="1" /><inkscape:path-effect
       effect="fillet_chamfer"
       id="path-effect5"
       is_visible="true"
       lpeversion="1"
       nodesatellites_param="F,0,0,1,0,0,0,1 @ F,0,0,1,0,2.0496102,0,1 @ F,0,0,1,0,0,0,1"
       radius="0"
       unit="px"
       method="auto"
       mode="F"
       chamfer_steps="1"
       flexible="false"
       use_knot_distance="true"
       apply_no_radius="true"
       apply_with_radius="true"
       only_selected="false"
       hide_knots="false" /><inkscape:path-effect
       effect="fillet_chamfer"
       id="path-effect28"
       is_visible="true"
       lpeversion="1"
       nodesatellites_param="F,0,0,1,0,0,0,1 @ F,0,0,1,0,0,0,1 @ F,0,0,1,0,0,0,1 @ F,0,0,1,0,0,0,1 @ F,0,0,1,0,0,0,1 @ F,0,0,1,0,0,0,1 @ F,0,0,1,0,0,0,1 @ F,0,0,1,0,0,0,1 @ F,0,0,1,0,0,0,1 @ F,0,0,1,0,0,0,1 @ F,0,0,1,0,0,0,1 @ F,0,0,1,0,0,0,1 | F,0,0,1,0,0,0,1 @ F,0,0,1,0,0,0,1 @ F,0,0,1,0,0,0,1 @ F,0,0,1,0,0,0,1 @ F,0,0,1,0,0,0,1 @ F,0,0,1,0,0,0,1 @ F,0,0,1,0,0,0,1 @ F,0,0,1,0,0,0,1 @ F,0,0,1,0,0,0,1 @ F,0,0,1,0,0,0,1 @ F,0,0,1,0,0,0,1"
       radius="0"
       unit="px"
       method="auto"
       mode="F"
       chamfer_steps="1"
       flexible="false"
       use_knot_distance="true"
       apply_no_radius="true"
       apply_with_radius="true"
       only_selected="false"
       hide_knots="false" /><inkscape:path-effect
       effect="powerstroke"
       message=""
       id="path-effect4"
       is_visible="true"
       lpeversion="1.3"
       scale_width="1"
       interpolator_type="CentripetalCatmullRom"
       interpolator_beta="0.75"
       start_linecap_type="round"
       end_linecap_type="round"
       offset_points="10.839744,0.43679433"
       linejoin_type="spiro"
       miter_limit="4"
       not_jump="true"
       sort_points="true" /><inkscape:path-effect
       effect="simplify"
       id="path-effect3"
       is_visible="true"
       lpeversion="1.3"
       threshold="0.012"
       steps="1"
       smooth_angles="0"
       helper_size="0"
       simplify_individual_paths="false"
       simplify_just_coalesce="false"
       step="1" /><inkscape:path-effect
       effect="fillet_chamfer"
       id="path-effect5-4"
       is_visible="true"
       lpeversion="1"
       nodesatellites_param="F,0,0,1,0,0,0,1 @ F,0,0,1,0,2.0496102,0,1 @ F,0,0,1,0,0,0,1"
       radius="0"
       unit="px"
       method="auto"
       mode="F"
       chamfer_steps="1"
       flexible="false"
       use_knot_distance="true"
       apply_no_radius="true"
       apply_with_radius="true"
       only_selected="false"
       hide_knots="false" /><inkscape:path-effect
       effect="fillet_chamfer"
       id="path-effect5-4-5"
       is_visible="true"
       lpeversion="1"
       nodesatellites_param="F,0,0,1,0,0,0,1 @ F,0,0,1,0,2.0496102,0,1 @ F,0,0,1,0,0,0,1"
       radius="0"
       unit="px"
       method="auto"
       mode="F"
       chamfer_steps="1"
       flexible="false"
       use_knot_distance="true"
       apply_no_radius="true"
       apply_with_radius="true"
       only_selected="false"
       hide_knots="false" /><linearGradient
       inkscape:collect="always"
       xlink:href="#linearGradient12"
       id="linearGradient16"
       x1="-18.587622"
       y1="10.401654"
       x2="-16.254694"
       y2="10.401654"
       gradientUnits="userSpaceOnUse" /><linearGradient
       inkscape:collect="always"
       xlink:href="#linearGradient17"
       id="linearGradient18"
       x1="-15.509172"
       y1="25.903952"
       x2="-11.384697"
       y2="25.903952"
       gradientUnits="userSpaceOnUse" /><linearGradient
       inkscape:collect="always"
       xlink:href="#linearGradient19"
       id="linearGradient20"
       x1="-12.871267"
       y1="34.887367"
       x2="-8.6733802"
       y2="34.887367"
       gradientUnits="userSpaceOnUse" /><linearGradient
       inkscape:collect="always"
       xlink:href="#linearGradient21"
       id="linearGradient22"
       x1="8.1676791"
       y1="21.050375"
       x2="10.743355"
       y2="21.050375"
       gradientUnits="userSpaceOnUse" /><linearGradient
       inkscape:collect="always"
       xlink:href="#linearGradient23"
       id="linearGradient24"
       x1="25.223948"
       y1="13.857807"
       x2="28.903307"
       y2="13.857807"
       gradientUnits="userSpaceOnUse" /><linearGradient
       inkscape:collect="always"
       xlink:href="#linearGradient25"
       id="linearGradient26"
       x1="-19.692701"
       y1="35.082062"
       x2="-16.931669"
       y2="35.082062"
       gradientUnits="userSpaceOnUse" /><linearGradient
       inkscape:collect="always"
       xlink:href="#linearGradient27"
       id="linearGradient28"
       x1="-44.330578"
       y1="-24.23929"
       x2="-41.569546"
       y2="-24.23929"
       gradientUnits="userSpaceOnUse" /><linearGradient
       inkscape:collect="always"
       xlink:href="#linearGradient29"
       id="linearGradient30"
       x1="-28.763126"
       y1="38.284107"
       x2="-27.112328"
       y2="38.284107"
       gradientUnits="userSpaceOnUse" /><linearGradient
       inkscape:collect="always"
       xlink:href="#linearGradient31"
       id="linearGradient32"
       x1="27.248903"
       y1="18.053583"
       x2="8.6247883"
       y2="23.393963"
       gradientUnits="userSpaceOnUse" /><linearGradient
       inkscape:collect="always"
       xlink:href="#linearGradient33"
       id="linearGradient34"
       x1="26.121317"
       y1="13.385627"
       x2="49.314285"
       y2="16.233366"
       gradientUnits="userSpaceOnUse" /></defs><g
     inkscape:label="Ebene 1"
     inkscape:groupmode="layer"
     id="layer1"
     transform="translate(-0.20000279)"><path
       id="path5"
       style="fill:#c6f4ce;fill-opacity:0;stroke:#213222;stroke-width:1.4;stroke-linecap:round;stroke-linejoin:round"
       d="m 46.199999,45.000004 a 4.2418885,5 0 0 1 -4.241888,5 4.2418885,5 0 0 1 -4.241889,-5 4.2418885,5 0 0 1 4.241889,-5 4.2418885,5 0 0 1 4.241888,5 z" /><path
       style="fill:#71ffae;fill-opacity:0;stroke:#1c092f;stroke-width:0.453001;stroke-linecap:round;stroke-linejoin:round;stroke-dasharray:none;stroke-dashoffset:0;paint-order:fill markers stroke"
       d="m 6.3839348,36.006025 c 0,0 -0.811467,0.453674 -1.2418724,1.54058 -0.2083579,0.52618 -0.1790591,1.688329 -0.1790591,1.688329"
       id="path37-9"
       sodipodi:nodetypes="csc" /><path
       style="fill:#71ffae;fill-opacity:0;stroke:#1c092f;stroke-width:0.453001;stroke-linecap:round;stroke-linejoin:round;stroke-dasharray:none;stroke-dashoffset:0;paint-order:fill markers stroke"
       d="m 7.6003602,36.910303 c 0,0 -0.6651052,0.29012 -1.0144436,1.258831 -0.1631418,0.45238 -0.2537045,1.420211 -0.2537045,1.420211"
       id="path38-4"
       sodipodi:nodetypes="csc" /><path
       style="fill:url(#linearGradient34);fill-opacity:1;stroke:#1c092f;stroke-width:0.7;stroke-linecap:round;stroke-linejoin:round;paint-order:fill markers stroke"
       d="m 41.237233,4.6946756 c 0.02607,4.6095131 -2.349169,4.7057893 -5.020645,7.1946714 -1.254041,0.910819 -1.690756,2.743594 -0.847926,4.073702 1.125614,1.755055 3.622745,1.696214 5.348127,0.976258 0.930232,-0.30997 2.335956,-1.098935 1.707738,-2.279046 -0.56511,-1.055915 -2.121234,-0.96183 -2.843535,-0.128502 -1.163836,1.147762 -1.907724,-0.60917 -1.226209,-1.543627 0.898414,-1.801885 2.971824,-2.602711 4.836648,-2.966312 2.340841,-0.3020936 5.070689,2.773195 5.435349,5.015038 1.006012,3.007978 0.08749,5.252943 -1.175203,8.134287 -1.798425,2.277106 -4.892105,2.718638 -7.601957,2.947332 -3.404192,0.139983 -7.192241,-0.372739 -9.713467,-2.884845 -1.376117,-1.527979 -2.476163,-3.07717 -3.298328,-4.949026 -0.940538,-2.306939 -0.299047,-4.97539 0.885079,-7.274967 C 29.0101,9.0032147 30.659647,7.6190371 31.392145,5.2152127 31.738964,4.4752133 31.149046,3.6875379 31.8795,3.5160846 c 0.670628,-0.157411 3.183644,0.2692883 3.832018,0.3328612 1.430964,0.2055211 5.434517,0.2537228 5.525715,0.8457298 z"
       id="path12"
       sodipodi:nodetypes="cccccccccccccccscc" /><path
       style="fill:#3e6f40;fill-opacity:1;stroke:none;stroke-width:1.17165;stroke-dasharray:none;stroke-opacity:0.995995"
       d="M 50.489298,39.566 45.619213,51.204677"
       id="path24" /><path
       style="fill:url(#linearGradient32);fill-opacity:1;stroke:#1c092f;stroke-width:0.796037;stroke-linecap:square;stroke-linejoin:round;paint-order:fill markers stroke"
       d="m 27.077503,32.706885 c 0,0 -1.950467,-3.218527 -2.914095,-4.834747 -1.023762,-1.717077 -2.143203,-3.382529 -3.046554,-5.165896 -0.60779,-1.19988 -1.306163,-2.393996 -1.589506,-3.708848 -0.237226,-1.100846 -0.123085,-2.25302 -0.06623,-3.3777 0.0741,-1.46584 0.366211,-2.912579 0.529835,-4.371142 0.275515,-2.4559868 0.76087,-7.3750317 0.76087,-7.3750317 0,0 -3.793024,0.00123 -5.67321,0.2162711 -1.823587,0.2085693 -5.4076947,1.0380643 -5.4076947,1.0380643 0,0 -0.782038,4.1512515 -0.9389683,6.2531543 -0.1577931,2.11346 -0.055558,4.239412 0,6.358026 0.035406,1.350129 -0.028309,2.717233 0.2123606,4.046209 0.4065677,2.245069 1.0644194,4.474684 2.0611024,6.527061 0.59795,1.231303 1.4567,2.325156 2.312881,3.393147 1.630205,2.033502 5.34807,5.703722 5.34807,5.703722"
       id="path7"
       sodipodi:nodetypes="caaaaacacaaaaac" /><path
       style="fill:#221c25;fill-opacity:0;stroke:#1c092f;stroke-width:0.625938;stroke-linecap:round;stroke-linejoin:round;paint-order:fill markers stroke"
       d="m 17.07792,35.20638 c 0,0 0.62759,-0.596187 1.010375,-0.783627 0.357104,-0.174861 1.155472,-0.296289 1.155472,-0.296289"
       id="path11-68"
       sodipodi:nodetypes="cac" /><path
       style="fill:#63723d;fill-opacity:1;stroke:#1c092f;stroke-width:0.796037;stroke-linecap:square;stroke-linejoin:round;paint-order:fill markers stroke"
       d="m 39.200328,45.566224 c 0,0 1.386175,0.33674 1.433078,0.898626 0.04423,0.529829 -0.699877,0.858767 -1.19213,1.059671 -1.268743,0.517813 -2.73604,0.177795 -4.106223,0.198688 -1.236337,0.01885 -2.472654,-0.03974 -3.70885,-0.06623 -0.883132,-0.01892 -1.816714,0.229212 -2.649177,-0.06623 -0.919669,-0.326392 -1.625099,-1.101048 -2.318029,-1.788193 -0.549372,-0.544785 -1.433078,-1.825839 -1.433078,-1.825839 l -2.715406,-2.119342"
       id="path3"
       sodipodi:nodetypes="caaaaaacc" /><path
       style="fill:#76d67c;fill-opacity:1;stroke:#1c092f;stroke-width:0.796037;stroke-linecap:square;stroke-linejoin:round;paint-order:fill markers stroke"
       d="m 39.465247,39.870496 -2.980325,-1.920655 -2.51672,-1.390817 c 0,0 -0.269522,-1.575141 -0.662291,-2.251802 -0.399743,-0.688676 -0.95739,-1.339367 -1.655738,-1.721964 -0.789786,-0.432692 -1.749416,-0.492202 -2.649176,-0.529836 -0.777027,-0.0325 -1.558691,0.09689 -2.318029,0.264918 -0.477142,0.105582 -1.390818,0.463606 -1.390818,0.463606 0,0 -1.53041,-0.439841 -2.318031,-0.463606 -0.645985,-0.01949 -1.297957,0.09192 -1.920653,0.264918 -0.647977,0.180016 -1.343775,0.357126 -1.854424,0.794753 -0.316281,0.271054 -0.555488,0.657059 -0.662294,1.059671 -0.141631,0.533886 -0.0268,1.111273 0.06623,1.655735 0.101151,0.591965 0.529836,1.721965 0.529836,1.721965 l 3.748265,4.465959 4.397952,1.031084"
       id="path2"
       sodipodi:nodetypes="cccaaaacaaaaaccc" /><path
       style="fill:#221c25;fill-opacity:0;stroke:#1c092f;stroke-width:0.796037;stroke-linecap:square;stroke-linejoin:round;paint-order:fill markers stroke"
       d="m 20.175232,34.948522 2.846803,1.361666 -0.62681,2.419648 -0.109944,-1.993388 C 22.056766,36.521973 20.17523,34.948522 20.17523,34.948522 Z"
       id="path4"
       sodipodi:nodetypes="ccccc" /><path
       style="fill:#221c25;fill-opacity:0;stroke:#1c092f;stroke-width:0.695259;stroke-linecap:square;stroke-linejoin:round;paint-order:fill markers stroke"
       d="m 31.467345,32.829375 -0.641075,2.680592 1.986689,0.904931 -1.292348,-1.170566 c -0.01991,-0.272998 -0.05327,-2.414958 -0.05327,-2.414958 z"
       id="path4-1"
       sodipodi:nodetypes="ccccc" /><ellipse
       style="fill:url(#linearGradient22);fill-opacity:1;stroke:#1c092f;stroke-width:0.384053;stroke-linecap:square;stroke-linejoin:round;paint-order:fill markers stroke"
       id="path9"
       cx="9.4555168"
       cy="21.050375"
       rx="1.0958112"
       ry="1.6606623" /><path
       style="fill:#221c25;fill-opacity:0;stroke:#1c092f;stroke-width:0.384053;stroke-linecap:round;stroke-linejoin:round;paint-order:fill markers stroke"
       d="m 9.5289454,19.384064 c 0,0 0.4812316,0.04504 0.7117116,-0.01126 0.155411,-0.03799 0.429288,-0.214643 0.429288,-0.214643"
       id="path10"
       sodipodi:nodetypes="cac" /><path
       style="fill:#221c25;fill-opacity:0;stroke:#1c092f;stroke-width:0.384053;stroke-linecap:round;stroke-linejoin:round;paint-order:fill markers stroke"
       d="m 9.3826514,22.704703 c 0,0 0.530939,-0.01383 0.7823826,0.05802 0.234574,0.06704 0.648277,0.339713 0.648277,0.339713"
       id="path11"
       sodipodi:nodetypes="cac" /><ellipse
       style="fill:url(#linearGradient18);fill-opacity:1;stroke:#1c092f;stroke-width:0.614991;stroke-linecap:square;stroke-linejoin:round;paint-order:fill markers stroke"
       id="path9-2"
       cx="-13.446935"
       cy="25.903952"
       rx="1.754742"
       ry="2.6592481"
       transform="matrix(-0.94839553,0.31708978,0.31708978,0.94839553,0,0)" /><path
       style="fill:#221c25;fill-opacity:0;stroke:#1c092f;stroke-width:0.614991;stroke-linecap:round;stroke-linejoin:round;paint-order:fill markers stroke"
       d="m 20.009285,17.809992 c 0,0 -0.707967,0.312759 -1.086601,0.344225 -0.25531,0.02121 -0.760939,-0.107999 -0.760939,-0.107999"
       id="path10-7"
       sodipodi:nodetypes="cac" /><path
       style="fill:#221c25;fill-opacity:0;stroke:#1c092f;stroke-width:0.614991;stroke-linecap:round;stroke-linejoin:round;paint-order:fill markers stroke"
       d="m 21.917552,22.778707 c 0,0 -0.813349,0.248584 -1.158729,0.48538 -0.322206,0.220913 -0.812034,0.845088 -0.812034,0.845088"
       id="path11-6"
       sodipodi:nodetypes="cac" /><ellipse
       style="fill:url(#linearGradient26);fill-opacity:1;stroke:#1c092f;stroke-width:0.411691;stroke-linecap:square;stroke-linejoin:round;paint-order:fill markers stroke"
       id="path9-2-3"
       cx="-18.312185"
       cy="35.082062"
       rx="1.1746703"
       ry="1.7801704"
       transform="matrix(-0.78492611,0.61958938,0.61958938,0.78492611,0,0)" /><path
       style="fill:#221c25;fill-opacity:0;stroke:#1c092f;stroke-width:0.411691;stroke-linecap:round;stroke-linejoin:round;paint-order:fill markers stroke"
       d="m 34.941676,14.837508 c 0,0 -0.374998,0.357524 -0.606347,0.463199 -0.155998,0.07125 -0.503768,0.10452 -0.503768,0.10452"
       id="path10-7-1"
       sodipodi:nodetypes="cac" /><path
       style="fill:#221c25;fill-opacity:0;stroke:#1c092f;stroke-width:0.411691;stroke-linecap:round;stroke-linejoin:round;paint-order:fill markers stroke"
       d="m 37.270264,17.534371 c 0,0 -0.455924,0.340999 -0.61977,0.568461 -0.15285,0.212203 -0.319838,0.716411 -0.319838,0.716411"
       id="path11-6-2"
       sodipodi:nodetypes="cac" /><ellipse
       style="fill:url(#linearGradient28);fill-opacity:1;stroke:#1c092f;stroke-width:0.411691;stroke-linecap:square;stroke-linejoin:round;paint-order:fill markers stroke"
       id="path9-2-3-1"
       cx="-42.950062"
       cy="-24.23929"
       rx="1.1746703"
       ry="1.7801704"
       transform="matrix(-0.52965752,-0.84821159,-0.84821159,0.52965752,0,0)" /><path
       style="fill:#221c25;fill-opacity:0;stroke:#1c092f;stroke-width:0.411691;stroke-linecap:round;stroke-linejoin:round;paint-order:fill markers stroke"
       d="m 44.782275,22.579367 c 0,0 -0.314187,-0.411987 -0.393821,-0.65354 -0.05369,-0.162878 -0.04857,-0.512199 -0.04857,-0.512199"
       id="path10-7-1-3"
       sodipodi:nodetypes="cac" /><path
       style="fill:#221c25;fill-opacity:0;stroke:#1c092f;stroke-width:0.411691;stroke-linecap:round;stroke-linejoin:round;paint-order:fill markers stroke"
       d="m 41.846038,24.597758 c 0,0 -0.288877,-0.49061 -0.496973,-0.678441 -0.194137,-0.175225 -0.676961,-0.396566 -0.676961,-0.396566"
       id="path11-6-2-8"
       sodipodi:nodetypes="cac" /><ellipse
       style="fill:url(#linearGradient30);fill-opacity:1;stroke:#1c092f;stroke-width:0.246147;stroke-linecap:square;stroke-linejoin:round;paint-order:fill markers stroke"
       id="path9-2-3-7"
       cx="-27.937727"
       cy="38.284107"
       rx="0.70232588"
       ry="1.0643495"
       transform="matrix(-0.78492611,0.61958938,0.61958938,0.78492611,0,0)" /><path
       style="fill:#221c25;fill-opacity:0;stroke:#1c092f;stroke-width:0.246147;stroke-linecap:round;stroke-linejoin:round;paint-order:fill markers stroke"
       d="m 44.950836,11.931159 c 0,0 -0.224208,0.213761 -0.36253,0.276943 -0.09327,0.0426 -0.301199,0.06249 -0.301199,0.06249"
       id="path10-7-1-9"
       sodipodi:nodetypes="cac" /><path
       style="fill:#221c25;fill-opacity:0;stroke:#1c092f;stroke-width:0.246147;stroke-linecap:round;stroke-linejoin:round;paint-order:fill markers stroke"
       d="m 46.34308,13.543592 c 0,0 -0.272593,0.20388 -0.370555,0.339878 -0.09139,0.126874 -0.191229,0.428336 -0.191229,0.428336"
       id="path11-6-2-3"
       sodipodi:nodetypes="cac" /><ellipse
       style="fill:url(#linearGradient24);fill-opacity:1;stroke:#1c092f;stroke-width:0.548621;stroke-linecap:square;stroke-linejoin:round;paint-order:fill markers stroke"
       id="path9-2-3-5"
       cx="27.063627"
       cy="13.857807"
       rx="1.5653691"
       ry="2.3722603"
       transform="matrix(0.66284576,0.74875597,0.74875597,-0.66284576,0,0)" /><path
       style="fill:#221c25;fill-opacity:0;stroke:#1c092f;stroke-width:0.548621;stroke-linecap:round;stroke-linejoin:round;paint-order:fill markers stroke"
       d="m 26.602371,12.734795 c 0,0 0.503847,0.472076 0.661823,0.771945 0.106515,0.202201 0.1769,0.662405 0.1769,0.662405"
       id="path10-7-1-0"
       sodipodi:nodetypes="cac" /><ellipse
       style="fill:url(#linearGradient20);fill-opacity:1;stroke:#1c092f;stroke-width:0.625938;stroke-linecap:square;stroke-linejoin:round;paint-order:fill markers stroke"
       id="path9-22"
       cx="-10.772324"
       cy="34.887367"
       rx="1.7859744"
       ry="2.7065797"
       transform="rotate(-42.037773)" /><path
       style="fill:#221c25;fill-opacity:0;stroke:#1c092f;stroke-width:0.625938;stroke-linecap:round;stroke-linejoin:round;paint-order:fill markers stroke"
       d="m 13.63099,31.027179 c 0,0 0.631678,-0.470674 0.849179,-0.790411 0.146655,-0.215597 0.285389,-0.728327 0.285389,-0.728327"
       id="path10-1"
       sodipodi:nodetypes="cac" /><ellipse
       style="fill:url(#linearGradient16);fill-opacity:1;stroke:#1c092f;stroke-width:0.347858;stroke-linecap:square;stroke-linejoin:round;paint-order:fill markers stroke"
       id="path9-8"
       cx="-17.421158"
       cy="10.401654"
       rx="0.99253523"
       ry="1.5041513"
       transform="rotate(-108.8717)" /><path
       style="fill:#221c25;fill-opacity:0;stroke:#1c092f;stroke-width:0.347858;stroke-linecap:round;stroke-linejoin:round;paint-order:fill markers stroke"
       d="m 14.027737,13.545506 c 0,0 -0.102382,-0.425645 -0.218193,-0.606674 -0.07809,-0.122065 -0.30973,-0.305044 -0.30973,-0.305044"
       id="path10-9"
       sodipodi:nodetypes="cac" /><path
       style="fill:#221c25;fill-opacity:0;stroke:#1c092f;stroke-width:0.347858;stroke-linecap:round;stroke-linejoin:round;paint-order:fill markers stroke"
       d="m 16.916601,12.698055 c 0,0 -0.167405,-0.450995 -0.179487,-0.68755 -0.01126,-0.220683 0.101233,-0.655142 0.101233,-0.655142"
       id="path11-2"
       sodipodi:nodetypes="cac" /><path
       style="fill:#699769;fill-opacity:1;stroke:#1c092f;stroke-width:0.713294;stroke-linecap:square;stroke-linejoin:round;paint-order:fill markers stroke"
       d="m 30.033373,46.534808 2.330047,-0.899342 2.596338,-0.423218 3.86122,-0.05289 2.596336,0.264514 1.331457,-0.84644 0.599155,-1.375463 c 0,0 -0.04759,-1.06346 -0.266292,-1.534169 -0.232774,-0.500994 -0.594278,-0.98079 -1.065164,-1.269659 -0.466002,-0.285873 -1.052789,-0.326698 -1.597746,-0.370318 -0.776,-0.06211 -1.564812,0.01571 -2.330047,0.158707 -0.525402,0.09818 -1.04982,0.243774 -1.531173,0.476123 -0.33852,0.163404 -0.932021,0.634829 -0.932021,0.634829 0,0 -1.053224,-0.424548 -1.597744,-0.581926 -0.479893,-0.138699 -0.967908,-0.26421 -1.464601,-0.317415 -0.70607,-0.07563 -1.425211,-0.08405 -2.130328,0 -0.521415,0.06216 -1.081591,0.099 -1.531176,0.370315 -0.402406,0.242841 -0.663392,0.672377 -0.932016,1.05805 -0.160312,0.230166 -0.30414,0.476826 -0.399436,0.740635 -0.152784,0.422952 -0.266292,1.322561 -0.266292,1.322561 l 0.599155,1.428363 1.065164,0.899344 z"
       id="path1"
       sodipodi:nodetypes="cccccccaaaaacaaaaaacccc" /><ellipse
       style="fill:#3b413d;fill-opacity:1;stroke:#1c092f;stroke-width:0.796037;stroke-linecap:square;stroke-linejoin:round;paint-order:fill markers stroke"
       id="path8"
       cx="31.517714"
       cy="42.585903"
       rx="2.3511448"
       ry="1.0927855" /><ellipse
       style="fill:#3b413d;fill-opacity:1;stroke:#1c092f;stroke-width:0.796037;stroke-linecap:square;stroke-linejoin:round;paint-order:fill markers stroke"
       id="path8-8"
       cx="39.7062"
       cy="42.170929"
       rx="2.3511448"
       ry="1.0927855" /><path
       style="fill:#76d67c;fill-opacity:0;stroke:#1c092f;stroke-width:0.420801;stroke-linecap:round;stroke-linejoin:round;stroke-dasharray:0.42080101,0.84160203;paint-order:fill markers stroke;stroke-dashoffset:0"
       d="m 20.384089,19.087695 c 0,0 1.22612,-0.756715 1.730412,-1.240414 0.365169,-0.350257 0.701869,-0.741705 0.9151,-1.181379 0.112375,-0.231715 0.178959,-0.740835 0.178959,-0.740835"
       id="path34"
       sodipodi:nodetypes="caac" /><path
       style="fill:#76d67c;fill-opacity:0;stroke:#1c092f;stroke-width:0.634704;stroke-linecap:round;stroke-linejoin:round;paint-order:fill markers stroke;stroke-dasharray:0.63470399,1.26940799;stroke-dashoffset:0"
       d="m 22.186652,20.574715 c 0,0 0.687213,-0.341936 1.042358,-0.48647 0.745234,-0.303291 1.246358,-0.373181 1.925625,-0.341652"
       id="path34-4"
       sodipodi:nodetypes="csc" /><path
       style="fill:#76d67c;fill-opacity:0;stroke:#1c092f;stroke-width:0.556683;stroke-linecap:round;stroke-linejoin:round;paint-order:fill markers stroke;stroke-dasharray:0.556683,1.11336601;stroke-dashoffset:0"
       d="m 22.88603,18.803306 c 0,0 0.597091,-0.311225 0.881701,-0.490369 0.253227,-0.159392 0.518671,-0.309499 0.732651,-0.518646 0.200061,-0.195539 0.50042,-0.673734 0.50042,-0.673734"
       id="path34-4-3"
       sodipodi:nodetypes="caac" /><path
       style="fill:#76d67c;fill-opacity:0;stroke:#1c092f;stroke-width:0.424661;stroke-linecap:round;stroke-linejoin:round;stroke-dasharray:0.42466101,0.84932202;paint-order:fill markers stroke;stroke-dashoffset:0"
       d="m 21.399405,21.809389 c 0,0 0.824967,-0.410732 1.278695,-0.518454 0.645547,-0.153261 1.332364,-0.226729 1.99824,-0.168695 0.350927,0.03059 1.011788,0.268874 1.011788,0.268874"
       id="path34-4-9"
       sodipodi:nodetypes="caac" /><path
       style="fill:#76d67c;fill-opacity:0;stroke:#1c092f;stroke-width:0.420801;stroke-linecap:round;stroke-linejoin:round;stroke-dasharray:0.42080101,0.84160203;paint-order:fill markers stroke;stroke-dashoffset:0"
       d="m 15.681733,34.339046 c 0,0 -1.22167,0.76388 -1.723121,1.250523 -0.363112,0.352388 -0.697515,0.745801 -0.908169,1.186716 -0.111016,0.232368 -0.174618,0.741869 -0.174618,0.741869"
       id="path34-46"
       sodipodi:nodetypes="caac" /><path
       style="fill:#76d67c;fill-opacity:0;stroke:#1c092f;stroke-width:0.634704;stroke-linecap:round;stroke-linejoin:round;paint-order:fill markers stroke;stroke-dasharray:0.63470399,1.26940799;stroke-dashoffset:0"
       d="m 13.870495,32.862604 c 0,0 -0.685199,0.345953 -1.039492,0.492564 -0.743446,0.307648 -1.244152,0.380471 -1.923592,0.352919"
       id="path34-4-0"
       sodipodi:nodetypes="csc" /><path
       style="fill:#76d67c;fill-opacity:0;stroke:#1c092f;stroke-width:0.556683;stroke-linecap:round;stroke-linejoin:round;paint-order:fill markers stroke;stroke-dasharray:0.556683,1.11336601;stroke-dashoffset:0"
       d="m 13.147755,34.892324 c 0,0 -0.595259,0.314716 -0.878816,0.495523 -0.252289,0.160871 -0.51685,0.31253 -0.729602,0.522926 -0.198913,0.196707 -0.496467,0.676652 -0.496467,0.676652"
       id="path34-4-3-6"
       sodipodi:nodetypes="caac" /><path
       style="fill:#76d67c;fill-opacity:0;stroke:#1c092f;stroke-width:0.424661;stroke-linecap:round;stroke-linejoin:round;stroke-dasharray:0.42466101,0.84932202;paint-order:fill markers stroke;stroke-dashoffset:0"
       d="m 14.650501,31.623342 c 0,0 -0.822549,0.415555 -1.275638,0.525931 -0.644639,0.157038 -1.331014,0.234525 -1.997218,0.18039 C 11.026544,32.301123 10.3643,32.066717 10.3643,32.066717"
       id="path34-4-9-6"
       sodipodi:nodetypes="caac" /><path
       style="fill:#76d67c;fill-opacity:0;stroke:#1c092f;stroke-width:0.286589;stroke-linecap:round;stroke-linejoin:round;stroke-dasharray:0.286589,0.57317799;paint-order:fill markers stroke;stroke-dashoffset:0"
       d="m 9.6607109,22.073791 c 0,0 -0.920666,0.339547 -1.322619,0.594329 -0.291063,0.184492 -0.5686849,0.400326 -0.7704,0.665026 -0.1063063,0.139501 -0.2195083,0.470363 -0.2195083,0.470363"
       id="path34-6"
       sodipodi:nodetypes="caac" /><path
       style="fill:#76d67c;fill-opacity:0;stroke:#1c092f;stroke-width:0.432268;stroke-linecap:round;stroke-linejoin:round;paint-order:fill markers stroke;stroke-dasharray:0.43226799,0.86453599;stroke-dashoffset:0"
       d="m 8.7456196,20.866847 c 0,0 -0.5049139,0.135447 -0.7615033,0.183967 -0.5384259,0.101815 -0.8823805,0.08079 -1.3315549,-0.03199"
       id="path34-4-37"
       sodipodi:nodetypes="csc" /><path
       style="fill:#76d67c;fill-opacity:0;stroke:#1c092f;stroke-width:0.379132;stroke-linecap:round;stroke-linejoin:round;paint-order:fill markers stroke;stroke-dasharray:0.379132,0.758264;stroke-dashoffset:0"
       d="m 8.9525189,21.581812 c 0,0 -0.4406072,0.127118 -0.6547863,0.208266 -0.1905624,0.0722 -0.3880262,0.136556 -0.5591093,0.24727 -0.159954,0.103511 -0.425032,0.382159 -0.425032,0.382159"
       id="path34-4-3-8"
       sodipodi:nodetypes="caac" /><path
       style="fill:#76d67c;fill-opacity:0;stroke:#1c092f;stroke-width:0.289218;stroke-linecap:round;stroke-linejoin:round;stroke-dasharray:0.28921801,0.57843602;paint-order:fill markers stroke;stroke-dashoffset:0"
       d="m 9.3505121,20.119858 c 0,0 -0.6061598,0.162768 -0.9235852,0.173401 -0.4516204,0.01513 -0.9200142,-0.02858 -1.3566702,-0.157247 -0.2301238,-0.06781 -0.6390899,-0.316121 -0.6390899,-0.316121"
       id="path34-4-9-8"
       sodipodi:nodetypes="caac" /><path
       style="fill:#76d67c;fill-opacity:0;stroke:#1c092f;stroke-width:0.26055;stroke-linecap:round;stroke-linejoin:round;stroke-dasharray:0.26054999,0.52109998;paint-order:fill markers stroke;stroke-dashoffset:0"
       d="m 16.303662,12.917706 c 0,0 0.339543,0.824986 0.584576,1.181573 0.177434,0.258212 0.382888,0.503155 0.630177,0.677487 0.130326,0.09187 0.434739,0.18356 0.434739,0.18356"
       id="path34-5"
       sodipodi:nodetypes="caac" /><path
       style="fill:#76d67c;fill-opacity:0;stroke:#1c092f;stroke-width:0.392994;stroke-linecap:round;stroke-linejoin:round;paint-order:fill markers stroke;stroke-dasharray:0.39299399,0.78598797;stroke-dashoffset:0"
       d="m 15.447451,14.539898 c 0,0 0.140089,0.454154 0.192826,0.685634 0.110664,0.485734 0.103169,0.798932 0.01586,1.21082"
       id="path34-4-98"
       sodipodi:nodetypes="csc" /><path
       style="fill:#76d67c;fill-opacity:0;stroke:#1c092f;stroke-width:0.344685;stroke-linecap:round;stroke-linejoin:round;paint-order:fill markers stroke;stroke-dasharray:0.34468499,0.68936998;stroke-dashoffset:0"
       d="m 15.880582,13.577707 c 0,0 0.130351,0.396011 0.211301,0.587859 0.07203,0.170694 0.137154,0.347923 0.243511,0.49962 0.09944,0.141828 0.361537,0.373256 0.361537,0.373256"
       id="path34-4-3-4"
       sodipodi:nodetypes="caac" /><path
       style="fill:#76d67c;fill-opacity:0;stroke:#1c092f;stroke-width:0.26294;stroke-linecap:round;stroke-linejoin:round;stroke-dasharray:0.26293999,0.52587998;paint-order:fill markers stroke;stroke-dashoffset:0"
       d="m 14.538944,13.265442 c 0,0 0.168326,0.545216 0.188695,0.833244 0.02898,0.409795 0.0051,0.836813 -0.0971,1.237864 -0.05384,0.211359 -0.265642,0.591288 -0.265642,0.591288"
       id="path34-4-9-0"
       sodipodi:nodetypes="caac" /><path
       style="fill:#76d67c;fill-opacity:0;stroke:#1c092f;stroke-width:0.26055;stroke-linecap:round;stroke-linejoin:round;stroke-dasharray:0.26054999,0.52109998;paint-order:fill markers stroke;stroke-dashoffset:0"
       d="m 45.112488,24.704048 c 0,0 0.505748,0.734921 0.820415,1.031873 0.227857,0.215029 0.480309,0.411183 0.758779,0.529496 0.146758,0.06235 0.463656,0.08784 0.463656,0.08784"
       id="path34-5-1"
       sodipodi:nodetypes="caac" /><path
       style="fill:#76d67c;fill-opacity:0;stroke:#1c092f;stroke-width:0.392994;stroke-linecap:round;stroke-linejoin:round;paint-order:fill markers stroke;stroke-dasharray:0.39299399,0.78598797;stroke-dashoffset:0"
       d="m 44.190217,24.903652 c 0,0 0.232636,0.41444 0.332963,0.629612 0.210527,0.451511 0.269192,0.759257 0.27063,1.180294"
       id="path34-4-98-5"
       sodipodi:nodetypes="csc" /><path
       style="fill:#76d67c;fill-opacity:0;stroke:#1c092f;stroke-width:0.344685;stroke-linecap:round;stroke-linejoin:round;paint-order:fill markers stroke;stroke-dasharray:0.34468499,0.68936998;stroke-dashoffset:0"
       d="m 43.847904,23.196166 c 0,0 0.210866,0.359655 0.330422,0.530139 0.106379,0.151685 0.207384,0.311213 0.343317,0.437095 0.127091,0.117691 0.432067,0.288698 0.432067,0.288698"
       id="path34-4-3-4-4"
       sodipodi:nodetypes="caac" /><path
       style="fill:#76d67c;fill-opacity:0;stroke:#1c092f;stroke-width:0.26294;stroke-linecap:round;stroke-linejoin:round;stroke-dasharray:0.26293999,0.52587998;paint-order:fill markers stroke;stroke-dashoffset:0"
       d="m 43.169462,24.251027 c 0,0 0.279427,0.497509 0.360027,0.774779 0.114675,0.394488 0.181306,0.816951 0.165904,1.230533 -0.0081,0.217958 -0.135091,0.633985 -0.135091,0.633985"
       id="path34-4-9-0-2"
       sodipodi:nodetypes="caac" /><path
       style="fill:#76d67c;fill-opacity:0;stroke:#1c092f;stroke-width:0.207216;stroke-linecap:round;stroke-linejoin:round;stroke-dasharray:0.20721599,0.41443199;paint-order:fill markers stroke;stroke-dashoffset:0"
       d="m 45.927392,11.357026 c 0,0 0.44852,-0.549758 0.60519,-0.856118 0.113443,-0.221843 0.207005,-0.458261 0.235343,-0.6972129 0.01492,-0.125929 -0.03616,-0.373558 -0.03616,-0.373558"
       id="path34-5-7"
       sodipodi:nodetypes="caac" /><path
       style="fill:#76d67c;fill-opacity:0;stroke:#1c092f;stroke-width:0.318064;stroke-linecap:round;stroke-linejoin:round;paint-order:fill markers stroke;stroke-dasharray:0.318064,0.63612801;stroke-dashoffset:0"
       d="m 46.83388,12.16326 c 0,0 0.275819,-0.268163 0.423765,-0.391872 0.310451,-0.259589 0.541733,-0.372172 0.876452,-0.466397"
       id="path34-4-98-2"
       sodipodi:nodetypes="csc" /><path
       style="fill:#76d67c;fill-opacity:0;stroke:#1c092f;stroke-width:0.274128;stroke-linecap:round;stroke-linejoin:round;paint-order:fill markers stroke;stroke-dasharray:0.27412799,0.54825598;stroke-dashoffset:0"
       d="m 45.704702,12.334964 c 0,0 0.227652,-0.241069 0.331201,-0.370304 0.09212,-0.114997 0.191442,-0.227625 0.25729,-0.359435 0.06156,-0.123234 0.124278,-0.394145 0.124278,-0.394145"
       id="path34-4-3-4-6"
       sodipodi:nodetypes="caac" /><path
       style="fill:#76d67c;fill-opacity:0;stroke:#1c092f;stroke-width:0.209116;stroke-linecap:round;stroke-linejoin:round;stroke-dasharray:0.209116,0.41823199;paint-order:fill markers stroke;stroke-dashoffset:0"
       d="m 45.994107,13.391572 c 0,0 0.317641,-0.324105 0.511393,-0.447372 0.275662,-0.175383 0.583361,-0.320346 0.902579,-0.400627 0.168215,-0.04234 0.514127,-0.038 0.514127,-0.038"
       id="path34-4-9-0-0"
       sodipodi:nodetypes="caac" /><path
       style="fill:#76d67c;fill-opacity:0;stroke:#1c092f;stroke-width:0.26055;stroke-linecap:round;stroke-linejoin:round;stroke-dasharray:0.26054999,0.52109998;paint-order:fill markers stroke;stroke-dashoffset:0"
       d="m 35.508424,15.264273 c 0,0 0.480503,-0.64234 0.631771,-1.013278 0.109535,-0.268605 0.192119,-0.558664 0.19287,-0.861054 3.91e-4,-0.159363 -0.09932,-0.483931 -0.09932,-0.483931"
       id="path34-5-5"
       sodipodi:nodetypes="caac" /><path
       style="fill:#76d67c;fill-opacity:0;stroke:#1c092f;stroke-width:0.392994;stroke-linecap:round;stroke-linejoin:round;paint-order:fill markers stroke;stroke-dasharray:0.39299399,0.78598797;stroke-dashoffset:0"
       d="m 36.505908,16.336569 c 0,0 0.291404,-0.30915 0.450648,-0.449 0.334155,-0.293462 0.594888,-0.407825 0.982249,-0.484692"
       id="path34-4-98-4"
       sodipodi:nodetypes="csc" /><path
       style="fill:#76d67c;fill-opacity:0;stroke:#1c092f;stroke-width:0.344685;stroke-linecap:round;stroke-linejoin:round;paint-order:fill markers stroke;stroke-dasharray:0.34468499,0.68936998;stroke-dashoffset:0"
       d="m 36.291711,15.409948 c 0,0 0.249391,-0.277353 0.359987,-0.428617 0.0984,-0.13459 0.206113,-0.265159 0.269249,-0.42497 0.05903,-0.149416 0.09802,-0.488012 0.09802,-0.488012"
       id="path34-4-3-4-1"
       sodipodi:nodetypes="caac" /><path
       style="fill:#76d67c;fill-opacity:0;stroke:#1c092f;stroke-width:0.26294;stroke-linecap:round;stroke-linejoin:round;stroke-dasharray:0.26293999,0.52587998;paint-order:fill markers stroke;stroke-dashoffset:0"
       d="m 36.806353,16.804794 c 0,0 0.349749,-0.371276 0.573876,-0.50233 0.318879,-0.186459 0.682209,-0.329413 1.069247,-0.387939 0.203962,-0.03086 0.636635,0.02286 0.636635,0.02286"
       id="path34-4-9-0-20"
       sodipodi:nodetypes="caac" /><path
       style="fill:#76d67c;fill-opacity:0;stroke:#1c092f;stroke-width:0.35;stroke-linecap:round;stroke-linejoin:round;stroke-dasharray:0.34999999,0.69999999;paint-order:fill markers stroke;stroke-dashoffset:0"
       d="m 26.489782,12.006092 c 0,0 -0.959199,-0.49102 -1.484579,-0.607449 -0.380438,-0.08431 -0.783192,-0.128072 -1.183771,-0.06071 -0.211109,0.03552 -0.618339,0.240936 -0.618339,0.240936"
       id="path34-5-5-0"
       sodipodi:nodetypes="caac" /><path
       style="fill:#76d67c;fill-opacity:0;stroke:#1c092f;stroke-width:0.527914;stroke-linecap:round;stroke-linejoin:round;paint-order:fill markers stroke;stroke-dasharray:0.52791399,1.05582798;stroke-dashoffset:0"
       d="m 28.071308,10.199014 c 0,0 -0.475248,-0.3159613 -0.696437,-0.4952024 C 26.910729,9.3276959 26.700342,9.0083042 26.510974,8.5127611"
       id="path34-4-98-4-7"
       sodipodi:nodetypes="csc" /><path
       style="fill:#76d67c;fill-opacity:0;stroke:#1c092f;stroke-width:0.46302;stroke-linecap:round;stroke-linejoin:round;paint-order:fill markers stroke;stroke-dasharray:0.46302,0.92603999;stroke-dashoffset:0"
       d="m 27.524756,11.139802 c 0,0 -0.423644,-0.267518 -0.648948,-0.379763 -0.200465,-0.09986 -0.397712,-0.212969 -0.623601,-0.260436 -0.211197,-0.04438 -0.668363,-0.01945 -0.668363,-0.01945"
       id="path34-4-3-4-1-1"
       sodipodi:nodetypes="caac" /><path
       style="fill:#76d67c;fill-opacity:0;stroke:#1c092f;stroke-width:0.353211;stroke-linecap:round;stroke-linejoin:round;stroke-dasharray:0.35321098,0.70642197;paint-order:fill markers stroke;stroke-dashoffset:0"
       d="m 28.87682,9.67704 c 0,0 -0.570706,-0.3791701 -0.794917,-0.6463149 C 27.762902,8.6506411 27.491459,8.2018615 27.32645,7.7026001 27.23947,7.4395013 27.212779,6.8544321 27.212779,6.8544321"
       id="path34-4-9-0-20-7"
       sodipodi:nodetypes="caac" /><path
       id="path35"
       style="fill:#71ffae;stroke:#1c092f;stroke-width:0.453001;stroke-linecap:round;stroke-linejoin:round;paint-order:fill markers stroke"
       d="M 9.7843127,35.865386 C 8.5049846,36.230882 7.166526,35.472345 6.7947821,34.171147 6.4230383,32.86995 7.5335352,31.593786 8.8128633,31.22829 c 1.0498677,-0.299941 2.4598147,0.02282 2.7021237,1.049813 0.03673,0.155504 -0.12433,0.552451 -0.05765,0.785836 0.07848,0.27469 0.493495,0.268133 0.502829,0.527587 0.03488,0.969571 -1.166596,1.985522 -2.1758503,2.27386 z"
       sodipodi:nodetypes="sssssss" /><path
       style="fill:#71ffae;fill-opacity:1;stroke:#1c092f;stroke-width:0.453001;stroke-linecap:round;stroke-linejoin:round;stroke-dasharray:none;stroke-dashoffset:0;paint-order:fill markers stroke"
       d="m 10.777854,33.601989 c 0,0 -0.247764,0.659875 -1.0639879,0.939954 -0.816222,0.280083 -1.4079583,-0.05203 -1.4079583,-0.05203"
       id="path36"
       sodipodi:nodetypes="czc" /><path
       id="path35-3"
       style="fill:#71ffae;stroke:#1c092f;stroke-width:0.58529;stroke-linecap:round;stroke-linejoin:round;paint-order:fill markers stroke"
       d="m 29.166085,19.790906 c 0,1.719062 -1.417398,3.112637 -3.165846,3.112637 -1.74845,0 -2.939715,-1.832537 -2.939715,-3.551599 0,-1.410731 0.901398,-3.047785 2.263254,-2.984307 0.206223,0.0096 0.642196,0.350535 0.9558,0.350535 0.369108,0 0.508261,-0.517913 0.833898,-0.437422 1.216901,0.30079 2.052609,2.153997 2.052609,3.510156 z"
       sodipodi:nodetypes="sssssss" /><path
       style="fill:#71ffae;fill-opacity:1;stroke:#1c092f;stroke-width:0.58529;stroke-linecap:round;stroke-linejoin:round;stroke-dasharray:none;stroke-dashoffset:0;paint-order:fill markers stroke"
       d="m 26.706847,17.753273 c 0,0 0.73184,0.542008 0.790091,1.655429 0.05826,1.11342 -0.564352,1.730673 -0.564352,1.730673"
       id="path36-5"
       sodipodi:nodetypes="czc" /><path
       id="path35-8"
       style="fill:#71ffae;stroke:#1c092f;stroke-width:0.400012;stroke-linecap:round;stroke-linejoin:round;paint-order:fill markers stroke"
       d="m 45.178013,26.876984 c 1.068526,0.48846 1.531992,1.765455 1.035183,2.852245 -0.49681,1.086792 -1.974359,1.30655 -3.042885,0.81809 -0.876874,-0.40085 -1.6383,-1.426294 -1.211881,-2.254752 0.06454,-0.125467 0.400359,-0.299571 0.489467,-0.494499 0.10488,-0.229429 -0.177502,-0.463084 -0.03494,-0.642622 0.532739,-0.670927 1.922105,-0.663805 2.76506,-0.278462 z"
       sodipodi:nodetypes="sssssss" /><path
       style="fill:#71ffae;fill-opacity:1;stroke:#1c092f;stroke-width:0.400012;stroke-linecap:round;stroke-linejoin:round;stroke-dasharray:none;stroke-dashoffset:0;paint-order:fill markers stroke"
       d="m 43.212696,27.826605 c 0,0 0.544845,-0.300886 1.253472,-0.02072 0.708627,0.280159 0.915385,0.842545 0.915385,0.842545"
       id="path36-2"
       sodipodi:nodetypes="czc" /><path
       style="fill:#71ffae;fill-opacity:0;stroke:#1c092f;stroke-width:0.453001;stroke-linecap:round;stroke-linejoin:round;stroke-dasharray:none;stroke-dashoffset:0;paint-order:fill markers stroke"
       d="m 33.311438,18.487909 c 0,0 -0.616853,-0.695551 -1.770695,-0.88333 -0.558584,-0.0909 -1.687526,0.186476 -1.687526,0.186476"
       id="path37"
       sodipodi:nodetypes="csc" /><path
       style="fill:#71ffae;fill-opacity:0;stroke:#1c092f;stroke-width:0.453001;stroke-linecap:round;stroke-linejoin:round;stroke-dasharray:none;stroke-dashoffset:0;paint-order:fill markers stroke"
       d="m 32.688492,19.869701 c 0,0 -0.42576,-0.58759 -1.446794,-0.72148 -0.476816,-0.06253 -1.441601,0.05617 -1.441601,0.05617"
       id="path38"
       sodipodi:nodetypes="csc" /><path
       style="fill:#71ffae;fill-opacity:0;stroke:#1c092f;stroke-width:0.453001;stroke-linecap:round;stroke-linejoin:round;stroke-dasharray:none;stroke-dashoffset:0;paint-order:fill markers stroke"
       d="m 42.377187,35.000164 c 0,0 0.860863,-0.351019 1.420975,-1.377122 0.27115,-0.496746 0.384212,-1.653753 0.384212,-1.653753"
       id="path37-8"
       sodipodi:nodetypes="csc" /><path
       style="fill:#71ffae;fill-opacity:0;stroke:#1c092f;stroke-width:0.453001;stroke-linecap:round;stroke-linejoin:round;stroke-dasharray:none;stroke-dashoffset:0;paint-order:fill markers stroke"
       d="m 41.280496,33.953894 c 0,0 0.695596,-0.206593 1.160793,-1.125303 0.217248,-0.42903 0.425504,-1.378519 0.425504,-1.378519"
       id="path38-0"
       sodipodi:nodetypes="csc" /></g></svg>
