<?xml version="1.0" encoding="UTF-8" standalone="no"?>
<!-- Created with Inkscape (http://www.inkscape.org/) -->

<svg
   width="200"
   height="201.17665"
   viewBox="0 0 52.916666 53.227988"
   version="1.1"
   id="svg1"
   inkscape:version="1.4.2 (f4327f4, 2025-05-13)"
   sodipodi:docname="EdgeWrap1.svg"
   xmlns:inkscape="http://www.inkscape.org/namespaces/inkscape"
   xmlns:sodipodi="http://sodipodi.sourceforge.net/DTD/sodipodi-0.dtd"
   xmlns:xlink="http://www.w3.org/1999/xlink"
   xmlns="http://www.w3.org/2000/svg"
   xmlns:svg="http://www.w3.org/2000/svg">
  <sodipodi:namedview
     id="namedview1"
     pagecolor="#ffffff"
     bordercolor="#000000"
     borderopacity="0.25"
     inkscape:showpageshadow="2"
     inkscape:pageopacity="0.0"
     inkscape:pagecheckerboard="0"
     inkscape:deskcolor="#d1d1d1"
     inkscape:document-units="mm"
     inkscape:zoom="2.271521"
     inkscape:cx="-67.795983"
     inkscape:cy="130.96951"
     inkscape:window-width="3840"
     inkscape:window-height="2054"
     inkscape:window-x="-11"
     inkscape:window-y="-11"
     inkscape:window-maximized="1"
     inkscape:current-layer="layer1" />
  <defs
     id="defs1">
    <linearGradient
       id="linearGradient139"
       inkscape:collect="always">
      <stop
         style="stop-color:#e9a0fc;stop-opacity:1;"
         offset="0"
         id="stop140" />
      <stop
         style="stop-color:#9b4ebc;stop-opacity:1;"
         offset="1"
         id="stop141" />
    </linearGradient>
    <inkscape:path-effect
       effect="spiro"
       id="path-effect10"
       is_visible="true"
       lpeversion="1" />
    <inkscape:path-effect
       effect="spiro"
       id="path-effect11"
       is_visible="true"
       lpeversion="1" />
    <radialGradient
       inkscape:collect="always"
       xlink:href="#linearGradient139"
       id="radialGradient141-7"
       cx="16.595394"
       cy="1.9469649"
       fx="16.595394"
       fy="1.9469649"
       r="7.5771537"
       gradientTransform="matrix(1.3397922,0.77549065,-0.23907936,0.41305036,5.3277323,-8.751568)"
       gradientUnits="userSpaceOnUse" />
  </defs>
  <g
     inkscape:label="Ebene 1"
     inkscape:groupmode="layer"
     id="layer1"
     transform="translate(-0.20000279)">
    <rect
       style="fill:#ba7ad9;fill-opacity:1;stroke:#212532;stroke-width:1.29973;stroke-linejoin:round;stroke-miterlimit:8.2;stroke-dasharray:none;stroke-opacity:0.995995"
       id="rect1"
       width="51.616936"
       height="51.616943"
       x="0.84986776"
       y="0.96118188"
       ry="5.9818354"
       rx="19.15794" />
    <rect
       style="fill:#e5c5f4;fill-opacity:1;stroke:#212532;stroke-width:0.689558;stroke-linejoin:round;stroke-miterlimit:8.2;stroke-dasharray:none;stroke-opacity:0.995995"
       id="rect1-8"
       width="45.94006"
       height="45.940067"
       x="3.6883085"
       y="3.7996202"
       ry="5.3239479"
       rx="17.050934" />
    <path
       d="m 41.040369,40.897011 c -2.145448,2.095451 -2.81349,6.919889 -2.81349,8.545707 l 3.671176,-0.563176 c 0,0 0.510859,-3.202807 1.563488,-4.311363 1.536523,-1.61816 6.166827,-2.604667 6.166827,-2.604667 v -3.671167 c 0,0 -6.447948,0.514486 -8.588001,2.604666 z"
       style="fill:#a119df;stroke:#212532;stroke-width:0.624182;stroke-opacity:0.995995;fill-opacity:1"
       id="path13"
       sodipodi:nodetypes="accacca" />
    <path
       d="m 37.755952,4.0476951 c -0.102469,3.1571059 -2.819265,15.4249599 2.176132,19.7979809 2.426239,2.123954 9.671093,-0.224355 9.671093,-0.224355 v -3.671174 c 0,0 -5.533382,2.447377 -7.434048,0.833319 C 38.039348,17.276428 41.338898,4.5507703 41.338898,4.5507703 Z"
       style="fill:#a119df;stroke:#212532;stroke-width:0.624182;stroke-opacity:0.995995;fill-opacity:1"
       id="path12"
       sodipodi:nodetypes="caccacc" />
    <path
       d="m 3.6885606,37.25309 v 3.671173 c 0,0 8.0002124,-3.604862 11.1936424,-1.602535 3.070467,1.925228 3.301223,10.359072 3.301223,10.359072 L 21.8546,49.73969 C 21.505391,47.375874 20.820676,38.621111 16.67845,36.035161 12.989368,33.732104 3.6885606,37.25309 3.6885606,37.25309 Z"
       style="fill:#a119df;stroke:#212532;stroke-width:0.624182;stroke-opacity:0.995995;fill-opacity:1"
       id="path14"
       sodipodi:nodetypes="ccaccac" />
    <path
       d="m 18.183426,3.8585075 c 0,0 5.268809,15.6452025 0.667289,20.8652115 -3.3569,3.808101 -15.1624067,1.426563 -15.1624067,1.426563 v 3.671175 C 13.314428,31.74655 18.730152,30.67927 22.68603,25.531732 27.102518,19.78483 21.8546,3.8038966 21.8546,3.8038966 Z"
       style="fill:#a119df;fill-opacity:1;stroke:#212532;stroke-width:0.624182;stroke-opacity:0.995995"
       id="path5"
       sodipodi:nodetypes="caccacc" />
    <path
       d="m 3.8775891,19.399953 v 3.671174 c 6.7759499,-1.533228 9.8561949,-1.852614 12.8863679,-3.091949 1.906345,-0.779692 1.005281,-4.511421 -1.586429,-3.875949 -3.810794,0.934383 -11.2999389,3.296724 -11.2999389,3.296724 z"
       style="fill:#a119df;stroke:#212532;stroke-width:0.624182;stroke-opacity:0.995995;fill-opacity:1"
       id="path6"
       sodipodi:nodetypes="ccssc" />
    <path
       d="m 28.743281,20.773827 c -1.663708,-0.06422 -3.00789,0.275363 -3.554541,1.222653 -1.457743,2.526105 3.306985,8.417651 7.04473,10.66925 2.822149,1.700049 4.252044,0.83912 5.411846,-0.771397 1.618686,0.589922 3.470987,1.197819 4.787649,1.430182 2.36262,0.416952 7.195148,0.170527 7.195148,0.170527 v -3.663131 c 0,0 -4.224374,0.284383 -6.292639,-0.06676 -1.057613,-0.179563 -2.460195,-0.607004 -3.808723,-1.074647 0.893248,-1.835398 0.971343,-3.378234 -2.013354,-5.174554 -2.336643,-1.406293 -5.997271,-2.635069 -8.770116,-2.742122 z"
       style="fill:#a119df;stroke:#212532;stroke-width:0.624182;stroke-opacity:0.995995;fill-opacity:1"
       id="path18" />
    <path
       style="fill:#d696f4;fill-opacity:1;stroke:#000000;stroke-width:0.478425;stroke-dasharray:none;stroke-opacity:1"
       id="path21-9"
       sodipodi:type="arc"
       sodipodi:cx="35.393387"
       sodipodi:cy="24.556595"
       sodipodi:rx="1.8803049"
       sodipodi:ry="1.8803049"
       sodipodi:start="6.2613533"
       sodipodi:end="6.2601406"
       sodipodi:open="true"
       sodipodi:arc-type="arc"
       d="m 37.273244,24.515547 a 1.8803049,1.8803049 0 0 1 -1.83824,1.920892 1.8803049,1.8803049 0 0 1 -1.921449,-1.837657 1.8803049,1.8803049 0 0 1 1.837075,-1.922006 1.8803049,1.8803049 0 0 1 1.922563,1.836492" />
    <path
       sodipodi:type="spiral"
       style="fill:none;fill-rule:evenodd;stroke:#000000;stroke-width:0.165;stroke-dasharray:none"
       id="path22-1"
       sodipodi:cx="19.661737"
       sodipodi:cy="17.758387"
       sodipodi:expansion="1"
       sodipodi:revolution="2.7902846"
       sodipodi:radius="1.1345215"
       sodipodi:argument="-16.59215"
       sodipodi:t0="0.21885763"
       d="m 19.905624,17.711787 c 0.07361,0.154843 -0.0277,0.331665 -0.17821,0.390329 -0.210189,0.08192 -0.4389,-0.05434 -0.509249,-0.258976 -0.09112,-0.265044 0.0809,-0.546612 0.339742,-0.628169 0.319704,-0.100732 0.654577,0.107395 0.747089,0.420508 0.110582,0.374268 -0.133861,0.762693 -0.501274,0.86601 -0.428778,0.120573 -0.870905,-0.160307 -0.98493,-0.582041 -0.130658,-0.483256 0.186737,-0.979185 0.662807,-1.10385 0.537713,-0.140807 1.087512,0.213156 1.22277,0.743573 0.104228,0.408732 -0.04899,0.848661 -0.373253,1.115224"
       transform="matrix(1.5894584,0,0,1.5894584,4.1220653,-3.519618)" />
    <path
       d="m 37.208454,31.945714 a 10.954061,5.3062793 37.49729 0 0 -5.009406,-5.077909 10.954061,5.3062793 37.49729 0 0 -6.90138,-3.136748 c 0.590271,2.873956 4.231836,6.991473 7.149423,8.725483 2.461531,1.462962 3.770377,0.850125 4.761363,-0.510826 z"
       style="fill:#540f75;fill-opacity:1;stroke:#000000;stroke-width:0.249777;stroke-opacity:0"
       id="path24" />
    <path
       style="fill:#d696f4;fill-opacity:1;stroke:#000000;stroke-width:0.478425;stroke-dasharray:none;stroke-opacity:1"
       id="path21-9-3"
       sodipodi:type="arc"
       sodipodi:cx="32.702324"
       sodipodi:cy="28.60334"
       sodipodi:rx="1.8803049"
       sodipodi:ry="1.8803049"
       sodipodi:start="6.2613533"
       sodipodi:end="6.2601406"
       sodipodi:open="true"
       sodipodi:arc-type="arc"
       d="m 34.582181,28.562293 a 1.8803049,1.8803049 0 0 1 -1.83824,1.920891 1.8803049,1.8803049 0 0 1 -1.921449,-1.837656 1.8803049,1.8803049 0 0 1 1.837075,-1.922007 1.8803049,1.8803049 0 0 1 1.922563,1.836492" />
    <path
       sodipodi:type="spiral"
       style="fill:#d696f4;fill-rule:evenodd;stroke:#000000;stroke-width:0.165;stroke-dasharray:none;fill-opacity:1"
       id="path22-1-9"
       sodipodi:cx="19.661737"
       sodipodi:cy="17.758387"
       sodipodi:expansion="1"
       sodipodi:revolution="2.7902846"
       sodipodi:radius="1.1345215"
       sodipodi:argument="-16.59215"
       sodipodi:t0="0.21885763"
       d="m 19.905624,17.711787 c 0.07361,0.154843 -0.0277,0.331665 -0.17821,0.390329 -0.210189,0.08192 -0.4389,-0.05434 -0.509249,-0.258976 -0.09112,-0.265044 0.0809,-0.546612 0.339742,-0.628169 0.319704,-0.100732 0.654577,0.107395 0.747089,0.420508 0.110582,0.374268 -0.133861,0.762693 -0.501274,0.86601 -0.428778,0.120573 -0.870905,-0.160307 -0.98493,-0.582041 -0.130658,-0.483256 0.186737,-0.979185 0.662807,-1.10385 0.537713,-0.140807 1.087512,0.213156 1.22277,0.743573 0.104228,0.408732 -0.04899,0.848661 -0.373253,1.115224"
       transform="matrix(1.5894584,0,0,1.5894584,1.4310001,0.52712584)" />
    <path
       id="path17-2"
       style="fill:url(#radialGradient141-7);fill-opacity:1;stroke:#13061b;stroke-width:0.532787;stroke-dasharray:none"
       d="m 33.036254,0.87269427 c -1.905118,0 -4.145728,1.38001343 -5.686583,2.53404283 -1.532346,-1.1252826 -3.6782,-2.4051133 -5.512761,-2.4051133 -3.274206,0 -5.928256,1.825074 -5.928256,4.0759551 0,2.250882 2.65405,4.075432 5.928256,4.075432 1.905125,0 4.145728,-1.379636 5.686583,-2.533518 1.532346,1.125134 3.678205,2.404588 5.512761,2.404588 3.274207,0 5.928255,-1.82455 5.928255,-4.0754314 0,-2.2508804 -2.654048,-4.07595523 -5.928255,-4.07595523 z m 0.112073,2.19547083 c 1.533585,0 2.776584,0.8281472 2.776584,1.8495625 0,1.0214151 -1.242999,1.849038 -2.776584,1.849038 -1.533584,0 -3.531339,-1.849038 -3.531339,-1.849038 0,0 1.997755,-1.8495625 3.531339,-1.8495625 z M 21.724844,3.1970952 c 1.533584,0 3.531338,1.8495618 3.531338,1.8495618 0,0 -1.997754,1.8490387 -3.531338,1.8490387 -1.533586,0 -2.776584,-0.8276236 -2.776584,-1.8490387 0,-1.0214159 1.242998,-1.8495618 2.776584,-1.8495618 z" />
    <path
       id="path18-5-7"
       style="fill:#9b4ebc;fill-opacity:1;stroke:#13061b;stroke-width:0.532787"
       d="m 35.875322,1.9084055 c 0.188329,1.0023434 0.256621,1.9003738 -1.409419,2.1141209 -1.666039,0.213747 -4.435515,-0.3377309 -4.623843,-1.3400742 -0.188327,-1.0023434 2.275808,-2.07598633 3.941848,-2.28973333 1.666038,-0.2137472 1.903087,0.5133433 2.091414,1.51568663 z"
       sodipodi:nodetypes="sssss" />
    <ellipse
       style="fill:#f0cff9;fill-opacity:1;stroke:#13061b;stroke-width:0;stroke-dasharray:none;stroke-opacity:1"
       id="path19-9"
       cx="34.286846"
       cy="1.3785255"
       rx="1.0800748"
       ry="0.1327697" />
    <ellipse
       style="fill:#f0cff9;fill-opacity:1;stroke:#13061b;stroke-width:0;stroke-dasharray:none;stroke-opacity:1"
       id="path19-2-5"
       cx="34.354736"
       cy="2.5302131"
       rx="1.0800748"
       ry="0.1327697" />
  </g>
</svg>
