<?xml version="1.0" encoding="UTF-8" standalone="no"?>
<!-- Created with Inkscape (http://www.inkscape.org/) -->

<svg
   width="200"
   height="201.17665"
   viewBox="0 0 52.916666 53.227988"
   version="1.1"
   id="svg1"
   inkscape:version="1.4.2 (f4327f4, 2025-05-13)"
   sodipodi:docname="EdgeWrap2.svg"
   xmlns:inkscape="http://www.inkscape.org/namespaces/inkscape"
   xmlns:sodipodi="http://sodipodi.sourceforge.net/DTD/sodipodi-0.dtd"
   xmlns:xlink="http://www.w3.org/1999/xlink"
   xmlns="http://www.w3.org/2000/svg"
   xmlns:svg="http://www.w3.org/2000/svg">
  <sodipodi:namedview
     id="namedview1"
     pagecolor="#ffffff"
     bordercolor="#000000"
     borderopacity="0.25"
     inkscape:showpageshadow="2"
     inkscape:pageopacity="0.0"
     inkscape:pagecheckerboard="0"
     inkscape:deskcolor="#d1d1d1"
     inkscape:document-units="mm"
     inkscape:zoom="4.543042"
     inkscape:cx="8.5845563"
     inkscape:cy="45.454125"
     inkscape:window-width="3840"
     inkscape:window-height="2054"
     inkscape:window-x="-11"
     inkscape:window-y="-11"
     inkscape:window-maximized="1"
     inkscape:current-layer="layer1" />
  <defs
     id="defs1">
    <linearGradient
       inkscape:collect="always"
       xlink:href="#linearGradient33"
       id="linearGradient34-5-6"
       x1="9.157506"
       y1="0.65352297"
       x2="9.5236139"
       y2="7.639287"
       gradientUnits="userSpaceOnUse" />
    <linearGradient
       id="linearGradient33"
       inkscape:collect="always">
      <stop
         style="stop-color:#ffd1a8;stop-opacity:1;"
         offset="0"
         id="stop33" />
      <stop
         style="stop-color:#a06c34;stop-opacity:1;"
         offset="0.69575757"
         id="stop34" />
    </linearGradient>
    <linearGradient
       inkscape:collect="always"
       xlink:href="#linearGradient33"
       id="linearGradient24"
       gradientUnits="userSpaceOnUse"
       x1="9.157506"
       y1="0.65352297"
       x2="9.5236139"
       y2="7.639287" />
    <linearGradient
       inkscape:collect="always"
       xlink:href="#linearGradient33"
       id="linearGradient25"
       gradientUnits="userSpaceOnUse"
       x1="9.157506"
       y1="0.65352297"
       x2="9.5236139"
       y2="7.639287" />
  </defs>
  <g
     inkscape:label="Ebene 1"
     inkscape:groupmode="layer"
     id="layer1"
     transform="translate(-0.20000279)">
    <rect
       style="fill:#d9a87a;fill-opacity:1;stroke:#212532;stroke-width:1.29973;stroke-linejoin:round;stroke-miterlimit:8.2;stroke-dasharray:none;stroke-opacity:0.995995"
       id="rect1"
       width="51.616936"
       height="51.616943"
       x="0.84986776"
       y="0.96118194"
       ry="5.9818354"
       rx="19.15794" />
    <rect
       style="fill:#f5a75d;fill-opacity:1;stroke:#212532;stroke-width:0.689558;stroke-linejoin:round;stroke-miterlimit:8.2;stroke-dasharray:none;stroke-opacity:0.995995"
       id="rect1-8"
       width="45.94006"
       height="45.940067"
       x="3.6883085"
       y="3.7996202"
       ry="5.3239479"
       rx="17.050934" />
    <path
       d="m 41.040369,40.897011 c -2.145448,2.095451 -2.81349,6.919889 -2.81349,8.545707 l 3.671176,-0.563176 c 0,0 0.510859,-3.202807 1.563488,-4.311363 1.536523,-1.61816 6.166827,-2.604667 6.166827,-2.604667 v -3.671167 c 0,0 -6.447948,0.514486 -8.588001,2.604666 z"
       style="fill:#ae8762;stroke:#212532;stroke-width:0.624182;stroke-opacity:0.995995"
       id="path13"
       sodipodi:nodetypes="accacca" />
    <path
       d="m 37.755952,4.0476951 c -0.102469,3.1571059 -2.819265,15.4249599 2.176132,19.7979809 2.426239,2.123954 9.671093,-0.224355 9.671093,-0.224355 v -3.671174 c 0,0 -5.533382,2.447377 -7.434048,0.833319 C 38.039348,17.276428 41.338898,4.5507703 41.338898,4.5507703 Z"
       style="fill:#ae8762;stroke:#212532;stroke-width:0.624182;stroke-opacity:0.995995"
       id="path12"
       sodipodi:nodetypes="caccacc" />
    <path
       d="m 3.6885606,37.25309 v 3.671173 c 0,0 8.0002124,-3.604862 11.1936424,-1.602535 3.070467,1.925228 3.301223,10.359072 3.301223,10.359072 L 21.8546,49.73969 C 21.505391,47.375874 20.820676,38.621111 16.67845,36.035161 12.989368,33.732104 3.6885606,37.25309 3.6885606,37.25309 Z"
       style="fill:#ae8762;stroke:#212532;stroke-width:0.624182;stroke-opacity:0.995995"
       id="path14"
       sodipodi:nodetypes="ccaccac" />
    <path
       d="m 18.183426,3.8585075 c 0,0 5.268809,15.6452025 0.667289,20.8652115 -3.3569,3.808101 -15.1624067,1.426563 -15.1624067,1.426563 v 3.671175 C 13.314428,31.74655 18.730152,30.67927 22.68603,25.531732 27.102518,19.78483 21.8546,3.8038966 21.8546,3.8038966 Z"
       style="fill:#ae8762;fill-opacity:1;stroke:#212532;stroke-width:0.624182;stroke-opacity:0.995995"
       id="path5"
       sodipodi:nodetypes="caccacc" />
    <path
       d="m 3.8775891,19.399953 v 3.671174 c 6.7759499,-1.533228 9.8561949,-1.852614 12.8863679,-3.091949 1.906345,-0.779692 1.005281,-4.511421 -1.586429,-3.875949 -3.810794,0.934383 -11.2999389,3.296724 -11.2999389,3.296724 z"
       style="fill:#ae8762;stroke:#212532;stroke-width:0.624182;stroke-opacity:0.995995"
       id="path6"
       sodipodi:nodetypes="ccssc" />
    <path
       d="m 28.743281,20.773827 c -1.663708,-0.06422 -3.00789,0.275363 -3.554541,1.222653 -1.457743,2.526105 3.306985,8.417651 7.04473,10.66925 2.822149,1.700049 4.252044,0.83912 5.411846,-0.771397 1.618686,0.589922 3.470987,1.197819 4.787649,1.430182 2.36262,0.416952 7.195148,0.170527 7.195148,0.170527 v -3.663131 c 0,0 -4.224374,0.284383 -6.292639,-0.06676 -1.057613,-0.179563 -2.460195,-0.607004 -3.808723,-1.074647 0.893248,-1.835398 0.971343,-3.378234 -2.013354,-5.174554 -2.336643,-1.406293 -5.997271,-2.635069 -8.770116,-2.742122 z"
       style="fill:#ae8762;stroke:#212532;stroke-width:0.624182;stroke-opacity:0.995995"
       id="path18" />
    <path
       style="fill:#fcc18c;fill-opacity:1;stroke:#000000;stroke-width:0.478425;stroke-dasharray:none;stroke-opacity:1"
       id="path21-9"
       sodipodi:type="arc"
       sodipodi:cx="35.393387"
       sodipodi:cy="24.556595"
       sodipodi:rx="1.8803049"
       sodipodi:ry="1.8803049"
       sodipodi:start="6.2613533"
       sodipodi:end="6.2601406"
       sodipodi:open="true"
       sodipodi:arc-type="arc"
       d="m 37.273244,24.515547 a 1.8803049,1.8803049 0 0 1 -1.83824,1.920892 1.8803049,1.8803049 0 0 1 -1.921449,-1.837657 1.8803049,1.8803049 0 0 1 1.837075,-1.922006 1.8803049,1.8803049 0 0 1 1.922563,1.836492" />
    <path
       sodipodi:type="spiral"
       style="fill:none;fill-rule:evenodd;stroke:#000000;stroke-width:0.165;stroke-dasharray:none"
       id="path22-1"
       sodipodi:cx="19.661737"
       sodipodi:cy="17.758387"
       sodipodi:expansion="1"
       sodipodi:revolution="2.7902846"
       sodipodi:radius="1.1345215"
       sodipodi:argument="-16.59215"
       sodipodi:t0="0.21885763"
       d="m 19.905624,17.711787 c 0.07361,0.154843 -0.0277,0.331665 -0.17821,0.390329 -0.210189,0.08192 -0.4389,-0.05434 -0.509249,-0.258976 -0.09112,-0.265044 0.0809,-0.546612 0.339742,-0.628169 0.319704,-0.100732 0.654577,0.107395 0.747089,0.420508 0.110582,0.374268 -0.133861,0.762693 -0.501274,0.86601 -0.428778,0.120573 -0.870905,-0.160307 -0.98493,-0.582041 -0.130658,-0.483256 0.186737,-0.979185 0.662807,-1.10385 0.537713,-0.140807 1.087512,0.213156 1.22277,0.743573 0.104228,0.408732 -0.04899,0.848661 -0.373253,1.115224"
       transform="matrix(1.5894584,0,0,1.5894584,4.1220653,-3.5196179)" />
    <path
       d="m 37.208454,31.945714 a 10.954061,5.3062793 37.49729 0 0 -5.009406,-5.077909 10.954061,5.3062793 37.49729 0 0 -6.90138,-3.136748 c 0.590271,2.873956 4.231836,6.991473 7.149423,8.725483 2.461531,1.462962 3.770377,0.850125 4.761363,-0.510826 z"
       style="fill:#755b42;fill-opacity:1;stroke:#000000;stroke-width:0.249777;stroke-opacity:0"
       id="path24" />
    <path
       style="fill:#fcc18c;fill-opacity:1;stroke:#000000;stroke-width:0.478425;stroke-dasharray:none;stroke-opacity:1"
       id="path21-9-3"
       sodipodi:type="arc"
       sodipodi:cx="32.702324"
       sodipodi:cy="28.60334"
       sodipodi:rx="1.8803049"
       sodipodi:ry="1.8803049"
       sodipodi:start="6.2613533"
       sodipodi:end="6.2601406"
       sodipodi:open="true"
       sodipodi:arc-type="arc"
       d="m 34.582181,28.562293 a 1.8803049,1.8803049 0 0 1 -1.83824,1.920891 1.8803049,1.8803049 0 0 1 -1.921449,-1.837656 1.8803049,1.8803049 0 0 1 1.837075,-1.922007 1.8803049,1.8803049 0 0 1 1.922563,1.836492" />
    <path
       sodipodi:type="spiral"
       style="fill:none;fill-rule:evenodd;stroke:#000000;stroke-width:0.165;stroke-dasharray:none"
       id="path22-1-9"
       sodipodi:cx="19.661737"
       sodipodi:cy="17.758387"
       sodipodi:expansion="1"
       sodipodi:revolution="2.7902846"
       sodipodi:radius="1.1345215"
       sodipodi:argument="-16.59215"
       sodipodi:t0="0.21885763"
       d="m 19.905624,17.711787 c 0.07361,0.154843 -0.0277,0.331665 -0.17821,0.390329 -0.210189,0.08192 -0.4389,-0.05434 -0.509249,-0.258976 -0.09112,-0.265044 0.0809,-0.546612 0.339742,-0.628169 0.319704,-0.100732 0.654577,0.107395 0.747089,0.420508 0.110582,0.374268 -0.133861,0.762693 -0.501274,0.86601 -0.428778,0.120573 -0.870905,-0.160307 -0.98493,-0.582041 -0.130658,-0.483256 0.186737,-0.979185 0.662807,-1.10385 0.537713,-0.140807 1.087512,0.213156 1.22277,0.743573 0.104228,0.408732 -0.04899,0.848661 -0.373253,1.115224"
       transform="matrix(1.5894584,0,0,1.5894584,1.4310001,0.52712585)" />
    <path
       sodipodi:type="star"
       style="fill:url(#linearGradient24);fill-opacity:1;fill-rule:nonzero;stroke:#322d21;stroke-width:0.443;stroke-linejoin:round;stroke-miterlimit:8.2;stroke-opacity:0.995995"
       id="path1-5-7"
       inkscape:flatsided="false"
       sodipodi:sides="5"
       sodipodi:cx="9.3473988"
       sodipodi:cy="4.4553022"
       sodipodi:r1="3.4362388"
       sodipodi:r2="2.3474281"
       sodipodi:arg1="0.9357696"
       sodipodi:arg2="1.5640882"
       inkscape:rounded="0.12173243"
       inkscape:randomized="0"
       d="M 11.385772,7.2216663 C 11.183344,7.3708242 9.6145864,6.8009908 9.3631455,6.8026775 9.1117046,6.8043642 7.5507336,7.3951928 7.3463222,7.2487642 7.1419108,7.1023355 7.1990819,5.4342704 7.1197782,5.1956571 7.0404745,4.9570438 5.9961966,3.6550483 6.0722919,3.4153926 6.1483873,3.1757368 7.7524783,2.7146493 7.9549068,2.5654914 8.1573353,2.4163336 9.0729071,1.0208275 9.324348,1.0191408 c 0.2514409,-0.00169 1.185653,1.3814106 1.390064,1.5278393 0.204411,0.1464286 1.814544,0.585954 1.893847,0.8245673 0.0793,0.2386133 -0.947412,1.5545019 -1.023508,1.7941577 -0.0761,0.2396557 0.0034,1.9068034 -0.198979,2.0559612 z"
       inkscape:transform-center-x="-0.33505923"
       inkscape:transform-center-y="-0.73490863"
       transform="matrix(1.1339459,0.26297713,-0.26297713,1.1339459,23.868718,-2.2168166)" />
    <path
       sodipodi:type="star"
       style="fill:url(#linearGradient25);fill-opacity:1;fill-rule:nonzero;stroke:#322d21;stroke-width:0.443;stroke-linejoin:round;stroke-miterlimit:8.2;stroke-opacity:0.995995"
       id="path1-5-7-0"
       inkscape:flatsided="false"
       sodipodi:sides="5"
       sodipodi:cx="9.3473988"
       sodipodi:cy="4.4553022"
       sodipodi:r1="3.4362388"
       sodipodi:r2="2.3474281"
       sodipodi:arg1="0.9357696"
       sodipodi:arg2="1.5640882"
       inkscape:rounded="0.12173243"
       inkscape:randomized="0"
       d="M 11.385772,7.2216663 C 11.183344,7.3708242 9.6145864,6.8009908 9.3631455,6.8026775 9.1117046,6.8043642 7.5507336,7.3951928 7.3463222,7.2487642 7.1419108,7.1023355 7.1990819,5.4342704 7.1197782,5.1956571 7.0404745,4.9570438 5.9961966,3.6550483 6.0722919,3.4153926 6.1483873,3.1757368 7.7524783,2.7146493 7.9549068,2.5654914 8.1573353,2.4163336 9.0729071,1.0208275 9.324348,1.0191408 c 0.2514409,-0.00169 1.185653,1.3814106 1.390064,1.5278393 0.204411,0.1464286 1.814544,0.585954 1.893847,0.8245673 0.0793,0.2386133 -0.947412,1.5545019 -1.023508,1.7941577 -0.0761,0.2396557 0.0034,1.9068034 -0.198979,2.0559612 z"
       inkscape:transform-center-x="0.33505893"
       inkscape:transform-center-y="-0.73490863"
       transform="matrix(-1.1339459,0.26297713,0.26297713,1.1339459,30.485591,-2.2168166)" />
    <path
       sodipodi:type="star"
       style="fill:url(#linearGradient34-5-6);fill-opacity:1;fill-rule:nonzero;stroke:#322d21;stroke-width:0.443;stroke-linejoin:round;stroke-miterlimit:8.2;stroke-opacity:0.995995"
       id="path1-5"
       inkscape:flatsided="false"
       sodipodi:sides="5"
       sodipodi:cx="9.3473988"
       sodipodi:cy="4.4553022"
       sodipodi:r1="3.4362388"
       sodipodi:r2="2.3474281"
       sodipodi:arg1="0.9357696"
       sodipodi:arg2="1.5640882"
       inkscape:rounded="0.12173243"
       inkscape:randomized="0"
       d="M 11.385772,7.2216663 C 11.183344,7.3708242 9.6145864,6.8009908 9.3631455,6.8026775 9.1117046,6.8043642 7.5507336,7.3951928 7.3463222,7.2487642 7.1419108,7.1023355 7.1990819,5.4342704 7.1197782,5.1956571 7.0404745,4.9570438 5.9961966,3.6550483 6.0722919,3.4153926 6.1483873,3.1757368 7.7524783,2.7146493 7.9549068,2.5654914 8.1573353,2.4163336 9.0729071,1.0208275 9.324348,1.0191408 c 0.2514409,-0.00169 1.185653,1.3814106 1.390064,1.5278393 0.204411,0.1464286 1.814544,0.585954 1.893847,0.8245673 0.0793,0.2386133 -0.947412,1.5545019 -1.023508,1.7941577 -0.0761,0.2396557 0.0034,1.9068034 -0.198979,2.0559612 z"
       inkscape:transform-center-x="0.10400075"
       inkscape:transform-center-y="-1.3089876"
       transform="matrix(1.5481355,0,0,1.5481355,12.617726,-1.2348471)" />
  </g>
</svg>
