<?xml version="1.0" encoding="UTF-8" standalone="no"?>
<!-- Created with Inkscape (http://www.inkscape.org/) -->

<svg
   width="200"
   height="201.17665"
   viewBox="0 0 52.916666 53.227988"
   version="1.1"
   id="svg1"
   inkscape:version="1.4.2 (f4327f4, 2025-05-13)"
   sodipodi:docname="EdgeWrap.svg"
   xmlns:inkscape="http://www.inkscape.org/namespaces/inkscape"
   xmlns:sodipodi="http://sodipodi.sourceforge.net/DTD/sodipodi-0.dtd"
   xmlns="http://www.w3.org/2000/svg"
   xmlns:svg="http://www.w3.org/2000/svg">
  <sodipodi:namedview
     id="namedview1"
     pagecolor="#ffffff"
     bordercolor="#000000"
     borderopacity="0.25"
     inkscape:showpageshadow="2"
     inkscape:pageopacity="0.0"
     inkscape:pagecheckerboard="0"
     inkscape:deskcolor="#d1d1d1"
     inkscape:document-units="mm"
     inkscape:zoom="2.271521"
     inkscape:cx="-67.795983"
     inkscape:cy="130.96951"
     inkscape:window-width="3840"
     inkscape:window-height="2054"
     inkscape:window-x="-11"
     inkscape:window-y="-11"
     inkscape:window-maximized="1"
     inkscape:current-layer="layer1" />
  <defs
     id="defs1">
    <inkscape:path-effect
       effect="spiro"
       id="path-effect10"
       is_visible="true"
       lpeversion="1" />
    <inkscape:path-effect
       effect="spiro"
       id="path-effect11"
       is_visible="true"
       lpeversion="1" />
  </defs>
  <g
     inkscape:label="Ebene 1"
     inkscape:groupmode="layer"
     id="layer1"
     transform="translate(-0.20000279)">
    <path
       d="m 41.040369,40.897011 c -2.145448,2.095451 -2.81349,6.919889 -2.81349,8.545707 l 3.671176,-0.563176 c 0,0 0.510859,-3.202807 1.563488,-4.311363 1.536523,-1.61816 6.166827,-2.604667 6.166827,-2.604667 v -3.671167 c 0,0 -6.447948,0.514486 -8.588001,2.604666 z"
       style="fill:#a119df;stroke:#212532;stroke-width:0.624182;stroke-opacity:0.995995;fill-opacity:1"
       id="path13"
       sodipodi:nodetypes="accacca" />
    <path
       d="m 37.755952,4.0476951 c -0.102469,3.1571059 -2.819265,15.4249599 2.176132,19.7979809 2.426239,2.123954 9.671093,-0.224355 9.671093,-0.224355 v -3.671174 c 0,0 -5.533382,2.447377 -7.434048,0.833319 C 38.039348,17.276428 41.338898,4.5507703 41.338898,4.5507703 Z"
       style="fill:#a119df;stroke:#212532;stroke-width:0.624182;stroke-opacity:0.995995;fill-opacity:1"
       id="path12"
       sodipodi:nodetypes="caccacc" />
    <path
       d="m 3.6885606,37.25309 v 3.671173 c 0,0 8.0002124,-3.604862 11.1936424,-1.602535 3.070467,1.925228 3.301223,10.359072 3.301223,10.359072 L 21.8546,49.73969 C 21.505391,47.375874 20.820676,38.621111 16.67845,36.035161 12.989368,33.732104 3.6885606,37.25309 3.6885606,37.25309 Z"
       style="fill:#a119df;stroke:#212532;stroke-width:0.624182;stroke-opacity:0.995995;fill-opacity:1"
       id="path14"
       sodipodi:nodetypes="ccaccac" />
    <path
       d="m 18.183426,3.8585075 c 0,0 5.268809,15.6452025 0.667289,20.8652115 -3.3569,3.808101 -15.1624067,1.426563 -15.1624067,1.426563 v 3.671175 C 13.314428,31.74655 18.730152,30.67927 22.68603,25.531732 27.102518,19.78483 21.8546,3.8038966 21.8546,3.8038966 Z"
       style="fill:#a119df;fill-opacity:1;stroke:#212532;stroke-width:0.624182;stroke-opacity:0.995995"
       id="path5"
       sodipodi:nodetypes="caccacc" />
    <path
       d="m 3.8775891,19.399953 v 3.671174 c 6.7759499,-1.533228 9.8561949,-1.852614 12.8863679,-3.091949 1.906345,-0.779692 1.005281,-4.511421 -1.586429,-3.875949 -3.810794,0.934383 -11.2999389,3.296724 -11.2999389,3.296724 z"
       style="fill:#a119df;stroke:#212532;stroke-width:0.624182;stroke-opacity:0.995995;fill-opacity:1"
       id="path6"
       sodipodi:nodetypes="ccssc" />
    <path
       d="m 28.743281,20.773827 c -1.663708,-0.06422 -3.00789,0.275363 -3.554541,1.222653 -1.457743,2.526105 3.306985,8.417651 7.04473,10.66925 2.822149,1.700049 4.252044,0.83912 5.411846,-0.771397 1.618686,0.589922 3.470987,1.197819 4.787649,1.430182 2.36262,0.416952 7.195148,0.170527 7.195148,0.170527 v -3.663131 c 0,0 -4.224374,0.284383 -6.292639,-0.06676 -1.057613,-0.179563 -2.460195,-0.607004 -3.808723,-1.074647 0.893248,-1.835398 0.971343,-3.378234 -2.013354,-5.174554 -2.336643,-1.406293 -5.997271,-2.635069 -8.770116,-2.742122 z"
       style="fill:#a119df;stroke:#212532;stroke-width:0.624182;stroke-opacity:0.995995;fill-opacity:1"
       id="path18" />
    <path
       style="fill:#d696f4;fill-opacity:1;stroke:#000000;stroke-width:0.478425;stroke-dasharray:none;stroke-opacity:1"
       id="path21-9"
       sodipodi:type="arc"
       sodipodi:cx="35.393387"
       sodipodi:cy="24.556595"
       sodipodi:rx="1.8803049"
       sodipodi:ry="1.8803049"
       sodipodi:start="6.2613533"
       sodipodi:end="6.2601406"
       sodipodi:open="true"
       sodipodi:arc-type="arc"
       d="m 37.273244,24.515547 a 1.8803049,1.8803049 0 0 1 -1.83824,1.920892 1.8803049,1.8803049 0 0 1 -1.921449,-1.837657 1.8803049,1.8803049 0 0 1 1.837075,-1.922006 1.8803049,1.8803049 0 0 1 1.922563,1.836492" />
    <path
       sodipodi:type="spiral"
       style="fill:none;fill-rule:evenodd;stroke:#000000;stroke-width:0.165;stroke-dasharray:none"
       id="path22-1"
       sodipodi:cx="19.661737"
       sodipodi:cy="17.758387"
       sodipodi:expansion="1"
       sodipodi:revolution="2.7902846"
       sodipodi:radius="1.1345215"
       sodipodi:argument="-16.59215"
       sodipodi:t0="0.21885763"
       d="m 19.905624,17.711787 c 0.07361,0.154843 -0.0277,0.331665 -0.17821,0.390329 -0.210189,0.08192 -0.4389,-0.05434 -0.509249,-0.258976 -0.09112,-0.265044 0.0809,-0.546612 0.339742,-0.628169 0.319704,-0.100732 0.654577,0.107395 0.747089,0.420508 0.110582,0.374268 -0.133861,0.762693 -0.501274,0.86601 -0.428778,0.120573 -0.870905,-0.160307 -0.98493,-0.582041 -0.130658,-0.483256 0.186737,-0.979185 0.662807,-1.10385 0.537713,-0.140807 1.087512,0.213156 1.22277,0.743573 0.104228,0.408732 -0.04899,0.848661 -0.373253,1.115224"
       transform="matrix(1.5894584,0,0,1.5894584,4.1220653,-3.519618)" />
    <path
       d="m 37.208454,31.945714 a 10.954061,5.3062793 37.49729 0 0 -5.009406,-5.077909 10.954061,5.3062793 37.49729 0 0 -6.90138,-3.136748 c 0.590271,2.873956 4.231836,6.991473 7.149423,8.725483 2.461531,1.462962 3.770377,0.850125 4.761363,-0.510826 z"
       style="fill:#540f75;fill-opacity:1;stroke:#000000;stroke-width:0.249777;stroke-opacity:0"
       id="path24" />
    <path
       style="fill:#d696f4;fill-opacity:1;stroke:#000000;stroke-width:0.478425;stroke-dasharray:none;stroke-opacity:1"
       id="path21-9-3"
       sodipodi:type="arc"
       sodipodi:cx="32.702324"
       sodipodi:cy="28.60334"
       sodipodi:rx="1.8803049"
       sodipodi:ry="1.8803049"
       sodipodi:start="6.2613533"
       sodipodi:end="6.2601406"
       sodipodi:open="true"
       sodipodi:arc-type="arc"
       d="m 34.582181,28.562293 a 1.8803049,1.8803049 0 0 1 -1.83824,1.920891 1.8803049,1.8803049 0 0 1 -1.921449,-1.837656 1.8803049,1.8803049 0 0 1 1.837075,-1.922007 1.8803049,1.8803049 0 0 1 1.922563,1.836492" />
    <path
       sodipodi:type="spiral"
       style="fill:#d696f4;fill-rule:evenodd;stroke:#000000;stroke-width:0.165;stroke-dasharray:none;fill-opacity:1"
       id="path22-1-9"
       sodipodi:cx="19.661737"
       sodipodi:cy="17.758387"
       sodipodi:expansion="1"
       sodipodi:revolution="2.7902846"
       sodipodi:radius="1.1345215"
       sodipodi:argument="-16.59215"
       sodipodi:t0="0.21885763"
       d="m 19.905624,17.711787 c 0.07361,0.154843 -0.0277,0.331665 -0.17821,0.390329 -0.210189,0.08192 -0.4389,-0.05434 -0.509249,-0.258976 -0.09112,-0.265044 0.0809,-0.546612 0.339742,-0.628169 0.319704,-0.100732 0.654577,0.107395 0.747089,0.420508 0.110582,0.374268 -0.133861,0.762693 -0.501274,0.86601 -0.428778,0.120573 -0.870905,-0.160307 -0.98493,-0.582041 -0.130658,-0.483256 0.186737,-0.979185 0.662807,-1.10385 0.537713,-0.140807 1.087512,0.213156 1.22277,0.743573 0.104228,0.408732 -0.04899,0.848661 -0.373253,1.115224"
       transform="matrix(1.5894584,0,0,1.5894584,1.4310001,0.52712584)" />
  </g>
</svg>
