<?xml version="1.0" encoding="UTF-8" standalone="no"?>
<!-- Created with Inkscape (http://www.inkscape.org/) -->

<svg
   width="200"
   height="200.00003"
   viewBox="0 0 52.916666 52.916674"
   version="1.1"
   id="svg1"
   inkscape:version="1.4.2 (f4327f4, 2025-05-13)"
   sodipodi:docname="FruitRelocator2.svg"
   xmlns:inkscape="http://www.inkscape.org/namespaces/inkscape"
   xmlns:sodipodi="http://sodipodi.sourceforge.net/DTD/sodipodi-0.dtd"
   xmlns="http://www.w3.org/2000/svg"
   xmlns:svg="http://www.w3.org/2000/svg">
  <sodipodi:namedview
     id="namedview1"
     pagecolor="#ffffff"
     bordercolor="#000000"
     borderopacity="0.25"
     inkscape:showpageshadow="2"
     inkscape:pageopacity="0.0"
     inkscape:pagecheckerboard="0"
     inkscape:deskcolor="#d1d1d1"
     inkscape:document-units="mm"
     inkscape:zoom="4.543042"
     inkscape:cx="84.744979"
     inkscape:cy="37.309803"
     inkscape:window-width="3840"
     inkscape:window-height="2054"
     inkscape:window-x="-11"
     inkscape:window-y="-11"
     inkscape:window-maximized="1"
     inkscape:current-layer="layer1" />
  <defs
     id="defs1">
    <inkscape:path-effect
       effect="spiro"
       id="path-effect9"
       is_visible="true"
       lpeversion="1" />
    <inkscape:path-effect
       effect="spiro"
       id="path-effect8"
       is_visible="true"
       lpeversion="1" />
    <inkscape:path-effect
       effect="mirror_symmetry"
       start_point="17.255329,9.2448751"
       end_point="17.255329,29.300879"
       center_point="17.255329,19.272877"
       id="path-effect5"
       is_visible="true"
       lpeversion="1.2"
       lpesatellites=""
       mode="free"
       discard_orig_path="false"
       fuse_paths="true"
       oposite_fuse="false"
       split_items="false"
       split_open="false"
       link_styles="false" />
    <inkscape:path-effect
       effect="mirror_symmetry"
       start_point="27.030316,8.4102839"
       end_point="27.030316,28.182973"
       center_point="27.030316,18.296628"
       id="path-effect3"
       is_visible="true"
       lpeversion="1.2"
       lpesatellites=""
       mode="free"
       discard_orig_path="false"
       fuse_paths="false"
       oposite_fuse="false"
       split_items="false"
       split_open="false"
       link_styles="false" />
    <inkscape:path-effect
       effect="spiro"
       id="path-effect8-8"
       is_visible="true"
       lpeversion="1" />
    <inkscape:path-effect
       effect="spiro"
       id="path-effect8-0"
       is_visible="true"
       lpeversion="1" />
    <inkscape:path-effect
       effect="spiro"
       id="path-effect8-0-9"
       is_visible="true"
       lpeversion="1" />
    <inkscape:path-effect
       effect="spiro"
       id="path-effect8-8-6"
       is_visible="true"
       lpeversion="1" />
    <inkscape:path-effect
       effect="spiro"
       id="path-effect8-3"
       is_visible="true"
       lpeversion="1" />
  </defs>
  <g
     inkscape:label="Ebene 1"
     inkscape:groupmode="layer"
     id="layer1"
     transform="translate(-0.20000279,-0.20000285)">
    <path
       id="path8"
       style="fill:#d97a7a;stroke:#322d21;stroke-width:1.00684;stroke-linejoin:round;stroke-miterlimit:8.2;stroke-opacity:0.995995"
       d="m 47.104461,40.517412 c -1.723377,4.837359 -7.864625,7.099832 -13.716859,5.053375 -5.852235,-2.046452 -9.199334,-7.626885 -7.475955,-12.464241 1.34086,-3.763666 5.847743,-5.494621 9.636512,-3.723613 1.080858,0.50523 2.468497,2.402867 2.468497,2.402867 0,0 2.335655,-0.597826 3.82592,-0.246019 4.585843,1.082579 6.666682,5.034495 5.261885,8.977631 z"
       sodipodi:nodetypes="sssscss" />
    <path
       style="fill:#d97a7a;fill-opacity:0;stroke:#322d21;stroke-width:0.921033;stroke-linejoin:round;stroke-miterlimit:8.2;stroke-opacity:0.995995"
       d="m 38.179549,31.501404 c 0,0 0.295411,-0.478194 0.437277,-2.034784 0.141881,-1.556588 -1.058018,-2.267587 -1.058018,-2.267587"
       id="path9"
       sodipodi:nodetypes="czc" />
    <path
       id="path8-0"
       style="fill:#d97a7a;fill-opacity:0.525739;stroke:#322d21;stroke-width:0.625046;stroke-linejoin:round;stroke-miterlimit:8.2;stroke-dasharray:2.50018, 2.50018;stroke-dashoffset:0;stroke-opacity:1"
       d="m 7.6538943,16.033849 c 0.9119506,2.887467 4.8752927,4.529838 8.8523717,3.668338 3.977082,-0.861498 6.461859,-3.900632 5.549906,-6.7881 -0.709538,-2.246567 -3.614755,-3.4926164 -6.210797,-2.677278 -0.740599,0.232597 -1.750918,1.252415 -1.750918,1.252415 0,0 -1.519864,-0.472974 -2.524554,-0.351365 -3.0916322,0.374222 -4.6593783,2.542295 -3.9160087,4.89599 z"
       sodipodi:nodetypes="sssscss" />
    <path
       style="fill:#d97a7a;fill-opacity:0;stroke:#322d21;stroke-width:0.571067;stroke-linejoin:round;stroke-miterlimit:8.2;stroke-dasharray:none;stroke-opacity:1"
       d="m 14.000024,11.316096 c 0,0 -0.173045,-0.29228 -0.192918,-1.198845 -0.01988,-0.9065662 0.809435,-1.2514675 0.809435,-1.2514675"
       id="path9-7"
       sodipodi:nodetypes="czc" />
    <path
       d="m 32.133798,20.088932 c -0.04799,-0.0487 -0.09582,-0.07937 -0.142596,-0.08914 -0.240782,-0.05053 -0.863513,0.363224 -1.592751,0.972486 0,0 -1.153393,-1.188894 -2.146775,-1.683593 -1.556793,-0.775267 -5.586406,-1.125833 -5.586406,-1.125833 l -0.07716,1.452945 c 0,0 2.602989,0.9779 3.776056,1.758182 0.874106,0.581423 1.66682,1.895265 1.66682,1.895265 l -3.66e-4,3.66e-4 c -0.66579,0.74726 -1.129713,1.396252 -1.085135,1.64846 0.133569,0.755653 5.528961,1.887846 6.143185,1.289141 0.575801,-0.56132 -0.235097,-5.387809 -0.954874,-6.118278 z"
       style="fill:#8d5050;stroke:#322d21;stroke-width:0.768942;stroke-linejoin:round;stroke-miterlimit:8.2;stroke-dasharray:none"
       id="path21"
       sodipodi:nodetypes="sccsccsccssss" />
  </g>
</svg>
