<?xml version="1.0" encoding="UTF-8" standalone="no"?>
<!-- Created with Inkscape (http://www.inkscape.org/) -->

<svg
   width="200"
   height="201.17665"
   viewBox="0 0 52.916666 53.227988"
   version="1.1"
   id="svg1"
   inkscape:version="1.4.2 (f4327f4, 2025-05-13)"
   sodipodi:docname="FruitArea2.svg"
   xmlns:inkscape="http://www.inkscape.org/namespaces/inkscape"
   xmlns:sodipodi="http://sodipodi.sourceforge.net/DTD/sodipodi-0.dtd"
   xmlns="http://www.w3.org/2000/svg"
   xmlns:svg="http://www.w3.org/2000/svg">
  <sodipodi:namedview
     id="namedview1"
     pagecolor="#ffffff"
     bordercolor="#000000"
     borderopacity="0.25"
     inkscape:showpageshadow="2"
     inkscape:pageopacity="0.0"
     inkscape:pagecheckerboard="0"
     inkscape:deskcolor="#d1d1d1"
     inkscape:document-units="mm"
     inkscape:zoom="4.543042"
     inkscape:cx="22.89215"
     inkscape:cy="89.477491"
     inkscape:window-width="3840"
     inkscape:window-height="2054"
     inkscape:window-x="-11"
     inkscape:window-y="-11"
     inkscape:window-maximized="1"
     inkscape:current-layer="layer1" />
  <defs
     id="defs1">
    <inkscape:path-effect
       effect="spiro"
       id="path-effect8"
       is_visible="true"
       lpeversion="1" />
    <inkscape:path-effect
       effect="mirror_symmetry"
       start_point="17.255329,9.2448751"
       end_point="17.255329,29.300879"
       center_point="17.255329,19.272877"
       id="path-effect5"
       is_visible="true"
       lpeversion="1.2"
       lpesatellites=""
       mode="free"
       discard_orig_path="false"
       fuse_paths="true"
       oposite_fuse="false"
       split_items="false"
       split_open="false"
       link_styles="false" />
    <inkscape:path-effect
       effect="mirror_symmetry"
       start_point="27.030316,8.4102839"
       end_point="27.030316,28.182973"
       center_point="27.030316,18.296628"
       id="path-effect3"
       is_visible="true"
       lpeversion="1.2"
       lpesatellites=""
       mode="free"
       discard_orig_path="false"
       fuse_paths="false"
       oposite_fuse="false"
       split_items="false"
       split_open="false"
       link_styles="false" />
    <inkscape:path-effect
       effect="spiro"
       id="path-effect8-8"
       is_visible="true"
       lpeversion="1" />
    <inkscape:path-effect
       effect="spiro"
       id="path-effect8-0"
       is_visible="true"
       lpeversion="1" />
    <inkscape:path-effect
       effect="spiro"
       id="path-effect8-0-9"
       is_visible="true"
       lpeversion="1" />
    <inkscape:path-effect
       effect="spiro"
       id="path-effect8-8-6"
       is_visible="true"
       lpeversion="1" />
    <inkscape:path-effect
       effect="spiro"
       id="path-effect8-3"
       is_visible="true"
       lpeversion="1" />
  </defs>
  <g
     inkscape:label="Ebene 1"
     inkscape:groupmode="layer"
     id="layer1"
     transform="translate(-0.20000279)">
    <rect
       style="fill:#cc9b6a;fill-opacity:1;stroke:#1f1e20;stroke-width:2.4;stroke-linecap:round;stroke-linejoin:round;stroke-opacity:0;paint-order:fill markers stroke"
       id="rect2"
       width="23.609426"
       height="23.609426"
       x="14.326138"
       y="15.186542"
       ry="0.62007707" />
    <rect
       style="fill:#000000;fill-opacity:0;stroke:#ae865e;stroke-width:2.4;stroke-linecap:round;stroke-linejoin:round;stroke-opacity:0.63990998;paint-order:fill markers stroke"
       id="rect2-8"
       width="28.967447"
       height="28.967447"
       x="11.647129"
       y="12.376616"
       ry="0.76079988" />
    <rect
       style="fill:#000000;fill-opacity:0;stroke:#b08960;stroke-width:2.39999;stroke-linecap:round;stroke-linejoin:round;stroke-opacity:0.46961701;paint-order:fill markers stroke"
       id="rect2-8-1"
       width="36.538551"
       height="36.538551"
       x="7.8615756"
       y="8.5910654"
       ry="0.959647" />
    <path
       d="M 3.7053425,45.400693 V 8.6308445 C 3.5711515,8.8790672 3.5058715,9.1257371 3.5058715,9.3693008 V 44.662237 c 0,0.243563 0.06528,0.490233 0.199471,0.738456 z"
       style="baseline-shift:baseline;display:inline;overflow:visible;vector-effect:none;fill:#ebb680;fill-opacity:0.216804;stroke-linecap:round;stroke-linejoin:round;paint-order:fill markers stroke;enable-background:accumulate;stop-color:#000000"
       id="path53" />
    <path
       d="M 4.9047525,46.605787 V 7.4262669 c -0.07055,0.047899 -0.138233,0.095758 -0.203605,0.1441772 -0.476406,0.3528597 -0.805374,0.7081448 -0.995805,1.0604004 V 45.400693 c 0.190431,0.352255 0.519399,0.707541 0.995805,1.0604 0.06537,0.04842 0.133055,0.09677 0.203605,0.144694 z"
       style="baseline-shift:baseline;display:inline;overflow:visible;vector-effect:none;fill:#ebb680;fill-opacity:0.216804;stroke-linecap:round;stroke-linejoin:round;paint-order:fill markers stroke;enable-background:accumulate;stop-color:#000000"
       id="path52" />
    <path
       d="M 37.359618,49.377711 H 14.902074 c 1.667342,0.170513 3.452107,0.263033 5.30872,0.263033 h 11.839584 c 1.85662,0 3.6419,-0.09252 5.30924,-0.263033 z"
       style="baseline-shift:baseline;display:inline;overflow:visible;vector-effect:none;fill:#ebb680;fill-opacity:0.216804;stroke-linecap:round;stroke-linejoin:round;paint-order:fill markers stroke;enable-background:accumulate;stop-color:#000000"
       id="path51" />
    <path
       d="M 43.766458,48.177784 H 8.4952305 c 1.7892215,0.5358 3.9726705,0.950992 6.4068435,1.199927 h 22.457544 c 2.43417,-0.248935 4.61762,-0.664127 6.40684,-1.199927 z"
       style="baseline-shift:baseline;display:inline;overflow:visible;vector-effect:none;fill:#ebb680;fill-opacity:0.216804;stroke-linecap:round;stroke-linejoin:round;paint-order:fill markers stroke;enable-background:accumulate;stop-color:#000000"
       id="path50" />
    <path
       d="M 48.397188,8.3802138 V 45.651323 c 0.24142,-0.332616 0.35863,-0.663705 0.35863,-0.989086 V 9.3693008 c 0,-0.3253814 -0.11721,-0.656471 -0.35863,-0.989087 z"
       style="baseline-shift:baseline;display:inline;overflow:visible;vector-effect:none;fill:#ebb680;fill-opacity:0.216804;stroke-linecap:round;stroke-linejoin:round;paint-order:fill markers stroke;enable-background:accumulate;stop-color:#000000"
       id="path49" />
    <path
       d="M 47.197778,7.3213637 V 46.710174 c 0.12848,-0.08222 0.24967,-0.165314 0.36277,-0.249081 0.36363,-0.269334 0.64089,-0.540077 0.83664,-0.80977 V 8.3802138 c -0.19575,-0.2696921 -0.47301,-0.5404358 -0.83664,-0.8097697 -0.1131,-0.083767 -0.23429,-0.166928 -0.36277,-0.2490804 z"
       style="baseline-shift:baseline;display:inline;overflow:visible;vector-effect:none;fill:#ebb680;fill-opacity:0.216804;stroke-linecap:round;stroke-linejoin:round;paint-order:fill markers stroke;enable-background:accumulate;stop-color:#000000"
       id="path48" />
    <path
       d="m 8.3980795,5.8847589 c -0.05102,0.015527 -0.101574,0.031303 -0.151929,0.047026 -1.394945,0.4355546 -2.535516,0.9473317 -3.341398,1.4944824 V 46.605787 c 0.805882,0.547417 1.946453,1.060478 3.341398,1.496033 0.08216,0.02565 0.165173,0.05084 0.24908,0.07596 H 43.766458 c 0.0839,-0.02513 0.16693,-0.05031 0.24908,-0.07596 1.3058,-0.407719 2.38817,-0.883484 3.18224,-1.391646 V 7.3213637 c -0.79407,-0.5077597 -1.87644,-0.981861 -3.18224,-1.3895792 -0.0504,-0.015723 -0.10091,-0.031499 -0.15192,-0.047026 z"
       style="baseline-shift:baseline;display:inline;overflow:visible;vector-effect:none;fill-opacity:0;stroke-linecap:round;stroke-linejoin:round;paint-order:fill markers stroke;enable-background:accumulate;stop-color:#000000"
       id="path47" />
    <path
       d="m 4.9047525,7.0144057 v 0.4118612 c 0.805882,-0.5471507 1.946453,-1.0589278 3.341398,-1.4944824 0.05036,-0.015723 0.100914,-0.031499 0.151929,-0.047026 H 7.3004715 C 6.3562395,6.225825 5.5489965,6.6053407 4.9047525,7.0144057 Z"
       style="baseline-shift:baseline;display:inline;overflow:visible;vector-effect:none;fill-opacity:0;stroke-linecap:round;stroke-linejoin:round;paint-order:fill markers stroke;enable-background:accumulate;stop-color:#000000"
       id="path46" />
    <path
       d="m 3.7053425,8.02468 v 0.6061645 c 0.190431,-0.3522556 0.519399,-0.7075407 0.995805,-1.0604004 0.06537,-0.048419 0.133055,-0.096278 0.203605,-0.1441772 V 7.0144057 C 4.4010585,7.3342276 3.9971835,7.6721854 3.7053425,8.02468 Z"
       style="baseline-shift:baseline;display:inline;overflow:visible;vector-effect:none;fill:#ebb680;fill-opacity:0.216804;stroke-linecap:round;stroke-linejoin:round;paint-order:fill markers stroke;enable-background:accumulate;stop-color:#000000"
       id="path45" />
    <path
       d="M 3.7053425,46.007374 V 45.400693 C 3.5711515,45.15247 3.5058715,44.9058 3.5058715,44.662237 V 9.3693008 c 0,-0.2435637 0.06528,-0.4902336 0.199471,-0.7384563 V 8.02468 c -0.355514,0.4294009 -0.54467,0.8800951 -0.54467,1.3451375 V 44.662237 c 0,0.465042 0.189156,0.915736 0.54467,1.345137 z"
       style="baseline-shift:baseline;display:inline;overflow:visible;vector-effect:none;fill:#ebb680;fill-opacity:0.216804;stroke-linecap:round;stroke-linejoin:round;paint-order:fill markers stroke;enable-background:accumulate;stop-color:#000000"
       id="path44" />
    <path
       d="m 4.9047525,47.017648 v -0.411861 c -0.07055,-0.04792 -0.138233,-0.09628 -0.203605,-0.144694 -0.476406,-0.352859 -0.805374,-0.708145 -0.995805,-1.0604 v 0.606681 c 0.291841,0.352495 0.695716,0.690453 1.19941,1.010274 z"
       style="baseline-shift:baseline;display:inline;overflow:visible;vector-effect:none;fill:#ebb680;fill-opacity:0.216804;stroke-linecap:round;stroke-linejoin:round;paint-order:fill markers stroke;enable-background:accumulate;stop-color:#000000"
       id="path43" />
    <path
       d="m 7.3872885,48.177784 h 1.107942 c -0.08391,-0.02513 -0.166922,-0.05031 -0.24908,-0.07596 -1.394945,-0.435555 -2.535516,-0.948616 -3.341398,-1.496033 v 0.411861 c 0.663833,0.421503 1.501038,0.811093 2.482536,1.160136 z"
       style="baseline-shift:baseline;display:inline;overflow:visible;vector-effect:none;fill-opacity:0;stroke-linecap:round;stroke-linejoin:round;paint-order:fill markers stroke;enable-background:accumulate;stop-color:#000000"
       id="path42" />
    <path
       d="m 12.266576,49.377711 h 2.635498 C 12.467901,49.128776 10.284452,48.713584 8.4952305,48.177784 h -1.107942 c 1.37055,0.487399 3.0229925,0.895553 4.8792875,1.199927 z"
       style="baseline-shift:baseline;display:inline;overflow:visible;vector-effect:none;fill:#ebb680;fill-opacity:0.216804;stroke-linecap:round;stroke-linejoin:round;paint-order:fill markers stroke;enable-background:accumulate;stop-color:#000000"
       id="path41" />
    <path
       d="m 39.995118,49.377711 h -2.6355 c -1.66734,0.170513 -3.45262,0.263033 -5.30924,0.263033 H 20.210794 c -1.856613,0 -3.641378,-0.09252 -5.30872,-0.263033 h -2.635498 c 2.370045,0.388613 5.072461,0.608232 7.945252,0.608232 h 11.83804 c 2.87279,0 5.5752,-0.219619 7.94525,-0.608232 z"
       style="baseline-shift:baseline;display:inline;overflow:visible;vector-effect:none;fill:#ebb680;fill-opacity:0.216804;stroke-linecap:round;stroke-linejoin:round;paint-order:fill markers stroke;enable-background:accumulate;stop-color:#000000"
       id="path40" />
    <path
       d="m 44.874408,48.177784 h -1.10795 c -1.78922,0.5358 -3.97267,0.950992 -6.40684,1.199927 h 2.6355 c 1.85629,-0.304374 3.50874,-0.712528 4.87929,-1.199927 z"
       style="baseline-shift:baseline;display:inline;overflow:visible;vector-effect:none;fill:#ebb680;fill-opacity:0.216804;stroke-linecap:round;stroke-linejoin:round;paint-order:fill markers stroke;enable-background:accumulate;stop-color:#000000"
       id="path39" />
    <path
       d="m 47.197778,47.115834 v -0.40566 c -0.79407,0.508162 -1.87644,0.983927 -3.18224,1.391646 -0.0822,0.02565 -0.16517,0.05084 -0.24908,0.07596 h 1.10795 c 0.90476,-0.321754 1.68664,-0.67803 2.32337,-1.06195 z"
       style="baseline-shift:baseline;display:inline;overflow:visible;vector-effect:none;fill-opacity:0;stroke-linecap:round;stroke-linejoin:round;paint-order:fill markers stroke;enable-background:accumulate;stop-color:#000000"
       id="path38" />
    <path
       d="m 48.397188,46.186175 v -0.534852 c -0.19575,0.269693 -0.47301,0.540436 -0.83664,0.80977 -0.1131,0.08377 -0.23429,0.166863 -0.36277,0.249081 v 0.40566 c 0.4888,-0.294729 0.89191,-0.605583 1.19941,-0.929659 z"
       style="baseline-shift:baseline;display:inline;overflow:visible;vector-effect:none;fill:#ebb680;fill-opacity:0.216804;stroke-linecap:round;stroke-linejoin:round;paint-order:fill markers stroke;enable-background:accumulate;stop-color:#000000"
       id="path37" />
    <path
       d="m 48.397188,7.8458795 v 0.5343343 c 0.24142,0.332616 0.35863,0.6637056 0.35863,0.989087 V 44.662237 c 0,0.325381 -0.11721,0.65647 -0.35863,0.989086 v 0.534852 c 0.45781,-0.482497 0.70383,-0.993851 0.70383,-1.523938 V 9.3698175 c 0,-0.5300875 -0.24602,-1.0414413 -0.70383,-1.523938 z"
       style="baseline-shift:baseline;display:inline;overflow:visible;vector-effect:none;fill:#ebb680;fill-opacity:0.216804;stroke-linecap:round;stroke-linejoin:round;paint-order:fill markers stroke;enable-background:accumulate;stop-color:#000000"
       id="path36" />
    <path
       d="m 47.197778,6.9162205 v 0.4051432 c 0.12848,0.082152 0.24967,0.1653132 0.36277,0.2490804 0.36363,0.2693339 0.64089,0.5400776 0.83664,0.8097697 V 7.8458795 c -0.3075,-0.3240768 -0.71061,-0.6349301 -1.19941,-0.929659 z"
       style="baseline-shift:baseline;display:inline;overflow:visible;vector-effect:none;fill:#ebb680;fill-opacity:0.216804;stroke-linecap:round;stroke-linejoin:round;paint-order:fill markers stroke;enable-background:accumulate;stop-color:#000000"
       id="path35" />
    <path
       d="m 44.961218,5.8847589 h -1.0976 c 0.051,0.015527 0.10157,0.031303 0.15192,0.047026 1.3058,0.4077182 2.38817,0.8818195 3.18224,1.3895792 V 6.9162205 c -0.61635,-0.3716308 -1.36839,-0.7178707 -2.23656,-1.0314616 z"
       style="baseline-shift:baseline;display:inline;overflow:visible;vector-effect:none;fill-opacity:0;stroke-linecap:round;stroke-linejoin:round;paint-order:fill markers stroke;enable-background:accumulate;stop-color:#000000"
       id="path34" />
    <path
       d="m 37.654178,4.6858657 c 2.35964,0.2569942 4.47426,0.6707698 6.20944,1.1988932 h 1.0976 c -1.34088,-0.4843407 -2.95821,-0.8915237 -4.77645,-1.1988932 z"
       style="baseline-shift:baseline;display:inline;overflow:visible;vector-effect:none;fill:#ebb680;fill-opacity:0.216804;stroke-linecap:round;stroke-linejoin:round;paint-order:fill markers stroke;enable-background:accumulate;stop-color:#000000"
       id="path33" />
    <path
       d="M 14.607002,4.6858657 C 12.247362,4.9428599 10.133251,5.3566355 8.3980795,5.8847589 H 43.863618 c -1.73518,-0.5281234 -3.8498,-0.941899 -6.20944,-1.1988932 z"
       style="baseline-shift:baseline;display:inline;overflow:visible;vector-effect:none;fill:#ebb680;fill-opacity:0.216804;stroke-linecap:round;stroke-linejoin:round;paint-order:fill markers stroke;enable-background:accumulate;stop-color:#000000"
       id="path32" />
    <path
       d="m 14.607002,4.6858657 h 23.047176 c -1.75105,-0.1907112 -3.63736,-0.2950724 -5.6038,-0.2950724 H 20.210794 c -1.966432,0 -3.852742,0.1043612 -5.603792,0.2950724 z"
       style="baseline-shift:baseline;display:inline;overflow:visible;vector-effect:none;fill:#ebb680;fill-opacity:0.216804;stroke-linecap:round;stroke-linejoin:round;paint-order:fill markers stroke;enable-background:accumulate;stop-color:#000000"
       id="path31" />
    <path
       d="M 12.076924,4.6858657 C 10.258689,4.9932352 8.6413545,5.4004182 7.3004715,5.8847589 h 1.097608 C 10.133251,5.3566355 12.247362,4.9428599 14.607002,4.6858657 Z"
       style="baseline-shift:baseline;display:inline;overflow:visible;vector-effect:none;fill:#ebb680;fill-opacity:0.216804;stroke-linecap:round;stroke-linejoin:round;paint-order:fill markers stroke;enable-background:accumulate;stop-color:#000000"
       id="path30" />
    <path
       d="m 12.076924,4.6858657 h 2.530078 c 1.75105,-0.1907112 3.63736,-0.2950724 5.603792,-0.2950724 h 11.839584 c 1.96644,0 3.85275,0.1043612 5.6038,0.2950724 h 2.53059 c -2.41509,-0.4082673 -5.18521,-0.6397542 -8.1349,-0.6397542 h -11.83804 c -2.949689,0 -5.719811,0.2314869 -8.134904,0.6397542 z"
       style="baseline-shift:baseline;display:inline;overflow:visible;vector-effect:none;fill:#ebb680;fill-opacity:0.216804;stroke-linecap:round;stroke-linejoin:round;paint-order:fill markers stroke;enable-background:accumulate;stop-color:#000000"
       id="path29" />
    <path
       d="m 6.3516925,5.8847589 h 0.948779 C 8.6413545,5.4004182 10.258689,4.9932352 12.076924,4.6858657 H 10.270316 C 9.4758245,4.8617755 8.7304795,5.0586602 8.0409945,5.2739435 7.4328035,5.4638441 6.8680505,5.6670836 6.3516925,5.8847589 Z"
       style="baseline-shift:baseline;display:inline;overflow:visible;vector-effect:none;fill:#ebb680;fill-opacity:0.216804;stroke-linecap:round;stroke-linejoin:round;paint-order:fill markers stroke;enable-background:accumulate;stop-color:#000000"
       id="path28" />
    <path
       d="m 4.9047525,6.6077122 v 0.4066935 c 0.644244,-0.4090646 1.451487,-0.7885803 2.395719,-1.1296468 h -0.948779 c -0.535929,0.2259255 -1.020046,0.4669509 -1.44694,0.7229533 z"
       style="baseline-shift:baseline;display:inline;overflow:visible;vector-effect:none;fill-opacity:0;stroke-linecap:round;stroke-linejoin:round;paint-order:fill markers stroke;enable-background:accumulate;stop-color:#000000"
       id="path27" />
    <path
       d="M 3.7053425,7.5146336 V 8.02468 c 0.291841,-0.3524946 0.695716,-0.6904524 1.19941,-1.0102743 V 6.6077122 c -0.2201,0.1319906 -0.424874,0.2682259 -0.613916,0.4082438 -0.215434,0.1595657 -0.411592,0.3258707 -0.585494,0.4986776 z"
       style="baseline-shift:baseline;display:inline;overflow:visible;vector-effect:none;fill:#ebb680;fill-opacity:0.216804;stroke-linecap:round;stroke-linejoin:round;paint-order:fill markers stroke;enable-background:accumulate;stop-color:#000000"
       id="path26" />
    <path
       d="m 3.7053425,46.516904 v -0.50953 c -0.355514,-0.429401 -0.54467,-0.880095 -0.54467,-1.345137 V 9.3698175 c 0,-0.4650424 0.189156,-0.9157366 0.54467,-1.3451375 V 7.5146336 C 3.1455095,8.0709393 2.8165075,8.693653 2.8165075,9.3693008 V 44.662237 c 0,0.675647 0.329002,1.298361 0.888835,1.854667 z"
       style="baseline-shift:baseline;display:inline;overflow:visible;vector-effect:none;fill:#ebb680;fill-opacity:0.216804;stroke-linecap:round;stroke-linejoin:round;paint-order:fill markers stroke;enable-background:accumulate;stop-color:#000000"
       id="path25" />
    <path
       d="m 4.9047525,47.424342 v -0.406694 c -0.503694,-0.319821 -0.907569,-0.657779 -1.19941,-1.010274 v 0.50953 c 0.173902,0.172807 0.37006,0.339629 0.585494,0.499194 0.189042,0.140018 0.393816,0.276119 0.613916,0.408244 z"
       style="baseline-shift:baseline;display:inline;overflow:visible;vector-effect:none;fill:#ebb680;fill-opacity:0.216804;stroke-linecap:round;stroke-linejoin:round;paint-order:fill markers stroke;enable-background:accumulate;stop-color:#000000"
       id="path24" />
    <path
       d="m 6.4230055,48.177784 h 0.964283 c -0.981498,-0.349043 -1.818703,-0.738633 -2.482536,-1.160136 v 0.406694 c 0.445785,0.267602 0.95382,0.518521 1.518253,0.753442 z"
       style="baseline-shift:baseline;display:inline;overflow:visible;vector-effect:none;fill-opacity:0;stroke-linecap:round;stroke-linejoin:round;paint-order:fill markers stroke;enable-background:accumulate;stop-color:#000000"
       id="path23" />
    <path
       d="m 10.408292,49.377711 h 1.858284 C 10.410281,49.073337 8.7578385,48.665183 7.3872885,48.177784 h -0.964283 c 0.49686,0.206796 1.03773,0.401215 1.617989,0.582394 0.72912,0.227658 1.521229,0.434213 2.3672975,0.617533 z"
       style="baseline-shift:baseline;display:inline;overflow:visible;vector-effect:none;fill:#ebb680;fill-opacity:0.216804;stroke-linecap:round;stroke-linejoin:round;paint-order:fill markers stroke;enable-background:accumulate;stop-color:#000000"
       id="path22" />
    <path
       d="m 41.853398,49.377711 h -1.85828 c -2.37005,0.388613 -5.07246,0.608232 -7.94525,0.608232 h -11.83804 c -2.872791,0 -5.575207,-0.219619 -7.945252,-0.608232 h -1.858284 c 2.785729,0.60359 6.157537,0.952397 9.802502,0.952397 h 11.839584 c 3.64497,0 7.01729,-0.348807 9.80302,-0.952397 z"
       style="baseline-shift:baseline;display:inline;overflow:visible;vector-effect:none;fill:#ebb680;fill-opacity:0.216804;stroke-linecap:round;stroke-linejoin:round;paint-order:fill markers stroke;enable-background:accumulate;stop-color:#000000"
       id="path21" />
    <path
       d="m 45.838168,48.177784 h -0.96376 c -1.37055,0.487399 -3.023,0.895553 -4.87929,1.199927 h 1.85828 c 0.84607,-0.18332 1.63818,-0.389875 2.3673,-0.617533 0.58026,-0.181179 1.12061,-0.375598 1.61747,-0.582394 z"
       style="baseline-shift:baseline;display:inline;overflow:visible;vector-effect:none;fill:#ebb680;fill-opacity:0.216804;stroke-linecap:round;stroke-linejoin:round;paint-order:fill markers stroke;enable-background:accumulate;stop-color:#000000"
       id="path20" />
    <path
       d="m 47.197778,47.517359 v -0.401525 c -0.63673,0.38392 -1.41861,0.740196 -2.32337,1.06195 h 0.96376 c 0.49857,-0.207508 0.95308,-0.427399 1.35961,-0.660425 z"
       style="baseline-shift:baseline;display:inline;overflow:visible;vector-effect:none;fill-opacity:0;stroke-linecap:round;stroke-linejoin:round;paint-order:fill markers stroke;enable-background:accumulate;stop-color:#000000"
       id="path19" />
    <path
       d="m 48.397188,46.667282 v -0.481107 c -0.3075,0.324076 -0.71061,0.63493 -1.19941,0.929659 v 0.401525 c 0.28094,-0.161035 0.53884,-0.328151 0.77256,-0.501261 0.15228,-0.112785 0.29489,-0.229356 0.42685,-0.348816 z"
       style="baseline-shift:baseline;display:inline;overflow:visible;vector-effect:none;fill:#ebb680;fill-opacity:0.216804;stroke-linecap:round;stroke-linejoin:round;paint-order:fill markers stroke;enable-background:accumulate;stop-color:#000000"
       id="path18" />
    <path
       d="m 48.397188,7.3642552 v 0.4816243 c 0.45781,0.4824967 0.70383,0.9938505 0.70383,1.523938 V 44.662237 c 0,0.530087 -0.24602,1.041441 -0.70383,1.523938 v 0.481107 c 0.65574,-0.593631 1.048,-1.267866 1.048,-2.005045 V 9.3693008 c 0,-0.7371792 -0.39226,-1.4114145 -1.048,-2.0050456 z"
       style="baseline-shift:baseline;display:inline;overflow:visible;vector-effect:none;fill:#ebb680;fill-opacity:0.216804;stroke-linecap:round;stroke-linejoin:round;paint-order:fill markers stroke;enable-background:accumulate;stop-color:#000000"
       id="path17" />
    <path
       d="m 47.197778,6.5152114 v 0.4010091 c 0.4888,0.2947289 0.89191,0.6055822 1.19941,0.929659 V 7.3642552 c -0.13196,-0.11946 -0.27457,-0.2355143 -0.42685,-0.3482992 -0.23372,-0.1731095 -0.49162,-0.3399012 -0.77256,-0.5007446 z"
       style="baseline-shift:baseline;display:inline;overflow:visible;vector-effect:none;fill:#ebb680;fill-opacity:0.216804;stroke-linecap:round;stroke-linejoin:round;paint-order:fill markers stroke;enable-background:accumulate;stop-color:#000000"
       id="path16" />
    <path
       d="m 45.909488,5.8847589 h -0.94827 c 0.86817,0.3135909 1.62021,0.6598308 2.23656,1.0314616 V 6.5152114 C 46.810748,6.2936293 46.380108,6.083155 45.909488,5.8847589 Z"
       style="baseline-shift:baseline;display:inline;overflow:visible;vector-effect:none;fill-opacity:0;stroke-linecap:round;stroke-linejoin:round;paint-order:fill markers stroke;enable-background:accumulate;stop-color:#000000"
       id="path15" />
    <path
       d="m 41.990858,4.6858657 h -1.80609 c 1.81824,0.3073695 3.43557,0.7145525 4.77645,1.1988932 h 0.94827 c -0.51636,-0.2176753 -1.0806,-0.4209148 -1.68879,-0.6108154 -0.68949,-0.2152833 -1.43535,-0.412168 -2.22984,-0.5880778 z"
       style="baseline-shift:baseline;display:inline;overflow:visible;vector-effect:none;fill:#ebb680;fill-opacity:0.216804;stroke-linecap:round;stroke-linejoin:round;paint-order:fill markers stroke;enable-background:accumulate;stop-color:#000000"
       id="path14" />
    <path
       d="m 20.210794,3.7014297 c -3.705143,0 -7.128524,0.3618362 -9.940478,0.984436 h 1.806608 c 2.415093,-0.4082673 5.185215,-0.6397542 8.134904,-0.6397542 h 11.83804 c 2.94969,0 5.71981,0.2314869 8.1349,0.6397542 h 1.80609 c -2.81195,-0.6225998 -6.23533,-0.984436 -9.94048,-0.984436 z"
       style="baseline-shift:baseline;display:inline;overflow:visible;vector-effect:none;fill:#ebb680;fill-opacity:0.216804;stroke-linecap:round;stroke-linejoin:round;paint-order:fill markers stroke;enable-background:accumulate;stop-color:#000000"
       id="path13" />
    <rect
       style="fill:#ebd2b9;fill-opacity:1;stroke:#533e2b;stroke-width:1.2;stroke-linecap:round;stroke-linejoin:round;stroke-dasharray:none;stroke-opacity:1;paint-order:fill markers stroke"
       id="rect2-82"
       width="23.609426"
       height="23.609426"
       x="14.326139"
       y="15.055626"
       ry="0.62007707" />
    <path
       id="path6-2"
       style="baseline-shift:baseline;display:inline;overflow:visible;vector-effect:none;fill:#2a1c0d;fill-opacity:1;stroke-linecap:round;stroke-linejoin:round;paint-order:fill markers stroke;enable-background:accumulate;stop-color:#000000"
       d="m 20.991468,3.6756314 c -0.665287,0 -1.321284,0.011696 -1.966288,0.034623 -0.680021,0.024172 -1.348032,0.060817 -2.000912,0.1090373 V 18.428219 34.199867 c 1.78e-4,1.10463 0.895765,1.999985 2.000395,1.999877 h 15.855365 c 1.10443,-1.78e-4 1.9997,-0.895449 1.99988,-1.999877 v -15.11329 c -1.8e-4,-1.104428 -0.89545,-1.9997 -1.99988,-1.999878 h -8.935891 c -1.104428,1.78e-4 -1.9997,0.89545 -1.999878,1.999878 v 2.80293 c -1.192699,0.324767 -1.99471,1.108075 -1.99471,2.874243 0,2.638286 1.789761,6.470923 3.997689,6.470923 2.20793,0 3.99769,-3.832637 3.99769,-6.470923 0,-1.768971 -0.80456,-2.551966 -2.0004,-2.875793 v -0.801502 h 4.9351 V 32.199989 H 21.024541 V 18.428219 3.6756314 Z" />
    <path
       id="path6"
       style="baseline-shift:baseline;display:inline;overflow:visible;vector-effect:none;fill:#a97035;stroke-linecap:round;stroke-linejoin:round;paint-order:fill markers stroke;enable-background:accumulate;stop-color:#000000"
       d="m 20.211828,4.3959609 c -0.665287,0 -1.321284,0.011696 -1.966288,0.034623 -0.680021,0.024172 -1.348032,0.060817 -2.000912,0.1090373 V 19.148548 34.920196 c 1.78e-4,1.10463 0.895765,1.999985 2.000395,1.999877 h 15.855365 c 1.10443,-1.78e-4 1.9997,-0.895449 1.99988,-1.999877 v -15.11329 c -1.8e-4,-1.104428 -0.89545,-1.9997 -1.99988,-1.999878 h -8.935891 c -1.104428,1.78e-4 -1.9997,0.89545 -1.999878,1.999878 v 2.80293 c -1.192699,0.324767 -1.99471,1.108075 -1.99471,2.874243 0,2.638286 1.789761,6.470923 3.997689,6.470923 2.20793,0 3.99769,-3.832637 3.99769,-6.470923 0,-1.768971 -0.80456,-2.551966 -2.0004,-2.875793 v -0.801502 h 4.9351 V 32.920318 H 20.244901 V 19.148548 4.3959609 Z" />
    <ellipse
       style="fill:#2a1c0d;fill-opacity:1;stroke:#a97035;stroke-width:0;stroke-linecap:round;stroke-linejoin:round;stroke-dasharray:none;stroke-opacity:1;paint-order:fill markers stroke"
       id="path7"
       cx="23.892757"
       cy="26.221046"
       rx="0.83718908"
       ry="0.9172681" />
    <ellipse
       style="fill:#2a1c0d;fill-opacity:1;stroke:#a97035;stroke-width:0;stroke-linecap:round;stroke-linejoin:round;stroke-dasharray:none;stroke-opacity:1;paint-order:fill markers stroke"
       id="path7-2"
       cx="26.317379"
       cy="26.192095"
       rx="0.83718908"
       ry="0.9172681" />
    <ellipse
       style="fill:#a2978c;fill-opacity:1;stroke:#a97035;stroke-width:0;stroke-linecap:round;stroke-linejoin:round;stroke-dasharray:none;stroke-opacity:1;paint-order:fill markers stroke"
       id="path8"
       cx="9.4575348"
       cy="34.120815"
       rx="0.26405731"
       ry="0.33487564"
       transform="rotate(-27.580576)" />
    <ellipse
       style="fill:#a2978c;fill-opacity:1;stroke:#a97035;stroke-width:0;stroke-linecap:round;stroke-linejoin:round;stroke-dasharray:none;stroke-opacity:1;paint-order:fill markers stroke"
       id="path8-6"
       cx="11.672752"
       cy="35.176739"
       rx="0.26405731"
       ry="0.33487564"
       transform="rotate(-27.580576)" />
  </g>
</svg>
