<?xml version="1.0" encoding="UTF-8" standalone="no"?>
<!-- Created with Inkscape (http://www.inkscape.org/) -->

<svg
   width="200"
   height="201.17665"
   viewBox="0 0 52.916666 53.227988"
   version="1.1"
   id="svg1"
   inkscape:version="1.4.2 (f4327f4, 2025-05-13)"
   sodipodi:docname="FruitMagnet2.svg"
   xmlns:inkscape="http://www.inkscape.org/namespaces/inkscape"
   xmlns:sodipodi="http://sodipodi.sourceforge.net/DTD/sodipodi-0.dtd"
   xmlns="http://www.w3.org/2000/svg"
   xmlns:svg="http://www.w3.org/2000/svg">
  <sodipodi:namedview
     id="namedview1"
     pagecolor="#ffffff"
     bordercolor="#000000"
     borderopacity="0.25"
     inkscape:showpageshadow="2"
     inkscape:pageopacity="0.0"
     inkscape:pagecheckerboard="0"
     inkscape:deskcolor="#d1d1d1"
     inkscape:document-units="mm"
     inkscape:zoom="1.6062079"
     inkscape:cx="-202.33993"
     inkscape:cy="119.8475"
     inkscape:window-width="3840"
     inkscape:window-height="2054"
     inkscape:window-x="-11"
     inkscape:window-y="-11"
     inkscape:window-maximized="1"
     inkscape:current-layer="layer1" />
  <defs
     id="defs1">
    <inkscape:path-effect
       effect="spiro"
       id="path-effect8"
       is_visible="true"
       lpeversion="1" />
    <inkscape:path-effect
       effect="mirror_symmetry"
       start_point="17.255329,9.2448751"
       end_point="17.255329,29.300879"
       center_point="17.255329,19.272877"
       id="path-effect5"
       is_visible="true"
       lpeversion="1.2"
       lpesatellites=""
       mode="free"
       discard_orig_path="false"
       fuse_paths="true"
       oposite_fuse="false"
       split_items="false"
       split_open="false"
       link_styles="false" />
    <inkscape:path-effect
       effect="mirror_symmetry"
       start_point="27.030316,8.4102839"
       end_point="27.030316,28.182973"
       center_point="27.030316,18.296628"
       id="path-effect3"
       is_visible="true"
       lpeversion="1.2"
       lpesatellites=""
       mode="free"
       discard_orig_path="false"
       fuse_paths="false"
       oposite_fuse="false"
       split_items="false"
       split_open="false"
       link_styles="false" />
    <inkscape:path-effect
       effect="spiro"
       id="path-effect8-8"
       is_visible="true"
       lpeversion="1" />
    <inkscape:path-effect
       effect="spiro"
       id="path-effect8-0"
       is_visible="true"
       lpeversion="1" />
    <inkscape:path-effect
       effect="spiro"
       id="path-effect8-0-9"
       is_visible="true"
       lpeversion="1" />
    <inkscape:path-effect
       effect="spiro"
       id="path-effect8-8-6"
       is_visible="true"
       lpeversion="1" />
    <inkscape:path-effect
       effect="spiro"
       id="path-effect8-3"
       is_visible="true"
       lpeversion="1" />
    <inkscape:path-effect
       effect="spiro"
       id="path-effect8-4"
       is_visible="true"
       lpeversion="1" />
    <inkscape:path-effect
       effect="spiro"
       id="path-effect8-8-8"
       is_visible="true"
       lpeversion="1" />
    <inkscape:path-effect
       effect="spiro"
       id="path-effect8-0-8"
       is_visible="true"
       lpeversion="1" />
    <inkscape:path-effect
       effect="spiro"
       id="path-effect8-3-2"
       is_visible="true"
       lpeversion="1" />
    <inkscape:path-effect
       effect="spiro"
       id="path-effect8-8-6-4"
       is_visible="true"
       lpeversion="1" />
    <inkscape:path-effect
       effect="spiro"
       id="path-effect8-0-9-5"
       is_visible="true"
       lpeversion="1" />
  </defs>
  <g
     inkscape:label="Ebene 1"
     inkscape:groupmode="layer"
     id="layer1"
     transform="translate(-0.20000279)">
    <path
       id="path5-7"
       style="fill:#000000;fill-opacity:0.59639913;stroke:#000000;stroke-width:0.496197;stroke-linejoin:round;stroke-miterlimit:8.2;stroke-opacity:0"
       d="m 17.389834,5.9151357 c -0.412608,0.303203 -0.729734,0.73359 -0.897103,1.217496 -0.197696,0.571592 -0.185057,1.199999 -0.05943,1.791622 0.11686,0.5503288 0.32955,1.0743367 0.551904,1.5916333 z m -0.404627,4.6007513 -0.460437,5.23844 c 0.06668,-0.01223 0.131553,-0.03386 0.192237,-0.06408 0.0691,-0.03441 0.132217,-0.07961 0.192236,-0.128157 0.117671,-0.09518 0.224153,-0.203591 0.320394,-0.320394 0.266789,-0.323788 0.453739,-0.712442 0.545186,-1.121895 0.131831,-0.590273 0.0659,-1.210641 -0.09302,-1.794206 -0.158913,-0.583565 -0.408089,-1.13744 -0.64854,-1.692403 -0.01678,-0.03874 -0.03137,-0.07849 -0.04806,-0.117306 z m 2.599325,-4.6007513 c -0.412608,0.303203 -0.730251,0.73359 -0.89762,1.217496 -0.197696,0.571592 -0.185056,1.199999 -0.05943,1.791622 0.116905,0.5505398 0.329973,1.0746617 0.552421,1.5921503 z m -0.404627,4.6012683 -0.460953,5.237923 c 0.06668,-0.01223 0.13207,-0.03386 0.192753,-0.06408 0.0691,-0.03441 0.132217,-0.07961 0.192236,-0.128157 0.117671,-0.09518 0.224153,-0.203591 0.320394,-0.320394 0.266789,-0.323788 0.453223,-0.712442 0.54467,-1.121895 0.13183,-0.590273 0.06641,-1.210641 -0.0925,-1.794206 -0.158913,-0.583565 -0.408606,-1.13744 -0.649056,-1.692403 -0.0167,-0.03854 -0.03094,-0.07817 -0.04754,-0.116789 z M 21.77923,5.9151357 c -0.412608,0.303203 -0.730251,0.73359 -0.89762,1.217496 -0.197696,0.571592 -0.185056,1.199999 -0.05943,1.791622 0.116907,0.5505478 0.329969,1.0746537 0.552422,1.5921503 z m -0.404626,4.6012683 -0.460954,5.237923 c 0.06668,-0.01223 0.131553,-0.03386 0.192236,-0.06408 0.0691,-0.03441 0.132217,-0.07961 0.192236,-0.128157 0.117672,-0.09518 0.22467,-0.203591 0.320911,-0.320394 0.266789,-0.323788 0.453223,-0.712442 0.54467,-1.121895 0.13183,-0.590273 0.0659,-1.210641 -0.09302,-1.794206 -0.158912,-0.583565 -0.408089,-1.13744 -0.648539,-1.692403 -0.01669,-0.03853 -0.03095,-0.07818 -0.04754,-0.116789 z M 35.261611,6.0758487 c -0.412607,0.303204 -0.730251,0.734108 -0.897619,1.218014 -0.197697,0.571591 -0.185057,1.199482 -0.05943,1.791105 0.116906,0.5505478 0.329968,1.0746523 0.552421,1.5921503 z m -0.404626,4.6012693 -0.460954,5.23844 c 0.06668,-0.01223 0.131553,-0.03386 0.192236,-0.06408 0.0691,-0.03441 0.132217,-0.07961 0.192237,-0.128158 0.117671,-0.09518 0.224669,-0.204108 0.32091,-0.32091 0.266789,-0.323788 0.453223,-0.711925 0.54467,-1.121379 0.131831,-0.590272 0.06589,-1.210641 -0.09302,-1.794206 -0.158912,-0.583564 -0.408088,-1.137956 -0.648539,-1.692919 -0.01669,-0.03853 -0.03095,-0.07818 -0.04754,-0.116788 z m 2.598808,-4.6012693 c -0.412608,0.303204 -0.729735,0.734108 -0.897103,1.218014 -0.197697,0.571591 -0.185057,1.199482 -0.05943,1.791105 0.11686,0.5503288 0.329549,1.0743363 0.551904,1.5916333 z m -0.404627,4.6007523 -0.460437,5.238957 c 0.06668,-0.01223 0.131553,-0.03386 0.192236,-0.06408 0.0691,-0.03441 0.132218,-0.07961 0.192237,-0.128158 0.117671,-0.09518 0.224153,-0.204108 0.320394,-0.32091 0.266788,-0.323788 0.453739,-0.711925 0.545186,-1.121379 0.131831,-0.590272 0.06589,-1.210641 -0.09302,-1.794206 -0.158912,-0.583564 -0.408088,-1.137956 -0.648539,-1.692919 -0.01678,-0.03874 -0.03137,-0.07849 -0.04806,-0.117306 z m 2.599325,-4.6007523 c -0.412608,0.303204 -0.730251,0.734108 -0.89762,1.218014 -0.197696,0.571591 -0.185057,1.199482 -0.05943,1.791105 0.116907,0.5505478 0.329968,1.0746523 0.552421,1.5921503 z m -0.404627,4.6012693 -0.460954,5.23844 c 0.06668,-0.01223 0.131553,-0.03386 0.192237,-0.06408 0.0691,-0.03441 0.132734,-0.07961 0.192753,-0.128158 0.117671,-0.09518 0.224153,-0.204108 0.320394,-0.32091 0.266789,-0.323788 0.453222,-0.711925 0.544669,-1.121379 0.131831,-0.590272 0.06589,-1.210641 -0.09302,-1.794206 -0.158913,-0.583564 -0.408089,-1.137956 -0.64854,-1.692919 -0.01669,-0.03853 -0.03095,-0.07818 -0.04754,-0.116789 z m -23.8125,7.081221 c 0,0 -0.892111,2.427488 -1.64021,5.782076 -1.054782,4.729799 -1.823962,11.302604 0.596863,15.516883 3.187777,5.549422 10.250234,6.454386 14.152108,6.503479 3.901875,-0.0491 10.96123,-0.954057 14.149007,-6.503479 2.447522,-4.260754 1.617362,-10.672256 0.545703,-15.412496 0.01356,-0.0019 0.04293,-0.0059 0.05633,-0.0078 -0.176331,-0.790697 -0.340073,-1.287936 -0.518831,-1.955953 -0.588425,-2.214717 -1.123446,-3.922758 -1.123446,-3.922758 l -8.858374,0.09198 c 0,0 0.01744,0.03288 0.04961,0.09612 l -0.04806,5.16e-4 c 0,0 1.605618,3.022563 2.331123,6.751009 0.0057,-6.93e-4 0.01134,-0.0014 0.01705,-0.0021 0.728529,3.83438 0.509321,8.38943 -3.337781,11.166761 -0.990086,0.714771 -2.129348,0.99526 -3.262333,1.064017 -1.132985,-0.06875 -2.271729,-0.349246 -3.261817,-1.064017 -3.878636,-2.800096 -4.069608,-7.407455 -3.319694,-11.261329 0.725505,-3.728447 2.331124,-6.751009 2.331124,-6.751009 z" />
    <path
       d="m 20.167019,26.488891 c -0.977362,-0.118766 -2.150133,-0.26496 -3.41297,-0.427125 -1.917343,-0.246209 -3.624332,-0.474462 -4.75467,-0.633848 -1.054782,4.729799 -1.823978,11.302949 0.596847,15.517228 3.187777,5.549422 10.250326,6.454291 14.1522,6.503384 3.901875,-0.0491 10.961207,-0.953962 14.148984,-6.503384 C 45.035193,33.741912 39.85735,19.64606 39.85735,19.64606 l -8.858598,0.0917 c 0,0 6.643264,12.503344 -0.987775,18.012404 -0.990086,0.714771 -2.129566,0.995433 -3.262551,1.06419 -1.132985,-0.06875 -2.271658,-0.349419 -3.261746,-1.06419 -3.878636,-2.800096 -4.069575,-7.407398 -3.319661,-11.261272 z"
       style="fill:#d9a87a;stroke:#322d21;stroke-width:0.496197;stroke-linejoin:round;stroke-miterlimit:8.2;stroke-opacity:0.995995"
       id="path5" />
    <path
       d="m 20.167019,26.488891 c 0.725505,-3.728447 2.331083,-6.751133 2.331083,-6.751133 l -8.8586,-0.0917 c 0,0 -0.892024,2.427271 -1.640123,5.781859 1.130338,0.159386 2.837327,0.387638 4.75467,0.633848 1.262837,0.162164 2.435608,0.308363 3.41297,0.427123 z"
       style="fill:#9b7756;fill-opacity:1;stroke:#322d21;stroke-width:0.689558;stroke-linejoin:round;stroke-miterlimit:8.2;stroke-opacity:0.995995"
       id="path6" />
    <path
       d="M 33.331625,26.585569 C 32.60612,22.857123 31.000542,19.834437 31.000542,19.834437 l 8.8586,-0.0917 c 0,0 0.892024,2.427271 1.640123,5.781859 -1.130338,0.159386 -2.837328,0.387639 -4.75467,0.633848 -1.262837,0.162164 -2.435608,0.308363 -3.41297,0.427123 z"
       style="fill:#9b7756;fill-opacity:1;stroke:#322d21;stroke-width:0.689558;stroke-linejoin:round;stroke-miterlimit:8.2;stroke-opacity:0.995995"
       id="path6-6" />
    <path
       style="fill:#9b7756;fill-opacity:0;stroke:#322d21;stroke-width:0.443;stroke-linejoin:round;stroke-miterlimit:8.2;stroke-opacity:0.995995"
       d="m 11.139559,4.2622713 c -0.265076,0.1947902 -0.469016,0.4715649 -0.57654,0.7824459 -0.127008,0.3672137 -0.118909,0.7706351 -0.0382,1.1507181 0.08071,0.380083 0.23097,0.7414209 0.385445,1.097952 0.154475,0.3565311 0.314609,0.712577 0.416701,1.0874826 0.102092,0.3749057 0.144372,0.773401 0.05968,1.152616 -0.05875,0.2630498 -0.178645,0.5126591 -0.350041,0.7206741 -0.06183,0.07504 -0.13031,0.14476 -0.205907,0.205906 -0.03856,0.03119 -0.07915,0.06025 -0.123544,0.08236 -0.03899,0.01941 -0.08071,0.03332 -0.123545,0.04118"
       id="path8"
       inkscape:path-effect="#path-effect8"
       inkscape:original-d="m 11.139559,4.2622713 c -0.314348,0.2043263 -0.419146,0.433932 -0.57654,0.7824459 -1.0943347,2.1667256 0.833604,2.9494321 0.823625,4.4887687 -0.02179,0.3704222 -0.08667,0.4812441 -0.350041,0.7206741 -0.07182,0.06529 -0.130782,0.144443 -0.205907,0.205906 -0.03831,0.03134 -0.07849,0.06188 -0.123544,0.08236 -0.164958,0.07498 -0.06365,-0.01871 -0.123545,0.04118"
       sodipodi:nodetypes="csssssc"
       transform="matrix(1.5565636,0,0,1.5565636,-1.7430696,1.1680447)" />
    <path
       style="fill:#9b7756;fill-opacity:0;stroke:#322d21;stroke-width:0.443;stroke-linejoin:round;stroke-miterlimit:8.2;stroke-opacity:0.995995"
       d="m 11.139559,4.2622713 c -0.265076,0.1947902 -0.469016,0.4715649 -0.57654,0.7824459 -0.127008,0.3672137 -0.118909,0.7706351 -0.0382,1.1507181 0.08071,0.380083 0.23097,0.7414209 0.385445,1.097952 0.154475,0.3565311 0.314609,0.712577 0.416701,1.0874826 0.102092,0.3749057 0.144372,0.773401 0.05968,1.152616 -0.05875,0.2630498 -0.178645,0.5126591 -0.350041,0.7206741 -0.06183,0.07504 -0.13031,0.14476 -0.205907,0.205906 -0.03856,0.03119 -0.07915,0.06025 -0.123544,0.08236 -0.03899,0.01941 -0.08071,0.03332 -0.123545,0.04118"
       id="path8-4"
       inkscape:path-effect="#path-effect8-8"
       inkscape:original-d="m 11.139559,4.2622713 c -0.314348,0.2043263 -0.419146,0.433932 -0.57654,0.7824459 -1.0943347,2.1667256 0.833604,2.9494321 0.823625,4.4887687 -0.02179,0.3704222 -0.08667,0.4812441 -0.350041,0.7206741 -0.07182,0.06529 -0.130782,0.144443 -0.205907,0.205906 -0.03831,0.03134 -0.07849,0.06188 -0.123544,0.08236 -0.164958,0.07498 -0.06365,-0.01871 -0.123545,0.04118"
       sodipodi:nodetypes="csssssc"
       transform="matrix(1.5565636,0,0,1.5565636,0.45141663,1.1680447)" />
    <path
       style="fill:#9b7756;fill-opacity:0;stroke:#322d21;stroke-width:0.443;stroke-linejoin:round;stroke-miterlimit:8.2;stroke-opacity:0.995995"
       d="m 11.139559,4.2622713 c -0.265076,0.1947902 -0.469016,0.4715649 -0.57654,0.7824459 -0.127008,0.3672137 -0.118909,0.7706351 -0.0382,1.1507181 0.08071,0.380083 0.23097,0.7414209 0.385445,1.097952 0.154475,0.3565311 0.314609,0.712577 0.416701,1.0874826 0.102092,0.3749057 0.144372,0.773401 0.05968,1.152616 -0.05875,0.2630498 -0.178645,0.5126591 -0.350041,0.7206741 -0.06183,0.07504 -0.13031,0.14476 -0.205907,0.205906 -0.03856,0.03119 -0.07915,0.06025 -0.123544,0.08236 -0.03899,0.01941 -0.08071,0.03332 -0.123545,0.04118"
       id="path8-1"
       inkscape:path-effect="#path-effect8-0"
       inkscape:original-d="m 11.139559,4.2622713 c -0.314348,0.2043263 -0.419146,0.433932 -0.57654,0.7824459 -1.0943347,2.1667256 0.833604,2.9494321 0.823625,4.4887687 -0.02179,0.3704222 -0.08667,0.4812441 -0.350041,0.7206741 -0.07182,0.06529 -0.130782,0.144443 -0.205907,0.205906 -0.03831,0.03134 -0.07849,0.06188 -0.123544,0.08236 -0.164958,0.07498 -0.06365,-0.01871 -0.123545,0.04118"
       sodipodi:nodetypes="csssssc"
       transform="matrix(1.5565636,0,0,1.5565636,2.6459029,1.1680447)" />
    <path
       style="fill:#9b7756;fill-opacity:0;stroke:#322d21;stroke-width:0.443;stroke-linejoin:round;stroke-miterlimit:8.2;stroke-opacity:0.995995"
       d="m 11.139559,4.2622713 c -0.265076,0.1947902 -0.469016,0.4715649 -0.57654,0.7824459 -0.127008,0.3672137 -0.118909,0.7706351 -0.0382,1.1507181 0.08071,0.380083 0.23097,0.7414209 0.385445,1.097952 0.154475,0.3565311 0.314609,0.712577 0.416701,1.0874826 0.102092,0.3749057 0.144372,0.773401 0.05968,1.152616 -0.05875,0.2630498 -0.178645,0.5126591 -0.350041,0.7206741 -0.06183,0.07504 -0.13031,0.14476 -0.205907,0.205906 -0.03856,0.03119 -0.07915,0.06025 -0.123544,0.08236 -0.03899,0.01941 -0.08071,0.03332 -0.123545,0.04118"
       id="path8-8"
       inkscape:path-effect="#path-effect8-3"
       inkscape:original-d="m 11.139559,4.2622713 c -0.314348,0.2043263 -0.419146,0.433932 -0.57654,0.7824459 -1.0943347,2.1667256 0.833604,2.9494321 0.823625,4.4887687 -0.02179,0.3704222 -0.08667,0.4812441 -0.350041,0.7206741 -0.07182,0.06529 -0.130782,0.144443 -0.205907,0.205906 -0.03831,0.03134 -0.07849,0.06188 -0.123544,0.08236 -0.164958,0.07498 -0.06365,-0.01871 -0.123545,0.04118"
       sodipodi:nodetypes="csssssc"
       transform="matrix(1.5565636,0,0,1.5565636,16.128284,1.3290076)" />
    <path
       style="fill:#9b7756;fill-opacity:0;stroke:#322d21;stroke-width:0.443;stroke-linejoin:round;stroke-miterlimit:8.2;stroke-opacity:0.995995"
       d="m 11.139559,4.2622713 c -0.265076,0.1947902 -0.469016,0.4715649 -0.57654,0.7824459 -0.127008,0.3672137 -0.118909,0.7706351 -0.0382,1.1507181 0.08071,0.380083 0.23097,0.7414209 0.385445,1.097952 0.154475,0.3565311 0.314609,0.712577 0.416701,1.0874826 0.102092,0.3749057 0.144372,0.773401 0.05968,1.152616 -0.05875,0.2630498 -0.178645,0.5126591 -0.350041,0.7206741 -0.06183,0.07504 -0.13031,0.14476 -0.205907,0.205906 -0.03856,0.03119 -0.07915,0.06025 -0.123544,0.08236 -0.03899,0.01941 -0.08071,0.03332 -0.123545,0.04118"
       id="path8-4-2"
       inkscape:path-effect="#path-effect8-8-6"
       inkscape:original-d="m 11.139559,4.2622713 c -0.314348,0.2043263 -0.419146,0.433932 -0.57654,0.7824459 -1.0943347,2.1667256 0.833604,2.9494321 0.823625,4.4887687 -0.02179,0.3704222 -0.08667,0.4812441 -0.350041,0.7206741 -0.07182,0.06529 -0.130782,0.144443 -0.205907,0.205906 -0.03831,0.03134 -0.07849,0.06188 -0.123544,0.08236 -0.164958,0.07498 -0.06365,-0.01871 -0.123545,0.04118"
       sodipodi:nodetypes="csssssc"
       transform="matrix(1.5565636,0,0,1.5565636,18.322771,1.3290076)" />
    <path
       style="fill:#9b7756;fill-opacity:0;stroke:#322d21;stroke-width:0.443;stroke-linejoin:round;stroke-miterlimit:8.2;stroke-opacity:0.995995"
       d="m 11.139559,4.2622713 c -0.265076,0.1947902 -0.469016,0.4715649 -0.57654,0.7824459 -0.127008,0.3672137 -0.118909,0.7706351 -0.0382,1.1507181 0.08071,0.380083 0.23097,0.7414209 0.385445,1.097952 0.154475,0.3565311 0.314609,0.712577 0.416701,1.0874826 0.102092,0.3749057 0.144372,0.773401 0.05968,1.152616 -0.05875,0.2630498 -0.178645,0.5126591 -0.350041,0.7206741 -0.06183,0.07504 -0.13031,0.14476 -0.205907,0.205906 -0.03856,0.03119 -0.07915,0.06025 -0.123544,0.08236 -0.03899,0.01941 -0.08071,0.03332 -0.123545,0.04118"
       id="path8-1-9"
       inkscape:path-effect="#path-effect8-0-9"
       inkscape:original-d="m 11.139559,4.2622713 c -0.314348,0.2043263 -0.419146,0.433932 -0.57654,0.7824459 -1.0943347,2.1667256 0.833604,2.9494321 0.823625,4.4887687 -0.02179,0.3704222 -0.08667,0.4812441 -0.350041,0.7206741 -0.07182,0.06529 -0.130782,0.144443 -0.205907,0.205906 -0.03831,0.03134 -0.07849,0.06188 -0.123544,0.08236 -0.164958,0.07498 -0.06365,-0.01871 -0.123545,0.04118"
       sodipodi:nodetypes="csssssc"
       transform="matrix(1.5565636,0,0,1.5565636,20.517256,1.3290076)" />
  </g>
</svg>
