<?xml version="1.0" encoding="UTF-8" standalone="no"?>
<!-- Created with Inkscape (http://www.inkscape.org/) -->

<svg
   width="200"
   height="201.17665"
   viewBox="0 0 52.916666 53.227988"
   version="1.1"
   id="svg1"
   inkscape:version="1.4.2 (f4327f4, 2025-05-13)"
   sodipodi:docname="FruitArea1.svg"
   xmlns:inkscape="http://www.inkscape.org/namespaces/inkscape"
   xmlns:sodipodi="http://sodipodi.sourceforge.net/DTD/sodipodi-0.dtd"
   xmlns="http://www.w3.org/2000/svg"
   xmlns:svg="http://www.w3.org/2000/svg">
  <sodipodi:namedview
     id="namedview1"
     pagecolor="#ffffff"
     bordercolor="#000000"
     borderopacity="0.25"
     inkscape:showpageshadow="2"
     inkscape:pageopacity="0.0"
     inkscape:pagecheckerboard="0"
     inkscape:deskcolor="#d1d1d1"
     inkscape:document-units="mm"
     inkscape:zoom="3.2124158"
     inkscape:cx="-18.054948"
     inkscape:cy="139.92585"
     inkscape:window-width="3840"
     inkscape:window-height="2054"
     inkscape:window-x="-11"
     inkscape:window-y="-11"
     inkscape:window-maximized="1"
     inkscape:current-layer="svg1" />
  <defs
     id="defs1">
    <inkscape:path-effect
       effect="spiro"
       id="path-effect8"
       is_visible="true"
       lpeversion="1" />
    <inkscape:path-effect
       effect="mirror_symmetry"
       start_point="17.255329,9.2448751"
       end_point="17.255329,29.300879"
       center_point="17.255329,19.272877"
       id="path-effect5"
       is_visible="true"
       lpeversion="1.2"
       lpesatellites=""
       mode="free"
       discard_orig_path="false"
       fuse_paths="true"
       oposite_fuse="false"
       split_items="false"
       split_open="false"
       link_styles="false" />
    <inkscape:path-effect
       effect="mirror_symmetry"
       start_point="27.030316,8.4102839"
       end_point="27.030316,28.182973"
       center_point="27.030316,18.296628"
       id="path-effect3"
       is_visible="true"
       lpeversion="1.2"
       lpesatellites=""
       mode="free"
       discard_orig_path="false"
       fuse_paths="false"
       oposite_fuse="false"
       split_items="false"
       split_open="false"
       link_styles="false" />
    <inkscape:path-effect
       effect="spiro"
       id="path-effect8-8"
       is_visible="true"
       lpeversion="1" />
    <inkscape:path-effect
       effect="spiro"
       id="path-effect8-0"
       is_visible="true"
       lpeversion="1" />
    <inkscape:path-effect
       effect="spiro"
       id="path-effect8-0-9"
       is_visible="true"
       lpeversion="1" />
    <inkscape:path-effect
       effect="spiro"
       id="path-effect8-8-6"
       is_visible="true"
       lpeversion="1" />
    <inkscape:path-effect
       effect="spiro"
       id="path-effect8-3"
       is_visible="true"
       lpeversion="1" />
  </defs>
  <g
     inkscape:label="Ebene 1"
     inkscape:groupmode="layer"
     id="layer1"
     transform="translate(-0.20000279)" />
  <g
     inkscape:groupmode="layer"
     id="layer2"
     inkscape:label="Äpfel">
    <rect
       style="fill:#ebb27a;fill-opacity:1;stroke:#1f1e20;stroke-width:2.4;stroke-linecap:round;stroke-linejoin:round;stroke-opacity:0;paint-order:fill markers stroke"
       id="rect2"
       width="23.609426"
       height="23.609426"
       x="14.653622"
       y="14.940199"
       ry="0.62007707" />
    <rect
       style="fill:#eba763;fill-opacity:1;stroke:#533e2b;stroke-width:1.2;stroke-linecap:round;stroke-linejoin:round;stroke-dasharray:none;stroke-opacity:1;paint-order:fill markers stroke"
       id="rect2-7"
       width="23.609426"
       height="23.609426"
       x="14.653621"
       y="14.940199"
       ry="0.62007707" />
    <rect
       style="fill:#000000;fill-opacity:0;stroke:#ebb47e;stroke-width:2.4;stroke-linecap:round;stroke-linejoin:round;stroke-opacity:0.63990998;paint-order:fill markers stroke"
       id="rect2-8"
       width="28.967447"
       height="28.967447"
       x="11.974611"
       y="12.130273"
       ry="0.76079988" />
    <rect
       style="fill:#000000;fill-opacity:0;stroke:#ebb680;stroke-width:2.39999;stroke-linecap:round;stroke-linejoin:round;stroke-opacity:0.4696174;paint-order:fill markers stroke"
       id="rect2-8-1"
       width="36.538551"
       height="36.538551"
       x="8.1890602"
       y="8.3447218"
       ry="0.959647" />
    <path
       d="M 4.0328288,45.15435 V 8.3845011 C 3.8986382,8.6327238 3.8333577,8.8793937 3.8333577,9.1229574 V 44.415894 c 0,0.243563 0.065281,0.490233 0.1994711,0.738456 z"
       style="baseline-shift:baseline;display:inline;overflow:visible;vector-effect:none;fill:#ebb680;fill-opacity:0.216804;stroke-linecap:round;stroke-linejoin:round;paint-order:fill markers stroke;enable-background:accumulate;stop-color:#000000;stop-opacity:1"
       id="path53" />
    <path
       d="M 5.2322388,46.359444 V 7.1799235 C 5.1616891,7.2278229 5.0940058,7.2756815 5.0286336,7.3241007 4.5522282,7.6769604 4.2232601,8.0322455 4.0328288,8.3845011 V 45.15435 c 0.1904313,0.352255 0.5193994,0.707541 0.9958048,1.0604 0.065372,0.04842 0.1330556,0.09677 0.2036052,0.144694 z"
       style="baseline-shift:baseline;display:inline;overflow:visible;vector-effect:none;fill:#ebb680;fill-opacity:0.216804;stroke-linecap:round;stroke-linejoin:round;paint-order:fill markers stroke;enable-background:accumulate;stop-color:#000000;stop-opacity:1"
       id="path52" />
    <path
       d="M 37.687105,49.131368 H 15.229561 c 1.667342,0.170513 3.452107,0.263033 5.30872,0.263033 h 11.839588 c 1.856613,0 3.641895,-0.09252 5.309236,-0.263033 z"
       style="baseline-shift:baseline;display:inline;overflow:visible;vector-effect:none;fill:#ebb680;fill-opacity:0.216804;stroke-linecap:round;stroke-linejoin:round;paint-order:fill markers stroke;enable-background:accumulate;stop-color:#000000;stop-opacity:1"
       id="path51" />
    <path
       d="M 44.093949,47.931441 H 8.8227173 c 1.7892217,0.5358 3.9726707,0.950992 6.4068437,1.199927 h 22.457544 c 2.434174,-0.248935 4.617622,-0.664127 6.406844,-1.199927 z"
       style="baseline-shift:baseline;display:inline;overflow:visible;vector-effect:none;fill:#ebb680;fill-opacity:0.216804;stroke-linecap:round;stroke-linejoin:round;paint-order:fill markers stroke;enable-background:accumulate;stop-color:#000000;stop-opacity:1"
       id="path50" />
    <path
       d="M 48.724674,8.1338704 V 45.40498 c 0.241423,-0.332616 0.358635,-0.663705 0.358635,-0.989086 V 9.1229574 c 0,-0.3253814 -0.117212,-0.656471 -0.358635,-0.989087 z"
       style="baseline-shift:baseline;display:inline;overflow:visible;vector-effect:none;fill:#ebb680;fill-opacity:0.216804;stroke-linecap:round;stroke-linejoin:round;paint-order:fill markers stroke;enable-background:accumulate;stop-color:#000000;stop-opacity:1"
       id="path49" />
    <path
       d="M 47.525264,7.0750203 V 46.463831 c 0.128477,-0.08222 0.249673,-0.165314 0.362769,-0.249081 0.363635,-0.269334 0.640891,-0.540077 0.836641,-0.80977 V 8.1338704 C 48.528924,7.8641783 48.251668,7.5934346 47.888033,7.3241007 47.774937,7.2403335 47.653741,7.1571727 47.525264,7.0750203 Z"
       style="baseline-shift:baseline;display:inline;overflow:visible;vector-effect:none;fill:#ebb680;fill-opacity:0.216804;stroke-linecap:round;stroke-linejoin:round;paint-order:fill markers stroke;enable-background:accumulate;stop-color:#000000;stop-opacity:1"
       id="path48" />
    <path
       d="M 8.7255656,5.6384155 C 8.6745515,5.6539424 8.623992,5.6697183 8.5736369,5.6854411 7.1786922,6.1209957 6.0381208,6.6327728 5.2322388,7.1799235 V 46.359444 c 0.805882,0.547417 1.9464532,1.060478 3.3413981,1.496033 0.082159,0.02565 0.1651734,0.05084 0.2490804,0.07596 H 44.093949 c 0.08391,-0.02513 0.166922,-0.05031 0.249081,-0.07596 1.305794,-0.407719 2.388161,-0.883484 3.182234,-1.391646 V 7.0750203 C 46.731191,6.5672606 45.648824,6.0931593 44.34303,5.6854411 44.292675,5.6697183 44.242115,5.6539424 44.191101,5.6384155 Z"
       style="baseline-shift:baseline;display:inline;overflow:visible;vector-effect:none;fill-opacity:0;stroke-linecap:round;stroke-linejoin:round;paint-order:fill markers stroke;enable-background:accumulate;stop-color:#000000;stop-opacity:1"
       id="path47" />
    <path
       d="M 5.2322388,6.7680623 V 7.1799235 C 6.0381208,6.6327728 7.1786922,6.1209957 8.5736369,5.6854411 8.623992,5.6697183 8.6745515,5.6539424 8.7255656,5.6384155 H 7.6279582 C 6.6837257,5.979482 5.8764831,6.3589977 5.2322388,6.7680623 Z"
       style="baseline-shift:baseline;display:inline;overflow:visible;vector-effect:none;fill-opacity:0;stroke-linecap:round;stroke-linejoin:round;paint-order:fill markers stroke;enable-background:accumulate;stop-color:#000000;stop-opacity:1"
       id="path46" />
    <path
       d="M 4.0328288,7.7783366 V 8.3845011 C 4.2232601,8.0322455 4.5522282,7.6769604 5.0286336,7.3241007 5.0940058,7.2756815 5.1616891,7.2278229 5.2322388,7.1799235 V 6.7680623 C 4.7285449,7.0878842 4.3246698,7.425842 4.0328288,7.7783366 Z"
       style="baseline-shift:baseline;display:inline;overflow:visible;vector-effect:none;fill:#ebb680;fill-opacity:0.216804;stroke-linecap:round;stroke-linejoin:round;paint-order:fill markers stroke;enable-background:accumulate;stop-color:#000000;stop-opacity:1"
       id="path45" />
    <path
       d="M 4.0328288,45.761031 V 45.15435 C 3.8986382,44.906127 3.8333577,44.659457 3.8333577,44.415894 V 9.1229574 c 0,-0.2435637 0.065281,-0.4902336 0.1994711,-0.7384563 V 7.7783366 C 3.6773147,8.2077375 3.4881592,8.6584317 3.4881592,9.1234741 V 44.415894 c 0,0.465042 0.1891555,0.915736 0.5446696,1.345137 z"
       style="baseline-shift:baseline;display:inline;overflow:visible;vector-effect:none;fill:#ebb680;fill-opacity:0.216804;stroke-linecap:round;stroke-linejoin:round;paint-order:fill markers stroke;enable-background:accumulate;stop-color:#000000;stop-opacity:1"
       id="path44" />
    <path
       d="M 5.2322388,46.771305 V 46.359444 C 5.1616892,46.311522 5.0940057,46.263169 5.0286336,46.21475 4.5522282,45.861891 4.2232601,45.506605 4.0328288,45.15435 v 0.606681 c 0.2918409,0.352495 0.6957162,0.690453 1.19941,1.010274 z"
       style="baseline-shift:baseline;display:inline;overflow:visible;vector-effect:none;fill:#ebb680;fill-opacity:0.216804;stroke-linecap:round;stroke-linejoin:round;paint-order:fill markers stroke;enable-background:accumulate;stop-color:#000000;stop-opacity:1"
       id="path43" />
    <path
       d="M 7.7147746,47.931441 H 8.8227173 C 8.7388103,47.906314 8.6557955,47.88113 8.5736369,47.855477 7.178692,47.419922 6.0381208,46.906861 5.2322388,46.359444 v 0.411861 c 0.663833,0.421503 1.5010385,0.811093 2.4825358,1.160136 z"
       style="baseline-shift:baseline;display:inline;overflow:visible;vector-effect:none;fill-opacity:0;stroke-linecap:round;stroke-linejoin:round;paint-order:fill markers stroke;enable-background:accumulate;stop-color:#000000;stop-opacity:1"
       id="path42" />
    <path
       d="m 12.594063,49.131368 h 2.635498 C 12.795388,48.882433 10.611939,48.467241 8.8227173,47.931441 H 7.7147746 c 1.37055,0.487399 3.0229934,0.895553 4.8792884,1.199927 z"
       style="baseline-shift:baseline;display:inline;overflow:visible;vector-effect:none;fill:#ebb680;fill-opacity:0.216804;stroke-linecap:round;stroke-linejoin:round;paint-order:fill markers stroke;enable-background:accumulate;stop-color:#000000;stop-opacity:1"
       id="path41" />
    <path
       d="m 40.322603,49.131368 h -2.635498 c -1.667341,0.170513 -3.452623,0.263033 -5.309236,0.263033 H 20.538281 c -1.856613,0 -3.641378,-0.09252 -5.30872,-0.263033 h -2.635498 c 2.370045,0.388613 5.072461,0.608232 7.945252,0.608232 h 11.838037 c 2.872791,0 5.575207,-0.219619 7.945251,-0.608232 z"
       style="baseline-shift:baseline;display:inline;overflow:visible;vector-effect:none;fill:#ebb680;fill-opacity:0.216804;stroke-linecap:round;stroke-linejoin:round;paint-order:fill markers stroke;enable-background:accumulate;stop-color:#000000;stop-opacity:1"
       id="path40" />
    <path
       d="m 45.201892,47.931441 h -1.107943 c -1.789222,0.5358 -3.97267,0.950992 -6.406844,1.199927 h 2.635498 c 1.856295,-0.304374 3.508739,-0.712528 4.879289,-1.199927 z"
       style="baseline-shift:baseline;display:inline;overflow:visible;vector-effect:none;fill:#ebb680;fill-opacity:0.216804;stroke-linecap:round;stroke-linejoin:round;paint-order:fill markers stroke;enable-background:accumulate;stop-color:#000000;stop-opacity:1"
       id="path39" />
    <path
       d="m 47.525264,46.869491 v -0.40566 c -0.794073,0.508162 -1.87644,0.983927 -3.182234,1.391646 -0.08216,0.02565 -0.165174,0.05084 -0.249081,0.07596 h 1.107943 c 0.904763,-0.321754 1.686644,-0.67803 2.323372,-1.06195 z"
       style="baseline-shift:baseline;display:inline;overflow:visible;vector-effect:none;fill-opacity:0;stroke-linecap:round;stroke-linejoin:round;paint-order:fill markers stroke;enable-background:accumulate;stop-color:#000000;stop-opacity:1"
       id="path38" />
    <path
       d="M 48.724674,45.939832 V 45.40498 c -0.19575,0.269693 -0.473006,0.540436 -0.836641,0.80977 -0.113096,0.08377 -0.234292,0.166863 -0.362769,0.249081 v 0.40566 c 0.488805,-0.294729 0.891912,-0.605583 1.19941,-0.929659 z"
       style="baseline-shift:baseline;display:inline;overflow:visible;vector-effect:none;fill:#ebb680;fill-opacity:0.216804;stroke-linecap:round;stroke-linejoin:round;paint-order:fill markers stroke;enable-background:accumulate;stop-color:#000000;stop-opacity:1"
       id="path37" />
    <path
       d="m 48.724674,7.5995361 v 0.5343343 c 0.241423,0.332616 0.358635,0.6637056 0.358635,0.989087 V 44.415894 c 0,0.325381 -0.117212,0.65647 -0.358635,0.989086 v 0.534852 c 0.457815,-0.482497 0.703833,-0.993851 0.703833,-1.523938 V 9.1234741 c 0,-0.5300875 -0.246018,-1.0414413 -0.703833,-1.523938 z"
       style="baseline-shift:baseline;display:inline;overflow:visible;vector-effect:none;fill:#ebb680;fill-opacity:0.216804;stroke-linecap:round;stroke-linejoin:round;paint-order:fill markers stroke;enable-background:accumulate;stop-color:#000000;stop-opacity:1"
       id="path36" />
    <path
       d="m 47.525264,6.6698771 v 0.4051432 c 0.128477,0.082152 0.249673,0.1653132 0.362769,0.2490804 0.363635,0.2693339 0.640891,0.5400776 0.836641,0.8097697 V 7.5995361 C 48.417176,7.2754593 48.014069,6.964606 47.525264,6.6698771 Z"
       style="baseline-shift:baseline;display:inline;overflow:visible;vector-effect:none;fill:#ebb680;fill-opacity:0.216804;stroke-linecap:round;stroke-linejoin:round;paint-order:fill markers stroke;enable-background:accumulate;stop-color:#000000;stop-opacity:1"
       id="path35" />
    <path
       d="m 45.288708,5.6384155 h -1.097607 c 0.05101,0.015527 0.101574,0.031303 0.151929,0.047026 1.305794,0.4077182 2.388161,0.8818195 3.182234,1.3895792 V 6.6698771 C 46.908919,6.2982463 46.156876,5.9520064 45.288708,5.6384155 Z"
       style="baseline-shift:baseline;display:inline;overflow:visible;vector-effect:none;fill-opacity:0;stroke-linecap:round;stroke-linejoin:round;paint-order:fill markers stroke;enable-background:accumulate;stop-color:#000000;stop-opacity:1"
       id="path34" />
    <path
       d="m 37.981661,4.4395223 c 2.35964,0.2569942 4.474267,0.6707698 6.20944,1.1988932 h 1.097607 C 43.947825,5.1540748 42.330491,4.7468918 40.512256,4.4395223 Z"
       style="baseline-shift:baseline;display:inline;overflow:visible;vector-effect:none;fill:#ebb680;fill-opacity:0.216804;stroke-linecap:round;stroke-linejoin:round;paint-order:fill markers stroke;enable-background:accumulate;stop-color:#000000;stop-opacity:1"
       id="path33" />
    <path
       d="M 14.934489,4.4395223 C 12.574849,4.6965165 10.460738,5.1102921 8.7255656,5.6384155 H 44.191101 c -1.735173,-0.5281234 -3.8498,-0.941899 -6.20944,-1.1988932 z"
       style="baseline-shift:baseline;display:inline;overflow:visible;vector-effect:none;fill:#ebb680;fill-opacity:0.216804;stroke-linecap:round;stroke-linejoin:round;paint-order:fill markers stroke;enable-background:accumulate;stop-color:#000000;stop-opacity:1"
       id="path32" />
    <path
       d="M 14.934489,4.4395223 H 37.981661 C 36.230611,4.2488111 34.344302,4.1444499 32.377869,4.1444499 H 20.538281 c -1.966432,0 -3.852742,0.1043612 -5.603792,0.2950724 z"
       style="baseline-shift:baseline;display:inline;overflow:visible;vector-effect:none;fill:#ebb680;fill-opacity:0.216804;stroke-linecap:round;stroke-linejoin:round;paint-order:fill markers stroke;enable-background:accumulate;stop-color:#000000;stop-opacity:1"
       id="path31" />
    <path
       d="M 12.404411,4.4395223 C 10.586176,4.7468918 8.9688412,5.1540748 7.6279582,5.6384155 H 8.7255656 C 10.460738,5.1102921 12.574849,4.6965165 14.934489,4.4395223 Z"
       style="baseline-shift:baseline;display:inline;overflow:visible;vector-effect:none;fill:#ebb680;fill-opacity:0.216804;stroke-linecap:round;stroke-linejoin:round;paint-order:fill markers stroke;enable-background:accumulate;stop-color:#000000;stop-opacity:1"
       id="path30" />
    <path
       d="m 12.404411,4.4395223 h 2.530078 c 1.75105,-0.1907112 3.63736,-0.2950724 5.603792,-0.2950724 h 11.839588 c 1.966433,0 3.852742,0.1043612 5.603792,0.2950724 h 2.530595 C 38.097163,4.031255 35.327041,3.7997681 32.377352,3.7997681 H 20.539315 c -2.949689,0 -5.719811,0.2314869 -8.134904,0.6397542 z"
       style="baseline-shift:baseline;display:inline;overflow:visible;vector-effect:none;fill:#ebb680;fill-opacity:0.216804;stroke-linecap:round;stroke-linejoin:round;paint-order:fill markers stroke;enable-background:accumulate;stop-color:#000000;stop-opacity:1"
       id="path29" />
    <path
       d="M 6.6791789,5.6384155 H 7.6279582 C 8.9688412,5.1540748 10.586176,4.7468918 12.404411,4.4395223 H 10.597803 C 9.8033109,4.6154321 9.0579662,4.8123168 8.3684814,5.0276001 7.7602896,5.2175007 7.1955366,5.4207402 6.6791789,5.6384155 Z"
       style="baseline-shift:baseline;display:inline;overflow:visible;vector-effect:none;fill:#ebb680;fill-opacity:0.216804;stroke-linecap:round;stroke-linejoin:round;paint-order:fill markers stroke;enable-background:accumulate;stop-color:#000000;stop-opacity:1"
       id="path28" />
    <path
       d="M 5.2322388,6.3613688 V 6.7680623 C 5.8764831,6.3589977 6.6837257,5.979482 7.6279582,5.6384155 H 6.6791789 C 6.1432505,5.864341 5.6591335,6.1053664 5.2322388,6.3613688 Z"
       style="baseline-shift:baseline;display:inline;overflow:visible;vector-effect:none;fill-opacity:0;stroke-linecap:round;stroke-linejoin:round;paint-order:fill markers stroke;enable-background:accumulate;stop-color:#000000;stop-opacity:1"
       id="path27" />
    <path
       d="M 4.0328288,7.2682902 V 7.7783366 C 4.3246698,7.425842 4.7285449,7.0878842 5.2322388,6.7680623 V 6.3613688 C 5.012139,6.4933594 4.8073649,6.6295947 4.6183228,6.7696126 4.4028888,6.9291783 4.2067314,7.0954833 4.0328288,7.2682902 Z"
       style="baseline-shift:baseline;display:inline;overflow:visible;vector-effect:none;fill:#ebb680;fill-opacity:0.216804;stroke-linecap:round;stroke-linejoin:round;paint-order:fill markers stroke;enable-background:accumulate;stop-color:#000000;stop-opacity:1"
       id="path26" />
    <path
       d="m 4.0328288,46.270561 v -0.50953 C 3.6773147,45.33163 3.4881592,44.880936 3.4881592,44.415894 V 9.1234741 c 0,-0.4650424 0.1891555,-0.9157366 0.5446696,-1.3451375 V 7.2682902 C 3.4729956,7.8245959 3.1439941,8.4473096 3.1439941,9.1229574 V 44.415894 c 0,0.675647 0.3290015,1.298361 0.8888347,1.854667 z"
       style="baseline-shift:baseline;display:inline;overflow:visible;vector-effect:none;fill:#ebb680;fill-opacity:0.216804;stroke-linecap:round;stroke-linejoin:round;paint-order:fill markers stroke;enable-background:accumulate;stop-color:#000000;stop-opacity:1"
       id="path25" />
    <path
       d="M 5.2322388,47.177999 V 46.771305 C 4.728545,46.451484 4.3246697,46.113526 4.0328288,45.761031 v 0.50953 c 0.1739026,0.172807 0.37006,0.339629 0.585494,0.499194 0.189042,0.140018 0.3938163,0.276119 0.613916,0.408244 z"
       style="baseline-shift:baseline;display:inline;overflow:visible;vector-effect:none;fill:#ebb680;fill-opacity:0.216804;stroke-linecap:round;stroke-linejoin:round;paint-order:fill markers stroke;enable-background:accumulate;stop-color:#000000;stop-opacity:1"
       id="path24" />
    <path
       d="M 6.7504924,47.931441 H 7.7147746 C 6.7332773,47.582398 5.8960718,47.192808 5.2322388,46.771305 v 0.406694 c 0.4457849,0.267602 0.9538202,0.518521 1.5182536,0.753442 z"
       style="baseline-shift:baseline;display:inline;overflow:visible;vector-effect:none;fill-opacity:0;stroke-linecap:round;stroke-linejoin:round;paint-order:fill markers stroke;enable-background:accumulate;stop-color:#000000;stop-opacity:1"
       id="path23" />
    <path
       d="m 10.735779,49.131368 h 1.858284 C 10.737768,48.826994 9.0853246,48.41884 7.7147746,47.931441 H 6.7504924 c 0.4968592,0.206796 1.0377298,0.401215 1.617989,0.582394 0.7291195,0.227658 1.5212287,0.434213 2.3672976,0.617533 z"
       style="baseline-shift:baseline;display:inline;overflow:visible;vector-effect:none;fill:#ebb680;fill-opacity:0.216804;stroke-linecap:round;stroke-linejoin:round;paint-order:fill markers stroke;enable-background:accumulate;stop-color:#000000;stop-opacity:1"
       id="path22" />
    <path
       d="M 42.180888,49.131368 H 40.322603 C 37.952559,49.519981 35.250143,49.7396 32.377352,49.7396 H 20.539315 c -2.872791,0 -5.575207,-0.219619 -7.945252,-0.608232 h -1.858284 c 2.785729,0.60359 6.157537,0.952397 9.802502,0.952397 h 11.839588 c 3.644966,0 7.01729,-0.348807 9.803019,-0.952397 z"
       style="baseline-shift:baseline;display:inline;overflow:visible;vector-effect:none;fill:#ebb680;fill-opacity:0.216804;stroke-linecap:round;stroke-linejoin:round;paint-order:fill markers stroke;enable-background:accumulate;stop-color:#000000;stop-opacity:1"
       id="path21" />
    <path
       d="m 46.165658,47.931441 h -0.963766 c -1.37055,0.487399 -3.022994,0.895553 -4.879289,1.199927 h 1.858285 c 0.846069,-0.18332 1.638178,-0.389875 2.367297,-0.617533 0.580259,-0.181179 1.120613,-0.375598 1.617473,-0.582394 z"
       style="baseline-shift:baseline;display:inline;overflow:visible;vector-effect:none;fill:#ebb680;fill-opacity:0.216804;stroke-linecap:round;stroke-linejoin:round;paint-order:fill markers stroke;enable-background:accumulate;stop-color:#000000;stop-opacity:1"
       id="path20" />
    <path
       d="m 47.525264,47.271016 v -0.401525 c -0.636728,0.38392 -1.418609,0.740196 -2.323372,1.06195 h 0.963766 c 0.49857,-0.207508 0.953077,-0.427399 1.359606,-0.660425 z"
       style="baseline-shift:baseline;display:inline;overflow:visible;vector-effect:none;fill-opacity:0;stroke-linecap:round;stroke-linejoin:round;paint-order:fill markers stroke;enable-background:accumulate;stop-color:#000000;stop-opacity:1"
       id="path19" />
    <path
       d="m 48.724674,46.420939 v -0.481107 c -0.307498,0.324076 -0.710605,0.63493 -1.19941,0.929659 v 0.401525 c 0.280938,-0.161035 0.538843,-0.328151 0.772563,-0.501261 0.152274,-0.112785 0.294889,-0.229356 0.426847,-0.348816 z"
       style="baseline-shift:baseline;display:inline;overflow:visible;vector-effect:none;fill:#ebb680;fill-opacity:0.216804;stroke-linecap:round;stroke-linejoin:round;paint-order:fill markers stroke;enable-background:accumulate;stop-color:#000000;stop-opacity:1"
       id="path18" />
    <path
       d="m 48.724674,7.1179118 v 0.4816243 c 0.457815,0.4824967 0.703833,0.9938505 0.703833,1.523938 V 44.415894 c 0,0.530087 -0.246018,1.041441 -0.703833,1.523938 v 0.481107 c 0.655739,-0.593631 1.047999,-1.267866 1.047999,-2.005045 V 9.1229574 c 0,-0.7371792 -0.39226,-1.4114145 -1.047999,-2.0050456 z"
       style="baseline-shift:baseline;display:inline;overflow:visible;vector-effect:none;fill:#ebb680;fill-opacity:0.216804;stroke-linecap:round;stroke-linejoin:round;paint-order:fill markers stroke;enable-background:accumulate;stop-color:#000000;stop-opacity:1"
       id="path17" />
    <path
       d="m 47.525264,6.268868 v 0.4010091 c 0.488805,0.2947289 0.891912,0.6055822 1.19941,0.929659 V 7.1179118 C 48.592716,6.9984518 48.450101,6.8823975 48.297827,6.7696126 48.064107,6.5965031 47.806202,6.4297114 47.525264,6.268868 Z"
       style="baseline-shift:baseline;display:inline;overflow:visible;vector-effect:none;fill:#ebb680;fill-opacity:0.216804;stroke-linecap:round;stroke-linejoin:round;paint-order:fill markers stroke;enable-background:accumulate;stop-color:#000000;stop-opacity:1"
       id="path16" />
    <path
       d="m 46.236971,5.6384155 h -0.948263 c 0.868168,0.3135909 1.620211,0.6598308 2.236556,1.0314616 V 6.268868 C 47.138237,6.0472859 46.707595,5.8368116 46.236971,5.6384155 Z"
       style="baseline-shift:baseline;display:inline;overflow:visible;vector-effect:none;fill-opacity:0;stroke-linecap:round;stroke-linejoin:round;paint-order:fill markers stroke;enable-background:accumulate;stop-color:#000000;stop-opacity:1"
       id="path15" />
    <path
       d="m 42.318347,4.4395223 h -1.806091 c 1.818235,0.3073695 3.435569,0.7145525 4.776452,1.1988932 h 0.948263 C 45.720613,5.4207402 45.156377,5.2175007 44.548185,5.0276001 43.8587,4.8123168 43.112839,4.6154321 42.318347,4.4395223 Z"
       style="baseline-shift:baseline;display:inline;overflow:visible;vector-effect:none;fill:#ebb680;fill-opacity:0.216804;stroke-linecap:round;stroke-linejoin:round;paint-order:fill markers stroke;enable-background:accumulate;stop-color:#000000;stop-opacity:1"
       id="path14" />
    <path
       d="m 20.538281,3.4550863 c -3.705143,0 -7.128524,0.3618362 -9.940478,0.984436 h 1.806608 C 14.819504,4.031255 17.589626,3.7997681 20.539315,3.7997681 h 11.838037 c 2.949689,0 5.719811,0.2314869 8.134904,0.6397542 h 1.806091 C 39.506393,3.8169225 36.083012,3.4550863 32.377869,3.4550863 Z"
       style="baseline-shift:baseline;display:inline;overflow:visible;vector-effect:none;fill:#ebb680;fill-opacity:0.216804;stroke-linecap:round;stroke-linejoin:round;paint-order:fill markers stroke;enable-background:accumulate;stop-color:#000000;stop-opacity:1"
       id="path13" />
    <path
       id="path6-2"
       style="baseline-shift:baseline;display:inline;overflow:visible;vector-effect:none;fill:#2a1c0d;fill-opacity:1;stroke-linecap:round;stroke-linejoin:round;paint-order:fill markers stroke;enable-background:accumulate;stop-color:#000000"
       d="m 21.318955,3.429288 c -0.665287,0 -1.321284,0.011696 -1.966288,0.034623 -0.680021,0.024172 -1.348032,0.060817 -2.000912,0.1090373 V 18.181876 33.953524 c 1.78e-4,1.10463 0.895765,1.999985 2.000395,1.999877 h 15.855363 c 1.104428,-1.78e-4 1.9997,-0.895449 1.999878,-1.999877 v -15.11329 c -1.78e-4,-1.104428 -0.89545,-1.9997 -1.999878,-1.999878 h -8.935889 c -1.104428,1.78e-4 -1.9997,0.89545 -1.999878,1.999878 v 2.80293 c -1.192699,0.324767 -1.99471,1.108075 -1.99471,2.874243 0,2.638286 1.789761,6.470923 3.997689,6.470923 2.207927,0 3.997688,-3.832637 3.997688,-6.470923 0,-1.768971 -0.804562,-2.551966 -2.000394,-2.875793 v -0.801502 h 4.935099 V 31.953646 H 21.352028 V 18.181876 3.429288 Z" />
    <path
       id="path6"
       style="baseline-shift:baseline;display:inline;overflow:visible;vector-effect:none;fill:#a97035;stroke-linecap:round;stroke-linejoin:round;paint-order:fill markers stroke;enable-background:accumulate;stop-color:#000000;stop-opacity:1"
       d="M 20.539315 4.1496175 C 19.874028 4.1496175 19.218031 4.1613137 18.573027 4.1842407 C 17.893006 4.2084127 17.224995 4.2450578 16.572115 4.293278 L 16.572115 18.902205 L 16.572115 34.673853 C 16.572293 35.778483 17.46788 36.673838 18.57251 36.67373 L 34.427873 36.67373 C 35.532301 36.673552 36.427573 35.778281 36.427751 34.673853 L 36.427751 19.560563 C 36.427573 18.456135 35.532301 17.560863 34.427873 17.560685 L 25.491984 17.560685 C 24.387556 17.560863 23.492284 18.456135 23.492106 19.560563 L 23.492106 22.363493 C 22.299407 22.68826 21.497396 23.471568 21.497396 25.237736 C 21.497396 27.876022 23.287157 31.708659 25.495085 31.708659 C 27.703012 31.708659 29.492773 27.876022 29.492773 25.237736 C 29.492773 23.468765 28.688211 22.68577 27.492379 22.361943 L 27.492379 21.560441 L 32.427478 21.560441 L 32.427478 32.673975 L 20.572388 32.673975 L 20.572388 18.902205 L 20.572388 4.1496175 L 20.539315 4.1496175 z " />
    <ellipse
       style="fill:#2a1c0d;fill-opacity:1;stroke:#a97035;stroke-width:0;stroke-linecap:round;stroke-linejoin:round;stroke-dasharray:none;stroke-opacity:1;paint-order:fill markers stroke"
       id="path7"
       cx="24.220245"
       cy="25.974703"
       rx="0.83718908"
       ry="0.9172681" />
    <ellipse
       style="fill:#2a1c0d;fill-opacity:1;stroke:#a97035;stroke-width:0;stroke-linecap:round;stroke-linejoin:round;stroke-dasharray:none;stroke-opacity:1;paint-order:fill markers stroke"
       id="path7-2"
       cx="26.644863"
       cy="25.945751"
       rx="0.83718908"
       ry="0.9172681" />
    <ellipse
       style="fill:#a2978c;fill-opacity:1;stroke:#a97035;stroke-width:0;stroke-linecap:round;stroke-linejoin:round;stroke-dasharray:none;stroke-opacity:1;paint-order:fill markers stroke"
       id="path8"
       cx="9.8618631"
       cy="34.054089"
       rx="0.26405731"
       ry="0.33487564"
       transform="rotate(-27.580576)" />
    <ellipse
       style="fill:#a2978c;fill-opacity:1;stroke:#a97035;stroke-width:0;stroke-linecap:round;stroke-linejoin:round;stroke-dasharray:none;stroke-opacity:1;paint-order:fill markers stroke"
       id="path8-6"
       cx="12.077081"
       cy="35.110016"
       rx="0.26405731"
       ry="0.33487564"
       transform="rotate(-27.580576)" />
  </g>
</svg>
