<?xml version="1.0" encoding="UTF-8" standalone="no"?>
<!-- Created with Inkscape (http://www.inkscape.org/) -->

<svg
   width="200"
   height="201.17665"
   viewBox="0 0 52.916666 53.227988"
   version="1.1"
   id="svg1"
   inkscape:version="1.4.2 (f4327f4, 2025-05-13)"
   sodipodi:docname="Fuel3.svg"
   xmlns:inkscape="http://www.inkscape.org/namespaces/inkscape"
   xmlns:sodipodi="http://sodipodi.sourceforge.net/DTD/sodipodi-0.dtd"
   xmlns:xlink="http://www.w3.org/1999/xlink"
   xmlns="http://www.w3.org/2000/svg"
   xmlns:svg="http://www.w3.org/2000/svg">
  <sodipodi:namedview
     id="namedview1"
     pagecolor="#ffffff"
     bordercolor="#000000"
     borderopacity="0.25"
     inkscape:showpageshadow="2"
     inkscape:pageopacity="0.0"
     inkscape:pagecheckerboard="0"
     inkscape:deskcolor="#d1d1d1"
     inkscape:document-units="mm"
     inkscape:zoom="3.2124158"
     inkscape:cx="-14.630734"
     inkscape:cy="28.171945"
     inkscape:window-width="3840"
     inkscape:window-height="2054"
     inkscape:window-x="-11"
     inkscape:window-y="-11"
     inkscape:window-maximized="1"
     inkscape:current-layer="layer1" />
  <defs
     id="defs1">
    <inkscape:path-effect
       effect="spiro"
       id="path-effect8"
       is_visible="true"
       lpeversion="1" />
    <inkscape:path-effect
       effect="mirror_symmetry"
       start_point="17.255329,9.2448751"
       end_point="17.255329,29.300879"
       center_point="17.255329,19.272877"
       id="path-effect5"
       is_visible="true"
       lpeversion="1.2"
       lpesatellites=""
       mode="free"
       discard_orig_path="false"
       fuse_paths="true"
       oposite_fuse="false"
       split_items="false"
       split_open="false"
       link_styles="false" />
    <inkscape:path-effect
       effect="mirror_symmetry"
       start_point="27.030316,8.4102839"
       end_point="27.030316,28.182973"
       center_point="27.030316,18.296628"
       id="path-effect3"
       is_visible="true"
       lpeversion="1.2"
       lpesatellites=""
       mode="free"
       discard_orig_path="false"
       fuse_paths="false"
       oposite_fuse="false"
       split_items="false"
       split_open="false"
       link_styles="false" />
    <inkscape:path-effect
       effect="spiro"
       id="path-effect8-8"
       is_visible="true"
       lpeversion="1" />
    <inkscape:path-effect
       effect="spiro"
       id="path-effect8-0"
       is_visible="true"
       lpeversion="1" />
    <inkscape:path-effect
       effect="spiro"
       id="path-effect8-0-9"
       is_visible="true"
       lpeversion="1" />
    <inkscape:path-effect
       effect="spiro"
       id="path-effect8-8-6"
       is_visible="true"
       lpeversion="1" />
    <inkscape:path-effect
       effect="spiro"
       id="path-effect8-3"
       is_visible="true"
       lpeversion="1" />
    <linearGradient
       inkscape:collect="always"
       xlink:href="#linearGradient33"
       id="linearGradient2"
       gradientUnits="userSpaceOnUse"
       x1="9.157506"
       y1="0.65352297"
       x2="9.5236139"
       y2="7.639287" />
    <linearGradient
       id="linearGradient33"
       inkscape:collect="always">
      <stop
         style="stop-color:#ffd1a8;stop-opacity:1;"
         offset="0"
         id="stop33" />
      <stop
         style="stop-color:#a06c34;stop-opacity:1;"
         offset="0.69575757"
         id="stop34" />
    </linearGradient>
    <linearGradient
       inkscape:collect="always"
       xlink:href="#linearGradient33"
       id="linearGradient14"
       gradientUnits="userSpaceOnUse"
       x1="9.157506"
       y1="0.65352297"
       x2="9.5236139"
       y2="7.639287" />
    <linearGradient
       inkscape:collect="always"
       xlink:href="#linearGradient33"
       id="linearGradient15"
       gradientUnits="userSpaceOnUse"
       x1="9.157506"
       y1="0.65352297"
       x2="9.5236139"
       y2="7.639287" />
    <linearGradient
       inkscape:collect="always"
       xlink:href="#linearGradient33"
       id="linearGradient16"
       gradientUnits="userSpaceOnUse"
       x1="9.157506"
       y1="0.65352297"
       x2="9.5236139"
       y2="7.639287" />
    <linearGradient
       inkscape:collect="always"
       xlink:href="#linearGradient33"
       id="linearGradient17"
       gradientUnits="userSpaceOnUse"
       x1="9.157506"
       y1="0.65352297"
       x2="9.5236139"
       y2="7.639287" />
  </defs>
  <g
     inkscape:label="Ebene 1"
     inkscape:groupmode="layer"
     id="layer1"
     transform="translate(-0.20000279)">
    <rect
       style="fill:#d9a87a;fill-opacity:1;stroke:#212532;stroke-width:1.29973;stroke-linejoin:round;stroke-miterlimit:8.2;stroke-dasharray:none;stroke-opacity:0.995995"
       id="rect1"
       width="51.616936"
       height="51.616943"
       x="0.84986776"
       y="0.96118188"
       ry="5.9818354"
       rx="19.15794" />
    <rect
       style="fill:#ed7a25;fill-opacity:1;stroke:#212532;stroke-width:0.689558;stroke-linejoin:round;stroke-miterlimit:8.2;stroke-dasharray:none;stroke-opacity:0.995995"
       id="rect1-8"
       width="45.94006"
       height="45.940067"
       x="3.6883085"
       y="3.7996202"
       ry="5.3239479"
       rx="17.050934" />
    <path
       sodipodi:type="star"
       style="fill:url(#linearGradient14);fill-opacity:1;fill-rule:nonzero;stroke:#322d21;stroke-width:0.443;stroke-linejoin:round;stroke-miterlimit:8.2;stroke-opacity:0.995995"
       id="path1-5-7-01"
       inkscape:flatsided="false"
       sodipodi:sides="5"
       sodipodi:cx="9.3473988"
       sodipodi:cy="4.4553022"
       sodipodi:r1="3.4362388"
       sodipodi:r2="2.3474281"
       sodipodi:arg1="0.9357696"
       sodipodi:arg2="1.5640882"
       inkscape:rounded="0.12173243"
       inkscape:randomized="0"
       d="M 11.385772,7.2216663 C 11.183344,7.3708242 9.6145864,6.8009908 9.3631455,6.8026775 9.1117046,6.8043642 7.5507336,7.3951928 7.3463222,7.2487642 7.1419108,7.1023355 7.1990819,5.4342704 7.1197782,5.1956571 7.0404745,4.9570438 5.9961966,3.6550483 6.0722919,3.4153926 6.1483873,3.1757368 7.7524783,2.7146493 7.9549068,2.5654914 8.1573353,2.4163336 9.0729071,1.0208275 9.324348,1.0191408 c 0.2514409,-0.00169 1.185653,1.3814106 1.390064,1.5278393 0.204411,0.1464286 1.814544,0.585954 1.893847,0.8245673 0.0793,0.2386133 -0.947412,1.5545019 -1.023508,1.7941577 -0.0761,0.2396557 0.0034,1.9068034 -0.198979,2.0559612 z"
       inkscape:transform-center-x="-0.22750039"
       inkscape:transform-center-y="-0.58914029"
       transform="matrix(-0.83003047,-0.10965987,-0.10965987,0.83003047,44.570875,0.36370502)" />
    <path
       sodipodi:type="star"
       style="fill:url(#linearGradient15);fill-opacity:1;fill-rule:nonzero;stroke:#322d21;stroke-width:0.443;stroke-linejoin:round;stroke-miterlimit:8.2;stroke-opacity:0.995995"
       id="path1-5-7-01-0"
       inkscape:flatsided="false"
       sodipodi:sides="5"
       sodipodi:cx="9.3473988"
       sodipodi:cy="4.4553022"
       sodipodi:r1="3.4362388"
       sodipodi:r2="2.3474281"
       sodipodi:arg1="0.9357696"
       sodipodi:arg2="1.5640882"
       inkscape:rounded="0.12173243"
       inkscape:randomized="0"
       d="M 11.385772,7.2216663 C 11.183344,7.3708242 9.6145864,6.8009908 9.3631455,6.8026775 9.1117046,6.8043642 7.5507336,7.3951928 7.3463222,7.2487642 7.1419108,7.1023355 7.1990819,5.4342704 7.1197782,5.1956571 7.0404745,4.9570438 5.9961966,3.6550483 6.0722919,3.4153926 6.1483873,3.1757368 7.7524783,2.7146493 7.9549068,2.5654914 8.1573353,2.4163336 9.0729071,1.0208275 9.324348,1.0191408 c 0.2514409,-0.00169 1.185653,1.3814106 1.390064,1.5278393 0.204411,0.1464286 1.814544,0.585954 1.893847,0.8245673 0.0793,0.2386133 -0.947412,1.5545019 -1.023508,1.7941577 -0.0761,0.2396557 0.0034,1.9068034 -0.198979,2.0559612 z"
       inkscape:transform-center-x="0.2275005"
       inkscape:transform-center-y="-0.58914029"
       transform="matrix(0.83003047,-0.10965987,0.10965987,0.83003047,8.7473304,0.36370502)" />
    <path
       sodipodi:type="star"
       style="fill:url(#linearGradient16);fill-opacity:1;fill-rule:nonzero;stroke:#322d21;stroke-width:0.443;stroke-linejoin:round;stroke-miterlimit:8.2;stroke-opacity:0.995995"
       id="path1-5-7"
       inkscape:flatsided="false"
       sodipodi:sides="5"
       sodipodi:cx="9.3473988"
       sodipodi:cy="4.4553022"
       sodipodi:r1="3.4362388"
       sodipodi:r2="2.3474281"
       sodipodi:arg1="0.9357696"
       sodipodi:arg2="1.5640882"
       inkscape:rounded="0.12173243"
       inkscape:randomized="0"
       d="M 11.385772,7.2216663 C 11.183344,7.3708242 9.6145864,6.8009908 9.3631455,6.8026775 9.1117046,6.8043642 7.5507336,7.3951928 7.3463222,7.2487642 7.1419108,7.1023355 7.1990819,5.4342704 7.1197782,5.1956571 7.0404745,4.9570438 5.9961966,3.6550483 6.0722919,3.4153926 6.1483873,3.1757368 7.7524783,2.7146493 7.9549068,2.5654914 8.1573353,2.4163336 9.0729071,1.0208275 9.324348,1.0191408 c 0.2514409,-0.00169 1.185653,1.3814106 1.390064,1.5278393 0.204411,0.1464286 1.814544,0.585954 1.893847,0.8245673 0.0793,0.2386133 -0.947412,1.5545019 -1.023508,1.7941577 -0.0761,0.2396557 0.0034,1.9068034 -0.198979,2.0559612 z"
       inkscape:transform-center-x="-0.35624268"
       inkscape:transform-center-y="-0.78137341"
       transform="matrix(1.2056398,0.27960391,-0.27960391,1.2056398,23.235225,-2.4282795)" />
    <path
       sodipodi:type="star"
       style="fill:url(#linearGradient17);fill-opacity:1;fill-rule:nonzero;stroke:#322d21;stroke-width:0.443;stroke-linejoin:round;stroke-miterlimit:8.2;stroke-opacity:0.995995"
       id="path1-5-7-0"
       inkscape:flatsided="false"
       sodipodi:sides="5"
       sodipodi:cx="9.3473988"
       sodipodi:cy="4.4553022"
       sodipodi:r1="3.4362388"
       sodipodi:r2="2.3474281"
       sodipodi:arg1="0.9357696"
       sodipodi:arg2="1.5640882"
       inkscape:rounded="0.12173243"
       inkscape:randomized="0"
       d="M 11.385772,7.2216663 C 11.183344,7.3708242 9.6145864,6.8009908 9.3631455,6.8026775 9.1117046,6.8043642 7.5507336,7.3951928 7.3463222,7.2487642 7.1419108,7.1023355 7.1990819,5.4342704 7.1197782,5.1956571 7.0404745,4.9570438 5.9961966,3.6550483 6.0722919,3.4153926 6.1483873,3.1757368 7.7524783,2.7146493 7.9549068,2.5654914 8.1573353,2.4163336 9.0729071,1.0208275 9.324348,1.0191408 c 0.2514409,-0.00169 1.185653,1.3814106 1.390064,1.5278393 0.204411,0.1464286 1.814544,0.585954 1.893847,0.8245673 0.0793,0.2386133 -0.947412,1.5545019 -1.023508,1.7941577 -0.0761,0.2396557 0.0034,1.9068034 -0.198979,2.0559612 z"
       inkscape:transform-center-x="0.35624215"
       inkscape:transform-center-y="-0.78137341"
       transform="matrix(-1.2056398,0.27960391,0.27960391,1.2056398,30.270452,-2.4282795)" />
    <path
       sodipodi:type="star"
       style="fill:url(#linearGradient2);fill-opacity:1;fill-rule:nonzero;stroke:#322d21;stroke-width:0.443;stroke-linejoin:round;stroke-miterlimit:8.2;stroke-opacity:0.995995"
       id="path1-5"
       inkscape:flatsided="false"
       sodipodi:sides="5"
       sodipodi:cx="9.3473988"
       sodipodi:cy="4.4553022"
       sodipodi:r1="3.4362388"
       sodipodi:r2="2.3474281"
       sodipodi:arg1="0.9357696"
       sodipodi:arg2="1.5640882"
       inkscape:rounded="0.12173243"
       inkscape:randomized="0"
       d="M 11.385772,7.2216663 C 11.183344,7.3708242 9.6145864,6.8009908 9.3631455,6.8026775 9.1117046,6.8043642 7.5507336,7.3951928 7.3463222,7.2487642 7.1419108,7.1023355 7.1990819,5.4342704 7.1197782,5.1956571 7.0404745,4.9570438 5.9961966,3.6550483 6.0722919,3.4153926 6.1483873,3.1757368 7.7524783,2.7146493 7.9549068,2.5654914 8.1573353,2.4163336 9.0729071,1.0208275 9.324348,1.0191408 c 0.2514409,-0.00169 1.185653,1.3814106 1.390064,1.5278393 0.204411,0.1464286 1.814544,0.585954 1.893847,0.8245673 0.0793,0.2386133 -0.947412,1.5545019 -1.023508,1.7941577 -0.0761,0.2396557 0.0034,1.9068034 -0.198979,2.0559612 z"
       inkscape:transform-center-x="0.12457512"
       inkscape:transform-center-y="-1.5679452"
       transform="matrix(1.8544039,0,0,1.8544039,9.3326902,-1.4791375)" />
    <path
       d="m 21.418548,19.900685 a 4.7809788,4.7809788 0 0 0 -3.4401,1.460892 l -4.016292,4.161503 a 5.0271673,5.0271673 0 0 0 -1.41025,3.49126 v 15.089002 a 2.0302411,2.0302411 0 0 0 2.030368,2.02985 h 29.543415 a 2.0302411,2.0302411 0 0 0 2.030367,-2.02985 V 27.861439 a 7.3590542,7.3590542 0 0 0 -1.040763,-3.773413 l -1.45986,-2.444295 a 3.5772569,3.5772569 0 0 0 -3.07113,-1.743046 z m 5.914367,2.306319 h 8.654769 c 1.059879,0 2.52271,0.705328 2.585372,1.724442 0.08208,1.334956 -0.248065,2.92902 -0.666109,2.92902 H 25.413653 c -0.302148,0 -0.587245,-1.62232 -0.569475,-2.951241 0.01325,-0.991147 1.428858,-1.702221 2.488737,-1.702221 z"
       style="fill:#ffac55;stroke:#2e241a;stroke-width:1.171;stroke-linecap:round;stroke-linejoin:round"
       id="path2" />
    <path
       style="fill:#7d542a;fill-opacity:1;stroke:#2e241a;stroke-width:1.171;stroke-linecap:round;stroke-linejoin:round"
       d="m 13.962156,25.52308 -4.88914,-11.007265 -3.3974632,-2.059068 1.1942596,-1.482529 4.7152666,1.935524 5.747326,9.121236 z"
       id="path3" />
    <rect
       style="fill:#f4c698;fill-opacity:1;stroke:#2e241a;stroke-width:1.171;stroke-linecap:round;stroke-linejoin:round"
       id="rect3"
       width="24.984636"
       height="13.919179"
       x="17.256069"
       y="29.220852"
       ry="0.46591395" />
    <path
       id="path8-5"
       style="fill:#d88d79;fill-opacity:0.5;stroke:#322d21;stroke-width:0.572201;stroke-linejoin:round;stroke-miterlimit:8.2;stroke-opacity:0.995995"
       d="m 36.484733,36.899819 c -0.908347,3.20705 -4.145238,5.458791 -7.229799,5.029405 -3.084561,-0.429381 -4.848728,-3.377296 -3.940382,-6.584342 0.706733,-2.495218 3.082194,-4.190962 5.079156,-3.639603 0.569691,0.157289 1.30108,1.124584 1.30108,1.124584 0,0 1.231063,-0.695448 2.016542,-0.68986 2.417079,0.01718 3.513835,2.145617 2.773403,4.759816 z"
       sodipodi:nodetypes="sssscss" />
    <path
       style="fill:#d88d79;fill-opacity:0.5;stroke:#322d21;stroke-width:0.523433;stroke-linejoin:round;stroke-miterlimit:8.2;stroke-opacity:0.995995"
       d="m 31.780645,32.632637 c 0,0 0.155703,-0.33465 0.230477,-1.30848 0.07478,-0.973828 -0.557654,-1.240435 -0.557654,-1.240435"
       id="path9-7"
       sodipodi:nodetypes="czc" />
  </g>
</svg>
