<?xml version="1.0" encoding="UTF-8" standalone="no"?>
<!-- Created with Inkscape (http://www.inkscape.org/) -->

<svg
   width="200"
   height="201.17665"
   viewBox="0 0 52.916666 53.227988"
   version="1.1"
   id="svg1"
   inkscape:version="1.4.2 (f4327f4, 2025-05-13)"
   sodipodi:docname="Fuel2.svg"
   xmlns:inkscape="http://www.inkscape.org/namespaces/inkscape"
   xmlns:sodipodi="http://sodipodi.sourceforge.net/DTD/sodipodi-0.dtd"
   xmlns="http://www.w3.org/2000/svg"
   xmlns:svg="http://www.w3.org/2000/svg">
  <sodipodi:namedview
     id="namedview1"
     pagecolor="#ffffff"
     bordercolor="#000000"
     borderopacity="0.25"
     inkscape:showpageshadow="2"
     inkscape:pageopacity="0.0"
     inkscape:pagecheckerboard="0"
     inkscape:deskcolor="#d1d1d1"
     inkscape:document-units="mm"
     inkscape:zoom="3.2124158"
     inkscape:cx="3.4242143"
     inkscape:cy="20.700932"
     inkscape:window-width="3840"
     inkscape:window-height="2054"
     inkscape:window-x="-11"
     inkscape:window-y="-11"
     inkscape:window-maximized="1"
     inkscape:current-layer="layer1" />
  <defs
     id="defs1">
    <inkscape:path-effect
       effect="spiro"
       id="path-effect8"
       is_visible="true"
       lpeversion="1" />
    <inkscape:path-effect
       effect="mirror_symmetry"
       start_point="17.255329,9.2448751"
       end_point="17.255329,29.300879"
       center_point="17.255329,19.272877"
       id="path-effect5"
       is_visible="true"
       lpeversion="1.2"
       lpesatellites=""
       mode="free"
       discard_orig_path="false"
       fuse_paths="true"
       oposite_fuse="false"
       split_items="false"
       split_open="false"
       link_styles="false" />
    <inkscape:path-effect
       effect="mirror_symmetry"
       start_point="27.030316,8.4102839"
       end_point="27.030316,28.182973"
       center_point="27.030316,18.296628"
       id="path-effect3"
       is_visible="true"
       lpeversion="1.2"
       lpesatellites=""
       mode="free"
       discard_orig_path="false"
       fuse_paths="false"
       oposite_fuse="false"
       split_items="false"
       split_open="false"
       link_styles="false" />
    <inkscape:path-effect
       effect="spiro"
       id="path-effect8-8"
       is_visible="true"
       lpeversion="1" />
    <inkscape:path-effect
       effect="spiro"
       id="path-effect8-0"
       is_visible="true"
       lpeversion="1" />
    <inkscape:path-effect
       effect="spiro"
       id="path-effect8-0-9"
       is_visible="true"
       lpeversion="1" />
    <inkscape:path-effect
       effect="spiro"
       id="path-effect8-8-6"
       is_visible="true"
       lpeversion="1" />
    <inkscape:path-effect
       effect="spiro"
       id="path-effect8-3"
       is_visible="true"
       lpeversion="1" />
  </defs>
  <g
     inkscape:label="Ebene 1"
     inkscape:groupmode="layer"
     id="layer1"
     transform="translate(-0.20000279)">
    <path
       d="m 22.022008,19.16669 a 4.7809788,4.7809788 0 0 0 -3.4401,1.460892 l -4.016292,4.161503 a 5.0271673,5.0271673 0 0 0 -1.41025,3.49126 v 15.089002 a 2.0302411,2.0302411 0 0 0 2.030368,2.02985 h 29.543415 a 2.0302411,2.0302411 0 0 0 2.030367,-2.02985 V 27.127444 a 7.3590542,7.3590542 0 0 0 -1.040763,-3.773413 l -1.45986,-2.444295 a 3.5772569,3.5772569 0 0 0 -3.07113,-1.743046 z m 5.914367,2.306319 h 8.654769 c 1.059879,0 2.52271,0.705328 2.585372,1.724442 0.08208,1.334956 -0.248065,2.92902 -0.666109,2.92902 H 26.017113 c -0.302148,0 -0.587245,-1.62232 -0.569475,-2.951241 0.01325,-0.991147 1.428858,-1.702221 2.488737,-1.702221 z"
       style="fill:#ff992d;stroke:#2e241a;stroke-width:1.171;stroke-linecap:round;stroke-linejoin:round;fill-opacity:1"
       id="path2" />
    <path
       style="fill:#7d542a;fill-opacity:1;stroke:#2e241a;stroke-width:1.171;stroke-linecap:round;stroke-linejoin:round"
       d="M 14.565616,24.789085 9.6764751,13.78182 6.2790124,11.722752 7.473272,10.240223 l 4.715267,1.935524 5.747326,9.121236 z"
       id="path3" />
    <rect
       style="fill:#f4c698;fill-opacity:1;stroke:#2e241a;stroke-width:1.171;stroke-linecap:round;stroke-linejoin:round"
       id="rect3"
       width="24.984636"
       height="13.919179"
       x="17.859529"
       y="28.486855"
       ry="0.46591395" />
    <path
       id="path8-5"
       style="fill:#d88d79;fill-opacity:0.5;stroke:#322d21;stroke-width:0.572201;stroke-linejoin:round;stroke-miterlimit:8.2;stroke-opacity:0.995995"
       d="m 37.088193,36.165824 c -0.908347,3.20705 -4.145238,5.458791 -7.229799,5.029405 -3.084561,-0.429381 -4.848728,-3.377296 -3.940382,-6.584342 0.706733,-2.495218 3.082194,-4.190962 5.079156,-3.639603 0.569691,0.157289 1.30108,1.124584 1.30108,1.124584 0,0 1.231063,-0.695448 2.016542,-0.68986 2.417079,0.01718 3.513835,2.145617 2.773403,4.759816 z"
       sodipodi:nodetypes="sssscss" />
    <path
       style="fill:#d88d79;fill-opacity:0.5;stroke:#322d21;stroke-width:0.523433;stroke-linejoin:round;stroke-miterlimit:8.2;stroke-opacity:0.995995"
       d="m 32.298248,32.095868 c 0,0 0.155703,-0.33465 0.230477,-1.30848 0.07478,-0.973828 -0.557654,-1.240435 -0.557654,-1.240435"
       id="path9-7"
       sodipodi:nodetypes="czc" />
  </g>
</svg>
