<?xml version="1.0" encoding="UTF-8" standalone="no"?>
<!-- Created with Inkscape (http://www.inkscape.org/) -->

<svg
   width="200"
   height="201.17665"
   viewBox="0 0 52.916666 53.227988"
   version="1.1"
   id="svg1"
   inkscape:version="1.4.2 (f4327f4, 2025-05-13)"
   sodipodi:docname="Headlight.svg"
   xml:space="preserve"
   xmlns:inkscape="http://www.inkscape.org/namespaces/inkscape"
   xmlns:sodipodi="http://sodipodi.sourceforge.net/DTD/sodipodi-0.dtd"
   xmlns:xlink="http://www.w3.org/1999/xlink"
   xmlns="http://www.w3.org/2000/svg"
   xmlns:svg="http://www.w3.org/2000/svg"><sodipodi:namedview
     id="namedview1"
     pagecolor="#ffffff"
     bordercolor="#000000"
     borderopacity="0.25"
     inkscape:showpageshadow="2"
     inkscape:pageopacity="0.0"
     inkscape:pagecheckerboard="0"
     inkscape:deskcolor="#d1d1d1"
     inkscape:document-units="mm"
     inkscape:zoom="6.4248316"
     inkscape:cx="31.596159"
     inkscape:cy="65.137894"
     inkscape:window-width="3840"
     inkscape:window-height="2054"
     inkscape:window-x="-11"
     inkscape:window-y="-11"
     inkscape:window-maximized="1"
     inkscape:current-layer="layer3" /><defs
     id="defs1"><linearGradient
       id="linearGradient24"
       inkscape:collect="always"><stop
         style="stop-color:#ceff78;stop-opacity:1;"
         offset="0.37108189"
         id="stop24" /><stop
         style="stop-color:#e6ffb2;stop-opacity:1;"
         offset="1"
         id="stop25" /></linearGradient><linearGradient
       id="linearGradient22"
       inkscape:collect="always"><stop
         style="stop-color:#5ab55e;stop-opacity:1;"
         offset="0.57836199"
         id="stop22" /><stop
         style="stop-color:#326934;stop-opacity:1;"
         offset="0.68048531"
         id="stop23" /></linearGradient><linearGradient
       id="linearGradient20"
       inkscape:collect="always"><stop
         style="stop-color:#5ab55e;stop-opacity:1;"
         offset="0"
         id="stop20" /><stop
         style="stop-color:#234725;stop-opacity:1;"
         offset="1"
         id="stop21" /></linearGradient><inkscape:path-effect
       effect="mirror_symmetry"
       start_point="19.481026,5.008575"
       end_point="17.530012,18.403601"
       center_point="18.505519,11.706088"
       id="path-effect8"
       is_visible="true"
       lpeversion="1.2"
       lpesatellites=""
       mode="free"
       discard_orig_path="false"
       fuse_paths="true"
       oposite_fuse="true"
       split_items="false"
       split_open="false"
       link_styles="false" /><inkscape:path-effect
       effect="mirror_symmetry"
       start_point="17.064098,17.976843"
       end_point="17.084658,28.040667"
       center_point="17.074378,23.008755"
       id="path-effect1"
       is_visible="true"
       lpeversion="1.2"
       lpesatellites=""
       mode="free"
       discard_orig_path="false"
       fuse_paths="true"
       oposite_fuse="false"
       split_items="false"
       split_open="false"
       link_styles="false" /><inkscape:path-effect
       effect="fillet_chamfer"
       id="path-effect28"
       is_visible="true"
       lpeversion="1"
       nodesatellites_param="F,0,0,1,0,0,0,1 @ F,0,0,1,0,0,0,1 @ F,0,0,1,0,0,0,1 @ F,0,0,1,0,0,0,1 @ F,0,0,1,0,0,0,1 @ F,0,0,1,0,0,0,1 @ F,0,0,1,0,0,0,1 @ F,0,0,1,0,0,0,1 @ F,0,0,1,0,0,0,1 @ F,0,0,1,0,0,0,1 @ F,0,0,1,0,0,0,1 @ F,0,0,1,0,0,0,1 | F,0,0,1,0,0,0,1 @ F,0,0,1,0,0,0,1 @ F,0,0,1,0,0,0,1 @ F,0,0,1,0,0,0,1 @ F,0,0,1,0,0,0,1 @ F,0,0,1,0,0,0,1 @ F,0,0,1,0,0,0,1 @ F,0,0,1,0,0,0,1 @ F,0,0,1,0,0,0,1 @ F,0,0,1,0,0,0,1 @ F,0,0,1,0,0,0,1"
       radius="0"
       unit="px"
       method="auto"
       mode="F"
       chamfer_steps="1"
       flexible="false"
       use_knot_distance="true"
       apply_no_radius="true"
       apply_with_radius="true"
       only_selected="false"
       hide_knots="false" /><linearGradient
       id="linearGradient13"
       inkscape:collect="always"><stop
         style="stop-color:#94f0b4;stop-opacity:1;"
         offset="0"
         id="stop13" /><stop
         style="stop-color:#51a351;stop-opacity:1;"
         offset="1"
         id="stop14" /></linearGradient><inkscape:path-effect
       effect="powerstroke"
       message=""
       id="path-effect4"
       is_visible="true"
       lpeversion="1.3"
       scale_width="1"
       interpolator_type="CentripetalCatmullRom"
       interpolator_beta="0.75"
       start_linecap_type="round"
       end_linecap_type="round"
       offset_points="10.839744,0.43679433"
       linejoin_type="spiro"
       miter_limit="4"
       not_jump="true"
       sort_points="true" /><inkscape:path-effect
       effect="simplify"
       id="path-effect3"
       is_visible="true"
       lpeversion="1.3"
       threshold="0.012"
       steps="1"
       smooth_angles="0"
       helper_size="0"
       simplify_individual_paths="false"
       simplify_just_coalesce="false"
       step="1" /><linearGradient
       inkscape:collect="always"
       xlink:href="#linearGradient13"
       id="linearGradient14"
       x1="6.12362"
       y1="16.681654"
       x2="26.722704"
       y2="16.681654"
       gradientUnits="userSpaceOnUse"
       gradientTransform="matrix(1.1612919,0,0,1.2772026,7.5868929,-15.899273)" /><linearGradient
       inkscape:collect="always"
       xlink:href="#linearGradient13"
       id="linearGradient15"
       gradientUnits="userSpaceOnUse"
       x1="6.12362"
       y1="16.681654"
       x2="26.722704"
       y2="16.681654"
       gradientTransform="matrix(1.1612919,0,0,-1.2772026,7.5868913,25.379768)" /><linearGradient
       inkscape:collect="always"
       xlink:href="#linearGradient20"
       id="linearGradient21"
       x1="15.871179"
       y1="33.807083"
       x2="18.18671"
       y2="26.680607"
       gradientUnits="userSpaceOnUse"
       gradientTransform="matrix(1.5565636,0,0,1.5565636,0.0032862,-0.52716106)" /><linearGradient
       inkscape:collect="always"
       xlink:href="#linearGradient22"
       id="linearGradient23"
       x1="16.533585"
       y1="29.744438"
       x2="18.584682"
       y2="13.039583"
       gradientUnits="userSpaceOnUse"
       gradientTransform="matrix(1.5565636,0,0,1.5565636,0.0032862,-0.52716106)" /><linearGradient
       inkscape:collect="always"
       xlink:href="#linearGradient24"
       id="linearGradient25"
       x1="9.0675859"
       y1="15.443898"
       x2="27.113455"
       y2="8.8757391"
       gradientUnits="userSpaceOnUse" /></defs><g
     inkscape:label="Ebene 1"
     inkscape:groupmode="layer"
     id="layer1"
     transform="translate(-0.20000279)"><rect
       style="fill:#7ad97e;fill-opacity:1;stroke:#212532;stroke-width:1.29973;stroke-linejoin:round;stroke-miterlimit:8.2;stroke-dasharray:none;stroke-opacity:0.995995"
       id="rect1"
       width="51.616936"
       height="51.616943"
       x="0.84986776"
       y="0.96118194"
       ry="5.9818354"
       rx="19.15794" /><path
       d="m 20.73893,3.7998748 c -9.446217,0 -17.0503692,2.3738968 -17.0503692,5.323364 V 44.416062 c 0,2.949468 7.6041522,5.323365 17.0503692,5.323365 h 0.416667 c 0.749103,-1.256297 1.539136,-2.799133 1.701255,-3.943054 0.264784,-1.868318 -1.076676,-5.555984 -1.078668,-5.56146 l 10.055511,-0.576737 c 0,0 0.712604,3.740554 0.323361,5.553416 -0.280582,1.306797 -1.228034,3.097811 -2.080923,4.527835 h 2.50161 c 9.446219,0 17.05037,-2.373897 17.05037,-5.323365 V 9.1232388 c 0,-2.9494672 -7.604151,-5.323364 -17.05037,-5.323364 z"
       style="fill:#c6f4ce;stroke:#212532;stroke-width:0.689558;stroke-linejoin:round;stroke-miterlimit:8.2;stroke-opacity:0.995995"
       id="path13" /><path
       d="m 31.768805,1.6467331 c 3.497013,0.1186269 6.234586,3.9145353 6.234586,3.9145353 l -1.26444,-0.00996 c 0,0 -2.427355,-2.2412109 -4.916735,-2.3047646 -2.157002,-0.055061 -3.895059,1.6391876 -4.363635,2.1174042 L 27.190689,5.6714374 C 20.816298,13.667645 15.28907,5.4575851 15.28907,5.4575851 l 1.264442,0.00996 c 0,0 2.426754,2.2412111 4.916136,2.3047646 2.295401,0.058598 4.000244,-1.6336917 4.298454,-1.9500408 l 0.519671,-0.5771306 c 1.964514,-3.0299591 3.649263,-3.6605459 5.481032,-3.5984074 z"
       style="fill:url(#linearGradient14);fill-opacity:1;stroke:#212532;stroke-width:0.621113;stroke-opacity:0.995995"
       id="path9-3"
       sodipodi:nodetypes="scccccccsccs" /><path
       d="m 31.768805,7.8337618 c 3.497013,-0.1186269 6.234586,-3.9145353 6.234586,-3.9145353 l -1.26444,0.00996 c 0,0 -2.427355,2.2412108 -4.916735,2.3047645 C 29.665214,6.289012 27.927157,4.5947635 27.458581,4.1165468 L 27.190689,3.8090575 C 20.816298,-4.1871501 15.28907,4.0229096 15.28907,4.0229096 l 1.264442,-0.00996 c 0,0 2.426754,-2.2412111 4.916136,-2.3047647 2.295401,-0.058598 4.000244,1.6336916 4.298454,1.9500409 l 0.519671,0.5771307 c 1.964514,3.0299589 3.649263,3.6605458 5.481032,3.5984072 z"
       style="fill:url(#linearGradient15);fill-opacity:1;stroke:#212532;stroke-width:0.621113;stroke-opacity:0.995995"
       id="path9-3-3"
       sodipodi:nodetypes="scccccccsccs" /><path
       d="m 31.769097,1.6465068 c -1.511738,-0.05128 -2.839991,0.2515362 -4.391361,2.1032591 0.372093,0.186446 0.609797,0.5761205 0.853686,0.909699 0.809839,-0.6540209 2.100756,-1.4511294 3.591084,-1.4130879 2.489382,0.063555 4.916737,2.3047645 4.916737,2.3047645 l 1.264441,0.00996 c 0,0 -2.737577,-3.7959088 -6.234587,-3.9145354 z"
       style="fill:#63b166;fill-opacity:1;stroke:#212532;stroke-width:0.621113;stroke-opacity:0.995995"
       id="path18"
       sodipodi:nodetypes="cccccccc" /><path
       id="rect18"
       style="fill:#3e6f40;fill-opacity:1;stroke:#212532;stroke-width:0.377539;stroke-opacity:0.995995"
       d="M 18.91538,2.4362141 20.031319,2.0085096 20.098956,7.531471 18.915384,7.0479796 Z"
       sodipodi:nodetypes="ccccc" /><path
       id="rect18-0"
       style="fill:#63b166;stroke:#212532;stroke-width:0.377539;stroke-opacity:0.995995"
       d="m 21.487254,1.7446741 1.115941,0.1301692 v 5.7368126 l -1.115941,0.1115776 z"
       sodipodi:nodetypes="ccccc" /><path
       id="rect18-2"
       style="fill:#3e6f40;fill-opacity:1;stroke:#212532;stroke-width:0.398684;stroke-opacity:0.995995"
       d="m 23.988274,2.3066228 1.178439,0.7854923 V 6.401005 l -1.178439,0.7756745 z"
       sodipodi:nodetypes="ccccc" /><path
       id="rect18-5"
       style="fill:#3e6f40;fill-opacity:1;stroke:#212532;stroke-width:0.377539;stroke-opacity:0.995995"
       d="M 30.183717,3.5319136 31.299656,3.3180611 V 6.3119903 L 30.183717,6.014457 Z"
       sodipodi:nodetypes="ccccc" /><path
       id="rect18-20"
       style="fill:#63b166;stroke:#212532;stroke-width:0.377539;stroke-opacity:0.995995"
       d="m 33.020778,3.4418846 1.115941,0.3998106 V 5.6268938 L 33.020778,6.036002 Z"
       sodipodi:nodetypes="ccccc" /><path
       style="fill:#3e6f40;fill-opacity:1;stroke:none;stroke-width:1.17165;stroke-dasharray:none;stroke-opacity:0.995995"
       d="M 50.489298,39.566 45.619213,51.204677"
       id="path24" /></g><g
     inkscape:groupmode="layer"
     id="layer2"
     inkscape:label="Ebene 2"
     style="display:inline"
     transform="translate(0.00590403,-0.94717115)"><path
       id="path5"
       style="display:inline;opacity:1;fill:url(#linearGradient23);fill-opacity:1;stroke:#000000;stroke-width:0.55258;stroke-linecap:round;stroke-linejoin:round;stroke-dasharray:none"
       d="m 40.157624,31.450712 c 0,5.316796 -5.740798,9.62691 -12.82243,9.62691 -7.081632,0 -12.82243,-4.310114 -12.82243,-9.62691 0,-3.079328 1.245785,-5.005101 4.242344,-6.767295 2.177324,-1.280426 1.964868,3.168817 9.259985,2.987511 7.295117,-0.181307 6.259137,-3.833038 7.799975,-3.103101 3.263591,1.546047 4.342556,3.708172 4.342556,6.882885 z"
       sodipodi:nodetypes="sssszss" /><path
       style="display:inline;opacity:1;fill:#89f08d;fill-opacity:1;stroke:#000000;stroke-width:0.480712;stroke-linecap:round;stroke-linejoin:round;stroke-dasharray:none"
       d="m 25.330078,19.025391 c -0.476696,-0.01632 -1.115587,0.933366 -1.675781,1.126953 -0.808006,0.279225 -1.550647,0.527246 -2.501953,0.564453 -0.5704,0.02231 -2.275963,0.146752 -4.082032,0.285156 -1.806619,-0.131023 -3.511545,-0.249552 -4.082031,-0.269531 -0.95145,-0.03332 -1.696719,-0.276814 -2.505859,-0.552735 -0.6904376,-0.235442 -1.5039477,-1.615064 -1.9804689,-0.93164 -1.7954617,2.575041 0.1687638,5.548678 0.9902344,6.259765 1.3131425,1.136693 2.1776535,2.206194 3.4570315,2.738282 0.951785,0.395843 1.987539,0.246514 2.984375,0.273437 0.363186,0.0098 1.089843,-0.04102 1.089843,-0.04102 l 0.0625,-0.08203 0.0625,0.08203 c 0,0 0.726701,0.04839 1.089844,0.03711 0.996718,-0.031 2.032262,0.112619 2.982422,-0.287109 1.277193,-0.537311 2.136826,-1.607951 3.445313,-2.75 0.818558,-0.714439 2.770811,-3.697942 0.964843,-6.265625 -0.08987,-0.127776 -0.190774,-0.183735 -0.300781,-0.1875 z"
       id="path1"
       sodipodi:nodetypes="ccsassaac"
       transform="matrix(1.5589048,0,0,1.1695415,0.37127227,9.2013647)"
       inkscape:original-d="m 17.022978,28.47914 5.391083,-7.077273 c 0,0 -8.04471,-0.620297 -9.42671,-0.668697 -0.95145,-0.03332 -1.695148,-0.277352 -2.504288,-0.553273 -0.6904375,-0.235442 -1.5036133,-1.61525 -1.9801345,-0.931826 -1.7954617,2.575041 0.1685965,5.54963 0.9900671,6.260718 1.3131424,1.136693 2.1772174,2.205231 3.4565954,2.737319 0.951785,0.395843 1.987206,0.247197 2.984042,0.27412 0.363186,0.0098 1.089345,-0.04109 1.089345,-0.04109 z"
       inkscape:path-effect="#path-effect1" /><ellipse
       style="display:inline;opacity:1;fill:#9ffba3;fill-opacity:1;stroke:#000000;stroke-width:0.529232;stroke-linecap:round;stroke-linejoin:round;stroke-dasharray:none"
       id="path3"
       cx="18.92712"
       cy="29.184385"
       rx="1.8151842"
       ry="2.1462142" /><ellipse
       style="display:inline;opacity:1;fill:#182b19;fill-opacity:1;stroke:#000000;stroke-width:0.234937;stroke-linecap:round;stroke-linejoin:round"
       id="path2"
       cx="18.927118"
       cy="29.225767"
       rx="0.56550974"
       ry="1.8206656" /><ellipse
       style="display:inline;fill:#9ffba3;fill-opacity:1;stroke:#000000;stroke-width:0.529232;stroke-linecap:round;stroke-linejoin:round;stroke-dasharray:none"
       id="path3-1"
       cx="36.143448"
       cy="28.913601"
       rx="1.8151842"
       ry="2.1462142" /><ellipse
       style="display:inline;fill:#182b19;fill-opacity:1;stroke:#000000;stroke-width:0.234937;stroke-linecap:round;stroke-linejoin:round"
       id="path2-5"
       cx="36.143444"
       cy="28.954983"
       rx="0.56550974"
       ry="1.8206656" /><path
       style="display:inline;opacity:1;fill:#d4f0d5;fill-opacity:1;stroke:#000000;stroke-width:0.387186;stroke-linecap:round;stroke-linejoin:round;stroke-dasharray:none"
       d="m 23.12652,38.026817 c 0,0 -0.06548,1.076954 0.06207,1.592731 0.112117,0.453624 0.236392,0.977047 0.60459,1.264752 0.122361,0.0956 0.4564,0.09332 0.4564,0.09332 0,0 -0.03266,-0.712057 -0.03761,-1.068364 -0.0081,-0.58183 0.01304,-1.745612 0.01304,-1.745612 z"
       id="path6"
       sodipodi:nodetypes="caacacc" /><path
       style="display:inline;fill:#d4f0d5;fill-opacity:1;stroke:#000000;stroke-width:0.387186;stroke-linecap:round;stroke-linejoin:round;stroke-dasharray:none"
       d="m 31.031493,38.176551 c 0,0 0.06548,1.076956 -0.06207,1.592733 -0.112118,0.453624 -0.236393,0.977046 -0.604588,1.264751 -0.122362,0.0956 -0.456401,0.09331 -0.456401,0.09331 0,0 0.03265,-0.712057 0.03761,-1.068363 0.0081,-0.581829 -0.01304,-1.745611 -0.01304,-1.745611 z"
       id="path6-4"
       sodipodi:nodetypes="caacacc" /><path
       id="path7"
       style="display:inline;opacity:1;fill:#5ab55e;fill-opacity:1;stroke:#000000;stroke-width:0.54324;stroke-linecap:round;stroke-linejoin:round;stroke-dasharray:none"
       d="m 14.575371,33.150476 -0.203507,1.336873 c 0,0 0.203507,-0.951597 0.203507,-1.336873 z m -0.294401,1.427767 -0.9741,0.407819 z" /><path
       id="path7-1"
       style="display:inline;fill:#5ab55e;fill-opacity:1;stroke:#000000;stroke-width:0.54324;stroke-linecap:round;stroke-linejoin:round;stroke-dasharray:none"
       d="m 38.909656,32.439379 0.203507,1.336873 c 0,0 -0.203507,-0.951597 -0.203507,-1.336873 z m 0.294404,1.427767 0.974099,0.407819 z" /><path
       style="opacity:1;fill:#89f08d;fill-opacity:1;stroke:#000000;stroke-width:0.546354;stroke-linecap:round;stroke-linejoin:round;stroke-dasharray:none"
       d="m 14.50778,34.52153 c 1.860805,1.440489 3.993137,2.568297 6.319197,3.014135 3.679521,0.879206 7.579836,1.237886 11.286654,0.305813 2.14908,-0.500954 4.23341,-1.421685 5.868627,-2.930336 0.368538,-0.313708 0.729618,-0.636009 1.092508,-0.956193"
       id="path4" /><path
       d="m 31.912538,42.50448 c -1.025622,0.08868 -2.080964,0.02345 -3.10972,0.04746 -0.566105,0.01319 -1.698843,-0.04343 -1.698843,-0.04343 l -0.09733,-0.09652 -0.09733,0.09652 c 0,0 -1.132672,0.05891 -1.698843,0.04746 -1.061473,-0.02151 -2.151627,0.05302 -3.208658,-0.04505 0.367033,1.24557 0.811997,3.083437 0.649131,4.232629 -0.16212,1.143921 -0.952153,2.686758 -1.701256,3.943054 h 8.920535 c 0.85289,-1.430024 1.800342,-3.221038 2.080923,-4.527834 0.205801,-0.958496 0.103442,-2.455806 -0.03861,-3.654284 z"
       style="opacity:1;fill:url(#linearGradient21);stroke:#000000;stroke-width:0.543242;stroke-linecap:round;stroke-linejoin:round"
       id="path19" /><path
       style="opacity:1;fill:#51a355;fill-opacity:1;stroke:#000000;stroke-width:0.543242;stroke-linecap:round;stroke-linejoin:round;stroke-dasharray:none"
       d="m 3.5808618,10.647052 c 0,0 4.0561657,-1.1887859 5.8471243,-0.40794 1.8417799,0.803004 3.2491719,2.754778 3.7847659,4.691298 0.420921,1.521901 0.02908,3.26921 -0.657235,4.691297 -0.733909,1.520711 -3.4901434,3.67145 -3.4901434,3.67145 0,0 0.1398336,-4.847336 -1.6317555,-5.779134 -1.1649967,-0.612752 -3.7394398,1.269143 -3.7394398,1.269143 z"
       id="path20"
       sodipodi:nodetypes="caaacacc" /></g><g
     inkscape:groupmode="layer"
     id="layer3"
     inkscape:label="Ebene 3"
     transform="translate(-0.20000279)"><path
       style="opacity:1;fill:url(#linearGradient25);fill-opacity:1;stroke:#000000;stroke-width:0.349;stroke-linecap:round;stroke-linejoin:round;stroke-dasharray:none"
       d="m 17.778524,16.697395 8.516494,2.259479 1.223024,-3.028441 -1.834535,0.698871 L 25.42143,15.083964 23.179219,9.4347574 21.402922,8.2699727 21.257324,7.3963839 20.849649,7.2507858 20.587573,5.7074458 19.398908,5.5723703 18.221099,5.3627638 17.529669,6.7672237 17.0974,6.7904821 16.708658,7.5862431 14.673904,8.1959401 10.9134,12.970839 10.221969,14.375298 8.6630098,13.182157 8.9713489,16.433645 Z"
       id="path8"
       sodipodi:nodetypes="cccccccccccc"
       inkscape:path-effect="#path-effect8"
       inkscape:original-d="m 17.73385,16.685543 8.561168,2.271331 1.223024,-3.028441 -1.834535,0.698871 L 25.42143,15.083964 23.179219,9.4347574 21.402922,8.2699727 21.257324,7.3963839 20.849649,7.2507858 20.587573,5.7074458 19.306309,5.5618477 17.73385,16.627304"
       transform="matrix(1.5565636,0,0,1.5565636,0.71744879,-0.27706742)" /><ellipse
       style="fill:#799647;fill-opacity:1;stroke:#000000;stroke-width:0.69734;stroke-linecap:round;stroke-linejoin:round;stroke-dasharray:none"
       id="path9-9"
       cx="32.788857"
       cy="12.196825"
       rx="2.8555722"
       ry="3.1275313"
       transform="rotate(13.882114)" /><path
       style="opacity:1;fill:#799647;fill-opacity:0;stroke:#000000;stroke-width:0.54324;stroke-linecap:round;stroke-linejoin:round;stroke-dasharray:none"
       d="m 16.638398,22.091584 12.192838,0.36261 11.83023,3.036878"
       id="path10"
       sodipodi:nodetypes="ccc" /><ellipse
       style="opacity:1;fill:#ffffff;fill-opacity:1;stroke:#000000;stroke-width:0.852997;stroke-linecap:round;stroke-linejoin:round;stroke-dasharray:none"
       id="path9"
       cx="32.691727"
       cy="13.285667"
       rx="2.8555722"
       ry="3.1275313"
       transform="rotate(13.882114)" /><path
       style="opacity:1;fill:#799647;fill-opacity:0;stroke:#000000;stroke-width:0.529232;stroke-linecap:round;stroke-linejoin:round;stroke-dasharray:none"
       d="m 26.715127,11.666457 7.115257,1.089724"
       id="path11" /><path
       style="opacity:1;fill:#799647;fill-opacity:0;stroke:#000000;stroke-width:0.373575;stroke-linecap:round;stroke-linejoin:round;stroke-dasharray:none"
       d="m 32.324,14.486919 2.403802,1.570485 1.602536,6.506293 -0.192305,1.570485"
       id="path12" /><path
       style="fill:#799647;fill-opacity:0;stroke:#000000;stroke-width:0.373575;stroke-linecap:round;stroke-linejoin:round;stroke-dasharray:none"
       d="m 27.83009,13.65874 -2.734873,0.874728 -3.274979,5.845895 -0.232239,1.565077"
       id="path12-4" /></g></svg>
