<?xml version="1.0" encoding="UTF-8" standalone="no"?>
<!-- Created with Inkscape (http://www.inkscape.org/) -->

<svg
   width="200"
   height="201.17665"
   viewBox="0 0 52.916666 53.227988"
   version="1.1"
   id="svg1"
   inkscape:version="1.4.2 (f4327f4, 2025-05-13)"
   sodipodi:docname="HolyMantle.svg"
   xmlns:inkscape="http://www.inkscape.org/namespaces/inkscape"
   xmlns:sodipodi="http://sodipodi.sourceforge.net/DTD/sodipodi-0.dtd"
   xmlns="http://www.w3.org/2000/svg"
   xmlns:svg="http://www.w3.org/2000/svg">
  <sodipodi:namedview
     id="namedview1"
     pagecolor="#ffffff"
     bordercolor="#000000"
     borderopacity="0.25"
     inkscape:showpageshadow="2"
     inkscape:pageopacity="0.0"
     inkscape:pagecheckerboard="0"
     inkscape:deskcolor="#d1d1d1"
     inkscape:document-units="mm"
     inkscape:zoom="3.2124158"
     inkscape:cx="23.035623"
     inkscape:cy="90.430386"
     inkscape:window-width="3840"
     inkscape:window-height="2054"
     inkscape:window-x="-11"
     inkscape:window-y="-11"
     inkscape:window-maximized="1"
     inkscape:current-layer="layer1"
     showgrid="true">
    <inkscape:grid
       id="grid1"
       units="mm"
       originx="0"
       originy="0"
       spacingx="0.99999999"
       spacingy="0.99999998"
       empcolor="#0099e5"
       empopacity="0.30196078"
       color="#0099e5"
       opacity="0.14901961"
       empspacing="5"
       enabled="true"
       visible="true" />
  </sodipodi:namedview>
  <defs
     id="defs1">
    <inkscape:path-effect
       effect="fillet_chamfer"
       id="path-effect5"
       is_visible="true"
       lpeversion="1"
       nodesatellites_param="F,0,0,1,0,0,0,1 @ F,0,0,1,0,2.0496102,0,1 @ F,0,0,1,0,0,0,1"
       radius="0"
       unit="px"
       method="auto"
       mode="F"
       chamfer_steps="1"
       flexible="false"
       use_knot_distance="true"
       apply_no_radius="true"
       apply_with_radius="true"
       only_selected="false"
       hide_knots="false" />
    <inkscape:path-effect
       effect="fillet_chamfer"
       id="path-effect28"
       is_visible="true"
       lpeversion="1"
       nodesatellites_param="F,0,0,1,0,0,0,1 @ F,0,0,1,0,0,0,1 @ F,0,0,1,0,0,0,1 @ F,0,0,1,0,0,0,1 @ F,0,0,1,0,0,0,1 @ F,0,0,1,0,0,0,1 @ F,0,0,1,0,0,0,1 @ F,0,0,1,0,0,0,1 @ F,0,0,1,0,0,0,1 @ F,0,0,1,0,0,0,1 @ F,0,0,1,0,0,0,1 @ F,0,0,1,0,0,0,1 | F,0,0,1,0,0,0,1 @ F,0,0,1,0,0,0,1 @ F,0,0,1,0,0,0,1 @ F,0,0,1,0,0,0,1 @ F,0,0,1,0,0,0,1 @ F,0,0,1,0,0,0,1 @ F,0,0,1,0,0,0,1 @ F,0,0,1,0,0,0,1 @ F,0,0,1,0,0,0,1 @ F,0,0,1,0,0,0,1 @ F,0,0,1,0,0,0,1"
       radius="0"
       unit="px"
       method="auto"
       mode="F"
       chamfer_steps="1"
       flexible="false"
       use_knot_distance="true"
       apply_no_radius="true"
       apply_with_radius="true"
       only_selected="false"
       hide_knots="false" />
    <inkscape:path-effect
       effect="powerstroke"
       message=""
       id="path-effect4"
       is_visible="true"
       lpeversion="1.3"
       scale_width="1"
       interpolator_type="CentripetalCatmullRom"
       interpolator_beta="0.75"
       start_linecap_type="round"
       end_linecap_type="round"
       offset_points="10.839744,0.43679433"
       linejoin_type="spiro"
       miter_limit="4"
       not_jump="true"
       sort_points="true" />
    <inkscape:path-effect
       effect="simplify"
       id="path-effect3"
       is_visible="true"
       lpeversion="1.3"
       threshold="0.012"
       steps="1"
       smooth_angles="0"
       helper_size="0"
       simplify_individual_paths="false"
       simplify_just_coalesce="false"
       step="1" />
    <inkscape:path-effect
       effect="fillet_chamfer"
       id="path-effect5-4"
       is_visible="true"
       lpeversion="1"
       nodesatellites_param="F,0,0,1,0,0,0,1 @ F,0,0,1,0,2.0496102,0,1 @ F,0,0,1,0,0,0,1"
       radius="0"
       unit="px"
       method="auto"
       mode="F"
       chamfer_steps="1"
       flexible="false"
       use_knot_distance="true"
       apply_no_radius="true"
       apply_with_radius="true"
       only_selected="false"
       hide_knots="false" />
    <inkscape:path-effect
       effect="fillet_chamfer"
       id="path-effect5-4-5"
       is_visible="true"
       lpeversion="1"
       nodesatellites_param="F,0,0,1,0,0,0,1 @ F,0,0,1,0,2.0496102,0,1 @ F,0,0,1,0,0,0,1"
       radius="0"
       unit="px"
       method="auto"
       mode="F"
       chamfer_steps="1"
       flexible="false"
       use_knot_distance="true"
       apply_no_radius="true"
       apply_with_radius="true"
       only_selected="false"
       hide_knots="false" />
  </defs>
  <g
     inkscape:label="Ebene 1"
     inkscape:groupmode="layer"
     id="layer1"
     transform="translate(-0.20000279)">
    <path
       style="fill:#3e6f40;fill-opacity:1;stroke:none;stroke-width:1.17165;stroke-dasharray:none;stroke-opacity:0.995995"
       d="M 50.489298,39.566 45.619213,51.204677"
       id="path24" />
    <path
       d="m 13.191458,44.705282 c 0.0037,0.01035 0.007,0.01793 0.0088,0.02067 0,0 5.17e-4,5.17e-4 5.17e-4,5.17e-4 0,0 5.16e-4,0 5.16e-4,0 0,0 5.17e-4,-5.17e-4 5.17e-4,-5.17e-4 8.38e-4,-0.0028 -6.92e-4,-0.01463 -0.0047,-0.03669 -0.0018,-0.01027 -0.0036,-0.01707 -0.0047,-0.01964 0,0 0,-5.17e-4 0,-5.17e-4 0,0 -5.16e-4,0 -5.16e-4,0 0,0 -5.17e-4,0 -5.17e-4,0 0,0 0,5.17e-4 0,5.17e-4 -9.5e-4,0.0029 -7.95e-4,0.01527 0,0.03566 z"
       style="fill:#49d450;fill-opacity:0.338445;stroke:#303b32;stroke-width:1.358;stroke-linecap:round;stroke-linejoin:round;stroke-dasharray:1.358, 4.074"
       id="path12" />
    <path
       d="m 40.154749,49.174259 c 0.336991,-0.936184 0.709054,-2.216897 0.806152,-3.746541 0.02195,-0.34578 -0.07091,-0.535547 -0.07596,-0.859379 0.505348,-0.3087 1.014919,-0.591278 1.505851,-1.009757 3.201274,-2.728822 4.53099,-6.831896 4.53099,-10.935767 0,-5.405572 -1.743902,-11.057295 -4.595585,-16.031063 C 39.483688,11.63413 34.636873,6.0001495 27.199388,6.0001506 c -7.437465,0 -12.280245,5.6378094 -15.12104,10.5936684 -2.8504619,4.972722 -4.5976527,10.622189 -4.5976527,16.028996 -10e-8,3.052055 0.6649298,6.172237 2.5564327,8.793262 0.893381,1.237942 1.948347,2.068963 2.994133,2.757971 0.02551,0.07109 0.126959,0.438355 0.160197,0.531234 -7.95e-4,-0.02039 -9.5e-4,-0.03272 0,-0.03566 v -5.17e-4 h 5.17e-4 5.16e-4 v 5.17e-4 c 10e-4,0.0026 0.0028,0.0094 0.0047,0.01964 0.004,0.02206 0.0055,0.03386 0.0047,0.03669 l -5.17e-4,5.17e-4 h -5.16e-4 l -5.17e-4,-5.17e-4 c -0.0018,-0.0027 -0.0051,-0.01032 -0.0088,-0.02067 0.0089,0.22796 0.118932,1.486772 0.152445,2.433443 0.03082,0.870487 0.04664,1.664968 0.05219,1.972489"
       style="fill:#49d450;fill-opacity:0.338445;stroke:#303b32;stroke-width:1.358;stroke-linecap:round;stroke-linejoin:round;stroke-dasharray:1.358, 4.074"
       id="path11"
       sodipodi:nodetypes="cscsscsssscccccccccccccsc" />
    <path
       style="fill:#369e3b;fill-opacity:1;stroke:#303b32;stroke-width:1.38589;stroke-linecap:round;stroke-linejoin:round;stroke-opacity:1"
       d="m 32.251197,39.631413 c 0,0 1.197388,3.519951 1.083027,5.321525 -0.09144,1.440502 -1.398447,4.133426 -1.398447,4.133426 l -11.491265,0.111844 c 0,0 0.02998,-3.900399 -0.31359,-5.815337 -0.288242,-1.606586 -1.455144,-4.698058 -1.455144,-4.698058 z"
       id="path3"
       sodipodi:nodetypes="caccacc" />
    <path
       id="path1"
       style="fill:#49d450;fill-opacity:1;stroke:#303b32;stroke-width:1.358;stroke-linecap:round;stroke-linejoin:round;stroke-opacity:1"
       d="m 39.278537,32.613975 c 0,7.301375 -5.540852,7.163428 -12.37584,7.163427 -6.834987,0 -12.375839,0.137948 -12.375839,-7.163427 0,-7.301374 5.540852,-19.277189 12.375839,-19.277189 6.834988,-10e-7 12.37584,11.975815 12.37584,19.277189 z"
       sodipodi:nodetypes="sssss" />
    <ellipse
       style="fill:#8fc292;fill-opacity:1;stroke:#303b32;stroke-width:1.358;stroke-linecap:round;stroke-linejoin:round;stroke-opacity:1"
       id="path2"
       cx="20.583738"
       cy="33.225487"
       rx="2.9702013"
       ry="2.5916462" />
    <ellipse
       style="fill:#8fc292;fill-opacity:1;stroke:#303b32;stroke-width:1.358;stroke-linecap:round;stroke-linejoin:round;stroke-opacity:1"
       id="path2-8"
       cx="36.392956"
       cy="32.908993"
       rx="2.9702013"
       ry="2.5916462" />
    <path
       style="fill:#369e3b;fill-opacity:0;stroke:#303b32;stroke-width:1.358;stroke-linecap:round;stroke-linejoin:round;stroke-opacity:1"
       d="M 26.291184,13.10383 21.806762,11.123695 H 18.8948 L 17.730015,9.8424321"
       id="path4" />
    <path
       style="fill:#369e3b;fill-opacity:0;stroke:#303b32;stroke-width:1.358;stroke-linecap:round;stroke-linejoin:round;stroke-opacity:1"
       d="m 15.633402,9.7259536 1.951015,0.087359 -0.05824,-1.6015792"
       id="path6" />
  </g>
</svg>
