<?xml version="1.0" encoding="UTF-8" standalone="no"?>
<!-- Created with Inkscape (http://www.inkscape.org/) -->

<svg
   width="200"
   height="201.17665"
   viewBox="0 0 52.916666 53.227988"
   version="1.1"
   id="svg1"
   inkscape:version="1.4.2 (f4327f4, 2025-05-13)"
   sodipodi:docname="InsectAction.svg"
   xmlns:inkscape="http://www.inkscape.org/namespaces/inkscape"
   xmlns:sodipodi="http://sodipodi.sourceforge.net/DTD/sodipodi-0.dtd"
   xmlns="http://www.w3.org/2000/svg"
   xmlns:svg="http://www.w3.org/2000/svg">
  <sodipodi:namedview
     id="namedview1"
     pagecolor="#ffffff"
     bordercolor="#000000"
     borderopacity="0.25"
     inkscape:showpageshadow="2"
     inkscape:pageopacity="0.0"
     inkscape:pagecheckerboard="0"
     inkscape:deskcolor="#d1d1d1"
     inkscape:document-units="mm"
     inkscape:zoom="2.271521"
     inkscape:cx="161.56575"
     inkscape:cy="77.261007"
     inkscape:window-width="3840"
     inkscape:window-height="2054"
     inkscape:window-x="-11"
     inkscape:window-y="-11"
     inkscape:window-maximized="1"
     inkscape:current-layer="layer1" />
  <defs
     id="defs1">
    <inkscape:path-effect
       effect="spiro"
       id="path-effect8"
       is_visible="true"
       lpeversion="1" />
    <inkscape:path-effect
       effect="mirror_symmetry"
       start_point="17.255329,9.2448751"
       end_point="17.255329,29.300879"
       center_point="17.255329,19.272877"
       id="path-effect5"
       is_visible="true"
       lpeversion="1.2"
       lpesatellites=""
       mode="free"
       discard_orig_path="false"
       fuse_paths="true"
       oposite_fuse="false"
       split_items="false"
       split_open="false"
       link_styles="false" />
    <inkscape:path-effect
       effect="mirror_symmetry"
       start_point="27.030316,8.4102839"
       end_point="27.030316,28.182973"
       center_point="27.030316,18.296628"
       id="path-effect3"
       is_visible="true"
       lpeversion="1.2"
       lpesatellites=""
       mode="free"
       discard_orig_path="false"
       fuse_paths="false"
       oposite_fuse="false"
       split_items="false"
       split_open="false"
       link_styles="false" />
    <inkscape:path-effect
       effect="spiro"
       id="path-effect8-8"
       is_visible="true"
       lpeversion="1" />
    <inkscape:path-effect
       effect="spiro"
       id="path-effect8-0"
       is_visible="true"
       lpeversion="1" />
    <inkscape:path-effect
       effect="spiro"
       id="path-effect8-0-9"
       is_visible="true"
       lpeversion="1" />
    <inkscape:path-effect
       effect="spiro"
       id="path-effect8-8-6"
       is_visible="true"
       lpeversion="1" />
    <inkscape:path-effect
       effect="spiro"
       id="path-effect8-3"
       is_visible="true"
       lpeversion="1" />
  </defs>
  <g
     inkscape:label="Ebene 1"
     inkscape:groupmode="layer"
     id="layer1"
     transform="translate(-0.20000279)">
    <circle
       id="path4"
       style="fill:#000000;stroke:#342b21;stroke-width:0.264583"
       cx="15.400446"
       cy="2.2130914"
       r="2.3272231e-10" />
    <circle
       id="path7"
       style="fill:#000000;stroke:#342b21;stroke-width:0.264583"
       cx="12.080808"
       cy="13.045591"
       r="4.6544463e-10" />
    <path
       id="path2-1"
       style="fill:#565656;fill-opacity:0.738185;stroke:#000000;stroke-width:0;stroke-linecap:square;paint-order:fill markers stroke"
       d="m 53.073441,8.1449565 c -1.865917,0.06885 -2.855846,1.166163 -3.907771,2.2042745 -1.069603,1.055554 -1.168077,3.1092 -1.012342,4.852254 -0.2218,1.1e-4 -0.442439,0.0026 -0.661458,0.0073 0.134166,-1.705002 0.0084,-3.661569 -1.026811,-4.683164 -1.530073,-1.5099795 -2.927829,-3.1452505 -7.082772,-1.5584745 -1.793018,0.684755 -1.972276,3.1511595 -1.235583,4.6106395 0.473931,0.938916 1.742554,1.822737 3.174483,2.570158 -2.665719,0.8858 -4.410067,2.400323 -4.410067,4.573155 1e-6,3.729947 2.348173,7.987537 11.258228,7.987537 2.336115,0 4.196115,-0.292961 5.669421,-0.792071 a 6.5478368,5.3250079 0 0 0 1.809709,0.207796 6.5478368,5.3250079 0 0 0 6.547916,-5.325297 6.5478368,5.3250079 0 0 0 -4.464322,-5.048234 c -0.824446,-0.770994 -1.995662,-1.363714 -3.414779,-1.78294 1.428975,-0.746623 2.694115,-1.629154 3.167249,-2.566492 0.736692,-1.459481 0.557442,-3.9258845 -1.235584,-4.6106405 -1.298419,-0.495867 -2.327373,-0.677093 -3.175517,-0.645799 z" />
    <path
       id="path2-7"
       style="fill:#7d96a1;fill-opacity:0.571685;stroke:#5f6348;stroke-width:0;stroke-linecap:round;stroke-linejoin:round;paint-order:fill markers stroke"
       d="m 40.151257,34.449218 c 0.03221,-0.0016 0.05583,0.0082 0.07,0.03043 0.62037,0.97222 0.521964,1.844014 0.100032,2.580451 1.608959,-0.719782 3.47003,-1.503398 3.457532,-1.270016 -0.165181,3.084644 -6.406504,4.010507 -6.406504,4.010507 l -1.749773,0.377727 -0.497356,0.206468 h 1.139972 c 0.236913,0 0.445819,0.147636 0.572982,0.374521 0.02772,-0.0039 0.05606,-0.0054 0.08483,-0.0054 h 2.382779 c 0.167807,0 0.320646,0.06132 0.436946,0.162448 0.115193,-0.09676 0.264803,-0.154844 0.428537,-0.154844 h 2.383182 c 0.165592,0 0.316426,0.05931 0.432138,0.15805 0.114666,-0.09484 0.262627,-0.151655 0.424541,-0.151655 h 2.383182 c 0.366043,0 0.660619,0.290983 0.660619,0.65262 v 0.875084 c 0,0.361637 -0.294576,0.652612 -0.660619,0.652612 h -2.383182 c -0.165592,0 -0.316433,-0.0597 -0.432137,-0.158453 -0.114666,0.09484 -0.262628,0.152049 -0.424542,0.152049 h -2.383182 c -0.167806,0 -0.320646,-0.06132 -0.436945,-0.162448 -0.115185,0.09676 -0.264804,0.155247 -0.428538,0.155247 h -2.382779 c -0.01819,0 -0.03624,-7.77e-4 -0.05405,-0.0023 -0.122463,0.260428 -0.346662,0.434143 -0.603792,0.434143 h -2.534434 c -0.04514,0 -0.08894,-0.0054 -0.131639,-0.01564 -0.17627,0.407553 -0.517373,0.682624 -0.910702,0.682624 h -3.744829 c -0.575229,0 -1.038338,-0.588136 -1.038338,-1.318836 v -1.767776 c 0,-0.7307 0.463109,-1.318836 1.038338,-1.318836 h 3.744829 c 0.367739,0 0.6895,0.24025 0.873884,0.604598 l 0.880295,-0.417333 2.067074,-1.956643 c 0,0 3.085442,-3.381938 3.641592,-3.409115 z" />
    <path
       id="path2-9"
       style="fill:#7d96a1;fill-opacity:0.571685;stroke:#5f6348;stroke-width:0;stroke-linecap:round;stroke-linejoin:round;paint-order:fill markers stroke"
       d="m 23.074466,8.2207144 c -0.02477,-0.0012 -0.04294,0.0063 -0.05383,0.0234 -0.477121,0.747727 -0.401438,1.418216 -0.07693,1.9846046 -1.237438,-0.5535786 -2.668773,-1.1562516 -2.659161,-0.9767596 0.12704,2.3723756 4.927193,3.0844506 4.927193,3.0844506 l 1.345737,0.290507 0.382513,0.158792 h -0.876744 c -0.182208,0 -0.342876,0.113546 -0.440676,0.288042 -0.02132,-0.003 -0.04312,-0.0042 -0.06524,-0.0042 H 23.72475 c -0.129058,0 -0.246606,0.04716 -0.336051,0.124938 -0.08859,-0.07441 -0.203658,-0.11909 -0.329585,-0.11909 h -1.832887 c -0.127356,0 -0.243361,0.04562 -0.332354,0.121556 -0.08819,-0.07294 -0.201984,-0.116637 -0.326511,-0.116637 h -1.832888 c -0.28152,0 -0.508076,0.223792 -0.508076,0.501925 v 0.67302 c 0,0.278133 0.226556,0.501919 0.508076,0.501919 h 1.832888 c 0.127355,0 0.243366,-0.04591 0.332353,-0.121865 0.08819,0.07294 0.201985,0.11694 0.326512,0.11694 h 1.832887 c 0.129059,0 0.246606,-0.04716 0.336052,-0.124938 0.08859,0.07442 0.203658,0.1194 0.329584,0.1194 h 1.832578 c 0.01399,0 0.02787,-5.98e-4 0.04157,-0.0018 0.09418,0.200294 0.266615,0.333896 0.464372,0.333896 h 1.949214 c 0.03472,0 0.0684,-0.0042 0.101242,-0.01203 0.135568,0.313446 0.397908,0.525001 0.700414,0.525001 h 2.88012 c 0.442403,0 0.798577,-0.452331 0.798577,-1.014307 v -1.359583 c 0,-0.561976 -0.356174,-1.014307 -0.798577,-1.014307 h -2.88012 c -0.282825,0 -0.530289,0.184775 -0.672098,0.464992 l -0.677041,-0.320939 -1.589772,-1.504839 c 0,0 -2.37299,-2.6010216 -2.80072,-2.6219246 z" />
  </g>
</svg>
