<?xml version="1.0" encoding="UTF-8" standalone="no"?>
<!-- Created with Inkscape (http://www.inkscape.org/) -->

<svg
   width="200"
   height="201.17665"
   viewBox="0 0 52.916666 53.227988"
   version="1.1"
   id="svg1"
   inkscape:version="1.4.2 (f4327f4, 2025-05-13)"
   sodipodi:docname="MayFly2.svg"
   xmlns:inkscape="http://www.inkscape.org/namespaces/inkscape"
   xmlns:sodipodi="http://sodipodi.sourceforge.net/DTD/sodipodi-0.dtd"
   xmlns="http://www.w3.org/2000/svg"
   xmlns:svg="http://www.w3.org/2000/svg">
  <sodipodi:namedview
     id="namedview1"
     pagecolor="#ffffff"
     bordercolor="#000000"
     borderopacity="0.25"
     inkscape:showpageshadow="2"
     inkscape:pageopacity="0.0"
     inkscape:pagecheckerboard="0"
     inkscape:deskcolor="#d1d1d1"
     inkscape:document-units="mm"
     inkscape:zoom="3.2124158"
     inkscape:cx="160.62678"
     inkscape:cy="83.270665"
     inkscape:window-width="3840"
     inkscape:window-height="2054"
     inkscape:window-x="-11"
     inkscape:window-y="-11"
     inkscape:window-maximized="1"
     inkscape:current-layer="layer1" />
  <defs
     id="defs1">
    <inkscape:path-effect
       effect="spiro"
       id="path-effect8"
       is_visible="true"
       lpeversion="1" />
    <inkscape:path-effect
       effect="mirror_symmetry"
       start_point="17.255329,9.2448751"
       end_point="17.255329,29.300879"
       center_point="17.255329,19.272877"
       id="path-effect5"
       is_visible="true"
       lpeversion="1.2"
       lpesatellites=""
       mode="free"
       discard_orig_path="false"
       fuse_paths="true"
       oposite_fuse="false"
       split_items="false"
       split_open="false"
       link_styles="false" />
    <inkscape:path-effect
       effect="mirror_symmetry"
       start_point="27.030316,8.4102839"
       end_point="27.030316,28.182973"
       center_point="27.030316,18.296628"
       id="path-effect3"
       is_visible="true"
       lpeversion="1.2"
       lpesatellites=""
       mode="free"
       discard_orig_path="false"
       fuse_paths="false"
       oposite_fuse="false"
       split_items="false"
       split_open="false"
       link_styles="false" />
    <inkscape:path-effect
       effect="spiro"
       id="path-effect8-8"
       is_visible="true"
       lpeversion="1" />
    <inkscape:path-effect
       effect="spiro"
       id="path-effect8-0"
       is_visible="true"
       lpeversion="1" />
    <inkscape:path-effect
       effect="spiro"
       id="path-effect8-0-9"
       is_visible="true"
       lpeversion="1" />
    <inkscape:path-effect
       effect="spiro"
       id="path-effect8-8-6"
       is_visible="true"
       lpeversion="1" />
    <inkscape:path-effect
       effect="spiro"
       id="path-effect8-3"
       is_visible="true"
       lpeversion="1" />
  </defs>
  <g
     inkscape:label="Ebene 1"
     inkscape:groupmode="layer"
     id="layer1"
     transform="translate(-0.20000279)">
    <path
       sodipodi:type="star"
       style="fill:#e0bb96;fill-opacity:1;stroke:#9fe7f9;stroke-width:0;stroke-linecap:round;stroke-dasharray:none;stroke-opacity:0.995995;paint-order:fill markers stroke"
       id="path1-89"
       inkscape:flatsided="false"
       sodipodi:sides="4"
       sodipodi:cx="30.062395"
       sodipodi:cy="13.260399"
       sodipodi:r1="4.567977"
       sodipodi:r2="1.9473779"
       sodipodi:arg1="0.44751998"
       sodipodi:arg2="1.2690543"
       inkscape:rounded="0.2"
       inkscape:randomized="2.7755576e-17"
       d="m 34.180532,15.237104 c -0.32936,0.627032 -2.871183,-0.352091 -3.539407,-0.117309 -0.643552,0.226113 -1.951556,2.57594 -2.555435,2.25874 -0.627032,-0.32936 0.352091,-2.871182 0.117309,-3.539407 -0.226113,-0.643552 -2.57594,-1.951555 -2.25874,-2.555435 0.32936,-0.627031 2.871182,0.352092 3.539407,0.11731 0.643551,-0.226113 1.951555,-2.57594 2.555435,-2.2587407 0.627031,0.3293602 -0.352092,2.8711827 -0.11731,3.5394067 0.226113,0.643552 2.57594,1.951556 2.258741,2.555435 z"
       transform="matrix(0.33627938,-0.80710428,0.80710428,0.33627938,-3.0204486,47.826227)" />
    <path
       sodipodi:type="star"
       style="fill:#c5a584;fill-opacity:1;stroke:#9fe7f9;stroke-width:0;stroke-linecap:round;stroke-dasharray:none;stroke-opacity:0.995995;paint-order:fill markers stroke"
       id="path1"
       inkscape:flatsided="false"
       sodipodi:sides="4"
       sodipodi:cx="30.062395"
       sodipodi:cy="13.260399"
       sodipodi:r1="4.567977"
       sodipodi:r2="1.9473779"
       sodipodi:arg1="0.44751998"
       sodipodi:arg2="1.2690543"
       inkscape:rounded="0.2"
       inkscape:randomized="2.7755576e-17"
       d="m 34.180532,15.237104 c -0.32936,0.627032 -2.871183,-0.352091 -3.539407,-0.117309 -0.643552,0.226113 -1.951556,2.57594 -2.555435,2.25874 -0.627032,-0.32936 0.352091,-2.871182 0.117309,-3.539407 -0.226113,-0.643552 -2.57594,-1.951555 -2.25874,-2.555435 0.32936,-0.627031 2.871182,0.352092 3.539407,0.11731 0.643551,-0.226113 1.951555,-2.57594 2.555435,-2.2587407 0.627031,0.3293602 -0.352092,2.8711827 -0.11731,3.5394067 0.226113,0.643552 2.57594,1.951556 2.258741,2.555435 z"
       transform="matrix(1.1633544,0,0,1.1633544,0.79590819,8.9176085)" />
    <path
       sodipodi:type="star"
       style="fill:#c5a584;fill-opacity:1;stroke:#9fe7f9;stroke-width:0;stroke-linecap:round;stroke-dasharray:none;stroke-opacity:0.995995;paint-order:fill markers stroke"
       id="path1-51"
       inkscape:flatsided="false"
       sodipodi:sides="4"
       sodipodi:cx="30.062395"
       sodipodi:cy="13.260399"
       sodipodi:r1="4.567977"
       sodipodi:r2="1.9473779"
       sodipodi:arg1="0.44751998"
       sodipodi:arg2="1.2690543"
       inkscape:rounded="0.2"
       inkscape:randomized="2.7755576e-17"
       d="m 34.180532,15.237104 c -0.32936,0.627032 -2.871183,-0.352091 -3.539407,-0.117309 -0.643552,0.226113 -1.951556,2.57594 -2.555435,2.25874 -0.627032,-0.32936 0.352091,-2.871182 0.117309,-3.539407 -0.226113,-0.643552 -2.57594,-1.951555 -2.25874,-2.555435 0.32936,-0.627031 2.871182,0.352092 3.539407,0.11731 0.643551,-0.226113 1.951555,-2.57594 2.555435,-2.2587407 0.627031,0.3293602 -0.352092,2.8711827 -0.11731,3.5394067 0.226113,0.643552 2.57594,1.951556 2.258741,2.555435 z"
       transform="matrix(0.34660794,0.53514453,-0.53514453,0.34660794,21.692336,1.3844221)" />
    <path
       sodipodi:type="star"
       style="fill:#937b62;fill-opacity:1;stroke:#9fe7f9;stroke-width:0;stroke-linecap:round;stroke-dasharray:none;stroke-opacity:0.995995;paint-order:fill markers stroke"
       id="path1-2"
       inkscape:flatsided="false"
       sodipodi:sides="4"
       sodipodi:cx="30.062395"
       sodipodi:cy="13.260399"
       sodipodi:r1="4.567977"
       sodipodi:r2="1.9473779"
       sodipodi:arg1="0.44751998"
       sodipodi:arg2="1.2690543"
       inkscape:rounded="0.2"
       inkscape:randomized="2.7755576e-17"
       d="m 34.180532,15.237104 c -0.32936,0.627032 -2.871183,-0.352091 -3.539407,-0.117309 -0.643552,0.226113 -1.951556,2.57594 -2.555435,2.25874 -0.627032,-0.32936 0.352091,-2.871182 0.117309,-3.539407 -0.226113,-0.643552 -2.57594,-1.951555 -2.25874,-2.555435 0.32936,-0.627031 2.871182,0.352092 3.539407,0.11731 0.643551,-0.226113 1.951555,-2.57594 2.555435,-2.2587407 0.627031,0.3293602 -0.352092,2.8711827 -0.11731,3.5394067 0.226113,0.643552 2.57594,1.951556 2.258741,2.555435 z"
       transform="matrix(0.30992527,0,0,0.30992527,10.71259,10.875678)" />
    <path
       sodipodi:type="star"
       style="fill:#e8c39c;fill-opacity:1;stroke:#9fe7f9;stroke-width:0;stroke-linecap:round;stroke-dasharray:none;stroke-opacity:0.995995;paint-order:fill markers stroke"
       id="path1-23"
       inkscape:flatsided="false"
       sodipodi:sides="4"
       sodipodi:cx="30.062395"
       sodipodi:cy="13.260399"
       sodipodi:r1="4.567977"
       sodipodi:r2="1.9473779"
       sodipodi:arg1="0.44751998"
       sodipodi:arg2="1.2690543"
       inkscape:rounded="0.2"
       inkscape:randomized="2.7755576e-17"
       d="m 34.180532,15.237104 c -0.32936,0.627032 -2.871183,-0.352091 -3.539407,-0.117309 -0.643552,0.226113 -1.951556,2.57594 -2.555435,2.25874 -0.627032,-0.32936 0.352091,-2.871182 0.117309,-3.539407 -0.226113,-0.643552 -2.57594,-1.951555 -2.25874,-2.555435 0.32936,-0.627031 2.871182,0.352092 3.539407,0.11731 0.643551,-0.226113 1.951555,-2.57594 2.555435,-2.2587407 0.627031,0.3293602 -0.352092,2.8711827 -0.11731,3.5394067 0.226113,0.643552 2.57594,1.951556 2.258741,2.555435 z"
       transform="matrix(0.59281783,-0.39656337,0.39656337,0.59281783,-7.2296512,23.176922)" />
    <path
       sodipodi:type="star"
       style="fill:#c5a584;fill-opacity:1;stroke:#9fe7f9;stroke-width:0;stroke-linecap:round;stroke-dasharray:none;stroke-opacity:0.995995;paint-order:fill markers stroke"
       id="path1-8"
       inkscape:flatsided="false"
       sodipodi:sides="4"
       sodipodi:cx="30.062395"
       sodipodi:cy="13.260399"
       sodipodi:r1="4.567977"
       sodipodi:r2="1.9473779"
       sodipodi:arg1="0.44751998"
       sodipodi:arg2="1.2690543"
       inkscape:rounded="0.2"
       inkscape:randomized="2.7755576e-17"
       d="m 34.180532,15.237104 c -0.32936,0.627032 -2.871183,-0.352091 -3.539407,-0.117309 -0.643552,0.226113 -1.951556,2.57594 -2.555435,2.25874 -0.627032,-0.32936 0.352091,-2.871182 0.117309,-3.539407 -0.226113,-0.643552 -2.57594,-1.951555 -2.25874,-2.555435 0.32936,-0.627031 2.871182,0.352092 3.539407,0.11731 0.643551,-0.226113 1.951555,-2.57594 2.555435,-2.2587407 0.627031,0.3293602 -0.352092,2.8711827 -0.11731,3.5394067 0.226113,0.643552 2.57594,1.951556 2.258741,2.555435 z"
       transform="matrix(0.36619905,0.13892611,-0.13892611,0.36619905,4.4476219,2.0237223)" />
    <path
       id="path4-8"
       style="fill:#565656;fill-opacity:0.738185;stroke:#000000;stroke-width:0;stroke-linecap:square;paint-order:fill markers stroke"
       d="m 37.426928,32.469383 c -0.94967,0.01127 -2.044525,0.557613 -2.74295,1.142277 -1.15928,0.970366 -1.80879,3.705459 -2.042967,4.8937 a 4.5628422,3.5232072 0 0 0 -1.707219,0.320879 c -0.221716,-1.146615 -0.873625,-3.974124 -2.056594,-4.96432 -1.015891,-0.85042 -2.873068,-1.619195 -3.897614,-0.779276 -0.87907,0.720671 -0.610197,2.450438 0,3.409486 0.892281,1.40244 3.828798,2.287851 5.252983,2.645077 a 4.5628422,3.5232072 0 0 0 -1.948807,2.887901 4.5628422,3.5232072 0 0 0 4.562911,3.522226 4.5628422,3.5232072 0 0 0 4.474949,-2.835868 3.6964797,2.3680574 0 0 0 2.282076,-2.187918 3.6964797,2.3680574 0 0 0 -3.695674,-2.3688 3.6964797,2.3680574 0 0 0 -0.253977,0.0062 c 1.200515,-0.463423 2.407969,-1.104378 2.926308,-1.919074 0.610196,-0.959048 0.879069,-2.688813 0,-3.409484 -0.320169,-0.262474 -0.721757,-0.368146 -1.153425,-0.363001 z" />
  </g>
</svg>
