<?xml version="1.0" encoding="UTF-8" standalone="no"?>
<!-- Created with Inkscape (http://www.inkscape.org/) -->

<svg
   width="200"
   height="201.17665"
   viewBox="0 0 52.916666 53.227988"
   version="1.1"
   id="svg1"
   inkscape:version="1.4.2 (f4327f4, 2025-05-13)"
   sodipodi:docname="PowerNap.svg"
   xml:space="preserve"
   xmlns:inkscape="http://www.inkscape.org/namespaces/inkscape"
   xmlns:sodipodi="http://sodipodi.sourceforge.net/DTD/sodipodi-0.dtd"
   xmlns:xlink="http://www.w3.org/1999/xlink"
   xmlns="http://www.w3.org/2000/svg"
   xmlns:svg="http://www.w3.org/2000/svg"><sodipodi:namedview
     id="namedview1"
     pagecolor="#ffffff"
     bordercolor="#000000"
     borderopacity="0.25"
     inkscape:showpageshadow="2"
     inkscape:pageopacity="0.0"
     inkscape:pagecheckerboard="0"
     inkscape:deskcolor="#d1d1d1"
     inkscape:document-units="mm"
     inkscape:zoom="2.8284272"
     inkscape:cx="153.9725"
     inkscape:cy="133.81995"
     inkscape:window-width="3840"
     inkscape:window-height="2054"
     inkscape:window-x="-11"
     inkscape:window-y="-11"
     inkscape:window-maximized="1"
     inkscape:current-layer="layer1" /><defs
     id="defs1"><linearGradient
       inkscape:collect="always"
       xlink:href="#linearGradient6"
       id="linearGradient7"
       x1="14.302386"
       y1="2.0970953"
       x2="16.232031"
       y2="4.4800081"
       gradientUnits="userSpaceOnUse"
       gradientTransform="matrix(2.4581979,0,0,2.0915215,-15.773298,-2.631046)" /><linearGradient
       id="linearGradient6"
       inkscape:collect="always"><stop
         style="stop-color:#8080d5;stop-opacity:1;"
         offset="0"
         id="stop6" /><stop
         style="stop-color:#3f3fa8;stop-opacity:1;"
         offset="1"
         id="stop7" /></linearGradient><linearGradient
       inkscape:collect="always"
       xlink:href="#linearGradient4"
       id="linearGradient5"
       x1="19.683516"
       y1="1.3110757"
       x2="18.781071"
       y2="5.2199874"
       gradientUnits="userSpaceOnUse"
       gradientTransform="matrix(2.4581979,0,0,2.0915215,-16.87834,-2.587346)" /><linearGradient
       id="linearGradient4"
       inkscape:collect="always"><stop
         style="stop-color:#6ca8e2;stop-opacity:1;"
         offset="0"
         id="stop4" /><stop
         style="stop-color:#254465;stop-opacity:1;"
         offset="1"
         id="stop5" /></linearGradient><inkscape:path-effect
       effect="mirror_symmetry"
       start_point="19.481026,5.008575"
       end_point="17.530012,18.403601"
       center_point="18.505519,11.706088"
       id="path-effect8"
       is_visible="true"
       lpeversion="1.2"
       lpesatellites=""
       mode="free"
       discard_orig_path="false"
       fuse_paths="true"
       oposite_fuse="true"
       split_items="false"
       split_open="false"
       link_styles="false" /></defs><g
     inkscape:label="Ebene 1"
     inkscape:groupmode="layer"
     id="layer1"
     transform="translate(-0.20000279)"><rect
       style="fill:#7a96d9;fill-opacity:1;stroke:#212532;stroke-width:1.29973;stroke-linejoin:round;stroke-miterlimit:8.2;stroke-dasharray:none;stroke-opacity:0.995995"
       id="rect1"
       width="51.616936"
       height="51.616943"
       x="0.84986877"
       y="0.96118057"
       ry="5.9818354"
       rx="19.15794" /><rect
       style="fill:#c7d9f4;fill-opacity:1;stroke:#212532;stroke-width:0.689558;stroke-linejoin:round;stroke-miterlimit:8.2;stroke-dasharray:none;stroke-opacity:0.995995"
       id="rect1-8"
       width="45.94006"
       height="45.940067"
       x="3.6883106"
       y="3.7675676"
       ry="5.3239479"
       rx="17.050934" /><path
       id="path5"
       style="fill:#7b96d9;fill-opacity:1;stroke:#212532;stroke-width:1.48938;stroke-linecap:round;stroke-linejoin:round;paint-order:fill markers stroke"
       d="m 46.186463,31.90244 c 0,3.581978 0.410458,7.812417 -1.999577,10.148189 -2.37906,2.305752 -3.494639,5.252413 -13.47716,5.45544 -7.270596,0.147872 -14.563114,-3.232372 -14.563114,-10.350292 0,-7.117921 11.808376,-16.517252 19.080475,-16.517252 7.272099,0 10.959376,4.145994 10.959376,11.263915 z"
       sodipodi:nodetypes="ssssss" /><path
       style="fill:#5170ba;fill-opacity:1;stroke:#212532;stroke-width:1.14565;stroke-linecap:round;stroke-linejoin:round;stroke-dasharray:none;stroke-opacity:1;paint-order:fill markers stroke"
       d="m 27.676431,41.984915 c 0,0 -2.24405,0.451481 -3.014805,0 -0.800125,-0.468685 -1.123392,-1.51803 -1.159301,-2.512337 -0.05149,-1.425722 0.517181,-3.060273 1.370181,-4.486317 1.263918,-2.113017 3.201364,-4.022218 5.252135,-5.527141 1.243931,-0.912838 2.678124,-1.679779 4.072776,-1.973979 1.592438,-0.335923 3.275097,-0.299569 4.503086,0.323015 0.994962,0.50444 1.991846,1.37998 1.964584,2.584118 -0.02223,0.98181 -0.860242,2.113913 -1.715367,2.907132 -1.107339,1.027173 -3.965105,1.973979 -3.965105,1.973979"
       id="path6"
       sodipodi:nodetypes="caaaaaaaac" /><path
       style="fill:#96aad9;fill-opacity:1;stroke:#212532;stroke-width:1.16523;stroke-linecap:round;stroke-linejoin:round;stroke-dasharray:none;stroke-opacity:1"
       d="m 27.334777,43.113448 -0.597864,1.530748 0.244582,2.219573 1.603364,0.57403 1.766415,0.191341 3.804593,-1.722083 3.315426,-3.520706 2.744741,-2.410925 c 0,0 5.65661,-2.246391 7.005127,-4.717578 1.401776,-2.568783 1.324979,-6.082437 0.18392,-8.777175 -0.895529,-2.114892 -2.981878,-3.685705 -5.04724,-4.690207 -2.331157,-1.133772 -7.681576,-1.212846 -7.681576,-1.212846 0,0 4.528419,2.619577 6.321507,4.477748 0.799269,0.82828 1.520332,1.798554 1.894266,2.887155 0.377865,1.100042 0.821097,2.446929 0.282655,3.477925 -0.514636,0.985416 -1.877049,1.304865 -2.882411,1.677721 -2.421649,0.898113 -7.45584,1.298877 -7.45584,1.298877 l -1.652581,0.757683 z"
       id="path2"
       sodipodi:nodetypes="ccccccccaaacaaaaccc" /><path
       style="fill:#6788d4;fill-opacity:1;stroke:#212532;stroke-width:1.04554;stroke-linecap:round;stroke-linejoin:round;stroke-dasharray:none;stroke-opacity:1"
       d="m 37.152846,38.089183 -1.091179,-0.04757 -0.807933,2.642209 -2.147158,2.426283 -3.414332,1.617526 -0.950378,-0.808763 -0.774387,-0.761185 2.639948,-5.233167 0.807933,-2.975228 1.212164,0.02772"
       id="path1"
       sodipodi:nodetypes="cccccccccc" /><path
       id="path3-8"
       style="fill:#7fff86;stroke:#212532;stroke-width:0.592135;stroke-linecap:round;stroke-linejoin:round"
       d="m 35.705232,40.36926 c 0.176549,0.351339 0.850031,0.375345 1.504265,0.05362 0.654235,-0.321729 1.041472,-0.86736 0.864923,-1.218697 -0.147487,-0.293494 -0.385862,0.174457 -0.829093,0.525931 -0.278971,0.221257 -0.403679,0.202532 -0.511393,0.255502 -0.654233,0.321728 -1.205258,0.03231 -1.028711,0.383633 z"
       sodipodi:nodetypes="ssssss" /><rect
       style="fill:#c6cad4;fill-opacity:1;stroke:#212532;stroke-width:1.493;stroke-linecap:round;stroke-linejoin:round;stroke-dasharray:none;stroke-opacity:1;paint-order:fill markers stroke"
       id="rect6"
       width="9.3927078"
       height="18.653124"
       x="6.4838567"
       y="12.104688"
       ry="3.1749988" /><rect
       style="fill:#0039c9;fill-opacity:1;stroke:#212532;stroke-width:0.813667;stroke-linecap:round;stroke-linejoin:round;stroke-dasharray:none;stroke-opacity:1;paint-order:fill markers stroke"
       id="rect7"
       width="6.1970868"
       height="2.7607932"
       x="8.0478363"
       y="26.201529"
       ry="0.88431662"
       rx="0.71504849" /><rect
       style="fill:#003cd4;fill-opacity:1;stroke:#212532;stroke-width:0.813667;stroke-linecap:round;stroke-linejoin:round;stroke-dasharray:none;stroke-opacity:1;paint-order:fill markers stroke"
       id="rect7-1"
       width="6.1970868"
       height="2.7607932"
       x="8.1154013"
       y="22.435926"
       ry="0.88431662"
       rx="0.71504849" /><rect
       style="fill:#5278d4;fill-opacity:1;stroke:#212532;stroke-width:0.813667;stroke-linecap:round;stroke-linejoin:round;stroke-dasharray:none;stroke-opacity:1;paint-order:fill markers stroke"
       id="rect7-2"
       width="6.1970868"
       height="2.7607932"
       x="8.1489782"
       y="18.696156"
       ry="0.88431662"
       rx="0.71504849" /><rect
       style="fill:#98a9d4;fill-opacity:1;stroke:#212532;stroke-width:0.813667;stroke-linecap:round;stroke-linejoin:round;stroke-dasharray:none;stroke-opacity:1;paint-order:fill markers stroke"
       id="rect7-2-2"
       width="6.1970868"
       height="2.7607932"
       x="8.1805344"
       y="14.694334"
       ry="0.88431662"
       rx="0.71504849" /></g><g
     inkscape:groupmode="layer"
     id="layer2"
     inkscape:label="Ebene 2" /><path
     d="m 28.155716,0.344743 v 1.875229 a 2.6210673,1.8991341 0 0 1 0.306146,-0.01298 2.6210673,1.8991341 0 0 1 0.06987,0.0031 2.6210673,1.8991341 0 0 0 -0.376014,0.02702 v -0.01736 a 2.6210673,1.8991341 0 0 0 -2.314501,1.886205 2.6210673,1.8991341 0 0 0 2.314501,1.886038 v -0.01735 a 2.6210673,1.8991341 0 0 0 0.398877,0.02809 2.6210673,1.8991341 0 0 1 -0.09272,0.0021 2.6210673,1.8991341 0 0 1 -0.306142,-0.01298 v 2.148677 h 6.799961 V 0.344574 Z"
     style="fill:url(#linearGradient5);stroke:#332d21;stroke-width:0.689183"
     id="path4"
     transform="translate(-0.20000279)" /><path
     d="M 18.356547,0.34904 V 8.145021 H 25.15651 V 5.979052 a 2.6210673,1.8991341 0 0 1 -0.464934,0.03026 2.6210673,1.8991341 0 0 1 -2.620648,-1.899007 2.6210673,1.8991341 0 0 1 2.620648,-1.899008 2.6210673,1.8991341 0 0 1 0.464934,0.03026 V 0.349036 Z"
     style="fill:url(#linearGradient7);stroke:#332d21;stroke-width:0.680238"
     id="path3"
     transform="translate(-0.20000279)" /></svg>
