<?xml version="1.0" encoding="UTF-8" standalone="no"?>
<!-- Created with Inkscape (http://www.inkscape.org/) -->

<svg
   width="200"
   height="201.17665"
   viewBox="0 0 52.916666 53.227988"
   version="1.1"
   id="svg1"
   inkscape:version="1.4.2 (f4327f4, 2025-05-13)"
   sodipodi:docname="ShinyGhost.svg"
   xml:space="preserve"
   xmlns:inkscape="http://www.inkscape.org/namespaces/inkscape"
   xmlns:sodipodi="http://sodipodi.sourceforge.net/DTD/sodipodi-0.dtd"
   xmlns:xlink="http://www.w3.org/1999/xlink"
   xmlns="http://www.w3.org/2000/svg"
   xmlns:svg="http://www.w3.org/2000/svg"><sodipodi:namedview
     id="namedview1"
     pagecolor="#ffffff"
     bordercolor="#000000"
     borderopacity="0.25"
     inkscape:showpageshadow="2"
     inkscape:pageopacity="0.0"
     inkscape:pagecheckerboard="0"
     inkscape:deskcolor="#d1d1d1"
     inkscape:document-units="mm"
     inkscape:zoom="2"
     inkscape:cx="130.5"
     inkscape:cy="37.75"
     inkscape:window-width="3840"
     inkscape:window-height="2054"
     inkscape:window-x="-11"
     inkscape:window-y="-11"
     inkscape:window-maximized="1"
     inkscape:current-layer="layer1" /><defs
     id="defs1"><linearGradient
       id="linearGradient3"
       inkscape:collect="always"><stop
         style="stop-color:#f4f4f4;stop-opacity:1;"
         offset="0.65925175"
         id="stop3" /><stop
         style="stop-color:#c7d9f4;stop-opacity:1;"
         offset="0.89585441"
         id="stop8" /></linearGradient><linearGradient
       inkscape:collect="always"
       xlink:href="#linearGradient6"
       id="linearGradient7"
       x1="14.302386"
       y1="2.0970953"
       x2="16.232031"
       y2="4.4800081"
       gradientUnits="userSpaceOnUse"
       gradientTransform="matrix(2.4581979,0,0,2.0915215,-15.773298,-2.631046)" /><linearGradient
       id="linearGradient6"
       inkscape:collect="always"><stop
         style="stop-color:#8080d5;stop-opacity:1;"
         offset="0"
         id="stop6" /><stop
         style="stop-color:#3f3fa8;stop-opacity:1;"
         offset="1"
         id="stop7" /></linearGradient><linearGradient
       inkscape:collect="always"
       xlink:href="#linearGradient4"
       id="linearGradient5"
       x1="19.683516"
       y1="1.3110757"
       x2="18.781071"
       y2="5.2199874"
       gradientUnits="userSpaceOnUse"
       gradientTransform="matrix(2.4581979,0,0,2.0915215,-16.87834,-2.587346)" /><linearGradient
       id="linearGradient4"
       inkscape:collect="always"><stop
         style="stop-color:#6ca8e2;stop-opacity:1;"
         offset="0"
         id="stop4" /><stop
         style="stop-color:#254465;stop-opacity:1;"
         offset="1"
         id="stop5" /></linearGradient><inkscape:path-effect
       effect="mirror_symmetry"
       start_point="19.481026,5.008575"
       end_point="17.530012,18.403601"
       center_point="18.505519,11.706088"
       id="path-effect8"
       is_visible="true"
       lpeversion="1.2"
       lpesatellites=""
       mode="free"
       discard_orig_path="false"
       fuse_paths="true"
       oposite_fuse="true"
       split_items="false"
       split_open="false"
       link_styles="false" /><radialGradient
       inkscape:collect="always"
       xlink:href="#linearGradient3"
       id="radialGradient8"
       cx="32.005074"
       cy="28.19206"
       fx="32.005074"
       fy="28.19206"
       r="16.70517"
       gradientTransform="matrix(1.0871113,0,0,0.94101071,-3.9131856,0.61376331)"
       gradientUnits="userSpaceOnUse" /></defs><g
     inkscape:label="Ebene 1"
     inkscape:groupmode="layer"
     id="layer1"
     transform="translate(-0.20000279)"><rect
       style="fill:#7a96d9;fill-opacity:1;stroke:#212532;stroke-width:1.29973;stroke-linejoin:round;stroke-miterlimit:8.2;stroke-dasharray:none;stroke-opacity:0.995995"
       id="rect1"
       width="51.616936"
       height="51.616943"
       x="0.84986877"
       y="0.96118057"
       ry="5.9818354"
       rx="19.15794" /><rect
       style="fill:#c7d9f4;fill-opacity:1;stroke:#212532;stroke-width:0.689558;stroke-linejoin:round;stroke-miterlimit:8.2;stroke-dasharray:none;stroke-opacity:0.995995"
       id="rect1-8"
       width="45.94006"
       height="45.940067"
       x="3.6883106"
       y="3.7675676"
       ry="5.3239479"
       rx="17.050934" /><ellipse
       style="fill:url(#radialGradient8);stroke:#1c3a68;stroke-width:1.13494;stroke-linecap:round;stroke-linejoin:round;stroke-dasharray:none;stroke-opacity:1"
       id="path1"
       cx="26.761322"
       cy="30.498665"
       rx="17.592907"
       ry="15.152271" /><path
       style="fill:#f9f9f9;fill-opacity:0;stroke:#1c3a68;stroke-width:1.78721;stroke-linecap:round;stroke-linejoin:round;stroke-dasharray:none;stroke-opacity:1"
       d="m 26.65963,17.024328 c 0,0 -0.812869,-2.915779 -0.05084,-4.016877 0.594956,-0.859689 2.949101,-1.067777 2.949101,-1.067777"
       id="path2"
       sodipodi:nodetypes="cac" /><path
       sodipodi:type="star"
       style="fill:#f4f4f4;fill-opacity:1;stroke:#3165b5;stroke-width:0.344;stroke-linecap:round;stroke-linejoin:round;stroke-dasharray:none;stroke-opacity:1"
       id="path8"
       inkscape:flatsided="false"
       sodipodi:sides="4"
       sodipodi:cx="32.893749"
       sodipodi:cy="22.357096"
       sodipodi:r1="3.5978105"
       sodipodi:r2="0.7817086"
       sodipodi:arg1="1.1129626"
       sodipodi:arg2="1.9900985"
       inkscape:rounded="0.19"
       inkscape:randomized="0"
       d="m 34.484003,25.584375 c -0.559866,0.214639 -1.340787,-2.320374 -1.908505,-2.513288 -0.546554,-0.185721 -2.702392,1.415256 -2.909028,0.876262 -0.214639,-0.559866 2.320374,-1.340786 2.513288,-1.908505 0.185721,-0.546553 -1.415256,-2.702391 -0.876262,-2.909028 0.559866,-0.214639 1.340786,2.320374 1.908505,2.513288 0.546553,0.185722 2.702391,-1.415256 2.909028,-0.876262 0.214639,0.559866 -2.320374,1.340787 -2.513288,1.908505 -0.185722,0.546554 1.415256,2.702392 0.876262,2.909028 z"
       inkscape:transform-center-x="0.3976238"
       inkscape:transform-center-y="0.09200149"
       transform="matrix(1.6088903,0,0,1.6088903,-15.10951,-16.962772)" /><path
       sodipodi:type="star"
       style="fill:#f4f4f4;fill-opacity:1;stroke:#3165b5;stroke-width:0.344;stroke-linecap:round;stroke-linejoin:round;stroke-dasharray:none;stroke-opacity:1"
       id="path8-8"
       inkscape:flatsided="false"
       sodipodi:sides="4"
       sodipodi:cx="32.893749"
       sodipodi:cy="22.357096"
       sodipodi:r1="3.5978105"
       sodipodi:r2="0.7817086"
       sodipodi:arg1="1.1129626"
       sodipodi:arg2="1.9900985"
       inkscape:rounded="0.19"
       inkscape:randomized="0"
       d="m 34.484003,25.584375 c -0.559866,0.214639 -1.340787,-2.320374 -1.908505,-2.513288 -0.546554,-0.185721 -2.702392,1.415256 -2.909028,0.876262 -0.214639,-0.559866 2.320374,-1.340786 2.513288,-1.908505 0.185721,-0.546553 -1.415256,-2.702391 -0.876262,-2.909028 0.559866,-0.214639 1.340786,2.320374 1.908505,2.513288 0.546553,0.185722 2.702391,-1.415256 2.909028,-0.876262 0.214639,0.559866 -2.320374,1.340787 -2.513288,1.908505 -0.185722,0.546554 1.415256,2.702392 0.876262,2.909028 z"
       inkscape:transform-center-x="3.3810044"
       inkscape:transform-center-y="1.7435317"
       transform="matrix(0.56725528,0.65414201,-0.65414201,0.56725528,27.312628,-16.450932)" /></g><g
     inkscape:groupmode="layer"
     id="layer2"
     inkscape:label="Ebene 2" /><path
     d="m 28.155716,0.344743 v 1.875229 a 2.6210673,1.8991341 0 0 1 0.306146,-0.01298 2.6210673,1.8991341 0 0 1 0.06987,0.0031 2.6210673,1.8991341 0 0 0 -0.376014,0.02702 v -0.01736 a 2.6210673,1.8991341 0 0 0 -2.314501,1.886205 2.6210673,1.8991341 0 0 0 2.314501,1.886038 v -0.01735 a 2.6210673,1.8991341 0 0 0 0.398877,0.02809 2.6210673,1.8991341 0 0 1 -0.09272,0.0021 2.6210673,1.8991341 0 0 1 -0.306142,-0.01298 v 2.148677 h 6.799961 V 0.344574 Z"
     style="fill:url(#linearGradient5);stroke:#332d21;stroke-width:0.689183"
     id="path4"
     transform="translate(-0.20000279)" /><path
     d="M 18.356547,0.34904 V 8.145021 H 25.15651 V 5.979052 a 2.6210673,1.8991341 0 0 1 -0.464934,0.03026 2.6210673,1.8991341 0 0 1 -2.620648,-1.899007 2.6210673,1.8991341 0 0 1 2.620648,-1.899008 2.6210673,1.8991341 0 0 1 0.464934,0.03026 V 0.349036 Z"
     style="fill:url(#linearGradient7);stroke:#332d21;stroke-width:0.680238"
     id="path3"
     transform="translate(-0.20000279)" /></svg>
