<?xml version="1.0" encoding="UTF-8" standalone="no"?>
<!-- Created with Inkscape (http://www.inkscape.org/) -->

<svg
   width="200"
   height="201.17665"
   viewBox="0 0 52.916666 53.227988"
   version="1.1"
   id="svg1"
   inkscape:version="1.4.2 (f4327f4, 2025-05-13)"
   sodipodi:docname="ShrinkReaction.svg"
   xmlns:inkscape="http://www.inkscape.org/namespaces/inkscape"
   xmlns:sodipodi="http://sodipodi.sourceforge.net/DTD/sodipodi-0.dtd"
   xmlns="http://www.w3.org/2000/svg"
   xmlns:svg="http://www.w3.org/2000/svg">
  <sodipodi:namedview
     id="namedview1"
     pagecolor="#ffffff"
     bordercolor="#000000"
     borderopacity="0.25"
     inkscape:showpageshadow="2"
     inkscape:pageopacity="0.0"
     inkscape:pagecheckerboard="0"
     inkscape:deskcolor="#d1d1d1"
     inkscape:document-units="mm"
     inkscape:zoom="3.2124158"
     inkscape:cx="66.616532"
     inkscape:cy="108.79663"
     inkscape:window-width="3840"
     inkscape:window-height="2054"
     inkscape:window-x="-11"
     inkscape:window-y="-11"
     inkscape:window-maximized="1"
     inkscape:current-layer="layer1" />
  <defs
     id="defs1">
    <inkscape:path-effect
       effect="spiro"
       id="path-effect8"
       is_visible="true"
       lpeversion="1" />
    <inkscape:path-effect
       effect="mirror_symmetry"
       start_point="17.255329,9.2448751"
       end_point="17.255329,29.300879"
       center_point="17.255329,19.272877"
       id="path-effect5"
       is_visible="true"
       lpeversion="1.2"
       lpesatellites=""
       mode="free"
       discard_orig_path="false"
       fuse_paths="true"
       oposite_fuse="false"
       split_items="false"
       split_open="false"
       link_styles="false" />
    <inkscape:path-effect
       effect="mirror_symmetry"
       start_point="27.030316,8.4102839"
       end_point="27.030316,28.182973"
       center_point="27.030316,18.296628"
       id="path-effect3"
       is_visible="true"
       lpeversion="1.2"
       lpesatellites=""
       mode="free"
       discard_orig_path="false"
       fuse_paths="false"
       oposite_fuse="false"
       split_items="false"
       split_open="false"
       link_styles="false" />
    <inkscape:path-effect
       effect="spiro"
       id="path-effect8-8"
       is_visible="true"
       lpeversion="1" />
    <inkscape:path-effect
       effect="spiro"
       id="path-effect8-0"
       is_visible="true"
       lpeversion="1" />
    <inkscape:path-effect
       effect="spiro"
       id="path-effect8-0-9"
       is_visible="true"
       lpeversion="1" />
    <inkscape:path-effect
       effect="spiro"
       id="path-effect8-8-6"
       is_visible="true"
       lpeversion="1" />
    <inkscape:path-effect
       effect="spiro"
       id="path-effect8-3"
       is_visible="true"
       lpeversion="1" />
  </defs>
  <g
     inkscape:label="Ebene 1"
     inkscape:groupmode="layer"
     id="layer1"
     transform="translate(-0.20000279)">
    <path
       style="fill:#d9a87a;fill-opacity:1;stroke:#44413d;stroke-width:0.944;stroke-linecap:round;stroke-linejoin:round;stroke-dasharray:none;stroke-dashoffset:0;stroke-opacity:1"
       d="m 4.7498984,24.645598 c 1.6229055,-0.381217 3.3437151,0.04395 4.9988126,-0.155543 0.593154,-0.0715 1.156022,-0.379751 1.753414,-0.37153 0.587681,0.0081 1.13387,0.319824 1.714204,0.412811 0.462245,0.07407 0.934442,0.165524 1.399767,0.114259 0.415314,-0.04576 0.79339,-0.264046 1.197155,-0.371531 0.502574,-0.133789 1.052122,-0.5608 1.522823,-0.339618 0.604688,0.284142 0.822921,1.122412 0.912765,1.784462 0.06423,0.473327 -0.08274,0.972707 -0.288969,1.403561 -0.30807,0.643622 -0.772049,1.250263 -1.362278,1.651245 -0.777495,0.528205 -1.743681,0.841208 -2.683276,0.866905 -4.8606376,0.132931 -2.844535,-0.709316 -4.2932408,-0.68114 -1.1642408,0.02264 -2.2659848,0.583395 -3.4263363,0.68114 -0.973926,0.08204 -1.9539283,-0.05673 -2.9309623,-0.08256 -1.1145418,-0.02946 -2.2303779,-0.02408 -3.34377378,-0.08257 -1.19936852,-0.06301 -2.50774732,0.228736 -3.59146142,-0.288969 -0.3425198,-0.163627 -0.7637227,-0.446586 -0.7843415,-0.825623 -0.019734,-0.362748 0.3786847,-0.637651 0.6604977,-0.866904 0.2721458,-0.221388 0.6098676,-0.366065 0.9494666,-0.454092 0.6539111,-0.1695 1.3528917,-0.03676 2.02277713,-0.123846 0.6262113,-0.08141 1.270389,-0.139387 1.85765197,-0.37153 0.436784,-0.172659 0.7833929,-0.520817 1.1971541,-0.743061 0.8136427,-0.437033 1.6190362,-0.944666 2.518151,-1.155867 z"
       id="path16"
       sodipodi:nodetypes="aaaaaaaaaasaaaaaaaaaaaaa" />
    <ellipse
       style="fill:#6b2727;fill-opacity:1;stroke:#864e4e;stroke-width:0;stroke-linecap:round;stroke-linejoin:round;stroke-dasharray:none;stroke-dashoffset:0;stroke-opacity:1"
       id="path17"
       cx="14.865658"
       cy="26.667223"
       rx="0.17353012"
       ry="0.39044276"
       transform="rotate(-4.1636127)" />
    <ellipse
       style="fill:#fff6f6;fill-opacity:1;stroke:#e8e8e8;stroke-width:0;stroke-linecap:round;stroke-linejoin:round;stroke-dasharray:none;stroke-dashoffset:0;stroke-opacity:1"
       id="path18-2"
       cx="16.093115"
       cy="26.035229"
       rx="1.3713819"
       ry="0.95383906" />
    <ellipse
       style="fill:#3a2d2d;fill-opacity:1;stroke:#864e4e;stroke-width:0;stroke-linecap:round;stroke-linejoin:round;stroke-dasharray:none;stroke-dashoffset:0;stroke-opacity:1"
       id="path19-1"
       cx="16.494925"
       cy="26.032436"
       rx="0.72644234"
       ry="0.77833176" />
    <ellipse
       style="fill:#fff6f6;fill-opacity:1;stroke:#e8e8e8;stroke-width:0;stroke-linecap:round;stroke-linejoin:round;stroke-dasharray:none;stroke-dashoffset:0;stroke-opacity:1"
       id="path18"
       cx="11.539433"
       cy="25.950329"
       rx="1.3713819"
       ry="0.95383906" />
    <ellipse
       style="fill:#3a2d2d;fill-opacity:1;stroke:#864e4e;stroke-width:0;stroke-linecap:round;stroke-linejoin:round;stroke-dasharray:none;stroke-dashoffset:0;stroke-opacity:1"
       id="path19"
       cx="11.941243"
       cy="25.947536"
       rx="0.72644234"
       ry="0.77833176" />
    <path
       style="fill:#271e1e;fill-opacity:0;stroke:#442828;stroke-width:0.144728;stroke-linecap:round;stroke-linejoin:round;stroke-dasharray:none;stroke-dashoffset:0;stroke-opacity:1"
       d="m 15.488393,27.120096 -0.785464,0.196411 -0.750463,0.213206 -0.934054,-0.357243 -0.597953,-0.210483"
       id="path20"
       sodipodi:nodetypes="ccccc" />
    <circle
       id="path4"
       style="fill:#000000;stroke:#342b21;stroke-width:0.264583"
       cx="15.400446"
       cy="2.2130914"
       r="2.3272231e-10" />
    <circle
       id="path7"
       style="fill:#000000;stroke:#342b21;stroke-width:0.264583"
       cx="12.080808"
       cy="13.045591"
       r="4.6544463e-10" />
  </g>
</svg>
