<?xml version="1.0" encoding="UTF-8" standalone="no"?>
<!-- Created with Inkscape (http://www.inkscape.org/) -->

<svg
   width="200"
   height="201.17665"
   viewBox="0 0 52.916666 53.227988"
   version="1.1"
   id="svg1"
   inkscape:version="1.4.2 (f4327f4, 2025-05-13)"
   sodipodi:docname="ShrinkReaction.svg"
   xmlns:inkscape="http://www.inkscape.org/namespaces/inkscape"
   xmlns:sodipodi="http://sodipodi.sourceforge.net/DTD/sodipodi-0.dtd"
   xmlns:xlink="http://www.w3.org/1999/xlink"
   xmlns="http://www.w3.org/2000/svg"
   xmlns:svg="http://www.w3.org/2000/svg">
  <sodipodi:namedview
     id="namedview1"
     pagecolor="#ffffff"
     bordercolor="#000000"
     borderopacity="0.25"
     inkscape:showpageshadow="2"
     inkscape:pageopacity="0.0"
     inkscape:pagecheckerboard="0"
     inkscape:deskcolor="#d1d1d1"
     inkscape:document-units="mm"
     inkscape:zoom="3.2124158"
     inkscape:cx="66.616532"
     inkscape:cy="108.79663"
     inkscape:window-width="3840"
     inkscape:window-height="2054"
     inkscape:window-x="-11"
     inkscape:window-y="-11"
     inkscape:window-maximized="1"
     inkscape:current-layer="layer1" />
  <defs
     id="defs1">
    <inkscape:path-effect
       effect="spiro"
       id="path-effect8"
       is_visible="true"
       lpeversion="1" />
    <inkscape:path-effect
       effect="mirror_symmetry"
       start_point="17.255329,9.2448751"
       end_point="17.255329,29.300879"
       center_point="17.255329,19.272877"
       id="path-effect5"
       is_visible="true"
       lpeversion="1.2"
       lpesatellites=""
       mode="free"
       discard_orig_path="false"
       fuse_paths="true"
       oposite_fuse="false"
       split_items="false"
       split_open="false"
       link_styles="false" />
    <inkscape:path-effect
       effect="mirror_symmetry"
       start_point="27.030316,8.4102839"
       end_point="27.030316,28.182973"
       center_point="27.030316,18.296628"
       id="path-effect3"
       is_visible="true"
       lpeversion="1.2"
       lpesatellites=""
       mode="free"
       discard_orig_path="false"
       fuse_paths="false"
       oposite_fuse="false"
       split_items="false"
       split_open="false"
       link_styles="false" />
    <linearGradient
       inkscape:collect="always"
       xlink:href="#linearGradient33"
       id="linearGradient34"
       x1="9.157506"
       y1="0.65352297"
       x2="9.5236139"
       y2="7.639287"
       gradientUnits="userSpaceOnUse"
       gradientTransform="matrix(-1.5770797,0,0,1,42.42259,0)" />
    <linearGradient
       id="linearGradient33"
       inkscape:collect="always">
      <stop
         style="stop-color:#ffd1a8;stop-opacity:1;"
         offset="0"
         id="stop33" />
      <stop
         style="stop-color:#a06c34;stop-opacity:1;"
         offset="0.69575757"
         id="stop34" />
    </linearGradient>
    <inkscape:path-effect
       effect="spiro"
       id="path-effect8-8"
       is_visible="true"
       lpeversion="1" />
    <inkscape:path-effect
       effect="spiro"
       id="path-effect8-0"
       is_visible="true"
       lpeversion="1" />
    <inkscape:path-effect
       effect="spiro"
       id="path-effect8-0-9"
       is_visible="true"
       lpeversion="1" />
    <inkscape:path-effect
       effect="spiro"
       id="path-effect8-8-6"
       is_visible="true"
       lpeversion="1" />
    <inkscape:path-effect
       effect="spiro"
       id="path-effect8-3"
       is_visible="true"
       lpeversion="1" />
    <linearGradient
       inkscape:collect="always"
       xlink:href="#linearGradient33"
       id="linearGradient6"
       gradientUnits="userSpaceOnUse"
       x1="9.157506"
       y1="0.65352297"
       x2="9.5236139"
       y2="7.639287"
       gradientTransform="matrix(-1.5770797,0,0,1,42.42259,0)" />
  </defs>
  <g
     inkscape:label="Ebene 1"
     inkscape:groupmode="layer"
     id="layer1"
     transform="translate(-0.20000279)">
    <path
       d="M 0.86762744,52.578186 V 49.7396 H 9.7150335 c 14.8974375,0 26.8910315,-2.374239 26.8910315,-5.323706 V 9.1234741 c 0,-2.9494671 -11.993594,-5.323706 -26.8910315,-5.323706 H 6.292124 C 6.5569993,3.5241652 6.7320299,3.2964177 6.6849446,3.2023885 6.538139,2.9092203 3.4439291,2.3451219 3.0534,2.1626587 2.8305807,2.0585534 2.1593346,1.4580663 1.5342796,0.96118164 h 9.3347644 c 16.738333,0 30.212883,2.66812706 30.212883,5.98206376 V 46.596122 c 0,3.313937 -13.47455,5.982064 -30.212883,5.982064 z"
       style="fill:#d9a87a;stroke:#212532;stroke-width:1.29973;stroke-linejoin:round;stroke-miterlimit:8.2;stroke-opacity:0.995995"
       id="path2" />
    <path
       d="M 0.86762744,49.7396 V 7.4166016 C 1.8929926,7.5945497 3.9092323,8.0358307 4.2269681,7.891508 4.6213248,7.7123834 4.5116184,5.6719264 4.6646124,5.3800334 4.768542,5.1817606 5.7311599,4.3834516 6.292124,3.7997681 h 3.4229095 c 14.8974375,0 26.8910315,2.3742389 26.8910315,5.323706 V 44.415894 c 0,2.949467 -11.993594,5.323706 -26.8910315,5.323706 z"
       style="fill:#f4e9de;stroke:#212532;stroke-width:0.689559;stroke-linejoin:round;stroke-miterlimit:8.2;stroke-opacity:0.995995"
       id="path3" />
    <path
       d="M 0.86762744,0.96118164 V 0.47180583 C 1.0651993,0.59787498 1.2961894,0.77191312 1.5342796,0.96118164 Z"
       style="fill:url(#linearGradient6);stroke:#322d21;stroke-width:0.443;stroke-linejoin:round;stroke-miterlimit:8.2;stroke-opacity:0.995995"
       id="path6" />
    <path
       id="path5"
       style="fill:url(#linearGradient34);stroke:#322d21;stroke-width:0.443;stroke-linejoin:round;stroke-miterlimit:8.2;stroke-opacity:0.995995"
       d="M 1.5342796,0.96118164 C 2.1593346,1.4580663 2.8305807,2.0585534 3.0534,2.1626587 3.4439291,2.3451219 6.538139,2.9092203 6.6849446,3.2023885 6.7320362,3.2964175 6.5569961,3.5241652 6.292124,3.7997681 5.7311599,4.3834516 4.7685357,5.1817606 4.6646124,5.3800334 4.5116199,5.6719264 4.6213216,7.7123834 4.2269681,7.891508 3.9092323,8.0358307 1.8929926,7.5945497 0.86762744,7.4166016 V 3.7997681 0.96118164 Z" />
    <path
       style="fill:#d9a87a;fill-opacity:1;stroke:#44413d;stroke-width:0.944;stroke-linecap:round;stroke-linejoin:round;stroke-dasharray:none;stroke-dashoffset:0;stroke-opacity:1"
       d="m 4.7498984,24.645598 c 1.6229055,-0.381217 3.3437151,0.04395 4.9988126,-0.155543 0.593154,-0.0715 1.156022,-0.379751 1.753414,-0.37153 0.587681,0.0081 1.13387,0.319824 1.714204,0.412811 0.462245,0.07407 0.934442,0.165524 1.399767,0.114259 0.415314,-0.04576 0.79339,-0.264046 1.197155,-0.371531 0.502574,-0.133789 1.052122,-0.5608 1.522823,-0.339618 0.604688,0.284142 0.822921,1.122412 0.912765,1.784462 0.06423,0.473327 -0.08274,0.972707 -0.288969,1.403561 -0.30807,0.643622 -0.772049,1.250263 -1.362278,1.651245 -0.777495,0.528205 -1.743681,0.841208 -2.683276,0.866905 -4.8606376,0.132931 -2.844535,-0.709316 -4.2932408,-0.68114 -1.1642408,0.02264 -2.2659848,0.583395 -3.4263363,0.68114 -0.973926,0.08204 -1.9539283,-0.05673 -2.9309623,-0.08256 -1.1145418,-0.02946 -2.2303779,-0.02408 -3.34377378,-0.08257 -1.19936852,-0.06301 -2.50774732,0.228736 -3.59146142,-0.288969 -0.3425198,-0.163627 -0.7637227,-0.446586 -0.7843415,-0.825623 -0.019734,-0.362748 0.3786847,-0.637651 0.6604977,-0.866904 0.2721458,-0.221388 0.6098676,-0.366065 0.9494666,-0.454092 0.6539111,-0.1695 1.3528917,-0.03676 2.02277713,-0.123846 0.6262113,-0.08141 1.270389,-0.139387 1.85765197,-0.37153 0.436784,-0.172659 0.7833929,-0.520817 1.1971541,-0.743061 0.8136427,-0.437033 1.6190362,-0.944666 2.518151,-1.155867 z"
       id="path16"
       sodipodi:nodetypes="aaaaaaaaaasaaaaaaaaaaaaa" />
    <ellipse
       style="fill:#6b2727;fill-opacity:1;stroke:#864e4e;stroke-width:0;stroke-linecap:round;stroke-linejoin:round;stroke-dasharray:none;stroke-dashoffset:0;stroke-opacity:1"
       id="path17"
       cx="14.865658"
       cy="26.667223"
       rx="0.17353012"
       ry="0.39044276"
       transform="rotate(-4.1636127)" />
    <ellipse
       style="fill:#fff6f6;fill-opacity:1;stroke:#e8e8e8;stroke-width:0;stroke-linecap:round;stroke-linejoin:round;stroke-dasharray:none;stroke-dashoffset:0;stroke-opacity:1"
       id="path18-2"
       cx="16.093115"
       cy="26.035229"
       rx="1.3713819"
       ry="0.95383906" />
    <ellipse
       style="fill:#3a2d2d;fill-opacity:1;stroke:#864e4e;stroke-width:0;stroke-linecap:round;stroke-linejoin:round;stroke-dasharray:none;stroke-dashoffset:0;stroke-opacity:1"
       id="path19-1"
       cx="16.494925"
       cy="26.032436"
       rx="0.72644234"
       ry="0.77833176" />
    <ellipse
       style="fill:#fff6f6;fill-opacity:1;stroke:#e8e8e8;stroke-width:0;stroke-linecap:round;stroke-linejoin:round;stroke-dasharray:none;stroke-dashoffset:0;stroke-opacity:1"
       id="path18"
       cx="11.539433"
       cy="25.950329"
       rx="1.3713819"
       ry="0.95383906" />
    <ellipse
       style="fill:#3a2d2d;fill-opacity:1;stroke:#864e4e;stroke-width:0;stroke-linecap:round;stroke-linejoin:round;stroke-dasharray:none;stroke-dashoffset:0;stroke-opacity:1"
       id="path19"
       cx="11.941243"
       cy="25.947536"
       rx="0.72644234"
       ry="0.77833176" />
    <path
       style="fill:#271e1e;fill-opacity:0;stroke:#442828;stroke-width:0.144728;stroke-linecap:round;stroke-linejoin:round;stroke-dasharray:none;stroke-dashoffset:0;stroke-opacity:1"
       d="m 15.488393,27.120096 -0.785464,0.196411 -0.750463,0.213206 -0.934054,-0.357243 -0.597953,-0.210483"
       id="path20"
       sodipodi:nodetypes="ccccc" />
    <circle
       id="path4"
       style="fill:#000000;stroke:#342b21;stroke-width:0.264583"
       cx="15.400446"
       cy="2.2130914"
       r="2.3272231e-10" />
    <circle
       id="path7"
       style="fill:#000000;stroke:#342b21;stroke-width:0.264583"
       cx="12.080808"
       cy="13.045591"
       r="4.6544463e-10" />
  </g>
</svg>
