<?xml version="1.0" encoding="UTF-8" standalone="no"?>
<!-- Created with Inkscape (http://www.inkscape.org/) -->

<svg
   width="200"
   height="201.17665"
   viewBox="0 0 52.916666 53.227988"
   version="1.1"
   id="svg1"
   inkscape:version="1.4.2 (f4327f4, 2025-05-13)"
   sodipodi:docname="SwissKnive.svg"
   xml:space="preserve"
   xmlns:inkscape="http://www.inkscape.org/namespaces/inkscape"
   xmlns:sodipodi="http://sodipodi.sourceforge.net/DTD/sodipodi-0.dtd"
   xmlns:xlink="http://www.w3.org/1999/xlink"
   xmlns="http://www.w3.org/2000/svg"
   xmlns:svg="http://www.w3.org/2000/svg"><sodipodi:namedview
     id="namedview1"
     pagecolor="#ffffff"
     bordercolor="#000000"
     borderopacity="0.25"
     inkscape:showpageshadow="2"
     inkscape:pageopacity="0.0"
     inkscape:pagecheckerboard="0"
     inkscape:deskcolor="#d1d1d1"
     inkscape:document-units="mm"
     inkscape:zoom="2"
     inkscape:cx="63.5"
     inkscape:cy="144.25"
     inkscape:window-width="3840"
     inkscape:window-height="2054"
     inkscape:window-x="-11"
     inkscape:window-y="-11"
     inkscape:window-maximized="1"
     inkscape:current-layer="svg1" /><defs
     id="defs1"><linearGradient
       id="linearGradient30"
       inkscape:collect="always"><stop
         style="stop-color:#3a5184;stop-opacity:1;"
         offset="0"
         id="stop29" /><stop
         style="stop-color:#284fbe;stop-opacity:1;"
         offset="1"
         id="stop30" /></linearGradient><linearGradient
       id="linearGradient27"
       inkscape:collect="always"><stop
         style="stop-color:#5c83d7;stop-opacity:1;"
         offset="0"
         id="stop27" /><stop
         style="stop-color:#284fbe;stop-opacity:1;"
         offset="1"
         id="stop28" /></linearGradient><linearGradient
       inkscape:collect="always"
       xlink:href="#linearGradient32"
       id="linearGradient33"
       x1="-119.36857"
       y1="-50.200275"
       x2="-198.64563"
       y2="37.845825"
       gradientUnits="userSpaceOnUse"
       gradientTransform="matrix(0.12860795,0,0,0.16752158,51.876413,35.600941)" /><linearGradient
       id="linearGradient32"
       inkscape:collect="always"><stop
         style="stop-color:#5080af;stop-opacity:1;"
         offset="0.32962587"
         id="stop32" /><stop
         style="stop-color:#2c5f6b;stop-opacity:1;"
         offset="1"
         id="stop33" /></linearGradient><linearGradient
       inkscape:collect="always"
       xlink:href="#linearGradient24"
       id="linearGradient25-4"
       x1="9.0675859"
       y1="15.443898"
       x2="27.113455"
       y2="8.8757391"
       gradientUnits="userSpaceOnUse" /><linearGradient
       id="linearGradient24"
       inkscape:collect="always"><stop
         style="stop-color:#78d3ff;stop-opacity:1;"
         offset="0.37108189"
         id="stop24" /><stop
         style="stop-color:#6ae1f6;stop-opacity:1;"
         offset="1"
         id="stop25-5" /></linearGradient><inkscape:path-effect
       effect="mirror_symmetry"
       start_point="19.481026,5.008575"
       end_point="17.530012,18.403601"
       center_point="18.505519,11.706088"
       id="path-effect8"
       is_visible="true"
       lpeversion="1.2"
       lpesatellites=""
       mode="free"
       discard_orig_path="false"
       fuse_paths="true"
       oposite_fuse="true"
       split_items="false"
       split_open="false"
       link_styles="false" /><radialGradient
       inkscape:collect="always"
       xlink:href="#linearGradient23-6"
       id="radialGradient19"
       cx="32.218513"
       cy="22.47473"
       fx="32.218513"
       fy="22.47473"
       r="3.3356905"
       gradientTransform="matrix(1.2149837,0,0,1.1512345,-6.9264563,-3.3989551)"
       gradientUnits="userSpaceOnUse" /><linearGradient
       id="linearGradient23-6"
       inkscape:collect="always"><stop
         style="stop-color:#0b6c04;stop-opacity:0.4623656;"
         offset="0"
         id="stop22-1" /><stop
         style="stop-color:#9ef38e;stop-opacity:0.28434888;"
         offset="0.55106169"
         id="stop23-8" /></linearGradient><filter
       inkscape:collect="always"
       style="color-interpolation-filters:sRGB"
       id="filter19"
       x="-0.11291425"
       y="-0.11916684"
       width="1.2258285"
       height="1.2383337"><feGaussianBlur
         inkscape:collect="always"
         stdDeviation="0.15218331"
         id="feGaussianBlur19" /></filter><radialGradient
       inkscape:collect="always"
       xlink:href="#linearGradient17"
       id="radialGradient19-1"
       cx="32.218513"
       cy="22.47473"
       fx="32.218513"
       fy="22.47473"
       r="3.3356905"
       gradientTransform="matrix(1.2149837,0,0,1.1512345,-6.9264563,-3.3989551)"
       gradientUnits="userSpaceOnUse" /><linearGradient
       id="linearGradient17"
       inkscape:collect="always"><stop
         style="stop-color:#0b6c04;stop-opacity:0.4623656;"
         offset="0"
         id="stop18" /><stop
         style="stop-color:#9ef38e;stop-opacity:0.32019114;"
         offset="0.55106169"
         id="stop19" /></linearGradient><filter
       inkscape:collect="always"
       style="color-interpolation-filters:sRGB"
       id="filter19-27"
       x="-0.11291425"
       y="-0.11916684"
       width="1.2258285"
       height="1.2383337"><feGaussianBlur
         inkscape:collect="always"
         stdDeviation="0.15218331"
         id="feGaussianBlur19-9" /></filter><radialGradient
       inkscape:collect="always"
       xlink:href="#linearGradient21-9"
       id="radialGradient19-2"
       cx="32.218513"
       cy="22.47473"
       fx="32.218513"
       fy="22.47473"
       r="3.3356905"
       gradientTransform="matrix(1.2149837,0,0,1.1512345,-6.9264563,-3.3989551)"
       gradientUnits="userSpaceOnUse" /><linearGradient
       id="linearGradient21-9"
       inkscape:collect="always"><stop
         style="stop-color:#0b6c04;stop-opacity:0.4623656;"
         offset="0"
         id="stop20-2" /><stop
         style="stop-color:#9ef38e;stop-opacity:0.34647551;"
         offset="0.55106169"
         id="stop21-7" /></linearGradient><filter
       inkscape:collect="always"
       style="color-interpolation-filters:sRGB"
       id="filter19-2"
       x="-0.11291425"
       y="-0.11916684"
       width="1.2258285"
       height="1.2383337"><feGaussianBlur
         inkscape:collect="always"
         stdDeviation="0.15218331"
         id="feGaussianBlur19-1" /></filter><linearGradient
       inkscape:collect="always"
       xlink:href="#linearGradient27"
       id="linearGradient28"
       x1="20.052003"
       y1="29.071094"
       x2="33.327686"
       y2="29.071094"
       gradientUnits="userSpaceOnUse" /><linearGradient
       inkscape:collect="always"
       xlink:href="#linearGradient30"
       id="linearGradient29"
       gradientUnits="userSpaceOnUse"
       x1="20.052003"
       y1="29.071094"
       x2="33.327686"
       y2="29.071094"
       gradientTransform="translate(-1.628006,-1.0796541)" /></defs><g
     inkscape:label="Ebene 1"
     inkscape:groupmode="layer"
     id="layer1"
     transform="translate(-0.20000279)"><rect
       style="fill:url(#linearGradient29);fill-opacity:1;stroke:#2e241a;stroke-width:1.08087;stroke-linecap:round;stroke-linejoin:round"
       id="rect2-1"
       width="12.194813"
       height="32.038563"
       x="18.964432"
       y="11.972157"
       ry="7.0341377"
       rx="6.0974064" /><path
       d="m 13.628143,34.817029 c -0.100943,-0.0071 -0.210234,-0.01632 -0.329808,-0.02748 -0.79913,-0.0746 -0.966757,0.243513 -2.357455,-0.600161 -1.2234031,-0.742183 -4.8304549,0.901924 -4.8304549,0.901924 0,0 -2.6770703,1.193994 -2.4023265,2.258177 0.1815898,0.703363 2.1117813,0.53734 2.1117813,0.53734 l 7.5676371,-0.03029 c 0.466925,-0.488446 0.733655,-1.05529 0.733655,-1.66082 0,-0.492204 -0.17633,-0.958933 -0.493029,-1.378687 z"
       style="fill:#ceff78;fill-opacity:1;stroke:#212532;stroke-width:0.38966;stroke-dasharray:none;stroke-opacity:0.995995"
       id="path36" /><path
       id="path22"
       style="fill:#3e70d7;fill-opacity:1;stroke:#212532;stroke-width:0.370123;stroke-dasharray:none;stroke-opacity:0.995995"
       d="m 18.392771,36.220643 c 0.293946,1.518679 -0.383782,3.157425 -2.122622,3.965472 -1.73884,0.808044 -4.174995,1.954317 -5.298019,0.820915 -1.1230237,-1.133401 -1.0169465,-4.317861 0.186435,-5.666312 1.203383,-1.348452 3.278698,-1.890114 4.975496,-1.399657 l -1.4447,3.588909 z"
       sodipodi:nodetypes="csssccc" /><path
       id="rect34"
       style="fill:#3e70d7;fill-opacity:1;stroke:#212532;stroke-width:0.435247;stroke-dasharray:none;stroke-opacity:0.995995"
       d="m 21.715947,37.813929 -7.202268,0.0077 1.466127,-3.309223 c 0,0 1.15584,-0.413256 1.752635,-0.550331 0.59558,-0.136796 1.204054,-0.223133 1.813415,-0.269039 0.673916,-0.05076 2.027465,-0.0063 2.027465,-0.0063"
       sodipodi:nodetypes="cccaac" /><path
       style="fill:#abc5e8;fill-opacity:1;stroke:#212532;stroke-width:0.171494;stroke-dasharray:none;stroke-opacity:0.995995"
       id="path35-5"
       sodipodi:type="arc"
       sodipodi:cx="12.123854"
       sodipodi:cy="36.527046"
       sodipodi:rx="0.64290464"
       sodipodi:ry="0.99267906"
       sodipodi:start="6.2613533"
       sodipodi:end="6.2601406"
       sodipodi:open="true"
       sodipodi:arc-type="arc"
       d="m 12.766605,36.505376 a 0.64290464,0.99267906 0 0 1 -0.628522,1.014106 0.64290464,0.99267906 0 0 1 -0.656972,-0.970164 0.64290464,0.99267906 0 0 1 0.628123,-1.014694 0.64290464,0.99267906 0 0 1 0.657354,0.969548" /><path
       style="fill:url(#linearGradient25-4);fill-opacity:1;stroke:#000000;stroke-width:0.349;stroke-linecap:round;stroke-linejoin:round;stroke-dasharray:none"
       d="m 17.778524,16.697395 8.516494,2.259479 1.223024,-3.028441 -1.834535,0.698871 L 25.42143,15.083964 23.179219,9.4347574 21.402922,8.2699727 21.257324,7.3963839 20.849649,7.2507858 20.587573,5.7074458 19.398908,5.5723703 18.221099,5.3627638 17.529669,6.7672237 17.0974,6.7904821 16.708658,7.5862431 14.673904,8.1959401 10.9134,12.970839 10.221969,14.375298 8.6630098,13.182157 8.9713489,16.433645 Z"
       id="path8"
       sodipodi:nodetypes="cccccccccccc"
       inkscape:path-effect="#path-effect8"
       inkscape:original-d="m 17.73385,16.685543 8.561168,2.271331 1.223024,-3.028441 -1.834535,0.698871 L 25.42143,15.083964 23.179219,9.4347574 21.402922,8.2699727 21.257324,7.3963839 20.849649,7.2507858 20.587573,5.7074458 19.306309,5.5618477 17.73385,16.627304"
       transform="matrix(0.39387915,-0.69729732,0.69729732,0.39387915,-0.87073046,25.830141)" /><ellipse
       style="fill:#799647;fill-opacity:1;stroke:#000000;stroke-width:0.358782;stroke-linecap:round;stroke-linejoin:round;stroke-dasharray:none"
       id="path9-9"
       cx="-2.837167"
       cy="23.597767"
       rx="1.4691925"
       ry="1.6091155"
       transform="rotate(-46.657284)" /><ellipse
       style="fill:#6eff83;fill-opacity:1;stroke:#000000;stroke-width:0.438867;stroke-linecap:round;stroke-linejoin:round;stroke-dasharray:none"
       id="path9"
       cx="-2.8871403"
       cy="24.157974"
       rx="1.4691925"
       ry="1.6091155"
       transform="rotate(-46.657284)" /><path
       style="fill:#799647;fill-opacity:0;stroke:#000000;stroke-width:0.192204;stroke-linecap:round;stroke-linejoin:round;stroke-dasharray:none"
       d="m 13.740976,15.407221 1.311802,-0.679435 3.320151,0.928487 0.654871,0.483549"
       id="path12" /><path
       style="fill:#799647;fill-opacity:0;stroke:#000000;stroke-width:0.192204;stroke-linecap:round;stroke-linejoin:round;stroke-dasharray:none"
       d="m 12.232817,17.210802 -0.300189,1.446492 1.790084,2.946369 0.642346,0.50007"
       id="path12-4" /><path
       d="m 30.571233,32.300969 3.429492,3.493222 4.385361,5.215466 0.444895,-3.808319 L 38.958148,34.773 33.17452,30.468371 30.571233,28.899334 Z"
       style="fill:url(#linearGradient33);stroke:#303b32;stroke-width:0.199328;stroke-linecap:round;stroke-linejoin:round"
       id="path35"
       transform="translate(0.20000279)" /><path
       d="m 46.578639,46.606926 c 0.04416,-0.672075 0.02015,-1.654471 0.0013,-2.318199 -0.02544,-0.897723 -0.08773,-1.80637 -0.273323,-2.671563 C 46.092415,40.618672 45.3495,38.767796 45.3495,38.767796 l -1.230436,2.849368 -6.152574,-1.246597 0.136758,2.137027 c 0,0 1.71503,2.10888 2.734392,2.849648 0.591659,0.429957 1.263264,0.645824 1.914228,0.890427 0.733564,0.275641 1.857103,0.707888 2.674956,0.946237 0.440003,-0.17047 0.828077,-0.368086 1.151768,-0.58698 z"
       style="fill:#485984;fill-opacity:1;stroke:#303b32;stroke-width:0.211904;stroke-linecap:round;stroke-linejoin:round"
       id="path39"
       transform="translate(0.20000279)" /><path
       style="fill:#556456;fill-opacity:0;stroke:#303b32;stroke-width:0.211629;stroke-linecap:round;stroke-linejoin:round;stroke-dasharray:none;stroke-dashoffset:0;stroke-opacity:1"
       d="m 39.336611,42.836466 2.184712,2.667893 3.550157,1.422876"
       id="path15"
       sodipodi:nodetypes="ccc"
       transform="translate(0.20000279)" /><path
       style="fill:#556456;fill-opacity:0;stroke:#303b32;stroke-width:0.211629;stroke-linecap:round;stroke-linejoin:round;stroke-dasharray:none;stroke-dashoffset:0;stroke-opacity:1"
       d="m 41.657868,43.014326 1.2289,1.778594 2.431675,1.707445"
       id="path16"
       sodipodi:nodetypes="ccc"
       transform="translate(0.20000279)" /><path
       style="fill:#556456;fill-opacity:0;stroke:#303b32;stroke-width:0.211629;stroke-linecap:round;stroke-linejoin:round;stroke-dasharray:none;stroke-dashoffset:0;stroke-opacity:1"
       d="m 44.798392,42.125028 0.546177,1.778595 0.273089,2.312174"
       id="path17"
       sodipodi:nodetypes="ccc"
       transform="translate(0.20000279)" /><path
       style="fill:#556456;fill-opacity:0;stroke:#303b32;stroke-width:0.211629;stroke-linecap:round;stroke-linejoin:round;stroke-dasharray:none;stroke-dashoffset:0;stroke-opacity:1"
       d="m 45.208025,40.702152 0.819266,3.201471 v 2.312174"
       id="path19"
       transform="translate(0.20000279)" /><path
       d="m 46.817531,46.432205 v -0.97905 c 0,0 -0.898915,-0.215815 -1.298912,0 -0.178635,0.09639 -0.283396,0.343989 -0.410082,0.534257 -0.223952,0.33635 -0.615315,1.068512 -0.615315,1.068512 l 0.665324,0.236419 c 0.671245,-0.232668 1.23671,-0.525177 1.658985,-0.860138 z"
       style="fill:#3961bd;fill-opacity:1;stroke:#303b32;stroke-width:0.211904;stroke-linecap:round;stroke-linejoin:round"
       id="path37"
       transform="translate(0.20000279)" /><path
       style="fill:#4d5d84;fill-opacity:1;stroke:#303b32;stroke-width:0.211629;stroke-linecap:round;stroke-linejoin:round;stroke-dasharray:none;stroke-dashoffset:0;stroke-opacity:1"
       d="m 38.107711,41.23573 3.140523,-3.37933 h 4.369424 l 0.273089,0.177859 0.273089,-0.533578 -0.409634,-1.956456 -4.369423,-1.778594 -3.140524,1.422875 -1.638534,2.134315 0.273089,4.624348 z"
       id="path23"
       sodipodi:nodetypes="ccccccccccc"
       transform="translate(0.20000279)" /><path
       style="fill:#4565b0;fill-opacity:1;stroke:#303b32;stroke-width:0.211629;stroke-linecap:round;stroke-linejoin:round;stroke-dasharray:none;stroke-dashoffset:0;stroke-opacity:1"
       d="m 45.344569,39.634995 0.429607,-0.567946 -1.117569,-0.78748 z"
       id="path28"
       sodipodi:nodetypes="cccc"
       transform="translate(0.20000279)" /><path
       d="m 42.709508,34.223452 -1.489953,0.177849 -1.044302,0.711394 -0.883729,1.067184 -0.883728,1.067184 -0.550583,1.956427 0.345236,1.067184 1.176462,1.244941 1.494323,-2.134276 1.269307,-1.422882 1.192853,-0.533545 0.70678,0.355698 1.722613,1.245032 0.463919,-1.638363 -0.417903,-1.82508 -0.75601,-0.98305 -0.967838,-0.177848 z m 0.835629,0.251286 c 0.01723,8e-6 0.03634,0.0046 0.05684,0.01406 0.109332,0.05062 0.217584,0.22285 0.242707,0.386121 l 0.36277,2.35762 c 0.02512,0.163269 -0.04267,0.25402 -0.152007,0.2034 -0.109332,-0.05062 -0.217584,-0.222851 -0.242708,-0.38612 l -0.362776,-2.35771 c -0.02042,-0.132656 0.02047,-0.217408 0.09518,-0.217371 z m -1.44131,0.122886 c 0.117645,0.0043 0.245147,0.113782 0.294114,0.257168 l 0.754269,2.208632 c 0.05223,0.152945 -0.0053,0.284802 -0.128987,0.295587 l -0.04511,0.0038 c -0.123665,0.01079 -0.265268,-0.103579 -0.317498,-0.256525 l -0.754269,-2.208624 c -0.05223,-0.152946 0.0053,-0.284802 0.128916,-0.295588 l 0.04518,-0.0038 c 0.0077,-7.05e-4 0.01554,-9.22e-4 0.02338,-6.51e-4 z m 2.428943,0.247701 c 0.01813,-0.0016 0.03843,0.0017 0.06051,0.0099 0.117698,0.04412 0.240653,0.217665 0.275724,0.389153 l 0.506481,2.476369 c 0.03507,0.171488 -0.03147,0.273993 -0.149161,0.229871 -0.117698,-0.04412 -0.240652,-0.217665 -0.275723,-0.389153 l -0.506482,-2.47637 c -0.02849,-0.139334 0.01006,-0.23318 0.08866,-0.239797 z m -3.973024,0.371874 c 0.110336,-0.0082 0.244025,0.06531 0.31857,0.181525 l 1.230252,1.917915 c 0.08519,0.132817 0.05994,0.269574 -0.05662,0.306617 -0.116556,0.03704 -0.27901,-0.04007 -0.364203,-0.172885 l -1.23018,-1.917916 c -0.08519,-0.132816 -0.06,-0.269481 0.05655,-0.306525 0.01458,-0.0047 0.02987,-0.0076 0.04563,-0.0087 z m -0.976661,0.933452 c 0.109696,-0.0082 0.249117,0.06531 0.332682,0.181525 l 1.379066,1.917917 c 0.0955,0.132816 0.08084,0.269574 -0.03285,0.306616 -0.11368,0.03704 -0.282038,-0.04008 -0.377539,-0.172885 l -1.379137,-1.917917 c -0.0955,-0.132816 -0.08084,-0.269573 0.03285,-0.306616 0.01421,-0.0047 0.02925,-0.0075 0.04493,-0.0086 z m -0.933941,1.333911 c 0.109694,-0.0082 0.249051,0.0654 0.332615,0.181617 l 1.379137,1.917917 c 0.0955,0.132815 0.08083,0.269481 -0.03285,0.306524 -0.11368,0.03704 -0.282102,-0.03998 -0.377604,-0.172793 l -1.379066,-1.917916 c -0.0955,-0.132817 -0.08091,-0.269574 0.03278,-0.306617 0.01421,-0.0046 0.02932,-0.0076 0.04499,-0.0087 z"
       style="fill:#5cd777;stroke:#303b32;stroke-width:0.211629;stroke-linecap:round;stroke-linejoin:round;fill-opacity:1"
       id="path29"
       sodipodi:nodetypes="ccccccccccccccccccssccsccssccccccccssssccsccssccsccsssccsccsssccsccsss"
       transform="translate(0.20000279)" /><path
       style="fill:#4565b0;fill-opacity:1;stroke:#303b32;stroke-width:0.211629;stroke-linecap:round;stroke-linejoin:round;stroke-dasharray:none;stroke-dashoffset:0;stroke-opacity:1"
       d="m 38.244255,39.990714 -0.409633,1.778595 1.638534,0.355719 -0.955812,-0.889298 z"
       id="path27"
       transform="translate(0.20000279)" /><g
       id="g5"
       transform="matrix(0.4154778,-0.19654141,0.19654141,0.4154778,16.074276,12.930311)"
       style="fill:#7dabe1;fill-opacity:1"><g
         id="path1"
         style="opacity:1;fill:#7dabe1;fill-opacity:1"><path
           style="baseline-shift:baseline;display:inline;overflow:visible;vector-effect:none;fill:#7dabe1;fill-opacity:1;stroke-linecap:round;stroke-linejoin:round;enable-background:accumulate;stop-color:#000000;stop-opacity:1"
           d="M 45.200003,41.999999 V 32 H 35.200004 V 22 h 9.999999 V 12 h -9.999999 l -10e-7,10 H 25.200004 V 12 h -10 v 20 h 20 v 9.999999 h -20 V 32 H 9.2000041"
           id="path2" /><path
           d="m 27.250171,18.029601 a 11.961599,7.5553671 0 0 1 -4.099308,1.514472 v 2.455537 a 2.050205,2.050205 0 0 0 2.048529,2.050778 h 7.951263 v 5.899361 H 17.250379 V 19.839772 a 11.961599,7.5553671 0 0 1 -4.100432,-0.959053 v 11.06903 H 9.1990507 a 2.05,2.05 0 0 0 -2.0485295,2.050778 2.05,2.05 0 0 0 2.0485295,2.050778 h 3.9508963 v 7.949014 a 2.050205,2.050205 0 0 0 2.049653,2.050778 h 19.999584 a 2.050205,2.050205 0 0 0 2.050779,-2.050778 v -7.949014 h 5.900484 v 7.949014 a 2.05,2.05 0 0 0 2.048529,2.050778 2.05,2.05 0 0 0 2.050779,-2.050778 v -9.999792 a 2.050205,2.050205 0 0 0 -2.050779,-2.050778 h -7.949013 v -5.899361 h 7.949013 A 2.050205,2.050205 0 0 0 47.249755,21.99961 V 11.999818 A 2.050205,2.050205 0 0 0 45.198976,9.9490403 h -9.999792 a 2.050205,2.050205 0 0 0 -2.048529,2.0507777 v 7.949014 h -5.900484 z m 9.999792,-3.979004 h 5.900484 v 5.898235 H 37.249963 Z M 17.250379,34.051305 h 15.900276 v 5.898236 H 17.250379 Z"
           style="baseline-shift:baseline;display:inline;overflow:visible;fill:#7dabe1;fill-opacity:1;stroke:#213222;stroke-width:1.4;stroke-linecap:round;stroke-linejoin:round;enable-background:accumulate;stop-color:#000000;stop-opacity:1"
           id="path21" /></g><path
         style="fill:#7dabe1;fill-opacity:1;stroke:#213222;stroke-width:1.4;stroke-linecap:round;stroke-linejoin:round;stroke-dasharray:none;stroke-opacity:1"
         d="m 33.200003,24 -0.02451,-2.001324 a 2.0246623,2.0246623 134.64917 0 1 2.02451,-2.049457 h 2.050001"
         id="path4-3"
         transform="rotate(-90,40.238063,27)" /><path
         style="fill:#7dabe1;fill-opacity:1;stroke:#213222;stroke-width:1.4;stroke-linecap:round;stroke-linejoin:round;stroke-dasharray:none;stroke-opacity:1"
         d="m 33.200003,24 -0.02451,-2.001324 a 2.0246623,2.0246623 134.64917 0 1 2.02451,-2.049457 h 2.050001"
         id="path4-2" /><path
         style="fill:#7dabe1;fill-opacity:1;stroke:#213222;stroke-width:1.4;stroke-linecap:round;stroke-linejoin:round;stroke-dasharray:none;stroke-opacity:1"
         d="m 33.200003,24 -0.02451,-2.001324 a 2.0246623,2.0246623 134.64917 0 1 2.02451,-2.049457 h 2.050001"
         id="path4-2-1"
         transform="rotate(-90,30.225394,36.97461)" /></g><path
       id="path6"
       style="fill:#4278c9;fill-opacity:1;stroke:#213222;stroke-width:0.471442;stroke-linecap:round;stroke-linejoin:round"
       d="m 45.110119,20.423567 c 0.596458,1.260879 0.485974,3.495321 -0.690846,4.052015 -1.17682,0.556693 -2.97434,-0.775169 -3.570799,-2.036048 -0.507507,-1.072843 0.234014,-1.973306 1.410834,-2.53 1.17682,-0.556694 2.349234,-0.546274 2.850811,0.514033 z"
       sodipodi:nodetypes="sssss"
       transform="translate(0.20000279)" /><ellipse
       style="fill:#46586f;fill-opacity:1;stroke:#b8ffbd;stroke-width:0.372202;stroke-linecap:round;stroke-linejoin:round;stroke-dasharray:none;stroke-opacity:1"
       id="path7"
       cx="2.9716721"
       cy="46.411983"
       rx="0.073528104"
       ry="0.41571277"
       transform="matrix(0.71852163,-0.69550463,0.85756025,0.51438352,0.20000279,0)" /><ellipse
       style="fill:none;fill-opacity:1;stroke:#b8ffbd;stroke-width:0.372202;stroke-linecap:round;stroke-linejoin:round;stroke-dasharray:none;stroke-opacity:1"
       id="path7-6"
       cx="-48.226948"
       cy="26.669779"
       rx="0.073528104"
       ry="0.41571277"
       transform="matrix(-0.99344189,0.11433824,-0.14627026,0.98924467,0.20000279,0)" /><rect
       style="mix-blend-mode:normal;fill:url(#radialGradient19);stroke:#b8ffbd;stroke-width:1.1;stroke-linecap:round;stroke-linejoin:round;stroke-dasharray:4.4, 4.4;stroke-dashoffset:0;stroke-opacity:1;filter:url(#filter19)"
       id="rect12"
       width="8.1056194"
       height="7.6803241"
       x="28.165705"
       y="18.634567"
       ry="1.7762315"
       transform="matrix(0.44885565,-0.21233077,0.21233077,0.44885565,16.010844,11.919219)" /><rect
       style="mix-blend-mode:normal;fill:url(#radialGradient19-2);stroke:#b8ffbd;stroke-width:1.1;stroke-linecap:round;stroke-linejoin:round;stroke-dasharray:4.4, 4.4;stroke-dashoffset:0;stroke-opacity:1;filter:url(#filter19-2)"
       id="rect12-5"
       width="8.1056194"
       height="7.6803241"
       x="28.165705"
       y="18.634567"
       ry="1.7762315"
       transform="matrix(0.49654381,0,0,0.49654381,10.05089,13.64646)" /><rect
       style="mix-blend-mode:normal;fill:url(#radialGradient19-1);stroke:#b8ffbd;stroke-width:1.1;stroke-linecap:round;stroke-linejoin:round;stroke-dasharray:4.4, 4.4;stroke-dashoffset:0;stroke-opacity:1;filter:url(#filter19-27)"
       id="rect12-3"
       width="8.1056194"
       height="7.6803241"
       x="28.165705"
       y="18.634567"
       ry="1.7762315"
       transform="matrix(0.44885565,-0.21233077,0.21233077,0.44885565,17.829019,15.927425)" /><rect
       style="fill:url(#linearGradient28);stroke:#2e241a;stroke-width:1.08087;stroke-linecap:round;stroke-linejoin:round;fill-opacity:1"
       id="rect2"
       width="12.194813"
       height="32.038563"
       x="20.592438"
       y="13.051812"
       ry="7.0341377"
       rx="6.0974064"
       transform="translate(0.20000279)" /><path
       d="m 25.728002,18.406875 v 2.655652 H 23.07235 v 2.790528 h 2.655652 v 2.655651 h 2.790527 v -2.655651 h 2.655652 v -2.790528 h -2.655652 v -2.655652 z"
       style="fill:#83bc90;stroke:#2e241a;stroke-width:0.608;stroke-linecap:round;stroke-linejoin:round;stroke-dasharray:none;fill-opacity:1"
       id="path30" /></g><g
     inkscape:groupmode="layer"
     id="layer2"
     inkscape:label="Ebene 2" /></svg>
