<?xml version="1.0" encoding="UTF-8" standalone="no"?>
<!-- Created with Inkscape (http://www.inkscape.org/) -->

<svg
   width="200"
   height="201.17665"
   viewBox="0 0 52.916666 53.227988"
   version="1.1"
   id="svg1"
   inkscape:version="1.4.2 (f4327f4, 2025-05-13)"
   sodipodi:docname="TailCut.svg"
   xmlns:inkscape="http://www.inkscape.org/namespaces/inkscape"
   xmlns:sodipodi="http://sodipodi.sourceforge.net/DTD/sodipodi-0.dtd"
   xmlns="http://www.w3.org/2000/svg"
   xmlns:svg="http://www.w3.org/2000/svg">
  <sodipodi:namedview
     id="namedview1"
     pagecolor="#ffffff"
     bordercolor="#000000"
     borderopacity="0.25"
     inkscape:showpageshadow="2"
     inkscape:pageopacity="0.0"
     inkscape:pagecheckerboard="0"
     inkscape:deskcolor="#d1d1d1"
     inkscape:document-units="mm"
     inkscape:zoom="3.2124158"
     inkscape:cx="-47.627707"
     inkscape:cy="89.185217"
     inkscape:window-width="3840"
     inkscape:window-height="2054"
     inkscape:window-x="-11"
     inkscape:window-y="-11"
     inkscape:window-maximized="1"
     inkscape:current-layer="layer1" />
  <defs
     id="defs1">
    <inkscape:path-effect
       effect="fillet_chamfer"
       id="path-effect28"
       is_visible="true"
       lpeversion="1"
       nodesatellites_param="F,0,0,1,0,0,0,1 @ F,0,0,1,0,0,0,1 @ F,0,0,1,0,0,0,1 @ F,0,0,1,0,0,0,1 @ F,0,0,1,0,0,0,1 @ F,0,0,1,0,0,0,1 @ F,0,0,1,0,0,0,1 @ F,0,0,1,0,0,0,1 @ F,0,0,1,0,0,0,1 @ F,0,0,1,0,0,0,1 @ F,0,0,1,0,0,0,1 @ F,0,0,1,0,0,0,1 | F,0,0,1,0,0,0,1 @ F,0,0,1,0,0,0,1 @ F,0,0,1,0,0,0,1 @ F,0,0,1,0,0,0,1 @ F,0,0,1,0,0,0,1 @ F,0,0,1,0,0,0,1 @ F,0,0,1,0,0,0,1 @ F,0,0,1,0,0,0,1 @ F,0,0,1,0,0,0,1 @ F,0,0,1,0,0,0,1 @ F,0,0,1,0,0,0,1"
       radius="0"
       unit="px"
       method="auto"
       mode="F"
       chamfer_steps="1"
       flexible="false"
       use_knot_distance="true"
       apply_no_radius="true"
       apply_with_radius="true"
       only_selected="false"
       hide_knots="false" />
    <inkscape:path-effect
       effect="powerstroke"
       message=""
       id="path-effect4"
       is_visible="true"
       lpeversion="1.3"
       scale_width="1"
       interpolator_type="CentripetalCatmullRom"
       interpolator_beta="0.75"
       start_linecap_type="round"
       end_linecap_type="round"
       offset_points="10.839744,0.43679433"
       linejoin_type="spiro"
       miter_limit="4"
       not_jump="true"
       sort_points="true" />
    <inkscape:path-effect
       effect="simplify"
       id="path-effect3"
       is_visible="true"
       lpeversion="1.3"
       threshold="0.012"
       steps="1"
       smooth_angles="0"
       helper_size="0"
       simplify_individual_paths="false"
       simplify_just_coalesce="false"
       step="1" />
  </defs>
  <g
     inkscape:label="Ebene 1"
     inkscape:groupmode="layer"
     id="layer1"
     transform="translate(-0.20000279)">
    <path
       style="fill:#3e6f40;fill-opacity:1;stroke:none;stroke-width:1.17165;stroke-dasharray:none;stroke-opacity:0.995995"
       d="M 50.489298,39.566 45.619213,51.204677"
       id="path24" />
    <path
       d="m 29.887907,13.50709 v 5.926647 h 4.363744 c 3.895345,0 7.03186,3.135708 7.03186,7.031055 v 6.583822 c 0,3.895347 -3.136515,7.03186 -7.03186,7.03186 h -6.583822 c -3.895347,0 -7.031055,-3.136513 -7.031055,-7.03186 v -6.583822 c 0,-0.949418 0.186303,-1.853811 0.524453,-2.678574 h -6.423751 c -0.01818,0.260558 -0.02735,0.523757 -0.02735,0.789094 v 10.363586 c 0,6.131578 4.936643,11.067416 11.06822,11.067416 h 10.363588 c 6.131576,0 11.067416,-4.935838 11.067416,-11.067416 V 24.575312 c 0,-6.131578 -4.93584,-11.068222 -11.067416,-11.068222 z"
       style="fill:#3e6f40;stroke:#212532;stroke-width:0.625739;stroke-dasharray:none;stroke-opacity:0.995995"
       id="path33" />
    <path
       d="m 18.936322,15.127909 c -0.144761,-0.01018 -0.301493,-0.02341 -0.472973,-0.03941 -1.146022,-0.106988 -1.386413,0.349218 -3.380795,-0.860683 -1.754466,-1.064355 -6.9272907,1.293437 -6.9272907,1.293437 0,0 -3.8391509,1.712291 -3.4451445,3.238421 0.2604156,1.008684 3.0284775,0.770592 3.0284775,0.770592 l 10.8526477,-0.04344 c 0.66961,-0.700474 1.052125,-1.513377 1.052125,-2.381759 0,-0.705864 -0.252873,-1.375194 -0.707047,-1.977157 z"
       style="fill:#ceff78;fill-opacity:1;stroke:#212532;stroke-width:0.558806;stroke-dasharray:none;stroke-opacity:0.995995"
       id="path36" />
    <path
       id="path22"
       style="fill:#3e6f40;stroke:#212532;stroke-width:0.530788;stroke-dasharray:none;stroke-opacity:0.995995"
       d="m 25.769211,17.140813 c 0.421544,2.177917 -0.550376,4.528021 -3.044024,5.68683 -2.493647,1.158805 -5.987304,2.80266 -7.597818,1.177263 -1.610513,-1.625395 -1.458389,-6.192187 0.267365,-8.125982 1.725755,-1.933797 4.701936,-2.710588 7.135291,-2.00723 L 20.4582,19.018501 Z"
       sodipodi:nodetypes="csssccc" />
    <path
       id="rect34"
       style="fill:#3e6f40;stroke:#212532;stroke-width:0.624182;stroke-dasharray:none;stroke-opacity:0.995995"
       d="m 30.534934,19.425723 -10.328676,0.01105 2.102553,-4.745713 c 0,0 1.657574,-0.592645 2.51343,-0.789223 0.854113,-0.196177 1.726718,-0.319992 2.600594,-0.385824 0.966454,-0.0728 2.907561,-0.009 2.907561,-0.009"
       sodipodi:nodetypes="cccaac" />
    <path
       id="rect35"
       style="fill:#3e6f40;stroke:#212532;stroke-width:0;stroke-opacity:0.995995"
       d="m 14.878963,22.93228 6.662688,-0.41666 -1.426256,2.672668 -5.060153,-0.02803 z"
       sodipodi:nodetypes="ccccc" />
    <path
       style="fill:#70c974;fill-opacity:1;stroke:#212532;stroke-width:0.245937;stroke-dasharray:none;stroke-opacity:0.995995"
       id="path35"
       sodipodi:type="arc"
       sodipodi:cx="16.779041"
       sodipodi:cy="17.580223"
       sodipodi:rx="0.92198098"
       sodipodi:ry="1.4235878"
       sodipodi:start="6.2613533"
       sodipodi:end="6.2601406"
       sodipodi:open="true"
       sodipodi:arc-type="arc"
       d="m 17.700803,17.549146 a 0.92198098,1.4235878 0 0 1 -0.901355,1.454316 0.92198098,1.4235878 0 0 1 -0.942156,-1.391299 0.92198098,1.4235878 0 0 1 0.900784,-1.45516 0.92198098,1.4235878 0 0 1 0.942701,1.390417" />
  </g>
</svg>
