<?xml version="1.0" encoding="UTF-8" standalone="no"?>
<!-- Created with Inkscape (http://www.inkscape.org/) -->

<svg
   width="200"
   height="201.07016"
   viewBox="0 0 52.916666 53.199813"
   version="1.1"
   id="svg1"
   inkscape:version="1.4.2 (f4327f4, 2025-05-13)"
   sodipodi:docname="TimeStop2.svg"
   xmlns:inkscape="http://www.inkscape.org/namespaces/inkscape"
   xmlns:sodipodi="http://sodipodi.sourceforge.net/DTD/sodipodi-0.dtd"
   xmlns:xlink="http://www.w3.org/1999/xlink"
   xmlns="http://www.w3.org/2000/svg"
   xmlns:svg="http://www.w3.org/2000/svg">
  <sodipodi:namedview
     id="namedview1"
     pagecolor="#ffffff"
     bordercolor="#000000"
     borderopacity="0.25"
     inkscape:showpageshadow="2"
     inkscape:pageopacity="0.0"
     inkscape:pagecheckerboard="0"
     inkscape:deskcolor="#d1d1d1"
     inkscape:document-units="mm"
     inkscape:zoom="5.6568542"
     inkscape:cx="58.513087"
     inkscape:cy="32.792077"
     inkscape:window-width="3840"
     inkscape:window-height="2054"
     inkscape:window-x="-11"
     inkscape:window-y="-11"
     inkscape:window-maximized="1"
     inkscape:current-layer="layer3" />
  <defs
     id="defs1">
    <linearGradient
       id="linearGradient4"
       inkscape:collect="always">
      <stop
         style="stop-color:#e26060;stop-opacity:1;"
         offset="0"
         id="stop4" />
      <stop
         style="stop-color:#b63232;stop-opacity:1;"
         offset="1"
         id="stop5" />
    </linearGradient>
    <inkscape:path-effect
       effect="spiro"
       id="path-effect9"
       is_visible="true"
       lpeversion="1" />
    <inkscape:path-effect
       effect="spiro"
       id="path-effect8"
       is_visible="true"
       lpeversion="1" />
    <inkscape:path-effect
       effect="mirror_symmetry"
       start_point="17.255329,9.2448751"
       end_point="17.255329,29.300879"
       center_point="17.255329,19.272877"
       id="path-effect5"
       is_visible="true"
       lpeversion="1.2"
       lpesatellites=""
       mode="free"
       discard_orig_path="false"
       fuse_paths="true"
       oposite_fuse="false"
       split_items="false"
       split_open="false"
       link_styles="false" />
    <inkscape:path-effect
       effect="mirror_symmetry"
       start_point="27.030316,8.4102839"
       end_point="27.030316,28.182973"
       center_point="27.030316,18.296628"
       id="path-effect3"
       is_visible="true"
       lpeversion="1.2"
       lpesatellites=""
       mode="free"
       discard_orig_path="false"
       fuse_paths="false"
       oposite_fuse="false"
       split_items="false"
       split_open="false"
       link_styles="false" />
    <inkscape:path-effect
       effect="spiro"
       id="path-effect8-8"
       is_visible="true"
       lpeversion="1" />
    <inkscape:path-effect
       effect="spiro"
       id="path-effect8-0"
       is_visible="true"
       lpeversion="1" />
    <inkscape:path-effect
       effect="spiro"
       id="path-effect8-0-9"
       is_visible="true"
       lpeversion="1" />
    <inkscape:path-effect
       effect="spiro"
       id="path-effect8-8-6"
       is_visible="true"
       lpeversion="1" />
    <inkscape:path-effect
       effect="spiro"
       id="path-effect8-3"
       is_visible="true"
       lpeversion="1" />
    <linearGradient
       inkscape:collect="always"
       xlink:href="#linearGradient4"
       id="linearGradient5"
       x1="12.978838"
       y1="16.646841"
       x2="23.442726"
       y2="16.646841"
       gradientUnits="userSpaceOnUse"
       gradientTransform="matrix(1.5520032,-0.11906427,0.70714387,1.5068878,-9.9408985,5.5291554)" />
    <linearGradient
       inkscape:collect="always"
       xlink:href="#linearGradient29"
       id="linearGradient25"
       x1="9.1575069"
       y1="0.65352398"
       x2="9.5236149"
       y2="7.6392875"
       gradientUnits="userSpaceOnUse" />
    <linearGradient
       id="linearGradient29"
       inkscape:collect="always">
      <stop
         style="stop-color:#f2b3b3;stop-opacity:1;"
         offset="0"
         id="stop28" />
      <stop
         style="stop-color:#9e4752;stop-opacity:1;"
         offset="1"
         id="stop29" />
    </linearGradient>
    <linearGradient
       inkscape:collect="always"
       xlink:href="#linearGradient27"
       id="linearGradient26"
       x1="9.1575069"
       y1="0.65352398"
       x2="9.5236149"
       y2="7.6392875"
       gradientUnits="userSpaceOnUse" />
    <linearGradient
       id="linearGradient27"
       inkscape:collect="always">
      <stop
         style="stop-color:#f2b3b3;stop-opacity:1;"
         offset="0"
         id="stop26" />
      <stop
         style="stop-color:#9e4747;stop-opacity:1;"
         offset="1"
         id="stop27" />
    </linearGradient>
    <linearGradient
       inkscape:collect="always"
       xlink:href="#linearGradient27"
       id="linearGradient15"
       gradientUnits="userSpaceOnUse"
       x1="9.1575069"
       y1="0.65352398"
       x2="9.5236149"
       y2="7.6392875" />
  </defs>
  <g
     inkscape:label="Ebene 1"
     inkscape:groupmode="layer"
     id="layer1"
     style="display:inline"
     transform="translate(-0.20000279,-0.01799165)">
    <rect
       style="fill:#d97a7a;fill-opacity:1;stroke:#212532;stroke-width:1.29973;stroke-linejoin:round;stroke-miterlimit:8.2;stroke-dasharray:none;stroke-opacity:0.995995"
       id="rect1"
       width="51.616936"
       height="51.616943"
       x="0.84986776"
       y="0.95099753"
       ry="5.9818354"
       rx="19.15794" />
    <path
       d="M 26.708208,49.729242 A 22.314536,15.310713 35.249052 0 1 8.5172328,34.347151 22.314536,15.310713 35.249052 0 1 14.200957,15.963929 16.739624,20.409744 32.188054 0 1 3.6885606,12.675638 v 31.73024 c 0,2.949466 7.6041514,5.323364 17.0503694,5.323364 z"
       style="fill:#f77c7c;fill-opacity:1;stroke:#212532;stroke-width:0.689558;stroke-linejoin:round;stroke-miterlimit:8.2;stroke-opacity:0.995995"
       id="path10" />
    <path
       d="m 31.295567,3.7896903 a 16.739624,20.409744 32.188054 0 1 -2.76062,4.1787359 16.739624,20.409744 32.188054 0 1 -9.881766,7.0632298 22.314536,15.310713 35.249052 0 1 26.723801,16.48811 22.314536,15.310713 35.249052 0 1 -3.552126,17.364076 c 4.701712,-0.945737 7.803257,-2.594382 7.803257,-4.477964 V 9.1130541 c 0,-2.949467 -7.604153,-5.3233638 -17.05037,-5.3233638 z"
       style="fill:#f77c7c;fill-opacity:1;stroke:#212532;stroke-width:0.689558;stroke-linejoin:round;stroke-miterlimit:8.2;stroke-opacity:0.995995"
       id="path8" />
    <path
       sodipodi:type="spiral"
       style="fill:none;fill-rule:evenodd;stroke:#000000;stroke-width:0.365;stroke-linecap:round;stroke-dasharray:none"
       id="path12"
       sodipodi:cx="29.419693"
       sodipodi:cy="8.0915852"
       sodipodi:expansion="1"
       sodipodi:revolution="2.7902846"
       sodipodi:radius="2.2837081"
       sodipodi:argument="-15.350353"
       sodipodi:t0="0.21885763"
       d="m 29.66708,8.5258739 c -0.247098,0.2409225 -0.649824,0.1629432 -0.859466,-0.085626 -0.292762,-0.3471221 -0.18193,-0.8714307 0.16214,-1.1385324 0.445641,-0.3459502 1.093888,-0.2013978 1.417599,0.238655 0.399817,0.543511 0.221133,1.3167923 -0.315169,1.6966652 C 29.431136,9.6911015 28.532222,9.4780659 28.096452,8.8453517 27.5879,8.1069618 27.83542,7.0820491 28.56465,6.5905537 c 0.835611,-0.5631941 1.986761,-0.2811058 2.533865,0.544713 0.617944,0.9327482 0.30123,2.2103019 -0.621228,2.8129308 -0.710833,0.4643775 -1.648532,0.4586175 -2.367214,0.014274"
       transform="matrix(1.5565636,0,0,1.5565636,0.30708614,-2.336249)" />
    <path
       sodipodi:type="spiral"
       style="fill:none;fill-rule:evenodd;stroke:#000000;stroke-width:0.465;stroke-linecap:round;stroke-dasharray:none"
       id="path13"
       sodipodi:cx="20.907158"
       sodipodi:cy="5.1917105"
       sodipodi:expansion="1"
       sodipodi:revolution="2.7902846"
       sodipodi:radius="3.0777364"
       sodipodi:argument="-15.668167"
       sodipodi:t0="0.21885763"
       d="M 21.40676,5.6435027 C 21.191887,6.0559952 20.643477,6.1257704 20.27041,5.8958408 19.749429,5.5747486 19.670507,4.8568524 19.998499,4.3700061 20.423315,3.7394426 21.314079,3.651495 21.913818,4.0785231 22.654559,4.6059474 22.751469,5.671154 22.224874,6.3833269 21.59543,7.2345941 20.35492,7.3404357 19.530585,6.7139549 18.56857,5.9828394 18.453812,4.5665041 19.180385,3.6301819 20.01295,2.5572702 21.605453,2.433603 22.653643,3.2604091 c 1.183912,0.9338633 1.316484,2.7027708 0.389345,3.8627421 -0.714442,0.8938586 -1.91731,1.281388 -3.0245,1.015206"
       transform="matrix(1.5565636,0,0,1.5565636,1.8543899,1.1546772)" />
  </g>
  <g
     inkscape:groupmode="layer"
     id="layer2"
     inkscape:label="Ebene 2"
     transform="translate(-0.20000279,-0.01799165)">
    <path
       d="M 31.295567,3.7896903 H 20.73893 c -9.446218,0 -17.0503694,2.3738968 -17.0503694,5.3233638 V 12.675638 A 16.739624,20.409744 32.188054 0 0 28.534947,7.9684262 16.739624,20.409744 32.188054 0 0 31.295567,3.7896903 Z"
       style="fill:#421919;stroke:#13061b;stroke-width:0.867171"
       id="path7" />
    <path
       d="m 14.200957,15.963929 a 16.739624,20.409744 32.188054 0 0 4.452224,-0.932273 22.314536,15.310713 35.249052 0 0 -0.102967,0.008 22.314536,15.310713 35.249052 0 0 -4.349263,0.924229 z"
       style="fill:#682929;stroke:#13061b;stroke-width:0.895972"
       id="path11" />
    <path
       d="M 41.824856,48.883842 A 22.314536,15.310713 35.249052 0 0 45.376982,31.519766 22.314536,15.310713 35.249052 0 0 18.653181,15.031656 16.739624,20.409744 32.188054 0 1 14.200957,15.963929 22.314536,15.310713 35.249052 0 0 8.5172328,34.347151 22.314536,15.310713 35.249052 0 0 26.708208,49.729242 h 5.869535 c 3.413696,0 6.586499,-0.310224 9.247113,-0.8454 z"
       style="fill:#682929;stroke:#13061b;stroke-width:0.895972"
       id="path9" />
    <ellipse
       style="fill:#e22d2d;fill-opacity:1;stroke:#13061b;stroke-width:0.864522"
       id="path1-3"
       cx="13.295636"
       cy="35.25074"
       rx="17.835007"
       ry="19.072433"
       transform="matrix(0.99707021,-0.07649175,0.42482305,0.90527641,0,0)" />
    <ellipse
       style="fill:#e2adad;fill-opacity:1;stroke:#13061b;stroke-width:0.730041"
       id="path1"
       cx="13.295636"
       cy="35.25074"
       rx="15.060679"
       ry="16.105618"
       transform="matrix(0.99707021,-0.07649175,0.42482305,0.90527641,0,0)" />
    <path
       style="fill:#e2adad;fill-opacity:1;stroke:#13061b;stroke-width:0.659983"
       d="m 22.02723,17.559268 1.566949,3.339091"
       id="path2" />
    <path
       style="fill:#e2adad;fill-opacity:1;stroke:#13061b;stroke-width:0.659983"
       d="m 32.661564,40.287343 1.566949,3.33909"
       id="path2-8" />
    <path
       style="fill:#e2adad;fill-opacity:1;stroke:#13061b;stroke-width:0.445426"
       d="m 29.627577,18.738887 -0.244662,2.040684"
       id="path2-1" />
    <path
       style="fill:#e2adad;fill-opacity:1;stroke:#13061b;stroke-width:0.450006"
       d="m 26.876799,40.383896 -0.247178,2.061661"
       id="path2-8-7" />
    <path
       style="fill:#e2adad;fill-opacity:1;stroke:#13061b;stroke-width:0.452825"
       d="m 36.718728,23.106213 -1.505916,1.30227"
       id="path2-7" />
    <path
       style="fill:#e2adad;fill-opacity:1;stroke:#13061b;stroke-width:0.401036"
       d="m 20.86798,36.948859 -1.333686,1.15333"
       id="path2-8-6" />
    <path
       style="fill:#e2adad;fill-opacity:1;stroke:#13061b;stroke-width:0.659983"
       d="m 41.557374,29.577815 -3.43906,0.263833"
       id="path2-2" />
    <path
       style="fill:#e2adad;fill-opacity:1;stroke:#13061b;stroke-width:0.659983"
       d="M 18.137431,31.344055 14.69837,31.607888"
       id="path2-8-2" />
    <path
       style="fill:#e2adad;fill-opacity:1;stroke:#13061b;stroke-width:0.460224"
       d="m 16.020878,19.771228 2.14536,1.924496"
       id="path2-76" />
    <path
       style="fill:#e2adad;fill-opacity:1;stroke:#13061b;stroke-width:0.415833"
       d="m 38.320642,39.684879 1.938429,1.73887"
       id="path2-8-1" />
    <path
       style="fill:#e2adad;fill-opacity:1;stroke:#13061b;stroke-width:0.438028"
       d="m 13.348273,24.86631 2.496685,0.956426"
       id="path2-9" />
    <path
       style="fill:#e2adad;fill-opacity:1;stroke:#13061b;stroke-width:0.386239"
       d="m 40.729072,35.496768 2.201496,0.843344"
       id="path2-8-5" />
    <path
       id="path3"
       style="fill:url(#linearGradient5);stroke:#13061b;stroke-width:0.659983"
       d="m 19.35816,22.126883 c 0,0 0.205634,1.224651 0.566635,1.820097 1.416743,2.336818 4.058209,4.66716 5.956672,6.351105 0.640949,0.568526 0.791503,0.923203 1.528454,1.387314 0.547093,0.344545 1.017931,0.242858 1.59885,0.404143 2.755175,0.764929 2.960502,0.797848 4.33012,1.031198 0.08597,0.626173 0.416095,1.12607 1.875748,1.514758 2.085149,0.555243 5.684394,0.672737 5.629873,-0.379467 -0.05453,-1.052201 -3.741707,-2.87574 -5.826856,-3.430982 -1.452573,-0.386798 -1.74421,-0.05596 -1.769262,0.535873 -2.190488,-0.747071 -5.575736,-1.615721 -5.575736,-1.615721 0,0 -1.223322,-1.068836 -1.786342,-1.6394 -1.057279,-1.071444 -1.943527,-2.245644 -2.97395,-3.334415 C 22.285726,24.109261 21.73335,23.354529 20.964259,22.829769 20.470732,22.49303 19.35816,22.126883 19.35816,22.126883 Z" />
    <ellipse
       style="fill:#edd7d7;fill-opacity:1;stroke:#13061b;stroke-width:0;stroke-dasharray:none"
       id="path4"
       cx="20.316788"
       cy="37.178078"
       rx="0.40042117"
       ry="0.44766694"
       transform="matrix(0.99707021,-0.07649175,0.42482305,0.90527641,0,0)" />
    <path
       sodipodi:type="spiral"
       style="display:inline;fill:none;fill-rule:evenodd;stroke:#000000;stroke-width:0.265;stroke-linecap:round;stroke-dasharray:none"
       id="path14"
       sodipodi:cx="24.143229"
       sodipodi:cy="10.417969"
       sodipodi:expansion="1"
       sodipodi:revolution="2.7902846"
       sodipodi:radius="1.6880152"
       sodipodi:argument="-17.571072"
       sodipodi:t0="0.21885763"
       d="m 24.288141,10.078141 c 0.252296,0.03765 0.38654,0.309517 0.334035,0.544064 -0.07332,0.327541 -0.431433,0.496834 -0.742509,0.41383 -0.402906,-0.107506 -0.607791,-0.553633 -0.493625,-0.940952 0.141007,-0.47838 0.675977,-0.7191051 1.139397,-0.57342 0.55393,0.1741387 0.830633,0.798405 0.653215,1.337841 -0.207051,0.629532 -0.920886,0.9423 -1.536285,0.73301 -0.705172,-0.239821 -1.054061,-1.043405 -0.812805,-1.7347293 0.272494,-0.780839 1.16595,-1.1658892 1.933173,-0.8926001 0.591212,0.210593 1.007238,0.7649717 1.06721,1.3866374"
       transform="matrix(2.1270138,0,0,2.1270138,-13.422283,-4.0107185)" />
    <path
       sodipodi:type="spiral"
       style="display:inline;fill:none;fill-rule:evenodd;stroke:#000000;stroke-width:0.265;stroke-linecap:round;stroke-dasharray:none"
       id="path14-2"
       sodipodi:cx="24.143229"
       sodipodi:cy="10.417969"
       sodipodi:expansion="1"
       sodipodi:revolution="2.7902846"
       sodipodi:radius="1.6880152"
       sodipodi:argument="-17.571072"
       sodipodi:t0="0.21885763"
       d="m 24.288141,10.078141 c 0.252296,0.03765 0.38654,0.309517 0.334035,0.544064 -0.07332,0.327541 -0.431433,0.496834 -0.742509,0.41383 -0.402906,-0.107506 -0.607791,-0.553633 -0.493625,-0.940952 0.141007,-0.47838 0.675977,-0.7191051 1.139397,-0.57342 0.55393,0.1741387 0.830633,0.798405 0.653215,1.337841 -0.207051,0.629532 -0.920886,0.9423 -1.536285,0.73301 -0.705172,-0.239821 -1.054061,-1.043405 -0.812805,-1.7347293 0.272494,-0.780839 1.16595,-1.1658892 1.933173,-0.8926001 0.591212,0.210593 1.007238,0.7649717 1.06721,1.3866374"
       transform="matrix(-1.3087863,1.2591974,-1.2591974,-1.3087863,75.561765,5.8662218)" />
    <ellipse
       style="fill:#edd7d7;fill-opacity:1;stroke:#13061b;stroke-width:0;stroke-dasharray:none"
       id="path4-3"
       cx="19.533026"
       cy="38.952667"
       rx="0.40042117"
       ry="0.44766694"
       transform="matrix(0.99707021,-0.07649175,0.42482305,0.90527641,0,0)" />
  </g>
  <g
     inkscape:groupmode="layer"
     id="layer3"
     inkscape:label="Ebene 3"
     transform="translate(-0.20000279,-0.01799165)">
    <path
       sodipodi:type="star"
       style="fill:url(#linearGradient15);fill-opacity:1;fill-rule:nonzero;stroke:#322d21;stroke-width:0.443;stroke-linejoin:round;stroke-miterlimit:8.2;stroke-opacity:0.995995"
       id="path1-5-7"
       inkscape:flatsided="false"
       sodipodi:sides="7"
       sodipodi:cx="9.3473988"
       sodipodi:cy="4.4553022"
       sodipodi:r1="3.4362388"
       sodipodi:r2="2.3474281"
       sodipodi:arg1="0.9357696"
       sodipodi:arg2="1.3845686"
       inkscape:rounded="0.12173243"
       inkscape:randomized="0"
       d="M 11.385772,7.2216663 C 11.222279,7.3421351 9.9816044,6.724541 9.7820325,6.7621425 9.5824607,6.799744 8.651596,7.8264798 8.4554733,7.7737666 8.2593506,7.7210534 7.9686572,6.3659914 7.8148281,6.233404 7.6609991,6.1008166 6.2778801,6.0131966 6.1968124,5.8269955 6.1157447,5.6407945 6.9939305,4.5686539 7.0016807,4.3657186 7.0094308,4.1627833 6.2155743,3.0267871 6.3106073,2.8473114 6.4056403,2.6678357 7.7914134,2.6859603 7.9549068,2.5654915 8.1184001,2.4450227 8.5115962,1.1160787 8.7111681,1.0784772 8.9107399,1.0408757 9.760585,2.1356172 9.9567078,2.1883304 10.15283,2.2410436 11.436995,1.7198737 11.590824,1.8524611 c 0.153829,0.1325874 -0.172205,1.4795833 -0.09114,1.6657843 0.08107,0.186201 1.289198,0.8652568 1.281447,1.0681921 -0.0077,0.2029353 -1.264152,0.7878701 -1.359185,0.9673458 -0.09503,0.1794757 0.127317,1.5474143 -0.03618,1.667883 z"
       inkscape:transform-center-x="-0.33505939"
       inkscape:transform-center-y="-0.73490861"
       transform="matrix(1.1339459,0.26297713,-0.26297713,1.1339459,23.179931,-2.6265819)" />
    <path
       sodipodi:type="star"
       style="fill:url(#linearGradient26);fill-opacity:1;fill-rule:nonzero;stroke:#322d21;stroke-width:0.443;stroke-linejoin:round;stroke-miterlimit:8.2;stroke-opacity:0.995995"
       id="path1-5-7-0"
       inkscape:flatsided="false"
       sodipodi:sides="6"
       sodipodi:cx="9.3473988"
       sodipodi:cy="4.4553022"
       sodipodi:r1="3.4362388"
       sodipodi:r2="2.3474281"
       sodipodi:arg1="0.9357696"
       sodipodi:arg2="1.4593684"
       inkscape:rounded="0.12173243"
       inkscape:randomized="0"
       d="M 11.385772,7.2216663 C 11.206484,7.3537735 9.8297487,6.7634083 9.6084269,6.7881723 9.3871051,6.8129364 8.1748962,7.6929822 7.9708439,7.6037675 7.7667916,7.5145529 7.5896952,6.0270826 7.457588,5.8477943 7.3254809,5.668506 5.9572344,5.0587252 5.9324704,4.8374034 5.9077064,4.6160816 7.1073453,3.7189765 7.1965599,3.5149241 7.2857746,3.3108718 7.129737,1.8210453 7.3090253,1.6889381 7.4883136,1.556831 8.8650488,2.1471961 9.0863707,2.1224321 9.3076925,2.0976681 10.519901,1.2176223 10.723954,1.306837 c 0.204052,0.089215 0.381148,1.5766849 0.513255,1.7559732 0.132108,0.1792883 1.500354,0.789069 1.525118,1.0103908 0.02476,0.2213219 -1.174875,1.118427 -1.264089,1.3224793 -0.08922,0.2040523 0.06682,1.6938789 -0.112466,1.825986 z"
       inkscape:transform-center-x="0.30245439"
       inkscape:transform-center-y="-0.66339453"
       transform="matrix(-1.0236017,0.23738684,0.23738684,1.0236017,28.879385,-1.8957624)" />
    <path
       sodipodi:type="star"
       style="fill:url(#linearGradient25);fill-opacity:1;fill-rule:nonzero;stroke:#322d21;stroke-width:0.443;stroke-linejoin:round;stroke-miterlimit:8.2;stroke-opacity:0.995995"
       id="path1-5-9"
       inkscape:flatsided="false"
       sodipodi:sides="6"
       sodipodi:cx="9.3473988"
       sodipodi:cy="4.4553022"
       sodipodi:r1="3.4362388"
       sodipodi:r2="2.3474281"
       sodipodi:arg1="0.9357696"
       sodipodi:arg2="1.4593684"
       inkscape:rounded="0.12173243"
       inkscape:randomized="0"
       d="M 11.385772,7.2216663 C 11.206484,7.3537735 9.8297487,6.7634083 9.6084269,6.7881723 9.3871051,6.8129364 8.1748962,7.6929822 7.9708439,7.6037675 7.7667916,7.5145529 7.5896952,6.0270826 7.457588,5.8477943 7.3254809,5.668506 5.9572344,5.0587252 5.9324704,4.8374034 5.9077064,4.6160816 7.1073453,3.7189765 7.1965599,3.5149241 7.2857746,3.3108718 7.129737,1.8210453 7.3090253,1.6889381 7.4883136,1.556831 8.8650488,2.1471961 9.0863707,2.1224321 9.3076925,2.0976681 10.519901,1.2176223 10.723954,1.306837 c 0.204052,0.089215 0.381148,1.5766849 0.513255,1.7559732 0.132108,0.1792883 1.500354,0.789069 1.525118,1.0103908 0.02476,0.2213219 -1.174875,1.118427 -1.264089,1.3224793 -0.08922,0.2040523 0.06682,1.6938789 -0.112466,1.825986 z"
       inkscape:transform-center-x="0.10400115"
       inkscape:transform-center-y="-1.3089877"
       transform="matrix(1.5481355,0,0,1.5481355,11.92894,-1.6446126)" />
  </g>
</svg>
