<?xml version="1.0" encoding="UTF-8" standalone="no"?>
<!-- Created with Inkscape (http://www.inkscape.org/) -->

<svg
   width="200"
   height="201.17621"
   viewBox="0 0 52.916666 53.227871"
   version="1.1"
   id="svg1"
   inkscape:version="1.4.2 (f4327f4, 2025-05-13)"
   sodipodi:docname="TimeStop1.svg"
   xmlns:inkscape="http://www.inkscape.org/namespaces/inkscape"
   xmlns:sodipodi="http://sodipodi.sourceforge.net/DTD/sodipodi-0.dtd"
   xmlns:xlink="http://www.w3.org/1999/xlink"
   xmlns="http://www.w3.org/2000/svg"
   xmlns:svg="http://www.w3.org/2000/svg">
  <sodipodi:namedview
     id="namedview1"
     pagecolor="#ffffff"
     bordercolor="#000000"
     borderopacity="0.25"
     inkscape:showpageshadow="2"
     inkscape:pageopacity="0.0"
     inkscape:pagecheckerboard="0"
     inkscape:deskcolor="#d1d1d1"
     inkscape:document-units="mm"
     inkscape:zoom="5.6568542"
     inkscape:cx="26.516505"
     inkscape:cy="75.748815"
     inkscape:window-width="3840"
     inkscape:window-height="2054"
     inkscape:window-x="-11"
     inkscape:window-y="-11"
     inkscape:window-maximized="1"
     inkscape:current-layer="layer3" />
  <defs
     id="defs1">
    <linearGradient
       id="linearGradient4"
       inkscape:collect="always">
      <stop
         style="stop-color:#e26060;stop-opacity:1;"
         offset="0"
         id="stop4" />
      <stop
         style="stop-color:#b63232;stop-opacity:1;"
         offset="1"
         id="stop5" />
    </linearGradient>
    <inkscape:path-effect
       effect="spiro"
       id="path-effect9"
       is_visible="true"
       lpeversion="1" />
    <inkscape:path-effect
       effect="spiro"
       id="path-effect8"
       is_visible="true"
       lpeversion="1" />
    <inkscape:path-effect
       effect="mirror_symmetry"
       start_point="17.255329,9.2448751"
       end_point="17.255329,29.300879"
       center_point="17.255329,19.272877"
       id="path-effect5"
       is_visible="true"
       lpeversion="1.2"
       lpesatellites=""
       mode="free"
       discard_orig_path="false"
       fuse_paths="true"
       oposite_fuse="false"
       split_items="false"
       split_open="false"
       link_styles="false" />
    <inkscape:path-effect
       effect="mirror_symmetry"
       start_point="27.030316,8.4102839"
       end_point="27.030316,28.182973"
       center_point="27.030316,18.296628"
       id="path-effect3"
       is_visible="true"
       lpeversion="1.2"
       lpesatellites=""
       mode="free"
       discard_orig_path="false"
       fuse_paths="false"
       oposite_fuse="false"
       split_items="false"
       split_open="false"
       link_styles="false" />
    <inkscape:path-effect
       effect="spiro"
       id="path-effect8-8"
       is_visible="true"
       lpeversion="1" />
    <inkscape:path-effect
       effect="spiro"
       id="path-effect8-0"
       is_visible="true"
       lpeversion="1" />
    <inkscape:path-effect
       effect="spiro"
       id="path-effect8-0-9"
       is_visible="true"
       lpeversion="1" />
    <inkscape:path-effect
       effect="spiro"
       id="path-effect8-8-6"
       is_visible="true"
       lpeversion="1" />
    <inkscape:path-effect
       effect="spiro"
       id="path-effect8-3"
       is_visible="true"
       lpeversion="1" />
    <linearGradient
       inkscape:collect="always"
       xlink:href="#linearGradient4"
       id="linearGradient5"
       x1="12.978838"
       y1="16.646841"
       x2="23.442726"
       y2="16.646841"
       gradientUnits="userSpaceOnUse"
       gradientTransform="matrix(1.5520032,-0.11906427,0.70714387,1.5068878,-9.9408985,5.5392972)" />
  </defs>
  <g
     inkscape:label="Ebene 1"
     inkscape:groupmode="layer"
     id="layer1"
     style="display:inline"
     transform="translate(-0.20000279,-7.6333346e-5)">
    <path
       sodipodi:type="spiral"
       style="fill:none;fill-rule:evenodd;stroke:#000000;stroke-width:0.365;stroke-linecap:round;stroke-dasharray:none"
       id="path12"
       sodipodi:cx="29.419693"
       sodipodi:cy="8.0915852"
       sodipodi:expansion="1"
       sodipodi:revolution="2.7902846"
       sodipodi:radius="2.2837081"
       sodipodi:argument="-15.350353"
       sodipodi:t0="0.21885763"
       d="m 29.66708,8.5258739 c -0.247098,0.2409225 -0.649824,0.1629432 -0.859466,-0.085626 -0.292762,-0.3471221 -0.18193,-0.8714307 0.16214,-1.1385324 0.445641,-0.3459502 1.093888,-0.2013978 1.417599,0.238655 0.399817,0.543511 0.221133,1.3167923 -0.315169,1.6966652 C 29.431136,9.6911015 28.532222,9.4780659 28.096452,8.8453517 27.5879,8.1069618 27.83542,7.0820491 28.56465,6.5905537 c 0.835611,-0.5631941 1.986761,-0.2811058 2.533865,0.544713 0.617944,0.9327482 0.30123,2.2103019 -0.621228,2.8129308 -0.710833,0.4643775 -1.648532,0.4586175 -2.367214,0.014274"
       transform="matrix(1.5565636,0,0,1.5565636,0.30708614,-2.3261072)" />
    <path
       sodipodi:type="spiral"
       style="fill:none;fill-rule:evenodd;stroke:#000000;stroke-width:0.465;stroke-linecap:round;stroke-dasharray:none"
       id="path13"
       sodipodi:cx="20.907158"
       sodipodi:cy="5.1917105"
       sodipodi:expansion="1"
       sodipodi:revolution="2.7902846"
       sodipodi:radius="3.0777364"
       sodipodi:argument="-15.668167"
       sodipodi:t0="0.21885763"
       d="M 21.40676,5.6435027 C 21.191887,6.0559952 20.643477,6.1257704 20.27041,5.8958408 19.749429,5.5747486 19.670507,4.8568524 19.998499,4.3700061 20.423315,3.7394426 21.314079,3.651495 21.913818,4.0785231 22.654559,4.6059474 22.751469,5.671154 22.224874,6.3833269 21.59543,7.2345941 20.35492,7.3404357 19.530585,6.7139549 18.56857,5.9828394 18.453812,4.5665041 19.180385,3.6301819 20.01295,2.5572702 21.605453,2.433603 22.653643,3.2604091 c 1.183912,0.9338633 1.316484,2.7027708 0.389345,3.8627421 -0.714442,0.8938586 -1.91731,1.281388 -3.0245,1.015206"
       transform="matrix(1.5565636,0,0,1.5565636,1.8543899,1.1648191)" />
  </g>
  <g
     inkscape:groupmode="layer"
     id="layer2"
     inkscape:label="Ebene 2"
     transform="translate(-0.20000279,-7.6333346e-5)">
    <path
       d="M 31.295567,3.7998322 H 20.73893 c -9.446218,0 -17.0503694,2.3738967 -17.0503694,5.3233638 v 3.562583 A 16.739624,20.409744 32.188054 0 0 28.534947,7.9785681 16.739624,20.409744 32.188054 0 0 31.295567,3.7998322 Z"
       style="fill:#421919;stroke:#13061b;stroke-width:0.867171"
       id="path7" />
    <path
       d="m 14.200957,15.974071 a 16.739624,20.409744 32.188054 0 0 4.452224,-0.932273 22.314536,15.310713 35.249052 0 0 -0.102967,0.008 22.314536,15.310713 35.249052 0 0 -4.349263,0.924229 z"
       style="fill:#682929;stroke:#13061b;stroke-width:0.895972"
       id="path11" />
    <path
       d="M 41.824856,48.893983 A 22.314536,15.310713 35.249052 0 0 45.376982,31.529908 22.314536,15.310713 35.249052 0 0 18.653181,15.041798 16.739624,20.409744 32.188054 0 1 14.200957,15.974071 22.314536,15.310713 35.249052 0 0 8.5172328,34.357292 22.314536,15.310713 35.249052 0 0 26.708208,49.739384 h 5.869535 c 3.413696,0 6.586499,-0.310224 9.247113,-0.845401 z"
       style="fill:#682929;stroke:#13061b;stroke-width:0.895972"
       id="path9" />
    <ellipse
       style="fill:#e22d2d;fill-opacity:1;stroke:#13061b;stroke-width:0.864522"
       id="path1-3"
       cx="13.291029"
       cy="35.261551"
       rx="17.835007"
       ry="19.072433"
       transform="matrix(0.99707021,-0.07649175,0.42482305,0.90527641,0,0)" />
    <ellipse
       style="fill:#e2adad;fill-opacity:1;stroke:#13061b;stroke-width:0.730041"
       id="path1"
       cx="13.291029"
       cy="35.261551"
       rx="15.060679"
       ry="16.105618"
       transform="matrix(0.99707021,-0.07649175,0.42482305,0.90527641,0,0)" />
    <path
       style="fill:#e2adad;fill-opacity:1;stroke:#13061b;stroke-width:0.659983"
       d="m 22.02723,17.56941 1.566949,3.339091"
       id="path2" />
    <path
       style="fill:#e2adad;fill-opacity:1;stroke:#13061b;stroke-width:0.659983"
       d="m 32.661564,40.297484 1.566949,3.339091"
       id="path2-8" />
    <path
       style="fill:#e2adad;fill-opacity:1;stroke:#13061b;stroke-width:0.445426"
       d="m 29.627577,18.749029 -0.244662,2.040684"
       id="path2-1" />
    <path
       style="fill:#e2adad;fill-opacity:1;stroke:#13061b;stroke-width:0.450006"
       d="m 26.876799,40.394038 -0.247178,2.061661"
       id="path2-8-7" />
    <path
       style="fill:#e2adad;fill-opacity:1;stroke:#13061b;stroke-width:0.452825"
       d="m 36.718728,23.116355 -1.505916,1.30227"
       id="path2-7" />
    <path
       style="fill:#e2adad;fill-opacity:1;stroke:#13061b;stroke-width:0.401036"
       d="m 20.86798,36.959001 -1.333686,1.15333"
       id="path2-8-6" />
    <path
       style="fill:#e2adad;fill-opacity:1;stroke:#13061b;stroke-width:0.659983"
       d="m 41.557374,29.587957 -3.43906,0.263833"
       id="path2-2" />
    <path
       style="fill:#e2adad;fill-opacity:1;stroke:#13061b;stroke-width:0.659983"
       d="M 18.137431,31.354197 14.69837,31.61803"
       id="path2-8-2" />
    <path
       style="fill:#e2adad;fill-opacity:1;stroke:#13061b;stroke-width:0.460224"
       d="m 16.020878,19.78137 2.14536,1.924496"
       id="path2-76" />
    <path
       style="fill:#e2adad;fill-opacity:1;stroke:#13061b;stroke-width:0.415833"
       d="m 38.320642,39.695021 1.938429,1.73887"
       id="path2-8-1" />
    <path
       style="fill:#e2adad;fill-opacity:1;stroke:#13061b;stroke-width:0.438028"
       d="m 13.348273,24.876452 2.496685,0.956426"
       id="path2-9" />
    <path
       style="fill:#e2adad;fill-opacity:1;stroke:#13061b;stroke-width:0.386239"
       d="m 40.729072,35.506909 2.201496,0.843345"
       id="path2-8-5" />
    <path
       id="path3"
       style="fill:url(#linearGradient5);stroke:#13061b;stroke-width:0.659983"
       d="m 19.35816,22.137025 c 0,0 0.205634,1.224651 0.566635,1.820097 1.416743,2.336818 4.058209,4.66716 5.956672,6.351105 0.640949,0.568525 0.791503,0.923202 1.528454,1.387314 0.547093,0.344545 1.017931,0.242858 1.59885,0.404143 2.755175,0.764929 2.960502,0.797847 4.33012,1.031198 0.08597,0.626173 0.416095,1.12607 1.875748,1.514758 2.085149,0.555243 5.684394,0.672737 5.629873,-0.379467 -0.05453,-1.052201 -3.741707,-2.875741 -5.826856,-3.430982 -1.452573,-0.386799 -1.74421,-0.05596 -1.769262,0.535873 -2.190488,-0.747071 -5.575736,-1.615721 -5.575736,-1.615721 0,0 -1.223322,-1.068836 -1.786342,-1.6394 -1.057279,-1.071444 -1.943527,-2.245644 -2.97395,-3.334415 -0.62664,-0.662125 -1.179016,-1.416857 -1.948107,-1.941617 -0.493527,-0.336739 -1.606099,-0.702886 -1.606099,-0.702886 z" />
    <ellipse
       style="fill:#edd7d7;fill-opacity:1;stroke:#13061b;stroke-width:0;stroke-dasharray:none"
       id="path4"
       cx="20.31218"
       cy="37.188892"
       rx="0.40042117"
       ry="0.44766694"
       transform="matrix(0.99707021,-0.07649175,0.42482305,0.90527641,0,0)" />
    <path
       sodipodi:type="spiral"
       style="display:inline;fill:none;fill-rule:evenodd;stroke:#000000;stroke-width:0.265;stroke-linecap:round;stroke-dasharray:none"
       id="path14"
       sodipodi:cx="24.143229"
       sodipodi:cy="10.417969"
       sodipodi:expansion="1"
       sodipodi:revolution="2.7902846"
       sodipodi:radius="1.6880152"
       sodipodi:argument="-17.571072"
       sodipodi:t0="0.21885763"
       d="m 24.288141,10.078141 c 0.252296,0.03765 0.38654,0.309517 0.334035,0.544064 -0.07332,0.327541 -0.431433,0.496834 -0.742509,0.41383 -0.402906,-0.107506 -0.607791,-0.553633 -0.493625,-0.940952 0.141007,-0.47838 0.675977,-0.7191051 1.139397,-0.57342 0.55393,0.1741387 0.830633,0.798405 0.653215,1.337841 -0.207051,0.629532 -0.920886,0.9423 -1.536285,0.73301 -0.705172,-0.239821 -1.054061,-1.043405 -0.812805,-1.7347293 0.272494,-0.780839 1.16595,-1.1658892 1.933173,-0.8926001 0.591212,0.210593 1.007238,0.7649717 1.06721,1.3866374"
       transform="matrix(2.1270138,0,0,2.1270138,-13.422283,-4.0005767)" />
    <path
       sodipodi:type="spiral"
       style="display:inline;fill:none;fill-rule:evenodd;stroke:#000000;stroke-width:0.265;stroke-linecap:round;stroke-dasharray:none"
       id="path14-2"
       sodipodi:cx="24.143229"
       sodipodi:cy="10.417969"
       sodipodi:expansion="1"
       sodipodi:revolution="2.7902846"
       sodipodi:radius="1.6880152"
       sodipodi:argument="-17.571072"
       sodipodi:t0="0.21885763"
       d="m 24.288141,10.078141 c 0.252296,0.03765 0.38654,0.309517 0.334035,0.544064 -0.07332,0.327541 -0.431433,0.496834 -0.742509,0.41383 -0.402906,-0.107506 -0.607791,-0.553633 -0.493625,-0.940952 0.141007,-0.47838 0.675977,-0.7191051 1.139397,-0.57342 0.55393,0.1741387 0.830633,0.798405 0.653215,1.337841 -0.207051,0.629532 -0.920886,0.9423 -1.536285,0.73301 -0.705172,-0.239821 -1.054061,-1.043405 -0.812805,-1.7347293 0.272494,-0.780839 1.16595,-1.1658892 1.933173,-0.8926001 0.591212,0.210593 1.007238,0.7649717 1.06721,1.3866374"
       transform="matrix(-1.3087863,1.2591974,-1.2591974,-1.3087863,75.561765,5.8763636)" />
    <ellipse
       style="fill:#edd7d7;fill-opacity:1;stroke:#13061b;stroke-width:0;stroke-dasharray:none"
       id="path4-3"
       cx="19.528418"
       cy="38.963482"
       rx="0.40042117"
       ry="0.44766694"
       transform="matrix(0.99707021,-0.07649175,0.42482305,0.90527641,0,0)" />
  </g>
  <g
     inkscape:groupmode="layer"
     id="layer3"
     inkscape:label="Ebene 3"
     transform="translate(-0.20000279,-7.6333346e-5)" />
</svg>
