<?xml version="1.0" encoding="UTF-8" standalone="no"?>
<!-- Created with Inkscape (http://www.inkscape.org/) -->

<svg
   width="200"
   height="200.00003"
   viewBox="0 0 52.916666 52.916674"
   version="1.1"
   id="svg1"
   inkscape:version="1.4.2 (f4327f4, 2025-05-13)"
   sodipodi:docname="Tongue2.svg"
   xmlns:inkscape="http://www.inkscape.org/namespaces/inkscape"
   xmlns:sodipodi="http://sodipodi.sourceforge.net/DTD/sodipodi-0.dtd"
   xmlns:xlink="http://www.w3.org/1999/xlink"
   xmlns="http://www.w3.org/2000/svg"
   xmlns:svg="http://www.w3.org/2000/svg">
  <sodipodi:namedview
     id="namedview1"
     pagecolor="#ffffff"
     bordercolor="#000000"
     borderopacity="0.25"
     inkscape:showpageshadow="2"
     inkscape:pageopacity="0.0"
     inkscape:pagecheckerboard="0"
     inkscape:deskcolor="#d1d1d1"
     inkscape:document-units="mm"
     inkscape:zoom="4.543042"
     inkscape:cx="137.02273"
     inkscape:cy="80.452701"
     inkscape:window-width="3840"
     inkscape:window-height="2054"
     inkscape:window-x="-11"
     inkscape:window-y="-11"
     inkscape:window-maximized="1"
     inkscape:current-layer="layer1" />
  <defs
     id="defs1">
    <linearGradient
       id="linearGradient29"
       inkscape:collect="always">
      <stop
         style="stop-color:#f2b3b3;stop-opacity:1;"
         offset="0"
         id="stop28" />
      <stop
         style="stop-color:#9e4752;stop-opacity:1;"
         offset="1"
         id="stop29" />
    </linearGradient>
    <linearGradient
       id="linearGradient27"
       inkscape:collect="always">
      <stop
         style="stop-color:#f2b3b3;stop-opacity:1;"
         offset="0"
         id="stop26" />
      <stop
         style="stop-color:#9e4747;stop-opacity:1;"
         offset="1"
         id="stop27" />
    </linearGradient>
    <linearGradient
       id="linearGradient23"
       inkscape:collect="always">
      <stop
         style="stop-color:#f2b3b3;stop-opacity:1;"
         offset="0"
         id="stop23" />
      <stop
         style="stop-color:#9e4747;stop-opacity:1;"
         offset="1"
         id="stop24" />
    </linearGradient>
    <inkscape:path-effect
       effect="spiro"
       id="path-effect9"
       is_visible="true"
       lpeversion="1" />
    <inkscape:path-effect
       effect="spiro"
       id="path-effect8"
       is_visible="true"
       lpeversion="1" />
    <inkscape:path-effect
       effect="mirror_symmetry"
       start_point="17.255329,9.2448751"
       end_point="17.255329,29.300879"
       center_point="17.255329,19.272877"
       id="path-effect5"
       is_visible="true"
       lpeversion="1.2"
       lpesatellites=""
       mode="free"
       discard_orig_path="false"
       fuse_paths="true"
       oposite_fuse="false"
       split_items="false"
       split_open="false"
       link_styles="false" />
    <inkscape:path-effect
       effect="mirror_symmetry"
       start_point="27.030316,8.4102839"
       end_point="27.030316,28.182973"
       center_point="27.030316,18.296628"
       id="path-effect3"
       is_visible="true"
       lpeversion="1.2"
       lpesatellites=""
       mode="free"
       discard_orig_path="false"
       fuse_paths="false"
       oposite_fuse="false"
       split_items="false"
       split_open="false"
       link_styles="false" />
    <inkscape:path-effect
       effect="spiro"
       id="path-effect8-8"
       is_visible="true"
       lpeversion="1" />
    <inkscape:path-effect
       effect="spiro"
       id="path-effect8-0"
       is_visible="true"
       lpeversion="1" />
    <inkscape:path-effect
       effect="spiro"
       id="path-effect8-0-9"
       is_visible="true"
       lpeversion="1" />
    <inkscape:path-effect
       effect="spiro"
       id="path-effect8-8-6"
       is_visible="true"
       lpeversion="1" />
    <inkscape:path-effect
       effect="spiro"
       id="path-effect8-3"
       is_visible="true"
       lpeversion="1" />
    <linearGradient
       inkscape:collect="always"
       xlink:href="#linearGradient23"
       id="linearGradient24"
       x1="9.1575069"
       y1="0.65352398"
       x2="9.5236149"
       y2="7.6392875"
       gradientUnits="userSpaceOnUse" />
    <linearGradient
       inkscape:collect="always"
       xlink:href="#linearGradient29"
       id="linearGradient25"
       x1="9.1575069"
       y1="0.65352398"
       x2="9.5236149"
       y2="7.6392875"
       gradientUnits="userSpaceOnUse" />
    <linearGradient
       inkscape:collect="always"
       xlink:href="#linearGradient27"
       id="linearGradient26"
       x1="9.1575069"
       y1="0.65352398"
       x2="9.5236149"
       y2="7.6392875"
       gradientUnits="userSpaceOnUse" />
    <clipPath
       clipPathUnits="userSpaceOnUse"
       id="clipPath6">
      <path
         id="path6"
         style="fill:#f54e4e;fill-opacity:1;stroke:#1c1c1c;stroke-width:0;stroke-linecap:round;stroke-linejoin:round;stroke-dasharray:none;stroke-opacity:1"
         d="m 44.939795,30.199785 c -4e-6,7.909508 -5.558438,6.887158 -12.454814,6.887158 -6.896379,0 -12.519183,1.022349 -12.519181,-6.887159 -1e-6,-7.909504 1.857393,-18.505213 12.486997,-18.505213 10.629603,1e-6 12.486997,10.595708 12.486998,18.505214 z"
         sodipodi:nodetypes="ssszs" />
    </clipPath>
    <clipPath
       clipPathUnits="userSpaceOnUse"
       id="clipPath3">
      <path
         id="path3"
         style="fill:#d2f54e;fill-opacity:0.504929;stroke:#1c1c1c;stroke-width:0;stroke-linecap:round;stroke-linejoin:round;stroke-dasharray:none;stroke-opacity:1"
         d="m 45.055879,30.306775 c 0,7.901585 -5.589006,6.880259 -12.523314,6.880259 -6.934307,0 -12.588032,1.021326 -12.588032,-6.880259 0,-7.901585 1.867607,-18.486683 12.555673,-18.486683 10.688066,0 12.555673,10.585098 12.555673,18.486683 z"
         sodipodi:nodetypes="ssszs" />
    </clipPath>
    <clipPath
       clipPathUnits="userSpaceOnUse"
       id="clipPath18">
      <rect
         style="fill:#f5dada;fill-opacity:1;stroke:#212532;stroke-width:0.689557;stroke-linejoin:round;stroke-miterlimit:8.2;stroke-dasharray:none;stroke-opacity:0.995995"
         id="rect18"
         width="45.940063"
         height="45.940067"
         x="3.6883085"
         y="3.7996202"
         ry="5.3239479"
         rx="17.050934" />
    </clipPath>
    <inkscape:path-effect
       effect="spiro"
       id="path-effect7"
       is_visible="true"
       lpeversion="1" />
    <inkscape:path-effect
       effect="spiro"
       id="path-effect10"
       is_visible="true"
       lpeversion="1" />
    <inkscape:path-effect
       effect="spiro"
       id="path-effect11"
       is_visible="true"
       lpeversion="1" />
  </defs>
  <g
     inkscape:label="Ebene 1"
     inkscape:groupmode="layer"
     id="layer1"
     transform="translate(-0.20000279,-0.20000285)">
    <rect
       style="fill:#d97a7a;fill-opacity:1;stroke:#212532;stroke-width:1.29973;stroke-linejoin:round;stroke-miterlimit:8.2;stroke-dasharray:none;stroke-opacity:0.995995"
       id="rect1"
       width="51.616936"
       height="51.616943"
       x="0.84986776"
       y="0.84986782"
       ry="5.9818354"
       rx="19.15794" />
    <rect
       style="fill:#f77c7c;fill-opacity:1;stroke:#212532;stroke-width:0.689558;stroke-linejoin:round;stroke-miterlimit:8.2;stroke-dasharray:none;stroke-opacity:0.995995"
       id="rect1-8"
       width="45.94006"
       height="45.940067"
       x="3.6883085"
       y="3.6883061"
       ry="5.3239479"
       rx="17.050934" />
    <path
       style="fill:#975959;fill-opacity:1;stroke:#6f3f3f;stroke-width:0;stroke-linecap:round;stroke-dasharray:none;stroke-opacity:1;paint-order:fill markers stroke"
       d="m 15.71675,7.6856134 c 0,0 -0.218794,-0.613268 -0.485739,-0.736981 -0.253663,-0.117557 -0.567359,0.188594 -0.832696,0.100498 -1.15221,-0.382552 -2.636869,-2.5124339 -2.636869,-2.5124339 l -3.2613915,0.7369806 6.4880865,5.4938539 0.936783,0.267993 -0.693913,-2.0099466 z"
       id="path2"
       sodipodi:nodetypes="caacccccc" />
    <path
       style="fill:#b08383;fill-opacity:1;stroke:#6f3f3f;stroke-width:0;stroke-linecap:round;stroke-dasharray:none;stroke-opacity:1;paint-order:fill markers stroke"
       d="m 18.28422,9.0830334 0.350791,-1.473324 0.02339,-1.052373 c 0,0 -0.2122,-0.573844 -0.467721,-0.631425 -0.129283,-0.02913 -0.267112,0.08433 -0.350795,0.187089 -0.08723,0.10711 -0.116931,0.397564 -0.116931,0.397564 l -1.122532,0.02339 c 0,0 0.134264,-0.208824 0.140317,-0.327405 0.0067,-0.130504 -0.0095,-0.299725 -0.116931,-0.374177 -0.115492,-0.08007 -0.29185,-0.03214 -0.420949,0.02339 -0.177302,0.07625 -0.32378,0.230805 -0.42095,0.397564 -0.509255,0.873958 -0.724968,2.946646 -0.724968,2.946646 0,0 0.265644,1.7249576 0.865285,2.2684496 0.395134,0.358136 1.011337,0.455809 1.543481,0.42095 0.261485,-0.01713 0.529126,-0.129913 0.724969,-0.30402 C 18.344596,11.448516 18.453,11.24916 18.494695,11.047473 18.62802,10.402552 18.28422,9.0830414 18.28422,9.0830424 Z"
       id="path1"
       sodipodi:nodetypes="cccaaccaaaacaaaac" />
    <path
       style="fill:#933d3d;fill-opacity:1;stroke:#6f3f3f;stroke-width:0;stroke-linecap:round;stroke-dasharray:none;stroke-opacity:1;paint-order:fill markers stroke"
       d="m 17.924558,9.1212804 0.259039,-1.096493 0.01727,-0.783208 -0.345384,-0.469926 -0.259039,0.139238 -0.08635,0.295878 -0.828923,0.0174 0.103615,-0.243665 -0.08635,-0.278474 -0.310847,0.0174 -0.310846,0.295879 -0.535347,2.192985 0.638962,1.6882496 1.139771,0.313284 0.535347,-0.226261 0.2245,-0.400306 z"
       id="path1-8"
       inkscape:transform-center-x="0.62028337"
       inkscape:transform-center-y="-1.2710502" />
    <ellipse
       style="fill:#4a2b2b;fill-opacity:1;stroke:#6f3f3f;stroke-width:0;stroke-linecap:round;stroke-dasharray:none;stroke-opacity:1;paint-order:fill markers stroke"
       id="path4"
       cx="14.858326"
       cy="7.7447701"
       rx="0.36380208"
       ry="0.48782551" />
    <ellipse
       style="fill:#4a2b2b;fill-opacity:1;stroke:#6f3f3f;stroke-width:0;stroke-linecap:round;stroke-dasharray:none;stroke-opacity:1;paint-order:fill markers stroke"
       id="path5"
       cx="16.850964"
       cy="8.6790791"
       rx="0.29765624"
       ry="0.95911461" />
    <path
       style="fill:#4a2b2b;fill-opacity:0;stroke:#bb2d2d;stroke-width:1.3;stroke-linecap:round;stroke-dasharray:none;stroke-opacity:1;paint-order:fill markers stroke"
       d="m 17.312178,9.8821724 c 0,0 12.033659,-1.430564 9.040241,1.6563986 -2.993419,3.086963 -19.7846275,2.15152 -12.72203,6.548104 7.062597,4.396583 27.314945,-1.870887 23.058678,6.26747 -4.256268,8.138357 -25.116653,3.086964 -11.412408,13.049434"
       id="path7"
       sodipodi:nodetypes="csssc" />
    <path
       style="fill:#4a2b2b;fill-opacity:0;stroke:#bb2d2d;stroke-width:1.2;stroke-linecap:round;stroke-dasharray:none;stroke-opacity:1;paint-order:fill markers stroke"
       d="m 17.317651,10.000301 c 0,0 12.033659,-1.4305636 9.040241,1.656399 -2.490304,2.568127 -14.530081,2.35234 -14.440384,4.738712 0.01812,0.482117 0.0022,1.500391 1.189187,2.239341 2.079935,1.294794 5.448934,2.321933 8.918633,2.354656 6.579032,0.06205 11.797234,-0.72776 13.039312,1.511547 1.178375,3.461675 -7.303923,4.799138 -9.040905,5.27435 -4.368495,1.240774 -9.111141,2.631933 -9.048419,4.796189 0.0345,1.19051 3.035238,4.725406 6.620097,7.331464"
       id="path7-1"
       sodipodi:nodetypes="csssssssc" />
    <path
       style="fill:#bb2d2d;fill-opacity:1;stroke:#bb2d2d;stroke-width:0;stroke-linecap:round;stroke-dasharray:none;stroke-opacity:1;paint-order:fill markers stroke"
       d="m 23.812815,40.172763 2.546614,0.363802 -0.959114,-2.745052 -4.233334,-3.902604 -0.198437,-2.215885 3.571875,-1.389063 8.400521,-2.083593 3.009635,-3.141927 1.124479,-2.811198 -0.959114,-1.686719 -3.96875,-0.330729 2.414322,1.653646 0.363803,1.852083 -2.182813,1.918229 -7.309114,2.215886 -6.713802,2.447395 -1.521355,1.686719 0.529167,2.678906 3.604948,3.604948 z"
       id="path8" />
    <path
       d="m 39.428399,48.935537 c 0.02276,-0.02838 0.04538,-0.05689 0.0677,-0.08578 3.095969,-4.008998 3.865053,-8.509425 -3.013769,-13.619841 -6.878824,-5.110416 -10.529125,-4.240334 -14.033252,0.452169 -3.504091,4.692522 -0.520901,10.98844 3.014286,13.61984 0.0435,0.03238 0.08764,0.06426 0.132292,0.09612 h 6.848161 c 2.491626,0 4.854967,-0.165122 6.984586,-0.462504 z"
       style="fill:#e79c9c;stroke:#000000;stroke-width:0"
       id="path12" />
    <path
       id="rect1-1"
       style="fill:#d65757;fill-opacity:1;stroke:#000000;stroke-width:0;stroke-dasharray:none;stroke-opacity:0"
       d="m 34.729526,37.423185 c 4.252763,3.131779 3.842137,6.036272 1.908986,8.626566 -1.933186,2.590268 -6.736503,1.996139 -8.88838,0.286379 -2.151877,-1.70976 -3.829263,-5.923132 -1.90897,-8.626572 1.920299,-2.703438 4.427268,-3.628292 8.888364,-0.286373 z"
       sodipodi:nodetypes="czzzc" />
    <path
       d="m 40.286709,33.693455 c -0.47636,-0.347459 -1.151037,-0.741832 -1.634645,-0.90504 -0.737574,-0.248933 -1.420956,-0.200616 -1.753055,0.08202 -0.11364,-0.0943 -0.244534,-0.196874 -0.394331,-0.309111 -1.687598,-1.264556 -3.163364,-1.019079 -6.920629,-2.660694 -1.210364,-0.528828 1.28032,2.89791 2.967915,4.162465 1.203169,0.901561 2.517858,1.315866 3.41447,1.157818 0.01531,0.754587 0.585498,1.697863 1.534678,2.409105 1.299361,0.973644 4.438347,1.982241 3.802353,1.180137 -1.819426,-2.294605 -2.028956,-3.512655 -3.06761,-4.451656 0.584169,-0.01467 1.265773,-0.13561 2.495105,-0.04081 0.309986,0.0239 0.03208,-0.276734 -0.444269,-0.62422 z"
       style="fill:#703636;fill-opacity:1;stroke:#4a854b;stroke-width:0;stroke-dasharray:none"
       id="path369" />
    <path
       d="M 29.696246,51.178655 A 18.161899,8.971653 70.070352 0 0 27.290294,40.53395 18.161899,8.971653 70.070352 0 0 23.858569,34.021519 c -0.477068,0.482856 -0.944722,1.038046 -1.40947,1.660408 -3.504125,4.692505 -0.521057,10.988472 3.014089,13.619928 1.112677,0.82858 2.608804,1.487258 4.233054,1.876796 z"
       style="fill-opacity:0.149287;stroke:#21201d;stroke-width:0;stroke-linecap:round;stroke-linejoin:round;stroke-opacity:0.696924;paint-order:fill markers stroke"
       id="path3-7" />
    <path
       style="fill:#000000;fill-opacity:0;stroke:#fff7e0;stroke-width:0.815666;stroke-linecap:round;stroke-linejoin:round;stroke-dasharray:none;stroke-opacity:1;paint-order:fill markers stroke"
       d="m 38.800548,45.288091 c 0,0 1.553652,-2.740149 -0.209545,-5.153088"
       id="path4-6"
       sodipodi:nodetypes="cc" />
    <path
       style="fill:#000000;fill-opacity:0.149287;stroke:#fff7e0;stroke-width:0.741515;stroke-linecap:round;stroke-linejoin:round;stroke-dasharray:none;stroke-opacity:1;paint-order:fill markers stroke"
       d="M 37.447249,38.796859 37.020576,38.329111"
       id="path5-1"
       sodipodi:nodetypes="cc" />
    <path
       sodipodi:type="star"
       style="fill:url(#linearGradient26);fill-opacity:1;fill-rule:nonzero;stroke:#322d21;stroke-width:0.443;stroke-linejoin:round;stroke-miterlimit:8.2;stroke-opacity:0.995995"
       id="path1-5-7"
       inkscape:flatsided="false"
       sodipodi:sides="7"
       sodipodi:cx="9.3473988"
       sodipodi:cy="4.4553022"
       sodipodi:r1="3.4362388"
       sodipodi:r2="2.3474281"
       sodipodi:arg1="0.9357696"
       sodipodi:arg2="1.3845686"
       inkscape:rounded="0.12173243"
       inkscape:randomized="0"
       d="M 11.385772,7.2216663 C 11.222279,7.3421351 9.9816044,6.724541 9.7820325,6.7621425 9.5824607,6.799744 8.651596,7.8264798 8.4554733,7.7737666 8.2593506,7.7210534 7.9686572,6.3659914 7.8148281,6.233404 7.6609991,6.1008166 6.2778801,6.0131966 6.1968124,5.8269955 6.1157447,5.6407945 6.9939305,4.5686539 7.0016807,4.3657186 7.0094308,4.1627833 6.2155743,3.0267871 6.3106073,2.8473114 6.4056403,2.6678357 7.7914134,2.6859603 7.9549068,2.5654915 8.1184001,2.4450227 8.5115962,1.1160787 8.7111681,1.0784772 8.9107399,1.0408757 9.760585,2.1356172 9.9567078,2.1883304 10.15283,2.2410436 11.436995,1.7198737 11.590824,1.8524611 c 0.153829,0.1325874 -0.172205,1.4795833 -0.09114,1.6657843 0.08107,0.186201 1.289198,0.8652568 1.281447,1.0681921 -0.0077,0.2029353 -1.264152,0.7878701 -1.359185,0.9673458 -0.09503,0.1794757 0.127317,1.5474143 -0.03618,1.667883 z"
       inkscape:transform-center-x="-0.33505938"
       inkscape:transform-center-y="-0.73490864"
       transform="matrix(1.1339459,0.26297713,-0.26297713,1.1339459,23.414846,-1.91629)" />
    <path
       sodipodi:type="star"
       style="fill:url(#linearGradient24);fill-opacity:1;fill-rule:nonzero;stroke:#322d21;stroke-width:0.443;stroke-linejoin:round;stroke-miterlimit:8.2;stroke-opacity:0.995995"
       id="path1-5-7-0"
       inkscape:flatsided="false"
       sodipodi:sides="6"
       sodipodi:cx="9.3473988"
       sodipodi:cy="4.4553022"
       sodipodi:r1="3.4362388"
       sodipodi:r2="2.3474281"
       sodipodi:arg1="0.9357696"
       sodipodi:arg2="1.4593684"
       inkscape:rounded="0.12173243"
       inkscape:randomized="0"
       d="M 11.385772,7.2216663 C 11.206484,7.3537735 9.8297487,6.7634083 9.6084269,6.7881723 9.3871051,6.8129364 8.1748962,7.6929822 7.9708439,7.6037675 7.7667916,7.5145529 7.5896952,6.0270826 7.457588,5.8477943 7.3254809,5.668506 5.9572344,5.0587252 5.9324704,4.8374034 5.9077064,4.6160816 7.1073453,3.7189765 7.1965599,3.5149241 7.2857746,3.3108718 7.129737,1.8210453 7.3090253,1.6889381 7.4883136,1.556831 8.8650488,2.1471961 9.0863707,2.1224321 9.3076925,2.0976681 10.519901,1.2176223 10.723954,1.306837 c 0.204052,0.089215 0.381148,1.5766849 0.513255,1.7559732 0.132108,0.1792883 1.500354,0.789069 1.525118,1.0103908 0.02476,0.2213219 -1.174875,1.118427 -1.264089,1.3224793 -0.08922,0.2040523 0.06682,1.6938789 -0.112466,1.825986 z"
       inkscape:transform-center-x="0.3024544"
       inkscape:transform-center-y="-0.66339452"
       transform="matrix(-1.0236017,0.23738684,0.23738684,1.0236017,29.1143,-1.1854704)" />
    <path
       sodipodi:type="star"
       style="fill:url(#linearGradient25);fill-opacity:1;fill-rule:nonzero;stroke:#322d21;stroke-width:0.443;stroke-linejoin:round;stroke-miterlimit:8.2;stroke-opacity:0.995995"
       id="path1-5-9"
       inkscape:flatsided="false"
       sodipodi:sides="6"
       sodipodi:cx="9.3473988"
       sodipodi:cy="4.4553022"
       sodipodi:r1="3.4362388"
       sodipodi:r2="2.3474281"
       sodipodi:arg1="0.9357696"
       sodipodi:arg2="1.4593684"
       inkscape:rounded="0.12173243"
       inkscape:randomized="0"
       d="M 11.385772,7.2216663 C 11.206484,7.3537735 9.8297487,6.7634083 9.6084269,6.7881723 9.3871051,6.8129364 8.1748962,7.6929822 7.9708439,7.6037675 7.7667916,7.5145529 7.5896952,6.0270826 7.457588,5.8477943 7.3254809,5.668506 5.9572344,5.0587252 5.9324704,4.8374034 5.9077064,4.6160816 7.1073453,3.7189765 7.1965599,3.5149241 7.2857746,3.3108718 7.129737,1.8210453 7.3090253,1.6889381 7.4883136,1.556831 8.8650488,2.1471961 9.0863707,2.1224321 9.3076925,2.0976681 10.519901,1.2176223 10.723954,1.306837 c 0.204052,0.089215 0.381148,1.5766849 0.513255,1.7559732 0.132108,0.1792883 1.500354,0.789069 1.525118,1.0103908 0.02476,0.2213219 -1.174875,1.118427 -1.264089,1.3224793 -0.08922,0.2040523 0.06682,1.6938789 -0.112466,1.825986 z"
       inkscape:transform-center-x="0.10400107"
       inkscape:transform-center-y="-1.3089877"
       transform="matrix(1.5481355,0,0,1.5481355,12.163854,-0.93432047)" />
  </g>
</svg>
