<?xml version="1.0" encoding="UTF-8" standalone="no"?>
<!-- Created with Inkscape (http://www.inkscape.org/) -->

<svg
   width="200"
   height="200.00003"
   viewBox="0 0 52.916666 52.916674"
   version="1.1"
   id="svg1"
   inkscape:version="1.4.2 (f4327f4, 2025-05-13)"
   sodipodi:docname="Tongue3.svg"
   xmlns:inkscape="http://www.inkscape.org/namespaces/inkscape"
   xmlns:sodipodi="http://sodipodi.sourceforge.net/DTD/sodipodi-0.dtd"
   xmlns="http://www.w3.org/2000/svg"
   xmlns:svg="http://www.w3.org/2000/svg">
  <sodipodi:namedview
     id="namedview1"
     pagecolor="#ffffff"
     bordercolor="#000000"
     borderopacity="0.25"
     inkscape:showpageshadow="2"
     inkscape:pageopacity="0.0"
     inkscape:pagecheckerboard="0"
     inkscape:deskcolor="#d1d1d1"
     inkscape:document-units="mm"
     inkscape:zoom="4.543042"
     inkscape:cx="90.2479"
     inkscape:cy="85.735505"
     inkscape:window-width="3840"
     inkscape:window-height="2054"
     inkscape:window-x="-11"
     inkscape:window-y="-11"
     inkscape:window-maximized="1"
     inkscape:current-layer="layer1" />
  <defs
     id="defs1">
    <inkscape:path-effect
       effect="spiro"
       id="path-effect9"
       is_visible="true"
       lpeversion="1" />
    <inkscape:path-effect
       effect="spiro"
       id="path-effect8"
       is_visible="true"
       lpeversion="1" />
    <inkscape:path-effect
       effect="mirror_symmetry"
       start_point="17.255329,9.2448751"
       end_point="17.255329,29.300879"
       center_point="17.255329,19.272877"
       id="path-effect5"
       is_visible="true"
       lpeversion="1.2"
       lpesatellites=""
       mode="free"
       discard_orig_path="false"
       fuse_paths="true"
       oposite_fuse="false"
       split_items="false"
       split_open="false"
       link_styles="false" />
    <inkscape:path-effect
       effect="mirror_symmetry"
       start_point="27.030316,8.4102839"
       end_point="27.030316,28.182973"
       center_point="27.030316,18.296628"
       id="path-effect3"
       is_visible="true"
       lpeversion="1.2"
       lpesatellites=""
       mode="free"
       discard_orig_path="false"
       fuse_paths="false"
       oposite_fuse="false"
       split_items="false"
       split_open="false"
       link_styles="false" />
    <inkscape:path-effect
       effect="spiro"
       id="path-effect8-8"
       is_visible="true"
       lpeversion="1" />
    <inkscape:path-effect
       effect="spiro"
       id="path-effect8-0"
       is_visible="true"
       lpeversion="1" />
    <inkscape:path-effect
       effect="spiro"
       id="path-effect8-0-9"
       is_visible="true"
       lpeversion="1" />
    <inkscape:path-effect
       effect="spiro"
       id="path-effect8-8-6"
       is_visible="true"
       lpeversion="1" />
    <inkscape:path-effect
       effect="spiro"
       id="path-effect8-3"
       is_visible="true"
       lpeversion="1" />
    <clipPath
       clipPathUnits="userSpaceOnUse"
       id="clipPath6">
      <path
         id="path6"
         style="fill:#f54e4e;fill-opacity:1;stroke:#1c1c1c;stroke-width:0;stroke-linecap:round;stroke-linejoin:round;stroke-dasharray:none;stroke-opacity:1"
         d="m 44.939795,30.199785 c -4e-6,7.909508 -5.558438,6.887158 -12.454814,6.887158 -6.896379,0 -12.519183,1.022349 -12.519181,-6.887159 -1e-6,-7.909504 1.857393,-18.505213 12.486997,-18.505213 10.629603,1e-6 12.486997,10.595708 12.486998,18.505214 z"
         sodipodi:nodetypes="ssszs" />
    </clipPath>
    <clipPath
       clipPathUnits="userSpaceOnUse"
       id="clipPath3">
      <path
         id="path3"
         style="fill:#d2f54e;fill-opacity:0.504929;stroke:#1c1c1c;stroke-width:0;stroke-linecap:round;stroke-linejoin:round;stroke-dasharray:none;stroke-opacity:1"
         d="m 45.055879,30.306775 c 0,7.901585 -5.589006,6.880259 -12.523314,6.880259 -6.934307,0 -12.588032,1.021326 -12.588032,-6.880259 0,-7.901585 1.867607,-18.486683 12.555673,-18.486683 10.688066,0 12.555673,10.585098 12.555673,18.486683 z"
         sodipodi:nodetypes="ssszs" />
    </clipPath>
    <clipPath
       clipPathUnits="userSpaceOnUse"
       id="clipPath18">
      <rect
         style="fill:#f5dada;fill-opacity:1;stroke:#212532;stroke-width:0.689557;stroke-linejoin:round;stroke-miterlimit:8.2;stroke-dasharray:none;stroke-opacity:0.995995"
         id="rect18"
         width="45.940063"
         height="45.940067"
         x="3.6883085"
         y="3.7996202"
         ry="5.3239479"
         rx="17.050934" />
    </clipPath>
    <inkscape:path-effect
       effect="spiro"
       id="path-effect7"
       is_visible="true"
       lpeversion="1" />
    <inkscape:path-effect
       effect="spiro"
       id="path-effect10"
       is_visible="true"
       lpeversion="1" />
    <inkscape:path-effect
       effect="spiro"
       id="path-effect11"
       is_visible="true"
       lpeversion="1" />
  </defs>
  <g
     inkscape:label="Ebene 1"
     inkscape:groupmode="layer"
     id="layer1"
     transform="translate(-0.20000279,-0.20000285)">
    <path
       style="fill:#975959;fill-opacity:1;stroke:#6f3f3f;stroke-width:0;stroke-linecap:round;stroke-dasharray:none;stroke-opacity:1;paint-order:fill markers stroke"
       d="m 16.447246,7.687159 c 0,0 -0.218794,-0.6132677 -0.485739,-0.7369806 C 15.707844,6.832621 15.394148,7.138772 15.128811,7.0506758 13.976601,6.6681236 12.491942,4.5382422 12.491942,4.5382422 L 9.2305515,5.2752228 15.718637,10.769077 16.65542,11.03707 15.961507,9.0271237 Z"
       id="path2"
       sodipodi:nodetypes="caacccccc" />
    <path
       style="fill:#b08383;fill-opacity:1;stroke:#6f3f3f;stroke-width:0;stroke-linecap:round;stroke-dasharray:none;stroke-opacity:1;paint-order:fill markers stroke"
       d="m 19.014716,9.0845787 0.350791,-1.4733233 0.02339,-1.0523736 c 0,0 -0.2122,-0.5738433 -0.467721,-0.6314244 -0.129283,-0.029133 -0.267112,0.084332 -0.350795,0.1870887 -0.08723,0.1071095 -0.116931,0.3975635 -0.116931,0.3975635 l -1.122532,0.023386 c 0,0 0.134264,-0.2088241 0.140317,-0.3274052 0.0067,-0.1305042 -0.0095,-0.2997252 -0.116931,-0.3741772 -0.115492,-0.080069 -0.29185,-0.032137 -0.420949,0.023386 -0.177302,0.076254 -0.32378,0.2308045 -0.42095,0.3975635 -0.509255,0.8739588 -0.724968,2.946647 -0.724968,2.946647 0,0 0.265644,1.7249573 0.865285,2.2684503 0.395134,0.358136 1.011337,0.455809 1.543481,0.42095 0.261485,-0.01713 0.529126,-0.129913 0.724969,-0.30402 0.15392,-0.136837 0.262324,-0.336193 0.304019,-0.537879 0.133325,-0.644922 -0.210475,-1.9644323 -0.210475,-1.9644323 z"
       id="path1"
       sodipodi:nodetypes="cccaaccaaaacaaaac" />
    <path
       style="fill:#933d3d;fill-opacity:1;stroke:#6f3f3f;stroke-width:0;stroke-linecap:round;stroke-dasharray:none;stroke-opacity:1;paint-order:fill markers stroke"
       d="m 18.655054,9.1228257 0.259039,-1.0964921 0.01727,-0.7832087 -0.345384,-0.4699254 -0.259039,0.1392371 -0.08635,0.2958789 -0.828923,0.017404 0.103615,-0.243665 -0.08635,-0.2784742 -0.310847,0.017404 -0.310846,0.2958789 -0.535347,2.1929845 0.638962,1.6882503 1.139771,0.313284 0.535347,-0.226261 0.2245,-0.400306 z"
       id="path1-8"
       inkscape:transform-center-x="0.62028337"
       inkscape:transform-center-y="-1.2710502" />
    <ellipse
       style="fill:#4a2b2b;fill-opacity:1;stroke:#6f3f3f;stroke-width:0;stroke-linecap:round;stroke-dasharray:none;stroke-opacity:1;paint-order:fill markers stroke"
       id="path4"
       cx="15.588823"
       cy="7.746316"
       rx="0.36380208"
       ry="0.48782551" />
    <ellipse
       style="fill:#4a2b2b;fill-opacity:1;stroke:#6f3f3f;stroke-width:0;stroke-linecap:round;stroke-dasharray:none;stroke-opacity:1;paint-order:fill markers stroke"
       id="path5"
       cx="17.581461"
       cy="8.680625"
       rx="0.29765624"
       ry="0.95911461" />
    <path
       style="fill:#4a2b2b;fill-opacity:0;stroke:#852020;stroke-width:1.3;stroke-linecap:round;stroke-dasharray:none;stroke-opacity:1;paint-order:fill markers stroke"
       d="m 18.042674,9.8837177 c 0,0 12.033659,-1.430563 9.040241,1.6563993 -2.993419,3.086963 -19.7846265,2.15152 -12.72203,6.548104 7.062597,4.396583 27.314945,-1.870887 23.058678,6.26747 -4.256268,8.138357 -25.116653,3.086964 -11.412408,13.049434"
       id="path7"
       sodipodi:nodetypes="csssc" />
    <path
       style="fill:#4a2b2b;fill-opacity:0;stroke:#852020;stroke-width:1.2;stroke-linecap:round;stroke-dasharray:none;stroke-opacity:1;paint-order:fill markers stroke"
       d="m 18.048147,10.001847 c 0,0 12.033659,-1.4305633 9.040241,1.656399 -2.490304,2.568127 -14.530081,2.35234 -14.440384,4.738712 0.01812,0.482117 0.0022,1.500391 1.189187,2.239341 2.079935,1.294794 5.448934,2.321933 8.918633,2.354656 6.579032,0.06205 11.797234,-0.72776 13.039312,1.511547 1.178375,3.461675 -7.303923,4.799138 -9.040905,5.27435 -4.368495,1.240774 -9.111141,2.631933 -9.048419,4.796189 0.0345,1.19051 3.035238,4.725406 6.620097,7.331464"
       id="path7-1"
       sodipodi:nodetypes="csssssssc" />
    <path
       style="fill:#852020;fill-opacity:1;stroke:#852020;stroke-width:0;stroke-linecap:round;stroke-dasharray:none;stroke-opacity:1;paint-order:fill markers stroke"
       d="m 24.543311,40.174309 2.546614,0.363802 -0.959114,-2.745052 -4.233334,-3.902604 -0.198437,-2.215885 3.571875,-1.389063 8.400521,-2.083593 3.009635,-3.141927 1.124479,-2.811198 -0.959114,-1.686719 -3.96875,-0.330729 2.414322,1.653646 0.363803,1.852083 -2.182813,1.918229 -7.309114,2.215886 -6.713802,2.447395 -1.521355,1.686719 0.529167,2.678906 3.604948,3.604948 z"
       id="path8" />
    <path
       d="m 40.158895,48.937083 c 0.02276,-0.02838 0.04538,-0.05689 0.0677,-0.08578 3.095969,-4.008998 3.865053,-8.509425 -3.013769,-13.619841 -6.878824,-5.110416 -10.529125,-4.240334 -14.033252,0.452169 -3.504091,4.692522 -0.520901,10.98844 3.014286,13.61984 0.0435,0.03238 0.08764,0.06426 0.132292,0.09612 h 6.848161 c 2.491626,0 4.854967,-0.165122 6.984586,-0.462504 z"
       style="fill:#e79c9c;stroke:#000000;stroke-width:0"
       id="path12" />
    <path
       id="rect1-1"
       style="fill:#d65757;fill-opacity:1;stroke:#000000;stroke-width:0;stroke-dasharray:none;stroke-opacity:0"
       d="m 35.460022,37.424731 c 4.252763,3.131779 3.842137,6.036272 1.908986,8.626566 -1.933186,2.590268 -6.736503,1.996139 -8.88838,0.286379 -2.151877,-1.70976 -3.829263,-5.923132 -1.90897,-8.626572 1.920299,-2.703438 4.427268,-3.628292 8.888364,-0.286373 z"
       sodipodi:nodetypes="czzzc" />
    <path
       d="m 41.017205,33.695001 c -0.47636,-0.347459 -1.151037,-0.741832 -1.634645,-0.90504 -0.737574,-0.248933 -1.420956,-0.200616 -1.753055,0.08202 -0.11364,-0.0943 -0.244534,-0.196874 -0.394331,-0.309111 -1.687598,-1.264556 -3.163364,-1.019079 -6.920629,-2.660694 -1.210364,-0.528828 1.28032,2.89791 2.967915,4.162465 1.203169,0.901561 2.517858,1.315866 3.41447,1.157818 0.01531,0.754587 0.585498,1.697863 1.534678,2.409105 1.299361,0.973644 4.438347,1.982241 3.802353,1.180137 -1.819426,-2.294605 -2.028956,-3.512655 -3.06761,-4.451656 0.584169,-0.01467 1.265773,-0.13561 2.495105,-0.04081 0.309986,0.0239 0.03208,-0.276734 -0.444269,-0.62422 z"
       style="fill:#703636;fill-opacity:1;stroke:#4a854b;stroke-width:0;stroke-dasharray:none"
       id="path369" />
    <path
       d="M 30.426742,51.180201 A 18.161899,8.971653 70.070352 0 0 28.02079,40.535496 18.161899,8.971653 70.070352 0 0 24.589065,34.023065 c -0.477068,0.482856 -0.944722,1.038046 -1.40947,1.660408 -3.504125,4.692505 -0.521057,10.988472 3.014089,13.619928 1.112677,0.82858 2.608804,1.487258 4.233054,1.876796 z"
       style="fill-opacity:0.149287;stroke:#21201d;stroke-width:0;stroke-linecap:round;stroke-linejoin:round;stroke-opacity:0.696924;paint-order:fill markers stroke"
       id="path3-7" />
    <path
       style="fill:#000000;fill-opacity:0;stroke:#fff7e0;stroke-width:0.815666;stroke-linecap:round;stroke-linejoin:round;stroke-dasharray:none;stroke-opacity:1;paint-order:fill markers stroke"
       d="m 39.531044,45.289637 c 0,0 1.553652,-2.740149 -0.209545,-5.153088"
       id="path4-6"
       sodipodi:nodetypes="cc" />
    <path
       style="fill:#000000;fill-opacity:0.149287;stroke:#fff7e0;stroke-width:0.741515;stroke-linecap:round;stroke-linejoin:round;stroke-dasharray:none;stroke-opacity:1;paint-order:fill markers stroke"
       d="M 38.177745,38.798405 37.751072,38.330657"
       id="path5-1"
       sodipodi:nodetypes="cc" />
  </g>
</svg>
