<?xml version="1.0" encoding="UTF-8" standalone="no"?>
<!-- Created with Inkscape (http://www.inkscape.org/) -->

<svg
   width="92.135254mm"
   height="48.688919mm"
   viewBox="0 0 92.135256 48.688919"
   version="1.1"
   id="svg1"
   inkscape:version="1.4.2 (f4327f4, 2025-05-13)"
   sodipodi:docname="MapmodInfo.svg"
   xmlns:inkscape="http://www.inkscape.org/namespaces/inkscape"
   xmlns:sodipodi="http://sodipodi.sourceforge.net/DTD/sodipodi-0.dtd"
   xmlns="http://www.w3.org/2000/svg"
   xmlns:svg="http://www.w3.org/2000/svg">
  <sodipodi:namedview
     id="namedview1"
     pagecolor="#ffffff"
     bordercolor="#000000"
     borderopacity="0.25"
     inkscape:showpageshadow="2"
     inkscape:pageopacity="0.0"
     inkscape:pagecheckerboard="0"
     inkscape:deskcolor="#d1d1d1"
     inkscape:document-units="mm"
     inkscape:zoom="1.6168981"
     inkscape:cx="-50.71439"
     inkscape:cy="205.0222"
     inkscape:window-width="3840"
     inkscape:window-height="2054"
     inkscape:window-x="-11"
     inkscape:window-y="-11"
     inkscape:window-maximized="1"
     inkscape:current-layer="layer1" />
  <defs
     id="defs1" />
  <path
     id="path19"
     style="display:none;fill:#a18fd9;stroke:#212532;stroke-width:1.10229;stroke-linejoin:round;stroke-miterlimit:8.2;stroke-opacity:0.995995"
     inkscape:transform-center-x="-0.074448879"
     inkscape:transform-center-y="0.094904335"
     d="m -50.539937,94.531767 c -3.3e-4,0.68279 -4.44853,3.14227 -5.06443,2.80038 -0.61591,-0.34189 -0.6116,-5.26801 0.005,-5.60891 0.61651,-0.3409 5.06012,2.12574 5.05953,2.80853 z" />
  <g
     inkscape:label="Ebene 1"
     inkscape:groupmode="layer"
     id="layer1"
     transform="translate(-233.97528,-53.482902)"
     style="display:inline">
    <path
       id="rect2"
       style="opacity:1;fill:#5c5c5c;fill-opacity:1;stroke:#0b0c1c;stroke-width:1.52294;stroke-linecap:round;stroke-linejoin:round;stroke-dasharray:none;stroke-opacity:0.999272"
       d="m 257.39714,54.244372 h 46.66909 c 11.5182,0 20.76785,4.038557 20.79096,7.640151 0.10576,16.482039 2.65018,25.871021 -4.97405,34.745754 -3.58914,4.177813 -4.29871,4.780073 -15.81691,4.780073 h -46.66909 c -11.51819,0 -20.68401,-4.038767 -20.79096,-7.640149 -0.5274,-17.760316 -5.05609,-25.576536 2.23832,-34.497055 4.05599,-4.960168 7.03445,-5.028774 18.55264,-5.028774 z"
       sodipodi:nodetypes="sssasssas" />
  </g>
</svg>
